<svg viewBox="0 0 300 46.413" xmlns="http://www.w3.org/2000/svg"><defs><linearGradient id="a" x1="525.44" x2="525.44" y1="569.82" y2="786.99" gradientUnits="userSpaceOnUse"><stop stop-color="#eb2023" offset="0"/><stop stop-color="#e92026" offset=".096"/><stop stop-color="#e31e27" offset=".204"/><stop stop-color="#e01e26" offset=".299"/><stop stop-color="#d81f27" offset=".404"/><stop stop-color="#cf2027" offset=".5"/><stop stop-color="#c62127" offset=".6"/><stop stop-color="#b92025" offset=".7"/><stop stop-color="#ae1f23" offset=".8"/><stop stop-color="#a01d22" offset=".9"/><stop stop-color="#901c1c" offset="1"/></linearGradient><linearGradient id="b" x1="531.47" x2="652.14" y1="643.61" y2="566.33" gradientUnits="userSpaceOnUse"><stop stop-color="#6c221f" offset="0"/><stop stop-color="#7f2620" offset=".249"/><stop stop-color="#982b24" offset=".498"/><stop stop-color="#b53125" offset=".749"/><stop stop-color="#cb3327" offset="1"/></linearGradient><linearGradient id="c" x1="522" x2="698.77" y1="622.79" y2="520.52" gradientUnits="userSpaceOnUse"><stop stop-color="#e7ebee" offset="0"/><stop stop-color="#dfe4e8" offset=".249"/><stop stop-color="#cad1d7" offset=".498"/><stop stop-color="#a8b5bd" offset=".749"/><stop stop-color="#93a6ad" offset="1"/></linearGradient><linearGradient id="d" x1="421.74" x2="421.74" y1="263.43" y2="473.24" gradientUnits="userSpaceOnUse"><stop stop-color="#05aee9" offset="0"/><stop stop-color="#00a9e0" offset=".096"/><stop stop-color="#07a3dc" offset=".204"/><stop stop-color="#089dd5" offset=".299"/><stop stop-color="#0a92cc" offset=".404"/><stop stop-color="#0f87c3" offset=".5"/><stop stop-color="#127cb8" offset=".6"/><stop stop-color="#0e70ad" offset=".7"/><stop stop-color="#0f63a3" offset=".8"/><stop stop-color="#135393" offset=".9"/><stop stop-color="#184485" offset="1"/></linearGradient><clipPath id="f"><path d="M63.943 200.82h32.252v20.583H63.943V200.82z"/></clipPath><clipPath id="e"><path d="M162.72 676.17H345.6v31.945H162.72V676.17z"/></clipPath></defs><path d="M532.1 643.97l60.179 100c18.655 29.97 49.387 43.571 87.679 43.571h154.82l-181.25-219.64-25.715-14.643-67.857 22.143-34.385 49.758z" fill="url(#a)" transform="translate(221.634 -22.295) scale(.08663)"/><path d="M653.53 567.9l-37.838-45.866-100.01 53.791 10.607 54.296 5.807 13.851c-2.274-36.798 60.908-79.522 121.43-76.071z" fill="url(#b)" transform="translate(221.634 -22.295) scale(.08663)"/><path d="M532.1 643.97l-54.107-89.464c-6.518-10.149-8.304-19.029-8.304-29.375 0-11.379 4.852-17.619 23.482-27.5 21.704-10.392 65.401-14.911 110.45-14.911 73.195 0 90.741 23.491 98.214 48.839 0 0-10.334-4.107-34.643-4.107-77.11 0-138.75 37.43-138.75 94.107 0 11.893 3.661 22.41 3.661 22.41z" fill="url(#c)" transform="translate(221.634 -22.295) scale(.08663)"/><path d="M299.7 263.37h72.78c30.694 0 43.282 12.556 55.699 24.875 14.211 12.919 57.313 71.254 148.43 185.11h-98.616c-40.326 0-53.081-6.87-68.677-30.655z" fill="url(#d)" transform="translate(221.634 -22.295) scale(.08663)"/><path d="M297.88 43.888l.458 1.64h.008l.464-1.64h.388l.3 2.053h-.31l-.214-1.675h-.006l-.48 1.675h-.332l-.465-1.668h-.005l-.213 1.668h-.296l.299-2.053h.405zm-.965 0v.264h-.605v1.789h-.299v-1.79h-.605v-.263h1.509z" fill="#334357"/><g clip-path="url(#e)" transform="matrix(1.6799 0 0 -1.6799 -278.35 1183.918)"><path d="M254.37 693.62h-.042l-2.136-6.038h4.319l-2.141 6.038zm3.823-10.795l-1.046 2.966h-5.592l-1.048-2.966h-2.387l5.009 13.202h2.66l4.932-13.202h-2.528zm20.261 13.731h2.335v-2.207h-2.335v2.207zm.026-3.675h2.282v-10.056h-2.282v10.056zm-16.85 3.676h2.336v-2.208h-2.336v2.208zm.027-3.676h2.282v-10.056h-2.282v10.056zm14.332 3.663h-2.282v-13.719h2.282v13.719zm-7.274-8.815v-4.904h-2.289v7.472c0 .718-.082 2.085-.11 2.582h1.843c.199 0 .256-.084.262-.28l.02-1.246h.052c.18.435.829 1.737 2.725 1.737.635 0 1.105-.205 1.182-.236 0-.433-.045-1.383-.068-1.634-.014-.165-.086-.219-.168-.219-.078 0-.114.018-.157.035a2.52 2.52 0 01-.935.161c-1.218 0-2.357-.879-2.357-3.468m20.784-4.904v6.494c0 1.24-.566 1.996-1.628 1.996-1.404 0-2.336-1.494-2.336-3.51v-4.98h-2.283v7.387c0 .813-.074 1.998-.112 2.667h1.834c.207 0 .266-.085.268-.271.006-.215.024-1.255.024-1.255h.052c.275.473.978 1.738 3.082 1.738 2.169 0 3.381-1.483 3.381-3.148v-7.118h-2.282zm6.316 6.061h4.224c.087 1.621-.764 2.529-2.048 2.529-1.344 0-2.115-.972-2.176-2.529m5.631-3.853c.127 0 .164-.111.174-.225a24.14 24.14 0 00.07-1.646c-.244-.078-1.471-.529-3.119-.529-3.201 0-5.127 1.656-5.127 5.221 0 3.061 1.642 5.236 4.594 5.236 2.898 0 4.276-1.938 4.276-4.344 0-.283-.031-.761-.081-1.396h-6.447c0-1.717 1.094-2.949 3.116-2.949 1.114 0 2 .399 2.352.569.07.034.111.063.192.063m5.346-2.4c2.971 0 4.393 1.215 4.393 3.021 0 1.778-1.263 2.526-2.601 2.968-.384.124-.76.25-1.111.368-.916.303-1.391.701-1.391 1.295 0 .627.572 1.066 1.76 1.066 1.056 0 1.919-.431 2.261-.596.057-.026.108-.063.199-.063.072 0 .161.045.173.223.023.337.063.948.063 1.535-.277.127-1.276.64-2.883.64-2.455 0-3.964-1.277-3.964-2.962 0-1.634 1.117-2.38 2.346-2.787.283-.096.808-.268 1.115-.372 1.283-.426 1.649-.813 1.649-1.413 0-.783-.834-1.17-2.269-1.17-1.177 0-1.986.432-2.311.584-.066.029-.105.063-.196.063-.169 0-.172-.225-.174-.262a44.104 44.104 0 01-.061-1.497c.269-.116 1.435-.641 3.002-.641m-134.54 10.987h-.042l-2.137-6.038h4.316l-2.137 6.038zm3.822-10.795l-1.047 2.966h-5.592l-1.047-2.966h-2.386l5.009 13.203h2.658l4.932-13.203h-2.527zm37.299 13.732h2.334v-2.207h-2.334v2.207zm.027-3.676h2.28v-10.056h-2.28v10.056zm-4.9-5.152v-4.904h-2.285v7.472c0 .719-.082 2.086-.112 2.584h1.844c.199 0 .258-.086.259-.281l.024-1.247h.051c.181.435.828 1.737 2.725 1.737.633 0 1.107-.204 1.185-.235 0-.433-.047-1.383-.069-1.635-.015-.164-.088-.217-.169-.217-.077 0-.116.016-.158.033a2.5 2.5 0 01-.932.162c-1.219 0-2.363-.88-2.363-3.469m-16.857-4.904v6.434c0 1.159-.49 2.058-1.673 2.058-1.332 0-2.1-1.458-2.1-3.5v-4.992h-2.281v6.454c0 1.054-.44 2.038-1.664 2.038-1.351 0-2.107-1.455-2.107-3.572v-4.92h-2.286v7.324c0 .946-.084 2.284-.111 2.732h1.827c.206 0 .274-.068.278-.281l.021-1.247h.052c.139.287.89 1.738 2.986 1.738 1.953 0 2.7-1.401 2.885-1.833a3.318 3.318 0 003.014 1.833c2.046 0 3.442-1.098 3.442-3.304v-6.962h-2.283zm6.314 6.063h4.225c.087 1.618-.761 2.528-2.048 2.528-1.344 0-2.113-.973-2.177-2.528m5.634-3.855c.125 0 .163-.111.173-.225.039-.429.076-1.4.07-1.646-.243-.078-1.47-.529-3.118-.529-3.202 0-5.128 1.658-5.128 5.223 0 3.057 1.641 5.234 4.596 5.234 2.895 0 4.276-1.937 4.276-4.344 0-.283-.032-.761-.083-1.394h-6.447c0-1.719 1.095-2.951 3.114-2.951 1.115 0 2.003.399 2.354.571.07.034.11.061.193.061m28.632 2.894h-.388c-2.868 0-3.432-.997-3.432-2.01 0-.828.546-1.612 1.618-1.612 1.424 0 2.202 1.375 2.202 2.822v.8zm.55-5.102c-.184 0-.337.061-.357.328l-.067.963h-.031c-.135-.185-.967-1.483-3.056-1.483-2.001 0-3.149 1.542-3.149 3.235 0 2.347 2.279 3.526 5.66 3.526h.45v.369c0 1.053-.749 1.617-2.149 1.617a6.284 6.284 0 01-2.713-.649c-.027-.013-.101-.056-.169-.056-.108 0-.169.067-.175.186-.018.378-.057 1.105-.063 1.566.412.157 1.778.664 3.281.664 2.988 0 4.271-1.387 4.271-3.602v-3.921c0-1.43.133-2.366.18-2.743h-1.913zm-7.889 2.208c.06 0 .145-.04.165-.216a23.38 23.38 0 00.064-1.509c-.456-.225-1.444-.675-2.656-.675-3.046 0-4.914 1.768-4.914 5.227 0 3.241 1.661 5.23 4.914 5.23 1.079 0 2.072-.376 2.656-.676 0-.358-.035-1.169-.064-1.51-.014-.143-.083-.212-.165-.212-.091 0-.122.024-.176.048-.735.36-1.426.534-2.048.534-1.939 0-2.737-1.269-2.737-3.414 0-1.912.638-3.411 2.737-3.411.802 0 1.533.286 1.986.504.122.057.143.08.238.08m17.845-2.208v6.494c0 1.241-.566 1.997-1.626 1.997-1.405 0-2.339-1.493-2.339-3.511v-4.98h-2.281v7.387c0 .813-.074 1.998-.11 2.669h1.831c.209 0 .269-.087.27-.273.005-.213.022-1.255.022-1.255h.05c.278.474.98 1.739 3.084 1.739 2.172 0 3.384-1.484 3.384-3.147v-7.12h-2.285z" fill="#334357"/></g><g clip-path="url(#f)" transform="matrix(1.25 0 0 -1.25 -566.1 846.731)"><path d="M104.977 183.506v3.267l.222.273v2.455l.724.492v.058l.264-.142 2.296-1.235.107-.057v-.984l1.368-.547.124-.05v-3.557h.118v-.205h1.25v-1.491H44.616v1.49h1.44v1.47h-.226v.409l.788.916 1.14 1.325 1.139-1.325.774-.9v-.424h-.202v-1.47h.477v2.85h-.241v.393l.807.94 1.146 1.331 1.145-1.332.81-.94v-.392h-.234v-2.84h.383v9.641h4.276v-3.58h4.128v-6.06h.435v10.21h3.572v-10.221h.52v6.316h2.754v7.766h3.572v-14.082h.744v16.006l3.572-1.867v-6.167h3.809v-.718h3.536v-3.059h1.242v5.287l3.152.7.907-.51v2.963l4.104.911 1.851-1.044v-3.609h.05v1.233l1.302 1.334v1.043h.365v-1.033l1.302-1.344v-1.233h.416v-8.893h.654v6.634h.818v1.164h.364v.738l1.127 1.376 1.113-1.376v-.738h.365v-1.164h.724v-6.634h.382v.232h.06z" fill="#086591" fill-rule="evenodd"/></g></svg>