<svg version="1.1" id="Calque_1" xmlns="http://www.w3.org/2000/svg" x="0" y="0" viewBox="0 0 249.5 84" xml:space="preserve"><style>.st0{fill:#e30613}.st1{fill:#fc0}</style><path d="M58.7 61.5s8.1-1.1 10.7-1.2c4.7-.2 7 1.7 7 5.2 0 3.4-2.3 4.8-7 4.8H58.7v-8.8zm-9.5 16h20.7c3.4 0 7 .1 9.2-.8 2.2-.8 3.3-1.7 4.7-3.4 1.6-2 2.3-5 2.3-7.3 0-2.7-.5-5.3-2.5-7.5-.4-.5-.6-1-.4-1.7.2-.7 2.2-1.7 3.3-2.1-16.1.7-27.7 2.2-37.2 4.1l-.1 18.7zm-5.9-13.1c-.1-.4-.4-1.3-.1-2.4.4-1.2 2.5-2.4 2.9-2.6-.1 0-1.4.3-1.5.3-2.6.6-3.2.7-5.2 1.2-3.1.8-16.9 4-28.8 10.6 0 0-.4 1-.4 1.1-1.6 4-4.2 4.9-4.2 4.9h12.1l2-5.7c.4-.9 1.9-2.4 3.7-2.6l11.4-1.4 3.3 9.8H48l-4.7-13.2z"/><path class="st0" d="M57.9 37.5H45.5v.2c1.6.7 3.7 2.6 3.7 6v9.9c3.5-.3 5.6-.5 9.5-.8v-8.5H67c4.4 0 6.7 1.5 6.7 4.5 0 1.8-1.8 2.7-4.2 3.4 1.3 0 2.8-.1 4.1-.1 4-.3 6.4-.4 8.4-2.9 1.7-2.1 1.6-4.9.5-6.7-.8-1.3-1.6-2.2-2.9-3-1.4-.9-4.3-1.6-7.4-1.9-2.1 0-11.8-.1-14.3-.1m-29.7 9.2l3.2 9.6c2.8-.6 5.7-1 8.6-1.4l-6.1-17.3H19v.3c1.1.5 3.1 2 1.9 5.9l-6.1 16.6c2.6-.8 7.3-2 10.1-2.6l3.3-11.1z"/><path class="st1" d="M38.1 17.1c-1.4-.9-4-2.6-5.8-5.9-.2 3.3-1.7 5.8-2.6 7.1.7.2 1.3.3 2.1.3 2.6.3 4.6-.3 6.3-1.5m22.5 1.5l2.1-.3c-.9-1.3-2.4-3.8-2.6-7.1-1.8 3.3-4.5 5.1-5.8 5.9 1.7 1.2 3.8 1.8 6.3 1.5"/><path class="st1" d="M46.2 27.4c7.4 0 14.1 1.4 19.2 3.7h.1c1.8-4.8 9-21.2 9-21.2-1.1 1.1-5.9 9.8-14.4 10.5-8.4.7-11.8-7.7-13.9-17.2-2.1 9.4-5.4 17.9-13.9 17.2C23.9 19.7 19.1 11 18 9.9c0 0 7.2 16.4 9 21.2 5-2.3 11.8-3.7 19.2-3.7m65.5 46.8h12.8v3.3h-12.8z"/><path class="st0" d="M124.5 74.2h12.8v3.3h-12.8z"/><path d="M98.9 74.2h12.8v3.3H98.9zm18.8-22.1h3.3v15.8h-3.3zm13.2 7.6c1.6 0 2.6-.6 2.6-2.4 0-1.8-1.1-2.3-2.6-2.3h-2.5v4.7h2.5zm-5.7-7.6h5.9c3.2 0 5.9 1.5 5.9 5.2 0 2.4-1.3 3.9-3.1 4.6l3.6 6h-3.7l-3.2-5.5h-2.1v5.5h-3.3V52.1zm34.5 0h10.4V55h-7.2v3.6h6.4v2.8h-6.4v3.7h7.6v2.8h-10.8zm14.1 0h3.3v13h7.1v2.8h-10.4zm11.1 7.9c0-4.7 3.3-8.1 8.1-8.1 2.6 0 4.4.7 5.7 2.2l-2.2 2.2c-.8-.8-1.7-1.4-3.5-1.4-2.9 0-4.7 2.2-4.7 5.2s1.9 5.2 5.2 5.2c1 0 2.3-.2 3.1-.6v-2.6h-3.8v-2.9h6.8v7.1c-.9.7-3.2 1.8-6.1 1.8-5.2 0-8.6-3.4-8.6-8.1m18.4-7.9h3.3v15.8h-3.3zm7.2 10.1V52.1h3.3V62c0 2.3 1 3.2 3.2 3.2 2.1 0 3.1-.9 3.1-3.2v-9.9h3.3v10.1c0 4-2.8 5.9-6.4 5.9-3.8 0-6.5-1.9-6.5-5.9m16-10.3h.3l7.8 8.6 7.7-8.6h.3v16h-3.1V62c0-1.1.1-2.8.1-2.8s-1 1.4-1.7 2.2l-3.1 3.5h-.3l-3.1-3.5c-.7-.8-1.7-2.2-1.7-2.2s.1 1.7.1 2.8v5.9h-3.1v-16zm-75 13.2h-3v-3.9h2.8c1.3 0 2.2.8 2.2 2 0 1.1-.8 1.9-2 1.9m-3-10.1h2.5c1.3 0 1.9.6 1.9 1.7s-.7 1.7-2 1.7h-2.4V55zm5.2 4.6c1.5-.4 2.4-1.7 2.4-3.2 0-2.4-1.6-4.2-4.8-4.2h-7.4v.1c.6.3 1.4 1 1.4 2.2V68h6.4c3.3 0 5.1-2 5.1-4.5 0-2.3-1.2-3.5-3.1-3.9m-49 3.5l1.9-5.2 2 5.2h-3.9zm9.4 4.8l-6.9-16h-2.4v.1c.4.2 1.2.8.7 2.3l-5.1 11.6c-.6 1.6-1.6 1.9-1.6 1.9h4l.9-2.1h6.1l.9 2.1h3.4v.1"/></svg>