<svg xmlns="http://www.w3.org/2000/svg" version="1.0" width="800" height="170"><g font-size="74.567" font-weight="400"><path d="M299.224 6.746h43.461v53.72c4.3-4.512 9.183-7.896 14.646-10.152 5.464-2.256 11.509-3.384 18.136-3.384 13.676 0 24.99 4.917 33.944 14.751 8.953 9.835 13.43 23.952 13.43 42.352 0 12.266-2.045 23.07-6.133 32.41-4.09 9.342-9.747 16.321-16.973 20.939-7.226 4.617-15.245 6.926-24.057 6.926-7.543 0-14.452-1.622-20.726-4.864-4.724-2.538-9.87-7.297-15.439-14.276v16.602h-40.29V6.746zm43.144 98.556c0 9.658 1.815 16.655 5.446 20.99 3.63 4.336 8.23 6.504 13.8 6.504 5.146 0 9.464-2.133 12.954-6.398s5.234-11.438 5.234-21.52c0-8.882-1.71-15.403-5.128-19.562-3.42-4.16-7.561-6.24-12.426-6.24-5.851 0-10.627 2.169-14.328 6.504-3.701 4.336-5.552 10.91-5.552 19.722zM445.667 6.746h43.144V161.77h-43.144V6.746zM639.98 161.77h-40.183v-18.188c-5.992 7.472-12.038 12.795-18.136 15.967-6.098 3.173-13.588 4.759-22.47 4.759-11.844 0-21.132-3.543-27.865-10.628-6.732-7.085-10.098-17.994-10.098-32.728V49.468h43.25v61.755c0 7.05 1.304 12.055 3.912 15.016 2.609 2.961 6.275 4.442 10.998 4.442 5.146 0 9.358-1.974 12.637-5.922 3.278-3.948 4.917-11.033 4.917-21.255V49.468h43.038V161.77zm155.113-45.47h-86.289c.776 6.908 2.644 12.054 5.605 15.438 4.16 4.864 9.587 7.297 16.285 7.297 4.23 0 8.248-1.058 12.055-3.173 2.326-1.34 4.829-3.7 7.508-7.085l42.404 3.913c-6.486 11.28-14.311 19.369-23.476 24.269-9.164 4.9-22.312 7.349-39.443 7.349-14.875 0-26.578-2.097-35.108-6.292-8.53-4.195-15.597-10.857-21.202-19.986-5.604-9.13-8.407-19.863-8.407-32.2 0-17.553 5.623-31.759 16.867-42.615 11.244-10.857 26.771-16.285 46.581-16.285 16.073 0 28.763 2.432 38.069 7.296 9.305 4.865 16.39 11.914 21.255 21.15 4.864 9.235 7.296 21.255 7.296 36.059v4.864zm-43.779-20.621c-.846-8.319-3.084-14.276-6.715-17.871-3.63-3.596-8.407-5.393-14.328-5.393-6.839 0-12.302 2.714-16.39 8.142-2.61 3.384-4.266 8.425-4.97 15.122h42.403z" style="text-align:start;line-height:100%;-inkscape-font-specification:Arial Black" fill="#252f86" font-family="Arial Black"/><path d="M84.817 147.917c-7.05 5.993-13.835 10.222-20.356 12.69-6.521 2.467-13.518 3.7-20.99 3.7-12.338 0-21.82-3.013-28.447-9.04-6.626-6.028-9.94-13.73-9.94-23.106 0-5.499 1.252-10.522 3.754-15.069 2.503-4.547 5.781-8.195 9.835-10.944 4.053-2.75 8.618-4.83 13.694-6.24 3.736-.986 9.376-1.938 16.92-2.855 15.367-1.832 26.682-4.018 33.944-6.556.07-2.608.105-4.265.105-4.97 0-7.755-1.797-13.218-5.393-16.39-4.864-4.3-12.09-6.45-21.678-6.451-8.953 0-15.562 1.569-19.827 4.706-4.265 3.137-7.42 8.689-9.464 16.655L8.362 81.509c1.692-7.966 4.477-14.4 8.354-19.299 3.878-4.9 9.482-8.67 16.814-11.315 7.332-2.643 15.827-3.965 25.485-3.965 9.587 0 17.377 1.128 23.37 3.384 5.992 2.256 10.398 5.093 13.218 8.512 2.82 3.42 4.794 7.737 5.922 12.954.634 3.243.951 9.094.951 17.554v25.379c0 17.695.406 28.886 1.216 33.574.811 4.688 2.415 9.183 4.812 13.483h-19.88c-1.974-3.948-3.243-8.565-3.807-13.853zm-1.586-42.51c-6.91 2.82-17.272 5.217-31.09 7.191-7.825 1.128-13.359 2.397-16.602 3.807-3.243 1.41-5.745 3.472-7.508 6.186-1.762 2.714-2.643 5.728-2.643 9.041 0 5.076 1.92 9.306 5.763 12.69 3.842 3.384 9.464 5.076 16.866 5.076 7.332 0 13.853-1.604 19.563-4.812 5.71-3.207 9.905-7.596 12.584-13.165 2.044-4.3 3.067-10.645 3.067-19.034v-6.98zm62.309-76.771V6.746h19.034v21.89H145.54zm0 133.134V49.468h19.034V161.77H145.54zm68.44 0V49.468h17.13v17.025c4.371-7.966 8.407-13.218 12.108-15.756 3.702-2.538 7.773-3.807 12.214-3.807 6.415 0 12.936 2.044 19.563 6.133l-6.556 17.66c-4.653-2.75-9.306-4.124-13.959-4.124-4.159 0-7.895 1.251-11.209 3.754-3.313 2.502-5.675 5.974-7.085 10.416-2.115 6.767-3.172 14.17-3.172 22.206v58.795H213.98z" style="text-align:start;line-height:100%;-inkscape-font-specification:Arial" fill="#828282" font-family="Arial"/></g></svg>