<svg width="700" height="278.61" xmlns="http://www.w3.org/2000/svg"><path d="M435.8 174.234c-35.046 17.042-60.502 52.242-58.193 77.94-138.343-41.072-267.073-25.64-360.417 20.945-5.41 2.703-10.47 2.202-1.881-2.877 94.501-55.894 276.406-105.4 420.483-96.009" fill="#86d0f4"/><path d="M685.326 121.835l-4.957 23.297s-1.459 10.47-8.823 14.295c-7.368 3.83-19.438 3.801-19.438 3.801H521.511l7.758-36.493c-12.915 28.4-46.687 41.89-106.376 41.89-28.965 0-59.057-2.49-75.54-15.127l2.076 9.73h-64.68l-2.708-17.677h-63.388l-10.232 17.678H143.75l85.11-133.324s8.361-13.8 14.903-17.07c7.51-3.757 21.197-3.543 21.197-3.543h51.655l22.932 107.581h69.557c-.884 5.177.321 8.628 4.132 10.995 4.068 2.158 10.523 3.237 20.011 3.237 18.972 0 25.246-5.172 26.802-12.502.963-4.53-.875-9.055-8.798-10.353l-67.218-10.348c-28.79-4.526-37.412-21.776-32.828-43.333 8.477-39.887 49.797-50.668 99.81-50.668 68.564 0 93.003 17.897 88.24 50.454h-70.719c1.332-6.256-1.511-10.14-6.659-12.293-4.885-2.372-11.602-3.232-18.286-3.232-18.112 0-25.325 4.525-26.7 10.994-.913 4.312.428 7.117 6.28 7.977l70.364 10.781c24.814 3.786 40.023 14.373 41.083 33.02l19.622-92.31h60.797L591.11 121.834zM308.496 85.32s-19.997-9.58-44.3-8.176c-36.8 2.13-49.535 25.193-49.535 25.193s15.598-10.941 44.11-9.566c19.774.958 31.255 8.293 31.255 8.293s2.6-8.288 7.276-11.627c4.885-3.49 11.194-4.117 11.194-4.117m296.446 124.646c0-.045 1.68-7.324 3.733-16.174s3.77-16.273 3.815-16.493l.082-.402h11.821c11.19 0 11.817.014 11.745.256-.041.14-.314 1.307-.605 2.592a151.86 151.86 0 01-.6 2.592c-.068.24-.6.256-8.53.256h-8.458l-.078.328c-.043.181-.44 1.906-.884 3.834-.443 1.928-.84 3.62-.884 3.76-.074.242.358.256 7.672.256 6.722 0 7.75.029 7.75.215 0 .118-.23 1.186-.51 2.373l-.588 2.487-.076.329h-7.729c-4.373 0-7.763.056-7.81.13-.079.129-1.834 7.722-1.834 7.937 0 .061 3.8.11 8.447.11h8.447l-.66 2.849-.66 2.847h-11.804c-6.491 0-11.802-.037-11.802-.082zm-35.926 0c0-.045 1.68-7.324 3.733-16.174a7380.46 7380.46 0 003.815-16.493l.082-.402h6.9l4.883 11.24c2.685 6.182 4.905 11.217 4.933 11.189.028-.028 1.22-5.07 2.648-11.206l2.597-11.156 3.314-.039c1.847-.022 3.313.019 3.313.09 0 .142-7.408 32.36-7.536 32.775-.074.239-.338.255-3.524.219l-3.445-.04-4.715-10.88a2952.66 2952.66 0 00-4.913-11.3c-.184-.39-.352.257-2.507 9.64a47314.07 47314.07 0 01-2.604 11.336l-.294 1.278h-3.34c-1.837 0-3.34-.037-3.34-.083zm-13.874 0c0-.045 1.68-7.324 3.732-16.174s3.77-16.273 3.816-16.493l.082-.402h3.34c1.838 0 3.342.042 3.342.094 0 .05-1.71 7.47-3.797 16.487-2.089 9.017-3.797 16.434-3.797 16.482s-1.512.088-3.36.088c-1.847 0-3.358-.037-3.358-.082zm-28.478 0c0-.045 1.68-7.324 3.733-16.174s3.77-16.273 3.815-16.493l.082-.402h6.695l-.092.475c-.05.261-1.457 6.356-3.125 13.545s-3.006 13.12-2.973 13.18c.033.06 3.638.11 8.01.11s7.951.038 7.951.084c0 .106-1.154 5.155-1.257 5.502-.072.24-.745.255-11.458.255-6.26 0-11.381-.037-11.381-.082zm-11.719-17.353c2-.51 3.675-1.704 4.363-3.11.309-.63.415-1.094.463-2.022.13-2.473-.823-3.767-3.32-4.507-.656-.195-1.59-.235-5.404-.235h-4.61l-1.135 5.002c-.625 2.75-1.134 5.058-1.132 5.128.002.07 2.2.093 4.932.052 3.842-.058 5.13-.126 5.843-.308zm-21.432 17.357c0-.095 7.435-32.452 7.543-32.826.072-.252.472-.261 8.497-.21l8.421.053 1.497.39c3.802.994 6.158 3.105 7.005 6.277.328 1.23.323 4.06-.01 5.423-.851 3.482-3.567 6.245-7.41 7.54-1.469.495-2.961.74-5.14.847l-2.014.098 4.552 5.55c2.504 3.051 4.813 5.86 5.131 6.242l.58.694h-8.05l-5.356-6.645c-2.946-3.654-5.398-6.645-5.45-6.645-.052 0-.739 2.843-1.526 6.317-.788 3.474-1.466 6.464-1.508 6.644l-.076.329h-3.343c-1.839 0-3.343-.035-3.343-.078zm-13.875-.004c0-.045 1.68-7.324 3.733-16.174s3.77-16.273 3.815-16.493l.083-.402h3.34c1.838 0 3.341.042 3.341.094 0 .05-1.708 7.47-3.797 16.487-2.088 9.017-3.797 16.434-3.797 16.482 0 .049-1.511.088-3.359.088s-3.359-.037-3.359-.082zm-12.413-11.94c0-.188-.46-3.32-1.022-6.963-.563-3.642-1.023-6.69-1.023-6.774 0-.084-.088-.056-.196.061-.216.235-8.128 13.796-8.128 13.93 0 .047 2.333.084 5.185.084h5.184zm-24.657 11.897c.027-.07 4.518-7.527 9.98-16.572l9.93-16.446h7.765l2.729 16.393c1.5 9.016 2.727 16.476 2.726 16.576-.003.14-.759.182-3.286.182h-3.284l-.07-.329c-.038-.18-.239-1.478-.445-2.884a140.669 140.669 0 00-.456-2.959l-.08-.403-14.317.076-3.794 6.499h-3.723c-2.048 0-3.702-.057-3.675-.126zm203.262.35c-3.581-.589-6.55-2.146-8.367-4.39-1.31-1.62-2.148-3.92-2.148-5.904v-.884h6.533l.07 1.059c.154 2.349 1.837 4.077 4.604 4.726 1.305.306 3.893.211 4.913-.18.914-.352 1.956-1.267 2.299-2.021.36-.795.362-2.427.002-3.22-.553-1.219-1.409-1.745-5.934-3.65-4.438-1.868-5.296-2.347-6.645-3.712-1.763-1.782-2.476-3.494-2.48-5.956-.003-1.603.202-2.507.903-3.975.873-1.828 2.327-3.236 4.366-4.23 2.377-1.157 3.586-1.4 6.923-1.397 2.357 0 2.965.052 4.043.322 2.66.667 4.59 1.738 6.215 3.448 1.677 1.766 2.512 3.866 2.518 6.336l.002 1.06h-6.718v-1.06c-.002-1.094-.356-2.112-.981-2.824-.581-.661-1.703-1.38-2.566-1.644-3.173-.971-6.437-.137-7.499 1.915-.315.61-.421 1.988-.204 2.645.452 1.371 1.382 1.97 6.122 3.936 2.018.838 4.047 1.745 4.508 2.015 1.198.703 3.257 2.787 3.732 3.778.61 1.276.848 2.41.857 4.09.013 2.614-.69 4.52-2.321 6.281-1.544 1.668-3.517 2.742-6.066 3.302-1.462.32-5.098.394-6.68.134z" fill="#00529b"/><path d="M415.733 254.898l3.92-16.931 3.82-16.484h3.4c2.63 0 3.398.039 3.396.171-.001.095-1.748 7.698-3.882 16.896l-3.88 16.724-6.875.073zm14.286-.137c.147-.654 7.47-32.482 7.588-32.976l.075-.315 8.666.05c8.239.047 8.724.064 9.832.337 2.445.602 3.86 1.35 5.344 2.826 1.674 1.665 2.342 3.46 2.353 6.327.016 4.198-1.698 7.273-5.25 9.423-2.075 1.255-4.426 1.866-7.627 1.981-1.228.045-2.215.132-2.193.193.032.093 5.14 6.351 9.416 11.535l.989 1.2h-8.232l-5.516-6.85c-3.034-3.766-5.54-6.825-5.567-6.797-.028.028-.744 3.095-1.59 6.815l-1.54 6.763-6.879.073zm22.425-17.423c2.035-.68 3.503-1.958 4.08-3.554.314-.87.353-2.497.083-3.427-.383-1.318-1.854-2.446-3.69-2.829-.445-.093-2.474-.152-5.24-.152h-4.515l-.074.309c-.389 1.613-2.261 9.887-2.261 9.992 0 .09 1.792.12 5.243.088l5.243-.05zm11.405 17.558c.055-.245 1.819-7.863 3.92-16.93l3.818-16.483h12.036c7.277 0 12.036.05 12.036.127 0 .2-1.244 5.538-1.32 5.659-.037.06-3.945.109-8.684.109h-8.617l-.095.445c-.052.246-.458 2.013-.902 3.929-.444 1.915-.807 3.565-.807 3.667 0 .152 1.373.184 7.882.184 5.17 0 7.883.047 7.883.137 0 .076-.278 1.316-.617 2.757-.34 1.44-.617 2.642-.617 2.671 0 .03-3.589.069-7.975.088l-7.974.036-.842 3.701c-.463 2.036-.886 3.87-.939 4.078l-.096.377h8.639c4.751 0 8.639.046 8.64.103 0 .056-.29 1.383-.643 2.947l-.643 2.845h-24.183zm30.02 0l3.92-16.93 3.819-16.483h3.4c2.282 0 3.4.048 3.4.144 0 .08-1.42 6.27-3.153 13.758-1.734 7.488-3.153 13.684-3.153 13.77 0 .115 2.17.157 8.2.157h8.199l-.694 3.014-.695 3.015-23.343.003.1-.446zm27.036.319c.025-.07 4.61-7.687 10.19-16.928l10.143-16.8 7.951-.003 2.787 16.689c1.533 9.179 2.818 16.796 2.854 16.928.062.224-.162.24-3.356.24h-3.422l-.145-.856a279.49 279.49 0 01-.522-3.36l-.376-2.503-14.676.071-3.843 6.638-3.815.005c-2.275.003-3.797-.046-3.77-.121zm25.219-11.865c.082-.082-2.12-14.467-2.213-14.46-.09.007-8.28 14.09-8.337 14.336-.037.159.815.19 5.22.19 2.896 0 5.294-.03 5.33-.066zm12.721 11.548c.056-.246 1.82-7.866 3.92-16.931l3.82-16.484h7.041l.677 1.542c.372.848 2.614 5.997 4.982 11.442 2.368 5.445 4.347 9.856 4.397 9.802.05-.055 1.242-5.065 2.65-11.134 1.408-6.07 2.594-11.174 2.635-11.343l.074-.309h3.421c3.194 0 3.417.016 3.351.24-.038.132-1.772 7.642-3.853 16.69-2.08 9.048-3.815 16.558-3.855 16.69-.066.22-.357.24-3.593.237l-3.52-.002-5.004-11.568c-2.752-6.362-5.02-11.55-5.042-11.53-.022.02-1.229 5.212-2.683 11.536l-2.644 11.5-6.875.072zm36.737.008c.056-.25 1.82-7.873 3.921-16.94l3.82-16.483h6.38c6.754 0 7.892.079 10.147.695 1.373.375 3.833 1.582 4.943 2.425 2.524 1.918 4.23 4.728 4.944 8.143.417 1.994.415 5.32-.004 7.42-1.416 7.1-6.458 12.446-13.512 14.325-2.79.744-2.837.747-12.085.81l-8.658.06.103-.456zm17.942-5.85c4.406-1.136 7.703-4.387 9.006-8.882.425-1.468.618-3.656.458-5.226-.36-3.548-2.395-6.003-5.944-7.17-.882-.29-1.252-.319-4.592-.368l-3.633-.052-2.522 10.873c-1.387 5.98-2.55 10.957-2.586 11.058-.053.153.684.174 4.304.122 3.894-.055 4.492-.094 5.509-.356z" fill="#86d0f4"/></svg>