<svg width="353.33" height="61.921" viewBox="0 0 93.486 16.383" xmlns="http://www.w3.org/2000/svg"><g fill="#004c82"><path d="M24.989 15.975h1.578v-6.18H24.99zm7.015-4.06c0-.634-.25-1.286-.76-1.687-.401-.309-.81-.443-1.905-.443h-1.954v6.181h1.512V13.97h.016l1.428 1.996h1.805l-1.68-2.104c1.17-.201 1.538-1.236 1.538-1.947m-2.548.978h-.56v-1.721h.577c.61 0 1.019.267 1.019.835 0 .301-.109.886-1.036.886m6.584-.948c.194-.106.788-.477.788-1.372 0-1.889-2.054-1.898-2.502-1.898h-1.733v7.203h1.802c2.306 0 2.87-1.149 2.87-2.19 0-.808-.447-1.48-1.225-1.742M33.927 9.92h.623c.292 0 .944.058.944.779 0 .204-.087.778-.954.778h-.613zm.867 4.711h-.867v-1.907h.867c1.032 0 1.139.68 1.139.973 0 .905-.984.934-1.14.934m7.627-2.716c0-.634-.25-1.286-.76-1.687-.401-.309-.81-.443-1.905-.443h-1.954v6.181h1.512V13.97h.016l1.429 1.996h1.804l-1.68-2.104c1.17-.201 1.538-1.236 1.538-1.947m-2.548.978h-.56v-1.721h.577c.61 0 1.019.267 1.019.835 0 .301-.109.886-1.036.886m3.088 3.082h1.578v-6.18H42.96zm4.44-6.19h-2.047v6.181h2.164c2.346 0 3.182-1.411 3.182-3.107 0-.676-.142-1.328-.568-1.921-.802-1.16-2.038-1.152-2.731-1.152m.208 4.794h-.676v-3.408h.685c.693 0 1.019.292 1.202.568.226.359.301.785.301 1.144 0 .877-.334 1.696-1.512 1.696m6.242-2.125v1.262h1.895c-.208.584-.71 1.018-1.503 1.018-.777 0-1.728-.584-1.728-1.879 0-1.227.885-1.829 1.695-1.829.701 0 1.144.401 1.361.835h1.77c-.333-1.194-1.578-2.221-3.09-2.221-1.854 0-3.315 1.353-3.315 3.215 0 1.796 1.386 3.266 3.29 3.266 1.746 0 3.3-1.27 3.3-3.341 0-.125 0-.217-.009-.326zm4.18 3.52h3.432V14.59h-1.921v-1.06h1.863v-1.387H59.54v-.96h1.921V9.794H58.03zm9.32-2.05c-.438.585-1.061.886-1.733.886-1.411 0-2.453-1.148-2.453-2.53 0-1.286.974-2.483 2.444-2.483.885 0 1.46.487 1.81.944h1.519c-.604-1.382-1.85-2.19-3.34-2.19-2.55 0-3.767 2.122-3.767 3.728 0 1.655 1.227 3.777 3.748 3.777 1.567 0 2.726-.866 3.32-2.132zm3.72-4.14l-2.481 6.181h1.696l.325-.893h2.147l.3.893h1.713l-2.456-6.18zm-.026 4.035l.636-2.113h.024l.635 2.113zm8.616-1.905c0-.634-.25-1.286-.76-1.687-.401-.309-.81-.443-1.905-.443h-1.954v6.181h1.511V13.97h.017l1.429 1.996H79.8l-1.678-2.104c1.169-.201 1.537-1.236 1.537-1.947m-2.548.978h-.56v-1.721h.577c.61 0 1.019.267 1.019.835 0 .301-.109.886-1.036.886m5.659-.438v1.262h1.895c-.208.584-.71 1.018-1.503 1.018-.777 0-1.73-.584-1.73-1.879 0-1.227.887-1.829 1.697-1.829.701 0 1.144.401 1.361.835h1.771c-.334-1.194-1.579-2.221-3.09-2.221-1.855 0-3.316 1.353-3.316 3.215 0 1.796 1.386 3.266 3.29 3.266 1.746 0 3.3-1.27 3.3-3.341 0-.125 0-.217-.009-.326zm7.18-2.82c-1.754 0-2.698 1.178-3.04 1.988-.193.46-.226.919-.226 1.328a3.205 3.205 0 003.257 3.166c1.93 0 3.282-1.503 3.282-3.241a3.22 3.22 0 00-3.273-3.24m.024 5.094c-1.077 0-1.711-.902-1.711-1.87 0-.878.576-1.838 1.695-1.838 1.153 0 1.687 1.053 1.687 1.863s-.543 1.845-1.67 1.845"/><path d="M27.538 8.585a.212.212 0 00.382-.13.209.209 0 00-.037-.112l.003-.002a15.105 15.105 0 00-4.115-4.055c.671-.228 1.37-.43 2.105-.59V3.69a.213.213 0 00-.043-.422s-1.21-.054-3.073.394c-2.008-1.134-3.654-1.497-3.866-1.54 1.168-.23 2.415-.333 3.748-.366.154.007.316.012.494.012 9.166 0 13.59 4.619 15.847 6.845l.002-.001a.213.213 0 00.307-.293l.002-.002C36.132 4.549 30.608.406 21.247.278c-.087 0-.176-.005-.263-.005l-.032.001-.149-.002-.004.006C9.974.375 3.372 8.917.265 15.881H3.98c1.719-3.56 3.765-6.895 6.493-9.43a16.92 16.92 0 014.92.911c-2.326 1.865-4.71 4.572-6.775 8.519h2.795c.164-.373.337-.74.518-1.102.77-1.488 2.435-4.239 5.257-6.688a16.96 16.96 0 012.674 1.574c.049.036.22.171.347.27l.002-.001-2.477 5.952h1.47l.75-1.909h2.628l.75 1.909h1.47l-2.999-7.204h-1.07l-.342.821c-.124-.122-.338-.322-.444-.422a14.445 14.445 0 00-2.036-1.589 19.676 19.676 0 014.61-2.73c1.745.88 3.566 2.112 5.014 3.826zm-6.27 2.043l.827 2.103H20.44zm-4.882-4.022a17.003 17.003 0 00-4.33-1.474 16.647 16.647 0 014.486-2.378c.443.075 2.35.434 4.614 1.38a18.998 18.998 0 00-4.77 2.472"/></g></svg>