<svg width="408.493" height="150.44" viewBox="0 0 306.37 112.83" xmlns="http://www.w3.org/2000/svg"><path d="M237.952 35.109c-.43 1.324-1.078 2.48-1.953 3.469-.879.988-2.004 1.754-3.371 2.293-1.371.539-3 .808-4.89.808-1.438 0-2.606-.066-3.505-.203-.898-.136-1.48-.27-1.75-.402v-12c0-2.559.649-4.695 1.953-6.402s3.258-2.559 5.864-2.559 4.64.953 6.101 2.863c1.457 1.91 2.192 4.438 2.192 7.582 0 1.575-.215 3.223-.64 4.551m5.593-18.234a14.774 14.774 0 00-5.055-3.265c-1.91-.743-3.941-1.114-6.101-1.114-1.575 0-2.957.192-4.145.574-1.191.38-2.203.832-3.031 1.348-.832.516-1.473 1-1.922 1.45-.45.449-.719.742-.809.874V.808l-9.437 2.727v44.48c.27.043.797.121 1.586.234.785.114 1.761.215 2.93.305 1.167.09 2.492.18 3.976.27 1.484.09 3.035.132 4.652.132 7.32 0 12.84-1.695 16.547-5.086 3.707-3.394 5.559-8.3 5.559-14.324 0-2.738-.426-5.175-1.281-7.312-.852-2.133-2.008-3.918-3.469-5.36M195.222 32.38c0 2.562-.652 4.695-1.953 6.402-1.305 1.707-3.258 2.562-5.867 2.562-2.602 0-4.637-.953-6.098-2.863-1.457-1.91-2.191-4.437-2.191-7.582 0-1.574.215-3.227.644-4.55.426-1.325 1.074-2.481 1.953-3.47.875-.992 2-1.753 3.371-2.293 1.371-.539 2.996-.808 4.887-.808 1.438 0 2.606.066 3.504.203.898.133 1.48.27 1.75.402zm4.855-18.367c-1.304-.383-2.898-.73-4.785-1.047-1.89-.313-4.047-.47-6.472-.47-3.012 0-5.707.462-8.086 1.38-2.383.922-4.418 2.215-6.102 3.879-1.684 1.66-2.977 3.672-3.875 6.03s-1.348 5.29-1.348 8.122c0 2.785.426 5.246 1.282 7.379.851 2.137 1.996 3.922 3.437 5.36a13.917 13.917 0 005.055 3.234c1.93.718 3.976 1.078 6.133 1.078 1.527 0 2.886-.192 4.078-.574 1.191-.38 2.199-.817 3.035-1.313.828-.492 1.48-.976 1.953-1.45.469-.468.75-.773.84-.91v3.305l9.437-.003V15.934c-.226-.137-.718-.395-1.484-.778-.762-.379-1.797-.762-3.098-1.144m-30.78-.184c-.95-.496-2.321-.922-4.29-1.238a22.672 22.672 0 00-3.574-.266c-2.066 0-3.977.192-5.727.57-1.754.383-3.293.81-4.617 1.282-1.328.472-2.394.933-3.203 1.382-.809.45-1.305.743-1.48.875v31.582h9.433v-26.39c.406-.227 1.125-.528 2.16-.91 1.032-.383 2.493-.575 4.38-.575.628 0 1.292.047 1.988.137.695.09 1.253.164 1.953.367.058.02.109.031.164.05.976-2.366 1.882-4.581 2.718-6.636l.094-.23m127.63 18.55c0 2.563-.652 4.696-1.953 6.403-1.305 1.707-3.258 2.562-5.867 2.562-2.602 0-4.637-.953-6.098-2.863-1.457-1.91-2.191-4.437-2.191-7.582 0-1.574.215-3.226.64-4.55.43-1.325 1.079-2.481 1.957-3.47.875-.992 2-1.753 3.368-2.292 1.37-.54 3-.81 4.89-.81 1.434 0 2.606.067 3.504.204.899.133 1.48.27 1.75.402zm7.953-17.222c-.761-.38-1.797-.762-3.097-1.145-1.305-.383-2.899-.73-4.79-1.047-1.886-.312-4.043-.469-6.468-.469-3.012 0-5.707.461-8.09 1.38-2.383.921-4.414 2.214-6.098 3.878-1.687 1.66-2.976 3.672-3.875 6.031s-1.347 5.29-1.347 8.122c0 2.785.425 5.246 1.277 7.378.855 2.137 2 3.922 3.441 5.36a13.917 13.917 0 005.055 3.234c1.93.719 3.977 1.078 6.133 1.078 1.527 0 2.886-.191 4.078-.574 1.187-.379 2.2-.816 3.031-1.312.832-.493 1.484-.977 1.957-1.45.469-.468.75-.773.84-.91v3.305l9.437-.004V15.933c-.226-.137-.722-.394-1.484-.777M259.832 0c-1.441 0-2.676.496-3.707 1.484-1.035.988-1.555 2.2-1.555 3.637s.52 2.664 1.555 3.676c1.031 1.007 2.266 1.515 3.707 1.515 1.48 0 2.738-.508 3.77-1.515 1.035-1.012 1.55-2.239 1.55-3.676s-.515-2.649-1.55-3.637C262.57.496 261.312 0 259.832 0m-4.687 48.012h9.437V12.496l-9.437 2.722zM109.105 28.73c.812-2.188 1.64-4.395 2.476-6.606.832-2.215 1.602-4.25 2.3-6.105a205.6 205.6 0 011.868-4.785c.54-1.332.926-2.239 1.152-2.715.227.476.61 1.383 1.153 2.715a190.803 190.803 0 011.863 4.785l2.305 6.105c.836 2.211 1.66 4.418 2.473 6.606zm26.164 1.64a368.072 368.072 0 00-3.387-8.535c-1.133-2.738-2.172-5.27-3.121-7.601a219.486 219.486 0 00-2.574-6.11 160.401 160.401 0 00-1.832-4.035 424.527 424.527 0 01-1.426-3.242h-12.06s-.433 1.004-1.425 3.242c-.453.953-1.063 2.297-1.828 4.035a218.173 218.173 0 00-2.578 6.11c-.946 2.332-1.989 4.863-3.117 7.601a385.936 385.936 0 00-3.391 8.535c-1.129 2.953-2.258 5.93-3.387 8.93s-2.191 5.902-3.183 8.711h9.96l3.864-10.426h22.23l3.867 10.426h9.96a432.607 432.607 0 00-3.187-8.71c-1.128-3-2.257-5.978-3.386-8.93M59.784 0c-1.438 0-2.676.496-3.707 1.485-1.035.988-1.551 2.199-1.551 3.636s.516 2.665 1.55 3.676c1.032 1.008 2.27 1.516 3.708 1.516 1.48 0 2.738-.508 3.773-1.516 1.031-1.011 1.55-2.238 1.55-3.676s-.519-2.648-1.55-3.636C62.522.496 61.264 0 59.784 0M55.1 48.012h9.434V12.496L55.1 15.22zm-37.96-19.28c.816-2.188 1.64-4.395 2.476-6.606.836-2.215 1.605-4.25 2.304-6.106.7-1.859 1.325-3.453 1.868-4.785.539-1.332.925-2.238 1.148-2.715.23.477.613 1.383 1.152 2.715a175.435 175.435 0 011.868 4.785c.699 1.856 1.468 3.891 2.3 6.106a964.11 964.11 0 012.477 6.605zm26.167 1.64a367.821 367.821 0 00-3.39-8.535 1858.4 1858.4 0 01-3.118-7.602 218.481 218.481 0 00-2.578-6.11 163.003 163.003 0 00-1.828-4.034A291.075 291.075 0 0130.967.848H18.908s-.433 1.004-1.425 3.243c-.454.953-1.063 2.296-1.832 4.035a231.755 231.755 0 00-2.575 6.11c-.949 2.331-1.988 4.862-3.117 7.6a367.644 367.644 0 00-3.39 8.536 2338.96 2338.96 0 00-3.391 8.93c-1.129 3-2.191 5.902-3.18 8.71H9.96l3.863-10.425h22.23l3.864 10.426h9.96a457.127 457.127 0 00-3.183-8.711 1824.2 1824.2 0 00-3.387-8.93m50.187-9.676c.973-2.367 1.883-4.582 2.72-6.637.03-.078.062-.152.093-.23-.95-.496-2.32-.922-4.29-1.238a22.672 22.672 0 00-3.573-.266c-2.067 0-3.977.191-5.727.57-1.754.383-3.293.809-4.617 1.282-1.328.472-2.395.933-3.203 1.382-.809.45-1.305.743-1.48.875v31.582h9.433v-26.39c.406-.227 1.12-.528 2.16-.91 1.031-.384 2.492-.575 4.379-.575.629 0 1.289.047 1.988.137.695.09 1.254.164 1.953.367.059.02.11.031.164.05m88.638 66.718c0 2.168-.55 3.973-1.652 5.418-1.106 1.445-2.758 2.168-4.961 2.168-2.207 0-3.926-.809-5.164-2.422-1.235-1.617-1.852-3.758-1.852-6.418 0-1.332.18-2.726.543-3.847a8.084 8.084 0 011.652-2.938c.743-.836 1.692-1.48 2.852-1.937s2.535-.688 4.137-.688c1.215 0 2.203.059 2.965.172.757.113 1.253.23 1.48.344zm52.133-16.523l-8 2.309v21.273h-9.379c-1.035 0-1.871-.145-2.504-.434-.637-.289-1.113-.707-1.437-1.266-.328-.554-.54-1.238-.637-2.043a24.607 24.607 0 01-.145-2.82V70.89l-7.94 2.293V87.91c0 1.078-.056 2.016-.173 2.82-.117.805-.336 1.489-.664 2.043-.324.559-.797.977-1.406 1.266-.617.29-1.441.434-2.477.434h-9.382v-20.98c-.192-.114-.61-.332-1.258-.657-.649-.32-1.52-.644-2.621-.968-1.106-.325-2.453-.618-4.051-.883-1.598-.266-3.422-.403-5.477-.403-2.55 0-4.828.391-6.847 1.172-2.016.782-3.735 1.875-5.16 3.282s-2.52 3.109-3.282 5.105c-.762 1.996-1.14 4.477-1.14 6.875 0 2.36.363 4.441 1.086 6.246.718 1.805 1.69 3.317 2.906 4.535a11.848 11.848 0 004.28 2.739c1.634.605 3.364.91 5.188.91 1.293 0 2.446-.16 3.454-.485 1.007-.32 1.863-.691 2.566-1.113.703-.418 1.258-.824 1.652-1.222.403-.403.64-.66.715-.774v3.414h7.988v-.004l11.11.004c1.496 0 2.898-.27 4.203-.808 1.3-.536 2.34-1.57 3.105-3.11.77 1.54 1.734 2.574 2.906 3.11 1.172.539 2.504.808 4 .808h18.82zm-25.652 33.137c-1.23 0-2.285.422-3.168 1.266s-1.324 1.879-1.324 3.105c0 1.23.441 2.274 1.324 3.137s1.938 1.297 3.168 1.297c1.266 0 2.336-.434 3.219-1.297s1.324-1.906 1.324-3.137c0-1.226-.441-2.262-1.324-3.105s-1.953-1.266-3.219-1.266m-104.66-9.25c-3.008.887-7.39.02-7.723-.137V78.124s3.164-2.242 7.04-1.504 6.605 3.825 6.605 9.418c0 4.434-2.074 7.606-5.922 8.739m40.277-.305h-5.355c-1.036 0-1.868-.145-2.5-.434s-1.114-.707-1.438-1.265c-.328-.555-.54-1.238-.637-2.043-.097-.805-.14-1.742-.14-2.82V59.988l-8.004 2.312v25.609a24.85 24.85 0 01-.14 2.82c-.099.805-.31 1.489-.638 2.043-.324.559-.793.977-1.406 1.266-.617.289-1.441.433-2.476.433h-5.328c1.253-2.347 1.93-5.273 1.93-8.66 0-8.847-5.06-14.305-12.337-15.129-4.183-.472-8.293.985-9.535 1.477l.004-12.172-7.996 2.258v32.227h-3.34c-1.035 0-1.871-.145-2.5-.434-.637-.289-1.117-.707-1.441-1.265-.325-.555-.54-1.239-.633-2.043a23.728 23.728 0 01-.145-2.82V70.89l-7.941 2.292V87.91c0 1.078-.059 2.016-.176 2.82-.11.805-.332 1.489-.66 2.044a3.133 3.133 0 01-1.41 1.265c-.613.29-1.438.434-2.473.434h-9.383V70.898l-7.996 2.308c0 .008-.004.012-.004.02v27.78c0 1.727-.414 2.927-1.238 3.598-.824.672-1.945 1.008-3.363 1.008a8.922 8.922 0 01-2.535-.343c-.766-.235-1.25-.387-1.438-.461l-1.902 5.351c.078.035.328.145.75.317.422.171.96.347 1.613.52.648.171 1.398.323 2.242.456.844.133 1.727.203 2.649.203a16.59 16.59 0 004.289-.547c1.36-.367 2.547-.996 3.57-1.902 1.012-.898 1.828-2.09 2.441-3.562.61-1.461.91-3.305.918-5.528v1.149h11.113c1.496 0 2.895-.27 4.2-.809 1.304-.535 2.343-1.57 3.109-3.11.766 1.54 1.734 2.575 2.906 3.11 1.172.54 2.504.809 4 .809h39.766c1.496 0 2.895-.27 4.203-.809 1.305-.535 2.34-1.57 3.106-3.11.765 1.54 1.738 2.575 2.906 3.11 1.172.54 2.504.809 4 .809h14.793V59.988l-8 2.308zm52.391 9.555c-1.23 0-2.285.422-3.168 1.265-.883.844-1.324 1.88-1.324 3.106 0 1.23.441 2.273 1.324 3.136.883.864 1.938 1.297 3.168 1.297 1.266 0 2.34-.433 3.219-1.297.887-.863 1.328-1.906 1.328-3.136 0-1.227-.442-2.262-1.328-3.106-.88-.843-1.953-1.265-3.219-1.265m24.043 0c-1.266 0-2.34.43-3.219 1.293-.883.867-1.328 1.91-1.328 3.136 0 1.23.445 2.262 1.328 3.11.88.844 1.953 1.265 3.219 1.265 1.23 0 2.285-.421 3.168-1.265.883-.848 1.324-1.88 1.324-3.11 0-1.226-.441-2.27-1.324-3.136-.883-.864-1.937-1.293-3.168-1.293m77.648-41.711v39.004h8.059V59.988zM284.179 90.67c0 1.73-.414 2.925-1.238 3.597-.825.672-1.95 1.008-3.367 1.008h-13.957a7.903 7.903 0 01-.981-.875c-.75-.8-1.344-1.808-1.781-3.02-.445-1.21-.664-2.617-.664-4.218 0-3.082.785-5.457 2.36-7.121s3.589-2.492 6.042-2.492c1.113 0 2.11.14 2.992.43.868.28 1.61.613 2.235.995l3.117-6.05c-.57-.45-1.578-.954-3.02-1.508-1.437-.555-3.503-.836-6.183-.836-2.192 0-4.235.383-6.133 1.144a14.505 14.505 0 00-4.98 3.297c-1.418 1.438-2.54 3.172-3.368 5.207-.824 2.031-1.234 4.344-1.234 6.934 0 2.668.41 5.031 1.234 7.086.145.355.309.691.47 1.027h-7.411V70.897l-8 2.309v27.8c0 1.727-.41 2.926-1.238 3.598-.825.672-1.946 1.008-3.368 1.008a8.932 8.932 0 01-2.53-.344 30.375 30.375 0 01-1.438-.46l-1.899 5.351c.075.035.325.145.746.316.422.172.957.348 1.614.52.652.172 1.398.324 2.242.457.844.133 1.727.203 2.648.203 1.496 0 2.926-.183 4.286-.547 1.367-.367 2.554-.996 3.57-1.902 1.015-.898 1.832-2.09 2.445-3.563.613-1.476.922-3.34.922-5.593v1.27h32.645c1.496 0 2.922-.184 4.29-.548a8.938 8.938 0 003.593-1.898c1.039-.902 1.863-2.094 2.476-3.57.614-1.477.922-3.348.922-5.61V59.987l-8.058 2.328zm-102.23-23.027c1.266 0 2.34-.434 3.219-1.297.887-.863 1.328-1.906 1.328-3.137 0-1.227-.442-2.262-1.328-3.105-.88-.848-1.953-1.27-3.219-1.27-1.227 0-2.285.422-3.168 1.27-.883.843-1.324 1.878-1.324 3.105 0 1.23.441 2.273 1.324 3.137.883.863 1.941 1.297 3.168 1.297m-166.96.754c1.266 0 2.336-.43 3.219-1.293.887-.868 1.328-1.91 1.328-3.137 0-1.23-.442-2.266-1.328-3.11-.883-.843-1.953-1.265-3.219-1.265-1.23 0-2.285.422-3.168 1.266-.879.843-1.324 1.878-1.324 3.109 0 1.227.445 2.27 1.324 3.137.883.863 1.938 1.293 3.168 1.293m154.96-.754c1.27 0 2.34-.434 3.223-1.297s1.324-1.906 1.324-3.137c0-1.227-.442-2.262-1.324-3.105-.883-.848-1.953-1.27-3.223-1.27-1.227 0-2.285.422-3.164 1.27-.883.843-1.328 1.878-1.328 3.105 0 1.23.445 2.273 1.328 3.137.879.863 1.937 1.297 3.164 1.297M22.069 84.039c0 5.117 0 10.898-7.035 10.898-7.04 0-7.04-5.782-7.04-10.898v-6.805l-8 2.305v4.175c0 .258.005.512.009.766.062 2.93.468 5.45 1.226 7.555.82 2.281 1.922 4.14 3.305 5.582 1.383 1.437 3 2.484 4.844 3.137 1.847.652 3.797.976 5.847.976 1.914 0 3.758-.285 5.54-.86 1.769-.577 3.355-1.546 4.738-2.91 1.383-1.363 2.488-3.164 3.304-5.41.82-2.246 1.235-5.035 1.235-8.375V70.898l-7.973 2.293zm54.477 19.988c-1.227 0-2.281.422-3.164 1.265s-1.324 1.88-1.324 3.106c0 1.23.441 2.273 1.324 3.136.883.864 1.937 1.297 3.164 1.297 1.27 0 2.34-.433 3.223-1.297.883-.863 1.324-1.906 1.324-3.136 0-1.227-.442-2.262-1.324-3.106s-1.953-1.265-3.223-1.265m-32.465-44.09l-8 2.308v39.016h8zm20.473 44.09c-1.23 0-2.285.422-3.168 1.265s-1.324 1.88-1.324 3.106c0 1.23.441 2.273 1.324 3.136.883.864 1.938 1.297 3.168 1.297 1.266 0 2.34-.433 3.219-1.297.883-.863 1.328-1.906 1.328-3.136 0-1.227-.445-2.262-1.328-3.106-.88-.843-1.953-1.265-3.219-1.265" fill="#e81142"/></svg>