<svg xmlns="http://www.w3.org/2000/svg" width="300" height="77" viewBox="0 0 1930 495" version="1.0" id="svg2"><g id="#1c2565ff" fill="#1c2565"><path d="M1851.59 36.62c9.88-7.95 15.94-19.22 23.75-28.94 2.19 6.83-1.41 13.52-3.29 19.96 6.05-6.72 11.65-14.11 19.5-18.88.95 9.42-5.33 17.24-10.04 24.75 8.3-3.9 15.57-9.64 23.91-13.46 1.13 5.57-1.2 11.29-5.29 15.08-2.19 1.99-4.57 3.74-6.76 5.7 8.31-1.39 15.73-5.5 23.35-8.85 2.47 5.26-1.19 10.2-4.74 13.78 2.13-.04 4.28-.05 6.45-.06 1.35 3.36 1.7 7.36-.2 10.59-1.53 2.13-3.87 3.45-5.94 4.94 2.79-.08 5.59.08 8.38.52.71 3.05 1.95 6.12 1.56 9.3-1 3.58-5.23 4.37-8.09 5.84 2.01.6 4.03 1.22 6.06 1.84-.26 3.06.07 6.33-1.31 9.16-1.28 1.42-3.04 2.27-4.56 3.34.99.68 1.99 1.36 3.02 2.05-.6 2.88-1.56 5.67-2.62 8.41-1.59.36-3.17.72-4.71 1.09.7 1.13 1.42 2.26 2.17 3.4-.63 2.04-1.27 4.07-1.88 6.11-1.43.63-2.84 1.25-4.22 1.88-1.02 2.49-.85 5.97-3.54 7.33-1.65 1.06-3.49 1.85-4.9 3.21-1.44 3.13-.78 6.76-1.95 9.96-1.41 2.12-3.97 2.96-6.1 4.12.13 2.02.27 4.04.39 6.07-1.03.97-2.04 1.94-3.04 2.91.29 3.22.08 6.65-2.81 8.67 3.62 3.6 1.13 8.62-1.59 11.9.11 1.26.25 2.52.41 3.78-1.43 1.37-2.87 2.73-4.29 4.08-.32 3.13-1.59 6.02-3.96 8.13.33 2.61 1.45 5.66-.38 7.97-1.64 1.73-3.88 2.74-5.5 4.46-2.21 4.38.45 10.84-4.24 13.86l-1.68 1.36c-.42 3.15-.32 6.47-1.63 9.43-1.82 3.6-6.71 3.5-8.99 6.63 1.06 1.47 2.29 2.81 3.56 4.14-2.34 2.98-4.81 6.56-8.8 7.3-1.65-.37-3.18-1.02-4.72-1.6-.39 2.68-.39 5.47-1.32 8.05-1.77 1.78-4.57.67-6.74.86.93 4.36 1.56 9.63 5.68 12.26 19.49 10.74 42.96 14.65 64.7 9.26-6.87 2.81-14.22 4.34-21.64 4.36-14.66.34-29.15-2.62-43.17-6.65 19.48 8.14 40.76 11.22 61.79 10.38-19 4.5-38.45.25-57.11-3.73-4.82-1.18-9.77-1.68-14.71-1.35 9.94 6 20.83 10.18 30.92 15.9 1.89 1.13 3.92 2.18 5.44 3.85.56 2.39-1.07 4.54-1.86 6.68-1.47-.3-2.91-.6-4.33-.91 1.22 1.01 2.48 2 3.58 3.19-.25 2.28-.98 4.5-2.03 6.53-.72 2.05-3.29 1.33-4.93 1.79 1.22 3.37-.42 6.47-3.27 8.32-.78 2.37-1.73 5.33-4.51 5.92-1.85.75-3.21-.88-4.35-2.03-7.41-7.94-14.2-16.74-23.42-22.71-10.07-6.18-22.28-6.14-33.5-8.6 10.57 17.64 28.27 29.58 39.26 46.94 2.7 4.32 4.89 8.99 6.14 13.95 5.12 18.95 4.82 39.03 11.14 57.69 4.53 12.64 13.83 23.05 24.63 30.78-3.33-.5-7.03-1.74-10.16.05-3.15 1.88-3.43 6.01-3.12 9.29 1.01 9.15 4.86 17.62 8.56 25.95-5.46-7.29-9.76-15.8-17.51-21.01-2.27 6.32-.7 13.04 1.18 19.23 1.58 5.28 4.05 10.22 6.44 15.17-8.64-12.47-18.34-24.63-23.01-39.29-5.08-14.82-5.26-30.62-7.56-45.97-2.54-14.54-4.56-29.66-12.01-42.66-9.93-16.26-22.36-30.78-34.73-45.21-2.95-3.36-5.61-7.08-9.33-9.65-4.61-3.32-9.1-6.91-12.62-11.4-4.29-5.18-7.28-11.26-11.18-16.71-2.59-4.17-7.8-4.92-11.77-7.2-14.69-6.85-26.18-18.51-38.89-28.24-4.2-2.88-8.26-6.56-13.48-7.31-18.94-3.32-38.04-8.33-54.39-18.81-11.95-7.71-22.3-19.06-25.93-33.09-1.89-7.29-2.79-15.61 1.19-22.38 3.66-6.79 10.75-10.69 15.01-17.01 2.33-3.42 1.26-7.89-.47-11.32-3.99-7.88-9.71-14.93-16.78-20.25-20.6-15.19-41.82-29.53-63.27-43.48 15.02 5.63 29.86 11.82 45.12 16.77 10.69 2.03 22.17 2.96 31.22 9.69 7.28 4.64 10.47 12.94 15.33 19.68 5.37 9.18 9.11 19.74 8.91 30.48-.55 11.26-11.32 17.99-14.7 28.13-1.06 8.41 3.96 16.72 10.72 21.45 7.64 5.26 16.07 10.08 25.5 10.93 11.36 1.04 23.13-.2 33.63-4.88 9.3-4.13 19.01-7.61 29.19-8.65 7.92-1.16 15.93-.33 23.88-.61 8.57-9.15 13.1-21.3 16.11-33.28 5.07-20.81 6.34-42.83 15.73-62.38 6.37-13.51 17.41-24.47 30.49-31.55 1.24.76 2.5 1.52 3.78 2.29 12.01-12.22 28.45-18.32 41.79-28.76m-60.93 274.31c11.58 16.78 25.89 32.47 31.72 52.45 6.2 18.36 8.19 37.73 11.87 56.66 1.81 9.51 5.1 19.14 12.04 26.19-6.66-18.55-11.33-37.8-13.75-57.36-1.74-11.96-2.62-24.19-6.68-35.66-2.56-7.4-7.82-13.37-12.78-19.26-7.05-8.07-14.59-15.71-22.42-23.02z" id="path5" opacity="1"/><path d="M1738.15 129.19c4.39-7.14 13.02-9.69 20.74-11.4-3.4 18.62-4.97 38.15-14.02 55.14-1.82 3.41-4.2 6.49-6.67 9.44-4.51-.18-9.02-.15-13.52.07 4.65-9.6 8.65-19.75 9.42-30.5.94-7.61.57-15.71 4.05-22.75z" id="path7" opacity="1"/><path d="M232.81 230.9c5.3-2.66 12.76-2.35 16.63 2.58 8.21 9.96 15.33 20.73 23.28 30.89 31.73 40.23 63.54 80.39 95.46 120.47 5.1 6.18 10.66 12.46 18.2 15.63 9.33 3.89 19.68 3.72 29.61 3.79 5.73-.22 12.35-.24 16.72-4.55 4.06-4.5 4.14-11.01 4.4-16.72.17-14.34 0-28.67.08-43.01-.2-4.7.48-10.39-3.24-13.96-5.83-4.77-13.79-4.85-20.46-7.77-2.14-1.89-.51-5.98 2.41-5.81 25.69-3.59 51.38-7.5 76.58-13.73 3.99-1.24 8.1-.19 11.94 1.05-2.74 25.65-1.48 51.47-1.78 77.2.17 6.47-.39 13.26 2.02 19.4 2.22 5.21 8.32 6.51 13.35 7.23 9.6 1.15 19.32.96 28.97.5 5.4-.5 11.34-.82 15.8-4.27 4.14-3.7 4.24-9.76 4.51-14.89.29-15.98.04-31.98.07-47.97-.16-3.81-.16-8.31-3.25-11.06-5.81-4.73-13.7-4.81-20.35-7.66-1.65-2-.37-5.57 2.32-5.74 24.9-3.94 49.85-7.91 74.38-13.82 3.93-1.11 8.02-.39 11.76 1.05-.37 4.65-1.24 9.31-.84 13.98 2.14 2.45 5.77 2.29 8.61 1.33 12.53-3.98 24.98-8.39 37.91-10.97 12.94-2.62 26.49-3.26 39.44-.39 5.23 1.44 11.09 3.08 14.4 7.73 1.91 2.63 1.26 6.26-.53 8.77-2.57 3.72-6.88 5.7-11.02 7.15-8.77 2.79-18.09 3.83-27.27 3.15-10.18-.67-19.74-4.69-29.83-5.94-7.48-.91-15.55-2.24-22.71.82-5.56 2.48-7.29 9.02-7.38 14.59-.31 14.02 0 28.05-.07 42.07.15 5.13-.12 10.75 2.8 15.24 2.51 3.62 7.16 4.58 11.26 5.17 11.26 1.28 22.62 1.24 33.92 2.02 2.63-.12 4.71 3.27 3.13 5.45-1.25 2.07-3.87 2.41-6.07 2.43-135.98.01-271.98-.01-407.96.01-1.59-.07-3.23-.08-4.72-.68-3.05-1.24-2.49-6.75.83-7.11 9.77-1.15 19.68-.75 29.4-2.39 1.93-.39 4.17-1.05 4.95-3.08-.59-4.15-3.33-7.5-5.74-10.76-8.13-10.25-16.32-20.44-24.46-30.68-2.8-3.42-5.41-7.22-9.25-9.57-3.96-2.23-8.67-1.98-13.05-2.13-32.66-.08-65.31-.15-97.96.03-3.96-.05-8.41.68-10.78 4.23-9.68 12.31-19.31 24.65-29 36.95-2.62 3.62-6.23 7.12-6.45 11.85 1.55 2.37 4.6 2.61 7.14 3 10.29 1.13 20.68 1.28 30.96 2.5 2.4.16 4.26 3.04 3.04 5.23-1.36 2.43-4.46 2.56-6.92 2.61-39.66 0-79.32-.04-118.98.02-2.87-.22-6.51.66-8.67-1.75-2.07-2.15.03-5.85 2.74-6.09 11.46-1.42 23.1-1.23 34.48-3.33 6.06-1.2 11.7-4.21 16.24-8.37 6.29-5.72 12.05-11.98 17.78-18.23 35.35-39.35 70.25-79.11 105.41-118.62 3.61-3.86 6.66-8.45 7.15-13.84 13.42-1.52 26.34-5.81 38.66-11.23m-41.71 55.16c-11.19 12.89-21.89 26.2-32.86 39.28-1.89 2.18-3.38 4.67-4.61 7.28 3.39.68 6.85 1.09 10.32 1.07 21.68.16 43.37-.08 65.05-.02 7.21-.09 14.58.56 21.57-1.63-.89-1.91-1.74-3.85-2.97-5.56-11.12-14.23-23.02-27.85-33.56-42.53a84.48 84.48 0 00-10.25-11.7c-4.74 4.11-8.58 9.09-12.69 13.81z" id="path9" opacity="1"/><path d="M928.02 236.95c39.18-7.03 79.17-8.73 118.9-7.26 27.43 1.11 54.85 3.98 81.69 9.83 20.55 4.53 40.84 10.81 59.69 20.28 13.81 7 26.93 15.91 37 27.81 6.01 7.08 10.39 15.48 12.88 24.43 24.83-3.47 49.54-7.82 73.97-13.46 3.67-1.08 7.46-.13 10.95 1.15-.97 4.75-1.49 9.58-1.25 14.42 3.34 1.21 6.93 1.07 10.31 0 20.66-5.38 41.54-10.73 62.96-11.83 20.83-1.11 42.13-.94 62.3 5 9.59 2.95 19.19 7.72 25.21 16.05 3.12 4.23 4.52 9.5 4.61 14.71.22 16.67-.21 33.35.29 50.02.19 4.86 1.75 10.72 6.73 12.69 9.81 3.61 20.47 2.38 30.66 3.73 2.45.09 4.49 3.15 3.01 5.31-1.71 2.61-5.2 2.45-7.93 2.53-42.35-.06-84.69 0-127.04-.03-2.65.01-6.22-.32-6.98-3.41-.78-2.38 1.63-4.64 3.95-4.56 8.55-.93 17.61-.19 25.61-3.87 4.89-2.44 5.86-8.46 6.08-13.38.26-14.72.21-29.44.19-44.16.11-5.9-2.62-11.78-7.36-15.33-7.26-5.6-16.53-7.52-25.42-8.64-15.14-1.69-30.64-1.32-45.46 2.38-6.8 1.72-13.75 4.3-18.76 9.4-3.39 3.49-2.94 8.72-3.11 13.2.09 14.35-.21 28.71.25 43.06.2 4.81 1.14 10.62 5.74 13.22 8.6 4.36 18.57 2.84 27.77 4.53 4.23 1.39 1.68 8.11-2.37 7.45-43.36.09-86.72.12-130.08.12-2.44-.05-5.51-.16-6.83-2.57-1.29-2.13.55-4.98 2.9-5.19 10.14-1.51 20.82-.12 30.55-3.96 5.14-2.31 6.3-8.59 6.44-13.65.39-15.99.18-31.98.21-47.97-.24-4.39.28-9.65-3.24-12.95-3.77-3.23-8.84-4.18-13.43-5.68-.1 8.47-1.48 17.1-5.59 24.61-7.61 14.55-20.76 25.27-34.62 33.58-18.77 11.16-39.51 18.55-60.55 24.1-47.83 12.34-97.63 15.24-146.83 13.3-38.18-1.68-76.5-6.57-113.03-18.14-17.85-5.78-35.31-13.31-50.76-24.07-11.85-8.41-22.77-19.21-28.01-33.04-5.17-13.4-2.81-28.86 4.32-41.09 7.86-13.49 20.22-23.71 33.4-31.75 27.48-16.45 58.79-25.18 90.08-30.92m64.5 3.85c-21.7 1.59-43.5 5.47-63.57 14.13-13.39 5.85-26.09 14.21-34.87 26.08-10.42 13.88-13.81 32.38-10.22 49.24 2.85 13.17 9.77 25.25 18.96 35.03 11.99 12.83 27.52 21.89 43.88 27.99 27.76 10.27 57.76 12.97 87.18 12.32 19.18-.48 38.44-2.62 56.94-7.9 17.08-4.8 33.86-12.61 46.34-25.51 18.04-18.11 22.09-47.67 11.21-70.53-10.4-22.74-31.77-38.46-54.42-47.68-32.03-12.88-67.27-15.35-101.43-13.17z" id="path11" opacity="1"/><path d="M456.48 253.67c12.15-1.47 24.69-1.17 36.53 2.16 5.64 1.67 11.6 4.08 15.05 9.13 2.57 3.53 1.67 8.69-1.38 11.64-5.08 5.13-12.28 7.23-19.15 8.66-12.85 2.36-26.21 2.32-38.96-.65-6.47-1.65-13.42-4.05-17.47-9.71-2.91-3.93-1.44-9.69 2.2-12.62 6.41-5.53 15-7.46 23.18-8.61z" id="path13" opacity="1"/><path d="M1568.4 309.59c22.03-5.72 44.87-7.79 67.59-7.8 19.7.09 39.53 2.07 58.49 7.61 9.78 2.99 19.68 6.74 27.5 13.56 4.57 4 8.17 9.78 7.81 16.05-.15 3.23-2.77 5.94-5.87 6.57-8.48 1.96-17.26 1.99-25.91 2.28-43.01.43-86.03.04-129.05.3-2.1.22-4.74-.12-6.18 1.73-.91 7.1 2.48 14.01 7.05 19.23 6.32 7.12 14.9 11.77 23.54 15.53 18.56 7.57 38.76 10.2 58.68 10.74 21.37.11 44.16-.95 62.9-12.38 5.31-2.81 11.47-.33 16.01 2.83-10.69 10.54-24.7 16.85-38.88 21.16-21.08 6.26-43.12 8.76-65.05 9-25.01.04-50.25-2.28-74.24-9.65-13.86-4.42-27.62-10.67-37.99-21.14-7.01-7.07-11.53-17.16-10.06-27.23 1.54-10.98 8.81-20.22 17.27-26.95 13.5-10.71 29.86-17.1 46.39-21.44m14.19 11.9c-6.41 3.29-13.19 7.46-15.71 14.64 3.63.75 7.34 1.17 11.08 1.13 16.01.02 32.04 0 48.06.01 11.34-.17 22.74.15 34.02-1.31 3.59-.62 8.08-1.49 9.7-5.21.97-4.91-2.89-9.24-6.78-11.65-8.12-4.8-17.69-6.28-26.97-6.8-18.13-.84-36.92 1.11-53.4 9.19z" id="path15" opacity="1"/></g><g id="#fcd213ff"><path d="M985.58 258.87c34.28-3.15 69.93-1.79 102.29 10.99 14.11 5.76 27.55 14.11 37.2 26.08 8.14 10.03 12.98 23.12 11.56 36.11-1.02 12.55-7.73 24.3-17.49 32.14-9.89 8.17-21.88 13.36-34.15 16.81-16.92 4.72-34.5 6.74-52.03 7.15-20.41.56-40.97-.7-60.92-5.19-16.41-3.73-32.58-9.77-46.22-19.8-9.42-6.92-17.54-15.98-22.11-26.83-6-13.7-4.71-30.45 3.69-42.88 6.26-9.41 15.74-16.19 25.8-21.07 16.39-7.84 34.41-11.54 52.38-13.51z" id="path18" opacity="1" fill="#fcd213"/></g><script>try { Object.defineProperty(screen, &quot;availTop&quot;, { value: 0 }); } catch (e) {} try { Object.defineProperty(screen, &quot;availLeft&quot;, { value: 0 }); } catch (e) {} try { Object.defineProperty(screen, &quot;availWidth&quot;, { value: 1920 }); } catch (e) {} try { Object.defineProperty(screen, &quot;availHeight&quot;, { value: 1080 }); } catch (e) {} try { Object.defineProperty(screen, &quot;colorDepth&quot;, { value: 24 }); } catch (e) {} try { Object.defineProperty(screen, &quot;pixelDepth&quot;, { value: 24 }); } catch (e) {} try { Object.defineProperty(navigator, &quot;hardwareConcurrency&quot;, { value: 8 }); } catch (e) {} try { Object.defineProperty(navigator, &quot;appVersion&quot;, { value: &quot;5.0 (X11)&quot; }); } catch (e) {} try { Object.defineProperty(navigator, &quot;doNotTrack&quot;, { value: &quot;unspecified&quot; }); } catch (e) {} try { window.screenY = 0 } catch (e) { } try { window.screenTop = 0 } catch (e) { } try { window.top.window.outerHeight = window.screen.height } catch (e) { } try { window.screenX = 0 } catch (e) { } try { window.screenLeft = 0 } catch (e) { } try { window.top.window.outerWidth = window.screen.width } catch (e) { }</script></svg>