<svg xmlns="http://www.w3.org/2000/svg" version="1.1" id="layer" x="0" y="0" xml:space="preserve" width="600" height="182.9"><style type="text/css" id="style2">.st0{fill:#0064ad}</style><g id="g10" transform="translate(-25.2 -235.2)"><path class="st0" d="M488.7 278.6c0-3.8 3.1-6.8 6.8-6.8 3.8 0 6.8 3.1 6.8 6.8 0 1.9-.7 3.5-2 4.8h-9.7c-1.2-1.3-1.9-2.9-1.9-4.8m-46.3-.2c0-3.8 3.1-6.8 6.8-6.8 3.8 0 6.8 3.1 6.8 6.8 0 2-.8 3.7-2.2 5h-9.3c-1.3-1.3-2.1-3-2.1-5m30.5-43.2l2.5 26.5h-5.2zm152.3 51.1H488.6l-8 11.1zm-109.1-40.4l-40.4 2.9-.4-3.7zm-86.5 0l40.4 2.9.5-3.8zm28.8 31.6c-.9-7.9 6.7-13.9 13.8-13.8 7.3.1 14.9 5 14.2 13.1-.9 10.9-6.6 20.6-14.2 20.6-7.5-.1-12.6-9.2-13.8-19.9m-138.7 8.8h136.7l8 11.1z" id="path4" fill="#0064ad"/><path class="st0" d="M25.2 375.4h5.7l6.6-15.4h30.7l6.3 15.4h6.1l-24.4-58.1h-5.6zm41-20.3H39.6l13.5-31.8zm51.3 10.1c-1.3 2.1-3.1 3.7-5.4 4.9-2.3 1.2-4.7 1.8-7.3 1.8-3.8-.1-6.7-1-8.8-2.8-2.1-1.8-3.5-3.7-4.4-6-.8-2.2-1.2-4.1-1.2-5.5h31.8v-3.4c0-3-.7-5.8-2-8.5s-3.3-4.9-6-6.6c-2.6-1.7-5.9-2.6-9.8-2.6-5.6.1-10.2 2-13.6 5.7-3.4 3.7-5.2 8.4-5.3 14.2.1 6 1.8 10.8 5.3 14.4 3.4 3.6 8.1 5.5 13.9 5.6 3.4 0 6.5-.6 9.3-1.9 2.8-1.3 5.2-3.4 7.1-6.2zm-27.1-11.9c0-.8.4-2.1 1.2-4.1.8-1.9 2.2-3.8 4.2-5.5 2-1.7 4.8-2.6 8.3-2.8 3.7.1 6.8 1.3 9.3 3.6 2.5 2.3 3.7 5.2 3.8 8.7H90.4zm42.9 22.1h4.9v-20.7c0-3.8 1-6.9 3-9.4s5.1-3.8 9.4-3.9c.5 0 1.1.1 1.9.3l.6-4.8c-.5-.1-1-.2-1.4-.3-.5-.1-.9-.1-1.4-.1-2.8 0-5.2.8-7.2 2.1-2 1.4-3.6 3.2-4.8 5.5-.1-.4-.1-1.3-.2-2.5l-.1-4.1h-4.9c0 .7 0 1.7.1 3l.2 4.1c.1 1.4.1 2.6.1 3.6v27.2zm23.8-19c.1 5.9 2 10.7 5.6 14.3 3.6 3.6 8.4 5.5 14.3 5.6 5.9-.1 10.7-2 14.3-5.6 3.6-3.6 5.5-8.4 5.6-14.3-.1-5.9-2-10.7-5.6-14.3-3.6-3.6-8.4-5.5-14.3-5.6-5.9.1-10.7 2-14.3 5.6-3.6 3.7-5.5 8.5-5.6 14.3m4.9 0c0-4.4 1.4-8 4-11 2.6-2.9 6.3-4.4 11-4.6 4.7.1 8.3 1.6 11 4.6 2.6 2.9 4 6.6 4 11s-1.4 8-4 11c-2.6 2.9-6.3 4.4-11 4.6-4.7-.1-8.3-1.6-11-4.6-2.6-2.9-3.9-6.6-4-11m42.9 1.8h20.2v-4.4h-20.2zm30.9 17.2h18c7.5-.1 13.4-1.4 17.6-3.9 4.3-2.5 7.4-5.5 9.4-9s3.2-6.7 3.7-9.8c.5-3 .7-5.1.7-6.3.1-1.2-.1-3.3-.7-6.3-.5-3-1.8-6.3-3.7-9.8-2-3.5-5.1-6.5-9.4-9-4.3-2.5-10.2-3.8-17.6-3.9h-18zm5.4-53.2h11.2c5.2 0 9.8.8 14 2.5 4.1 1.7 7.4 4.4 9.8 7.9 2.4 3.6 3.6 8.1 3.7 13.7-.1 5.5-1.3 10.1-3.7 13.7-2.4 3.6-5.7 6.2-9.8 7.9-4.1 1.7-8.8 2.6-14 2.5h-11.2zm55.6 53.2h4.9v-37.9h-4.9zm-1.2-52.9c0 1 .4 1.9 1.1 2.6.7.7 1.6 1 2.6 1.1 1 0 1.9-.4 2.6-1.1.7-.7 1-1.6 1.1-2.6 0-1-.4-1.9-1.1-2.6-.7-.7-1.6-1-2.6-1.1-1 0-1.9.4-2.6 1.1-.7.7-1.1 1.5-1.1 2.6m49.9 42.7c-1.3 2.1-3.1 3.7-5.4 4.9-2.3 1.2-4.7 1.8-7.3 1.8-3.8-.1-6.7-1-8.8-2.8-2.1-1.8-3.5-3.7-4.4-6-.8-2.2-1.2-4.1-1.2-5.5h31.8v-3.4c0-3-.7-5.8-2-8.5s-3.3-4.9-6-6.6c-2.6-1.7-5.9-2.6-9.8-2.6-5.6.1-10.2 2-13.6 5.7-3.4 3.7-5.2 8.4-5.3 14.2.1 6 1.8 10.8 5.3 14.4 3.4 3.6 8.1 5.5 13.9 5.6 3.4 0 6.5-.6 9.3-1.9 2.8-1.3 5.2-3.4 7.1-6.2zm-27-11.9c0-.8.4-2.1 1.2-4.1.8-1.9 2.2-3.8 4.2-5.5 2-1.7 4.8-2.6 8.3-2.8 3.7.1 6.8 1.3 9.3 3.6 2.5 2.3 3.7 5.2 3.8 8.7h-26.8zm42.8 22.1h4.9v-18.9c.1-5.2 1.4-9.1 3.8-11.7 2.5-2.6 5.6-3.8 9.3-3.8 3.8.1 6.4 1.4 7.7 3.8 1.3 2.4 1.9 5.2 1.8 8.4v22.3h4.9v-22.6c0-2.8-.3-5.4-1.1-7.9s-2.2-4.5-4.3-6c-2.1-1.5-5.1-2.3-9-2.4-3.1.1-5.8.8-8 2.2-2.3 1.4-3.9 3.2-4.9 5.4-.3-.4-.4-1.3-.4-2.6l-.1-4.1H361c0 .7 0 1.7.1 3l.2 4.1c.1 1.4.1 2.6.1 3.6v27.2zm41.4-6.7c1.5 2.6 3.6 4.6 6.3 5.8 2.7 1.3 5.7 1.9 9 1.9 3.7 0 6.9-1 9.6-2.9 2.6-2 4-4.9 4.1-8.8-.1-3.7-1.3-6.3-3.5-7.8s-4.8-2.4-7.7-2.9c-2.9-.5-5.5-1.2-7.7-2s-3.4-2.5-3.5-4.9c.1-2 1-3.5 2.7-4.5 1.7-1 3.5-1.6 5.3-1.6 2.2 0 4 .5 5.4 1.4 1.4.9 2.6 2.2 3.5 4l4.4-2.6c-1.2-2.4-3-4.2-5.3-5.4-2.3-1.2-5-1.8-8.1-1.8-2.1 0-4.2.4-6.1 1.2-2 .8-3.6 2-4.9 3.6-1.3 1.6-1.9 3.7-2 6.1.1 3.5 1.3 6 3.5 7.4 2.2 1.4 4.8 2.4 7.7 2.9 2.9.5 5.5 1.3 7.7 2.2 2.2.9 3.4 2.6 3.5 5.1-.1 2.2-1 3.9-2.7 5.1-1.7 1.2-3.7 1.8-5.9 1.9-2.3 0-4.4-.5-6.4-1.6s-3.5-2.6-4.6-4.6zm57.6-31.2h-10.8v-10.9h-4.9v10.9h-8.2v4.4h8.2v24.7c0 2.8.7 5.1 2.2 6.9 1.5 1.8 4 2.8 7.5 2.8 1 0 2.1-.1 3.2-.4 1.2-.3 2.2-.6 3.2-.9l-.4-4.4c-.9.4-1.8.7-2.7.9-.9.2-1.9.4-2.8.4-1.7 0-2.9-.5-3.9-1.4-.9-.9-1.4-2.2-1.4-3.9v-24.7h10.8z" id="path6" fill="#0064ad"/><path class="st0" d="M344.5 417.7h1.3v-5.8l4.9-7.7h-1.4l-4.2 6.4-4.1-6.4h-1.5l4.9 7.7v5.8zm5.6-4.4c0 1.4.5 2.5 1.3 3.3.8.8 1.9 1.3 3.3 1.3s2.5-.5 3.3-1.3c.8-.8 1.3-1.9 1.3-3.3s-.5-2.5-1.3-3.3c-.8-.8-1.9-1.3-3.3-1.3s-2.5.5-3.3 1.3c-.8.8-1.2 1.9-1.3 3.3m1.2 0c0-1 .3-1.9.9-2.5.6-.7 1.5-1 2.5-1.1 1.1 0 1.9.4 2.5 1.1.6.7.9 1.5.9 2.5s-.3 1.9-.9 2.5c-.6.7-1.5 1-2.5 1.1-1.1 0-1.9-.4-2.5-1.1-.6-.7-.9-1.5-.9-2.5m18-4.4h-1.1v4.4c0 1.2-.3 2.1-.9 2.7-.6.6-1.3.9-2.2.9-.9 0-1.5-.3-1.8-.9-.3-.6-.4-1.2-.4-1.9v-5.2h-1.1v5.2c0 .7.1 1.3.3 1.8.2.6.5 1 1 1.4.5.4 1.2.5 2.1.6.7 0 1.3-.2 1.9-.5.5-.3.9-.7 1.1-1.2l.1.6v.9h1.1v-8.8zm3.2 8.8h1.1v-4.8c0-.9.2-1.6.7-2.2.5-.6 1.2-.9 2.2-.9.1 0 .3 0 .4.1l.1-1.1-.3-.1h-.3c-.7 0-1.2.2-1.7.5s-.8.7-1.1 1.3V409h-1.1v2.4zm17-13.5h-1.3v9.8c0 .8-.2 1.5-.5 2-.4.5-1 .8-1.9.8-.6 0-1.1-.1-1.4-.4-.4-.3-.6-.8-.8-1.4l-1.3.2c.2.8.6 1.5 1.2 2s1.4.7 2.3.8c1.1 0 2-.3 2.5-.8s.9-1 1-1.7c.1-.7.2-1.3.2-1.8zm10.3 11.1c-.3.5-.7.9-1.3 1.1-.5.3-1.1.4-1.7.4-.9 0-1.6-.2-2-.6-.5-.4-.8-.9-1-1.4-.2-.5-.3-.9-.3-1.3h7.4v-.8c0-.7-.2-1.3-.5-2-.3-.6-.8-1.1-1.4-1.5-.6-.4-1.4-.6-2.3-.6-1.3 0-2.4.5-3.2 1.3-.8.8-1.2 1.9-1.2 3.3s.4 2.5 1.2 3.3c.8.8 1.9 1.3 3.2 1.3.8 0 1.5-.1 2.1-.4.6-.3 1.2-.8 1.6-1.4zm-6.3-2.7c0-.2.1-.5.3-.9.2-.5.5-.9 1-1.3s1.1-.6 1.9-.6c.9 0 1.6.3 2.2.8.6.5.9 1.2.9 2zm14.2-3.7h-2.5v-2.5h-1.1v2.5h-1.9v1h1.9v5.7c0 .6.2 1.2.5 1.6.4.4.9.6 1.7.7.2 0 .5 0 .7-.1.3-.1.5-.1.7-.2l-.1-1c-.2.1-.4.2-.6.2-.2.1-.4.1-.7.1-.4 0-.7-.1-.9-.3-.2-.2-.3-.5-.3-.9V410h2.5v-1.1zm5.5 4.8h9.5v-1h-9.5zm15.4-2.7c0 1.4.3 2.6.9 3.7.6 1.1 1.4 1.9 2.4 2.5 1 .6 2.2.9 3.6.9s2.6-.3 3.6-.9c1-.6 1.8-1.4 2.4-2.5.6-1.1.9-2.3.9-3.7 0-1.4-.3-2.6-.9-3.7-.6-1.1-1.4-1.9-2.4-2.5-1-.6-2.3-.9-3.6-.9-1.4 0-2.6.3-3.6.9-1 .6-1.8 1.4-2.4 2.5-.5 1.1-.8 2.3-.9 3.7m1.3 0c0-1.1.2-2.1.7-3 .5-.9 1.1-1.6 2-2.1.8-.5 1.9-.8 3-.8 1.2 0 2.2.3 3 .8.8.5 1.5 1.2 2 2.1.5.9.7 1.9.7 3s-.2 2.1-.7 3c-.5.9-1.1 1.6-2 2.1-.8.5-1.9.8-3 .8-1.2 0-2.2-.3-3-.8-.9-.5-1.5-1.2-2-2.1-.5-.9-.7-1.9-.7-3m22.5-2.1h-1.1v4.4c0 1.2-.3 2.1-.9 2.7-.6.6-1.3.9-2.2.9-.9 0-1.5-.3-1.8-.9-.3-.6-.4-1.2-.4-1.9v-5.2h-1.1v5.2c0 .7.1 1.3.3 1.8.2.6.5 1 1 1.4.5.4 1.2.5 2.1.6.7 0 1.3-.2 1.9-.5.5-.3.9-.7 1.1-1.2l.1.6v.9h1.1v-8.8zm3.2 8.8h1.1v-4.8c0-.9.2-1.6.7-2.2.5-.6 1.2-.9 2.2-.9.1 0 .3 0 .4.1l.1-1.1-.3-.1h-.3c-.7 0-1.2.2-1.7.5s-.8.7-1.1 1.3V409h-1.1v2.4zm17-13.5h-1.2v9.8c0 .8-.2 1.5-.6 2-.4.5-1 .8-1.9.8-.6 0-1.1-.1-1.4-.4-.4-.3-.6-.8-.8-1.4l-1.3.2c.2.8.6 1.5 1.2 2s1.4.7 2.3.8c1.1 0 2-.3 2.5-.8s.9-1 1-1.7c.1-.7.2-1.3.2-1.8zm2.9 9.1c0 1.4.5 2.5 1.3 3.3.8.8 1.9 1.3 3.3 1.3s2.5-.5 3.3-1.3c.8-.8 1.3-1.9 1.3-3.3s-.5-2.5-1.3-3.3c-.8-.8-1.9-1.3-3.3-1.3s-2.5.5-3.3 1.3c-.8.8-1.2 1.9-1.3 3.3m1.2 0c0-1 .3-1.9.9-2.5.6-.7 1.5-1 2.5-1.1 1.1 0 1.9.4 2.5 1.1.6.7.9 1.5.9 2.5s-.3 1.9-.9 2.5c-.6.7-1.5 1-2.5 1.1-1.1 0-1.9-.4-2.5-1.1-.6-.7-.9-1.5-.9-2.5m10.3 4.4h1.1v-1.5c.4.6.9 1.1 1.6 1.3.6.3 1.3.4 2 .4 1.4 0 2.5-.5 3.3-1.3.8-.8 1.3-1.9 1.3-3.3s-.5-2.5-1.3-3.3c-.8-.8-1.9-1.3-3.3-1.3-.7 0-1.3.1-2 .4-.6.3-1.2.7-1.5 1.3v-7.1H487zm1.1-4.4c0-1 .4-1.9 1.1-2.5.7-.7 1.6-1 2.6-1.1 1.1 0 1.9.4 2.5 1.1.6.7.9 1.5.9 2.5s-.3 1.9-.9 2.5c-.6.7-1.5 1-2.5 1.1-1.1 0-1.9-.4-2.6-1.1-.8-.7-1.1-1.5-1.1-2.5m14.2.4h9.5v-1h-9.5zm15.5 2.3c.5.7 1.2 1.2 1.9 1.6.7.4 1.6.5 2.5.5.7 0 1.4-.1 2.1-.4.6-.3 1.1-.7 1.5-1.3.4-.6.6-1.2.6-2.1 0-1-.3-1.7-.7-2.2-.5-.5-1-.9-1.7-1.1-.7-.2-1.4-.5-2.1-.7-.7-.2-1.3-.5-1.7-.9-.5-.4-.7-1-.7-1.8 0-.9.3-1.5.9-1.9.6-.4 1.3-.6 2.1-.6.6 0 1.1.1 1.5.3.4.2.8.6 1.1 1l1.1-.8c-.5-.6-1-1-1.6-1.3-.6-.3-1.3-.4-2-.4-.8 0-1.5.1-2.1.4-.6.3-1.2.7-1.6 1.2-.4.5-.6 1.2-.6 2 0 1 .3 1.8.7 2.3.5.5 1 .9 1.7 1.2.7.3 1.4.5 2.1.7.7.2 1.3.5 1.7.8.5.4.7.9.7 1.6 0 .8-.3 1.5-.9 1.9-.6.5-1.3.7-2.1.7-.7 0-1.3-.1-1.8-.4-.5-.3-1-.7-1.3-1.3zm11.3 1.7h1.1v-8.8h-1.1zm-.3-12.3c0 .2.1.4.2.6.2.2.4.2.6.2.2 0 .4-.1.6-.2.2-.2.2-.4.2-.6 0-.2-.1-.4-.2-.6-.2-.2-.4-.2-.6-.2-.2 0-.4.1-.6.2-.1.2-.2.4-.2.6m4.7 12.3h1.1v-4.4c0-1.2.3-2.1.9-2.7.6-.6 1.3-.9 2.1-.9.9 0 1.5.3 1.8.9.3.6.4 1.2.4 1.9v5.2h1.1v-5.2c0-.7-.1-1.3-.3-1.8-.2-.6-.5-1-1-1.4-.5-.4-1.2-.5-2.1-.6-.7 0-1.3.2-1.9.5-.5.3-.9.7-1.1 1.2l-.1-.6v-.9h-1.1v8.8zm17-2c-.3.4-.6.7-1 .9-.4.2-.8.3-1.3.3-1.1 0-1.9-.4-2.5-1.1-.6-.7-.9-1.5-.9-2.5s.3-1.9.9-2.5c.6-.7 1.5-1 2.5-1.1.5 0 .9.1 1.3.3.4.2.8.5 1.1.9l.9-.7c-.4-.5-.9-.9-1.5-1.1-.6-.3-1.1-.4-1.8-.4-1.4 0-2.5.5-3.3 1.3-.8.8-1.3 1.9-1.3 3.3s.5 2.5 1.3 3.3c.8.8 1.9 1.3 3.3 1.3.6 0 1.2-.1 1.8-.4.5-.3 1-.6 1.5-1.1zm9.6-.4c-.3.5-.7.9-1.3 1.1-.5.3-1.1.4-1.7.4-.9 0-1.6-.2-2-.6-.5-.4-.8-.9-1-1.4-.2-.5-.3-.9-.3-1.3h7.4v-.8c0-.7-.2-1.3-.5-2-.3-.6-.8-1.1-1.4-1.5-.6-.4-1.4-.6-2.3-.6-1.3 0-2.4.5-3.2 1.3-.8.8-1.2 1.9-1.2 3.3s.4 2.5 1.2 3.3c.8.8 1.9 1.3 3.2 1.3.8 0 1.5-.1 2.1-.4.6-.3 1.2-.8 1.6-1.4zm-6.3-2.7c0-.2.1-.5.3-.9.2-.5.5-.9 1-1.3s1.1-.6 1.9-.6c.9 0 1.6.3 2.2.8.6.5.9 1.2.9 2zm18.3 5.1h1.1v-13.4h-1l-3.3 2.7.7.9 2.4-2zm7.9 0h1.4l3.6-6.1c.3-.4.6-1 .8-1.5.3-.6.4-1.2.4-1.9 0-1.2-.4-2.2-1.2-3-.8-.8-1.9-1.2-3.2-1.2-1.3 0-2.3.4-3.2 1.2-.8.8-1.2 1.8-1.2 3s.4 2.2 1.2 2.9c.8.8 1.7 1.2 3 1.2.3 0 .7 0 1.1-.1.4-.1.7-.2.9-.4zm2-6.4c-.9 0-1.6-.3-2.2-.9-.6-.6-.9-1.3-.9-2.2 0-.9.3-1.7.9-2.3.6-.6 1.3-.9 2.3-.9.9 0 1.7.3 2.3.9.6.6.9 1.3.9 2.3 0 .9-.3 1.6-.9 2.2-.8.6-1.6.9-2.4.9m13.4-7.1h-6.6l-.1 6.9c.4-.3.8-.5 1.3-.7.4-.2.9-.3 1.4-.3 1 0 1.8.4 2.4 1 .6.7.9 1.5 1 2.5 0 .7-.2 1.3-.5 1.8s-.7.8-1.2 1.1c-.5.2-.9.4-1.3.4-.6 0-1.2-.2-1.7-.5s-.9-.8-1.1-1.3l-1.2.6c.4.7.9 1.3 1.5 1.7.7.4 1.5.6 2.5.6.7 0 1.3-.2 2-.5s1.2-.8 1.6-1.4c.4-.6.7-1.4.7-2.4 0-.8-.2-1.6-.5-2.2-.3-.7-.8-1.2-1.4-1.6-.6-.4-1.4-.6-2.2-.6-.3 0-.7 0-1 .1-.3.1-.7.2-1 .3l.1-4.3h5.5v-1.2zm2.6 3.3c0 .6.2 1.3.6 1.8.4.6.9.9 1.6 1.1-.9.2-1.5.6-2 1.3-.4.6-.7 1.4-.7 2.2 0 1.2.4 2.2 1.2 2.9.8.7 1.8 1.1 3 1.1s2.2-.4 3-1.1c.8-.7 1.2-1.7 1.2-2.9 0-.8-.2-1.6-.7-2.2-.4-.6-1.1-1.1-2-1.3.7-.2 1.2-.6 1.6-1.2.4-.6.6-1.2.6-1.8 0-1.1-.4-1.9-1.1-2.5-.7-.6-1.6-1-2.6-1-1.1 0-1.9.3-2.6 1-.7.7-1.1 1.5-1.1 2.6m1.2 0c0-.8.3-1.3.7-1.8.4-.4 1-.7 1.7-.7s1.3.2 1.7.7c.4.4.7 1 .7 1.8 0 .7-.2 1.3-.7 1.7-.4.5-1 .7-1.8.7-.7 0-1.3-.3-1.8-.7-.2-.4-.4-1-.5-1.7m-.4 6.4c0-.9.3-1.6.8-2.1s1.2-.8 2.1-.8c.8 0 1.5.3 2.1.8.5.5.8 1.2.8 2.1 0 .8-.3 1.5-.8 2.1-.5.6-1.2.8-2.1.9-.9 0-1.6-.3-2.1-.9-.5-.5-.8-1.2-.8-2.1" id="path8" fill="#0064ad"/></g></svg>