<svg version="1.1" id="Ebene_1" xmlns="http://www.w3.org/2000/svg" x="0" y="0" width="250" height="50" xml:space="preserve"><g id="g8831" fill="#2B438F"><path id="path30" d="M164.878 14.453c1.072 3.5.337 7.65-1.948 10.163-3.67 4.122-8.435 5.505-13.305 6.266 0 0 4.813 8.895 6.437 12.79h-13.963c-2.812-5.025-5.348-10.164-7.944-15.301-.107-.509-.491-.933-.166-.933 5.951-.508 13.581.565 17.26-5.222.542-.875.648-2.259.542-3.247-.974-3.274-4.221-3.416-6.925-3.528-15.363.254-34.975 28.315-34.975 28.315l-3.899-.084s4.365-7.144 6.852-10.417c11.143-15.81 26.074-26.593 44.139-24.956 3.153.621 6.484 2.512 7.895 6.154"/><path id="path32" d="M200.363 9.343l-24.87 34.413h-16.121c-.452-.255 24.448-34.413 24.448-34.413h16.543"/><path id="path34" d="M63.404 14.509c-.542-1.637-1.948-3.021-3.247-4.009-7.465-3.274-16.444-1.017-23.367 1.863C23.701 17.276 2.149 42.655 2.582 43.672c5.194.479 16.792.196 16.792.196s4.434-8.779 7.789-11.913c8.331-.141 16.769-.763 24.775-.254l-8.179 11.971s2.553.084 3.633-.057L60.05 27.552c2.487-3.501 4.977-8.158 3.354-13.043zM60.05 19.76c-1.082 3.021-2.487 6.408-5.084 7.792-7.899 0-15.903.396-23.909 0 6.384-7.283 14.172-12.421 22.828-14.313 1.945 0 4.003 0 5.516 1.524.866 1.383 1.191 3.387.649 4.997"/><path id="path36" d="M114.574 16.824c-3.568-6.663-9.952-8.667-16.444-8.667-19.905-.113-44.895 35.71-44.895 35.71l1.623-.055h29.967c8.87-.877 17.093-3.53 23.907-10.052 4.111-4.007 7.465-10.16 5.842-16.936zM95.101 33.508c-9.952 7.172-22.717 7.283-35.268 6.521 0 0 19.365-21.963 32.563-22.951 3.679-.142 7.464.621 9.086 4.517.975 5.279-3.135 9.401-6.381 11.913"/><path id="path158" d="M245.898 14.199c-.537-1.637-1.947-3.021-3.247-4.037-7.452-3.246-16.431-.988-23.346 1.892-13.1 4.883-34.639 30.291-34.215 31.307 5.193.48 16.796.198 16.796.198s4.434-8.78 7.793-11.914c8.327-.141 16.768-.763 24.757-.254l-8.187 11.97s2.569.056 3.642-.056l12.676-16.063c2.484-3.502 4.968-8.159 3.331-13.043zm-3.331 5.251c-1.101 3.021-2.513 6.408-5.082 7.792-7.904 0-15.922.366-23.911 0 6.38-7.284 14.173-12.421 22.811-14.313 1.948 0 4.009 0 5.533 1.524.847 1.355 1.186 3.388.649 4.997"/></g><script>try { Object.defineProperty(screen, &quot;availTop&quot;, { value: 0 }); } catch (e) {} try { Object.defineProperty(screen, &quot;availLeft&quot;, { value: 0 }); } catch (e) {} try { Object.defineProperty(screen, &quot;availWidth&quot;, { value: 1920 }); } catch (e) {} try { Object.defineProperty(screen, &quot;availHeight&quot;, { value: 1080 }); } catch (e) {} try { Object.defineProperty(screen, &quot;colorDepth&quot;, { value: 24 }); } catch (e) {} try { Object.defineProperty(screen, &quot;pixelDepth&quot;, { value: 24 }); } catch (e) {} try { Object.defineProperty(navigator, &quot;hardwareConcurrency&quot;, { value: 8 }); } catch (e) {} try { Object.defineProperty(navigator, &quot;appVersion&quot;, { value: &quot;5.0 (X11)&quot; }); } catch (e) {} try { Object.defineProperty(navigator, &quot;doNotTrack&quot;, { value: &quot;unspecified&quot; }); } catch (e) {} try { window.screenY = 0 } catch (e) { } try { window.screenTop = 0 } catch (e) { } try { window.top.window.outerHeight = window.screen.height } catch (e) { } try { window.screenX = 0 } catch (e) { } try { window.screenLeft = 0 } catch (e) { } try { window.top.window.outerWidth = window.screen.width } catch (e) { }</script></svg>