<svg viewBox="0 0 334 65.5" xmlns="http://www.w3.org/2000/svg"><path d="M138.412 19.983c-2.675-2.264-1.949-6.498 1.3-7.576 3.675-1.22 7.255 2.264 5.924 5.764-1.086 2.857-4.868 3.806-7.224 1.812zm119.511 18.024c-.255 4.222 1.607 8.057 5.121 8.13 2.632.197 5.705-2.741 5.476-7.934-.193-4.355-1.3-7.763-5.315-7.924-3.195.19-4.996 3.02-5.282 7.728zM276.512 38c.167 9.062-5.409 14.996-13.371 15.294-7.529.282-13.44-6.366-13.371-15.133.064-8.359 5.666-14.619 13.05-14.733 7.867-.122 13.535 6.082 13.692 14.572zm-44.709-14.122l5.688.024 1.401 4.537c1.615-5.05 6.237-5.127 8.649-4.83l.007 8.632-7.805.463-.033 19.886h-7.974zm-79.523-.085l5.688.024 1.401 4.536c1.615-5.049 6.237-5.126 8.649-4.829l.007 8.632-7.806.462-.032 19.887h-7.974zm21.274 28.855l.002-18.859.036-19.253 22.126-.024-.006 6.66-13.279.013c.008 2.73.045 6.251.032 8.981l11.067.096.001 6.686-11.106-.036.03 9.05 7.898.038 5.365.03.005 6.62zm-36.159-.235l.016-28.649h7.866l-.043 28.719zm-17.492-14.607l-3.428-14.08-3.272 14.106zm-19.338 14.5l10.106-37.44 11.759.07 10.254 37.519-9.428.03-1.695-6.495c-3.303.053-7.008.12-10.31.031l-1.61 6.43zm224.98-7.178l-.078-5.058c-4.92-.725-10.09 1.899-7.405 6.083 1.573 2.452 5.902 1.055 7.483-1.025zm-9.703 7.933c-4.349-1.262-6.62-6.168-5.659-10.938.63-3.124 2.79-6.918 11.246-7.412l3.886-.227c.378-.023-.014-2.484-.723-3.43-2.518-3.582-7.232-1.276-11.565-.142l-1.727-5.404c1.379-.716 3.148-1.23 5.52-2.047 4.332-1.493 10.283-.58 12.826 1.024 1.523.962 2.687 2.546 3.608 4.634.335.76.689 2.633.708 3.57l.095 19.914-6.124.045-1.395-3.343c-3.287 3.937-6.307 4.995-10.696 3.756zM207.6 53.15c-2.597-.626-4.232-1.787-5.526-3.923-1-1.652-1.13-3.216-1.13-13.664V23.764h7.867l.042 17.913c-.006 1.358.025 2.432.454 3.244 1.57 2.972 5.633 2.444 6.944-.435.293-.645.294-1.74.293-2.583l.051-18.083 8.29-.056.022 29.388-6.502-.021-1.129-3.651c-1.073 1.102-2.291 2.288-3.564 2.971-1.979.808-4.263 1.053-6.112.7zm90.197-9.663c.608-2.157.709-3.946.682-6.26-.051-4.368-1.228-8.553-5.423-8.364-.649.029-2.348.252-3.537 1.77l-.01 14.62c1.73 2.738 7.283 1.797 8.288-1.766zm-16.293-20.563l6.334.03.926 3.348c.448-1.405 3.983-3.76 6.648-3.801 4.403-.433 8.41 2.504 10.156 7.44 1.167 3.3 1.266 11.126.264 15.104-1.453 5.77-7.205 8.938-12.694 8.045-1.308-.213-2.421-.814-3.632-1.22l-.07 10.104-7.916-.01zM37.216 48.49c-1.344-8.655 1.027-17.564 3.103-23.799 4.267-10.499 2.211-20.91-9.59-15.748-3.358 1.546-8.49 6.875-10.856 11.328-7.298 13.735-4.845 34.497 4.092 34.628 3.637-.14 8.516-3.653 13.251-6.408zM11.882 64.419c-3.25-1.036-7.502-5.592-9.142-9.797C.118 46.998.128 36.498 2.99 28 7.02 16.407 15.794 6.203 24.314 2.925c7.822-2.997 19.912-3.167 27.832 5.41C58.3 2.48 67.438.567 72.515.641 85.14.083 91.732 5.168 91.732 14.677c0 3.408-2.573 8.338-5.654 10.834C82.45 28.45 59.9 42.623 58.818 42.623l-.062-6.688 6.655-4.698c8.579-6.055 11.49-9.202 12.44-13.448 2.43-10.853-8.826-13.888-17.154-4.625-8.372 9.312-11.5 28.742-6.115 37.976 4.141 7.1 12.354 4.899 25.338-2.81l4.999-3.206 3.532 4.926c-5.023 4.33-10.214 8.072-15.477 11.4-4.691 2.603-9.165 3.761-14.52 3.761-9.963-.158-16.259-2.759-19.196-9.644-.23-.02-2.56 1.886-5.492 3.858-6.705 4.495-14.95 7.318-21.883 4.994z" fill="#0970cb"/></svg>