<svg version="1.0" viewBox="0 0 400 34.998" xmlns="http://www.w3.org/2000/svg"><path d="M378.44.296l-17.952 25.975c-2.364 3.416-6.2 6.707-10.83 7.061v.797h19.967c5.3 0 9.166-3.451 11.785-7.252L399.844.297H378.44V.296z" fill="#ED1C24"/><linearGradient id="a" x1="374.75" x2="374.75" y1=".296" y2="34.128" gradientUnits="userSpaceOnUse"><stop stop-color="#FF1E27" offset=".335"/><stop stop-color="#E81B23" offset=".692"/><stop stop-color="#A61319" offset=".784"/><stop stop-color="#9D1218" offset=".872"/><stop stop-color="#931116" offset=".955"/><stop stop-color="#800F14" offset="1"/></linearGradient><path d="M378.44.296l-17.952 25.971c-2.364 3.42-6.2 6.711-10.83 7.064v.797h19.967c5.3 0 9.166-3.451 11.785-7.252L399.844.296H378.44z" fill="url(#a)"/><path d="M47.806 34.128V3.15h9.043v30.978h-9.043zm208.46 0l-21.719-18.395v18.395h-7.634V3.15h6.485l21.431 18.107V3.15h7.634v30.978h-6.197zm47.235-20.983c-4.087-2.011-8.686-3.64-14.786-3.64-7.283 0-12.714 3.767-12.714 9.005 0 5.37 5.526 9.167 12.648 9.167 5.877 0 10.542-1.502 15.141-4.152v7.666c-4.06 2.014-9.456 3.512-15.522 3.512-12.394 0-22.135-6.324-22.135-16.192 0-9.71 9.934-15.938 22.104-15.938 5.746 0 10.954 1.086 15.264 2.843v7.729zm-196.35 20.983V3.15h30.212v6.64h-21.177v7.7h20.699v6.644h-20.699v9.994h-9.035zm201.82 0V3.15h31.363v6.64H318.01v5.369h21.97V21.8h-21.97v5.684h22.228v6.645h-31.267v-.001zm-140.21-11.623l12.491 11.623h-9.648c-2.138 0-3.544-.67-4.664-1.756l-8.493-8.238c-.162-.162-.416-.254-.735-.254h-5.781v10.248h-9.04V3.15h19.582c10.152 0 14.436 4.564 14.436 9.614-.002 5.873-5.24 8.684-8.148 9.741zm-7.218-5.112c3.578 0 5.304-1.822 5.304-3.863 0-2.045-1.533-3.74-5.304-3.74h-9.613v7.603h9.613zm-70.356 5.112l12.486 11.623h-9.644c-2.142 0-3.547-.67-4.664-1.756l-8.497-8.238c-.157-.162-.416-.254-.735-.254h-5.777v10.248h-9.043V3.15h19.581c10.156 0 14.436 4.564 14.436 9.614-.001 5.873-5.239 8.684-8.143 9.741zm-7.218-5.112c3.574 0 5.3-1.822 5.3-3.863 0-2.045-1.533-3.74-5.3-3.74h-9.613v7.603h9.613zM33.668 34.128l-3.964-6.801H12.396l-3.609 6.801H.163L17.406 3.181h7.857L44.81 34.128H33.668zM15.843 20.876h10.091l-5.238-9.457-4.853 9.457zm198.3 13.252l-3.867-6.801h-16.861l-3.482 6.801h-8.4l16.801-30.947h7.63l19.004 30.947h-10.825zm-17.344-13.252h9.837l-5.11-9.457-4.727 9.457z" fill="#002157"/></svg>