<svg height="98.311" viewBox="0 0 101.918 26.012" width="385.203" xmlns="http://www.w3.org/2000/svg"><path d="M5.648 21.752c0 .303.12.485.416.47h2.105c.133 0 .237-.015.296-.122l.074-.288c.119-.303-.222-.257-.444-.454-.341-.137-.475-.258-.475-.804v-4.411c0-.986-.4-1.076-.86-1.274-.637-.242-1.349-.409-2.342-.409C1.824 14.46 0 16.491 0 18.887c0 1.819 1.082 3.517 2.861 3.517 1.112 0 2.283-.85 2.758-1.971h.03zM4.24 15.248c1.216 0 1.408 1.077 1.408 2.365 0 2.153-1.23 3.517-2.105 3.517-.919 0-1.453-1.182-1.453-2.653 0-1.546.771-3.229 2.15-3.229zm6.136 5.352c0 .576-.385.818-.756.894-.103.03-.222.046-.281.212l-.09.258c-.073.227.075.258.193.258h3.647c.134 0 .208-.046.252-.122l.12-.303c.058-.121.029-.242-.164-.273-.726-.166-.949-.272-.949-.924v-5.958H9.62c-.089 0-.178 0-.222.121l-.134.304c-.088.181.06.242.208.288.682.151.904.257.904.91zm-.103-8.171a1.12 1.12 0 001.112 1.122c.578 0 1.082-.546 1.082-1.122 0-.607-.504-1.122-1.097-1.122s-1.097.5-1.097 1.122zm7.128 2.516c0-.318-.192-.303-.355-.303h-2.387c-.09 0-.178 0-.223.121l-.133.304c-.09.181.06.242.207.288.682.151.905.257.905.91V20.6c0 .576-.386.818-.756.894-.104.03-.223.046-.282.212l-.089.258c-.074.227.074.258.193.258h3.884c.178 0 .267-.046.326-.122l.163-.303c.074-.121.045-.242-.222-.273-.949-.166-1.246-.272-1.246-.924v-1.85c0-.773-.074-1.455.282-2.061.208-.364.608-.546 1.29-.334.415.121.697.44.86.227l.578-.485c.03-.03.045-.09.03-.136l-.297-1.137c-.06-.167-.311-.364-.726-.364-.653 0-1.364.667-1.972 1.546h-.03zm11.275-1.713c0-.576.386-.818.756-.894.104-.03.223-.046.282-.212l.089-.258c.074-.227-.074-.258-.193-.258h-3.765c-.134 0-.208.046-.252.121l-.119.304c-.06.12-.03.242.163.273.727.166.949.272.949.924V20.6c0 .576-.386.818-.756.894-.104.03-.223.046-.282.212l-.089.258c-.074.227.074.258.193.258h3.766c.133 0 .207-.046.252-.122l.118-.303c.06-.121.03-.242-.163-.273-.726-.166-.949-.272-.949-.924v-3.745h4.389V20.6c0 .576-.386.818-.757.894-.103.03-.222.046-.281.212l-.09.258c-.073.227.075.258.194.258h3.765c.134 0 .208-.046.252-.122l.119-.303c.06-.121.03-.242-.163-.273-.727-.166-.949-.272-.949-.924v-7.368c0-.576.385-.818.756-.894.104-.03.222-.046.282-.212l.089-.258c.074-.227-.074-.258-.193-.258h-3.766c-.133 0-.207.046-.252.121l-.118.304c-.06.12-.03.242.163.273.726.166.949.272.949.924v2.714h-4.389zm13.002 1.228c-2.402 0-4.151 1.743-4.151 4.123 0 1.804 1.334 3.82 3.765 3.82 2.565 0 4.166-1.955 4.166-4.123 0-1.955-1.408-3.82-3.78-3.82zm-.134 7.125c-.934 0-1.927-1.198-1.927-3.532 0-1.35.623-2.774 1.898-2.774 1.082 0 1.853 1.258 1.853 3.244 0 1.44-.356 3.062-1.824 3.062zm7.896-6.64c0-.318-.192-.303-.355-.303h-2.372c-.09 0-.178 0-.223.121l-.133.304c-.089.181.06.242.208.288.681.151.904.257.904.91V20.6c0 .576-.386.818-.756.894-.104.03-.223.046-.282.212l-.089.258c-.074.227.074.258.193.258h3.573c.118 0 .193-.046.222-.122l.119-.303c.044-.121.015-.242-.148-.273-.668-.166-.86-.272-.86-.924v-.864c0-2.88.89-3.942 1.927-3.942.741 0 1.156.41 1.156 2.077V20.6c0 .576-.34.818-.682.894-.089.03-.192.046-.252.212l-.089.258c-.059.227.075.258.178.258h3.558c.134 0 .208-.046.252-.122l.119-.303c.06-.121.03-.242-.163-.273-.727-.166-.949-.272-.949-.924v-3.548c0-1.804-.786-2.592-2.105-2.592-.964 0-2.239.516-2.92 1.652h-.03zm7.394 9.854c-.178.318.015.424.296.576.623.318 1.335.637 2.906.637 2.758 0 4.196-1.668 4.196-4.609v-5.26c0-.986-.4-1.061-.86-1.274-.638-.242-1.35-.409-2.343-.409-2.594 0-4.417 2.031-4.417 4.427 0 1.819 1.082 3.517 2.86 3.517 1.113 0 2.284-.85 2.758-1.971h.03v1.546c0 1.94-.8 2.956-2.283 2.956-1.512 0-2.224-.955-2.387-1.091-.193-.167-.282.106-.415.333zm4.018-9.55c1.215 0 1.408 1.076 1.408 2.364 0 2.153-1.23 3.517-2.105 3.517-.92 0-1.453-1.182-1.453-2.653 0-1.546.77-3.229 2.15-3.229zm10.753 6.973h2.505v-.5c-.296-.122-.548-.289-.978-.759-.83-.879-1.809-2.258-2.772-3.471l1.393-1.38c.608-.621 1.705-.56 1.705-1 0-.212 0-.47-.296-.47h-1.794c-.712.91-1.631 1.895-2.788 2.926v-6.185c0-.319-.192-.303-.355-.303h-2.372c-.09 0-.178 0-.223.12l-.133.304c-.09.182.06.243.207.288.682.152.905.258.905.91V20.6c0 .576-.386.818-.756.894-.104.03-.223.046-.282.212l-.089.258c-.074.227.074.258.193.258h3.573c.118 0 .192-.046.222-.122l.119-.303c.044-.121.014-.242-.149-.273-.667-.166-.86-.272-.86-.924v-2.532h.03zm7.397-7.762c-2.402 0-4.151 1.743-4.151 4.123 0 1.804 1.334 3.82 3.766 3.82 2.564 0 4.166-1.955 4.166-4.123 0-1.955-1.409-3.82-3.78-3.82zm-.133 7.125c-.934 0-1.928-1.198-1.928-3.532 0-1.35.623-2.774 1.898-2.774 1.082 0 1.853 1.258 1.853 3.244 0 1.44-.356 3.062-1.823 3.062zm7.896-6.64c0-.318-.193-.303-.356-.303h-2.372c-.09 0-.178 0-.222.121l-.134.304c-.089.181.06.242.208.288.682.151.904.257.904.91V20.6c0 .576-.385.818-.756.894-.104.03-.222.046-.282.212l-.089.258c-.074.227.074.258.193.258h3.573c.118 0 .193-.046.222-.122l.119-.303c.044-.121.015-.242-.148-.273-.668-.166-.86-.272-.86-.924v-.864c0-2.88.89-3.942 1.927-3.942.741 0 1.156.41 1.156 2.077V20.6c0 .576-.34.818-.682.894-.089.03-.192.046-.252.212l-.089.258c-.059.227.075.258.178.258h3.558c.134 0 .208-.046.252-.122l.119-.303c.06-.121.03-.242-.163-.273-.726-.166-.949-.272-.949-.924v-3.548c0-1.804-.786-2.592-2.105-2.592-.964 0-2.239.516-2.92 1.652h-.03zm7.393 9.854c-.178.318.015.424.297.576.622.318 1.334.637 2.905.637 2.758 0 4.196-1.668 4.196-4.609v-5.26c0-.986-.4-1.061-.86-1.274-.637-.242-1.35-.409-2.342-.409-2.595 0-4.418 2.031-4.418 4.427 0 1.819 1.082 3.517 2.86 3.517 1.113 0 2.284-.85 2.758-1.971h.03v1.546c0 1.94-.8 2.956-2.283 2.956-1.512 0-2.224-.955-2.387-1.091-.193-.167-.282.106-.415.333zm4.018-9.55c1.215 0 1.408 1.076 1.408 2.364 0 2.153-1.23 3.517-2.105 3.517-.92 0-1.453-1.182-1.453-2.653 0-1.546.77-3.229 2.15-3.229zM45.114 4.77h-.822V3.38q-1.481 1.192-3.99 2.067l-.33-.835q2.386-.715 4.032-1.908h-3.497v-.755h3.785v-.914q-1.563.08-3.126.119l-.083-.676Q44.621.357 47.46.04l.493.676q.33.397-.37.159-1.398.08-2.468.119v.954h3.784v.755h-3.372q1.563 1.153 3.825 1.829l-.33.835q-2.303-.716-3.907-2.107zm1.687 4.015h-4.114v.358h-.822V5.128h5.758v3.896h-.822zm0-2.226v-.676h-4.114v.676zm0 1.47v-.715h-4.114v.716zm11.064.2q.37 0 .453-.279l.205-.596.823.318-.123.437q-.247.875-.946.875h-3.25q-.7 0-.7-.716V6.241h2.716v-.636h-2.715q-.576.557-1.44 1.113l-.329-.874q1.604-.915 2.263-2.147h-1.975v-.755h1.81v-.954h-1.44v-.756h1.44V.04h.782q.329.04.04.238v.954h1.276V.04h.781q.33.04.041.238v.954h1.646v.756h-1.646v.954h2.098v.755h-1.933q.617 1.034 2.221 1.789l-.411.835q-1.11-.517-1.687-1.193v2.027h-.822v-.159H55.15v.915q0 .318.288.318zM51.572.398q.946.556 1.316.993l-.617.795q-.493-.477-1.316-1.073zm-1.11 7.95q.822-1.391 1.233-3.021l.7.437q-.288 1.47-.946 2.981.082.597-.288.239zm.74-5.605q1.028.596 1.316.994l-.576.834q-.452-.477-1.316-1.073zm4.278-.755v.954h1.275v-.954zm.205 1.709q-.288.596-.781 1.153h2.715q-.535-.597-.74-1.153zm12.422.318h2.18v.755h-2.18v.875h1.275v.636h-3.249v.676h3.908v.755h-3.908v1.431h-.823V7.712h-3.866v-.755h3.866V6.28h-3.25v-.636h1.276V4.77h-2.18v-.755h2.18V3.18h-1.275v-.636h7.321v.636h-1.275zm-3.948 1.63h1.151V4.77h-1.15zm1.974 0h1.152V4.77h-1.152zm0-2.465v.835h1.152V3.18zm-1.974.835h1.151V3.18h-1.15zM63.747.04h.782q.329.04.04.238v.636h2.14V.04h.781q.33.04.041.238v.636h2.592v.756H67.53v.516h-.822V1.67h-2.14v.516h-.822V1.67h-2.509V.914h2.51zm15.137 8.586q-1.85-1.073-2.468-3.498h-2.674v2.504l2.962-.715.123.755-4.36 1.193q-.04.318-.205.159l-.288-1.074.946-.159V.477h6.787v2.942h-.823V3.18h-1.933q.082.557.164 1.193h3.702v.755H77.28q.617 1.988 2.098 2.743.534.278.617-.278l.082-.517.905.318-.165.755q-.329 1.431-1.933.477zm-5.142-4.253h2.51l-.165-1.193h-2.345zm5.142-1.948V1.232h-5.142v1.193zm6.334 2.544l-1.645.08v1.47q0 1.431-.905 2.584l-.617-.477q.823-.954.823-2.146V5.088l-.576.04q-.041.358-.206.08l-.164-.835h.946v-3.26h.905L84.026.04l.822.08q.288.158-.082.198l-.247.795h1.399v3.14l.822-.04v.637l-.822.04v3.697q0 .556-.535.556h-.782l-.123-.755h.576q.164 0 .164-.16zm4.196-.954h-1.357V6.36q0 1.63-1.317 2.703l-.617-.675q1.11-.795 1.11-2.187V3.26h3.004v4.65q0 .319.329.319.246 0 .246-.239l.083-.835.822.12-.123 1.033q-.082.676-.7.676h-.74q-.74 0-.74-.716zM84.026 7.99V5.367h.699q.247.04 0 .198V7.99zm.205-4.015q-.164-.795-.411-1.59l.7-.199q.37.915.493 1.55zm.987-2.226h-1.645v2.584l1.645-.04zm1.276.596V1.59h1.85V0h.782q.33.04.041.239V1.59h2.098v.755zm14.807 1.233q-.288 1.033-1.07 1.033H98.67q-.782 0-.782-.755V1.908h-1.316v.477q0 1.789-2.715 2.703l-.411-.755q2.303-.676 2.303-1.948v-.477h-1.892V3.26h-.946V1.153h3.949V.04h.905q.329.04.041.238v.875h3.949V3.02h-.946V1.908H98.71v1.67q0 .278.37.278h.905q.411 0 .535-.596zm.617 4.452v.874h-9.131V8.03H96.9V6.32h-3.126v-.874h7.075v.875h-3.126V8.03z" fill="#e4001c"/></svg>