<svg width="123" height="88.084" viewBox="0 0 32.545 23.306" xmlns="http://www.w3.org/2000/svg"><g stroke-width=".265"><path d="M21.082 9.118a4.985 4.985 0 01-4.726 3.42c-2.744 0-4.977-2.233-4.977-4.977s2.233-4.977 4.977-4.977c.836 0 1.623.208 2.315.573l.179-.156a5.166 5.166 0 00-2.494-.639 5.204 5.204 0 00-5.198 5.2 5.204 5.204 0 005.198 5.197 5.208 5.208 0 004.964-3.653z" fill="#036"/><path d="M13.032 9.168c3.002-.277 5.975-.737 8.907-1.475l-.137.607c-3.75.855-6.365.934-8.77.868" fill="#00b2e2"/><path d="M13.502 8.868a52.219 52.219 0 008.645-2.141l-.139.622c-3.279 1.03-6.074 1.49-8.506 1.519" fill="#00b2e2"/><path d="M13.962 8.548c2.757-.688 5.564-1.65 8.406-2.802l-.14.626c-3.01 1.182-5.795 1.96-8.266 2.176" fill="#57c8e7"/><path d="M14.422 8.178c2.78-.845 5.514-2.116 8.22-3.638l-.171.767c-3.241 1.61-5.987 2.64-8.049 2.87" fill="#98dae9"/><path d="M15.012 7.778a57.622 57.622 0 007.947-4.662l-.19.845c-2.592 1.655-5.18 3.026-7.757 3.817" fill="#57c8e7"/><path d="M15.472 7.288c3.07-1.94 5.733-3.915 7.886-5.93l-.231 1.032c-2.547 2.198-5.154 3.711-7.655 4.898m8.06-7.16l-.868.022a38.1 38.1 0 01-3.245 3.486c-1.18 1.123-2.365 2.131-3.551 3.123 2.598-1.754 5.177-3.718 7.664-6.631m-23.4 21.94h7.075v.187H.132zm25.15 0h7.128v.187h-7.128z" fill="#00b2e2"/><path d="M1.922 16.798l-.835 1.665h1.666zm-.994 1.998l-.428.836c-.095.196-.444.058-.349-.153l1.597-3.147c.032-.069.106-.1.174-.1.07 0 .133.031.17.1l1.591 3.131c.138.227-.253.36-.354.153l-.412-.82H.928zm3.724.552H6.91c.249 0 .254.362 0 .378H4.298c-.206 0-.27-.17-.153-.318l2.37-2.814H4.371c-.232 0-.238-.346 0-.362H6.89c.217 0 .275.17.154.329zm3.37.01h2.09c.221 0 .253.362 0 .362H7.883a.235.235 0 01-.243-.241v-3.017c0-.126.096-.236.243-.236h2.232c.228 0 .217.351-.005.351H8.023v1.237h1.988c.212 0 .222.352 0 .352H8.023zm3.39-1.23h1.069c.693 0 .994-.331.983-.737-.005-.445-.37-.802-.983-.802h-1.069zm0 .341v1.051c0 .25-.385.25-.385.006v-3.11c0-.115.079-.19.195-.19h1.253c.915 0 1.38.53 1.38 1.165 0 .547-.29.943-.94 1.056l.856.949c.201.206-.09.444-.264.26l-1.068-1.187h-1.027zm3.48.899h1.185c.465 0 .978-.127.978-.682 0-.434-.36-.62-.82-.62h-1.343zm0-2.78v1.12h1.079c.455 0 .851-.126.851-.527 0-.473-.54-.594-.867-.594zm1.185 3.136h-1.375a.198.198 0 01-.196-.197v-3.1c0-.109.09-.197.196-.197h1.253c.492 0 1.254.17 1.254.95 0 .286-.133.54-.408.654.386.127.65.407.65.852 0 .819-.708 1.038-1.374 1.038zm3.435-2.926l-.835 1.665h1.666zm-.994 1.998l-.428.836c-.095.196-.444.058-.35-.153l1.598-3.147c.032-.069.105-.1.174-.1.07 0 .132.031.17.1l1.592 3.131c.137.227-.254.36-.355.153l-.412-.82h-1.989zm3.264-2.368c0-.261.397-.256.397 0v3.12c0 .24-.397.25-.397 0zm3.01.16h-1.015a.179.179 0 010-.356h1.19a.2.2 0 01.19.178v2.065c.005.728-.666 1.256-1.364 1.256-.672 0-1.216-.485-1.253-1.132-.016-.248.37-.297.39-.006.033.49.418.777.863.777.513 0 1-.383 1-.895zm2.47.21l-.835 1.665h1.666zm-.994 1.998l-.428.836c-.095.196-.444.058-.349-.153l1.597-3.147c.032-.069.106-.1.174-.1.07 0 .133.031.17.1l1.592 3.131c.137.227-.254.36-.355.153l-.412-.82h-1.989zm5.684-2.378c0-.225.402-.235.402 0v3.063c0 .267-.365.293-.476.106l-1.977-2.673.042.736v1.884c0 .262-.402.267-.402 0v-3.058c0-.266.296-.31.428-.111l2.036 2.748-.053-.806v-1.89zm-22.35 4.69l-.578 1.165h1.153zm-.688 1.398l-.296.584c-.066.137-.307.041-.242-.107l1.105-2.2c.022-.049.073-.071.121-.071s.092.022.118.07l1.101 2.19c.095.16-.176.251-.245.107l-.286-.573zm2.258-1.658c0-.183.275-.18.275 0v2.188c0 .169-.275.176-.275 0zm1.09 1.2h.74c.479 0 .687-.231.68-.515-.004-.312-.256-.562-.68-.562h-.74zm0 .238v.736c0 .174-.267.174-.267.004V20.85c0-.08.055-.133.136-.133h.867c.633 0 .955.372.955.816 0 .382-.202.659-.652.739l.593.663c.14.144-.062.31-.183.182l-.74-.83zm2.28.872c-.099 0-.139-.05-.139-.14v-2.173c0-.178.271-.178.271 0v2.063h1.369c.187 0 .187.25 0 .25zm1.94-2.31c0-.183.275-.18.275 0v2.188c0 .169-.275.176-.275 0zm2.48-.01c0-.158.278-.166.278 0v2.152c0 .187-.252.205-.329.075l-1.368-1.88.028.518v1.324c0 .184-.278.187-.278 0v-2.149c0-.187.205-.217.297-.078l1.409 1.93-.037-.566v-1.326zm1.14 2.07h1.446c.153 0 .175.253 0 .253h-1.541a.163.163 0 01-.168-.169V20.88c0-.088.066-.165.168-.165h1.544c.158 0 .15.246-.004.246h-1.445v.866h1.376c.146 0 .154.246 0 .246h-1.376zm2.15-.38c.095.305.502.371.794.371.311 0 .794-.095.794-.467 0-.32-.384-.346-.787-.38-.504-.04-1.046-.087-1.046-.636 0-.485.556-.702 1.003-.702.384 0 .863.092 1.017.511.055.148-.194.214-.249.089-.11-.28-.501-.327-.765-.327-.245 0-.72.099-.72.433 0 .32.365.354.79.387.501.044 1.04.07 1.04.622 0 .563-.627.735-1.077.735-.373 0-.944-.128-1.064-.57-.045-.162.241-.217.27-.066" fill="#036"/></g></svg>