<svg width="290.32" height="75.492" version="1.0" viewBox="0 0 1935.5 511.99" xmlns="http://www.w3.org/2000/svg"><path d="M724.361 2.301c3.17-2.46 7.38-2.07 11.16-2.16 30.32.13 60.64-.4 90.96.03-2.17 4.71-5.06 9.02-7.91 13.34-31.27 48.46-62.52 96.93-93.69 145.45-1.54.16-3.04.35-4.55.49-25.63 1.62-51.22 3.91-76.88 5.06-8.65.4-17.27 1.24-25.93 1.51-32.07.67-64.12 4.13-95.5 10.81-7.98 1.8-16.11 3.2-23.74 6.27l-.54 5.9c42.29 3.38 84.95-.31 126.46-8.74 21.43-4.15 43.03-7.31 64.51-11.19 10.4-1.61 20.69-4.09 31.21-4.85-.06.63-.19 1.87-.25 2.5-9.95 16.3-20.92 32.01-30.83 48.36l.63.43c-2.12 0-4.24.06-6.35.04-20.1-2.11-39.8-6.84-59.65-10.49-41.02-9.21-83.2-12.4-125.18-11.62-.46 1.72-.92 3.45-1.37 5.18 9.61 4.45 19.98 6.82 30.2 9.44 19.85 5.03 40.13 8.25 60.52 10.08 29.1 2.11 58.33 2.06 87.42 4.49 2.15.19 4.29.27 6.47.38.2 1.04.18 2.07-.07 3.1-7.65 12.4-15.92 24.4-23.45 36.87-14.62-5.74-29.1-11.87-43.16-18.88-12.74-6.08-25.44-12.33-38.77-17.01-26.36-9.07-52.82-18.38-80.37-23.12-.49 1.91-.97 3.83-1.45 5.75 28.13 17.25 58.15 31.62 89.74 41.31 12.81 3.7 25.82 6.71 38.64 10.39 9.46 2.76 19.15 4.78 28.4 8.21.52.22 1.55.65 2.07.87-8.15 11.9-15.65 24.23-23.72 36.19-13.63-9.22-26.3-19.75-38.94-30.27-6.71-5.57-13.07-11.59-20.21-16.62-25.15-17.83-51.68-33.88-79.86-46.47-1.02 1.62-2.05 3.23-3.06 4.85 23.23 24.7 49.82 46.44 79.45 63.03 19.62 10.14 38.66 21.34 57.62 32.64-5.31 8.65-10.58 18.14-10.23 28.61.45 9.75 7.36 17.91 15.33 22.88 8 5.57 17.28 8.77 26.15 12.63-13.21-.23-26.41-.67-39.6-1.3-10.31-13.22-21.43-25.79-31.42-39.25-12.07-15.66-23.25-31.98-34.9-47.95-11.06-14.81-23.71-28.33-36.84-41.3-9.87-9.55-19.31-19.67-30.74-27.4-1.09 1.56-2.23 3.1-3.09 4.81 1.27 5.17 4.97 9.28 7.49 13.87 16.87 28.42 37.41 54.82 62.13 76.87 13.54 11.39 25.33 24.63 37.97 36.98 7.43 7.79 15.79 14.75 22.28 23.39-21.71-.89-43.42.51-65.1 1.41-.77-1.68-1.54-3.34-2.28-5.01-6.62-16.21-12.73-32.64-18.19-49.27-6.82-19.64-15.11-38.78-25.02-57.06-7.22-13.5-15.75-26.24-24.13-39.04-2.13.44-4.25.89-6.36 1.34.89 8.31 3.17 16.36 5.37 24.4 6.82 24.23 16.08 47.85 28.52 69.77 6.31 10.9 14.3 20.78 19.76 32.19 3.57 7.57 8.79 14.38 11.28 22.45 3.59.97 7.35.6 11.02.92-6.06 1.3-12.34-.26-18.43.91-12.23.78-24.35 2.65-36.55 3.77-1.3.04-2.58.07-3.87.1-3.19-23.25-1.49-46.8-4.3-70.08-2.11-19.24-6.09-38.22-10.82-56.97-2.18-8.3-4.68-16.51-6.64-24.87-2.67-.04-5.34-.09-8-.13-1.6 31.64-2.22 63.83 5.24 94.84 2.5 11.04 7 21.5 9.41 32.56 1.66 7.68 3.98 15.26 4.76 23.11.03.98.11 2.94.15 3.92a242.787 242.787 0 00-30.73 5.76c-6.55 1.62-12.93 3.85-19.56 5.12 4.11-22 9.35-43.79 15.31-65.36 4.52-15.34 6.52-31.26 8.26-47.1 1.8-17.6 2.54-35.29 2.48-52.97-2.31.1-4.6.21-6.9.31-7.8 19.37-14.06 39.38-18.16 59.87-6.03 27.91-5.32 56.59-7.42 84.92-.65 7.17-.59 14.43-1.9 21.54l-.48 1.79c-14.89 4.79-30 10.53-42.04 20.82-6.53 5.44-10.88 14.45-8.54 22.97 2.86 8.63 9.58 15.31 16.73 20.6 13.75 10 29.51 16.83 45.49 22.41 22.04 7.44 45.06 11.89 68.26 13.51 20.4 1.64 40.89 2.41 61.36 1.8-25.47 5.5-51.43 8.72-77.46 9.81-38.97 1.56-78.75-4.44-114.33-20.87-19.1-9.55-37.19-21.01-54.6-33.34-15.11-10.95-30.11-22.04-45.37-32.76-17.26-10.93-35.4-20.41-53.88-29.1-32.71-15.02-67.43-25.23-102.59-32.69-41.45-8.65-83.54-13.68-125.42-19.74 3.73-.7 7.53-.89 11.32-.77 77.4 1.23 155.17-4.6 230.91-21.11 5.84-1.34 11.92-1.95 17.44-4.43 11.1-5.12 22.08-10.5 32.89-16.22 4.03-2.26 8.01-4.7 12.44-6.13-4.34 4.38-9.87 7.26-14.65 11.11-5.94 4.7-11.92 9.37-18.07 13.81-11.96 8.67-23.54 17.86-35.38 26.69-5.65 4.34-11.57 8.36-16.77 13.26 8.04-4.13 15.59-9.12 23.34-13.75 27.62-16.62 54.33-34.74 82.43-50.57 20.62-11.95 42.22-22.36 61.33-36.74 16.63-12.42 32.8-25.55 47.76-39.97-1.06-1.42-2.1-2.84-3.15-4.25 23.67-15.55 47.11-31.46 70.67-47.17 2.85.89 5.98 2.39 8.91.85 28.92-12.64 56.4-28.58 81.65-47.53 30.96-23.74 61.49-48.06 93.04-71.03 11.39-9 23.55-16.99 34.72-26.26-11.52 5.78-22.29 12.95-33.19 19.8-2.47 1.48-5.28 2.18-8.01 2.94 2.22-2.09 4.63-3.97 7.15-5.69 18.14-12.55 36.25-25.14 54.33-37.79m-4.77 91.23c-19.87 6.58-39.7 13.31-59.68 19.55-19.33 6.05-38.63 12.26-58.32 17.06-37.5 9.19-73.4 24.2-107.27 42.62.42 1.98.83 3.96 1.26 5.95 13.21-1.32 26.14-4.56 39.04-7.62 33.49-8.41 66-20.8 96.53-36.93 15.24-6.9 30.77-13.12 46.2-19.57 19.37-7.89 38.52-16.32 57.9-24.19 3.38-1.49 7.37-2.24 9.71-5.38-8.39 3.02-16.83 5.91-25.37 8.51m-299.27 129.77c-18.17 14.67-36.47 29.48-51.74 47.25-11.3 11.92-20.58 25.52-30.33 38.69-11.74 16.79-24.79 32.59-36.95 49.06-12.58 16.66-25.87 32.78-38.14 49.67 7.44-5.85 12.69-13.83 19.27-20.54 14.58-15.4 29.77-30.22 44.28-45.7 14.51-13.47 28.31-27.68 42.59-41.4 6.77-5.96 12.47-12.97 18.37-19.76 10.29-12.18 19.95-24.91 28.74-38.22 3.64-5.63 7.83-10.92 10.88-16.92-1.8-1.69-4.51-4.36-6.97-2.13m12.31 4.08c-6.26 6.66-11.02 14.55-16.28 21.99-11.1 17.21-21.86 34.89-28.89 54.21-11 28.51-21.93 57.05-33.28 85.42-7.33 19.06-15.45 37.82-22.33 57.05 3.67-5.12 6.24-10.86 9.03-16.47 6.76-13.1 13.93-25.98 20.9-38.97 10.73-19.51 21.16-39.18 32.59-58.29 19.42-32.2 35.39-66.83 44.25-103.48-2.01-.49-4-.97-5.99-1.46zm945.27 57.11c16.06-.32 32.13-.19 48.2-.2-2.34 4.1-4.41 8.79-8.45 11.47-15.51.39-31.05.21-46.57.02 2.03-3.9 4.41-7.6 6.82-11.29zm82.9 8.24c7.45-5.32 16.55-8.29 25.72-8.3 49.67-.05 99.35.01 149.03.12 6.02.11 13.2 1.11 16.48 6.89-2.16 3.95-4.59 7.73-7.05 11.49 5.49.11 10.99.16 16.49.29-2.44 4.35-5.18 8.53-7.87 12.72-5.38.2-10.82-.43-16.14.48-5.97 4.75-7.23 15.24-15.96 16.33-19.3.8-38.64-.14-57.94.54-4.37.16-9.95 2.1-10.1 7.26 15.59 1.94 31.37-.7 46.95 1.5 3.82.64 7.96 1.06 11.16 3.49 2.35 1.76 4.11 4.91 3.14 7.88-1.4 4.6-4.28 8.53-6.61 12.67-2.97 4.86-5.44 10.28-9.99 13.91-4.43 3.43-10.31 3.62-15.66 3.69-29.66-.05-59.31.07-88.97-.09-4.05-.26-9.29-.45-11.57-4.42-2.18-4.34 1.78-8.18 3.74-11.73 1.84-2.49 3.07-6.77 6.85-6.61 15.83-.05 31.67-.25 47.51.12-1.88 3.57-3.61 7.22-5.14 10.95 5.11.84 11.37 2.46 15.7-1.37 3.75-4.45 7.2-9.57 7.84-15.51-7.74-2.38-15.9-1.13-23.84-1.42-10-.27-20.31 1.12-29.99-2.04-4.1-1.08-6.84-5.94-5.2-9.94 2.16-5.45 5.69-10.32 9.92-14.35 3.96-3.93 9.88-4.31 15.15-4.46 19.15.01 38.3-.08 57.45-.13.94-1.84 1.88-3.68 2.8-5.52-14.04-.87-28.1-.32-42.16-.42-16.08-.05-32.17-.09-48.26.14-12.86 20.86-25.92 41.6-38.59 62.59-1.31 2.18-3.19 4.73-6.1 4.24-15.82-.35-31.66.54-47.45-.52 1.52-4.2 4.26-7.78 6.61-11.54 11.78-18.59 23.57-37.18 35.37-55.76-4.26-.06-8.51-.12-12.74-.26 1.88-4.47 4.4-8.62 6.92-12.76 4.15.06 8.31.1 12.48-.03 3.27-3.43 6.08-7.38 10.02-10.12m41.07 10.18c30.12.05 60.24.22 90.35.11 1.1-2.07 2.21-4.15 3.3-6.23-8.44-2.52-17.3-1.64-25.97-1.78-17.35.05-34.69-.08-52.03.06-6.15.06-11.45 3.66-15.65 7.84zm-581.77 4.07c6.51-3.6 14.12-4.05 21.42-4.07 25.31-.08 50.62-.01 75.93.09 4.9-.02 10.06.56 14.3 3.24 2.5 1.6 4.46 4.87 3.28 7.86-1.9 5.13-4.86 9.78-7 14.81-3.16 7.16-9.31 12.64-16.43 15.71.98 3.12 2.36 6.61.92 9.82-2.58 5.51-6.17 10.47-9.42 15.59-2.26 3.65-5.14 7.12-9.16 8.89-6.02 3.04-12.91 2.48-19.43 2.49-29.67.02-59.34-.06-89.01.1-3.05-.01-6.46-.02-8.89-2.14-1.58-1.25-2.14-3.46-1.49-5.34 1.57-5.41 4.85-10.08 8-14.68 17.33-.09 34.66-.13 51.99-.13-1.4 3.04-3.29 5.95-3.78 9.32 1.68 2.18 4.72 2.04 7.2 2.32 5.05.33 11.21-.52 13.95-5.37 2.44-4.24 5.37-8.32 6.88-13.01-.03-2.94-3.22-4.3-5.69-4.7-6.66-.84-13.39-.28-20.07-.45 1.83-3.63 3.87-7.16 5.96-10.65 8.88-1.06 17.91.02 26.77-1.31 7.61-2.48 10.74-10.62 14.63-16.88-3.84-3.77-9.58-2.76-14.42-2.42-4.39 1.59-6.23 6.45-9.18 9.72-17.58.52-35.15.21-52.73.15 4.18-6.96 7.83-15.13 15.47-18.96zm375.5-4.12c42.84.41 85.68-.23 128.53.38-2.09 4.56-4.88 8.73-7.83 12.76-2.96-.05-5.92 0-8.85.14-3.92 4.07-5.89 9.53-9.68 13.68-2.55 2.93-6.7 3.09-10.3 3.24-17.66.11-35.33-.14-52.98.16-4.88.01-10.03 2.57-11.22 7.64 14.74.78 29.5-.04 44.24.64 6.11.23 11.9 2.61 17.03 5.83.22 3.16.77 6.58-.84 9.49-3 5.55-6.33 10.92-9.58 16.33-2.02 3.53-4.75 6.82-8.53 8.52-5.27 2.69-11.36 1.81-17.05 1.94-18.77.16-37.54-.08-56.31.24-2.34 4.37-5.09 10.07-10.7 10.48-11.26.3-22.54.11-33.8.11.21-3.47 1.07-6.88 2.78-9.92-.95-1.97-2.48-3.83-2.55-6.09 1.98-4.3 5.05-7.98 7.36-12.11 1.55-2.25 2.74-5.87 6.12-5.5 15.01.02 30.03-.28 45.04.22-1.78 3.69-3.38 7.49-4.29 11.51 5.11.15 10.27.68 15.36-.1 2-.16 3.2-1.99 4.43-3.36 2.48-3.33 4.77-6.89 6.23-10.79.62-2.69-2.31-4.55-4.68-4.48-18.2-1.18-36.75 1.89-54.64-2.74-.12-2.77-.92-5.87.85-8.3 3.12-4.89 6.23-9.79 9.45-14.61 3.07-4.66 9.16-5.33 14.28-5.42 19.55-.02 39.1.02 58.65-.01.88-1.86 1.77-3.71 2.67-5.56-22.51-1.14-45.05.07-67.57-.67 2.26-4.85 5.12-9.4 8.38-13.65zm-558.88.351c54.84-.06 109.68-.25 164.52.08-1.54 4.16-3.47 8.17-5.97 11.84-4.89.61-9.82.48-14.72.6-5.9 10.56-12.55 20.65-18.83 30.98-4.6 8.54-12.58 17.03-23.15 16.19-17.59-.06-35.18.07-52.77-.18 1.42-2.77 2.34-6.07 4.86-8.07 3.03-1.14 6.57-.9 9.3-2.79 2.37-2.02 3.73-4.92 5.35-7.52 5.51-9.64 12.05-18.67 16.98-28.64-7.77-.16-15.53-.15-23.29.03-7.87 13.82-15.73 27.66-23.75 41.41-2.13 3.53-4.09 7.99-2.29 12.05 1.41 1.48 3.64 1.44 5.55 1.59 23.32.3 46.65-.18 69.97.35 3.11.04 7.2 1.77 7.33 5.35-1.41 5.47-4.52 10.31-6.63 15.52-17.61-.15-35.21 0-52.82.02 1.41-3.56 2.25-7.32 2.48-11.14-3.11-.38-6.22-.69-9.34-.71-20.33.07-40.67.07-61-.04-4.79-.06-10.13-1.61-12.84-5.84-2.39-4.27-.79-9.4 1.36-13.42 7.79-15.14 17.11-29.45 24.52-44.78-4.62-.19-9.24-.24-13.86-.22 2.69-4.44 5.32-8.98 9.04-12.66zm319.28.539c12.14-.84 24.3-.29 36.46-.47 14.09.19 28.2-.37 42.28.48-2.22 3.82-4.7 7.48-7.23 11.1-4.88.11-9.81-.22-14.59.88-4.54 6.67-8.14 13.9-12.42 20.73-6.88 11.23-13.73 22.48-20.14 33.98-2.45 4.68-5.1 9.33-8.86 13.11-17.37.17-34.74.13-52.11-.04 3.02-6.72 7.56-12.58 10.97-19.08 2.78-5.48 7.23-10.21 8.38-16.42-5.28-.72-10.6-.75-15.91-.61 1.6-3.78 3.61-7.35 5.79-10.82 6.33-.08 12.68-.11 19-.82 4.33-6.63 8.79-13.2 12.28-20.33-3.27-.27-6.53-.49-9.8-.66 1.73-3.8 3.75-7.45 5.9-11.03zm110-.229c15.17-.43 30.35-.17 45.53-.24 11.1.08 22.21-.27 33.29.41-2.59 3.76-4.73 7.96-8.21 11-4.94 1.35-11.31-1.66-15.28 2.58-6.13 7.95-10.94 16.88-17.62 24.4-4.11 4.45-10.3 6.32-16.23 6.03-3.87 5.4-7.72 10.81-11.52 16.26-1.51 1.93-2.03 4.32-1.83 6.73 7.73 1.14 15.56.34 23.33.88-1.51 3.35-2.63 6.98-4.99 9.85-8.25 1.02-16.63.22-24.93.43-11.99-.11-23.99.03-35.98-.06-3.26-.21-7.03-.26-9.44-2.78-2.67-3.85-2.32-9.17-.27-13.21 3.04-5.84 7.42-10.93 9.79-17.13-3.24-1.75-6.95-1.35-10.47-1.26 1.42-3.85 3.48-7.42 5.7-10.86 8.22-.22 16.52.24 24.68-1.03 3.81-.47 6.32-3.7 8.51-6.53 3.28-4.52 6.71-8.93 10.05-13.41-3.51-.32-7.03-.57-10.54-.76 2.04-3.82 4.21-7.58 6.43-11.3zm525.7 10.62c1.96-3.82 3.9-7.69 6.76-10.93 81.66-.11 163.32-.08 244.98-.07 2.91.1 5.81.28 8.75.43-2.28 3.68-4.56 7.36-6.5 11.23-5.93 1.21-14.04-.89-17.74 5.24-12.8 20.99-25.6 41.98-38.28 63.04-5.03.95-10.14.59-15.2.59-12.19-.11-24.37.24-36.55-.26 8.93-16.41 19.05-32.13 28.06-48.5 3.32-6.17 8.87-11.67 8.61-19.18-6.76-.21-13.53-.58-20.27-.08-4.36.21-6.92 4.32-9.08 7.58-11.38 18.61-22.73 37.25-34.07 55.89-1.39 2.02-2.74 5.06-5.72 4.55-16.15-.04-32.31.17-48.45-.21 2.56-5.43 6.24-10.29 8.3-15.98-3.23-2.99-7.73-3.07-11.85-3.07h-86c-6.71.06-13.73-.81-19.54-4.39-2.8-1.78-4.01-5.29-3.74-8.47.28-5.04 3.53-9.14 5.76-13.46 2.26-4.11 5.45-8.83 10.61-9.18 16.96-.73 33.95.58 50.91-.33 5.76.06 11.29-5.09 11.68-10.68-3.58-2.8-8.36-2.39-12.62-2.43-5.69.14-11.5-.6-17.05 1.03-.61-.79-1.19-1.58-1.76-2.36m87.41 1.59c-4.2 6.26-7.28 13.37-12.65 18.79-3.33 3.5-8.3 4.64-12.96 4.72-15.02.12-30.06-.44-45.07.19-4.65-.07-7.82 5.77-5.53 9.72 1.92 2.64 5.32 3.81 8.52 3.68 18-.06 36 .04 54-.05 4.69-.07 10.24-1.07 12.83-5.47 3.77-6.29 7.38-12.69 11.05-19.05 2.08-3.98 5.27-7.89 4.38-12.68-4.86-.18-9.73-.32-14.57.15zM710.931 434.941c3.42-.95 7.04-.54 10.55-.6 29.34-.02 58.67.14 88.01.05 5.08-.1 10.18-.06 15.26.35-2.43 9.11-6.02 17.86-8.89 26.83-5.38 15.79-10.47 31.69-16.03 47.42-.45 2.66-3.3 2.09-5.3 2.21-19.67.01-39.33.23-58.99-.25 1.26-3.64 2.42-7.32 3.47-11.02-8.86-.11-17.72-.31-26.57-.11-8.81-.74-11.17 11.85-19.91 11.36-18.42.03-36.83.27-55.24-.2 3.87-5.61 8.96-10.18 13.61-15.1 17.24-17.76 34.51-35.47 51.72-53.24 2.67-2.67 5.11-5.65 8.31-7.7m17.58 45.2c6.55.62 13.16.69 19.72.05 3.69-10.48 9.04-20.31 12.28-30.96-10.71 10.26-21.56 20.38-32 30.91zm132.14-45.119c23.51-.15 47.02-.28 70.53.02-15.95 25.57-32.09 51.01-48.53 76.27-23.3-.26-46.61.08-69.9-.25 6.78-12.42 14.99-23.98 22.41-36.01 8.34-13.44 17.29-26.5 25.49-40.03zm94.53 0c43.79-.3 87.58 0 131.37-.24 6.59-.39 15.18 3.12 15.5 10.68-.46 7.92-6 14.12-9.82 20.69-4.53 6.94-8.04 15.1-15.29 19.71-4.23 2.98-9.51 3.48-14.46 4.3 6.86 6.72 14.14 13.09 20.01 20.75-21.68.6-43.35.23-65.03.32-1.82 0-3.94.07-5.11-1.6-6.78-7.98-12.73-16.62-18.81-25.13-6.31 8.38-10.68 18-16.82 26.49-23.13.47-46.3.22-69.44.05 15.08-25.89 32.27-50.47 47.9-76.02m53.71 22.57c-2.76 5.28-5.72 10.46-8.27 15.85 7.1-.09 15.1 1.71 21.42-2.43 3-2.85 6.83-6.73 5.56-11.24-5.34-4.22-12.53-1.78-18.71-2.18zm177.51-20.181c1.26-2.82 4.42-3.25 7.18-3.1 21.37.27 42.74-.29 64.11.39-10.99 17.92-22.32 35.63-33.5 53.43-5.11 7.56-9.35 15.7-14.91 22.95-23.32.13-46.65.32-69.97-.01 14.98-25 31.45-49.08 47.09-73.66zm91.4 1.37c1.37-1.98 2.79-4.69 5.66-4.35 18.66-.19 37.34-.04 56.01-.07 2.06.23 5.01-.29 6.15 1.96 5.63 9.11 10.89 18.47 16.96 27.31 6.45-8.86 11.52-18.64 17.62-27.74 1.34-2 4.21-1.3 6.29-1.56 18.33.22 36.68-.26 55.01.33-16.14 25.73-33.08 50.94-49.17 76.7-19.76-.24-39.53.04-59.28-.07-6.8-10.63-13.76-21.15-20.65-31.71-6.59 10.85-13.8 21.3-20.89 31.83-19.16-.24-38.31-.13-57.46-.09 2.88-6.85 7.41-12.8 11.08-19.22 10.71-17.89 21.94-35.45 32.67-53.32zm189.1-3.99c9.17-1.05 18.42-.1 27.63-.38 32.98.07 65.96-.11 98.95-.04 7.34.26 14.97.27 21.92 2.99 2.92 1.01 5.47 3.9 4.99 7.15-.6 3.49-2.78 6.4-4.51 9.4-7.52 12.45-15.01 24.92-22.49 37.4-6.14 12.06-19.25 20.21-32.84 19.91-47.38.07-94.76.14-142.14-.23 3.75-7.55 8.81-14.33 13.16-21.53 11.7-18.27 23.28-36.62 35.33-54.67m56.17 23.08c-3.25 5.53-6.32 11.17-9.41 16.79-3.4 6.5-7.49 12.67-10.17 19.54 6.02.16 12.82 1.25 18.03-2.55 6.1-3.98 8.8-10.99 11.96-17.2 2.41-4.76 6.22-9.68 4.48-15.33-4.71-2.06-9.91-1.79-14.89-1.25zm126.13-17.71c1.72-2.59 3.55-6.3 7.28-5.82 22.05.18 44.1-.28 66.15.35-4.81 9.53-11.13 18.16-16.85 27.14-8.84 14.62-18.46 28.76-27.47 43.28-1.32 2.1-2.8 4.08-4.32 6.04-23.3.04-46.6.27-69.89-.14 14.34-24.05 30.58-46.9 45.1-70.85zm114.3-3.57c1.87-1.78 4.48-2.34 7.01-2.26 26.98.03 53.96.01 80.94.02 9.06.08 18.13-.26 27.18.41-7.87 25.74-16.77 51.17-25.25 76.72-21.31-.02-42.62-.21-63.93-.13 1.44-3.74 2.78-7.51 4.01-11.33-10.17-.14-20.37-.55-30.52.11-5.24 2.32-8.12 7.7-12.59 11.03-19.87.25-39.77.11-59.64.06 3.82-6.21 9.77-10.62 14.64-15.95 19.37-19.57 38.88-39.02 58.15-58.68m19.29 43.61c6.45.2 12.91.47 19.38.08 4.4-10.33 8.85-20.65 13.26-30.97-11.4 9.74-21.93 20.42-32.64 30.89z" fill="#c5012d"/><path d="M670.891 42.841c10.9-6.85 21.67-14.02 33.19-19.8-11.17 9.27-23.33 17.26-34.72 26.26-31.55 22.97-62.08 47.29-93.04 71.03-25.25 18.95-52.73 34.89-81.65 47.53-2.93 1.54-6.06.04-8.91-.85 14.44-11.65 30.77-20.66 45.62-31.75 4.77-3.68 10.08-6.56 15.05-9.96 19.18-12.73 37.53-26.73 57.13-38.84 9.52-5.98 17.57-14.03 27.28-19.75 6.88-4.34 13.15-9.58 20.17-13.71 3.99-2.33 7.34-5.88 11.87-7.22 2.73-.76 5.54-1.46 8.01-2.94zm48.7 50.69c8.54-2.6 16.98-5.49 25.37-8.51-2.34 3.14-6.33 3.89-9.71 5.38-19.38 7.87-38.53 16.3-57.9 24.19-15.43 6.45-30.96 12.67-46.2 19.57-30.53 16.13-63.04 28.52-96.53 36.93-12.9 3.06-25.83 6.3-39.04 7.62-.43-1.99-.84-3.97-1.26-5.95 33.87-18.42 69.77-33.43 107.27-42.62 19.69-4.8 38.99-11.01 58.32-17.06 19.98-6.24 39.81-12.97 59.68-19.55zm-76.14 70.981c25.66-1.15 51.25-3.44 76.88-5.06 1.11-.06 3.32-.19 4.43-.25-1.52 2.63-3.01 5.29-5.09 7.52.06-.63.19-1.87.25-2.5-10.52.76-20.81 3.24-31.21 4.85-21.48 3.88-43.08 7.04-64.51 11.19-41.51 8.43-84.17 12.12-126.46 8.74l.54-5.9c7.63-3.07 15.76-4.47 23.74-6.27 31.38-6.68 63.43-10.14 95.5-10.81 8.66-.27 17.28-1.11 25.93-1.51zm-145.16 28.93c41.98-.78 84.16 2.41 125.18 11.62 19.85 3.65 39.55 8.38 59.65 10.49 1.79.16 3.57.26 5.39.36-1.69 2.69-3.35 5.41-5.17 8.02-2.22-2.11-5.56-.86-8.28-1.3-29.09-2.43-58.32-2.38-87.42-4.49-20.39-1.83-40.67-5.05-60.52-10.08-10.22-2.62-20.59-4.99-30.2-9.44.45-1.73.91-3.46 1.37-5.18zm-2.58 10.53c27.55 4.74 54.01 14.05 80.37 23.12 13.33 4.68 26.03 10.93 38.77 17.01 14.06 7.01 28.54 13.14 43.16 18.88a55.599 55.599 0 01-4.7 7.42c-.57-.19-1.7-.58-2.27-.77-9.25-3.43-18.94-5.45-28.4-8.21-12.82-3.68-25.83-6.69-38.64-10.39-31.59-9.69-61.61-24.06-89.74-41.31.48-1.92.96-3.84 1.45-5.75zm-8.39 14.209c1.01-1.62 2.04-3.23 3.06-4.85 28.18 12.59 54.71 28.64 79.86 46.47 7.14 5.03 13.5 11.05 20.21 16.62 12.64 10.52 25.31 21.05 38.94 30.27-1.3 2.62-2.94 5.07-5 7.16-18.96-11.3-38-22.5-57.62-32.64-29.63-16.59-56.22-38.33-79.45-63.03zm-93.44 9.631c7.1-4.5 13.88-9.5 21.21-13.63 1.05 1.41 2.09 2.83 3.15 4.25-14.96 14.42-31.13 27.55-47.76 39.97-19.11 14.38-40.71 24.79-61.33 36.74-28.1 15.83-54.81 33.95-82.43 50.57-7.75 4.63-15.3 9.62-23.34 13.75 5.2-4.9 11.12-8.92 16.77-13.26 11.84-8.83 23.42-18.02 35.38-26.69 6.15-4.44 12.13-9.11 18.07-13.81 4.78-3.85 10.31-6.73 14.65-11.11 2.87-3.09 6.61-5.13 10.32-7.04 11.27-5.74 21.8-12.78 32.53-19.43 8.07-4.42 15.49-9.88 23.24-14.81 13.4-8.14 26.31-17.07 39.54-25.5zm85.17-2.23c.86-1.71 2-3.25 3.09-4.81 11.43 7.73 20.87 17.85 30.74 27.4 13.13 12.97 25.78 26.49 36.84 41.3 11.65 15.97 22.83 32.29 34.9 47.95 9.99 13.46 21.11 26.03 31.42 39.25-2.38 0-4.75.01-7.12.02-6.49-8.64-14.85-15.6-22.28-23.39-12.64-12.35-24.43-25.59-37.97-36.98-24.72-22.05-45.26-48.45-62.13-76.87-2.52-4.59-6.22-8.7-7.49-13.87zm-58.73-2.28c2.46-2.23 5.17.44 6.97 2.13-3.05 6-7.24 11.29-10.88 16.92-8.79 13.31-18.45 26.04-28.74 38.22-5.9 6.79-11.6 13.8-18.37 19.76-14.28 13.72-28.08 27.93-42.59 41.4-14.51 15.48-29.7 30.3-44.28 45.7-6.58 6.71-11.83 14.69-19.27 20.54 12.27-16.89 25.56-33.01 38.14-49.67 12.16-16.47 25.21-32.27 36.95-49.06 9.75-13.17 19.03-26.77 30.33-38.69 15.27-17.77 33.57-32.58 51.74-47.25zm12.31 4.08c1.99.49 3.98.97 5.99 1.46-8.86 36.65-24.83 71.28-44.25 103.48-11.43 19.11-21.86 38.78-32.59 58.29-6.97 12.99-14.14 25.87-20.9 38.97-2.79 5.61-5.36 11.35-9.03 16.47 6.88-19.23 15-37.99 22.33-57.05 11.35-28.37 22.28-56.91 33.28-85.42 7.03-19.32 17.79-37 28.89-54.21 5.26-7.44 10.02-15.33 16.28-21.99zm35.21 1.68c2.11-.45 4.23-.9 6.36-1.34 8.38 12.8 16.91 25.54 24.13 39.04 9.91 18.28 18.2 37.42 25.02 57.06 5.46 16.63 11.57 33.06 18.19 49.27.75 1.89 1.52 3.78 2.25 5.7-3.67-.32-7.43.05-11.02-.92-2.49-8.07-7.71-14.88-11.28-22.45-5.46-11.41-13.45-21.29-19.76-32.19-12.44-21.92-21.7-45.54-28.52-69.77-2.2-8.04-4.48-16.09-5.37-24.4zm-42.4 62.52c4.1-20.49 10.36-40.5 18.16-59.87 2.3-.1 4.59-.21 6.9-.31.06 17.68-.68 35.37-2.48 52.97-1.74 15.84-3.74 31.76-8.26 47.1-5.96 21.57-11.2 43.36-15.31 65.36-2.82 1.32-5.74 2.44-8.71 3.4l.38-2.19c1.31-7.11 1.25-14.37 1.9-21.54 2.1-28.33 1.39-57.01 7.42-84.92zm29.74-60.06c2.66.04 5.33.09 8 .13 1.96 8.36 4.46 16.57 6.64 24.87 4.73 18.75 8.71 37.73 10.82 56.97 2.81 23.28 1.11 46.83 4.3 70.08 1.29-.03 2.57-.06 3.87-.1-4.38 1.82-9.13 2.17-13.8 2.49-.14-1.32-.29-2.62-.42-3.93-.78-7.85-3.1-15.43-4.76-23.11-2.41-11.06-6.91-21.52-9.41-32.56-7.46-31.01-6.84-63.2-5.24-94.84z" fill="#f19817"/></svg>