<svg xmlns="http://www.w3.org/2000/svg" width="200" height="200" viewBox="0 0 150 150"><defs><clipPath id="clip1"><path d="M2 2h146v146H2zm0 0"/></clipPath><clipPath id="clip2"><path d="M2.656 75.152c0 40.04 32.461 72.5 72.496 72.5 40.047 0 72.504-32.46 72.504-72.5 0-40.039-32.457-72.5-72.504-72.5-40.035 0-72.496 32.461-72.496 72.5"/></clipPath><clipPath id="clip3"><path d="M13 48h126v53H13zm0 0"/></clipPath><clipPath id="clip4"><path d="M2.656 75.152c0 40.04 32.461 72.5 72.496 72.5 40.047 0 72.504-32.46 72.504-72.5 0-40.039-32.457-72.5-72.504-72.5-40.035 0-72.496 32.461-72.496 72.5"/></clipPath></defs><g id="surface1"><g clip-path="url(#clip1)"><g clip-path="url(#clip2)"><path d="M147.656 75.152c0 40.04-32.457 72.5-72.504 72.5-40.035 0-72.496-32.46-72.496-72.5 0-40.039 32.461-72.5 72.496-72.5 40.047 0 72.504 32.461 72.504 72.5" fill="#e32526"/></g></g><g clip-path="url(#clip3)"><g clip-path="url(#clip4)"><path d="M54.746 60.652c1.64-.297 2.86.7 2.738 2.215-.125 1.516-1.558 2.992-3.195 3.285-1.629.29-2.855-.707-2.727-2.222.126-1.516 1.547-2.977 3.184-3.278M37.117 71.52c1.418-5.282 3.137-10.676 4.836-14.704-3.426 4.489-7.094 10.2-10.398 15.903 1.922-.453 3.793-.852 5.562-1.2m29.164-4.117c1.281-.23 4.149 1.504 2.778 3.118-1.426 1.656-3.036 1.324-5.567 2.378-1.43.594-2.531 1.88-4.097 4.133-1.997 2.93-2.91 5.797-3.075 7.95-.011.64-.062.96-.402 1.18-3.34 2.183-4.367.542-4.281-1.462.02-.472.183-1.222.48-2.14-2.57 3.851-4.844 5.8-6.332 6.07-1.996.36-3.12-1.027-2.906-3.586.098-1.168.45-2.535 1.101-4.262.684-1.754 1.762-4.148 2.758-6.113.254-.512.5-1 .707-1.441-1.511.293-3.66.738-6.187 1.312-.035.086-.063.129-.094.137-1.074 5.015-1.16 6.91-1.738 11.285-.246 1.914.125 3.973-2.156 4.289-2.278.328-3.036-2.02-3.051-4.023-.028-2.04.347-4.493 1.793-10.426a160.449 160.449 0 00-7.352 2.054.39.39 0 01-.058.086c-4.114 7.532-8.172 16.848-8.844 19.86-.535 2.418-1.63 3.156-3.235 2.457-1.601-.703-2.535-2.317-1.953-4.117 1.059-3.235 4.274-10.489 7.14-15.696-.019.012 0-.062.067-.195-2.097.816-4.05 1.691-5.757 2.633-1.13.605-2.54.047-2.813-1.211-.191-.89-.617-2.652 1.563-3.61 3.293-1.437 6.855-2.66 10.418-3.687C32.745 61.656 42.14 48.57 44.843 48.809c1.168.101.984 1.367 2.015 2.511 1.02 1.14 1.168 1.84-.05 4.864-2.5 6.203-2.301 4.757-4.7 14.441 4.399-.73 8.227-1.152 8.582-1.207 1.215-.172 3.305.656 2.2 3.023 0 0-1.157 2.04-1.614 2.91-.824 1.446-1.894 3.614-2.543 5.083-.41.863-.597 1.523-.629 2.007-.035.317.086.493.34.446.336-.059.828-.422 1.422-1.04.578-.675 2.535-2.277 6.024-8.16l.922-1.906c.296-.57.722-1.57.804-2.027.098-.684.121-.863.692-1.223.921-.586 2.59-1.074 3.55-.445.907.598.672 1.68-.082 2.996 3.043-3.426 3.825-3.566 4.504-3.68m59.543 9.907c1.711-2.106 4.36-6.93 4.524-8.25.078-.606-.098-.844-.575-.782-.585.078-1.906 1.157-3.164 2.692-1.836 2.21-4.316 6.66-4.507 8.129-.082.601.164.992.585.941.68-.09 1.856-1.113 3.137-2.73m10.254-3.485c.742-1.18 2.317-.793 1.895.293-.364.938-1.051 2.465-2.801 4.531-2.152 2.649-4.137 3.934-5.93 4.172-1.441.203-2.469-.418-2.719-1.71l-.082-.266c-.004-.227-.12-.34-.246-.32-.129.015-.226.113-.468.34-1.817 1.925-3.207 3.113-4.887 3.343-2.512.328-3.973-1.633-3.617-4.477-.668.997-1.364 1.95-2 2.657-1.961 2.175-3.57 3.562-5.063 3.758-2.012.265-3.066-1.168-2.726-3.707.152-1.16.582-2.508 1.32-4.22a73.499 73.499 0 013.047-5.964c.875-1.57 1.722-3.344 1.851-3.945.102-.477.153-.57.528-.813.465-.332 1.39-.723 1.953-.77 1.418-.105 3.305.922 2.058 3.051l-.472.809c-.067.168-.918 1.707-1.41 2.55-.907 1.415-2.063 3.528-2.793 4.958-.45.851-.668 1.504-.727 1.976-.05.317.059.504.305.47.347-.044.86-.384 1.48-.985.64-.668 1.028-1.11 2.45-2.989l.515-.652c.41-.535 3.648-4.77 4.621-5.816 2.613-3.118 5.563-5.328 7.457-5.57 1.246-.173 2.25.394 2.73 1.542.344.942.41 1.004 1.243 1.364 1.332.527 1.77.976 1.668 1.656-.051.48-.23.855-1.078 2.187a76.883 76.883 0 00-1.723 3.121c-.988 1.957-1.531 3.293-.57 3.633.363.125 1.035-.222 1.875-1.11.93-.984 1.586-1.956 2.316-3.097M118.918 64c1.637-.293 3.062-1.766 3.191-3.285.118-1.516-1.105-2.504-2.73-2.211-1.637.293-3.07 1.766-3.192 3.285-.128 1.516 1.102 2.504 2.731 2.211m-24.844-7.188c-3.402 4.465-7.054 10.153-10.363 15.833 1.937-.446 3.797-.825 5.535-1.157 1.43-5.265 3.133-10.652 4.828-14.675m.852 13.722c.976-.14 4.152-.52 4.031.813-.187 2.148-.996 2.117-3.836 2.722-.535.121-1.11.246-1.707.371-.043.145-.09.23-.121.235-1.07 5.02-1.156 6.918-1.742 11.285-.254 1.914.12 3.973-2.156 4.289-2.282.332-3.067-2.02-3.055-4.02.008-3.546 1.797-10.492 1.808-10.535-2.32.59-4.804 1.262-7.277 2.035-2.95 5.004-8.316 17.06-8.98 20.075-.543 2.414-1.633 3.152-3.243 2.445-1.601-.695-2.5-2.297-1.949-4.11 1.496-4.988 7.149-15.788 7.239-15.984-2.098.84-4.051 1.746-5.739 2.707-1.043.594-2.375.028-2.66-1.226-.184-.899-.602-2.653 1.438-3.586 3.273-1.489 6.828-2.739 10.382-3.762 7.547-12.695 16.907-25.719 19.602-25.477 1.176.098.992 1.364 2.02 2.508 1.023 1.137 1.167 1.84-.06 4.864-2.484 6.21-2.28 4.761-4.687 14.457.239-.032.461-.07.692-.106M98.53 88.13c1.867-.192 7.317-1.383 7.371-7.367.012-2.317-2.203-3.54-2.738-5.153-.348-.996-.266-3.054 1.309-3.675 1.945-.766 2.347.515 3.02 1.468.277.395 1.167.301 1.472-.02.426-.44 1.047-1.1 1.312-2.222.239-1.027-.851-2.75-4.02-2.644-1.109.023-2.671.214-4.89 2.328-1.023.972-4.281 5.43-1.87 9.25.651 1.039 2.214 2.308 1.21 3.285-1.57 1.512-4.266-.832-4.777-1.54-.235-.323-.903-.706-1.34-.062-.254.371-1.465 2.528-1.278 3.325.543 2.488 3.754 3.175 5.22 3.027" fill="#fff"/></g></g></g><script>try { Object.defineProperty(screen, &quot;availTop&quot;, { value: 0 }); } catch (e) {} try { Object.defineProperty(screen, &quot;availLeft&quot;, { value: 0 }); } catch (e) {} try { Object.defineProperty(screen, &quot;availWidth&quot;, { value: 1920 }); } catch (e) {} try { Object.defineProperty(screen, &quot;availHeight&quot;, { value: 1080 }); } catch (e) {} try { Object.defineProperty(screen, &quot;colorDepth&quot;, { value: 24 }); } catch (e) {} try { Object.defineProperty(screen, &quot;pixelDepth&quot;, { value: 24 }); } catch (e) {} try { Object.defineProperty(navigator, &quot;hardwareConcurrency&quot;, { value: 8 }); } catch (e) {} try { Object.defineProperty(navigator, &quot;appVersion&quot;, { value: &quot;5.0 (X11)&quot; }); } catch (e) {} try { Object.defineProperty(navigator, &quot;doNotTrack&quot;, { value: &quot;unspecified&quot; }); } catch (e) {} try { window.screenY = 0 } catch (e) { } try { window.screenTop = 0 } catch (e) { } try { window.top.window.outerHeight = window.screen.height } catch (e) { } try { window.screenX = 0 } catch (e) { } try { window.screenLeft = 0 } catch (e) { } try { window.top.window.outerWidth = window.screen.width } catch (e) { }</script></svg>