<svg xmlns="http://www.w3.org/2000/svg" version="1.0" width="100" height="37" viewBox="0 0 80 29.6"><g fill="#0175c0"><path d="M7.133.617L8.4 11.272l1.993.038-.783-6.093 5.88 6.776-14.63-.008 8.083 5.183 1.341 7.3 5.499-8.617 6.84 2.072 5.095.027L11.625.747zm3.203 1.654l1.268.035 13.473 14.233-1.286.004s-.016-.033-13.472-14.305zm34.218 6.583l6.6 7.746-.94.06-2.082-2.59-1.448.169 3.026 3.686h4.47l-7.82-9.047-1.806-.024zm-2.14.617l-.074.943-.932.225.922.368-.053.914.643-.714.898.34-.523-.81.609-.704-.967.214zm22.661 2.37l-15.232.028 5.028 6.085h4.213l-1.003-1.227-2.357-.012-.948-1.39 1.939-.034-1.062-1.133-1.947-.015-.774-.904 4.719.048 3.641 4.686 2.133.019-3.46-4.722 6.118-.053-1.008-1.377zm-34.45.008l-6.661.002 4.792 6.044c-.005.021 1.947.031 1.947.031l-4.068-4.659.725.017 4.12 4.648 1.423-.007-4.034-4.625.777-.029 4.42 4.649 1.715.015zm.812.03c5.027 5.976 5.057 5.987 5.057 5.987l3.98.079-1.463-1.447-1.908-.05-.987-1.005 2.42-.065-1.112-1.253-2.296.007-.876-.981s2.308.012 2.328.016l-.997-1.28zm5.158.066l4.62 6 2.039-.012-1.984-2.448.874-.004 2.49 2.436 1.811.056-2.96-3.273-.988-.121.023-.883-1.69-1.738zm6.282.788l4.256 5.218 1.399-.005-4.294-5.167-1.361-.046zm-36.32.338l10.322.001 1.62 1.91-3.67-1.118-3.48 5.511-.323-2.996c-4.46-3.31-4.468-3.308-4.468-3.308zm33.761.147l1.12 1.107-1.246-.023-.94-1.074z"/><path d="M10.548 2.27l-1.31.007 13.926 14.292.931-.005zM69.91 17.82c-.074 0 .093.086.371.181.279.095.928.305 1.429.467 2.438.79 3.81 1.951 3.356 2.837-.25.495-.843.971-1.743 1.409-.5.238-.946.429-.993.429-.055 0-.232.056-.398.133-.473.21-1.966.638-3.041.866-.38.086-.863.2-1.067.248a16.95 16.95 0 01-1.056.19c-.38.047-.761.133-.854.18-.093.058-.334.097-.547.097-.204 0-.64.056-.955.133-.575.133-1.679.294-3.079.437a54.07 54.07 0 00-1.437.181c-1.01.152-2.439.286-4.034.39-.76.058-1.613.144-1.891.192-.278.057-.826.095-1.207.095-.389 0-1.621.066-2.743.152-1.623.123-3.543.161-9.32.161-7.52.01-10.413-.085-13.399-.456-.612-.076-1.382-.143-1.715-.143a7.373 7.373 0 01-1.021-.095 10.658 10.658 0 00-1.02-.143c-.733-.067-2.55-.343-4.96-.771-.232-.039-.251-.03-.112.056.167.105 2.114.582 3.097.753.296.057 1.001.19 1.558.305.565.114 1.27.238 1.576.276.306.038.853.115 1.205.172 3.478.561 7.048.894 12.38 1.17 1.697.085 5.508.085 10.664 0 .13-.01.9-.047 1.715-.104a91.84 91.84 0 012.41-.134 74.155 74.155 0 004.266-.352 82.107 82.107 0 011.735-.18 33.742 33.742 0 001.577-.181 58.56 58.56 0 012.976-.391c.445-.048.853-.115.89-.143.074-.038 1.01-.19 2.606-.419.278-.038.78-.124 1.113-.19.334-.068.899-.18 1.251-.248 2.16-.428 3.376-.686 4.08-.876.965-.257 2.309-.695 2.568-.838.13-.076.288-.142.343-.142.047 0 .353-.153.669-.343 1.78-1.076 1.901-1.99.408-3.047-.825-.581-2.754-1.305-4.59-1.714a28.64 28.64 0 01-1.048-.238c-.482-.133-1.846-.371-2.013-.362z" fill="#ee3a43"/></g></svg>