<svg xmlns="http://www.w3.org/2000/svg" width="300" height="77.992"><defs><clipPath id="a"><path d="M714.047 23.099H813.9v34.16h-99.853v-34.16z"/></clipPath></defs><path d="M286.795 1l-43.892 75.99h12.222L299 1h-12.205z" fill="#00b3f0"/><path d="M242.904 76.992l43.892-75.99h-48.828l-43.881 75.99h48.817z" fill="#223f9a"/><g transform="matrix(3.30136 0 0 -3.30136 -2373.033 174.08)" clip-path="url(#a)"><path d="M744.871 44.76a.431.431 0 00.412.337.452.452 0 00.4-.288l4.227-15.397h6.925l3.528 20.009h-3.049L754.6 34.014a.413.413 0 00-.403-.346.42.42 0 00-.396.308l-4.236 15.445h-6.922l-3.527-20.01h3.045l2.71 15.349m-11.823-8.564l-.592 8.965a.468.468 0 01-.337.44.462.462 0 01-.532-.255l-9.03-15.934h-3.45l11.343 20.01h6.666l1.334-20.01h-4.948l-.145 2.18c-.024.467-.373.837-.837.837h-7.484l1.688 2.985h5.612c.41 0 .743.36.712.782m37.625-.043l-.788 8.882a.447.447 0 01-.45.41.463.463 0 01-.386-.21l-8.128-15.823h-3.372l10.269 20.01h6.666l1.774-20.01h-4.986l-.195 2.182c-.037.47-.377.833-.837.833h-7.017l1.532 2.986h5.2c.425 0 .76.365.718.74" fill="#223f9a"/></g></svg>