<svg xmlns="http://www.w3.org/2000/svg" version="1.1" width="455.883" height="177.435" viewBox="-0.378 -0.432 455.883 177.435" xml:space="preserve" id="svg2"><path clip-rule="evenodd" d="M254.747 88.363c-11.447-9.19-20.374-19.693-17.15-36.514-4.202-6.546-5.185-13.093-4.703-19.64-10.864-9.486-11.195-20.807-8.574-32.64 7.603 16.8 21.596 25.745 34.3 32.64 34.692 18.828 68.704 32.146 73.857 53.664 33.58.313 53.267 4.104 60.304 11.064 9.793 1.599 18.323 4.137 17.98 13.278-25.567-1.096-58.166 1.982-91.56 5.533-24.345 16.93-73.678 13.271-114.522 2.214-33.744-2.06-55.714-8.212-75.24-15.214-30.6-3.25-48.612-13.368-65.558-24.066 22.905 6.61 27.044 10.607 83.655 12.11 31.406.835 67.188.595 107.211-2.429z" id="path8" fill="#010100" fill-rule="evenodd"/><path clip-rule="evenodd" d="M333.168 88.64c1.764 8.068-.517 16.134-8.714 24.202 29.415-3.913 71.461-6.968 85.2-3.731-1.611-8.417-13.37-11-29.736-10.928l-.436-1.625h7.627c-2.85-5.02-18.263-8.063-53.941-7.918zm-74.923 2.632c-34.153 1.895-66.404 3.658-94.74 3.406-36.058-.32-66.714-3.579-87.255-10.428 19.213 10.055 43.251 15.23 69.965 17.7 36.144 3.341 72.736 3.316 106.17-1.366-10.17 2.686-20.89 6.33-63.437 5.614-13.94-.236-34.869-.978-54.768-3.07 22.929 6.64 52.531 11.944 89.907 11.092 13.792-.313 28.839-2.292 36.013-6.576 5.405-3.225 9.947-9.737-1.855-16.372zm-19.865-38.78c.023 8.966 3.428 17.408 13.71 27.796 6.335 6.399 10.37 8.018 15.548 13.067 4.641 4.526 3.666 14.241-3.975 18.063-14.132 7.07-33.062 7.382-49.996 7.079 24.318 4.149 49.832 7.391 77.059 3.415 23.17-3.382 40.583-15.288 36.714-35.22-1.575-8.115-20.98-23.56-36.287-31.379-18.165-9.279-32.749-17.062-44.37-24.949C235.354 22.61 226.75 14.768 224.98 3.23c-.749 14.601 6.19 22.431 17.914 31.592 12.148 9.49 25.637 18.48 40.147 26.042 26.945 14.046 36.508 28.56 22.198 45.254 7.694-16.063-1.651-25.505-14.727-34.286-15.435-10.366-41.71-24.14-57.206-39.145 2.39 12.915 12.166 22.441 26.681 33.3 10.072 7.535 20.794 14.237 28.667 22.84 7.663 8.372 1.526 19.954-4.547 22.626 7.155-10.989 4.02-19.213-4.483-25.187-16.349-11.488-30.806-21.786-41.245-33.774z" id="path10" fill="#ffc211" fill-rule="evenodd"/><path clip-rule="evenodd" d="M424.782 175.374l7.08-51.822h13.591l-5.543 41.296h15.595l-1.578 10.526h-29.145zm-74.586 0l5.494-40.346-11.725-.24 1.586-11.473 35.322.237-1.538 11.476h-11.174l-5.473 40.346h-12.492zm-138.599 0h-13.282l7.092-51.822h14.729l.441.003.432.003.424.005.417.008.408.007.4.01.393.01.386.014.376.012.369.016.36.018.354.017.346.02.337.02.33.024.324.022.315.028.305.026.3.03.293.03.284.034.275.032.27.036.264.035.255.04.249.041.24.043.234.043.227.048.22.049.218.05.401.104.397.114c10.28 2.847 11.648 12.126 9.98 20.784l-.105.492-.122.486-.133.48-.148.473-.162.469-.175.463-.187.456-.2.448-.213.443-.228.434-.238.423-.253.413-.264.405-.278.4-.292.385-.302.377-.313.37-.327.36-.34.352-.349.337-.36.332-.375.322-.385.311-.388.294-.332.243-.346.243-.355.234-.362.222-.366.213-.376.205-.383.196-.39.184-.395.178-.403.167-.41.16-.416.147-.423.14-.43.131-.436.121-.438.112-.23.053-.234.053-.24.05-.243.047-.246.048-.256.043-.261.043-.265.04-.269.039-.276.038-.282.035-.285.033-.291.03-.3.03-.303.028-.307.026-.312.025-.32.025-.327.02-.329.021-.336.018-.343.018-.347.015-.353.012-.358.01-.365.01-.37.011-.375.005-.381.008-.388.002-.392.003-.4.002h-4.882l-2.099 16.585zm-47.188 1.3l-.73-.007-.724-.02-.717-.032-.706-.046-.697-.058-.689-.071-.679-.086-.67-.099-.661-.111-.653-.127-.642-.137-.633-.152-.624-.167-.614-.178-.606-.192-.596-.205-.586-.22-.577-.233-.566-.246-.559-.261-.547-.272-.538-.288-.527-.299-.518-.314-.508-.327-.498-.342-.488-.354-.477-.368-.469-.38-.456-.392-.447-.408-.437-.42-.422-.43-.41-.442-.395-.451-.382-.458-.364-.47-.352-.478-.337-.486-.322-.497-.306-.504-.293-.514-.276-.522-.264-.531-.246-.54-.234-.55-.216-.558-.203-.567-.187-.573-.171-.582-.159-.59-.141-.601-.127-.604-.113-.617-.097-.62-.084-.63-.067-.64-.053-.645-.038-.654-.024-.661-.01-.668.006-.677.02-.684.034-.689.023-.345.027-.342.03-.34.034-.341.04-.34.041-.339.047-.339.05-.34.054-.337.058-.336.063-.337.067-.337.07-.337.073-.334.078-.335.081-.337.088-.334.09-.332.092-.332.099-.334.101-.33.106-.33.108-.328.114-.332.118-.33.12-.329.126-.327.128-.326.133-.327.136-.324.14-.325.146-.329.298-.643.312-.636.326-.626.339-.62.352-.611.365-.606.377-.593.392-.586.404-.579.416-.569.43-.562.44-.553.455-.542.468-.537.478-.525.496-.524.29-.288.286-.28.288-.27.29-.271.294-.264.298-.26.3-.257.302-.256.307-.248.308-.243.312-.24.314-.236.318-.233.32-.228.324-.223.325-.22.33-.216.332-.21.333-.208.339-.203.341-.197.343-.195.344-.19.351-.185.353-.182.354-.178.356-.171.36-.168.363-.164.364-.16.368-.157.368-.152.371-.147.374-.142.375-.139.377-.135.38-.129.378-.124.383-.119.382-.117.386-.108.387-.107.387-.101.39-.096.393-.092.391-.086.393-.084.396-.075.4-.074.397-.069.4-.06.4-.06.404-.054.403-.048.407-.046.407-.04.41-.033.408-.03.41-.028.414-.02.414-.016.414-.013.416-.008.422-.002.732.008.723.02.716.031.705.045.698.058.688.072.679.083.67.096.66.112.652.12.643.138.632.15.625.164.614.175.604.19.597.202.585.216.578.23.567.241.556.256.55.271.537.282.528.295.518.31.51.324.495.336.49.348.477.362.467.377.457.388.448.4.437.415.424.426.41.436.396.443.38.454.367.461.352.47.337.482.323.49.308.495.293.507.279.517.262.524.249.533.232.539.22.55.2.557.19.564.173.576.158.583.142.588.128.594.114.606.098.613.083.62.07.63.053.635.04.643.024.649.01.655-.005.667-.02.671-.033.674-.023.36-.027.355-.029.351-.034.353-.037.35-.04.349-.043.347-.049.346-.05.343-.055.347-.058.342-.062.341-.065.34-.068.34-.072.339-.076.334-.079.335-.084.334-.086.335-.09.329-.092.332-.097.33-.102.326-.103.324-.107.327-.112.324-.115.322-.119.321-.121.32-.126.32-.129.318-.134.317-.272.62-.288.621-.299.61-.313.601-.324.593-.338.582-.35.575-.363.565-.374.557-.387.548-.4.539-.412.53-.423.522-.437.511-.45.504-.457.492-.296.306-.298.299-.3.296-.303.289-.305.286-.31.281-.311.28-.314.27-.315.269-.32.263-.324.258-.324.256-.328.25-.332.244-.334.241-.336.236-.338.23-.342.228-.346.223-.347.218-.35.213-.353.21-.356.202-.357.198-.36.195-.365.19-.366.185-.367.18-.371.177-.375.17-.375.167-.381.162-.381.157-.383.153-.385.146-.386.14-.387.137-.39.131-.392.126-.393.12-.394.119-.396.111-.399.106-.4.102-.402.097-.404.09-.405.086-.406.082-.406.079-.41.07-.414.066-.411.064-.414.056-.418.052-.417.048-.42.041-.42.038-.423.03-.424.028-.425.023-.426.018-.43.013-.43.005-.435.003zm5.801-41.608l-.437.005-.43.016-.427.022-.42.033-.417.043-.412.051-.407.06-.403.069-.396.078-.393.089-.39.097-.382.106-.379.114-.376.124-.37.134-.366.142-.362.15-.359.16-.354.17-.351.179-.346.187-.343.198-.34.208-.335.215-.332.225-.33.235-.325.244-.321.254-.318.265-.315.274-.312.284-.305.29-.302.303-.293.306-.285.309-.273.316-.266.318-.257.324-.249.329-.239.332-.23.339-.223.342-.215.35-.205.349-.195.357-.188.363-.18.367-.17.37-.162.377-.154.383-.145.387-.138.393-.128.397-.12.406-.11.41-.103.413-.094.42-.086.427-.077.432-.067.436-.06.443-.05.45-.042.454-.034.462-.02.382-.012.38-.004.37.002.367.01.36.018.355.027.347.033.345.04.336.048.332.056.325.062.318.07.315.077.31.083.303.092.296.098.294.105.286.113.284.12.276.127.27.133.267.142.261.148.258.155.251.163.248.17.243.177.238.185.234.192.23.2.226.205.218.211.213.22.207.225.2.23.192.233.188.24.177.242.175.248.165.256.16.26.152.264.144.27.139.276.135.281.126.287.119.292.111.299.107.304.101.31.091.316.087.323.081.328.073.334.066.34.058.348.053.352.046.36.038.365.033.375.026.377.017.385.01.39.003.437-.005.43-.015.425-.023.419-.033.415-.043.41-.051.404-.06.4-.072.398-.078.39-.089.387-.098.383-.11.378-.116.371-.124.37-.135.368-.146.362-.153.357-.162.355-.172.35-.182.347-.19.342-.203.339-.208.335-.22.335-.23.328-.238.326-.251.322-.26.32-.268.316-.278.313-.29.31-.3.306-.306.293-.31.285-.314.277-.319.268-.324.257-.327.251-.332.24-.337.232-.34.223-.344.214-.35.207-.354.198-.357.187-.363.18-.367.17-.375.164-.377.154-.383.146-.387.136-.393.13-.397.118-.404.112-.407.102-.413.094-.418.086-.426.076-.427.068-.436.06-.441.05-.444.041-.45.033-.459.02-.383.012-.374.005-.37-.004-.365-.01-.357-.018-.352-.024-.345-.033-.342-.04-.334-.049-.33-.054-.324-.062-.316-.07-.312-.076-.306-.083-.3-.093-.298-.096-.29-.105-.282-.113-.279-.12-.276-.124-.269-.134-.266-.14-.258-.15-.256-.153-.25-.162-.244-.17-.24-.177-.237-.183-.232-.192-.226-.2-.222-.208-.221-.211-.213-.217-.202-.223-.2-.226-.19-.232-.183-.238-.18-.243-.17-.249-.164-.252-.157-.258-.152-.265-.142-.27-.14-.276-.132-.28-.124-.289-.119-.293-.111-.3-.107-.304-.098-.311-.09-.316-.087-.325-.079-.33-.073-.336-.066-.342-.058-.35-.054-.354-.045-.362-.038-.369-.03-.375-.026-.381-.017-.388-.01-.392-.006zm-36.82-5.842c3.926 4.904 3.798 12.04.563 17.218-2.301 3.294-7.248 6.695-11.067 7.772l11.322 21.16h-14.984l-10.102-19.802-1.672 19.802H94.343l7.09-51.822h13.756c6.666.013 13.512.153 18.202 5.672zm-75.845 46.15l7.078-51.822h28.091l-1.576 11.544H76.526l-1.091 8.066h14.6L88.489 154.5H73.867l-1.27 9.333h14.615l-1.576 11.54h-28.09zm-25.834-35.817l-7.954 16.61h11.169l-3.215-16.61zM-.378 175.374l27.824-51.822h13.578l11.88 51.822H39.623l-2.152-8.616H18.71l-3.912 8.616H-.378zm216.06-27.868h1.726c4.255 0 7.114-.547 8.577-1.638 1.466-1.082 2.12-2.947 1.967-5.59-.128-2.22-.856-3.78-2.172-4.673-1.327-.894-3.87-1.34-7.636-1.34h-1.288l-1.174 13.241zm-105.253-.66h1.56c4.02 0 6.75-.525 8.191-1.587 1.443-1.058 2.164-2.872 2.164-5.46 0-2.2-.603-3.75-1.82-4.64-1.206-.888-3.582-1.334-7.116-1.334h-1.219l-1.76 13.02zm157.1 29.827l-.732-.006-.725-.02-.714-.032-.707-.046-.696-.058-.69-.071-.681-.086-.668-.099-.661-.111-.651-.127-.644-.137-.633-.152-.624-.167-.615-.178-.606-.192-.594-.205-.586-.22-.577-.233-.568-.246-.557-.261-.547-.272-.54-.288-.527-.299-.52-.314-.506-.327-.5-.342-.485-.354-.479-.368-.466-.38-.459-.392-.445-.408-.436-.42-.423-.43-.41-.442-.395-.451-.38-.458-.368-.47-.35-.478-.337-.486-.324-.497-.307-.504-.29-.514-.277-.522-.263-.531-.249-.54-.23-.55-.218-.558-.202-.567-.188-.573-.172-.582-.157-.59-.142-.601-.126-.604-.114-.617-.097-.62-.083-.63-.067-.64-.052-.645-.041-.654-.023-.661-.008-.668.005-.677.019-.684.035-.689.023-.345.025-.342.03-.34.036-.341.037-.34.044-.339.045-.339.051-.34.054-.337.06-.336.06-.337.067-.337.07-.337.074-.334.079-.335.081-.337.086-.334.09-.332.094-.332.1-.334.1-.33.105-.33.108-.328.115-.332.116-.33.122-.329.124-.327.129-.326.135-.327.133-.324.142-.325.145-.329.298-.643.312-.636.327-.626.337-.62.353-.611.364-.606.38-.593.39-.586.403-.579.418-.569.43-.562.44-.553.455-.542.466-.537.481-.525.494-.524.291-.288.286-.28.287-.27.292-.271.292-.264.297-.26.302-.257.3-.256.308-.248.31-.243.31-.24.314-.236.318-.233.32-.228.322-.223.327-.22.332-.216.332-.21.331-.208.34-.203.34-.197.344-.195.345-.19.35-.185.352-.182.354-.178.358-.171.359-.168.362-.164.365-.16.368-.157.367-.152.372-.147.375-.142.375-.139.377-.135.378-.129.38-.124.38-.119.384-.117.386-.108.385-.107.388-.101.39-.096.392-.092.392-.086.393-.084.398-.075.398-.074.397-.069.4-.06.401-.06.402-.054.406-.048.405-.046.408-.04.408-.033.408-.03.413-.028.413-.02.413-.016.415-.013.416-.008.42-.002.732.008.725.02.714.031.707.045.696.058.69.072.678.083.67.096.66.112.654.12.64.138.634.15.623.164.615.175.604.19.597.202.585.216.578.23.567.241.558.256.546.271.54.282.527.295.52.31.506.324.5.336.486.348.478.362.469.377.456.388.448.4.436.415.424.426.41.436.394.443.383.454.367.461.35.47.34.482.32.49.31.495.292.507.278.517.264.524.248.533.233.539.218.55.203.557.19.564.171.576.157.583.145.588.127.594.114.606.099.613.083.62.068.63.054.635.04.643.023.649.01.655-.005.667-.02.671-.033.674-.023.36-.025.355-.03.351-.034.353-.038.35-.04.349-.043.347-.049.346-.05.343-.055.347-.059.342-.06.341-.064.34-.071.34-.07.339-.077.334-.079.335-.083.334-.087.335-.088.329-.093.332-.099.33-.1.326-.106.324-.106.327-.112.324-.113.322-.12.321-.121.32-.124.32-.132.318-.134.317-.271.62-.286.621-.302.61-.312.601-.324.593-.339.582-.35.575-.362.565-.375.557-.384.548-.4.539-.414.53-.423.522-.438.511-.449.504-.458.492-.296.306-.297.299-.301.296-.302.289-.304.286-.311.281-.31.28-.313.27-.317.269-.319.263-.324.258-.325.256-.33.25-.328.244-.334.241-.337.236-.337.23-.345.228-.345.223-.346.218-.35.213-.354.21-.356.202-.356.198-.36.195-.365.19-.365.185-.37.18-.37.177-.375.17-.375.167-.382.162-.38.157-.382.153-.386.146-.385.14-.387.137-.39.131-.392.126-.393.12-.394.119-.397.111-.398.106-.4.102-.402.097-.404.09-.405.086-.405.082-.407.079-.411.07-.413.066-.413.064-.413.056-.418.052-.418.048-.418.041-.42.038-.423.03-.423.028-.426.023-.428.018-.428.013-.431.005-.433.003zm5.798-41.607l-.435.005-.431.016-.426.022-.423.033-.415.043-.413.051-.405.06-.402.069-.396.078-.395.089-.388.097-.385.106-.377.114-.375.124-.373.134-.364.142-.362.15-.358.16-.354.17-.352.179-.345.187-.344.198-.34.208-.337.215-.331.225-.33.235-.325.244-.32.254-.317.265-.318.274-.311.284-.307.29-.299.303-.294.306-.283.309-.276.316-.264.318-.258.324-.248.329-.24.332-.231.339-.221.342-.215.35-.205.349-.195.357-.188.363-.18.367-.171.37-.16.377-.155.383-.146.387-.138.393-.126.397-.12.406-.11.41-.105.413-.094.42-.085.427-.077.432-.068.436-.06.443-.051.45-.04.454-.034.462-.02.382-.013.38-.005.37.003.367.013.36.018.355.025.347.032.345.041.336.048.332.056.325.061.318.07.315.077.31.086.303.091.296.096.294.107.286.114.284.119.276.126.27.132.267.142.261.15.258.154.251.164.248.17.243.178.238.182.234.193.23.2.226.205.218.213.213.22.207.223.2.23.192.233.188.238.177.244.175.248.165.256.16.261.152.263.144.271.139.277.135.278.126.286.119.294.111.299.107.304.101.31.091.316.087.324.081.327.073.334.066.34.058.347.053.354.046.36.038.365.033.372.026.378.017.384.01.391.003.438-.005.43-.015.424-.023.42-.033.416-.043.407-.051.406-.06.4-.072.397-.078.391-.089.388-.098.382-.11.377-.116.373-.124.37-.135.367-.146.362-.153.358-.162.354-.172.35-.182.346-.19.342-.203.34-.208.334-.22.335-.23.329-.238.327-.251.321-.26.32-.268.316-.278.312-.29.311-.3.304-.306.294-.31.286-.314.276-.319.269-.324.259-.327.248-.332.24-.337.233-.34.223-.344.216-.35.205-.354.197-.357.188-.363.18-.367.172-.375.162-.377.155-.383.144-.387.137-.393.129-.397.119-.404.111-.407.102-.413.097-.418.083-.426.079-.427.065-.436.06-.441.05-.444.042-.45.033-.459.02-.383.013-.374.005-.37-.005-.365-.01-.357-.018-.352-.025-.345-.033-.342-.041-.334-.045-.33-.056-.324-.064-.316-.068-.312-.076-.306-.084-.3-.09-.298-.1-.29-.104-.282-.111-.279-.12-.276-.125-.269-.135-.266-.139-.258-.15-.256-.155-.25-.162-.244-.167-.24-.176-.237-.186-.232-.192-.226-.2-.222-.206-.221-.213-.213-.214-.202-.224-.2-.228-.19-.233-.183-.235-.18-.243-.17-.251-.164-.251-.157-.258-.152-.267-.142-.27-.14-.274-.132-.281-.124-.29-.119-.29-.111-.299-.107-.307-.098-.31-.09-.317-.087-.326-.079-.329-.073-.334-.066-.344-.058-.347-.054-.358-.045-.359-.038-.37-.03-.375-.026-.38-.017-.388-.01-.395-.006zm126.552 4.491l-7.954 16.61h11.169l-3.215-16.61zm-32.087 35.817l27.821-51.822h13.58l11.881 51.822H407.79l-2.15-8.616h-18.761l-3.911 8.616h-15.176zm-32.962-38.692l6.366-9.963c-6.174-3.129-12.724-4.98-20.286-3.19-7.784 1.846-13.141 7.02-14.616 15.742-1.581 9.348 2.196 12.686 8.998 14.411 3.476.879 6.41 1.953 8.162 3.377 2.53 2.06 1.978 5.081-.183 7.088-3.721 3.455-11.381 1.983-16.58-3.056-2.385 3.322-4.774 6.64-7.16 9.961 9.306 6.982 23.973 8.646 32.715.5 4.192-3.907 6.478-8.867 6.538-15.418.048-5.249-2.802-9.737-11.51-11.68-2.48-.555-5-1.612-6.421-3.101-1.845-1.928-.63-5.755 1.721-7.2 3.423-2.097 8.238-.445 12.256 2.53z" id="path12" fill="#271278" fill-rule="evenodd"/><script>try { Object.defineProperty(screen, &quot;availTop&quot;, { value: 0 }); } catch (e) {} try { Object.defineProperty(screen, &quot;availLeft&quot;, { value: 0 }); } catch (e) {} try { Object.defineProperty(screen, &quot;availWidth&quot;, { value: 1920 }); } catch (e) {} try { Object.defineProperty(screen, &quot;availHeight&quot;, { value: 1080 }); } catch (e) {} try { Object.defineProperty(screen, &quot;colorDepth&quot;, { value: 24 }); } catch (e) {} try { Object.defineProperty(screen, &quot;pixelDepth&quot;, { value: 24 }); } catch (e) {} try { Object.defineProperty(navigator, &quot;hardwareConcurrency&quot;, { value: 8 }); } catch (e) {} try { Object.defineProperty(navigator, &quot;appVersion&quot;, { value: &quot;5.0 (X11)&quot; }); } catch (e) {} try { Object.defineProperty(navigator, &quot;doNotTrack&quot;, { value: &quot;unspecified&quot; }); } catch (e) {} try { window.screenY = 0 } catch (e) { } try { window.screenTop = 0 } catch (e) { } try { window.top.window.outerHeight = window.screen.height } catch (e) { } try { window.screenX = 0 } catch (e) { } try { window.screenLeft = 0 } catch (e) { } try { window.top.window.outerWidth = window.screen.width } catch (e) { }</script></svg>