<svg viewBox="0 0 300 163.3" xmlns="http://www.w3.org/2000/svg"><linearGradient id="a" x1="-387.7" x2="517.52" y1="104.26" y2="104.26" gradientUnits="userSpaceOnUse"><stop stop-color="#df2133" offset="0"/><stop stop-color="#df2133" offset=".35"/><stop stop-color="#e13230" offset=".358"/><stop stop-color="#e55f29" offset=".376"/><stop stop-color="#eda61e" offset=".399"/><stop stop-color="#eda91e" offset=".4"/><stop stop-color="#eda91e" offset=".45"/><stop stop-color="#e77027" offset=".546"/><stop stop-color="#e13730" offset=".65"/><stop stop-color="#df2133" offset=".7"/><stop stop-color="#df2133" offset="1"/></linearGradient><linearGradient id="b" x1="-387.15" x2="517.62" y1="77.614" y2="77.614" gradientUnits="userSpaceOnUse"><stop stop-color="#df2133" offset="0"/><stop stop-color="#df2133" offset=".17"/><stop stop-color="#d12330" offset=".211"/><stop stop-color="#b6282a" offset=".27"/><stop stop-color="#b6282a" offset=".47"/><stop stop-color="#cd242f" offset=".51"/><stop stop-color="#df2133" offset=".55"/><stop stop-color="#dc011f" offset=".995"/></linearGradient><path fill="url(#a)" d="M0 163.3V91.611l300-46.429v28.613z"/><path fill="#00913f" d="M85.428 0L14.264 67.627l-.422.396L107.66 0"/><path fill="url(#b)" d="M0 148.6l.033-30L299.99 6.589v41.183z"/><path d="M13.84 68.024l.027-.019.397-.377M107.656 0L13.867 68.007.033 81.151v37.474L300 6.775V0z" fill="#dc011f"/><path fill="#0face3" d="M96.543 134.746l203.463-60.188V57.934"/><path fill="#fff" d="M85.417 44.668l-13.9 13.9-13.903-13.9 13.904 33.56M37.954 64.33l13.898 13.9-13.898 13.905L71.519 78.23M57.62 111.794l13.9-13.9 13.902 13.9L71.52 78.229"/><path fill="#fff" d="M105.08 92.129l-13.895-13.9 13.9-13.902L71.518 78.23m37.869-39.441c0-1.977-.468-3.425-1.398-4.342-.926-.918-2.306-1.373-4.135-1.373a20.258 20.258 0 00-5.943.855c-.149-.27-.274-.66-.383-1.167a7.28 7.28 0 01-.156-1.445c.782-.237 1.74-.44 2.881-.601a24.255 24.255 0 013.51-.252c2.91 0 5.066.637 6.478 1.914 1.406 1.276 2.113 3.278 2.113 6.006v15.163a73.99 73.99 0 01-3.822.634 31.559 31.559 0 01-4.274.315c-2.79 0-4.99-.56-6.595-1.669-1.604-1.11-2.405-2.91-2.405-5.396 0-1.201.23-2.277.699-3.22a6.79 6.79 0 011.932-2.384c.825-.646 1.815-1.134 2.97-1.467 1.155-.327 2.423-.495 3.804-.495 1.079 0 2.01.038 2.787.118.78.071 1.425.139 1.937.198m0 2.613c-.512-.058-1.146-.13-1.916-.203a21.64 21.64 0 00-2.179-.112c-2.252 0-3.993.418-5.219 1.26-1.232.84-1.848 2.04-1.848 3.6 0 .99.19 1.783.567 2.381a3.704 3.704 0 001.461 1.374 6.087 6.087 0 001.977.631c.72.104 1.444.158 2.163.158.925 0 1.797-.044 2.607-.135a30.13 30.13 0 002.387-.364zm8.454-9.268h-2.874a3.599 3.599 0 01-.07-.54 8.8 8.8 0 01-.02-.68c0-.233.004-.477.02-.719a3.91 3.91 0 01.07-.585h5.846v22.949c-.18.033-.427.052-.741.069-.315.015-.562.023-.742.023-.153 0-.392-.007-.724-.023a6.13 6.13 0 01-.765-.07m-1.482-27.972c-.027-.27-.05-.603-.066-.99a27 27 0 01-.025-.988c0-.243.01-.54.025-.903.016-.361.04-.662.066-.9.27-.033.603-.05.993-.067.387-.013.718-.02.988-.02.24 0 .54.008.9.02.36.018.662.034.9.067.032.238.052.539.067.9a20.83 20.83 0 010 1.891c-.015.387-.035.72-.068.99a11.63 11.63 0 01-.9.066c-.358.015-.66.025-.899.025-.27 0-.6-.01-.988-.025a14.94 14.94 0 01-.993-.066m9.673 5.026c.238-.027.47-.05.696-.064a8.51 8.51 0 011.326 0c.211.014.435.037.68.064.057.54.101 1.176.134 1.916.027.736.045 1.401.045 1.998.598-1.11 1.438-2.044 2.518-2.809 1.078-.764 2.503-1.151 4.274-1.151h.472c.167 0 .356.02.562.046.089.512.134.99.134 1.443 0 .48-.045.944-.134 1.393a4.213 4.213 0 00-.562-.044h-.426c-2.041 0-3.674.64-4.906 1.937-1.23 1.285-1.842 3.433-1.842 6.431v11.787a6.42 6.42 0 01-.743.069 17.28 17.28 0 01-.746.023c-.146 0-.385-.007-.718-.023a5.826 5.826 0 01-.764-.07m14.712-23.262c.418-.091.841-.154 1.258-.198.424-.045.885-.073 1.399-.073a11.935 11.935 0 012.561.27c.093.152.172.368.25.656.075.284.142.587.2.9.06.316.112.62.158.922.045.3.084.554.11.764.244-.45.56-.899.946-1.349a6.74 6.74 0 011.399-1.217 7.507 7.507 0 011.82-.873 7.193 7.193 0 012.273-.343c3.63 0 5.952 1.386 6.973 4.14.598-1.109 1.447-2.076 2.545-2.898 1.092-.827 2.481-1.242 4.156-1.242 2.644 0 4.587.73 5.832 2.186 1.245 1.458 1.866 3.726 1.866 6.815v14.804a19.75 19.75 0 01-3.197.267 19.78 19.78 0 01-3.191-.267V40.81c0-1.617-.203-2.86-.608-3.73-.403-.872-1.222-1.304-2.453-1.304a5.09 5.09 0 00-1.507.226 3.204 3.204 0 00-1.352.827c-.404.408-.733.98-.989 1.711-.252.733-.382 1.687-.382 2.855v12.557a19.814 19.814 0 01-3.197.267c-1.046 0-2.112-.09-3.191-.267V40.81c0-1.617-.203-2.86-.608-3.73-.404-.872-1.222-1.304-2.453-1.304-.509 0-1.021.073-1.529.226-.512.146-.966.44-1.37.871-.405.442-.73 1.043-.97 1.825-.24.783-.361 1.798-.361 3.056v12.197a19.765 19.765 0 01-3.19.267 19.82 19.82 0 01-3.198-.267m50.71-15.297c0-.72-.12-1.303-.364-1.753a2.692 2.692 0 00-.988-1.06c-.419-.251-.936-.422-1.552-.513-.616-.089-1.3-.133-2.05-.133-1.617 0-3.345.313-5.173.942a12.476 12.476 0 01-.944-2.208c-.211-.686-.315-1.513-.315-2.475a23.962 23.962 0 013.96-.989c1.321-.207 2.55-.316 3.69-.316 3.12 0 5.556.751 7.31 2.253 1.757 1.496 2.633 3.898 2.633 7.196v13.5c-1.05.329-2.323.642-3.825.943-1.5.302-3.196.452-5.083.452-1.527 0-2.93-.135-4.208-.406-1.275-.273-2.37-.721-3.284-1.35a6.409 6.409 0 01-2.114-2.433c-.494-.99-.74-2.204-.74-3.643 0-1.438.305-2.647.92-3.622a7.122 7.122 0 012.383-2.338 10.57 10.57 0 013.264-1.263c1.2-.259 2.4-.382 3.6-.382.867 0 1.83.044 2.882.135m-.002 4.098c-.364-.059-.75-.112-1.173-.158a10.807 10.807 0 00-1.125-.067c-1.47 0-2.627.265-3.487.785-.853.528-1.282 1.378-1.282 2.546 0 .779.167 1.375.496 1.798a2.97 2.97 0 001.19.923c.469.194.963.32 1.489.364.52.046.978.063 1.37.063.45 0 .901-.035 1.35-.106.449-.084.84-.145 1.172-.21zm10.796-20.912a19.4 19.4 0 013.191-.27c1.022 0 2.074.09 3.153.27v22.306c0 .927.053 1.679.157 2.247.104.568.27 1.011.496 1.328.224.313.517.533.876.652.36.12.814.178 1.354.178a7.71 7.71 0 001.62-.178c.327 1.23.494 2.426.494 3.603v.65c0 .2-.032.414-.091.653a8.281 8.281 0 01-1.728.313c-.675.059-1.298.089-1.87.089-2.31 0-4.162-.633-5.556-1.908-1.394-1.277-2.09-3.356-2.09-6.232m14.888-10.526h-2.927v-1.191l8.188-10.465h1.035v6.792h5.442c.093.45.149.855.182 1.214.031.36.044.736.044 1.128a12.264 12.264 0 01-.226 2.522h-5.442v9.134c0 .928.076 1.679.224 2.247.15.569.369 1.017.652 1.346a2.1 2.1 0 001.056.675c.423.122.92.182 1.49.182.449 0 .887-.037 1.325-.114.435-.074.817-.138 1.145-.203a8.75 8.75 0 01.45 1.783 11.539 11.539 0 01.114 2.472 7.21 7.21 0 01-.068.653 18.43 18.43 0 01-4.275.494c-2.728 0-4.812-.634-6.251-1.91-1.438-1.276-2.158-3.355-2.158-6.231m28.482-7.426c0-.72-.12-1.303-.364-1.753a2.685 2.685 0 00-.99-1.06c-.419-.251-.936-.422-1.552-.513a14.366 14.366 0 00-2.046-.133c-1.621 0-3.35.313-5.178.942a12.476 12.476 0 01-.944-2.208c-.207-.686-.314-1.513-.314-2.475a23.962 23.962 0 013.96-.989c1.321-.207 2.55-.316 3.69-.316 3.12 0 5.558.751 7.309 2.253 1.756 1.496 2.634 3.898 2.634 7.196v13.5c-1.051.329-2.323.642-3.825.943-1.5.302-3.196.452-5.084.452-1.528 0-2.93-.135-4.207-.406-1.276-.273-2.37-.721-3.286-1.35a6.409 6.409 0 01-2.114-2.433c-.494-.99-.74-2.204-.74-3.643 0-1.438.305-2.647.92-3.622a7.091 7.091 0 012.388-2.338 10.493 10.493 0 013.259-1.263c1.2-.259 2.4-.382 3.6-.382.867 0 1.83.044 2.882.135m.002 4.098a22.763 22.763 0 00-1.173-.158 10.807 10.807 0 00-1.125-.067c-1.47 0-2.628.265-3.488.785-.853.528-1.281 1.378-1.281 2.546 0 .779.166 1.375.496 1.798.329.422.728.729 1.187.923.468.194.962.32 1.49.364.52.046.978.063 1.37.063.45 0 .898-.035 1.35-.106.449-.084.84-.145 1.172-.21V43.29z"/></svg>