<svg xmlns="http://www.w3.org/2000/svg" width="140" height="175"><g stroke="#000"><path d="M102.554 82.566c.809-2.168 3.917-.473 3.437 3.375.191 5.314-2.087 10.08-3.062 12.063-1.724 2.692-3.973 1.362-4.438-.438-.25-.916-.75-2.041-.5-3.625 1.378-3.645 3.481-6.399 4.563-11.375z" fill="#fff"/><path d="M105.408 141.154c.02-.338-1.235 3.649-5.42-.124-1.767-2.109-1.768-3.2-2.29-4.591-.26-1.502.369-1.802 1.013-2.174.545-.244 1.095-.457 1.673-.488 1.324-.12 2.113 1.062 3.085 1.8.95 1.228 2.993 1.067 2.646 3.2-.033 1.804.199 1.28-.707 2.377z" fill="#fff" stroke-width=".871"/><path d="M109.894 138.555c-.063-.333-.306 3.84-5.286 1.204-2.228-1.615-2.495-2.672-3.341-3.894-.619-1.393-.083-1.837.451-2.355.47-.37.95-.71 1.503-.882 1.255-.44 2.309.514 3.431.992 1.222.958 3.163.304 3.348 2.457.408 1.758.505 1.193-.106 2.478z" fill="#fff" stroke-width=".871"/><path d="M113.746 136.064c-.142-.307.634 3.8-4.837 2.45-2.553-1.025-3.068-1.986-4.185-2.966-.938-1.201-.968-2.315-.576-2.947.366-.472 1.192-.367 1.686-.668 1.111-.73 2.364-.061 3.57.13 1.417.634 3.142-.472 3.843 1.572.823 1.606.78 1.034.5 2.429z" fill="#fff" stroke-width=".871"/><path d="M117.746 133.064c-.142-.307.634 3.8-4.837 2.45-2.553-1.025-3.068-1.986-4.185-2.966-.938-1.201-.526-1.762-.134-2.394.366-.473.75-.92 1.244-1.22 1.111-.73 2.364-.062 3.57.13 1.417.633 3.142-.473 3.843 1.57.823 1.607.78 1.035.5 2.43z" fill="#fff" stroke-width=".871"/><path d="M122.22 127.436c-.217-.26 1.59 3.508-4.043 3.613-2.73-.333-3.477-1.129-4.809-1.788-1.215-.92-1.713-1.258-1.497-1.97.232-.55 1.239-1.391 1.639-1.809.797-2.229 2.269-.668 3.482-.793 1.534.246 2.915-1.266 4.12.528.987 1.473.621.799 1.107 2.219z" fill="#fff" stroke-width=".871"/><path d="M123.547 119.861c-.299-.16 2.792 2.654-2.39 4.868-2.655.717-3.646.26-5.128.148-1.471-.395-1.48-1.09-1.547-1.831.008-.598.045-1.186.26-1.724.448-1.251 1.851-1.471 2.929-2.043 1.514-.348 2.226-2.268 4.016-1.058 1.623.789 1.245.358 1.86 1.64z" fill="#fff" stroke-width=".871"/><path d="M124.89 111.61c-.38-.08 3.931 2.028-1.07 6.134-2.697 1.644-3.936 1.458-5.605 1.812-1.75.037-1.982-.727-2.294-1.522-.184-.661-.331-1.322-.268-1.983.092-1.524 1.568-2.218 2.573-3.195 1.557-.869 1.725-3.215 4.087-2.456 2.043.348 1.487-.006 2.577 1.21z" fill="#fff"/><path d="M123.415 105.54c-.453-.106 4.336.877.647 6.192-2.147 2.318-3.39 2.477-4.899 3.274-1.569.419-1.937-.369-2.622-.838l-.8-1.835c-.327-1.491.904-2.561 1.603-3.775 1.261-1.261.782-3.564 3.262-3.479.728-.118.678-.352 2.81.46z" fill="#fff"/><path d="M94.853 123.516c5.208 4.193 19.731-11.965 5.25-20.125l-6.625-2.375c-6.565-3.835-1.495-12.29.375-18.75-.854-3.995.979-10.813 2.125-9.125 1.988-11.604 2.885-10.394 3.625-10.5 4.75-17.125 3.857-35.438 2.375-53.875-1.29-4.303 8.897-6.748 10.625 6.5.49-1.042 11.113-3.52 11.25 13.125 2.383-2.48 9.799-1.528 9 19.875 7.388-.305 4.54 12.67 1.5 24.75 4.915-3.332 3.866 6.097 1.125 13.125.93-.932 5.741 3.942-.875 13.75.643 2.631 3.686 1.848-.846 10.264 1.637 1.105 4.35 1.954-1.404 9.486 3.805 1.691-1.09 7.796-2.875 8.25 3.98 2.238-.688 6.698-2.994 7.37 2.27.772.3 6.939-4.082 6.436 1.823 2.736-.208 5.513-3.712 5.459 1.806 3.2-3.047 5.113-4.962 4.735.621 3.61-4.067 4.976-6.875 4.625.135 4.444-9.504 3.304-9.75 2.875-.771 1.335-4.84 1.78-6.625-1.125l.25-33.5zm17.694-108.784c2.8 20.328-2.314 37.756-6.243 55.522m17.537-41.979c1.16 21.897-7.44 37.684-11.537 49.104m20.17-28.951c-2.815 18.267-9.844 25.7-15.733 36.062m17.147-10.96c-4.336 8.77-11.03 14.403-16.287 19.031m17.525-5.949c-5.299 7.577-9.575 10.041-13.966 13.081" fill="none"/><path d="M121.66 97.868c1.174.417 1.821 1.808.728 6.417-1.847 2.563-3.06 2.873-4.461 3.847-1.507.608-1.969-.128-2.705-.51l-1.018-1.723c-.508-1.44.583-2.653 1.129-3.943 1.097-1.406 1.628-3.302 4.1-3.52.708-.206.01-1.114 2.226-.568z" fill="#fff"/><path d="M119.491 91.379c1.222.247 2.06 1.533 1.625 6.25-1.467 2.797-2.625 3.275-3.875 4.437-1.405.814-1.966.15-2.75-.125l-1.25-1.562c-.705-1.354.204-2.709.563-4.063.888-1.546 1.147-3.498 3.562-4.062.673-.304-.145-1.104 2.125-.875z" fill="#fff"/><path d="M113.866 84.066c3.88-2.057 4.601 1.104 4.688 5.313.053 1.365-.449 2.176-.875 3.062-1.172 2.615-3.11 3.597-3.813 3.688-3.003-.029-3.773-2.066-3.625-4.25l.875-2.313 2.438-5.187h0" fill="#fff"/><path d="M111.998 75.628c.876.265 2.657 2.363 2.945 5.752-.379 5.498-.826 4.704-1.273 7.019-1.17 3.446-3.332 1.264-3.856.568-1.237-1.937-1.428-3.84-.813-5.67l1.516-6.464c.432-1.403.952-1.382 1.481-1.205z" fill="#fff" stroke-width=".909"/><path d="M107.46 70.658c1.04.2 2.196 1.516 2.784 4.993.23 3.337-.534 5.658-1.016 7.933-1.105 3.66-2.433 1.933-3.096 1.258-.336-2.303-2.669-2.004-2.089-3.946l1.782-8.868c.398-1.486 1.005-1.509 1.635-1.37z" fill="#fff"/><path d="M103.571 66.15c1.04.2 2.196 1.516 2.784 4.994-.03 5.711-.669 5.128-1.016 7.557-1.105 3.66-2.652 2.09-3.315 1.414-1.585-1.897-1.95-3.847-1.37-5.79l1.282-6.805c.398-1.486 1.005-1.509 1.635-1.37z" fill="#fff"/><path d="M99.505 62.35c1.04.2 2.196 1.515 2.784 4.993-.03 5.712-.669 5.128-1.016 7.557-1.105 3.66-2.652 2.09-3.315 1.414-1.585-1.897-1.95-3.847-1.37-5.789l1.282-6.806c.398-1.486 1.005-1.508 1.635-1.37z" fill="#fff"/><path d="M134.419 99.826c-3.294 4.091-5.633 5.98-9.458 7.513m9.413 1.458c-2.235 3.368-5.766 4.94-8.414 5.11m6.381 5.85c-3.951 2.63-6.391 3.093-8.706 2.917m5.657 5.215c-2.533.577-4.184.91-7.425.663m4.906 6.673c-4.964.67-6.999-.225-9.148-2.254m5.701 8.795c-4.798-.038-7.53-3.104-10.563-6.32m6.011 11.667c-4.877-1.167-7.806-3.179-10.563-6.938m6.099 11.888c-4.934-1.714-8.85-5.345-11.667-9.413m4.685 14.01c-5.249-3.192-7.53-6.417-10.12-11.226l-.222-.353m.265 14.23c-3.155-3.485-4.843-8.634-6.54-12.905" fill="none"/><path d="M94.113 74.414c.582-.796.61-1.243 2.21-1.59 1.073.08 1.884 1.075 2.652 2.562.58 2.41-.887 5.73-1.68 8.75-.886-.068-1.23 1.026-3.182-1.325-1.03-1.403-1.633-2.959 0-8.397z" fill="#fff"/><path d="M99.682 92.534C98.365 94.85 97.11 93.674 97 90.85c-.167-2.3-.378-4.895.649-10.249-.054-4.332 5.354-7.034 4.685 1.768-.122 4.024-1.492 7.965-2.652 10.165z" fill="#fff"/><path d="M94.569 146.791c.18-.287-2.838 2.605-4.693-2.716-.534-2.699-.01-3.656.202-5.126.495-1.442 1.19-1.403 1.933-1.419.596.049 1.18.126 1.702.377 1.218.532 1.342 1.948 1.839 3.062.242 1.534 2.11 2.376.78 4.079-.897 1.565-.442 1.217-1.763 1.743z" fill="#fff" stroke-width=".871"/><path d="M99.37 144.175c-1.062.8-3.16 2.707-5.285-1.211-1.306-2.422-1.087-3.49-1.318-4.959.048-1.523.723-1.69 1.43-1.925.582-.13 1.164-.227 1.736-.142.95-.08 1.15-2.724 1.39.259.198 1.571 2.612 4.96 3.218 5.792-.064.877-.063 1.294-1.17 2.186z" fill="#fff" stroke-width=".871"/><path d="M90.305 127.366c.906 3.462 19.813-1.718 19.622-16.617-.446-4.336-2.096-6.95-7.859-10.349-5.907-2.304-4.91-9.484-5.48-15.556l-2.651-2.121h0" fill="none" stroke-width=".6"/><path d="M101.008 99.782c2.762-2.723 4.838-7.566 5.48-13.347 3.114-1.407 4.757 1.409 4.374 4.898-.612 5.73-3.047 9.562-5.877 10.481z" fill="#fff"/><path d="M105.013 101.85c3.212-2.223 4.963-5.795 6.2-10.924 3.463-1.018 4.161 1.463 3.42 4.558-1.2 5.086-4.167 6.41-6.491 9.103z" fill="#fff" stroke-width=".982"/><path d="M108.179 104.629c1.184-1.6 3.081-2.07 5-5.125 2.162.228 4.817 1.546 3.038 7.029-1.917 2.487-3.966 3.426-5.883 3.596-.669-2.9-1.888-4.643-2.155-5.5z" fill="#fff"/><path d="M109.932 109.102c2.146-.125 3.638-.735 6.579-2.825 1.91 1.038 3.163 3.221-.577 7.608-2.721 1.566-4.237 1.497-6.073.92.423-2.598.167-4.852.07-5.703z" fill="#fff"/><path d="M109.831 113.652c2.088.51 3.694.365 7.119-.77 1.522 1.553 2.344 3.3-2.519 6.396-3.061.698-4.29-.365-5.875-1.455 1.5-2.374.935-3.34 1.275-4.171z" fill="#fff"/><path d="M109.281 116.955c1.93.948 3.529 1.152 7.117.781 1.152 1.844 1.167 4.361-4.248 6.337-3.14.023-4.09-1.84-5.405-3.245 1.503-2.175 1.937-3.09 2.536-3.873z" fill="#fff"/><path d="M106.874 120.764c1.636 1.395 3.489 2.12 7.058 2.647.66 2.071.054 4.514-5.68 5.092-3.05-.753-4.17-2.66-5.096-4.347 2.14-1.457 3.04-2.802 3.718-3.392z" fill="#fff"/><path d="M103.713 124.212c1.292 1.717 2.626 2.623 5.994 3.916.194 2.165-.931 4.417-6.655 3.73-2.81-1.4-3.885-3.142-4.422-4.99 3.206.129 4.293-2.228 5.083-2.656z" fill="#fff"/><path d="M99.05 126.59c.834 1.982 1.907 3.186 4.858 5.261-.341 2.147-1.982 4.056-7.364 1.994-2.384-2.044-2.87-3.51-2.938-5.432 2.458-.331 4.574-1.6 5.444-1.822z" fill="#fff"/><path d="M94.015 128.67c.335 2.123 1.088 3.549 3.456 6.27-.846 2.004-2.895 3.464-7.627.173-1.826-2.555-1.958-4.598-1.564-6.481 2.77 1.617 4.836.045 5.735.038z" fill="#fff"/></g><path d="M94.09 127.989c.554-.114 1.244-.269 1.613-.398.92-.325 1.613-.53 1.977-.686.2-.082.318-.12.525-.202.284-.112.355-.125.665-.246.434-.17.514-.197.623-.256.22-.085.747-.235 2.16-1.158.662-.432.764-.522 1.186-.932.376-.282.604-.431.997-.843a75.08 75.08 0 011.424-1.413c.833-.805 1.07-1.196 1.829-2.339.504-.76.708-1.108.908-1.488.135-.256.225-.355.394-.657.389-.696.848-2.055.933-2.805.036-.316.155-.91.18-1.138.063-.586.203-2.326.079-3.393-.279-2.395-1.23-4.614-2.988-6.284-1.304-1.239-2.822-2.184-4.652-3.09-.924-.458-1.96-.868-2.22-.979a2.973 2.973 0 01-1.456-1.447c-.112-.25-.298-.868-.427-1.347-.13-.48-.31-1.207-.427-1.617a20.635 20.635 0 01-.398-1.698c-.096-.53-.257-1.507-.304-1.685-.154-.583-.283-2.17-.316-4.496-.021-1.525.012-2.367-.055-2.447-.055-.067-.348-.181-.502-.215-.414-.089-.853-.482-1.325-.905l-.889-.797-.805 2.097c-2.404 6.257-2.543 7.981-2.543 10.192-.001 2.173 1.033 3.882 2.558 5.03.535.403.927.703 3.931 1.776 2.55.91 3.757 1.59 4.338 1.937 5.178 3.097 6.355 7.548 4.416 12.785-1.58 4.265-5.104 7.318-8.472 7.575-.816.063-1.398-.005-1.94-.325l-.387-.131-.764.163c-.429.091-1.312.37-1.825.624l-.883.44v2.636l.132.225c.506.14 1.488.165 2.6-.063z" fill="#fff"/><g stroke="#000"><path d="M38.582 82.566c-.809-2.168-3.917-.473-3.437 3.375-.191 5.314 2.087 10.08 3.062 12.063 1.725 2.692 3.973 1.362 4.438-.438.25-.916.75-2.041.5-3.625-1.378-3.645-3.481-6.399-4.563-11.375z" fill="#fff"/><path d="M35.728 141.154c-.02-.338 1.235 3.649 5.42-.124 1.767-2.109 1.768-3.2 2.29-4.591.26-1.502-.369-1.802-1.013-2.174-.545-.244-1.095-.457-1.673-.488-1.324-.12-2.113 1.062-3.085 1.8-.95 1.228-2.993 1.067-2.646 3.2.034 1.804-.199 1.28.707 2.377z" fill="#fff" stroke-width=".871"/><path d="M31.242 138.555c.063-.333.307 3.84 5.286 1.204 2.228-1.615 2.496-2.672 3.341-3.894.619-1.393.083-1.837-.45-2.355-.47-.37-.951-.71-1.504-.882-1.255-.44-2.309.514-3.43.992-1.223.958-3.164.304-3.349 2.457-.408 1.758-.505 1.193.106 2.478z" fill="#fff" stroke-width=".871"/><path d="M27.39 136.064c.142-.307-.634 3.8 4.837 2.45 2.553-1.025 3.068-1.986 4.185-2.966.938-1.201.968-2.315.576-2.947-.366-.472-1.192-.367-1.686-.668-1.111-.73-2.364-.061-3.57.13-1.417.634-3.142-.472-3.843 1.572-.822 1.606-.78 1.034-.5 2.429z" fill="#fff" stroke-width=".871"/><path d="M23.39 133.064c.142-.307-.634 3.8 4.837 2.45 2.553-1.025 3.068-1.986 4.185-2.966.938-1.201.526-1.762.134-2.394-.365-.473-.75-.92-1.244-1.22-1.111-.73-2.364-.062-3.57.13-1.417.633-3.142-.473-3.843 1.57-.822 1.607-.78 1.035-.5 2.43z" fill="#fff" stroke-width=".871"/><path d="M18.917 127.436c.216-.26-1.592 3.508 4.042 3.613 2.731-.333 3.477-1.129 4.809-1.788 1.215-.92 1.713-1.258 1.497-1.97-.232-.55-1.239-1.391-1.639-1.809-.797-2.229-2.269-.668-3.482-.793-1.534.246-2.915-1.266-4.12.528-.987 1.473-.621.799-1.107 2.219z" fill="#fff" stroke-width=".871"/><path d="M17.59 119.861c.298-.16-2.793 2.654 2.388 4.868 2.657.717 3.647.26 5.129.148 1.471-.395 1.48-1.09 1.547-1.831-.008-.598-.045-1.186-.26-1.724-.448-1.251-1.851-1.471-2.929-2.043-1.514-.348-2.226-2.268-4.016-1.058-1.623.789-1.244.358-1.86 1.64z" fill="#fff" stroke-width=".871"/><path d="M16.246 111.61c.38-.08-3.931 2.028 1.07 6.134 2.697 1.644 3.936 1.458 5.605 1.812 1.75.037 1.982-.727 2.294-1.522.184-.661.331-1.322.268-1.983-.092-1.524-1.568-2.218-2.572-3.195-1.558-.869-1.726-3.215-4.088-2.456-2.042.348-1.487-.006-2.577 1.21z" fill="#fff"/><path d="M17.72 105.54c.454-.106-4.335.877-.645 6.192 2.146 2.318 3.388 2.477 4.898 3.274 1.569.419 1.937-.369 2.622-.838l.8-1.835c.327-1.491-.904-2.561-1.603-3.775-1.261-1.261-.782-3.564-3.261-3.479-.729-.118-.679-.352-2.81.46z" fill="#fff"/><path d="M46.283 123.516c-5.208 4.193-19.731-11.965-5.25-20.125l6.625-2.375c6.565-3.835 1.495-12.29-.375-18.75.854-3.995-.979-10.813-2.125-9.125-1.987-11.604-2.884-10.394-3.625-10.5-4.75-17.125-3.857-35.438-2.375-53.875 1.29-4.303-8.897-6.748-10.625 6.5-.49-1.042-11.113-3.52-11.25 13.125-2.383-2.48-9.799-1.528-9 19.875-7.388-.305-4.54 12.67-1.5 24.75-4.915-3.332-3.866 6.097-1.125 13.125-.93-.932-5.74 3.942.875 13.75-.643 2.631-3.686 1.848.846 10.264-1.637 1.105-4.349 1.954 1.404 9.486-3.805 1.691 1.09 7.796 2.875 8.25-3.98 2.238.688 6.698 2.994 7.37-2.27.772-.3 6.939 4.082 6.436-1.823 2.736.208 5.513 3.712 5.459-1.806 3.2 3.047 5.113 4.962 4.735-.621 3.61 4.068 4.976 6.875 4.625-.135 4.444 9.504 3.304 9.75 2.875.772 1.335 4.84 1.78 6.625-1.125l-.25-33.5zM28.589 14.732c-2.8 20.328 2.314 37.756 6.243 55.522M17.295 28.275c-1.16 21.897 7.44 37.684 11.537 49.104M8.662 48.428c2.815 18.267 9.844 25.7 15.733 36.062M7.248 73.53c4.336 8.77 11.03 14.403 16.287 19.031M6.01 86.612c5.299 7.577 9.575 10.041 13.966 13.081" fill="none"/><path d="M19.477 97.868c-1.175.417-1.822 1.808-.729 6.417 1.847 2.563 3.06 2.873 4.461 3.847 1.507.608 1.969-.128 2.705-.51l1.018-1.723c.508-1.44-.583-2.653-1.129-3.943-1.097-1.406-1.628-3.302-4.099-3.52-.709-.206-.012-1.114-2.227-.568z" fill="#fff"/><path d="M21.645 91.379c-1.222.247-2.059 1.533-1.625 6.25 1.467 2.797 2.625 3.275 3.875 4.437 1.405.814 1.966.15 2.75-.125l1.25-1.562c.705-1.354-.204-2.709-.563-4.063-.888-1.546-1.146-3.498-3.562-4.062-.673-.304.145-1.104-2.125-.875z" fill="#fff"/><path d="M27.27 84.066c-3.88-2.057-4.601 1.104-4.688 5.313-.053 1.365.449 2.176.875 3.062 1.172 2.615 3.11 3.597 3.813 3.688 3.003-.029 3.773-2.066 3.625-4.25l-.875-2.313-2.438-5.187h0" fill="#fff"/><path d="M29.138 75.628c-.876.265-2.657 2.363-2.945 5.752.379 5.498.826 4.704 1.273 7.019 1.17 3.446 3.332 1.264 3.856.568 1.237-1.937 1.428-3.84.813-5.67l-1.516-6.464c-.431-1.403-.951-1.382-1.481-1.205z" fill="#fff" stroke-width=".909"/><path d="M33.676 70.658c-1.04.2-2.196 1.516-2.784 4.993-.23 3.337.534 5.658 1.016 7.933 1.105 3.66 2.433 1.933 3.096 1.258.336-2.303 2.669-2.004 2.089-3.946l-1.782-8.868c-.398-1.486-1.005-1.509-1.635-1.37z" fill="#fff"/><path d="M37.565 66.15c-1.04.2-2.196 1.516-2.784 4.994.03 5.711.669 5.128 1.016 7.557 1.105 3.66 2.652 2.09 3.315 1.414 1.585-1.897 1.95-3.847 1.37-5.79L39.2 67.52c-.398-1.486-1.005-1.509-1.635-1.37z" fill="#fff"/><path d="M41.63 62.35c-1.04.2-2.195 1.515-2.783 4.993.03 5.712.669 5.128 1.016 7.557 1.105 3.66 2.652 2.09 3.315 1.414 1.585-1.897 1.95-3.847 1.37-5.789l-1.282-6.806c-.398-1.486-1.005-1.508-1.635-1.37z" fill="#fff"/><path d="M6.718 99.826c3.294 4.091 5.632 5.98 9.457 7.513m-9.413 1.458c2.235 3.368 5.767 4.94 8.414 5.11m-6.381 5.85c3.951 2.63 6.391 3.093 8.706 2.917m-5.657 5.215c2.533.577 4.184.91 7.425.663m-4.906 6.673c4.964.67 6.999-.225 9.148-2.254m-5.701 8.795c4.798-.038 7.53-3.104 10.563-6.32m-6.011 11.667c4.877-1.167 7.806-3.179 10.563-6.938m-6.099 11.888c4.934-1.714 8.851-5.345 11.667-9.413m-4.684 14.01c5.248-3.192 7.53-6.417 10.12-11.226l.221-.353m-.265 14.23c3.155-3.485 4.843-8.634 6.54-12.905" fill="none"/><path d="M47.023 74.414c-.582-.796-.61-1.243-2.21-1.59-1.073.08-1.884 1.075-2.652 2.562-.58 2.41.887 5.73 1.68 8.75.886-.068 1.23 1.026 3.182-1.325 1.03-1.403 1.633-2.959 0-8.397z" fill="#fff"/><path d="M41.454 92.534c1.317 2.317 2.572 1.14 2.682-1.684.167-2.3.378-4.895-.649-10.249.054-4.332-5.354-7.034-4.685 1.768.122 4.024 1.492 7.965 2.652 10.165z" fill="#fff"/><path d="M46.567 146.791c-.18-.287 2.838 2.605 4.693-2.716.534-2.699.01-3.656-.202-5.126-.495-1.442-1.19-1.403-1.933-1.419-.596.049-1.18.126-1.702.377-1.218.532-1.341 1.948-1.838 3.062-.243 1.534-2.11 2.376-.781 4.079.897 1.565.442 1.217 1.763 1.743z" fill="#fff" stroke-width=".871"/><path d="M41.766 144.175c1.062.8 3.16 2.707 5.285-1.211 1.306-2.422 1.087-3.49 1.318-4.959-.048-1.523-.723-1.69-1.429-1.925-.583-.13-1.165-.227-1.737-.142-.95-.08-1.15-2.724-1.39.259-.198 1.571-2.612 4.96-3.218 5.792.065.877.063 1.294 1.17 2.186z" fill="#fff" stroke-width=".871"/><path d="M50.83 127.366c-.904 3.462-19.812-1.718-19.621-16.617.446-4.336 2.096-6.95 7.859-10.349 5.907-2.304 4.91-9.484 5.48-15.556l2.651-2.121h0" fill="none" stroke-width=".6"/><path d="M40.128 99.782c-2.762-2.723-4.837-7.566-5.48-13.347-3.114-1.407-4.757 1.409-4.374 4.898.612 5.73 3.047 9.562 5.877 10.481z" fill="#fff"/><path d="M36.123 101.85c-3.212-2.223-4.963-5.795-6.2-10.924-3.463-1.018-4.161 1.463-3.42 4.558 1.2 5.086 4.167 6.41 6.491 9.103z" fill="#fff" stroke-width=".982"/><path d="M32.957 104.629c-1.184-1.6-3.081-2.07-5-5.125-2.162.228-4.817 1.546-3.038 7.029 1.917 2.487 3.966 3.426 5.883 3.596.669-2.9 1.888-4.643 2.155-5.5z" fill="#fff"/><path d="M31.204 109.102c-2.145-.125-3.638-.735-6.579-2.825-1.91 1.038-3.163 3.221.577 7.608 2.721 1.566 4.237 1.497 6.073.92-.423-2.598-.167-4.852-.07-5.703z" fill="#fff"/><path d="M31.305 113.652c-2.088.51-3.694.365-7.119-.77-1.522 1.553-2.343 3.3 2.519 6.396 3.061.698 4.29-.365 5.875-1.455-1.5-2.374-.935-3.34-1.275-4.171z" fill="#fff"/><path d="M31.855 116.955c-1.93.948-3.529 1.152-7.117.781-1.152 1.844-1.167 4.361 4.248 6.337 3.14.023 4.09-1.84 5.405-3.245-1.503-2.175-1.937-3.09-2.536-3.873z" fill="#fff"/><path d="M34.262 120.764c-1.636 1.395-3.489 2.12-7.058 2.647-.66 2.071-.054 4.514 5.68 5.092 3.05-.753 4.17-2.66 5.096-4.347-2.14-1.457-3.04-2.802-3.718-3.392z" fill="#fff"/><path d="M37.423 124.212c-1.292 1.717-2.626 2.623-5.994 3.916-.193 2.165.932 4.417 6.655 3.73 2.81-1.4 3.885-3.142 4.422-4.99-3.206.129-4.293-2.228-5.083-2.656z" fill="#fff"/><path d="M42.086 126.59c-.834 1.982-1.907 3.186-4.858 5.261.341 2.147 1.982 4.056 7.364 1.994 2.384-2.044 2.87-3.51 2.938-5.432-2.458-.331-4.574-1.6-5.444-1.822z" fill="#fff"/><path d="M47.122 128.67c-.336 2.123-1.089 3.549-3.457 6.27.846 2.004 2.895 3.464 7.628.173 1.825-2.555 1.957-4.598 1.563-6.481-2.77 1.617-4.836.045-5.734.038z" fill="#fff"/></g><path d="M47.046 127.989c-.554-.114-1.244-.269-1.613-.398-.92-.325-1.613-.53-1.977-.686-.2-.082-.318-.12-.525-.202-.284-.112-.355-.125-.665-.246-.434-.17-.514-.197-.623-.256-.22-.085-.747-.235-2.16-1.158-.662-.432-.764-.522-1.186-.932-.376-.282-.604-.431-.997-.843a75.08 75.08 0 00-1.424-1.413c-.833-.805-1.07-1.196-1.829-2.339-.504-.76-.708-1.108-.908-1.488-.135-.256-.225-.355-.394-.657-.389-.696-.848-2.055-.933-2.805-.036-.316-.155-.91-.18-1.138-.063-.586-.203-2.326-.078-3.393.278-2.395 1.23-4.614 2.987-6.284 1.305-1.239 2.822-2.184 4.653-3.09.923-.458 1.958-.868 2.219-.979a2.973 2.973 0 001.457-1.447c.11-.25.297-.868.426-1.347.13-.48.31-1.207.427-1.617.118-.41.303-1.168.399-1.698.095-.53.256-1.507.303-1.685.154-.583.283-2.17.316-4.496.021-1.525-.012-2.367.055-2.447.055-.067.348-.181.502-.215.414-.089.853-.482 1.325-.905l.889-.797.805 2.097c2.404 6.257 2.543 7.981 2.544 10.192 0 2.173-1.034 3.882-2.56 5.03-.534.403-.926.703-3.93 1.776-2.55.91-3.757 1.59-4.338 1.937-5.178 3.097-6.354 7.548-4.416 12.785 1.58 4.265 5.104 7.318 8.472 7.575.816.063 1.398-.005 1.94-.325l.387-.131.764.163c.429.091 1.312.37 1.825.624l.884.44v2.636l-.133.225c-.506.14-1.488.165-2.6-.063z" fill="#fff"/><path d="M70.364 107.952c-7.385 4.196-15.139 6.376-22.48 2.047l-5.088 7.26c2.45 1.534 3.559 4.031 3.523 5.6l-.167 37.493c-.067 12.296 21.832 5.943 24.317 13.587 3.046-7.97 24.379-1.653 24.39-13.063l-.308-38.383c.185-2.278 1.521-3.818 3.473-5.384l-5.041-7.215c-9.432 5.278-18.23.523-22.619-1.942z" fill="#fff" stroke="#000" stroke-width=".32"/><path d="M70.424 110.031c-6.959 4-14.81 5.973-21.729 1.846l-3.57 5.19c1.956 1.462 2.756 4.13 2.723 6.043l.012 36.218c-.063 11.721 19.061 5.561 22.517 11.72 3.604-5.927 22.56-.375 22.711-11.158l-.135-37.215c.175-2.172.86-4.138 2.7-5.631l-3.565-5.155c-8.887 5.03-17.529.492-21.664-1.858z" fill="#fff" stroke="#000" stroke-width=".5"/><path d="M47.954 122.269c-.23-1.887-.945-3.46-2.103-4.621a10.822 10.822 0 01-.498-.517c0-.016 3.418-5.018 3.452-5.052.008-.008.254.117.547.277 4.693 2.573 10.217 2.61 16.424.113a38.544 38.544 0 004.11-1.974 6.48 6.48 0 01.53-.28c.017 0 .396.202.841.448 6.013 3.33 11.224 4.358 16.18 3.191 1.264-.297 2.485-.751 3.791-1.408l.736-.37 1.738 2.528 1.739 2.527-.305.277a7.25 7.25 0 00-1.548 2.11c-.36.773-.64 1.81-.75 2.773l-.048.43H48.01l-.056-.452z" fill="#963b3a"/><path fill="#fff" stroke="#000" stroke-width=".475" d="M47.823 122.903h45.07v1.987h-45.07z"/><path d="M70.336 170.646a3.805 3.805 0 00-.352-.448c-.781-.886-2-1.504-3.849-1.954-1.251-.305-2.373-.465-6.77-.968-1.773-.203-3.478-.47-4.482-.703-3.612-.837-5.68-2.356-6.463-4.749-.355-1.082-.405-1.826-.356-5.257l.04-2.736h44.66l.041.387c.023.212.029 1.805.014 3.54-.03 3.326-.037 3.418-.342 4.297-.776 2.242-2.84 3.653-6.547 4.475-1.136.252-2.4.45-4.806.75-4.294.536-5.888.813-7.274 1.265-1.439.468-2.609 1.168-3.146 1.882-.142.189-.268.344-.28.344-.012 0-.051-.056-.088-.125h0z" fill="#1a4362" stroke="#00fe00" stroke-width=".002"/><path fill="#fff" stroke="#000" stroke-width=".476" d="M47.832 151.737h45.197v1.987H47.832z"/><path d="M69.553 126.914h1.536l-1.706 8.858h-1.536zm-6.886 5.675h4.394l-.23 1.049h-4.394z"/><path d="M66.65 126.945c-1.246 0-2.426.845-2.646 1.893l-1.453 6.933h1.467l1.456-6.946c.094-.447.553-.806 1.028-.806s.78.36.686.806l-1.456 6.946h1.316l1.453-6.933c.22-1.048-.606-1.893-1.852-1.893zm5.724.004l-1.656 8.747h1.334l.84-3.858c.78.067 1.478.102 1.24 1.159l-.479 2.699h1.367l.543-3.31c-.002-.485-.243-.715-.49-.975.457-.164.66-.401.765-.693l.348-2.128c.24-1.065-.459-1.641-1.554-1.641h-2.258zm1.12 1.12h1.076c.445.073.46.313.42.518l-.297 1.802c-.198.491-.566.396-.84.44l-.874-.025.515-2.736z"/><path d="M71.011 130.876h2.116l-.165.962h-2.117zm5.448 8.936h1.55l-1.722 8.341h-1.55zm-11.01 3.728h4.114l-.216.99h-4.114zm14.962-3.778c-.992 0-1.915.622-2.068 1.394-.322 1.772-.802 3.794-.964 5.316.023.753.31 1.488 1.472 1.685h1.175c.992 0 1.915-.622 2.068-1.394l.113-.56H80.83c-.126.595-.6 1.024-1.002 1.052a1.03 1.03 0 01-.513-.04c-.483-.207-.597-.76-.55-1.345l.868-4.084c.126-.594.574-1.034.992-1.048a1.49 1.49 0 01.53.037c.411.149.547.583.55 1.067h1.37l.067-.339c-.01-.776-.356-1.54-1.538-1.741zm-8.861.094l-1.67 8.262h1.345l.848-3.644c.788.063 1.49.097 1.25 1.095l-.482 2.55h1.379l.548-3.126c-.002-.46-.245-.676-.494-.922.46-.155.665-.379.772-.654l.351-2.01c.242-1.007-.463-1.55-1.569-1.55H71.55zm1.13 1.058h1.086c.449.07.465.296.424.49l-.3 1.702c-.2.464-.57.374-.848.415l-.881-.023.52-2.584z"/><path d="M70.175 143.565h2.135l-.167.91h-2.135zm-9.705-3.712c-1.256 0-2.447.798-2.669 1.787l-1.466 6.55h1.48l1.47-6.561c.094-.422.557-.762 1.036-.762.48 0 .787.34.693.762l-1.47 6.56h1.328l1.467-6.549c.221-.99-.612-1.787-1.869-1.787z"/><path d="M63.684 139.853c-1.257 0-2.448.798-2.67 1.787l-1.466 6.55h1.48l1.47-6.561c.094-.422.557-.762 1.037-.762.48 0 .786.34.692.762l-1.469 6.56h1.328l1.466-6.549c.222-.99-.612-1.787-1.868-1.787zm18.833 5.235h4.434l-.233.991h-4.433z"/><path d="M86.536 139.758c-1.257 0-2.447.797-2.67 1.787l-1.465 6.549h1.48l1.469-6.56c.094-.423.557-.762 1.037-.762.48 0 .787.34.692.762l-1.469 6.56h1.328l1.466-6.549c.222-.99-.612-1.787-1.868-1.787zm-35.143 5.402h4.434l-.233.99H51.16z"/><path d="M55.411 139.83c-1.256 0-2.447.797-2.669 1.787l-1.466 6.548h1.48l1.47-6.56c.094-.422.557-.762 1.036-.762.48 0 .787.34.693.762l-1.47 6.56h1.328l1.467-6.548c.221-.99-.612-1.788-1.869-1.788z"/><path d="M67.87 139.784c-.648 0-1.23.407-1.31.914l-1.026 6.587c-.078.506.38.914 1.027.914h2.395a1.6 1.6 0 00.25-.02l.148-.962h-1.562c-.616 0-.989.068-.81-.72l.905-5.455c.062-.4.275-.351.785-.346h1.609l.226-.892a1.415 1.415 0 00-.242-.02z" opacity=".987"/></svg>