<svg width="310.67" height="83.081" viewBox="0 0 82.197 21.982" xmlns="http://www.w3.org/2000/svg"><path fill="#fff" d="M.265.265h21.453v21.453H.265z"/><path fill="#fff" d="M.575.645h20.552v21.01H.575z"/><path d="M9.525 10.355c.16-1.199-1.171-1.038-1.171-1.038.056-.613 1.065-1.944 2.449-1.571 1.386.374 1.491 1.863 1.491 1.863 1.24-6.542 6.523-8.313 8.825-8.78V.667H.664v20.64h17.035c-9.594-1.66-8.174-10.952-8.174-10.952z" fill="#312667"/><path d="M16.625 12.025c-1.892-.955-4.499-.559-4.499-.559.542 7.63 6.47 9.45 8.316 9.838h.669V1.624c-6.876 3.195-4.486 10.4-4.486 10.4z" fill="#e6001f"/><path d="M36.175 2.415c.111.039.19.086.235.15.043.058.07.146.07.258v6.129a.452.452 0 01-.07.265.471.471 0 01-.235.146v.178h2.012v-.178a.439.439 0 01-.236-.145.442.442 0 01-.067-.267V2.823c0-.112.022-.2.064-.263.043-.061.125-.11.239-.145V2.24h-2.013v.175zm43.94-.2v.167a.47.47 0 01.225.143c.044.057.064.14.064.251v3.66c0 .423-.02.734-.057.936-.04.203-.111.37-.218.51-.285.363-.578.545-1.28.545-.698 0-.99-.182-1.279-.546a1.202 1.202 0 01-.221-.51c-.038-.2-.058-.512-.058-.936v-3.66c0-.11.022-.195.065-.251a.436.436 0 01.221-.142v-.167h-1.915v.167c.112.04.184.086.228.143.042.057.065.14.065.251v4.11c0 .514.057.957.171 1.327.118.376.329.673.624.892.525.375 1.071.561 2.056.561 1.35 0 2.036-.342 2.47-1.038.246-.39.366-.969.366-1.741V2.776a.45.45 0 01.063-.251.495.495 0 01.226-.143v-.166zM29.128 6.546l.058-.141zm4.637-.921L32.49 2.5c.014.072.036.148.073.23z" fill="#312667"/><path d="M35.025 8.665L33.758 5.62l-1.2-2.897a1.001 1.001 0 01-.073-.229l-.268-.656-.384-.942c-.187-.22-.362 0-.362 0l-.39.942-1.9 4.564-.058.141-.893 2.227c-.087.216-.16.363-.229.438a.522.522 0 01-.292.158v.178h2.143v-.178c-.212-.064-.317-.179-.317-.346 0-.088.03-.209.088-.36l.438-1.094h2.937l.448 1.094c.063.158.098.272.098.354 0 .192-.108.31-.322.352v.178h2.398v-.178a.564.564 0 01-.317-.183c-.08-.09-.174-.263-.278-.518zm-4.536-2.149l1.052-2.746 1.049 2.746zm26.967.324h.005l.05-.128zm4.239-.845L60.53 3.14c.015.066.036.136.066.209z" fill="#312667"/><path d="M62.855 8.775l-1.16-2.784-1.1-2.647a1.27 1.27 0 01-.065-.21l-.241-.598-.352-.859c-.17-.2-.332 0-.332 0l-.358.86-1.733 4.17-.052.128-.817 2.035c-.079.196-.15.33-.21.402a.502.502 0 01-.265.143v.163h1.956v-.163c-.193-.058-.287-.166-.287-.319 0-.077.023-.187.08-.327l.396-.998h2.683l.41.998c.061.143.09.253.09.323 0 .178-.097.283-.29.323v.163h2.183v-.163a.535.535 0 01-.286-.168c-.074-.084-.16-.243-.25-.472zm-4.147-1.967l.964-2.503.956 2.503zm11.49.032l.05-.128zm4.237-.845L73.27 3.14a.99.99 0 00.064.209z" fill="#312667"/><path d="M75.585 8.775l-1.156-2.784-1.1-2.647a.94.94 0 01-.063-.21l-.245-.598-.348-.859c-.174-.2-.332 0-.332 0l-.358.86-1.736 4.17-.05.128-.82 2.035c-.078.196-.15.33-.207.402a.502.502 0 01-.263.143v.163h1.953v-.163c-.193-.058-.29-.166-.29-.319 0-.077.026-.187.082-.327l.397-.998h2.684l.41.998c.06.143.088.253.088.323 0 .178-.098.283-.29.323v.163h2.188v-.163a.526.526 0 01-.29-.168c-.071-.084-.156-.243-.254-.472zM71.44 6.808l.964-2.503.957 2.503zm-2.635.727c-.139.104-.213.202-.404.333a2.97 2.97 0 01-1.686.535c-.702 0-1.26-.212-1.676-.63-.496-.491-.739-1.13-.739-1.925 0-.792.243-1.431.74-1.922.415-.416.973-.63 1.675-.63.596 0 1.158.178 1.686.537.03.016.048.032.076.05l.004.019h.29V2.196H68.5c-.04.323-.525.11-.525.11l.002.002a2.298 2.298 0 00-.18-.07c-.348-.119-.766-.181-1.249-.181-1.325 0-2.313.492-2.968 1.474-.433.655-.653 1.428-.653 2.316 0 .652.12 1.246.365 1.788.209.472.497.867.86 1.184.627.548 1.418.824 2.388.824.49 0 .91-.062 1.263-.187.252-.09.552-.24.889-.445 0 0 .246-1.576.113-1.476zm-13.09 1.69a.462.462 0 01-.065-.265l-1.04-5.62-.157-.994-.08-.5-.155-.962s-.072-.15-.231-.026l-.452.987-.188.413-.476 1.038L51.454 5.8l-1.647-2.967-.188-.429-.249-.559-.44-.987c-.159-.124-.245.017-.245.017l-.16.97-.084.51-.091.554.01.012-1.118 6.04c-.03.144-.049.212-.095.275a.4.4 0 01-.211.138v.177h2.104v-.177a.462.462 0 01-.24-.147.475.475 0 01-.063-.265l.635-4.175 2.087 3.973 2.051-3.94.53 4.142a.474.474 0 01-.064.266.457.457 0 01-.238.146v.178h2.215v-.178a.465.465 0 01-.238-.148zm-10.75.03a2.77 2.77 0 01-.165-.21c-.015-.022-.033-.047-.05-.074-.006-.01-.013-.022-.023-.035l-1.201-2.192-.28-.505a2.046 2.046 0 00-.483-3.964 1.739 1.739 0 00-.207-.014h-1.064a1.8 1.8 0 00-.207.014h-1.867v.165a.494.494 0 01.226.141c.041.06.064.138.064.252v6.204a.416.416 0 01-.064.247.464.464 0 01-.226.14v.169h1.915v-.168c-.11-.034-.182-.077-.225-.137a.429.429 0 01-.064-.25V6.975h-.003V5.27h.003V3.476h1.426a.59.59 0 01.126.035 1.128 1.128 0 01-.589 2.089l-.69.004.431.758 1.376 2.4c.446.806 1.077.818 1.077.818l1.12.013h.269c-.136-.011-.528-.236-.625-.338zm-9.75 9.74h3.391l.2-.454h-4.17s.256-.317.35-.436l-1.776-.383s-.187.586-.219.819H30.18v.454h2.562c-.228.432-.359.694-.73 1.025-.365.331-.783.592-1.157.814-.376.218-.972.347-1.06.407l-.006.148c.456-.023 1.377-.006 2.485-.462.475-.198 1.365-.534 2.06-1.696.124.247.386.65.508.834.119.178.804.845 1.511 1.063.202.064.976.397 1.366.221.205-.09.093-.515.366-.707.197-.133.38-.257.643-.307l-.002-.14c-1.226-.123-1.692-.227-2.353-.471-.496-.184-1.076-.547-1.16-.729zm-6.78-6.26s-.1-.192.09-.192c.189 0 1.194.23 1.64.585.443.355.465.801.228 1.247-.242.443-.343.443-.343.443s-.13.202-.369-.078c-.241-.278-.394-1.105-1.246-2.005zm-.9 2.31s-.077-.215.152-.175c.231.036 1.055.165 1.549.523.497.353.574.822.257 1.32 0 0-.47.85-.691.299 0 0-.391-1.052-1.267-1.967z" fill="#312667"/><path d="M27.685 18.285s-.237-.321.185-.252c0 0 .46.083.696.186 0 0 .405.22.662-.302l1.64-3.085.137.307-1.035 3.438s-.2.675-.016 1.217c0 0 .213.843-.44 1.442 0 0-.305.42-.509-.19 0 0-.439-1.776-1.32-2.76zm8.4-.82c-.023.014-.005.006 0 0z" fill="#312667"/><path d="M38.345 13.525h-.316l-3.648.004v-.005l.051-.323c.09-.1.466-.419.466-.419l.04-.186-1.96.002c.026.721.026.721.01.932h-.756l-1.475-.418v5.215l1.475-.256v-.327a2.613 2.613 0 001.52-.946v.886l1.19-.095v-.993c.432.436.789.878.789.878.356.724.648.061.648.061a.794.794 0 00.073-.17v.962l1.5-.256v-3.995c.094-.083.328-.276.365-.332.034-.044.027-.218.027-.218zm-6.113 3.834v-1.187h.712a1.81 1.81 0 01-.712 1.187zm0-1.531v-.915c.378.254.595.645.766.915zm1.52-.382c-.378-.732-1.308-.61-1.52-.572v-.141l1.52-.065zm-1.52-.895v-.531h2.314c-.624.181-1.616.448-2.314.53zm2.71 1.076v-1.01l.697-.029c-.275.587-.535.894-.697 1.04zm1.51 1.394c-.174-.532-1.166-.747-1.42-.794v-.044h1.42zm0-1.176H35.38c.32-.155.83-.479 1.072-.64zm0-.818l-.743-.442.468-.018s.255.038.037-.23c-.08-.1-.163-.213-.236-.317h.474zm7.863-2.042l-1.595-.333v8.67h1.595v-4.763h1.349v.536l1.41-.309v-3.803zm1.348 2.832v.23h-1.349v-1.02h1.35zm0-2.213v.911h-1.349V13.49h1.35zm7.042-.619v-.002l-3.205.002-1.613-.333v4.382l1.411-.307v-.168h1.474v3.212h-.007s.052.283-.138.283c-.192 0-2.205-.14-2.205-.14l-.028.127s.991.584 1.295.913c0 0 .127.523.723.523 0 0 .559.012 1.08-.213.46-.2.892-.59.892-1.342v-6.25c.118-.286.525-.554.525-.554l.014-.133h-.218zm-1.933 2.832v.23h-1.474v-1.02h1.474zm0-2.213v.911h-1.474V13.49h1.474zm16.353 6.381s-.421-.325-.452-1.216c0 0-.085-.11-.211-.01 0 0-.116.901-.277 1.157 0 0-.121.148-.245.032-.05-.055-.075-.136-.075-.243v-3.948c.075-.317.568-.61.568-.61l.007-.18h-1.996l-.006.004-.775-.006-1.343-.294v2.623c0 .304-.004.628-.012.964-.001.025-.005.052-.005.075-.029.345-.231 2.203-1.19 2.918 0 0-.15.16.009.182.159.028 2.591-.373 2.525-3.457.01-.176.016-.352.016-.523v-1.977h.803l-.002 4.559s-.103 1.086.964 1.155h1.048s.545.007.794-.743c0 0 .097-.314-.146-.462z" fill="#312667"/><path d="M67.145 14.455l.23-.555h-2.59c0-.069 0-.182.015-.373.032-.457.555-.625.555-.625v-.204h-1.987V13.9H59.59v-.278c0-.518.535-.727.535-.727v-.19h-1.92v1.23l-1.044-.21v2.869h-.885v.49h.885v1.119s-.153 1.668-.58 2.44c0 0-.29.546-.396.65 0 0-.128.272.185.15 0 0 1.561-.481 1.976-2.357.042-.16.066-.303.083-.415.026-.174.032-.413.05-.665l.014-.353c.29.338.488 1.324.488 1.324.038.341.315.189.315.189.34-.222.496-.425.571-.568v1.206l-.03.246s-.056.177-.266.177h-1.203s-.042.052.013.094c0 0 .611.407.71.817 0 0 .135.371.45.328 0 0 1.534-.066 1.568-1.554l.008-2.828h.743l.115-.49h-.858l.006-2.139h6.021zm-7.278.02v.855c-.236-.32-.988-.699-1.316-.855zm-1.375.562c.344.44.45 1.172.45 1.172.05.102.062.368.278.215.146-.102.489-.324.647-.585v.755h-1.375zm0 2.174v-.127h1.375v1.059c-.236-.483-1.074-.824-1.375-.932zm16.653 1.544H72.31v-.635h7.726v.635h-2.99v1.92h4.572l-.229.565H70.806v-.564h4.339v-1.92zm6.62-4.9h-4.95v-.463c.053-.333.543-.491.543-.491.077-.103.01-.205.01-.205h-1.981v1.16H72.37l-1.322-.382v2.619l1.5-.278V14.38h7.222v1.373l1.443-.187v-.98s.149-.422.518-.5c0 0 .094-.08.033-.23z" fill="#312667"/><path d="M73.955 14.635s-.56 2.353-2.779 2.944c0 0-.05.204.066.223 0 0 3.1.185 4.014-2.134 0 0 .136-.425.473-.34 0 0 .087-.167.037-.202zm4.68.21l-2.06-.01v1.9s.016 1.056.943 1.07h2.45s.799-.014 1.094-1.082c0 0-.752-.136-.852-.927l-.29.803s-.027.087-.156.087h-1.585s-.103-.023-.103-.113v-1.105s.19-.396.559-.457c0 0 .087-.14 0-.166z" fill="#312667"/></svg>