<svg version="1.0" viewBox="0 0 744.09 216.85" xmlns="http://www.w3.org/2000/svg"><path d="M169.946 199.187l-11.081-158.3h-52.239l-88.912 158.3h27.175l71.235-127.17 3.166-1.847c1.583 0 3.166 1.32 3.43 3.166l5.013 71.763c-.264 3.694-3.43 6.86-7.124 6.86H77.076l-12.4 22.954h58.835c3.694 0 6.596 2.902 6.596 6.332l1.32 17.94h38.52m296.549.002l-13.983-158.3h-51.184l-80.734 158.3h26.12l64.376-125.59 2.638-1.583c1.847 0 3.166 1.055 3.694 2.902l6.068 70.18c.264 4.222-2.638 6.86-6.596 6.86h-40.367l-11.345 22.954h54.614c3.694 0 6.86 2.638 6.86 7.123l1.583 17.15h38.256m-148.27-158.3l-21.107 122.68-2.638 2.11-2.639-2.11-35.09-122.68h-53.559l-27.439 158.3H199.5l21.107-122.42 2.903-2.11 2.902 2.11 34.826 122.42h53.295l27.439-158.3h-23.745m262.249-23.217l-103.16 181.52h116.62l103.16-181.52h-116.62" fill="#202d86"/><path d="M697.096 17.666l-103.16 181.52h29.286l103.16-181.52h-29.286" fill="#00a7ee"/></svg>