<svg viewBox="0 0 2021.3 203.9" xmlns="http://www.w3.org/2000/svg"><defs><clipPath id="a"><path d="M0 0h595.28v841.89H0V0z"/></clipPath><clipPath id="b"><path d="M0 0h595.28v841.89H0V0z"/></clipPath><clipPath id="c"><path d="M0 0h595.28v841.89H0V0z"/></clipPath><clipPath id="d"><path d="M0 0h595.28v841.89H0V0z"/></clipPath><clipPath id="e"><path d="M0 0h595.28v841.89H0V0z"/></clipPath><linearGradient id="f" x2="1" gradientTransform="scale(28.5 -28.5) rotate(-30 -27.311 -32.7)" gradientUnits="userSpaceOnUse"><stop stop-color="#a61721" offset="0"/><stop stop-color="#de1b34" offset=".5"/><stop stop-color="#de1b34" offset="1"/></linearGradient><linearGradient id="g" x2="1" gradientTransform="scale(19.137 -19.137) rotate(-30 -47.984 -48.244)" gradientUnits="userSpaceOnUse"><stop stop-color="#f6861f" offset="0"/><stop stop-color="#ffcf01" offset=".85"/><stop stop-color="#ffcf01" offset="1"/></linearGradient><linearGradient id="h" x2="1" gradientTransform="matrix(0 17.747 17.747 0 379.12 691.25)" gradientUnits="userSpaceOnUse"><stop stop-color="#a61721" offset="0"/><stop stop-color="#de1b34" offset=".8"/><stop stop-color="#de1b34" offset="1"/></linearGradient></defs><g clip-path="url(#a)" transform="matrix(1.25 0 0 -1.25 -242.84 1067.6)"><path d="M458.34 90.075v-104.6" fill="none" stroke="#fff"/><path d="M64.078 53.621a3.263 3.263 0 00-.92-.696 2.204 2.204 0 00-.991-.235c-.542 0-.974.162-1.296.488-.324.327-.485.766-.485 1.317 0 .366.076.688.227.97.153.281.36.504.622.662.264.16.663.277 1.197.353.716.106 1.244.234 1.58.38l.004.277c0 .435-.078.74-.233.915-.219.255-.555.384-1.01.384-.408 0-.716-.086-.919-.258-.203-.169-.35-.493-.446-.96l-.874.161c.124.676.375 1.169.751 1.477.376.311.915.465 1.618.465.546 0 .976-.104 1.287-.307.31-.206.506-.459.589-.762.082-.303.122-.745.122-1.325v-1.433c0-1.004.02-1.636.059-1.896.037-.261.113-.514.224-.759h-.922a2.598 2.598 0 00-.184.782m-.066 2.392c-.326-.162-.806-.297-1.446-.407-.37-.064-.631-.136-.777-.217a.874.874 0 01-.346-.344 1.058 1.058 0 01-.122-.514c0-.304.095-.542.282-.723.188-.18.448-.27.778-.27a1.58 1.58 0 011.438.895c.127.27.193.667.193 1.188v.392z" fill="#fff"/></g><path d="M-159.393 992.155h1.09v-1.551h-1.09v1.551zm0 9.396h1.09v-7.934h-1.09v7.934z" fill="#fff"/><g clip-path="url(#b)" transform="matrix(1.25 0 0 -1.25 -242.84 1067.6)"><path d="M69.465 52.839v6.348h.8v-.968c.202.446.386.74.554.884a.844.844 0 00.567.218c.292 0 .592-.116.896-.345l-.294-.996c-.22.156-.433.234-.641.234a.773.773 0 01-.513-.198 1.06 1.06 0 01-.329-.549 5.039 5.039 0 01-.166-1.31v-3.318h-.874z" fill="#fff"/></g><path d="M-151.264 1001.551h1.093v-10.947h-1.093v10.947zm3.414-9.396h1.093v-1.551h-1.093v1.551zm0 9.396h1.093v-7.934h-1.093v7.934z" fill="#fff"/><g clip-path="url(#c)" transform="matrix(1.25 0 0 -1.25 -242.84 1067.6)"><path d="M78.7 52.839v6.348h.788v-.902c.191.346.426.608.701.78.276.17.594.256.951.256.28 0 .537-.053.775-.164.235-.11.427-.253.573-.43.145-.177.252-.408.324-.69.073-.281.108-.717.108-1.302v-3.896h-.873V56.7c0 .466-.039.807-.12 1.022a1.011 1.011 0 01-.373.5 1.024 1.024 0 01-.591.176c-.424 0-.76-.158-1.012-.473-.25-.313-.377-.855-.377-1.619v-3.467H78.7zm9.619 2.041l.911-.136c-.153-.677-.427-1.192-.823-1.535-.397-.348-.889-.518-1.474-.518-.739 0-1.335.279-1.792.837-.457.562-.685 1.369-.685 2.424 0 1.094.229 1.93.69 2.505.462.575 1.044.864 1.751.864.673 0 1.236-.284 1.688-.849.449-.566.675-1.385.675-2.457l-.006-.286h-3.888c.036-.712.202-1.249.497-1.611.295-.363.651-.542 1.076-.542.66 0 1.121.435 1.38 1.304m-2.9 1.733h2.913c-.04.55-.159.961-.355 1.231-.282.394-.644.593-1.084.593-.395 0-.731-.165-1.011-.495-.281-.328-.435-.771-.463-1.329m8.345-.608c0 1.096.229 1.923.688 2.479.46.558 1.042.837 1.748.837.692 0 1.271-.279 1.737-.837.466-.556.698-1.362.698-2.413 0-1.138-.227-1.988-.685-2.545-.46-.559-1.042-.835-1.75-.835-.697 0-1.277.279-1.742.837-.464.562-.694 1.385-.694 2.477m.897.005c0-.822.15-1.433.45-1.834.299-.401.67-.6 1.112-.6.414 0 .771.201 1.068.607.297.403.447 1.012.447 1.827 0 .816-.15 1.423-.45 1.824-.299.401-.669.603-1.114.603-.418 0-.776-.203-1.069-.605-.297-.403-.444-1.011-.444-1.822m5.739-3.171v5.511h-.787v.837h.787v.673c0 .497.052.869.156 1.12.104.249.262.437.475.568.214.131.482.198.806.198.251 0 .529-.038.828-.112l-.132-.934a2.394 2.394 0 01-.522.059c-.264 0-.453-.066-.566-.204-.114-.137-.171-.4-.171-.783v-.585h1.022v-.837h-1.022v-5.511h-.874zm-38.226-8.884l.122-.948a2.513 2.513 0 00-.654-.098c-.307 0-.552.06-.739.181s-.315.289-.384.5c-.072.212-.104.632-.104 1.262v3.655h-.639v.838h.639v1.574l.873.64v-2.214h.886v-.838h-.886v-3.712c0-.341.026-.564.077-.663.076-.145.216-.216.423-.216.098 0 .227.015.386.039m1.314-.96v8.759h.874v-3.145c.206.289.439.506.702.653.261.144.548.216.864.216.553 0 .99-.177 1.311-.528.322-.352.481-.998.481-1.938v-4.017h-.874v4.019c0 .548-.097.943-.293 1.184-.196.238-.464.359-.807.359-.385 0-.711-.156-.981-.461-.268-.306-.403-.85-.403-1.631v-3.47h-.874zm9.617 2.042l.91-.135c-.15-.68-.425-1.191-.821-1.537-.397-.348-.889-.518-1.475-.518-.738 0-1.336.279-1.792.838-.456.561-.684 1.368-.684 2.423 0 1.097.23 1.93.691 2.505.461.578 1.043.865 1.749.865.675 0 1.237-.282 1.688-.848s.675-1.384.675-2.456l-.004-.287h-3.888c.035-.712.201-1.249.496-1.613.295-.36.652-.542 1.075-.542.662 0 1.122.436 1.38 1.305m-2.899 1.736h2.912c-.039.549-.157.957-.353 1.23-.284.391-.646.59-1.084.59-.395 0-.734-.166-1.014-.493-.279-.33-.432-.771-.461-1.327m8.652-6.215l-.099 1.009c.196-.066.361-.099.499-.099.186 0 .341.038.461.114a.826.826 0 01.299.349c.029.058.145.42.345 1.089l-1.961 6.324h.95l1.081-3.646c.136-.454.259-.942.374-1.459.1.489.217.966.357 1.434l1.103 3.671h.885l-1.968-6.457c-.258-.837-.463-1.395-.61-1.675-.151-.279-.319-.482-.507-.603a1.147 1.147 0 00-.643-.188c-.168 0-.356.046-.566.137m9.08 4.479l.911-.135c-.152-.68-.427-1.191-.823-1.537-.397-.348-.888-.518-1.474-.518-.737 0-1.335.279-1.793.838-.456.561-.684 1.368-.684 2.423 0 1.097.23 1.93.691 2.505.461.578 1.044.865 1.751.865.673 0 1.236-.282 1.687-.848s.675-1.384.675-2.456l-.004-.287h-3.889c.037-.712.201-1.249.496-1.613.295-.36.653-.542 1.076-.542.661 0 1.122.436 1.38 1.305m-2.899 1.736h2.912c-.04.549-.159.957-.353 1.23-.283.391-.646.59-1.085.59-.395 0-.732-.166-1.012-.493-.28-.33-.434-.771-.462-1.327m8.79-2.995a3.324 3.324 0 00-.921-.697 2.217 2.217 0 00-.991-.235c-.542 0-.973.163-1.296.49-.323.325-.484.763-.484 1.316 0 .365.077.689.226.971.154.283.36.502.623.663.264.157.662.274 1.195.35.719.105 1.244.235 1.58.382l.006.275c0 .435-.078.74-.235.918-.217.252-.554.381-1.007.381-.41 0-.717-.085-.92-.255-.203-.172-.35-.493-.446-.963l-.874.161c.123.678.373 1.172.749 1.479.378.309.918.464 1.619.464.548 0 .976-.102 1.288-.307.311-.206.506-.46.588-.762.083-.302.124-.744.124-1.326V45.65c0-1.003.019-1.634.057-1.893.037-.261.112-.517.225-.762h-.922a2.496 2.496 0 00-.184.783m-.068 2.391c-.325-.159-.804-.294-1.444-.407-.37-.064-.631-.136-.778-.217a.863.863 0 01-.344-.344 1.047 1.047 0 01-.122-.514c0-.301.093-.542.28-.721.188-.181.448-.27.779-.27.315 0 .602.082.86.244.256.162.449.377.578.65.128.271.191.666.191 1.187v.392zm2.746-3.174v6.35h.8v-.967c.202.443.386.737.556.884a.844.844 0 00.565.216c.293 0 .593-.114.897-.343l-.295-.999c-.219.158-.432.234-.639.234a.782.782 0 01-.515-.195 1.07 1.07 0 01-.327-.55 4.963 4.963 0 01-.169-1.309v-3.321h-.873zm7.023-.655v.604l.769.751c1.849 1.77 2.696 2.71 2.696 3.808 0 .739-.346 1.423-1.426 1.423-.657 0-1.203-.336-1.537-.616l-.312.694c.49.414 1.213.739 2.049.739 1.548 0 2.205-1.075 2.205-2.117 0-1.344-.968-2.43-2.495-3.908l-.567-.538v-.023h3.241v-.817h-4.623zm8.03-.122c-1.414 0-2.384 1.333-2.405 3.74 0 2.453 1.057 3.786 2.528 3.786 1.515 0 2.395-1.366 2.395-3.684 0-2.476-.925-3.842-2.506-3.842h-.012zm.045.762c.991 0 1.471 1.175 1.471 3.035 0 1.792-.447 2.968-1.471 2.968-.891 0-1.471-1.143-1.471-2.968-.021-1.893.558-3.035 1.46-3.035h.011z" fill="#fff"/></g><g clip-path="url(#d)" transform="matrix(1.25 0 0 -1.25 -242.84 1067.6)" fill="#fff"><path d="M136.22 35.962a1.42 1.42 0 00-.39-.294.966.966 0 00-.422-.098c-.23 0-.414.07-.551.208s-.204.325-.204.559c0 .154.031.294.096.413a.709.709 0 00.263.282c.111.069.28.118.507.15.303.046.526.103.668.165l.004.117c0 .184-.034.312-.1.387-.091.107-.234.162-.425.162-.175 0-.303-.035-.388-.11-.086-.072-.149-.208-.189-.408l-.376.067c.053.289.158.499.32.63.158.129.387.197.686.197.229 0 .412-.044.544-.132s.215-.196.249-.323a2.27 2.27 0 00.055-.566v-.606c0-.428.006-.695.021-.807.016-.11.048-.218.095-.323h-.389a1.133 1.133 0 00-.074.33m-.033 1.021a2.323 2.323 0 00-.61-.175 1.148 1.148 0 01-.329-.094.36.36 0 01-.145-.147.447.447 0 01-.05-.218c0-.129.039-.23.116-.308a.462.462 0 01.33-.115.664.664 0 01.608.385c.053.114.08.284.08.505v.167zm1.163-1.351v2.693h.338v-.408c.087.189.167.316.238.378a.354.354 0 00.241.094.64.64 0 00.383-.149l-.129-.425a.452.452 0 01-.27.097.318.318 0 01-.217-.083.48.48 0 01-.139-.231 2.185 2.185 0 01-.069-.557v-1.409h-.376zm3.05 0v.34a.748.748 0 00-.262-.299.612.612 0 00-.345-.103c-.26 0-.487.124-.676.371-.192.245-.286.591-.286 1.038 0 .306.043.566.127.779.083.212.197.372.337.475a.784.784 0 00.469.156.643.643 0 00.343-.099.759.759 0 00.261-.272v1.331h.383v-3.717h-.351zm-1.183 1.345c0-.349.063-.61.181-.777.122-.172.263-.255.424-.255.157 0 .296.082.413.244.116.163.174.408.174.735 0 .378-.058.654-.174.829-.117.172-.265.26-.442.26-.155 0-.291-.084-.403-.25-.115-.167-.173-.431-.173-.786m-87.196 5.301s-3.577 1.196-4.057-.287c0 0 2.02-1.17 4.057.287m-5.335.654s.744 1.309 3.169 1.961c0 0-.273-2.224-3.169-1.961m8.421 3.212s-3.773.066-3.773-2.264c0 0 2.28-.738 3.773 2.264"/><path d="M51.039 44.668s-.427 1.442.786 3.643c0 0 1.41-1.739-.786-3.643m5.166 4.427s-2.942-.669-2.499-2.479c0 0 1.914-.137 2.499 2.479"/><path d="M53.326 47.171s-.605 1.042-.083 2.981c0 0 1.428-1.082.083-2.981m3.454 5.032s-2.7-1.352-1.835-3.005c0 0 1.888.323 1.835 3.005"/><path d="M54.443 49.648s-.839.866-.792 2.872c0 0 1.645-.709.792-2.872m2.561 5.841s-2.3-1.956-1.067-3.355c0 0 1.76.764 1.067 3.355"/><path d="M55.344 52.452s-1.02.64-1.453 2.603c0 0 1.764-.299 1.453-2.603m1.009 5.998s-1.499-2.619-.451-3.204c0 0 1.22 1.408.451 3.204m-.982-3.179s-1.176.264-2.238 1.968c0 0 1.765.308 2.238-1.968m-.23 5.849s-.833-2.901.325-3.219c0 0 .848 1.657-.325 3.219m-.194-3.322s-1.205-.023-2.644 1.379c0 0 1.641.721 2.644-1.379m-.744 5.541s-1.114-2.804.005-3.236c0 0 1.011 1.569-.005 3.236m-1.181 1.969s-1.118-2.806.165-3.298c0 0 1.06 1.547-.165 3.298m.659-5.253s-1.199.093-2.493 1.631c0 0 1.702.556 2.493-1.631m-3.746 6.465s.547-3.024 1.987-2.745c0 0 .101 1.913-1.987 2.745m1.436-3.125s-1.155-.296-2.911.568c0 0 1.394.992 2.911-.568m-3.995 4.93s.592-2.601 1.758-2.319c0 0-.009 1.655-1.758 2.319m1.347-2.635s-1.054-.564-2.964-.14c0 0 1.118 1.293 2.964.14m-1.695 1.474s-1.352-.501-3.6.041c0 0 1.539 1.23 3.6-.041m-5.056-28.19s-4.994-1.031-5.168 1.873c0 0 1.329-1.675 3.397-1.381 0 0 .393 1.725-3.397 1.725 0 0 2.042 2.139 5.168-.984h.651c3.124 3.123 5.167.984 5.167.984-3.789 0-3.395-1.725-3.395-1.725 2.066-.294 3.395 1.381 3.395 1.381-.172-2.904-5.167-1.873-5.167-1.873h-.651zm-9.398 3.304s3.578 1.196 4.056-.287c0 0-2.019-1.17-4.056.287m5.336.654s-.745 1.309-3.169 1.961c0 0 .272-2.224 3.169-1.961m-8.421 3.212s3.773.066 3.773-2.264c0 0-2.28-.738-3.773 2.264"/><path d="M33.557 44.668s.427 1.442-.787 3.643c0 0-1.412-1.739.787-3.643m-5.169 4.427s2.945-.669 2.5-2.479c0 0-1.912-.137-2.5 2.479"/><path d="M31.268 47.171s.607 1.042.084 2.981c0 0-1.429-1.082-.084-2.981m-3.453 5.032s2.701-1.352 1.837-3.005c0 0-1.889.323-1.837 3.005"/><path d="M30.154 49.648s.838.866.791 2.872c0 0-1.644-.709-.791-2.872m-2.564 5.841s2.301-1.956 1.067-3.355c0 0-1.758.764-1.067 3.355"/><path d="M29.25 52.452s1.021.64 1.454 2.603c0 0-1.766-.299-1.454-2.603m-1.008 5.998s1.498-2.619.451-3.204c0 0-1.22 1.408-.451 3.204m.98-3.179s1.177.264 2.239 1.968c0 0-1.763.308-2.239-1.968m.232 5.849s.831-2.901-.326-3.219c0 0-.849 1.657.326 3.219m.195-3.322s1.204-.023 2.645 1.379c0 0-1.641.721-2.645-1.379m.743 5.541s1.113-2.804-.007-3.236c0 0-1.008 1.569.007 3.236m1.182 1.969s1.118-2.806-.164-3.298c0 0-1.061 1.547.164 3.298m-.662-5.253s1.201.093 2.495 1.631c0 0-1.702.556-2.495-1.631m3.748 6.465s-.547-3.024-1.987-2.745c0 0-.101 1.913 1.987 2.745m-1.436-3.125s1.156-.296 2.911.568c0 0-1.394.992-2.911-.568m3.995 4.93s-.592-2.601-1.757-2.319c0 0 .007 1.655 1.757 2.319m-1.346-2.635s1.053-.564 2.963-.14c0 0-1.119 1.293-2.963.14m1.695 1.474s1.353-.501 3.599.041c0 0-1.537 1.23-3.599-.041"/></g><g clip-path="url(#e)" transform="matrix(10 0 0 -10 -1942.715 7113.1)"><path d="M197.41 692.88c.421.281.654.704.654 1.203v.068c0 .467-.199.855-.548 1.07-.303.182-.777.275-1.408.275h-1.093c-.206 0-.434-.006-.612-.011l-.134-.005v-4.496h.955v1.656h1.269c.322-.333.69-.93.974-1.573l.036-.083h1.01l-.084.195a8.717 8.717 0 01-1.019 1.701m-.305 1.246v-.038c0-.303-.099-.51-.322-.666h-1.559v1.291h.894c.424 0 .691-.052.828-.163.108-.084.159-.227.159-.424m5.805-2.967l.047-.175h-2.73c-.208 0-.447.007-.61.012l-.136.005v4.479l.136.005c.165.005.406.011.61.011h2.715l-.038-.169a4.256 4.256 0 01-.079-.491l-.012-.123h-2.379v-1.038c.242.014.473.017.604.017h1.194v-.784h-1.798v-1.14h2.362l.017-.121c.025-.187.057-.346.097-.488m4.782 2.401l.136-.005v-2.444l-.11-.025a8.355 8.355 0 00-1.661-.163c-.756 0-1.34.152-1.738.457-.471.38-.699.973-.699 1.816v.113c0 .854.285 1.476.851 1.852.398.264.961.398 1.669.398.44 0 .964-.072 1.402-.193l.123-.033-.127-.745-.144.035a5.283 5.283 0 01-1.261.147c-.487 0-.861-.097-1.111-.286-.269-.206-.43-.652-.43-1.188v-.087c0-1.106.383-1.498 1.461-1.498.347 0 .616.012.834.039v1.062l-1.063-.019v.781h1.197c.239 0 .51-.009.671-.014m1.5 1.936h.953v-4.512h-.953v4.512zm4.479.063c-.678 0-1.231-.177-1.597-.51-.432-.387-.659-.966-.659-1.678v-.262c0-.719.225-1.302.651-1.683.364-.33.919-.503 1.605-.503.675 0 1.226.173 1.601.503.428.393.657.973.657 1.683v.262c0 .711-.229 1.291-.661 1.684-.371.33-.922.504-1.597.504m0-3.848c-.4 0-.714.096-.904.274-.238.229-.38.66-.38 1.155v.201c0 .487.145.917.388 1.145.193.186.504.284.896.284.413 0 .716-.094.904-.275.24-.229.381-.659.381-1.154v-.201c0-.495-.141-.926-.383-1.157-.186-.18-.489-.272-.902-.272m6.758 3.785h.926v-4.551h-.973l-.04.067c-.737 1.192-1.529 2.34-2.217 3.21v-3.238h-.93v4.512h.949l.042-.048a33.026 33.026 0 002.243-3.005v3.053zm4.81-.081l-.036.081h-.964l-.038-.08a74.965 74.965 0 01-1.809-4.243l-.074-.189h1.019l.032.091c.116.328.22.609.309.84h2.052c.108-.263.224-.564.32-.84l.034-.091h1.018l-.074.189a87.045 87.045 0 01-1.789 4.242m.19-2.736h-1.444c.248.617.495 1.193.733 1.696a40.26 40.26 0 00.711-1.696m5.882-1.695h-2.499c-.208 0-.447.007-.613.012l-.133.005v4.495h.953v-3.728h2.164l.009-.128c.011-.149.04-.33.078-.485l.041-.171z" fill="#de1b34"/></g><path d="M264.26 695.8l-4.415-4.455h7.443c10.136 1.086 13.099 4.489 14.968 8.839l1.914 4.993c-5.587-.16-14.018-3.451-19.91-9.377" fill="url(#f)" transform="matrix(10 0 0 -10 -1942.715 7113.1)"/><path d="M275.4 707.08l-5.378-5.444c5.107 3.664 10.196 5.876 15.266 6.449l1.237 3.222h-.001c-7.508 0-8.528-1.639-11.124-4.227" fill="url(#g)" transform="matrix(10 0 0 -10 -1942.715 7113.1)"/><path d="M251.12 709.28c-.818-1.214-1.716-2.733-2.7-4.677-.994-1.955-1.889-3.962-2.447-5.487h3.319c.201.636.447 1.28.707 1.884h5.451c.263-.601.496-1.207.712-1.884h3.317a61.098 61.098 0 01-2.44 5.475c-.986 1.946-1.874 3.471-2.706 4.689h-3.213zm1.603-2.402a49.676 49.676 0 001.982-3.996h-3.958a50.865 50.865 0 001.976 3.996m-25.376 2.402a52.043 52.043 0 01-.246-5.08c0-1.652.085-3.315.248-5.084h3.143a50.876 50.876 0 00-.246 3.772h3.164c.229-.253.608-.737 1.004-1.365.462-.726.818-1.442 1.216-2.407h3.515c-.462.881-.963 1.675-1.713 2.733-.432.607-.837 1.097-1.207 1.465 1.317.463 2.133 1.576 2.133 2.928 0 .773-.276 1.506-.761 2.013-.684.708-1.751 1.025-3.456 1.025h-6.794zm2.992-1.904h2.764c1.019 0 1.514-.127 1.832-.462.186-.188.301-.491.301-.81 0-.547-.284-1.032-.779-1.334h-4.213c.002.75.033 1.605.095 2.606m-15.555 1.904a56.982 56.982 0 01-.249-5.088c0-1.644.111-3.451.249-5.076h9.699a75.255 75.255 0 00-.129 2.024h-6.599a30.792 30.792 0 00-.077 2.149h6.09v1.917h-6.09c0 .557.02 1.37.077 2.047h6.593c.032.714.072 1.309.135 2.027h-9.699zm-13.84 0a51.61 51.61 0 01-.249-5.08c0-1.652.077-3.27.249-5.084h5.993c2.118 0 3.424.247 4.236.8.622.429 1.01 1.281 1.01 2.224 0 1.112-.634 1.998-1.747 2.453a2.39 2.39 0 011.211 2.08c0 .804-.231 1.36-.749 1.802-.875.742-2.476.805-4.182.805h-5.772zm2.992-1.924h2.656c1.076 0 1.436-.08 1.743-.391.154-.159.25-.44.25-.752 0-.428-.174-.8-.49-1.044h-4.254c.011.761.04 1.467.095 2.187m-.098-4.027h3.828c.552 0 .836-.074 1.083-.286.233-.197.341-.446.341-.778 0-.349-.103-.622-.308-.829-.299-.279-.72-.397-1.454-.397h-3.392a29.61 29.61 0 00-.098 2.29m37.609 5.948c-.161-1.452-.252-3.37-.247-5.167.004-1.72.07-3.374.245-4.994h2.707c.184 1.612.246 3.27.248 4.995a53.449 53.449 0 01-.244 5.166h-2.709zm-46.929 0c-.161-1.452-.25-3.37-.248-5.167.005-1.72.072-3.374.248-4.994h2.709c.181 1.612.241 3.27.245 4.995a53.13 53.13 0 01-.244 5.166h-2.71z" fill="url(#h)" transform="matrix(10 0 0 -10 -1942.715 7113.1)"/><path d="M1043.085 21.9c13.53 29.4 29.99 68.85 41.64 98.69h-16.75c-2.48-7-5.53-15-8.31-21.72h-52.25c-2.62 6.72-5.54 14.72-8.02 21.72h-16.73c11.65-29.84 28.23-69.29 42.08-98.69h18.34zm12.07 65.63c-7.26-18.61-14.55-36.1-21.24-50.37-6.99 14.27-14.57 31.76-21.84 50.37h43.08zm61.5 33.06h-15.73V21.9h15.73v98.69zm67.27-98.69c13.26 0 24.18 1.74 31.17 5.95 7.12 4.39 11.21 12.38 11.21 22.13v1.59c0 12.08-6.4 21.54-16.9 27.24 8.42 9.75 18.93 26.78 25.62 41.78h-16.45c-6.42-14.55-15.72-30.15-24.3-38.57h-34.22v38.57h-15.72V22.16c4.37-.13 9.47-.26 14.13-.26h25.46zm-23.87 48.32h40.6c6.56-4.23 9.78-10.21 9.78-18.79v-.86c0-5.52-1.61-9.77-4.95-12.38-3.94-3.2-11.08-4.5-21.27-4.5h-24.16v36.53z" fill="#de1b34"/><path d="M1283.285 21.9c19.38 22.55 43.71 56.03 57.95 79.03V21.9h15.14v99.55h-17.6c-18.49-29.97-39.6-60.39-57.67-82.23v81.37h-15.12V21.9h17.3zm96.3 46.26c0-14.83 4.53-27.93 14.3-36.68 7.83-7.12 19.95-11.05 35.09-11.05 15.1 0 27.19 3.93 35.05 10.92 9.74 8.88 14.29 21.98 14.29 36.81v6.13c0 14.85-4.55 27.96-14.29 36.84-7.86 6.98-19.95 10.92-35.05 10.92-15.14 0-27.41-3.79-35.26-10.92-9.75-8.73-14.13-21.99-14.13-36.84v-6.13zm16.16 5.41c0 12.81 3.81 23.44 9.89 29.24 4.95 4.67 12.81 7.29 23.34 7.29 10.44 0 18.3-2.47 23.25-7.29 6.12-5.8 9.89-16.43 9.89-29.24v-4.65c0-12.83-3.77-23.45-9.89-29.28-4.95-4.8-12.81-7.28-23.25-7.28-10.53 0-18.22 2.78-23.15 7.44-6.14 5.82-10.08 16.29-10.08 29.12v4.65zm167.63-37.99c-10.34-2.49-18.96-3.34-28.25-3.34-17.48 0-23.43 6.39-23.43 14.23 0 7.3 5.83 12.82 18.49 16.17l8.88 2.34c11.64 3.07 18.48 6.11 23.29 10.18 5.38 4.54 7.29 9.76 7.29 18.21 0 17.18-12.97 28.68-38.02 28.68-13.38 0-25.03-2.19-36.38-6.13l2.47-11.34c10.61 3.49 21.69 5.68 33.91 5.68 16.01 0 23.02-6.55 23.02-16.32 0-3.64-1.16-7.4-3.2-9.31-2.77-2.78-7.73-4.93-18.06-7.71l-8.62-2.34c-21.81-5.96-28.34-15.29-28.34-27.95 0-16.45 15.12-26.2 38.27-26.2 11.5 0 22.43 1.73 30.56 4.07l-1.88 11.08zm107.2-13.68c-.74 3.76-1.31 7.57-1.75 11.77h-37.45v86.92h-15.69V33.67h-36.98V21.9h91.87zm54.94 0c13.22 0 24.17 1.74 31.13 5.94 7.14 4.4 11.21 12.39 11.21 22.14v1.59c0 12.08-6.4 21.54-16.88 27.23 8.45 9.76 18.93 26.79 25.64 41.79h-16.47c-6.42-14.55-15.72-30.15-24.29-38.57h-34.23v38.57h-15.71V22.16c4.36-.13 9.44-.26 14.12-.26h25.48zm-23.89 48.32h40.6c6.57-4.23 9.79-10.2 9.79-18.79v-.86c0-5.52-1.61-9.77-4.96-12.38-3.94-3.2-11.08-4.52-21.26-4.52h-24.17v36.55zm106.78-48.32v63.02c0 7 .72 14.1 4.79 18.5 4.07 4.5 12.22 6.68 21.98 6.68h.58c9.91 0 17.91-2.18 22.13-6.68 4.09-4.4 4.81-11.5 4.81-18.5V21.9h15.71v52.68c0 17.34.3 28.67-8.01 36.84-7.13 6.97-17.76 10.63-34.2 10.63h-1.44c-16.46 0-26.94-3.66-34.2-10.63-8.16-8.17-7.88-19.5-7.88-36.84V21.9h15.73zm119.41 0c13.13 28.23 25.05 51.21 33.36 66.52 8.42-15.31 20.35-38.29 33.33-66.52h19.21c2.92 22.55 6.71 74.08 7.58 98.69h-15.44c-.15-15.15-3.34-61.87-5.53-81.24-9.89 20.39-24.6 49.07-32.91 64.07h-13.09c-8.44-15-23.31-44.13-33.03-64.64-2.06 19.94-4.96 66.66-5.26 81.81h-15.44c1.04-24.61 5.11-76.14 7.86-98.69h19.36z" fill="#009ad9"/></svg>