<svg xmlns="http://www.w3.org/2000/svg" width="135.25" height="26"><path fill="#04396F" d="M1.552 24.911s101.509-.061 101.99-.079 1.833.147 4.474-1.702c2.887-2.021 18.474-20.59 18.474-20.59s.866-.866 1.348-1.154c.48-.289 1.059-.433 1.78-.433h4.955l-6.783 24.246-126.238.096v-.384z"/><path fill="#A11337" d="M125.624 11.97s1.66.732 1.01 2.357c-.673 1.684-7.842 2.598-8.322 3.705-.366.843 2.598 1.203 2.598 1.203s-4.33.048-3.512-1.78c.748-1.672 7.788-2.17 8.515-3.079.962-1.203-.289-2.406-.289-2.406z"/><path fill="#FFF" d="M125.4 21.396l-1.31-1.016-1.301.943.167-1.644-1.483-.71 1.477-.628-.182-1.653 1.31 1.016 1.301-.943-.167 1.644 1.483.711-1.476.627zm3.012-4.676l-.655-.26-.419.539-.127-.691-.689-.115.529-.43-.271-.653.656.26.418-.538.127.69.689.115-.528.43zm-6.094 6.972l-.612-.436-.571.451.045-.748-.686-.294.658-.311-.113-.747.612.437.573-.451-.045.748.684.295-.658.311zm1.396-11.305l-.612-.436-.573.45.046-.747-.685-.295.658-.311-.113-.746.612.437.571-.451-.045.748.685.294-.657.312zm-4.587 3.581l-.721-.081-.267.65-.317-.654-.715.072.405-.573-.45-.578.722.081.267-.651.316.655.716-.072-.405.573z"/><path fill="#ACABB5" d="M125.624 11.97s1.823.644 1.154 2.261c-.577 1.395-7.89 2.406-8.371 3.512-.366.843 2.502 1.491 2.502 1.491s-4.106-.392-3.512-1.78c.722-1.684 8.093-2.459 8.756-3.416.866-1.25-.529-2.068-.529-2.068z"/><path fill="#04396F" d="M19.737 11.922c-.289-.834-1.54-.738-1.54-.738H8.672l-1.219 1.764s.641-.161 1.026-.161h6.254s.673.032.93.161c.272.136.128.449.128.449l-.642 1.154-6.19-.032s-1.026-.064-2.277.513c-1.25.578-3.752 4.747-3.399 6.479.128.632 1.347.513 1.347.513h5.708c.224 0 .706-.064 1.507-1.154-.032.577-.192 1.154-.192 1.154h3.656c-.128-.994 2.994-5.752 4.169-8.563.235-.555.461-.956.259-1.539zm-7.216 7.409s-.374.658-.513.866c-.192.289-.834.225-.834.225h-3.56s-.32-.064-.32-.289c0-.224.289-.802.289-.802l1.09-2.213s.353-.578.642-.77.801-.16.801-.16h4.202l-1.797 3.143zm5.196 2.693c.642-.737 1.123-1.731 1.123-1.731l4.233-8.019s.321-.545.289-1.09h4.362l-4.907 9.012s-.737 1.123-.673 1.828h-4.427zm6.671-11.866c.545-.962.962-1.7 1.347-2.63 1.187.032 2.469 0 3.785 0-.289.61-1.027 1.764-1.412 2.598-.994.032-2.822.032-3.72.032zm42.239 11.866c.674-.77.866-1.026.995-1.314.21-.474 4.436-8.334 4.522-8.532.225-.513.257-.994.257-.994h3.944l-.48 1.026s1.052-1.026 1.828-1.026h3.752l-1.059 2.277s-4.104-.353-4.874.032c-.741.371-3.842 6.88-3.978 7.152-.128.257-.353.802-.289 1.379h-4.618zm-41.694 0c.674-.77.866-1.026.995-1.314.21-.474 4.436-8.334 4.522-8.532.225-.513.257-.994.257-.994h3.945l-.482 1.026s1.052-1.026 1.828-1.026h3.752l-1.058 2.277s-4.105-.353-4.875.032c-.74.371-3.841 6.88-3.977 7.152-.128.257-.353.802-.289 1.379h-4.618zm10.68 0c.481-.481 1.336-1.776 1.219-1.571-.385.673 4.041-7.729 4.297-8.21.244-.458.353-1.059.353-1.059h4.041l-.481.93s.931-.93 1.443-.93h5.581s1.219-.128 1.476.738c.444 1.5-3.304 6.799-4.266 9.141-.132.321-.192.962-.192.962h-4.619s.54-.461.673-.673c.385-.609 3.945-7.376 3.945-7.376s.385-.578.224-.834c-.175-.28-.513-.192-.513-.192h-3.111s-.577-.064-.77.064c-.253.169-.481.674-.481.674s-3.592 6.542-3.688 6.831-.481.866-.417 1.507c-2.244-.002-4.714-.002-4.714-.002zm33.195-10.262c-.449-.599-1.604-.578-1.604-.578h-7.249s-1.516.041-2.309.481c-1.154.642-1.7 1.572-1.7 1.572l-3.111 5.613s-.834 1.539-.609 2.373c.227.843 1.411.802 1.411.802h7.986s1.059.161 2.63-.866c.872-.569 1.572-2.213 1.572-2.213l2.982-5.548c.001-.001.385-1.123.001-1.636zm-4.073 1.86l-3.111 5.773s-.172.332-.417.577c-.256.257-.577.321-.577.321h-3.977s-.225 0-.257-.257c-.026-.213.161-.513.161-.513l3.239-5.998s.096-.289.385-.481.802-.096.802-.096h3.271s.449-.064.578.096c.127.161-.097.578-.097.578zm19.756-2.438l1.155-2.181 4.169-.545-1.476 2.726h3.945l-.802 1.604h-3.945l-3.527 6.703s-.23.322-.192.545c.031.192.353.257.353.257s2.47.064 4.298-.193c-.642.898-1.283 1.924-1.283 1.924h-6.062s-1.159.171-1.41-.77c-.257-.962.385-1.924.385-1.924l3.592-6.543h-2.277l.898-1.604h2.179zm4.618 10.84C90.072 20.966 97 7.688 97.096 7.207h4.105l-2.47 4.907s.481-.513.77-.706c.289-.192.963-.192.963-.192h4.971s1.145-.194 1.476.577c.288.673-.192 1.7-.192 1.7s-4.267 7.922-4.33 8.531h-4.458c.449-.513 4.618-8.338 4.618-8.338s.306-.451.192-.61c-.16-.224-.385-.192-.385-.192h-3.593s-.319.032-.48.192c-.16.161-.353.545-.353.545s-4.266 7.505-4.298 8.403h-4.523z"/></svg>