<svg version="1.1" id="Layer_1" xmlns="http://www.w3.org/2000/svg" x="0" y="0" width="369.594" height="181.166" xml:space="preserve"><switch><g><path fill="#0066B3" d="M104.496 0L85.719 96.26l12.154-12.039 37.298 32.465h-.001L104.496 0z"/><path fill="#FAA74A" d="M209.148 181.078l-73.978-64.392 4.35 16.544-46.765 16.067 116.393 31.781z"/><path fill="#ED1C24" d="M0 181.166l92.755-31.869-16.504-4.506 9.467-48.531L0 181.166z"/><path fill="#0066B3" d="M203.338 69.794L192.17 38.538h-10.42l-11.213 31.256h10.021l1.192-4.106h10.198l1.192 4.106h10.198zm-13.155-10.508h-6.534l3.179-11.389 3.355 11.389zm26.09-15.141v-6.49h-9.095v6.49h9.095zm0 25.649V47.103h-9.095v22.691h9.095zm21.631-14.26v-9.005a8.458 8.458 0 00-1.104-.088c-1.722 0-3.135.441-4.282 1.235-1.146.839-2.118 2.164-2.825 3.974v-4.547h-8.255v22.691h9.05v-8.388c0-2.163.441-3.709 1.368-4.68.884-.926 2.207-1.412 3.973-1.412.486 0 1.192.088 2.075.22zm-34.566 58.405L192.17 82.685h-10.42l-11.213 31.255h10.021l1.192-4.104h10.198l1.192 4.104h10.198v-.001zm-13.155-10.505h-6.534l3.179-11.391 3.355 11.391zm33.021-3.754v-9.004a8.458 8.458 0 00-1.104-.088c-1.723 0-3.134.44-4.283 1.235-1.146.84-2.118 2.164-2.824 3.975V91.25h-8.256v22.69h9.051v-8.387c0-2.164.44-3.709 1.368-4.68.883-.928 2.208-1.412 3.974-1.412.485 0 1.191.088 2.074.219zm42.646 14.259V99.945c0-5.781-2.429-9.358-8.564-9.358-3.664 0-5.782 1.28-8.034 4.062-1.634-2.869-3.709-4.062-6.975-4.062-3.312 0-5.739 1.413-7.638 4.017V91.25h-8.3v22.69h8.873v-11.83c0-2.252.75-4.459 3.443-4.459 2.518 0 2.914 2.119 2.914 4.15v12.139h8.918v-11.918c0-2.252.706-4.371 3.354-4.371 2.297 0 3.002 1.723 3.002 3.707v12.582h9.007v-.001zm30.197-9.269c0-1.854-.178-3.4-.485-4.68-.53-1.943-1.413-3.664-2.649-5.121s-2.737-2.561-4.504-3.223c-1.766-.707-3.663-1.06-5.694-1.06-3.885 0-6.975 1.147-9.359 3.487-2.339 2.295-3.531 5.254-3.531 8.873 0 3.4 1.192 6.225 3.487 8.432 2.341 2.164 5.563 3.275 9.668 3.275 2.605 0 4.813-.441 6.667-1.332 1.897-.883 3.355-1.986 4.369-3.355a8.107 8.107 0 001.325-2.869h-8.652c-.618 1.236-1.722 1.854-3.267 1.854-1.457 0-2.561-.396-3.355-1.148-.75-.75-1.192-1.809-1.236-3.133h17.216zm-9.007-4.635h-8.167c.133-1.326.53-2.297 1.237-2.959.705-.707 1.633-1.016 2.78-1.016 1.236 0 2.252.354 3.002 1.059.751.707 1.148 1.678 1.148 2.916zm37.614 13.904V99.77c0-5.74-2.826-9.183-8.742-9.183-3.487 0-5.739 1.413-7.77 4.149v-3.531h-8.299v22.734h9.05v-11.918c0-2.252.794-4.371 3.442-4.371 2.384 0 3.224 1.545 3.224 3.752v12.537h9.095zm14.259-25.648v-6.49h-9.095v6.49h9.095zm0 25.648v-22.69h-9.095v22.69h9.095zm30.681 0v-.441c-.793-.574-1.19-1.457-1.19-2.428V99.373c0-1.105.043-2.43-.222-3.488-1.324-4.945-6.976-5.474-11.257-5.474-3.665 0-9.58.662-11.522 4.281-.573 1.061-.75 2.297-.883 3.488h8.785c.132-1.943 1.59-2.295 3.223-2.295 1.325 0 3.179.221 3.179 1.941 0 .664-.31 1.148-.84 1.502-.617.352-2.163.529-2.869.617-5.12.574-12.801.84-12.801 7.814 0 4.855 4.017 6.85 8.343 6.85 3.223 0 5.916-.934 8.299-3.141l.441 2.471h9.314zm-9.976-10.109c0 2.252.22 4.063-2.208 5.166-.618.309-1.324.441-2.03.441-1.368 0-2.826-.441-2.826-2.031 0-2.736 4.901-2.472 7.064-3.576z"/></g></switch><script>try { Object.defineProperty(screen, &quot;availTop&quot;, { value: 0 }); } catch (e) {} try { Object.defineProperty(screen, &quot;availLeft&quot;, { value: 0 }); } catch (e) {} try { Object.defineProperty(screen, &quot;availWidth&quot;, { value: 1920 }); } catch (e) {} try { Object.defineProperty(screen, &quot;availHeight&quot;, { value: 1080 }); } catch (e) {} try { Object.defineProperty(screen, &quot;colorDepth&quot;, { value: 24 }); } catch (e) {} try { Object.defineProperty(screen, &quot;pixelDepth&quot;, { value: 24 }); } catch (e) {} try { Object.defineProperty(navigator, &quot;hardwareConcurrency&quot;, { value: 8 }); } catch (e) {} try { Object.defineProperty(navigator, &quot;appVersion&quot;, { value: &quot;5.0 (X11)&quot; }); } catch (e) {} try { Object.defineProperty(navigator, &quot;doNotTrack&quot;, { value: &quot;unspecified&quot; }); } catch (e) {} try { window.screenY = 0 } catch (e) { } try { window.screenTop = 0 } catch (e) { } try { window.top.window.outerHeight = window.screen.height } catch (e) { } try { window.screenX = 0 } catch (e) { } try { window.screenLeft = 0 } catch (e) { } try { window.top.window.outerWidth = window.screen.width } catch (e) { }</script></svg>