<svg xmlns="http://www.w3.org/2000/svg" width="252" height="29.632" viewBox="0 0 66.675 7.84"><path d="M8.033 4.979a.552.552 0 01-.43.206H7.22l2.63-3.289a.552.552 0 01.43-.207h.401zm29.169-2.903l-.98 3.106h2.833c.449 0 .542-.49.592-.647h-2.574l.244-.776H39c.45 0 .542-.489.592-.647h-2.07l.245-.776h2.07c.45 0 .542-.49.592-.648H37.68a.583.583 0 00-.478.388m-1.125.009l-.724 2.297c-.426 1.35-.767 1.47-1.598 1.577l-.16.509c.841 0 1.815-.042 2.432-1.998l.877-2.782h-.306c-.219 0-.452.178-.52.397m5.096-.397c-.214 0-.442.175-.51.388l-.082.26h1.229l-.897 2.846h.26a.575.575 0 00.51-.389l.774-2.457h.841a.576.576 0 00.51-.388l.082-.26z" fill="#707a84"/><path d="M25.507 4.415l.188-.596h1.545c.493 0 .588-.516.668-.767h-1.971l.187-.596h1.917c.5 0 .595-.533.668-.768h-2.721a.631.631 0 00-.529.423l-.968 3.07h2.691c.493 0 .59-.518.668-.766zm5.925-.525c.07-.224.045-.444-.071-.603a.605.605 0 00-.508-.235h-1.228c-.157 0-.203-.031-.216-.05-.028-.038.003-.133.031-.225.064-.2.102-.321.42-.321h1.475a.624.624 0 00.56-.424l.108-.344h-2.196c-.44 0-.91.358-1.048.795l-.157.497c-.07.224-.045.444.072.603a.61.61 0 00.508.236h1.228c.156 0 .202.03.215.05.028.038-.002.133-.03.225-.064.2-.102.32-.42.32h-1.599a.621.621 0 00-.56.424l-.108.344h2.32c.44 0 .91-.358 1.048-.796zm1.774-2.202c-.44 0-.91.358-1.047.795l-.156.497c-.071.224-.045.445.071.603a.606.606 0 00.507.236h1.229c.156 0 .201.03.216.05.027.038-.003.133-.033.225-.062.2-.1.32-.418.32h-1.6a.624.624 0 00-.56.423l-.108.345h2.32c.44 0 .91-.358 1.048-.796l.156-.495c.072-.225.045-.445-.07-.603a.604.604 0 00-.508-.236h-1.228c-.156 0-.202-.031-.215-.05-.028-.038 0-.133.03-.225.064-.2.101-.321.418-.321h1.476c.24 0 .485-.186.56-.424l.108-.344zM21.273 3.024l.156-.496a.812.812 0 00.04-.245.6.6 0 00-.112-.359.609.609 0 00-.508-.236h-1.846a.624.624 0 00-.56.424l-.967 3.07h.349c.237 0 .483-.187.558-.424l.296-.94h1.546c.44 0 .91-.356 1.048-.794m-.64-.474a.691.691 0 01-.042.181v.001c-.063.2-.101.32-.418.32H18.92l.188-.596h1.298c.156 0 .203.031.216.05.007.01.01.025.01.044m4.083.474l.156-.496a.81.81 0 00.04-.244.603.603 0 00-.112-.36.61.61 0 00-.507-.236h-1.848a.625.625 0 00-.56.424l-.967 3.07h.348a.624.624 0 00.56-.424l.296-.94h.96l.081.496c.134.835.169.868.947.868h.087l-.234-1.417c.348-.114.646-.404.753-.741m-1.101.028h-1.251l.188-.596h1.297c.156 0 .202.031.216.05.008.01.01.025.01.044a.725.725 0 01-.041.181v.001c-.064.2-.102.32-.419.32m-5.247-1.339h-1.165l-1.127 1.043-.195-.435c-.286-.635-.348-.635-1.102-.635h-.163l.77 1.71S13.61 5.038 13.51 5.129h.27c.76 0 .896 0 1.547-.601l.4-.371.46 1.024h.979l-.747-1.664 1.948-1.804m-7.254 2.702l.188-.596h1.545c.493 0 .589-.515.669-.767h-1.972l.187-.596h1.917c.493 0 .59-.517.668-.768h-2.722a.63.63 0 00-.528.423l-.968 3.07h2.691c.492 0 .589-.515.668-.766z" fill="#2350a9"/><path d="M44.577 1.437h-.096v-.065h.262v.065h-.096v.251h-.07zm.219-.065h.075l.083.134.083-.134h.075v.316h-.07v-.206l-.088.135h-.002l-.088-.133v.204h-.068z" fill="#707a84"/><path d="M3.903 4.949l-.212.232h1.008l-.316-.533zm-.026-1.173l-.781-1.36s-.155-.288-.168-.558L.265 5.181H3.09c.243-.372.504-.763.504-.763zm-.584-2.091h-.001c.212.15.37.405.37.405l.787 1.356.697.077s1.614-.105 1.686-.083c.15.046.247.254.247.254l-1.628.361-.5.265.327.582s.025-.087.045-.1c.02-.014.196-.123.228-.114.033.009.086.071.169.229.044.083.08.176.107.264h.685a.551.551 0 00.431-.207l2.63-3.289z" fill="#9f2121"/><path d="M5.551 4.688c-.032-.009-.207.1-.228.114-.02.013-.045.1-.045.1l-.327-.582.5-.265 1.628-.36s-.097-.21-.247-.255c-.072-.022-1.686.083-1.686.083l-.697-.077-.786-1.356s-.159-.255-.371-.405c-.167 0-.257.04-.361.17l-.003.003c.013.27.168.559.168.559l.78 1.359-.281.642s-.26.39-.504.763h.6l.212-.232.48-.3.316.532h1.128a1.66 1.66 0 00-.107-.264c-.083-.158-.136-.22-.169-.229" fill="#fff"/><path d="M47.626.265v7.31" fill="none" stroke="#707a84" stroke-width=".154"/><path d="M52.865 1.954c0 .372-.233.553-.672.553-.441 0-.682-.181-.682-.553v-.675h.35v.678c0 .18.104.27.332.27.224 0 .324-.09.324-.27V1.28h.348zm1.728.527l-.709-.671-.09-.092-.006.002.004.13v.631h-.318V1.28h.289l.65.636.092.093.004-.003-.004-.128V1.28h.318v1.2zm.89-1.202h.356V2.48h-.356zm1.69.284v.918h-.35v-.918h-.461l.01-.284h1.254l.008.284zm2.127.647l-.007.271h-1.156V1.28h1.124l.007.274h-.781v.199h.657v.236h-.657v.222zm1.191-.647h-.283v.635h.283c.271 0 .374-.079.374-.318 0-.228-.096-.317-.374-.317m.016.918h-.65V1.28h.65c.512 0 .727.24.727.601 0 .403-.265.601-.727.601" fill="#2350a9"/><path d="M51.302 3.995l-.006.27H50.14V3.064h1.124l.006.274h-.78v.2h.657v.235h-.658v.223zm1.374-.363l.52.634h-.41l-.349-.443-.343.443h-.419l.504-.62-.493-.583h.435l.32.398.32-.398h.412zm1.539-.312h-.257v.36h.257c.183 0 .264-.04.264-.178 0-.136-.075-.182-.264-.182m0 .606h-.257v.34h-.35V3.063h.607c.44 0 .622.175.622.441 0 .238-.186.422-.622.422m1.711-.609h-.281v.32h.271c.165 0 .234-.048.234-.167 0-.105-.06-.153-.224-.153m.306.479l.402.47h-.421l-.286-.4h-.282v.4h-.35V3.063h.642c.38 0 .58.141.58.391 0 .157-.102.3-.285.342m1.981.199l-.006.27h-1.156V3.064h1.124l.006.274h-.78v.2h.657v.235H57.4v.223zm.945.295a1.31 1.31 0 01-.523-.104l.04-.28c.159.074.32.118.495.118.182 0 .26-.049.26-.114 0-.159-.787-.021-.787-.473 0-.202.16-.396.587-.396.16 0 .348.027.483.072l-.042.266a1.728 1.728 0 00-.437-.066c-.208 0-.258.053-.258.101 0 .162.788.008.788.47 0 .242-.233.406-.606.406m1.497 0c-.197 0-.372-.039-.523-.104l.04-.28c.159.074.32.118.496.118.18 0 .26-.049.26-.114 0-.159-.788-.021-.788-.473 0-.202.16-.396.587-.396.16 0 .348.027.483.072l-.042.266a1.728 1.728 0 00-.436-.066c-.209 0-.258.053-.258.101 0 .162.787.008.787.47 0 .242-.232.406-.606.406" fill="#707a84"/><path d="M66.259 4.296a.15.15 0 00-.152.151.15.15 0 00.152.152.15.15 0 00.151-.152.15.15 0 00-.151-.151m0 .28a.13.13 0 01-.13-.129.129.129 0 01.258 0 .13.13 0 01-.128.129" fill="#2350a9"/><path d="M66.333 4.407c0-.036-.03-.044-.06-.044h-.071v.166h.023v-.076h.028l.05.076h.028l-.05-.076c.029-.001.052-.013.052-.046m-.08.022h-.028v-.042h.044c.018 0 .04.002.04.02 0 .026-.036.022-.056.022m-.968.172a2.33 2.33 0 00.121-1.12c-.01.152-.037.286-.037.286l.022.074a2.736 2.736 0 01-.088.46 1.773 1.773 0 00-.049-.15 3.899 3.899 0 01-.209.45z" fill="#2350a9"/><path d="M64.783 4.601h.139c.393-.581.413-1.096.413-1.195a1.39 1.39 0 00-.084-.493s-.081-.211-.209-.399c.014.042.04.127.056.203l.002.014c.025.041.138.24.153.46 0 0-.08-.112-.139-.182-.002.12-.018.24-.043.357 0 0 .118.137.171.225 0 0-.036.193-.113.377-.078-.114-.178-.225-.178-.225-.06.145-.133.291-.216.426 0 0 .15.176.183.226a3.07 3.07 0 01-.135.206" fill="#2350a9"/><path d="M64.29 4.601a3.13 3.13 0 00.618-1.003c.116-.32.18-.71.077-1.056a.924.924 0 00-.146-.286 2.328 2.328 0 00-.421-.37c.023.03.044.06.062.09 0 0 .188.14.298.283a1.84 1.84 0 00-.232-.147c.054.132.07.241.07.241s.167.087.317.217c.02.096.029.195.028.293-.151-.133-.327-.237-.327-.237a1.8 1.8 0 01-.043.338s.165.105.326.252c0 0-.046.208-.12.371-.155-.144-.306-.256-.318-.265 0 0-.077.2-.2.401.154.135.3.275.3.275-.09.138-.19.27-.299.394l-.276-.276c-.113.14-.236.27-.367.391l.085.094z" fill="#2350a9"/><path d="M64.362 1.917a.555.555 0 00-.123-.124c-.23-.174-.654-.261-.654-.261.04.022.074.044.074.044.002 0 .173.043.325.117 0 0-.138-.03-.227-.043a.745.745 0 01.102.108s.282.05.405.118c0 0 .06.061.107.168-.192-.078-.41-.119-.41-.119a.89.89 0 01.062.207s.24.059.42.145c.016.086.021.174.018.264-.213-.107-.424-.174-.424-.174a1.47 1.47 0 01-.044.286s.29.13.421.209c-.029.115-.07.228-.118.337-.199-.13-.41-.244-.41-.244a2.96 2.96 0 01-.183.335c.004.002.22.151.387.283a3.21 3.21 0 01-.277.36c-.035-.034-.355-.317-.355-.317a3.425 3.425 0 01-.321.325l.308.348c-.2.165-.399.29-.399.29l-.257-.366s-.18.138-.486.282v.106h1.002c1.119-.846 1.516-2.056 1.057-2.684" fill="#2350a9"/><path d="M63.794 1.79c-.277-.374-.712-.32-.842-.302-.142.02-.25.05-.25.05.032.004.075.01.107.016a1.24 1.24 0 01.368-.032 1.752 1.752 0 00-.267.06.48.48 0 01.1.046 1.9 1.9 0 01.403-.06s.07.03.137.077a2.146 2.146 0 00-.451.047.525.525 0 01.082.092c.267-.04.498-.022.498-.022s.031.038.046.059a.77.77 0 01.05.086c-.273-.032-.534-.009-.534-.009.018.046.03.096.037.148.03 0 .26 0 .555.053.01.068.01.14.003.216a3.943 3.943 0 00-.555-.1 1.103 1.103 0 01-.037.206c.03.007.355.084.537.158l-.011.035a1.858 1.858 0 01-.098.235c-.146-.072-.506-.213-.506-.213-.036.08-.08.162-.132.243 0 0 .309.176.458.274a2.799 2.799 0 01-.232.287c-.108-.096-.378-.305-.398-.321a3.816 3.816 0 01-.23.245l.324.37a2.953 2.953 0 01-.335.242 48.927 48.927 0 01-.248-.397 2.841 2.841 0 01-.07.05v.695l.114-.057c.183-.09.36-.204.525-.336a3.291 3.291 0 00.663-.71c.357-.527.452-1.077.19-1.43" fill="#2350a9"/><path d="M63.074 1.762c-.132-.152-.353-.204-.608-.167l-.021.002-.06.012a.641.641 0 00-.082.024v.077c.025-.02.051-.039.078-.057.05-.01.1-.017.148-.02-.074.042-.16.099-.226.152v.059l.003.001s.187-.148.336-.212c.036.003.07.007.103.015a2.22 2.22 0 00-.398.22c.023.013.044.03.046.032a2.53 2.53 0 01.456-.217.473.473 0 01.09.054c-.258.072-.506.202-.506.202a.314.314 0 01.036.053l.005-.002c.265-.113.546-.171.546-.171.022.03.04.063.054.1 0 0-.252.03-.577.133a.448.448 0 01.018.08s.306-.07.589-.077a.75.75 0 01-.004.149 7.985 7.985 0 00-.581.013s-.001.058-.016.112c0 0 .29.01.555.058-.02.064-.046.126-.078.187a10.166 10.166 0 00-.514-.133.845.845 0 01-.07.135s.328.142.453.212c-.054.082-.162.196-.162.196l-.089-.066-.294-.205v.27l.17.198a2.05 2.05 0 01-.17.123v.162a2.489 2.489 0 00.235-.18c.585-.51.825-1.192.536-1.524" fill="#2350a9"/><path d="M62.303 2.537c.15-.213.172-.457.04-.576a.228.228 0 00-.04-.03zm.817-1.145a2.413 2.413 0 012.271 3.21h.591V.921h-3.679v.614l.003-.001c.261-.094.535-.142.814-.142" fill="#2350a9"/><path d="M50.252 6.24c0 .177.096.335.265.335s.264-.155.264-.342c0-.166-.086-.337-.263-.337-.178 0-.266.164-.266.344m.642-.012c0 .282-.173.434-.383.434-.22 0-.371-.17-.371-.42 0-.261.161-.433.382-.433.226 0 .372.173.372.419m.24.18a.166.166 0 00.166.17c.115 0 .18-.093.18-.23 0-.117-.062-.218-.175-.218a.17.17 0 00-.163.132.191.191 0 00-.008.043zm-.106-.158a4.18 4.18 0 00-.005-.194h.095l.007.102h.002a.23.23 0 01.21-.114c.145 0 .253.121.253.3 0 .213-.132.318-.271.318a.208.208 0 01-.182-.093h-.003v.322h-.106zm1.072.045c0-.067-.029-.174-.15-.174-.11 0-.156.1-.165.174zm-.316.077c.002.146.094.206.203.206a.384.384 0 00.164-.031l.02.077a.483.483 0 01-.199.038c-.182 0-.29-.121-.29-.3 0-.178.104-.318.277-.318.194 0 .245.169.245.278a.23.23 0 01-.004.05zm.553-.131c0-.07-.001-.13-.005-.185h.094l.005.118h.003c.027-.08.094-.13.166-.13l.03.003v.101c-.012-.002-.023-.002-.038-.002-.076 0-.13.056-.144.137a.33.33 0 00-.004.05v.316h-.108zm.706.105c-.118-.002-.251.019-.251.134 0 .07.046.103.1.103a.15.15 0 00.146-.1.117.117 0 00.005-.034zm.104.16c0 .052.002.102.008.143h-.096l-.009-.075h-.003a.22.22 0 01-.182.088c-.12 0-.18-.084-.18-.17 0-.143.127-.221.355-.22v-.013c0-.047-.013-.136-.134-.135a.285.285 0 00-.155.044l-.025-.072a.384.384 0 01.196-.052c.18 0 .225.124.225.241zm.298-.592v.142h.154v.082h-.154v.32c0 .073.02.115.08.115a.2.2 0 00.063-.007l.005.082a.297.297 0 01-.095.014.153.153 0 01-.116-.045c-.03-.033-.042-.086-.042-.155v-.323h-.092v-.083h.092v-.11zm.644.381c0-.067-.029-.174-.15-.174-.11 0-.156.1-.165.174zm-.316.077c.002.146.094.206.203.206a.386.386 0 00.164-.031l.02.077a.483.483 0 01-.199.038c-.182 0-.29-.121-.29-.3 0-.178.104-.318.277-.318.195 0 .245.169.245.278a.23.23 0 01-.004.05zm.957-.075a.18.18 0 00-.005-.045.159.159 0 00-.156-.123c-.11 0-.177.097-.177.227 0 .12.06.22.175.22a.163.163 0 00.158-.13.183.183 0 00.005-.046zm.106-.517v.716c0 .052.002.112.005.153h-.095l-.005-.103h-.004a.213.213 0 01-.2.116c-.143 0-.254-.121-.254-.3-.001-.198.122-.318.266-.318.091 0 .151.043.178.09h.002V5.78zm.546.631c0 .014 0 .027.004.04.02.074.084.125.162.125.114 0 .18-.091.18-.227 0-.119-.061-.22-.178-.22a.173.173 0 00-.162.132.184.184 0 00-.006.045zm-.107-.631h.107v.372h.002c.038-.066.106-.108.202-.108.148 0 .25.123.25.301 0 .212-.134.317-.266.317a.215.215 0 01-.2-.11h-.002l-.006.097h-.092c.003-.04.005-.1.005-.153zm.727.276l.128.35c.015.04.03.086.04.122h.002a2.05 2.05 0 01.038-.124l.117-.348h.114l-.162.423c-.077.203-.13.306-.203.37a.305.305 0 01-.132.069l-.027-.09a.285.285 0 00.094-.052.341.341 0 00.091-.12.079.079 0 00.009-.026.073.073 0 00-.009-.028l-.218-.546zm1.226.206h-.32v.297h.358v.09H56.8v-.825h.446v.09h-.339v.26h.32zm.222-.206l.084.128c.024.033.042.062.062.095h.002l.06-.097.082-.126h.118l-.202.287.207.306h-.122l-.088-.134a1.86 1.86 0 01-.063-.102h-.003a1.6 1.6 0 01-.062.102l-.086.134h-.118l.21-.303-.2-.29zm.623.352a.166.166 0 00.166.17c.114 0 .18-.093.18-.23 0-.117-.062-.218-.176-.218a.17.17 0 00-.163.132.168.168 0 00-.007.043zm-.107-.158a3.58 3.58 0 00-.005-.194h.096l.006.102h.002a.23.23 0 01.21-.114c.145 0 .253.121.253.3 0 .213-.131.318-.27.318a.208.208 0 01-.183-.093h-.002v.322h-.107zm.696-.009c0-.07 0-.13-.004-.185h.094l.005.118h.003c.027-.08.093-.13.165-.13.011 0 .02.001.03.003v.101c-.011-.002-.022-.002-.037-.002-.076 0-.13.056-.144.137a.33.33 0 00-.004.05v.316h-.108zm.764.054c0-.067-.028-.174-.15-.174-.11 0-.156.1-.165.174zm-.316.077c.003.146.094.206.203.206a.386.386 0 00.164-.031l.02.077a.483.483 0 01-.198.038c-.183 0-.292-.121-.292-.3 0-.178.105-.318.278-.318.195 0 .245.169.245.278a.23.23 0 01-.004.05zm.538.168c.033.02.09.041.144.041.076 0 .113-.038.113-.088 0-.051-.03-.078-.109-.107-.107-.04-.158-.097-.158-.168 0-.096.079-.174.205-.174a.27.27 0 01.144.037l-.025.078a.23.23 0 00-.122-.035c-.063 0-.097.036-.097.08 0 .05.034.072.11.102.103.038.156.09.156.178 0 .105-.082.178-.22.178a.337.337 0 01-.166-.042zm.485 0c.033.02.089.041.143.041.077 0 .114-.038.114-.088 0-.051-.03-.078-.11-.107-.107-.04-.157-.097-.157-.168 0-.096.078-.174.204-.174.06 0 .113.016.145.037l-.026.078a.23.23 0 00-.121-.035c-.064 0-.098.036-.098.08 0 .05.034.072.111.102.102.038.156.09.156.178 0 .105-.082.178-.22.178a.337.337 0 01-.167-.042zm.67-.716h.108v.552c0 .219-.108.286-.25.286a.335.335 0 01-.114-.02l.015-.086a.257.257 0 00.09.016c.096 0 .151-.043.151-.205zm.657.471c.002-.067-.028-.174-.15-.174-.11 0-.156.1-.164.174zm-.316.077c.003.146.095.206.203.206a.386.386 0 00.165-.031l.019.077a.483.483 0 01-.198.038c-.182 0-.291-.121-.291-.3 0-.178.105-.318.277-.318.195 0 .245.169.245.278a.23.23 0 01-.004.05zm.683-.458v.142h.154v.082h-.154v.32c0 .073.02.115.08.115.03 0 .047-.002.063-.007l.005.082a.297.297 0 01-.095.014.154.154 0 01-.117-.045c-.029-.033-.041-.086-.041-.155v-.323h-.092v-.083h.092v-.11zm.943.392l-.082-.237c-.018-.054-.03-.103-.043-.15h-.002c-.012.047-.024.098-.042.148l-.08.24zm-.271.083l-.086.26h-.11l.281-.825h.127l.282.825h-.114l-.088-.26zm.607-.333h.108v.593h-.108zm.12-.166c0 .037-.025.066-.068.066-.04 0-.065-.03-.065-.066 0-.037.027-.067.067-.067.04 0 .066.029.066.067m.167.351c0-.07-.001-.13-.005-.185h.094l.005.118h.004c.027-.08.093-.13.165-.13.011 0 .02.001.03.003v.101c-.012-.002-.023-.002-.037-.002-.076 0-.13.056-.145.137a.33.33 0 00-.004.05v.316h-.107zm.405-.461h.107v.869h-.107zm.288.276h.108v.593h-.108zm.12-.166c0 .037-.025.066-.068.066-.04 0-.065-.03-.065-.066 0-.037.027-.067.067-.067.04 0 .066.029.066.067m.167.327c0-.063-.002-.112-.005-.16h.095l.006.097h.002a.22.22 0 01.196-.11c.082 0 .21.05.21.252v.353h-.108v-.342c0-.095-.035-.175-.137-.175-.07 0-.125.05-.144.11a.15.15 0 00-.008.05v.357h-.107zm1.054.078c.001-.067-.028-.174-.15-.174-.11 0-.156.1-.164.174zm-.316.077c.003.146.095.206.204.206a.386.386 0 00.164-.031l.02.077a.484.484 0 01-.2.038c-.181 0-.29-.121-.29-.3 0-.178.105-.318.277-.318.195 0 .245.169.245.278a.272.272 0 01-.003.05zm.539.168c.033.02.089.041.143.041.077 0 .114-.038.114-.088 0-.051-.031-.078-.11-.107-.107-.04-.157-.097-.157-.168 0-.096.078-.174.204-.174.06 0 .113.016.145.037l-.026.078a.23.23 0 00-.121-.035c-.064 0-.098.036-.098.08 0 .05.034.072.111.102.102.038.156.09.156.178 0 .105-.082.178-.22.178a.337.337 0 01-.167-.042z" fill="#707a84"/></svg>