<svg width="259.71" height="44.76" viewBox="0 0 68.716 11.843" xmlns="http://www.w3.org/2000/svg"><path d="M32.78 10.89l.11-.44.207-.91.09-.42c-.243 0-.457.006-.64.013.02-.077.035-.144.047-.203l.816.001h.73a2.798 2.798 0 00-.048.202 9.69 9.69 0 00-.509-.013h-.121l-.147.635-.195.895-.044.24-.143-.003-.153.003m1.163 0l.152-.624.19-.852.097-.484.136.001h.133l-.125.498-.066.298c.031-.041.058-.074.08-.099a.629.629 0 01.177-.135.743.743 0 01.247-.077 1.083 1.083 0 01.401.014.423.423 0 01.181.09.249.249 0 01.086.151.486.486 0 01-.003.178l-.018.095-.05.207-.122.528a7.968 7.968 0 00-.044.211 4.095 4.095 0 00-.274 0 15.178 15.178 0 00.234-.95.359.359 0 00-.008-.19.212.212 0 00-.123-.114.524.524 0 00-.215-.041.698.698 0 00-.214.033.533.533 0 00-.288.218.748.748 0 00-.087.17 2.81 2.81 0 00-.106.38c-.022.096-.057.26-.107.494a3.756 3.756 0 00-.264 0m2.256-.92h.888a.811.811 0 00.013-.14.356.356 0 00-.02-.105.241.241 0 00-.165-.153.59.59 0 00-.652.263.964.964 0 00-.064.135m.878.683c-.02.052-.046.12-.073.202a1.907 1.907 0 01-.468.058 1.1 1.1 0 01-.325-.043.455.455 0 01-.227-.15.51.51 0 01-.107-.245.87.87 0 01.007-.291c.027-.143.078-.275.158-.397a.842.842 0 01.308-.288.919.919 0 01.45-.105.79.79 0 01.253.039.401.401 0 01.185.115.41.41 0 01.09.192.64.64 0 01-.027.35h-1.136a1.633 1.633 0 00-.029.12.548.548 0 00.016.277.337.337 0 00.157.193.572.572 0 00.284.065c.127 0 .29-.031.483-.092m2.493.237l-.102-.722-.199-1.238a7.63 7.63 0 00.29 0l.107.856.088.634.035.229c.208-.303.408-.611.602-.925-.037-.271-.08-.536-.128-.794l.146.001h.144l.024.24c.007.06.018.14.035.238a8.61 8.61 0 00.291-.479 7.716 7.716 0 00.294 0 30.6 30.6 0 00-.53.797c.034.306.08.613.133.922l.553-.853.404-.64.138-.226.145.001h.145l-.653.977-.47.718-.17.264a4.16 4.16 0 00-.31 0 12.857 12.857 0 00-.13-.848c-.198.281-.387.564-.568.848a4.214 4.214 0 00-.314 0m2.777-1.77c.02-.09.033-.158.041-.204a3.948 3.948 0 00.288 0c-.008.03-.023.098-.046.204l-.139-.001-.144.001m-.392 1.767l.092-.362.142-.617.099-.474h.271a21.405 21.405 0 00-.327 1.453 4.688 4.688 0 00-.277 0m.681.003c.157-.6.27-1.084.34-1.453h.264l-.072.286.076-.093a.622.622 0 01.3-.186 1.05 1.05 0 01.289-.041c.085 0 .165.01.24.03.077.02.136.053.179.098a.27.27 0 01.075.153.57.57 0 01-.008.183c-.001.012-.007.036-.015.071a5.39 5.39 0 01-.03.14l-.14.601a5.947 5.947 0 00-.043.21 2.834 2.834 0 00-.264 0c.03-.114.059-.227.083-.334l.082-.334c.027-.115.045-.202.055-.26a.364.364 0 00-.008-.201.216.216 0 00-.121-.117.517.517 0 00-.213-.04.614.614 0 00-.312.078.626.626 0 00-.213.209c-.04.064-.078.158-.113.284-.043.15-.098.389-.164.716a3.768 3.768 0 00-.268 0m3.332-1.28a1.571 1.571 0 00-.305-.032 1.1 1.1 0 00-.276.033.705.705 0 00-.25.121.78.78 0 00-.203.227.887.887 0 00-.11.289.56.56 0 00.006.254.28.28 0 00.131.173.467.467 0 00.24.058c.08 0 .155-.014.222-.04a.594.594 0 00.19-.126.754.754 0 00.15-.202c.029-.053.057-.133.087-.238.024-.084.063-.256.118-.517m-1.454 1.694c.124.038.229.064.315.078.086.013.165.02.238.02.082 0 .16-.011.235-.034a.569.569 0 00.164-.077.397.397 0 00.098-.1.841.841 0 00.092-.209c.022-.068.054-.203.096-.406-.032.043-.06.078-.085.104a.65.65 0 01-.22.159.814.814 0 01-.344.072.803.803 0 01-.248-.036.432.432 0 01-.19-.12.4.4 0 01-.101-.212.738.738 0 010-.27c.024-.129.07-.252.14-.369a1.002 1.002 0 01.61-.459c.122-.033.253-.049.391-.049.153 0 .34.02.56.06l-.048.176-.193.805c-.002.017-.023.114-.061.292l-.062.298a.696.696 0 01-.126.279.62.62 0 01-.309.216c-.06.02-.12.033-.181.042a1.41 1.41 0 01-.205.015 2.48 2.48 0 01-.588-.068l.01-.08.012-.127m1.769-.444l.01-.105a1.31 1.31 0 00.009-.11c.14.064.275.096.405.096a.546.546 0 00.176-.026.26.26 0 00.118-.076.216.216 0 00.054-.106.185.185 0 00-.017-.118.338.338 0 00-.045-.061 4.542 4.542 0 00-.135-.127 4.008 4.008 0 01-.155-.146.697.697 0 01-.087-.107.384.384 0 01-.045-.112.358.358 0 010-.113.38.38 0 01.094-.178.462.462 0 01.198-.129.84.84 0 01.275-.042c.114 0 .238.013.37.04-.011.073-.017.142-.024.204a.795.795 0 00-.316-.066.62.62 0 00-.168.022.277.277 0 00-.122.067.183.183 0 00-.053.164c.004.02.014.044.03.068a.408.408 0 00.06.072c.024.024.074.07.148.136s.124.114.15.145a.573.573 0 01.063.098.314.314 0 01.03.201.377.377 0 01-.097.187.505.505 0 01-.208.133.826.826 0 01-.283.048 1.74 1.74 0 01-.436-.06M50.1 9.58a.62.62 0 00-.292.073.57.57 0 00-.229.22.947.947 0 00-.119.322.69.69 0 000 .273.322.322 0 00.132.196c.067.05.156.075.265.075a.68.68 0 00.218-.037.554.554 0 00.196-.121.69.69 0 00.148-.208.99.99 0 00.083-.257.72.72 0 00.007-.237.32.32 0 00-.077-.178.344.344 0 00-.149-.094.613.613 0 00-.183-.027m.04-.182c.104 0 .2.014.29.043a.517.517 0 01.22.136.478.478 0 01.114.236.793.793 0 01-.002.3 1.078 1.078 0 01-.326.593.783.783 0 01-.283.16 1.07 1.07 0 01-.33.05.893.893 0 01-.292-.045.506.506 0 01-.219-.144.505.505 0 01-.114-.239.829.829 0 01.001-.297c.029-.155.088-.296.176-.42a.819.819 0 01.34-.28c.139-.062.28-.093.425-.093m.826 1.492l.064-.264.225-1.01h-.186c.013-.046.029-.106.044-.177h.192l.044-.205a.668.668 0 01.044-.128.324.324 0 01.063-.095.394.394 0 01.098-.073.472.472 0 01.136-.048.822.822 0 01.168-.016c.083 0 .177.013.28.037-.006.057-.014.118-.017.182a.738.738 0 00-.25-.047.359.359 0 00-.19.052.223.223 0 00-.06.062.392.392 0 00-.041.092c-.011.035-.02.077-.03.125l-.012.062h.413c-.012.041-.027.1-.045.178h-.4l-.16.732-.112.541a4.607 4.607 0 00-.268 0m2.993-1.04l.45-.407.383-.357.157-.155h.332l-.869.773-.15.139.064.102c.013.021.112.167.294.434l.355.511-.17-.004c-.045 0-.106.001-.185.004l-.111-.193zm-.538 1.04l.14-.564.243-1.11c.014-.062.026-.124.037-.188l.017-.097h.293l-.125.524-.257 1.169-.053.266-.144-.004-.151.004m2.156-1.77c.02-.09.033-.158.042-.204a3.912 3.912 0 00.288 0c-.008.03-.024.098-.047.204l-.138-.001-.145.001m-.391 1.767l.091-.362.142-.617.099-.474h.271a22.3 22.3 0 00-.327 1.453 4.742 4.742 0 00-.276 0m.692.003a40.833 40.833 0 00.444-1.96l.139.001h.133l-.2.842-.19.853-.053.264a4.205 4.205 0 00-.273 0m1.093-1.77c.02-.09.035-.158.042-.204a3.917 3.917 0 00.288 0c-.008.03-.023.098-.046.204l-.14-.001-.144.001m-.39 1.767l.09-.362.142-.617.1-.474h.271c-.039.148-.077.304-.117.468a22.3 22.3 0 00-.21.985 4.833 4.833 0 00-.276 0m.687.003l.054-.208c.012-.044.028-.113.05-.209l.196-.873.03-.163a8.824 8.824 0 00.253 0l-.062.266c.043-.053.082-.096.115-.128a.602.602 0 01.123-.088.74.74 0 01.347-.085.496.496 0 01.231.054.353.353 0 01.081.06c.02.022.036.046.047.072a.46.46 0 01.027.112.68.68 0 01.586-.297c.072 0 .139.01.201.034.064.02.111.052.143.093a.25.25 0 01.056.13.43.43 0 01-.004.133 4.356 4.356 0 01-.048.207 21.372 21.372 0 00-.201.89 3.457 3.457 0 00-.265 0c.033-.13.07-.27.105-.422l.084-.356c.02-.086.036-.16.048-.222.01-.056.013-.1.005-.131a.17.17 0 00-.041-.085.21.21 0 00-.087-.057.378.378 0 00-.129-.019.534.534 0 00-.113.013.499.499 0 00-.2.106.5.5 0 00-.08.089.638.638 0 00-.069.12 1.435 1.435 0 00-.07.21c-.023.089-.05.206-.08.352l-.086.402a3.995 3.995 0 00-.265 0c.032-.119.062-.241.091-.366l.08-.347c.026-.108.045-.2.06-.275a.463.463 0 00.006-.124.178.178 0 00-.038-.093.209.209 0 00-.087-.064.33.33 0 00-.124-.023.438.438 0 00-.146.025.519.519 0 00-.254.194.755.755 0 00-.094.187 3.511 3.511 0 00-.109.402 13.45 13.45 0 00-.1.484 4.984 4.984 0 00-.267 0m2.949-1.23c.017-.042.038-.105.063-.186a2.354 2.354 0 01.582-.078c.088 0 .171.007.246.023a.428.428 0 01.18.078.204.204 0 01.08.121.456.456 0 010 .148 6.41 6.41 0 01-.078.332c-.038.156-.073.3-.102.432-.03.132-.053.25-.073.353a3.582 3.582 0 00-.267 0l.104-.392.107-.463-.088.054a.555.555 0 01-.141.055 8.698 8.698 0 01-.162.043c-.08.019-.135.035-.17.045-.071.022-.13.042-.173.064a.594.594 0 00-.113.069.297.297 0 00-.07.074.275.275 0 00-.037.096.178.178 0 00.023.135.19.19 0 00.105.08.533.533 0 00.17.022 1.015 1.015 0 00.323-.052 1.77 1.77 0 00-.078.171 1.495 1.495 0 01-.313.03.811.811 0 01-.31-.045.263.263 0 01-.146-.14.402.402 0 01.096-.423.58.58 0 01.114-.09.877.877 0 01.145-.073c.05-.02.108-.037.172-.056.066-.02.168-.044.31-.076a1.039 1.039 0 00.205-.058.336.336 0 00.127-.08.31.31 0 00.042-.058.2.2 0 00.021-.058.143.143 0 00-.025-.12.2.2 0 00-.112-.07.657.657 0 00-.177-.02 1.724 1.724 0 00-.58.114m1.305 1.229c.156-.6.27-1.084.34-1.453h.263l-.072.286c.033-.04.057-.071.077-.093a.627.627 0 01.3-.186 1.073 1.073 0 01.288-.041c.086 0 .165.01.241.03a.37.37 0 01.178.098.265.265 0 01.075.153.598.598 0 01-.007.183 1.647 1.647 0 01-.015.071l-.03.14-.14.601a8.55 8.55 0 00-.043.21 2.81 2.81 0 00-.264 0 18.2 18.2 0 00.084-.334l.08-.334a6.71 6.71 0 00.057-.26.371.371 0 00-.008-.201.217.217 0 00-.121-.117.522.522 0 00-.214-.04.61.61 0 00-.311.078.616.616 0 00-.214.209c-.04.064-.079.158-.113.284-.042.15-.097.389-.163.716a3.785 3.785 0 00-.268 0" fill="#03b14d"/><path d="M63.772 9.12c.013-.055.028-.122.044-.203a3.146 3.146 0 00.288 0 7.076 7.076 0 00-.046.203 3.917 3.917 0 00-.286 0m.21.315l-.146.632-.141.642a6.475 6.475 0 01-.115.478.708.708 0 01-.07.168.457.457 0 01-.173.158.558.558 0 01-.132.05.902.902 0 01-.205.021c-.12 0-.25-.015-.383-.044a2.2 2.2 0 00.017-.202.9.9 0 00.313.062.444.444 0 00.27-.09.377.377 0 00.074-.096.799.799 0 00.074-.186 17.639 17.639 0 00.209-.9c.07-.325.108-.512.118-.563l.022-.13h.267m.42.225c.016-.042.037-.105.062-.186a2.354 2.354 0 01.582-.078c.088 0 .172.007.246.023a.436.436 0 01.18.078.2.2 0 01.08.121.459.459 0 010 .148 6.954 6.954 0 01-.077.332c-.038.156-.073.3-.102.432-.03.132-.054.25-.073.353a3.577 3.577 0 00-.267 0l.103-.392.108-.463-.088.054a1.016 1.016 0 01-.141.055 8.165 8.165 0 01-.161.043c-.08.019-.136.035-.171.045-.072.022-.13.042-.174.064a.624.624 0 00-.113.069.263.263 0 00-.107.17.178.178 0 00.023.135.19.19 0 00.106.08.533.533 0 00.17.022 1.015 1.015 0 00.322-.052c-.02.037-.046.094-.078.171a1.956 1.956 0 01-.312.03.811.811 0 01-.31-.045.263.263 0 01-.146-.14.394.394 0 01.023-.324.481.481 0 01.186-.189.877.877 0 01.145-.073c.05-.02.108-.037.173-.056.065-.02.168-.044.31-.076a1.039 1.039 0 00.204-.058.346.346 0 00.128-.08.352.352 0 00.043-.058.185.185 0 00.02-.058.143.143 0 00-.026-.12.199.199 0 00-.11-.07.667.667 0 00-.178-.02 1.704 1.704 0 00-.579.114m1.304 1.229c.137-.552.236-.993.296-1.322l.022-.131a9.686 9.686 0 00.252 0l-.055.237a.95.95 0 01.123-.134.564.564 0 01.238-.12.566.566 0 01.265-.002c-.011.063-.02.133-.028.212a.586.586 0 00-.161-.025.463.463 0 00-.304.113.593.593 0 00-.117.136.68.68 0 00-.075.164 3.807 3.807 0 00-.091.365c-.029.13-.055.266-.082.41l-.018.097a3.53 3.53 0 00-.265 0m2.07-1.31a.62.62 0 00-.292.073.564.564 0 00-.228.22.92.92 0 00-.12.322.67.67 0 000 .273c.02.081.062.146.132.196.067.05.156.075.265.075a.675.675 0 00.218-.037.557.557 0 00.196-.121.702.702 0 00.148-.208 1.03 1.03 0 00.083-.257.74.74 0 00.007-.237.32.32 0 00-.077-.178.337.337 0 00-.149-.094.613.613 0 00-.183-.027m.04-.182a.95.95 0 01.29.043.466.466 0 01.333.372.79.79 0 010 .3 1.116 1.116 0 01-.118.327 1.009 1.009 0 01-.21.266.783.783 0 01-.282.16c-.106.033-.216.05-.33.05a.903.903 0 01-.293-.045.498.498 0 01-.332-.383.822.822 0 010-.297c.03-.155.088-.296.176-.42a.825.825 0 01.34-.28c.139-.062.28-.093.425-.093" fill="#03b14d"/><path d="M32.241 1.77l-.167 1.22h1.439l-.886 4.53h1.794l.93-4.51h1.41l.226-1.24z" fill="#0063ad"/><path d="M38.52 6.36c-.135.145-.25.232-.356.275-.001 0-.003 0-.005.002a.546.546 0 01-.03.01.496.496 0 01-.433-.024c-.24-.112-.251-.337-.251-.337a.365.365 0 01.007-.117.617.617 0 01.264-.412.596.596 0 01.139-.086l.008-.003c.399-.2.941-.2.941-.2s.091.488-.284.892m2.35-2.096c-.113-.613-.476-1.073-2.406-1.076-1.932-.004-2.318 1.076-2.318 1.076l1.5.263s.364-.438.976-.394c.612.043.363.634.363.634s-2.34-.108-3.043.666c-.704.776-.272 2.334 1.045 2.246 1.318-.087 1.527-.81 1.527-.81v.657h1.88c-.114-.525.59-2.649.476-3.262m.012 3.256l.79-4.338h1.605l-.106.689s.62-.94 1.878-.69c1.256.252.893.85.635 2.544-.257 1.693-.318 1.795-.318 1.795h-1.71s.45-2.419.473-2.77c.022-.35-.045-.568-.488-.514-.443.055-.534.34-.58.701-.045.36-.488 2.583-.488 2.583zm5.604-3.25l.212-1.083h4.028l-.115.9-2.566 2.387h2.18l-.249 1.05h-4.27l.231-.984 2.403-2.256zm6.93 2.09c-.134.145-.25.232-.356.275 0 0-.004 0-.005.002l-.03.01a.497.497 0 01-.433-.024c-.239-.112-.25-.337-.25-.337a.392.392 0 01.006-.117l.004-.024a.619.619 0 01.26-.388.608.608 0 01.14-.086l.007-.003c.4-.2.94-.2.94-.2s.092.488-.283.892m2.35-2.096c-.114-.613-.476-1.073-2.407-1.076-1.93-.004-2.316 1.076-2.316 1.076l1.498.263s.365-.438.977-.394c.614.043.364.634.364.634s-2.34-.108-3.044.666c-.703.776-.272 2.334 1.045 2.246 1.318-.087 1.528-.81 1.528-.81v.657h1.88c-.115-.525.589-2.649.475-3.262m.013 3.256l.79-4.338h1.605l-.106.689s.62-.94 1.878-.69c1.256.252.893.85.635 2.544-.257 1.693-.318 1.795-.318 1.795h-1.71s.45-2.419.473-2.77c.022-.35-.046-.568-.489-.514-.442.055-.533.34-.579.701-.045.36-.488 2.583-.488 2.583zm4.87 0h1.816l.834-4.305h-1.816zm1.112-5.75l-.206 1.066h1.816l.207-1.066zm4.285 4.59c-.135.145-.25.232-.356.275-.001 0-.004 0-.005.002l-.03.01a.498.498 0 01-.434-.024c-.239-.112-.25-.337-.25-.337a.396.396 0 01.007-.117.617.617 0 01.264-.412.596.596 0 01.139-.086l.007-.003c.4-.2.94-.2.94-.2s.092.488-.283.892m2.35-2.096c-.113-.613-.477-1.073-2.407-1.076-1.93-.004-2.316 1.076-2.316 1.076l1.499.263s.363-.438.976-.394c.613.043.363.634.363.634s-2.339-.108-3.042.666c-.705.776-.273 2.334 1.044 2.246 1.317-.087 1.528-.81 1.528-.81v.657h1.878c-.114-.525.59-2.649.478-3.262m-48.705.876l1.03-1.927.271 1.927zm2.422-3.372h-2.09l-2.86 5.75H18.6l.56-1.237h1.998l.182 1.238h1.77zm1.294 5.752h1.817l.834-4.305H24.24zm1.114-5.75l-.206 1.066h1.816l.206-1.066zm1.248 5.75l.84-4.305h1.636l-.16 1.065s.523-1.321 1.66-1.065l-.251 1.43s-1.114-.22-1.363.496c-.25.715-.5 2.379-.5 2.379zM7.822 5.81l.424-.847h5.45v.847z" fill="#0063ad"/><path d="M15.755 10.76l-.158-.11-.081-.004c-.345-.252-2.742-2.075-3.582-4.846-.906-2.987-1.345-4.03-1.345-4.03H6.846s-.029.253-.204.789c-.176.535-1.287 2.227-1.959 2.96-.672.732-1.841 1.507-1.841 1.507s1.358 1.015 2.763.607c1.403-.409 2.558-3.2 2.952-4.412l.453 1.65s.672 3.1 1.198 3.973c.372.617 1.035 1.484 2.39 1.815.882.35 3.157.101 3.157.101" fill="#0063ad"/><path d="M6.83 1.79h3.82l.2.533-.558-.267-.077.446-.371-.463-.232.343-.217-.328-.357.298-.262-.298-.388.298-.34-.358-.202.701-.155-.641-.262.298-.201-.358-.465.403z" fill="#fff"/><path d="M8.561 3.07l.493 1.796c.007.033.678 3.105 1.194 3.963.288.477 1.16 1.928 3.537 1.928.283 0 .582-.021.891-.06l.76-.05c-.496-.372-2.742-2.18-3.545-4.828-.818-2.694-1.259-3.816-1.333-4H6.886c-.014.09-.063.338-.2.76-.182.555-1.305 2.25-1.969 2.975-.587.64-1.561 1.32-1.798 1.48.21.142 1.038.658 1.99.658.235 0 .466-.032.682-.094 1.304-.38 2.45-2.934 2.922-4.383zm5.224 7.774c-2.428 0-3.321-1.483-3.616-1.97-.524-.87-1.175-3.861-1.204-3.988l-.412-1.502c-.504 1.484-1.637 3.92-2.936 4.297a2.55 2.55 0 01-.709.1c-1.127 0-2.085-.706-2.095-.713l-.049-.037.052-.034c.01-.008 1.172-.78 1.833-1.501.66-.717 1.77-2.397 1.95-2.944.171-.523.202-.778.202-.78l.005-.04h3.814l.011.028c.005.01.451 1.079 1.347 4.034.891 2.94 3.581 4.836 3.608 4.854l.103.071-1.004.065c-.31.04-.614.06-.9.06" fill="#0063ad"/><path d="M5.108 3.39S-.387 7.769 1.793 9.389s7.72-.657 7.72-.657-4.427 2.146-7.265 1.795c-2.84-.35-1.885-2.211-1.59-2.89.295-.678 1.612-2.211 3.338-3.459C5.721 2.93 5.108 3.39 5.108 3.39M13.721.35c-.127.022-.256.045-.383.07l-.254.053c-1.715.366-3.187.98-3.187.98s9.969-2.503 5.178 3.686l-1.922 2.116s3.215-2.207 4.101-4.387c.878-2.162-.73-2.869-3.533-2.518" fill="#03b14d"/></svg>