<svg viewBox="0 0 91 18.75" xmlns="http://www.w3.org/2000/svg"><path d="M37.881 10.704c-3.472-.206-6.104-1.72-6.577-3.583-.755-4.439 7.547-4.075 10.108 3.068h2.34s-2.648-5.968-8.021-6.851c-7.028-.845-7.825 7.029 2.15 7.366" clip-rule="evenodd" fill="#F0B140" fill-rule="evenodd"/><path d="M37.881 10.704c-3.472-.206-6.104-1.72-6.577-3.583-.755-4.439 7.547-4.075 10.108 3.068h2.34s-2.648-5.968-8.021-6.851c-7.028-.845-7.826 7.029 2.15 7.366z" fill="none" stroke="#F0B140" stroke-miterlimit="3.864" stroke-width=".026"/><path d="M37.881 10.704c-3.472-.206-6.104-1.72-6.577-3.583-.755-4.439 7.547-4.075 10.108 3.068l1.781.001s-2.308-5.607-7.598-6.592c-6.567-.704-7.38 6.532 2.286 7.106" clip-rule="evenodd" fill-rule="evenodd"/><path d="M37.881 10.704c-3.472-.206-6.104-1.72-6.577-3.583-.755-4.439 7.547-4.075 10.108 3.068l1.781.001s-2.308-5.607-7.598-6.592c-6.567-.704-7.38 6.532 2.286 7.106z" fill="none" stroke="#000" stroke-miterlimit="3.864" stroke-width=".026"/><path d="M37.881 10.704c-3.472-.206-6.104-1.72-6.577-3.583-.755-4.439 7.547-4.075 10.108 3.068l1.236.001s-1.926-5.225-7.134-6.331c-6.131-.623-6.891 6.111 2.367 6.845" clip-rule="evenodd" fill="#007351" fill-rule="evenodd"/><path d="M37.881 10.704c-3.472-.206-6.104-1.72-6.577-3.583-.755-4.439 7.547-4.075 10.108 3.068l1.236.001s-1.926-5.225-7.134-6.331c-6.131-.623-6.891 6.111 2.367 6.845z" fill="none" stroke="#007351" stroke-miterlimit="3.864" stroke-width=".026"/><path d="M52.09 10.19c-3.325-1.147-5.182-3.537-5.615-3.899-1.547-1.627-4.342-4.24-7.406-4.943-12.833-2.733-15.03 10.206-1.188 9.356-11.211-.092-9.858-8.757-1.961-8.171 4.315.462 6.676 3.437 7.761 4.684 3.039 3.576 3.662 2.894 8.409 2.973" clip-rule="evenodd" fill="#D62327" fill-rule="evenodd"/><path d="M52.09 10.19c-3.325-1.147-5.182-3.537-5.615-3.899-1.547-1.627-4.342-4.24-7.406-4.943-12.833-2.733-15.03 10.206-1.188 9.356-11.211-.092-9.858-8.757-1.961-8.171 4.315.462 6.676 3.437 7.761 4.684 3.039 3.576 3.662 2.894 8.409 2.973z" fill="none" stroke="#D62327" stroke-miterlimit="3.864" stroke-width=".026"/><path d="M55.538.842c3.472.207 6.104 1.721 6.577 3.583.755 4.44-7.546 4.075-10.108-3.07l-2.34.001s2.648 5.968 8.021 6.852c7.027.846 7.826-7.029-2.15-7.366" clip-rule="evenodd" fill="#F0B140" fill-rule="evenodd"/><path d="M55.538.842c3.472.207 6.104 1.721 6.577 3.583.755 4.44-7.546 4.075-10.108-3.07l-2.34.001s2.648 5.968 8.021 6.852c7.027.846 7.826-7.029-2.15-7.366z" fill="none" stroke="#F0B140" stroke-miterlimit="3.864" stroke-width=".026"/><path d="M55.538.842c3.472.207 6.104 1.721 6.577 3.583.755 4.44-7.546 4.075-10.108-3.07h-1.781s2.308 5.607 7.598 6.593c6.567.703 7.379-6.532-2.286-7.106" clip-rule="evenodd" fill-rule="evenodd"/><path d="M55.538.842c3.472.207 6.104 1.721 6.577 3.583.755 4.44-7.546 4.075-10.108-3.07h-1.781s2.308 5.607 7.598 6.593c6.567.703 7.379-6.532-2.286-7.106z" fill="none" stroke="#000" stroke-miterlimit="3.864" stroke-width=".026"/><path d="M55.538.842c3.472.207 6.104 1.721 6.577 3.583.755 4.44-7.546 4.075-10.108-3.07h-1.236s1.925 5.225 7.134 6.331c6.132.624 6.891-6.109-2.367-6.844" clip-rule="evenodd" fill="#007351" fill-rule="evenodd"/><path d="M55.538.842c3.472.207 6.104 1.721 6.577 3.583.755 4.44-7.546 4.075-10.108-3.07h-1.236s1.925 5.225 7.134 6.331c6.132.624 6.891-6.109-2.367-6.844z" fill="none" stroke="#007351" stroke-miterlimit="3.864" stroke-width=".026"/><path d="M41.327 1.355c3.327 1.147 5.183 3.538 5.616 3.899 1.547 1.628 4.341 4.241 7.408 4.944C67.183 12.931 69.379-.008 55.538.843c11.211.092 9.858 8.756 1.96 8.17-4.314-.462-6.674-3.437-7.76-4.683-3.039-3.577-3.662-2.894-8.411-2.975" clip-rule="evenodd" fill="#D62327" fill-rule="evenodd"/><path d="M41.327 1.355c3.327 1.147 5.183 3.538 5.616 3.899 1.547 1.628 4.341 4.241 7.408 4.944C67.183 12.931 69.379-.008 55.538.843c11.211.092 9.858 8.756 1.96 8.17-4.314-.462-6.674-3.437-7.76-4.683-3.039-3.577-3.662-2.894-8.411-2.975z" fill="none" stroke="#D62327" stroke-miterlimit="3.864" stroke-width=".026"/><path d="M76.537 13.917h-1.383c-.082 0-.047-.083-.047-.083l.104-.197s.047-.035.117-.048h1.406s.547-.917.617-1.022c.07-.104.141-.233.441-.233.304 0 1.838 0 1.908-.011.069-.012.303 0 .163.221l-.617 1.046h1.652c.093 0 .08.037.058.059 0 0-.085.144-.128.209-.022.034-.034.034-.104.047-.071.011-1.698 0-1.698 0s-1.315 2.187-1.35 2.255c-.036.069-.256.44-.28.559-.022.116-.035.303.432.198.464-.105 1.34-.677 1.489-.757.174-.094.581-.033.312.21-.744.675-2.836 1.616-4.233 1.197-.744-.223-.523-.79-.43-1.023.095-.232 1.571-2.627 1.571-2.627m-63.375.79c-.246.07-.524-.068-.246-.244 0 0 1.292-1.034 3.222-1.139 0 0 1.954-.14 1.467.766 0 0-.233.501-.746 1.137-.302.341-.568.765-.965 1.248 0 0-.441.535.198.384 0 0 .72-.186 1.42-.698.15-.127.662-.058.291.256 0 0-1.828 1.384-4.083 1.222 0 0-1.105-.035-.617-.884 0 0 .489-.827.803-1.151.313-.326 1.047-1.269 1.081-1.36 0 0 .35-.42-.291-.292 0 0-.453.105-.872.383 0-.001-.545.338-.662.372m3.478-2.931c1.463-.562 3.051.456 1.477 1.071-1.583.615-2.839-.548-1.477-1.071M1.287 17.581c-.337.011-.454-.257-.024-.362 0 0 .442-.046.524-.058 0 0 .43-.011.628-.15 0 0 .57-.314.709-.442l2.093-1.478s3.233-2.268 3.384-2.372c0 0 1.174-.826 1.233-.883 0 0 .232-.222.791-.222s.639.104.663.466c0 0 .255 4.325.291 4.535 0 0-.07.396.417.512 0 0 .455.081.605.081.21.011.374.337-.092.36 0 0-.617.023-.826 0 0 0-1.778-.081-3.396 0 0 0-.594.035-.721.013-.291 0-.326-.257-.082-.315 0 0 .512-.082.767-.093 0 0 .639-.012.582-.431 0 0 .035-.779-.046-1.116H5.474s-.849.652-1.071.85c0 0-.162.151-.208.209 0 0-.314.338.208.418 0 0 .489.105.826.105s.407.302.023.36c0 0-.791.023-1-.012 0 0-1.094-.058-2.071 0 .001.001-.786.02-.894.025m7.502-2.385l-.046-1.954-2.664 1.954h2.71zm9.28-.431c-.208.047-.418-.069-.244-.23 0 0 .337-.351 1.697-.896 0 0 1-.454 2.269-.268 0 0 .652.082.35.837 0 0-.314.791-.477 1.024 0 0 .278-.222.698-.593.562-.45 1.348-1.007 1.908-1.129 0 0 1.325-.464 2.163.013 0 0 .662.442 0 .941 0 0-.594.523-1.629.291-.128-.035-.381-.169-.408-.441 0 0 0-.244-.359-.163 0 0-.663.151-1.478.906 0 0-.674.71-.849.907 0 0-1.058 1.164-1.175 1.314 0 0-.197.279-.593.244 0 0-.675.06-1.779.012 0 0-.279-.023-.116-.231 0 0 1.558-2.513 1.709-2.897 0 0 .233-.395-.256-.326 0 0-.417.129-.756.326-.07.08-.598.343-.675.359m10.689-2.617c-.267-.046-.301-.255.036-.337 0 0 .918-.035 1.127 0 0 0 1.373.082 3.023 0 0 0 .824-.036 1.013-.011.279.035.372.313 0 .384 0 0-.709.104-.905.15 0 0-.398 0-.421.396 0 0-.034.267.012.512l.374 2.664s4.034-2.756 4.081-2.838c0 0 .384-.337.465-.42 0 0 .268-.313-.209-.395 0 0-.662-.063-.803-.068-.279-.011-.384-.303.082-.373 0 0 .568-.022.826 0 0 0 .977.117 2.175 0 0 0 .627-.022.768 0 .268.011.384.348-.058.395 0 0-1.036.012-1.63.454 0 0-2.081 1.35-3.5 2.396l-2.664 1.872c-.162.118-.441.35-.57.432-.126.081-.478.302-1.023.302s-.627-.14-.627-.523c0 0-.524-4.268-.547-4.49 0 0 .009-.363-.431-.406-.362-.037-.433-.067-.594-.096m17.156 2.571c-.187.093-.395-.081-.223-.245.177-.162 1.152-.64 1.363-.721.208-.08 1.664-.681 2.662-.371.488.151.373.477.324.628-.045.151-.395.953-.499 1.058 0 0 1.104-.955 1.746-1.256a5.22 5.22 0 012.244-.511c.478 0 .803.058 1.046.139.245.082.569.313.314.791 0 0-.303.546-.686 1l-1.012 1.396c-.058.081-.222.36.267.278 0 0 .408-.157.688-.337 0 0 .452-.338.639-.407.187-.068.406.023.233.244-.008.01-.478.5-1.711.978a4.18 4.18 0 01-2.372.186c-.544-.118-.455-.562-.396-.768.073-.251.355-.592.442-.756 0 0 1.319-1.685 1.349-1.873.022-.151.152-.371-.441-.255-.538.104-1.743 1.169-2.035 1.464-.284.288-1.066 1.041-1.57 1.874-.18.293-.349.267-.535.267s-1.547.047-1.664.023c-.116-.023-.511 0-.337-.243.175-.245 1.721-2.768 1.756-3.024 0 0 .198-.36-.197-.233a83.84 83.84 0 00-.652.314c-.162.081-.5.271-.743.36m-3.99 1.012c-1.453 1.035-2.408 1.614-3.954 1.884-1.803.313-3.033-.697-1.641-2.245 1.059-1.173 3.7-1.873 4.851-1.954.362-.025 1.407-.081 1.874.117 0 0 .162.057.231-.046 0 0 .151-.186.477-.174h1.71c.14-.011.36.023.197.267-.046.174-1.431 2.234-1.687 2.838 0 0-.199.539.326.325.562-.228.744-.359.872-.441s.303-.233.407-.244c.104-.012.449-.006.175.278-.296.308-1.442.884-1.896 1.013-.454.127-1.28.406-2.071.291-.66-.097-.476-.582-.43-.721.048-.141.559-1.188.559-1.188m-.558-1.919c-2.203.801-3.063 2.338-2.943 2.686.072.207.298.483.92.269 2.013-.699 3.201-2.099 3.43-2.466.176-.28.071-.419-.186-.535-.186-.085-.837-.093-1.221.046m29.084.034c-2.203.802-3.063 2.34-2.943 2.688.073.206.296.482.92.268 2.013-.699 3.201-2.099 3.43-2.466.176-.278.07-.418-.185-.535-.186-.085-.838-.095-1.222.045m-15.011.761c-.22.115-.499-.035-.349-.163.152-.127.773-.509 1.338-.721.187-.07 1.861-.639 2.885-.407.889.203.512.745.453.872-.058.128-.709.955-.768 1.024-.058.068-.86 1.058-.907 1.197-.046.14-.256.35.303.326.559-.022 2.14-.942 2.488-1.222.35-.279 1.141-.792 1.641-1.779.193-.38.36-.314.5-.337.14-.022 1.896-.011 1.896-.011s.279-.024.163.187a61.634 61.634 0 01-.779 1.29c-.116.185-1 1.674-1.046 1.745-.047.069-.141.303.278.209.42-.093.629-.256.743-.326.105-.062.449-.289.646-.354.097-.227.256-.473.49-.731 1.059-1.176 3.698-1.873 4.849-1.954.364-.025 1.409-.083 1.874.116 0 0 .164.058.232-.046 0 0 .15-.187.478-.176h1.709c.14-.011.36.022.197.269-.046.174-1.43 2.232-1.687 2.837 0 0-.199.539.325.325.563-.229.747-.36.873-.441.129-.082.303-.233.408-.244.104-.012.448-.006.174.279-.297.307-1.443.884-1.896 1.012s-1.278.408-2.07.291c-.661-.097-.477-.583-.43-.721.047-.14.559-1.188.559-1.188-1.454 1.036-2.408 1.615-3.956 1.885-1.267.222-2.254-.214-2.241-1.03-.611.379-1.816.947-3.16 1-1.174.047-.954-.615-.86-.825.092-.21.441-.941.592-1.152 0 0-1.558 1.047-2.559 1.421-1 .371-1.593.557-2.372.557-.931 0-1.574-.491-1.013-1.268.095-.127 1.587-1.942 1.722-2.139.129-.187.104-.315-.313-.245-.42.068-1.175.557-1.41.638m24.855.054c-.221.116-.5-.035-.349-.163.15-.127.772-.509 1.338-.72.186-.07 1.86-.64 2.884-.408.889.203.512.745.454.874-.058.127-.709.953-.768 1.022s-.861 1.06-.907 1.199c-.046.137-.256.348.303.324.558-.022 2.14-.941 2.489-1.221s1.14-.792 1.639-1.78c.192-.38.359-.314.5-.337.141-.022 1.896-.011 1.896-.011s.279-.024.164.187a69.55 69.55 0 01-.779 1.291c-.117.185-1 1.673-1.046 1.745-.049.068-.141.303.278.208.418-.092.628-.255.744-.325.116-.069.535-.349.709-.371.176-.024.396.023.222.209-.222.232-1.768 1.22-3.56 1.291-1.175.046-.954-.617-.86-.827.094-.208.442-.941.593-1.151 0 0-1.559 1.047-2.56 1.42-.999.372-1.593.559-2.372.559-.93 0-1.576-.493-1.012-1.269.093-.127 1.587-1.942 1.722-2.14.127-.187.104-.314-.313-.245-.42.068-1.176.558-1.409.639"/><path d="M76.537 13.917h-1.383c-.082 0-.047-.083-.047-.083l.104-.197s.047-.035.117-.048h1.406s.547-.917.617-1.022c.07-.104.141-.233.441-.233.304 0 1.838 0 1.908-.011.069-.012.303 0 .163.221l-.617 1.046h1.652c.093 0 .08.037.058.059 0 0-.085.144-.128.209-.022.034-.034.034-.104.045-.071.013-1.698 0-1.698 0s-1.315 2.189-1.35 2.257c-.036.069-.256.44-.28.559-.022.116-.035.303.432.196.464-.104 1.34-.675 1.489-.755.174-.094.581-.033.312.21-.744.675-2.836 1.616-4.233 1.197-.744-.223-.523-.79-.43-1.023.095-.232 1.571-2.627 1.571-2.627zm-63.375.79c-.246.07-.524-.068-.246-.244 0 0 1.292-1.034 3.222-1.139 0 0 1.954-.14 1.467.766 0 0-.233.501-.746 1.136-.302.342-.568.766-.965 1.249 0 0-.441.535.198.384 0 0 .72-.186 1.42-.698.15-.127.662-.058.291.256 0 0-1.828 1.384-4.083 1.222 0 0-1.105-.035-.617-.884 0 0 .489-.827.803-1.151.313-.326 1.047-1.269 1.081-1.36 0 0 .35-.42-.291-.292 0 0-.453.105-.872.383 0-.001-.545.338-.662.372zm3.478-2.931c1.463-.562 3.051.456 1.477 1.071-1.583.615-2.839-.548-1.477-1.071zM1.287 17.581c-.337.011-.454-.257-.024-.362 0 0 .442-.046.524-.058 0 0 .43-.011.628-.15 0 0 .57-.314.709-.442l2.093-1.478s3.233-2.268 3.384-2.372c0 0 1.174-.826 1.233-.883 0 0 .232-.222.791-.222s.639.104.663.466c0 0 .255 4.325.291 4.535 0 0-.07.396.417.512 0 0 .455.081.605.081.21.011.374.337-.092.36 0 0-.617.023-.826 0 0 0-1.778-.081-3.396 0 0 0-.594.035-.721.013-.291 0-.326-.257-.082-.315 0 0 .512-.082.767-.093 0 0 .639-.012.582-.431 0 0 .035-.779-.046-1.116H5.474s-.849.652-1.071.85c0 0-.162.15-.208.209 0 0-.314.338.208.418 0 0 .489.105.826.105s.407.302.023.36c0 0-.791.023-1-.012 0 0-1.094-.058-2.071 0 .001.001-.786.02-.894.025zm7.502-2.385l-.046-1.954-2.664 1.954h2.71zm9.28-.431c-.208.047-.418-.069-.244-.23 0 0 .337-.351 1.697-.896 0 0 1-.454 2.269-.268 0 0 .652.082.35.837 0 0-.314.791-.477 1.024 0 0 .278-.222.698-.593.562-.45 1.348-1.007 1.908-1.129 0 0 1.325-.464 2.163.013 0 0 .662.442 0 .941 0 0-.594.523-1.629.291-.128-.035-.381-.171-.408-.441 0 0 0-.244-.359-.163 0 0-.663.151-1.478.906 0 0-.674.71-.849.907 0 0-1.058 1.164-1.175 1.314 0 0-.197.279-.593.244 0 0-.675.06-1.779.012 0 0-.279-.023-.116-.231 0 0 1.558-2.513 1.709-2.897 0 0 .233-.395-.256-.326 0 0-.417.129-.756.326-.07.08-.598.343-.675.359zm10.689-2.617c-.267-.046-.301-.255.036-.337 0 0 .918-.035 1.127 0 0 0 1.373.082 3.023 0 0 0 .824-.036 1.013-.011.279.035.372.313 0 .384 0 0-.709.104-.905.15 0 0-.398 0-.421.396 0 0-.034.267.012.512l.374 2.664s4.034-2.756 4.081-2.838c0 0 .384-.337.465-.42 0 0 .268-.313-.209-.395 0 0-.662-.063-.803-.068-.279-.011-.384-.303.082-.373 0 0 .568-.022.826 0 0 0 .977.117 2.175 0 0 0 .627-.022.768 0 .268.011.384.348-.058.395 0 0-1.036.012-1.63.454 0 0-2.081 1.35-3.5 2.396l-2.664 1.872c-.162.118-.441.35-.57.432-.126.081-.478.302-1.023.302s-.627-.14-.627-.523c0 0-.524-4.268-.547-4.49 0 0 .009-.363-.431-.406-.362-.037-.433-.067-.594-.096zm17.156 2.571c-.187.093-.395-.081-.223-.245.177-.162 1.152-.64 1.363-.721.208-.08 1.664-.681 2.662-.371.488.151.373.477.324.628-.045.151-.395.953-.499 1.058 0 0 1.104-.955 1.746-1.256a5.22 5.22 0 012.244-.511c.478 0 .803.058 1.046.139.245.082.569.313.314.791 0 0-.303.546-.686 1l-1.012 1.395c-.058.082-.222.361.267.279 0 0 .408-.157.688-.337 0 0 .452-.338.639-.407.187-.068.406.023.233.244-.008.01-.478.5-1.711.978a4.177 4.177 0 01-2.371.186c-.545-.118-.456-.562-.396-.768.073-.251.355-.592.442-.756 0 0 1.319-1.685 1.349-1.873.022-.151.152-.371-.441-.255-.538.104-1.743 1.169-2.035 1.464-.284.288-1.066 1.041-1.57 1.874-.18.293-.349.267-.535.267s-1.547.047-1.664.023c-.116-.023-.511 0-.337-.243.175-.245 1.721-2.768 1.756-3.024 0 0 .198-.36-.197-.233a83.84 83.84 0 00-.652.314c-.163.081-.501.271-.744.36zm-3.99 1.012c-1.453 1.035-2.408 1.614-3.954 1.884-1.803.313-3.033-.697-1.641-2.245 1.059-1.175 3.7-1.873 4.851-1.954.362-.025 1.407-.081 1.874.117 0 0 .162.057.231-.046 0 0 .151-.186.477-.174h1.71c.14-.011.36.023.197.267-.046.174-1.431 2.234-1.687 2.838 0 0-.199.539.326.325.562-.228.744-.359.872-.441s.303-.233.407-.244c.104-.012.449-.006.175.278-.296.308-1.442.884-1.896 1.013-.454.127-1.28.406-2.071.291-.66-.097-.476-.582-.43-.723.048-.139.559-1.186.559-1.186zm-.558-1.919c-2.203.8-3.063 2.338-2.943 2.686.072.207.298.483.92.269 2.013-.699 3.201-2.099 3.43-2.466.176-.28.071-.419-.186-.535-.186-.085-.837-.093-1.221.046zm29.084.034c-2.203.802-3.063 2.34-2.943 2.688.073.206.296.482.92.268 2.013-.699 3.201-2.099 3.43-2.466.176-.278.07-.418-.185-.535-.186-.085-.838-.095-1.222.045zm-15.011.761c-.22.115-.499-.035-.349-.163.152-.127.773-.509 1.338-.721.187-.07 1.861-.639 2.885-.407.889.203.512.745.453.872-.058.128-.709.955-.768 1.024-.058.068-.86 1.058-.907 1.197-.046.14-.256.35.303.326.559-.022 2.14-.942 2.488-1.222.35-.279 1.141-.792 1.641-1.779.193-.381.36-.314.5-.337.14-.022 1.896-.011 1.896-.011s.279-.024.163.187a61.634 61.634 0 01-.779 1.29c-.116.185-1 1.674-1.046 1.745-.047.069-.141.303.278.209.42-.093.629-.256.743-.326.105-.062.449-.289.646-.354.097-.227.256-.473.49-.731 1.059-1.176 3.698-1.873 4.849-1.954.364-.025 1.409-.083 1.874.116 0 0 .164.058.232-.046 0 0 .15-.187.478-.176h1.709c.14-.011.36.022.197.269-.046.174-1.43 2.232-1.687 2.837 0 0-.199.539.325.325.563-.229.747-.36.873-.441.129-.082.303-.233.408-.244.104-.012.448-.006.174.279-.297.307-1.443.884-1.896 1.012s-1.278.408-2.07.291c-.661-.097-.477-.583-.43-.721.047-.14.559-1.188.559-1.188-1.454 1.036-2.408 1.615-3.956 1.885-1.267.222-2.254-.214-2.241-1.03-.611.379-1.816.947-3.16 1-1.174.047-.954-.615-.86-.825.092-.21.441-.941.592-1.152 0 0-1.558 1.047-2.559 1.421-1 .371-1.593.557-2.372.557-.931 0-1.574-.491-1.013-1.268.095-.127 1.587-1.942 1.722-2.139.129-.187.104-.315-.313-.245-.42.068-1.175.557-1.41.638zm24.855.054c-.221.116-.5-.035-.349-.163.15-.127.772-.509 1.338-.72.186-.07 1.86-.64 2.884-.408.889.203.512.745.454.874-.058.127-.709.953-.768 1.022s-.861 1.06-.907 1.199c-.046.137-.256.348.303.324.558-.022 2.14-.941 2.489-1.221s1.14-.792 1.639-1.78c.192-.38.359-.314.5-.337.141-.022 1.896-.011 1.896-.011s.279-.024.164.187a69.55 69.55 0 01-.779 1.291c-.117.185-1 1.673-1.046 1.745-.049.068-.141.303.278.208.418-.092.628-.255.744-.325.116-.069.535-.349.709-.371.176-.024.396.023.222.209-.222.232-1.768 1.22-3.56 1.291-1.175.046-.954-.617-.86-.827.094-.208.442-.941.593-1.151 0 0-1.559 1.047-2.56 1.42-.999.372-1.593.559-2.372.559-.93 0-1.576-.493-1.012-1.269.093-.127 1.587-1.942 1.722-2.14.127-.187.104-.314-.313-.245-.42.068-1.176.558-1.409.639z" fill="none" stroke="#000" stroke-miterlimit="3.864" stroke-width=".033"/></svg>