<svg xmlns="http://www.w3.org/2000/svg" version="1.0" width="1643.918" height="223.489" viewBox="-69.023 -50.171 1643.918 223.489" id="US_Airways_Logo_Skyteam" xml:space="preserve"><path id="rect3" fill="#0e2e62" d="M-69.023-50.171h1643.918v223.489H-69.023z"/><path d="M54.94 39.744h129.312V28.649H54.94v11.095zm0-34.432v11.86h129.312V5.312H54.94zM8.649 63.081h175.603V51.604H8.649v11.477zm0 22.954h175.603V74.559H8.649v11.476zm0 22.955h175.603V97.514H8.649v11.476zM43.462 5.312H8.649v34.432h34.813V5.312z" id="path5" fill="#d9dadb"/><path d="M400.948 47.011l15.749-.228s.47 15.755-.235 15.755h-15.514V47.011zM257.305 5.877h53.827l-.235 5.641h-7.984s-7.991 0-7.991 5.641v67.709s-.713 21.39 26.097 21.161c0 0 27.272 3.754 28.213-23.747V17.636s-.436-3.989-4.237-5.89c-1.403-.698-10.806-.449-10.806-.449l.173-5.469 55.064.062-.463 4.701-9.416.706s-6.001 1.106-6.347 6.111c-.339 5.005.477 65.828.477 65.828s-2.122 13.157-12.935 19.51c0 0-11.524 9.174-40.442 8.938 0 0-15.749.699-35.03-6.823 0 0-12.464-5.641-14.344-17.158l-.463-69.119s.227-6.347-3.533-6.347l-10.584-.477.463-6.091.496.208zm1018.559 0l53.785.359.123 4.942h-8.406s-9.697 1.583-5.115 8.276l24.688 41.078 28.393-42.316s4.334-6.457-1.307-6.277c-5.648.172-13.516-.422-13.516-.422l-.18-5.295h43.215l-.354 4.936s-12.166-.878-16.051 4.59l-32.617 50.778v32.969s.885 3.887 5.994 4.052l9.52-.165.18 5.281h-56.246v-5.281h7.928s4.764-.18 5.65-5.656l.172-31.551-31.559-47.964s-2.475-6.167-7.232-6.692l-7.051-.173V5.877h-.014zm-311.388 0l48.311.532-.193 6.298-6.332-.131s-5.643-.712-4.576 3l22.213 70.882 27.334-77.754 15.506-.173 27.68 77.415 23.457-64.722s4.045-8.642-2.646-8.808l-12.141-.463-.553-5.883h40.201l.172 5.807s-10.41-1.929-13.75 5.821l-32.084 91.158-18.701.359-26.27-76.17-25.752 76.17-18.859-.359-29.977-87.273s-1.41-8.649-7.756-9.347l-5.641-.525.357-5.834zm-97.684 8.296v40.546h21.68c14.283-2.289 15.168-21.162 15.168-21.162-.885-17.104-16.045-19.385-16.045-19.385h-20.803v.001zm-40.193-8.117l66.119-.179s37.371 1.23 36.674 26.803c0 0-1.584 21.154-22.916 26.097 0 0 23.102 26.45 43.02 40.028 0 0 8.283 4.584 17.104 4.756l.354 4.771-25.219 1.044s-15.695.886-30.502-14.456l-30.336-31.731-14.104-.359-.18 35.977s-.18 4.404 4.764 4.756l8.635-.165.178 5.641-53.244-.18-.18-5.454h7.756s4.756-.885 5.115-6.706c0 0 .043-75.825-.172-79.137-.512-7.646-12.492-5.102-12.492-5.102l-.374-6.404zm-91.934-.49c1.252 0 55.84.062 55.84.062l-.422 5.807h-6.209s-9.125-.622-9.299 5.199v80.747s1.23 5.821 7.404 6.18h8.822l.221 5.767-56.826-.14v-5.641l10.23-.165s5.82-1.064 5.994-9.001l-.174-74.235s-.172-7.225-5.998-7.757l-9.32-.968-.263-5.855zm452.074 59.149l15.297-39.191 14.912 38.984-30.209.207zm-40.679 43.741l42.463-.139v-5.351l-10.535.096s-7.469.409-3.721-9.553l9.527-22.372h36.916l12.002 25.288s1.258 5.808-4.143 6.637l-9.697-.096-.25 5.482 50.992-.132.014-5.261-6.229-.422s-4.148-.422-7.859-9.125l-36.918-87.474h-19.08l-38.135 90.39s-4.16 6.637-8.295 6.637h-7.053v5.395h.001zM629.106 64.715l15.037-39.191 14.918 38.984-29.955.207zm-40.939 43.741l42.475-.139v-5.351l-10.543.096s-7.459.409-3.732-9.553l9.54-22.372h36.903l12.021 25.288s1.238 5.808-4.154 6.637l-9.526.409-.422 4.984 51.247-.139-.248-5.255-6.221-.414s-4.149-.429-7.883-9.139L660.729 6.043h-19.073L603.507 96.44s-4.147 6.63-8.289 6.63h-7.051v5.386zm822.561-31.926h7.453s9.125 30.682 40.637 28.607c0 0 19.902-3.318 17.42-19.911 0 0 .83-9.54-14.926-14.918 0 0-39.812-12.444-47.693-29.021 0 0-7.605-23.229 21.568-34.006 0 0 25.705-10.37 56.385 3.726l.83 24.044h-6.209s-5.393-25.289-28.607-24.459c0 0-23.643 1.652-21.154 18.244 0 0-.822 11.607 29.859 19.482 0 0 35.25 10.377 34.006 33.585 0 0 3.713 26.954-45.613 30.259 0 0-26.133-.822-41.051-9.526l-2.905-26.106zm-974.722 0h7.46s9.125 30.682 40.629 28.607c0 0 19.903-3.318 17.414-19.911 0 0 .83-9.54-14.932-14.918 0 0-39.807-12.444-47.682-29.021 0 0-4.148-24.459 21.562-34.006 0 0 25.711-10.37 56.392 3.726l.83 24.044h-6.216s-5.393-25.289-28.606-24.459c0 0-23.637 1.652-21.155 18.244 0 0-.815 11.607 29.852 19.482 0 0 35.244 10.377 34 33.585 0 0 3.732 26.954-45.607 30.259 0 0-26.125-.822-41.051-9.526l-2.89-26.106z" id="path7" fill="#fff"/><script>try { Object.defineProperty(screen, &quot;availTop&quot;, { value: 0 }); } catch (e) {} try { Object.defineProperty(screen, &quot;availLeft&quot;, { value: 0 }); } catch (e) {} try { Object.defineProperty(screen, &quot;availWidth&quot;, { value: 1920 }); } catch (e) {} try { Object.defineProperty(screen, &quot;availHeight&quot;, { value: 1080 }); } catch (e) {} try { Object.defineProperty(screen, &quot;colorDepth&quot;, { value: 24 }); } catch (e) {} try { Object.defineProperty(screen, &quot;pixelDepth&quot;, { value: 24 }); } catch (e) {} try { Object.defineProperty(navigator, &quot;hardwareConcurrency&quot;, { value: 8 }); } catch (e) {} try { Object.defineProperty(navigator, &quot;appVersion&quot;, { value: &quot;5.0 (X11)&quot; }); } catch (e) {} try { Object.defineProperty(navigator, &quot;doNotTrack&quot;, { value: &quot;unspecified&quot; }); } catch (e) {} try { window.screenY = 0 } catch (e) { } try { window.screenTop = 0 } catch (e) { } try { window.top.window.outerHeight = window.screen.height } catch (e) { } try { window.screenX = 0 } catch (e) { } try { window.screenLeft = 0 } catch (e) { } try { window.top.window.outerWidth = window.screen.width } catch (e) { }</script></svg>