<svg xmlns="http://www.w3.org/2000/svg" width="302" height="102"><g fill="#e41b47"><path d="M52.96 100.772c-13.935-.55-24.768-2.493-33.882-6.076-2.038-.801-6.05-2.806-7.796-3.895-4.102-2.56-7.632-5.962-9.29-8.957l-.37-.667.575.667C6.645 87 12.056 90.197 20.798 92.84c11.667 3.527 30.015 4.971 47.576 3.744 9.295-.65 28.218-2.986 42.171-5.208 21.936-3.493 47.442-9.12 66.193-14.603.844-.247 2.706-.787 4.137-1.201 8.353-2.416 20.094-6.237 29.116-9.474l2.892-1.038 1.135 1.193c.624.656 1.5 1.458 1.945 1.783.446.324.81.625.81.667 0 .08-4.27 1.738-7.806 3.03-8.69 3.179-21.719 7.48-28.559 9.431-.88.251-2.352.676-3.27.945-8.796 2.572-22.207 5.914-32.896 8.198-27.018 5.773-55.32 9.56-77.87 10.421-3.036.116-10.938.142-13.412.044z"/><path d="M111.012 25.307c-3.936 0-6.483.85-9.668 3.232-1.125.841-1.907 1.573-2.844 2.658l-.633.73v-5.8h-7.74V87.25h8.008V76.744c0-9.81.015-10.484.22-10.176.875 1.31 3.515 3.199 5.385 3.854 1.125.394 3.8.922 5.46 1.078 3.559.336 7.8-.51 10.821-2.158 6.41-3.497 10.227-9.122 11.438-16.846.331-2.113.326-6.93-.01-8.953-.62-3.728-1.736-6.898-3.193-9.074-1.6-2.388-4.544-5.18-6.834-6.48-3.226-1.833-6.521-2.682-10.41-2.682zm.043 7.988c.895-.041 1.769.02 2.613.176.844.156 1.658.408 2.434.748.775.34 1.511.768 2.199 1.277a12.1 12.1 0 011.908 1.766 13.313 13.313 0 011.56 2.213 14.9 14.9 0 011.159 2.619c.313.936.548 1.933.699 2.984.185 1.292.185 4.283 0 5.774-.2 1.603-.585 3.1-1.135 4.464a14.541 14.541 0 01-2.119 3.663 12.354 12.354 0 01-2.967 2.69 11.606 11.606 0 01-3.677 1.548c-.842.194-1.69.3-2.534.322a12.367 12.367 0 01-7.156-2.033 11.38 11.38 0 01-2.428-2.149 12.61 12.61 0 01-1.797-2.82 16.306 16.306 0 01-1.152-3.459 22.798 22.798 0 01-.488-4.062c-.055-1.566.022-2.921.254-4.198.232-1.276.62-2.473 1.187-3.724a12.19 12.19 0 011.496-2.451 14.458 14.458 0 012.06-2.14 14.564 14.564 0 012.456-1.68c.867-.47 1.773-.843 2.69-1.093a12.639 12.639 0 012.738-.435zM42.922 71.062c.106-.163.576-.848 1.045-1.524.47-.676 1.67-2.418 2.668-3.87A3909.03 3909.03 0 0156.818 50.91c.96-1.38 1.866-2.712 2.012-2.962l.264-.454-.41-.574a5337.384 5337.384 0 01-12.756-18.056 211.87 211.87 0 00-1.038-1.468l-.665-.935 4.761-.035c3.7-.027 4.797.003 4.919.134.25.27 7.467 10.675 8.699 12.543.654.991 1.079 1.763 1.022 1.855-.055.09-.04.122.035.076.073-.045.268.159.434.453.165.295.35.517.41.495.131-.048 2.151-2.836 3.752-5.178 3.036-4.441 4.341-6.274 4.416-6.2.033.034.06-.016.06-.11 0-.096.62-1.056 1.378-2.136l1.378-1.963h4.658c3.691 0 4.637.034 4.556.167-.056.091-2.867 4.156-6.247 9.032-7.162 10.332-8.213 11.865-8.213 11.968 0 .043.921 1.438 2.048 3.1l5.025 7.428c1.637 2.422 3.721 5.5 4.63 6.84.91 1.339 1.61 2.435 1.556 2.435-.054 0-.005.075.109.167.168.135 2.222 3.072 2.563 3.666.073.126-.935.163-4.561.163l-4.655.001-4.75-7.116c-2.612-3.914-5.283-7.801-5.936-8.638-.653-.837-1.297-1.69-1.43-1.894-.133-.204-.291-.354-.352-.333-.06.02-.7.909-1.422 1.973a696.585 696.585 0 01-5.171 7.54A777.288 777.288 0 0053.5 69.27l-1.444 2.104-4.664-.01-4.665-.01.194-.294zm182.593.024c-2.719-.324-5.737-1.144-7.5-2.036l-.561-.284 4.552-1.723 4.551-1.722 1.836.167c4.422.402 7.864-.615 10.363-3.062.735-.72 1.332-1.768 1.46-2.565.043-.274.147-.553.23-.62.082-.067 1.637-.759 3.455-1.536 1.818-.778 3.543-1.535 3.832-1.683l.525-.268.154.567c.198.73.086 2.981-.2 4.022-.653 2.375-1.684 4.19-3.236 5.696-2.715 2.637-5.567 4.015-10.117 4.892-1.284.247-7.682.354-9.344.155zm44.306.062c-2.814-.302-5.376-.93-7.4-1.816-3.62-1.585-7.345-6.587-8.39-11.268-.15-.671-.582-.537 3.78-1.173 1.761-.257 3.331-.497 3.488-.534.242-.057.3.01.379.433.203 1.089 1.334 3.692 2.073 4.77.773 1.127 4.21 2.864 7.142 3.607 1.676.425 3.033.524 4.657.34 2.638-.3 4.7-1.036 6.102-2.18.415-.338.795-.574.845-.524.05.05.071.03.047-.045-.025-.075.18-.41.452-.743.59-.72 1.143-1.877 1.282-2.68.121-.698-.356-2.683-.844-3.514a4.932 4.932 0 00-2.443-2.097c-1.591-.619-5.563-1.794-8.642-2.559-4.373-1.085-8.979-2.44-9.298-2.735-.116-.107 5.204-3.16 5.459-3.133.096.01.15-.02.121-.067-.029-.048.707-.507 1.637-1.021l1.689-.935.734.243c.403.133 1.635.45 2.736.706 4.89 1.132 7.162 1.854 9.999 3.175 2.26 1.053 2.988 1.54 4.156 2.787 1.928 2.059 2.83 4.668 2.685 7.772-.088 1.907-.436 3.16-1.462 5.271-.604 1.243-.826 1.545-1.958 2.672-1.41 1.405-1.963 1.828-3.554 2.723-1.897 1.067-4.014 1.801-6.597 2.288-1.106.208-7.538.38-8.875.237z"/><path d="M24.387 25.064c-2.073-.147-4.732-.016-6.729.33-6.08 1.056-11.32 4.982-14.074 10.544-1.69 3.413-2.405 6.562-2.56 11.275-.17 5.128.577 9.2 2.37 12.918.423.876.717 1.34.813 1.281.092-.057.115-.033.057.06-.143.231 1.165 2.046 2.445 3.393 3.034 3.193 7.218 5.23 12.102 5.895v.002c1.609.22 5.531.256 7.412.07 3.159-.312 5.927-1.077 8.287-2.289 3.11-1.598 5.817-4.555 7.556-8.26.615-1.309 1.405-3.331 1.323-3.388-.02-.015-1.63-.192-3.575-.393-1.945-.2-3.717-.395-3.939-.432-.389-.064-.42-.032-.818.864-1.017 2.288-2.81 4.77-4.217 5.837-1.108.84-2.513 1.478-4.01 1.823-1.708.393-5.781.424-7.351.056-2.026-.474-3.496-1.209-5.274-2.63-1.063-.85-1.717-1.638-2.572-3.102-1.144-1.959-2.107-5.242-2.324-7.922l-.09-1.113 16.799-.018c9.24-.01 16.938-.032 17.105-.049.168-.017.348-.074.4-.127.199-.199.077-5.569-.156-6.941-.88-5.185-2.704-8.994-5.752-12.016-3.483-3.454-7.739-5.278-13.228-5.668zm-1.08 5.92c1.584.096 2.923.341 4.15.784 1.227.442 2.344 1.081 3.48 1.966a9.416 9.416 0 011.965 2.051c.554.788 1.023 1.703 1.457 2.82.449 1.153.993 3.442 1.088 4.57l.059.702H9.486l.094-.834a15.35 15.35 0 01.785-3.459 13.82 13.82 0 011.51-3.027 12.873 12.873 0 012.164-2.496 12.6 12.6 0 012.75-1.86 11.557 11.557 0 013.066-1.03c1.078-.2 2.22-.261 3.452-.187zm113.529 17.831V26.662h7.873v2.602c0 1.431.034 2.602.075 2.602.042 0 .563-.515 1.16-1.145 1.244-1.315 2.287-2.1 3.784-2.847 3.434-1.715 7.714-1.589 11.563.341.768.385.881.486.768.684-.073.127-.344.952-.602 1.833-1.086 3.696-1.175 3.95-1.36 3.879-.77-.296-3.135-.902-3.994-1.023-3.048-.43-5.675.55-8.025 2.998-1.747 1.82-2.586 3.63-3.047 6.574-.2 1.274-.235 3.054-.285 14.63l-.057 13.178h-7.853V48.815zm44.574-23.747c-5.51.389-9.426 2.05-13.072 5.547-4.167 3.997-6.178 9.1-6.488 16.465-.206 4.871.67 9.607 2.42 13.098 2.981 5.948 8.35 9.62 15.47 10.582v-.002c2.609.352 6.979.23 9.809-.272 2.504-.444 5.696-1.682 7.453-2.888.948-.652 2.896-2.584 3.762-3.733 1.08-1.434 2.143-3.37 2.857-5.2.334-.858.608-1.61.608-1.675 0-.064-1.605-.283-3.569-.486-1.963-.203-3.73-.4-3.924-.436-.332-.062-.401.03-1.238 1.633-1.694 3.246-3.232 4.975-5.324 5.985-1.911.921-3.73 1.273-6.576 1.273-3.242 0-5.701-.796-8.262-2.676-2.198-1.612-3.9-4.631-4.734-8.4-.267-1.201-.607-3.845-.508-3.944.032-.032 7.728-.06 17.101-.06h17.043l.143-.365c.21-.53.158-4.09-.086-5.971-.52-3.991-1.673-7.256-3.58-10.13-1.028-1.55-3.377-3.905-4.908-4.92-3.937-2.613-8.958-3.808-14.397-3.425zm1.799 5.926c1.202-.01 2.423.073 3.27.252 1.166.248 2.265.639 3.279 1.164a12.04 12.04 0 012.765 1.97c.962.916 1.381 1.508 2.157 3.048.412.82.745 1.687 1.01 2.635.264.947.46 1.974.593 3.113l.082.701h-26.053l.088-.768c.17-1.483.53-2.88 1.057-4.164a13.73 13.73 0 012.059-3.474 12.45 12.45 0 012.91-2.608 12.097 12.097 0 013.62-1.56c.777-.194 1.96-.299 3.163-.309zm29.47 32.667c-1.12-1.82-2.145-4.24-2.372-5.6-.086-.515-.068-.567.217-.631.261-.058 6.181-.945 6.971-1.043.215-.027.3.152.552 1.169.317 1.28.809 2.499 1.266 3.142.154.216.237.462.185.548-.058.092-.038.119.048.066.129-.08.794.674.679.77-.074.06-6.812 2.48-6.908 2.48-.047 0-.334-.405-.638-.9zm25.821-9.22a1.48 1.48 0 00-.44-.384c-.993-.515-6.987-2.357-8.808-2.706-1.693-.325-6.21-1.481-7.74-1.98-3.339-1.09-5.345-2.201-6.978-3.863-.8-.814-1.1-1.253-1.698-2.478-.8-1.637-1.085-2.667-1.212-4.367-.208-2.768 1.108-6.487 3.044-8.606.752-.822 2.302-1.887 3.957-2.72 2.062-1.036 5.275-1.815 8.239-1.997 1.635-.1 4.68-.003 5.991.19 1.325.197 3.428.654 4.404.959 1.428.446 3.418 1.375 3.312 1.546-.047.076-.018.095.066.044.253-.157 1.846.959 2.7 1.891a12.78 12.78 0 012.394 3.801c.5 1.253 1.149 3.666 1.02 3.795-.052.051-1.766.278-3.81.505l-3.717.412-.162-.74c-.663-3.028-3.376-5.426-7.042-6.225-2.137-.465-6.52-.246-8.53.427-2.062.69-3.575 1.996-4.236 3.658-.35.88-.34 2.322.021 3.003.536 1.01 1.843 2.293 2.812 2.757 1.32.633 6.388 2.106 11.431 3.324 3.512.848 5.321 1.428 7.303 2.341.858.396 1.612.72 1.674.72.21 0 1.99 1.127 2.629 1.664.575.484 1.543 1.651 1.543 1.861 0 .048-.255.198-.567.334-4.556 1.99-7.128 3.08-7.26 3.08-.091 0-.243-.11-.339-.246zm19.328-9.486c-.947-1.122-1.767-2.68-2.148-4.08-.311-1.145-.41-3.317-.209-4.567.358-2.218 1.568-4.77 2.961-6.24.847-.894 2.185-1.85 2.591-1.85.105 0 .16-.03.124-.066-.102-.102 1.705-1.066 2.71-1.445 2.454-.925 5.292-1.396 8.433-1.401 2.551-.004 4.366.172 6.589.639 3.636.764 6.909 2.43 8.492 4.32.312.373.545.7.517.725-.17.16-1.847 1.08-3.953 2.173l-2.435 1.261-.443-.273a3.913 3.913 0 01-.7-.558c-.659-.728-2.791-1.688-4.597-2.07-1.475-.313-4.875-.318-6.624-.01-1.357.24-2.893.75-3.748 1.248-.768.446-1.807 1.614-2.263 2.542-.54 1.099-.534 2.347.014 3.338.213.387.586.934.828 1.217.242.283.412.552.378.599-.034.046-.026.059.017.027.043-.03.334.138.646.376a6.9 6.9 0 001.322.74c.416.168.756.349.756.4 0 .052-.466.298-1.035.546-.568.25-2.432 1.13-4.141 1.96-1.71.828-3.126 1.506-3.149 1.506-.023 0-.443-.475-.933-1.056zm24.998-7.186c-.082-.393-.121-.786-.088-.873.034-.087.502-.459 1.04-.826.54-.367 1.855-1.27 2.923-2.008a207.89 207.89 0 012.091-1.433c.162-.1.792 1.12 1.158 2.24.288.885.646 2.624.558 2.712-.039.039-1.75.258-3.802.486l-3.732.415-.148-.713zm5.728-6.144l-.352-.638.552-.312c2.329-1.315 7.584-4.537 10.627-6.515 2.74-1.78 2.293-1.39-3.603 3.15-3.012 2.319-6.637 4.96-6.804 4.955-.038-.001-.227-.29-.42-.64zM21.574 1.178l-9.183.008-2.135 2.558c-2.301 2.757-6.438 7.67-8.102 9.623-.565.664-.996 1.24-.957 1.28.04.039 1.254.104 2.698.146 1.443.042 3.652.086 4.91.1 2.236.024 2.292.018 2.488-.276.19-.285.355-.485 1.107-1.334l.327-.367h2.466c1.358 0 2.47.032 2.47.07 0 .04-.182.43-.403.868l-.403.796h10.235l.137-.566c.114-.475 3.25-11.96 3.46-12.678.065-.22-.43-.234-9.115-.228zm-.213 1.646c.028.027-.242.793-.6 1.701-.356.909-.944 2.416-1.306 3.352l-.658 1.701-1.635.002c-.902 0-1.635-.055-1.635-.123 0-.067.05-.141.114-.166.218-.085 3.604-4.089 3.525-4.168-.044-.044-.015-.08.066-.08.082 0 .583-.511 1.114-1.135.53-.623.988-1.111 1.015-1.084zM186.23 1.172l-1.6 1.902a1497.05 1497.05 0 01-2.898 3.436c-.714.844-2.156 2.557-3.205 3.804a756.31 756.31 0 01-2.775 3.288c-.764.895-.838 1.029-.606 1.09.146.038 1.326.078 2.624.087 1.297.01 2.388.045 2.421.078.034.034 1.089.061 2.344.061h2.283l.834-1.002.836-1h2.465c1.356 0 2.465.033 2.465.074 0 .041-.178.431-.395.867l-.392.793h10.228l.426-1.568c.234-.862.747-2.739 1.14-4.17 1.466-5.32 1.93-7.015 2.014-7.373l.086-.367H186.23zm8.848 1.748c.04.04-.28.968-.707 2.064a977.575 977.575 0 00-1.28 3.295l-.5 1.301h-1.587c-.873 0-1.588-.046-1.588-.101 0-.056.136-.251.303-.434a65.03 65.03 0 001.101-1.277 379.52 379.52 0 012.399-2.795c.88-1.018 1.644-1.911 1.695-1.987.051-.075.125-.105.164-.066zM29.848 14.552a415.67 415.67 0 002.455-4.439 474.79 474.79 0 011.57-2.869 1019.91 1019.91 0 002.173-3.97l1.144-2.102h5.516c3.034 0 5.517.024 5.517.052 0 .029-1.032 1.936-2.294 4.237-1.262 2.302-2.9 5.296-3.641 6.654l-1.347 2.47-5.576.034c-3.067.02-5.55-.011-5.517-.067zM52.16 1.168L48.656 7.82c-1.926 3.66-3.502 6.694-3.502 6.742 0 .05 2.476.086 5.504.084l5.506-.003 1.264-2.131c.695-1.172 1.295-2.131 1.334-2.13.039.003.761.963 1.605 2.134l1.535 2.129 5.385.003 5.387.002-1.2-1.3a318.504 318.504 0 01-1.818-1.99l-.619-.69.436-.084c1.372-.264 2.292-.536 2.668-.79.562-.378 1.631-2.007 2.658-4.048.672-1.336.844-1.807.89-2.447.071-.98-.119-1.312-1.001-1.746l-.641-.317-10.943-.035-10.944-.035zm9.16 3.576l1.291.092c.71.05 1.397.12 1.526.156.197.057.3.226.33.455.029.23-.017.519-.121.819-.209.6-.647 1.238-1.176 1.511-.374.194-2.197.271-2.67.114a20.4 20.4 0 00-.363-.118c-.176-.054-.076-.335.756-2.113l.427-.916zM87 13.216c.42-.789.986-1.825 1.258-2.302.272-.477.78-1.4 1.128-2.052 1.194-2.228 4.103-7.49 4.199-7.591.052-.056 2.564-.086 5.582-.067l5.487.035-1.805 3.27a997.54 997.54 0 00-2.71 4.937c-.497.918-1.022 1.879-1.166 2.136-.143.256-.577 1.052-.962 1.768l-.7 1.3H86.236L87 13.217zm15.174.603c.254-.46 1.858-3.494 3.564-6.742l3.103-5.905h10.586l1.33 2.42c.733 1.33 1.395 2.507 1.473 2.614.111.155.473-.354 1.718-2.419l1.577-2.615h9.064l-.632 1.168a717.9 717.9 0 01-1.991 3.636 559.57 559.57 0 00-1.934 3.537c-.316.587-.796 1.458-1.068 1.935-.271.477-.776 1.393-1.122 2.035l-.629 1.168h-10.915l-1.241-2.4c-.683-1.32-1.296-2.382-1.362-2.362-.065.02-.734 1.085-1.485 2.366l-1.366 2.33-4.566.034-4.565.035.461-.836zm36.597-12.647l-.351.635c-.193.348-.53.963-.75 1.367a3179.778 3179.778 0 01-6.05 11.049l-.253.44 12.11-.04 12.109-.039.795-.4c1.038-.524 1.642-1.137 2.668-2.711.946-1.452 2.848-4.882 3.828-6.899.613-1.263.85-2.207.496-1.988-.099.061-.118.036-.053-.07.134-.216-.53-.92-1.091-1.16-.354-.152-2.463-.184-11.944-.184h-11.514zm9.43 3.336h.998c.958 0 1.47.14 1.68.455.131.197.143.467-.018.965-.16.497-.493 1.222-1.043 2.324-.64 1.28-1.154 2.407-1.146 2.504.008.096-.012.148-.045.115-.033-.033-.359.053-.723.191-.48.183-1.01.252-1.927.252-.606 0-.959-.014-1.127-.064-.169-.05-.154-.135-.024-.275.065-.07.85-1.554 1.746-3.297l1.63-3.17zm13.237 9.946c.042-.109 1.669-3.097 3.616-6.64 1.948-3.543 3.557-6.487 3.576-6.543.02-.056 2.53-.086 5.58-.067l5.545.035-.783 1.401a268 268 0 00-1.475 2.682c-.38.704-1.683 3.09-2.894 5.301l-2.202 4.021-5.52.003c-4.815.003-5.509-.021-5.443-.194z"/></g></svg>