<svg width="223.69" height="52.461" viewBox="0 0 59.184 13.88" xmlns="http://www.w3.org/2000/svg"><path d="M12.632 13.748l1.102-7.836-7.53 7.836" fill="#be210c"/><path d="M15.214.128c-1.439 0-2.44.37-3.73 1.777L.131 13.743h4.322L15.65 2.085l-1.638 11.658h3.32L19.24.127m16.732 11.791c-.169-.128-.255-.32-.255-.576 0-.606.37-1.058 1.082-1.18.146-.025.474-.04.655-.04h.954l-.279 1.99h-1.398c-.342 0-.585-.064-.759-.194m-.7-6.362L34.247 7.23h3.598c.692 0 .871.211.871.603 0 .118-.018.27-.043.432-.01.04-.018.116-.033.219h-1.48c-1.534 0-2.522.195-3.303.99-.443.451-.775 1.222-.775 2.202 0 .76.323 1.345.885 1.683.373.226 1.06.393 2.06.393h4.784l.672-4.78c.06-.43.126-.863.126-1.439 0-.674-.312-1.322-1.145-1.682-.465-.2-1.093-.294-1.915-.294zm18.143 6.362c-.17-.128-.255-.32-.255-.576 0-.606.37-1.058 1.082-1.18a5.36 5.36 0 01.654-.04h.954l-.278 1.99h-1.397c-.344 0-.586-.064-.76-.194m-1.373-6.362l-.235 1.673h3.48c.693 0 .872.211.872.603 0 .118-.018.27-.043.432-.01.04-.018.116-.033.219h-1.481c-1.534 0-2.521.195-3.303.99-.443.451-.774 1.222-.774 2.202 0 .76.323 1.345.883 1.683.375.226 1.062.393 2.06.393h4.786l.671-4.78c.061-.43.126-.863.126-1.439 0-.674-.311-1.322-1.145-1.682-.464-.2-1.093-.294-1.914-.294zm-27.87 0l-1.151 8.195h2.91l1.151-8.195zm23.402 0l-1.152 8.195h2.91l1.152-8.195zM20.156 3.55l-1.434 10.202h2.91L23.065 3.55zm4.3 0l-.199 1.405h2.91l.198-1.405zm4.278 0l-1.061 7.568c-.06.422-.094.75-.094.957 0 .31.024.456.073.641.194.748.77 1.036 1.649 1.036h2.79l.252-1.672h-1.15c-.484 0-.66-.154-.66-.471 0-.1.012-.235.037-.407l.558-3.972h1.978l1.025-1.673h-2.769l.283-2.007zm14.84 0l-1.435 10.202h2.91L46.485 3.55zm4.282 0l-.198 1.405h2.91l.198-1.405" fill="#00663f"/></svg>