<svg version="1.1" id="Layer_1" xmlns="http://www.w3.org/2000/svg" x="0" y="0" viewBox="0 0 354.1 72.4" xml:space="preserve"><style>.st0{fill:#005e9e}.st1{fill:#00a651}.st2{fill:#ffcb05}.st4,.st5{fill-rule:evenodd;clip-rule:evenodd;fill:#ed1c24}.st5{fill:#00a651}</style><g id="XMLID_82_"><path id="XMLID_107_" class="st0" d="M240.4 59.4h1.8l-2.4 11.4h6.5l-.3 1.5h-8.3l2.7-12.9z"/><path id="XMLID_104_" class="st0" d="M250.8 59.4h1.8l-2.7 12.9h-1.8l2.7-12.9zm3.5-3.5l-2.9 2.5h-1.2l2.1-2.5h2z"/><path id="XMLID_102_" class="st0" d="M255.4 59.4h2.1l4.3 10.5 2.2-10.5h1.7L263 72.3h-2l-4.4-10.5-2.2 10.5h-1.7l2.7-12.9z"/><path id="XMLID_100_" class="st0" d="M268.6 59.4h9.4l-.3 1.6H270l-.8 3.9h7.1l-.3 1.5h-7.1l-.9 4.4h7.8l-.3 1.5h-9.6l2.7-12.9z"/><path id="XMLID_97_" class="st0" d="M284.2 59.4h2l1.9 12.9h-1.9l-.5-3.9h-5.1l-2.2 3.9h-1.8l7.6-12.9zm1.3 7.6l-.7-5.7-3.3 5.7h4z"/><path id="XMLID_94_" class="st0" d="M299.3 59.4h2l1.9 12.9h-1.9l-.5-3.9h-5.1l-2.2 3.9h-1.8l7.6-12.9zm1.2 7.6l-.7-5.7-3.3 5.7h4z"/><path id="XMLID_91_" class="st0" d="M307.7 59.4h9.4l-.3 1.6h-7.7l-.8 3.9h7.1l-.3 1.5H308l-.9 4.4h7.8l-.3 1.5H305l2.7-12.9zm7.4-3.6l-2.6 2.5h-1.2l1.8-2.5h2z"/><path id="XMLID_83_" class="st0" d="M319.8 59.4h6c1 0 1.8.1 2.3.4 1.1.6 1.5 1.6 1.2 3.1-.2.8-.5 1.4-.9 1.9s-1 .9-1.6 1.2c.5.2.8.5 1 .8.2.3.2.9.1 1.6l-.3 1.7c-.1.5-.1.9-.1 1.1 0 .4.1.7.4.8l-.1.3h-2.1c0-.1-.1-.3-.1-.4 0-.2 0-.5.1-1l.4-2.2c.1-.8-.1-1.4-.6-1.7-.3-.2-.8-.2-1.5-.2h-4l-1.2 5.5H317l2.8-12.9zm4.5 5.9c.8 0 1.5-.2 2.1-.5.5-.3.9-.9 1.1-1.8.2-.9 0-1.5-.6-1.9-.3-.2-.8-.3-1.4-.3h-4.3l-.9 4.4h4z"/><path id="XMLID_86_" class="st0" d="M332.7 59.4h9.4l-.3 1.6h-7.7l-.8 3.9h7.1l-.3 1.5H333l-.9 4.4h7.8l-.3 1.5H330l2.7-12.9z"/><path id="XMLID_88_" class="st0" d="M348.3 59.4h2l1.9 12.9h-1.9l-.5-3.9h-5.1l-2.2 3.9h-1.8l7.6-12.9zm1.3 7.6l-.7-5.7-3.3 5.7h4z"/></g><g id="XMLID_78_"><path id="XMLID_81_" class="st1" d="M61.4 24.7c-1.6.7-3.2 1.4-4.7 2-3.4 1.5-6.7 3.1-10 4.8-.2.1-.4.1-.6.1-.9.1-1.9.2-2.8.3-1.9.3-3.7.5-5.6.9-2.9.5-5.8 1-8.7 1.6-4.4 1-8.8 2-13.3 3.1-.2 0-.3.1-.5.1-.6.1-1-.1-1.2-.7-.2-.6-.1-1.1.5-1.4.8-.4 1.6-.7 2.4-1 5.8-2.2 11.7-4.2 17.7-5.9 4.3-1.2 8.7-2.2 13.1-2.9 2.8-.5 5.6-.8 8.4-1 1.7-.1 3.4-.1 5.1-.2 0 .1.1.1.2.2 0-.1 0 0 0 0z"/><path id="XMLID_80_" class="st1" d="M96.2 33.5c-.9-.2-1.8-.3-2.7-.5-3.7-.6-7.4-1.2-11.2-1.7-1.9-.3-3.9-.3-5.9-.5-.5 0-.4-.1-.5-.2-1.1-1.6-2.2-3.1-3.3-4.7-.1-.1-.2-.4-.3-.6 8.2 1.9 16.3 4.5 23.9 8.1v.1z"/><path id="XMLID_79_" class="st1" d="M67.4 27.5c.7 1 1.4 1.9 2.2 2.9H61l.2-.1c2-.9 4.1-1.9 6.2-2.8z"/></g><g id="XMLID_75_"><path id="XMLID_77_" class="st0" d="M67.3 27.5c1.7-.7 3.4-1.4 5.1-2 .8 1.2 1.6 2.3 2.4 3.4 2.9 4 5 8.4 6.9 12.9 1.5 3.5 2.6 7 3.6 10.6 0 .1.1.2.1.4.1.6-.1 1.1-.7 1.3-.6.2-1.1.1-1.4-.5-.5-.9-.9-1.9-1.4-2.9-3.4-7-7.4-13.7-12.1-19.9-.8-1-1.5-2-2.3-3 0-.1-.1-.1-.2-.3z"/><path id="XMLID_76_" class="st0" d="M67.3 19.3c-1.2-.1-2.4-.3-3.6-.4l-3.6-.3c-.3 0-.5-.1-.7-.3-1.7-1.7-3.4-3.5-5.2-5.2-3.9-3.8-8.1-7.4-12.3-10.8-.2-.1-.4-.3-.5-.5-.4-.5-.4-1 0-1.4.4-.5.9-.6 1.5-.3l1.5.9C49 4.1 53.6 7.3 58 10.8c3 2.4 5.9 5 8.5 7.7.3.3.5.6.8.8z"/></g><g id="XMLID_43_"><path id="XMLID_74_" class="st2" d="M72.9 25.4c-1.1.4-3.1 1.2-4.2 1.7-9 3.5-17.4 8.1-25.6 13.3C37 44.3 31 48.5 25.2 53c-4.8 3.8-9.6 7.7-14.4 11.5-2.9 2.4-5.7 4.9-8.6 7.3-.2.2-.5.3-.8.4-.5.2-.9 0-1.2-.4-.3-.4-.3-.8 0-1.2.4-.5.9-1 1.4-1.5 4.5-4.9 9-9.8 13.9-14.4 7.8-7.4 16.1-14.1 25.2-19.8 6.2-3.9 12.9-7.1 19.7-9.8.8-.3 1.6-.7 2.4-.9.2-.1 1.3-.4 1.4-.4 2.5.4 4.2.8 6.8 1.3.3 0 1.6.3 1.9.3z"/><path id="XMLID_44_" class="st2" d="M73.3 21.1c.9-.2 1.9-.6 2.7-.8 3-.7 6-1.4 9-2 2.6-.5 5.2-.9 7.8-1.3h.9c.5.1.9.4.9.9.1.5-.1.9-.6 1.1-.9.3-1.7.5-2.6.7-3.6 1-7.3 2-10.9 3-.5.1-.9.1-1.3 0-1.8-.6-3.6-1-5.3-1.6-.1.1-.4.1-.6 0z"/></g><g id="XMLID_36_"><path id="XMLID_42_" d="M40.4 21.9H34c-.2 0-.5 0-.7-.1-.4-.1-.7-.4-.8-.9-.1-.5.1-.9.6-1.1l1.2-.3c1.7-.2 3.5-.5 5.2-.6 1.4-.2 2.9-.3 4.3-.4 1.9-.1 3.8-.3 5.7-.4 2.3-.1 4.7-.1 7 0 2.2.1 4.3.3 6.4.5 2.7.3 5.4.7 8.1 1.3 2.9.6 5.6 1.5 8.4 2.5 3.8 1.4 7.5 3.2 11 5.3 2 1.2 3.9 2.4 5.8 3.6.1.1.2.2.3.2.4.4.5.8.3 1.3s-.5.7-1.1.6c-.3 0-.6-.1-.8-.2-3.8-1.9-7.8-3.4-11.8-4.8-3.8-1.3-7.6-2.4-11.5-3.3-2.6-.6-5.1-1-7.7-1.5-1.8-.3-3.7-.6-5.6-.8-1.5-.2-2.9-.3-4.4-.4-1.9-.2-3.8-.3-5.6-.4-2.3-.1-4.5-.1-6.8-.2-.2.1-.6.1-1.1.1z" fill="#ed1c24"/></g><path id="XMLID_35_" class="st4" d="M171.7 38.6l-2.8 14.6h-5.7l3-15.5c1.7-8.7-11.5-8.7-13.2 0l-3 15.5h-5.7l3-15.5c1.7-8.7-11.5-8.7-13.2 0l-3 15.5h-5.7l2.8-14.6c2.5-12.8 18.3-15.5 23.3-8.1 7.9-7.4 22.7-4.7 20.2 8.1z"/><path id="XMLID_34_" class="st4" d="M217.5 33.2c-1.1-1.7-3.4-2.5-5.7-2.4-2.2.1-5.2.3-5.7 2.4-.2 1.1.6 2 1.8 2.6 2.7 1.5 5.9 1.6 9 2.2 3.4.7 6.7 3.6 5.9 7.5-1.1 5.7-9.7 8.3-14.4 8.2-4.9-.1-10.7-2.3-11-7.1h6.2c1.1 1.7 3.9 2.3 6.1 2.3 3.4 0 6.5-1.1 6.9-3.2.5-2.6-2.5-3.4-6.4-4.2-5-1.1-11.5-.8-9.6-8.9 1-4.3 8-6.7 12.4-6.6 4.9.1 9.5 2.5 10.6 7.2h-6.1z"/><path id="XMLID_31_" class="st4" d="M181.7 32.7c2.1-1.4 5.7-2.1 7.7-1.9 3.3.4 4.4 2.1 4 4.3-.4 1.9-11 2.6-12.7 2.9-3.7.7-8.1 3.6-8.8 7.5-1.1 5.7 4.3 8.2 8.9 8.2 7.5-.1 14.5-4 16.5-11.4 1-3.6 1.5-7.9 1.8-9.7.6-4.3-4.8-6.7-9.2-6.6-2.4 0-4.9.4-7.2 1.4l-1 5.3zm.7 16.3c-3.4.1-4.9-1.5-4.5-3.7.4-2.1 2.4-2.8 5.3-3.3 3.1-.5 6-.4 9.1-1.8-1 4.9-2.5 8.6-9.9 8.8z"/><path id="XMLID_26_" class="st4" d="M110.7 32.7c2.1-1.4 5.7-2.1 7.7-1.9 3.3.4 4.4 2.1 4 4.3-.4 1.9-11 2.6-12.7 2.9-3.7.7-8.1 3.6-8.8 7.5-1.1 5.7 4.3 8.2 8.9 8.2 7.5-.1 14.5-4 16.5-11.4 1-3.6 1.5-7.9 1.8-9.7.7-4.3-4.8-6.7-9.2-6.6-2.4 0-4.9.4-7.2 1.4l-1 5.3zm.7 16.3c-3.4.1-4.9-1.5-4.5-3.7.4-2.1 2.4-2.8 5.3-3.3 3.1-.5 6-.4 9.1-1.8-.9 4.9-2.5 8.6-9.9 8.8z"/><path id="XMLID_19_" class="st5" d="M302.1 38.6l-2.8 14.6h-5.7l3-15.5c1.7-8.7-11.5-8.7-13.2 0l-3 15.5h-5.7l2.8-14.6c3.2-16.2 27.8-16.2 24.6 0z"/><path id="XMLID_11_" class="st5" d="M258.9 53.4c-8 0-13.2-6.1-11.8-13.5 1.4-7.5 9.1-13.5 17-13.5 8 0 13.2 6.1 11.8 13.5-1.4 7.4-9 13.5-17 13.5zm1-4.9c-4.7 0-7.8-3.9-6.9-8.6.9-4.8 5.5-8.6 10.2-8.6 4.7 0 7.8 3.9 6.9 8.6-.9 4.7-5.5 8.6-10.2 8.6z"/><path id="XMLID_8_" class="st5" d="M245.6 48.6h-16l22-19.4-.3-2.7h-23.4l-.9 4.7h15.9l-22 19.3.3 2.7h26.4l-2-4.6z"/><path id="XMLID_4_" class="st5" d="M347.9 33.2c-1.1-1.7-3.4-2.5-5.7-2.4-2.2.1-5.2.3-5.7 2.4-.2 1.1.6 2 1.8 2.6 2.7 1.5 5.9 1.6 9 2.2 3.4.7 6.7 3.6 5.9 7.5-1.1 5.7-9.7 8.3-14.4 8.2-4.9-.1-10.7-2.3-11-7.1h6.2c1.1 1.7 3.9 2.3 6.1 2.3 3.4 0 6.5-1.1 6.9-3.2.5-2.6-2.5-3.4-6.4-4.2-5-1.1-11.5-.8-9.6-8.9 1-4.3 8-6.7 12.4-6.6 4.9.1 9.5 2.5 10.6 7.2h-6.1z"/><path id="XMLID_1_" class="st5" d="M312.1 32.7c2.1-1.4 5.7-2.1 7.7-1.9 3.3.4 4.4 2.1 4 4.3-.4 1.9-11 2.6-12.7 2.9-3.7.7-8.1 3.6-8.8 7.5-1.1 5.7 4.3 8.2 8.9 8.2 7.5-.1 14.5-4 16.5-11.4 1-3.6 1.5-7.9 1.8-9.7.6-4.3-4.8-6.7-9.2-6.6-2.4 0-4.9.4-7.2 1.4l-1 5.3zm.7 16.3c-3.4.1-4.9-1.5-4.5-3.7.4-2.1 2.4-2.8 5.3-3.3 3.1-.5 6-.4 9.1-1.8-.9 4.9-2.5 8.6-9.9 8.8z"/></svg>