<svg xmlns="http://www.w3.org/2000/svg" version="1.1" id="svg2923" x="0" y="0" width="379.999" height="111.024" xml:space="preserve"><g id="g2933" transform="matrix(1.25 0 0 -1.25 -10.001 121.511)"><g id="g4610" transform="translate(-104.493 -134.984) scale(2.00128)"><g id="g3806" fill="#272525"><path id="path3039" d="M57.895 74.985l7.948 4.837.012.04h-5.299l2.489 4.393h12.936l-2.035-3.527-8.117-4.795-.012-.041h5.521l-2.271-3.828H56.211l1.684 2.921z"/><path id="path3043" d="M79.241 84.437c.674-.103 1.797-.183 2.946-.183h.04c1.27 0 2.161.08 2.898.183l-7.193-12.372h-5.884l7.193 12.372"/><path id="path3047" d="M88.574 84.255h5.824l-1.786-2.86h.04c1.766 2.154 3.652 3.285 6.171 3.285 2.478 0 3.384-.647 2.554-3.285h.041c1.478 2.076 3.631 3.285 6.009 3.285 1.974 0 3.348-.889 2.797-2.642-.221-.705-.734-1.632-1.131-2.315l-4.442-7.657h-5.863l2.63 4.39c.384.646.932 1.492 1.046 1.856.208.665-.427.885-.971.885-1.411 0-1.901-.665-2.981-2.557l-2.646-4.574h-5.723l2.63 4.39c.384.646.932 1.492 1.046 1.856.209.665-.427.885-.971.885-1.41 0-1.901-.665-2.98-2.557l-2.646-4.574h-5.743l7.095 12.189"/><path id="path3051" d="M118.528 89.949l5.629-.019-5.124-8.396h.04c1.825 2.217 3.688 3.144 6.328 3.144 2.599 0 3.647-1.088 2.868-3.567-.209-.665-.751-1.813-1.687-3.445-1.86-3.225-4.171-6.025-8.201-6.025-1.43 0-3.885.141-3.346 2.881h-.04l-1.418-2.458-5.906-.1 10.857 17.985zm-.958-14.479c1.531 0 2.93 1.309 3.538 3.243.228.726-.104 1.209-1.172 1.209-1.874 0-3.198-2.035-3.515-3.042-.323-1.028.081-1.41 1.149-1.41"/><path id="path3055" d="M137.14 74.522h-.04c-1.696-1.995-3.808-2.881-6.024-2.881-2.257 0-3.806.904-3.021 3.403.628 1.997 1.874 3.911 2.997 5.624 1.808 2.74 4.303 4.01 7.103 4.01 2.539 0 3.756-.746 3.083-3.144h.04l1.56 2.719h5.884l-7.216-12.189h-5.884l1.518 2.458zm-2.055 3.145c-.202-.325-.39-.666-.485-.968-.304-.967.298-1.229 1.145-1.229 1.471 0 2.455.887 3.223 2.176.201.383.403.706.542 1.148.272.867-.411 1.127-1.116 1.127-1.632 0-2.383-.784-3.309-2.254"/><path id="path3059" d="M155.228 89.956l5.832-.06-5.032-8.362h.041c1.824 2.217 3.687 3.146 6.327 3.146 2.599 0 3.647-1.09 2.869-3.569-.21-.665-.751-1.813-1.688-3.445-1.86-3.225-4.17-6.023-8.2-6.023-1.431 0-3.885.139-3.347 2.879h-.039l-1.418-2.458h-5.884l10.539 17.892zm-.663-14.485c1.532 0 2.93 1.308 3.538 3.242.228.726-.103 1.209-1.171 1.209-1.874 0-3.2-2.033-3.515-3.042-.324-1.028.08-1.409 1.148-1.409"/><path id="path3063" d="M169.465 83.919h5.965l-3.113-7.936h.041l6.096 7.936h5.025l-2.821-7.936h.042l5.887 7.936h6.382l-10.055-11.854h-7.133l2.485 7.053h-.041l-5.468-7.053h-7.132l3.84 11.854z"/><path id="path3075" d="M196.47 76.92a2.731 2.731 0 01-.304-.645c-.412-1.309 1.208-1.35 2.498-1.35 1.894 0 3.88.425 5.794.807l-2.579-3.205c-2.354-.564-4.731-.884-6.989-.884-2.76 0-6.123.26-5.002 3.828.836 2.658 2.962 5.64 4.515 6.99 2.464 2.138 4.666 2.219 7.285 2.219 5.401 0 7.178-.947 6.146-4.234-.222-.705-1.5-2.718-2.116-3.526h-9.248zm5.821 2.561c.175.361.33.665.424.965.286.909-.652 1.129-1.176 1.129-1.411 0-2.323-.404-3.46-2.094h4.212"/></g></g></g><path id="path3031" d="M86.6 28.077c1.688.255 4.496.453 7.37.453h.1c3.176 0 5.407-.198 7.25-.453L83.328 59.028h-14.72L86.6 28.078" fill="#272525"/><path id="path3035" d="M108.739 28.53h14.416l-5.131 8.314h.1c3.908-4.733 8.794-9.376 14.689-9.376 1.664 0 3.266.2 4.852.608l-9.45 16.436c-1.75-.203-3.503-.558-5.32-.558-6.802 0-9.804 2.972-12.245 7.212l-4.537 7.857H91.089l17.65-30.494" fill="#272525"/><path id="path3165" d="M49.17 52.875h-.104c-4.24 4.991-9.523 7.21-15.066 7.21-5.646 0-9.521-2.269-7.558-8.519 1.568-4.99 4.686-9.778 7.495-14.063 4.525-6.856 10.767-10.03 17.77-10.03 6.353 0 9.394 1.863 7.71 7.862h.104l3.902-6.805h14.719L60.089 59.028h-14.72l3.8-6.153zm-5.14-7.86c-.506.804-.977 1.662-1.217 2.417-.758 2.42.748 3.074 2.867 3.074 3.68 0 6.142-2.216 8.06-5.443.503-.958 1.01-1.763 1.358-2.872.682-2.168-1.027-2.824-2.791-2.824-4.083 0-5.961 1.966-8.277 5.647" fill="#272525"/><g id="g4591" transform="translate(-10.001 -8.489)"><linearGradient id="path3121_2_" gradientUnits="userSpaceOnUse" x1="-48.072" y1="140.552" x2="-48.072" y2="140.552" gradientTransform="matrix(102.0885 0 0 -9.5293 4956.496 1376.203)"><stop offset="0" id="stop20" stop-color="#ef2c30"/><stop offset=".034" id="stop22" stop-color="#ef2c30"/><stop offset="1" id="stop24" stop-color="#fff"/></linearGradient><linearGradient id="path3153_2_" gradientUnits="userSpaceOnUse" x1="-47.929" y1="145.16" x2="-47.929" y2="145.16" gradientTransform="matrix(92.2685 0 0 -11.3295 4472.224 1681.238)"><stop offset="0" id="stop30" stop-color="#231f20"/><stop offset="1" id="stop32" stop-color="#fff"/></linearGradient></g><path id="path2979" d="M189.98 43.11l42.572.25 15.604 15.978-28.705.288-29.722-15.768.25-.749z" fill="#fde449"/><path id="path2991" d="M169.32 10.526C167.254 10.008 143.214.187 135.198.45c-11.114 1.288-9.563 15.247-9.563 15.247s2.729-4.23 8.603-2.504c5.875 1.733 50.594 26.285 50.594 26.285l47.598.766-4.946-8.262c-.002 0-56.094-20.94-58.164-21.456" fill="#fde449"/><path id="path2995" d="M282.803 11.804H170.889s-1.374 1.628-1.374 6.314c.639.213 100.88.078 100.88.078l12.408-6.392" fill="#fde449"/><path id="path2999" d="M258.11 4.722l-83.19.811-5.304 6.384h113.826l11.212-5.269 4.94-2.327-41.484.401z" fill="#3db94d"/><linearGradient id="path3019_1_" gradientUnits="userSpaceOnUse" x1="-47.375" y1="143.986" x2="-46.375" y2="143.986" gradientTransform="matrix(129.9917 0 0 -10.6956 6327.984 1548.143)"><stop offset="0" id="stop40" stop-color="#3db94d"/><stop offset="1" id="stop42" stop-color="#fff"/></linearGradient><path id="path3019" d="M299.144 4.323L174.92 5.531l-5.306 6.387h113.843l16.139-7.595h-.453z" fill="url(#path3019_1_)"/><path id="path3079" d="M188.567 43.751v-1.164h44.779l18.559 18.205h-32.733l-31.138-16.008.533-2.197v1.164l.533-1.036 30.635 15.747h26.477l-13.816-13.549h-43.828v-1.162l.533-1.036-.534 1.036zm20.479 3.942l11.902 5.102.436-7.213 12.923 7.09-.253-3.174 2.319-.186.6 7.473-13.487-7.397-.416 6.85-14.94-6.404.916-2.14z" fill="#272525"/><path id="path3083" d="M213.485 48.551v-2.129h3.623v2.13" fill="#272525"/><path id="path3087" d="M228.077 48.338V46.21h3.623v2.128" fill="#272525"/><path id="path3099_2_" d="M262.382 23.902l9.047-6.396" fill="#ee2c30"/><path id="path3099" d="M271.429 17.506l-102.088.105s.518 4.743 1.806 6.324l91.235-.033" fill="#ee2c30"/><linearGradient id="path3121_3_" gradientUnits="userSpaceOnUse" x1="-46.794" y1="141.352" x2="-45.794" y2="141.352" gradientTransform="matrix(102.0885 0 0 -9.5293 4946.494 1367.715)"><stop offset="0" id="stop51" stop-color="#ef2c30"/><stop offset=".034" id="stop53" stop-color="#ef2c30"/><stop offset="1" id="stop55" stop-color="#fff"/></linearGradient><path id="path3121" d="M262.39 23.906l9.028-6.395-102.077.09v.02c.037.335.564 4.791 1.798 6.307h5.719l85.532-.022" fill="url(#path3121_3_)"/><path id="path3133" d="M263.415 23.711l-92.27.105s1.363 5.883 9.217 8.123h73.229l9.824-8.228" fill="#231f20"/><linearGradient id="path3153_3_" gradientUnits="userSpaceOnUse" x1="-46.506" y1="145.19" x2="-45.507" y2="145.19" gradientTransform="matrix(92.2685 0 0 -11.3295 4462.223 1672.75)"><stop offset="0" id="stop60" stop-color="#231f20"/><stop offset="1" id="stop62" stop-color="#fff"/></linearGradient><path id="path3153" d="M263.394 23.711h-5.527l-86.72.105v.027c.112.433 1.673 5.93 9.208 8.096h73.237l9.802-8.228" fill="url(#path3153_3_)"/><path id="path3177" d="M228.148 31.585l5.648 9.434h-49.07l-.174-.1c-.007-.004-2.927-1.635-7.38-4.099-6.68-3.702-16.788-9.269-25.581-13.999-4.396-2.359-8.463-4.516-11.604-6.11a130.212 130.212 0 00-3.938-1.942c-1.016-.475-1.773-.775-1.986-.82a7.684 7.684 0 00-1.707-.2c-1.938 0-3.424.808-4.455 1.641-.51.415-.9.833-1.16 1.143l-.285.37-.068.093-.015.025-1.304 2.044-.125-2.422c-.002-.01-.03-.528-.03-1.363.003-1.253.064-3.219.37-5.258.314-2.046.854-4.167 1.917-5.779l.646.431-.67-.39c1.49-2.572 4.555-4.3 9.402-4.284.563 0 1.148.022 1.762.068l-.058.773.025-.775c1.916.067 4.8.768 8.157 1.776 10.04 3.024 24.063 8.855 24.076 8.861l-.3.715-.767-.113c.275-1.856 1.03-3.9 2.805-5.51 1.774-1.612 4.503-2.74 8.56-2.958h.06c2.957.068 17.194.095 34.827.095 17.639 0 38.695-.027 55.34-.05l20.682-.03 8.197-.015.063 1.546-16.857 1.284-101.871.212-.03-.002c-.475-.04-.93-.058-1.362-.058-4.436.022-6.66 1.773-7.973 3.92-1.3 2.151-1.554 4.803-1.551 6.39 0 .432.018.79.035 1.027.018.243.035.36.035.36l-1.54.197a12.9 12.9 0 01-.081-1.586c.004-1.739.247-4.63 1.773-7.189 1.51-2.564 4.436-4.693 9.3-4.67.476 0 .972.022 1.484.06l-.06.773-.003-.773 101.782-.213 16.8-1.276.059.771.003.775s-48.944.095-84.225.095c-17.644 0-31.853-.025-34.861-.095l.018-.775.042.773c-3.823.21-6.153 1.244-7.603 2.557-1.443 1.318-2.066 2.964-2.312 4.591l-.147.985-.918-.38c-.002-.002-1.551-.645-3.995-1.62-3.663-1.459-9.326-3.653-14.717-5.497-5.374-1.849-10.558-3.342-12.974-3.4l-.018-.002h-.018a21.111 21.111 0 00-1.646-.065c-4.527.015-6.88 1.508-8.063 3.512l-.012.02-.013.02c-.851 1.268-1.388 3.22-1.674 5.148-.292 1.926-.353 3.825-.353 5.028 0 .803.027 1.281.027 1.284l-.775.042-.652-.418c.029-.047.647-1.018 1.86-1.999 1.208-.986 3.042-1.992 5.43-1.992.652 0 1.337.073 2.058.243.658.158 1.762.661 3.439 1.474 11.588 5.626 47.445 25.646 47.456 25.651l-.378.68v-.777h46.129l-4.242-7.087 1.334-.796z" fill="#272525"/><path id="path3179" d="M213.488 48.552h3.622v-2.129h-3.622v2.13zm3.427-.195h-3.234v-1.736h3.234v1.736z" fill="#fde449"/><path id="path3181" d="M228.077 48.34h3.623v-2.13h-3.623v2.13zm3.428-.196h-3.234v-1.736h3.234v1.736z" fill="#fde449"/><path id="path3193" d="M135.644 5.467a1.402 1.402 0 11-2.803 0 1.402 1.402 0 112.803 0" fill="#272525"/><path id="path3205" d="M134.24 4.062a1.403 1.403 0 000 2.806 1.4 1.4 0 001.403-1.398 1.402 1.402 0 00-1.402-1.408m0 2.612c-.666 0-1.21-.54-1.21-1.203l.026-.243c.112-.558.6-.97 1.184-.97a1.209 1.209 0 110 2.417" fill="#fde449"/><script>try { Object.defineProperty(screen, &quot;availTop&quot;, { value: 0 }); } catch (e) {} try { Object.defineProperty(screen, &quot;availLeft&quot;, { value: 0 }); } catch (e) {} try { Object.defineProperty(screen, &quot;availWidth&quot;, { value: 1920 }); } catch (e) {} try { Object.defineProperty(screen, &quot;availHeight&quot;, { value: 1080 }); } catch (e) {} try { Object.defineProperty(screen, &quot;colorDepth&quot;, { value: 24 }); } catch (e) {} try { Object.defineProperty(screen, &quot;pixelDepth&quot;, { value: 24 }); } catch (e) {} try { Object.defineProperty(navigator, &quot;hardwareConcurrency&quot;, { value: 8 }); } catch (e) {} try { Object.defineProperty(navigator, &quot;appVersion&quot;, { value: &quot;5.0 (X11)&quot; }); } catch (e) {} try { Object.defineProperty(navigator, &quot;doNotTrack&quot;, { value: &quot;unspecified&quot; }); } catch (e) {} try { window.screenY = 0 } catch (e) { } try { window.screenTop = 0 } catch (e) { } try { window.top.window.outerHeight = window.screen.height } catch (e) { } try { window.screenX = 0 } catch (e) { } try { window.screenLeft = 0 } catch (e) { } try { window.top.window.outerWidth = window.screen.width } catch (e) { }</script></svg>