<svg width="181.42" height="50.276" viewBox="0 -0.378 181.42 50.276" xmlns="http://www.w3.org/2000/svg"><path d="M105.53 11.36l1.774-.391 2.28-.245 2.915.245c.887.049 1.52.391 1.9.782.253.342.506.734.633 1.32v1.565l-.76 4.647c-.254.538-.254.978-.254 1.223l.254 1.027h-4.054l-.253-.538v-.734a6.47 6.47 0 01-1.9 1.125c-.635.244-1.394.391-2.535.391-1.394 0-2.28-.294-2.913-.88-.634-.587-.887-1.223-.634-2.103.253-.831.38-1.467 1.014-1.956.634-.587 1.773-.978 3.04-1.223l3.294-.685 1.52-.391c.253-.587.253-.88 0-1.076-.253-.245-.633-.293-1.013-.293-.633 0-1.267.048-1.774.293-.127.196-.634.49-.76.93l-4.054-.44c.254-.637.634-1.126 1.013-1.517l1.267-1.076zm-4.814 3.57l-1.267 6.603h-4.18l1.013-6.016c.254-.49.254-.83 0-1.076-.253-.391-.38-.538-1.013-.538-.507 0-.887.147-1.267.538-.253.343-.507.93-.634 1.663l-1.14 5.429h-4.18l1.013-5.771c.253-.49.253-.832 0-.978 0-.245 0-.49-.127-.636l-.886-.245c-.38 0-.887.147-1.268.538-.38.343-.633.93-.886 1.712l-1.014 5.38H80.7l2.027-10.564h4.053l-.38 1.516c.634-.636 1.394-1.125 2.027-1.37.634-.244 1.267-.39 2.154-.39s1.52.146 1.9.488c.634.245.887.734 1.014 1.272.886-.636 1.52-1.125 2.153-1.37a5.626 5.626 0 012.154-.39c1.014 0 1.9.293 2.534 1.026.633.685.633 1.712.38 3.18zm9.755 1.663l-1.9.49c-.887.244-1.52.39-1.773.635l-.381.733c-.253.343 0 .588.254.832.127.147.38.244.76.244.633 0 1.14-.097 1.52-.342.38-.244.887-.49 1.014-.734.253-.342.253-.733.506-1.32v-.538zm5.828 4.94l1.9-10.564h4.055l-.381 1.76a6.104 6.104 0 012.027-1.516c.634-.342 1.52-.489 2.407-.489 1.014 0 1.9.294 2.535 1.027.632.685.632 1.712.38 3.13l-1.268 6.652h-4.18l1.013-5.771c.254-.636 0-1.126-.253-1.467-.127-.245-.38-.392-.76-.392-.634 0-1.14.147-1.52.538-.381.44-.634 1.076-.888 2.054l-.76 5.038H116.3zm65.118 11.06a2.316 2.316 0 01-.507.53c-.634.49-1.267.734-2.28.734-1.014 0-1.648-.244-2.28-.636-.635-.44-1.141-.928-1.268-1.662l1.647-.391c.253.39.38.635.887.879.127.246.634.344 1.266.344.127 0 .634-.098.761-.246.253-.147.253-.391.253-.733 0-.39-.38-.734-1.267-1.076l-.38-.146c-.633-.245-1.267-.588-1.52-.881-.38-.44-.634-.832-.634-1.32 0-.735.254-1.32.887-1.81.634-.392 1.268-.636 2.027-.636a3.21 3.21 0 011.9.586c.182.113.352.227.508.342v6.123zm0-4.868l-.887.263c0-.39-.254-.636-.38-.832-.254-.244-.634-.293-1.14-.293-.38 0-.634.05-.76.245l-.254.636c0 .39.38.733 1.267 1.076l.633.245c.634.244 1.014.488 1.52.88v-2.22zm-6.208-.715h-3.801l-.38 1.86h3.42l-.253 1.32h-3.42l-.38 2.054h4.18l-.126 1.467h-5.954l1.52-8.021h5.447l-.253 1.32zm-6.968-1.32l-1.267 8.021h-1.393l-2.535-5.869-1.14 5.87h-1.267l1.267-8.022h1.774l2.533 5.332.761-5.332h1.267zm-11.528 6.554l-.254 1.467h-5.32l1.266-8.021h1.9l-1.266 6.554h3.674zm.38 1.467l1.52-8.021h1.9l-1.52 8.021h-1.9zm-6.081-5.723c0 .588-.253.979-.507 1.37-.38.439-.76.685-1.267.831l.887 3.522h-1.648l-.886-3.277h-1.647l-.634 3.277h-1.52l1.267-8.022h3.167c.887 0 1.521.196 2.154.588.38.391.634.977.634 1.711zm-2.154-.832c-.254-.146-.634-.244-1.013-.244h-1.268l-.506 2.299h1.52c.38 0 .886-.098 1.013-.342.254-.246.507-.49.507-.88 0-.342 0-.587-.253-.833zm-5.321-1.466l-1.394 8.021h-1.9l1.394-8.021h1.9zm-6.334 1.564l-1.395 3.18h1.902l-.507-3.18zm1.267-1.564l1.266 8.021h-1.646l-.254-1.957h-2.533l-1.014 1.957h-1.267l3.547-8.021h1.9zm-13.43 4.5l-.633 3.521h-1.774l1.267-8.021h1.773l-.505 3.13h2.786l.38-3.13h1.9l-1.393 8.021h-1.774l.507-3.521h-2.533zm-3.8-4.061c.633.393.76.783 1.013 1.371l-1.52.488c-.127-.39-.38-.636-.634-.832-.126-.244-.634-.293-1.014-.293l-.886.245-.126.636c0 .39.38.733 1.266 1.076l.634.245c.633.244 1.267.488 1.393.88.254.391.507.83.507 1.32 0 .733-.253 1.37-.887 1.858-.633.49-1.267.735-2.28.735-.887 0-1.774-.245-2.408-.637-.632-.44-.76-.928-1.013-1.662l1.52-.39c.127.39.38.634.76.878.254.246.634.344 1.268.344.252 0 .632-.098.886-.246.254-.147.38-.39.38-.733 0-.39-.38-.734-1.393-1.076l-.507-.146c-.633-.245-1.267-.588-1.394-.881-.253-.44-.507-.832-.507-1.32 0-.735.254-1.32.634-1.81.634-.392 1.267-.636 2.153-.636.634 0 1.52.147 2.155.586zm-5.955.88h-3.8l-.381 1.86h3.294l-.126 1.32h-3.42l-.254 2.055h4.054l-.254 1.467h-5.827l1.393-8.021h5.575l-.254 1.32zm-7.221 2.3c0 .734-.127 1.466-.38 2.103-.254.635-.634 1.125-1.268 1.565-.252.244-.632.49-1.012.539l-1.268.195h-3.42l1.267-8.021h2.533l1.014.097.887.244c.633.246 1.013.637 1.267 1.223.253.588.38 1.223.38 2.055zm-3.548-2.153h-.886l-1.013 5.088h1.266c.633 0 1.267-.246 1.647-.734.507-.586.634-1.32.634-2.201 0-.733-.127-1.223-.38-1.662-.254-.295-.634-.49-1.268-.49zm-11.02 6.065l3.673-7.531h1.9l1.267 8.021h-1.774l-.125-1.957h-2.789l-.885 1.957H88.3l1.393-8.021h1.774l-1.14 6.554h3.421l-.254.977zm4.307-5.967l-1.52 3.18h1.9l-.38-3.18zM59.923 6.958h8.868c1.52 0 2.534.342 3.167 1.076.634.734 1.14 1.516.887 2.592-.253.881-.633 1.614-1.267 2.201-.633.391-1.267.734-1.9.978 1.013.245 1.647.636 2.153 1.32.38.539.634 1.37.38 2.25-.253.735-.38 1.468-1.013 2.055-.507.586-1.14 1.076-1.774 1.467-.38.245-1.013.391-1.9.489l-2.027.147h-8.235l2.66-14.575zm16.47 0H80.7l-.507 2.788h-4.18l.38-2.788zM64.23 9.893l-.507 2.787h2.153c.634 0 1.267-.097 1.52-.342.38-.245.634-.636.634-1.076.127-.39 0-.734-.253-.978s-.887-.391-1.52-.391H64.23zm-1.52 8.558h2.28c.886 0 1.52-.146 1.9-.488.253-.245.507-.587.634-1.077.253-.39 0-.782-.127-1.027-.254-.244-.887-.44-1.774-.44H63.09l-.38 3.032zm13.048-7.482h4.308l-2.154 10.564h-4.18l2.026-10.564zm11.022 15.21c.633.44.887 1.075 1.014 1.81l-1.394.341c-.254-.44-.507-.732-.633-.978a1.61 1.61 0 00-1.14-.44l-.634.244-.633.686c-.127.293-.38.734-.38 1.223l-.254 1.467c0 .539.254 1.027.507 1.369.127.392.38.588 1.014.588.38 0 .886-.196 1.013-.49.253-.245.507-.733.507-1.321h-1.52l.253-1.223h3.167l-.633 4.256h-.888l-.252-.93c-.127.342-.38.586-.76.735-.507.244-.887.342-1.267.342-.887 0-1.52-.342-2.154-.979-.633-.635-.887-1.467-.887-2.543l.507-2.006c.126-.683.38-1.222 1.013-1.71l1.014-.735c.507-.244.887-.342 1.52-.342s1.267.244 1.9.637zm-6.334-.49l-1.52 8.022H77.66L75 27.842l-1.14 5.87h-1.268l1.52-8.022h1.647l2.407 5.332.76-5.332h1.52zm-10.77 1.565l-1.52 3.18h1.901l-.38-3.18zm-4.433-1.074c.38.342.633.83.633 1.467 0 .488-.253.93-.38 1.222-.507.342-.887.586-1.267.684.38.147.634.393.76.734.254.293.507.735.507 1.125 0 .733-.253 1.32-.633 1.711-.634.393-1.267.588-2.407.588h-3.801l1.267-8.021h3.167c1.14 0 1.774.195 2.154.49zm-1.014 1.71c0-.292-.254-.538-.506-.636-.127-.146-.38-.244-.76-.244h-1.52l-.254 1.957h1.52c.38 0 .887-.098 1.014-.344.253-.146.506-.39.506-.732zm-1.9 2.202h-1.267l-.507 2.299h1.774c.38 0 .76-.098 1.014-.344.253-.244.38-.488.38-.879 0-.344-.127-.588-.38-.734-.254-.244-.38-.342-1.014-.342zm2.914 3.62l3.8-8.022h1.9l1.268 8.021h-1.648l-.253-1.957h-2.534l-1.013 1.957h-1.52z" clip-rule="evenodd" fill="#3d7357" fill-rule="evenodd"/><path d="M7.221 7.056C9.501 4.66 12.29 2.9 15.203 1.58 18.37.258 21.537-.378 24.958-.378c3.293 0 6.46.636 9.628 1.957 3.04 1.32 5.7 3.08 8.108 5.477 2.28 2.25 3.927 4.94 5.194 7.972 1.267 3.081 1.9 6.358 1.9 9.782 0 3.325-.633 6.602-1.9 9.78-1.267 3.033-2.914 5.625-5.194 7.973-2.407 2.396-5.068 4.158-8.108 5.379-3.168 1.322-6.335 1.957-9.629 1.957-3.42 0-6.587-.635-9.754-1.957-2.915-1.221-5.702-2.983-7.982-5.38-2.407-2.347-4.054-4.939-5.32-7.972C.632 31.412 0 28.135 0 24.81c0-3.424.633-6.7 1.9-9.782 1.267-3.032 2.914-5.722 5.321-7.972zm23.564 16.921l2.534 2.446c.634.684 1.774.684 2.787 0l5.701-3.815-1.52-1.369h8.108L36.36 29.847c-1.52.83-2.534.928-3.42.196-1.014-.735-1.52-1.174-1.52-1.076-.761-1.077-1.901-1.223-3.295-.49l-7.474 5.527H7.348l12.668-9.538-18.497.099 2.534-2.446H27.49c1.267-.147 2.28.49 3.294 1.858z" clip-rule="evenodd" fill="#e1241a" fill-rule="evenodd"/><path d="M30.785 23.978l2.534 2.446c.633.684 1.774.684 2.787 0l5.701-3.815-1.52-1.37h8.108l-12.036 8.61c-1.52.83-2.534.927-3.42.195-1.014-.735-1.521-1.174-1.521-1.077-.76-1.076-1.9-1.222-3.294-.49l-7.474 5.527H7.348l12.668-9.537-18.497.098 2.534-2.445H27.49c1.267-.147 2.28.489 3.294 1.858z" clip-rule="evenodd" fill="#fff" fill-rule="evenodd"/></svg>