<svg xmlns="http://www.w3.org/2000/svg" width="119.972" height="18.216"><defs><clipPath id="a" clipPathUnits="userSpaceOnUse"><path d="M0 0h595.276v841.89H0V0z"/></clipPath></defs><path d="M17.172 16.275h4.06L26.846.85h-4.06l-5.614 15.424z" fill="#312d25"/><path d="M101.537.85H84.596L78.98 16.276h16.921l1.183-3.25H84.223l1.114-3.058h10.27L96.63 7.16H86.36l1.112-3.06h19.129l-4.431 12.175h4.236L110.837 4.1h7.703l1.182-3.25h-18.185z" fill="#9e8165"/><path d="M71.081.848h-6.768l-9.987 6.437L49.341.848 29.144.852 27.963 4.1h7.703l-4.43 12.176h4.234L39.901 4.1h5.904l5.505 6.673-2.002 5.503h4.058l1.793-4.919L71.08.848z" fill="#312d25"/><path d="M82.216.858h-8.013l-4.714 3.248h7.782l-3.103 7.124 4.86-3.025 3.2-7.347h-.012z" fill="#781520"/><g clip-path="url(#a)" transform="matrix(1.25 0 0 -1.25 -312.06 88.833)"><path d="M261.498 58.053l1.158 3.154a11.045 11.045 0 00-2.167-.671c-3.546-.717-6.755.352-7.167 2.387-.411 2.036 2.13 4.267 5.678 4.985 2.338.472 4.528.169 5.868-.676l1.1 3.03c-2.319.7-4.795.755-7.528.352-5.863-.864-9.115-4.893-8.523-8.38.58-3.404 3.882-5.494 11.095-4.287.165.027.326.068.486.106" fill="#312d25"/><path d="M305.819 59.465c-.563-.184-1.686-.279-2.132-.265-1.105.035-2.147.287-3.053.786l-2.253-1.485-.023-.017c.002-.002.005-.002.007-.005l-.002-.002c.016-.009.03-.02.047-.03a8.74 8.74 0 013.288-1.526c.054-.014.108-.028.165-.038.235-.054.473-.094.716-.122.122-.014.242-.028.365-.038l.193-.012a8.77 8.77 0 014.842 1.097 8.723 8.723 0 011.659 1.196 8.875 8.875 0 011.467 1.74c.315.487.584 1.008.795 1.554.35.748.629 1.412.629 1.412l-3.854-2.395s-.874-1.203-2.856-1.85" fill="#9e8165"/></g></svg>