<svg xmlns="http://www.w3.org/2000/svg" width="379.147" height="56.603"><path d="M274.945 56.524c-.324-.12-.482-.361-.65-.99a36.516 36.516 0 00-.453-1.497c-.166-.51-.302-1.108-.302-1.326 0-.218-.087-.521-.194-.673-.107-.153-.307-.795-.445-1.429-.28-1.279-.5-1.795-.837-1.954-.345-.162-14.146-.22-14.735-.061-.481.13-.499.156-1.043 1.551-.305.781-.63 1.532-.721 1.669-.092.137-.167.38-.167.542 0 .16-.079.446-.175.633-.097.187-.326.789-.51 1.337-.184.548-.45 1.158-.59 1.356l-.256.359-8.053-.005-8.054-.005-.002-.28c-.002-.264.608-2.494 1.146-4.195a15.2 15.2 0 00.38-1.508c.075-.408.238-.943.36-1.187.123-.245.262-.748.31-1.117.047-.37.194-.965.327-1.323.134-.358.325-.991.426-1.407.498-2.043 1.323-4.947 1.827-6.425.071-.208.21-.718.308-1.134.098-.416.238-.926.31-1.134.074-.208.199-.746.279-1.197.08-.45.224-.989.32-1.196.097-.208.255-.723.352-1.143.097-.421.232-.875.3-1.008.069-.134.195-.61.28-1.06.087-.45.231-.96.322-1.136.09-.175.202-.6.248-.946.046-.346.222-.948.39-1.338.169-.39.388-1.173.487-1.74.099-.567.233-1.098.299-1.18.065-.083.159-.429.208-.77.05-.34.217-.907.373-1.26.156-.352.323-.978.372-1.391.048-.414.173-.923.277-1.132.105-.21.22-.693.255-1.075l.065-.695-1.217-1.26c-.67-.693-1.302-1.386-1.405-1.54-.229-.341-.13-1.29.232-2.24.132-.346.357-1.083.5-1.638.143-.554.305-1.064.36-1.134.054-.069.139-.404.188-.745a6.1 6.1 0 01.394-1.307c.167-.378.304-.825.304-.994 0-.356.25-1.43.374-1.615.047-.07.186-.494.308-.945.122-.45.373-1.3.557-1.89l.336-1.07 13.698-.032 13.697-.033.185.284c.101.157.251.681.333 1.166.082.485.261 1.134.398 1.441.136.308.277.761.312 1.008.036.247.308 1.243.605 2.213s.638 2.132.758 2.582c.12.45.325 1.146.455 1.544.13.399.236.888.236 1.087 0 .198.11.61.245.915.135.305.33.922.433 1.37.272 1.188.539 2.172.954 3.525.202.659.488 1.65.636 2.205.147.554.434 1.547.637 2.205.203.658.432 1.509.51 1.89.078.38.184.75.235.819.133.179.254.649.374 1.448.058.381.215.979.35 1.327.135.349.283.903.328 1.23.045.329.166.76.269.96.103.2.223.61.266.911.043.302.213.917.378 1.368.165.45.361 1.13.436 1.511.075.382.215.892.31 1.134.097.243.353 1.122.57 1.953.218.832.561 2.05.763 2.709.203.658.511 1.735.685 2.393.175.659.4 1.48.503 1.827.102.347.246.885.32 1.197.074.312.295 1.077.491 1.7.197.624.422 1.39.5 1.702.507 2.015.67 2.61.77 2.834.199.445.502 1.61.505 1.944.002.178.112.566.246.861.134.296.276.72.315.945.145.83.654.782-8.314.784-4.477 0-8.237-.034-8.357-.079zm-6.469-22.493c.022-.22-.168-1.185-.421-2.142a67.543 67.543 0 01-.571-2.278c-.06-.296-.172-.653-.248-.794-.075-.141-.216-.608-.313-1.038a20.368 20.368 0 00-.423-1.536c-.502-1.534-1.023-3.564-1.023-3.987 0-.24-.052-.49-.116-.555-.064-.066-.284-.755-.49-1.531-.32-1.213-.588-1.801-.82-1.801-.032 0-.095.212-.14.472-.172.993-.483 2.28-.83 3.433-.198.658-.396 1.466-.439 1.794-.043.329-.274 1.35-.515 2.268a51.11 51.11 0 00-.616 2.615c-.098.52-.287 1.257-.418 1.638a8.421 8.421 0 00-.328 1.368c-.048.372-.176 1.02-.284 1.441-.295 1.15-.462 1.106 4.109 1.067l3.847-.034zm14.009-8.481a.126.126 0 00-.126-.126.126.126 0 00-.126.126.126.126 0 00.252 0zM101.508 56.045a9.575 9.575 0 01-1.952-.44 17.12 17.12 0 00-1.51-.476c-.311-.073-.68-.203-.82-.29a2.355 2.355 0 00-.59-.235c-.186-.043-.413-.15-.505-.236-.091-.087-.336-.216-.543-.286-.208-.07-.491-.312-.63-.536-.215-.348-.309-.399-.63-.345-.24.04-.5-.017-.71-.156-.739-.488-1.753-1.312-2.47-2.006a22.608 22.608 0 00-1.076-.985c-.39-.312-1.937-2.22-2.116-2.611-.073-.158-.296-.57-.497-.917-.313-.542-1.108-2.124-1.709-3.402-.406-.864-.947-2.836-1.066-3.892-.07-.622-.176-1.19-.233-1.265-.271-.345-.312-1.542-.38-11.09l-.074-10.2-.315-.153-1.676-.81c-1.296-.629-1.71-.97-1.53-1.263.045-.073.217-.653.38-1.289.165-.635.446-1.666.625-2.29.18-.623.41-1.502.511-1.952.101-.45.268-1.033.37-1.295.102-.261.302-.913.443-1.448a21.67 21.67 0 01.49-1.604c.13-.346.3-.885.382-1.197.082-.311.234-.85.34-1.196a26.1 26.1 0 00.313-1.132c.247-1.015-.362-.944 7.722-.912 6.162.024 7.244.055 7.488.217l.285.189-.013 17.52c-.011 15.482.01 17.565.18 17.89.105.203.192.48.193.613 0 .134.236.738.523 1.342.43.901.61 1.147 1.008 1.37.267.15.485.354.485.454 0 .1.077.18.171.18.095 0 .52.18.944.4.612.315.995.415 1.845.483.59.047 1.102.114 1.138.15.037.037.429-.035.872-.157.714-.199 2.662-1.323 3.197-1.846.091-.09.241-.163.333-.163.197 0 .33-.284.401-.864.03-.233.17-.653.313-.933.198-.388.286-.9.37-2.16.06-.907.116-8.75.123-17.427.008-9.483.06-15.807.13-15.85.064-.04.117-.31.118-.6 0-.29.048-.6.104-.69.082-.129 1.565-.154 7.355-.126 6.895.034 7.266.048 7.515.273l.261.237.005 17.344c.005 16.759-.05 19.638-.378 19.966-.068.069-.124.451-.124.85 0 .43-.103.988-.252 1.366-.138.351-.252.782-.252.957 0 .176-.133.613-.295.972-.163.36-.397.923-.521 1.252-.124.329-.275.598-.335.598s-.109.077-.109.17c0 .094-.134.424-.299.733-.164.31-.343.7-.396.87-.188.594-1.477 2.133-1.787 2.133-.091 0-.163.142-.163.32 0 .325-.534.94-.815.94-.081 0-.229.184-.328.41-.1.224-.306.464-.46.531-.154.068-.348.288-.431.488-.09.218-.32.436-.572.541-.23.096-.57.345-.755.551-.184.207-.439.376-.566.376-.127 0-.23.088-.23.195 0 .108-.158.264-.35.347a4.101 4.101 0 00-.66.38c-.701.51-1.703 1.094-1.884 1.098-.106.002-.477.143-.823.314-.347.17-.701.31-.788.31-.087.001-.37.115-.628.254-.259.139-.63.252-.823.252-.195 0-.876.204-1.514.453l-1.16.453-3.591.04c-1.975.022-4.044-.004-4.599-.057zm195.033-.205c-.178-.178-.198-2.065-.2-18.866 0-10.268-.032-18.782-.07-18.92-.07-.255-.403-.441-2.259-1.259-1.921-.847-2.138-.981-2.18-1.347-.022-.186.047-.505.152-.71.106-.203.307-.958.448-1.677.504-2.57.877-4.152 1.022-4.335.057-.072.165-.526.24-1.008.075-.482.215-1.132.311-1.444a31.24 31.24 0 00.456-1.827c.391-1.76.725-2.774.992-3.016.208-.188 1.333-.203 13.214-.17 10.182.029 13.02.07 13.144.194.086.087.348.158.58.158.422 0 3.12.86 3.78 1.204.19.099.39.18.445.18.343.004 4.175 2.1 4.373 2.393.034.05.236.182.447.29.477.244 2.576 2.29 2.576 2.511 0 .089.203.324.452.522.248.198.562.62.698.937.136.317.356.653.49.746.242.17 1.633 2.79 1.639 3.089.002.087.144.5.317.915.546 1.312.937 3.75.939 5.85 0 1.232-.232 3.292-.393 3.467-.06.065-.11.377-.11.693 0 .315-.107.942-.237 1.392-.38 1.315-1.383 3.83-1.59 3.982a.504.504 0 00-.189.354c0 .47-1.82 3.649-2.593 4.53a54.36 54.36 0 00-1.891 2.283c-.33.416-.816.982-1.081 1.259-.265.276-.482.61-.482.743 0 .225.554 1.456.913 2.029a51.938 51.938 0 011.777 3.03c.46.834.837 1.577.837 1.65 0 .072.114.235.252.36.139.125.252.272.252.325 0 .053.38.767.842 1.587 1.478 2.615 2.056 3.723 2.056 3.94 0 .073.054.132.12.132.154 0 1.014 1.533 1.014 1.808 0 .114.042.209.094.21.052 0 .312.337.578.75.85 1.321 1.768 1.2-9.167 1.2h-9.563l-.558-1.07a41.18 41.18 0 01-1.121-2.394c-.31-.727-.78-1.748-1.047-2.267-.265-.52-.558-1.2-.65-1.51-.091-.31-.266-.662-.387-.783a1.416 1.416 0 01-.304-.57c-.047-.193-.21-.605-.363-.917-.154-.312-.316-.721-.362-.91-.045-.189-.224-.551-.396-.805a10.97 10.97 0 01-.66-1.196c-.289-.612-.419-.755-.785-.862-.849-.248-.817-.5-.857 6.702-.027 4.888-.073 6.471-.189 6.545-.084.053-3.621.098-7.86.099-6.841.002-7.73-.02-7.906-.196zm22.817-29.844c.764-.35 1.173-.74 1.854-1.77.555-.839.78-2.374.502-3.44-.251-.962-.858-2.053-1.31-2.355-.207-.138-.405-.337-.438-.44-.04-.122-.5-.291-1.29-.475-1-.232-1.627-.288-3.34-.3-1.527-.01-2.163.03-2.301.146-.165.137-.187.741-.158 4.453.032 4.197.039 4.297.293 4.424.158.078 1.288.121 2.862.11 2.521-.02 2.625-.032 3.326-.353zM295.083 5.392a.126.126 0 00-.126-.126.126.126 0 00-.126.126.126.126 0 00.252 0zm55.698 50.472c-.11-.132-.143-5.092-.135-19.76.006-10.77-.026-19.735-.073-19.92-.087-.346-.235-.43-.372-.21-.049.08-1.532.127-4.034.127-3.81 0-3.962-.01-4.09-.249-.161-.301-.012-1.504.368-2.964a34.52 34.52 0 00.45-2.016c.362-1.935.458-2.404.817-3.968.199-.866.397-1.858.44-2.205.044-.346.156-.856.25-1.134.093-.277.234-.815.313-1.196.08-.382.272-.85.428-1.043l.285-.349 16.683.004c14.473.003 16.707.029 16.867.189.159.159.161.303.019 1.038-.092.47-.246 1.05-.344 1.29-.098.24-.211.778-.252 1.196-.04.419-.23 1.413-.42 2.21-.19.797-.414 1.789-.498 2.205-.084.415-.23 1.067-.325 1.448-.094.382-.26 1.166-.367 1.744-.107.578-.234 1.114-.282 1.191-.048.077-.156.643-.24 1.258-.085.614-.192 1.155-.24 1.202-.046.047-2.084.114-4.528.149-3.504.05-4.487.1-4.65.235-.191.16-.21 1.754-.24 19.906l-.032 19.733-7.826.032c-6.571.027-7.85.004-7.972-.143zm-154.27-.605c-.183-.262-.201-1.977-.198-18.417.003-17.092-.01-18.154-.22-18.579-.148-.3-.343-.481-.585-.544a1.767 1.767 0 01-.63-.336c-.147-.134-.489-.314-.76-.401-.612-.197-1.925-.842-2.018-.992-.038-.062-.02-.275.04-.473.4-1.316.583-1.81.67-1.81.055 0 .1-.229.1-.508 0-.28.199-1.116.442-1.858.665-2.033 1.43-4.57 1.529-5.067.048-.243.248-.831.444-1.309.196-.477.357-.99.357-1.138 0-.435.758-2.514.98-2.687.157-.122 2.177-.157 9.117-.157 8.906 0 10.303.055 11.354.45.261.1.697.18.969.18.271 0 .88.139 1.352.31.472.17 1.242.398 1.71.506.47.11 1.037.277 1.26.372.224.096.89.355 1.478.576.589.22 1.184.5 1.323.62.138.12.532.322.874.449 1.105.407 3.305 1.826 4.606 2.97 2.158 1.897 3.795 3.74 4.91 5.525.766 1.227 2.067 3.912 2.278 4.7.079.296.195.6.257.676.062.076.222.558.357 1.071.135.513.339 1.188.453 1.5.115.312.256 1.058.313 1.657.057.6.167 1.21.245 1.356.256.477.41 3.758.27 5.741-.07 1.004-.187 1.937-.26 2.073-.073.137-.162.632-.198 1.102-.079 1.024-.712 3.814-1.124 4.953-.163.45-.36 1.057-.437 1.349-.078.291-.225.613-.327.715a.737.737 0 00-.186.453c0 .147-.107.477-.24.734-.131.256-.485.97-.787 1.586-.3.616-.647 1.183-.768 1.259-.121.076-.22.235-.22.355 0 .19-.92 1.64-1.687 2.658-.343.456-2.94 3.112-3.043 3.112-.043 0-.4.275-.792.613-.87.746-2.008 1.528-2.225 1.528-.088 0-.234.09-.324.199-.09.109-.58.426-1.086.704-.507.278-.95.553-.986.611-.036.058-.277.173-.536.256-.396.126-1.346.508-2.487 1-1.361.586-.714.557-13.437.603l-11.925.043zm20.162-16.673a8.793 8.793 0 002.715-1.483c.503-.41 1.458-1.759 1.892-2.672.132-.277.317-.645.413-.818.222-.404.534-1.928.722-3.53a9.422 9.422 0 000-2.52c-.174-1.486-.603-3.632-.867-4.344-.443-1.194-.513-1.353-.633-1.43-.07-.045-.22-.265-.335-.488-.794-1.55-2.483-3.171-4.078-3.913-.634-.295-.916-.343-2.237-.38-1.117-.033-1.57 0-1.732.123-.206.156-.22.816-.222 10.497v10.745c.002.553.178.602 1.977.553 1.15-.032 1.693-.11 2.386-.34zM52.552 55.253c-.202-.075-.248-.206-.242-.693.004-.33-.012-7.574-.034-16.097-.023-8.523-.003-16.8.043-18.394.096-3.273.097-3.269-.793-3.687-.303-.143-.626-.35-.717-.46a.596.596 0 00-.396-.2c-.127 0-.37-.127-.542-.283a23.066 23.066 0 00-.587-.515c-.228-.19-.263-.313-.197-.693.338-1.948.459-2.479.573-2.517.073-.024.132-.365.132-.758 0-.455.119-1.033.326-1.595a9.859 9.859 0 00.435-1.638c.06-.416.167-1.011.236-1.323.07-.312.217-1.02.327-1.575.11-.554.307-1.376.438-1.827a11.8 11.8 0 00.318-1.448c.045-.347.158-.75.252-.897.326-.508.962-.552 7.932-.552 7.042 0 7.496.036 7.502.592.001.125 0 8.494-.002 18.598-.003 12.355.038 18.53.126 18.858.074.273.227.516.35.551.119.035 2.456.055 5.193.045 5.689-.02 5.62-.031 5.474.83a16.7 16.7 0 01-.388 1.524c-.164.55-.298 1.204-.298 1.456 0 .25-.146.935-.325 1.52-.334 1.095-.396 1.347-.836 3.396a45.532 45.532 0 01-.446 1.89 20.512 20.512 0 00-.355 1.741 22.03 22.03 0 01-.489 2.166c-.176.614-.321 1.223-.321 1.352 0 .13-.07.331-.157.447-.146.195-1.03.215-11.22.245-6.085.018-11.175-.008-11.312-.06zm92.89-.57l-9.106-.033-.124-.325c-.195-.514-.102-36.442.095-36.564.312-.193.023-.637-.544-.836-1.195-.42-1.655-.562-2.415-.75-.435-.109-.914-.31-1.063-.45-.264-.246-.266-.267-.06-.7.117-.244.213-.623.213-.84 0-.219.114-.77.253-1.225.242-.787 1.145-4.489 1.325-5.426.104-.542.42-1.612.575-1.953.064-.138.28-1.074.479-2.079.2-1.004.426-1.985.502-2.179.298-.753-.58-.718 18.058-.716 13.442 0 17.11.035 17.359.16.402.203.512.834.161.926-.206.054-.229.162-.183.882.032.507-.002.875-.089.962-.078.078-.141.474-.141.88 0 .473-.092.939-.257 1.3-.149.327-.339 1.21-.452 2.104-.108.847-.276 1.665-.373 1.819-.098.153-.178.562-.178.907 0 .612-.2 1.27-.384 1.27-.05 0-.124.383-.164.85-.097 1.15-.285 2.37-.39 2.54-.06.098-2.365.138-7.947.138-7.644 0-7.866.007-7.993.244-.152.285-.178 5.407-.028 5.643.076.119 1.954.166 8.093.202 8.985.054 9.571.092 9.566.622 0 .155-.147.82-.325 1.478-.318 1.182-.38 1.451-.76 3.243-.106.502-.245.945-.309.984-.063.04-.115.355-.115.702 0 .38-.17 1.144-.424 1.914-.234.706-.464 1.461-.511 1.68-.048.217-.203.5-.345.63-.244.22-.662.235-7.848.267l-7.59.034-.146.32c-.103.226-.107.39-.013.566.073.135.153 1.274.18 2.53.044 2.12.067 2.304.313 2.55.264.264.308.265 8.86.292l8.595.027.172.414c.14.336.145.569.026 1.233-.153.848-.613 2.814-1.017 4.346a13.066 13.066 0 00-.311 1.666c-.043.432-.246 1.268-.45 1.858-.206.59-.375 1.287-.378 1.547a5.6 5.6 0 01-.121.976c-.545 2.385-.74 3.122-.859 3.24-.151.152-5.733.185-21.412.13zM3.58 54.5c-.116-.116-.152-4.497-.155-18.93-.003-14.567-.039-18.82-.158-18.968a1.727 1.727 0 00-.468-.351c-.905-.463-1.579-.9-2.157-1.399L0 14.3l.07-.642a9.01 9.01 0 01.277-1.336c.114-.38.34-1.26.5-1.952.48-2.056.66-2.697.986-3.511.17-.425.366-1.153.436-1.617.07-.464.219-1.026.33-1.248.11-.222.2-.528.2-.68 0-.151.113-.601.25-1A8.504 8.504 0 003.38.964c.046-.345.165-.709.265-.809.157-.156 2.138-.175 14.376-.137 9.123.028 14.443.09 14.888.175.895.17 1.47.356 1.838.597.162.107.453.194.646.194s.522.105.732.233c.21.128.585.3.835.382.25.083.555.261.678.397s.285.248.361.249c.285.003 1.625 1.227 3.087 2.82.67.73 1.058 1.298 1.459 2.141.898 1.89 1.232 2.851 1.337 3.852.14 1.329.137 3.774-.006 4.499l-.259 1.322c-.076.394-.22.783-.321.866a.575.575 0 00-.182.39c0 .652-1.53 3.269-2.543 4.352-1.417 1.513-2.385 2.434-2.56 2.434-.095 0-.204.102-.244.227-.04.125-.297.365-.572.535-.275.17-.501.4-.503.51-.004.243.41.743.615.743.218 0 1.113.475 1.903 1.01.945.641 2.644 2.258 2.644 2.517 0 .116.147.289.326.385.629.336 1.96 2.193 2.143 2.989.044.189.215.545.38.792.184.274.4.935.556 1.7.14.69.324 1.366.407 1.505.09.15.17.922.198 1.908.036 1.305.004 1.747-.15 2.08-.107.231-.29.903-.405 1.492-.116.59-.368 1.383-.56 1.764a52.825 52.825 0 00-.724 1.512c-.416.91-1.339 2.117-1.813 2.37-.17.092-.373.336-.451.544a.917.917 0 01-.509.515c-.2.076-.494.326-.65.555-.158.23-.389.45-.513.489-.125.04-.256.146-.29.237-.09.233-2.106 1.54-3.14 2.036-.475.227-.932.468-1.016.535a1.633 1.633 0 01-.466.21 7.835 7.835 0 00-.85.33c-.516.234-1.013.242-15.565.242-11.523 0-15.066-.035-15.182-.151zm22.25-13.853c.325-.08.777-.307 1.005-.504.227-.197.496-.358.598-.358.102 0 .185-.075.185-.165 0-.091.112-.286.25-.433.136-.148.363-.57.503-.938.61-1.604.125-3.778-1.097-4.917-.51-.475-1.05-.854-1.216-.854-.112 0-.318-.114-.456-.252-.237-.237-.42-.252-3.074-.252h-2.823l-.138.397c-.176.504-.19 7.64-.015 8.099l.122.323h2.782c1.682 0 3.016-.058 3.374-.146zm-.24-18.674c.079-.095.306-.206.504-.246.483-.096 1.38-1.04 1.842-1.938.338-.659.375-.844.375-1.932 0-1.112-.032-1.265-.415-2.016-.436-.854-1.43-2.009-1.728-2.009-.255 0-.818-.274-.818-.398 0-.058-1.302-.106-2.893-.106-2.813 0-2.9.008-3.15.276-.246.265-.256.425-.256 4.121v3.846l.346.283c.336.276.43.284 3.197.289 2.274.004 2.88-.031 2.995-.17z" fill="#6190b8"/><path d="M274.628 56.236c-.11-.168-.319-.72-.465-1.228l-.444-1.549c-.098-.344-.18-.806-.18-1.026 0-.22-.072-.428-.16-.462-.17-.065-.404-.879-.542-1.89-.12-.869-.511-1.39-1.128-1.499-.624-.11-14.324-.133-14.609-.023-.196.075-.942 1.442-.949 1.737-.002.075-.148.476-.325.891-.177.416-.375.97-.44 1.232a7.236 7.236 0 01-.43 1.126c-.173.358-.315.739-.317.847-.004.287-.428 1.177-.682 1.431-.202.202-.793.218-8.15.213-6.675-.004-7.942-.033-7.999-.181-.037-.097.056-.592.207-1.1.471-1.587.872-3.032 1.078-3.883.108-.45.31-1.159.45-1.574.139-.416.359-1.223.489-1.793.13-.57.294-1.144.364-1.275.07-.13.219-.684.332-1.23.112-.547.251-1.05.308-1.12.057-.069.17-.487.25-.928.079-.441.193-.895.253-1.008.165-.311 1.005-3.142 1.146-3.859.068-.346.228-.942.356-1.323.128-.38.301-1.061.384-1.512.083-.45.23-.989.327-1.196.096-.208.266-.775.377-1.26.111-.484.248-.937.304-1.007.056-.07.174-.538.262-1.04.088-.503.202-.914.252-.914.11 0 .372-1 .372-1.418 0-.164.15-.607.331-.984.182-.376.408-1.13.503-1.674.177-1.009.317-1.529.802-2.979.151-.45.324-1.17.385-1.601.06-.43.219-1.026.352-1.323.133-.297.28-.806.327-1.13l.085-.59-1.389-1.426-1.389-1.426-.004-.693c-.002-.456.145-1.144.43-2.016.78-2.384.953-2.974.953-3.25 0-.148.132-.57.294-.935a5.47 5.47 0 00.367-1.373c.04-.389.184-.956.32-1.26.136-.303.32-.864.41-1.245.09-.38.316-1.175.503-1.764l.34-1.07 13.598-.032c10.747-.026 13.644 0 13.814.126.134.097.291.54.414 1.165.11.555.335 1.358.502 1.786.167.427.304.92.304 1.095 0 .174.136.703.303 1.175.325.92 1.209 4.043 1.209 4.272 0 .076.083.304.184.508.102.203.225.708.273 1.12.049.412.155.817.237.898.082.082.22.508.307.947.087.439.266 1.124.397 1.523.132.398.238.795.237.882 0 .086.196.78.439 1.542.514 1.617 1.389 4.683 1.671 5.859.109.45.33 1.168.494 1.596.163.428.296.953.296 1.169 0 .215.137.829.304 1.364.167.535.373 1.257.458 1.603l.277 1.134c.067.277.264.929.438 1.449.173.52.411 1.37.529 1.89.118.52.278 1.062.356 1.205.078.143.227.597.33 1.008.362 1.439.937 3.524 1.126 4.086.105.311.316 1.048.467 1.637.625 2.425.793 3.032 1.257 4.536.268.866.523 1.794.567 2.063.045.268.132.58.193.693.061.112.205.601.32 1.086.114.485.244.939.288 1.008.125.196.385 1.225.397 1.575.006.173.1.542.206.819.334.862.542 1.703.468 1.895-.061.159-1.214.184-8.42.184h-8.35zm-6.42-21.693c.151-.04.307-.157.346-.26.04-.102-.133-.989-.383-1.971-.25-.982-.527-2.098-.615-2.479a25.96 25.96 0 00-.412-1.512 96.001 96.001 0 01-1.03-3.527 14.39 14.39 0 00-.294-1.008c-.166-.405-.342-1.215-.342-1.581 0-.212-.053-.438-.115-.504-.063-.066-.267-.744-.454-1.506-.303-1.235-.678-2.009-.877-1.81-.067.068-.194.596-.451 1.873-.077.381-.31 1.236-.517 1.899-.208.663-.426 1.57-.485 2.015a11.802 11.802 0 01-.289 1.44c-.1.347-.256.97-.346 1.386-.09.416-.208.817-.264.89-.055.074-.135.471-.178.883-.042.41-.123.86-.18 1-.338.826-.633 1.842-.633 2.183 0 .45-.225 1.485-.395 1.819-.153.3.066.69.427.759.438.084 7.177.095 7.487.011zm14.277-8.993a.126.126 0 00-.126-.126.126.126 0 00-.126.126.126.126 0 00.252 0zm14.148 30.388c-.116-.074-.16-4.465-.19-18.927-.022-10.357-.082-18.918-.135-19.023-.093-.187-2.486-1.4-3.619-1.835-.311-.12-.637-.273-.724-.34-.229-.176-.193-.66.09-1.215.136-.266.309-.874.384-1.35.225-1.418.715-3.531 1.077-4.643.09-.277.198-.76.24-1.071a9.97 9.97 0 01.314-1.323c.13-.416.307-1.167.393-1.67.086-.502.204-.913.262-.913.059 0 .106-.147.106-.327 0-.59.387-1.68.667-1.876.237-.167 1.771-.19 12.306-.181 10.857.008 12.893.05 14.366.305.714.123 1.565.347 1.7.449.07.052.552.222 1.071.378.52.156.974.325 1.008.375.035.05.318.179.63.285.312.106.737.283.945.392.208.11.44.2.517.2.076 0 .36.16.63.355.27.195.831.54 1.247.767.416.226.87.513 1.008.637s.336.251.44.283c.285.087 2.339 2.009 2.531 2.368.093.173.38.52.64.771.259.252.508.607.554.791.046.184.276.515.51.737.235.22.427.453.427.516 0 .062.28.687.62 1.39 1.208 2.483 1.559 3.763 1.792 6.548.136 1.635-.022 4.622-.262 4.93-.055.07-.132.452-.17.849-.08.806-.13.977-1 3.373-.339.936-.698 1.764-.798 1.841-.1.077-.182.221-.182.32 0 .46-2.254 4.307-2.646 4.517-.123.066-.375.376-.558.69-.216.368-.421.57-.58.57-.17 0-.247.085-.247.27 0 .164-.402.711-1.008 1.375-.748.818-1.008 1.192-1.008 1.448 0 .35.481 1.481.88 2.068.705 1.038 1.136 1.717 1.136 1.79 0 .08 1.382 2.593 1.98 3.601.153.259.531.953.84 1.542.308.589.707 1.266.886 1.505.179.238.326.522.327.63.001.107.172.445.378.75.207.305.376.627.376.715 0 .089.073.236.163.328.23.234 1.097 1.685 1.097 1.835 0 .069.255.505.567.97.611.912.677 1.135.367 1.253-.11.042-4.417.077-9.573.077h-9.374l-.192-.41a11.318 11.318 0 00-.377-.724 17.02 17.02 0 01-.572-1.197 92.386 92.386 0 00-.681-1.512l-.939-2.015c-.355-.763-.645-1.505-.644-1.651 0-.146-.17-.443-.377-.66-.208-.218-.378-.477-.378-.576 0-.426-1.244-3.154-1.528-3.352-.052-.036-.206-.326-.342-.643-.206-.48-.32-.593-.67-.663-.34-.07-.463-.034-.642.184-.203.25-.22.758-.22 6.593 0 4.75-.038 6.361-.151 6.475-.115.114-2.026.15-7.843.149-4.23-.001-7.759-.045-7.842-.098zM319.43 26.02c.717-.329 1.52-1.157 2-2.06.373-.703.521-2.384.289-3.277-.27-1.035-.642-1.687-1.332-2.333-.917-.858-1.962-1.097-4.94-1.125-1.942-.019-2.275.007-2.455.187-.186.186-.209.669-.209 4.435 0 3.727.024 4.243.201 4.373.142.103 1.033.142 2.984.13 2.671-.019 2.81-.032 3.462-.33zM295.083 5.392a.126.126 0 00-.126-.126.126.126 0 00-.126.126.126.126 0 00.252 0zm55.685 50.394c-.095-.178-.131-6.078-.121-19.875.008-10.792-.025-19.72-.072-19.842-.096-.246-.32-.286-.514-.092-.083.082-1.513.116-4.025.094l-3.898-.033-.037-.942c-.024-.603.026-1.103.14-1.386.22-.546.54-1.917.719-3.076.073-.478.18-.96.237-1.071.057-.111.141-.54.188-.95.046-.413.224-1.302.395-1.977.171-.674.311-1.36.311-1.523 0-.163.088-.606.195-.985.107-.379.279-1.053.381-1.5.102-.445.33-.998.504-1.228l.319-.417h16.682c19.2 0 17.069-.179 16.745 1.402-.104.51-.273 1.107-.374 1.325-.101.219-.184.692-.184 1.052 0 .36-.107 1.031-.237 1.493-.13.46-.3 1.121-.375 1.468a750.065 750.065 0 00-.901 4.22c-.065.312-.18.822-.256 1.134a27.058 27.058 0 00-.307 1.62c-.093.58-.233 1.118-.313 1.197-.1.101-1.44.153-4.505.175-3.855.027-4.387.055-4.591.24-.222.2-.232.997-.263 19.937l-.032 19.729-7.837.032c-7.741.032-7.84.03-7.974-.22zm-249.134.002c-.987-.079-2.456-.468-2.456-.65 0-.051-.27-.13-.599-.177a5.258 5.258 0 01-1.228-.377c-.347-.162-.914-.42-1.26-.575-.346-.154-.79-.47-.984-.7-.3-.355-.432-.416-.856-.399-.42.016-.577-.055-.973-.442-.26-.254-.537-.462-.614-.462-.078 0-.591-.454-1.141-1.008s-1.054-1.008-1.121-1.008c-.067 0-.301-.212-.52-.472-1.485-1.756-2.115-2.767-2-3.21.037-.136.033-.215-.008-.174-.089.088-.791-.624-.791-.802 0-.069-.17-.402-.378-.74-.208-.337-.378-.686-.378-.773 0-.088-.148-.507-.329-.931l-.436-1.024c-.254-.598-.496-1.706-.565-2.581-.04-.52-.15-1.115-.245-1.323a3.827 3.827 0 01-.24-.883c-.039-.277-.07-4.898-.071-10.268-.002-11.16.083-10.327-1.11-10.742a10.69 10.69 0 01-1.418-.662c-.426-.241-.823-.438-.88-.438-.248 0-.224-.516.074-1.638.174-.658.422-1.622.551-2.142.129-.52.325-1.193.436-1.496.11-.303.202-.718.202-.922 0-.204.164-.778.365-1.276.201-.497.4-1.103.443-1.345.043-.243.212-.81.376-1.26.165-.45.366-1.074.449-1.386.579-2.186.769-2.819.89-2.965C85.037.274 98.57.27 99.199.532c.574.24.656.466.42 1.16-.165.487-.19 2.695-.185 17.153.004 16.137.01 16.608.247 17.098.134.277.246.62.248.761.007.403 1.12 2.579 1.362 2.664.12.042.387.228.595.414.208.186.86.556 1.449.823.93.42 1.222.492 2.218.54 1.319.063 2.393-.181 2.984-.678.198-.167.42-.304.491-.304.163 0 1.527-.954 2.01-1.407.265-.248.36-.455.36-.784 0-.246.112-.647.25-.89.517-.923.495.297.562-31.375.005-2.218.054-4.202.11-4.41.055-.208.127-.505.159-.661l.057-.284h6.845c4.645 0 6.973.045 7.242.139l.397.138v18.416c0 17.19-.015 18.437-.216 18.725-.148.211-.21.528-.199 1.004.01.383-.064.878-.165 1.1-.1.221-.244.732-.32 1.134a7.034 7.034 0 01-.43 1.36l-.494 1.07c-.11.243-.337.697-.504 1.009-.166.312-.397.84-.512 1.174-.15.434-.455.85-1.071 1.46-.474.469-.897.992-.94 1.163-.044.177-.262.41-.504.54-.242.131-.482.387-.553.592-.07.199-.257.421-.418.494-.16.073-.386.298-.501.5-.116.2-.408.448-.65.549-.242.1-.503.302-.58.446-.078.145-.215.263-.306.263-.09 0-.27.116-.398.258-.27.297-1.641 1.254-1.798 1.254-.058 0-.239.141-.402.315-.162.173-.43.315-.595.315-.164 0-.533.113-.82.252-.287.138-.584.252-.66.252-.077 0-.36.112-.629.25a5.04 5.04 0 01-1.138.369 7.623 7.623 0 00-1.395.451c-.562.25-1.09.36-2.133.447-1.514.127-5.455.125-7.055-.004zm95.106-.349c-.427-.29-.43-.448-.427-18.708.003-12.812-.037-18.175-.135-18.457-.103-.294-.258-.435-.601-.546-.254-.082-.559-.25-.677-.373s-.43-.294-.692-.38a8.11 8.11 0 01-1.033-.454c-.305-.162-.63-.295-.72-.295-.174 0-.462-.427-.358-.53.034-.034.148-.396.254-.805.107-.409.276-.869.376-1.022.1-.154.183-.426.183-.606 0-.423.255-1.466.405-1.658.064-.083.223-.565.353-1.071.13-.507.389-1.404.574-1.993.186-.589.439-1.442.562-1.896.123-.455.366-1.163.54-1.575.173-.412.354-.976.402-1.253.048-.277.232-.976.408-1.553.265-.872.375-1.07.648-1.175.447-.17 18.454-.054 19.476.125.414.073.773.192.798.265.024.074.365.136.758.139.392.003.94.093 1.218.2.277.106.986.33 1.574.497 1.35.384 2.671.82 2.835.938.07.05.438.19.819.311.381.122.806.317.945.434.138.118.507.32.819.452.312.13.91.443 1.329.693.419.25.844.486.945.525.443.17 2.303 1.67 3.458 2.787.693.67 1.288 1.223 1.323 1.227.035.004.346.38.693.837.346.455.814 1.033 1.039 1.284.224.25.409.518.41.595 0 .078.11.28.244.452.274.347 1.625 2.854 1.855 3.44.541 1.379.864 2.283 1.171 3.275.193.624.417 1.3.499 1.504.081.203.179.827.217 1.386.038.558.162 1.214.275 1.457.176.375.207.966.209 3.974.002 3.154-.022 3.569-.218 3.87-.151.229-.221.587-.222 1.127 0 .461-.15 1.372-.36 2.178-.198.762-.395 1.57-.437 1.795a5.31 5.31 0 01-.333.97c-.14.308-.255.638-.255.733 0 .309-.398 1.353-.515 1.353-.063 0-.115.13-.115.291 0 .324-1.544 3.478-1.8 3.677-.09.07-.321.433-.516.807-.508.981-2.139 3.258-2.349 3.28-.037.004-.646.57-1.355 1.26-1.438 1.397-3.264 2.779-3.672 2.779-.148 0-.3.083-.34.185-.038.101-.447.394-.909.65-.46.256-.973.57-1.139.697-.165.128-.586.317-.935.42-.349.104-.752.264-.896.355-.144.092-.63.296-1.08.454-.451.158-.941.345-1.09.415-.148.07-.602.156-1.007.191-1.223.106-23.279.168-23.428.066zm19.855-16.791c2.235-.75 3.746-2.104 4.7-4.212.124-.276.278-.534.34-.572.063-.04.229-.56.368-1.156.618-2.65.64-4.782.078-7.474-.389-1.864-.5-2.246-.752-2.606-.11-.157-.199-.385-.199-.508s-.088-.323-.195-.445c-.108-.121-.417-.564-.688-.985-.573-.89-1.032-1.388-2.077-2.261-1.437-1.2-2.127-1.442-4.11-1.445-1.105 0-1.502.042-1.612.175-.109.13-.153 2.95-.17 10.847-.023 10.496-.02 10.673.225 10.86.379.287 3.002.147 4.092-.218zM52.671 54.935c-.087-.45-.11-2.905-.149-16.472-.024-8.523-.002-16.827.05-18.453.118-3.676.262-3.365-2.087-4.514-.277-.136-.643-.397-.813-.58-.307-.333-.308-.338-.156-1.54.084-.662.237-1.325.34-1.473.103-.147.188-.525.19-.838.001-.66.258-1.708.545-2.227.11-.198.29-1.01.402-1.806.11-.795.252-1.506.313-1.58.061-.074.149-.528.195-1.01.046-.483.191-1.125.321-1.428.13-.304.238-.814.24-1.134.002-.816.22-1.176.818-1.357.361-.109 2.346-.154 7.066-.16 6.508-.01 7.355.037 7.36.411l.03 18.813.03 18.668.266.356.266.356 5.214.068c2.869.037 5.23.08 5.247.094.124.105-.02 1.016-.284 1.79-.184.541-.316 1.219-.318 1.629-.002.428-.128 1.046-.323 1.584-.175.485-.403 1.25-.505 1.7l-.44 1.954a67.9 67.9 0 01-.445 1.867 23.588 23.588 0 00-.359 1.763c-.175 1.074-.39 1.986-.572 2.417a4.093 4.093 0 00-.184.724l-.078.473h-11.08c-6.095 0-11.09-.043-11.1-.095zm93.07-.505c-6.437-.023-9.108-.073-9.229-.173-.264-.22-.25-35.703.015-36.338.365-.873-.123-1.237-2.452-1.83-1.503-.384-1.672-.476-1.583-.859.042-.18.127-.683.188-1.118.062-.436.167-.861.234-.945.067-.084.305-.947.529-1.917.223-.97.514-2.164.645-2.654.132-.49.24-1.028.24-1.196 0-.17.147-.704.325-1.19.362-.982.487-1.44.671-2.456.355-1.96.451-2.33.663-2.542.22-.22.944-.23 17.521-.228 10.355.001 17.366.049 17.476.119.156.099.147.156-.063.389-.188.207-.252.474-.267 1.11-.03 1.313-.259 2.793-.466 3.022-.178.197-.585 2.453-.586 3.249 0 .199-.116.552-.258.785-.18.296-.235.534-.179.787.083.378-.136 1.246-.314 1.246-.056 0-.134.383-.173.85-.133 1.569-.24 2.304-.345 2.369-.057.035-3.48.062-7.606.059-8.447-.006-8.26-.025-8.5.838-.267.958-.077 5.263.248 5.655.128.155 1.31.182 7.897.182 6.56 0 7.86.03 8.493.193.41.107.796.164.855.127.238-.147.219.312-.058 1.406-.16.632-.352 1.265-.428 1.406-.076.142-.171.615-.212 1.051a7.852 7.852 0 01-.314 1.494c-.131.386-.239.962-.239 1.281 0 .333-.157.998-.37 1.566a19.806 19.806 0 00-.517 1.555c-.08.311-.204.637-.275.724-.1.123-1.749.157-7.465.157-7.699 0-8.048.024-8.25.556-.058.15-.057.895.002 1.654.059.76.11 1.859.113 2.443.008 1.35.182 1.857.693 2.013.64.197 3.352.274 9.896.284 3.837.005 6.358-.039 6.551-.116a.904.904 0 01.617-.012c.295.11.3.139.224 1.15-.093 1.217-.157 1.58-.393 2.208-.096.256-.21.721-.254 1.033-.044.312-.17.822-.279 1.134-.109.312-.244 1.049-.3 1.638a7.678 7.678 0 01-.48 2.033 8.78 8.78 0 00-.506 2.112c-.07.633-.157 1.197-.192 1.253-.035.057-.156.552-.27 1.1-.113.549-.25 1.077-.304 1.174-.11.197-4.106.23-20.969.17zM4.123 54.29l-.378-.082-.063-18.77c-.035-10.324-.108-18.86-.163-18.97-.094-.186-.273-.299-1.465-.917-.681-.353-1.526-1.081-1.658-1.43-.116-.305-.013-.841.567-2.972.11-.401.199-.868.199-1.036 0-.5.963-3.461 1.126-3.461.049 0 .158-.525.243-1.166.086-.64.23-1.28.322-1.42.092-.14.21-.508.261-.819.052-.31.135-.592.184-.627.049-.034.17-.543.27-1.13.182-1.063.183-1.066.61-1.153.782-.16 28.007-.044 28.315.12.15.081.46.147.688.147.453 0 1.493.355 1.493.51 0 .053.297.136.661.185.364.048.838.195 1.054.326.216.132.483.24.592.24.11 0 .352.141.54.314.186.173.387.315.445.315.167 0 .814.586 2.353 2.132 1.258 1.265 1.492 1.568 1.925 2.506.27.587.493 1.135.493 1.218 0 .083.18.512.4.953.31.619.422 1.046.495 1.878.16 1.821.129 3.81-.07 4.487-.1.342-.177.8-.17 1.02.007.22-.099.588-.235.819-.135.231-.346.732-.468 1.113-.122.381-.352.893-.511 1.137-.159.244-.417.696-.575 1.004-.331.65-1.367 1.89-1.578 1.89-.079 0-.28.213-.448.473-.168.26-.423.524-.567.588a.853.853 0 00-.378.378c-.064.144-.297.347-.518.451-.222.104-.471.315-.555.469-.083.153-.37.423-.637.6-.838.555-.583 1.255.619 1.704.398.149.808.344.912.434.104.09.36.252.567.359.208.107.8.596 1.318 1.086.516.49.975.892 1.02.892.044 0 .17.227.279.504.109.277.279.504.378.504.189 0 1.478 1.405 1.478 1.61 0 .066.104.255.232.42.128.165.268.483.311.707.044.223.224.625.401.893.211.32.392.874.523 1.61.11.617.307 1.328.437 1.58.352.68.347 3.393-.008 3.974-.134.22-.283.746-.33 1.168-.049.422-.137.798-.197.835-.06.037-.11.199-.11.358 0 .16-.105.426-.233.591-.129.166-.307.527-.398.803-.445 1.365-1.405 2.771-2.156 3.16-.2.103-.362.29-.362.416 0 .271-.38.646-.655.646-.106 0-.344.227-.527.504-.183.277-.384.504-.445.504s-.307.184-.547.41c-.776.73-3.431 2.245-4.59 2.618-.264.085-.56.218-.657.296-.194.155-29.358.247-30.06.094zM25.54 40.98c.277-.1.61-.183.738-.184.457-.004 2.173-1.602 2.301-2.143.041-.174.154-.558.25-.855.61-1.878-.698-4.635-2.628-5.543-.318-.15-.614-.33-.659-.401-.051-.084-1.117-.13-2.961-.13-2.452 0-2.91.029-3.08.198-.172.172-.197.758-.197 4.52 0 4.54-.005 4.499.567 4.64.138.033 1.357.065 2.708.07 1.841.007 2.583-.036 2.96-.172zm-.07-18.633c.081-.099.392-.263.69-.365.703-.239 1.439-1.032 2.037-2.195.42-.817.47-1.01.46-1.827-.01-.97-.053-1.293-.195-1.435-.048-.048-.087-.19-.087-.315 0-.26-.71-1.35-1.04-1.596-.122-.091-.307-.33-.41-.531-.131-.253-.34-.407-.677-.497-.267-.072-.621-.235-.786-.363-.271-.21-.562-.23-3.03-.22-2.566.011-2.753.028-3.087.276-.65.481-.668.603-.668 4.397 0 1.94.03 3.642.069 3.782.037.14.273.395.524.567.436.3.557.315 2.922.38 1.356.037 2.615.08 2.797.094.182.015.398-.053.48-.152z" fill="#5ab063"/><path d="M274.821 55.973c-.137-.174-.319-.613-.404-.976-.085-.363-.228-.804-.316-.98-.09-.175-.196-.639-.239-1.03-.042-.39-.184-.956-.317-1.255-.132-.3-.307-.941-.39-1.426-.17-1-.279-1.255-.719-1.701l-.31-.315-7.482-.036c-5.11-.025-7.56.006-7.731.097-.225.12-.885 1.344-.885 1.64 0 .066-.11.301-.245.523-.135.222-.215.453-.178.514.078.125-.467.976-.626.977-.058 0-.067.172-.021.382.062.285.004.517-.236.924-.175.3-.292.653-.26.785.032.133-.109.53-.314.885-.292.504-.46.662-.774.725-.583.116-15.21.098-15.282-.019-.072-.116.497-2.383.678-2.703a1.33 1.33 0 00.124-.548c0-.182.139-.607.309-.945a4.35 4.35 0 00.37-1.33c.035-.411.161-.856.295-1.042.13-.179.307-.767.395-1.306.088-.54.265-1.22.393-1.512a5.35 5.35 0 00.322-1.16c.05-.347.132-.687.183-.757.096-.128.3-.993.443-1.874.043-.268.126-.58.184-.692.058-.113.175-.46.26-.772.085-.312.226-.737.313-.945.087-.208.201-.52.253-.693a2.36 2.36 0 01.266-.564c.094-.136.172-.521.172-.855 0-.348.102-.807.24-1.077a4.15 4.15 0 00.326-1.098c.047-.344.106-.759.131-.92.025-.162.162-.49.304-.732.142-.24.258-.56.258-.708 0-.148.137-.726.304-1.284.167-.558.341-1.213.387-1.455.047-.243.17-.63.274-.86.105-.23.252-.789.326-1.24.077-.461.21-.85.305-.886.092-.036.17-.158.17-.272.001-.113.084-.433.184-.71.1-.278.183-.731.186-1.008.003-.278.085-.76.183-1.071.099-.312.242-.822.32-1.134.185-.748.18-.732.49-1.386.17-.36.269-.82.271-1.26.003-.476.082-.811.254-1.07.178-.27.25-.592.251-1.12.001-.693-.033-.78-.508-1.295-.28-.304-.476-.607-.435-.674.041-.067 0-.092-.095-.056-.202.077-.72-.482-.735-.794-.006-.14-.033-.16-.075-.056-.045.112-.185.038-.445-.234-.366-.383-.377-.43-.318-1.308.034-.5.137-1.048.23-1.215.092-.167.153-.353.136-.414-.018-.06.058-.075.168-.033.168.064.197-.021.178-.52-.013-.354.087-.88.245-1.295.147-.384.279-.866.293-1.07.013-.206.212-.825.441-1.377.27-.649.417-1.213.417-1.594 0-.37.138-.912.372-1.462.204-.48.427-1.218.495-1.638.067-.42.192-.898.277-1.061.085-.163.189-.37.23-.46.114-.251 26.944-.234 27.195.017.179.179.194.247.344 1.532.049.418.198.913.334 1.106.135.192.27.56.3.819.106.914.198 1.288.317 1.288.066 0 .12.07.12.154 0 .085.112.524.248.976.137.453.417 1.43.624 2.174.207.743.43 1.452.496 1.575.065.123.158.535.206.916.048.381.19.948.317 1.26.127.312.264.811.306 1.11.042.298.185.865.317 1.26.132.394.27.947.305 1.228.036.28.21.799.387 1.152.177.352.322.787.322.965 0 .179.142.759.315 1.29.173.53.315 1.073.315 1.206 0 .134.09.417.2.63.297.574.586 1.605.62 2.212.017.294.134.69.262.882.131.198.266.703.311 1.167.044.45.207 1.098.363 1.438.156.34.336.981.398 1.425.063.443.2.97.303 1.17.104.2.19.551.194.78.003.229.087.643.187.92s.182.605.183.728c.001.124.08.255.176.291.099.038.21.346.26.71.046.354.172.847.28 1.095.28.65.774 2.532 1.02 3.884.13.715.272 1.166.366 1.166.086 0 .19.26.24.598.048.33.189.825.312 1.103.123.277.291.815.373 1.196.082.381.228.968.325 1.303.096.335.244.987.327 1.449.083.461.189.867.234.902.195.147.49 1.044.81 2.457.187.831.425 1.767.529 2.078.405 1.222.546 1.843.546 2.422 0 .33.055.602.122.602.192 0 .508.702.508 1.128v.384H275.07zm-6.037-21.434c.108-.238.104-.488-.017-1.03a17.434 17.434 0 01-.23-1.254c-.038-.296-.12-.568-.18-.605-.06-.038-.109-.192-.11-.344 0-.152-.084-.438-.188-.636-.103-.198-.241-.697-.308-1.109-.066-.412-.208-.925-.315-1.14a2.314 2.314 0 01-.195-.868c0-.262-.05-.507-.11-.545-.103-.063-.29-.62-1.039-3.088-.156-.515-.27-1.152-.255-1.416.025-.427-.134-.936-.348-1.112-.043-.034-.184-.488-.314-1.008-.452-1.806-.564-2.09-.889-2.264-.431-.231-.638-.028-.667.657a3.508 3.508 0 01-.203.984c-.098.239-.219.746-.267 1.127a5.58 5.58 0 01-.401 1.365c-.188.405-.358 1.082-.427 1.701-.117 1.05-.246 1.665-.466 2.226-.068.173-.165.598-.215.944-.05.347-.147.697-.215.779-.067.082-.2.633-.296 1.224-.1.616-.28 1.226-.42 1.427-.174.248-.267.649-.317 1.374-.039.563-.164 1.258-.278 1.543-.276.69-.167 1.076.353 1.246.255.083 1.886.135 4.293.135h3.881l.143-.313zm-9.102-.415c0-.065-.057-.154-.126-.196-.07-.043-.126.01-.126.118s.056.197.126.197c.069 0 .126-.054.126-.119zm22.803-8.574a.126.126 0 00-.126-.126.126.126 0 00-.126.126.126.126 0 00.252 0zm-180.85 30.239c-.988-.08-2.457-.469-2.457-.651 0-.051-.27-.13-.599-.177a5.257 5.257 0 01-1.228-.377c-.347-.162-.914-.42-1.26-.575-.346-.154-.79-.47-.984-.7-.3-.354-.432-.415-.856-.399-.42.017-.577-.055-.973-.442-.26-.254-.537-.462-.614-.462-.078 0-.591-.453-1.141-1.008-.55-.554-1.054-1.007-1.121-1.007-.067 0-.301-.213-.52-.473-1.485-1.756-2.115-2.767-2-3.21.037-.136.033-.215-.008-.174-.089.089-.791-.623-.791-.802 0-.069-.17-.401-.378-.74-.208-.337-.378-.685-.378-.773 0-.087-.148-.506-.329-.93l-.436-1.024c-.254-.598-.496-1.706-.565-2.582-.04-.52-.15-1.115-.245-1.323a3.827 3.827 0 01-.24-.883c-.039-.277-.07-4.897-.071-10.268-.002-11.16.083-10.327-1.11-10.742-.353-.123-.99-.42-1.418-.662-.426-.24-.823-.438-.88-.438-.248 0-.224-.516.074-1.638.174-.658.422-1.622.551-2.142.129-.52.325-1.193.436-1.496.11-.303.202-.718.202-.922 0-.204.164-.778.365-1.275.201-.498.4-1.103.443-1.346.043-.242.212-.81.376-1.26.165-.45.366-1.074.449-1.386.579-2.185.769-2.819.89-2.964C85.037.274 98.57.27 99.199.533c.574.24.656.465.42 1.16-.165.486-.19 2.695-.185 17.152.004 16.137.01 16.608.247 17.098.134.277.246.62.248.762.007.402 1.12 2.578 1.362 2.663.12.042.387.228.595.414.208.186.86.556 1.449.823.93.421 1.222.492 2.218.54 1.319.063 2.393-.18 2.984-.678.198-.167.42-.303.491-.303.163 0 1.527-.955 2.01-1.408.265-.248.36-.455.36-.784 0-.245.112-.646.25-.89.517-.923.495.297.562-31.375.005-2.217.054-4.202.11-4.41.055-.207.127-.505.159-.66l.057-.284h6.845c4.645 0 6.973.044 7.242.138l.397.138v18.417c0 17.19-.015 18.436-.216 18.724-.148.211-.21.528-.199 1.005.01.382-.064.877-.165 1.099-.1.222-.244.732-.32 1.134a7.034 7.034 0 01-.43 1.36l-.494 1.071c-.11.243-.337.696-.504 1.008-.166.312-.397.84-.512 1.174-.15.434-.455.85-1.071 1.46-.474.469-.897.993-.94 1.163-.044.177-.262.41-.504.541-.242.13-.482.387-.553.591-.07.2-.257.421-.418.495-.16.073-.386.297-.501.498-.116.202-.408.45-.65.55-.242.101-.503.302-.58.447-.078.144-.215.262-.306.262-.09 0-.27.116-.398.258-.27.297-1.641 1.254-1.798 1.254-.058 0-.239.142-.402.315-.162.173-.43.315-.595.315-.164 0-.533.113-.82.252-.287.138-.584.252-.66.252-.077 0-.36.112-.629.25a5.04 5.04 0 01-1.138.369 7.623 7.623 0 00-1.395.451c-.562.25-1.09.36-2.133.448-1.514.126-5.456.124-7.055-.004zm195.69-.095l-.591-.047-.039-18.734c-.029-13.85-.077-18.819-.185-19.06-.08-.18-.335-.403-.566-.495a4.73 4.73 0 01-.735-.38c-.173-.116-.654-.337-1.07-.49-.414-.154-.811-.328-.881-.385-.07-.058-.34-.145-.599-.194-.26-.048-.44-.138-.402-.2.038-.062.01-.112-.064-.112-.22 0-.146-.544.119-.882.135-.173.256-.258.268-.189.013.07.066-.243.117-.693.222-1.918.692-4.181 1.056-5.076.09-.222.204-.766.251-1.208.053-.488.185-.935.336-1.14.17-.228.287-.68.365-1.401.123-1.131.285-1.836.562-2.45.093-.208.232-.537.308-.732l.139-.353 12.818.039c11.928.035 12.847.053 13.222.258.234.128.671.22 1.04.22.423 0 .839.102 1.235.303.329.166.853.374 1.164.462.312.088.744.263.96.39.216.127.5.233.63.234.13.002.379.114.552.25.173.135.446.247.606.249.164.002.452.18.661.408.204.224.37.373.37.333 0-.04.348.104.772.32.424.217.762.44.751.496-.01.056.28.253.647.439.366.185.722.465.79.622.07.157.19.26.27.23.176-.068.74.547.74.808 0 .104.085.19.189.192.318.006.495.18.602.595a1 1 0 00.472.6c.253.14.438.4.59.826.122.342.39.763.597.936.473.396 1.703 2.829 1.667 3.297-.016.216.09.466.29.682.174.188.325.461.335.607.05.704.201 1.51.369 1.966.115.312.285 3 .25 3.968-.01.277-.072.523-.138.546-.067.023-.121.38-.121.794 0 .413-.083.912-.185 1.108-.101.196-.183.661-.182 1.033a4.37 4.37 0 01-.263 1.37 53.243 53.243 0 00-.606 1.7c-.186.555-.382 1.027-.433 1.05-.052.023-.095.142-.095.264 0 .122-.113.325-.252.45-.139.126-.252.286-.252.358 0 .071-.113.374-.252.673-.138.3-.375.813-.525 1.142a7.67 7.67 0 01-.535.976 9.667 9.667 0 00-.497.82c-.279.524-.579.882-.741.882-.16 0-.59.527-.595.727-.002.09-.189.362-.414.608l-.796.868c-.213.232-.548.64-.745.905a7.676 7.676 0 01-.716.821c-.196.187-.357.444-.357.572 0 .337 1.292 2.842 1.684 3.264.182.197.332.447.332.555 0 .109.141.39.315.624.173.235.315.53.315.655s.055.227.122.227c.126 0 .76 1.24.76 1.485 0 .076.17.324.378.552.208.228.414.527.458.663.043.137.156.327.25.422.096.094.173.25.173.346 0 .096.142.383.315.639.173.255.315.534.315.62 0 .086.088.228.195.317.17.141.813 1.395.813 1.586 0 .039.113.215.252.391.139.176.252.422.252.546 0 .124.142.338.315.474.173.136.315.287.315.336 0 .049.11.242.243.43.134.189.284.51.332.713.048.203.184.483.302.622.346.407.778 1.222.692 1.307-.043.044-4.212.095-9.264.116l-9.186.037-.378-.597c-.209-.329-.379-.697-.379-.819s-.142-.43-.315-.686c-.181-.267-.315-.644-.315-.887 0-.233-.057-.424-.126-.424-.07 0-.126-.079-.126-.175 0-.097-.085-.208-.189-.248-.104-.04-.189-.151-.189-.247s-.141-.44-.315-.766c-.173-.326-.315-.675-.315-.775 0-.1-.048-.182-.107-.182-.094 0-.3-.425-.659-1.353-.06-.155-.079-.36-.042-.456.04-.103-.036-.2-.184-.24-.167-.043-.299-.247-.397-.615-.08-.302-.23-.642-.33-.756-.103-.115-.219-.524-.258-.91-.04-.387-.119-.675-.175-.64-.055.034-.257-.208-.447-.54a8.814 8.814 0 00-.637-.957c-.16-.196-.291-.464-.291-.595 0-.157-.183-.328-.528-.495-.656-.316-.627-.318-1.029.054l-.333.31v6.352c0 5.09-.033 6.38-.165 6.49-.116.096-2.272.132-7.15.12-3.841-.01-7.25-.04-7.576-.066zm16.53-29.01c0-.196 3.996-.169 4.061.027.063.188.983-.074 1.502-.43.184-.125.41-.23.504-.232.221-.005.61-.303.61-.467 0-.071.128-.214.283-.318.156-.104.396-.408.533-.676.138-.268.345-.629.46-.802.305-.457.433-2.64.186-3.188-.43-.955-.706-1.64-.706-1.753 0-.243-.446-.672-.654-.63-.135.027-.286-.097-.412-.34-.196-.38-.346-.45-1.187-.566-.235-.032-.487-.118-.56-.192-.086-.085-.955-.134-2.367-.134-1.464 0-2.248-.047-2.277-.134-.063-.19-1.18.308-1.28.573-.045.116-.082 2.125-.082 4.465 0 4.7-.04 4.47.819 4.77.495.174.567.177.567.026zM295.083 5.391a.126.126 0 00-.126-.126.126.126 0 00-.126.126.126.126 0 00.252 0zm56.725 50.3l-.914-.043V36.782c0-13.803.038-18.905.142-19.009.195-.195.02-1.744-.224-1.988-.214-.215-.621-.249-.737-.062-.049.08-1.498.126-3.931.126h-3.854l.082-.977c.05-.599.149-1.026.255-1.104.1-.075.206-.488.253-.987.043-.472.135-.963.204-1.091.069-.129.125-.495.125-.813 0-.319.085-.783.19-1.032a3.07 3.07 0 00.191-.972c.003-.55.18-1.484.362-1.906.274-.64.508-1.692.497-2.234-.007-.357.07-.722.193-.91.113-.171.205-.509.205-.75 0-.24.057-.473.126-.516.07-.042.128-.202.13-.353.002-.152.112-.406.244-.564l.24-.287 16.597.005c9.13.003 16.61.02 16.625.035.052.058-.302 1.547-.488 2.057-.104.284-.23.964-.28 1.512-.05.548-.146 1.103-.214 1.233-.068.13-.137.356-.154.504a4.858 4.858 0 01-.168.708c-.076.243-.226.895-.334 1.45a93.903 93.903 0 01-.331 1.637c-.075.346-.193.994-.262 1.44-.069.445-.215 1.04-.324 1.322-.11.283-.233.939-.275 1.458l-.077.945-.756.092c-.416.05-2.425.085-4.465.078l-3.71-.012-.292.34-.292.34.006 19.55.006 19.55-.351.079c-.359.081-12.582.095-14.241.016zm-155.052-.702c-.173-.264-.189-2.184-.142-17.735.029-9.59.067-17.608.084-17.816.03-.345-.1-.815-.418-1.527-.066-.148-.34-.34-.613-.43-.519-.171-.807-.417-.698-.594.036-.058-.114-.119-.332-.135-.219-.017-.753-.199-1.189-.404-.435-.206-.846-.374-.913-.374-.226 0 .173-1.715.479-2.058.132-.148.234-.57.283-1.177.044-.533.145-.988.232-1.042.086-.053.204-.288.264-.524l.346-1.372c.13-.52.29-.936.355-.924.065.011.127-.224.138-.522.012-.3.111-.717.22-.929.11-.211.282-.737.382-1.167.1-.43.23-.816.29-.856.159-.11.536-1.37.536-1.792 0-.2.119-.618.265-.929.146-.31.273-.706.283-.88.014-.246.102-.332.396-.386.208-.039 4.732-.053 10.052-.032 7.674.03 9.695.072 9.774.2.054.088.605.238 1.223.334.619.096 1.351.285 1.629.42.277.135.872.315 1.322.4.45.084 1.007.262 1.236.395.23.133.528.242.663.242.136 0 .345.052.465.115.12.063.503.213.85.332.346.12.742.317.88.439.14.122.65.376 1.135.564.779.303 1.818.957 1.93 1.216.021.05.123.06.226.02.102-.04.283.023.4.138.119.115.485.413.814.662.329.25.598.531.598.626 0 .094.091.172.203.172.328 0 3.703 3.45 3.703 3.787 0 .157.038.248.085.201.126-.126.67.43.67.685 0 .12-.07.248-.157.283-.092.037-.063.067.07.073.124.005.363.166.532.357.423.479 1.95 3.59 1.95 3.974 0 .173.077.344.172.38.096.037.21.255.253.486.044.23.162.577.262.77.1.192.238.645.305 1.007.067.362.244.942.393 1.288.16.37.297 1.015.334 1.566.034.515.17 1.218.3 1.562.214.562.235.954.21 3.914-.025 2.754-.063 3.35-.233 3.667-.117.216-.231.81-.267 1.386-.034.554-.118 1.15-.186 1.322-.068.174-.163.585-.211.914-.049.329-.141.598-.207.598-.065 0-.12.156-.122.347-.002.19-.118.658-.257 1.04-.14.38-.337 1.024-.439 1.43-.102.406-.298.882-.435 1.057-.138.175-.25.425-.25.555 0 .13-.142.462-.316.737-.173.274-.315.633-.315.798 0 .165-.141.51-.314.764-.174.256-.315.508-.315.561 0 .054-.17.26-.378.46-.208.198-.378.468-.378.598 0 .338-.231.724-.434.724-.102 0-.15.09-.117.22.031.124-.085.372-.264.562-.175.188-.32.422-.32.521 0 .099-.14.272-.312.385a1.734 1.734 0 00-.493.554 1.42 1.42 0 01-.492.517 1.324 1.324 0 00-.466.454c-.084.158-.291.36-.46.45-.167.09-.42.352-.563.581-.142.23-.397.453-.567.496-.17.042-.393.24-.496.44-.104.2-.236.363-.295.363-.058 0-.525.27-1.036.6-.511.329-1.085.678-1.276.777-.19.098-.346.221-.346.275 0 .053-.383.283-.85.512-.468.228-.95.54-1.073.69-.133.166-.479.33-.866.414-.354.076-.793.215-.975.31-1.07.555-2.44 1.001-3.215 1.048-.423.026-5.77.073-11.883.106l-11.114.06zm19.832-16.041c.793-.173 1.501-.386 1.575-.472.073-.087.3-.261.503-.388a3.43 3.43 0 00.672-.59c.167-.197.362-.359.435-.359.208 0 .686-.575.776-.933.045-.18.138-.327.206-.327.068 0 .123-.076.123-.17 0-.092.107-.265.238-.384.13-.118.27-.38.311-.582.04-.202.186-.48.324-.619.283-.282.61-1.297.694-2.15.03-.312.101-.907.158-1.323.21-1.556.063-4.403-.295-5.69-.1-.357-.21-.896-.246-1.196-.036-.301-.136-.689-.224-.862-.507-1.006-1.29-2.384-1.545-2.72-.162-.214-.258-.426-.212-.472.046-.046.003-.086-.095-.088-.262-.006-.745-.445-.745-.677 0-.11-.1-.2-.22-.201-.122 0-.487-.252-.811-.56-.325-.307-.764-.648-.976-.758-.213-.11-.387-.255-.387-.323 0-.067-.138-.122-.308-.122-.169 0-.342-.057-.385-.126-.046-.075-.836-.126-1.946-.126-1.822 0-1.872.007-2.062.296-.17.26-.196 1.578-.207 10.943l-.014 10.646.35.373c.351.372.352.373 1.611.324.693-.027 1.909-.19 2.702-.364zM52.67 54.935c-.087-.45-.11-2.904-.149-16.472-.024-8.523-.002-16.827.05-18.453.118-3.676.262-3.365-2.087-4.514-.277-.136-.643-.397-.813-.58-.307-.333-.308-.338-.156-1.54.084-.662.237-1.325.34-1.473.103-.147.188-.524.19-.838.001-.66.258-1.708.545-2.227.11-.198.29-1.01.402-1.806.11-.795.252-1.506.313-1.58.061-.074.149-.528.195-1.01.046-.482.191-1.125.321-1.428.13-.303.238-.814.24-1.134.002-.816.22-1.176.818-1.357.361-.108 2.346-.154 7.066-.16 6.508-.01 7.355.037 7.36.411l.03 18.814.03 18.667.266.356.266.356 5.214.068c2.869.037 5.23.08 5.247.094.124.105-.02 1.016-.284 1.79-.184.542-.316 1.219-.318 1.629-.002.429-.128 1.046-.323 1.584-.175.485-.403 1.25-.505 1.701l-.44 1.953a67.9 67.9 0 01-.445 1.867 23.588 23.588 0 00-.359 1.764c-.175 1.073-.39 1.985-.572 2.416a4.093 4.093 0 00-.184.724l-.078.473H63.77c-6.095 0-11.09-.043-11.1-.095zm93.07-.504c-6.437-.023-9.108-.073-9.229-.173-.264-.22-.25-35.704.015-36.339.365-.873-.123-1.237-2.452-1.83-1.503-.383-1.672-.475-1.583-.858.042-.18.127-.683.188-1.12.062-.435.167-.86.234-.944.067-.084.305-.947.529-1.917.223-.97.514-2.164.645-2.653.132-.49.24-1.028.24-1.197 0-.169.147-.704.325-1.189.362-.982.487-1.44.671-2.457.355-1.96.451-2.33.663-2.541.22-.22.944-.23 17.521-.228 10.355 0 17.366.048 17.476.118.156.099.147.157-.063.39-.188.206-.252.474-.267 1.11-.03 1.312-.259 2.792-.466 3.021-.178.198-.585 2.453-.586 3.249 0 .199-.116.552-.258.785-.18.296-.235.534-.179.787.083.378-.136 1.246-.314 1.246-.056 0-.134.383-.173.85-.133 1.569-.24 2.304-.345 2.369-.057.035-3.48.062-7.606.059-8.447-.006-8.26-.025-8.5.838-.267.959-.077 5.263.248 5.656.128.154 1.31.181 7.897.181 6.56 0 7.86.03 8.493.194.41.106.796.163.855.126.238-.146.219.312-.058 1.406-.16.632-.352 1.265-.428 1.407-.076.141-.171.614-.212 1.05a7.852 7.852 0 01-.314 1.495c-.131.385-.239.962-.239 1.28 0 .334-.157.999-.37 1.567a19.806 19.806 0 00-.517 1.554c-.08.312-.204.638-.275.724-.1.123-1.749.158-7.465.158-7.699 0-8.048.023-8.25.555-.058.15-.057.895.002 1.654.059.76.11 1.86.113 2.443.008 1.35.182 1.857.693 2.014.64.196 3.352.274 9.896.283 3.837.005 6.358-.039 6.551-.115a.904.904 0 01.617-.012c.295.11.3.138.224 1.149-.093 1.217-.157 1.58-.393 2.208-.096.257-.21.721-.254 1.033-.044.312-.17.822-.279 1.134-.109.312-.244 1.049-.3 1.638a7.678 7.678 0 01-.48 2.033 8.78 8.78 0 00-.506 2.112c-.07.633-.157 1.197-.192 1.254-.035.056-.156.551-.27 1.1-.113.548-.25 1.076-.304 1.173-.11.197-4.106.23-20.969.17zM4.123 54.29l-.378-.082-.063-18.77c-.035-10.325-.108-18.861-.163-18.971-.094-.186-.273-.298-1.465-.916C1.373 15.198.528 14.47.396 14.12c-.116-.304-.014-.841.567-2.971.11-.402.199-.869.199-1.037 0-.5.963-3.461 1.126-3.461.049 0 .158-.525.243-1.165.086-.641.23-1.28.322-1.42.092-.14.21-.51.261-.82.052-.31.135-.592.184-.627.049-.034.17-.542.27-1.129.182-1.063.183-1.066.61-1.154.782-.16 28.007-.044 28.315.12.15.081.46.148.688.148.453 0 1.493.354 1.493.509 0 .053.297.137.661.185.364.048.838.195 1.054.327.216.131.483.239.592.239.11 0 .352.141.54.314.186.174.387.315.445.315.167 0 .814.587 2.353 2.132 1.258 1.265 1.492 1.568 1.925 2.506.27.587.493 1.135.493 1.218 0 .083.18.512.4.953.31.619.422 1.046.495 1.878.16 1.821.129 3.811-.07 4.487-.1.342-.177.801-.17 1.02.007.22-.099.588-.235.82-.135.23-.346.731-.468 1.112-.122.382-.352.893-.511 1.137-.159.244-.417.696-.575 1.004-.331.65-1.367 1.89-1.578 1.89-.079 0-.28.214-.448.473-.168.26-.423.525-.567.588a.853.853 0 00-.378.378c-.064.145-.297.348-.518.452-.222.104-.471.314-.555.468-.083.154-.37.424-.637.6-.838.555-.583 1.255.619 1.704.398.149.808.344.912.435.104.09.36.251.567.358.208.107.8.596 1.318 1.086.516.49.975.892 1.02.892.044 0 .17.227.279.504.109.277.279.504.378.504.189 0 1.478 1.405 1.478 1.61 0 .066.104.255.232.42.128.165.268.483.311.707.044.224.224.626.401.893.211.32.392.874.523 1.61.11.617.307 1.328.437 1.58.352.68.347 3.393-.008 3.974-.134.22-.283.746-.33 1.168-.049.422-.137.798-.197.836-.06.037-.11.198-.11.358 0 .16-.105.425-.233.59-.129.166-.307.527-.398.803-.445 1.365-1.405 2.772-2.156 3.16-.2.103-.362.29-.362.416 0 .272-.38.647-.655.647-.106 0-.344.226-.527.503-.183.278-.384.504-.445.504s-.307.185-.547.41c-.776.73-3.431 2.245-4.59 2.618-.264.085-.56.218-.657.296-.194.155-29.358.247-30.06.095zM25.54 40.979c.277-.1.61-.182.738-.183.457-.004 2.173-1.603 2.301-2.144.041-.173.154-.558.25-.855.61-1.878-.698-4.635-2.628-5.543-.318-.149-.614-.33-.659-.401-.051-.083-1.117-.13-2.961-.13-2.452 0-2.911.03-3.08.198-.172.172-.197.759-.197 4.52 0 4.541-.005 4.499.567 4.64.138.034 1.357.065 2.708.07 1.841.007 2.583-.036 2.96-.172zm-.07-18.633c.081-.099.392-.263.69-.364.703-.24 1.439-1.033 2.037-2.196.42-.817.47-1.01.46-1.827-.01-.97-.053-1.293-.195-1.435-.048-.048-.087-.19-.087-.315 0-.26-.71-1.349-1.04-1.596-.122-.09-.307-.33-.41-.531-.131-.253-.34-.406-.677-.497-.267-.072-.621-.235-.786-.362-.271-.21-.562-.231-3.03-.22-2.566.01-2.753.027-3.087.275-.65.482-.668.603-.668 4.398 0 1.94.03 3.642.069 3.781.037.14.273.396.524.567.436.3.557.316 2.922.38 1.356.037 2.615.08 2.797.094.182.016.398-.053.48-.152z" fill="#2ea44a"/><path d="M101.634 55.789c-.987-.08-2.456-.469-2.456-.651 0-.051-.27-.13-.599-.177a5.257 5.257 0 01-1.228-.377c-.347-.162-.914-.42-1.26-.575-.346-.154-.79-.47-.984-.7-.3-.354-.432-.415-.856-.399-.42.017-.577-.055-.973-.442-.26-.254-.537-.462-.614-.462-.078 0-.591-.453-1.141-1.008-.55-.554-1.054-1.007-1.121-1.007-.067 0-.301-.213-.52-.473-1.485-1.756-2.115-2.767-2-3.21.037-.136.033-.215-.008-.174-.089.089-.791-.623-.791-.802 0-.069-.17-.401-.378-.74-.208-.337-.378-.685-.378-.773 0-.087-.148-.506-.329-.93l-.436-1.024c-.254-.598-.496-1.706-.565-2.582-.04-.52-.15-1.115-.245-1.323a3.827 3.827 0 01-.24-.883c-.039-.277-.07-4.897-.071-10.268-.002-11.16.083-10.327-1.11-10.742-.353-.123-.99-.42-1.418-.662-.426-.24-.823-.438-.88-.438-.248 0-.224-.516.074-1.638.174-.658.422-1.622.551-2.142.129-.52.325-1.193.436-1.496.11-.303.202-.718.202-.922 0-.204.164-.778.365-1.275.201-.498.4-1.103.443-1.346.043-.242.212-.81.376-1.26.165-.45.366-1.074.449-1.386.579-2.185.769-2.819.89-2.964C85.037.274 98.57.27 99.199.533c.574.24.656.465.42 1.16-.165.486-.19 2.695-.185 17.152.004 16.137.01 16.608.247 17.098.134.277.246.62.248.762.007.402 1.12 2.578 1.362 2.663.12.042.387.228.595.414.208.186.86.556 1.449.823.93.421 1.222.492 2.218.54 1.319.063 2.393-.18 2.984-.678.198-.167.42-.303.491-.303.163 0 1.527-.955 2.01-1.408.265-.248.36-.455.36-.784 0-.245.112-.646.25-.89.517-.923.495.297.562-31.375.005-2.217.054-4.202.11-4.41.055-.207.127-.505.159-.66l.057-.284h6.845c4.645 0 6.973.044 7.242.138l.397.138v18.417c0 17.19-.015 18.436-.216 18.724-.148.211-.21.528-.199 1.005.01.382-.064.877-.165 1.099-.1.222-.244.732-.32 1.134a7.034 7.034 0 01-.43 1.36l-.494 1.071c-.11.243-.337.696-.504 1.008-.166.312-.397.84-.512 1.174-.15.434-.455.85-1.071 1.46-.474.469-.897.993-.94 1.163-.044.177-.262.41-.504.541-.242.13-.482.387-.553.591-.07.2-.257.421-.418.495-.16.073-.386.297-.501.498-.116.202-.408.45-.65.55-.242.101-.503.302-.58.447-.078.144-.215.262-.306.262-.09 0-.27.116-.398.258-.27.297-1.641 1.254-1.798 1.254-.058 0-.239.142-.402.315-.162.173-.43.315-.595.315-.164 0-.533.113-.82.252-.287.138-.584.252-.66.252-.077 0-.36.112-.629.25a5.04 5.04 0 01-1.138.369 7.623 7.623 0 00-1.395.451c-.562.25-1.09.36-2.133.448-1.514.126-5.455.124-7.055-.004zm-48.963-.854c-.087-.45-.11-2.904-.149-16.472-.024-8.523-.002-16.827.05-18.453.118-3.676.262-3.365-2.087-4.514-.277-.136-.643-.397-.813-.58-.307-.332-.308-.338-.156-1.54.084-.662.237-1.325.34-1.473.103-.147.188-.524.19-.838.001-.66.258-1.708.545-2.227.11-.197.29-1.01.402-1.806.11-.795.252-1.506.313-1.58.061-.073.149-.528.195-1.01.046-.482.191-1.125.321-1.428.13-.303.238-.814.24-1.134.002-.816.22-1.176.818-1.357.361-.108 2.346-.154 7.066-.16 6.508-.01 7.355.037 7.36.412l.03 18.813.03 18.668.266.355.266.356 5.214.068c2.869.037 5.23.08 5.247.094.124.105-.02 1.016-.284 1.79-.184.542-.316 1.219-.318 1.63-.002.428-.128 1.045-.323 1.583-.175.485-.403 1.25-.505 1.701l-.44 1.953a67.9 67.9 0 01-.445 1.867 23.588 23.588 0 00-.359 1.764c-.175 1.073-.39 1.985-.572 2.416a4.093 4.093 0 00-.184.725l-.078.472h-11.08c-6.095 0-11.09-.043-11.1-.095zm93.07-.504c-6.437-.023-9.108-.073-9.229-.173-.264-.22-.25-35.704.015-36.339.365-.873-.123-1.237-2.452-1.83-1.503-.383-1.672-.475-1.583-.858.042-.18.127-.683.188-1.119.062-.436.167-.86.234-.945.067-.084.305-.947.529-1.917.223-.97.514-2.164.645-2.653.132-.49.24-1.028.24-1.197 0-.169.147-.704.325-1.189.362-.982.487-1.44.671-2.457.355-1.96.451-2.33.663-2.541.22-.22.944-.23 17.521-.228 10.355 0 17.366.048 17.476.118.156.1.147.157-.063.39-.188.206-.252.474-.267 1.11-.03 1.312-.259 2.792-.466 3.021-.178.198-.585 2.453-.586 3.249 0 .199-.116.552-.258.785-.18.296-.235.534-.179.787.083.378-.136 1.246-.314 1.246-.056 0-.134.383-.173.85-.133 1.569-.24 2.304-.345 2.369-.057.035-3.48.062-7.606.059-8.447-.006-8.26-.025-8.5.838-.267.959-.077 5.263.248 5.656.128.154 1.31.181 7.897.181 6.56 0 7.86.03 8.493.194.41.106.796.163.855.126.238-.146.219.312-.058 1.406-.16.632-.352 1.265-.428 1.407-.076.141-.171.614-.212 1.05a7.852 7.852 0 01-.314 1.495c-.131.385-.239.962-.239 1.28 0 .334-.157.999-.37 1.567a19.806 19.806 0 00-.517 1.554c-.08.312-.204.638-.275.724-.1.123-1.749.158-7.465.158-7.699 0-8.048.023-8.25.556-.058.15-.057.894.002 1.653.059.76.11 1.86.113 2.443.008 1.35.182 1.857.693 2.014.64.196 3.352.274 9.896.283 3.837.005 6.358-.039 6.551-.115a.904.904 0 01.617-.012c.295.11.3.138.224 1.149-.093 1.217-.157 1.58-.393 2.209-.096.256-.21.72-.254 1.032-.044.312-.17.822-.279 1.134-.109.312-.244 1.049-.3 1.638a7.678 7.678 0 01-.48 2.033 8.78 8.78 0 00-.506 2.112c-.07.633-.157 1.197-.192 1.254-.035.056-.156.551-.27 1.1-.113.548-.25 1.076-.304 1.173-.11.198-4.106.23-20.969.17zM4.123 54.29l-.378-.082-.063-18.77c-.035-10.325-.108-18.861-.163-18.971-.094-.186-.273-.298-1.465-.916C1.373 15.198.528 14.47.396 14.12c-.116-.304-.014-.841.567-2.971.11-.402.199-.869.199-1.037 0-.5.963-3.461 1.126-3.461.049 0 .158-.524.243-1.165.086-.641.23-1.28.322-1.42.092-.14.21-.51.261-.82.052-.31.135-.592.184-.627.049-.034.17-.542.27-1.129.182-1.063.183-1.066.61-1.154.782-.16 28.007-.044 28.315.12.15.082.46.148.688.148.453 0 1.493.354 1.493.509 0 .053.297.137.661.185.364.048.838.195 1.054.327.216.131.483.239.592.239.11 0 .352.141.54.315.186.173.387.314.445.314.167 0 .814.587 2.353 2.132 1.258 1.265 1.492 1.568 1.925 2.506.27.587.493 1.135.493 1.218 0 .083.18.512.4.953.31.619.422 1.046.495 1.878.16 1.821.129 3.811-.07 4.487-.1.342-.177.801-.17 1.02.007.22-.099.588-.235.82-.135.23-.346.731-.468 1.112-.122.382-.352.893-.511 1.137-.159.244-.417.696-.575 1.004-.331.65-1.367 1.891-1.578 1.891-.079 0-.28.213-.448.472-.168.26-.423.525-.567.588a.853.853 0 00-.378.378c-.064.145-.297.348-.518.452-.222.104-.471.314-.555.468-.083.154-.37.424-.637.6-.838.555-.583 1.255.619 1.704.398.149.808.344.912.435.104.09.36.251.567.358.208.107.8.596 1.318 1.086.516.49.975.892 1.02.892.044 0 .17.227.279.504.109.277.279.504.378.504.189 0 1.478 1.405 1.478 1.61 0 .066.104.255.232.42.128.165.268.484.311.707.044.224.224.626.401.894.211.319.392.873.523 1.609.11.617.307 1.328.437 1.58.352.68.347 3.393-.008 3.974-.134.22-.283.746-.33 1.168-.049.423-.137.798-.197.836-.06.037-.11.198-.11.358 0 .16-.105.425-.233.59-.129.166-.307.527-.398.803-.445 1.365-1.405 2.772-2.156 3.16-.2.103-.362.29-.362.416 0 .272-.38.647-.655.647-.106 0-.344.226-.527.503-.183.278-.384.504-.445.504s-.307.185-.547.41c-.776.73-3.431 2.245-4.59 2.618-.264.085-.56.218-.657.296-.194.155-29.358.247-30.06.095zM25.54 40.979c.277-.1.61-.182.738-.183.457-.004 2.173-1.602 2.301-2.144.041-.173.154-.558.25-.855.61-1.878-.698-4.635-2.628-5.542-.318-.15-.614-.33-.659-.402-.051-.083-1.117-.13-2.961-.13-2.452 0-2.911.03-3.08.198-.172.172-.197.759-.197 4.52 0 4.541-.005 4.499.567 4.64.138.034 1.357.065 2.708.07 1.841.007 2.583-.036 2.96-.172zm-.07-18.633c.081-.099.392-.263.69-.364.703-.24 1.439-1.033 2.037-2.196.42-.817.47-1.01.46-1.827-.01-.969-.053-1.293-.195-1.435-.048-.048-.087-.19-.087-.315 0-.26-.71-1.349-1.04-1.596-.122-.09-.307-.33-.41-.531-.131-.252-.34-.406-.677-.497-.267-.072-.621-.235-.786-.362-.271-.21-.562-.231-3.03-.22-2.566.01-2.753.027-3.087.275-.65.482-.668.603-.668 4.398 0 1.94.03 3.642.069 3.782.037.14.273.395.524.566.436.3.557.316 2.922.38 1.356.037 2.615.08 2.797.095.182.015.398-.054.48-.153z" fill="#0158a8"/></svg>