<svg version="1.1" id="Layer_1" xmlns="http://www.w3.org/2000/svg" x="0" y="0" viewBox="0 0 294 144" width="349" xml:space="preserve"><style>.st0{fill:#fee300}</style><path class="st0" d="M85.9 48h22.7c2.2 0 3.9.6 5 1.7 1.2 1.1 1.8 2.6 1.8 4.3 0 .3 0 .6-.1.9 0 .3-.1.6-.1.7-.7 3.6-2.3 5.8-4.6 6.5.9.6 1.6 1.2 2.1 1.9.4.7.7 1.7.7 3.1 0 1.2-.2 3-.7 5.2-.8 3.7-2.1 6.2-3.9 7.6-1.6 1.2-4 1.9-7.4 1.9H82c-.6 0-1-.2-1.2-.5-.3-.3-.4-.7-.4-1.3 0-.2 0-.5.1-.8l6.6-28.8c.1-.4-.1-.7-.4-1s-.7-.5-1.1-.5l.3-.9zm9.5 26.4h3.2c.9 0 1.8-.4 2.2-.8.3-.4.7-1.2 1-2.6.2-.9.3-1.7.3-2.3 0-1.1-.9-1.7-2.1-1.7h-2.9l-1.7 7.4zm3.2-13.9h3.5c.6 0 1.2-.2 1.5-.5.2-.3.5-.8.7-1.6s.3-1.4.3-1.8c0-.9-.8-1.3-1.7-1.3h-3l-1.3 5.2zm186.8-12.4h-22.6l-.3 1.1c.4 0 .7.2 1.1.5.3.3.5.7.4 1l-6.6 28.7c-.1.3-.1.6-.1.8 0 .5.1.9.4 1.3.3.3.7.5 1.2.5h13.5l.2-1.1c-.4 0-.8-.1-1-.3-.3-.2-.4-.5-.4-.8v-.5l2.5-10.8 3.2 11.3c.2.7.6 1.2 1.2 1.6s1.3.7 2.2.7h5.7c2 0 3.2-.8 3.5-2.3l1.2-5.6h-1.4c-.5 0-.9-.1-1.3-.4s-.7-.6-.9-1l-1.7-4.5c2-.5 3.5-1.4 4.6-2.8s1.9-3.5 2.6-6.5c.1-.5.2-1.1.3-2 .1-.5.1-1.1.1-1.7 0-4.8-2.5-7.2-7.6-7.2zm-3.8 9.8c-.1.3-.1.7-.2 1.1-.4 1.9-1.5 2.8-2.6 2.8h-3.5l1.4-6.1h3.5c.8 0 1.5.5 1.5 1.4-.1.2-.1.5-.1.8zm-24.2-7.4l-6.7 28.9c-.1.3.1.7.4 1 .4.3.7.5 1.1.5l-.3 1.1h-13.5c-1 0-1.6-.5-1.6-1.6 0-.1 0-.4.1-.8l6.7-28.9c.1-.3-.1-.7-.4-1-.3-.3-.7-.5-1-.5l.2-1.1H256c.6 0 .9.1 1.2.4.2.3.4.7.4 1.2l-.2.8zm-75.2 23.6l-1.3 5.7c-.2.7-.6 1.3-1.2 1.6-.6.4-1.8.5-3.5.5h-3.3c-.7 0-1.4-.3-2.1-.8-.6-.5-1.1-1.1-1.4-1.8l-4.2-10.4-3.4 3.2-1.7 7.3c0 .4.2.7.5.9.3.3.7.4 1 .4l-.2 1.1h-13.6c-1.1 0-1.6-.5-1.6-1.6 0-.2 0-.4.1-.8l6.7-28.8c.1-.3-.1-.7-.4-1-.4-.3-.7-.5-1.1-.5l.3-1.1h13.5c1 0 1.6.5 1.6 1.6l-.1 1-1.7 6.7s.6-.7 1.5-1.7c1-1.1 4-4.3 4-4.3.3-.3.4-.6.4-.9 0-.3-.1-.6-.3-.8s-.4-.3-.6-.3l.3-1.1h12.4c.6 0 1.1.2 1.4.5.3.4.5.8.5 1.2 0 .5-.2.9-.6 1.4l-9.9 9.4 4.9 12.2c.4.9 1 1.3 1.9 1.3l1.2-.1zm-60.6-26h25.8l-1.1 4.8c-.2.9-.7 1.6-1.3 1.9-.7.4-1.5.5-2.6.5h-6.8l-1.3 5.2h8.1l-.9 4.1c-.2.7-.6 1.3-1.3 1.7-.7.4-1.5.7-2.4.7h-3c-1.3 0-2.2.7-2.5 2.2l-1.1 4.8h7.9c.5 0 1-.1 1.5-.4.5-.2.9-.5.9-.9h1.1l-1.8 7.5c-.2.7-.5 1.1-1.1 1.3-.6.2-1.3.3-2.2.3h-20c-.6 0-1-.2-1.2-.5-.3-.3-.4-.7-.4-1.3 0-.2 0-.5.1-.8l6.6-28.7c.1-.4-.1-.7-.4-1s-.7-.5-1.1-.5l.5-.9zM234.4 82h-12.6c-.8 0-1.5-.1-1.9-.4s-.6-.8-.7-1.4l-.4-5h-7.6l-2 4v.6c0 .3.1.5.4.8.3.2.6.3 1 .3l-.2 1.1h-9.8c-1.4 0-2-.5-2-1.6 0-.3.1-.6.2-.9l14.3-28c.1-.2.1-.4.1-.7 0-.4-.2-.7-.5-1s-.6-.5-1-.5l.3-1.1h15.6c.7 0 1.4.2 1.9.6.5.4.8 1 .8 1.7l2.2 28.7c0 .4.2.8.7 1.2.5.4.9.5 1.4.5l-.2 1.1zm-16.1-22.8s-2.9 6.6-3.4 7.6c-.4 1-.8 1.8-.8 1.8h4.7s-.1-.9-.2-2c0-1.2-.3-7.4-.3-7.4z"/><path d="M65.9 67.4c-.2-.3-.7-.7-1.4-.9h-.3c-.4 0-.5.5-.5.5s-.5-.1-.8-.1h-.3c-.4.1-.2.5-.6 2.3-.4 1.8-1.9 4.3-2.2 4.3-.3 0-.6-.3-2.2-1.6-.4-.3-1-.6-1.6-.8-.4-.8-1-1.7-1-1.7v-.2s.3 0 .4-1c.1-.9.1-1.4.1-1.4s1.5 0 1.3-3.3c-.1-3.2-1.9-5.8-3-6.4 0 0-.6-2.8-1.2-3.2 0 0-.3-1.4-.9-2.8-.6-1.4-.8-2.4-.8-2.4s.5-.3.4-.6-.5-.5-.7-.8-.6-1.4-.6-1.4.1-1-.2-1.5c0 0 0-2.1-1.1-4.1-.1-.2-.2-.3-.3-.5.3-.7.8-2.1 1.4-3.6.5-.2 1-.9 1.9-2 .9-1.2.4-1.8-.3-2 .3-.9.6-1.5.6-1.6.1-.2 0-.3-.2-.3-.1 0-.2.1-.3.2 0 .1-.3.7-.6 1.6h-.3c-.1 0-.3 0-.4.1-.1-.1-.3-.2-.4-.2.3-.9.6-1.5.6-1.6.1-.2 0-.3-.2-.3-.1 0-.2.1-.3.2 0 .1-.3.7-.6 1.6H49c-.1 0-.3 0-.4.1-.1-.1-.3-.2-.4-.2.3-.8.6-1.5.6-1.6.1-.2 0-.3-.2-.3-.1 0-.2.1-.3.2 0 .1-.3.7-.6 1.6h-.3c-.5 0-.7.3-1.1 1.3-.4 1.1-.4 2.3-.1 2.7-.2.6-.4 1.1-.5 1.4-.3-.2-.7-.4-1.2-.4-.9-.1-1.4-.1-1.6-.1h-.2s-.4-2-.4-7.3c-.3-3.8-.5-8.5-.8-12.5.2-.7.3-1.2.5-1.5.5-.8.6-1.7.3-1.7-.3.1-.6.1-.9.2-.2-1.9-.4-3.5-.5-4.5l.1-.5c.7.7.8 1.1 1.3 1.1s.8-.6.9-1c.1-.4-.3-1.9-1-3.1C41.5 4.7 41 4 40.1 4c-.9 0-1.5.6-1.5 1.8 0 1.1.3 1.3.6 1.5v.2l-.1 1.2c-.5 1.2-1.3 3.2-2.2 5.5 0-.3.1-.6 0-.8 0-.1 0-.2-.1-.2-.3 0-1.3 2.5-1.3 2.5s-.2-.3-.4-.3c-.1 0-.2.2-.2.7 0 1.3-1.5 6.7-1.5 6.7-.6 1.5-1 2.5-1.1 2.7-.4.9-.3 1.7-.3 1.7s-.1.1-.2.9c0 .6 0 .7.1.7l-.6 6.6c-.1 1-.7 1.2-.7 1.2s-.3 1.7.3 2.2c.3.2.5.3.6.3h.1c.1.3.2.7.2.7s-1.6.5-2.5 1.7h-.7c0-.1-.3-.3-.7-.3h-.3s-2.8.5-3.4 2.7c-.3 1.2-.4 2.3-.4 3.3-.9-.2-1.1-.2-1.2-.2h-.1l-.6-.4v-2.1c0-.4.4-.5.4-.5-.1-.4-.5-1.1-1.3-1.1h-.4c-.3.1-.7.5-.8 1.1 0 .6 0 1.6-.3 2.4 0 0-.2-.1-.5-.1s-.7.2-.9.9c-.3 1.4-1 4.8.3 8.3l-.3 3.1c-.3.1-.5.3-.5.6 0 .5.2.6.2.6s-.5.4-.4 1c.2.6.4.6.4.6s-.1.5.1.9.5.4.5.4-.2.5.2.8c.4.3 1 .3 1.7.4h.2c.5 0 .9-.2 1.2-.4.5.2 1.2.4 2.1.4h.1c1.6 0 2-.2 2-.2l-.4 1.8-.4.5s-.3 1.5-.3 1.6c0 .2.6.7.6.7s-.6 5.4.5 9.7c0 0-.3.9-.1 1.6s.3.8.3.8.2 2 1 3.3c0 0 0 1.2.6 3.1 0 0-.4.1-.2 1.1.2 1.1-.1 3.4-.1 3.4s-.7-1.7-1.3-2.6c0 0 .3-1.2-.3-1.7 0 0-.1-1.1-.6-1.3 0 0 .1-.7-.5-.9 0 0 .8-1.9.4-2.2-.2-.1-.6-.2-1-.2-.6 0-1.4.2-2.2.8 0 0-1.2-.8-2.8-.8H19c-1.5 0-2.3.6-3.9 2.6 0 0-.5 0-.6.7s-.1 1.4 0 1.7c.2.3.3.4.3.4s-.7 1.1-.3 2.2c0 0-.2 1.2.4 1.9.6.7 1.2.8 1.7.8 0 0 .2.5.9.5 0 0-.1 1.5.9 1.8l-.4 4.6s-3.9 2.8-4.7 4.5-.2 2.8-.2 2.8l-.3 2h-.3c-.3 0-.9.2-1.4 1.1 0 0-.7.1-1.1.9 0 0-.6.6-1.8.9l-1.5.3s-.6-.6-1.5-.6h-.4s-.7-.4-1.5-.4c-.4 0-.7.1-1.1.3H2c-.4 0-1.1.1-1.3.7-.3.8-.3 1.3-.3 1.3s-.6.3-.3 1.3c.2.9.6 1.1 1 1.1h1.3s.5.7 2.3.8c1.8.1 2.7.2 3.4.6.7.3 1 .5 4.3.9 1 .1 1.8.1 2.5.1 1.4 0 2.1-.2 2.7-.3.6 0 3.8 3.2 4.5 3.5 4.7 2.3 9.9 3.8 15.1 4.4-.2 0 0 2.5.1 2.8.4.9 1.3 1.6 2.3 2 .6.3 1.2.5 1.7.6 1 .3 1.5.4 1.7.5s.3.2.4.3c1.1 1.6 2.1 2.9 2.9 4.9 0 0 .5 1.5 2.6 3.9.1.1.3.2.5.2.3 0 .7-.2.7-.2h.6c.3 0 .6 0 .7-.1.3-.2.7-.5.7-.9 0 0 1-.3 1.3-.6.4-.5.9-1.4.4-2-.4-.6-1.6-.8-1.6-.8s-.7-.8-1.6-.8c0 0 .1-1.1-.3-2-.3-.9-1.3-4.3-1.5-4.9-.1-.2-.1-.3-.2-.4.2.1.4.1.6.3 1.7 1.2 4.2 1 4.7 1.6 1.2 1.5 2.2 2.7 3.1 4.8 0 0-.5.7.4 2.1.6.9 1.1 1.1 1.3 1.1.1 0 .2-.1.2-.1s.4.3.8.7c.1.1.3.1.5.1.4 0 .7-.2.7-.2h.3c.3 0 .8 0 1-.2.3-.2.6-.5.6-.9 0 0 .7-.3.9-.7s.6-1.1.2-1.7c-.4-.6-1.5-.8-1.5-.8s-.5-.6-1.2-.6c-.1 0-.3 0-.4.1 0 0 .3-1.6-.1-2.5-.4-.9-1.5-4.2-1.8-4.9-.2-.7-.5-.7-.5-.7s.2-.8-.3-1.7c-.5-.9-1.3-.9-1.4-.9 0 0 1.5-1.4 1-3.7-.5-2.4-1.7-4.3-5.3-6 0 0 .6 0 .9-.8.3-.8 0-1.6-.9-1.9-.3-.1-.6-.2-.9-.2-.5 0-1 .3-1.5 1-.8 1.3-.2 2.5-.2 2.5s-4.5-4.3-9.4-4.6c0 0-1.6-1.5-3-2.1 0 0 4.4-1.9 6.1-3.2 0 0 5.8 1.3 8.9 1.6h.8c2.6 0 4-1.3 4.3-1.8 0 0 .4-.4.5-1.2 0 0 .5-.3.7-1.5.1-.7-.2-1-.2-1s.6-1.8-.5-1.9V98c-.5 0-1 .4-1.6.8s-1.2.8-2 .8h-.3c-1.8-.2-7.2-2.7-7.2-2.7s0-.3-1.4-1c-.7-.3-1.4-.6-2.3-.6-.8 0-1.9.3-3.4 1.1 0 0 1.9-7.4.4-10.4.7-5.6-.2-7.6-.2-7.6s.8-6.8.2-9.6c0 0 .3 0 .4-.5l2 7.8s-.3.5.1.8c.2.1.5.2.7.2.4 0 .7-.2.5-.7-.1-.3-.3-.4-.3-.4l-1.3-6.7c.7.8 1.3 1.4 2.2 2.3 1.6 1.6 2.9 2.9 4.1 3h.2c.9 0 1.7-.7 2-.9.4.4 2 .7 3 .7.6 0 1.2-.3 1.6-.7l1.1.1s1.6 1.4 3 1.5h.1c1.3 0 2.6-1.9 3.2-3.9.6-2 1-2.8 1.4-3 .2-.1.5-.1.8-.1h.7c.2-.1.4-.6.2-.9zm-43.3-8.6c0-.2-.1-.3-.2-.4l.2-.1s.3-.6-.1-.9c-.4-.2-.9-.2-.9-.2l.1-2.5s1.6-2.1 2.1-4.3h.1s.3 1.2.3 3.7v3.8c.2-.2-.8.4-1.6.9zm32.1 58.7c1.2 1.9.7 3.4.7 3.4-2.5-1.6-3.4-4.8-4.6-6.2 0 0 2.7.9 3.9 2.8zM48 35.9c.3-.1.5-.4.9-.8 0 .4.1.8.2 1-.5 1.3-1 2.5-1.3 3.2-.3-.4-.6-.6-.9-.8.3-.6.7-1.5 1.1-2.6zm-1.7-.3c.3-.1.5-.4.9-.8 0 .4.1.8.2 1-.4 1-.7 1.9-.9 2.4-.3-.2-.5-.2-.5-.2s-.1-.3-.4-.7c.2-.3.4-.9.7-1.7zm3.8 34.8c-.1.1 0 .6.1 1.1-.5.6-.7 1.3-.7 1.3h-.1c-2 0-6.3-5.2-7.7-7l-.8-4.1s.5-.1.3-1c-.2-.8-.8-1.1-.8-1.1l-.3-1.8 2.6-5.4s.4.1 1 .1c.3 0 .6 0 .9-.1 0 0 1.3 1.9 1.7 2.4.3.4.5.4.7.4h.1l.5 1.2s-.3.7.5 2.3 1.5 2.9 2.2 4.9c.7 2 1.2 5.4 1.2 5.4s-1.2 1.1-1.4 1.4z" fill="#00758d"/><path class="st0" d="M32.6 31h.3c.1 0 .2 0 .3-.1.1 0 .2-.1.3-.1s.2 0 .2.1c.2.4-.6.6-.9.6-.1.5.2.5.4.6.1.1.3.2.5.2.1 0 .1 0 .2-.1 0 0 0-.1.1-.1s.1.5.1.5l-.1.1c-.1 0-.2-.2-.3-.2h-.5c-.1 0-.3 0-.4.1.1 0 .2.2.2.3s-.2.2-.2.4 0 .3.2.4c.2.1.4.1.6.2.3.1.6.1.8.1.3 0 .6-.1.9-.2.4-.2.8-.3 1.2-.4.1 0 .2 0 .3-.1v-.2c0-.3 0-.7.1-1 .1-.6.3-1.1.5-1.7.1-.3.1-.6.1-.9 0-.2-.2-.4-.3-.6-.2-.4-.6-.9-1-1.1-.6-.2-1.3-.2-1.9-.2h-.2c-.2 0-.4 0-.6.2l-.1.1.1.1h.1c.2-.1.3-.1.5-.1h.4-.1c-.2.1-.4.2-.5.4l-.1.1v.1h.2c.2-.1.4-.1.7-.1.2 0 .4 0 .6.1.1.1.3.2.4.2h.1c.1 0 .1-.1.1-.2.1 0 .2.1.2.2 0 0 .2.3.1.3H36c-.6 0-1.1.4-1.6.4h-.2c-.2 0-.5-.1-.7-.2s-.3-.3-.4-.5c0-.1-.1-.4-.3-.4h-.1c-.1 0-.1.1-.1.2-.2.6-.3 1.2-.5 1.7 0 .1-.1.5 0 .6.4.2.4.2.5.2zm1.4-.6c.1 0 .1 0 0 0 .1-.1.2 0 .2 0 .2.1.4.3.6.4.2.1.4.3.7.4.1.1.4.1.1.3-.1 0-.2.1-.3.1h-.5c-.1 0-.3 0-.4-.1-.2-.1-.4-.3-.5-.5-.1-.3 0-.4.1-.6zm-4.5 17.8h.2c1.4 0 3.5-1.2 3.9-3.6.4-2.1-1.2-2.8-2.3-2.8-.2 0-.3 0-.5.1 0 0-.1.1-.2.4-.2.4-.5.7-.8 1.8 0 .2-.2.2-.3.5-.1.4.1.4.1.6-.2 1.2-.1 1.9-.1 2.4-.1.4 0 .6 0 .6zm23 14c.7 1.8 1.5 3.2 2.6 3.2h.1c1.2-.1 1.3-1.6.6-3.9-.6-2.3-1.5-3.2-2.7-3.7H53c-1.3 0-1.2 2.6-.5 4.4zm1.8-1.5c.2.1.1.2.1.4s.1.3.1.5c.1.1.1.2.2.3l.1.1c0 .1 0 .2-.1.2s-.3-.1-.4-.1c-.1-.1-.3-.2-.3-.3-.1-.2-.2-.6 0-.8.1-.2.2-.3.3-.3zM37.1 94.1c.1-1.2.1-2.5.3-3.7.1-1 .2-1.9.3-2.9-.1 0-.2-.1-.3-.1s-.6-.1-.7-.2c0 0 0-.1-.1-.1v-1h-.1c-.2 0-.4 0-.6.1 0 .3 0 .5-.1.8v.1c0 .1-.1.1-.2.1h-.3c-.3-.1-.3-.4-.3-.6v-.1h-.1c-.3 1.3.3 9.1.5 11.9l1.6-.8c0-1.1.1-2.3.1-3.5z"/><path class="st0" d="M36.6 87.2s0 .1 0 0c.2.2.6.2.8.3.1 0 .2.1.3.1v-.3c.4 0 .9.2 1.3.4.2-1.4.3-4.2.3-5.2 0-1.3 0-2.7-.4-3.9-.1-.3-.2-.5-.3-.7l-.1-.1c0 .1-.1.1-.2.2-.3-.3-.9-.8-1.1-1.1l-.3-.3c-.4-.2-.8-.4-1.2-.5-.7-.3-1.6-.4-2.4-.4 0 0 .3 2.3.3 2.5C34 80 35 81.5 36 83c.3.5.5.9.6 1.5 0 .1-.1 1.2-.1 2.1.1.1.1.5.1.6z"/><path class="st0" d="M38.4 77.8l.2-.2c.8-1.2.8-5.5.7-7.3 0-.5-.1-.9-.1-1.4 0-.2-.1-1.3-.2-1.3-1.1-.5-2.6-1-4-1-.8 0-1.5.2-2.1.7-.1 1.7.9 5.1 1.2 7.1 1.3.4 2 .9 2.9 2l.3.3c.2.3.8.7 1.1 1.1zm-.8-13.6c.1-.1.2-.1.3-.2.2-.1.4-.2.6-.2h.1c.1 0 .3 0 .4.1.5.1.8.3 1.2.6-.1-.5-.2-1-.3-1.4-.1-.6-.2-1.1-.3-1.7-.3-1.2-.6-1.8-.6-3v-.2c0-.1-.1-.1-.2-.1-.3-.2-.6-.3-.9-.5-.8-.4-1.7-.5-2.5-.5-.6 0-1.2.1-1.8.1s-1.2.1-1.8.2c-.2 0-.7 0-.8.2-.2.2-1 4.9 0 8.3 1.4-.7 2.9-1 4.5-1h.2c.7 0 1.3.1 1.9.2 0-.2 0-.3.1-.5-.2-.1-.2-.3-.1-.4zm8.1-18.8c.8.2 1.4.3 2.2.3.2 0 .4.1.6.1.1 0 .3 0 .4-.1.2-.1-.2-1.2-.2-1.2s-.2-2.6-.7-3.8c-.5-1.1-1.5-1.9-2.6-2.3-.6-.2-1.2-.3-1.8-.3h-.1c-1.2 0-2.8.3-2.9 1.8-.1 1.1.2 2.1.7 3 1.1 1.5 2.7 2.2 4.4 2.5zm-7.4-28.7c-.2.6-.2 1.1-.3 1.7.4-.6.8-1.4 1.1-2.5.2-1 .6-1.5 1.1-1.8-.1-1.6-.2-3.1-.4-4.8-.1-.1-.2-.1-.2-.1-.1 0-.2 0-.2.1-.3 1.4-.4 2.5-.7 3.9l-.2 1.2c0 .5 0 1.7-.2 2.3zm.7 4.2c-.4.3-.9.7-1.1 1.1-.3.6-.6 1.2-.8 1.8 0 .1-.1.2-.2.3-.1.2-.7 0-1.1 0 0 .1 0 .5-.1.6.1 0 .2.1.3.2.2.2.2.4.2.6 0 .3 0 .4-.1.6-.2.2-.4.4-.7.5 0 .1-.1.3-.1.4l1 .2c.9.1 2.1 1 2.1 1.8-.1 1.6-.4 4.7-1 5.4s-2.1 1.2-2.9 1.2c0 0 .7 1.7 3 1.7h.8c.6 0 1.2.1 1.7.1.5.1.9.1 1.2.1.2 0 .3 0 .3-.1-.2-1.2-.4-4.8-.4-8.5-.2-3.2-.4-6.6-.6-10.6-.3 1.1-.8 2-1.5 2.6z"/><path class="st0" d="M36 23.6s.1 0 0 0h.3c.3-.1.3-.4.4-.7.1-.2.2-.5.3-.8.2-.5.6-1 1-1.4.2-.2.4-.3.5-.5 1.7-1.3 2-4.8 2.5-5.6.4-.7.6-1 .3-1h-.1c-.3.1-.7.2-1 .4l-.1.1c-.5.3-.9.9-1.1 1.8-.2 1-.8 2.1-1.2 2.7l-.4.6s.1-1.7.4-2.9c.4-1.3.2-2.4 0-2.8-.2-.3-.3-.5-.5-.5H37c-.1 0-.3.6-.2 1.2.1 1-.9 3.3-.8 4.9.1 1.3-.1 2.6-.5 3.8-.1.2-.1.4-.2.6v.1l.1.1c.2-.1.4-.1.6-.1zm3.1-15h.4c.2 0 .4.1.5.1h.1c.1 0 .1-.1.1-.4v-.8c0-.2-.1-.5-.3-.6-.1-.1-.4-.1-.5-.1h-.2c-.2.1-.2.3-.3.5 0 .3-.1.9-.1 1 .1.2.1.3.3.3zm.5-2.3c.1 0 .2.1.3.1.6 0 1-.5.9-.8 0-.4-.4-1.1-1-1.2-.1 0-.3-.1-.4-.1-.3 0-.6.1-.6.4s.1 1.4.8 1.6zm-8.4 48.4s.1 0 0 0h.2s.1 0 .1.1c.1.1.2.2.2.3 2.7-.3 4.9-.2 5-.3.3-.1.6-.2.8-.4.1 0 .1-.1.2-.1-.3-.3-.5-.8-.4-1.2 0-.1.1-.1.1-.2.2-.2.4-.3.6-.4.2-.1.4-.1.6-.1.1 0 .2 0 .3.1s.3.1.4.2c0-.1.1-.1.1-.2.2-.4.5-.7.7-1.1.1-.1.1-.2.2-.3.6-1.2 1.5-3.2 1-4.4-.1-.4-.6-1.6-1-1.6-.2 0-.3.1-.5.2-.8.5-1.6.9-2.4 1.3-.2.1-.5.2-.7.3-.5.2-1 .4-1.4.5l-.9.3c-.3.1-.5.2-.8.2-.9 1-2.5 1.6-3.9 1.9 0 1.1.2 2.1.3 3.1.1.7.2 1.2.4 1.9.3-.1.6-.1.8-.1zM24 90.3c-.3.1-.4.6-.2.8l.1.1c.2.1.4.2.6.2h.1l.1-.1c0-.1 0-.2-.1-.2-.1-.3-.3-.8-.6-.8zm1 .4h.2c.1 0 .1-.1.2-.2v-.1c0-.1-.1-.2-.1-.3-.1-.1-.2-.3-.3-.4-.1-.2-.3-.3-.5-.4h-.1l-.1.1c-.1.3-.1.3.1.6.2.1.3.4.6.7-.1-.1-.1 0 0 0zm.6-1.1c.1 0 .1-.1.2-.1v-.2c0-.2-.2-.5-.3-.6-.1-.1-.1-.2-.2-.3-.2-.2-.5-.3-.7-.3h-.1c-.1.1-.2.4-.1.5s.2.2.3.2c.3.1.6.4.9.8 0-.1 0 0 0 0zm-5.8 12.5c.5 0 1 .1 1.5.3 1-1.5 2.6-2.6 4.3-2.8.6-.1 1.1-.1 1.7-.1h.5c.1 0 .3 0 .4.1.3.1.5.3.6.5.3-2.2-.4-4.4-1.1-6.5-.1-.3-.2-.7-.4-1-.2-.5-.5-.9-.8-1.4-.1-.1-.5-.7-.6-.7 0 0-.1 0-.1.1 0 .4-.1.9-.2 1.3-.2.6-.4 1.1-.7 1.6-.6 1-1.3 1.9-2.2 2.6-.4.3-.9.6-1.3 1-.5.4-.9.9-1.4 1.5s-.9 1.1-1.3 1.8c-.3.6-.5 1.4-.4 2.1.4-.3.9-.4 1.5-.4zm35-.4c1.3 0 1.9-.6 2.6-1.1.9-.7 1-1.7.8-2 0-.1-.1-.1-.2-.1-.3 0-.8.4-1.7 1.1-.6.4-1.1.6-1.7.6-.5 0-1.2-.2-2-.4-1.7-.6-5.7-2.2-5.7-2.2-.5.8-1.2 1.1-1.2 1.1s3.9 1.8 7.1 2.7c.8.2 1.5.3 2 .3z"/><path class="st0" d="M58.1 100.5c-.4.4-.9.9-1.5 1.2-.6.4-1.1.6-1.8.6-.6 0-1.3-.1-2.3-.4-2.3-.6-7.5-2.8-7.5-2.8-.5.3-1.8 1-1.8 1s.3.2 3.3 1.2c2.9 1 5.6 2 8 2h.4c2-.1 3.1-1.5 3.2-2.2.2-.2.1-.6 0-.6z"/><path class="st0" d="M56.3 103.8c-.1 0-.8.3-1.5.3h-.1c-.4 0-1.4 0-2.3-.1-2.7-.4-10.3-3.1-10.3-3.1-.4.3-1.9 1.2-1.9 1.2s7.1 2 11.5 2.6c.4.1 1 .1 1.7.1.9-.1 2-.3 2.9-1zM22.1 49.7c0-.2 0-.4-.1-.6 0 0 0-.1-.1-.1-.1-.2-.1-.4-.2-.6-.1-.2-.2-.3-.3-.5 0-.1 0-.1-.1-.2-.1-.2-.1-.5-.4-.6h-.1c-.1 0-.2.1-.3.2-.2.5-.4.9-.8 1.3-.1.2-.3.3-.4.5 0 .1-.2.6-.1.7h.1c.2 0 .3-.1.5-.2.3-.3.5-.6.9-.7h.1c.2 0 .5.1.7.3.1.1.1.2.2.3.2.1.3.2.4.2zm13.7 59.2c-1.7 0-3.4.6-4.6 1.7 1 .5 2.1.6 3.1.8.2 0 .3.1.5.1 1.4.4 2.7 1 4 1.7.4.2.8.5 1.1.8.8.7 1.3 1.9 2.3 2.5.5.3 1.2.4 1.8.6.7.3 1.4.6 2 1 .5.3 1.1 1.4 1.4 1.9.5.7.8 1.5 1.2 2.2.8 1.1 1.4 1.5 2.6 1.9 1.5.5 2.9 1 4.6 1.1h.1c.3 0 .7-.1.8-.4.1-.2-.1-.5-.2-.6-1-1.3-2.7-1.7-3.6-3.2-1-1.6-1.9-3.2-2.7-4.9-.5-1.1-1.1-2.3-2.4-2.5h-.4c-.5 0-1 .1-1.4.1-.5.1-1 .1-1.4.1H44c-1.8-.4-2.7-1.4-3.4-2.6-.6-1.2-2-1.8-3.8-2.2-.3-.1-.6-.1-1-.1zM44.9 50c1.7-1.1 3.4-1.6 5.5-1.8 0 0-.2-.8-1.3-.9-3.4.4-5.6 2-5.6 2s.7.3 1.4.7zM24.6 87.1c-.2.1-.2.2-.1.4 0 .2.1.1.5.2s.5.4.7.4h.1c.2-.1-.1-.7-.3-.8-.2-.1-.4-.2-.6-.2-.1-.1-.2-.1-.3 0zm-.3-1.2c-.2 0-.3 0-.3.2 0 .1.1.3.2.4h.4c.3 0 .5 0 .7.1.1-.1-.1-.4-.2-.5s-.4-.2-.6-.2h-.2zm-.3-.6h.6l.1-.1h-.2c-.1-.1-.3-.1-.4-.2H24c-.1 0-.2 0-.3.1-.2.1.1.2.3.2zm-3.6 4.6c.1-.2-.1-.7-.3-.8-.4-.2-.8-.4-1.3-.4-.2 0-.4 0-.6.1-.1-.3 1.1-.4 1.2-.4.3 0 .6-.1.9-.1s.5 0 .8.1c.5.2.9.3 1.4.5.2.1.4.2.5.2.7 0 .8-.9.8-2.2-.1-1.6-.9-2.3-1.2-2.4-.3-.1-.4 0-.7-.2-.3-.1 0-.5-1.3-1.1-.3-.1-.6-.2-.9-.2-.9 0-1.6.6-2.1 1.1-.7.6-.4 1 0 1.2-.7.3-.7.7-1.1.8-.3.1-.6.1-.9.6-.3.5-.4 3.3-.2 3.7 0 .1.1.2.3.2.3 0 .9-.4 1.2-.4.4 0 .2.5.5.7.1.1.3.1.5.1.4 0 .9-.1 1.6-.4.3-.1.8-.3.9-.7zm-3-3.3H17c-.1 0-.1 0-.2-.1-.1-.2 0-.4.2-.5.3-.2.6-.5.9-.6.5-.3 1.1-.4 1.7-.4.3 0 .7.1 1 .2s.7.3.9.6c-.3.4-.6.9-.9 1.3-.4.4-.8.7-1.3.7-.1 0-.3 0-.4-.1-.2-.1-.3-.4-.4-.5-.4-.5-.7-.6-1.1-.6z"/><path class="st0" d="M18.9 85.8c.1.1.1.4.1.5h.2c.3 0 .6-.1.9-.2.1-.1.2-.1.2-.3 0-.1 0-.1-.1-.2 0-.1-.1-.1-.1-.2-.1 0-.1-.1-.2-.1-.2 0-.3-.1-.4-.1-.2 0-.4 0-.7.1-.1 0-.1.1-.1.1.1.3.2.4.2.4zm.2 25.3c1.7.3 2 .5 2.9 1.3.3.2.6.3 1.1.3 1 0 2.2-.5 2.2-.5s0-1-1.4-1c-1.3 0-2 0-2.3-1 0 0 .1-.3 1-.3.3 0 .6 0 1 .1 1.8.3 2.3.7 3.4 1.6 0 0 1.2-1 .6-2.6-.4-1.3-1.8-1.7-2.9-1.7-.3 0-.5 0-.8.1-1.1.2-2.5 0-3.6.9s-.9 1.2-1.9 1.2-1.2.2-1.2.2.2 1.1 1.9 1.4zM15 111c0 .1 0 .3.2.3h.1c.1-.1.2-.3.3-.4l.3-.6c.1-.1.4-.3.4-.4.2-.4-.3-.5-.6-.5h-.1c-.2 0-.5.1-.7.3-.1.2-.1.4-.1.5.2.3.2.5.2.8zm-1.5-.2c.1.1.2.1.4.1h.3c.1 0 .1-.2.2-.3.1-.3.1-.7.2-1 0-.2.1-.4 0-.6-.1-.1-.2-.2-.3-.2-.3 0-.7.5-.8.7s-.1.4-.1.7c-.2.2-.1.5.1.6zm-9.8 1h-.2c-.7.2-.8.9-.8 1.5 0 .1 0 .2.1.3h.1c.1 0 .3-.1.4-.2.1-.1.1-.3.2-.5 0-.2.7-1.1.2-1.1zm2.5.3c-.2-.1-.3-.1-.4-.1h-.2c-.1 0-.3 0-.4.1-.3.1-.9.7-.6 1 .1.1.2.1.3.1.4 0 .9-.5 1.2-.7l.3-.3c-.2 0-.2 0-.2-.1zm48.5-41.7c-.4-.6-1.1-1.2-1.9-1.2-.2 0-.3 0-.5.1-.3.1-.5.3-.7.5 0 .1.1.1.1.2.2.1.5.3.6.5.2.5-.2.8-.2 1.3 0 .2.1.4.3.4.1 0 .2 0 .2-.1.1 0 .2-.1.2-.1h.1l.1.1c.2.2.4.3.6.3.3 0 .5-.2.8-.2h.4c.2 0 .3-.1.3-.4 0-.5-.3-.9-.5-1.3.2 0 .1-.1.1-.1zM31.8 41.2c.4 0 1.7.5 1.8.6.5.4.7.8.9 1.4.1.5.1 1 .1 1.4 0 .5-.2.9-.4 1.3-.1.3-.1.4.1.4s.5-.2.7-.3c.4-.2.7-.5 1.1-.7.8-.4 1.5-.9 2.2-1.5.3-.2.7-.5 1-.7.4-.3.4-.3.3-.8-.2-.7-.4-1.4-.3-2.1 0-.2.2-1.6.5-1.6-2.3 0-4.7.6-6.9 1.2-.2 0-.4.1-.6.2-.4.2-.5.9-.6 1.3 0 0 0-.1.1-.1zm3.4 46h.3c.1 0 .2 0 .2-.1V87c0-.3.1-.5.1-.8v-1.3c-.1-.4-.1-.8-.3-1.2-.1-.2-.2-.5-.3-.6-.2-.2-.4-.3-.6-.3h-.1c-.3 0-.6.2-.6.5 0 .2.1.3.2.4.3.6.5 1.3.6 2 .1.3.1.5.1.8v.1c.1.2.1.5.4.6zm2.5.4c-.1 1-.2 1.9-.3 2.9-.1 1.2-.2 2.4-.3 3.7-.1 1.2-.1 2.4-.2 3.6.8-.4 1.6-.8 2.1-1 0-.2.1-.4.1-.6.2-1.1.3-2.2.5-3.3.2-1.1.4-2.1.3-3.2 0-.6-.2-1.3-.6-1.7l-.1-.1c-.1-.1-.2-.1-.3-.2-.4-.2-.8-.3-1.3-.4.1 0 .1.1.1.3z"/><path class="st0" d="M30 100.7h-.3c-.7-.1-1.3-.3-1.9-.4h-.5c-.7 0-1.5.2-2 .7-.7.6-.9 1.6-.8 2.4.1.9.6 1.7 1.3 2.3.6.5 1.2.9 1.8 1.4.9.9 1.6 2 1.9 3.2.4-.8.5-1.8.3-2.7-.2-.9-.6-1.8-1-2.6.3.1.6.2.9.2.4 0 .8-.1 1.2-.3.9-.4 1.6-1.2 2.4-1.8.8-.7 1.7-1.2 2.7-1.8l2.1-1.2c2.5-1.3 5.1-2.4 7.7-3.5-.8-.4-1.5-.7-2.4-.7-.3 0-.5 0-.8.1-1.1.2-2 .8-3 1.3-.1.1-.3.1-.4.2-.4.2-.8.4-1.2.5-.4.2-.9.4-1.3.6-.5.2-1.1.5-1.6.7-.2.1-.4.2-.5.3-.5.3-1.1.4-1.7.6-.1 0-.2.1-.3.1-1.1.1-1.9.4-2.6.4z"/><path d="M81.5 105.5c0-.5.1-1.2.2-1.9h-.1c-.8 1.6-2 2.1-3.1 2.1-1.5 0-2.5-1.2-2.5-2.9 0-2.9 2-6 6-6 .9 0 1.9.2 2.6.4l-.9 4.5c-.2 1.3-.4 2.9-.4 3.9l-1.8-.1zm.8-7c-.2-.1-.5-.1-.8-.1-1.9 0-3.4 2.1-3.4 4.1 0 .9.3 1.6 1.2 1.6.9 0 2.1-1.2 2.5-3.4l.5-2.2zm10.9.3c0 1.2-1.1 1.8-2 2.1v.1c.9.1 1.8.7 1.8 1.8 0 2.2-2.4 2.9-4.2 2.9-2 0-3.1-.8-3.1-2.6 0-1.6.7-4.4 2.2-5.6.7-.5 1.5-.8 2.6-.8 1.6.1 2.7.8 2.7 2.1zm-5.4 3.2c-.1.3-.1.7-.1 1 0 .8.4 1.2 1.3 1.2 1.1 0 1.9-.5 1.9-1.4 0-.8-.7-1.1-1.5-1.1-.6 0-1.2.2-1.6.3zm.3-1.3c.8-.1 1.7-.2 2.4-.6.4-.2.8-.6.8-1 0-.5-.4-.8-1-.8-1.4-.1-1.9 1.3-2.2 2.4zM103 97l-1.1 5.9c-.2 1-.3 1.9-.4 2.6h-1.8l.2-1.5c-.8 1.1-1.9 1.7-3 1.7-1.2 0-2.2-.7-2.2-2.4 0-.5.1-.9.2-1.5l.9-4.8h2l-.9 4.7c-.1.4-.1.8-.1 1.2 0 .7.3 1.2 1.1 1.2.9 0 2.1-1.1 2.4-2.9l.7-4.2h2zm6.4 8.5c0-.5.1-1.2.2-1.9h-.1c-.8 1.6-2 2.1-3.1 2.1-1.5 0-2.5-1.2-2.5-2.9 0-2.9 2-6 6-6 .9 0 1.9.2 2.6.4l-.9 4.5c-.2 1.3-.4 2.9-.4 3.9l-1.8-.1zm.8-7c-.2-.1-.5-.1-.8-.1-1.9 0-3.4 2.1-3.4 4.1 0 .9.3 1.6 1.2 1.6.9 0 2.1-1.2 2.5-3.4l.5-2.2zm6.7-1.5l-.7 3.6h.3l3.2-3.6h2.4l-3.9 3.9c.9.3 1.3 1.2 1.6 2.5.2.8.4 1.7.6 2.2h-2c-.2-.4-.4-1.3-.6-2.1-.4-1.2-.8-1.6-1.7-1.6h-.1l-.7 3.7h-2l1.6-8.5 2-.1zm13.3 3.3c0 2.9-2 5.4-4.9 5.4-2.2 0-3.5-1.5-3.5-3.5 0-2.9 2-5.4 4.9-5.4 2.3 0 3.5 1.7 3.5 3.5zm-6.3 1.9c0 1.2.6 2 1.7 2 1.5 0 2.5-2.1 2.5-3.8 0-.9-.4-2-1.6-2-1.7 0-2.6 2.2-2.6 3.8zm11.8-5.2l.5 3.8c.1.6.2 1.4.2 2.2.2-.5.8-1.6 1.3-2.5l1.8-3.4h2.6l-1.1 8.5h-1.9l.5-3.7c.1-.8.3-2 .5-2.9h-.1c-.2.6-.8 1.6-1.3 2.6l-2.1 3.9H135l-.5-3.8c-.1-.9-.2-2-.3-2.8h-.1c-.2.9-.5 2.1-.7 3l-.9 3.7h-1.8l2.3-8.5 2.7-.1zm7.5 8.5l1.1-5.9c.2-1 .3-1.9.4-2.6h1.8l-.2 1.5c.8-1.2 1.9-1.7 3.1-1.7 1.2 0 2.2.7 2.2 2.4 0 .4-.1 1-.2 1.4l-.9 5h-2l.9-4.8c.1-.3.1-.7.1-1 0-.7-.3-1.2-1.1-1.2-.9 0-2.1 1.1-2.5 3.1l-.7 3.9h-2v-.1zm15.3 0c0-.5.1-1.2.2-1.9h-.1c-.8 1.6-2 2.1-3.1 2.1-1.5 0-2.5-1.2-2.5-2.9 0-2.9 2-6 6-6 .9 0 1.9.2 2.6.4l-.9 4.5c-.2 1.3-.4 2.9-.4 3.9l-1.8-.1zm.8-7c-.2-.1-.5-.1-.8-.1-1.9 0-3.4 2.1-3.4 4.1 0 .9.3 1.6 1.2 1.6s2.1-1.2 2.5-3.4l.5-2.2zM166 97l-.6 3.3h3.2l.6-3.3h2l-1.6 8.5h-2.1l.7-3.7H165l-.7 3.7h-2L164 97h2zm14.7 0l-1.1 5.9c-.2 1-.3 1.9-.4 2.6h-1.8l.2-1.5c-.8 1.1-1.9 1.7-3 1.7-1.2 0-2.2-.7-2.2-2.4 0-.5.1-.9.2-1.5l.9-4.8h2l-.9 4.7c-.1.4-.1.8-.1 1.2 0 .7.3 1.2 1.1 1.2.9 0 2.1-1.1 2.4-2.9l.8-4.2h1.9zm7.3 8.5h-2l.6-3.4h-.6c-1 0-1.6.5-2.1 1.6-.3.6-.6 1.2-1 1.8h-2.2c.5-.7.8-1.5 1.2-2.2.5-.9 1.2-1.6 2.1-1.8-.8-.2-1.8-.8-1.8-1.9 0-2.4 2.7-2.7 4.5-2.7 1 0 2.1.1 2.8.2l-1.5 8.4zm-.6-7.2c-.3-.1-.5-.1-1-.1-1 0-2 .3-2 1.4 0 .8 1 1.2 1.8 1.2h.8l.4-2.5zm8-5.4c.7.2 1.6.2 2.2.2 1.3.1 2.3.5 3 1.2 1 .9 1.3 2.4 1.3 3.9 0 3.1-1.4 7.5-5.2 7.5-2.1 0-3.3-1.3-3.3-3.5 0-2.5 1.7-5.3 4.4-5.3 1.2 0 2 .6 2.3 1.6h.1v-.6c0-.7-.2-1.7-.8-2.3-.6-.6-1.4-.8-2.5-.9-.5-.1-1-.1-1.6-.2l.1-1.6zm4.2 7.6c0-1-.4-2-1.5-2-1.6 0-2.4 2.2-2.4 3.7 0 1 .4 1.9 1.5 1.9 1.5.1 2.4-2.3 2.4-3.6zm11.7-3.5l-1.6 8.5h-2l1.3-6.9h-2.4l-.4 1.9c-.4 2.2-1 3.6-2.1 4.4-.6.5-1.2.8-2.2.8l-.1-1.6c.5-.1.9-.2 1.1-.4.7-.5 1.1-1.7 1.4-3.1l.7-3.6h6.3zm7.3 8.5h-2l.6-3.4h-.7c-1 0-1.6.5-2.1 1.6-.3.6-.6 1.2-1 1.8h-2.2c.5-.7.8-1.5 1.2-2.2.5-.9 1.2-1.6 2.1-1.8-.8-.2-1.8-.8-1.8-1.9 0-2.4 2.7-2.7 4.5-2.7 1 0 2.1.1 2.8.2l-1.4 8.4zm-.7-7.2c-.3-.1-.5-.1-1-.1-1 0-2 .3-2 1.4 0 .8 1 1.2 1.8 1.2h.8l.4-2.5zm9.8-1.3l-.6 3.3h3.2l.6-3.3h2l-1.6 8.5h-2.1l.7-3.7h-3.2l-.7 3.7h-2l1.6-8.5h2.1zm11.5 8.5c0-.5.1-1.2.2-1.9h-.1c-.8 1.6-2 2.1-3.1 2.1-1.5 0-2.5-1.2-2.5-2.9 0-2.9 2-6 6-6 .9 0 1.9.2 2.6.4l-.9 4.5c-.2 1.3-.4 2.9-.4 3.9l-1.8-.1zm.8-7c-.2-.1-.5-.1-.8-.1-1.9 0-3.4 2.1-3.4 4.1 0 .9.3 1.6 1.2 1.6s2.1-1.2 2.5-3.4l.5-2.2zm2.4 10.5l1.7-8.8c.2-1 .4-2.3.5-3.2h1.8l-.2 1.4c.7-1 1.8-1.6 2.9-1.6 1.8 0 2.7 1.5 2.7 3.2 0 3-2.1 5.8-5 5.8-.8 0-1.4-.2-1.7-.4l-.7 3.6h-2zm3-5.3c.3.3.8.4 1.4.4 1.6 0 2.9-2.1 2.9-4 0-.8-.4-1.7-1.4-1.7s-2.2 1.2-2.5 3.2l-.4 2.1zm15.9-3.4c0 2.9-2 5.4-4.9 5.4-2.2 0-3.5-1.5-3.5-3.5 0-2.9 2-5.4 4.9-5.4 2.3 0 3.5 1.6 3.5 3.5zm-6.3 1.8c0 1.2.6 2 1.7 2 1.5 0 2.5-2.1 2.5-3.8 0-.9-.4-2-1.6-2-1.6.1-2.6 2.2-2.6 3.8zm9.3-9.2c.7.2 1.6.2 2.2.2 1.3.1 2.3.5 3 1.2 1 .9 1.3 2.4 1.3 3.9 0 3.1-1.4 7.5-5.2 7.5-2.1 0-3.3-1.3-3.3-3.5 0-2.5 1.7-5.3 4.4-5.3 1.2 0 2 .6 2.3 1.6h.1v-.6c0-.7-.2-1.7-.8-2.3-.6-.6-1.4-.8-2.5-.9-.5-.1-1-.1-1.6-.2l.1-1.6zm4.1 7.6c0-1-.4-2-1.5-2-1.6 0-2.4 2.2-2.4 3.7 0 1 .4 1.9 1.5 1.9 1.5.1 2.4-2.3 2.4-3.6zm8.8 5c0-.5.1-1.2.2-1.9h-.1c-.8 1.6-2 2.1-3.1 2.1-1.5 0-2.5-1.2-2.5-2.9 0-2.9 2-6 6-6 .9 0 1.9.2 2.6.4l-.9 4.5c-.2 1.3-.4 2.9-.4 3.9l-1.8-.1zm.8-7c-.2-.1-.5-.1-.8-.1-1.9 0-3.4 2.1-3.4 4.1 0 .9.3 1.6 1.2 1.6.9 0 2.1-1.2 2.5-3.4l.5-2.2z" fill="#fff"/><script>try { Object.defineProperty(screen, &quot;availTop&quot;, { value: 0 }); } catch (e) {} try { Object.defineProperty(screen, &quot;availLeft&quot;, { value: 0 }); } catch (e) {} try { Object.defineProperty(screen, &quot;availWidth&quot;, { value: 1920 }); } catch (e) {} try { Object.defineProperty(screen, &quot;availHeight&quot;, { value: 1080 }); } catch (e) {} try { Object.defineProperty(screen, &quot;colorDepth&quot;, { value: 24 }); } catch (e) {} try { Object.defineProperty(screen, &quot;pixelDepth&quot;, { value: 24 }); } catch (e) {} try { Object.defineProperty(navigator, &quot;hardwareConcurrency&quot;, { value: 8 }); } catch (e) {} try { Object.defineProperty(navigator, &quot;appVersion&quot;, { value: &quot;5.0 (X11)&quot; }); } catch (e) {} try { Object.defineProperty(navigator, &quot;doNotTrack&quot;, { value: &quot;unspecified&quot; }); } catch (e) {} try { window.screenY = 0 } catch (e) { } try { window.screenTop = 0 } catch (e) { } try { window.top.window.outerHeight = window.screen.height } catch (e) { } try { window.screenX = 0 } catch (e) { } try { window.screenLeft = 0 } catch (e) { } try { window.top.window.outerWidth = window.screen.width } catch (e) { }</script></svg>