<svg xmlns="http://www.w3.org/2000/svg" height="90" width="400" version="1.0"><path d="M1.1 62.712s-1.714-10.421 9.03-9.643c0 0 6.475.783 12.76 6.221 0 0 5.837 4.83 11.051-6.375 0 0 5.636-22.834 12.151-31.432 4.907-6.484 19.766-18.82 36.885-16.021 0 0-31.179 16.151-29.356 52.759 1.562 5.999 6.369 15.536 12.075 20.98 0 0-20.265 23.799-42.645.624L10.907 64.112s-3.252-4.906-7.783-2.646L1.1 62.712" fill-rule="evenodd" fill="#cba22e"/><path d="M131.68 30.831l-7.23 33.962h20.91c4.16 0 7.36-1.065 9.6-3.249 2.24-2.185 3.35-4.65 3.35-7.333 0-3.684-1.83-6.045-5.46-7.137v-.099c2.21-.685 3.85-1.774 4.87-3.298 1-1.514 1.48-3.158 1.48-4.873 0-1.338-.29-2.561-.94-3.691-.64-1.124-1.53-2.014-2.66-2.707-1.14-.686-2.31-1.111-3.54-1.28-1.22-.169-2.83-.295-4.73-.295h-15.65zm81.56 0l-2.71 12.649c-1.76-2.575-4.36-3.839-7.82-3.839-3.39 0-6.2 1.528-8.42 4.627-2.22 3.091-3.3 6.759-3.3 10.927 0 3.123.74 5.58 2.22 7.432 1.47 1.839 3.56 2.757 6.35 2.757 1.48 0 2.76-.211 3.84-.64 1.06-.431 2.31-1.28 3.64-2.51l.1.147-.5 2.412h8.77l7.28-33.962h-9.45zm30.62 0l-2.71 12.649c-1.76-2.575-4.37-3.839-7.83-3.839-3.38 0-6.2 1.528-8.41 4.627-2.22 3.091-3.3 6.759-3.3 10.927 0 3.123.74 5.58 2.21 7.432 1.48 1.839 3.57 2.757 6.35 2.757 1.48 0 2.77-.211 3.84-.64 1.08-.431 2.31-1.28 3.64-2.51l.05.147-.44 2.412h8.76l7.29-33.962h-9.45zm13.88 0l-7.34 33.962h9.5l2.31-10.632c.53-2.453 1.29-4.353 2.32-5.66 1.04-1.307 2.26-1.969 3.64-1.969 1.24 0 1.87.715 1.87 2.067 0 .408-.3 1.975-.89 4.775l-2.41 11.419h9.45l2.86-13.388c.61-2.906.93-4.873.93-5.857 0-1.638-.56-3.038-1.67-4.184-1.11-1.138-2.76-1.674-4.97-1.674-3.53 0-6.43 1.176-8.71 3.544l-.1-.098 2.61-12.305h-9.4zm84.56 0l-19.2 33.962h11.32l2.61-5.562h11.08l.49 5.562h10.28l-5.41-33.962H342.3zm25.94 0l-1.33 6.497h9.45l1.33-6.497h-9.45zm-227.55 6.891h4.48c1.65 0 2.73.228 3.29.689.57.462.89 1.138.89 1.968 0 .691-.26 1.377-.79 2.068a3.684 3.684 0 01-2.06 1.378c-.84.215-2.01.295-3.55.295h-3.59l1.33-6.398zm156.96 1.968c-4.26 0-7.42.601-9.45 1.871-2.03 1.262-3.36 3.085-3.93 5.414l8.81.935c.5-1.116 1.1-1.819 1.77-2.165.68-.345 1.53-.542 2.61-.542 1.03 0 1.89.221 2.51.591.63.368.93.86.93 1.476 0 .392-.11.943-.29 1.674-.92.278-2.74.545-5.47.837-3.07.307-5.46.675-7.23 1.083-1.79.407-3.31 1.167-4.53 2.313-1.21 1.14-1.82 2.794-1.82 4.971 0 1.914.7 3.617 2.07 5.07 1.36 1.453 3.58 2.166 6.69 2.166 3.05 0 5.8-1.136 8.27-3.397 0 .9.13 1.83.34 2.806h9.21c-.41-1.162-.64-2.28-.64-3.396 0-1.315.39-3.637 1.18-6.99.85-3.538 1.28-6.081 1.28-7.629 0-2.313-.82-4.052-2.51-5.266-1.69-1.215-4.96-1.822-9.8-1.822zm48.68 0h.1l1.04 12.355h-6.99l5.85-12.355zm49.42 0c-1.33 0-2.52.345-3.64 1.083-1.12.744-2.42 2.197-3.89 4.381l-.1-.099 1.09-4.823h-8.82l-5.26 24.561h9.5l1.92-9.155c.61-2.861 1.48-4.96 2.61-6.251 1.13-1.3 2.62-1.969 4.43-1.969.56 0 1.19.126 1.92.295l3.49-7.284c-1.16-.493-2.24-.739-3.25-.739zm-231.04.542l-2.86 13.142c-.64 3.006-.98 5.091-.98 6.152 0 1.625.55 2.981 1.67 4.135 1.13 1.146 2.81 1.723 5.07 1.723 3.76 0 6.94-1.485 9.5-4.43l.1.098-.84 3.741h8.86l5.27-24.561H181l-2.31 10.632c-.53 2.431-1.27 4.311-2.32 5.611-1.03 1.293-2.27 1.969-3.69 1.969-1.21 0-1.82-.695-1.82-2.018v-.05c0-.423 0-.799.05-1.083.05-.285.27-1.289.64-3.051l2.61-12.01h-9.45zm201.56 0L361 64.793h9.45l5.32-24.561h-9.5zm-161.05 5.759c.94 0 1.78.368 2.51 1.083.74.722 1.08 1.767 1.08 3.199 0 2.045-.44 4.052-1.38 6.005-.93 1.953-2.29 2.904-4.03 2.904-.96 0-1.72-.36-2.32-1.083-.59-.73-.88-1.766-.88-3.15 0-2.469.49-4.595 1.47-6.35 1-1.752 2.18-2.608 3.55-2.608zm30.61 0c.94 0 1.77.368 2.51 1.083.73.722 1.09 1.767 1.09 3.199 0 2.045-.45 4.052-1.38 6.005-.94 1.953-2.29 2.904-4.04 2.904-.96 0-1.72-.36-2.31-1.083-.59-.73-.89-1.766-.89-3.15 0-2.469.49-4.595 1.48-6.35.99-1.752 2.17-2.608 3.54-2.608zm-97.8 4.577h5.66c1.76 0 2.93.299 3.5.837.57.532.88 1.242.88 2.166 0 2.63-2 3.937-5.95 3.937h-5.62l1.53-6.94zm161.54 3.249c-.4 2.36-1.15 4.01-2.31 4.971-1.17.969-2.35 1.477-3.54 1.477-.85 0-1.58-.237-2.12-.689-.55-.463-.79-1.077-.79-1.871 0-.752.38-1.413 1.13-1.969.76-.553 3.29-1.189 7.63-1.919z" fill-rule="evenodd" fill="#1354a8"/><path d="M40.969 56.022s.378-9.476 7.047-9.476c6.659 0 10.758 8.584 18.834 8.584 8.068 0 10.252-17.804 11.405-22.549C79.409 27.834 86.962.032 121.31.032c0 0-27.166 15.899-27.166 48.184S131.44 87.939 135.4 87.939c0 0-8.46 1.022-14.73 1.022-6.28 0-19.48-1.66-28.58-9.352-9.098-7.691-20.249-6.913-25.24-3.33 0 0-14.721-29.879-25.881-20.257" fill-rule="evenodd" fill="#bcbec0"/></svg>