<svg version="1.0" viewBox="0 0 800 200" xmlns="http://www.w3.org/2000/svg"><path d="M685.17 69.208h19.604v78.415H685.17v-8.288c-3.844 3.651-7.7 6.282-11.568 7.892-3.868 1.61-8.06 2.414-12.577 2.414-10.138 0-18.907-3.928-26.306-11.784-7.4-7.856-11.099-17.622-11.099-29.297 0-12.108 3.58-22.03 10.739-29.766 7.16-7.736 15.856-11.604 26.09-11.604 4.709 0 9.13.889 13.261 2.667 4.132 1.778 7.952 4.444 11.459 8v-8.649zm-20.685 16.144c-6.102 0-11.171 2.15-15.207 6.45-4.036 4.3-6.054 9.814-6.054 16.541 0 6.775 2.054 12.348 6.162 16.721 4.108 4.373 9.165 6.559 15.171 6.559 6.198 0 11.34-2.15 15.423-6.45 4.084-4.3 6.126-9.934 6.126-16.901 0-6.823-2.042-12.348-6.126-16.577-4.084-4.229-9.25-6.343-15.496-6.343zm53.771-16.144h19.748v78.415h-19.748V69.208zm31.593 0h16.865v9.874c1.826-3.892 4.252-6.847 7.28-8.865 3.026-2.018 6.342-3.027 9.945-3.027 2.547 0 5.214.673 8 2.018l-6.126 16.937c-2.306-1.153-4.204-1.73-5.694-1.73-3.027 0-5.585 1.874-7.675 5.622-2.09 3.748-3.136 11.099-3.136 22.054l.073 3.82v31.712h-19.532V69.208z" fill="#f2734a"/><path d="M30.077 38.938v38.919c3.555-3.555 7.4-6.222 11.532-8 4.132-1.778 8.553-2.667 13.261-2.667 10.234 0 18.931 3.868 26.09 11.604 7.16 7.736 10.739 17.658 10.739 29.766 0 11.676-3.7 21.442-11.099 29.297-7.4 7.856-16.168 11.784-26.306 11.784-4.517 0-8.72-.805-12.613-2.414-3.892-1.61-7.76-4.24-11.604-7.892v8.288H10.545V38.933h19.532zm20.685 46.415c-6.198 0-11.339 2.114-15.423 6.342-4.084 4.229-6.126 9.754-6.126 16.577 0 6.967 2.042 12.601 6.126 16.901 4.084 4.3 9.225 6.45 15.423 6.45 6.006 0 11.063-2.185 15.171-6.558 4.108-4.372 6.162-9.946 6.162-16.72 0-6.728-2.018-12.24-6.054-16.542-4.036-4.3-9.13-6.45-15.279-6.45zm105.26-16.144h19.604v78.415h-19.604v-8.288c-3.844 3.651-7.7 6.282-11.568 7.892-3.868 1.61-8.06 2.414-12.577 2.414-10.138 0-18.907-3.928-26.306-11.784-7.4-7.856-11.099-17.622-11.099-29.297 0-12.108 3.58-22.03 10.739-29.766 7.16-7.736 15.856-11.604 26.09-11.604 4.709 0 9.13.889 13.261 2.667 4.132 1.778 7.952 4.444 11.459 8v-8.649zm-20.685 16.144c-6.102 0-11.171 2.15-15.207 6.45-4.036 4.3-6.054 9.814-6.054 16.541 0 6.775 2.054 12.348 6.162 16.721 4.108 4.373 9.165 6.559 15.171 6.559 6.198 0 11.34-2.15 15.423-6.45 4.084-4.3 6.126-9.934 6.126-16.901 0-6.823-2.042-12.348-6.126-16.577-4.084-4.229-9.25-6.343-15.496-6.343zm50.342-46.415h19.532v38.198c3.844-3.315 7.712-5.802 11.604-7.46 3.892-1.657 7.832-2.486 11.82-2.486 7.784 0 14.342 2.69 19.676 8.072 4.564 4.66 6.847 11.508 6.847 20.541v51.82H235.77v-34.378c0-9.08-.433-15.23-1.297-18.45-.865-3.22-2.343-5.622-4.433-7.207-2.09-1.586-4.673-2.378-7.748-2.379-3.988 0-7.411 1.322-10.27 3.964-2.859 2.643-4.84 6.247-5.946 10.811-.576 2.355-.865 7.736-.864 16.145v31.495H185.68V38.935zm137.88 30.27h19.604v78.415h-19.604v-8.288c-3.844 3.651-7.7 6.282-11.568 7.892-3.868 1.61-8.06 2.414-12.577 2.414-10.138 0-18.907-3.928-26.306-11.784-7.4-7.856-11.099-17.622-11.099-29.297 0-12.108 3.58-22.03 10.739-29.766 7.16-7.736 15.856-11.604 26.09-11.604 4.709 0 9.13.889 13.261 2.667 4.132 1.778 7.952 4.444 11.459 8v-8.649zm-20.685 16.144c-6.102 0-11.171 2.15-15.207 6.45-4.036 4.3-6.054 9.814-6.054 16.541 0 6.775 2.054 12.348 6.162 16.721 4.108 4.373 9.165 6.559 15.171 6.559 6.198 0 11.34-2.15 15.423-6.45 4.084-4.3 6.126-9.934 6.126-16.901 0-6.823-2.042-12.348-6.126-16.577-4.084-4.229-9.25-6.343-15.496-6.343zm50.125-16.144h19.748v9.009c3.363-3.7 7.1-6.462 11.207-8.288 4.108-1.826 8.589-2.739 13.441-2.74 4.9.001 9.321 1.202 13.261 3.605 3.94 2.402 7.111 5.91 9.513 10.522 3.124-4.612 6.955-8.12 11.496-10.523 4.54-2.402 9.502-3.603 14.883-3.603 5.574 0 10.474 1.297 14.703 3.892 4.229 2.595 7.268 5.982 9.118 10.162 1.85 4.18 2.774 10.979 2.774 20.396v45.982h-19.82v-39.784c0-8.89-1.105-14.907-3.315-18.054-2.21-3.147-5.525-4.72-9.946-4.721-3.363 0-6.378.961-9.045 2.883-2.667 1.922-4.649 4.577-5.946 7.964-1.297 3.387-1.946 8.829-1.946 16.324v35.387h-19.82v-37.982c0-7.015-.516-12.096-1.55-15.243-1.032-3.147-2.582-5.49-4.648-7.027-2.066-1.538-4.565-2.306-7.496-2.306-3.267 0-6.234.973-8.9 2.919-2.667 1.946-4.661 4.672-5.982 8.18-1.322 3.507-1.982 9.033-1.982 16.577v34.883h-19.748V69.207zm188.26 0h19.604v78.415h-19.604v-8.288c-3.844 3.651-7.7 6.282-11.568 7.892-3.868 1.61-8.06 2.414-12.577 2.414-10.138 0-18.907-3.928-26.306-11.784s-11.099-17.622-11.099-29.297c0-12.108 3.58-22.03 10.739-29.766 7.16-7.736 15.856-11.604 26.09-11.604 4.709 0 9.13.889 13.261 2.667 4.132 1.778 7.952 4.444 11.46 8v-8.649zm-20.685 16.144c-6.102 0-11.171 2.15-15.207 6.45-4.036 4.3-6.054 9.814-6.054 16.541 0 6.775 2.054 12.348 6.162 16.721 4.108 4.373 9.165 6.559 15.171 6.559 6.198 0 11.34-2.15 15.423-6.45 4.084-4.3 6.126-9.934 6.126-16.901 0-6.823-2.042-12.348-6.126-16.577-4.084-4.229-9.25-6.343-15.496-6.343zm98.27-5.19l-12.18 12.18c-4.949-4.9-9.441-7.35-13.478-7.35-2.21 0-3.94.468-5.19 1.405-1.248.937-1.873 2.102-1.873 3.495 0 1.057.396 2.03 1.19 2.92.792.888 2.75 2.101 5.873 3.639l7.207 3.603c7.592 3.748 12.805 7.568 15.64 11.46 2.835 3.891 4.252 8.456 4.253 13.693 0 6.967-2.56 12.781-7.676 17.442-5.117 4.661-11.976 6.991-20.577 6.991-11.436 0-20.565-4.468-27.387-13.405l12.108-13.189a27.968 27.968 0 008.108 6.523c3.1 1.658 5.85 2.487 8.252 2.487 2.595 0 4.685-.625 6.27-1.874 1.586-1.25 2.379-2.691 2.379-4.325 0-3.027-2.859-5.982-8.577-8.865l-6.63-3.315c-12.685-6.39-19.027-14.39-19.027-24 0-6.198 2.39-11.495 7.171-15.892 4.78-4.396 10.895-6.594 18.342-6.594 5.093 0 9.886 1.117 14.378 3.35 4.493 2.235 8.3 5.443 11.423 9.623z" fill="#1f6ba6"/></svg>