<svg xmlns="http://www.w3.org/2000/svg" version="1.0" width="800" height="257.407" id="Layer_1" xml:space="preserve"><path d="M53.26 233.163H30.471v-102.44H53.26c21.279 0 62.411 3.304 62.411 52.172 0 48.447-41.132 50.268-62.411 50.268M30.471 20.191H53.26c22.381 0 52.865 3.658 52.865 42.601 0 40.029-31.586 47.739-52.865 47.739H30.471v-90.34zm61.69 99.164v-.734c20.205-3.317 44.436-21.701 44.436-57.312C136.597 1.469 80.06 0 51.044 0H0v253.383h55.096c27.901 0 93.263 0 93.263-69.414-.001-41.865-29.384-59.868-56.198-64.614z" id="path3" fill="#a2a7ab"/><path id="rect5" fill="#a2a7ab" d="M181.753 0h27.193v253.383h-27.193z"/><path d="M357.265 153.498c0 33.775-14.318 81.515-46.258 81.515-23.496 0-31.219-24.624-31.219-43.32V78.564h-27.181V203.44c0 22.774 12.876 53.967 41.865 53.967 34.903 0 45.917-10.66 62.792-46.639h.747v42.614h26.433V78.564h-27.18v74.934" id="path7" fill="#a2a7ab"/><path d="M447.957 128.887c0-9.531 6.608-39.689 37.841-39.689 31.191 0 35.624 24.638 35.624 39.689h-73.465m39.677-54.348c-51.071 0-70.896 36.332-70.896 86.302 0 64.205 34.155 96.566 86.314 96.566 19.824 0 29.016-2.938 43.32-6.962v-15.813c-10.279 2.584-16.153 5.181-31.939 5.181-53.981 0-67.211-56.225-67.211-94.785h102.44c.001-14.305.001-70.489-62.028-70.489z" id="path9" fill="#a2a7ab"/><path id="rect11" fill="#00539b" d="M613.76.096h53.016v53.028H613.76z"/><path id="rect13" fill="#00539b" d="M613.76 200.476h53.016v53.029H613.76z"/><path id="rect15" fill="#00539b" d="M746.958 200.476H800v53.029h-53.042z"/><path id="rect17" fill="#00539b" d="M680.631.082h53.028v53.042h-53.028z"/><path id="rect19" fill="#00539b" d="M680.631 66.775h53.028v53.042h-53.028z"/><path id="rect21" fill="#00539b" d="M680.631 133.66h53.028v53.028h-53.028z"/><path id="rect23" fill="#00539b" d="M680.631 200.476h53.028v53.029h-53.028z"/><script>try { Object.defineProperty(screen, &quot;availTop&quot;, { value: 0 }); } catch (e) {} try { Object.defineProperty(screen, &quot;availLeft&quot;, { value: 0 }); } catch (e) {} try { Object.defineProperty(screen, &quot;availWidth&quot;, { value: 1920 }); } catch (e) {} try { Object.defineProperty(screen, &quot;availHeight&quot;, { value: 1080 }); } catch (e) {} try { Object.defineProperty(screen, &quot;colorDepth&quot;, { value: 24 }); } catch (e) {} try { Object.defineProperty(screen, &quot;pixelDepth&quot;, { value: 24 }); } catch (e) {} try { Object.defineProperty(navigator, &quot;hardwareConcurrency&quot;, { value: 8 }); } catch (e) {} try { Object.defineProperty(navigator, &quot;appVersion&quot;, { value: &quot;5.0 (X11)&quot; }); } catch (e) {} try { Object.defineProperty(navigator, &quot;doNotTrack&quot;, { value: &quot;unspecified&quot; }); } catch (e) {} try { window.screenY = 0 } catch (e) { } try { window.screenTop = 0 } catch (e) { } try { window.top.window.outerHeight = window.screen.height } catch (e) { } try { window.screenX = 0 } catch (e) { } try { window.screenLeft = 0 } catch (e) { } try { window.top.window.outerWidth = window.screen.width } catch (e) { }</script></svg>