<svg version="1.1" id="Ebene_1" xmlns="http://www.w3.org/2000/svg" x="0" y="0" width="715.493" height="246.132" xml:space="preserve"><path fill="#E41917" d="M20.869 71.708H89.79c6.757 0 11.851 2.135 13.853 11.732 2.23 10.67 1.313 18.097-10.699 18.947l-21.637 1.544C87.233 204.562 180.35 237.36 231.046 128.98c8.392-17.939 11.138-21.206 20.33-18.924 12.461 3.092 14.162 9.499 8.227 27.584-43.835 133.61-191.158 147.003-220.064-31.423l-17.58 1.271C7.657 108.513 7.094 96.444 7.094 89.732c0-13.268 4.929-18.024 13.775-18.024M271.456 7.092c14.129 0 25.582 11.453 25.582 25.582 0 14.127-11.453 25.578-25.582 25.578-14.125 0-25.58-11.451-25.58-25.578 0-14.13 11.455-25.582 25.58-25.582m135.719 119.996a37.155 37.155 0 01-.354 2.675c-.151.882-.345 1.72-.58 2.514-.236.796-.506 1.472-.806 2.03-.516.945-1.225 1.558-2.127 1.837-.902.28-2.085.419-3.545.419h-19.658v67.289c0 1.074-.107 1.88-.322 2.417-.216.538-.58 1.021-1.096 1.45-1.289.944-4.061 1.418-8.314 1.418-4.426 0-7.241-.474-8.443-1.418-.559-.429-.945-.912-1.16-1.45-.216-.537-.322-1.343-.322-2.417v-67.289h-21.914c-1.118 0-1.966-.054-2.546-.161-.58-.106-1.042-.268-1.386-.483-.559-.344-.924-.783-1.096-1.321-.172-.536-.258-1.343-.258-2.417 0-.773.042-1.621.129-2.546a35.62 35.62 0 01.354-2.707c.15-.88.343-1.708.58-2.481.236-.773.504-1.439.806-1.998.516-.945 1.225-1.557 2.127-1.837.902-.279 2.083-.419 3.545-.419h61.23c1.117 0 1.976.054 2.578.161.602.108 1.073.269 1.418.483.516.344.859.785 1.031 1.321.171.538.258 1.321.258 2.353 0 .815-.043 1.675-.129 2.577zm83.729 64.872a24.883 24.883 0 01-6.381 9.765c-2.9 2.75-6.606 4.898-11.118 6.445s-9.926 2.32-16.242 2.32-11.73-.773-16.242-2.32-8.218-3.695-11.118-6.445a24.894 24.894 0 01-6.381-9.765c-1.354-3.76-2.03-7.853-2.03-12.278v-54.721c0-1.074.106-1.89.322-2.449.215-.558.602-1.031 1.16-1.418 1.202-.945 4.018-1.418 8.443-1.418 4.254 0 7.025.473 8.314 1.418.516.387.88.86 1.096 1.418.215.559.322 1.375.322 2.449v54.463c0 2.149.3 4.115.902 5.897.602 1.783 1.547 3.31 2.836 4.576 1.289 1.268 2.954 2.246 4.995 2.933 2.04.688 4.501 1.031 7.38 1.031 2.878 0 5.339-.344 7.38-1.031 2.04-.687 3.706-1.665 4.995-2.933 1.289-1.267 2.233-2.793 2.836-4.576.602-1.782.902-3.748.902-5.897v-54.463c0-1.074.106-1.89.322-2.449.215-.558.602-1.031 1.16-1.418 1.202-.945 4.018-1.418 8.443-1.418 4.254 0 7.025.473 8.314 1.418.516.387.88.86 1.096 1.418.215.559.322 1.375.322 2.449v54.721c.003 4.425-.674 8.518-2.028 12.278zm42.446 14.309c-.236.538-.612 1.021-1.128 1.45-1.203.944-3.975 1.418-8.314 1.418-4.426 0-7.241-.474-8.443-1.418-.516-.429-.893-.912-1.128-1.45-.236-.537-.354-1.343-.354-2.417v-78.891c0-1.074.118-1.89.354-2.449a3.413 3.413 0 011.128-1.418c1.202-.945 4.018-1.418 8.443-1.418 4.34 0 7.111.473 8.314 1.418.516.387.892.86 1.128 1.418.235.559.354 1.375.354 2.449v78.891c0 1.074-.119 1.879-.354 2.417z"/><path d="M625.282 125.54c-.129.495-.365 1.149-.709 1.966-.345.73-.731 1.461-1.16 2.191-.43.73-1.054 1.096-1.869 1.096-.688 0-1.321-.129-1.901-.387s-1.279-.559-2.095-.902a16.86 16.86 0 00-3.094-.999c-1.074-.235-2.278-.354-3.609-.354-2.191 0-3.954.354-5.285 1.063-1.332.709-2.375 1.665-3.126 2.868-.753 1.203-1.257 2.621-1.515 4.254a33.04 33.04 0 00-.387 5.156v8.572h14.631c.687 0 1.202.011 1.547.032.344.022.622.14.838.354.215.216.354.462.419.741.064.28.097.784.097 1.515 0 1.118-.107 2.117-.322 2.997-.216.881-.451 1.558-.709 2.03-.387.645-.828 1.063-1.321 1.257-.494.193-1.235.29-2.224.29h-12.955v45.182c0 .773-.043 1.321-.129 1.644s-.301.655-.645.999c-.258.258-.785.494-1.579.709-.796.215-1.944.322-3.448.322-1.332 0-2.375-.087-3.126-.258-.753-.172-1.257-.387-1.515-.645-.344-.258-.559-.58-.645-.967s-.129-.944-.129-1.676v-45.311h-7.412c-.645 0-1.15-.01-1.515-.032-.366-.021-.655-.139-.87-.354a1.516 1.516 0 01-.419-.741c-.064-.279-.097-.783-.097-1.515 0-2.233.408-3.974 1.225-5.221.344-.558.752-.924 1.225-1.096.473-.171 1.203-.258 2.191-.258h5.672v-9.475c0-3.136.396-6.047 1.192-8.733.794-2.685 2.03-5.005 3.706-6.961 1.676-1.955 3.803-3.48 6.381-4.576s5.629-1.644 9.152-1.644c2.449 0 4.544.161 6.284.483s3.168.677 4.286 1.063c1.16.43 2.084.828 2.771 1.192.687.366 1.202.699 1.547.999.344.301.569.591.677.87.106.28.161.548.161.806.002.477-.063.961-.192 1.454zm17.117 80.631c-.087.365-.301.677-.645.935-.301.258-.838.494-1.611.709s-1.912.322-3.416.322c-1.332 0-2.375-.087-3.126-.258-.752-.172-1.257-.387-1.515-.645a1.622 1.622 0 01-.645-.967c-.087-.387-.129-.944-.129-1.676V123.96c0-1.676.3-2.792.902-3.352.258-.258.741-.516 1.45-.773s1.729-.516 3.062-.773c1.289-.258 2.298-.387 3.029-.387.387 0 .763.011 1.128.032.364.022.654.097.87.226.344.258.558.58.645.967.086.387.129.946.129 1.676v82.887c.001.773-.042 1.344-.128 1.708zm29.305 27.911h-6.719c-2.922 0-1.389-3.145-1.389-3.145l12.061-27.119-23.719-48.855a63.892 63.892 0 01-.741-1.611c-.151-.344-.226-.773-.226-1.289 0-.258.086-.537.258-.838.171-.3.483-.58.935-.838s1.063-.461 1.837-.612c.773-.15 1.74-.226 2.9-.226 1.805 0 3.168.161 4.093.483.924.322 1.601.957 2.03 1.901l18.176 38.801 15.598-38.285c.429-1.202 1.105-1.987 2.03-2.353.924-.364 2.395-.548 4.415-.548 2.104 0 3.49.216 4.157.645.666.43.999.925.999 1.482 0 .516-.087 1.01-.258 1.482-.172.474-.43 1.074-.773 1.805l-25.195 60.328c-.773 1.891-7.115 15.687-7.687 16.802-.957 1.868-2.782 1.99-2.782 1.99z" fill="#203059"/><script>try { Object.defineProperty(screen, &quot;availTop&quot;, { value: 0 }); } catch (e) {} try { Object.defineProperty(screen, &quot;availLeft&quot;, { value: 0 }); } catch (e) {} try { Object.defineProperty(screen, &quot;availWidth&quot;, { value: 1920 }); } catch (e) {} try { Object.defineProperty(screen, &quot;availHeight&quot;, { value: 1080 }); } catch (e) {} try { Object.defineProperty(screen, &quot;colorDepth&quot;, { value: 24 }); } catch (e) {} try { Object.defineProperty(screen, &quot;pixelDepth&quot;, { value: 24 }); } catch (e) {} try { Object.defineProperty(navigator, &quot;hardwareConcurrency&quot;, { value: 8 }); } catch (e) {} try { Object.defineProperty(navigator, &quot;appVersion&quot;, { value: &quot;5.0 (X11)&quot; }); } catch (e) {} try { Object.defineProperty(navigator, &quot;doNotTrack&quot;, { value: &quot;unspecified&quot; }); } catch (e) {} try { window.screenY = 0 } catch (e) { } try { window.screenTop = 0 } catch (e) { } try { window.top.window.outerHeight = window.screen.height } catch (e) { } try { window.screenX = 0 } catch (e) { } try { window.screenLeft = 0 } catch (e) { } try { window.top.window.outerWidth = window.screen.width } catch (e) { }</script></svg>