<svg xmlns="http://www.w3.org/2000/svg" width="544.079" height="162.48" viewBox="0 0 143.954 42.989" version="1.1" id="svg23709"><defs id="defs23703"><linearGradient id="SVGID_1_" gradientUnits="userSpaceOnUse" x1="56.794" y1="161.281" x2="135.283" y2="147.441" gradientTransform="translate(35.37 131.3) scale(.26458)"><stop offset="0" id="stop23567" stop-color="#21409a"/><stop offset=".075" id="stop23569" stop-color="#20429b"/><stop offset=".146" id="stop23571" stop-color="#1e489e"/><stop offset=".215" id="stop23573" stop-color="#1a53a5"/><stop offset=".283" id="stop23575" stop-color="#1560ae"/><stop offset=".349" id="stop23577" stop-color="#0d71ba"/><stop offset=".416" id="stop23579" stop-color="#0088ca"/><stop offset=".48" id="stop23581" stop-color="#00a4df"/><stop offset=".53" id="stop23583" stop-color="#00c0f3"/><stop offset=".565" id="stop23585" stop-color="#00b2e9"/><stop offset=".726" id="stop23587" stop-color="#017fc3"/><stop offset=".857" id="stop23589" stop-color="#165eac"/><stop offset=".951" id="stop23591" stop-color="#1e489e"/><stop offset="1" id="stop23593" stop-color="#21409a"/></linearGradient></defs><g id="layer1" transform="translate(-42.672 -146.493)"><g id="g23775" transform="translate(.5 -.5)"><path class="st0" d="M146.97 174.587l-3.968 4.656h-3.122l13.15-15.425h6.217l1.64 15.425h-6.19l-.504-4.656zm6.985-2.329l-.555-5.185-4.419 5.185z" id="path23549" fill="#21409a" stroke-width=".265"/><path class="st1" d="M89.9 163.818s3.333-.106 2.487 2.752l-.741 2.355c-.74 1.984-2.037 2.249-3.995 2.249 2.01 0 3.069.555 2.646 1.984l-1.032 3.254c-.9 2.329-2.567 2.805-5.927 2.805H69.686l4.974-15.425H89.9zm-11.721 8.308l-1.297 4.022h5.107c.529 0 1.217-.291 1.402-.847l.688-2.17c.159-.502-.053-1.005-.794-1.005zm1.905-5.98l-1.164 3.652H84c.767 0 1.217-.291 1.402-.847l.582-1.799c.159-.503-.053-1.005-.82-1.005z" id="path23551" clip-rule="evenodd" fill="#21409a" fill-rule="evenodd" stroke-width=".265"/><path class="st1" d="M123.343 167.866h10.822c1.825 0 2.936 1.085 2.46 2.62l-1.323 4.1h-10.9l-.424 1.324c-.185.661.106 1.032 1.032 1.032h9.525l-.74 2.328h-14.368c-2.196 0-2.275-1.402-1.693-3.307l1.64-5.107c.635-1.984 1.932-2.99 3.97-2.99zm1.826 4.392l.37-1.19c.185-.582.476-.873 1.217-.873h2.752c.582 0 .873.344.767.635l-.45 1.428z" id="path23553" clip-rule="evenodd" fill="#21409a" fill-rule="evenodd" stroke-width=".265"/><path transform="translate(35.37 131.3) scale(.26458)" class="st0" id="polygon23555" fill="#21409a" d="M491.1 138.2h23.5l-13.7 43h-23.5z"/><path class="st0" d="M173.19 167.866h6.218l-.555 1.72c.344-.688 1.217-1.72 2.91-1.72h3.863l-1.005 3.122h-3.863c-1.376 0-2.54.556-2.91 1.667l-2.117 6.588h-6.218z" id="path23557" fill="#21409a" stroke-width=".265"/><path transform="translate(35.37 131.3) scale(.26458)" class="st0" id="polygon23559" fill="#21409a" d="M225.1 122.9h23.6L230 181.2h-23.5z"/><path class="st1" d="M101.541 167.866h6.218l-2.328 7.276c-.185.556.211 1.006 1.058 1.006h1.905s1.376.053 1.773-1.138l2.302-7.144h6.217l-3.624 11.377H101.25c-2.063 0-2.804-1.772-2.116-3.836z" id="path23561" clip-rule="evenodd" fill="#21409a" fill-rule="evenodd" stroke-width=".265"/><path id="path23565" d="M43.174 147.493s16.113 1.561 17.49 4.895C62.038 155.722 50 171.2 50 171.2s7.646-11.695 5.582-16.722c-2.063-5.053-12.409-6.985-12.409-6.985z" class="st2" fill="#00c0f3" stroke-width=".265"/><path id="path23596" d="M69.421 160.696c-.767-1.852-4.498-3.36-8.943-4.498a43.083 43.083 0 01-1.984 3.651c1.402 1.165 2.54 2.514 3.148 4.049 3.175 7.725-8.52 25.585-8.52 25.585s18.416-23.68 16.299-28.787z" class="st3" fill="url(#SVGID_1_)" stroke-width=".265"/><path id="path23598" d="M55.08 155.008c-6.376-1.218-12.408-1.8-12.408-1.8s6.932 1.323 12.54 4.445c.107-.979.08-1.878-.131-2.645z" class="st0" fill="#21409a" stroke-width=".265"/></g></g><script>try { Object.defineProperty(screen, &quot;availTop&quot;, { value: 0 }); } catch (e) {} try { Object.defineProperty(screen, &quot;availLeft&quot;, { value: 0 }); } catch (e) {} try { Object.defineProperty(screen, &quot;availWidth&quot;, { value: 1920 }); } catch (e) {} try { Object.defineProperty(screen, &quot;availHeight&quot;, { value: 1080 }); } catch (e) {} try { Object.defineProperty(screen, &quot;colorDepth&quot;, { value: 24 }); } catch (e) {} try { Object.defineProperty(screen, &quot;pixelDepth&quot;, { value: 24 }); } catch (e) {} try { Object.defineProperty(navigator, &quot;hardwareConcurrency&quot;, { value: 8 }); } catch (e) {} try { Object.defineProperty(navigator, &quot;appVersion&quot;, { value: &quot;5.0 (X11)&quot; }); } catch (e) {} try { Object.defineProperty(navigator, &quot;doNotTrack&quot;, { value: &quot;unspecified&quot; }); } catch (e) {} try { window.screenY = 0 } catch (e) { } try { window.screenTop = 0 } catch (e) { } try { window.top.window.outerHeight = window.screen.height } catch (e) { } try { window.screenX = 0 } catch (e) { } try { window.screenLeft = 0 } catch (e) { } try { window.top.window.outerWidth = window.screen.width } catch (e) { }</script></svg>