<svg xmlns="http://www.w3.org/2000/svg" height="74.067" width="300"><defs><linearGradient id="a" gradientUnits="userSpaceOnUse" gradientTransform="scale(-21.771 21.771) rotate(-59.999 -19.325 41.35)"><stop stop-color="#e4e6f5" offset="0"/><stop stop-color="#4d72bf" offset=".295"/><stop stop-color="#4d72bf" offset=".4"/><stop stop-color="#1e5aaf" offset=".9"/><stop stop-color="#1e5aaf" offset="1"/></linearGradient><clipPath id="b" clipPathUnits="userSpaceOnUse"><path d="M1178.1 90.756H912.7V69.154h265.4v21.602z"/></clipPath></defs><path d="M226.21 71.5c.218-.098.449-.442.449-.892v-3.724c-.536-.06-1.284-.086-2.124-.086-.852 0-1.606.026-2.155.086v3.724c0 .45.226.778.447.892h-2.966c.22-.098.454-.442.454-.892v-8.215c0-.456-.234-.792-.454-.902h2.966c-.221.11-.447.446-.447.902v3.365c.549.058 1.29.087 2.155.087.84 0 1.588-.037 2.124-.087v-3.365c0-.456-.231-.792-.45-.902h2.961c-.221.11-.44.446-.44.902v8.215c0 .45.219.778.44.892h-2.96zm-9.62-2.265c0-1.906-4.49-2.336-4.49-5.379 0-1.884 1.792-2.501 3.368-2.501.702 0 1.72.097 2.362.393l.112 1.872c-.395-.827-1.384-1.426-2.303-1.426-.726 0-1.488.36-1.488 1.19 0 1.978 4.566 2.46 4.566 5.342 0 2.093-1.827 2.959-3.672 2.959-.965 0-2.278-.185-3.091-.742a7.066 7.066 0 01-.073-1.027c0-.408.037-.819.097-1.221.508 1.157 1.558 2.062 2.871 2.062.998 0 1.74-.435 1.74-1.522zm-9.078 2.265c.247-.114.505-.442.505-.892v-8.215c0-.456-.258-.779-.505-.902h3.08c-.261.123-.512.446-.512.902v8.215c0 .45.25.778.513.892h-3.08zm-6.891 0c.329-.151.49-.541.49-.892V62.64h-2.21c-.512 0-1.119.062-1.558.323l.688-1.471h7.335c.595 0 1.203-.013 1.78-.136-.279.753-1.111 1.312-1.59 1.312-.583-.014-1.547-.052-2.377-.052v7.993c0 .35.173.74.497.892h-3.055zm-6.684 0c.249-.114.508-.442.508-.892v-8.215c0-.456-.26-.779-.508-.902h3.08c-.265.123-.506.446-.506.902v8.215c0 .45.241.778.506.892h-3.08zm-2.053.058c-.385 0-.807.014-1.174-.094-.682-.202-1.621-1.736-1.996-2.339-.582-.979-1.087-2.327-2.39-2.341v3.824c0 .335.151.74.474.892h-3.005c.315-.166.466-.541.466-.892v-8.215c0-.347-.151-.728-.466-.902h3.618c1.575 0 3.545.604 3.545 2.496 0 1.587-1.313 2.4-2.777 2.4 2.083.012 3.307 4.9 5.607 4.915a6.712 6.712 0 01-1.902.256zm-5.047-9.205c-.179 0-.336.029-.514.054v3.461c.165.011.313.028.475.028 1.127 0 1.96-.621 1.96-1.846 0-1.25-.82-1.697-1.92-1.697zm-8.713 4.445c-.285 0-.543 0-.89.026v3.7a7.12 7.12 0 001.336.112c1.004 0 2.025-.447 2.025-1.982 0-1.515-1.207-1.856-2.47-1.856zm-.25-4.445c-.181 0-.306 0-.64.04v3.503h.395c1.2 0 2.36-.37 2.36-1.76 0-1.38-.927-1.783-2.114-1.783zm-3.169 9.147c.322-.166.466-.557.466-.892v-8.215c0-.347-.144-.728-.466-.902h3.916c1.746 0 3.449.715 3.449 2.697 0 1.05-.917 1.88-1.905 2.067 1.423-.014 2.799.856 2.799 2.427 0 2.245-2.354 2.818-4.01 2.818h-4.249m115.225-2.263c0-1.907-4.49-2.337-4.49-5.38 0-1.884 1.786-2.5 3.363-2.5.705 0 1.716.097 2.363.392l.112 1.872c-.4-.827-1.385-1.426-2.304-1.426-.728 0-1.484.36-1.484 1.19 0 1.978 4.567 2.461 4.567 5.342 0 2.093-1.816 2.959-3.674 2.959-.965 0-2.28-.185-3.096-.742a6.6 6.6 0 01-.078-1.026c0-.41.039-.82.1-1.222.508 1.157 1.562 2.062 2.875 2.062 1.002 0 1.745-.435 1.745-1.521zm-5.55-6.694l-2.37 4.158v3.909c0 .318.13.74.446.891h-2.949c.301-.166.44-.584.44-.891v-3.922l-2.061-3.302c-.184-.309-1.043-1.748-2.09-1.748.284-.108 1.15-.273 1.731-.273.97 0 1.45.089 2.045 1.018l1.906 3.023c.16-.297 1.67-2.922 1.67-2.922.182-.32.307-.545.307-.658 0-.143-.062-.237-.208-.334h2.125c-.418.2-.764.657-.992 1.051zm-9.044 8.958c.103-.098.182-.171.182-.348 0-.06-.03-.16-.09-.347 0 0-.817-2.237-.917-2.497-.622-.076-1.265-.076-1.896-.076-.59 0-1.2.015-1.795.076-.085.224-.96 2.449-.96 2.449-.127.301-.161.404-.161.47 0 .148.122.22.23.273h-2.015c.298-.151.554-.46.679-.77l3.323-8.546a.485.485 0 00.018-.123.665.665 0 00-.372-.57h2.598l3.367 9.23c.14.37.436.641.682.779h-2.873zm-2.612-8.104l-1.517 3.897c.457.05.927.06 1.382.06.52 0 1.045 0 1.553-.06l-1.418-3.897zm-3.637-.928l-3.04 9.032c-.251 0-.498-.086-.637-.184-.3-.29-.773-1.5-.945-1.946l-1.373-3.473-1.98 5.603h-.943l-3.404-9.054c-.147-.385-.396-.755-.767-.955h2.958a.476.476 0 00-.21.417c0 .102.05.24.086.349l2.217 5.99 2.36-6.756 2.6 6.513 1.968-5.895c.05-.16.078-.22.078-.32 0-.124-.053-.201-.177-.298h1.958c-.361.19-.623.605-.75.977zM256.6 71.56c-.383 0-.797.014-1.173-.094-.682-.201-1.621-1.736-1.995-2.338-.579-.98-1.334-2.342-2.63-2.342v3.825c0 .334.147.74.464.891h-3.003c.323-.166.472-.54.472-.891v-8.215c0-.348-.15-.729-.472-.903h3.628c1.57 0 3.536.605 3.536 2.496 0 1.588-1.436 2.401-2.52 2.401 2.159.124 3.461 4.914 5.604 4.914a6.767 6.767 0 01-1.911.257zm-5.298-9.205c-.167 0-.326.03-.5.055v3.46c.161.012.308.029.464.029 1.13 0 1.961-.622 1.961-1.847 0-1.25-.822-1.697-1.925-1.697zm-7.759 9.147c.249-.114.506-.442.506-.891v-8.215c0-.456-.257-.78-.506-.903h3.078c-.261.124-.505.447-.505.903v8.215c0 .45.244.777.505.891h-3.078zm-5.992-8.104l-1.518 3.897c.452.05.921.06 1.38.06.524 0 1.043 0 1.552-.06l-1.414-3.897zm2.614 8.104c.097-.098.182-.171.182-.348 0-.06-.022-.16-.095-.347 0 0-.822-2.237-.919-2.497-.617-.076-1.26-.076-1.89-.076-.599 0-1.205.015-1.798.076-.084.224-.965 2.449-.965 2.449-.119.301-.16.404-.16.47 0 .148.128.22.237.273h-2.014c.296-.151.554-.46.68-.77l3.312-8.546a.322.322 0 00.021-.123c0-.236-.157-.46-.368-.57h2.598l3.367 9.23c.137.37.431.641.678.779h-2.866" fill="#1e5aaf"/><path fill="url(#a)" d="M993.09 82.8c-2.439-2.424-7.723-4.505-10.323-5.48-3.552-1.334-5.128-1.806-7.116-2.453-2.249-.73-6.749-2.092-6.749-2.092 9.322-2.782 15.89-3.621 15.89-3.621s3.06.945 7.908 3.537c2.625 1.335 3.917 2.233 4.842 3.092.339.307 1.22 1.223 1.439 2.396.014.085.056.309.056.529 0 0 0 .156-.014.291-.004.156-.033.26-.033.26s-.051.277-.119.472c-.072.196-.372.797-.858 1.188-.326.264-.886.921-2.919 1.636-.692.24-1.81.462-1.81.462l-.19-.217" transform="matrix(.68997 0 0 -.68997 -520.77 121.784)"/><g clip-path="url(#b)" transform="matrix(.68997 0 0 -.68997 -520.77 121.784)"><path d="M999.04 78.772s-.014.259-.077.479c-.05.196-.137.383-.268.58a4.995 4.995 0 01-.69.812 6.49 6.49 0 01-.817.637c-1.272.833-2.913 1.302-4.366 1.501-2.25.299-4.832.247-5.077.255-.83.012-6.195-.032-7.575-.057-6.125-.127-13.623-.143-15.588-.143-20.275-.093-29.102.344-38.925 2.313-8.357 1.66-12.993 3.237-12.993 3.237 7.371.255 50.378 2.04 58.224 2.248 5.138.145 8.784.176 11.702.007a39.083 39.083 0 004.637-.508 22.263 22.263 0 003.823-1.031c1.748-.647 3.22-1.583 3.947-2.542 0 0 .216-.22.507-.612.328-.455.708-1.016.837-1.225 1.063-1.61 1.569-2.623 1.744-2.976.19-.37.357-.755.52-1.132.16-.374.225-.601.277-.759a4.26 4.26 0 00.144-.838l.014-.246" fill="#ed1b28"/></g><path d="M15.573 61.26c.395-.96 3.963-8.155 5.062-10.207 2.324-4.337 4.01-7.13 5.604-9.28l.806-1.085-.186-1.265c-.102-.695-.26-1.96-.351-2.81l-.165-1.545.936.783c.515.431 1.166.954 1.447 1.163l.512.38.52-.57c4.21-4.618 7.352-7.714 10.449-10.294 5.195-4.329 9.388-6.383 13.404-6.567 1.771-.082 2.698.087 3.52.64 1.37.922 1.845 2.06 1.833 4.387-.01 1.919-.3 3.054-1.285 5.038-2.104 4.24-5.741 7.696-11.309 10.749l-1.713.94 1.904.04c4.81.1 10.44-.959 15.562-2.93.733-.281 1.405-.569 1.492-.638.099-.077.16-.445.16-.967.002-2.173 1.186-5.085 3.157-7.766.889-1.209 3.083-3.469 4.402-4.534 1.48-1.195 3.851-2.757 5.264-3.466 1.721-.864 2.887-1.202 4.137-1.2 1.185 0 1.803.256 2.474 1.02 1.107 1.26 1.152 2.977.135 5.101-1.127 2.354-3.156 4.573-6.42 7.021-2.528 1.896-5.16 3.683-6.194 4.205-.402.203-.73.42-.73.481 0 .237.901.887 1.61 1.161 1.122.435 3.46.493 5.342.133 3.704-.708 6.784-1.934 11.167-4.443 1.809-1.035 3.775-2.196 4.369-2.579 1.808-1.166 5.86-3.556 6.67-3.932 1.348-.627 2.89-.708 3.676-.192.737.483 1.003 1.913.672 3.607l-.18.923.352-.287c.194-.158.857-.721 1.473-1.25 4.588-3.943 9.37-6.555 12.763-6.973 1.939-.24 3.804.23 4.965 1.25.253.222 1.42 1.703 2.593 3.29 4.32 5.845 5.094 6.752 6.91 8.088 1.401 1.031 2.767 1.618 4.324 1.86 2.82.437 11.097-2.11 16.066-4.944l1.525-.87.041.382c.075.686-.574 1.72-1.529 2.437-2.64 1.981-7.808 4.167-12.742 5.387-2.901.718-3.682.816-5.929.743-1.616-.052-2.138-.12-3.064-.397-1.906-.572-3.54-1.503-4.9-2.794-.691-.656-3.018-3.747-4.651-6.179-1.413-2.103-1.734-2.475-2.82-3.255-2.067-1.485-4.272-1.515-6.878-.095-4.26 2.322-8.627 6.078-13.105 11.269-1.296 1.502-1.807 1.89-3.057 2.323-.638.22-3.64.685-4.429.685-.066 0 .424-.73 1.09-1.62 2.712-3.628 4.905-7.327 5.312-8.957.137-.55-.023-.985-.364-.985-.501 0-4.498 2.417-7.603 4.598-4.129 2.9-9.201 5.537-13 6.758-3.182 1.023-6.212 1.282-8.328.712-1.465-.394-2.936-1.474-3.765-2.762-.236-.367-.457-.667-.49-.667s-.932.252-1.997.56c-8.888 2.573-18.577 3.915-25.314 3.509-2.398-.145-4.786-.468-6.45-.873l-.988-.24-.678 1.031c-1.774 2.703-4.589 8.406-6.498 13.165-.266.664-.546 1.273-.622 1.353-.101.108-3.766 1.733-6.067 2.69-.055.024-.01-.177.1-.444zM42.94 39.524c4.814-1.261 8.374-4.041 9.824-7.673.764-1.913 1.206-5.059.859-6.111-.632-1.913-3.065-2.152-6.657-.654-4.03 1.681-9.097 6.19-13.38 11.91-.726.967-1.318 1.802-1.318 1.856 0 .118 2.047.7 3.112.886l1.08.188c.175.03 1.375.038 2.668.018 2.138-.034 2.483-.072 3.812-.42zm28.714-5.181c3.455-2.298 6.365-5.379 6.99-7.4.523-1.696.258-2.675-.803-2.96-.988-.267-2.213.315-4.141 1.965-2.52 2.157-4.08 4.626-4.64 7.346-.205.998-.27 2.404-.116 2.557.107.107 1.165-.481 2.71-1.508zM3.406 45.737c-.97-.322-1.512-.675-2.19-1.43-.79-.879-1.111-1.784-1.187-3.353-.118-2.447.469-4.403 2.183-7.275 1.531-2.567 3.479-5.066 5.422-6.959 2.857-2.78 3.81-3.319 5.608-3.166.541.046.984.105.984.13 0 .025-1.05 1.09-2.332 2.368-2.629 2.62-3.67 3.973-4.724 6.135-1.12 2.3-1.577 3.96-1.581 5.743-.006 2.729.81 3.744 3.004 3.734 2.558-.012 5.372-1.529 8.378-4.517 2.25-2.237 3.75-4.687 4.788-7.818 1.763-5.318.636-8.468-3.233-9.033-2.305-.337-7.659.851-10.66 2.366a18.55 18.55 0 00-1.612.965c-.507.339-.921.59-.921.56 0-.23.61-1.623.892-2.036.753-1.103 2.347-2.327 4.126-3.17 3.06-1.45 8.313-2.316 11.203-1.847 3.502.569 5.3 2.343 5.471 5.398.158 2.843-.872 5.87-3.393 9.973-1.576 2.565-2.651 3.933-4.697 5.98-3.496 3.499-7.398 6.059-10.744 7.048-1.558.46-3.732.553-4.785.204zm274.726-.528c-2.725-.383-4.837-1.732-5.895-3.767-.25-.478-.495-1.009-.547-1.179-.086-.282-.045-.267.462.17.753.649 2.858 1.653 4.177 1.993 1.367.352 4.194.478 5.514.245 2.61-.46 4.655-1.752 5.52-3.485.652-1.305.826-3.15.456-4.839-1.046-4.772-1.17-7.507-.443-9.859.573-1.854 3.096-4.886 5.089-6.114 1.94-1.196 4.27-1.95 5.685-1.84 1.298.1 1.872.66 1.856 1.811-.015.998-.433 1.739-1.692 2.993-.809.806-1.324 1.201-1.963 1.506-1.04.497-2.21.658-2.474.34-.145-.174-.07-.31.552-.998.773-.854 1.674-2.5 1.548-2.827-.134-.349-.463-.364-1.133-.052-1.288.599-2.29 1.877-2.706 3.448-.397 1.502-.366 2.221.267 6.13.706 4.36.82 5.972.514 7.341-.787 3.54-4.077 6.934-7.95 8.203-2.09.684-5.087 1.027-6.837.78zm-30.273-.375c-3.468-.444-5.808-2.067-6.637-4.602-.063-.19-.206-.165-1.316.237-6.33 2.286-11.802 3.227-14.292 2.457-1.397-.431-2.333-1.223-2.782-2.353-.083-.21-.15-.839-.147-1.398.005-1.111.274-2.087.936-3.399.21-.416.334-.737.276-.712-.059.025-2.164 1.078-4.678 2.34-8.005 4.018-11.398 5.248-15.116 5.478-4.1.253-8.518-2.105-11.919-6.363l-.903-1.131-.625.686c-1.358 1.493-3.318 3.922-4.145 5.136l-.87 1.28-2.585.592c-1.421.326-2.83.632-3.131.68l-.547.085 4.62-6.973c2.542-3.836 8.84-13.348 13.998-21.14 5.158-7.791 9.47-14.26 9.585-14.372.14-.14 1.262-.396 3.495-.798 1.809-.325 3.303-.576 3.32-.556.06.067-9.607 13.853-16.219 23.132-3.624 5.086-6.59 9.272-6.59 9.302s.701-.421 1.557-1.004c4.725-3.215 10-5.843 13.52-6.735 3.968-1.006 7.155-1.067 8.93-.17.714.36.868.504 1.188 1.112.328.624.361.793.311 1.588-.103 1.637-1.052 2.882-2.807 3.682-1.157.527-1.667.658-1.57.403.193-.502.364-1.772.292-2.16-.256-1.362-1.963-2.016-4.525-1.734-2.463.27-5.95 1.338-8.763 2.683-1.546.74-3.431 1.83-3.431 1.986 0 .216 1.528 2.027 2.508 2.971 1.312 1.265 2.35 1.996 3.766 2.653 1.468.68 2.44.887 4.152.885 3.253-.006 7.021-.9 10.601-2.516 2.202-.995 7.542-3.874 8.731-4.709.261-.183 1.543-1.533 2.849-3l2.374-2.669 2.234-.73c5.205-1.7 5.747-1.86 5.578-1.641-.642.83-2.981 3.516-4.15 4.763-3.76 4.012-5.707 6.598-6.464 8.585-1.136 2.984.62 4.15 4.92 3.269 3.205-.657 7.154-1.924 7.373-2.366.052-.105.163-.563.245-1.017.442-2.427 2.12-5.784 4.195-8.385 2.909-3.649 6.783-6.745 9.912-7.921 2.594-.976 5.137-.544 6.06 1.028.311.53.354.729.347 1.62-.012 1.563-.693 2.973-2.44 5.048-1.688 2.005-7.294 6.331-10.987 8.479-1.57.913-1.595.966-.953 2.039 1.124 1.876 4.234 2.771 8.437 2.429 3.682-.3 6.99-1.012 10.4-2.239 5.172-1.86 11.585-5.098 17.466-8.816 1.013-.64 1.862-1.102 1.888-1.027.086.259-.253 1.329-.594 1.874-.368.59-2.118 1.802-5.523 3.822-8.01 4.753-15.603 8.051-21.843 9.488-3.204.738-7.37 1.1-9.512.825zm-.395-10.378c2.581-1.651 6.727-5.286 8.022-7.033 1.572-2.122 1.928-4.06.83-4.52-.743-.31-1.689.114-3.496 1.568-1.269 1.02-2.833 2.676-3.637 3.848-1.14 1.664-2.229 4.13-2.52 5.71-.045.245-.11.545-.144.668-.094.332.142.272.945-.241zm-83.383 9.237c-4.2-.88-8.09-3.364-9.502-6.067l-.478-.914 1.56.796c4.606 2.352 9.026 3.498 12.867 3.337 2.068-.086 3.017-.228 4.338-.647 1.306-.415 1.87-.834 2.299-1.706.321-.655.35-.832.34-2.112-.015-1.886-.306-2.73-2.341-6.8-1.807-3.612-2.143-4.524-2.245-6.096-.143-2.217.48-3.822 2.07-5.333 1.786-1.697 4.034-2.945 6.047-3.359 1.424-.293 3.669-.268 4.704.052 1.754.541 2.452 1.458 2.36 3.098-.07 1.242-.542 2.178-1.663 3.295-1.263 1.259-1.667 1.061-1.04-.508.554-1.384.344-2.252-.737-3.05-.999-.738-2.882-.86-4.678-.301-1.9.59-2.63 1.648-2.5 3.629.07 1.07.308 1.681 2.311 5.934 1.77 3.758 2.01 4.545 2.023 6.644.009 1.331-.031 1.639-.316 2.427-.42 1.167-1.056 2.113-2.312 3.439-1.877 1.983-4.527 3.67-6.564 4.179-1.326.33-5.092.367-6.543.063zm72.402-24.691c1.526-1.802 2.809-4.158 3.644-6.69l.531-1.61 2.98-.99c1.639-.545 3.008-.962 3.042-.927.09.09-.778 2.16-1.317 3.138-2.148 3.904-5.027 6.42-8.422 7.361l-.912.253z" fill="#1e5aaf"/><script>try { Object.defineProperty(screen, &quot;availTop&quot;, { value: 0 }); } catch (e) {} try { Object.defineProperty(screen, &quot;availLeft&quot;, { value: 0 }); } catch (e) {} try { Object.defineProperty(screen, &quot;availWidth&quot;, { value: 1920 }); } catch (e) {} try { Object.defineProperty(screen, &quot;availHeight&quot;, { value: 1080 }); } catch (e) {} try { Object.defineProperty(screen, &quot;colorDepth&quot;, { value: 24 }); } catch (e) {} try { Object.defineProperty(screen, &quot;pixelDepth&quot;, { value: 24 }); } catch (e) {} try { Object.defineProperty(navigator, &quot;hardwareConcurrency&quot;, { value: 8 }); } catch (e) {} try { Object.defineProperty(navigator, &quot;appVersion&quot;, { value: &quot;5.0 (X11)&quot; }); } catch (e) {} try { Object.defineProperty(navigator, &quot;doNotTrack&quot;, { value: &quot;unspecified&quot; }); } catch (e) {} try { window.screenY = 0 } catch (e) { } try { window.screenTop = 0 } catch (e) { } try { window.top.window.outerHeight = window.screen.height } catch (e) { } try { window.screenX = 0 } catch (e) { } try { window.screenLeft = 0 } catch (e) { } try { window.top.window.outerWidth = window.screen.width } catch (e) { }</script></svg>