<svg viewBox="0 0 176.17 38.655" xmlns="http://www.w3.org/2000/svg"><switch><g><path fill="none" stroke="#000" stroke-miterlimit="2.613" stroke-width=".849" d="M.425.425h33.416v37.78H.425z"/><path clip-rule="evenodd" fill="#fff" fill-rule="evenodd" d="M2.244 2.153h29.777v34.324H2.244z"/><path d="M18.004 2.153a5.318 5.318 0 01-.718.397c-.948 1.932-6.978 3.765-9.037 3.665l-.258.197-.288-.194-.192.19H6.094l-.467-.385H4.375c-.622-.465-1.394-.542-2.131-.7v-3.17h15.76zm8.121 0C23.43 4.92 20.25 7.641 18.216 8.952c-1.395.899-3.934 2.549-5.427 3.123C11.714 12.488 3 14.085 3 15.523c0 1.32 2.584 1.065 3.359 1.065l.125-.19c3.8 1.256 17.151-7.83 22.794-14.245h1.29c-1.907 2.223-2.944 4.928-5.98 6.694-1.408 3.007-12.438 9.025-15.733 8.902l-.192.194-2.304.193c-1.2-.601-2.568-.977-3.914-.778l-.202-.14V12.09c.682.172 1.349-.005 2.047-.15 7.227-1.502 13.252-5.005 18.2-9.788h3.635v.001z" clip-rule="evenodd" fill-rule="evenodd"/><path d="M32.021 7.593c-.626.855-1.238 1.685-1.804 2.479-.589.827-1.41 1.447-1.925 2.33-2.661 1.224-4.504 3.642-6.92 5.236-5.931 3.914-11.973 6.471-19.127 6.424v-1.337l3.731-.006.192-.195h1.38c1.977-1.414 4.567-1.308 6.708-2.354 3.17-1.549 13.42-9.027 15.437-12.059.768-1.154 1.508-2.304 2.329-3.422v2.904h-.001zm0 7.424c-2.24 4.43-4.23 9.194-6.411 12.609-1.075 1.685-2.376 3.197-3.605 4.766l.068.332c3.564-2.649 7.281-6.757 9.948-11.153v2.095c-.963 1.622-2.029 3.173-3.344 4.549-1.798 1.883-4.181 2.951-6.023 4.718-.573.549-1.198 1.842-2.215 1.335l-.726.566c2.969-4.534 5.039-9.583 7.477-14.41l-.768-.678c-2.266.799-6.899 6.677-9.267 5.229l-1.964 1.321c-1.608-.117-6.583 2.654-10.368 2.552l-.276-.368c4.503-1.568 22.891-9.286 25.937-14.107a15.475 15.475 0 001.537-1.687v2.331zm0 19.691A43.41 43.41 0 0130.808 36h-6.105l.197-.756c2.851-.806 5.2-2.834 7.121-5.198v4.662z" clip-rule="evenodd" fill-rule="evenodd"/><path d="M21.844 24.79h.346v1.319c-.545.598-3.442 8.407-4.044 9.883h-.552c1.844-4.385.49-7.889 4.25-11.202zm-5.184 2.13h1.304v.937c-.629.308-.349 1.766-1.045 1.766-.252 0-1.824-1.61-1.824-1.646 0-.994.974-.471 1.565-1.057zM2.45 28.659c.52.191.886.382 1.126.382s.37-.697 1.896-.822l.166.271c-.415.566-2.069.504-2.471 1.121h-.923v-.816l.206-.136zm13.508 2.512l.658.208.206.954c-.382.613-.344 2.603-.789 3.667h-.74l-.006-2.082-1.221-1.566c-3.099-.549-6.259.539-9.338-.213l-.384.194-.949-.406v-.353c.487.053 1.097.069 1.525-.21l1.745.24c1.447-.146 3.69-1.133 6.031-1.596.922-.182 2.161 1.852 3.262 1.163zm-5.849 3.897a8.232 8.232 0 001.516.184l.383.387v.366c-1.87.054-1.198-.109-1.899-.937z" clip-rule="evenodd" fill-rule="evenodd"/><path d="M6.839 35.432c.332.38 2.769-.242 3.141-.456l1.289 1.021H3.201c1.278-.85 2.066-1.034 3.638-.565z" clip-rule="evenodd" fill-rule="evenodd"/><path d="M19.372 2.153c-.628.518-1.21.911-1.718 1.138-.948 1.933-6.978 3.765-9.038 3.665l-.257.196-.289-.193-.192.189H6.461l-.466-.384H4.742c-.725-.543-1.657-.557-2.498-.788V2.153h17.128zm7.829 0c-2.827 3.011-6.403 6.111-8.618 7.54-1.395.899-3.934 2.549-5.427 3.123-1.075.414-9.79 2.01-9.79 3.448 0 1.319 2.584 1.065 3.36 1.065l.126-.19c3.949 1.305 18.212-8.557 23.42-14.986h1.356c-2.389 2.333-3.289 5.468-6.673 7.435-1.407 3.007-12.437 9.025-15.732 8.902l-.193.195-2.304.194c-1.2-.602-2.568-.978-3.914-.779l-.569-.394v-5.002c.811.364 1.592.148 2.414-.022 7.595-1.578 13.864-5.367 18.948-10.528h3.596v-.001z" clip-rule="evenodd" fill="#00AEEF" fill-rule="evenodd"/><path d="M32.021 8.835c-.497.679-.982 1.34-1.437 1.979-.589.827-1.41 1.447-1.925 2.33-2.662 1.224-4.504 3.642-6.92 5.236-6.032 3.98-12.179 6.557-19.495 6.419v-1.332l4.099-.007.192-.195h1.38c1.978-1.414 4.566-1.308 6.708-2.354 3.17-1.55 13.42-9.027 15.437-12.06.651-.98 1.284-1.956 1.961-2.913v2.897zm0 7.655c-2.092 4.216-3.983 8.649-6.043 11.877-1.075 1.684-2.376 3.197-3.605 4.765l.068.333c3.403-2.53 6.946-6.39 9.581-10.562v2.109c-.867 1.401-1.826 2.738-2.977 3.942-1.799 1.882-4.181 2.951-6.023 4.718-.573.549-1.198 1.842-2.215 1.334l-.726.566c2.969-4.534 5.039-9.582 7.477-14.409l-.768-.678c-2.266.798-6.899 6.677-9.267 5.229l-1.964 1.321c-1.608-.117-6.583 2.654-10.368 2.552l-.276-.367c4.503-1.569 22.891-9.286 25.937-14.108.414-.389.802-.803 1.17-1.237v2.615h-.001zm0 19.361c-.194.211-.391.419-.589.626H25.14l.128-.491c2.671-.756 4.902-2.585 6.753-4.759v4.624z" clip-rule="evenodd" fill="#00AEEF" fill-rule="evenodd"/><path d="M22.211 25.531h.345v1.319c-.519.568-3.167 7.67-3.941 9.626h-.551c1.69-4.265.461-7.698 4.147-10.945zm-5.184 2.129h1.304v.938c-.629.308-.349 1.765-1.045 1.765-.252 0-1.824-1.609-1.824-1.646 0-.993.974-.471 1.565-1.057zm-14.21 1.739c.52.191.886.382 1.126.382s.37-.696 1.896-.822l.166.272c-.415.565-2.07.504-2.471 1.121h-1.29v-.573l.573-.38zm13.509 2.512l.658.208.206.954c-.352.565-.347 2.302-.693 3.403h-.837l-.006-1.817-1.221-1.566c-3.099-.549-6.258.539-9.338-.213l-.384.193-.949-.405v-.353c.487.053 1.096.069 1.524-.21l1.744.24c1.448-.146 3.691-1.133 6.031-1.596.923-.182 2.164 1.853 3.265 1.162zm-5.849 3.899a8.22 8.22 0 001.516.183l.383.388v.097h-1.487c-.082-.148-.154-.364-.412-.668z" clip-rule="evenodd" fill="#00AEEF" fill-rule="evenodd"/><path d="M7.207 36.172c.333.38 2.769-.242 3.14-.455l.961.76H3.982c1.051-.622 1.829-.721 3.225-.305z" clip-rule="evenodd" fill="#00AEEF" fill-rule="evenodd"/><path d="M46.461 20.113l.719 1.501c.303.599.568 1.222.568 1.451 0 .318-.063.56-.354.662-.101.025-.164.051-.164.102 0 .025.063.038.125.038.076 0 .492-.038 1.527-.038.732 0 1.325.038 1.413.038.113 0 .177-.025.177-.063 0-.063-.151-.115-.291-.217-.378-.292-.63-.661-.845-1.056l-3.709-7c-.025-.051-.063-.102-.101-.102h-.025c-.024 0-.05.038-.088.102l-3.091 6.057c-.278.548-.959 1.604-1.464 2.011-.088.063-.24.114-.24.204 0 .038.038.063.165.063.151 0 .479-.038.984-.038.694 0 1.148.038 1.236.038s.151-.013.151-.063c0-.038-.038-.063-.139-.09-.341-.127-.681-.267-.681-.813 0-.522.214-1.006.441-1.451l.681-1.336h3.005zm-.164-.318h-2.674l1.325-2.647 1.349 2.647zm7.982 2.66c0 .623-.113.992-.593 1.247-.114.051-.202.076-.202.102s.038.025.101.025h2.813c.113 0 .139-.013.139-.025 0-.025-.05-.038-.177-.102-.454-.204-.618-.624-.618-1.247v-5.88c0-.42.177-.598.328-.7.076-.051.202-.089.202-.14 0-.089-.113-.102-.176-.102-.076 0-.681.051-1.085.051-.403 0-1.135-.051-1.211-.051-.113 0-.151.063-.151.102s.088.064.139.077c.315.076.479.381.492.993v5.65h-.001zm7.896-6.453h2.372c1.337 0 1.981.688 1.981 1.629 0 .853-.694 1.718-2.069 1.718h-2.284v-3.347zm0 3.665l1.842.051c1.577.038 1.792.916 2.347 2.443l.605 1.667h1.666c.416 0 .479-.013.479-.025 0-.051-.101-.09-.214-.166-.391-.14-.858-1.272-1.148-2.138-.441-1.336-1.653-1.781-2.927-1.934v-.025c1.325 0 3.394-.229 3.394-1.985 0-1.132-.972-1.87-3.318-1.87h-4.719c-.189 0-.239.025-.239.076 0 .076.126.089.265.14.492.178.504.827.504 1.209v5.345c0 .623-.113.992-.593 1.247-.114.051-.202.076-.202.102s.038.025.101.025h2.813c.114 0 .139-.013.139-.025 0-.025-.05-.038-.176-.102-.454-.204-.619-.624-.619-1.247v-2.788zm19.059-.076h2.157c.972 0 2.662.407 2.662 1.934 0 1.4-.845 1.985-2.157 1.985h-1.767c-.807 0-.896-.28-.896-1.54v-2.379h.001zm0-3.589h2.069c1.363 0 2.094.649 2.094 1.552 0 1.044-.82 1.718-2.599 1.718h-1.564v-3.27zm-1.463 6.376c0 .789-.278 1.158-.808 1.311-.126.039-.227.039-.227.115 0 .025.063.051.341.051.202 0 .34-.025.593-.025h1.666c1.11 0 1.993.051 2.271.051.328 0 .858-.013 1.35-.076 1.173-.127 2.788-.637 2.788-2.139 0-1.705-2.107-2.227-3.469-2.252v-.025c1.11-.102 2.712-.445 2.712-1.884 0-1.488-2.107-1.819-3.305-1.819h-4.34c-.126 0-.277.013-.277.063 0 .064.088.077.202.127.479.178.505.534.505 1.234v5.268h-.002zm19.463-2.622c0 1.897-.782 4.009-3.078 4.009-2.297 0-3.079-2.112-3.079-4.009 0-1.896.782-4.008 3.079-4.008 2.296 0 3.078 2.113 3.078 4.008zm1.691 0c0-2.621-2.296-4.326-4.769-4.326s-4.77 1.705-4.77 4.326c0 2.622 2.297 4.328 4.77 4.328s4.769-1.706 4.769-4.328zm7.015 2.139c0 1.184-.114 1.553-.694 1.808-.126.051-.239.051-.239.102 0 .038.038.063.113.063.088 0 .833-.038 1.552-.038s1.488.038 1.577.038c.05 0 .101-.051.101-.076 0-.038-.075-.089-.189-.103-.593-.114-.757-.61-.757-1.233v-5.867c0-.496.215-.585.782-.585 1.249 0 2.094.713 2.662 1.26.088.089.201.217.227.217.038 0 .063-.039.063-.076 0-.051-.051-.166-.089-.293l-.403-1.425h-7.947l-.404 1.425c-.038.127-.089.242-.089.293 0 .038.026.076.063.076.025 0 .139-.127.228-.217.567-.547 1.413-1.26 2.662-1.26.567 0 .782.089.782.585v5.306h-.001zm15.62-5.918c-1.035-.395-2.119-.547-3.229-.547-1.716 0-3.76.509-3.76 2.596 0 1.794 2.195 2.125 3.545 2.291 1.034.166 2.436.166 2.436 1.578 0 1.54-1.578 1.871-2.802 1.871-1.16 0-2.788-.789-2.964-2.062-.014-.09-.025-.166-.089-.166s-.076.051-.139.28l-.403 1.514c1.387.497 2.195.752 3.684.752 1.829 0 4.125-.675 4.125-2.915 0-.802-.34-1.845-2.599-2.15-1.93-.267-3.381-.216-3.381-1.756 0-1.285 1.35-1.514 2.359-1.514 1.552 0 2.359.751 2.674 1.642.025.051.038.077.063.077.038 0 .063-.063.126-.268l.354-1.223zm13.08 5.727l-2.296-5.574c-.139-.344-.265-.7-.366-.7h-.025c-.088 0-.265.572-.341.763l-1.93 5.485-1.526-3.92c-.24-.611-.479-1.209-.479-1.463s.151-.407.416-.471c.102-.025.126-.089.126-.115 0-.039-.037-.076-.126-.076-.164 0-.668.051-1.299.051-.682 0-1.048-.051-1.236-.051-.114 0-.177.025-.177.089 0 .051.126.089.239.14.189.076.366.305.505.636l2.624 7.063c.113.306.189.522.29.522h.025c.075 0 .227-.344.277-.51l2.082-5.79 2.245 5.714c.114.306.202.586.303.586h.025c.126 0 .253-.434.315-.599l2.334-6.121c.215-.573.441-1.082.908-1.463.102-.076.24-.166.24-.204 0-.051-.113-.063-.202-.063-.328 0-.454.051-.958.051-.543 0-.669-.051-.997-.051-.051 0-.113.013-.113.051 0 .025.101.063.188.115.379.178.543.471.543.814 0 .318-.089.764-.202 1.095l-1.412 3.996zm10.6-1.591l.719 1.501c.303.599.568 1.222.568 1.451 0 .318-.063.56-.354.662-.101.025-.164.051-.164.102 0 .025.063.038.126.038.076 0 .492-.038 1.526-.038.732 0 1.325.038 1.413.038.114 0 .177-.025.177-.063 0-.063-.151-.115-.29-.217-.379-.292-.631-.661-.846-1.056l-3.709-7c-.025-.051-.063-.102-.101-.102h-.025c-.025 0-.051.038-.088.102l-3.092 6.057c-.277.548-.958 1.604-1.463 2.011-.088.063-.24.114-.24.204 0 .038.038.063.165.063.151 0 .479-.038.983-.038.694 0 1.148.038 1.236.038s.151-.013.151-.063c0-.038-.037-.063-.139-.09-.341-.127-.681-.267-.681-.813 0-.522.214-1.006.441-1.451l.681-1.336h3.006zm-.164-.318h-2.675l1.325-2.647 1.35 2.647zm8.334-3.232l6.648 7.317c.102.102.189.229.266.229h.024c.038 0 .063-.103.063-.191V17.95c0-.878.126-1.794.744-2.1.127-.063.215-.127.215-.165s-.063-.051-.126-.051h-2.069c-.101 0-.164.013-.164.063 0 .038.025.076.101.102.858.369.984 1.387.984 2.558v3.042l-5.551-5.714h-2.095c-.139 0-.189.025-.189.063s.089.077.228.14c.366.165.605.471.605 2.112v3.563c0 .841-.164 1.782-.996 2.189-.051 0-.089.025-.089.051 0 .013.038.025.114.025h2.119c.214 0 .277-.013.277-.051 0-.025-.076-.038-.151-.076-.82-.382-.959-1.261-.959-2.139v-4.999h.001zm16.61 3.55l.72 1.501c.303.599.567 1.222.567 1.451 0 .318-.063.56-.354.662-.101.025-.163.051-.163.102 0 .025.063.038.126.038.075 0 .491-.038 1.526-.038.731 0 1.324.038 1.413.038.113 0 .177-.025.177-.063 0-.063-.152-.115-.291-.217-.378-.292-.63-.661-.845-1.056l-3.709-7c-.025-.051-.063-.102-.102-.102h-.025c-.024 0-.05.038-.088.102l-3.091 6.057c-.277.548-.959 1.604-1.464 2.011-.088.063-.239.114-.239.204 0 .038.038.063.164.063.151 0 .479-.038.984-.038.693 0 1.147.038 1.236.038.088 0 .151-.013.151-.063 0-.038-.038-.063-.14-.09-.34-.127-.681-.267-.681-.813 0-.522.215-1.006.441-1.451l.682-1.336h3.005zm-.165-.318h-2.674l1.324-2.647 1.35 2.647z" clip-rule="evenodd" fill-rule="evenodd"/><path fill="none" stroke="#00AEEF" stroke-miterlimit="2.613" stroke-width="1.263" d="M40.502 28.495H176.13"/><path d="M124.41 37.473h.335l.436-2.115h-1.735l-.09.45h1.272c-.189.776-.597 1.311-1.439 1.311-.798 0-1.177-.534-1.177-1.311 0-.969.546-1.999 1.656-1.999.58 0 1.071.282 1.071.896h.53c0-.929-.72-1.345-1.602-1.345-1.361 0-2.187 1.147-2.187 2.448 0 1.108.619 1.761 1.707 1.761.43 0 .887-.157 1.188-.495l.035.399zm2.8-1.154c0-.602.379-1.401 1.104-1.401.519 0 .759.365.759.822 0 .573-.379 1.378-1.071 1.378-.519 0-.792-.32-.792-.799zm-.475.006c0 .703.458 1.216 1.217 1.216 1.01 0 1.596-.89 1.596-1.841 0-.776-.43-1.204-1.2-1.204-1.01 0-1.613.878-1.613 1.829zm4.215 1.148h.475l.603-2.909h-.474l-.604 2.909zm1.312-4.018h-.479l-.123.585h.48l.122-.585zm1.068 4.018h.475l.335-1.609c.062-.23.15-.462.317-.607.18-.191.452-.338.715-.338.279 0 .502.129.502.405 0 .102-.045.344-.066.45l-.369 1.699h.475l.352-1.66c.05-.225.084-.444.084-.568 0-.512-.263-.748-.804-.748-.396 0-.786.18-1.026.506h-.012l.09-.438h-.458l-.61 2.908zm4.86-1.182c0-.534.356-1.373 1.021-1.373.497 0 .736.304.736.76 0 .585-.334 1.396-1.049 1.396-.475-.001-.708-.366-.708-.783zm2.488-1.728h-.446l-.09.534h-.011v-.011c-.084-.366-.497-.591-.915-.591-.938 0-1.501.934-1.501 1.795 0 .692.368 1.205 1.082 1.205.363 0 .692-.136.898-.445l.012.012c-.151.579-.296 1.17-1.032 1.17-.363 0-.697-.09-.726-.478h-.474c.017.646.563.9 1.148.9.614 0 1.066-.23 1.312-.811a5.33 5.33 0 00.223-.794l.52-2.486zm5.022 2.91h.52l.34-1.616 1.94-2.402h-.62l-1.51 1.946-.81-1.946h-.57l1.05 2.402zm3.73-1.154c0-.602.379-1.401 1.104-1.401.519 0 .759.365.759.822 0 .573-.38 1.378-1.071 1.378-.519 0-.792-.32-.792-.799zm-.475.006c0 .703.458 1.216 1.217 1.216 1.01 0 1.596-.89 1.596-1.841 0-.776-.43-1.204-1.2-1.204-1.01 0-1.613.878-1.613 1.829zm7.145-1.762h-.474l-.335 1.609c-.101.484-.508.945-1.032.945-.279 0-.502-.129-.502-.404 0-.102.044-.344.066-.451l.368-1.699h-.475l-.351 1.66a3.027 3.027 0 00-.084.568c0 .512.262.749.804.749.396 0 .786-.181 1.026-.507h.011l-.089.438h.457l.61-2.908zm1.31 2.91h.474l.273-1.288c.045-.22.111-.495.24-.682.15-.23.352-.405.613-.472.112-.029.168-.029.285-.029.044 0 .095 0 .14.006l.111-.512c-.056-.012-.111 0-.168 0-.485 0-.825.293-1.049.692h-.011l.14-.625h-.446l-.602 2.91zm11.19-4.018h-.54l-1.45 3.394h-.01l-.23-3.394h-.6l-1.53 3.382h-.01l-.14-3.382h-.52l.25 4.018h.57l1.57-3.467h.01l.25 3.467h.56zm1.14 3.259c0-.372.302-.479.642-.529.347-.045.72-.073.927-.197h.011c-.066.271-.095.529-.251.749-.167.258-.44.382-.809.382-.269-.001-.52-.136-.52-.405zm.352-1.273c.056-.377.413-.523.775-.523.252 0 .581.067.581.383 0 .389-.224.417-.726.461-.637.057-1.456.113-1.456.957 0 .597.401.822.881.822.486 0 .765-.152.966-.423l.011.012c-.027.253.111.411.374.411a.717.717 0 00.29-.068l.072-.354a.458.458 0 01-.15.04c-.078 0-.14-.045-.14-.181 0-.135.056-.298.078-.416l.185-.794c.033-.157.089-.366.089-.528 0-.592-.496-.743-1.055-.743-.613 0-1.154.298-1.249.945h.474v-.001zm6.078-.878h-.519l-1.211 2.313h-.012l-.334-2.313h-.508l.508 2.909-.291.484c-.111.186-.233.315-.445.315a.594.594 0 01-.274-.079l-.083.389a.783.783 0 00.329.073c.485 0 .697-.31.932-.687l1.908-3.404z" clip-rule="evenodd" fill="#6D6F71" fill-rule="evenodd"/></g></switch></svg>