<svg xmlns="http://www.w3.org/2000/svg" version="1.1" id="Layer_1" x="0" y="0" width="175.749" height="128.48" xml:space="preserve"><g id="g3" transform="translate(-2.504 -2.703)" fill-rule="evenodd"><path d="M2.504 125.734h2.411v-10.716H2.504v-3.215h24.647c2.769.714 5.18 4.732 1.34 7.591v.446c1.429.536 2.5 2.144 2.322 4.465-.268 2.322-1.161 3.841-3.662 4.555H2.504v-3.126zm10.895-7.679h7.323c1.25-.357 1.161-2.769 0-3.036h-7.323v3.036zm7.323 3.572h-7.323v4.107h7.323c1.518-.803 1.428-3.661 0-4.107z" id="path7" fill="#00a651"/><path d="M71.267 111.893v3.483h-1.965v8.037c5.001 3.572 10.091 3.125 13.039-.804v-7.859h-1.786v-2.857h6.787v3.483h-1.786v8.483c-2.858 8.216-19.558 8.126-23.666.268v-9.377h-1.964v-2.857h11.341z" id="path9" fill="#00a651"/><path d="M113.597 122.431h-1.875l4.197 4.107h3.929v2.322h-15.807v-2.59h2.411l-4.822-4.197h-1.607v4.376h1.519v2.411H90.379v-2.59h1.607v-11.342h-1.607v-3.036h23.13c2.679 0 4.107 1.34 5.179 2.947.447.893.626 3.036.179 4.376-.627 1.697-3.127 3.216-5.27 3.216zm-5.626-7.502h-8.395v3.93h8.395c2.947-.001 2.768-3.93 0-3.93z" id="path11" fill="#00a651"/><path d="M131.993 121.359h5.626l-2.501-4.197-3.125 4.197zm7.591 3.125h-9.823l-1.251 1.697h2.055v2.679h-8.663v-2.679h2.233l9.645-14.289h7.68l8.573 14.289h1.607v2.679h-13.484v-2.679h2.411l-.983-1.697z" id="path13" fill="#00a651"/><path id="polygon15" fill="#00a651" d="M163.07 124.484h3.751l6.698 6.699h-3.929z"/><path d="M39.476 111.893H51.71c2.322 0 6.341 2.769 6.341 5.358v6.787c-.357 2.232-3.304 4.822-5.715 4.822H37.511c-1.429 0-4.465-2.679-4.822-4.822v-7.412c.089-2.501 3.929-4.733 6.787-4.733zm11.341 6.073v5c-1.786 3.841-9.555 3.841-10.984 0v-5c0-4.109 10.984-4.197 10.984 0z" id="path17" fill="#00a651"/><path d="M159.677 111.893h12.324c2.321 0 6.34 2.769 6.251 5.358v6.787c-.357 2.232-3.305 4.822-5.716 4.822h-.804l-3.482-3.483c1.25-.535 2.322-1.339 2.769-2.411v-5c0-4.197-10.984-4.108-10.984 0v5c.536 1.43 1.965 2.322 3.572 2.68l3.215 3.215h-9.108c-1.43 0-4.466-2.679-4.733-4.822v-7.412c.087-2.502 3.838-4.734 6.696-4.734z" id="path19" fill="#00a651"/><path d="M112.972 12.052c12.681 0 23.04 10.091 23.04 22.504 0 12.413-10.359 22.504-23.04 22.504-12.682 0-23.04-10.091-23.04-22.504 0-12.413 10.358-22.504 23.04-22.504z" id="path21" fill="#00a651"/><path d="M132.439 46.523c-.089.179-.179.268-.268.357a13.04 13.04 0 00-1.697-1.429c-4.465-3.304-10.716-5.269-17.503-5.269-6.876 0-13.038 1.964-17.504 5.269-.625.447-1.25.893-1.786 1.429-.089-.089-.089-.178-.178-.357.535-.446 1.071-.893 1.696-1.339 4.555-3.304 10.806-5.358 17.771-5.358 6.876 0 13.127 2.054 17.682 5.358.626.446 1.252.893 1.787 1.339z" id="path23" fill="#fff"/><path d="M127.796 51.703c-.089.089-.179.089-.268.179l-.269-.268c-3.661-3.483-8.751-5.626-14.288-5.626-5.626 0-10.627 2.143-14.288 5.626a1.208 1.208 0 00-.357.268c-.09-.089-.179-.089-.269-.179.09-.179.269-.268.357-.357a21.315 21.315 0 0114.557-5.716 21.485 21.485 0 0114.557 5.716c.089.089.179.178.268.357z" id="path25" fill="#fff"/><path d="M120.295 55.9c-.09 0-.269 0-.357.089-.269-.357-.536-.715-.804-.982a7.88 7.88 0 00-6.162-2.947c-2.411 0-4.644 1.071-6.251 2.947-.269.268-.536.625-.804.982-.09-.089-.179-.089-.269-.089.269-.447.536-.804.804-1.161 1.697-1.875 3.93-3.036 6.52-3.036 2.5 0 4.822 1.161 6.43 3.036.357.357.624.714.893 1.161z" id="path27" fill="#fff"/><path d="M132.261 22.322c.09.089.179.179.179.268-.535.536-1.161.982-1.786 1.518-4.555 3.304-10.806 5.358-17.682 5.358-6.966 0-13.217-2.054-17.771-5.358-.625-.536-1.161-.982-1.786-1.518.09-.089.179-.179.179-.268.625.536 1.161.982 1.875 1.429 4.466 3.304 10.628 5.358 17.504 5.358 6.787 0 13.038-2.054 17.503-5.358.625-.447 1.25-.894 1.785-1.429z" id="path29" fill="#fff"/><path d="M127.617 17.231l.268.268-.356.357c-3.751 3.572-8.931 5.715-14.557 5.715-5.716 0-10.806-2.144-14.557-5.715-.179-.089-.268-.268-.446-.357l.268-.268c.179.179.269.268.447.357 3.661 3.483 8.662 5.626 14.288 5.626 5.537 0 10.627-2.143 14.288-5.537.09-.177.268-.267.357-.446z" id="path31" fill="#fff"/><path d="M120.026 13.124c.09.089.179.089.357.089a6.73 6.73 0 01-.982 1.25c-1.607 1.875-3.93 3.036-6.43 3.036-2.59 0-4.822-1.161-6.52-3.036-.356-.357-.625-.804-.893-1.25.089 0 .179 0 .357-.089.268.447.535.804.804 1.161 1.607 1.786 3.84 2.947 6.251 2.947 2.411 0 4.644-1.161 6.162-2.947.358-.358.627-.715.894-1.161z" id="path33" fill="#fff"/><path d="M136.012 34.467v.357h-46.08v-.357h46.08z" id="path35" fill="#fff"/><path d="M96.808 40.093h2.769V28.751h-2.769v-3.214h28.131c3.215.803 5.894 5 1.518 8.037v.446c1.607.536 2.858 2.144 2.59 4.555-.179 2.411-1.161 4.019-4.107 4.822H96.808v-3.304zm21.611-13.038c-1.429 2.68-8.126 2.054-10.448.179v-.179h10.448zm-10.448 2.143c2.769.982 8.841.536 11.788-.625.446 1.607.179 3.929-1.072 4.375h-10.716v-3.75zm10.894 11.967c-3.84-1.697-8.216-1.429-10.895-.625v.714h10.716c.09 0 .179-.089.179-.089zm-10.894-2.322c1.607-.536 8.841-.179 12.146.446.446-1.697 0-4.019-1.43-4.465h-10.716v4.019z" id="path37" fill="#fff"/><path d="M91.003 2.943C85.02 5.89 81.09 10.355 81.001 15.535c-8.483 5.983-4.644 19.825-.536 27.505 1.339-1.518.447-5.715-.357-8.662-.446-1.786-.893-10.449 1.965-17.235C84.395 11.874 89.127 7.14 95.2 2.765c5.18-.357 13.128.804 17.146 4.019-25.451 2.41-32.952 29.023-17.057 45.812 4.287 4.554 9.913 6.876 15.36 10.538-4.465 1.34-9.912.804-15.628 1.607-5.626.714-8.126 6.073-4.108 10.18 1.339 0 2.233-2.143 3.483-2.857.536-.357 1.876-.179 2.947 1.071-4.287-.535-4.822 7.413 2.054 8.395.357-.356-.536-.893-.446-1.696.089-.804 1.339-1.875 1.607-.715.089.269.179.625.446.715.357.09.446-.268.536-.625.179-.536 1.518-.536 1.518.179 0 .714.269.625.357.625.357 0 .357-.179.446-.536.179-.536 1.251-.268 1.251.09.089.714 1.339 1.071 2.054 1.16 5.001.536 15.182-.714 17.325 2.947.714-.446.535-1.161 2.768-1.518 2.322-.269 6.073.893 7.323 2.054 1.25 1.25 2.054 3.482.535 4.107-.089-2.857-1.429-2.59-4.375-2.321-3.126.357-7.681 2.769-.269 2.321-.804.804-2.411 1.607-5.001 1.251-2.143-.179-2.59 1.339-.268 1.607 1.429.179 4.465.089 5.537-1.072.982-1.16 1.429.536.804.982-2.411 1.607-5.895 2.144-9.913 2.055-4.555 0-10.002 2.143-14.734 4.375-1.251.626-.982 1.429-2.055 1.251-.625-.09-.893-.894-1.429-.894-6.162 2.68-12.056 2.857-18.307 2.054-6.966-.893-12.592-5.001-19.111-9.287 4.108-.804 5.805-1.786 6.52-3.751-2.144 1.429-7.948 3.126-11.699-.804 1.697.269 5.269.536 5.983-1.607 2.322-.357 2.858-2.054 2.322-2.5-6.787 4.555-12.056 2.232-13.039-.982.804.268 3.93 1.518 5.626 0 2.5-.179 4.197-2.322 3.84-2.947-4.644 2.769-12.234 3.305-14.467-2.5.089.179 4.644 2.321 7.233.268 2.68.089 5.269-2.322 5.001-2.947-2.144 1.072-15.985 3.215-15.717-5.715.089.447 3.661 3.93 6.519 2.5 3.572 1.25 6.966-.089 6.608-.893-6.43-.625-9.109-.446-11.877-2.322-2.322-1.518-4.108-4.197-3.482-7.591 2.5 3.304 3.661 3.662 6.429 3.662 3.483 1.697 7.234 1.786 7.859 1.25-.982-.714-3.572-1.339-8.216-2.679-4.465-1.34-8.573-6.251-6.876-11.788 2.054 4.733 3.483 5.983 6.787 6.072 4.019 2.59 7.591 3.394 9.02 3.037-1.339-1.25-4.822-2.858-6.698-3.304-5.626-1.429-10.091-5.805-7.858-14.378 1.161 4.287 2.947 7.323 5.894 7.412 1.965 2.411 5.001 3.751 7.234 4.287 1.339 1.071 2.769 1.875 3.661 1.786-.089-3.126-7.412-4.287-11.609-8.216-3.482-3.215-5.715-12.949-.714-17.325-.447 7.055.268 8.484 3.125 10.448 1.25 3.84 3.93 6.519 6.251 7.144 3.572 2.858 4.108 4.108 5.715 4.912-1.786-4.733-9.555-8.93-11.788-13.842-4.108-9.376 2.233-19.379 6.519-19.646-2.322 3.304-4.554 7.055-1.518 12.234-.983 4.465.982 7.501 4.107 9.913 1.25 1.965 3.037 5.358 5.805 7.234-1.786-8.216-4.287-6.608-7.412-15.896-2.68-7.59 1.25-21.343 13.842-23.308-5.448 4.197-7.501 6.519-6.966 14.11-3.125 5.001-1.25 9.02 1.25 13.931 1.786 3.662 3.572 7.501 5.537 9.734.179-3.215-.714-6.251-2.411-9.913-1.875-3.75-2.858-8.216-2.232-12.949 1.163-9.557 8.04-19.38 20.899-19.827zm25.63 82.516c.625 0 1.071.446 1.071.982a.81.81 0 01-.268.625c.804-.179 1.429-.893 2.054-2.144-3.036 1.43-4.465-.714-6.072.09.894.982 1.697 1.607 2.411 1.875a.683.683 0 01-.179-.446c0-.536.448-.982.983-.982z" id="path39" fill="#d2ab67"/></g><script>try { Object.defineProperty(screen, &quot;availTop&quot;, { value: 0 }); } catch (e) {} try { Object.defineProperty(screen, &quot;availLeft&quot;, { value: 0 }); } catch (e) {} try { Object.defineProperty(screen, &quot;availWidth&quot;, { value: 1920 }); } catch (e) {} try { Object.defineProperty(screen, &quot;availHeight&quot;, { value: 1080 }); } catch (e) {} try { Object.defineProperty(screen, &quot;colorDepth&quot;, { value: 24 }); } catch (e) {} try { Object.defineProperty(screen, &quot;pixelDepth&quot;, { value: 24 }); } catch (e) {} try { Object.defineProperty(navigator, &quot;hardwareConcurrency&quot;, { value: 8 }); } catch (e) {} try { Object.defineProperty(navigator, &quot;appVersion&quot;, { value: &quot;5.0 (X11)&quot; }); } catch (e) {} try { Object.defineProperty(navigator, &quot;doNotTrack&quot;, { value: &quot;unspecified&quot; }); } catch (e) {} try { window.screenY = 0 } catch (e) { } try { window.screenTop = 0 } catch (e) { } try { window.top.window.outerHeight = window.screen.height } catch (e) { } try { window.screenX = 0 } catch (e) { } try { window.screenLeft = 0 } catch (e) { } try { window.top.window.outerWidth = window.screen.width } catch (e) { }</script></svg>