<svg width="618" height="340" viewBox="-90 227 618 340" xmlns="http://www.w3.org/2000/svg"><path d="M503.5 520.1c2 6.6-8.4 17.8-8.4 23.7h-6c1.1-3.9 2.4-6.9 4.2-11.2 1.8-4.4 7.5-12.3.5-14-14.3-3.2-16.3 17-20.5 25.1h-5.6c3.8-9.4 7.7-18.7 11.6-27.9h4.7c1.8-.1.2.4.5 1.4 5.9-1.3 17.4-2.6 19 2.9zM468.6 509v1.4c-3.2 2-6.3 2.9-10.2 4.7.2-3.1 6.3-5.1 10.2-6.1zm0 10.7c-1.4-3.3-8.6-4-12.5-3.7-14.6.9-18 12-20 24.2 5.8 5.7 19.3 4.9 25.1-.5 2.9-2.8 9.2-15.8 7.4-20zm-26 20v-1c0-.7 0-1.4.1-2.1 0-.4.1-.7.1-1.1.1-.7.2-1.4.4-2.2.3-1.4.7-2.9 1.3-4.2.7-1.7 1.5-3.3 2.6-4.7.8-1.1 1.7-2.1 2.7-3 .8-.6 1.6-1.2 2.4-1.6 2.9-1.4 6.4-1.4 10.3.8-1.3 10.9-6.6 24.7-19.9 19.1zm-9.3-23.8h5.6c-3.3 9.7-7.7 18.4-11.2 27.9h-6c3.9-9.1 7.8-18.4 11.6-27.9zm-20 0c5.3-.2 14.6.4 12.6 7.4h-5.6c-1.6.2.5-3.2-1.4-3.7-11.5-3.7-14.2 2.3-17.2 9.3-1.2 2.9-3.8 7.2-3.3 9.3 1.4 5.4 14.4 3 15.8-1.9h5.6c-1.8 8.6-21.5 10.1-27 3.7 2-11.7 5.5-23.5 20.5-24.1zm-21.4 4.7c1.6 6.9-8.4 16.8-8.4 23.3H377c2.3-5 4.2-10.4 6.5-15.4-16.3-5.6-27.6 17.2-7.9 11.6-2 7.1-16.2 3.4-16.7-.9-1.2-10.7 12.7-14.9 25.6-13.5.8-1.4 1.5-2.9.9-4.7-2.3-6.7-14.8 3.5-15.4-3.3 6.5-1.7 20.3-3.9 21.9 2.9zm-36.3-4.7h5.6c-3.9 9.3-7.7 18.7-11.6 27.9H344c3.6-9.5 7.5-18.7 11.6-27.9zm-11.2 1h5.6c-7.4 9.2-15.1 18-22.8 27h-7.4c.6-8.9 1.2-17.7 1.9-26.5h5.6c-.2 7.4-1.2 14-1.4 21.4 5.8-5.8 12.3-15 18.5-21.9zm-46.2-5.2c1.1.3 3.4-.5 3.7.5-7.1 11.2-15.9 20.7-23.3 31.6h6c2.6-2.5 3.7-8.5 7.9-9.8 3.5.1 8.4-.1 13 0-.1 3.2.2 7.3-.5 9.8h6c.2-11.1.5-22 .9-33-3.7.2-13.3-2.5-13.7.9zm7.6 13.2c-.1 2-.3 3.9-.4 5.5h-10.7c3.2-5.4 7.4-9.7 10.7-14.9.1.3.1.5.2.8.3 1.4.4 3 .4 4.6-.1 1.3-.2 2.7-.2 4zm-51.6 6.4c.9-4.9 5.1-8.5 2.3-12.6-3.6-5.1-19.9-2.8-24.6 1.9-1.9 2-8.2 14.8-7.4 18.6 1.7 8.3 27.3 5.5 27.4-3.3h-5.6c-1.5 4.6-11.5 7.4-15.8 3.3-.7-2.6.8-6.1 2.3-7.9h21.4zm-9.4-12.5c2.1-.1 4.3.5 6.2 1.8.5 3.8-1.3 5.3-1.9 7.9h-15.5c.5-5.4 5.7-9.6 11.2-9.7zm-22.7-9.4c-1.3 2-2.8 6.4-3.3 6.4-7.6.4-16.3-.9-21.9 4.7-2.5 2.5-8.5 15.2-7.4 19.1 1.5 5.4 12.8 4.9 18.6 2.8-2.8 2.3 2.4 1.1 5.6 1.4 4.6-11.8 10.3-24.3 14.4-35.8-4 0-5.1-.3-6 1.4zm-4.2 9.4c-4.1 9.5-6.8 27.3-22.3 20.9v-.1c1.3-11.3 5.2-23.9 22.3-20.8zm-53 2.3c1.2 6.6-8.2 16-8.4 22.8H150c2.2-5.1 4.3-10.3 6.5-15.4-10.7-1.2-19.6 1.7-18.6 10.7 1.5 2.8 8 2.1 10.7.9-1.8 7-16.3 3.5-16.7-.9-1.1-10.4 12.4-14.9 25.1-13.5 1.4-.9 2-2.8 1.4-4.7-2.2-6.6-14.8 3.4-15.4-3.3 7-1.9 20.6-3.7 21.9 3.4zm-68.4-.2c1.2 6.6-8.2 16-8.4 22.8h-6.5c2.2-5.1 4.3-10.3 6.5-15.4-10.7-1.2-19.6 1.7-18.6 10.7 1.5 2.8 8 2.1 10.7.9-1.8 7-16.3 3.5-16.7-.9-1.1-10.4 12.4-14.9 25.1-13.5 1.4-.9 2-2.8 1.4-4.7-2.2-6.6-14.8 3.4-15.4-3.3 7-1.9 20.6-3.7 21.9 3.4zm34.4-.8c2 6.7-8.3 17.8-8.4 23.7h-6c1.9-8.2 7.8-14.8 7.9-23.3-16.2-7.6-18.6 13.7-23.7 23.3h-5.6c3.9-9.2 7.7-18.6 11.6-27.9h4.7c1.6-.3.8 1 .5 1.4 5.9-1.5 17.3-2.7 19 2.8zM23.6 509.9c2 0 2.9.1 5.6 0-.7 1.7-.9 2.2-1.4 3.7h-5.6c.6-1.9.9-2.3 1.4-3.7zm39.5 0c2 0 2.9.1 5.6 0-.7 1.7-.9 2.2-1.4 3.7h-5.6c.6-1.9.9-2.3 1.4-3.7zm372.5 0c2 0 2.9.1 5.6 0-.7 1.7-.9 2.2-1.4 3.7h-5.6c.6-1.8.9-2.2 1.4-3.7zm-77.2 0c2 0 2.9.1 5.6 0-.7 1.7-.9 2.2-1.4 3.7H357c.6-1.8.8-2.2 1.4-3.7zm-297.7 6h5.6c-4.2 10.4-7.6 18.4-11.2 27.9h-5.6c3.2-9.7 7.7-18.3 11.2-27.9zm-39.8-.1h5.6c-3.7 9.9-7.4 18.4-11.2 27.9H9.7c3.2-9.7 7.7-18.3 11.2-27.9zm31.9 1.1h5.1c-7.3 9.3-15.1 18.1-22.8 27-3.7.2-6.4.5-7.4-.5.8-8.5 1.4-17.2 1.9-26.1h5.6c-.2 7.4-.9 14.3-1.4 21.4 6.1-5.5 12.2-15.3 19-21.8zm-38-8.7c.4.1 1.2.2 1.2.7-5.2 11.2-10 22.9-14.4 34.9h-6c4.4-11.5 9.3-22.6 14-34 .9-2 4.7-1.5 5.2-1.6zm-29 8.2c-5.3.3-9.2 1.1-12.2 3.8-2.3 2-9.1 15.2-7.9 19.5 2.2 7.8 21.7 3.6 25.6-.5 1.4-1.4 3.7-6.4 4.7-8.8 4.5-10.7 1.9-14.8-10.2-14zm-14 22.8c.5-9.9 7.6-25.6 20.5-18.6-1.5 9.9-7 26.2-20.5 18.6zm-4.2-25.6c-2.1-7.3-20.3-3.3-28.4-3.8-.3.3-.3.3-.5.9-1.2 2.2 3.2.2 3.3 1.9-4 10.6-8.5 20.7-12.6 31.2 16.4.3 33.8 1.5 34-14.4-.3-1.9-2.3-2-2.8-3.7 4.1-1.9 8.3-7.4 7-12.1zm-31.1 26.5c1.2-4.4 3-8.4 5.1-12.1 6.1.2 13.8-1.1 16.3 2.8-.5 9.8-11.1 9.4-21.4 9.3zm18.9-16.3c-3.4.9-7.9.8-12.5.6 1.1-4 3.3-7 4.2-11.2h.1c.7 0 1.3.1 2 0 2.1-.1 3.7-.1 5.5-.1 3.2 0 6.1.4 7.4 2.4 0 5-2.7 7.3-6.7 8.3zm419.7-41.1s-6.3-52.8-7.4-62c-3.5-29.2-5.2-46.4-7.9-49.9-9.4-1.9-22.2-.5-33-.9-3.2 3.7-3.5 4.7-4.7 6.5 1.5-.3 7.1.1 7.4 3.1 0 1.3-6.5 8.3-10.2 12.7-25.5 27.8-51.2 55.4-76.8 84.2-1.9 2.2-3.1 4-4.7 6h14.9c13.7-14.8 78-86.2 86.1-93.5 1.2 12.1 11.6 93.5 11.6 93.5l24.7.3zM251.9 423c-2.1-16.2-36.5-16.3-53.5-15.4-19.9 1-39.7 4.9-49.3 16.8-4.4 5.4-6.6 12.8-10.2 21.4-2.9 7-7.8 15.6-6.5 22.3 2.5 13.4 26.6 14.4 43.7 14.4 19.3 0 37.4-2.5 48.8-9.3 11-6.5 14.5-16.1 20-28.8 2.7-6.2 8-13.9 7-21.4zm-32.1 19.8c-4.5 10.5-6.9 20.2-15.4 25.6-9.9 6.4-39.6 10.1-48.8-1.3-.3-8 4-15.1 7-21.9 3-6.7 5-14.1 9.3-19.1 6.4-7.4 18.3-10.6 32.1-10.7 7.6-.1 20.4.9 22.3 7.4 1.7 5.8-4.3 14.8-6.5 20zm-81.4-53.2c-1.6-12.2-21.8-17.4-27-17.7-28.7-1.7-68.8-2.4-101.9-1.9-1 2.5-1.2 3-2.3 6 5.1 0 8.3-.3 9.6 1.6 1.5 2.1-1 7.7-4.5 15.1-13.6 29.3-25.6 62.1-36.7 89.8 48.4-.7 122 6.7 145.1-22.8 3-3.8 5.9-9.2 6.5-14.9 2-17.3-13.6-17.4-26.5-20.5 12.6-2.8 26-9 32.6-18.4 2.8-4.2 5.8-10.7 5.1-16.3zm-37.2 53.8c1.2 10.2-8.3 20.4-15.4 24.7-18.8 11.4-55.1 6.4-82.8 7.4 6.8-15.4 12.6-31.8 20-46.5.7.3 75.6-7.5 78.2 14.4zM96.4 415c-16.5 9.5-49.1 7.5-70.7 7.4 5.8-15.4 12.1-30.4 18.1-45.6.5-.4 1-.7 1.5-.9 24.9-.1 25.2-.2 38.1 0 10.9.2 25.6 1.7 28.4 9.3 4.5 12.3-7.8 25.4-15.4 29.8z" fill="#0D2B60"/><path d="M457.4 240.4s-15.3 5.2-25.8 23.6c-10 17.5-30.2 72.6-35.8 96.1-3.9 16.6-17.6 36.5-21.4 44.1-17.7 35-35.4 40.5-42.1 40.8-19.2.9-28.6-12.4-28.6-12.4l11-.9s7.9 7.5 19.7.5c13.2-7.9 23.2-31.2 30.6-49.8 10.1-25.8 20.8-66.5 26.7-79 22.7-45.1 31.8-49.8 42.8-56.4 11.2-6.8 22.9-6.6 22.9-6.6z" fill="#D6430D"/><path d="M447.1 249.5c-5.5 3.8-12.6 12.9-12.6 12.9s12.1-20.4 25.3-18.5c17.7 2.5 27.9 37.2 27.9 37.2s-13-20.1-24.2-29.3c-4.5-3.6-11.8-5.5-16.4-2.3z" fill="#D6430D"/><path d="M470.6 283.5s-17.2 2.1-27.7 20.5c-10 17.5-14.7 24.9-25.4 46.5-7.6 15.2-24.1 52.7-27.9 60.3-17.7 35-33.2 39-39.9 39.3-19.2.9-30.8-10.9-30.8-10.9l11-.9s8.1 6.4 18.3-1.9c19.8-16.1 31.6-55.5 44.6-80.9 7.2-14.2 17.1-33 23.9-42.3 11.8-16.2 22.8-25.5 36.1-29.2 6.8-1.9 17.8-.5 17.8-.5z" fill="#F5A300"/><path d="M447.1 301s10.5-16.2 23.6-14c16.2 2.7 27.1 39.9 27.1 39.9s-17.1-30.6-30.8-36.4c-8.1-3.4-19.9 10.5-19.9 10.5z" fill="#F5A300"/><path d="M456.1 348.3s-15.3 1.9-24.2 16.3c-5.3 8.6-25.5 43.8-25.5 43.8s-15.1 21.4-20.4 28.1c-7.2 9.3-20.1 17.2-26.8 17.5-17.8.8-24.1-9.4-24.1-9.4l8.2-.6s8 4.3 15.2.4c10.5-5.7 22.7-26.8 28.9-36.6 5.4-8.6 15.7-24.5 22.3-33.9 6.2-8.9 19.1-21.3 32.3-25.2 5.4-1.5 14.1-.4 14.1-.4z" fill="#AABC14"/><path d="M438.3 359.6s8.4-9.7 15.9-8.5c11.9 1.8 17.4 27.4 17.4 27.4s-9-20.5-18.3-24.8c-5.5-2.6-15 5.9-15 5.9z" fill="#AABC14"/><path fill="none" d="M23 429l47.1-.5"/></svg>