<svg viewBox="0 0 781.91 216.66" xmlns="http://www.w3.org/2000/svg"><path d="M775.116 170.34l-4.613 2.208a4.237 4.237 0 00-1.291-2.144c-.656-.592-1.407-.885-2.246-.885-.923 0-1.82.312-2.685.948-.86.63-1.355 1.413-1.483 2.335-.082.382-.095.732-.031 1.044.063.318.222.617.477.916.248.293.477.547.693.757.21.21.567.445 1.07.694.508.254.877.445 1.106.572.23.121.687.337 1.355.63.675.3 1.14.484 1.394.573 1.979.878 3.486 1.953 4.517 3.22 1.03 1.259 1.362 3.034.98 5.305-.42 2.78-1.762 5.084-4.015 6.916-2.252 1.833-4.772 2.749-7.546 2.749-2.487 0-4.549-.662-6.19-1.985-1.642-1.33-2.679-3.175-3.099-5.535l4.804-1.89c.458 1.552 1.069 2.736 1.832 3.537.758.796 1.915 1.197 3.474 1.197 1.35 0 2.545-.42 3.601-1.26 1.05-.84 1.686-1.94 1.896-3.283.166-1.018-.019-1.896-.566-2.66-.553-.757-1.285-1.342-2.214-1.769-.929-.42-1.928-.89-2.997-1.418a35.461 35.461 0 01-2.97-1.616c-.91-.541-1.604-1.356-2.088-2.43-.49-1.07-.623-2.348-.413-3.825.42-2.436 1.61-4.453 3.569-6.031 1.96-1.578 4.18-2.367 6.668-2.367 1.641 0 3.117.515 4.422 1.546 1.304 1.037 2.17 2.354 2.59 3.951m-24.957 11.244h-23.312c-.42 2.78.121 5.128 1.642 7.05 1.514 1.915 3.683 2.87 6.502 2.87 3.754 0 7.075-2.043 9.99-6.128l3.912 2.469c-1.852 2.647-4.072 4.702-6.668 6.152-2.59 1.457-5.376 2.183-8.366 2.183-4.34 0-7.61-1.464-9.83-4.39-2.208-2.927-2.978-6.56-2.304-10.9.764-4.593 2.653-8.417 5.688-11.464 3.035-3.06 6.802-4.581 11.312-4.581 2.272 0 4.282.451 6.032 1.355 1.743.91 3.06 2.138 3.945 3.696.89 1.56 1.476 3.347 1.775 5.37.292 2.024.184 4.13-.318 6.318m-22.428-4.294h17.75c0-2.19-.706-4.034-2.118-5.53-1.413-1.495-3.2-2.245-5.37-2.245s-4.25.763-6.254 2.277c-1.998 1.515-3.334 3.347-4.009 5.498m-29.254-11.624l-.566 3.6h.127c2.647-2.945 5.727-4.421 9.226-4.421 1.934 0 3.544.343 4.829 1.043 1.285.694 2.17 1.629 2.653 2.806.484 1.183.783 2.551.885 4.11.108 1.559-.005 3.2-.344 4.931l-2.78 17.624h-5.059l2.654-16.74c.165-1.139.286-2.08.35-2.812.063-.738.05-1.553-.032-2.437-.083-.884-.306-1.578-.668-2.08-.357-.51-.904-.93-1.642-1.267-.732-.337-1.673-.509-2.812-.509-1.343 0-2.532.255-3.57.764-1.03.502-1.851 1.113-2.462 1.826-.61.719-1.145 1.648-1.61 2.78-.464 1.14-.801 2.163-1.011 3.067-.21.903-.42 2.01-.63 3.315l-2.214 14.093h-5.052l4.677-29.693h5.051zm-15.649 0l-4.657 29.693h-5.026l4.65-29.693h5.033zm-2.863-13.711c.821-.713 1.725-1.076 2.704-1.076.987 0 1.775.363 2.36 1.076.586.712.796 1.558.63 2.525-.127 1.012-.597 1.865-1.418 2.558-.814.694-1.712 1.044-2.698 1.044-.992 0-1.775-.35-2.36-1.044-.592-.693-.821-1.546-.694-2.558.172-.967.662-1.813 1.476-2.525m-8.903-8.719l-8.277 52.121h-5.058l8.277-52.12h5.058zm-24.897 22.43l-.502 3.219h.127c1.304-1.394 2.462-2.412 3.474-3.06 1.011-.656 2.271-.98 3.792-.98 1.387 0 2.818.464 4.294 1.386l-3.162 4.613c-.038-.044-.165-.146-.375-.318-.216-.165-.363-.28-.445-.343a2.469 2.469 0 00-.408-.255 3.661 3.661 0 00-.477-.223 6.509 6.509 0 00-.47-.127 3.093 3.093 0 00-.605-.063c-1.05 0-2.01.28-2.87.827-.865.547-1.54 1.177-2.023 1.896-.49.712-.929 1.635-1.33 2.774-.4 1.139-.68 2.087-.852 2.844a52.385 52.385 0 00-.503 2.653l-2.341 14.85h-5.052l4.676-29.693h5.052zm-15.354 0l-4.676 29.692h-5.052l4.677-29.693h5.051zm-2.875-13.712c.82-.712 1.73-1.075 2.716-1.075.993 0 1.782.363 2.367 1.075.592.713.808 1.559.636 2.526-.127 1.012-.598 1.864-1.425 2.558-.814.693-1.724 1.043-2.71 1.043-.993 0-1.782-.35-2.373-1.043-.592-.694-.821-1.546-.694-2.558.172-.967.662-1.813 1.482-2.526m-12.473 13.711l-4.676 29.693h-5.058l.636-4.104h-.127c-3.118 3.283-6.782 4.925-10.994 4.925-2.819 0-5.21-.738-7.17-2.214-1.96-1.47-3.315-3.379-4.072-5.72-.764-2.335-.93-4.893-.51-7.673.72-4.378 2.61-8.1 5.689-11.153 3.073-3.054 6.776-4.575 11.122-4.575 1.978 0 3.779.44 5.401 1.324a10.553 10.553 0 013.945 3.728h.127l.63-4.23h5.058zm-15.353 3.85c-2.863 0-5.363 1.056-7.488 3.162s-3.423 4.612-3.888 7.52c-.502 3.073-.057 5.726 1.33 7.96 1.394 2.233 3.601 3.346 6.636 3.346 3.111 0 5.714-1.082 7.8-3.258 2.087-2.163 3.379-4.829 3.888-7.984.458-3.08-.045-5.638-1.52-7.68-1.47-2.042-3.723-3.067-6.758-3.067m176.8-72.086h-7.22v7.985c-3.233-6.273-8.47-9.505-15.602-9.505-11.879 0-19.959 8.653-19.959 22.905 0 13.889 8.176 22.93 20.341 22.93 6.566 0 11.987-3.34 15.403-9.525v7.705h7.037V97.428zm-7.036 21.677c0 9.792-5.32 15.397-13.883 15.397-9.029 0-14.156-5.796-14.156-16.059 0-9.702 5.128-15.308 13.876-15.308 8.175 0 14.163 6.083 14.163 15.97m-48.767 20.818h7.221v-28.898c0-9.6-5.7-15.117-15.117-15.117-6.464 0-11.4 2.755-15.117 8.653-2.469-5.707-7.412-8.653-14.258-8.653-6.369 0-11.21 2.66-14.634 8.08V97.43h-7.234v42.495h7.234v-21.957c0-1.043-.102-2.093-.102-3.047 0-3.233.382-5.892 2.189-8.17 2.284-2.952 5.796-4.568 9.696-4.568 7.228 0 10.555 4.18 10.555 12.738v25.004h7.222v-21.957c0-.954-.096-1.813-.096-2.666 0-3.518.477-6.178 2.29-8.55 2.272-2.953 5.701-4.57 9.595-4.57 7.222 0 10.555 4.181 10.555 12.739v25.004zm-68.451-42.495h-7.222v7.985c-3.232-6.273-8.462-9.505-15.588-9.505-11.885 0-19.972 8.653-19.972 22.905 0 13.889 8.176 22.93 20.341 22.93 6.566 0 11.987-3.34 15.41-9.525v7.705h7.03V97.428zm-7.03 21.677c0 9.792-5.326 15.397-13.89 15.397-9.022 0-14.156-5.796-14.156-16.059 0-9.702 5.135-15.308 13.876-15.308 8.176 0 14.17 6.083 14.17 15.97m-60.567 20.818h7.228v-20.729c0-11.115 3.811-16.63 11.503-16.63 1.33 0 2.85.286 4.473.852l2.468-6.56a14.716 14.716 0 00-4.943-.852c-6.47 0-10.46 3.04-14.265 10.269v-8.844h-6.465v42.495zm-52.38-21.108c0 6.185 2.284 11.7 6.75 16.161 4.378 4.384 10.079 6.77 16.352 6.77 6.184 0 11.885-2.488 16.358-6.77 4.37-4.37 6.744-9.976 6.744-16.16 0-6.172-2.373-11.88-6.744-16.162-4.473-4.37-10.084-6.744-16.358-6.744-6.274 0-11.974 2.278-16.351 6.649-4.467 4.377-6.75 10.084-6.75 16.256m7.704 0c0-9.028 6.846-16.059 15.397-16.059 8.462 0 15.308 7.03 15.308 16.059 0 9.035-6.846 16.071-15.308 16.071s-15.397-7.037-15.397-16.071m-52.007 21.108h7.228v-21.957c0-4.664 0-8.176 2.468-11.217 2.38-2.952 6.083-4.568 10.364-4.568 7.603 0 11.312 4.18 11.312 12.738v25.004h7.228v-28.898c0-9.601-6.082-15.117-15.97-15.117-6.661 0-11.796 2.564-15.403 8.08v-6.56h-7.228v42.495zm-9.316-42.495h-7.221v7.985c-3.232-6.274-8.462-9.506-15.588-9.506-11.885 0-19.972 8.653-19.972 22.905 0 13.89 8.175 22.93 20.34 22.93 6.567 0 11.988-3.34 15.41-9.524v7.705h7.031V97.428zm-7.03 21.677c0 9.792-5.326 15.397-13.89 15.397-9.021 0-14.155-5.796-14.155-16.059 0-9.703 5.134-15.308 13.876-15.308 8.175 0 14.169 6.082 14.169 15.97m-64.271-17.018v-22.72h3.9c11.79 0 17.592 1.902 17.592 11.79 0 9.41-5.892 10.931-17.592 10.931h-3.9zm0 7.323h6.184c7.03 0 12.547-.19 17.109-3.423 4.282-3.041 6.941-8.653 6.941-15.308 0-6.655-2.66-12.267-6.941-15.308-4.562-3.232-10.174-3.416-17.109-3.416h-14.265v67.97h8.08V109.41zm-39.736 10.361v-1.431c0-14.067-7.985-22.53-20.442-22.53-12.356 0-21.2 9.322-21.2 22.72 0 13.884 8.748 23.21 21.677 23.21 8.748 0 15.403-3.912 19.679-11.604l-5.51-3.71c-3.519 6.178-8.087 9.22-13.787 9.22-8.176 0-14.074-5.988-14.074-15.214v-.661h33.657zm-7.8-5.891h-25.858c.764-7.228 5.994-11.694 12.928-11.694 7.705 0 12.458 4.18 12.928 11.694m-70.25-16.451h-7.227v25.386c0 12.458 6.75 18.928 19.113 18.928 12.738 0 19.393-6.662 19.393-19.501V97.429h-7.228v20.913c-.19 11.217-2.66 16.447-11.974 16.447-9.321 0-12.076-5.23-12.076-16.447V97.429zm-24.05 42.498h7.227v-78.87h-7.228v78.87zm-39.74-60.94h6.082c10.746 0 15.69 1.998 15.69 11.79 0 8.272-4.753 10.932-15.69 10.932h-6.083v-22.72zm0 29.09h8.461c4.18 0 7.508.095 10.364 1.806 3.703 2.094 5.606 5.803 5.606 10.746 0 4.276-1.712 7.985-4.467 9.977-2.946 2.1-7.418 2.29-13.883 2.29h-6.082v-24.82zm-8.08 31.85h14.162c9.703 0 16.358-.287 21.295-5.141 3.423-3.41 5.612-8.551 5.612-14.156 0-9.124-5.04-15.5-13.024-16.733 6.464-1.903 10.078-6.846 10.078-14.074 0-6.083-2.564-11.312-6.846-14.45-4.276-3.136-9.697-3.422-17.115-3.422H218.1v67.976zM5 117.653c19.43-9.665 38.434-18 56.128-24.336 19.221-6.885 57.275-18.744 85.925-13.336 10.593 2.004 17.866 5.987 21.588 12.502 3.614 6.317 3.697 14.182 0 23.496-3.64 9.187-10.422 19.164-20.29 30.342-9.563 10.829-21.855 21.95-36.705 33.002-15.378 11.452-32.385 22.008-50.518 32.334l3.887-1.992c19.431-10.339 36.514-21.384 53.107-33.345 15.785-11.363 28.86-23.007 39.721-34.503 10.727-11.344 17.948-21.81 22.027-31.335 4.13-9.645 3.722-17.987 0-24.502-3.613-6.318-9.76-11.79-21.588-12.502-36.412-2.201-66.195 6.662-91.11 15.836-18.998 6.999-38.423 15.836-57.854 26.17L5 117.652zm18.997-67.51c18.566-10.001 37.131-18.336 55.27-24.666 19.24-6.726 57.745-19.094 86.351-13.336 9.932 1.997 17.02 6.356 20.73 12.833 3.632 6.356 3.67 14.156 0 23.337-3.666 9.155-9.742 19.36-19.432 30.17-9.734 10.862-21.677 22.072-36.698 33.175-14.767 10.899-30.66 21.327-48.793 31.335.433-.28.865-.554 1.298-.84 19.424-10.326 37.373-21.71 53.966-33.664 15.785-11.376 29-22.994 39.727-34.338 10.861-11.497 17.681-21.696 21.588-31.507 3.862-9.697 4.568-17.688.865-24.164-3.633-6.363-11.217-10.912-22.453-12.502-32.175-4.568-69.077 7.99-90.67 15.664-19.343 6.878-37.997 15.836-57.428 26.003-1.438.833-2.876 1.667-4.32 2.5" fill="#2b5b83"/></svg>