<svg width="172" height="43.998" viewBox="0 0 45.508 11.641" xmlns="http://www.w3.org/2000/svg"><g transform="translate(.133 .14) scale(.26458)" fill="#49559f"><path d="M136.58 1.008l-.008-.03-.476-.919a.077.077 0 00-.143.02l-.178.856a.077.077 0 01-.136.03l-.532-.707a.077.077 0 00-.139.045l-.016.885a.077.077 0 01-.127.056L134.14.64a.077.077 0 00-.127.07l.142.883a.077.077 0 01-.117.077l-.76-.482a.077.077 0 00-.113.089l.329.977.017.028 2.212 2.36c.02.021.053.023.076.003.244-.207.553-.34.891-.365a.055.055 0 00.052-.058zm-3.34 1.564l-.028-.017-.987-.313a.077.077 0 00-.087.116l.48.73a.077.077 0 01-.074.118l-.877-.125a.077.077 0 00-.066.13l.615.637a.077.077 0 01-.05.13l-.913.056a.077.077 0 00-.04.139l.726.524a.077.077 0 01-.028.137l-.879.196a.077.077 0 00-.017.143l.925.459.031.008 3.236.106a.055.055 0 00.056-.05c.026-.32.15-.632.371-.89a.055.055 0 00-.004-.076zm-1.26 3.467l-.031.008-.92.475a.077.077 0 00.02.144l.857.177a.077.077 0 01.03.136l-.708.531a.077.077 0 00.045.138l.887.016c.065.002.1.079.056.128l-.605.684a.077.077 0 00.07.126l.884-.141a.077.077 0 01.077.116l-.483.759a.077.077 0 00.09.114l.978-.33.028-.016 2.363-2.21a.055.055 0 00.004-.075 1.548 1.548 0 01-.366-.89.055.055 0 00-.057-.052zm1.56 3.34l-.016.028-.314.985a.077.077 0 00.116.087l.731-.48a.077.077 0 01.118.075l-.125.876a.077.077 0 00.13.066l.638-.615a.077.077 0 01.13.05l.056.912c.004.072.097.098.14.04l.524-.725a.077.077 0 01.138.028l.195.877c.016.071.112.083.144.018l.459-.924.008-.031.107-3.231a.055.055 0 00-.051-.057 1.552 1.552 0 01-.89-.37.055.055 0 00-.077.004zm3.48 1.256l.008.031.476.918a.077.077 0 00.143-.02l.178-.855a.077.077 0 01.136-.03l.532.707a.077.077 0 00.138-.045l.016-.886a.077.077 0 01.128-.056l.685.605a.077.077 0 00.126-.07l-.141-.883a.077.077 0 01.116-.077l.76.482a.077.077 0 00.114-.09l-.33-.976-.016-.028-2.212-2.36a.055.055 0 00-.076-.004c-.245.207-.553.34-.892.366a.055.055 0 00-.051.057zm3.34-1.563l.028.016.987.313a.077.077 0 00.087-.115l-.48-.73a.077.077 0 01.074-.119l.877.125a.077.077 0 00.066-.13l-.615-.637a.077.077 0 01.05-.13l.913-.056a.077.077 0 00.04-.138l-.726-.525a.077.077 0 01.028-.137l.879-.195a.077.077 0 00.017-.144l-.925-.458-.031-.008-3.236-.107a.055.055 0 00-.056.051c-.026.32-.15.632-.371.888a.055.055 0 00.004.077zm1.26-3.467l.031-.009.92-.475a.077.077 0 00-.02-.143l-.857-.177a.077.077 0 01-.03-.137l.708-.53a.077.077 0 00-.045-.139l-.887-.016a.077.077 0 01-.056-.127l.605-.684a.077.077 0 00-.07-.127l-.884.142a.077.077 0 01-.077-.117l.483-.758a.077.077 0 00-.09-.114l-.978.329-.028.016-2.363 2.21a.055.055 0 00-.004.076c.207.244.34.552.366.89.002.03.027.053.057.051zm-1.57-3.34l.016-.028.314-.986a.077.077 0 00-.116-.087l-.731.48a.077.077 0 01-.118-.075l.125-.875a.077.077 0 00-.13-.066l-.638.614a.077.077 0 01-.13-.05l-.056-.911c-.004-.072-.097-.099-.14-.04l-.524.725a.077.077 0 01-.138-.029L137.59.06a.077.077 0 00-.144-.017l-.459.923-.008.032-.107 3.23a.055.055 0 00.051.057c.32.026.632.15.89.37.023.02.057.019.077-.004z"/><circle cx="136.8" cy="5.822" r="1.362"/><path d="M29.204 33.449c0 5.194-4.056 9.13-12.222 9.13H.001V7.844h16.062c8.437 0 11.303 4.985 11.303 9.182 0 4.46-2.271 6.716-4.814 7.817 3.03.945 6.653 3.41 6.653 8.605zM4.056 23.375h12.006c3.732 0 7.247-1.784 7.247-6.034 0-2.886-1.892-5.771-6.814-5.771H4.055zm21.092 9.758c0-3.253-2.488-6.19-8.166-6.19H4.056v11.91h13.359c4.921 0 7.733-2.099 7.733-5.72zm29.689 1.89h4.435c-1.893 4.722-5.895 7.975-12.331 7.975-8.274 0-13.683-6.034-13.683-13.536s5.137-13.536 13.412-13.536 13.412 6.033 13.412 13.536v1.574H37.42c.595 4.67 4.11 8.394 9.572 8.394 3.786 0 6.382-1.783 7.843-4.407zm-17.36-7.66h18.388c-.757-4.46-4.002-7.87-9.194-7.87-5.192 0-8.437 3.41-9.194 7.87zm31.637 15.215h-4.056V5.851h4.056zm28.121-21.983v-4.25h4.056V42.58h-4.056v-4.197C95.234 41.216 92.043 43 87.554 43c-7.895 0-13.088-6.034-13.088-13.536s5.192-13.536 13.088-13.536c4.489 0 7.68 1.836 9.681 4.67zm.216 8.867c0-5.404-3.353-9.969-9.356-9.969s-9.572 4.565-9.572 9.969 3.569 9.969 9.572 9.969c6.003 0 9.356-4.565 9.356-9.969zm33.529-13.117l-10.546 26.234h-4.76l-10.6-26.234h4.435l8.545 22.036 8.491-22.036zm3.79 0h4.056v26.234h-4.056zm32.17 4.25v-4.25h4.056V42.58h-4.056v-4.197c-2.001 2.833-5.192 4.617-9.681 4.617-7.895 0-13.088-6.034-13.088-13.536s5.192-13.536 13.088-13.536c4.489 0 7.68 1.836 9.681 4.67zm.216 8.867c0-5.404-3.353-9.969-9.356-9.969s-9.572 4.565-9.572 9.969 3.569 9.969 9.572 9.969c6.003 0 9.356-4.565 9.356-9.969z"/></g></svg>