<svg style="isolation:isolate" viewBox="0 0 184 42" xmlns="http://www.w3.org/2000/svg"><defs><clipPath id="a"><path d="M0 0h184v42H0z"/></clipPath></defs><g clip-path="url(#a)" fill="#152649"><path d="M28.66 7.466V.102h7.364v7.364H28.66zm0 33.934V10.352h7.364V41.4H28.66zm17.813 0h-7.364V10.352h7.165v5.772c2.288-3.384 5.572-6.369 10.05-6.369.797 0 1.294.1 1.692.199v6.966c-.597-.1-1.692-.1-2.189-.1-3.384 0-9.454 3.185-9.454 9.355V41.4h.1zm13.633 0V.102h13.235c3.483 0 15.325 0 15.325 10.051 0 6.966-5.373 8.757-8.16 9.752 3.185.796 9.155 2.488 9.155 10.151 0 6.269-4.677 11.344-15.325 11.344h-14.23zm7.762-24.48h5.473c7.066 0 7.663-4.18 7.663-5.573 0-5.174-5.374-5.174-6.966-5.174h-6.17V16.92zm0 18.41h4.876c5.175 0 8.857-1.692 8.857-6.17 0-2.886-1.592-6.269-8.359-6.269h-5.374V35.33zm42.692 6.07l-.796-3.284c-1.791 1.592-4.777 3.981-9.354 3.981-5.573 0-9.553-3.583-9.553-8.558 0-3.185 1.194-6.966 7.961-9.355l8.856-2.985c1.294-.398 1.394-.498 1.394-1.393v-1.294c0-2.587-2.389-3.383-5.275-3.383-4.876 0-9.354 2.985-11.145 4.179V12.84c1.99-1.095 5.772-3.284 12.24-3.284 9.653 0 11.544 4.876 11.544 10.747v20.998l-5.872.099zm-8.06-13.335c-3.085 1.095-4.18 2.588-4.18 4.777 0 3.085 2.687 3.782 3.981 3.782 1.194 0 3.781-.398 6.767-3.483v-7.663c-.399.299-.598.398-1.891.896l-4.677 1.691zM19.604 41.4l-.796-3.284c-1.791 1.592-4.677 3.981-9.354 3.981C3.881 42.097 0 38.514 0 33.539c0-3.185 1.095-6.966 7.961-9.355l8.956-2.985c1.294-.398 1.393-.498 1.393-1.393v-1.294c0-2.587-2.388-3.383-5.274-3.383-4.876 0-9.354 2.985-11.145 4.179V12.84c1.99-1.095 5.772-3.284 12.24-3.284 9.653 0 11.543 4.876 11.543 10.747v20.998l-6.07.099zm-7.961-13.335c-3.085 1.095-4.18 2.588-4.18 4.777 0 3.085 2.687 3.782 3.981 3.782 1.194 0 3.782-.398 6.767-3.483v-7.663c-.398.299-.597.398-1.891.896l-4.677 1.691zM119.52 41.4V.102h7.364V41.4h-7.364zm13.63-25.475h-4.478v-5.672h4.478V.003h7.364v10.25h5.572v5.672h-5.572v15.723c0 2.289.298 4.378 3.682 4.378.895 0 1.592-.099 2.189-.199V41.4c-.995.1-1.99.199-3.483.199-8.26 0-9.752-4.08-9.752-9.553V15.925zm15.82-8.459V.003h7.364v7.463h-7.364zm0 33.934V10.352h7.364V41.4h-7.364zm34.33-22.689c-1.492-1.293-3.881-3.184-8.06-3.184-6.369 0-8.956 5.274-8.956 10.349 0 2.189.597 10.35 8.757 10.35 4.279 0 6.966-1.891 8.956-3.284v6.567c-1.493.797-4.876 2.488-10.15 2.488-10.549 0-15.027-7.961-15.027-16.22 0-8.559 4.876-16.221 15.325-16.221 5.075 0 7.862 1.592 9.155 2.289v6.866z"/></g></svg>