<svg xmlns="http://www.w3.org/2000/svg" width="800.109" height="87" viewBox="0 0 211.696 23.019"><path d="M9.723 22.822L0 22.936V.093l10.12.094 10.12.094 1.526.608 1.526.607.827.696.827.697.486 1.069.486 1.07.006 1.239.006 1.24-.28.744-.28.745-1.043 1.068-1.042 1.067.774.457.773.457.615.99.615.988v3.704l-.75 1.277-.752 1.278-1.233.782-1.234.783-1.323.43-1.323.43zm2.262-4.217l5.9-.084.737-.484.737-.483.373-.893.373-.893-.251-.66-.251-.66-.727-.477-.727-.477-6.032-.084-6.032-.084v5.364zm-.674-9.219l5.225-.006 1.033-.239 1.032-.24.483-.482.482-.483.165-.825.165-.826-.797-.893-.798-.894-6.108-.08-6.108-.08v5.055zm22.159 13.5h-3.043V.091l9.459.101 9.459.102 1.76.583 1.76.584 1.345 1.208 1.344 1.21.401 1.35.401 1.35-.002.811-.002.812-.266.959-.266.958-1.077 1.223-1.076 1.223-1.838.889-1.838.89.405.335.405.337 3.734 3.935 3.733 3.935h-8.14l-3.66-3.968-3.66-3.969h-6.296v7.937zm7.263-11.906h4.22l1.357-.29 1.357-.292.897-.787.897-.788.164-.874.164-.873-.438-.847-.438-.847-1.107-.502-1.107-.503-5.093-.006-5.093-.006v6.615zm23.56 11.906h-2.91V.132h5.821v22.754zm20.374 0h-2.91V4.366H70.378V.132h28.576v4.234H87.577v18.52zm16.8 0h-.132v-.264h.265v.264zm19.58 0h-.132v-.264h.264v.264zm9.59-5.622l-.076 5.755V0l.077 5.755.076 5.754zm17.462 3.704l-.09 2.05v-8.201l.09 2.05.09 2.05zm13.47 1.918h-.091l-.504-.595-.504-.595.595.504.595.504v.182zm8.215 0h-.079l-1.046-1.124-1.045-1.124 1.124 1.045 1.125 1.046v.157zm19.128-.041h-.661l.33-.134.331-.133.331.133.331.134zm-60.721-.223h-.133v-.265h.265v.265zm62.838 0h-.353l.177-.177.176-.176.177.176.176.177zm-89.297-.265h-.132v-.264h.265v.264zm19.05 0h-.132v-.264h.265v.264zm71.173 0h-.132v-.264h.264v.264zm-95.514-.264h-.133v-.265h.265v.265zm31.5 0h-.116l-.189-.306-.189-.305.306.189.305.188v.234zm64.808 0h-.132v-.265h.264v.265zm-16.933-.265h-.133v-.264h.265v.264zm17.462 0h-.132v-.264h.264v.264zm-96.573-.264h-.132v-.265h.265v.265zm5.556 0h-.132v-.265h.265v.265zm17.992 0h-.132v-.265h.264v.265zm56.621 0h-.132v-.265h.264v.265zm16.933 0h-.132v-.265h.265v.265zm-66.41-.265h-.132v-.265h.264v.265zm50.27 0h-.132v-.265h.265v.265zm16.67 0h-.133v-.265h.265v.265zm-91.811-.265h-.132v-.264h.264v.264zm17.463 0h-.133v-.264h.265v.264zm58.208 0h-.132v-.264h.264v.264zm-80.963-.264h-.132v-.265h.265v.265zm97.896 0h-.132v-.265h.265v.265zm-75.406-.265h-.132v-.264h.264v.264zm7.144 0h-.133v-.264H127v.264zm52.387 0h-.132v-.264h.265v.264zM97.5 20.241h-.132v-.265h.264v.265zm82.285 0h-.132v-.265h.265v.265zm-53.18-.265h-.133v-.265h.264v.265zm32.328 0h-.083l-.777-.86-.777-.86.86.777.86.777v.166zm-55.612-.265h-.132v-.264h.264v.264zm15.875 0h-.132v-.264h.264v.264zm61.35 0h-.1v-.2l.464-.362.463-.364-.363.463-.363.463zm-76.96-.529h-.133v-.264h.265v.264zm15.345 0h-.132v-.264h.265v.264zm7.144 0h-.132v-.264h.264v.264zm-27.781-.264h-.133v-.265h.265v.265zm27.516-.265h-.132v-.264h.265v.264zm71.407 0h-.133l.164-.264.163-.265h.265l-.164.265-.163.264zm-98.659-.264h-.132v-.265h.265v.265zm5.557 0h-.133v-.265h.265v.265zm14.287 0h-.132v-.265h.264v.265zm-14.023-.53h-.132v-.264h.264v.264zm13.758 0h-.132v-.264h.265v.264zm7.144 0h-.132v-.264h.265v.264zm-26.194-.264h-.132v-.265h.265v.265zm83.578 0h-.133l.164-.265.163-.264h.265l-.164.264-.163.265zm-57.648-.265h-.133v-.264h.265v.264zm73.258 0h-.132l.163-.264.164-.265h.264l-.163.265-.164.264zm-98.923-.264h-.132V16.8h.264v.265zm25.135-.53h-.132v-.264h.265v.264zm31.27 0h-.082l-.777-.86-.777-.86.86.778.86.777v.165zm-55.876-.264h-.132v-.265h.265v.265zm63.554 0h-.079l-1.046-1.125-1.045-1.124 1.124 1.046 1.125 1.046v.157zm20.32 0h-.133v-.265h.264v.265zm-59.532-.265h-.132v-.264h.264v.264zm75.11 0h-.132l.164-.264.163-.265h.265l-.164.265-.163.264zm-99.187-.264h-.132v-.265h.264v.265zm23.548-.53h-.133v-.264h.265v.265zm60.823 0h-.133l.164-.264.163-.265h.265l-.164.265-.163.265zm15.61-.264h-.132l.163-.265.164-.264h.264l-.163.264-.164.265zm-76.698-.265h-.132v-.264h.264v.264zm-22.49-.264h-.132v-.265h.265v.265zm61.12-.265h-.133v-.264h.265v.264zm-60.855-.264h-.132v-.265h.264v.265zm21.696 0h-.132v-.265h.264v.265zm39.952 0h-.132v-.265h.264v.265zm22.723 0h-.132l.163-.265.164-.265h.264l-.163.265-.164.265zm-70.04-.353l-.176.176v-.705l.177.176.176.176zm47.846.088h-.132v-.265h.265v.265zm37.804 0h-.132l.164-.265.163-.264h.265l-.164.264-.163.265zm-78.55-.265h-.132v-.264h.265v.264zm41.275 0h-.132v-.264h.265v.264zm-62.177-.264h-.132v-.265h.265v.265zm62.675 0h-.132l.164-.265.163-.264h.265l-.164.264-.163.265zm-57.118-.265h-.133v-.264h.265v.264zm7.937 0h-.132v-.264h.264v.264zm71.142 0h-.133l.164-.264.163-.265h.265l-.163.265-.164.264zm-84.371-.264h-.132v-.265h.264v.265zm20.108 0h-.132v-.265h.265v.265zm43.095 0h-.1v-.2l.463-.363.463-.363-.363.463-.363.463zm-57.647-.265h-.132v-.264h.264v.264zm94.721 0h-.132v-.264h.264v.264zm-87.577-.264h-.132v-.265h.264v.265zm7.144 0h-.133v-.265h.265v.265zm-19.315-.265h-.132v-.265h.264v.265zm5.292 0h-.133v-.265h.265v.265zm6.614-.265h-.132v-.264h.265v.264zm51.826 0h-.1v-.2l.463-.363.463-.363-.363.463-.363.463zm21.168 0h-.132l.163-.264.164-.265h.264l-.163.265-.164.264zm-84.635-.264h-.133v-.265h.265v.265zm18.52 0h-.132v-.265h.265v.265zm81.725 0h-.132l.164-.265.163-.264h.265l-.164.264-.163.265zm-94.69-.265h-.131v-.264h.264v.264zm5.822 0h-.133v-.264h.265v.264zm38.554-.06l-4.572.06-.133-.347-.133-.347.085-3.026.085-3.027.056 3.235.057 3.235 4.564.08 4.564.078zm-49.667-.204h-.132v-.265h.265v.265zm17.992 0h-.132v-.265h.264v.265zm37.438 0h-.352l.176-.177.176-.176.177.176.176.177zm-49.874-.265h-.132v-.265h.265v.265zm50.536 0h-.132v-.265h.264v.265zm7.937 0h-.132v-.265h.265v.265zm-53.445-.265h-.133v-.264h.265v.264zm46.037 0h-.132v-.264h.264v.264zm28.84 0h-.133v-.264h.265v.264zm-84.932-.264h-.132v-.265h.265v.265zm5.292 0h-.132v-.265h.264v.265zm11.642 0h-.133v-.265h.265v.265zm46.831 0h-.132v-.265h.264v.265zm36.746 0h-.132l.163-.265.164-.264h.264l-.163.264-.164.265zm-90.721-.265h-.132v-.264h.264v.264zm-9.525-.264h-.132v-.265h.264v.265zm16.404 0h-.132v-.265h.264v.265zm47.405-.089l-.177.177v-.706l.177.177.176.176zm-58.253-.176h-.132v-.264h.265v.264zm3.704 0h-.132v-.264h.265v.264zm47.625 0h-.132v-.264h.265v.264zm28.544 0h-.132l.163-.264.164-.265h.264l-.163.265-.164.264zm-84.9-.53h-.132v-.264h.264V8.6zm5.292 0h-.132v-.264h.264V8.6zm10.054 0h-.132v-.264h.264V8.6zm41.275 0h-.132v-.264h.264V8.6zm44.185 0h-.132v-.264h.265V8.6zM104.643 8.07h-.133v-.265h.265v.265zm5.291 0h-.132v-.265h.265v.265zm9.525 0h-.132v-.265h.265v.265zm-7.143-.265h-.133v-.264h.265v.264zm78.02 0h-.132l.164-.264.163-.265h.265l-.164.265-.163.264zm-22.414-.353l-.176.177v-.706l.176.177.177.176zm38.025.089h-.132l.163-.265.164-.265h.264l-.163.265-.164.265zm-100.775-.265h-.132v-.265h.264v.265zm5.292 0h-.133v-.265h.265v.265zm1.587 0h-.132v-.265h.264v.265zm6.88 0h-.133v-.265h.265v.265zm-13.495-.53h-.132v-.264h.265v.265zm5.292 0h-.132v-.264h.264v.265zm1.058 0h-.132v-.264h.265v.265zm6.88 0h-.133v-.264h.265v.265zm42.377-.087l-.176.176V6.13l.176.177.176.176zm30.087.088h-.132l.163-.265.164-.264h.265l-.164.264-.163.265zm-85.429-.53h-.132v-.264h.264v.265zm101.304 0h-.132l.163-.264.164-.264h.265l-.164.264-.163.265zm-95.748-.264h-.132V5.69h.265v.264zm6.88 0h-.133V5.69h.265v.264zm42.333-.264h-.132v-.265h.264v.265zm7.188-.089l-.177.177V5.07l.177.177.176.176zm-61.428-.176h-.132v-.265h.265v.265zm11.642 0h-.132v-.265h.264v.265zm74.317 0h-.133l.164-.265.163-.264h.265l-.164.264-.163.265zm-32.513-.265h-.132v-.264h.264v.264zm48.123 0h-.132l.163-.264.164-.265h.264l-.163.265-.164.264zm-101.304-.264h-.132V4.63h.264v.265zm52.652 0h-.132V4.63h.264v.265zm8.202 0h-.132V4.63h.264v.265zm-50.006-.265h-.133v-.264h.265v.264zm40.878 0h-.353l.176-.176.177-.177.176.177.177.176zm8.863-.264h-.132V4.1h.265v.265zm-60.06-.265h-.132v-.265h.264v.265zm10.054 0h-.132v-.265h.264v.265zm76.2 0h-.132v-.265h.264v.265zm-26.443-.265h-.116l-.189-.305-.189-.305.306.188.305.19v.232zm42.022 0h-.132l.164-.264.163-.265h.265l-.164.265-.163.264zM107.29 3.572h-.133v-.265h.265v.265zm9.26-.265h-.132v-.264h.264v.264zm77.492-.264h-.133l.164-.265.163-.264h.265l-.164.264-.163.265zm-86.223-.265h-.133v-.264h.265v.264zm8.466 0h-.132v-.264h.265v.264zm49.228-.264h-.116l-.189-.306-.189-.305.306.188.305.19v.233zm44.404 0h-.133l.164-.265.163-.265h.265l-.164.265-.163.265zm-101.834-.265h-.132v-.265h.265v.265zm7.673-.265h-.132V1.72h.265v.264zm-7.408-.264h-.132v-.265h.264v.265zm56.092 0h-.133v-.265h.265v.265zm30.66 0h-.132l.163-.265.164-.264h.264l-.163.264-.164.265zm-79.608-.265h-.133v-.264h.265v.264zm48.418 0h-.132v-.264h.265v.264zm46.8 0h-.132l.164-.264.163-.265h.265l-.164.265-.163.264zm-47.593-.264h-.133V.926h.265v.265zm-54.24-.265h-.132V.661h.264v.265zm53.578 0h-.353l.177-.176.176-.177.177.177.176.176zM114.961.661h-.132V.397h.265V.66zm46.435 0h-.353l.176-.176.177-.176.176.176.177.176zm34.497 0h-.133l.164-.264.163-.265h.265l-.163.265-.164.264zM109.14.397h-.133V.132h.265v.265zm50.513-.021l-.507-.02.347-.14.347-.139.16.16.16.16z" fill="#af9b78"/><path d="M181.041 22.878l-6.68.008v-.99l1.299-.172 1.3-.173 1.809-.906 1.81-.906 1.029-1.056 1.03-1.056 6.799-8.681 6.798-8.682 7.73-.07 7.73-.07-1.419 1.79-1.42 1.79-6.268 7.99-6.269 7.992-.87.663-.87.664-1.474.675-1.474.674-1.954.254-1.955.254-6.68.008z" fill="#ec1c24"/><path d="M98.686 22.886h-2.642v-.213l6.59-11.204L109.227.265 111.96.19l2.736-.073 6.218 10.367 6.217 10.368.61 1.017.61 1.016H121.2l-1.532-2.642-1.532-2.643-6.879.002-6.879.002-1.524 2.64-1.525 2.641zm12.571-9.26h4.366v-.264l-2.143-3.77-2.142-3.771-.063-.067-.062-.066-2.16 3.776-2.161 3.776v.386zm22.358 9.26h-2.91V.132h5.82v22.754zm11.377 0h-2.91V.091l9.326.102 9.326.101 1.721.571 1.721.571 1.104.812 1.104.812.681 1.366.68 1.366-.005 1.47-.006 1.47-.484 1.058-.483 1.058-.9.878-.9.879-1.773.86-1.774.859 2.256 2.23 2.256 2.231 1.86 2.05 1.862 2.051h-7.957l-3.653-3.968-3.652-3.969h-6.49v7.937zm8.334-11.957l5.027-.1.837-.449.836-.448.553-.702.552-.702V6.317l-.566-.608-.567-.608-.88-.368-.88-.367h-10.336v6.261l.199.202.198.202z" fill="#001f56"/></svg>