<svg width="257" height="47" viewBox="-0.334 -0.667 257 47" xmlns="http://www.w3.org/2000/svg"><path d="M175.24 12.794c-1.038 0-1.766.864-1.766 1.855 0 .96.728 1.856 1.766 1.856 1.041 0 1.767-.896 1.767-1.855 0-.992-.726-1.856-1.767-1.856zm-131.27.715c-4.975 0-11.759 2.626-11.759 11.468 0 8.412 5.676 11.378 11.691 11.378 3.055 0 5.623-.842 6.505-1.273.753-1.987 1.087-3.544 1.275-5.634l-.85-.179c-.975 2.645-1.764 5.992-6.997 5.992-5.733 0-8.316-5.25-8.316-10.91 0-6.19 3.26-9.769 8.428-9.769 5.386 0 5.788 4.042 6.103 5.365l.849-.178c0-1.657-.208-3.597-.492-4.918-.819-.534-3.223-1.342-6.438-1.342zm117.45 0l-.916.313a89.64 89.64 0 00-.76 1.968l-6.55 16.744c-.76 1.924-.921 2.282-2.124 2.481l-.58.111v.716h6.616v-.716l-1.9-.267c-.348-.034-.76-.13-.76-.761 0-.259.269-1.173.648-2.235l1.587-4.582c1.1-.199 2.207-.336 3.308-.336 1.172 0 2.345.103 3.51.336l2.192 6.258c.061.235.2.467.2.694 0 .364-.415.53-.984.626l-1.408.267v.716h7.803v-.716l-1.252-.2c-.817-.164-1.135-.93-1.61-2.258l-7.02-19.159zm-1.318 4.494l2.883 8.003c-1.008-.13-2.01-.156-3.017-.156-.944 0-1.917.091-2.862.156l2.996-8.003zm-99.837 2.28c-3.34 0-5.357 2.23-6.305 3.554.223.6.458.919.806 1.32h.268c.6-1.228 1.367-3.31 3.89-3.31 2.36 0 2.928 1.882 2.928 4.07v.76c-2.772.858-8.204 2.157-8.204 6.46 0 1.826 1.556 3.219 3.89 3.219 2.455 0 3.639-.72 4.65-1.409.314.69.872 1.409 2.48 1.409 1.32 0 1.985-.532 2.392-.827l-.156-.47c-.122.066-.244.135-.559.135-1.732 0-1.744-2.49-1.744-4.807v-4.74c0-3.38-.747-5.364-4.337-5.364zm27.876 0c-1.105 0-3.983.862-4.896 1.162l.134.805.693-.201c.063 0 .293-.045.448-.045.885 0 .871.933.871 4.18v6.417c0 2.054-.282 2.282-1.386 2.414l-.76.111v.716h7.042v-.716l-.738-.111c-1.163-.132-1.408-.36-1.408-2.414v-8.809c.472-.56 1.506-1.944 3.398-1.944 3.243 0 3.241 3.317 3.241 4.604v6.149c0 2.054-.285 2.282-1.385 2.414l-.76.111v.716h7.019v-.716l-.716-.111c-1.163-.132-1.408-.36-1.408-2.414v-4.673c0-2.821-.029-3.433-.156-4.493.885-.954 1.892-1.587 3.308-1.587 3.495 0 3.487 3.137 3.487 6.147v4.606c0 2.054-.282 2.282-1.385 2.414l-.76.111v.716h7.019v-.716l-.715-.111c-1.166-.132-1.409-.36-1.409-2.414v-5.388c0-3.277-.02-6.93-5.187-6.93-2.297 0-4.028 1.485-4.783 2.146-.345-.956-1.47-2.146-4.114-2.146-2.488 0-3.972 1.53-4.694 2.258v-2.258zm28.816 0c-3.338 0-5.34 2.23-6.282 3.554.215.6.46.919.805 1.32h.268c.597-1.228 1.367-3.31 3.89-3.31 2.362 0 2.928 1.882 2.928 4.07v.76c-2.773.858-8.227 2.157-8.227 6.46 0 1.826 1.577 3.219 3.912 3.219 2.456 0 3.617-.72 4.628-1.409.315.69.896 1.409 2.504 1.409 1.323 0 1.981-.532 2.391-.827l-.156-.47c-.128.066-.266.135-.58.135-1.734 0-1.722-2.49-1.722-4.807v-4.74c0-3.38-.768-5.364-4.36-5.364zm13.167 0c-1.106 0-3.96.862-4.874 1.162l.134.805.693-.201c.062 0 .266-.045.425-.045.882 0 .894.933.894 4.18v6.417c0 2.12-.286 2.282-1.386 2.414l-.76.111v.716h7.02v-.716l-.716-.111c-1.166-.132-1.43-.294-1.43-2.414v-8.965c.566-.759 1.592-1.788 3.263-1.788 3.75 0 3.733 3.212 3.733 6.326v4.427c0 2.12-.283 2.282-1.386 2.414l-.76.111v.716h7.042v-.716l-.738-.111c-1.167-.132-1.408-.294-1.408-2.414v-4.918c0-3.813-.005-7.4-4.918-7.4-2.4 0-4.104 1.403-4.828 2.102v-2.102zm46.833 0c-1.105 0-3.979.86-4.896 1.162l.134.805.693-.201c.066 0 .265-.045.425-.045.88 0 .895.932.895 4.18v6.417c0 2.219-.283 2.282-1.387 2.414l-.76.111v.716h7.02v-.716l-.716-.111c-1.162-.132-1.408-.195-1.408-2.414V20.283zm7.713 0c-.881 0-2.99.634-4.561 1.23l.246.782.29-.09c.25-.065.486-.201.737-.201.881 0 .895.724.895 4.136v6.46c0 2.287-.282 2.283-1.386 2.415l-.76.111v.716h7.534v-.716l-.738-.111c-1.672-.132-1.9-.128-1.9-2.414v-8.875c0-.494.49-1.297 1.497-1.297.442 0 2.153.576 2.594.738.727-.594 1.145-1.086 1.587-1.878-.406-.266-1.414-1.006-2.392-1.006-1.604 0-2.952 1.616-3.42 2.146a9.49 9.49 0 00-.223-2.146zm36.907 0c-3.34 0-5.356 2.23-6.304 3.554.223.6.481.919.827 1.32h.246c.594-1.228 1.39-3.31 3.912-3.31 2.364 0 2.929 1.882 2.929 4.07v.76c-2.774.858-8.227 2.157-8.227 6.46 0 1.826 1.58 3.219 3.912 3.219 2.456 0 3.62-.72 4.627-1.409.314.69.88 1.409 2.482 1.409 1.323 0 2.005-.532 2.414-.827l-.156-.47c-.127.066-.268.135-.581.135-1.735 0-1.722-2.49-1.722-4.807v-4.74c0-3.38-.768-5.364-4.36-5.364zm27.63 0c-2.739 0-5.029 1.488-5.029 4.202 0 5.403 6.997 3.812 6.997 8.317 0 1.163-.838 2.459-2.259 2.459-2.52 0-3.59-2.16-4.224-4.315h-.85c0 1.296.127 2.957.604 4.449.846.399 1.952.96 4.002.96 2.991 0 5.455-1.502 5.455-4.649 0-5.297-6.998-4.205-6.998-7.98 0-1.456.817-2.348 2.012-2.348 2.051 0 3.063 2.377 3.063 3.867h.984c0-1.755-.11-2.808-.425-4-.693-.429-1.66-.962-3.331-.962zm-183.18.492v.737l.828.268c1.232.4 1.224.922 1.631 2.012l3.778 8.965c.408 1.031.94 2.305.94 3.666 0 3.107-3.107 3.788-4.874 5.41-.22.295-.407 1.026-.47 1.72.224.034.406.068.626.068 3.15 0 4.592-3.376 5.79-6.393l3.443-8.428c.884-2.25 2.338-5.833 3.062-6.595.222-.23.565-.367.85-.47l.648-.223v-.737h-6.393v.737l1.676.29c.377.067.94.134.94.537 0 .925-3.179 9.346-3.555 10.306l-3.6-9.21c-.16-.394-.312-.871-.312-1.006 0-.363.532-.497 1.006-.626l1.23-.29v-.739h-7.244zm124.96 0v.737l.939.224c.913.234 1.022 1.009 1.364 2.035l4.247 12.585c.444-.069.914-.438 1.23-.738l4.002-10.439 4.314 11.177c.285-.097.824-.37 1.14-.737l4.068-11.49c.537-1.553.783-2.125 1.632-2.392l.716-.224v-.737h-6.125v.737l1.05.201c1.072.2 1.409.267 1.409.828 0 .467-.24 1.245-.336 1.542l-2.392 8.25h-.066l-4.314-11.38c-.255 0-.678.16-.895.291l-4.18 11.088h-.046l-2.682-8.674c-.091-.3-.223-.686-.223-1.05 0-.597.244-.706 1.095-.872l1.14-.224v-.737h-7.086zm36.372 0v.737l.804.268c1.23.4 1.244.922 1.654 2.012l3.779 8.965c.409 1.031.938 2.305.938 3.666 0 3.107-3.128 3.788-4.895 5.41-.214.295-.405 1.026-.47 1.72.222.034.428.068.648.068 3.149 0 4.595-3.376 5.79-6.393l3.421-8.428c.882-2.25 2.34-5.833 3.063-6.595.22-.23.57-.367.849-.47l.67-.223v-.737h-6.393v.737l1.654.29c.376.066.962.134.962.537 0 .925-3.176 9.346-3.555 10.306l-3.6-9.21c-.15-.394-.312-.871-.312-1.006 0-.363.535-.498 1.006-.626l1.23-.29v-.739h-7.244zM61.419 28.24h.424v5.59c-.218.327-1.002 1.363-2.392 1.363-1.796 0-2.928-1.13-2.928-3.018 0-3.112 3.1-3.935 4.896-3.935zm56.714 0h.425v5.59c-.221.327-1.008 1.363-2.392 1.363-1.799 0-2.929-1.13-2.929-3.018 0-3.112 3.096-3.935 4.895-3.935zm104.62 0h.424v5.59c-.22.327-1.011 1.363-2.392 1.363-1.795 0-2.929-1.13-2.929-3.018 0-3.112 3.095-3.935 4.897-3.935zM10.278 15.113l-5.205 6.618s-1.162 1.402 1.462 3.086l2.064-2.66.439.318-1.981 2.76 1.955 1.41-1.492 1.894s-.795 1.06.136 2.183l.014.054-2.857 3.91s-.232.305-.26.433c-.027.129-.054.244 0 .29.055.037.18.095.426-.144.242-.248 3.487-3.439 3.487-3.439s.12-.245.516-.044.768.435 1.615-.254c.845-.691 2.529-3.139 2.529-3.139l.135.019.235 3.278 4.47.014 5.962 4.49.832-.042-9.698-7.626.338-.35 2.183 1.687-1.874-14.72-5.431-.026" fill="#18468B"/><path d="M11.214 7.563c-1.958-.024-3.107.156-3.107.156-1.352.177-1.833.56-1.833.56-1.51.939-1.342 3.24-1.342 3.24l1.498-.044.022.246c.103.972 1.051.961 1.051.961 1.756-.159 2.214.09 2.214.09.622.121.625.67.625.67l5.32-.045s-.277-4.04-.871-4.918c-.49-.711-1.364-.827-1.364-.827a31.764 31.764 0 00-2.213-.09zm5.276 7.914l.313 2.347 2.57.067.448-1.364s-1.479-1.036-3.331-1.05zm3.912 1.408l-.447 1.341 1.475 1.721 1.677-.045s-.751-2.052-2.705-3.017zm-3.532 1.587l.536 3.689 2.571.133.984-2.034-1.587-1.766-2.504-.022zm6.349 1.99l-1.677.066-.894 1.945 1.319 1.498h1.855c.264-2.091-.603-3.51-.603-3.51zm-5.723 2.325l.514 3.554 2.392-.045 1.207-2.012-1.296-1.408-2.817-.09zm-6.483 1.229l-2.08 2.571c1.557 1.151 2.46-.201 2.46-.201.978-1.18-.38-2.37-.38-2.37zm10.954.58l-1.14 1.812 1.452 1.341c1.02-1.123 1.387-3.152 1.387-3.152h-1.7zM20.424 26.9l-2.347.068.491 3.465c1.713-.44 3.287-2.101 3.287-2.101L20.424 26.9z" fill="#419629"/><path d="M11.125 2.823c-4.216.084-7.22 2.996-7.22 2.996L6.52 8.345c1.18-.791 6.17-.425 6.17-.425 1.82-.067 1.99.94 1.99.94.405.895.804 4.515.804 4.515l-5.343.022c-.36.918.134 1.722.134 1.722l7.557.045h.11c.248-.03.749-.44.985-.537.5-.206.998-.52 1.319-.984.072-.11.128-.219.223-.313.311-.313.76-.47 1.185-.492.621-.036 1.215.248 1.833.29.51.037 1.041-.027 1.498-.29.467-.27.826-.707 1.096-1.207.133-.26.201-.573.38-.804.104-.139.228-.264.38-.336.257-.118.554-.114.827-.045.386.23.797.41 1.229.47.323.043.647.013.939-.134.15-.077.298-.203.402-.336.15-.18.212-.417.269-.648l.38-2.414c.035-.227.113-.433.178-.649.083-.27.126-.55.247-.804.232-.475.54-.897.871-1.297v-.067c-.181-.046-.371-.027-.558-.022-.6.022-1.202.12-1.79.245-1.158.262-2.278.736-3.218 1.521-.162.135-.316.3-.47.447l-.178.134a3.293 3.293 0 00-1.9 1.296 3.556 3.556 0 00-.314.493c-.051.098-.07.202-.112.313-.083.214-.185.427-.268.648-.102.25-.291.474-.514.603-.205.115-.463.15-.693.18-.592.082-1.185.07-1.788.021-.597.048-1.212.22-1.721.582a3.088 3.088 0 00-.515.491c-.27.312-.44.71-.76.962-1.08.852-1.232.917-1.497.894l-.045-.425 4.515-4.717-.09-.022c-1.067.793-1.407-.67-1.407-.67-.445-1.69-1.968-2.907-1.968-2.907-2.183-2.006-5.767-1.81-5.767-1.81zm-.313 13.212l.358.537 3.599.045.268-.537-4.225-.045zm.738 1.073l.357.492 2.102.045.335-.537H11.55zm.648 1.006l.268.425h1.006l.224-.425h-1.498zm.67 1.23c-1.65-.08-2.324 1.05-2.324 1.05-.818 1.448.044 2.505.044 2.505l2.28-3.555zm.224 0l2.482 3.8s.72-1.113-.18-2.548c0 0-.792-1.21-2.302-1.252zm.649 12.966c-.12 0-.164.156-.202.268l-.022 3.152.022.09v.022l.067.045 1.99.021c.094 0 .17-.072.201-.156a2.208 2.208 0 01.067-.87h.045c.384.545.99.857 1.61 1.026l2.86.045.113-.066.044-.179c.031-.334.048-.695.023-1.03.04-.105-.036-.183-.135-.222-.13-.047-.272.007-.402 0a2.228 2.228 0 01-1.095-.38c-.353-.248-.658-.59-.805-1.006-.078-.194-.099-.395-.134-.604l-.09-.089-4.158-.067z" fill="#C4122E"/><path d="M10.856 7.317c-1.752 0-2.762.155-2.772.156-1.388.18-1.914.6-1.945.626-.65.42-1.02 1.072-1.207 1.677a5.27 5.27 0 00-.223 1.52v.246l.022.224 1.498-.068.022.045c.056.567.375.89.671 1.028.298.145.563.134.581.134h.023c.44-.038.789-.044 1.072-.044.418 0 .695.035.85.067l.134.045h.067l.023.022c.25.053.323.168.38.268l.066.134v.045h.448a1.031 1.031 0 00-.112-.402.938.938 0 00-.649-.492c-.047-.023-.326-.156-1.207-.157-.298 0-.669.027-1.117.068a1.16 1.16 0 01-.448-.157c-.164-.108-.312-.266-.357-.604h.179c.35 0 .93-.02 1.475-.09.272-.034.532-.085.76-.156.227-.075.417-.16.56-.335l-.336-.29c-.032.048-.168.12-.358.178-.575.189-1.594.226-2.101.224h-.313l-1.386.067a4.8 4.8 0 01.201-1.386c.171-.548.48-1.088 1.028-1.43h.023c.027-.023.504-.374 1.744-.537l.178-.023a21.5 21.5 0 012.526-.134c.73 0 1.602.037 2.571.112h.022c.147.02.8.174 1.163.715.114.16.23.563.335 1.051.163.734.298 1.685.38 2.437.08.75.11 1.296.112 1.296l.447-.022c0-.003-.076-1.023-.223-2.146-.073-.563-.153-1.163-.269-1.677-.113-.513-.24-.93-.424-1.207-.565-.809-1.477-.91-1.498-.916h-.022a33.523 33.523 0 00-2.594-.112zM8.442 9.06s-.842-.045-.917.872l1.923-.023s-.095-.88-1.006-.85z" fill="#18468B"/></svg>