<svg version="1.0" viewBox="0 0 500 169.49" xmlns="http://www.w3.org/2000/svg"><path d="M198.376 50.366h-8.686s-5.01 1.246-3.261-4.346l.741-3.41c.756-4.038 6.934-3.109 6.934-3.109h6.828l-2.556 10.865M188.56 29.26s-9.962.622-11.98 14.283l-6.262 36.936h11.181l3.497-20.489h10.567l-3.199 20.489h11.177l9.857-51.219H188.56zm286.416 21.106h-8.695s-5.016 1.246-2.952-4.346l.427-3.41c.758-4.038 6.948-3.109 6.948-3.109h6.826l-2.554 10.865zm-9.511-21.106s-10.27.622-11.971 14.283l-6.272 36.936h10.86l3.526-20.489h10.855l-3.192 20.489h11.18l9.54-51.219h-24.526zm-228.175 0h-13.037l-10.174 51.22h13.035l10.176-51.22zm167.018 0h-14.282l-9.85 51.219h13.968l10.164-51.219zm20.882 51.221h11.484l10.162-51.22h-11.474l-4.983 27.011-3.717-27.012h-11.799l-10.171 51.221h11.803l4.608-25.147 4.087 25.147zm-58.44-51.22l-3.736 18.002h-7.757l3.727-18.003h-13.042l-10.161 51.22h13.037l4.538-23.285h7.762l-4.544 23.285h13.052l10.161-51.219H366.75zm-97.944 13.348l-1.435 5.585c-1.445 5.587-5.433 4.349-5.433 4.349h-8.69l3.244-13.044h6.835c0 .002 6.233-.924 5.48 3.11zm3.252-13.349h-24.516L236.43 80.48h11.19l4.355-18.31 2.48.305 4.341 18.005h11.794l-4.04-18.005s8.715-.305 10.388-13.034l1.444-5.897c3.586-13.661-6.324-14.283-6.324-14.283zm45.788 31.042l-1.89 9.931h-9l5.734-30.732h9.305l-2.232 10.558h12.108l2.652-13.659c1.073-4.036-1.613-7.452-5.64-7.452h-19.56c-4.037 0-7.884 3.416-8.645 7.452l-7.485 36.632c-.754 4.034 1.908 7.447 5.95 7.447h19.25c4.032 0 8.193-3.413 8.95-7.447l2.615-12.732h-12.112v.002zm149.91 45.4c-1.425 0-2.61-2.558-1.893-3.84 4.255-4.1 8.523-7.434 14.203-9.477 3.552-.516 5.46 3.339 4.988 6.655-1.436 14.09-.723 27.408-1.908 41.247 0 1.274-.699 4.613-2.602 3.333-2.357-2.568-4.265-5.892-6.158-9.22 1.893 0 3.079 2.558 4.968 2.558.712 0 1.19-.773 1.19-1.284 0-12.545-.478-24.59 0-37.145 0-.768-1.19-2.05-2.357-1.529-3.084 2.808-5.465 4.86-8.066 8.194-.475.002-1.889.509-2.364.509zm3.55 19.215c-.477 1.534-.24 3.586-1.42 4.354-1.181.511-2.367-.511-2.367-1.284 0-1.795 2.367-4.86 4.495-3.59l-.708.52zm3.797-4.613c-3.089-2.056-5.46 2.823-8.057 4.613-.463 0-1.18 0-1.18-.52-.718-2.04.717-3.325 1.18-4.604 1.186-2.05 3.075-2.05 4.968-3.329 1.19-1.548.713-3.333 1.19-5.38 0 0-.24-.764-.477-1.284-1.42-1.275-4.968-2.045-4.968-.759-1.176 6.65-3.792 13.318-3.079 19.973 0 .768.468 2.05 1.186 2.558 1.893.773 3.777-.51 5.443 0 1.42.773 3.797 0 4.5-1.279.473-2.045.473-3.845.473-5.897-.476-1.27-.476-3.321-1.179-4.092zm-304.08-7.17l.72.515a30.47 30.47 0 00-1.903 4.102h-1.898c-1.899-2.827-4.968-7.43-2.362-9.226 2.362-2.05 3.074 1.795 3.542 3.84.718.768 1.193.768 1.901.768zm14.21-2.814c-4.495.764-2.613-5.124-1.895-7.941.47-2.568 5.45-3.334 6.636 0 .705 3.324-1.666 7.425-4.74 7.941zm4.74-13.322c-2.368-1.274-4.269 2.05-6.635 1.534-1.901-1.534 0-3.33 0-5.376s-.718-3.334-1.901-4.613h-1.884c0 3.845 1.183 7.941 0 11.784-.478 4.097-6.163 4.87-6.634 9.993 2.362-.516 4.26-2.563 6.156-4.617.478 0 1.186 0 1.186.773.475 3.328 1.173 7.17-1.186 8.448-2.606 1.543-6.156 2.052-6.156 6.15.47 0 1.179.512 1.179.512 1.898-.511 3.552-1.28 4.977-3.338.478-.502 1.661.777 1.661 1.548-.475 7.941-1.66 15.117 0 23.052.7.772 1.418 2.052 1.418 1.543 1.652-9.478-3.079-18.708 1.181-26.645 1.896-4.097 6.636-6.66 9.706-9.989 2.609-3.333.002-8.71-3.067-10.759zm28.414 36.113c1.186-.511 2.367 0 3.08-1.534 0 .768.47.768 1.185.768v2.05c-1.898 1.279-4.265 1.279-6.158 3.333-1.89 1.28-2.374-1.543-2.374-2.817-.002-1.284 2.374-1.284 4.267-1.8zm-3.079-16.133c.475-.511 1.183-2.057 2.369-1.28.708 0 .708.769.708 1.28-.708.768-.708.768-.708 1.27 0 .777-.71 1.548-1.186 1.548-.708-.77-1.886-1.548-1.183-2.818zm11.609-4.613c0-5.892 2.359-11.268 3.072-17.16-3.072-2.817-6.864-2.05-9.95 0-6.622 5.124-6.622 13.834-10.887 21.262-.71.511-1.176 0-1.176-.768-.725-3.334.226-6.408 1.176-9.994.473-2.558-.71-4.608-2.611-5.376-.473 12.807 1.435 25.354.71 37.908.725 0 1.19 0 1.19.773 2.602-7.946-2.373-16.651 2.602-24.089h2.374c2.364 1.548 0 4.107.7 6.154 0 .511.485.511 1.189.511.475-.511.475-.511 1.183-.511.475 0 1.185.511.475 1.284-1.183 1.274-1.658 2.04-2.362 3.324-.484.768-1.185 0-1.185-.768-.718.768-.718 2.052-1.186 3.333h1.186c2.364-1.795 3.074-4.612 4.968-7.17h1.188c1.889 2.558-.71 5.375-1.899 7.17 1.186 0 1.186-.51 1.899-1.279 1.178-1.284 1.889 2.05 3.074.768 0-.768-1.185-2.052-1.185-2.822.472-1.786 0-4.608 1.663-5.887-.478 0-.478-.778-.478-1.28-1.185 0-3.074 0-3.785-1.279 0-2.822 0-4.87-.477-6.66-1.419-3.333-1.894 2.559-4.265 3.84-1.42.773-3.074 0-2.597-2.05 1.176-2.558 2.597-5.123 3.785-7.936 2.369-3.334 4.73-5.892 8.527-7.176 1.186-.763 2.364 0 3.08 1.284.703 4.613 0 8.705-.716 13.317-.48 1.28-3.077 0-3.552.512 0 .768-1.185 1.538-.713 2.822 1.19 1.28 2.607 0 3.087-.773.7-.511 1.178 0 1.178.773.715 9.216.715 19.21.715 28.43.704 2.05 3.072 3.33 3.072 1.544 1.193-10.77-2.366-21.27-3.07-32.03zm31.255 4.613c.713 2.05 1.176 4.097.713 5.38-1.186 2.04-2.602 3.325-4.265 4.609-.708 0-1.18 0-1.18-.516.472 0 .234-.768.472-1.534 1.18-2.558 1.894-4.613 1.894-7.171-.713-1.28 2.366-2.052 2.366-.768zm8.762-.511c0-2.818-.708-4.865.478-7.426 1.889-2.563-.478-5.385-.478-8.714 0-1.795-1.416-2.563-1.888-3.324-7.347-1.28-9.95 8.7-13.028 14.08-.484 2.05-1.183 3.334-1.646 5.381-.722 3.84-.722 7.932-2.616 11.268-1.183-3.338-.473-7.43-.473-10.756.473-4.613.473-8.45 1.663-13.323-.49 0-1.19-2.558-1.19-.511-1.894 7.942-1.183 15.103-2.364 23.306 0 1.8 0 4.613 1.894 6.665 1.663-5.38 3.088-11.532 4.25-17.424 0-.768.485-1.274 1.2-1.274 1.18 0 2.362.506 2.362 1.274 0 2.052 0 4.613-.473 6.665-1.181 2.04-1.889 3.324-3.089 5.376-.698 1.28.485 2.05.485 2.558h1.42c1.654-2.044 2.847-4.612 4.736-4.612 1.176-.764 1.176 2.052.713 3.333-1.89 3.334-4.973 3.334-7.354 5.386-.698.506 0 1.274.485 1.274 2.601 0 4.98-.768 7.332-2.05 0-.51-1.176-2.049-1.176-2.563.713-1.279 1.893-1.279 3.079 0-.473-2.812-1.186-5.38-.473-7.932.473-.772 1.181-2.056 1.181-3.338-1.18 0-2.611-.768-2.611-1.548 0-2.554 1.43-5.114 0-7.927h-1.651c-1.416 2.045-1.894 4.097-3.788 4.097-.472 0-1.896-.768-1.18-2.052 2.361-3.84 3.552-8.71 7.336-11.268 1.186-.768 3.08 0 4.265 1.284 1.894 3.324 1.894 6.146 1.186 9.22-.473 1.534-3.08.764-2.371 2.818.717.506 1.185 2.05 1.898 2.558.473 7.942 1.889 15.37 1.889 22.539 0 .773 1.2.773 1.2.773.456-7.932-2.619-15.884-1.203-23.813zm35.53-21.264c-2.138 0-1.903 3.84-3.074 5.124-1.899-3.329 1.893-5.124 1.893-8.455.468 0 1.181 0 1.181-.764 1.176 2.05 3.787 1.28 3.787 2.564.459 2.812 0 5.37-1.42 8.193-1.191 4.608-3.08 9.221-5.444 13.829-.727 2.052-1.185 5.38-3.566 5.38-1.407-.767-1.88-2.826-1.407-4.096 1.89-3.845 3.788-7.176 4.973-11.273-.727 3.339-1.898 6.66-3.566 9.989 0 .773 0 2.052.482 2.052 4.978-5.38 8.057-14.09 8.057-22.027.002-.516-1.193-.516-1.896-.516zm13.022 0c0 .768-.712 1.795-1.42 2.558-1.181 1.28-4.265 2.05-3.557 3.334.477 3.333 4.977 5.376 8.532 5.376 1.185 0 1.893 2.052 1.185 3.329h-1.185c-1.195-1.275-2.376-2.045-4.265-2.045-1.889-.768-3.074-3.329-4.973-4.613-1.18-.763-3.545.511-3.089-.763 0-2.052 3.09-2.568 4.275-4.618.713-1.279-.478-2.045-1.186-2.558-.468-2.05 1.186-3.334 1.186-5.381 0-.758.713-1.28 1.42-.758 1.186 1.274 1.659 3.324 3.08 4.608v1.53h-.003zm-22.735 2.56c0 2.05-.717 2.564-1.903 4.102-.698.516-1.894.516-2.592.516-1.186-.516-.487-2.052-.487-2.568.487-3.329 3.552-6.655 6.648-4.092-.473.763-1.666 1.277-1.666 2.043zm-1.428 12.037c-1.171.52-2.366-.759-2.366-1.275.727-1.538 1.195-2.822 2.366-3.333.713 0 1.43 0 1.43.51-.002 1.287-.002 3.34-1.43 4.098zm1.903-8.703c1.19-2.563 3.797-4.613 3.08-7.425 0-1.8-3.08-.516-4.27-.516-1.884 1.274-3.55 2.817-6.154 4.608-1.898 1.279-4.972 2.05-3.792 5.38.728 1.284 3.09.512 3.792-.763 1.19.763 2.376 1.275 3.075 2.813v1.28c-.699 1.283-2.367 1.283-1.884 3.328 1.185 1.284 1.884 2.563 1.185 3.845 0 4.101.699 7.43.699 11.273-.699 5.376-1.186 9.988-1.186 15.37 0 .762.487 2.044 1.913 2.562 1.166-9.736-1.913-19.725.468-29.719.698-1.533 3.074-2.05 4.265-3.333.708-.759-.473-2.045.708-2.813-1.181-1.793-2.374-3.843-1.899-5.89zm11.607 15.881c-.468 0-1.195-.511-.468-1.284 1.171-.773 1.171-3.329 3.074-3.329.463 0 .463.768 1.181 1.28-1.18 1.274-1.908 3.333-3.787 3.333zm.703 14.597c-1.898 0-2.371-3.329 0-4.608h1.176c.727 0 .487.768.727 1.279.463 2.05-.727 4.102-1.903 3.329zm10.423-5.124c-1.185-2.813-4.973-1.534-6.153-2.813-3.094-2.563 0-6.66 1.18-9.994 0-.51-1.42 0-1.658-.51-1.426-2.814-3.07-4.609-4.963-2.05 0 0 1.171.516 1.171 1.279.722 2.052-1.898 3.329-3.07 4.613-.712.768 0 2.817.699 3.328 1.2.768 1.668-2.056 3.093-2.558.454 0 1.181 0 1.181.502.463 2.827 1.181 5.39-1.18 7.435-1.426.768-2.621 1.284-4.505 1.284-1.186.768-.473 2.05-.473 2.817 1.884 3.334 4.977 4.618 6.158 7.947h1.181c0-3.329.708-6.665 0-10.762 0-1.284 1.186-2.568 3.08-2.05 1.893 1.534 1.18 4.097 3.074 5.377h1.185c1.887-1.282 0-2.561 0-3.845zm43.107-22.79c-.478-.257-.478-.517-.956-.517-.712 0-1.65-.763-2.128-.763-.708-3.85 2.361-7.171 5.443-4.613 1.19 2.05 1.898 4.613-.713 6.656-.46 0-1.166 0-1.646-.764zm-12.09 8.704c-.712 1.795 1.191 2.554-.472 3.075-1.889.763-1.18-1.023-2.362-1.796 1.89-2.044 1.181-5.119 3.07-6.655.722 0 1.908 1.539.722 2.813-.722.518-.957 2.047-.957 2.563zm-2.128 4.613c-.708 1.27 0 4.608-2.362 3.329-.95-1.023-1.185-3.581.473-5.386.708-.002 2.129 1.546 1.889 2.057zm22.498 13.063c-.226-.511-.464-2.306-.464-3.074 0-.516-1.19-.516-1.19-.516-.478 2.563.948 9.225-2.366 6.66-4.032-3.07-2.134-10.752-.939-16.135 0-.512-1.673-.512-2.133-.512-.713.512-3.08 1.781-2.376.512 0-3.334 2.836-5.376 4.74-7.942v-2.05c0-.516-.468-.516-1.19-.516-3.55 3.33-6.634 5.13-11.13 7.947 0 0 0 1.279-.458 1.279h-1.2c-.703-.778-.703-1.28-.703-2.052 1.185-2.558 2.361-4.608 1.903-7.171-.718-1.28-1.2-4.092-3.094-2.818-1.893 2.818-1.166 7.43-4.255 9.478-.713 0-.713-.768-.713-.768.95-3.329 0-3.075 1.186-5.635 0-.768.468-1.284.23-2.818l-.23-1.022c-.235-1.284.23-1.028.23-1.544.713-.763.24-1.022.95-1.538 1.89-1.28 3.07-3.329 4.978-4.608-.482 0-.482-.773-.482-1.534-1.426 0-1.894-1.284-2.606-1.284-2.362 1.284-4.256 4.613-4.968 7.942-.473 7.43 0 14.09-1.181 21.257-.483 2.05-4.265 2.05-6.154 3.329-.477 0 0 2.822 1.889 2.822l1.898-2.052c.704 0 1.884 0 1.884.768 0 3.845-3.07 7.176-2.596 11.273 0 0 1.893-.262 1.893-1.027.468-4.604 1.416-9.221 2.607-13.834.708-.763.472-1.28 1.185-1.79.473 0 .473.51 1.181 1.284.473 1.274-3.08 2.306-.478 3.07.478.251.95-1.796 1.659-2.302.727 0 1.18 0 1.18.506.713 4.102-1.888 6.66-1.18 10.766.727 1.275 1.18 2.559 1.18 3.836h1.181l-.468-.512c0-.763 1.19-1.274 1.19-1.274-2.61-5.386-.722-10.766-.722-15.89 0-2.05 2.381-3.324 3.802-4.092 1.646 0 3.54-2.05 5.45-2.568.708 0 0 1.022 0 1.8-1.19 3.328-1.672 6.66-3.079 9.984-1.18 4.101-2.143 7.692-1.668 11.779 0 0 1.43 0 1.43-.763-.487-4.604 1.894-8.45 2.602-12.55.478-1.284 1.426-3.845 2.602-4.354.717 0 1.19 0 1.19.512 0 4.608-.473 7.941 0 12.806.713 1.795 2.607 2.563 4.255 3.074.713 0 .478.512 1.416.262 1.186.25 1.186-.262 1.668-.262 2.59-1.274 1.896-4.353.464-6.139zm13.737-14.345c-.477 0-1.185 0-1.185-.772-1.181-5.12 1.898-8.448 5.45-11.264 0 2.818-.473 5.376-2.362 6.656a5.049 5.049 0 001.176 1.279c6.164-5.12 11.12-11.78 18.468-11.78 4.27-.767 11.612 5.381 8.057 9.221-1.42 1.28-4.973.768-7.579.768.718-2.05 3.08-2.812 4.495-4.101v-1.28c-2.597-2.558-5.676-3.328-8.755-2.044-3.566 2.045-7.342 5.376-10.903 7.425-2.597 1.28-2.597 5.12-4.959 6.66-.712.003-1.19-.768-1.903-.768zm14.681-17.928c-2.129-.768-3.55-4.612-1.18-5.38 1.18-.512 1.898 1.284 3.083 2.822.718 1.28 0 3.322-1.903 2.558zm.718 14.597c0 2.052-1.196 4.102-2.372 3.334-2.601 0-3.782 2.551-6.163 2.05.478 0 .478-.769.478-1.28h1.19c1.421-2.05 2.602-3.333 3.783-5.38 0-.764 0-1.28-.708-1.28.708 0 .708-.768.708-1.279 1.888.506 3.084 1.274 3.084 3.835zm3.782.768c-1.18-1.022-1.88-3.329-.708-3.329 1.18-.768 1.894 1.28 3.074 2.559-.703 0-.703.768-.703 1.284-.477.002-1.188.002-1.663-.514zm-1.416 9.226c-.463 2.045 0 4.092-1.18 5.887-1.186 1.538-3.558 2.052-3.085 3.334 0 2.05 2.621-.516 4.265-.516.708 0 1.416.516 1.416 1.284.473 2.05 0 3.84-1.88 4.612-3.098 0-6.875.768-9.96 0 .718-1.284-1.902-3.333 0-3.85 1.904 0 3.788-1.533 3.788-3.328.478 0 1.186 0 1.186-.768.712-2.05 2.366-4.102.712-5.376-.712 0-1.898-.511-2.601-.511 1.889-1.543 3.777-2.052 5.695-3.334 1.18.003 2.352.511 1.644 2.566zm28.42-4.613c-.717.502-1.415 1.28-1.898 2.05 0-2.05 1.181-2.818 2.367-4.102 1.903-4.092 2.616-9.216 5.68-12.55.473-.763 2.372-.763 3.567 0 1.889 1.284 1.889 3.334 1.18 5.381-.472.516-1.18 1.275-2.375 1.275-1.899 1.284-2.371 3.85-4.255 5.892-1.181.775-3.084.775-4.265 2.054zm8.046 14.854c2.38 0 4.264-2.818 5.92-4.865v-1.284c.718 0 1.421-1.534 2.612-.768 1.663 1.284 1.663 3.333 3.079 4.613.477 2.052 0 4.612-2.602 4.612-1.668-.506-.477-3.333-2.371-3.844-.718 0-.943.51-1.416.51-3.08 2.053-4.987 6.66-8.76 5.386 0 0-.95-2.558-.24-3.333.458-1.28 1.171-2.052 1.171-3.334 1.899-2.558 3.084-5.376 4.987-7.166 1.884-2.823 1.884-8.208 5.434-8.208.718 0 1.195 1.032 1.195 1.805-1.435 1.274-3.089 0-3.787 2.05-.713 1.283 1.889.762 1.18 2.049-2.38 4.097-5.447 6.655-7.346 10.752-.703 1.284.236 1.025.944 1.025zm10.903-23.564c-.708 0-1.181 0-1.181-.51 0-2.05 0-4.102 1.18-6.147.709 1.279 2.358 1.279 3.066 2.817.722 1.79-.708 3.84-1.88 4.608 0 0-.477-.768-1.185-.768z" clip-rule="evenodd" fill-rule="evenodd"/><path d="M14.627 64.125c3.605-.225 6.555 2.33 7.207 5.674v44.328c-.079 12.561 10.035 22.687 22.637 22.677 12.331.01 22.435-10.116 22.635-22.677V82.166c-.236-24.355 19.468-44.093 43.737-44.323 17.141-.123 31.169-11.825 34.987-27.84-8.805 6.708-20.01 10.946-31.9 10.829-2.36.117-2.11.254-4.119 0h.514c-34.073 0-61.059 27.237-61.224 61.334v29.9-.512a2.593 2.593 0 000 .511c-.017 3.039-2.676 5.705-6.17 5.671-3.063.034-5.73-2.635-5.662-5.67-.065-.262-.065-.277 0-.512V70.312c-.065-4.161-3.243-7.356-7.2-7.216.336-2.36 2.33-4.133 4.634-4.126.862-.007 1.582.17 2.06.518.998.23 2.116.404 3.086.514 6.449-.11 11.517-5.189 11.318-11.342.2-.243.195-.375 0-.512-2.402 3.281-6.509 5.46-11.318 5.67-.6-.428-1.764-.418-2.578-.517-5.311.099-9.588 4.375-9.773 9.795H10v1.03h5.15-.523" clip-rule="evenodd" fill="#ed1c24" fill-rule="evenodd"/><path d="M110.843 58.456c-13.104-.12-23.748 10.548-23.669 23.71v-.511 37.113c-.093 18.29-14.659 33-32.928 32.99-12.67.01-23.774-7.362-29.325-18.042 4.987 4.766 11.839 7.855 19.55 7.73 14.955.127 27.195-12.137 27.271-27.32v-31.96c-.057-21.689 17.494-39.264 39.101-39.175h-1.032c11.614-.091 22.111-4.841 29.842-12.375-1.217 15.447-14.139 27.72-29.842 27.84h1.032" clip-rule="evenodd" fill="#ed1c24" fill-rule="evenodd"/><path d="M105.182 92.992c-.173-3.472 2.448-6.103 5.656-6.182 3.279.08 5.9 2.71 5.657 6.182.243.483.118 1.162 0 1.548-.319 1.2-1.485 2.218-3.079 2.067-1.366.151-2.63-1.121-2.578-2.578-.052-.497.02-.866 0-1.037v-.51c-.355 1.358-.595 2.582-.516 3.604-.079 5.93 4.524 10.538 10.294 10.308 4.02.23 7.57-2.198 9.264-5.662 1.406-2.635 2.263-5.793 2.052-9.28.209-10.97-8.789-19.992-20.057-20.105-10.965.113-19.968 9.134-20.071 20.105v27.319c0 20.841-16.747 37.617-37.56 37.632-2.76-.015-5.606-.348-8.23-1.032h-.513c5.237 2.484 11.35 3.955 18.012 4.12 22.764-.163 41.385-18.82 41.155-41.75v-25.26l.514.511" fill="#ed1c24"/></svg>