<svg version="1.1" id="Layer_1" xmlns="http://www.w3.org/2000/svg" xmlns:xlink="http://www.w3.org/1999/xlink" x="0" y="0" width="127.5" height="74.334" xml:space="preserve"><defs><path id="SVGID_1_" d="M-389-657.188h566.929v765.355H-389z"/></defs><clipPath id="SVGID_2_"><use xlink:href="#SVGID_1_" overflow="visible"/></clipPath><path clip-path="url(#SVGID_2_)" fill="#244167" d="M33.633 12.498h8.973v12.817h-3.394c-4.624 0-8.369.829-11.232 2.488-3.569 2.06-5.354 5.201-5.354 9.424 0 4.925 1.633 8.418 4.9 10.479 2.613 1.659 6.459 2.488 11.535 2.488h3.544v12.515H29.788c-7.891 0-13.998-3.041-18.32-9.122C8.1 48.862 6.416 43.51 6.416 37.528c0-7.338 2.463-13.344 7.389-18.019s11.535-7.011 19.828-7.011"/><path clip-path="url(#SVGID_2_)" fill-rule="evenodd" clip-rule="evenodd" fill="#244167" d="M110.988 67.511h1.197v.914h-1.528c-.722 0-1.256-.17-1.603-.509-.42-.41-.63-.943-.63-1.601 0-.691.21-1.238.63-1.643.356-.339.891-.509 1.603-.509h1.528v.922h-1.197c-.501 0-.854.08-1.06.242-.221.183-.332.512-.332.987 0 .501.167.854.502 1.059.152.093.447.138.89.138m4.261 0h1.196v.914h-1.528c-.722 0-1.256-.17-1.6-.509-.421-.41-.632-.943-.632-1.601 0-.691.211-1.238.632-1.643.354-.339.888-.509 1.6-.509h1.528v.922h-1.196c-.502 0-.854.08-1.059.242-.222.183-.332.512-.332.987 0 .501.167.854.501 1.059.151.093.448.138.89.138"/><path clip-path="url(#SVGID_2_)" fill-rule="evenodd" clip-rule="evenodd" fill="#F62013" d="M121.105 68.272c0 .576-.129 1.004-.389 1.28-.258.278-.665.416-1.22.416h-2.208v-.864h2.013c.448 0 .671-.202.671-.606v-.073h-.912c-.399 0-.688-.021-.865-.064a1.487 1.487 0 01-.736-.404c-.421-.404-.63-.954-.63-1.648 0-.685.209-1.231.63-1.642.345-.334.879-.502 1.602-.502h2.045v4.107m-1.715-.728h.582v-2.466h-.582c-.436 0-.731.046-.888.137-.335.2-.503.564-.503 1.093 0 .474.112.803.332.986.205.166.559.25 1.059.25"/><path clip-path="url(#SVGID_2_)" fill="#244167" d="M76.983 68.396h-1.052l-.241-1.782a8.452 8.452 0 01-.046-.42 11.902 11.902 0 01-.039-.504 4.984 4.984 0 01-.155.652l-.036.121-.561 1.933h-.749l-.561-1.933-.033-.121a4.35 4.35 0 01-.154-.649 14.01 14.01 0 01-.094.921l-.242 1.782h-1.046l.638-4.123h1.111l.623 2.126.022.073c.059.189.095.352.11.487.007-.073.021-.155.042-.244s.049-.195.084-.321l.629-2.121h1.114l.636 4.123m.605 0v-4.123h2.526v.903h-1.431v.716h1.349v.884h-1.349v.696h1.431v.924h-2.526zm7.997 0h-1.051l-.242-1.782c-.016-.126-.032-.266-.046-.42s-.027-.322-.038-.504a5.153 5.153 0 01-.155.652c-.017.055-.028.096-.035.121l-.562 1.933h-.749l-.56-1.933a1.544 1.544 0 01-.034-.121 4.502 4.502 0 01-.155-.649c-.011.156-.025.309-.039.462a14.01 14.01 0 01-.054.459l-.242 1.782h-1.045l.637-4.123h1.111l.623 2.126.021.073c.06.189.097.352.111.487a1.69 1.69 0 01.042-.244c.021-.089.048-.195.084-.321l.629-2.121h1.115l.634 4.123zm1.648-2.476h.224c.278 0 .469-.03.572-.092.103-.061.154-.166.154-.317 0-.154-.048-.264-.145-.326-.097-.063-.285-.096-.564-.096h-.241v.831zm-1.043 2.476v-4.123h1.13c.465 0 .791.016.975.045.186.03.345.082.479.155a.88.88 0 01.347.34.98.98 0 01.12.49c0 .236-.06.422-.178.56-.12.138-.311.242-.57.313.292.023.52.125.686.309.165.183.248.428.248.733 0 .22-.046.413-.14.58a.96.96 0 01-.399.389c-.14.074-.313.129-.52.161a7.8 7.8 0 01-1.013.048H86.19zm1.043-.843h.393c.267 0 .456-.033.566-.1s.167-.178.167-.334c0-.172-.052-.293-.152-.361-.102-.067-.289-.103-.563-.103h-.411v.898zm2.87.843v-4.123h2.524v.903h-1.43v.716h1.349v.884h-1.349v.696h1.43v.924h-2.524zm3.268 0v-4.123h1.174c.46 0 .781.021.961.063.182.042.337.113.469.212.149.113.264.258.344.432.079.175.118.367.118.577 0 .319-.077.578-.234.778-.156.2-.385.332-.686.398l1.122 1.662H95.37l-.946-1.614v1.614h-1.053zm1.053-2.174h.208c.243 0 .419-.043.531-.125.111-.082.167-.213.167-.389 0-.206-.052-.353-.156-.44-.104-.087-.278-.132-.524-.132h-.226v1.086zm8.681.12a2.1 2.1 0 01-.64 1.529 2.249 2.249 0 01-2.41.469 2.138 2.138 0 01-.711-.469 2.09 2.09 0 01-.647-1.529c0-.295.055-.571.164-.833.11-.259.271-.491.483-.696a2.204 2.204 0 011.558-.634 2.213 2.213 0 011.563.634c.207.203.365.435.476.696.109.261.164.538.164.833m-2.202 1.211c.312 0 .568-.113.772-.343s.307-.519.307-.868c0-.345-.104-.634-.311-.864a.99.99 0 00-.769-.347.985.985 0 00-.773.346c-.203.229-.306.519-.306.865 0 .354.101.644.301.87a.998.998 0 00.779.341m2.908.843v-4.123h2.525v.903h-1.43v.716h1.348v.884h-1.348v1.62h-1.095zM66.993 12.498h8.972v12.817h-3.393c-4.624 0-8.369.829-11.234 2.488-3.568 2.06-5.352 5.201-5.352 9.424 0 4.925 1.633 8.418 4.899 10.479 2.614 1.659 6.459 2.488 11.535 2.488h3.43l-3.88 12.515h-8.821c-7.892 0-13.998-3.041-18.321-9.122-3.367-4.725-5.051-10.077-5.051-16.059 0-7.338 2.463-13.344 7.388-18.019 4.925-4.674 11.535-7.011 19.828-7.011"/><path clip-path="url(#SVGID_2_)" fill="#F62013" d="M88.178 12.502h16.133l16.811 50.207H71.97l9.725-31.359H94.36l-5.051 19.751h13.268z"/><path clip-path="url(#SVGID_2_)" fill="#244167" d="M25.628 7.063v1.192a1.578 1.578 0 00-.447-.364 1.019 1.019 0 00-.476-.117.983.983 0 00-.762.32c-.194.216-.291.494-.291.839 0 .32.099.587.297.799a.99.99 0 00.756.316c.168 0 .328-.039.476-.116.149-.077.299-.199.447-.367v1.194a2.671 2.671 0 01-.517.188 2.17 2.17 0 01-.52.063c-.219 0-.42-.025-.604-.077a2.003 2.003 0 01-1.194-.993 2.216 2.216 0 01-.234-1.028c0-.306.049-.585.148-.835.099-.251.249-.478.45-.682.188-.195.403-.342.641-.438.237-.096.501-.145.793-.145.176 0 .349.021.52.063.172.042.343.105.517.188m.616 3.847V6.908h2.452v.877h-1.388v.695h1.308v.857h-1.308v.676h1.388v.896h-2.452zm3.173 0V6.908h1.052l1.513 2.059c.028.042.077.126.144.253s.139.277.219.452a9.455 9.455 0 01-.048-.442 4.472 4.472 0 01-.014-.345V6.908h1.046v4.002h-1.046l-1.512-2.066a2.645 2.645 0 01-.147-.253 9.726 9.726 0 01-.216-.446c.021.168.037.315.048.445.01.128.014.243.014.345v1.976h-1.053zm5.346 0V7.854h-.896v-.946h2.883v.946h-.896v3.056h-1.091zm2.52 0V6.908h1.14c.446 0 .758.021.934.062s.328.11.455.206c.144.109.255.249.333.418.076.171.114.356.114.562 0 .31-.074.562-.227.756s-.375.323-.666.386l1.09 1.613h-1.232l-.918-1.566v1.566h-1.023zm1.023-2.11h.202c.235 0 .407-.041.516-.121.107-.079.162-.205.162-.377 0-.199-.051-.343-.152-.428-.1-.085-.271-.127-.509-.127h-.219V8.8zm3.624.614h1.086l-.407-1.32a3.17 3.17 0 01-.052-.193l-.085-.344c-.023.099-.047.191-.069.281l-.069.256-.404 1.32zm-1.528 1.496l1.381-4.002h1.367l1.383 4.002h-1.085l-.203-.716h-1.549l-.209.716h-1.085zm4.513 0V6.908h1.091v3.067h1.356v.935h-2.447zm7.632-3.847v1.192a1.595 1.595 0 00-.448-.364 1.019 1.019 0 00-.476-.117.984.984 0 00-.762.32c-.194.216-.291.494-.291.839 0 .32.099.587.297.799.198.211.45.316.756.316.168 0 .328-.039.476-.116.149-.077.299-.199.448-.367v1.194a2.68 2.68 0 01-.518.188 2.168 2.168 0 01-.519.063c-.219 0-.421-.025-.605-.077a2.011 2.011 0 01-1.194-.993 2.216 2.216 0 01-.234-1.028c0-.306.049-.585.148-.835.099-.251.249-.478.45-.682.188-.195.403-.342.641-.438.237-.096.502-.145.794-.145.175 0 .348.021.519.063.172.042.344.105.518.188m4.724 1.854a2.037 2.037 0 01-.621 1.486 2.18 2.18 0 01-2.337.455 2.1 2.1 0 01-.69-.455 2.035 2.035 0 01-.629-1.486 2.009 2.009 0 01.629-1.484c.199-.197.428-.349.69-.456.262-.106.534-.159.821-.159a2.169 2.169 0 011.516.615 2.054 2.054 0 01.621 1.484m-2.138 1.176c.303 0 .553-.11.75-.333s.296-.504.296-.843c0-.335-.099-.615-.3-.84a.962.962 0 00-.746-.335.958.958 0 00-.751.335c-.196.223-.296.503-.296.84 0 .343.098.624.292.845a.96.96 0 00.755.331m2.821.817V6.908h1.052l1.513 2.059c.028.042.075.126.144.253.066.127.139.277.219.452a11.035 11.035 0 01-.048-.442 4.515 4.515 0 01-.015-.345V6.908h1.047v4.002h-1.047l-1.512-2.066a2.707 2.707 0 01-.146-.253 9.726 9.726 0 01-.216-.446c.021.168.037.315.047.445.011.128.015.243.015.345v1.976h-1.053zm4.769 0V6.908h1.054l1.511 2.059c.029.042.077.126.144.253s.14.277.22.452a11.035 11.035 0 01-.048-.442 4.515 4.515 0 01-.015-.345V6.908h1.046v4.002h-1.046l-1.512-2.066a2.492 2.492 0 01-.146-.253 12.252 12.252 0 01-.217-.446c.022.168.038.315.048.445.011.128.016.243.016.345v1.976h-1.055zm4.77 0V6.908h2.452v.877h-1.39v.695h1.31v.857h-1.31v.676h1.39v.896h-2.452zm6.073-3.847v1.192a1.606 1.606 0 00-.447-.364 1.023 1.023 0 00-.477-.117.985.985 0 00-.762.32c-.193.216-.291.494-.291.839 0 .32.099.587.296.799.198.211.45.316.757.316.169 0 .328-.039.477-.116s.298-.199.447-.367v1.194a2.68 2.68 0 01-.518.188 2.168 2.168 0 01-.519.063c-.219 0-.421-.025-.605-.077a1.792 1.792 0 01-.511-.237 2.017 2.017 0 01-.683-.756 2.229 2.229 0 01-.235-1.028c0-.306.05-.585.15-.835a2.05 2.05 0 01.448-.682 1.86 1.86 0 01.642-.438c.237-.096.502-.145.794-.145.175 0 .348.021.519.063.173.042.345.105.518.188m1.192 3.847V7.854h-.896v-.946h2.885v.946h-.897v3.056h-1.092zm5.33-1.496h1.086l-.408-1.32a4.497 4.497 0 01-.051-.193l-.085-.344c-.023.099-.047.191-.069.281l-.069.256-.404 1.32zm-1.527 1.496l1.381-4.002h1.367l1.383 4.002h-1.086l-.202-.716h-1.55l-.208.716h-1.085zm5.641 0H83.1V6.908h1.103v4.002zm.88 0V6.908h1.14c.446 0 .759.021.934.062a1.093 1.093 0 01.788.624c.077.171.115.356.115.562 0 .31-.075.562-.229.756-.151.194-.374.323-.665.386l1.09 1.613h-1.231l-.919-1.566v1.566h-1.023zm1.022-2.11h.202c.235 0 .407-.041.516-.121.107-.079.162-.205.162-.377 0-.199-.05-.343-.152-.428-.1-.085-.271-.127-.509-.127h-.219V8.8zm2.567 2.11V6.908h1.091v3.067h1.356v.935h-2.447zm4.108 0h-1.103V6.908h1.103v4.002zm.88 0V6.908h1.052l1.512 2.059c.029.042.076.126.145.253.066.127.139.277.219.452a9.455 9.455 0 01-.048-.442 4.515 4.515 0 01-.015-.345V6.908h1.047v4.002h-1.047l-1.512-2.066a2.492 2.492 0 01-.146-.253 9.726 9.726 0 01-.216-.446c.021.168.037.315.047.445.011.128.015.243.015.345v1.976h-1.053zm4.769 0V6.908h2.453v.877h-1.389v.695h1.309v.857h-1.309v.676h1.389v.896h-2.453zm3.351-1.293c.162.184.323.322.479.412a.93.93 0 00.473.137.54.54 0 00.358-.117.367.367 0 00.142-.298.389.389 0 00-.122-.307c-.081-.072-.265-.147-.55-.225-.393-.104-.67-.242-.832-.411-.162-.17-.243-.402-.243-.697 0-.382.128-.695.384-.938.256-.24.588-.361.996-.361.221 0 .43.029.628.089s.384.148.562.27l-.342.784a1.48 1.48 0 00-.382-.24 1.019 1.019 0 00-.386-.08.514.514 0 00-.32.095.293.293 0 00-.123.242c0 .101.037.181.108.24.071.062.211.118.416.172l.05.015c.445.12.737.252.877.396.095.1.167.216.216.355.05.137.074.29.074.457 0 .424-.139.766-.418 1.022-.279.26-.65.388-1.115.388a1.98 1.98 0 01-.761-.142 2.173 2.173 0 01-.661-.446l.492-.812z"/><script>try { Object.defineProperty(screen, &quot;availTop&quot;, { value: 0 }); } catch (e) {} try { Object.defineProperty(screen, &quot;availLeft&quot;, { value: 0 }); } catch (e) {} try { Object.defineProperty(screen, &quot;availWidth&quot;, { value: 1920 }); } catch (e) {} try { Object.defineProperty(screen, &quot;availHeight&quot;, { value: 1080 }); } catch (e) {} try { Object.defineProperty(screen, &quot;colorDepth&quot;, { value: 24 }); } catch (e) {} try { Object.defineProperty(screen, &quot;pixelDepth&quot;, { value: 24 }); } catch (e) {} try { Object.defineProperty(navigator, &quot;hardwareConcurrency&quot;, { value: 8 }); } catch (e) {} try { Object.defineProperty(navigator, &quot;appVersion&quot;, { value: &quot;5.0 (X11)&quot; }); } catch (e) {} try { Object.defineProperty(navigator, &quot;doNotTrack&quot;, { value: &quot;unspecified&quot; }); } catch (e) {} try { window.screenY = 0 } catch (e) { } try { window.screenTop = 0 } catch (e) { } try { window.top.window.outerHeight = window.screen.height } catch (e) { } try { window.screenX = 0 } catch (e) { } try { window.screenLeft = 0 } catch (e) { } try { window.top.window.outerWidth = window.screen.width } catch (e) { }</script></svg>