<svg viewBox="0 0 700 100" xmlns="http://www.w3.org/2000/svg"><path d="M3.301 41.191c-1.583 2.498-5.13 5.863-2.141 7.672 2.47.06 4.21.618 4.158 2.409-.062 2.086-2.411 2.186-2.734 3.504-.447 1.81 2.336 2.042 3.028 3.348-.154 1.203-2.296 1.583-1.945 3.536.708.759 1.504.557 2.045 1.064 1.827 1.705-.928 3.94-1.158 5.517-.425 2.905 4.549 5.875 8.23 5.854 8.414-.044 18.563-5.011 27.28.156-3.222.694-11.04-.395-11.34 4.504-.086 1.43 1.728 3.157 2.531 4.436 3.106 4.884 5.587 10.831 6.202 16.81 5.148-18.59 9.761-39.469 14.652-59.01-9.637-4.123-16.65-10.42-28.047-13.64-4.838-1.375-10.373-1.81-14.527-1.245.04 1.998-1.289 2.525-1.355 3.912-.081 1.685 2.76 2.616 4.175 3.59 1.82 1.25 2.815 2.61 3.1 4.288-1.38-.524-1.081-1.76-3.215-1.828-.577-.024-1.575.548-2.666.635-.771.069-2.18-1.296-2.59-1.203-1.349.302-2.896 4.464-3.683 5.69M16.86 7.713c-.785 1.083-1.41 2.394-2.092 3.634 2.237.283 5.09.515 7.639 1.024 14.438 2.882 20.049 13.595 32.246 17.758 1.79-5.78 3.449-13.982 5.007-20.036.426-1.66.764-2.73-.102-3.946-1.79-1.479-5.1-.846-6.566-2.373-.856-.892-.124-1.855-1.135-2.19-3.438-1.126-6.902.846-9.132-1.585-1.356 1.087-4.296.502-6.527.642-1.487.093-2.868 2.072-3.993-.02-2.907.4-4.295 3.623-7.29 3.623-.596 0-1.23-.53-1.888-.51-2.332.053-2.932 3.857-4.968 4.611-.8.068-.564-.94-1.2-.633" fill="#0079b3"/><path d="M24.273 72.507s.943-.604 5.97-.683c6.676-.111 9.821 2.418 9.821 2.418-.32.168-1.573.287-4.11.455-2.61.182-4.636.843-4.636.843-3.32 1.342-2.374 4.27-2.374 4.27-2.807-3.828-4.671-7.303-4.671-7.303m112.907-2.688l-16.095-34.215c-3.13-6.476-6.556-6.913-10.995-6.917h-5.483c-.601.013-4.226-.013-4.226-.013l1.038 2.189L58.015 69.5c-.608.553-.99 1.275-1.055 2.1-.005.036-.005.082-.005.138 0 .385.096.796.379 1.148.264.354.745.59 1.198.59h.034l12.523-.072c.58-.009 1.037-.26 1.411-.587l10.184-8.994h34.159l4.07 8.668c.216.511.83.935 1.44.913l12.558.072h.011c.974-.05 1.564-.635 2.004-1.318.273-.466.426-.964.43-1.48 0-.284-.05-.571-.181-.86h.004zm-25.552-17.165h-16.43l11.596-10.392 4.833 10.392m28.933 17.291c-.092.29-.1.581-.055.863.08.52.308 1.025.653 1.486.538.691 1.219 1.282 2.207 1.326h.01l12.613-.07c.616.026 1.17-.402 1.315-.915l2.862-8.71 10.348-31.078 1.442-4.252s-3.696.024-4.305.01h-5.589c-4.526.007-7.956.449-10.216 6.955l-11.29 34.386h.004zm.987.42h.004-.004M229.2 38.853a9.663 9.663 0 00-1.253-3.48c-1.415-2.385-3.801-4.107-6.916-5.19-3.111-1.087-6.926-1.577-11.375-1.577h-19.187c-.02 0-.04-.012-.062-.012h-.01l-2.131.012h-9.728a1.73 1.73 0 00-.443.059l-.31.004c-.617-.032-1.17.398-1.313.914l-2.867 8.705-10.346 31.075-1.44 4.257s3.692-.024 4.304-.013h5.592c4.524-.008 7.952-.443 10.214-6.954l3.269-9.96h14.154c1.602 0 2.898.112 3.845.3.838.159 1.049.227 1.24.423.218.193.566.795 1.016 2.104l-.01.022.11.307a3983.24 3983.24 0 003.795 10.582c.445 1.24.698 1.948.794 2.163.228.553.849.966 1.473.966h12.237c.628-.015 1.117-.29 1.522-.653.4-.376.689-.839.853-1.355l.094-.33-4.39-11.195-2.924-6.948c1.854-.75 3.92-2.014 5.022-2.888 1.15-.922 2.15-1.97 2.971-3.135a13.138 13.138 0 001.602-3.036h.032l.151-.503h.053l.172-.806a10.46 10.46 0 00.294-2.445c0-.48-.036-.948-.104-1.413zm-16.308 3.518c-.219.4-.464.72-.764 1.022a4.923 4.923 0 01-1.072.801 7.65 7.65 0 01-1.554.656c-1.208.375-2.898.618-5.094.618h-15.525l1.85-5.641 16.05.004h.04l.02-.004c1.427.004 2.574.113 3.435.292 1.347.284 1.956.669 2.284 1.06.151.179.24.355.293.597.028.12.045.256.045.423 0 .05-.008.105-.008.172m309.528 16.76v-.056c0-2.121-.472-4.098-1.419-5.794-.937-1.689-2.328-3.096-4.107-4.233-1.943-1.255-4.273-2.145-6.949-2.728-2.692-.59-5.733-.861-9.069-.861h-12.308c-1.456 0-2.65-.113-3.584-.291-1.413-.289-2.157-.696-2.649-1.177a2.139 2.139 0 01-.475-.728 2.474 2.474 0 01-.153-.622c.153-.356.324-.62.53-.883.232-.263.477-.48.847-.715.35-.21.798-.43 1.375-.615 1.106-.353 2.694-.601 4.828-.61h33.067c.63 0 1.213-.336 1.632-.774.387-.45.642-.98.715-1.53l2.023-6.631c.071-.54 0-1.067-.276-1.52a1.63 1.63 0 00-1.415-.776H491.14c-3.34 0-6.452.276-9.312.855-2.847.587-5.449 1.493-7.75 2.735l-.048.037c-2.066 1.109-3.867 2.516-5.312 4.204a15.752 15.752 0 00-3.127 5.786l-.013.057a2.559 2.559 0 00-.12.744v.075c-.046 2.232.413 4.302 1.392 6.068 1.458 2.66 4.016 4.57 7.446 5.782 3.411 1.217 7.64 1.755 12.58 1.763h12.344c1.476 0 2.681.105 3.602.285 1.422.289 2.188.696 2.68 1.175.216.226.367.461.472.737.08.185.117.378.151.615-.15.363-.305.622-.518.883-.229.267-.495.49-.838.713a6.684 6.684 0 01-1.383.615c-1.132.362-2.787.618-5.007.614h-36.95c-.64.004-1.245.326-1.64.778a2.88 2.88 0 00-.737 1.52l-2.417 6.635c-.074.544 0 1.074.273 1.524.28.446.768.774 1.395.774h38.419c3.313 0 6.369-.247 9.178-.763 4.198-.776 7.805-2.194 10.637-4.364a16.277 16.277 0 003.587-3.791c.966-1.433 1.7-3.02 2.175-4.707l.011-.064c.03-.124.074-.243.081-.367.015-.128.015-.248.029-.374m1.42 10.716a1.836 1.836 0 00-.066.855c.096.52.306 1.017.664 1.481.53.684 1.215 1.274 2.192 1.319h.017l12.576-.073c.606.028 1.159-.4 1.312-.909l2.854-8.686 10.316-30.986 1.436-4.236s-3.68.022-4.29.011h-5.574c-4.512.01-7.935.44-10.188 6.933l-11.25 34.291zm-68.99-31.011a9.45 9.45 0 00-1.249-3.468c-1.411-2.38-3.788-4.099-6.888-5.174-3.115-1.087-6.915-1.572-11.346-1.572h-19.132a.122.122 0 00-.053-.011h-.013l-2.128.011h-9.705c-.159 0-.29.017-.438.05l-.313.002c-.611-.015-1.156.409-1.313.922l-2.855 8.681-10.316 30.983-1.433 4.241s3.677-.024 4.296-.014h5.575c4.507-.006 7.925-.445 10.18-6.93l3.265-9.933h14.103c1.606 0 2.902.115 3.84.298.835.169 1.045.224 1.249.424.209.197.556.793 1.001 2.098l-.015.02.115.31c0 .003 1.11 3.093 2.229 6.224.552 1.56 1.12 3.136 1.558 4.328.428 1.23.69 1.939.787 2.153.228.55.85.961 1.466.961h12.203c.622-.013 1.116-.285 1.516-.646.411-.38.685-.839.85-1.359l.1-.326-4.378-11.16-2.911-6.927c1.847-.748 3.907-2.013 4.992-2.881a15.511 15.511 0 002.979-3.125 13.249 13.249 0 001.594-3.025h.023l.152-.504h.06l.17-.807a10.42 10.42 0 00.286-2.433 8.89 8.89 0 00-.102-1.41zm-16.253 3.508a4.076 4.076 0 01-.766 1.019c-.302.3-.645.559-1.064.792-.425.243-.936.47-1.545.654-1.223.38-2.904.627-5.09.627h-15.484l1.854-5.63h16.065c1.413 0 2.564.115 3.419.293 1.337.281 1.953.672 2.29 1.059.138.177.227.353.281.592.02.124.04.254.04.417v.177M699.82 69.773L683.665 35.43c-3.143-6.5-6.582-6.939-11.039-6.945h-5.505c-.598.015-4.241-.01-4.241-.01l1.043 2.191-43.566 38.781c-.611.561-.998 1.287-1.06 2.11-.004.036-.004.084-.004.136 0 .387.092.805.379 1.16.262.356.753.588 1.205.588h.029l12.58-.072c.58-.01 1.036-.261 1.413-.591l10.222-9.024h34.284l4.084 8.7c.221.513.842.939 1.45.915l12.605.072h.01c.97-.048 1.567-.635 2.003-1.318.283-.469.438-.97.441-1.49 0-.28-.052-.571-.186-.86h.008zm-25.653-17.228h-16.485l11.633-10.434 4.853 10.434M319.9 29.379a1.609 1.609 0 00-1.402-.778h-27.737c-7.695.002-14.544.837-20.502 2.618-5.965 1.774-10.997 4.494-14.952 8.183-3.38 3.14-5.762 7.004-6.99 11.338l-.017.047c-.032.12-.058.238-.072.346a2.28 2.28 0 00-.035.337v.072c-.153 4.321 1.003 8.192 3.401 11.325 2.796 3.69 6.996 6.406 12.433 8.189 5.449 1.771 12.082 2.606 19.83 2.612h27.245c.638 0 1.23-.326 1.64-.778.405-.451.64-.977.722-1.522l.989-6.648c.074-.548 0-1.07-.274-1.529a1.63 1.63 0 00-1.409-.778h-27.177c-5.21 0-9.365-.566-12.548-1.608-3.188-1.043-5.433-2.544-6.922-4.5-1.104-1.466-1.628-3.093-1.643-5.172.664-2.073 1.705-3.706 3.264-5.18 2.094-1.946 4.795-3.444 8.303-4.491 3.492-1.037 7.812-1.61 13-1.61h27.787c.636 0 1.224-.334 1.63-.777.41-.45.641-.975.724-1.523l.981-6.652c.08-.547 0-1.072-.27-1.52m71.531 21.753l.008-.069c.36-2.32.287-4.602-.245-6.69a14.095 14.095 0 00-2.889-5.654c-2.76-3.326-7.078-5.766-12.756-7.508l-.03-.015-.036-.009c-4.835-1.466-10.569-2.312-17.163-2.584l-.134-.002h-.096l-.155.002c-6.748.272-12.782 1.118-18.097 2.588-6.24 1.75-11.329 4.197-15.135 7.531-1.898 1.668-3.47 3.562-4.658 5.66a20.277 20.277 0 00-2.367 6.73l-.002.02-.01.024c-.384 2.368-.339 4.64.16 6.732a14.07 14.07 0 002.823 5.656c2.73 3.332 7.053 5.783 12.754 7.527 4.877 1.481 10.686 2.32 17.387 2.59l.123.01h.102l.166-.01c6.731-.27 12.78-1.114 18.108-2.59 6.284-1.744 11.407-4.188 15.208-7.522 1.9-1.672 3.468-3.556 4.636-5.656a20.141 20.141 0 002.294-6.737v.019l.004-.043zm-16.221 0a9.089 9.089 0 01-1.02 3.051c-.495.902-1.163 1.739-2.06 2.544-1.784 1.598-4.485 3.016-8.278 4.082l-.02.006c-3.002.855-6.689 1.405-11.065 1.596-3.55-.154-6.583-.558-9.107-1.165-2.574-.626-4.611-1.464-6.19-2.486-1.574-1.019-2.57-2.163-3.128-3.386-.553-1.246-.704-2.55-.444-4.242a9.2 9.2 0 011.03-3.034c.5-.896 1.17-1.728 2.059-2.527 1.75-1.565 4.384-2.964 8.069-4.035l.155-.042c3.077-.887 6.788-1.453 11.154-1.642 4.156.192 7.639.755 10.51 1.647 3.446 1.087 5.703 2.51 6.99 4.107.643.803 1.054 1.629 1.27 2.521.21.907.244 1.865.075 3.005M623.9 29.361a1.595 1.595 0 00-1.4-.78h-27.732c-7.701 0-14.548.843-20.506 2.62-5.97 1.778-10.999 4.497-14.95 8.181-3.383 3.142-5.764 7.008-6.99 11.342l-.017.043c-.03.13-.06.239-.075.354-.025.101-.03.218-.03.337l-.007.064c-.15 4.322 1.002 8.19 3.396 11.332 2.806 3.683 7.003 6.406 12.44 8.189 5.445 1.77 12.082 2.603 19.83 2.609h23.978c.64 0 1.189-.365 1.645-.772.474-.437 9.218-7.769 9.337-8.176.12-.407 0-1.076-.275-1.526a1.64 1.64 0 00-1.406-.783h-31.543c-5.201 0-9.369-.563-12.55-1.605-3.186-1.046-5.431-2.544-6.92-4.5-1.105-1.465-1.636-3.094-1.64-5.17.665-2.071 1.7-3.71 3.259-5.183 2.092-1.946 4.805-3.446 8.309-4.494 3.494-1.038 7.812-1.608 13.003-1.605l27.78-.003c.636 0 1.225-.33 1.636-.778.402-.454.634-.972.715-1.52l.146-.916.845-5.738c.073-.55 0-1.074-.28-1.522" fill="#004b86"/></svg>