<svg width="209.22" height="45.824" viewBox="0 0 55.356 12.124" xmlns="http://www.w3.org/2000/svg"><g fill-rule="evenodd"><path d="M14.602 4.358c-4.869.135-9.58 1.24-10.019 2.807a1.54 1.54 0 00-.05.425c0 1.544 3.222 2.071 6.709 2.506.06.007.057-.04.038-.075l-.102-.18c-.014-.025-.029-.04-.078-.055C9.191 9.3 7.254 8.591 7.254 7.93c0-1.25 3.246-2.49 6.944-3.057a.51.51 0 00.262-.111l.424-.343c.062-.051.04-.068.016-.067l-.298.007z" fill="#1b1d80"/><path d="M9.219 11.914c-2.53-.634-5.036-2.756-4.641-4.723.577-2.87 4.436-5.649 9.251-6.955.109-.032.149-.103.01-.103H7.266c-1.138 0-1.384.147-1.825.743-.235.317-2.202 3.03-3.089 4.252-.114.145-.275.302-.634.302H.132l.002.002c1.879 5.308 3.897 6.56 5.919 6.56h3.192c.045 0 .09-.048-.026-.078M39.502 1.238v.455h-2a.34.34 0 100 .678l.978-.01-.002.83c-.047 1.317-.662 2.115-.925 2.455l-.071.096a.332.332 0 00-.13.266c0 .186.153.34.34.34a.396.396 0 00.278-.119l.007-.004c.24-.19 1.037-.94 1.19-2.636h2.156c0 .346-.01.752-.03 1.245-.035.853-.624.833-.91.822h-.016c-.249-.027-.621-.118-.624-.118l-.091-.01a.34.34 0 00-.082.667c0 .004.36.128.693.133h.067c.426.007.906.014 1.246-.314.286-.279.429-.753.438-1.448.015-.287.022-.747.022-1.009 0-.081 0-.144-.002-.176a.476.476 0 00-.468-.467l-2.364-.003v-.55l3.03.01a.34.34 0 000-.678h-2.02V1.23c0-.179-.166-.33-.36-.33a.35.35 0 00-.35.34m11.02 2.828a.339.339 0 100 .679h1.683v.863h-2.004a.34.34 0 00-.34.34c0 .186.154.339.34.339h4.68a.34.34 0 00.339-.34.34.34 0 00-.34-.34h-1.977v-.862h1.684a.34.34 0 000-.68zm1.68-2.82v.228h-1.746a.475.475 0 00-.47.471l.001.012v.68a.34.34 0 10.678 0v-.485h.791a.957.957 0 01-.028.37c-.098.343-.446.583-1.037.71l-.023.006a.328.328 0 00-.3.327c0 .184.164.34.358.34l.038-.004c1.316-.12 1.666-.807 1.73-1.362a4.21 4.21 0 00.019-.387V2.15l.664.004v1.233c.002.255.202.46.458.466h.987c.512 0 .729-.357.73-.359a.454.454 0 00.064-.21c.01-.164-.063-.207-.139-.256l-.017-.012c-.122-.076-.254-.052-.397.071-.168.145-.31.122-.313.122l-.578-.002s-.053.001-.087-.032c-.021-.02-.032-.049-.032-.087l.002-.934h.913l-.073.273a.32.32 0 00.038.249c.047.076.122.13.212.151a.383.383 0 00.439-.266c.006-.015.136-.375.132-.583-.005-.331-.165-.497-.49-.504l-1.836.002v-.228a.35.35 0 00-.35-.34.339.339 0 00-.337.34m-24.711.64c-.047.052-.065.126-.057.215v.007l.01.094-1.562.004c-.14 0-.297.111-.297.27 0 .148.129.27.283.27l1.648.004c.099.62.23 1.141.4 1.591a9.252 9.252 0 01-.495.702c-.038.04-.07.165-.07.26 0 .038.004.072.017.092a.26.26 0 00.193.136.312.312 0 00.26-.103 1.24 1.24 0 00.184-.252l.172-.262a5.2 5.2 0 00.301.516.285.285 0 00.24.135.281.281 0 00.252-.159l.013-.026c.047-.088.171-.326.255-.817v-.002c.008-.107-.016-.194-.07-.254a.239.239 0 00-.172-.082c-.108-.004-.23.058-.257.188l-.07.31-.14-.317c.258-.43.435-.83.543-1.219l.009-.1a.278.278 0 00-.093-.19.273.273 0 00-.443.127c0 .003-.14.433-.268.696a8.228 8.228 0 01-.215-.97h.909a.271.271 0 00.269-.274.272.272 0 00-.27-.274h-.143l.002-.028a.287.287 0 00-.068-.189l-.033-.04a.279.279 0 00-.197-.1.288.288 0 00-.213.066.159.159 0 00-.056.122v.004c0 .052.03.11.07.158l-.334.003-.019-.117c-.02-.184-.114-.278-.277-.278a.283.283 0 00-.212.082" fill="#df0011"/><path d="M29.312 5.558c0 .055-.028.083-.084.083l-1.502-.003-2.143-.004c-.05 0-.074-.026-.074-.081l.002-3.701c0-.027.006-.046.019-.06.012-.012.032-.018.06-.018h3.648c.031 0 .051.008.067.022a.082.082 0 01.017.055zm.187-4.43l-4.164.001a.475.475 0 00-.467.473v4.205a.48.48 0 00.467.477H29.5a.476.476 0 00.472-.473c.002 0 .002-4.21.002-4.21a.473.473 0 00-.473-.473z" fill="#df0011"/><path d="M26.184 3.955h.79v-.528h-.79zm1.27-.884a.25.25 0 00-.231-.159h-1.288a.252.252 0 00-.196.095.267.267 0 00-.057.165v1.04l.005.051c.023.12.127.207.247.207h1.289l.074-.012a.257.257 0 00.18-.246v-1.04a.253.253 0 00-.022-.1zm-.432 1.509c-.007.001-.658.21-1.104.205-.21-.003-.316.143-.324.277a.237.237 0 00.071.177c.066.07.162.115.246.116a3.524 3.524 0 001.348-.255h.001c.145-.067.264-.228.198-.394-.099-.248-.434-.128-.436-.127m-4.029-.421c0 .016-.003.05-.022.071a.076.076 0 01-.056.02h-1.5V2.357h1.489c.03 0 .053.007.067.023.015.017.017.04.017.049v.006l.005 1.716zm-2.259.093l-1.508-.001c-.007 0-.069-.003-.073-.085V2.433c0-.008.001-.036.02-.056.013-.014.033-.021.057-.021l1.504.003zm2.494-2.575h-1.81v-.49a.342.342 0 10-.684 0v.49h-1.799a.474.474 0 00-.47.474l.001 2.306c0 .258.21.47.47.473l1.798.003v1.104a.342.342 0 10.684 0V4.934l1.808.004a.474.474 0 00.474-.473V2.148a.472.472 0 00-.472-.472zm10.863 2.31l.001-.334h1.352l-.004.334zm.001-1.195h1.352l-.004.333h-1.349l.001-.333zm-.698.335h-1.367l.001-.335h1.366zm0 .863h-1.367l.001-.334h1.366zm2.874 1.563h-.001a10.64 10.64 0 01-1.795-.996h1.125c.259 0 .468-.21.468-.467l-.002-.031V4.02l-.004-1.3a.465.465 0 00-.448-.465h-1.54v-.318l2.013-.004c.19 0 .338-.143.338-.326a.339.339 0 00-.343-.333h-2.008V1.21a.338.338 0 00-.677 0v.064h-2.007a.337.337 0 00-.34.333c0 .182.155.33.34.33h2.007v.317H31.85c-.297.011-.467.182-.467.47l-.002 1.357c.003.002.003.008.003.008 0 .257.21.467.467.467l1.117-.001c-.639.474-1.804.968-1.816.973a.34.34 0 00.152.642l.087-.012c.015 0 1.253-.373 2-1.186v1.125c0 .188.155.339.341.339a.336.336 0 00.335-.339V4.946c.546.612 1.875 1.213 1.89 1.22.05.03.192.05.252.05.177 0 .316-.153.316-.35 0-.14-.133-.255-.257-.314zm10.687-2.969h-.043l-.016.003h-.015c-.237 0-.425.2-.437.465v1.621c-.03.677-.314 1.073-.372 1.146a.168.168 0 00-.012.015l-.009.013a.489.489 0 00-.058.19.33.33 0 00.593.197 2.34 2.34 0 00.568-1.517v-.01a378.06 378.06 0 00-.008-1.436h.576v2.485c.003.274.173.551.493.55h.404c.012.001.347.03.526-.58l.013-.05.02-.126.001-.02c.005-.068.015-.212-.224-.285-.145-.044-.264.02-.32.17l-.034.097c-.029.094-.042.127-.092.13l-.126.002V3.048c0-.005-.013-.438-.455-.465h-.973m.064-1.367v.397H46.4c-.196 0-.357.15-.357.33 0 .183.16.333.357.333h2.1c.195 0 .355-.15.355-.332 0-.182-.16-.33-.355-.33h-.818v-.4a.333.333 0 10-.664.002m-1.743 2.217h-.306a.29.29 0 00.071-.241l-.073-.464a.265.265 0 00-.318-.234.293.293 0 00-.232.293.27.27 0 00.004.049l.072.464a.326.326 0 00.052.134h-.29V2.278l1.02-.002zm.707-.004h-.033V1.932a.335.335 0 00-.33-.34l-.546.002.058-.231.02-.051a.325.325 0 00-.037-.249.33.33 0 00-.453-.114.323.323 0 00-.149.203l-.112.445-.46.003c-.004-.003-.014-.003-.014-.003a.337.337 0 00-.33.34v1.498a.335.335 0 00-.34.327c0 .178.15.324.338.324l-.003.19-.002.034v.011a7.645 7.645 0 01-.05.752c-.076.641-.201.894-.202.896a.498.498 0 00-.022.137.329.329 0 00.627.137c.015-.027.162-.302.25-1.092l.005-.047c.024-.241.042-.508.051-.793 0-.001.005-.166.005-.224h.241v.815c0 .178.111.306.265.306.155 0 .272-.131.272-.306v-.819l.259-.001V5.66a.08.08 0 01-.027.065c-.07.057-.248.026-.315.014l-.037-.005a.302.302 0 00-.3.317c0 .144.055.19.114.239l.015.012c.08.07.213.075.23.074.427.017.66-.035.802-.172.123-.12.177-.312.177-.619V4.082h.033c.18 0 .313-.137.313-.326 0-.19-.133-.327-.313-.327z" fill="#df0011"/><path d="M28.683 7.97c-.056.067-.084.172-.084.312v1.797l-1.046-1.763c-.177-.3-.359-.451-.541-.451-.158 0-.27.039-.333.114-.062.075-.092.21-.092.414v2.419c0 .142.027.25.082.315.056.068.146.103.266.103.118 0 .207-.035.265-.104.058-.068.086-.174.086-.314V9.02c.074.122 1.091 1.835 1.091 1.835.098.165.18.266.252.309a.55.55 0 00.287.065c.14 0 .24-.04.298-.118.057-.077.084-.209.084-.403V8.282c0-.142-.027-.248-.084-.315-.056-.068-.146-.102-.264-.102-.12 0-.21.034-.267.104m-3.369-.01c-.06.062-.089.157-.089.282v2.613c0 .122.032.216.09.28.06.064.149.096.264.096.118 0 .208-.032.268-.096.057-.061.087-.155.087-.28V8.241c0-.123-.03-.218-.088-.28-.06-.064-.15-.096-.267-.096s-.205.032-.265.094m-1.361 0c-.058.062-.089.157-.089.282v.876H22.57V8.24c0-.123-.03-.218-.09-.28-.059-.064-.148-.096-.264-.096-.118 0-.208.032-.267.094-.059.062-.087.157-.087.282v2.613c0 .122.028.216.087.28.06.063.149.096.267.096.117 0 .209-.032.266-.096.06-.061.088-.155.088-.28v-1.1h1.294v1.1c0 .123.031.217.09.28.06.064.15.096.266.096.118 0 .21-.032.27-.095.057-.062.088-.156.088-.28V8.24c0-.123-.031-.218-.091-.281-.06-.063-.15-.095-.267-.095-.118 0-.208.032-.267.094m-5.071.334c-.276.313-.416.753-.416 1.31 0 .517.138.93.41 1.23.273.297.654.448 1.128.448.225 0 .426-.031.597-.09.171-.062.335-.16.485-.293a1.14 1.14 0 00.224-.275.603.603 0 00.085-.282.302.302 0 00-.1-.228.34.34 0 00-.243-.095.346.346 0 00-.171.044.601.601 0 00-.16.154l-.052.09-.072.112a.594.594 0 01-.232.163.898.898 0 01-.324.055c-.272 0-.485-.094-.631-.281-.148-.187-.223-.46-.223-.806 0-.34.075-.608.222-.801a.725.725 0 01.604-.287c.12 0 .23.02.323.06a.642.642 0 01.243.178l.064.092a.525.525 0 00.237.217.42.42 0 00.164.035.33.33 0 00.245-.094.334.334 0 00.092-.246.562.562 0 00-.088-.288.913.913 0 00-.241-.261 1.524 1.524 0 00-.467-.252 1.7 1.7 0 00-.54-.08c-.494 0-.885.158-1.163.47M30.7 9.935c.016-.05.382-1.179.419-1.288l.421 1.288zm1.875.898l-.028-.09-.911-2.523c-.056-.15-.115-.243-.184-.287-.068-.042-.173-.062-.32-.062-.156 0-.263.021-.331.066-.067.044-.126.14-.18.291l-.894 2.516-.026.09-.008.089c0 .094.032.17.096.227a.35.35 0 00.246.086c.088 0 .16-.022.218-.063a.39.39 0 00.126-.192l.144-.45h1.225l.148.45c.028.086.07.151.126.194.055.04.127.061.214.061a.353.353 0 00.248-.086.291.291 0 00.099-.227s.002-.057-.008-.09zM54.61 7.97c-.057.067-.087.172-.087.312v1.797a2125.58 2125.58 0 00-1.044-1.763c-.177-.3-.359-.451-.541-.451-.159 0-.27.039-.333.114-.063.075-.093.21-.093.414v2.419c0 .145.028.248.083.315.056.068.145.103.266.103.117 0 .206-.035.265-.104.057-.07.086-.174.086-.314V9.02l1.09 1.835c.098.165.181.266.253.308.07.044.167.066.288.066.139 0 .239-.04.295-.118.058-.077.086-.209.086-.403V8.282c0-.142-.029-.248-.084-.315-.057-.068-.146-.102-.266-.102-.118 0-.208.034-.265.104m-7.858-.061c-.157 0-.27.038-.332.115-.062.076-.093.211-.093.416v2.222c0 .204.031.34.093.415.062.075.175.113.332.113h1.712a.437.437 0 00.282-.08.295.295 0 00.1-.238c0-.105-.033-.187-.097-.238-.065-.053-.16-.079-.285-.079h-1.438v-.795h1.212a.445.445 0 00.279-.075.266.266 0 00.1-.222c0-.1-.032-.176-.097-.226-.063-.05-.157-.074-.282-.074h-1.212v-.649h1.351a.458.458 0 00.283-.075c.066-.05.1-.124.1-.222 0-.102-.034-.178-.1-.23-.064-.052-.16-.078-.283-.078zm-3.188.007a.384.384 0 00-.257.078c-.06.053-.09.13-.09.232 0 .1.03.177.087.229.057.05.145.074.26.074h.653v2.326c0 .122.03.216.09.28.06.064.149.096.267.096.116 0 .205-.032.264-.096.058-.061.088-.156.088-.28V8.528h.655c.112 0 .2-.025.257-.077.059-.05.088-.127.088-.226 0-.103-.03-.18-.088-.232-.057-.051-.145-.078-.257-.078zm-8.797-.007c-.159 0-.27.038-.334.115-.061.076-.093.211-.093.416v2.222c0 .204.032.34.093.415.065.075.174.113.334.113h1.71a.438.438 0 00.282-.08c.065-.054.098-.134.098-.238 0-.105-.031-.187-.098-.238-.062-.053-.159-.079-.283-.079H35.04v-.795h1.21c.12 0 .215-.025.278-.075a.262.262 0 00.1-.221c0-.1-.033-.177-.097-.227-.063-.05-.157-.074-.28-.074h-1.21v-.649h1.349a.454.454 0 00.281-.075.264.264 0 00.099-.222c0-.102-.034-.178-.099-.23a.44.44 0 00-.281-.078zm6.016.177c-.22.175-.331.42-.331.733 0 .276.076.49.227.635.15.145.439.265.86.362l.046.011c.53.122.8.275.8.457 0 .13-.05.228-.149.295-.102.068-.254.102-.457.102a.89.89 0 01-.33-.056.588.588 0 01-.23-.17l-.09-.13c-.105-.158-.22-.239-.344-.239a.306.306 0 00-.234.098.363.363 0 00-.087.25c0 .097.03.196.09.297a.83.83 0 00.237.258c.144.103.296.177.45.223.154.046.339.07.549.07.396 0 .713-.098.943-.287.23-.19.347-.453.347-.78a.951.951 0 00-.099-.455.761.761 0 00-.308-.307 1.76 1.76 0 00-.279-.118 7.367 7.367 0 00-.51-.141l-.208-.05c-.357-.084-.537-.207-.537-.365 0-.119.044-.208.134-.274.09-.065.223-.098.39-.098.117 0 .219.016.304.049a.522.522 0 01.208.144l.063.083c.111.146.23.22.353.22a.32.32 0 00.231-.086.31.31 0 00.086-.228.53.53 0 00-.088-.272.828.828 0 00-.23-.241 1.29 1.29 0 00-.4-.19 1.825 1.825 0 00-.49-.06c-.39 0-.698.088-.917.26m10.345 1.141c-.074.065-.197.098-.361.098h-.761V8.51h.792c.146 0 .258.035.333.103.073.068.11.17.11.305 0 .142-.037.245-.113.31zm.76 1.363a1.398 1.398 0 01-.016-.196l-.013-.236a.731.731 0 00-.118-.362.55.55 0 00-.243-.18.65.65 0 00.324-.26.938.938 0 00.127-.506c0-.317-.088-.556-.262-.71-.173-.153-.441-.231-.799-.231h-1.166c-.157 0-.269.038-.331.114-.063.077-.094.212-.094.417v2.415c0 .122.03.216.088.28.06.064.149.096.266.096.118 0 .207-.032.267-.096.057-.062.088-.156.088-.28V9.93h.685c.163 0 .278.029.34.085.063.057.103.214.12.466.022.337.063.54.126.624.063.085.17.13.315.13.105 0 .191-.03.256-.088a.308.308 0 00.097-.237c0-.03-.009-.08-.025-.156zM38.24 9.935c.017-.05.383-1.179.42-1.288l.42 1.288zm1.875.898a7.979 7.979 0 01-.026-.09l-.912-2.523c-.056-.15-.116-.243-.184-.287-.068-.042-.173-.062-.32-.062-.156 0-.264.021-.332.066-.066.044-.125.14-.178.291l-.895 2.516-.027.09-.007.089c0 .094.033.17.095.227a.352.352 0 00.247.086.36.36 0 00.217-.063.392.392 0 00.127-.192l.143-.45h1.225c.01.027.149.45.149.45.028.086.07.151.126.194.055.04.126.061.214.061a.353.353 0 00.248-.086.293.293 0 00.099-.227s.001-.057-.009-.09z" fill="#1b1d80"/></g></svg>