<svg viewBox="0 0 202.5 50.458" xmlns="http://www.w3.org/2000/svg"><g fill="#E60012"><path d="M18.365 1.806A41.052 41.052 0 0125.782.648c-4.552.4-9.111 1.654-12.957 4.18C10.417 6.42 8.271 8.583 7.2 11.304c-.87 2.176-.909 4.67-.08 6.864.98 2.649 2.994 4.792 5.281 6.39 1.922 1.35 4.08 2.324 6.297 3.08 2.268.756 4.58 1.478 6.627 2.742 1.311.805 2.513 1.864 3.225 3.248.525-1.027 1.332-1.889 2.246-2.58 2.155-1.621 4.753-2.469 7.284-3.301 2.729-.904 5.387-2.137 7.634-3.953 2.051-1.645 3.784-3.809 4.507-6.367.633-2.168.417-4.547-.517-6.594-1.189-2.633-3.36-4.701-5.772-6.229-3.79-2.38-8.222-3.583-12.655-3.954 4.301.268 8.58 1.179 12.552 2.869 2.541 1.09 4.96 2.512 7.028 4.357 1.709 1.533 3.181 3.378 4.073 5.508a11.35 11.35 0 01.896 5.168c-.115 2.18-.861 4.312-2.076 6.121-1.633 2.451-3.994 4.329-6.526 5.786a33.496 33.496 0 01-4.825 2.255c-2.424.932-4.823 1.995-6.953 3.5-2.084 1.452-3.9 3.319-5.154 5.537-.824 1.438-1.394 3.012-1.744 4.631-.641-2.918-2.076-5.662-4.161-7.809-2.547-2.674-5.896-4.398-9.305-5.708-2.463-.927-4.868-2.052-7.036-3.558-2.346-1.621-4.439-3.724-5.657-6.332-1.237-2.635-1.505-5.74-.617-8.521.907-2.887 2.884-5.322 5.206-7.211 3.308-2.666 7.291-4.388 11.387-5.437z"/><path d="M22.39 1.804c.79-.154 1.582-.311 2.388-.356-2.992.368-5.936 1.319-8.52 2.885-1.995 1.235-3.812 2.919-4.768 5.099a7.496 7.496 0 00-.082 5.854c.808 2.005 2.398 3.593 4.175 4.774 2.599 1.715 5.611 2.705 8.649 3.293 1.521.285 3.14.611 4.313 1.699 1.21-1.123 2.889-1.432 4.454-1.727 2.458-.48 4.878-1.24 7.094-2.422 2.027-1.088 3.924-2.575 5.09-4.592 1.053-1.793 1.359-4.024.737-6.018-.619-2.049-2.066-3.744-3.737-5.033-2.498-1.908-5.515-3.035-8.583-3.627a11.588 11.588 0 00-1.312-.18c.999.042 1.979.258 2.954.465 3.232.732 6.396 2.02 9.004 4.098 1.759 1.412 3.26 3.25 3.92 5.435.664 2.149.388 4.558-.724 6.511-1.187 2.115-3.125 3.691-5.192 4.898-1.726 1.005-3.577 1.775-5.469 2.4-1.899.639-3.876 1.043-5.726 1.83-.997.424-1.953 1.057-2.51 2.012-.564-.965-1.532-1.6-2.54-2.024-2.072-.872-4.295-1.285-6.401-2.058-2.888-1.03-5.731-2.403-7.976-4.533-1.527-1.449-2.697-3.35-2.981-5.461-.287-1.945.177-3.963 1.19-5.637 1.004-1.688 2.465-3.065 4.079-4.166 2.547-1.72 5.478-2.803 8.474-3.419z"/><path d="M17.524 4.587c1.827-1.145 3.875-1.931 5.986-2.352-1.928.475-3.792 1.268-5.405 2.438-1.378 1.014-2.577 2.369-3.109 4.021-.499 1.502-.329 3.191.407 4.587 1.013 1.952 2.841 3.345 4.781 4.295 3.248 1.563 6.95 2.042 10.519 1.698 2.995-.311 6.001-1.227 8.431-3.053 1.533-1.158 2.833-2.785 3.168-4.72.312-1.668-.203-3.413-1.206-4.757-1.373-1.867-3.434-3.104-5.571-3.914a17.073 17.073 0 00-1.949-.602c1.739.34 3.428.949 4.997 1.771C40.481 5.02 42.258 6.448 43.3 8.38c.812 1.486 1.05 3.289.572 4.92-.521 1.826-1.805 3.336-3.285 4.475-1.954 1.492-4.269 2.466-6.655 3.01-1.323.309-2.688.393-4.01.716a2.692 2.692 0 00-1.37.772c-.829-.897-2.136-.907-3.254-1.116-2.824-.356-5.611-1.242-7.995-2.821-1.595-1.062-3.037-2.47-3.794-4.258a6.48 6.48 0 01-.007-5.057c.787-1.881 2.323-3.353 4.022-4.434z"/><path d="M27.992 3.656a5.155 5.155 0 013.671 1.021 5.26 5.26 0 012.057 3.801 5.267 5.267 0 01-1.14 3.688 5.175 5.175 0 01-3.689 1.933 5.157 5.157 0 01-3.744-1.27 5.254 5.254 0 01-1.789-3.842 5.254 5.254 0 011.458-3.764 5.161 5.161 0 013.176-1.567zM147.66 8.111c.24-.957.391-1.934.559-2.904l3.096.396c-.199.838-.406 1.674-.625 2.508 1.375 0 2.748-.002 4.123.002-.004 7.211 0 14.422-.002 21.633.021 1.303-1.166 2.436-2.451 2.439-.973.013-1.943.002-2.916.006-.238-.969-.479-1.937-.715-2.904.875-.01 1.754.036 2.629 0a.683.683 0 00.646-.748c.006-2.891.002-5.777.004-8.667h-4.855c-.039 4.272-.406 8.661-2.127 12.623-.879-.63-1.756-1.265-2.637-1.892 1.58-3.334 1.947-7.086 1.951-10.731h-1.896c0-.901-.002-1.802 0-2.702h1.896V8.111h3.32m-.512 2.728v6.331h4.857v-6.329c-1.618-.002-3.238 0-4.857-.002zm-63.773 2.006c1.823-2.338 3.604-4.769 4.727-7.533.891.315 1.78.631 2.669.947a32.358 32.358 0 01-.803 1.832h14.795v2.492l-16.195.001a45.508 45.508 0 01-2.782 3.904l-2.411-1.643zm39.295-7.261h2.906v2.513h11.184v2.662h-11.184v2.285h10.146v15.393c-.021.647.086 1.328-.176 1.941-.34.857-1.189 1.51-2.125 1.523-.998.014-1.998.004-2.998.006l-.668-2.635c.818-.006 1.639.012 2.457-.006.287 0 .578-.199.637-.492.047-.276.021-.559.025-.838V15.651c-1.748-.004-3.496.01-5.242.007.664.271 1.33.54 1.996.81a24.408 24.408 0 01-1.098 2.416c.918.002 1.836 0 2.754 0v2.393h-5.738c-.002.686-.002 1.371 0 2.057h5.756c.002.786.002 1.573 0 2.359h-5.756v5.563h-2.793c0-1.854 0-3.71-.002-5.563h-5.869c0-.787-.002-1.573 0-2.358l5.869-.001c.002-.686.002-1.371 0-2.057h-5.881c-.002-.797-.002-1.596 0-2.393 1.016 0 2.031.002 3.047 0a10.617 10.617 0 00-1.104-2.439c.699-.258 1.4-.512 2.102-.771-1.85-.004-3.697.012-5.547.006v16.231h-2.846V13.046h10.146V10.76h-11.295c-.002-.887-.002-1.773-.002-2.66 3.766-.002 7.531 0 11.297 0 .002-.841.002-1.677.002-2.516m-1.397 10.089c.553 1.02.979 2.104 1.322 3.211h3.096c.541-1.041 1.033-2.109 1.391-3.227-1.937.016-3.873.005-5.809.016zM160.22 5.578h3.355c.002 1.078 0 2.154.002 3.232h5.082c-.002.974 0 1.945-.002 2.918-4.312-.004-8.625 0-12.939-.002V8.81h4.502c0-1.078-.002-2.155 0-3.232zm26.53-.04h3.271v2.54c3.613.002 7.227 0 10.84.001v6.599c-1.053 0-2.105.002-3.16 0V10.99h-18.482v3.688c-1.055.002-2.107.002-3.16 0V8.079h10.691c0-.849-.002-1.695 0-2.541zm-106.931.251c1.794.868 3.506 1.9 5.13 3.055-.556.828-1.113 1.653-1.669 2.479-1.642-1.142-3.32-2.238-5.097-3.159.544-.793 1.09-1.584 1.636-2.375z"/><path d="M147.61 12.121c.789-.189 1.58-.376 2.371-.564.639 1.416 1.066 2.916 1.404 4.428l-2.479.791a25.918 25.918 0 00-1.296-4.655zm34.06 3.287c1.311-.869 2.336-2.112 3.074-3.489 1.008.433 2.016.864 3.023 1.298a13 13 0 01-3.359 4.115c-2.105 1.711-4.713 2.714-7.369 3.173-.473-1.021-.941-2.04-1.412-3.06 2.109-.303 4.254-.831 6.043-2.037zm8.36-3.305h3.133c0 .943-.006 1.885 0 2.826-.025.726.635 1.365 1.354 1.352 2.115.007 4.232.001 6.348.003v2.883c-2.553-.001-5.107.002-7.662-.002-1.619.022-3.174-1.377-3.168-3.024-.009-1.347-.005-2.692-.005-4.038zM87.118 19.394c.308-2.396.622-4.793.811-7.203h15.691c-.135 2.4-.264 4.803-.389 7.205.57 0 1.143-.002 1.713 0-.002.781 0 1.562-.002 2.345h-1.82c-.086 1.642-.172 3.284-.256 4.927.486 0 .975-.001 1.461.001v2.397h-1.65c-.092.904-.33 1.854-.993 2.518-.714.727-1.765.965-2.748 1.014-.803.025-1.604.006-2.407.012l-.504-2.584c.699.107 1.4.226 2.11.224.428-.009.904-.067 1.224-.384.222-.209.292-.514.361-.797-4.669-.002-9.34 0-14.009-.002.416-2.434.751-4.881 1.107-7.323l-1.816-.001c-.002-.783 0-1.564-.002-2.345.707-.004 1.412-.002 2.118-.004m3.458-4.771a325.071 325.071 0 01-.545 4.771c1.84.002 3.68-.004 5.521.004.131.025.235-.071.345-.125-.191.022-.301-.162-.434-.264-.915-.865-1.893-1.664-2.885-2.438.581-.607 1.164-1.211 1.747-1.814a40.052 40.052 0 013.244 2.746c-.536.568-1.048 1.159-1.6 1.713-.025.051-.077.151-.102.203 1.468-.054 2.938-.009 4.406-.023.082-1.592.163-3.183.242-4.771-3.312-.002-6.626-.002-9.939-.002m-.827 7.119a295.366 295.366 0 01-.732 4.926h6.484a29.778 29.778 0 00-3.41-3.008c.569-.609 1.133-1.223 1.702-1.831a30.794 30.794 0 013.651 3.034c-.519.602-1.038 1.201-1.556 1.806h3.999c.089-1.642.163-3.284.242-4.926-3.46-.002-6.92-.002-10.38-.001zM78.085 13.21c1.432.663 2.779 1.49 4.103 2.346.553.363 1.1.737 1.616 1.151-.546.876-1.09 1.752-1.637 2.627-1.804-1.288-3.652-2.528-5.619-3.558l1.537-2.566zm79.605.627c2.77-.004 5.539.008 8.309-.007 0 4.905-.002 9.812 0 14.716-.006.234.031.551.303.623.357.07.934.12 1.057-.333.229-.923.299-1.879.416-2.821.938.252 1.871.504 2.807.758-.217 1.18-.283 2.424-.844 3.508-.43.854-1.262 1.555-2.244 1.619-.869.037-1.742.005-2.611.018-.801.025-1.521-.557-1.807-1.277-.199-.474-.148-.996-.152-1.494 0-4.16-.002-8.319 0-12.479l-2.332.001c-.01 2.515.064 5.042-.24 7.544-.33 2.848-1.066 5.711-2.615 8.152a865.624 865.624 0 01-2.498-2.229c1.094-1.576 1.637-3.457 1.98-5.324.656-3.621.428-7.315.471-10.975zm20.59 7.319l20.5.001v3.003h-8.76v4.449h11.232v3.037h-25.66c.002-1.012 0-2.024.002-3.037h11.15c.002-1.473.002-2.947.002-4.422h-8.469l.003-3.031zm-30.68.912l2.342-.741c.654 1.556 1.08 3.192 1.48 4.825-.846.229-1.691.457-2.537.683-.354-1.609-.733-3.214-1.285-4.767zM78.985 26.22c.825-1.537 1.615-3.095 2.269-4.713.955.387 1.909.772 2.864 1.16-.672 1.794-1.493 3.527-2.345 5.243-.862 1.668-1.728 3.349-2.831 4.875-.954-.554-1.904-1.11-2.858-1.665a69.671 69.671 0 002.901-4.9zm-68.056 9.277c2.612-.493 5.344.008 7.724 1.147 2.807 1.342 5.199 3.479 6.985 6.015a17.855 17.855 0 012.591 5.378c-1.028-1.523-2.27-2.898-3.623-4.141-1.812-1.646-3.884-3.07-6.226-3.838-1.662-.515-3.486-.69-5.171-.184-.893.271-1.746.779-2.275 1.564-.464.67-.662 1.551-.41 2.338.273.869 1.111 1.535 2.026 1.566 1.062.062 2.078-.75 2.271-1.791.178-.885-.235-1.834-.974-2.342.884.361 1.674.979 2.145 1.821.738 1.268.731 2.92.008 4.19-.568 1.029-1.577 1.75-2.659 2.166-1.477.572-3.141.521-4.64.059a6.793 6.793 0 01-3.722-2.859 6.925 6.925 0 01-.839-5.361c.382-1.521 1.288-2.892 2.503-3.875 1.222-1.003 2.75-1.556 4.286-1.853zm30.444.112c2.086-.475 4.305-.395 6.331.304 1.363.438 2.635 1.204 3.584 2.286a7.197 7.197 0 011.76 3.74c.273 1.863-.254 3.832-1.443 5.297-1.867 2.351-5.354 3.22-8.115 2.066-1.16-.488-2.201-1.365-2.671-2.555-.548-1.322-.379-2.926.477-4.081.468-.666 1.158-1.142 1.901-1.452-.822.562-1.233 1.686-.889 2.635.309.906 1.243 1.559 2.204 1.496.959-.039 1.826-.775 2.051-1.703.228-.897-.104-1.863-.713-2.539-.796-.899-1.996-1.324-3.16-1.471-1.738-.201-3.516.143-5.111.838-1.708.729-3.256 1.793-4.659 3.002-1.544 1.346-2.947 2.862-4.1 4.56.966-3.394 2.996-6.444 5.635-8.771 1.976-1.732 4.339-3.074 6.918-3.652zm76.987 2.308c1.75 3.608 3.5 7.218 5.248 10.827h-1.809c-.398-.814-.793-1.633-1.189-2.445-1.492.002-2.986-.003-4.479.002-.396.814-.795 1.629-1.189 2.443h-1.834c1.75-3.61 3.502-7.217 5.252-10.827m0 3.576a649.538 649.538 0 00-1.521 3.3h3.066c-.513-1.102-1.029-2.202-1.545-3.3zm-31.133 7.252c1.749-3.61 3.5-7.218 5.249-10.827l5.247 10.827h-1.805c-.398-.815-.792-1.632-1.191-2.446-1.494.004-2.988-.004-4.483.004-.393.814-.789 1.629-1.185 2.442h-1.832m3.731-3.953l3.065-.001c-.515-1.102-1.032-2.199-1.547-3.303-.504 1.103-1.015 2.201-1.518 3.304zm49.932 3.953c1.748-3.608 3.496-7.218 5.246-10.826l5.25 10.825-1.811.001c-.395-.815-.791-1.629-1.184-2.444-1.494-.004-2.988 0-4.482-.002-.398.815-.793 1.633-1.189 2.446h-1.83m3.728-3.953c1.021 0 2.045.001 3.066-.001-.521-1.092-1.01-2.201-1.557-3.281-.501 1.095-1.007 2.188-1.509 3.282zm-42.108-6.697c2.596 2.398 5.182 4.809 7.77 7.217.002-2.242 0-4.486.002-6.729h1.693v10.595a3119.033 3119.033 0 01-7.809-7.224c-.002 2.265 0 4.526-.002 6.791h-1.652c-.002-3.55-.002-7.101-.002-10.65zm22.16 0c2.594 2.401 5.18 4.812 7.768 7.221v-6.734c.562.002 1.125 0 1.689.001 0 3.53.002 7.062 0 10.591-2.607-2.4-5.205-4.81-7.803-7.219-.002 2.264 0 4.525-.002 6.79-.553 0-1.104-.001-1.652.001-.002-3.551-.002-7.1 0-10.651zm50.61.002c2.596 2.398 5.182 4.81 7.768 7.219.002-2.246 0-4.489.002-6.733h1.693c0 3.532.002 7.062 0 10.595a3811.976 3811.976 0 01-7.809-7.221c-.002 2.264 0 4.525-.002 6.789-.553-.002-1.104 0-1.654-.002.002-3.549.002-7.098.002-10.647zm20.23 1.129c.975-1.086 2.701-1.312 3.969-.629.627.326 1.113.881 1.41 1.518-.494.242-.99.482-1.484.725-.418-.851-1.604-1.273-2.43-.77-.363.207-.557.664-.428 1.066.139.422.506.711.865.941.818.533 1.818.725 2.602 1.327.641.461 1.119 1.172 1.205 1.968.176 1.391-.686 2.82-1.979 3.346-1.086.439-2.398.403-3.398-.23-.883-.566-1.438-1.547-1.631-2.562l1.658-.32c.16.697.615 1.365 1.307 1.619.842.326 1.934-.101 2.232-.979.199-.502-.02-1.075-.42-1.407-.639-.592-1.523-.752-2.26-1.178-.742-.403-1.432-1.002-1.723-1.815-.331-.88-.142-1.933.505-2.62zm-117.262-.644h1.671v3.939c1.517-.002 3.033 0 4.549-.002 0-1.312-.001-2.625.001-3.938h1.671v10.162h-1.671c-.002-1.57 0-3.141-.001-4.711h-4.549v4.711h-1.671V38.582zm20.564 0h1.671v10.162h-1.671V38.582zm53.708 10.163c-.002-3.388-.002-6.774 0-10.162h1.67v10.162h-1.67zm3.81-10.163c1.266.01 2.531-.018 3.799.014 1.504.086 2.805 1.518 2.637 3.039-.039 1.164-.893 2.17-1.975 2.535l3.182 4.573c-.652.002-1.303 0-1.953.001-1.27-1.895-2.535-3.791-3.805-5.686.75-.055 1.586.164 2.258-.271.656-.388.854-1.321.484-1.97a1.596 1.596 0 00-1.324-.795c-.545-.014-1.088 0-1.631-.004v8.724h-1.67c-.002-3.385 0-6.772-.002-10.16zm8.93.047h1.678v8.683h3.346c-.002.478-.002.955-.002 1.433h-5.02c-.002-3.373-.002-6.745-.002-10.116zm6.2 10.116c-.002-3.388 0-6.774-.002-10.162h1.674v10.162h-1.672zm15.43 0V38.576l6.256.001c-.002.479-.002.958 0 1.438h-4.57c-.002.814-.002 1.631 0 2.446h4.439v1.438h-4.439a966.737 966.737 0 000 3.406c1.521.002 3.047 0 4.57.002-.002.479-.002.957 0 1.438h-6.256z"/></g></svg>