<svg viewBox="0 0 445.06 122.57" xmlns="http://www.w3.org/2000/svg"><path d="M398.95 23.875c29.928 16.364 45.18 36.539 30.75 54.901-25.487 32.44-139.58 46.479-216.69 33.762-19.648-3.235-38.285-8.112-54.735-14.107 21.825 11.96 57.12 20.724 100.28 23.349 84.085 5.114 166.12-15.02 183.25-44.958 10.987-19.204-6.346-39.487-42.847-52.947M337.46.917a7.917 7.917 0 01-.813-.005c-2.766-.212-3.688 1.056-2.676 2.144 1.168 1.26 3.177 2.048 6.967 3.466 3.774 1.408 38.167 11.662 38.167 11.662 5.589 1.538 13.351 3.601 14.946 3.112.286-.089.398-.25.237-.523-.899-1.482-4.896-3.146-7.586-4.478-1.024-.509-2.916-1.403-5.246-2.484-.524-.174-1.043-.343-1.552-.514l-4.199-1.889c.355.079.688.151 1.025.228-4.925-2.249-10.51-4.74-14.409-6.374-7.098-2.97-11.057-4.225-16.396-5.042-2.717-.414-4.357-.168-5.679.141l5.892 2.065L337.46.917" fill="#ED1B2D"/><path d="M379.9 13.296c.509.171 1.027.34 1.552.514 4.789 1.571 9.962 3.226 13.941 5.636l12.083-6.305s-4.068-1.273-6.188-1.501c-3.003-.312-4.855.468-9.098 1.187-5.337.902-8.419.365-15.465-1.191-.338-.076-.67-.148-1.025-.228l4.2 1.888" fill="#ED1B2D"/><path d="M45.453 76.732l-3.238 1.14c-5.926 2.101-12.352 3.404-17.044 3.404-10.108 0-13.708-4.889-8.669-11.871 4.997-6.932 15.662-11.765 26.056-11.765 5.832 0 11.123 1.648 13.548 4.207l6.43-8.922c-.956-.736-1.437-.966-3.021-1.531-3.818-1.421-6.905-1.873-11.961-1.873-6.046 0-11.971.905-17.69 2.728-10.964 3.46-20.798 9.995-26.04 17.266-8.388 11.649-2.646 19.773 14.008 19.773 7.043 0 13.484-1.137 21.854-3.861l6.433-8.919-.666.224m41.521-2.221H71.882l18.103-15.15-3.011 15.15m7.927-24.563h-5.388L41.538 89.086h12.94l9.249-7.744h21.92l-1.559 7.744H97.25l4.25-25.918 2.17-13.221h-8.769zm37.009 16.068l6.45-8.95h6.177c4.534 0 5.761 1.489 3.609 4.479-1.814 2.525-5.329 4.299-8.603 4.36l-1.557.054-.971.057h-5.105m14.138 23.07c.491-3.657 1.025-7.302 1.506-10.962.636-4.071.084-6.31-1.754-7.343 2.735-.802 3.816-1.203 5.728-2.064 4.025-1.899 7.524-4.646 9.592-7.521 2.643-3.668 2.737-7.286.299-9.295-2.047-1.549-4.342-1.953-11.46-1.953h-18.825l-28.21 39.139h12.359l6.146-8.523 5.356-7.43h1.797c2.154 0 2.443 0 3.355.228 1.925.523 2.729 2.701 2.16 6.09-.343 3.044-1.234 6.604-1.49 9.636h13.441zm47.812-20.99l-5.2 7.215h6.977l-3.273 4.546c-3.499.908-6.679 1.36-9.666 1.36-9.323 0-12.576-4.77-7.744-11.473 5.408-7.501 15.596-12.157 26.485-12.157 5.551 0 10.854 1.137 14.956 3.235l.58.288 6.057-8.41c-2.251-1.022-3.146-1.365-5.195-1.871-3.23-.856-7.381-1.309-11.585-1.309-17.504 0-35.09 8.01-43.645 19.884-8.396 11.641-2.376 19.883 14.486 19.883 8.186 0 17.376-1.99 24.55-5.229l11.506-15.963H193.86m69.45 1.591c-4.92 6.821-14.885 11.756-23.71 11.756-9.178 0-11.927-4.767-6.856-11.813 5.241-7.271 14.531-11.871 23.786-11.871 9.402 0 12.09 4.659 6.78 11.928m12.686-.223c8.104-11.253 2.2-19.942-13.453-19.942-15.733 0-34.089 8.689-42.198 19.942-8.024 11.138-2.192 19.824 13.323 19.824 15.868.001 34.221-8.574 42.328-19.824zm35.394 18.816h35.85l4.72-6.622H326.2l6.9-9.695h22.65l4.72-6.616h-22.66l5.61-7.872h24.65l4.72-6.614h-34.75z"/><path fill="none" stroke="#000" stroke-width=".764" d="M311.39 88.279h35.85l4.72-6.622H326.2l6.9-9.695h22.65l4.72-6.616h-22.66l5.61-7.872h24.65l4.72-6.614h-34.75z"/><path d="M368.87 88.279h10.49l21.94-30.805h14.04l4.71-6.614h-37.79l-4.71 6.614h13.26z"/><path fill="none" stroke="#000" stroke-width=".764" d="M368.87 88.279h10.49l21.94-30.805h14.04l4.71-6.614h-37.79l-4.71 6.614h13.26z"/><path d="M332.44 27.762l-.409.209-.534.228-.572-.11-1.056-.988-2.859 5.97-.082.182-.128.146-.125.098-.174.081-.161.049-.209.011-.126-.021-.089-.074-.082-.118-.762-2.722c-2.479 2.323-1.935 1.615-5.479 1.186l-1.068 3.146-.228.324-.48.325-.214.117-1.71.438 3.43 4.005.03.324-.155.223-.314.447-1.677 1.413 5.901-.882h.501l.184.112.059.103-1.607 1.919h1.416l1.078-1.919.207-.103.346-.112h.495l4.67.882.294-1.413.473-.67.493-.324 9.07-4.005-1.106-.438-.052-.117-.013-.325.228-.324 3.351-3.146-3.368.44h-.379l-.301-.115-.077-.438.314-1.073-4.593 2.722-.242.118-.192.074-.168.021-.185-.011-.103-.049-.053-.081.025-.098.059-.146.182-.182 5.53-5.97-2.44.988-.727.11-.217-.228-.112-.209.808-3.699-4.516 3.699" fill="#ED1B2D"/><path d="M313.55 51.476L293.125 80.53c-1.858 2.638-4.248 4.574-7.174 5.814-2.932 1.244-6.688 1.862-11.284 1.862-5.3 0-9.765-.544-13.407-1.636l-5.341 3.737c4.253 1.318 9.535 1.982 15.863 1.982 7.258 0 13.45-.988 18.59-2.959 5.143-1.971 9.007-4.8 11.604-8.487l20.64-29.368h-9.066z"/><path d="M313.55 51.476L293.125 80.53c-1.858 2.638-4.248 4.574-7.174 5.814-2.932 1.244-6.688 1.862-11.284 1.862-5.3 0-9.765-.544-13.407-1.636l-5.341 3.737c4.253 1.318 9.535 1.982 15.863 1.982 7.258 0 13.45-.988 18.59-2.959 5.143-1.971 9.007-4.8 11.604-8.487l20.64-29.368h-9.066z" fill="none" stroke="#000" stroke-width="1.146"/></svg>