<svg width="464.38" height="82.608" viewBox="0 0 122.87 21.857" xmlns="http://www.w3.org/2000/svg"><g fill="#0060a9"><path d="M116.08 19.352c-1.192-.342-2.651-.365-4.22-.065-1.62.308-3.315.956-4.91 1.87-.241.14-.48.284-.713.436h12.595a3.839 3.839 0 00-.129-.277c-.497-.934-1.406-1.614-2.623-1.964z"/><path d="M119.316 18.26c-.6-1.127-1.692-1.946-3.159-2.366-1.433-.415-3.19-.442-5.08-.081-1.947.371-3.989 1.15-5.905 2.252a20.417 20.417 0 00-3.897 2.888v.64h4.237a17.32 17.32 0 011.572-1.104c1.986-1.246 4.19-2.083 6.209-2.36 1.998-.276 3.718.01 4.844.805.882.623 1.375 1.525 1.47 2.66h.148l.054-.537c.106-1.042-.061-1.984-.493-2.798zm-17.582-6.046c-.154.09-.308.18-.459.27v1.794c4.365-3.19 9.089-4.3 12.98-4.552-3.278-.943-7.999-.112-12.52 2.488z"/><path d="M116.183 10.142c.156.13.307.268.449.415 0 0 1.036 1.074 1.378 2.088l-.332-.524c-.525-.829-1.278-1.471-2.207-1.928-4.216.35-9.573 1.661-14.195 5.478v.289a23.321 23.321 0 013.971-2.558c1.497-.761 3.01-1.324 4.496-1.674 1.495-.35 2.893-.472 4.16-.357 2.432.219 4.177 1.283 5.047 3.082 0 0 .667 1.35.725 2.722l-.187-.781a4.836 4.836 0 00-.433-1.148c-.665-1.246-1.873-2.154-3.496-2.618-1.587-.457-3.53-.487-5.62-.09-2.156.413-4.416 1.273-6.534 2.492-.744.427-1.455.888-2.13 1.38v4.219c.747-.776 1.58-1.51 2.498-2.191a21.667 21.667 0 014.36-2.517c3.095-1.333 6.123-1.75 8.307-1.147 2.023.561 3.228 1.956 3.486 4.034 0 0 .139 1.328-.126 2.785h2.8V10.418c-.751-.126-3.197-.472-6.417-.276zm-10.76-4.024c-1.358.232-2.766.67-4.147 1.283v.532a22.326 22.326 0 015.473-1.98 13.48 13.48 0 00-1.326.165z"/><path d="M101.277.266v5.687s2.398-.828 4.946-.441l-1.015.039c-1.247.047-2.59.335-3.931.833v.631c2.089-.96 4.544-1.446 6.677-1.296 5.341-.905 9.595.198 9.595.198-.83-.139-4.097-.599-8.124.01.38.089.986.27 1.599.627l-.498-.178a7.731 7.731 0 00-1.582-.371c-2.425.413-5.094 1.222-7.667 2.72v.314c3.877-2.118 8.048-2.91 11.074-1.822 4.844-.35 8.41.637 8.41.637-.814-.137-3.708-.547-7.437-.199.209.116 1.117.646 1.502 1.188l-.221-.178a6.145 6.145 0 00-1.752-.964c-3.516.384-7.706 1.453-11.576 4.032v.292c.332-.216.67-.425 1.014-.625 2.766-1.62 5.686-2.608 8.223-2.783 1.993-.138 3.702.225 5.023 1.055 4.009-.08 6.875.692 7.064.744V.266z"/><path d="M101.277 9.43v1.163c3.411-2.03 6.935-2.943 10.032-3.28-2.841-.45-6.49.284-10.032 2.117zM44.89 5.16h2.681c.468 1.006 4.325 9.327 4.325 9.327H49.45l-1.012-2.175h-4.444l-.983 2.177H40.55zm2.779 5.449L46.23 7.414l-1.455 3.195zm28.904-3.363c-1.557 0-2.31.817-2.31.817l-.128-.674h-2.091c.079.252.221.727.221 1.14v5.96h2.067v-4.123c0-1.12.685-1.693 2.241-1.693.855 0 1.374.284 1.374 1.693v4.123h2.067v-4.123c0-2.121-.684-3.12-3.441-3.12zm9.3.022c-3.521 0-4.307 1.655-4.307 3.677 0 2.04.768 3.693 4.479 3.693 1.359 0 2.624-.251 2.914-.313l.214-1.413c-.195.02-1.802.315-3.128.315-1.72 0-2.187-.655-2.325-1.568h5.959v-.715c0-2.55-1.359-3.676-3.806-3.676zm-2.154 2.963c.122-.883.519-1.55 2.154-1.55 1.202 0 1.635.77 1.703 1.55zM15.987 7.263c-2.586 0-4.309 1.14-4.309 3.69 0 2.569 1.723 3.694 4.309 3.694s4.306-1.125 4.306-3.693c0-2.551-1.72-3.691-4.306-3.691zm0 5.973c-1.73 0-2.24-.856-2.24-2.282 0-1.408.51-2.265 2.24-2.265 1.722 0 2.24.857 2.24 2.265 0 1.426-.518 2.282-2.24 2.282zm23.01-3.706c0-1.429-1.533-2.284-3.789-2.284-1.162 0-2.593.452-3.086.62l-.225 1.438c.45-.1 2.215-.631 3.311-.631 1.133 0 1.72.386 1.72.943v.608s-1.391-.142-1.892-.142c-2.256 0-3.621.81-3.621 2.282 0 1.857 2.056 2.267 3.101 2.267 1.417 0 2.154-.382 2.5-.696l.119.555h2.075c-.027-.11-.213-.603-.213-1.27zm-2.068 2.264c0 1.312-1.252 1.426-2.413 1.426-.396 0-1.028-.084-1.028-.856 0-.513.7-.855 1.548-.855h1.893zM5.909 4.885c2.424-.002 3.937.762 4.772 1.975l-2.168.833c-.47-.657-1.258-1.097-2.574-1.104h-.057c-1.296.006-2.074.419-2.548 1.05-.415.559-.643 1.271-.643 2.08v.136c.008.774.235 1.513.643 2.056.473.632 1.252 1.042 2.546 1.05l.058-.002c1.294-.006 2.078-.429 2.55-1.068l2.193.837c-.84 1.19-2.366 1.919-4.761 1.919h-.013c-2.131 0-3.564-.564-4.44-1.532C.67 12.248.263 11.087.264 9.805v-.087c0-1.252.407-2.416 1.201-3.281.877-.965 2.308-1.553 4.443-1.552zm60.147 8.48v-8.2h-2.07v8.2c0 .5.173 1.005.216 1.125h2.07c-.031-.118-.216-.602-.216-1.125zm-6.914-3.016c.008-1.098.812-1.676 2.24-1.676.235 0 1.172.123 1.574.17a93.253 93.253 0 00-.226-1.428c-.294-.055-.955-.169-1.349-.169-1.211 0-1.893.443-2.274.783l-.176-.64h-2.076c.04.144.215.625.219 1.123v5.976h2.068v-4.14zM26.154 7.254c-1.294 0-2.293.757-2.293.757s-.11-.42-.155-.613h-2.081c.074.254.218.752.218 1.283v8.068h2.07v-2.806c.413.302 1.19.696 2.241.696 3.465 0 3.966-1.652 3.966-3.693 0-2.021-.5-3.692-3.966-3.692zm0 5.975c-1.76 0-2.242-1-2.242-2.283.034-1.367.481-2.265 2.242-2.265 1.588 0 1.9.998 1.9 2.265 0 1.284-.312 2.283-1.9 2.283zm70.982-5.603v1.609a5.562 5.562 0 00-1.267-.493 5.373 5.373 0 00-1.32-.167c-.492 0-.863.06-1.115.18-.249.119-.375.296-.375.531 0 .335.537.608 1.61.817l.084.02.63.126c.804.16 1.391.415 1.764.77.374.354.56.834.56 1.434 0 .727-.283 1.273-.853 1.634-.57.362-1.426.545-2.569.545-.506 0-1.026-.037-1.557-.112a12.878 12.878 0 01-1.617-.328V12.58c.486.232.981.407 1.487.529.503.124.99.184 1.461.184.517 0 .907-.064 1.175-.19.266-.127.398-.308.398-.548a.617.617 0 00-.282-.541c-.188-.126-.637-.26-1.343-.402l-.61-.113c-.842-.157-1.456-.408-1.844-.747-.384-.339-.578-.796-.578-1.365 0-.68.292-1.208.881-1.586.586-.377 1.411-.565 2.474-.565.477 0 .952.032 1.426.096.475.066.933.163 1.38.294zm-26.942 5.739v-5.98h-2.069v5.98c0 .53.197 1.052.225 1.125h2.062c-.037-.134-.218-.615-.218-1.125zm-1.041-6.523c.45 0 .754-.06.921-.184.166-.123.248-.346.248-.667 0-.31-.08-.525-.24-.647-.161-.119-.464-.18-.912-.18-.456 0-.763.062-.926.187-.161.125-.244.35-.244.671 0 .31.08.523.235.642.159.118.464.178.918.178zm-14.154 6.523v-5.98h-2.068v5.98c0 .53.196 1.052.225 1.125h2.062c-.037-.134-.219-.615-.219-1.125zm-1.04-6.523c.448 0 .754-.06.921-.184.166-.123.249-.346.249-.667 0-.31-.081-.525-.24-.647-.164-.119-.465-.18-.913-.18-.456 0-.763.062-.927.187-.16.125-.243.35-.243.671 0 .31.078.523.234.642.16.118.465.178.92.178z"/></g></svg>