<svg viewBox="0 0 430 60" xmlns="http://www.w3.org/2000/svg"><path d="M18.367 28.858c-.196.026-.414-.257-.507-.39-.029-.039-.136-.267-.11-.301.043-.033.265.042.324.09.145.116.263.277.335.555.002.032-.026.046-.042.046m-4.731-2.622c-.134.048-.461-.324-.552-.461-.168-.253-.338-.534-.516-.783-.166-.22-.35-.378-.392-.764-.004-.045-.03-.16-.002-.158.18.014.352.33.443.453.064.089.141.178.2.271.089.135.125.297.218.425.113.153.25.299.372.455.065.082.152.155.192.268.019.06.075.273.037.294m-1.355-.053c-.101-.008-.144-.07-.206-.117a.748.748 0 01-.31-.609c-.004-.028.009-.036.029-.036.198-.002.398.303.475.445a.52.52 0 01.067.238c0 .055-.025.079-.055.079m-4.503.91c-.008.022-.024.048-.056.05-.215-.006-.28-.325-.372-.47-.077-.124-.146-.255-.225-.379-.057-.083-.127-.172-.174-.269-.058-.123-.085-.254-.157-.366-.037-.058-.098-.109-.14-.163a2.121 2.121 0 01-.297-.522c-.016-.07-.037-.14-.053-.21-.044-.12-.099-.251-.14-.378a.605.605 0 01-.022-.24c.01-.017.019-.031.035-.027.164.024.321.422.402.57.09.156.227.28.303.44.07.148.093.332.17.474.063.109.164.196.233.301.087.135.15.311.218.461.077.17.188.301.255.465a.503.503 0 01.02.263m-.835-6.137a1.911 1.911 0 01-.117-.242c-.035-.091-.039-.174-.075-.261-.127-.281-.269-.59-.394-.868-.055-.117-.128-.333-.077-.48.008-.021.05-.009.069.011.042.039.072.063.109.105.026.04.032.085.06.126.063.095.146.19.193.297.105.229.133.483.238.706.067.145.18.273.255.42.036.083.06.168.085.253.016.065.012.152.016.202.002.077-.006.124-.032.128-.198-.013-.257-.255-.33-.397m42.798 18.958c-.249-.916-2.936-.521-5.146-.724-2.011-.184-4.591-.543-7.693-1.621-2.904-1.007-5.71-2.16-8.159-3.484 0 0-.988-.522-1.093-.58-.205-.124-.364-.213-.565-.338-.119-.07-.303-.18-.436-.239-.172-.07-.287-.163-.435-.254-.152-.095-.358-.194-.512-.285-.224-.14-.364-.247-.576-.399-.131-.099-.198-.127-.374-.234-.105-.063-.297-.166-.39-.229-.196-.13-.322-.236-.52-.374-.12-.085-.208-.137-.352-.226-.141-.087-.279-.198-.402-.29-.067-.052-.172-.11-.232-.175a6.937 6.937 0 00-.44-.384c-.137-.104-.268-.231-.402-.334-.087-.063-.234-.186-.32-.249-.221-.16-.361-.279-.581-.439-.142-.105-.261-.244-.403-.35-.157-.117-.303-.252-.467-.37a2.256 2.256 0 01-.307-.248c-.105-.127-.204-.214-.316-.34-.08-.089-.236-.188-.327-.279a2.744 2.744 0 00-.51-.493c-.107-.1-.14-.146-.182-.198a1.71 1.71 0 00-.157-.19c-.087-.09-.12-.114-.154-.152a2.857 2.857 0 01-.206-.192c-.037-.038-.1-.125-.162-.21-.055-.075-.105-.15-.142-.188-.107-.114-.177-.192-.254-.273a9.512 9.512 0 01-.184-.19c-.043-.047-.075-.101-.114-.152a1.103 1.103 0 00-.103-.146c-.064-.07-.115-.046-.127-.038-.038.026-.055.103-.012.194.058.107.14.227.19.295l.028.039.059.1c.028.051.058.106.095.154.083.112.17.205.257.292.03.028.058.058.085.089.058.06.103.125.147.194.049.066.1.14.162.208a.6.6 0 01.079.097c.028.036.056.077.089.11.05.048.099.096.147.145.081.087.168.172.247.24.063.053.125.12.19.182.164.197.344.393.491.58.083.106.239.185.334.257.105.08.188.217.271.322.065.077.206.202.273.283.164.21.277.324.493.485.132.093.23.184.332.31.06.078.247.258.317.345.178.227.26.44.233.445-.121.033-.417-.228-.593-.342-.143-.099-.167-.137-.305-.24-.03-.026-.249-.178-.323-.273a4.58 4.58 0 01-.271-.29c-.247-.315-.33-.333-.613-.61-.206-.202-.463-.382-.663-.562a4.14 4.14 0 01-.178-.194c-.067-.067-.15-.127-.21-.194-.095-.117-.22-.35-.332-.433-.117-.09-.204-.174-.323-.263-.043-.028-.08-.083-.124-.117a.83.83 0 01-.17-.144c-.137-.175-.27-.355-.414-.531-.063-.085-.154-.154-.217-.24-.133-.191-.246-.385-.382-.563-.192-.249-.465-.427-.649-.677-.19-.26-.303-.558-.48-.83-.078-.117-.197-.2-.282-.31-.048-.065-.075-.14-.121-.211-.095-.146-.207-.287-.304-.425-.125-.186-.21-.386-.337-.582-.018-.026-.063-.158-.142-.255a3.505 3.505 0 01-.226-.343c-.09-.136-.13-.227-.192-.32-.063-.097-.103-.186-.146-.25-.04-.07-.131-.193-.164-.241-.115-.178-.147-.261-.267-.425-.072-.1-.153-.184-.222-.16-.053.039-.032.102-.02.146.052.146.052.12.109.224.097.174.131.257.235.417.046.077.129.25.196.344.064.097.133.212.178.29.05.086.12.308.192.401.05.067.123.202.174.3.099.198.224.353.327.507.069.127.138.26.204.386.138.206.302.398.435.61.083.148.164.296.245.444.083.12.194.224.273.347.097.148.15.31.246.455.077.114.174.223.251.336.131.194.249.386.386.572.077.101.176.186.251.29.103.139.186.305.293.422.13.121.166.194.267.31.15.183.524.709.459.713-.218.03-.64-.449-.819-.623-.137-.137-.291-.234-.386-.364-.142-.19-.245-.404-.386-.588-.05-.069-.128-.12-.178-.184-.097-.125-.19-.259-.301-.368-.047-.045-.097-.085-.14-.136-.172-.22-.317-.457-.483-.687-.073-.093-.162-.176-.233-.267-.052-.075-.085-.156-.131-.237-.067-.103-.156-.202-.223-.305-.05-.077-.08-.153-.133-.232-.091-.138-.212-.257-.303-.397-.071-.113-.091-.26-.166-.376-.188-.287-.392-.58-.576-.867-.049-.075-.07-.158-.114-.23-.151-.237-.29-.492-.44-.724-.055-.087-.077-.187-.132-.271-.069-.106-.174-.188-.242-.29-.053-.08-.075-.17-.116-.26-.054-.124-.131-.243-.194-.358-.038-.071-.058-.144-.103-.21a7.599 7.599 0 01-.473-.89c-.077-.16-.19-.31-.265-.473-.087-.18-.17-.364-.249-.538a8.472 8.472 0 01-.129-.358c-.087-.186-.222-.346-.305-.54-.059-.131-.091-.253-.146-.364-.034-.067-.099-.123-.145-.093-.049.028-.055.087-.025.19.057.198.166.423.217.536.103.222.155.455.256.681.053.128.138.247.195.368.099.217.194.433.293.637.054.12.099.235.163.348.033.059.085.125.112.19.064.146.083.3.15.437.068.143.18.263.246.402.342.728.685 1.422 1.098 2.067.113.18.174.398.289.576.12.188.283.33.4.511.1.152.124.362.215.524.13.243.307.447.455.675.038.065.05.136.09.203.055.087.128.171.185.26.072.12.11.255.194.364.087.122.212.219.299.342.107.148.184.322.297.473.077.103.198.176.277.281.126.164.56.734.686.894.19.245.533.605.691.926.05.1.223.336.186.382-.09.06-.522-.41-.594-.479-.18-.172-.336-.41-.492-.609-.038-.044-.45-.446-.485-.491a4.18 4.18 0 01-.12-.164c-.114-.172-.185-.378-.307-.54-.052-.068-.13-.119-.18-.186-.094-.125-.16-.267-.254-.394-.144-.202-.334-.38-.481-.58-.158-.219-.273-.477-.437-.696-.081-.107-.184-.202-.261-.32-.034-.05-.047-.1-.08-.153-.06-.089-.138-.19-.183-.287-.042-.093-.073-.18-.125-.263-.17-.265-.34-.546-.508-.81-.079-.12-.121-.247-.196-.367-.127-.196-.289-.372-.414-.57-.15-.234-.23-.517-.385-.752-.097-.156-.212-.3-.309-.455-.11-.168-.162-.364-.26-.538-.086-.155-.2-.299-.276-.453-.083-.17-.137-.335-.218-.511-.045-.093-.113-.188-.154-.281-.054-.122-.064-.24-.121-.354-.146-.326-.366-.633-.52-.958a8.606 8.606 0 01-.295-.712c-.048-.134-.07-.261-.131-.384-.136-.3-.302-.613-.431-.906-.057-.16-.111-.316-.17-.473-.01-.045-.016-.087-.032-.136-.063-.14-.146-.277-.2-.412a27.03 27.03 0 00-.152-.483c-.208-.522-.396-1.113-.594-1.656-.025-.098-.03-.223-.07-.33a58.549 58.549 0 01-.305-.835c-.058-.142-.192-.095-.161.05.04.19.064.239.099.39.014.08.028.154.044.231.025.093.071.19.095.28.055.167.059.33.114.49.082.225.163.443.238.674.018.115.045.23.067.348.034.107.079.218.117.315.115.285.227.56.326.84.042.16.085.32.123.482.042.09.105.18.144.267.036.08.044.152.076.235.073.18.138.364.22.548.07.15.15.301.21.46.027.08.027.146.056.223.174.477.362.977.568 1.43.05.11.065.228.117.341.04.097.101.199.144.292l.062.184c.063.133.172.242.235.376.176.37.333.723.556 1.039.204.295.295.683.445 1.033.079.166.174.307.269.451.046.077.074.162.115.245.101.182.156.34.275.501.095.134.087.162.168.348.022.054.113.402.095.402-.03.02-.202-.083-.261-.147-.077-.087-.202-.205-.285-.393-.045-.095-.13-.258-.174-.35-.107-.23-.291-.426-.425-.638-.079-.124-.121-.26-.188-.393-.11-.244-.24-.49-.36-.744-.05-.105-.123-.206-.182-.299-.064-.097-.093-.2-.155-.3a6.067 6.067 0 01-.399-.683c-.08-.171-.123-.343-.2-.511-.026-.053-.069-.105-.103-.156-.054-.087-.077-.182-.125-.279-.06-.127-.152-.253-.213-.384-.123-.265-.194-.54-.315-.8-.06-.122-.158-.227-.214-.348-.09-.187-.097-.421-.186-.615-.229-.518-.494-1.05-.688-1.59-.03-.09-.042-.195-.07-.29-.085-.235-.197-.453-.282-.684-.038-.105-.05-.202-.089-.31-.056-.155-.131-.32-.188-.48-.014-.053-.022-.11-.042-.164-.07-.148-.111-.326-.18-.482-.038-.08-.095-.163-.127-.25-.055-.156-.039-.352-.095-.498-.08-.22-.172-.459-.251-.675-.049-.127-.057-.249-.101-.378-.05-.146-.107-.307-.162-.453-.053-.15-.05-.311-.101-.469-.036-.121-.087-.245-.127-.358-.075-.212-.108-.437-.186-.635l-.039-.109c-.02-.055-.057-.107-.111-.091-.063.016-.063.095-.059.148.012.157.071.299.113.426.053.134.077.277.114.405.02.083.018.172.038.258.026.126.075.245.107.368.03.122.014.241.043.336.079.265.168.564.257.817.036.131.042.283.082.396.049.134.1.27.146.405.044.113.053.22.1.327.05.111.106.229.149.356.05.164.044.326.1.481.094.251.21.49.294.73.028.09.038.184.069.273.075.208.127.433.204.643.11.3.249.593.358.888.105.29.121.64.242.914.063.135.193.216.251.347.043.083.03.18.059.28.034.11.087.224.13.327.023.095.048.186.074.277.038.111.115.222.164.33.08.173.121.355.218.511.079.117.174.227.239.358.066.144.09.3.157.45.1.223.217.436.3.666.079.21.107.433.206.619.101.182.224.346.323.526l.19.408c.051.11.15.204.213.32.077.137.151.282.214.42.05.11.069.208.13.301.086.144.153.26.248.4.08.128.172.29.229.44.044.113.09.232.155.327.071.097.162.184.22.291.06.105.142.447.112.463-.075.026-.285-.174-.342-.245-.165-.2-.246-.47-.398-.683-.162-.233-.263-.362-.39-.627-.071-.151-.198-.426-.285-.562-.087-.127-.196-.243-.263-.384-.053-.12-.079-.26-.132-.378-.078-.168-.238-.28-.32-.455-.092-.194-.133-.394-.232-.576-.048-.09-.11-.188-.153-.281-.057-.116-.083-.229-.138-.346-.111-.239-.279-.439-.386-.675-.117-.243-.18-.506-.3-.75-.06-.134-.169-.247-.232-.38-.083-.177-.125-.36-.208-.539-.053-.107-.127-.212-.178-.317-.07-.154-.097-.321-.17-.481-.16-.364-.327-.738-.489-1.098-.06-.14-.077-.283-.14-.425-.06-.123-.12-.244-.186-.368-.137-.317-.188-.69-.331-1.009-.073-.163-.162-.317-.229-.49-.1-.276-.137-.559-.24-.84-.154-.429-.277-.876-.43-1.3-.047-.128-.051-.253-.1-.386a27.663 27.663 0 00-.138-.372c-.032-.103-.052-.247-.078-.376-.116-.362-.23-.724-.344-1.09-.028-.087-.032-.243-.063-.354-.018-.063-.052-.136-.077-.194-.026-.083-.026-.154-.052-.24-.085-.266-.156-.575-.24-.84-.025-.083-.033-.202-.06-.295-.117-.378-.175-.841-.329-1.191-.024-.069-.069-.142-.135-.123-.067.016-.053.093-.047.155.02.172.085.32.113.463.012.065.012.154.016.23.009.066.017.144.037.213.07.225.154.49.218.71.022.107.002.273.033.396.097.358.167.785.297 1.106.12.293.141.645.226.963.025.137.033.277.053.414.022.134.095.225.135.336.033.083.029.153.06.24.068.229.122.453.203.684.057.16.144.31.2.463.023.07.016.133.035.21.04.16.066.317.11.473.114.314.221.653.332.963.063.174.083.341.142.51.249.674.5 1.344.744 2.011.04.15.083.3.121.447.055.15.144.277.207.412.08.174.105.356.174.54.074.216.177.382.26.607.039.105.077.224.126.33.036.076.103.15.141.23.067.131.077.299.14.432.067.134.178.245.257.366.068.118.076.265.135.397.093.204.212.392.301.608.037.091.053.172.093.26.047.098.122.193.168.298 0 0 .004 0 .008.01.004.015.012.035.014.057.013.04.027.093.04.132.021.056.086.161.112.2.016.02.065.073.101.121a.53.53 0 01.053.065c.087.14.097.335.17.491.072.148.2.269.273.425.058.117.086.41.016.422-.304 0-.326-.424-.427-.647-.083-.174-.204-.317-.295-.483a.782.782 0 01-.069-.168 1.189 1.189 0 00-.069-.17c-.038-.08-.038-.068-.064-.127-.029-.057-.114-.164-.138-.214a.015.015 0 01-.004-.01c-.117-.186-.194-.451-.277-.579-.046-.068-.107-.14-.154-.21-.074-.121-.115-.265-.175-.398-.057-.12-.148-.239-.205-.366-.066-.15-.07-.338-.143-.49-.035-.083-.101-.165-.142-.242-.085-.174-.135-.358-.22-.528-.039-.083-.113-.16-.154-.243-.067-.145-.103-.299-.178-.432a9.906 9.906 0 01-.46-.908c-.08-.178-.108-.358-.183-.53-.066-.152-.16-.3-.226-.443-.049-.095-.059-.192-.097-.299-.065-.168-.14-.342-.202-.51-.037-.117-.067-.37-.104-.47-.046-.128-.11-.265-.165-.39-.085-.185-.11-.379-.192-.565-.065-.146-.136-.295-.188-.443-.047-.125-.06-.242-.11-.358-.038-.089-.09-.188-.123-.279-.042-.109-.07-.289-.103-.434-.055-.16-.121-.312-.17-.47-.03-.119-.034-.39-.06-.462-.17-.49-.324-1.013-.48-1.503-.07-.226-.105-.453-.168-.671-.022-.091-.024-.202-.048-.291-.045-.142-.103-.287-.148-.433-.024-.099-.04-.2-.058-.297-.023-.101-.077-.206-.118-.307-.093-.296-.145-.61-.232-.898-.028-.12-.028-.275-.06-.384-.116-.356-.14-.77-.245-1.145-.025-.109-.039-.218-.065-.317-.184-.7-.267-1.484-.471-2.156-.039-.129.012-.293-.023-.432a8.79 8.79 0 00-.129-.433c-.02-.073-.022-.127-.034-.192-.037-.113-.087-.204-.15-.19-.075.022-.059.09-.057.186.009.158.025.287.055.412.026.108.008.196.038.292.065.216.085.523.124.721.012.081 0 .192.016.287.022.102.099.231.12.34.021.144.02.332.042.49.028.13.068.258.103.382.028.107.008.21.04.309.03.103.085.204.105.317.017.124-.002.304.025.415.157.615.204 1.342.384 1.93.022.086.026.177.046.262.15.517.265 1.067.42 1.579.021.079.02.161.04.25.05.18.092.375.133.554.018.087.016.164.04.245.053.188.117.37.18.556.022.093.033.182.049.271.016.07.052.152.075.22.032.108.022.21.054.31.024.056.07.121.085.182.024.111.038.22.069.327.044.13.113.257.166.385.04.107.04.216.08.321.073.178.152.392.223.586.056.158.065.32.121.48.039.107.09.216.126.321.024.08.038.162.066.249.027.075.111.196.166.299.047.111.024.263.059.384.038.124.107.223.15.336.038.115.036.238.068.356.032.09.095.178.131.263l.11.297c.028.062.083.131.115.192.052.113.097.24.143.358.067.165.073.372.126.566.014.056.01.188-.02.202-.08.014-.166-.11-.219-.184a2.421 2.421 0 01-.244-.425c-.025-.058-.037-.113-.057-.173-.05-.128-.089-.275-.148-.403-.034-.08-.087-.166-.115-.25-.04-.124-.022-.27-.07-.377-.041-.089-.114-.161-.154-.25-.029-.083-.045-.168-.08-.251-.044-.1-.102-.186-.159-.281-.04-.091-.034-.18-.067-.287a2.2 2.2 0 00-.129-.368c-.053-.117-.121-.235-.174-.356-.024-.067-.036-.136-.054-.202-.033-.091-.081-.188-.116-.277-.02-.069-.038-.14-.066-.204-.043-.1-.095-.21-.136-.32-.03-.087-.034-.182-.067-.269-.054-.156-.107-.33-.161-.481-.033-.117-.043-.237-.08-.356-.044-.137-.104-.275-.155-.414-.038-.112-.048-.23-.08-.346-.053-.148-.128-.285-.179-.441-.03-.125-.036-.25-.062-.368-.085-.29-.178-.609-.27-.906-.105-.33-.115-.703-.21-1.037-.068-.239-.153-.47-.226-.704-.026-.123-.03-.236-.06-.354-.065-.266-.163-.61-.251-.887-.045-.146-.03-.295-.073-.451-.043-.158-.045-.344-.095-.512-.033-.1-.071-.176-.095-.307-.029-.131-.027-.285-.045-.384-.018-.1-.188-.682-.208-.79-.02-.108-.02-.306-.032-.377-.013-.046-.1-.297-.11-.364-.012-.064-.012-.14-.036-.269-.028-.129-.103-.416-.115-.5-.014-.084-.014-.252-.03-.335a11.664 11.664 0 00-.112-.414c-.046-.168-.008-.344-.054-.502a4.536 4.536 0 00-.12-.341 2.312 2.312 0 01-.064-.283c-.006-.091-.013-.273-.019-.342-.002-.093-.042-.25-.05-.388a2.863 2.863 0 00-.083-.502c-.016-.069-.01-.15-.024-.212C.972.159.928-.011.835 0 .768.011.742.068.772.187c.032.144.047.257.085.397.016.074.022.262.022.325.006.101.01.123.022.222.009.037.025.13.037.17a1.1 1.1 0 01.032.207l-.002.226c0 .049.002.065.02.148.02.08.029.099.035.165.004.059-.002.116.002.166a.57.57 0 00.028.186c.034.124.113.291.083.471-.036.192.022.374.067.54.02.107 0 .225.02.328.038.141.075.29.111.44.03.122.01.231.043.348.042.16.153.378.17.451.012.073.01.27.03.394.022.124.052.267.06.346.01.081-.002.115.006.174s.087.34.1.413c.016.072.012.11.028.186.014.078.079.38.09.477.017.099.013.155.031.255.028.15.09.275.12.418.02.11.014.176.026.26.032.136.077.258.1.385.021.101.023.198.041.301.047.217.077.435.138.651.036.128.109.245.147.368.03.114.04.237.071.348.03.095.097.184.121.287.017.09.015.18.03.271.023.101.068.202.088.308.016.078.008.155.03.238.026.091.073.174.095.261.02.111.02.222.049.336.032.129.087.256.127.376.038.11.018.234.053.356.072.262.16.554.246.8.039.132.033.27.081.413.037.095.077.16.117.242.03.085.002.178.029.275.042.16.064.376.123.532.063.176.166.32.227.491.062.18.066.36.127.548.054.16.137.308.198.453.05.128.032.297.08.435.058.148.16.26.22.412.062.174.104.348.157.52.02.075.032.148.046.22.065.227.187.415.265.63.03.098.039.183.067.276.055.156.117.316.19.461.059.134.146.265.206.399.055.123.065.246.118.376.05.123.109.256.155.384.03.079.033.15.067.222.154.342.34.688.497 1.021.083.184.124.383.213.57.066.146.15.286.216.443.04.1.053.194.095.287.085.184.206.37.287.55.022.049.09.243.06.318-.003.01-.003.024-.017.03-.057.014-.17-.083-.235-.147-.22-.21-.255-.617-.406-.894-.043-.081-.097-.168-.134-.25-.022-.061-.034-.118-.062-.175-.095-.18-.215-.341-.298-.531-.062-.138-.07-.294-.129-.423-.249-.538-.538-1.053-.776-1.593-.11-.245-.134-.522-.229-.789-.059-.158-.154-.285-.22-.435-.05-.115-.063-.236-.118-.355-.068-.152-.167-.296-.226-.464-.034-.107-.05-.216-.091-.321-.05-.12-.13-.218-.182-.332-.075-.17-.087-.337-.141-.531-.033-.106-.075-.213-.108-.308-.026-.089-.038-.182-.068-.267-.073-.204-.195-.382-.271-.59-.05-.14-.039-.317-.101-.453-.049-.111-.138-.2-.182-.317-.051-.124-.004-.27-.045-.413-.036-.137-.093-.265-.137-.396-.025-.083-.033-.162-.055-.24-.065-.167-.123-.334-.182-.5-.032-.085-.032-.164-.067-.24-.046-.1-.117-.193-.155-.3-.043-.164-.055-.334-.093-.491-.065-.215-.144-.384-.207-.589-.012-.064-.012-.127-.032-.2-.05-.182-.075-.386-.125-.568-.02-.089-.016-.164-.039-.25-.05-.173-.107-.344-.16-.508-.028-.11-.032-.217-.06-.32-.083-.269-.16-.586-.239-.845-.02-.077-.016-.147-.038-.232-.065-.207-.15-.453-.196-.666-.023-.123-.025-.242-.05-.355-.033-.144-.084-.282-.112-.425-.01-.067 0-.115-.006-.172-.012-.093-.02-.184-.036-.277-.096-.374-.24-.831-.32-1.203-.026-.135-.03-.27-.044-.404-.017-.093-.023-.203-.049-.3-.03-.097-.073-.198-.089-.299-.02-.16-.02-.317-.044-.471 0-.01-.006-.022-.008-.034-.033-.192-.128-.58-.15-.736l-.07-.554c-.005-.12-.025-.245-.04-.37C.346 1.969.302 1.8.28 1.6c-.015-.131-.01-.25-.026-.361-.008-.071-.012-.192-.103-.192-.087 0-.075.103-.08.186-.013.198.026.459.042.582.026.228.008.453.03.685.016.132.057.261.071.385.032.22.055.444.083.655v.012c.008.099.02.196.038.289.002.01.002.02.006.028 0 .006 0 .01.002.014l.004.017H.35c.009.044.017.086.029.129.022.083.014.152.038.239.067.254.05.531.124.778.1.37.153.78.26 1.144.027.108 0 .215.03.33.029.117.06.228.088.346.028.137.008.28.046.422.032.13.07.261.105.384.04.152.045.308.085.472.049.163.103.343.134.511.032.19.052.404.089.607.03.165.12.366.161.548.012.06.006.12.017.182.022.131.062.258.088.384.015.058.01.111.029.174.058.238.135.54.21.778.018.065.026.134.043.202.048.17.099.295.119.386.016.08.024.174.046.261.037.13.075.243.1.356.02.09.034.168.058.257.028.107.07.206.115.311.073.215.081.443.158.653.046.124.105.245.146.376.034.122.042.27.078.407.075.206.154.443.229.65.089.25.143.519.226.753.037.095.029.186.061.287.069.233.15.498.226.734.04.126.04.247.091.366.08.198.195.364.27.568.06.176.074.35.143.51.087.216.184.437.27.665.057.158.078.313.142.461.055.127.128.259.188.388.039.113.077.223.114.336.032.087.123.232.186.348.07.155.08.321.141.489.091.255.219.514.324.752.042.093.048.18.087.28.064.169.174.296.244.454.07.15.087.307.152.451.1.212.17.321.17.625-.002.028-.008.048-.04.06-.055.023-.12-.074-.158-.109-.162-.155-.186-.31-.29-.53-.153-.333-.35-.649-.5-.972-.082-.17-.114-.356-.193-.532-.048-.105-.12-.212-.166-.317-.07-.154-.107-.314-.186-.451-.111-.2-.202-.443-.293-.667-.034-.085-.038-.168-.075-.251-.04-.09-.105-.166-.143-.253-.057-.135-.095-.307-.152-.45-.123-.27-.26-.555-.366-.84-.095-.26-.14-.511-.234-.778-.04-.11-.094-.227-.132-.338-.03-.099-.032-.186-.067-.279a9.879 9.879 0 00-.303-.722c-.048-.115-.063-.224-.107-.346-.05-.15-.117-.309-.17-.452-.07-.193-.073-.417-.146-.617-.153-.433-.355-.884-.489-1.339-.024-.105-.016-.212-.048-.317-.071-.227-.146-.48-.217-.724-.079-.269-.07-.552-.153-.815-.108-.341-.23-.697-.336-1.033-.03-.101-.016-.208-.049-.317a11.41 11.41 0 00-.248-.807c-.043-.121-.043-.253-.09-.366-.054-.14-.193-.09-.181.067.01.141.058.321.073.394.016.097.016.194.038.297.042.182.101.334.152.5.056.173.056.333.103.511l.089.267c.052.178.052.368.113.53.046.123.08.279.121.414.025.09.02.162.049.25.046.163.097.322.15.484.024.091.016.172.034.257.036.13.067.259.103.378.032.113.028.271.069.392.07.22.153.455.226.666.085.232.095.473.178.711.152.417.29.898.439 1.32.04.108.028.219.06.336.051.18.091.36.154.54.03.085.087.172.121.249.051.103.061.214.11.321.038.083.093.17.125.257.047.133.03.3.083.425.038.1.093.212.133.317.045.115.043.24.091.35.039.093.108.184.152.277.044.087.053.18.085.279.04.101.095.204.137.3.047.104.049.226.1.337.04.095.105.186.143.289.038.107.04.222.079.336.065.163.166.307.236.463.053.115.06.246.112.366.058.137.141.27.204.402.08.182.141.372.222.542.134.303.18.635.32.932.1.224.24.43.34.647.052.123.07.253.127.366.06.131.172.243.23.378.049.131.087.267.144.394.079.168.186.32.263.484.044.093.064.184.107.277.083.184.222.333.307.513.04.117.085.235.126.356.09.192.234.356.33.55.064.143.11.293.195.424.13.205.215.338.342.546.083.134.194.33.26.476.068.145.179.264.243.406.067.14.152.291.227.423.085.15.17.256.265.398.15.228.244.473.394.706.103.161.222.325.336.48.305.42.74 1.161.924 1.412.155.202.283.445.426.655.108.168.245.33.364.483.1.126.176.263.271.397l.077.1c3.884 4.94 7.877 8.208 11.258 10.353l-.002.002c1.783 1.112 2.744 1.435 2.744 1.435.224.095.073.26-.045.332L5.285 59.664c-.062.042-.216.156-.153.281.046.095.248.042.303.024 16.093-5.647 27.767-10.292 34.905-13.678 7.237-3.433 9.667-5.398 9.402-6.377M269.4 33.779v-1.146h1.391c1.715 0 3.486 0 4.547.347 2.805.833 4.222 2.973 4.222 6.335 0 2.75-1.749 6.836-6.581 6.836-1.395 0-2.853-.556-3.579-.887V33.779zM275.053 49c6.557 0 10.468-4.966 10.468-9.756 0-2.65-.98-7.372-7.61-9.044-1.476-.378-3.128-.4-5.288-.4l-11.667-.012.199.194s1.991.297 1.991 3.797v21.772c0 3.498-1.991 3.791-1.991 3.791l-.199.208h10.62l-.197-.208s-1.98-.293-1.98-3.791v-7.588c.925.412 2.795 1.037 5.654 1.037m154.87 1.308l-2.34 7.967s-5.068 1.724-9.413 1.724c-11.54 0-17.132-7.928-17.132-15.108 0-8.927 6.78-15.577 17.565-15.577 5.964 0 10.178 2.059 10.178 2.059v6.431l-.174-.143s-2.52-5.45-9.526-5.45c-6.757 0-11.05 4.999-11.05 12.64 0 7.647 4.428 11.838 10.81 11.838 7.048 0 10.818-6.216 10.818-6.216l.263-.166zM354.94 33.78v21.772c0 3.498 1.996 3.791 1.996 3.791l.2.209h-10.633l.204-.209s1.984-.293 1.984-3.79V33.778c0-3.5-1.984-3.797-1.984-3.797l-.204-.194h10.633l-.2.194s-1.996.297-1.996 3.797m24.841-3.991c3.506 0 4.012-.336 4.012-.336v5.314l-.203-.162s-1.46-2.01-4.968-2.01h-7.535v9.511h6.27c3.498 0 3.793-1.53 3.793-1.53l.208-.206v6.393l-.208-.206s-.295-1.537-3.793-1.537h-6.27v10.535c0 3.498 1.975 3.791 1.975 3.791l.21.208h-10.619l.19-.208s1.986-.293 1.986-3.79V33.79c0-3.502-1.985-3.795-1.985-3.795l-.19-.206h17.127zm-37.375 20.686l.253-.166-2.33 7.966S335.264 60 330.908 60c-11.527 0-17.12-7.928-17.12-15.108 0-8.927 6.768-15.57 17.562-15.57 5.971 0 10.168 2.051 10.168 2.051v6.432l-.167-.143s-2.526-5.45-9.516-5.45c-6.765 0-11.05 4.999-11.05 12.64 0 7.646 4.412 11.838 10.803 11.838 7.03 0 10.817-6.216 10.817-6.216m53.44-16.695V55.55c0 3.498 1.988 3.791 1.988 3.791l.2.209h-10.63l.2-.209s1.987-.293 1.987-3.79V33.777c0-3.5-1.988-3.797-1.988-3.797l-.2-.194h10.631l-.2.194s-1.988.297-1.988 3.797M291.964 48.17l4.586-9.649 4.19 9.65h-8.776zm19.018 7.326l-13.07-27.201-12.989 27.2c-1.947 3.721-4.088 3.8-4.088 3.8l-.2.206h8.88l-.194-.206s-2.491-.492-.916-3.8l2.343-4.801h11.127l2.265 4.802c1.575 3.307-.91 3.799-.91 3.799l-.2.206h12.245l-.204-.206s-2.255-.016-4.089-3.8m-124.32.015c0-3.502-.012-18.27-.012-21.772 0-3.502 1.988-3.757 1.988-3.757l.204-.194h-10.63l.193.194s1.99.255 1.99 3.757c0 3.502.016 8.546.016 8.546h-14.623v-8.546c0-3.502 1.994-3.745 1.994-3.745l.194-.202h-10.623l.208.202s1.981.243 1.981 3.745V55.51c0 3.508-1.981 3.809-1.981 3.809l-.208.198h10.623l-.194-.198s-1.994-.301-1.994-3.81V45.2h14.623v10.31c0 3.509-1.982 3.81-1.982 3.81l-.206.198h10.635l-.206-.198s-1.99-.301-1.99-3.81M130.87 29.792c-3.506 0-3.999-.336-3.999-.336l-.012 5.916.204-.15s1.6-2.563 5.093-2.563h4.99V55.51c0 3.508-1.975 3.81-1.975 3.81l-.206.197h10.627l-.198-.198s-1.99-.301-1.99-3.81l.026-22.851h4.871c3.506 0 5.188 2.564 5.188 2.564l.207.15.012-5.917s-.496.336-4.002.336H130.87zm70.345 18.379l4.594-9.649 4.182 9.649h-8.776zm19.03 7.325l-13.078-27.2-12.993 27.2c-1.943 3.72-4.086 3.8-4.086 3.8l-.202.206h8.886l-.19-.207s-2.489-.491-.92-3.799l2.334-4.802h11.14l2.261 4.802c1.581 3.308-.906 3.8-.906 3.8l-.202.206h12.243l-.204-.207s-2.257-.016-4.082-3.799m20.982-25.705l.206.202s2.626.738.645 3.82c-.97 1.498-3.897 5.685-6.561 9.733-2.677-4.048-5.56-8.261-6.523-9.758-1.98-3.085.657-3.795.657-3.795l.192-.202h-12.241l.198.202s1.771.293 4.097 3.795c.974 1.478 5.946 8.426 8.621 12.48v9.242c0 3.508-1.988 3.809-1.988 3.809l-.198.198h10.627l-.204-.198s-1.98-.301-1.98-3.81c0-1.481-.02-5.196-.02-9.242 2.68-4.054 7.661-10.973 8.642-12.455 2.301-3.498 4.948-3.819 4.948-3.819l.206-.202h-9.325zM84.977 56.688c-6.394 0-10.805-4.191-10.805-11.838 0-7.64 4.288-12.639 11.038-12.639 7.006 0 9.525 5.45 9.525 5.45l.166.143v-6.432s-4.194-2.052-10.17-2.052c-10.79 0-17.56 6.644-17.56 15.57C67.17 52.07 72.763 60 84.295 60c4.349 0 9.422-1.725 9.422-1.725l2.331-7.966-.257.165s-3.78 6.216-10.813 6.216m22.603-8.519l4.59-9.648 4.184 9.648h-8.774zm19.028 7.326l-13.078-27.201-12.99 27.201c-1.944 3.72-4.093 3.8-4.093 3.8l-.194.205h8.896l-.214-.206s-2.483-.491-.902-3.799l2.327-4.802h11.137l2.263 4.802c1.57 3.308-.912 3.8-.912 3.8l-.194.205h12.247l-.21-.206s-2.259-.016-4.083-3.799" fill="#006b6e"/></svg>