<svg viewBox="0 0 200 40.36" xmlns="http://www.w3.org/2000/svg"><g fill="#e60012"><path d="M20.252 6.121C20.97 4.135 21.469 2.076 21.838 0c.389 2.147.902 4.281 1.667 6.328.684 1.838 1.701 3.521 2.6 5.254.823 1.58 1.48 3.344 1.262 5.154a5.083 5.083 0 01-2.59 3.994c-.935.569-2.07.745-2.938 1.428-.415-.354-.931-.549-1.432-.746-.965-.369-1.935-.811-2.662-1.563-1.114-1.091-1.568-2.708-1.459-4.237.102-1.804.959-3.439 1.8-4.999.792-1.462 1.602-2.924 2.166-4.492m.96 11.172c-.765.305-1.187 1.24-.901 2.016.253.793 1.178 1.277 1.974 1.027.867-.222 1.4-1.24 1.084-2.08-.274-.86-1.332-1.338-2.157-.963z"/><path d="M0 14.342c1.918-1.131 4.211-1.707 6.429-1.334 1.38.203 2.737.822 3.645 1.906.639.745 1.066 1.646 1.371 2.574.289.868.421 1.783.775 2.631a7.063 7.063 0 002.411 3.146c1.267.941 2.781 1.438 4.231 2.018 1.153.494 2.317 1.188 2.963 2.303.44-.76 1.142-1.326 1.89-1.766 1.001-.594 2.131-.904 3.189-1.375 1.355-.574 2.659-1.383 3.555-2.578.745-.967 1.192-2.13 1.457-3.312.368-1.545.986-3.121 2.213-4.188 1.327-1.163 3.168-1.524 4.888-1.46 1.638.07 3.229.613 4.639 1.438-.74.08-1.474.345-2.039.841-.747.61-1.145 1.534-1.39 2.444-.351 1.369-.719 2.748-1.353 4.018-.721 1.443-1.888 2.678-3.346 3.387-2.157 1.068-4.627 1.254-6.998 1.152-1.713-.094-3.5.104-5.027.938a5.736 5.736 0 00-1.673 1.354c-1.155-1.375-2.932-2.07-4.685-2.246-1.174-.146-2.354.012-3.531-.023-2.071-.047-4.206-.391-6.01-1.463-1.119-.66-2.021-1.652-2.653-2.781-.594-1.079-.965-2.263-1.288-3.445-.25-.98-.484-2.008-1.123-2.82-.606-.793-1.559-1.265-2.54-1.359z"/><path d="M14.536 14.117c.424-.529.959-.953 1.495-1.363-1.042 1.162-1.862 2.66-1.755 4.266.056 1.333.741 2.584 1.75 3.439 1.183 1.041 2.688 1.594 4.158 2.092.583.209 1.193.42 1.646.863.653-.621 1.567-.807 2.384-1.123 1.659-.576 3.35-1.409 4.369-2.898a4.704 4.704 0 00.613-3.958c-.292-1.004-.863-1.91-1.583-2.663 1.334.879 2.381 2.232 2.771 3.795.352 1.387-.004 2.916-.887 4.035-1.248 1.598-3.163 2.449-5.015 3.139-.964.391-2.074.727-2.655 1.658-.513-.832-1.473-1.188-2.334-1.533-1.588-.598-3.209-1.236-4.495-2.375-.963-.83-1.688-1.984-1.824-3.264-.195-1.491.425-2.977 1.362-4.11zm-.706 13.33c2.811-.998 6.268-.021 8.005 2.441 1.929-2.75 6.021-3.65 8.941-2.01 1.333.748 2.332 1.982 3.012 3.332.757 1.471 1.104 3.104 1.741 4.621.388.914.874 1.852 1.708 2.434.872.584 1.925.783 2.941.947-2.236 1.035-4.786 1.357-7.22 1.008-1.954-.277-3.831-1.135-5.274-2.488-1.191-1.104-2.035-2.529-2.627-4.029-.341-.822-.533-1.723-1.082-2.445a2.488 2.488 0 00-1.634-.992l.052-.178a6.906 6.906 0 014.771-1.188c.466.072.971.232 1.251.641.238.334.158.867-.211 1.074-.398.254-1.05.02-1.087-.482-.035-.266.17-.459.347-.621-.276.129-.591.238-.757.516-.378.545-.205 1.336.295 1.742.808.682 2.131.533 2.824-.244.561-.596.624-1.574.183-2.256-.404-.633-1.105-1.02-1.824-1.186-1.055-.236-2.166-.102-3.183.238-1.061.365-2.067.977-2.749 1.883-.15.064-.32.002-.477.016a2.583 2.583 0 00-2.094 1.045c-.549.725-.738 1.631-1.083 2.455-.591 1.496-1.437 2.92-2.626 4.02-1.493 1.402-3.453 2.264-5.48 2.514-2.369.295-4.841-.025-7.009-1.043 1.149-.178 2.38-.414 3.277-1.209.939-.891 1.387-2.145 1.812-3.334.499-1.482.942-3.014 1.808-4.336.81-1.29 2.001-2.374 3.449-2.886m1.124.801c-.562.225-1.084.605-1.373 1.146-.371.689-.257 1.619.301 2.176.624.652 1.688.824 2.485.402.622-.311.989-1.107.692-1.764-.139-.371-.506-.557-.849-.695.198.18.412.418.322.709-.115.479-.77.641-1.138.35-.361-.262-.363-.834-.062-1.143.433-.463 1.105-.553 1.705-.574 1.496-.045 3.058.346 4.246 1.279.031-.025.062-.053.095-.078-.285-.193-.492-.471-.762-.68-.855-.684-1.896-1.123-2.968-1.316-.894-.154-1.842-.146-2.694.188z"/></g><path d="M67.8 3.696c1.951-.267 4.136.366 5.355 1.982.76 1.048 1.043 2.411.885 3.686-.175 1.312-1 2.478-2.094 3.199-1.549 1.031-3.569 1.344-5.352.796a5 5 0 01-2.715-2.033c-.798-1.128-1.092-2.623-.656-3.949.628-1.989 2.54-3.414 4.577-3.681m.295 1.308c-.379.134-.776.237-1.104.48-.785.555-1.242 1.471-1.428 2.396-.201 1.037-.094 2.179.485 3.084.587.93 1.739 1.389 2.81 1.35.932-.045 1.736-.686 2.167-1.486a4.89 4.89 0 00.299-3.943c-.297-.825-.947-1.551-1.801-1.807-.46-.129-.964-.213-1.428-.074zm21.602-1.213c1.674-.379 3.479-.213 5.03.532-.112.439-.457.759-.614 1.179-1.286-.573-2.797-.711-4.129-.215-.872.318-1.646.963-2.016 1.826-.61 1.447-.242 3.314 1.023 4.296 1.073.858 2.557.962 3.854.659.184-1.005.028-2.027.073-3.041h2.149v3.963c-1.962.9-4.28.896-6.283.128-1.354-.521-2.628-1.462-3.222-2.821-.597-1.342-.332-2.938.42-4.162.833-1.269 2.268-2.016 3.715-2.344zm19.643-.095c1.481-.187 3.073.031 4.323.896 1.016.683 1.705 1.804 1.896 3.01.205 1.312.043 2.761-.796 3.837-1.688 2.208-5.059 2.912-7.485 1.554-1.178-.662-2.107-1.798-2.416-3.123-.407-1.714.177-3.596 1.402-4.842.798-.839 1.931-1.278 3.076-1.332m.281 1.366c-.77.132-1.417.657-1.827 1.302a4.722 4.722 0 00-.64 3.329c.146.831.591 1.642 1.319 2.095.713.438 1.595.706 2.427.485.74-.19 1.327-.757 1.696-1.409.552-.98.735-2.154.556-3.263-.138-.81-.517-1.617-1.197-2.104-.666-.489-1.542-.577-2.334-.435zm19.369-.169c2.104-1.504 5.044-1.75 7.353-.57-.104.439-.452.756-.6 1.176-1.791-.896-4.21-.672-5.605.838-1.355 1.459-.995 4.028.601 5.168 1.058.783 2.475.853 3.72.563.187-1.005.039-2.026.087-3.04h2.146l.001 4.055c-1.729.482-3.567.664-5.34.32-.981-.195-1.945-.566-2.732-1.195-1.202-.949-1.854-2.543-1.688-4.062.146-1.328.985-2.495 2.057-3.253zm66.36-1.096c1.426-.381 3.01-.213 4.297.518-.215.436-.479.866-.916 1.109-.555-.407-1.267-.56-1.941-.506-.355.03-.743.154-.942.471-.229.363-.146.852.121 1.173.437.549 1.08.862 1.632 1.276.632.474 1.304.914 1.822 1.515.448.579.704 1.358.522 2.085-.167.645-.671 1.141-1.229 1.47-.823.482-1.785.689-2.731.712-1.087.021-2.218-.229-3.088-.908.242-.402.575-.746.77-1.181a4.385 4.385 0 002.524.737c.483-.016 1.03-.155 1.31-.586.338-.553.16-1.288-.274-1.734-.995-1.051-2.48-1.508-3.39-2.656-.534-.653-.604-1.64-.159-2.357.364-.599 1.015-.951 1.672-1.138zM53.073 3.763l2.154-.001c.002 1.23-.001 2.462.001 3.693 1.5-.002 3 .004 4.5-.004.198-1.222.027-2.46.083-3.689.715 0 1.429-.002 2.143.001 0 3.229.001 6.458-.001 9.687l-2.14.001c-.003-1.541 0-3.079-.003-4.62-1.489-.197-2.992-.025-4.488-.096-.219 1.564-.024 3.145-.094 4.716l-2.154-.001c-.002-3.229-.001-6.459-.001-9.687zm22.083-.009a2.14 2.14 0 012.091.642c1.767 1.976 3.337 4.126 5.199 6.019 0-2.219.001-4.436-.001-6.654.594.002 1.188.002 1.782.002.001 3.207.002 6.412 0 9.619-.431.129-.909.192-1.33-.004-.694-.312-1.113-.983-1.605-1.531-1.465-1.668-2.818-3.436-4.362-5.033-.005 2.193.006 4.385-.006 6.578-.583.125-1.18.041-1.768.053 0-3.232-.002-6.462 0-9.691z"/><path d="M96.569 3.762c.747-.004 1.494.008 2.242-.008.002 1.356.001 2.715 0 4.071 1.402-1.264 2.607-2.725 3.935-4.065.746.003 1.493.002 2.239.002-1.299 1.486-2.7 2.878-4.119 4.25 1.494 1.869 3.195 3.559 4.778 5.35-.894.003-1.826.355-2.693.021-.85-.489-1.267-1.43-1.857-2.168-.724-.883-1.526-1.697-2.278-2.557-.004 1.521 0 3.042-.002 4.562l.145.103-.275.06.11.062c-.74.01-1.479.002-2.22.004-.003-3.228.001-6.459-.005-9.687zm20.201-.01c.737-.174 1.536.045 2.054.607 1.812 1.958 3.364 4.148 5.242 6.053.002-2.218-.002-4.435.002-6.65.595.001 1.188-.002 1.784.001-.003 3.206-.002 6.411 0 9.616-.479.148-1.021.194-1.47-.071-.691-.397-1.111-1.104-1.646-1.675-1.399-1.603-2.712-3.282-4.184-4.822-.004 2.193.005 4.385-.004 6.578-.588.126-1.188.041-1.782.056.003-3.232.001-6.462.004-9.693zm29.08.011c.562-.003 1.125-.001 1.688 0 1.248 3.243 2.64 6.429 4.024 9.614-.771.182-1.563.031-2.345.069a42.7 42.7 0 01-1.014-2.678c-1.281-.002-2.562 0-3.84-.001-.484.857-.794 1.797-1.224 2.682-.593.001-1.185-.001-1.774.001 1.483-3.235 2.89-6.506 4.485-9.687m.473 2.229c-.521 1.187-1.077 2.358-1.492 3.588.964-.002 1.928-.002 2.892-.002-.442-1.205-.871-2.416-1.4-3.586zm5.717-2.232c.717.003 1.436.002 2.152.002.002 3.229 0 6.459 0 9.688-.718 0-1.438.001-2.155-.001.002-3.23-.002-6.459.003-9.689zm3.91.005c1.539-.017 3.088-.113 4.619.086.852.127 1.783.368 2.342 1.075.624.842.568 2.076 0 2.931-.363.547-.933.918-1.526 1.177.806 1.504 1.977 2.782 2.705 4.329h-2.432c-1.009-1.18-1.589-2.647-2.513-3.886-.319-.001-.638-.001-.952.001-.19 1.288-.024 2.589-.079 3.883-.723.005-1.445.004-2.167.001.007-3.2.001-6.399.003-9.597m2.161 1.282l.001 3.244c.772.186 1.688.166 2.302-.404.724-.627.803-1.894.055-2.532-.644-.566-1.58-.511-2.358-.308zm6.459-1.285h2.146c.002 2.771-.001 5.539.001 8.31 1.426.203 2.866.03 4.299.088l-.001 1.291h-6.443c-.003-3.23-.003-6.46-.002-9.689zm7.01.001c.718-.001 1.437-.003 2.155 0-.002 3.229-.004 6.458 0 9.687-.683.006-1.363-.02-2.043.032-.22-.048-.095-.336-.116-.49.011-3.076.003-6.154.004-9.229zm3.92-.007c.459-.1.965-.133 1.392.104.646.351.97 1.046 1.438 1.581 1.459 1.686 2.979 3.314 4.471 4.973.002-2.218-.001-4.436.001-6.652h1.688c0 3.232.003 6.467-.002 9.701-.545.103-1.144.062-1.599-.283-.617-.457-1.022-1.125-1.539-1.684-1.351-1.564-2.664-3.162-4.062-4.685-.229 2.207-.027 4.427-.098 6.639-.563 0-1.128-.001-1.69.001.001-3.232.003-6.463 0-9.695zm10.77.006c1.965.001 3.93-.002 5.895.002-.004.429-.003.859-.002 1.287-1.247.002-2.493 0-3.737.002-.002.863-.003 1.727 0 2.591 1.208.208 2.438.028 3.654.077 0 .437 0 .875-.002 1.312-1.217-.01-2.437-.002-3.652-.004-.003 1.015 0 2.029-.002 3.043 1.302.204 2.621.03 3.933.087 0 .432.002.862-.002 1.292-2.028-.002-4.056.001-6.082-.001-.004-3.229-.004-6.46-.003-9.688zM90.652 22.586a50.002 50.002 0 006.022-.785c.239-.061.435.141.54.33.214.391.312.828.471 1.242-1.752.406-3.559.465-5.329.74-.204.281-.051.68-.073 1.008 2.233.211 4.479.035 6.718.094v1.473c-1.53.002-3.061-.002-4.59.002 1.219 1.334 3.057 1.857 4.787 2.117-.202.582-.572 1.086-.765 1.67a18.506 18.506 0 01-1.397-.455v6.629c-.622.002-1.243.002-1.865 0-.011-.23.026-.471-.058-.691-.134-.078-.302-.033-.447-.047-2.216.012-4.431-.006-6.646.008-.369-.002-.212.492-.242.73-.621.002-1.242 0-1.862.002.208-2.184.037-4.377.083-6.562-.478.086-.913.312-1.39.398-.269-.506-.527-1.021-.859-1.488 1.678-.561 3.442-1.102 4.783-2.311-1.529-.006-3.059 0-4.587-.002v-1.473c2.136 0 4.272-.002 6.411 0 .091-.365.037-.742.026-1.113-1.674.143-3.354.086-5.034.092-.104-.529-.302-1.035-.383-1.57 1.89.149 3.795.097 5.686-.038m1.62 6.769c1.06-.043 2.125.107 3.179-.068-1.208-.508-2.251-1.338-3.1-2.328-.191.785-.043 1.598-.079 2.396m-2.25-1.945c-.11.123-.223.244-.334.361-.652.588-1.4 1.051-2.092 1.588h2.793c-.038-.701.097-1.412-.029-2.107-.042-.299-.24.08-.338.158m-2.245 3.528v.918h7.388v-1.021c-2.463-.038-4.924.163-7.388.103m.012 3.505h7.376v-1.105c-2.438-.006-4.878.012-7.317-.008-.135.358-.057.742-.059 1.113zm25.141-12.459c.596-.004 1.189-.002 1.784-.002v1.572c.833.18 1.687.043 2.528.086.001-.553 0-1.105.002-1.658h1.775c0 .525-.002 1.051 0 1.576.862.17 1.743.043 2.614.08.004.463.003.928.003 1.391-.854.004-1.708-.002-2.562.004-.109.455-.05.922-.049 1.381.964.002 1.928 0 2.893.002v1.48c-.938.002-1.878-.004-2.815.004.623 1.205 1.918 1.791 3.101 2.305-.23.58-.631 1.07-.86 1.65-.831-.439-1.559-1.033-2.322-1.572-.002 1.018 0 2.037 0 3.053-1.696.002-3.394 0-5.091.002-.135.424-.075.873.096 1.275 1.766-.045 3.538.115 5.298-.082.474-.596.382-1.4.44-2.113.66.18 1.332.342 1.956.633-.183.814-.174 1.707-.641 2.43-.352.537-1.021.715-1.624.748-1.773.137-3.558.195-5.332.057-.607-.07-1.305-.096-1.755-.57-.479-.484-.478-1.221-.43-1.854.073-.914.259-1.84.062-2.75-.425.221-.811.508-1.217.76-.504-.389-.803-.961-1.12-1.496 1.245-.492 2.457-1.225 3.186-2.383-.739.104-1.482-.172-2.217-.02-.682.193-.797 1.016-1.327 1.402-.865-.492-1.538-1.268-2.451-1.684.327-.475.719-.898 1.036-1.377.949.391 1.739 1.059 2.607 1.59.003-.496.002-.992.003-1.488.788.004 1.578-.008 2.366.008.155-.42.048-.869.06-1.303-.691-.002-1.384-.004-2.075 0-.036-.178-.075-.354-.109-.531-.308.23-.476.59-.769.834-.894-.537-1.56-1.408-2.553-1.791.352-.527.722-1.086 1.306-1.381.687.551 1.401 1.121 2.274 1.334.613.158 1.254.139 1.878.057.139-.545.032-1.106.051-1.659m1.779 3.135c.006.432.005.863.005 1.295.843.002 1.687 0 2.528 0v-1.295h-2.533m.17 3.051c-.348.229-.523.617-.646 1 1.163.006 2.329.008 3.495-.002-.171-.479-.525-.848-.787-1.271-.688-.098-1.461-.137-2.062.273m-1.007 2.402c-.001.428-.001.854.001 1.283h3.263v-1.283h-3.264zm45.918-8.418c.767-.184 1.555-.041 2.333-.08.207.393.463.764.589 1.193 1.99.006 3.979 0 5.969.002l.001 3.514c-.687.002-1.373.002-2.059 0v-1.854c-3.458-.209-6.922-.025-10.383-.088-.002.648 0 1.295-.001 1.943h-1.954c0-1.174 0-2.348.002-3.52 2.007.004 4.015.014 6.022-.006-.032-.422-.298-.76-.519-1.104zm-26.08.014c.596 0 1.191-.004 1.788.004-.009.449-.126.885-.294 1.299.71.121 1.44.135 2.149.002-.059 3.648.357 7.297.143 10.943-.038.623-.12 1.383-.718 1.732-.733.398-1.607.264-2.404.229-.056-.533-.29-1.029-.313-1.568.505.07 1.016.113 1.527.094.417-1.666.06-3.393.179-5.086-.812.012-1.628.006-2.441.006-.299 2.26-.24 4.66-1.301 6.74-.521-.309-1.051-.613-1.503-1.021a13.016 13.016 0 001.013-5.688c-.336-.047-.674-.033-1.009-.018-.004-.467-.003-.932-.002-1.396a86.87 86.87 0 011.021 0v-4.902c.556-.018 1.122.088 1.67-.039.135-.016.174-.15.221-.26.128-.346.188-.712.274-1.071m-.477 2.762v3.508c.847 0 1.69.002 2.536-.002.003-1.168.001-2.338.001-3.506h-2.537zm6.457-2.76c.651-.004 1.305-.002 1.956-.002.23.58.54 1.133.672 1.75.998.002 1.994-.002 2.992.002-.004.523-.003 1.047-.002 1.57-2.559.002-5.115.002-7.674 0v-1.572h2.625c-.117-.606-.37-1.17-.569-1.748z"/><path d="M159.15 25.295c.656.088 1.262.371 1.854.654-.638 1.242-1.701 2.234-2.944 2.855-1.009.518-2.109.818-3.221 1.02a15.198 15.198 0 00-.845-1.48c1.506-.371 3.109-.76 4.287-1.836.37-.34.65-.764.869-1.213zm-25.74.293c.479-.023.936-.203 1.417-.201.268.77.566 1.527.764 2.318-.498.141-1.001.275-1.521.293-.138-.824-.404-1.617-.66-2.41zm28.91-.111c.647-.162 1.316-.061 1.977-.072.037.668-.133 1.379.1 2.018 1.464.422 3.005.074 4.5.188.12.514.057 1.043.063 1.566-1.493-.033-2.991.146-4.479-.021-.769-.094-1.62-.359-2.027-1.072-.443-.801-.302-1.756-.134-2.607zm-23.47 1.207c1.582-.197 3.178-.029 4.765-.092.005 2.221-.002 4.439-.004 6.66-.011.57-.171 1.295.385 1.674.394-.574.405-1.299.396-1.971-.013-.617-.072-1.229-.108-1.846.541.092 1.028.365 1.566.473-.143.996.087 1.99.093 2.986.001.562-.137 1.207-.645 1.533-.783.521-1.854.645-2.718.25-.64-.297-.886-1.033-.952-1.688-.193-1.99.399-3.967.212-5.957-.056-.178.003-.492-.233-.535-.325-.049-.655 0-.981-.002.048 1.896.014 3.818-.436 5.672-.229.936-.591 1.848-1.151 2.637-.531-.324-1.017-.717-1.494-1.113.907-1.359 1.148-3.027 1.269-4.623.088-1.349.065-2.707.036-4.058zm16.67 3.783c3.98-.199 7.965-.031 11.946-.096-.002.527-.001 1.055-.001 1.58-1.624.002-3.247.002-4.871 0-.197.85-.037 1.723-.077 2.582 2.209.195 4.428.023 6.641.084v1.576h-15.347v-1.576c2.156-.002 4.312.002 6.471-.002.174-.848.036-1.715.08-2.57-1.593-.004-3.185.002-4.775-.004-.017-.525.084-1.059-.067-1.574zm-22.11.453c.381-.141.784-.207 1.169-.342.705.695.748 1.738.993 2.639-.506.078-.984.283-1.499.312-.147-.888-.445-1.738-.663-2.609zm-24.49-.092c.561.293 1.026.732 1.583 1.033-.521 1.641-1.043 3.387-2.321 4.611-.341-.549-.945-.875-1.229-1.467.984-1.21 1.541-2.694 1.967-4.177z"/></svg>