<svg width="609" height="163.79" viewBox="-1.092 -1.092 85.634 23.07" xmlns="http://www.w3.org/2000/svg"><path d="M75.995 6.138l-.427.074-.465 1.896.427-.111.112-.428.688-.111.223.372.465-.038zm2.269 0l-.447 1.692.39.055.15-.558c.068-.273.098-.366.148-.594l.037-.205v.205c.004.058.013.133.019.241.005.084.01.144.019.186l.093.837.316.093.502-.688c.03-.045.054-.104.093-.167.094-.141.14-.195.241-.372l-.037.111a10.1 10.1 0 01-.074.223l-.075.26c-.03.108-.042.184-.055.242l-.15.52.373.131.446-1.692-.558-.186-.446.651c-.04.061-.096.125-.149.204-.074.117-.083.17-.149.298a3.838 3.838 0 00-.018-.576l-.093-.8-.576-.111zm-2.436.409c.055.122.09.195.186.353l.186.297-.52.075.074-.335a2.82 2.82 0 00.074-.39zm4.946.241a.294.294 0 00-.26.186.28.28 0 00.148.372.28.28 0 00.372-.149.28.28 0 00-.149-.371c-.036-.016-.074-.037-.111-.038zm-7.289.056l-1.227.725.874 1.506 1.246-.744-.15-.278-.892.539-.223-.372.8-.483-.149-.242-.8.465-.185-.316.874-.521zm7.233 0a.207.207 0 01.167.019c.115.061.177.218.112.334a.249.249 0 01-.335.093.25.25 0 01-.093-.334.237.237 0 01.149-.112zm.037.037l-.149.28.037.018.075-.112.037.019.019.167.055.019-.018-.168c.05.025.1.036.13-.018.032-.059-.006-.104-.056-.13l-.13-.075zm.019.075l.074.037c.028.015.07.046.056.074-.024.043-.079 0-.112-.018l-.056-.038.038-.055zm-9.706 1.617l-1.004 1.209.242.204.372-.446 1.097.892.26-.316-1.097-.892.372-.446zm10.412.855a6.722 6.722 0 011.952 4.277 6.741 6.741 0 01-6.247 7.195 6.707 6.707 0 01-4.648-1.431 6.73 6.73 0 005.057 1.785A6.726 6.726 0 0081.5 9.428h-.019zm-3.03 1.358c-.587-.004-1.286.312-1.971.91-.21.186-.62.599-1.023.986l-.465.428a6.152 6.152 0 00-1.115-.093c-.846 0-1.618.233-1.971.595-.133.14-.209.29-.205.446.009.41.49.615.632.67.753.278 1.383.186 2.046-.28.365-.255.79-.653 1.134-.985.268.062.584.146.91.242l.298.074c-.39.384-.8.79-1.171 1.116l-.019.037c-.515.455-.893.77-1.431.892-.38.083-.656.016-.744-.037.308.252.595.415 1.097.372.484-.042 1.046-.357 1.618-.892l.762-.744.558-.54c0 .002 1.078.317 1.078.317-.028.018-.65.67-.65.67l-.577.576c-.594.577-.916.869-1.264 1.115-.573.408-1.073.621-1.506.65-.223.016-.548.008-.818-.148.29.25.635.555 1.245.54.7-.023 1.32-.36 2.287-1.246.442-.405.878-.864 1.265-1.265l.725-.725c.473.106.89.159 1.357.149.68-.015 1.257-.352 1.264-.725.007-.276-.218-.416-.353-.502a1.56 1.56 0 00-.837-.242c-.51 0-1.04.224-1.58.67l-.353.315a2.714 2.714 0 00-.15-.037l-.985-.279c.295-.274.538-.504.763-.706.548-.487 1.151-.685 1.506-.707.257-.018.707 0 .892.13.008 0 .019-.018.019-.018-.492-.42-.914-.484-1.265-.484-.345 0-.9.106-1.58.633-.276.215-.645.586-1.023.966 0-.002-.502-.167-.502-.167l-.111-.037-.54-.149c.013 0 .317-.297.317-.297.358-.352.684-.685.948-.911.96-.806 1.57-.908 1.99-.911.459-.001.817.09 1.078.279-.532-.48-.918-.645-1.58-.651zm-9.037.148l-.093.28.465.632c.062.085.071.098.13.167-.066.015-.092.007-.13.018l-.093.038-.743.204-.093.279 1.19-.353.669.223.093-.223-.67-.242-.725-1.023zm4.611 2.38c.199-.01.405-.019.744.019a2.22 2.22 0 00-.186.167l-.111.112c-.42.381-1.12 1.01-1.748.967-.31-.023-.465-.15-.465-.39 0-.032.025-.788 1.766-.875zm6.917.13c.153.005.335.053.335.242 0 .196-.177.372-.54.502-.317.114-.807.134-1.338.075.146-.133.267-.23.372-.298.5-.34.912-.53 1.17-.52zm-10.56.354l-1.005.855-.725-.8.019.335.762.837.056.056.055.055h-.185l-.67.019v.26l1.73-.037v-.26l-.614.018-.28-.316.875-.706-.019-.316zm-.02 2.677a.555.555 0 00-.241.037.406.406 0 00-.242.298c-.036.13-.017.258.037.558l.019.111c.055.305.044.431-.093.484-.17.07-.327-.047-.428-.298-.11-.278-.066-.457.15-.576l-.094-.223c-.32.143-.408.455-.242.873.155.386.421.543.707.428a.372.372 0 00.242-.26c.021-.099.021-.18-.019-.41l-.018-.11-.019-.131c-.054-.311-.037-.463.112-.52.183-.077.373.06.483.334.136.337.066.563-.186.67l.093.223c.363-.15.464-.487.279-.949-.128-.32-.322-.516-.54-.539zM25.497 6.305c-.773 0-1.408.135-1.896.428-.095.057-.175.134-.26.204a2.24 2.24 0 00-.242.223 2.779 2.779 0 00-.595 1.097c-.128.435-.186.941-.186 1.525a4.759 4.759 0 00.186 1.376c.02.063.049.12.074.186.087.221.185.432.316.613a2.658 2.658 0 001.078.855c.042.018.07.022.112.038.044.015.089.025.13.037v.018c.127.038.28.053.446.075.034.004.062.015.093.018.205.022.434.037.688.037h2.455v-.985h-2.38c-.277 0-.498-.026-.688-.093a.953.953 0 01-.428-.297 1.341 1.341 0 01-.242-.54 3.844 3.844 0 01-.093-.873c0-.573.064-1.822.186-2.157.022-.061.047-.13.075-.186.027-.055.063-.106.093-.149a.99.99 0 01.427-.353 1.65 1.65 0 01.67-.13h2.38v-.967h-2.399zm2.975 0v.967h3.886l-3.886 4.722v1.042h5.727v-.986H30.48l3.719-4.704V6.305zm9.39 0c-.773 0-1.39.135-1.878.428a2.62 2.62 0 00-.28.204 2.24 2.24 0 00-.241.223c-.26.288-.447.655-.576 1.097a5.378 5.378 0 00-.205 1.525 4.799 4.799 0 00.186 1.376c.02.063.05.12.074.186a2.806 2.806 0 00.781 1.097c.193.155.402.28.614.371.042.018.089.022.13.038.044.015.089.025.13.037v.018c.126.038.263.053.428.075.033.004.08.015.111.018.205.022.434.037.688.037h2.436v-.985h-2.361c-.276 0-.516-.026-.707-.093a.96.96 0 01-.428-.297 1.347 1.347 0 01-.241-.54 3.95 3.95 0 01-.075-.873v-.093h3.812v-.986h-3.775c.03-.462.084-.899.15-1.078.022-.061.046-.13.074-.186.027-.055.044-.106.074-.149a1.03 1.03 0 01.446-.353c.186-.081.408-.13.67-.13h2.36v-.967h-2.398zm6.098 0c-.772 0-1.41.135-1.897.428a2.582 2.582 0 00-.279.204c-.086.071-.15.144-.223.223-.26.288-.464.655-.595 1.097-.127.435-.186.941-.186 1.525a4.779 4.779 0 00.186 1.376c.02.063.031.12.056.186h.019c.086.221.185.432.316.613.131.182.29.344.465.484.192.155.383.28.595.371.042.018.089.022.13.038.043.015.089.025.13.037v.018c.126.038.281.053.446.075.034.004.061.015.093.018.205.022.434.037.688.037h2.454v-.985h-2.38c-.277 0-.498-.026-.688-.093a.955.955 0 01-.427-.297h-.019c-.105-.13-.168-.309-.223-.54a3.797 3.797 0 01-.093-.873c0-.573.064-1.822.186-2.157.023-.061.047-.13.074-.186a1.2 1.2 0 01.093-.149.988.988 0 01.428-.353 1.65 1.65 0 01.67-.13h2.38v-.967h-2.4zm3.123 0v6.73h1.618v-2.881h2.231v2.882h1.636V6.305h-1.636v2.863h-2.231V6.305zM23.471 14.41l-.038.075-2.733 6.47-.074.186h1.729l.037-.093.688-1.803h2.343l.688 1.803.037.093h1.803l-.074-.186-2.752-6.47-.037-.075h-1.524zm4.778 0v6.731h1.691v-6.73zm2.603 0v6.731h1.636v-2.547h1.376l1.394 2.473.038.074h1.84l-.13-.205L35.5 18.39c.247-.076.455-.195.632-.353.044-.04.093-.07.13-.112.035-.038.056-.097.093-.148h.019c.122-.17.2-.36.26-.577.06-.214.093-.447.093-.706 0-.505-.096-.927-.297-1.246a1.763 1.763 0 00-.13-.186c-.049-.055-.112-.1-.168-.149a1.863 1.863 0 00-.743-.371 4.084 4.084 0 00-1.06-.13h-3.477zm6.6 0v3.98c0 .257.015.483.038.687.022.207.065.39.111.54.067.215.16.41.298.594.199.267.47.519.762.67.042.022.088.038.13.055.193.084.387.12.595.15.036.004.076.014.112.018.228.027.497.037.8.037h1.858v-.986h-1.729c-.242 0-.513.005-.744-.074-.431-.149-.567-.455-.594-.892-.008-.134 0-.3 0-.484V14.41h-1.637zm5.17 0v6.731h1.69v-6.73zm2.584 0v6.731h1.673l-.019-.13-.055-4.37 2.528 4.426.037.074h1.804v-6.73H49.5v.13l.055 4.127-2.38-4.183-.037-.075h-1.932zm9.78 0c-.774 0-1.41.153-1.897.447-.095.057-.193.115-.279.186-.087.07-.15.144-.223.223a2.78 2.78 0 00-.595 1.097c-.127.436-.186.94-.186 1.524 0 .433.042.823.13 1.172.018.07.036.141.056.204.019.064.032.122.056.186h.018v.019c.088.22.184.412.316.595a2.664 2.664 0 001.078.855c.042.017.07.04.112.056.044.015.09.024.13.037.126.037.282.072.447.093.033.004.062-.004.093 0 .204.022.433.037.688.037h2.454v-.986h-2.38c-.276 0-.498-.025-.688-.092a.941.941 0 01-.428-.28 1.338 1.338 0 01-.241-.539 3.862 3.862 0 01-.093-.873v-.112h3.83v-.985H53.59c.03-.463.083-.9.149-1.079a1.46 1.46 0 01.074-.167 1.05 1.05 0 01.093-.149v-.018c.11-.158.249-.274.428-.354.184-.081.407-.111.669-.111h2.38v-.986h-2.399zm5.354 0c-.618 0-1.337.079-1.822.502-.459.402-.576 1.034-.576 1.618 0 .457.21.943.557 1.246.462.397 1.145.483 1.73.483h1.506c.77 0 .971.548.948 1.004-.017.344-.286.837-1.041.837h-3.44v1.041h3.756c.812 0 1.415-.168 1.803-.502.454-.39.576-.985.577-1.562 0-.611-.057-.94-.502-1.339a1.568 1.568 0 00-.558-.297 3.583 3.583 0 00-1.116-.167h-1.617c-.763-.01-.944-.536-.949-.856-.01-.676.56-.966 1.228-.966h3.216V14.41zm-27.852.986h1.525c.222 0 .409.009.557.056a.686.686 0 01.317.204c.133.156.204.442.204.855 0 .305-.04.523-.111.688-.015.032-.042.069-.056.093a.563.563 0 01-.056.075c-.152.176-.432.26-.855.26h-1.525v-2.231zm-8.255.8l.8 2.063h-1.581z" fill="#0f2c64"/><path d="M11.836 12.997H7.844l.32-1.358h2.569c.878.004 1.304-.766.677-1.195-.615-.43-1.014-.772-1.625-1.207-1.236-.876-.654-2.919 1.42-2.93h3.765l-.328 1.337h-2.526c-.694-.012-.846.752-.396 1.032l1.616 1.201c1.334 1.007.552 3.117-1.5 3.12zm4.588 7.298a1.644 1.644 0 01-2.126.695A34.18 34.18 0 013.61 12.997h3.735l.333-1.347h-2.36c-.067-.001-.134.001-.201-.007-.355-.046-.562-.196-.678-.377a.803.803 0 01-.127-.55c.003-.042.127-.557.134-.6l.002-.013.353-1.409c.157-.652.7-1.042 1.429-1.062h2.42l.322-1.335H7.308l-2.095.785.202-.785h-.297c-.672-.009-1.141.051-1.47.205a1.077 1.077 0 00-.617.707l-.965 3.955A36.01 36.01 0 01-.27 7.826C-.716 7.11-.533 6.12.18 5.633 5.688 1.878 12.197-.237 18.864-.392c.863-.021 1.595.657 1.666 1.512a33.14 33.14 0 01.013 5.2l-3.556-.002-3.371 6.664h2.463l.398-.887c.038-.09.08-.118.196-.116h1.766c.034-.002.108.012.111.099l.022.904h.799a35.504 35.504 0 01-2.946 7.313zm2.084-9.523l-.08-2.727c-.004-.096-.086-.103-.129-.007l-1.24 2.754c-.052.108-.02.211.073.203h1.245c.107-.006.142-.091.13-.223z" fill="#ef001e" fill-rule="evenodd"/></svg>