<svg width="728.5" height="137.27" version="1.0" viewBox="0 0 555.6 612.3" xmlns="http://www.w3.org/2000/svg"><path transform="translate(-6698.8 -26184) scale(86.397)" d="M89.201 310.15s1.106-.138 2.624-1.612l4.97-5.475h2.762l-2.301 7.041-8.055.046z" clip-path="url(#SVGID_30_)" fill="#de0038"/><path transform="translate(-6698.8 -26184) scale(86.397)" d="M92.672 308.3s.038-.045.07-.045c.035 0 .066.045.066.045h-.136zm5.103-2.757c.033-.002-1.021-.052-1.359.014-.339.065-.658.109-.97.559-.312.447-.594.899-.78 1.158-.586.813-.586.943-1.237 1.001-.349.031-.442.013-.53-.028-.108-.052-.159-.111-.309.008-.172.138-.409.104-.403.125h4.97s.241.008.326-.144l-.124-.046s-.027.158-.521.111c-.493-.046-1.138-.168-1.138-.168l1.53-2.16a3.12 3.12 0 01.349-.351s-.618.065-.878.442c-.264.383-1.436 1.99-1.436 1.99l-.08-.013 1.497-2.081c.001-.001.22-.352 1.093-.417" clip-path="url(#SVGID_30_)" fill="#fff"/><path transform="translate(-6698.8 -26184) scale(86.397)" d="M92.741 308.05c-.088 0-.16.113-.16.113h.323c-.001.001-.075-.113-.163-.113" clip-path="url(#SVGID_30_)" fill="#fff"/><path transform="translate(-6698.8 -26184) scale(86.397)" d="M88.167 308.31l-.041.406-.976.001s-.168-.023-.204.104c-.05.156.094.135.094.135l.77.005s.355.113.349.467c-.006.332-.172.579-.453.581H86.44l.027-.387h1.226s.221-.168 0-.271h-.879s-.272-.018-.28-.395c-.004-.312.059-.391.193-.502.16-.138.385-.138.385-.138l1.055-.006zm-24.137 0l-.042.406-.973.001s-.169-.023-.204.104c-.05.156.092.135.092.135l.771.005s.355.113.348.467c-.006.332-.171.579-.452.581h-1.265l.025-.387h1.229s.218-.168 0-.271h-.879s-.275-.018-.281-.395c-.006-.312.057-.391.191-.502.162-.138.387-.138.387-.138l1.053-.006z" clip-path="url(#SVGID_30_)" fill="#de0038"/><path transform="translate(-6698.8 -26184) scale(86.397)" clip-path="url(#SVGID_2_)" fill="#de0038" d="M86.429 308.3h-1.362l-.135 1.72h1.412l.028-.4h-.986l.014-.25h.952l.02-.39h-.944l.021-.27h.959zm-1.568.01l-.121 1.71h-.419l-.682-1.02-.072 1.02h-.417l.135-1.71h.41l.675 1.08.086-1.08zm-1.846 0l-.128 1.71h-.418l.143-1.71zm-1.378 0l-.091 1.3h.808l-.047.39h-1.209l.128-1.69z"/><path transform="translate(-6698.8 -26184) scale(86.397)" d="M79.415 308.31l-.126 1.697h.404l.107-1.271h.661s.102-.013.076.144c-.021.126-.107.098-.107.098h-.516l.566 1.036h.476l-.405-.731s.4-.021.4-.469c0-.446-.328-.504-.435-.504h-1.101z" clip-path="url(#SVGID_32_)" fill="#de0038"/><path transform="translate(-6698.8 -26184) scale(86.397)" d="M77.38 309.37l.276-.487.164.487h-.44zm.51-1.058h-.419l-.994 1.697h.506l.225-.376h.696l.122.376h.467l-.603-1.697zm-4.144 1.058l.276-.487.164.487h-.44zm.511-1.058h-.419l-.993 1.697h.504l.227-.376h.696l.12.376h.468l-.603-1.697zm4.883-.002l-.128 1.71h-.419l.141-1.71zm-3.656 0l-.127 1.71h-.418l.141-1.71zm-8.915 1.06l.276-.487.163.487h-.439zm.511-1.058h-.419l-.994 1.697h.504l.228-.376h.695l.12.376h.47l-.604-1.697z" clip-path="url(#SVGID_2_)" fill="#de0038"/><path transform="translate(-6698.8 -26184) scale(86.397)" clip-path="url(#SVGID_2_)" fill="#de0038" d="M73.024 308.31l-.136 1.7h-.405l.043-.63h-.731l-.065.63h-.41l.134-1.7h.426l-.05.68h.724l.064-.68zm-7.173 0l-.135 1.7h-.404l.041-.63h-.73l-.064.63h-.41l.133-1.7h.426l-.05.68h.725l.063-.68z"/><path transform="translate(-6698.8 -26184) scale(86.397)" d="M71.246 308.31h-1.082s-.605.023-.633.525c-.028.505-.021.652-.021.652s-.013.52.469.52h1.163l.043-1.051h-.808l-.015.384h.404l-.022.269h-.708s-.122.016-.122-.121c0-.134.03-.602.03-.602s0-.186.268-.186h1.001l.033-.39z" clip-path="url(#SVGID_34_)" fill="#de0038"/><path transform="translate(-6698.8 -26184) scale(86.397)" clip-path="url(#SVGID_2_)" fill="#de0038" d="M69.39 308.3l-.114 1.7h-.433l-.675-.98-.071.99h-.425l.134-1.71h.405l.684 1.08.1-1.07z"/><path transform="translate(-6698.8 -26184) scale(86.397)" d="M66.682 307.24c-.081.244.233.481.366.284.5-.745.432-1.299.432-1.299s-.734.824-.798 1.015m12.164-.9c-.054.109-.365.164-.365.164v-.393s.663-.23.27-.352c-.393-.121-1.029.299-1.029.299.082.188.446.134.446.134l-.012.351s-.49.07-.624.07c-.202 0-.324.108-.324.201 0 .097.284.15.284.15.068-.11.636-.15.636-.15s.87-.119.962-.23c.134-.162-.191-.351-.244-.244m-14.335-.28c-.287.135-.546.121-.546.121l.081-.958h.451c.452-.178.028-.465.028-.465h-.848c-.164-.316-.349-.162-.439.027-.123.26.233 1.507.233 1.507s-.218.069-.397.082c-.178.013-1.056.195-1.109.356-.111.33.26.343.466.384.205.042 2.354-.438 2.477-.479.125-.042.262-.151.247-.383-.014-.234-.511-.257-.644-.192m3.035-.96c-.095-.74-.533-.534-.533-.534s-.262.096-.068.382c.41.427.601.152.601.152m-.355.93c-.095-.741-.534-.536-.534-.536s-.261.096-.069.384c.411.425.603.152.603.152m1.959.19c-.048.087-.273-.314 0-.356 0 0 .191 0 0 .356m-.109.479c-.095.08-.288-.288 0-.313 0-.001.23.122 0 .313m-.155-.763c-.044.099-.077.006-.122-.004-.135-.026.056-.192.056-.192s.143.012.066.196m-.845 1.134c-.112-.033.37-.55.37-.55s.399.264.383.359c-.03.149-.522.259-.753.191m.546-.931s.111.038.098.122h-.153l.055-.122zm1.479-.096c-.149-.082-.424.081-.424.081s.123-.658-.014-.684c-.135-.028-.67.286-.683.137-.013-.15.753-.684.753-.684s.093-.083-.028-.139c-.274-.124-1.246.521-1.302.549-.054.027-.068-.041-.068-.041s.74-1.151.794-1.3c.056-.153-.11-.303-.356-.207-.247.096-.095.478-.095.478.067.083-.316.521-.316.521s-.424.644-.438.754c-.014.109.109.288.192.179.082-.11.767-.26.767-.26l-.589.958s-.439.014-.603.096c-.164.081-.082.26-.082.26s.489-.06.397.04c-.356.398-.287.712-.287.712l1.151-.164s-.137.632-.015.617c.482-.054.506-.63.506-.63l.124-.137s.083-.617.083-.74.48-.054.588-.082c.11-.027.097-.233-.055-.314m9.702-2.003c-.288.205-.794.302-.863.289-.069-.016-.589-.508-.589-.508-.466-.083-.41.178-.41.274s.355.424.355.424c-.109.096-.959.192-.959.192s-.435-.108-.548 0c-.328.316-.095.863-.012.96.081.093.204-.097.245-.153.041-.052-.041-.409-.013-.479.027-.067.726-.218.726-.218.083.658-.261.739-.261.739l-.014.096s.096.095.179.015c.652-.652.369-.974.438-.96s.686-.137.686-.137.835-.315.875-.205c.08.214-.342.411-.342.411.068.069.329-.055.329-.055s.452.082.561-.247c.072-.211-.269-.52-.383-.438" clip-path="url(#SVGID_36_)" fill="#de0038"/><path transform="translate(-6698.8 -26184) scale(86.397)" d="M79.275 305.14c-.04.056-.139.027-.139.027.125-.191-.026-.548-.163-.548s-.275.534-.179.767.645.136.645.136.047-.049.123-.191c.11-.203-.246-.245-.287-.191m4.143 1.09l-.082.359c-.098-.082-.567.182-.567.182s-.11.04-.124-.044c-.013-.083.511-.564.511-.716 0-.154-.318-.07-.318-.07l-.733.871s-.082.208.18.275c.429.111 1.12-.305 1.12-.305s.11.291.235.237c.124-.057.349-.251.234-.525-.22-.526-.456-.264-.456-.264m-1.23-.89c.099-.112-.069-.434-.35-.39-.279.04-.617.731-.516.864.125.17.77-.361.866-.474m1.754-.73c-.476.197-.098.939-.029 1.034.069.098.371.066.405-.055.084-.294-.054-1.111-.376-.979m4.324-.71c-.042.04-1.069.398-1.069.398s-.481-.137-.507.219c.138.438.521.151.521.151.602-.438.876-.397.876-.397l.029 2.41s-.422.396-.21.686c.195.26.4 0 .483-.097.082-.097.137-3.013.137-3.135-.001-.125-.22-.277-.26-.235" clip-path="url(#SVGID_36_)" fill="#de0038"/><path transform="translate(-6698.8 -26184) scale(86.397)" d="M86.347 305.42l-.329.014c-.041.219.274.299.466.219.849-.357.973-.63.973-.63-.124-.232-1.11.397-1.11.397m.452.98c-.205.123-.397.151-.424-.054 0 0 .52-.465.549-.398.026.069.081.328-.125.452m.259-.753c-.177.013-.97.658-.97.658.052.548.67.423.807.37.136-.056.452-.699.507-.781.055-.083-.165-.261-.344-.247m-11.869.453s-.005-.048-.056-.019c-.218.123-.11.72-.499.8-.474.097-.65-.191-.693-.383-.05-.237.271-.818.325-.997.055-.178-.363-.187-.363-.187.179-.284.332-.467.512-.429l.012-.149-.123.006s.025-.349-.363-.571c-.213-.124-.438.049-.45.092-.127.461.469.412.465.567-.005.11-.611.176-.724.233-.082.04-.092.167-.014.212.154.085.501-.195.57-.259.068-.012.029.082.014.129-.063.206-.549.765-.969 1.526-.02.038.006.181.084.116.075-.062.553-.918.724-1.076.236-.216.331-.114.329-.049-.008.19-.409 1.062-.099 1.382.224.234 1.094.121 1.304.012.049-.026.126-.128-.013-.256-.1-.093.027-.7.027-.7m-2.765.12a.075.075 0 01-.049-.013s-.021-.129.013-.148c.036-.019.05-.007.05-.007s.012.164-.014.168m.3-.555c-.026-.091.23-.32.116-.492-.038-.107-.272-.091-.272-.091s.219-.354.26-.531c.041-.179-.277-.267-.277-.267-.504.377-1.082 1.419-1.082 1.419s.059.145.099.034c.041-.109.566-.419.566-.419.171.294.381.05.381.05s-.004.198.001.25c.006.036-.256-.103-.363-.089-.241.027-.009.266-.009.266 0 .08-.007.119-.005.152-.05.039-.156.014-.156.014s.043-.41-.026-.418c-.06-.007-.137.133-.137.133s-.048.258-.064.432c-.879.182-.935.308-.935.308s.01.141.115.193c.102.051.201.079.293-.063.071-.107.509-.297.509-.297l-.029.77s.007.258.149.198c.195-.077.146-.972.146-.972l.061.008c.061.418.359.39.359.39s.069.109.041.178c-.027.069-.202.046-.202.046.087.119.148.054.206.398.019.107.244-.017.28-.111.035-.091-.032-1.139-.032-1.139.388-.387.023-.338.007-.35" clip-path="url(#SVGID_36_)" fill="#de0038"/></svg>