<svg viewBox="0 0 579.1 128.2" xmlns="http://www.w3.org/2000/svg"><style>.st2{fill:#ed1b2f}</style><path fill="#0093d0" d="M0 128.1h128.2L179.6 0h-51.4z"/><path d="M119.5 49.3c-2-1-3.3-3-3.3-5.3 0-3.2 2.6-5.9 5.9-5.9 3.2 0 5.9 2.6 5.9 5.9 0 2.3-1.4 4.4-3.4 5.3V51c1.8.2 4 .9 5.4 1.6.6-.1 1.4-.1 2.2-.1 7.4 0 12.6 4.9 12.6 11.6 0 4.2-3.7 8-7.9 8s-8-4.1-7.2-8.3c0 0-.4 1.4-.4 3.2v21.2c-.2 2.4-3.4 15.7-18.4 15.7S92.7 90.6 92.5 88.2V67c0-1.7-.5-3.2-.5-3.2.8 4-3.1 8.3-7.2 8.3-4.2 0-7.9-3.8-7.9-8 0-6.7 5.2-11.6 12.6-11.6.8 0 1.6 0 2.2.1 1.3-.7 3.6-1.5 5.4-1.6v-1.7c-2-1-3.3-3-3.3-5.3 0-3.2 2.6-5.9 5.9-5.9s5.9 2.6 5.9 5.9c0 2.3-1.4 4.4-3.4 5.3v2.2c.5.2 1 .3 1.5.6.9-2 2.7-3.5 4.8-4.2v-1.8c-2-.9-3.4-3-3.4-5.3 0-3.2 2.6-5.9 5.9-5.9 3.2 0 5.9 2.6 5.9 5.9 0 2.3-1.4 4.4-3.3 5.3v1.8c2.1.7 3.9 2.2 4.8 4.2l1.5-.6-.4-2.2z" fill="#fff"/><path class="st2" d="M142.3 64.2c0-5.5-3.7-9.9-11.4-9.9-5.1 0-11.1 4.3-11.1 15.2v16.2c2.2-1.5 5.3-2.8 6.9-2.8V67.8c0-5.8 4.2-7.5 6.1-7.5-1.1 1-1.8 2.2-1.8 3.9 0 3.1 2.5 5.6 5.6 5.6 3.2 0 5.6-2.3 5.7-5.6zm-63.3 0c0-5.5 3.7-9.9 11.4-9.9 5.1 0 11.2 4.3 11.2 15.2v16.2c-2.2-1.5-5.3-2.8-6.9-2.8V67.8c0-5.8-4.2-7.5-6.1-7.5 1.1 1 1.8 2.2 1.8 3.9 0 3.1-2.6 5.6-5.6 5.6-3.3 0-5.7-2.3-5.8-5.6z"/><path class="st2" d="M110.7 101.6c12.8 0 15.7-10.7 16.1-13.5v-3.6c-4 1-7.5 3.1-9.9 6.3-.8-3.7-3.2-6.8-6.2-8.9-3 2-5.3 5.2-6.2 8.9-2.4-3.2-5.9-5.3-9.9-6.3v3.6c.3 2.8 3.2 13.5 16.1 13.5zm.9-56.7v4.5c2.2.3 4.1 1.8 4.8 3.6-2.6 1.7-4.7 4.3-5.7 7.5-1-3.2-3.1-5.8-5.7-7.5.8-1.8 2.6-3.3 4.8-3.6v-4.5c-1.8-.4-3.2-2.1-3.2-4 0-2.3 1.9-4.1 4.1-4.1 2.3 0 4.1 1.8 4.1 4.1 0 1.9-1.4 3.6-3.2 4z"/><path class="st2" d="M100.3 48.1v4.7c5.6 1.1 9.6 7 9.6 12.5v15.2c-2.6 1.5-5.2 4.6-6 7.1-.2-.2-.4-.5-.7-.7V67.3c0-5.9-3.2-11.9-8.8-13.8 0 0 1.8-.8 4.1-.8V48c-1.8-.4-3.2-2-3.2-4 0-2.3 1.8-4.1 4.1-4.1s4.1 1.8 4.1 4.1c0 2-1.4 3.6-3.2 4.1zm22.6 0v4.6c2.3 0 4.1.8 4.1.8-5.7 2-8.8 8-8.8 13.8v19.6l-.7.7c-.8-2.6-3.4-5.7-6-7.1V65.3c0-5.5 4-11.4 9.6-12.5V48c-1.8-.4-3.2-2-3.2-4 0-2.3 1.8-4.1 4.1-4.1s4.1 1.8 4.1 4.1c.1 2-1.3 3.7-3.2 4.1z"/><path d="M239.3 27.8h16V43h-16V27.8zm-22.4 24.4V49H232v20.5h7.4V49h15.9v2.9h7.4V21.5h-23.4V9.4H232v12.1h-22.3v30.7h7.2zM232 43h-15.1V27.8H232V43zM421.629 9.553h7.599v10.42h24.967v6.514h-34.737l-.217 7.165h28.224c-.434 6.947-.869 14.98-1.303 21.494-.434 5.862-1.085 8.684-3.04 10.42-1.736 1.52-6.513 1.955-12.375 2.823-.434-2.822-1.737-5.21-3.04-7.816 6.948-.434 10.64.218 11.073-3.69.435-3.691.869-9.553.869-16.718h-20.843c-1.52 19.54-9.553 24.1-16.934 28.876-1.737-1.954-3.257-3.908-5.645-5.645 16.066-7.165 15.849-18.455 16.066-36.909h-15.198v-6.513h24.75c-.216.217-.216-10.421-.216-10.421m134.83 22.31l3.69-5.428c7.165 3.69 15.415 7.599 19.975 10.638 0 0-2.823 3.474-4.777 5.862-5.21-3.908-14.329-8.467-18.888-11.072m15.415 11.506v6.297H555.59v10.42h23.448V66.6h-54.277v-6.513h22.796V49.666h-15.632v-6.297h39.949zm-43.857.217c-1.085-1.736-2.822-4.125-4.125-6.079 5.21-1.954 14.547-6.73 19.323-11.506 0 0 4.56 4.776 4.776 4.993-2.822 3.04-13.895 9.77-19.974 12.592m19.757-33.652h7.6v6.73h22.362v13.679h-7.165v-7.6h-37.126v7.817h-7.165V16.665h21.277c.217 0 .217-6.73.217-6.73M308.979 39.473h3.908v-5.428H302.03v-6.513h12.81V22.32h-31.264v5.21h12.158v6.514h-10.638v5.21h10.638v9.12H282.49v5.644h33.218v-5.645h-13.46v-9.119h6.295l-4.342 2.606c1.737 1.737 3.691 4.342 4.994 6.079l4.342-2.823c-1.52-1.736-3.69-4.342-4.56-5.644m-29.31 29.092v-4.993h38.43v4.776h6.947v-56.23h-52.107v56.231c0 .217 6.73.217 6.73.217zm38.646-10.421H279.67V18.196h38.428l.217 39.948zm50.856-24.88c-2.171 3.256-3.257 5.427-5.21 8.033h-5.863l2.605-1.303c-1.085-1.954-3.908-5.428-4.993-6.73h13.46zm.868 0h9.987v25.619c0 2.388-1.085 3.256-4.125 3.256h-2.822c1.302 2.823 2.388 4.56 3.256 7.165 4.994-.652 6.948-1.52 8.25-2.388 1.52-1.086 2.389-1.954 2.389-5.862V27.835h-21.06v-4.777h25.619V16.98h-25.619V9.815h-7.165v7.164h-26.053v6.08h26.053v4.776h-20.842v41.25h6.73V33.48h10.639l-4.994 2.17c1.303 1.738 2.823 4.126 3.908 5.863h-6.296v5.21h11.073v4.56h-12.81v5.645h12.81v10.638h6.513V56.928h13.026v-5.645h-13.026v-4.56h11.724v-5.21h-6.73c1.085-1.303 3.907-4.56 4.559-5.428l-4.994-2.822zm106.542-7.69l-5.21.868c.868 3.474 1.302 6.296 1.736 8.467l4.993-1.085c-.217-1.954-1.085-6.296-1.52-8.25m3.257 11.072h-9.77v-12.81h9.77v12.81zm4.777 28.659c2.17 1.085 4.125 2.388 5.862 3.473 4.342-4.776 7.816-11.506 7.599-30.178v-1.737h5.427l-.434 24.317c0 4.342.651 5.862 4.777 6.079h5.427c1.954 0 3.257-2.823 4.994-8.902-1.737-.868-4.125-2.17-5.428-3.474-.434 2.606-.868 5.211-1.52 5.862-.434.435-.868.217-1.085.217-.434 0-.652-.434-.434-1.302 0-6.513.65-28.442.65-28.442h-18.453v13.027c0 9.77-2.606 17.369-7.382 21.06m-8.25-21.06l-5.428.651c.651 3.257 1.303 8.033 1.737 10.422l5.427-1.303c-.217-2.605-1.302-7.816-1.736-9.77m-16.718-7.599v6.08h4.56v1.736c-.218 8.467-1.737 15.198-4.777 19.757 1.52 1.303 3.69 3.257 5.428 4.994 3.69-5.428 5.21-11.507 5.21-26.488h9.77v16.283c0 1.954-1.085 1.954-6.73 1.954 1.303 2.172 1.737 4.126 2.171 6.73 8.033-.868 10.421-2.604 10.421-5.644V18.625h-8.25c.434-1.954 1.303-5.645 1.737-7.165-1.303-.434-5.862-1.085-6.513-1.302-.217 1.954-.652 5.427-1.303 8.467h-7.165v18.02h-4.559zm45.376-16.934V9.724h-7.165v9.987h-10.42v6.079h29.092v-6.08H505.02zm72.659 94.602V80.009h-3.04v24.316L552.711 80.01h-1.303v34.304h3.257V90.43l21.928 23.883h1.086zm-29.093 0l-8.684-16.935c3.69-1.086 7.381-2.388 7.381-8.684 0-6.514-5.645-8.685-10.204-8.685h-11.94v34.086h5.21v-16.5h4.559l8.467 16.5c-.217.218 5.211.218 5.211.218zm-12.81-19.106h-5.644V83.483h5.644c3.257 0 5.862 2.605 5.862 5.862s-2.605 5.862-5.862 5.862m-31.698 2.605h16.935v-3.04h-16.935v-11.29h16.935v-3.039h-21.928v33.87h21.928v-3.257h-16.935V97.812zm-14.546 16.5h4.994V80.01h-4.994v14.98H473.25V80.01h-5.21v34.304h5.21V98.029h16.283v16.284zm-33.652-30.83h10.204v-3.039h-25.836v3.04h10.421v30.83h5.211v-30.83zm-17.803 18.89V80.008h-3.04v22.797c0 4.993-4.342 8.467-8.25 8.467-4.559 0-9.118-3.257-9.118-8.467V80.009h-4.994v22.58c0 6.079 5.21 11.94 12.81 11.94 8.901-.216 12.592-7.164 12.592-12.158m-28.876-5.427c0-9.77-7.816-17.586-17.368-17.586s-17.37 7.816-17.37 17.586 7.817 17.586 17.37 17.586 17.368-7.816 17.368-17.586m-5.427.217c0 8.033-5.428 14.546-11.941 14.546s-11.941-6.513-11.941-14.546 5.427-14.547 11.94-14.547 11.942 6.514 11.942 14.547M370.99 84.786V80.66c-19.974-5.644-21.494 10.639-14.98 14.981 2.605 1.737 6.947 4.56 9.552 6.296 6.08 3.908-.868 14.33-12.592 6.514v4.559c18.671 6.513 24.316-8.902 15.849-15.415-3.257-2.388-5.645-4.125-8.685-5.862-6.079-3.69-3.039-12.375 10.856-6.947m-41.25 29.527h5.861l-10.421-34.52h-5.428l-10.421 34.52h4.125l3.04-10.639H326.7l3.04 10.639zm-3.909-13.678h-8.684l4.342-14.764 4.342 14.764zm-19.757 13.678h1.303V80.226h-3.04v24.317L282.41 80.226h-1.303v34.087h3.257V90.43c-.217 0 21.711 23.883 21.711 23.883zm-35.823 0h5.21V80.009h-5.21v34.304zm-10.421 0h4.993V80.009h-4.993v14.764h-16.284V80.009h-4.993v34.304h4.993V98.246h16.284v16.067zm-36.04.434c4.559 0 8.25-.869 11.072-1.52v-3.908c-3.04 1.52-5.428 2.388-8.684 2.388-19.106 0-17.586-28.875-1.954-28.875 6.079 0 8.684 1.085 10.638 1.736v-3.69c-2.822-.652-6.08-1.086-11.073-1.086-24.316-.217-22.796 34.955 0 34.955" fill="#002052"/></svg>