<svg viewBox="0 0 650 54.07" xmlns="http://www.w3.org/2000/svg"><path d="M0 2.333h64.203c-15.871 9.146-16.678 26.72-12.285 46.985L0 2.333" fill="#ed1c24"/><path d="M13.99 10.316h3.138V6.639H13.99v3.677zm4.752-5.742h3.676V1.256h-3.676v3.318zm-.359 11.744h4.125v-4.214h-4.125v4.214zm5.201-4.658h5.021V6.192h-5.02v5.47zm.18 10.126h4.751v-4.484h-4.751v4.484zm5.737-4.932h4.394V12.46h-4.394v4.394zm5.38-5.467h5.111V6.366h-5.11v5.02zm6.367-6.003h4.662V.362h-4.662v5.022zM46.18 23.58h6.097v-6.726H46.18v6.725z" fill="#fff"/><path d="M39.903 29.146H48.6v-6.187h-8.698v6.187zM29.59 5.471h4.305V1.616h-4.304V5.47zm0 23.227h5.291V22.96h-5.29v5.738z" fill="#fff"/><path d="M34.881 33.891h5.739v-5.649h-5.74v5.649zm9.864-.349h5.739v-5.739h-5.74v5.74zm.538 19.366h8.34V37.932h-8.34v14.976z" fill="#fff"/><path d="M40.172 38.736H51.47V32.46H40.172v6.276z" fill="#fff"/><path d="M37.571 41.513h4.574v-4.304H37.57v4.304zM32.46 36.32h3.677v-3.228H32.46v3.228zm-5.47-5.206h3.587v-3.229H26.99v3.229zm7.622-7.709H40.8v-6.188h-6.187v6.188z" fill="#fff"/><path d="M39.992 17.937h6.187V11.75h-6.187v6.187z" fill="#fff"/><path d="M46 12.37h5.829V6.185H46v6.187z" fill="#fff"/><path d="M51.65 6.193h7.084V.006h-7.083v6.187z" fill="#fff"/><path d="M445.2 26.182h.09c4.662 0 7.98-.717 10.042-2.331 1.973-1.525 3.049-4.125 3.049-7.622 0-1.704-.359-3.139-.987-4.394-.627-1.345-1.524-2.331-2.78-3.138-.896-.628-1.972-1.076-3.227-1.345s-3.318-.449-6.188-.449h-13.091v19.279h13.091zM84.555 36.494h4.394c0 2.6-.538 5.021-1.524 7.263-.986 2.062-2.421 3.944-4.215 5.648-3.407 3.049-7.98 4.664-13.63 4.664-6.545 0-11.656-2.331-15.512-7.085-3.766-4.662-5.65-11.118-5.65-19.278s1.884-14.526 5.74-19.189c3.766-4.663 8.967-6.994 15.512-6.994 5.47 0 9.953 1.435 13.27 4.394a15.677 15.677 0 014.125 5.021c.897 1.973 1.345 4.125 1.345 6.546h-4.304c-.448-3.676-1.883-6.635-4.483-8.698-2.6-2.152-5.918-3.138-9.953-3.138-5.2 0-9.326 1.883-12.195 5.739-2.96 3.855-4.394 9.325-4.394 16.23 0 6.994 1.435 12.553 4.394 16.499 2.96 3.945 7.084 5.918 12.374 5.918 4.304 0 7.712-1.255 10.312-3.677 1.345-1.256 2.42-2.6 3.228-4.305a13.663 13.663 0 001.166-5.558zm529.843.986h4.574c0 3.946 1.255 6.905 3.676 9.056 2.51 2.153 5.918 3.229 10.312 3.229 3.856 0 6.904-.808 9.146-2.602 2.242-1.703 3.318-4.034 3.318-7.084 0-2.868-.717-5.02-2.332-6.454-1.524-1.525-4.573-2.87-9.235-4.127l-4.752-1.164c-5.022-1.255-8.61-2.959-10.58-4.932-1.973-2.062-2.96-4.932-2.96-8.518 0-4.035 1.524-7.263 4.483-9.685 2.959-2.51 6.904-3.676 11.836-3.676 5.2 0 9.325 1.345 12.284 4.035s4.484 6.367 4.484 11.12h-4.663c0-3.498-1.076-6.188-3.228-8.16s-5.2-2.96-9.056-2.96c-3.677 0-6.546.807-8.519 2.421-1.973 1.704-3.049 4.035-3.049 6.994 0 2.332.718 4.125 1.973 5.38 1.255 1.346 3.497 2.332 6.546 3.139l5.828 1.524c5.65 1.435 9.684 3.228 12.016 5.47 2.331 2.152 3.497 5.2 3.497 9.146 0 4.393-1.524 7.8-4.573 10.402-3.049 2.6-7.174 3.856-12.464 3.856-5.918 0-10.491-1.345-13.72-4.125-3.226-2.781-4.842-6.725-4.842-11.926v-.359zM573.51 52.545V2.778h32.55v4.125h-27.976v18.113h25.645v3.946h-25.645V48.42h28.874v4.125H573.51zm-48.778 0V2.778h5.02l28.156 42.682V2.778h4.395v49.767h-5.023L529.215 9.862v42.683h-4.483zm-16.14 0V2.778h4.661v49.767h-4.661zm-36.316 0V2.778h4.752V48.42h25.376v4.125h-30.128zm-59.54 0V2.778h4.752v49.767h-4.752zm-140.158 0V2.778h4.663v49.767h-4.663zm-26.631 0V6.903h-15.422V2.778h35.597v4.125H250.7v45.642h-4.752zM102.564 26.182h13.27c4.574 0 7.892-.717 9.954-2.331 2.062-1.525 3.138-4.125 3.138-7.622 0-1.704-.358-3.139-.986-4.394-.628-1.345-1.524-2.331-2.78-3.138-.896-.628-1.972-1.076-3.317-1.345-1.256-.27-3.318-.449-6.098-.449h-13.181v19.279zm13.181 4.125h-13.181v22.238H97.99V2.778h17.754c1.524 0 2.78.09 3.856.09 1.345.09 2.42.18 3.407.448 1.704.27 3.139.807 4.484 1.525 1.972 1.076 3.407 2.6 4.483 4.573s1.614 4.125 1.614 6.635c0 3.05-.628 5.65-1.973 7.712-1.434 2.062-3.407 3.587-6.097 4.483 2.062.718 3.587 1.794 4.394 3.139.896 1.345 1.524 4.214 1.883 8.429l.627 7.442c0 .628 0 1.076.09 1.525.09.357.27.895.538 1.523.18.627.538 1.167.986 1.524v.719h-5.11c-.09-.27-.27-.538-.36-.807s-.179-.719-.358-1.345c-.09-.628-.18-1.078-.18-1.257-.089-.537-.179-1.075-.179-1.704l-.538-6.544c0-2.154-.269-3.946-.717-5.38-.448-1.526-.986-2.6-1.704-3.318-1.345-1.256-3.945-1.883-7.8-1.883h-1.346zm28.963-2.6c0 6.814 1.614 12.193 4.842 16.23 3.228 3.855 7.622 5.828 13.181 5.828h.09c5.47 0 9.862-1.973 13.181-5.829 3.318-3.945 4.932-9.415 4.932-16.23s-1.614-12.195-4.932-16.23c-3.228-3.945-7.621-6.007-13.18-6.007h-.09c-5.47 0-9.864 2.062-13.092 6.097-3.318 3.945-4.932 9.415-4.932 16.14zm18.113 26.183h-.09c-6.994 0-12.465-2.333-16.588-7.084-4.125-4.573-6.187-10.94-6.187-19.1 0-8.07 2.062-14.436 6.187-19.1 4.123-4.752 9.594-7.083 16.588-7.083h.09c6.994 0 12.554 2.331 16.589 7.084 4.125 4.663 6.187 11.03 6.187 19.1s-2.062 14.436-6.187 19.099c-4.035 4.751-9.595 7.084-16.589 7.084zm37.84-20.624h19.28L210.254 7.71l-9.594 25.556zm9.594 4.035h-11.03l-5.827 15.244h-4.752l18.92-49.767h5.468l18.922 49.767h-4.844L221.463 37.3h-11.208zm84.559-4.035h19.276L304.497 7.71h-.09l-9.593 25.556zm9.683 4.035h-11.12l-5.738 15.244h-4.842l18.92-49.767h5.47l18.92 49.767h-4.753L315.616 37.3h-11.12zm71.376-4.035h19.278L385.556 7.71l-9.683 25.556zm9.683 4.035h-11.119l-5.739 15.244h-4.752l18.83-49.767h5.471l18.92 49.767h-4.753l-5.65-15.244h-11.208zm59.63-34.523c1.524 0 2.87.09 3.945.09 1.256.09 2.421.18 3.318.448 1.704.27 3.228.807 4.483 1.525 1.973 1.076 3.497 2.6 4.573 4.573s1.614 4.125 1.614 6.635c0 3.05-.717 5.65-2.062 7.712s-3.407 3.587-6.008 4.483c2.063.718 3.496 1.794 4.394 3.139.807 1.345 1.435 4.214 1.793 8.429l.628 7.442c0 .628.09 1.076.18 1.525.09.357.179.895.448 1.523s.538 1.167.986 1.524v.719h-5.021c-.18-.27-.27-.538-.359-.807s-.269-.719-.359-1.345c-.179-.628-.269-1.078-.269-1.257-.09-.537-.179-1.075-.179-1.704l-.538-6.544c0-2.154-.18-3.946-.628-5.38-.448-1.526-1.076-2.6-1.793-3.318-1.345-1.256-3.856-1.883-7.712-1.883h-14.526v22.238h-4.573V2.778h17.665" fill="#363f9e"/></svg>