<svg viewBox="0 0 587.09 231.41" xmlns="http://www.w3.org/2000/svg"><path d="M556.13 157.32h1.368l-1.368 3.456v9.216h11.304l19.656-48.528h-30.96v10.44h11.664l-6.048 14.976h-5.616v10.44zm-16.488-35.856l-19.656 48.528h15.048l5.112-12.672h15.984v-10.44h-11.736l6.048-14.976h5.688v-10.44h-16.488zm16.488 39.312v9.216h-3.816l3.816-9.216zM37.08 195.26h1.296c3.816 0 6.552.504 8.28 1.512 2.592 1.512 3.888 3.816 3.888 6.84 0 2.952-1.296 5.544-3.888 7.848-2.448 2.088-5.616 3.168-9.576 3.312v-2.664c1.224-.504 2.304-1.44 3.168-2.808 1.368-2.16 2.016-4.464 2.016-6.84 0-1.656-.432-2.88-1.296-3.816-.864-.864-2.088-1.296-3.672-1.296h-.216v-2.088zm-5.76 19.152l-2.808 9.792c-.36 1.368-.576 2.376-.576 2.952 0 .792.216 1.44.792 1.8.504.432 1.656.648 3.528.648l-.36.936H14.688l.288-.936c1.44 0 2.448-.144 3.096-.432.576-.216 1.08-.648 1.512-1.296.288-.36.72-1.584 1.296-3.672l6.48-22.392c.432-1.512.648-2.592.648-3.24s-.288-1.224-.864-1.656-1.584-.648-3.096-.72l.288-.936H37.08v2.088h-1.008l-4.176 15.048c1.08.144 2.016.216 2.736.216.864 0 1.728-.216 2.448-.504v2.664c-.288.072-.648.072-.936.072-1.368 0-2.952-.144-4.824-.432zm33.264-7.992l-5.544 17.64c-.288.864-.432 1.368-.432 1.728a.55.55 0 00.144.36c.144.144.36.216.504.216.792 0 1.8-.72 3.168-2.16 1.872-2.016 3.816-5.04 5.832-8.856l2.448-7.92 6.624-.288-5.184 17.28c-.432 1.512-.648 2.304-.648 2.52 0 .144.072.288.216.432a.396.396 0 00.36.216c.288 0 .504-.072.72-.288.648-.504 1.512-1.512 2.52-2.952l.864.576c-2.448 4.248-5.112 6.336-7.992 6.336-1.08 0-1.944-.288-2.52-.792-.648-.576-.936-1.296-.936-2.16 0-.936.216-2.088.648-3.528l1.368-4.464c-2.304 3.312-3.888 5.472-4.896 6.624-1.584 1.728-2.88 2.88-3.96 3.456-1.008.576-2.088.864-3.024.864s-1.728-.36-2.376-1.008-1.008-1.512-1.008-2.52c0-.936.288-2.088.72-3.6l3.312-10.368c.504-1.728.72-2.88.72-3.456 0-.288-.072-.504-.216-.72-.144-.144-.288-.36-.576-.432-.288-.144-.792-.216-1.44-.216l.216-.936L63 206.42h1.584zm27 21.39c.936-.072 1.944-.36 2.88-.72 1.224-.576 2.664-1.44 4.248-2.736l.864.648c-2.016 2.232-3.96 3.888-5.832 4.824-.72.36-1.44.648-2.16.864v-2.88zm0-20.16c2.016-.792 4.032-1.224 6.048-1.224 1.44 0 2.52.36 3.312 1.008.72.72 1.08 1.584 1.08 2.664 0 1.296-.36 2.52-1.08 3.672-1.008 1.656-2.304 2.952-3.816 3.96s-3.24 1.8-5.184 2.304c-.072 0-.216.072-.36.072v-2.16c.504-.36 1.008-.792 1.512-1.296.864-.864 1.512-1.944 2.16-3.24.576-1.296.864-2.52.864-3.672 0-.504-.144-.864-.432-1.152-.216-.288-.576-.432-1.008-.432-.864 0-1.8.576-2.808 1.728-.072.144-.216.216-.288.288v-2.52zm-4.752 13.176c-.144 1.08-.216 2.016-.216 2.736 0 1.296.36 2.304 1.152 3.096.72.792 1.728 1.152 3.024 1.152h.792v2.88a15.4 15.4 0 01-4.176.576c-2.88 0-4.896-.72-5.976-2.088-1.152-1.368-1.656-3.024-1.656-4.824 0-2.808.792-5.688 2.448-8.496 1.656-2.88 3.96-5.112 6.768-6.84.864-.504 1.728-1.008 2.592-1.368v2.52c-1.8 2.16-3.312 5.184-4.536 9.288 1.584-.216 2.736-.576 3.6-.936.288-.144.648-.36.936-.576v2.16c-1.224.288-2.808.504-4.752.72zm29.088-14.406l-4.608 14.616c3.096-7.128 5.472-11.52 7.056-13.176.936-.936 1.872-1.44 2.952-1.44.648 0 1.224.288 1.656.792.504.504.72 1.296.72 2.232 0 1.728-.432 3.168-1.224 4.248-.504.792-1.08 1.152-1.728 1.152s-1.152-.36-1.512-1.008c-.288-.648-.576-1.008-.72-1.152-.072-.144-.216-.144-.432-.144-.144 0-.288 0-.504.144-.36.216-.864.72-1.44 1.512-.648.864-1.368 2.16-2.232 4.104-.864 1.872-1.584 3.528-2.088 4.824-.432 1.368-1.224 3.816-2.232 7.416h-6.408l4.968-17.208c.36-1.296.504-2.16.504-2.592s-.144-.792-.288-1.08c-.216-.288-.504-.432-.864-.576s-1.152-.144-2.232-.144l.216-.792 8.712-1.728h1.728zm22.9-6.33l-2.16 7.056h2.952l-.864 3.024h-3.024l-4.752 15.264c-.288.936-.432 1.656-.432 2.16 0 .144.072.288.216.432.216.144.36.144.576.144.288 0 .576-.072.864-.36.864-.576 1.8-1.656 2.808-3.168l.936.576c-1.152 2.088-2.52 3.6-3.96 4.608-1.44.936-2.88 1.44-4.248 1.44-1.224 0-2.16-.288-2.808-.864-.648-.648-.936-1.368-.936-2.304 0-1.008.216-2.304.72-3.816l4.392-14.112h-3.312l.504-1.944c2.088-.792 3.96-1.8 5.472-2.88 1.584-1.08 3.456-2.808 5.688-5.256h1.368zm24.76 6.69l-5.184 17.28-.504 2.16c-.072.216-.072.432-.072.576 0 .216.072.36.216.504s.288.216.432.216c.36 0 .864-.216 1.512-.792.216-.216.864-1.008 1.8-2.376l.936.432c-1.224 2.304-2.52 3.888-3.96 4.896-1.368 1.08-2.88 1.584-4.464 1.584-1.008 0-1.728-.288-2.232-.792-.576-.504-.792-1.08-.792-1.872 0-.72.288-1.944.864-3.816l.576-2.088a37.687 37.687 0 01-2.232 3.528v-2.16c.792-1.08 1.512-2.304 2.232-3.672 1.656-3.24 2.52-6.12 2.52-8.64 0-1.44-.288-2.448-.72-3.096a1.415 1.415 0 00-1.224-.648c-.576 0-1.152.288-1.728.792-.36.36-.72.792-1.08 1.296v-3.24c.792-.288 1.584-.432 2.304-.432.936 0 1.728.288 2.376.864.576.576 1.008 1.584 1.296 3.096l.936-3.24 6.192-.36zm-13.104 19.44c-1.224 1.656-2.448 2.952-3.6 3.816-1.08.792-2.232 1.224-3.456 1.224-1.584 0-2.736-.648-3.456-1.944-.72-1.368-1.08-2.808-1.08-4.464 0-2.448.792-5.256 2.304-8.424s3.456-5.688 5.904-7.632c1.152-.936 2.304-1.584 3.384-1.944v3.24c-.864 1.224-1.728 2.952-2.664 5.256-1.368 3.312-2.088 6.12-2.088 8.496 0 .936.144 1.584.504 2.016.288.432.648.576 1.008.576.72 0 1.512-.432 2.376-1.296l.864-1.08v2.16zm56.954-31.75l-8.856 29.088c-.576 1.8-.864 2.88-.864 3.312 0 .144.072.36.216.504s.288.144.432.144c.288 0 .648-.144 1.008-.432.648-.432 1.44-1.368 2.304-2.736l.936.504c-2.448 4.248-5.112 6.408-8.064 6.408-1.008 0-1.8-.288-2.376-.792a2.884 2.884 0 01-.864-2.088c0-.864.216-2.016.72-3.456l.792-2.664c-.72 1.224-1.44 2.376-2.088 3.384v-2.016c.936-1.224 1.872-2.88 2.808-4.896 1.44-3.24 2.16-5.832 2.16-7.776 0-1.08-.216-1.8-.648-2.304s-.936-.72-1.44-.72c-.576 0-1.224.288-1.872.864-.288.288-.648.648-1.008 1.08v-3.096c.792-.216 1.584-.36 2.376-.36.72 0 1.296.144 1.872.432.504.288 1.152.792 1.8 1.584l2.016-6.408c.504-1.656.792-2.808.792-3.528 0-.432-.144-.792-.504-1.08-.36-.36-.864-.504-1.44-.504-.288 0-.648.072-1.008.072l.216-.936 8.928-1.584h1.656zm-16.704 31.176c-1.296 1.944-2.52 3.384-3.6 4.176-1.224.936-2.376 1.44-3.528 1.44-1.296 0-2.448-.504-3.312-1.584-.936-1.08-1.368-2.592-1.368-4.608 0-2.592.576-5.184 1.728-7.704s2.52-4.608 4.032-6.264 2.952-2.88 4.392-3.6c.504-.288 1.08-.504 1.656-.72v3.096c-.936 1.296-1.872 3.096-2.88 5.544-1.368 3.384-2.088 6.192-2.088 8.496 0 .792.144 1.44.432 1.8.36.432.648.648 1.008.648.648 0 1.296-.288 1.872-.864.576-.504 1.08-1.08 1.656-1.872v2.016zm26.854 2.164c.936-.072 1.872-.36 2.88-.72 1.224-.576 2.664-1.44 4.248-2.736l.792.648c-1.944 2.232-3.888 3.888-5.832 4.824-.648.36-1.368.648-2.088.864v-2.88zm0-20.16c2.016-.792 4.032-1.224 5.976-1.224 1.512 0 2.592.36 3.312 1.008.792.72 1.152 1.584 1.152 2.664 0 1.296-.36 2.52-1.08 3.672a12.556 12.556 0 01-3.816 3.96 18.682 18.682 0 01-5.184 2.304c-.144 0-.216.072-.36.072v-2.16c.504-.36 1.008-.792 1.512-1.296.792-.864 1.512-1.944 2.088-3.24.648-1.296.936-2.52.936-3.672 0-.504-.144-.864-.432-1.152s-.576-.432-1.008-.432c-.864 0-1.8.576-2.808 1.728l-.288.288v-2.52zm-4.752 13.176c-.144 1.08-.216 2.016-.216 2.736 0 1.296.36 2.304 1.08 3.096.792.792 1.8 1.152 3.096 1.152h.792v2.88a15.4 15.4 0 01-4.176.576c-2.88 0-4.896-.72-5.976-2.088-1.152-1.368-1.728-3.024-1.728-4.824 0-2.808.864-5.688 2.52-8.496 1.656-2.88 3.888-5.112 6.768-6.84.864-.504 1.728-1.008 2.592-1.368v2.52c-1.8 2.16-3.312 5.184-4.536 9.288 1.512-.216 2.736-.576 3.6-.936.288-.144.648-.36.936-.576v2.16c-1.224.288-2.808.504-4.752.72zm67.182-26.356l-2.592 11.232h-.936c-.144-3.096-.864-5.4-2.304-6.912-1.368-1.512-3.168-2.232-5.4-2.232-2.448 0-4.896 1.008-7.272 3.024-2.448 2.088-4.464 5.184-6.12 9.432-1.368 3.456-2.016 6.84-2.016 10.152 0 3.024.72 5.256 2.16 6.84 1.512 1.584 3.528 2.376 6.12 2.376 2.088 0 3.96-.432 5.688-1.368 1.728-.864 3.456-2.304 5.256-4.32h1.224c-2.16 3.168-4.32 5.472-6.552 6.768-2.16 1.296-4.824 1.944-8.064 1.944-4.248 0-7.632-1.296-10.224-3.888s-3.888-5.976-3.888-10.08c0-3.888 1.008-7.632 3.096-11.16s5.04-6.336 8.928-8.568c3.888-2.16 7.704-3.24 11.592-3.24 1.44 0 3.24.288 5.472.936 1.08.288 1.872.432 2.304.432.864 0 1.728-.432 2.592-1.368h.936zm12.81 11.95l-5.544 17.64c-.288.864-.432 1.368-.432 1.728 0 .144.072.288.216.36a.654.654 0 00.504.216c.72 0 1.8-.72 3.096-2.16 1.872-2.016 3.744-5.04 5.832-8.856l2.448-7.92 6.552-.288-5.184 17.28c-.432 1.512-.648 2.304-.648 2.52 0 .144.072.288.216.432s.288.216.432.216c.216 0 .432-.072.72-.288.576-.504 1.44-1.512 2.448-2.952l.936.576c-2.448 4.248-5.112 6.336-7.992 6.336-1.08 0-1.944-.288-2.592-.792-.504-.576-.864-1.296-.864-2.16 0-.936.216-2.088.648-3.528l1.296-4.464c-2.16 3.312-3.816 5.472-4.824 6.624-1.512 1.728-2.88 2.88-3.888 3.456-1.08.576-2.088.864-3.024.864s-1.728-.36-2.376-1.008c-.72-.648-1.008-1.512-1.008-2.52 0-.936.216-2.088.72-3.6l3.312-10.368c.432-1.728.72-2.88.72-3.456 0-.288-.072-.504-.216-.72-.144-.144-.36-.36-.648-.432-.288-.144-.72-.216-1.44-.216l.288-.936 8.784-1.584h1.512zm31.54-11.95l-4.608 15.624c1.296-1.512 2.376-2.448 3.24-2.952a5.895 5.895 0 012.88-.72c2.016 0 3.528.72 4.464 2.232 1.008 1.512 1.512 3.24 1.512 5.184 0 4.68-1.656 8.856-5.04 12.528-2.16 2.448-4.536 3.96-7.2 4.536v-2.592c.576-.576 1.224-1.368 1.872-2.304 1.008-1.512 1.872-3.384 2.592-5.616a20.49 20.49 0 001.08-6.552c0-1.224-.288-2.16-.792-2.808-.576-.648-1.152-.936-1.8-.936-1.152 0-2.088.576-2.952 1.728v-16.776l3.168-.576h1.584zm-4.752 36.432c-.936.216-1.872.36-2.88.36-2.808 0-5.76-.864-8.928-2.52l8.064-27.432c.432-1.296.648-2.16.72-2.736a1.15 1.15 0 00-.576-1.008c-.576-.36-1.368-.504-2.376-.504l.216-1.008 5.76-1.008v16.776l-.072.072c-.576.792-1.152 2.52-1.872 5.04l-3.528 12.024c.792.576 1.512.792 2.088.792.936 0 1.656-.144 2.232-.504.36-.288.792-.576 1.152-.936v2.592zm39.602-24.122l-5.184 17.28-.504 2.16c-.072.216-.072.432-.072.576 0 .216.072.36.216.504s.288.216.432.216c.36 0 .864-.216 1.44-.792.288-.216.864-1.008 1.872-2.376l.936.432c-1.224 2.304-2.52 3.888-3.96 4.896-1.368 1.08-2.88 1.584-4.464 1.584-1.008 0-1.728-.288-2.304-.792-.504-.504-.792-1.08-.792-1.872 0-.72.288-1.944.864-3.816l.648-2.088a37.687 37.687 0 01-2.232 3.528v-2.16a22.424 22.424 0 002.16-3.672c1.728-3.24 2.52-6.12 2.52-8.64 0-1.44-.216-2.448-.648-3.096-.288-.432-.72-.648-1.296-.648-.504 0-1.08.288-1.656.792-.36.36-.72.792-1.08 1.296v-3.24c.792-.288 1.512-.432 2.304-.432.936 0 1.728.288 2.304.864.648.576 1.08 1.584 1.368 3.096l.936-3.24 6.192-.36zm-13.104 19.44c-1.224 1.656-2.448 2.952-3.6 3.816-1.08.792-2.232 1.224-3.456 1.224-1.584 0-2.736-.648-3.456-1.944-.72-1.368-1.08-2.808-1.08-4.464 0-2.448.792-5.256 2.232-8.424 1.512-3.168 3.528-5.688 5.976-7.632 1.152-.936 2.304-1.584 3.384-1.944v3.24c-.864 1.224-1.8 2.952-2.736 5.256-1.296 3.312-2.016 6.12-2.016 8.496 0 .936.144 1.584.432 2.016.36.432.648.576 1.008.576.792 0 1.584-.432 2.376-1.296.36-.36.648-.72.936-1.08v2.16zm53.064-19.44l-5.112 17.28-.504 2.16c-.072.216-.072.432-.072.576 0 .216.072.36.216.504s.288.216.432.216c.36 0 .864-.216 1.44-.792.288-.216.864-1.008 1.872-2.376l.936.432c-1.224 2.304-2.592 3.888-3.96 4.896-1.368 1.08-2.88 1.584-4.464 1.584-1.008 0-1.8-.288-2.304-.792s-.792-1.08-.792-1.872c0-.72.288-1.944.864-3.816l.648-2.088c-.792 1.296-1.512 2.52-2.232 3.528v-2.16a22.424 22.424 0 002.16-3.672c1.728-3.24 2.52-6.12 2.52-8.64 0-1.44-.216-2.448-.648-3.096-.288-.432-.72-.648-1.296-.648-.504 0-1.08.288-1.656.792-.36.36-.72.792-1.08 1.296v-3.24c.792-.288 1.512-.432 2.304-.432.936 0 1.728.288 2.304.864.648.576 1.08 1.584 1.368 3.096l.936-3.24 6.12-.36zm-13.032 19.44c-1.224 1.656-2.448 2.952-3.6 3.816-1.08.792-2.232 1.224-3.456 1.224-1.584 0-2.736-.648-3.456-1.944-.72-1.368-1.08-2.808-1.08-4.464 0-2.448.72-5.256 2.232-8.424s3.528-5.688 5.976-7.632c1.152-.936 2.304-1.584 3.384-1.944v3.24c-.864 1.224-1.8 2.952-2.736 5.256-1.368 3.312-2.016 6.12-2.016 8.496 0 .936.144 1.584.432 2.016.36.432.648.576 1.008.576.792 0 1.584-.432 2.376-1.296.288-.36.648-.72.936-1.08v2.16zm31.242-31.75l-8.928 29.448c-.576 1.728-.792 2.808-.792 3.312 0 .144.072.36.216.504s.288.216.504.216c.288 0 .576-.072.864-.36.864-.648 1.8-1.728 2.808-3.24l1.008.432c-1.656 2.52-3.312 4.32-4.896 5.4-1.08.72-2.232 1.08-3.528 1.08-1.152 0-2.016-.288-2.736-.936-.648-.576-1.008-1.296-1.008-2.16 0-.648.216-1.656.648-3.096l7.344-23.976c.36-1.368.576-2.232.576-2.664 0-.36-.216-.72-.576-.936-.504-.36-1.296-.504-2.376-.504l.216-.936 9.072-1.584h1.584zm31.18.79l2.52 24.264 16.776-24.264h12.456l-.36.936c-1.656 0-2.952.36-3.816 1.08-.936.792-1.656 2.232-2.304 4.32l-6.48 22.608c-.432 1.44-.648 2.52-.648 3.24 0 .648.288 1.152.792 1.512.504.432 1.512.648 3.096.648l-.288.936h-17.568l.288-.936c1.872 0 3.312-.36 4.176-1.08.936-.72 1.656-2.16 2.304-4.32l6.552-22.896-20.16 29.232h-1.08l-3.168-29.736-6.768 23.4c-.216 1.008-.36 1.8-.36 2.448 0 .864.288 1.584.864 2.088.576.576 1.656.864 3.096.864l-.288.936h-11.664l.216-.936c1.44 0 2.52-.288 3.24-.864 1.296-1.008 2.304-2.448 2.88-4.536l7.632-26.064c-.72-.792-1.368-1.296-1.944-1.584-.648-.216-1.584-.36-2.952-.36l.288-.936h12.672zm42.91 11.16l-5.616 17.64c-.216.864-.36 1.368-.36 1.728a.55.55 0 00.144.36.654.654 0 00.504.216c.792 0 1.8-.72 3.168-2.16 1.8-2.016 3.816-5.04 5.832-8.856l2.448-7.92 6.624-.288-5.184 17.28c-.432 1.512-.648 2.304-.648 2.52 0 .144.072.288.144.432.144.144.288.216.432.216.288 0 .504-.072.72-.288.648-.504 1.44-1.512 2.521-2.952l.864.576c-2.448 4.248-5.112 6.336-7.992 6.336-1.08 0-1.944-.288-2.52-.792-.648-.576-.936-1.296-.936-2.16 0-.936.216-2.088.648-3.528l1.296-4.464c-2.232 3.312-3.816 5.472-4.824 6.624-1.584 1.728-2.88 2.88-3.96 3.456s-2.088.864-3.024.864-1.728-.36-2.376-1.008-1.008-1.512-1.008-2.52c0-.936.288-2.088.72-3.6l3.312-10.368c.504-1.728.72-2.88.72-3.456 0-.288-.072-.504-.216-.72-.144-.144-.288-.36-.576-.432-.288-.144-.792-.216-1.44-.216l.216-.936 8.784-1.584h1.583zm28.59 0l-3.384 11.16c2.304-3.24 4.032-5.472 5.184-6.696 1.656-1.728 3.096-2.88 4.32-3.528s2.376-.936 3.456-.936c.936 0 1.8.36 2.448 1.08s1.008 1.728 1.008 2.88c0 .936-.216 2.088-.648 3.456l-3.6 10.944c-.288 1.008-.432 1.584-.432 1.872 0 .216.072.36.216.504s.288.216.36.216c.216 0 .36-.072.576-.216.648-.504 1.224-1.224 1.872-2.088.144-.288.36-.648.72-1.08l1.008.576c-2.592 4.176-5.256 6.336-8.136 6.336-1.08 0-1.944-.288-2.52-.864-.648-.576-.936-1.224-.936-2.088 0-.72.216-1.8.72-3.24l3.528-11.16c.216-.72.36-1.296.36-1.584 0-.216-.072-.36-.288-.504a.818.818 0 00-.576-.216c-.72 0-1.584.432-2.592 1.296-2.664 2.304-5.184 5.76-7.632 10.296l-2.232 7.704h-6.696l5.04-16.632c.432-1.656.72-2.808.792-3.528 0-.288-.145-.576-.288-.792-.144-.144-.36-.36-.72-.432-.36-.144-1.008-.216-1.944-.216l.288-.936 9.072-1.584h1.656zm44.64-11.95l-8.856 29.088c-.576 1.8-.864 2.88-.864 3.312 0 .144.072.36.216.504s.288.144.432.144c.288 0 .648-.144 1.008-.432.648-.432 1.368-1.368 2.304-2.736l.936.504c-2.448 4.248-5.112 6.408-8.064 6.408-1.008 0-1.8-.288-2.376-.792a2.884 2.884 0 01-.864-2.088c0-.864.216-2.016.72-3.456l.792-2.664c-.72 1.224-1.44 2.376-2.088 3.384v-2.016c.936-1.224 1.872-2.88 2.808-4.896 1.44-3.24 2.16-5.832 2.16-7.776 0-1.08-.216-1.8-.648-2.304s-.936-.72-1.44-.72c-.576 0-1.224.288-1.872.864-.288.288-.648.648-1.008 1.08v-3.096c.792-.216 1.584-.36 2.376-.36.72 0 1.296.144 1.872.432.504.288 1.152.792 1.8 1.584l2.016-6.408c.504-1.656.792-2.808.792-3.528 0-.432-.144-.792-.504-1.08-.36-.36-.864-.504-1.44-.504-.288 0-.648.072-1.008.072l.216-.936 8.928-1.584h1.656zm-16.704 31.176c-1.296 1.944-2.521 3.384-3.6 4.176-1.224.936-2.376 1.44-3.528 1.44-1.296 0-2.448-.504-3.312-1.584-.936-1.08-1.368-2.592-1.368-4.608 0-2.592.576-5.184 1.728-7.704s2.52-4.608 4.032-6.264 2.952-2.88 4.392-3.6c.504-.288 1.08-.504 1.656-.72v3.096c-.937 1.296-1.872 3.096-2.88 5.544-1.368 3.384-2.088 6.192-2.088 8.496 0 .792.144 1.44.432 1.8.36.432.648.648 1.008.648.648 0 1.296-.288 1.872-.864.576-.504 1.08-1.08 1.656-1.872v2.016zm31.384-19.226c1.368 0 2.664.288 3.816.936 1.224.648 2.16 1.512 2.736 2.664.648 1.08.936 2.376.936 3.744 0 2.808-.792 5.616-2.304 8.424-1.584 2.808-3.672 5.04-6.264 6.624-1.08.72-2.16 1.224-3.312 1.656v-2.592c.504-.72 1.08-1.656 1.656-2.808 1.152-2.16 2.016-4.608 2.736-7.2.72-2.664 1.08-5.04 1.08-7.272 0-.864-.216-1.584-.648-2.088s-.936-.72-1.512-.72c-.936 0-1.728.288-2.304.792-.36.288-.648.648-1.008 1.152v-2.52c1.44-.576 2.88-.792 4.392-.792zm-4.392 24.048c-1.44.504-2.952.792-4.464.792-2.376 0-4.176-.72-5.472-2.088-1.296-1.44-1.944-3.168-1.944-5.184 0-2.376.504-4.68 1.44-6.768 1.008-2.088 2.232-3.96 3.672-5.544a22.022 22.022 0 015.112-3.816c.576-.216 1.152-.504 1.656-.648v2.52c-.937 1.368-2.016 3.528-3.168 6.552-1.512 3.96-2.304 7.632-2.304 10.872 0 .792.288 1.44.72 1.944.504.504 1.08.792 1.728.792.72 0 1.296-.216 1.872-.648.36-.288.72-.72 1.152-1.368v2.592z" clip-rule="evenodd" fill="#004FA3" fill-rule="evenodd"/><path clip-rule="evenodd" fill="#EF3E33" fill-rule="evenodd" d="M0 0l36.504 169.99H141.77z"/><path clip-rule="evenodd" fill="#004FA3" fill-rule="evenodd" d="M12.168 0l40.536 48.672h80.926L93.168 0zM113.4 121.46l40.61 48.53h80.93l-40.47-48.53zM62.856 60.84l40.464 48.6h81.07l-40.61-48.6zm231.334 71.21l-4.1 10.37h14.9l8.43-20.74h-47.16l-19.59 48.31h47.09l8.42-20.73h-14.9l-4.18 10.36h-17.28l11.24-27.57zm41.76-10.59l-15.48 38.09h17.35l15.48-38.09h15.05l-19.65 48.53h-47.45l19.65-48.53zm161.71 48.53l15.48-38.09h-17.42l-15.41 38.09h-15.05l19.66-48.53h47.45l-19.66 48.53zm-102.74-28.8c1.08 0 2.016-.216 2.952-.648.864-.36 1.728-.936 2.448-1.584.648-.648 1.152-1.44 1.584-2.304v-.144l1.872-4.608h-10.512v-10.44H423l-6.48 16.488-.216.432c-.648 1.44-1.512 2.736-2.664 3.816a10.578 10.578 0 01-3.816 2.592c-1.008.432-2.088.72-3.096.864.144.144.36.288.504.432.72.792 1.44 1.728 1.872 2.88a8.7 8.7 0 01.72 3.456c0 1.224-.288 2.376-.72 3.456l-5.76 14.112h-10.08v-12.168l1.008-2.52c.144-.504.216-.936.216-1.44 0-.648-.072-1.296-.36-1.8a3.716 3.716 0 00-.864-1.368v-9.504h1.656zm-1.656-9.288h-6.84l-1.872 4.608-1.872 4.68h10.584v9.504l-.072-.072c0-.072 0-.072-.072-.072-.432-.432-.936-.792-1.44-1.008-.504-.288-1.152-.36-1.8-.36h-10.512l-4.176 10.368h17.28l.792-1.728v12.168h-37.368l19.728-48.528h17.64v10.44zm53.496 25.418h1.44l-1.44 3.456v9.216h11.304l19.656-48.528h-30.96v10.44h11.736l-6.12 14.976h-5.616v10.44zm-16.488-35.856l-19.656 48.528h15.048l5.112-12.672h15.984v-10.44h-11.736l6.048-14.976h5.688v-10.44h-16.488zm16.488 39.312v9.216h-3.744l3.744-9.216z"/></svg>