<svg viewBox="0 0 129.19 37.588" xmlns="http://www.w3.org/2000/svg"><path d="M33.909.133s1.46-.142 1.96-.086c.58.066 1.75.542 2.33.607.485.055 1.506.33 1.992.303.603-.032 1.598-.693 2.486-.537 4.661.821 11.784 9.212 16.513 9.008C67.724 9.06 67.525.004 69.783.004h21.835c-12.801 5.892-21.532 12.455-17.005 16.29 4.146 3.511 16.615-.867 16.615-.867s-5.198 5.178-14.168 5.178c-17.35 0-29.006-14.754-37.627-18.327C38.065 1.712 35.451.62 33.908.133" fill="#529fc9"/><path d="M52.236 28.145l2.925 4.222-3.412 4.972h2.177l2.275-3.249 2.437 3.249h2.339l-3.542-4.972 2.86-4.222h-2.21l-1.722 2.55-1.917-2.55h-2.21m10.181 9.194h1.843v-9.194h-1.843v9.194zm6.543-2.978l1.438-4.035 1.518 4.035H68.96zm2.382-6.216h-1.95l-3.639 9.194h1.905l.796-1.953 3.96.003.683 1.95h2.014l-3.77-9.194m4.745 9.194l.91-9.194h2.177l2.697 5.49 2.664-5.49h2.177l.816 9.194h-1.822l-.52-6.304-3.379 6.467-3.151-6.499-.618 6.336h-1.95m19.377-9.194h-5.847v9.194h6.121V36.11h-4.443v-2.877h3.466v-1.255h-3.466v-2.643h4.169v-1.19m2.329 0v9.194h1.733v-6.444l5.63 6.444h1.085v-9.194h-1.732v5.871l-5.07-5.871h-1.646m-73.264 9.389h.67V27.387h-.67v10.147zm13.291 0h.671V27.387h-.671v10.147zm-26.71 0h.67V27.387h-.67v10.147zm6.292-8.756v-1.097h4.025c.473 0 .838.145 1.091.435.25.287.376.67.376 1.152v6.545c0 .482-.068.838-.202 1.068-.262.436-.626.653-1.098.653h-.4l-.92-1.079h1.158c.133.004.26-.07.386-.223.091-.112.137-.298.137-.554V29.5c0-.482-.208-.723-.624-.723h-3.928zm-3.827 8.756v-7.933h.94v7.933h-.94zm0-9.108v-.691l.83-.144v.554c0 .113.125.278.301.278l2.112-.009v.76l-2.215.008c-.644 0-1.028-.42-1.028-.756m18.027 9.034l-.682-.587c.292-.077.492-.404.552-.468.112-.116.177-.46.177-.765v-3.647c0-.457.062-.655.17-.85.106-.198.255-.354.447-.467.16-.096.42-.168.552-.173l1.201-.006a.999.999 0 01.767.322c.256.272.385.629.385 1.067l-.008 3.444c0 .456.008.803.038.89.051.145.146.29.267.29h1.01l-.391.863c-.829.048-1.177.032-1.401-.178a1.58 1.58 0 01-.462-1.099l.008-3.315c0-.539.01-.815-.027-.889-.104-.198-.235-.297-.391-.297l-.689-.008a.498.498 0 00-.335.107c-.132.104-.198.224-.198.354l.004.245-.008 3.124c0 .538-.041.919-.122 1.146-.112.318-.542.866-.864.897zm-.573-7.736v-.8h1.928l-.656-1.334h1.22l.716 1.333h1.947v.801h-5.155zm-2.364 1.93s-.22-.624-.266-.947a11.371 11.371 0 01-.063-.862l.813-.056s.014.47.072.831c.046.292.067.469.235.935l-.791.099zm.03 3.715s-.18-.645-.225-.97c-.042-.293-.117-1.061-.117-1.061l.737-.054s.054.613.113.974c.048.29.102.323.282 1.012l-.79.099zm-.6-3.338h1.734l-.005-2.372c0-.147-.034-.251-.101-.31-.048-.036-.141-.058-.28-.058h-1.086c-.175 0-.263.163-.263.49v2.25zm-.82 5.429l-.699-.55c.277-.234.624-.512.634-1.12l.005-2.68h-.649v-1.079h.649v-2.243c0-.418.036-.675.036-.781 0-.425.599-.741 1.079-.741l.308-.706h1.035l-.295.721.354-.006c.295 0 .53.11.707.327.162.204.243.468.243.795v2.634h.387v1.08h-.387v3.18c0 .335-.058.588-.172.76-.177.265-.436.394-.778.39l-.578-.01-.54-1.044h.92c.19-.004.295-.164.295-.418v-2.858h-1.735v2.562c0 1.05-.244 1.294-.818 1.787m17.97-3.898h3.285v-.945h-7.766v.945h3.542v2.981h-4.395v.766h9.558v-.766h-4.224v-2.98m3.914-4.873a1.09 1.09 0 00-.828-.34h-3.08v-.676h-.945v.677h-3.329c-.265 0-.507.116-.726.344-.227.238-.34.567-.34.988v.829h.939v-.496a.63.63 0 01.127-.392.454.454 0 01.365-.193h1.524c-.04.211-.233.775-.818 1.362-.344.342-1.405 1.281-1.876 1.473h2.046c.357-.273.659-.479 1.275-1.209.241-.283.666-.808.895-1.62h.901l-.007 1.338s-.053.91.52 1.163c.196.09.625.11 1.112.106l2.023-.005.003-.926-1.607-.002s-.425.045-.752-.073c-.257-.094-.2-.37-.2-.712v-.895h1.621c.156 0 .285.065.39.193a.668.668 0 01.159.419v.469h.934v-.905c0-.382-.11-.688-.326-.917M0 37.241l1.01.18c.264-.354.396-.804.396-1.35v-6.575c0-.467.2-.701.605-.701H9.53v-1.097h-7.6c-.275 0-.497.035-.665.105a1.174 1.174 0 00-.417.32c-.254.285-.381.645-.381 1.086v6.992c0 .397-.125.782-.467 1.04" fill="#244584"/><path d="M5.976 35.945s-.497-.3-.954-.598l-1.35-.008c.08-.1.156-.195.246-.292h3.856l-1.798.898zm-2.578-2.873v-.176h4.766v.151c0 .165-.076.246-.228.246H3.509c-.074 0-.111-.075-.111-.221zm0-1.144h4.766v.383H3.398v-.383zm0-.823c0-.156.074-.234.223-.234h4.34c.135 0 .203.078.203.234v.145H3.398v-.145zm5.177 5.73c-.253-.023-.77-.177-1.239-.476.702-.34 1.178-.702 1.351-.826a.721.721 0 00.31-.62.611.611 0 00-.142-.413c-.125-.144-.366-.218-.721-.218h-3.47l.127-.224h3.49c.443 0 .666-.255.666-.765v-2.527a.76.76 0 00-.184-.502.678.678 0 00-.285-.187H6.142l.31-.293H9.53v-.788h-7.6v.788h3.482l-.279.293H3.088a.544.544 0 00-.427.187c-.129.14-.192.328-.192.567v2.508c0 .218.07.4.213.549.104.113.25.17.436.17h.168c-.186.44-1.186 1.49-1.59 1.797l1.506.013c.167-.162.284-.299.387-.427.757.626 1.082.848 1.082.848a6.578 6.578 0 01-2.61.587h-.177v.712c1.676 0 2.825-.249 4.134-.779.769.476 1.613.62 1.938.668.4.063.867.1 1.402.111v-.712c-.126-.008-.246-.013-.361-.018a5.55 5.55 0 01-.422-.023m101.847-2.711l1.896-4.754 1.787 4.754h-3.683zm2.405-5.98h-1.17l-3.747 9.195h1.278l1.017-2.458h4.204l1.017 2.458h1.3l-3.899-9.194m5.567 9.194h1.02v-9.194h-1.02v9.194zm4.724-5.295v-3.078l2.62.023c.736 0 1.407.672 1.407 1.538 0 .716-.497 1.537-1.516 1.537l-2.511-.02zm3.271.801c.648 0 1.861-1.04 1.861-2.34 0-1.278-1.082-2.36-1.992-2.36h-4.18v9.194h1.06v-4.517h2.059l2.86 4.517h1.126l-2.794-4.494" fill="#244584"/></svg>