<svg width="340.01" height="45.621" version="1.0" viewBox="0 0 906.71 121.05" xmlns="http://www.w3.org/2000/svg"><defs><clipPath id="a"><path d="M12.496 12.496h612.28v858.9H12.496v-858.9z"/></clipPath></defs><g clip-path="url(#a)" transform="matrix(4.3759 0 0 -4.3759 -1830.966 3563.172)" fill="#3a3781"><path d="M522.8 804.52c0 .507.07.572 1.538.572 2.62 0 3.775-1.332 3.775-2.741 0-1.202-.541-1.824-1.178-2.201-.684-.391-1.582-.461-2.436-.461-1.205 0-1.555.034-1.629.091-.07.067-.07.264-.07.584v4.156zm-1.937-7.995c0-1.868-.05-2.096-1.418-2.219l-.589-.057c-.14-.123-.094-.393.046-.443a82.54 82.54 0 005.764 0c.142.05.186.354.048.443l-.494.057c-1.371.139-1.42.351-1.42 2.219v2.24c0 .372.049.389 1.113.389.939 0 1.319-.178 1.676-.565.73-.803 1.697-2.026 2.312-2.684 1.68-1.799 2.88-2.247 4.893-2.247.449 0 .826.039 1.036.098.122.063.097.207-.023.244-.637.043-1.231.235-1.63.497-1.604 1.017-2.857 2.438-4.749 4.731-.118.141-.231.319-.118.425 1.18.359 2.954 1.278 2.954 2.966 0 1.247-.828 2.05-1.961 2.493-1.087.446-2.478.536-3.946.536-2.313 0-3.943-.059-5.265-.145-.19-.074-.19-.359-.022-.447l.756-.066c.967-.091 1.037-.397 1.037-2.085v-6.38zm-3.573-2.295c-.786 0-1.275.068-1.466.217-.196.146-.288.514-.288 1.107v8.122c0 .584.092.956.288 1.1.191.152.68.222 1.466.222.454 0 .677.078.677.235 0 .174-.149.258-.451.258h-.526l-.932-.023-1.605-.065h-1.306l-.251.088h-1.454c-.303 0-.453-.084-.453-.258 0-.157.224-.235.677-.235.788 0 1.274-.07 1.465-.222.192-.144.289-.516.289-1.1v-8.122c0-.593-.097-.961-.289-1.107-.133-.105-.333-.197-.838-.197-.321 0-.522.141-.722.291-.288.218-.612.629-.985 1.243l-5.385 9.449c-.167.309-.267.487-.302.518-.034.036-.101.055-.201.055-.118 0-.197-.026-.241-.078a4.397 4.397 0 01-.264-.495l-5.16-9.449c-.35-.637-.651-1.058-.892-1.262-.245-.206-.597-.305-1.045-.305-.469 0-.765-.02-.882-.055-.12-.031-.174-.095-.174-.192 0-.169.149-.252.449-.252l.755.065 1.08.029h1.076l2.237-.094c.371 0 .555.09.555.263a.195.195 0 01-.103.177c-.065.039-.332.059-.801.059-1.069 0-1.602.233-1.602.708 0 .245.082.509.245.787l.93 1.801c.12.232.227.377.327.433.1.052.286.084.553.084h4.308c.404 0 .658-.032.77-.084.103-.061.247-.228.413-.519l1.12-1.959a4.97 4.97 0 00.212-.455c.021-.076.035-.169.035-.284 0-.19-.11-.334-.331-.4-.217-.078-.633-.112-1.248-.112-.526 0-.787-.086-.787-.247 0-.169.194-.252.579-.252l2.578.094h2.772l2.212.009 2.809-.087h.333c.302 0 .451.087.451.256 0 .157-.223.24-.677.24m-11.361 4.34h-3.731c-.215 0-.375 0-.477.009-.097.012-.155.044-.176.112l.191.322 1.887 3.556c.115.217.219.328.316.328.095 0 .199-.111.314-.335l2.062-3.617.085-.243c0-.092-.159-.132-.471-.132m33.291-4.99c-.086-.106-.21-.151-.37-.151a.495.495 0 00-.372.17l-6.6 10.113c-.416.638-.723 1.022-.917 1.143-.192.124-.597.185-1.219.185-.252 0-.378.071-.378.224 0 .15.126.224.378.224h.454c.506-.06 1.227-.088 2.17-.088h1.057c.542.056.933.088 1.188.088h.401c.336 0 .505-.085.505-.256 0-.19-.169-.286-.505-.286-.456 0-.772-.021-.935-.066-.172-.052-.257-.146-.257-.289 0-.205.096-.438.296-.71l5.462-8.375 2.146 3.149c.117.233.177.414.177.55a.685.685 0 01-.072.298c-.052.1-.169.309-.346.623l-2.501 3.834c-.299.441-.548.72-.747.828-.201.11-.573.158-1.127.158-.264.018-.395.113-.395.286 0 .171.131.256.395.256h.754c.529-.06 1.272-.088 2.214-.088.717 0 1.309.028 1.775.088h.427c.329 0 .496-.093.496-.284 0-.093-.058-.162-.174-.199-.114-.037-.335-.059-.664-.059-.573 0-.86-.136-.86-.412 0-.128.097-.345.287-.653l1.875-2.86 1.912 2.868c.193.3.292.526.292.684 0 .25-.271.373-.797.373-.324 0-.533.018-.626.053a.21.21 0 00-.146.21c0 .186.171.279.512.279h.426c.537-.06 1.238-.088 2.099-.088l.982.088h.43c.219 0 .329-.072.329-.211 0-.222-.268-.331-.8-.331-.449 0-.813-.088-1.095-.269-.283-.186-.602-.528-.949-1.038l-1.506-2.264c-.325-.46-.486-.793-.486-.988 0-.166.123-.445.363-.841l2.385-3.895 4.741 8.075c.212.386.313.662.313.826a.384.384 0 01-.274.392c-.183.061-.561.096-1.146.096-.263 0-.397.071-.397.209 0 .165.142.239.426.239h.376l.902-.088h2.462l.251.088c.3 0 .45-.088.45-.271 0-.177-.259-.271-.781-.271-.37 0-.684-.091-.944-.281-.262-.191-.542-.535-.844-1.026l-5.638-9.69a2.332 2.332 0 00-.231-.412c-.044-.051-.137-.078-.282-.078-.175 0-.347.131-.505.389l-2.958 4.709-3.264-4.977zm39.23 11.85a.734.734 0 01-.277.066c-.405 0-.749-.01-1.03-.032a5.707 5.707 0 01-.604-.056h-3.47c-.388 0-.577-.076-.577-.223 0-.151.233-.231.701-.231h.878c.448-.027.674-.16.674-.389 0-.204-.199-.509-.602-.918l-3.854-4.109-4.279 4.403c-.324.294-.482.524-.482.69 0 .275.423.417 1.265.417.523 0 .784.078.784.238 0 .144-.167.21-.503.21h-.302c-.321 0-.831-.018-1.541-.043a39.329 39.329 0 00-1.636-.045c-.087 0-.381.014-.883.045-.508.025-.954.043-1.339.043h-.48c-.318 0-.481-.066-.481-.21 0-.114.04-.179.116-.205.074-.022.284-.033.64-.033.583 0 1.014-.079 1.303-.242.282-.158.7-.532 1.251-1.119l4.093-4.141c.363-.394.549-.778.549-1.156v-2.831c0-.593-.1-.958-.293-1.107-.194-.149-.681-.232-1.469-.232l-1.082.002c-.453 0-.823.109-1.105.324-.285.218-.614.629-.982 1.243l-5.389 9.449c-.167.309-.267.487-.3.517-.038.037-.1.056-.203.056-.118 0-.199-.026-.238-.078a4.33 4.33 0 01-.265-.495l-5.161-9.449c-.353-.637-.65-1.059-.896-1.262-.242-.206-.59-.305-1.039-.305-.472 0-.767-.02-.884-.055-.117-.031-.178-.095-.178-.192 0-.169.153-.252.451-.252l.758.065 1.08.029h1.08l2.235-.094c.364 0 .546.09.546.263a.2.2 0 01-.095.177c-.067.039-.334.059-.802.059-1.067 0-1.602.233-1.602.708 0 .245.08.509.244.787l.927 1.801c.122.232.229.377.329.433.102.052.287.084.556.084h4.308c.4 0 .66-.032.768-.084.107-.061.244-.228.411-.519l1.121-1.959c.114-.229.183-.382.21-.455a.945.945 0 00.037-.284c0-.19-.11-.334-.332-.4-.22-.078-.634-.112-1.242-.112-.529 0-.792-.086-.792-.247 0-.169.193-.252.581-.252l3.08.094h3.324l3.673-.025 2.546-.053h.175c.299 0 .447.087.447.256 0 .157-.222.24-.672.24-.791 0-1.278.068-1.469.217-.193.149-.29.514-.29 1.107v2.56c0 .362.023.604.072.73.053.123.208.323.469.601l3.721 3.831c.638.626 1.183 1.059 1.632 1.306.446.248.92.367 1.425.367.54 0 .807.099.807.299 0 .072-.048.131-.147.177m-19.684-6.855h-3.726c-.219 0-.373 0-.475.008-.099.013-.156.045-.171.113l.183.322 1.89 3.556c.115.217.221.328.317.328.091 0 .2-.111.31-.335l2.058-3.617.094-.243c0-.092-.16-.132-.48-.132"/><path d="M586.94 803.4v-.198c0-.132-.085-.195-.249-.195-.155 0-.24.013-.266.051-.027.025-.224.426-.592 1.193-.367.769-1.404 1.155-3.117 1.155-1.041 0-1.875-.187-2.516-.566-.635-.377-.951-.867-.951-1.469 0-.654.301-1.132.903-1.435.605-.3 1.066-.509 1.384-.609.322-.113 1.148-.378 2.492-.801 1.339-.423 2.329-.906 2.956-1.457.628-.546.943-1.213.943-1.999 0-1.027-.598-1.893-1.786-2.596-1.194-.7-2.68-1.053-4.463-1.053-1.358 0-2.409.144-3.145.428-.737.285-1.136.482-1.186.594-.049.112-.074.387-.074.81 0 .761.025 1.254.074 1.475.05.219.176.328.378.328.136.014.226-.008.279-.085.048-.073.16-.616.325-1.627.17-1.013 1.427-1.52 3.777-1.52 1.146 0 2.098.235 2.871.709.771.474 1.155 1.072 1.155 1.788 0 .887-.369 1.516-1.117 1.889-.746.378-1.373.637-1.875.785l-.655.223-.683.195-.652.196c-2.402.749-3.598 1.745-3.598 2.993 0 .908.497 1.675 1.496 2.291.998.608 2.237.916 3.713.916.67 0 1.315-.038 1.937-.11a11.88 11.88 0 001.536-.266c.409-.11.602-.284.602-.529l.104-1.504zm-130.35 1.17c0 .499.071.57 1.538.57 2.626 0 3.785-1.336 3.785-2.743 0-1.211-.544-1.834-1.183-2.208-.686-.391-1.585-.463-2.437-.463-1.206 0-1.561.036-1.632.09-.071.07-.071.266-.071.587v4.167zm-1.941-8.013c0-1.871-.047-2.101-1.419-2.227l-.591-.053c-.142-.124-.094-.392.048-.445 1.112.035 1.962.053 2.956.053.947 0 1.751-.018 2.816-.053.142.053.189.355.048.445l-.497.053c-1.373.143-1.42.356-1.42 2.227v2.243c0 .373.047.392 1.113.392.945 0 1.325-.178 1.679-.571.732-.801 1.703-2.029 2.318-2.687 1.681-1.8 2.886-2.245 4.898-2.245.449 0 .828.035 1.041.089.118.07.094.214-.024.25-.639.036-1.23.231-1.633.497-1.608 1.017-2.862 2.441-4.755 4.738-.118.143-.237.32-.118.428 1.182.355 2.958 1.281 2.958 2.973 0 1.247-.829 2.048-1.965 2.494-1.088.445-2.483.534-3.951.534-2.318 0-3.95-.053-5.276-.143-.188-.07-.188-.356-.023-.445l.758-.071c.969-.089 1.039-.392 1.039-2.083v-6.393zm22.471 4.613c0 1.104-.043 3.153-.403 3.686-.148.214-.529.339-1.058.374l-.529.036c-.128.125-.086.356.042.428a51.873 51.873 0 012.413-.054c.89 0 1.46.017 2.222.054.169-.089.148-.322.042-.428l-.507-.036c-.529-.035-.952-.196-1.059-.427-.318-.588-.295-2.635-.295-3.633v-2.012c0-1.55-.297-3.188-1.482-4.255-.91-.838-2.478-1.302-4.045-1.302-1.461 0-2.922.232-3.959.98-1.124.784-1.653 2.084-1.653 4.203v4.203c0 1.852-.042 2.154-1.27 2.243l-.529.036c-.126.071-.085.374.043.428a70.071 70.071 0 015.565 0c.128-.054.17-.357.044-.428l-.509-.036c-1.229-.089-1.272-.391-1.272-2.243v-3.847c0-2.867.724-4.755 3.964-4.755 3.071 0 4.235 2.031 4.235 4.737v2.048z"/><path d="M483.68 793.6c-2.441 0-3.981.464-4.532.66-.349.391-.726 1.655-.785 2.493.146.124.583.161.699.053.435-.908 1.626-2.653 4.996-2.653 2.44 0 3.631.98 3.631 2.048 0 .783-.262 1.656-2.382 2.493l-2.76 1.104c-1.453.587-3.138 1.602-3.138 3.063 0 1.692 2.15 3.063 5.927 3.063.9 0 1.947-.089 2.701-.231.379-.054.785-.107 1.017-.107.262-.427.524-1.425.524-2.174-.117-.105-.582-.159-.727-.053-.377.855-1.162 2.012-3.951 2.012-2.847 0-3.457-1.157-3.457-1.977 0-1.031 1.394-1.762 2.47-2.189l2.323-.891c1.831-.696 3.632-1.727 3.632-3.419 0-1.958-2.411-3.295-6.188-3.295m-32.59 11.38c-1.113.516-2.579.713-4.542.713-1.176 0-2.174-.007-3.054-.039l-.271.001c-.803-.037-1.256-.016-1.989-.016s-1.421.017-2.272.054c-.189-.072-.213-.322-.047-.445l.426-.036c.568-.053.994-.179.994-.286 0-.214-.875-1.425-1.538-2.35a63.458 63.458 0 00-2.225-3.01c-.922 1.229-1.797 2.635-2.673 3.953-.117.179-.733 1.193-.733 1.372 0 .142.166.213.994.321l.308.036c.141.106.141.391-.071.445a34.816 34.816 0 00-1.821-.051c-.719-.003-1.453.004-2.138.098l-.001-.001c-.895.111-1.87.185-2.653.185-2.46 0-4.661-.498-6.388-1.514-1.798-1.051-2.98-2.742-2.98-4.718 0-2.298 1.466-3.918 3.359-4.898 1.727-.873 3.762-1.194 5.891-1.194 1.514 0 3.218.268 3.738.409.259.072.544.144.827.179.355.338.97 1.514 1.136 2.44-.095.124-.449.161-.615.071-.544-1.05-1.893-2.546-4.944-2.546-3.88 0-6.69 2.067-6.69 5.805 0 3.686 2.739 5.413 6.358 5.413.602 0 1.129-.043 1.594-.12l.003-.003.104-.015c.799-.144 1.403-.317 1.861-.697.192-.155.351-.416.567-.732l2.792-4.095c.686-.997.757-1.229.757-2.208v-.908c0-1.907-.048-2.155-1.42-2.262l-.733-.054c-.142-.107-.096-.392.047-.445 1.254.036 2.106.053 3.1.053.945 0 1.75-.017 3.218-.053.14.053.188.338.046.445l-.898.054c-1.278.071-1.421.355-1.421 2.262v.926c0 1.371.048 1.548 1.112 2.884l1.491 1.942c1.034 1.338 1.669 2.345 2.68 2.713.132.048.309.066.464.06.64-.025.94-.477.94-1.99v-6.571c0-1.871-.048-2.084-1.42-2.226l-.497-.054c-.141-.107-.094-.392.047-.445 1.041.036 1.894.053 2.888.053.946 0 1.726-.017 3.074-.053.143.053.19.356.048.445l-.639.054c-1.514.125-1.562.355-1.562 2.226v7.942c0 .57.025.641 1.278.641 2.46 0 3.81-1.121 3.81-2.849 0-1.55-.924-2.636-3.478-2.992-.143-.036-.143-.303.023-.355.97 0 2.225.158 3.266.534 1.016.373 2.365 1.192 2.365 2.831 0 1.229-.805 2.155-1.893 2.671"/></g><path d="M792.931 57.868l-9.08-9.08h58.07l-9.082 9.08h-39.908zm12.14 11.605l-9.08-9.086h34.335l-9.086 9.086h-16.169z" fill="#e5c800"/><path d="M882.723 25.015h-9.086v47.07h-67.872l-49.068 49.073h12.843l39.988-39.987h60.162l-17.978 17.973h-34.47l-9.081 9.076h47.314l27.248-27.238V34.101h14.091l4.831-9.086h-18.922z" fill="#e5c800"/><path d="M878.35-.499h-59.641l9.081 9.086h41.479l-28.253 28.247h-69.313l9.081 9.081h64l35.151-35.146 22.337 12.6 4.39-7.947L878.35-.498z" fill="#e5c800"/></svg>