<svg width="752" height="175" version="1.0" viewBox="0 0 667.28 913.89" xmlns="http://www.w3.org/2000/svg"><path fill="#d71920" d="M-1528.145 743.425h-73.779l151.37-227.055h109.692v227.543h-71.517v-45.49h-88.01l-27.756 45.002"/><path fill="#fff" d="M-1407.457 571.97v72.271h-57.462l43.096-71.827 14.366-.444"/><path fill="#d71920" d="M-704.3 742.494h-73.78l151.37-227.055h109.737v227.543h-71.517v-45.49h-88.011l-27.8 45.002"/><path fill="#fff" d="M-583.613 571.04v72.27h-57.506l43.096-71.827 14.41-.444"/><path fill="#d71920" d="M-1297.455 742.938h67.571l58.881-226.08h-70.408l-56.044 226.08m1865.3-2.794h67.394l58.97-226.168H623.71l-55.866 226.168M-905.53 579.58s2.882-54.58-48.86-63.713l-165.73-.488-60.477 227.54h70.94l23.056-83.355h10.109l70.275 83.355h80.473l-68.369-92.489s82.38 8.602 88.587-70.852m-100.6 34.938l-70.142.488 12.237-49.924 56.398-1.108v.532c.532 0 .975-.266 1.508-.266 15.119 0 27.312 11.262 27.312 25.14 0 13.922-12.193 25.14-27.312 25.14zM544.4 578.16s2.882-54.58-48.86-63.758l-165.69-.488-60.477 227.54h70.896l23.1-83.355h10.02l70.364 83.355h80.473l-68.369-92.4s82.38 8.557 88.543-70.896m-100.6 34.938l-70.098.488 12.237-49.924 56.353-1.108v.576c.576-.089 1.02-.355 1.508-.355 15.074 0 27.311 11.306 27.311 25.14 0 13.966-12.237 25.184-27.312 25.184zm-915.903 129.842l53.161-226.08h74.843l-40.702 166.223h102.51l-13.036 59.857h-176.776M7.96 525.09s-242.13-70.541-265.14 116.96c0 0-10.02 171.76 215.57 81.493l25.14-102.38-79.275-.177-16.272 67.438s-71.118 26.824-68.99-39.638c0 0-1.419-97.454 173.18-67.216l15.784-56.486m61.086-9.157h60.3l23.055-27.268h82.025l-16.848 27.977h64.29l-12.415 48.151-146.315.754-6.65 30.904 133.457 2.837L239.3 648.1l-133.014-1.375-6.207 34.45h140.108l-15.075 59.68H13.044l55.999-224.927m681.475-2.883H968.66l-13.302 53.87H803.28l-8.867 32.279h131.24l-8.424 49.924-133.457 1.951-8.424 31.259H923.88l-9.754 58.792H695.982l54.536-228.075m202.181-345.836h49.215l-39.017 193.269h-48.772l38.574-193.27m-74.045.932h47.442L888.41 361.41H491.14l-11.971 60.387H304.034l3.547-38.795h130.354l3.99-21.593h-77.148l20.839-109.204h125.92l-9.311 64.644h55.422l12.858-64.644h57.196l9.311-84.065h54.536l-9.31 81.936h49.658l-6.208 66.773h124.147l4.434-25.804h-69.611l2.66-38.84h74.488l16.848-84.065"/><path fill="#fff" d="M614.843 289.581H674.7l-2.217 25.85h-61.187l3.547-25.85m-189.766 1.464h32.366l-4.433 25.804h-33.697l5.764-25.804"/><path fill="#d71920" d="M804.61 199.043h50.102l-7.094 38.796h-51.876l8.868-38.796m-1853.994 49.792h50.235l-7.138 38.796h-51.698l8.601-38.796m83.844 132.215h50.235l-7.139 38.797h-51.698l8.602-38.796M225.112 167.209h54.98l-14.189 84.064h58.083l-20.839 109.205H66.382l9.755-44.56h60.3l12.857-64.645h61.187l12.858-84.064"/><path fill="#fff" d="M202.057 290.114h57.639l-4.434 25.849h-58.526l5.32-25.85"/><path fill="#d71920" d="M-37.28 362.384h-50.28l40.215-193.269H.806l-38.086 193.27m-750.82-.4h-50.323l40.214-193.313h48.151L-788.1 361.985m-353.24-1.507h-50.28l40.17-193.27h48.196l-38.087 193.27M-69.38 167.209l-39.595 193.269H-272.05l-12.193 60.388H-448.78l7.183-38.84h120.023l4.3-21.548h-73.955l21.548-109.205h122.063l-11.484 64.645h105.657l7.139-25.804h-45.934l8.601-38.84h44.56l20.839-84.065h48.86"/><path fill="#fff" d="M-334.965 294.636h32.366l-4.345 25.85h-33.74l5.719-25.85"/><path fill="#d71920" d="M-218.356 419.89l7.227-38.795h48.816l-7.892 38.796h-48.151m-448.79-168.396h114.88l-11.44 62.517h62.562l15.784-62.517h49.57L-459.466 360.7H-624.76l2.129-16.538h-66.773l22.257-92.667"/><path fill="#fff" d="M-639.08 292.463h31.569l-2.882 22.968h-33.032l4.345-22.968"/><path fill="#d71920" d="M-1607.643 252.027h114.968l-11.483 62.517h62.516l15.785-62.517h49.57l-23.677 109.16h-165.203l2.083-16.493h-66.817l22.258-92.667"/><path fill="#fff" d="M-1569.601 287.63h31.613l-2.838 23.012h-33.12l4.345-23.011"/><path fill="#d71920" d="M-552.177 229.991l7.36-38.796H-650.83l-9.622 38.796h108.274m-940.719-1.241l7.316-38.796h-106.012l-9.577 38.796h108.273m84.775 190.387l7.138-39.195h-102.731l-9.311 39.195h104.904m936.197.71l7.182-38.796h-102.775l-9.311 38.796h104.904m-354.749-252.638l-38.84 193.269h-161.656l-12.193 60.388h-110.668l5.764-38.84h62.517l14.32-66.108h158.066l5.852-25.804h-50.367l5.72-38.84h57.506l19.42-84.065h44.56m-417.487 96.745l46.022-.931-18.222 91.957-46.954.931-15.341 63.226-109.205 2.926 6.74-43.096h64.157l12.414-61.364h51.787l8.602-53.649m-6.163-26.337h55.333l10.02-46.022h6.474l1.419-16.494-40.924-1.419-10.109 46.688-18.666 2.128-3.547 15.12M2297.2 456.95C2297.2 204.58 2028.91.01 1697.98.01s-599.22 204.57-599.22 456.94 268.29 456.94 599.22 456.94 599.22-204.57 599.22-456.94"/><path d="M1414.7 96.435s106.32 49.259 182.98 135.54c0 0 155.23 165.91 184.98 181.08 0 0-62.294 43.628-322.96-203.82 0 0-160.02 128-167.69 234.15h973.57l1.02 33.209h-976.45s7.626 92.888 156.2 231.35c0 0 217.48-191.54 337.28-209.58l6.695-.931s-79.542 67.349-132.3 127.12c0 0-147.51 153.54-254.81 190.52 0 0-395.8-168.79-231.98-512.94 0 0 57.107-119.89 243.46-205.68" fill="#fff"/><path d="M1590.6 36.446c606.36-61.23 674.24 392.48 674.24 392.48s-184.84 37.465-365.96-171.81c0 0-111.38-118.78-143.43-143.26 0 0-56.619-58.393-141.7-71.738l-23.144-5.675m2.794 838.077c606.45 59.945 674.24-384.01 674.24-384.01s-184.84-36.623-365.92 168.04c0 0-111.42 116.21-143.48 140.24 0 0-56.575 57.107-141.66 70.187l-23.189 5.542M784.658 291.045l21.282-95.593-10.198.71-22.169 95.592 9.311-.71" fill="#fff"/><path fill="#231f20" d="M-2.532 747.51H544.52"/></svg>