<svg viewBox="0 0 1000 154" xmlns="http://www.w3.org/2000/svg"><style>.st0{fill:#98002e}</style><path class="st0" d="M185.7 137.6l-89.3-43V0l89.3 137.6zm7.1 16.4l-96.4-40.7V154h96.4z"/><path d="M7.1 137.6L96.4 0v94.6l-89.3 43M0 154h96.4v-40.7L0 154" fill="#e31837"/><path class="st0" d="M200.6 125.8c3.5 0 6.4 2.8 6.4 6.3s-2.8 6.4-6.3 6.4-6.4-2.8-6.4-6.3c0-3.6 2.8-6.4 6.3-6.4zm0 11.7c3 0 5.4-2.4 5.4-5.4s-2.4-5.4-5.4-5.4-5.4 2.4-5.4 5.4 2.4 5.4 5.4 5.4zm-1.4-1.7h-.9v-7.3h2.8c1.7 0 2.3.7 2.3 2 .1 1.1-.8 2-1.8 2.1l2.2 3.2h-1l-2.2-3.2h-1.3l-.1 3.2zm0-4.1h1.2c1 0 2.1-.1 2.1-1.3 0-.9-.9-1.2-1.6-1.2h-1.6v2.5z"/><path d="M268.1 137.6h43.3c44.6 0 71.1-23.1 71.1-61.4S356 14.9 311.4 14.9h-43.3v122.7zm27.4-101.4h15.9c28.9 0 43.4 14.3 43.4 40s-14.5 40-43.4 40h-15.9v-80zm180.2 48.2h52.1V63.1h-52.1V36.2h58.9V14.9h-86.4v122.7h88.3v-21.3h-60.8zm217 31.9h-52.9V14.9h-27.5v122.7h80.4zm148-101.4H730.6v21.3h41.2v101.4h27.6V36.2h41.3zM1000 137.6h-28.7l-12-30.7h-49.9l-12 30.7h-26.8l51.3-123.2h27.7l50.4 123.2zm-48.5-51.3l-17.1-43.6-17.2 43.6h34.3z" fill="#003d79"/></svg>