<svg width="455.35" height="83.844" viewBox="-0.504 -0.878 455.35 83.844" xmlns="http://www.w3.org/2000/svg"><path d="M125.53 63.206l-12.461 19.402h7.654l12.283-19.402h-7.476zm26.346 0v19.402h6.408V63.206h-6.408zm18.868 0v19.402h-5.697V63.206h5.697zm14.063 0v19.402h-5.519V63.206h5.519zm50.199 0c-1.958 4.45-4.985 7.477-7.122 9.258-6.763 4.805-14.952 4.805-20.292 4.805H193.35v5.34h17.266c7.12 0 14.42-1.781 19.048-4.805 6.407-4.094 9.789-9.614 11.57-14.598h-6.23zm9.434 0c1.423 10.682 10.859 19.76 22.608 19.76 11.926 0 21.183-9.078 22.783-19.76h-5.695c-1.603 9.435-9.436 14.774-17.089 14.774-8.012 0-15.487-6.052-16.91-14.774h-5.698zm53.937 0v19.402h-5.696V63.206h5.696zm2.85 0c1.423 10.682 10.855 19.76 22.604 19.76 11.93 0 21.183-9.078 22.786-19.76h-5.697c-1.6 9.435-9.434 14.774-16.911 14.774-8.188 0-15.665-6.052-17.09-14.774h-5.693zm54.646 0v19.402h-5.517V63.206h5.517zm29.55 0v19.402h-5.695V63.206h5.695zm29.371 0v19.402h-5.516V63.206h5.516zm11.215 0v19.402h-5.517V63.206h5.517zm12.638 0v19.402h-5.516V63.206h5.516zm16.2 0v19.402h-5.695V63.206h5.695z" clip-rule="evenodd" fill="#021a31" fill-rule="evenodd"/><path d="M133 63.206l.356-.534h18.514v.534h6.408V25.468h-8.367l-24.388 37.738H133zm32.041 0V38.819h5.697v24.387h-5.697zm14.242 0V38.819h5.519v6.408c2.847-6.23 7.832-7.12 12.46-7.477v5.875c-3.917.355-7.3 1.779-9.436 4.45-1.958 2.314-3.025 5.517-3.025 8.9v6.23h-5.518zm61.947 0c1.424-3.916 1.78-7.477 1.78-9.791 0-7.12-3.027-18.334-13.35-24.744-4.63-3.026-11.929-4.805-19.049-4.805h-3.737l.178 4.984h.535c8.722 0 14.24 1.068 19.403 4.45 6.23 4.629 10.146 11.75 10.146 19.76 0 3.915-.89 7.297-2.136 10.145h6.23zm8.901 0c-.18-.89-.357-1.958-.357-2.849 0-11.57 9.436-18.158 17.269-18.158 7.652 0 17.443 6.055 17.443 17.625 0 1.246-.178 2.315-.355 3.382h5.695c.18-1.067.18-2.137.18-3.204 0-11.926-9.971-22.963-22.964-22.963-11.57 0-22.786 9.435-22.786 23.32 0 1.068 0 1.957.178 2.848h5.698zm42.544 0V25.468h5.696v37.738h-5.696zm14.24 0c-.178-.89-.355-1.958-.355-2.849 0-11.57 9.434-18.158 17.443-18.158 7.477 0 17.269 6.055 17.269 17.625 0 1.246-.18 2.315-.358 3.382h5.698c.177-1.067.177-2.137.177-3.204 0-11.926-9.968-22.963-22.963-22.963-11.571 0-22.785 9.435-22.785 23.32 0 1.068 0 1.957.18 2.848h5.694zm43.435 0V38.819h5.518v5.161c2.493-3.916 6.943-6.23 11.926-6.23 6.41 0 11.749 3.027 14.776 8.367 3.382-5.518 8.544-8.367 14.776-8.367 10.322 0 17.442 7.3 17.442 18.87v6.586h-5.517v-5.874c0-9.435-4.628-14.596-11.926-14.596-7.478 0-11.929 5.161-11.929 14.596v5.874h-5.695v-5.874c0-9.435-4.45-14.596-11.929-14.596-7.298 0-11.926 5.161-11.926 14.596v5.874h-5.517zm70.136 0V38.819h5.518v24.387h-5.518zm12.64 0V25.468h5.516v13.351h5.697v5.161h-5.697v19.226h-5.517zm16.02 0V38.819h5.696v24.387h-5.696zm-312.23-5.874l14.954-23.319v23.319h-14.954zm312.23-31.864h5.696v8.01h-5.696v-8.01zm-28.66 0h5.518v8.01h-5.518v-8.01zm-255.44-1.958h5.698v9.968h-5.698V23.51z" clip-rule="evenodd" fill="#021a31" fill-rule="evenodd"/><path d="M72.836-.878L38.657 38.285H-.505L33.673-.878h39.163zm0 81.886L38.657 42.023H-.505l34.178 38.985h39.163zM117.338 40.6L79.777 18.881 42.216 40.243l37.205 21.54 37.917-21.184z" clip-rule="evenodd" fill="#008e8f" fill-rule="evenodd"/></svg>