<svg viewBox="0 0 569.12 145.74" xmlns="http://www.w3.org/2000/svg"><path d="M54.033 113.421v-11.562H.006v43.332h54.027v-11.572H19.712v-4.771h34.321v-10.674H19.712v-4.753h34.321zm5.7-11.61h20.871l11.164 26.879 11.263-26.965h20.665l-20.046 43.453H79.823l-20.09-43.367zm103.7 43.37h20.42l-22.173-43.447h-23.827l-22.328 43.518h20.531l3.077-6.192h21.279l3.021 6.121m-18.877-17.062l5.242-10.588 5.221 10.588h-10.463zm95.577 17.062h20.428l-22.182-43.447h-23.835l-22.323 43.518h20.531l3.072-6.192h21.288l3.021 6.121m-18.886-17.062l5.247-10.588 5.221 10.588h-10.468zm46.086-26.308h20.145v43.367h-20.145v-43.367zm81.4 23.7c5.14 0 5.041-5.793 5.041-5.793v-7.484c0-9.523-10.063-10.395-10.063-10.395l-46.335-.021v43.365h20.161V130.23h13.377c2.793 0 2.737 2.793 2.737 2.793v12.16h20.148v-12.16c-.01-7.005-5.066-7.512-5.066-7.512m-17.361-6.454h-14.064v-6.3h14.064a3.151 3.151 0 010 6.3z" fill="#038341"/><path d="M470.733 21.893L416.92 90.664c7.438 20.049 26.357 33.351 47.973 33.351 28.248 0 51.229-22.985 51.229-51.229 0-26.151-19.719-47.984-45.389-50.893z" fill="#fff"/><path d="M559.633 0l-50.771 145.72h9.477L569.109 0h-9.476z" fill="#ec671d"/><path d="M484.733 36.966a54.734 54.734 0 019.827 16.028 87.687 87.687 0 0011.438-5.156 48.541 48.541 0 00-16.299-16.26 30.357 30.357 0 01-4.966 5.388zm13.6 34.995h14.618a48.175 48.175 0 00-6.132-22.71 89.369 89.369 0 01-11.671 5.285 53.539 53.539 0 013.185 17.425zm-13.5 36.74a29.544 29.544 0 014.864 5.293 48.492 48.492 0 0016.361-16.307 88.371 88.371 0 00-11.325-5.127c-2.316 5.947-5.685 11.389-9.9 16.141zm-48.8-18.23a85.942 85.942 0 0112.467-3.335 79.852 79.852 0 01-1.255-13.536m36.488 36.321a54.293 54.293 0 01-14.297 10.756c6.781-.637 13.141-2.699 18.839-5.865a30.785 30.785 0 00-4.542-4.891zm-38.8-1.21c-4.207-4.739-7.575-10.17-9.884-16.131a86.476 86.476 0 00-11.355 5.135 47.847 47.847 0 0016.357 16.324 30.717 30.717 0 014.882-5.328zm-3.5 6.14a48.1 48.1 0 0018.809 5.813c-5.389-2.826-10.205-6.44-14.24-10.738a30.555 30.555 0 00-4.569 4.925zm42.2-79.102a29.606 29.606 0 004.623-4.997 47.388 47.388 0 00-18.92-5.861 53.325 53.325 0 0114.297 10.858zm-19.6 8.489a30.005 30.005 0 01-9.17-1.698 79.497 79.497 0 00-4.403 14.516c4.469.748 9.007 1.177 13.573 1.22V44.238zm11.8-3.722a28.276 28.276 0 006.569-3.73 52.52 52.52 0 00-14.761-10.97l-.061.103a81.397 81.397 0 018.253 14.597zm-11.8 60.815V87.249a86.604 86.604 0 00-13.596 1.238 78.22 78.22 0 004.388 14.522 30.987 30.987 0 019.208-1.678zm-8.6 3.2a78.403 78.403 0 008.568 14.928v-16.475a28.9 28.9 0 00-8.568 1.547zm10.2 14.96a78.875 78.875 0 008.603-14.98 28.687 28.687 0 00-8.603-1.542v16.522zm10.8-15.92a29.892 29.892 0 017.081 4.096 51.921 51.921 0 009.612-15.676c-3.996-1.365-8.088-2.475-12.237-3.262a80.543 80.543 0 01-4.456 14.842zm-9 16.33a52.69 52.69 0 0015.015-11.025 29.133 29.133 0 00-6.608-3.795 83.337 83.337 0 01-8.407 14.82zm12.1-61.232a87.87 87.87 0 01-13.904 1.263v12.027h15.146a78.991 78.991 0 00-1.242-13.29zm1.7 28.442a90.124 90.124 0 0112.486 3.326c1.888-5.286 2.932-10.953 3.021-16.831h-14.266a81.257 81.257 0 01-1.241 13.505zm-.4-13.51h-15.146v12.002c4.691.034 9.342.474 13.931 1.251a79.626 79.626 0 001.215-13.253zm-15.2 27.72c3.191.09 6.304.652 9.252 1.676a79.748 79.748 0 004.387-14.528c-4.499-.752-9.063-1.188-13.639-1.222v14.074zm-1.6-15.71V73.6h-15.125a81.535 81.535 0 001.229 13.261 87.07 87.07 0 0113.896-1.25zm-10.8 17.99a78.848 78.848 0 01-4.474-14.85 87.335 87.335 0 00-12.242 3.27 51.992 51.992 0 009.634 15.658c2.174-1.68 4.529-3.058 7.082-4.078zm-5.9 5.29a52.73 52.73 0 0015.001 10.996c-3.335-4.667-6.149-9.612-8.39-14.79a29.696 29.696 0 00-6.611 3.794zm35.1-36.93H496.7a52.136 52.136 0 00-3.085-16.857 87.394 87.394 0 01-12.444 3.309 82.837 82.837 0 011.262 13.548zm10.6-18.399c-2.266-5.698-5.519-10.958-9.569-15.568a30.337 30.337 0 01-7.043 4.035 80.01 80.01 0 014.46 14.769 85.949 85.949 0 0012.152-3.236zm-29 6.37a89.987 89.987 0 01-13.866-1.242 80.628 80.628 0 00-1.259 13.269h15.125V59.932zm10.9-17.326a30.944 30.944 0 01-9.252 1.654v14.021a88.245 88.245 0 0013.617-1.225 79.614 79.614 0 00-4.365-14.45zm20.3 48.405a88.632 88.632 0 0111.603 5.246 47.79 47.79 0 006.137-22.658h-14.619a54.433 54.433 0 01-3.121 17.412z" fill="#fff"/><path d="M467.333 23.827s.01.013.021.017m3.279-1.951L486.974 1l-16.341 20.893h.024c25.666 2.909 45.39 24.742 45.39 50.89 0 28.244-22.979 51.23-51.232 51.23-21.61 0-40.53-13.301-47.973-33.35v-.01l-43.135 55.088h129.95L554.419.011h-69.806l-114.01 145.73h3.106l43.134-55.088" fill="#038341"/><path d="M470.733 21.893l-1.144 1.448-.906 1.16-.224.301-.816 1.014a52.586 52.586 0 0114.765 10.97 28.524 28.524 0 01-6.569 3.73 81.873 81.873 0 00-8.25-14.597l-1.063 1.336a79.078 79.078 0 017.756 13.845 28.511 28.511 0 01-8.585 1.504v-14.3l-1.638 2.101v12.169a27.84 27.84 0 01-8.366-1.491c-.039-.021-1.058 1.375-1.058 1.375l-2.827 3.605a79.974 79.974 0 00-2.935 10.734 81.1 81.1 0 01-4.658-1.036l-1.121 1.436c1.82.459 3.626.863 5.474 1.211a80.577 80.577 0 00-1.274 13.549h-14.258l.056-1.985-2.836 3.63h1.139a54.325 54.325 0 003.124 17.427 90.712 90.712 0 00-11.604 5.26 47.6 47.6 0 01-3.732-8.525l-1.135 1.456-1.126 1.444c7.438 20.049 26.357 33.35 47.973 33.35 28.248 0 51.229-22.986 51.229-51.23 0-26.149-19.721-47.982-45.391-50.891m42.282 50.065h-14.618a53.509 53.509 0 00-3.188-17.42 89.087 89.087 0 0011.671-5.29 48.155 48.155 0 016.135 22.71m-64.077 1.645h15.121v12.012a87.176 87.176 0 00-13.896 1.25 81.003 81.003 0 01-1.225-13.262m16.76-13.669a88.19 88.19 0 0013.903-1.263 78.929 78.929 0 011.247 13.287h-15.15V59.934m15.15 13.669a79.618 79.618 0 01-1.221 13.253c-4.585-.772-9.234-1.216-13.932-1.251V73.603h15.153m-30.385 14.881a86.93 86.93 0 0113.596-1.236v14.08c-3.18.097-6.278.676-9.204 1.682-1.934-4.673-3.391-9.546-4.392-14.526m2.854 15.117c-2.549 1.02-4.902 2.395-7.082 4.078a51.9 51.9 0 01-9.63-15.662 87.221 87.221 0 0112.238-3.266 79.256 79.256 0 004.474 14.85m12.381-16.354c4.58.033 9.14.468 13.639 1.22a79.809 79.809 0 01-4.389 14.528 30.902 30.902 0 00-9.25-1.676V87.247m15.257 1.483c4.149.785 8.24 1.895 12.236 3.262a52.112 52.112 0 01-9.611 15.676 29.908 29.908 0 00-7.082-4.096 80.716 80.716 0 004.457-14.842m.292-1.621a80.98 80.98 0 001.241-13.506h14.271a52.636 52.636 0 01-3.021 16.832 89.735 89.735 0 00-12.491-3.326m1.242-15.151a82.204 82.204 0 00-1.263-13.549 87.097 87.097 0 0012.444-3.304 52.233 52.233 0 013.089 16.853h-14.27m23.569-24.12a87.8 87.8 0 01-11.438 5.157 54.67 54.67 0 00-9.83-16.028 30.464 30.464 0 004.972-5.388c6.667 4.03 12.248 9.633 16.296 16.259m-36.662-22.95a47.44 47.44 0 0118.925 5.865 29.82 29.82 0 01-4.623 4.998 53.502 53.502 0 00-14.302-10.863m14.129 13.106c4.048 4.611 7.302 9.87 9.565 15.568a85.949 85.949 0 01-12.152 3.236 79.65 79.65 0 00-4.46-14.765 30.626 30.626 0 007.047-4.039m-8.577 4.611a78.895 78.895 0 014.366 14.455 89.477 89.477 0 01-13.616 1.225V44.259a30.676 30.676 0 009.25-1.654m-20.059-.061a29.994 29.994 0 009.17 1.693v14.039c-4.566-.043-9.105-.473-13.574-1.216a79.31 79.31 0 014.404-14.516m-4.691 16.144a89.746 89.746 0 0013.861 1.246v12.023h-15.121a79.28 79.28 0 011.26-13.269m-17.165 14.915h14.259a79.465 79.465 0 001.254 13.537 85.832 85.832 0 00-12.466 3.334 51.943 51.943 0 01-3.047-16.871m2.038 18.98c2.309 5.961 5.674 11.396 9.885 16.131a30.605 30.605 0 00-4.883 5.328 47.83 47.83 0 01-16.357-16.324 87.076 87.076 0 0111.355-5.135m6.428 22.268a30.85 30.85 0 014.566-4.924c4.035 4.292 8.854 7.91 14.241 10.732a48.032 48.032 0 01-18.807-5.808m5.84-5.96a29.59 29.59 0 016.612-3.794c2.234 5.178 5.054 10.123 8.389 14.79a52.744 52.744 0 01-15.001-10.996m16.72 10.562a78.129 78.129 0 01-8.568-14.928 29.176 29.176 0 018.568-1.547v16.475m1.639-16.479c2.973.082 5.873.598 8.603 1.543a78.898 78.898 0 01-8.603 14.979v-16.522m10.157 2.102a29.339 29.339 0 016.608 3.795c-4.232 4.465-9.277 8.203-15.014 11.029a82.917 82.917 0 008.406-14.824m-6.391 15.601a54.266 54.266 0 0014.297-10.756 30.781 30.781 0 014.542 4.891c-5.693 3.168-12.059 5.234-18.839 5.865m20.244-6.682a29.718 29.718 0 00-4.864-5.299c4.22-4.752 7.584-10.191 9.9-16.14a88.472 88.472 0 0111.33 5.127 48.602 48.602 0 01-16.366 16.312m17.171-17.733a88.21 88.21 0 00-11.604-5.247 54.377 54.377 0 003.12-17.412h14.618a47.755 47.755 0 01-6.134 22.659z" fill="#ec671d"/><path d="M469.833 84.241l12.113 5.578-5.729-12.281 15.611-3.832v-1.843l-15.611-3.902 5.947-12.526-12.393 5.818-3.885-22.22h-2.175l-3.812 22.203-12.367-5.801 5.831 12.573-15.577 3.854v1.822l15.577 3.772-5.655 12.393 12.17-5.529 3.79 22.211 2.14-.021 4.025-22.269z" fill="#fff"/><path d="M464.933 40.264l4.039 22.701 10.867-5.152-5.136 10.875 16.309 4.083-16.309 4.053 4.963 10.644-10.694-4.868-4.144 22.479-4.005-22.479-10.669 4.881 4.916-10.656-16.27-4.052 16.27-4.083-5.079-10.875 10.832 5.109 4.11-22.66z" fill="#038341"/></svg>