<svg viewBox="0 0 315 171" xmlns="http://www.w3.org/2000/svg"><defs><linearGradient id="a" x2="1" gradientTransform="rotate(40 -449.73 444.388) scale(120.338)" gradientUnits="userSpaceOnUse"><stop stop-color="#dfddde" offset="0"/><stop stop-color="#dfddde" offset=".371"/><stop stop-color="#868789" offset=".429"/><stop stop-color="#868789" offset=".438"/><stop stop-color="#868789" offset=".465"/><stop stop-color="#868789" offset="1"/></linearGradient><linearGradient id="b" x2="1" gradientTransform="rotate(40 -485.763 444.265) scale(110.256)" gradientUnits="userSpaceOnUse"><stop stop-color="#f0a58a" offset="0"/><stop stop-color="#f0a58a" offset=".336"/><stop stop-color="#f0a58a" offset=".34"/><stop stop-color="#dd1f26" offset=".398"/><stop stop-color="#dd1f26" offset=".426"/><stop stop-color="#dd1f26" offset="1"/></linearGradient><linearGradient id="c" x2="1" gradientTransform="rotate(40 -455.66 455.119) scale(110.388)" gradientUnits="userSpaceOnUse"><stop stop-color="#8ec1a0" offset="0"/><stop stop-color="#8ec1a0" offset=".336"/><stop stop-color="#058a44" offset=".385"/><stop stop-color="#058a44" offset=".398"/><stop stop-color="#058a44" offset=".426"/><stop stop-color="#058a44" offset="1"/></linearGradient><linearGradient id="d" x2="1" gradientTransform="rotate(40 -423.724 466.645) scale(110.447)" gradientUnits="userSpaceOnUse"><stop stop-color="#8b93bf" offset="0"/><stop stop-color="#8b93bf" offset=".336"/><stop stop-color="#8b93bf" offset=".338"/><stop stop-color="#20407e" offset=".398"/><stop stop-color="#20407e" offset=".426"/><stop stop-color="#20407e" offset="1"/></linearGradient><linearGradient id="e" x2="1" gradientTransform="rotate(40 -438.316 461.483) scale(110.321)" gradientUnits="userSpaceOnUse"><stop stop-color="#dfddde" offset="0"/><stop stop-color="#dfddde" offset=".277"/><stop stop-color="#dfddde" offset=".278"/><stop stop-color="#eed0ab" offset=".34"/><stop stop-color="#cb8229" offset=".401"/><stop stop-color="#cb8229" offset=".402"/><stop stop-color="#cb8229" offset=".43"/><stop stop-color="#cb8229" offset="1"/></linearGradient><clipPath id="f"><path d="M0 792h612V0H0v792z"/></clipPath></defs><path d="M181 463.7l21.148-49.36c2.466-6.424 9.379-14.68 21.341-14.689 9.831-.012 41.49-.007 41.49-.007a6.865 6.865 0 016.864 6.864 6.834 6.834 0 01-2.128 4.974l-37.388 34.694c-17.732 16.463-22.885 17.493-29.69 17.513-7.336 0-21.508.011-21.636.011H181z" fill="url(#a)" transform="matrix(1.25 0 0 -1.25 -225 580.54)"/><path d="M193.29 450.35c0-1.093.192-2.139.536-3.114l.665-1.745 37.536-4.483-2.426 2.239c-17.423 16.177-21.723 16.438-26.967 16.442-5.158 0-9.344-4.182-9.344-9.339" fill="url(#b)" transform="matrix(1.25 0 0 -1.25 -225 580.54)"/><path d="M195.19 443.67l10.692-27.903c.888-2.3 2.483-4.832 4.76-6.978 4.117 4.045 9.736 8.923 16.371 14.151l-24.774 12.536c-1.385.702.341 2.344 3.542 1.306l28.998-7.901c1.968 1.455 3.977 2.792 5.865 4.117l-45.453 10.672h-.001z" fill="url(#c)" transform="matrix(1.25 0 0 -1.25 -225 580.54)"/><path d="M235.21 418.53c-7.752-5.034-15.002-9.263-21.023-12.361 2.636-1.454 5.579-2.519 9.308-2.523 9.831-.01 41.487.002 41.487.002a2.865 2.865 0 012.865 2.861c0 .832-.355 1.58-.922 2.102l-19.589 18.224a286.588 286.588 0 00-12.126-8.305m22.693-11.208l-19.35 9.786s5.026 3.884 7.091 5.531l15.908-14.077c.978-.861.003-1.764-1.547-1.764a4.69 4.69 0 00-2.102.524" fill="url(#d)" transform="matrix(1.25 0 0 -1.25 -225 580.54)"/><path d="M202.24 435.48l24.774-12.536c-6.635-5.228-12.268-10.097-16.381-14.143a19.031 19.031 0 013.535-2.617c6.021 3.092 13.288 7.311 21.04 12.345a286.588 286.588 0 0112.126 8.305l-6.689 6.168c-1.888-1.325-3.897-2.662-5.865-4.117l-28.998 7.901c-.735.238-1.389.335-1.947.335-1.88 0-2.664-1.101-1.595-1.641m36.311-18.373l19.35-9.786c2.519-1.279 5.035.028 3.649 1.24l-15.908 14.077c-2.065-1.647-7.091-5.531-7.091-5.531" fill="url(#e)" transform="matrix(1.25 0 0 -1.25 -225 580.54)"/><g clip-path="url(#f)" transform="matrix(1.25 0 0 -1.25 -225 580.54)"><path d="M191.6 364.68c-1.132.234-1.417.625-1.417 1.957 0 1.602.626 1.731 1.682 1.561.887-.1 4.568-.809 8.803-.809 4.548 0 5.451.779 5.451 2.443 0 2.03-.603 2.391-5.301 2.7-7.585.402-10.803.949-10.803 6.576 0 6.109 4.524 6.377 10.479 6.377 4.186 0 7.302-.508 7.989-.61 1.152-.181 1.389-.595 1.389-1.912 0-1.607-.591-1.676-1.643-1.506-.76.1-4.1.604-7.269.604-4.888 0-5.875-.307-5.875-2.139 0-1.818.634-2.137 4.744-2.344 8.125-.451 11.318-.638 11.318-6.832 0-6.259-5.76-6.781-10.778-6.781-4.82 0-8.069.559-8.769.715m100.81 6.771l-6.238-6.078-.442-.408-.39-.328c-.264-.199-.557-.645-2.43-.645-3.967 0-4.817.78-3.062 2.401l8.128 7.508c.436.363.509.506.509.877 0 .373-.073.513-.509.879l-8.128 7.507c-1.755 1.62-.905 2.399 3.062 2.399 1.873 0 2.166-.444 2.43-.643l.39-.328.442-.408 6.254-6.106c.443-.419 1.003-.668 1.61-.668.689 0 1.334.321 1.803.844l5.335 5.869c.736.731 1.359 1.121 2.125 1.301.369.088.825.139 1.386.139 2.402 0 2.855-.904 1.855-1.932l-7.946-8.006c-.358-.406-.471-.539-.471-.847 0-.309.113-.44.471-.848l8.546-8.006c.996-1.025.543-1.932-1.856-1.932-.561 0-1.014.053-1.39.141-.763.178-1.382.572-2.12 1.299l-5.928 5.842c-.467.541-1.107.873-1.81.873-.621 0-1.177-.262-1.626-.696m-77.081-.605c0 5.66 4.722 5.869 10.562 5.869h6.293c.32 0 .693.069.693.875v.861c0 3.016-1.045 3.559-5.541 3.559-3.847 0-7.448-.502-8.208-.607-1.009-.11-1.678-.114-1.678 1.56 0 1.332.286 1.733 1.424 1.908.71.161 4.503.614 9.1.614 2.64 0 5.627-.248 7.644-1.242 2.201-1.096 2.501-3.139 2.501-5.233v-11.055c0-1.57-.321-2.591-3.202-3.173-2.566-.563-6.073-.817-8.851-.817-9.107 0-10.737 2.02-10.737 6.881m16.748-3.213c.256.053.438.106.563.235.119.117.237.357.237.902v3.853c0 .7-.219.871-.651.871h-6.16c-3.929 0-5.287-.378-5.287-2.796 0-2.971.965-3.612 5.712-3.612 2.489 0 5.066.403 5.586.547m37.801 8.777c.459 0 .739.133.739.723 0 4.184-1.505 5.235-6.349 5.235-4.928 0-6.346-1.049-6.346-5.235 0-.603.251-.723.698-.723h11.258zm-17.492-1.658c0 6.844 1.821 10.733 11.924 10.733 8.246 0 11.76-2.752 11.76-9.467 0-1.752-.31-2.879-3.134-2.879h-14.445c-.384 0-.652-.047-.652-.822 0-4.582 3.743-4.776 8.253-4.776 2.706 0 6.248.5 6.544.553 1.059.164 1.731.18 1.731-1.506 0-1.347-.296-1.678-1.414-1.908-.234-.055-3.312-.615-7.279-.615-10.078 0-13.288 2.705-13.288 10.687m58.166-15.916v22.86c0 1.562.311 2.49 2.857 3.023 1.814.41 5.059.766 8.559.766 9.751 0 12.008-3.362 12.008-10.733 0-7.365-2.128-10.736-11.837-10.736-2.184 0-4.141.15-5.684.353-.459.047-.662.051-.662-.669v-4.864c0-1.705-.229-2.426-2.493-2.426-2.517 0-2.748.713-2.748 2.426m17.977 15.916c0 6.574-1.741 7.565-6.645 7.565-2.566 0-4.952-.35-5.46-.449-.526-.237-.631-.364-.631-.731v-12.773c0-.399.109-.557.196-.633.1-.086.247-.119.418-.147.505-.097 2.911-.449 5.477-.449 4.901 0 6.645 1.035 6.645 7.617m14.031-10.392c-2.302 0-2.539.707-2.539 2.371v14.406c0 1.564.313 2.641 3.155 3.279 2.522.559 6.627 1.069 9.751 1.069 1.246 0 1.557-.414 1.557-1.76 0-1.143-.109-1.865-1.432-1.865h-.338c-1.559 0-4.336-.151-6.822-.701-.194-.053-.327-.098-.428-.208-.097-.099-.202-.292-.202-.726v-13.494c0-1.658-.229-2.371-2.493-2.371h-.209zm43.561.32c-1.127.234-1.414.625-1.414 1.957 0 1.602.627 1.731 1.679 1.561.892-.1 4.568-.809 8.8-.809 4.552 0 5.454.779 5.454 2.443 0 2.03-.602 2.391-5.301 2.7-7.581.402-10.802.949-10.802 6.576 0 6.109 4.527 6.377 10.482 6.377 4.183 0 7.303-.508 7.988-.61 1.154-.181 1.387-.595 1.387-1.912 0-1.607-.593-1.676-1.641-1.506-.762.1-4.095.604-7.267.604-4.893 0-5.879-.307-5.879-2.139 0-1.818.638-2.137 4.747-2.344 8.121-.451 11.314-.638 11.314-6.832 0-6.259-5.759-6.781-10.782-6.781-4.815 0-8.064.559-8.765.715m-12.174 11.73c.463 0 .738.133.738.723 0 4.184-1.501 5.235-6.349 5.235-4.923 0-6.344-1.049-6.344-5.235 0-.603.254-.723.696-.723h11.259zm-17.493-1.658c0 6.844 1.822 10.733 11.928 10.733 8.246 0 11.756-2.752 11.756-9.467 0-1.752-.309-2.879-3.13-2.879h-14.449c-.379 0-.651-.047-.651-.822 0-4.582 3.744-4.776 8.26-4.776 2.7 0 6.241.5 6.536.553 1.056.164 1.728.18 1.728-1.506 0-1.347-.289-1.678-1.407-1.908-.237-.055-3.315-.615-7.281-.615-10.079 0-13.29 2.705-13.29 10.687m55.002-10.072c-1.128.234-1.418.625-1.418 1.957 0 1.602.627 1.731 1.683 1.561.888-.1 4.566-.809 8.8-.809 4.552 0 5.453.779 5.453 2.443 0 2.03-.603 2.391-5.3 2.7-7.585.402-10.806.949-10.806 6.576 0 6.109 4.531 6.377 10.482 6.377 4.186 0 7.303-.508 7.985-.61 1.157-.181 1.39-.595 1.39-1.912 0-1.607-.592-1.676-1.637-1.506-.762.1-4.098.604-7.271.604-4.893 0-5.878-.307-5.878-2.139 0-1.818.637-2.137 4.75-2.344 8.117-.451 11.31-.638 11.31-6.832 0-6.259-5.756-6.781-10.778-6.781-4.819 0-8.065.559-8.765.715M326.43 332.4h2.128l1.174 4.748c.258 1.055.414 2.207.511 2.844h.022c.101-.613.299-1.865.515-2.803l1.173-4.789h2.128l2.703 10.057h-2.285l-.975-4.393a38.103 38.103 0 01-.477-3.021h-.017a35.133 35.133 0 01-.519 2.802l-1.091 4.612h-2.19l-1.132-4.592c-.257-1.014-.459-2.465-.497-2.842h-.018a37.63 37.63 0 01-.46 3.061l-.992 4.373h-2.323l2.622-10.057zm15.66 8.71c1.25 0 1.605-.676 1.63-2.623h-3.298c.115 2.105.655 2.623 1.668 2.623m.394-8.885c1.456 0 2.486.438 3.36 1.172l-1.072 1.551c-.634-.477-1.272-.895-2.306-.895-1.431 0-1.984.518-2.064 2.823h5.644v.736c0 3.676-1.274 5.186-3.977 5.186-2.524 0-4.071-1.45-4.071-5.266 0-3.776 1.488-5.307 4.486-5.307m8.366 8.475h1.073v-8.309h2.242v8.309h1.79v1.75h-1.79v1.527c0 .834.296 1.174.994 1.174.441 0 .776-.08 1.114-.258l.637 1.612c-.54.297-1.254.494-2.187.494-1.512 0-2.8-.555-2.8-3.16v-1.389h-1.073v-1.75zm9.62-8.52c.54 0 1.114.139 1.432.258l-.276 1.529s-.16-.019-.324-.019c-.554 0-.71.138-.71.773v12.143h-2.27V335c0-1.966.442-2.82 2.148-2.82m3.37-3.88c2.486.396 3.378.934 4.314 3.877l3.18 10.273h-2.347l-1.487-5.504c-.282-.994-.418-1.89-.54-2.564h-.017a20.678 20.678 0 01-.54 2.541l-1.449 5.527h-2.406l3.082-10.056h.558c-.558-1.512-1.112-1.908-2.822-2.246l.474-1.848zm12.55 12.4h1.072v-8.309h2.243v8.309h1.79v1.75h-1.79v1.527c0 .834.296 1.174.993 1.174.442 0 .776-.08 1.114-.258l.638 1.612c-.537.297-1.254.494-2.184.494-1.519 0-2.804-.555-2.804-3.16v-1.389h-1.072v-1.75zm10.87-6.77c-1.315 0-1.835.734-1.835 3.578 0 2.881.502 3.58 1.814 3.58 1.31 0 1.826-.678 1.826-3.56 0-2.842-.495-3.598-1.805-3.598m0-1.709c2.602 0 4.229 1.512 4.229 5.287 0 3.776-1.648 5.285-4.25 5.285-2.604 0-4.213-1.468-4.213-5.265 0-3.776 1.627-5.307 4.234-5.307m6.08.179h2.267v7.273c.571.497 1.072.737 1.849.737.314 0 .595-.061.815-.182l.355 2.328c-.14.039-.38.08-.596.08-1.055 0-1.95-.578-2.622-1.453l-.257 1.274h-1.811V332.4zm11.3-4.1c2.487.396 3.378.934 4.315 3.877l3.176 10.273h-2.344l-1.487-5.504c-.282-.994-.421-1.89-.539-2.564h-.017c-.105.715-.3 1.709-.541 2.541l-1.448 5.527h-2.407l3.079-10.056h.557c-.557-1.512-1.115-1.908-2.821-2.246l.477-1.848zm12.71 5.63c-1.31 0-1.824.734-1.824 3.578 0 2.881.494 3.58 1.806 3.58 1.314 0 1.83-.678 1.83-3.56 0-2.842-.496-3.598-1.812-3.598m0-1.709c2.605 0 4.235 1.512 4.235 5.287 0 3.776-1.651 5.285-4.253 5.285-2.6 0-4.216-1.468-4.216-5.265 0-3.776 1.632-5.307 4.234-5.307m8.68-.081c1.274 0 2.051.576 2.842 1.369l.24-1.111h1.807v10.056h-2.246v-7.513c-.592-.516-1.229-.912-1.926-.912-.735 0-1.132.316-1.132 1.39v7.035h-2.264v-7.572c0-1.867 1.15-2.742 2.679-2.742" fill="#20407e" fill-rule="evenodd"/></g></svg>