<svg xmlns="http://www.w3.org/2000/svg" width="702.828" height="173.604" viewBox="0 0 185.957 45.933"><path d="M127.203 26.855h5.092l1.027-5.648h-5.135l1.167-6.65-5.408 1.267-1.781 5.383h-3.806l-.983 5.648h3.366l-1.892 10.313c-1.295 6.984-.007 8.915 6.89 8.386 1.245-.095 2.149-.315 2.828-.59l1.518-5.663c-.64.18-1.455.35-2.42.406-2.39.142-2.678-.461-2.268-2.567zm14.773 7.153l-.001.002h6.792l-1.265-10.836-.606.347zm14.7 11.36h-6.694l-.577-5.115-.033-.32h-10.053l-2.602 5.435h-6.612l14.672-30.001 7.605-1.708zm11.235 0h6.505l2.238-12.769c.995-5.183 1.947-5.957 7.487-5.885l1.55-6.235c-6.754.043-7.835 1.517-8.366 2.594l.067-2.646-5.272 1.231zm-5.02-26.445h6.552l1.306-7.2-6.835 1.55zm-86.494 0h6.553l1.306-7.2-6.836 1.55zm81.872 26.445h6.462l4.182-23.706h-6.462zm-52.675.3c4.365 0 8.773-1.584 8.773-7.617 0-3.766-1.926-5.435-5.563-7.061-2.183-.984-3.467-1.583-3.467-2.653 0-1.37.685-2.054 2.354-2.054 2.353 0 4.15.599 5.435 1.284l3.337-5.05c-1.84-1.07-4.535-1.84-8.259-1.84-4.236 0-9.2 1.455-9.2 7.917 0 3.51 1.97 5.134 5.264 6.675 3.209 1.455 3.936 1.84 3.936 3.082 0 1.625-.983 2.01-2.396 2.01-3.038 0-5.349-1.112-6.89-2.097l-3.294 4.965c2.31 1.325 5.434 2.44 9.97 2.44zm-33.819-.3h6.462l4.178-23.706h-6.462zm-21.965 0h6.974l2.23-12.482h9.069l2.733-6.076H60.041l1.28-7.03h12.366l1.112-6.121H55.416zm47.588-18.654c-5.31-.044-6.259.784-7.237 5.885l-2.239 12.77h-6.504l4.209-23.71 5.271-1.232-.066 2.646c.524-1.063 1.594-2.51 8.116-2.588l-1.55 6.229" fill="#c31b31"/><path d="M.265 13.659l2.968 6.554 44.521-3.715 1.548-2.84zm15.13 9.55L3.577 45.369h11.07l6.027-12.742 1.35-.773 1.543 13.514h11.11l-4.082-25.614zM30.76 11.22h-9.97l1.557-8.596 10.4-2.36L30.76 11.22" fill="#a1a7aa"/></svg>