<svg viewBox="0 0 158 32" xmlns="http://www.w3.org/2000/svg"><g fill="none" fill-rule="evenodd"><path d="M39.059 6.853v14.303c0 1.316-.571 3.285-5.834 3.285s-5.836-1.969-5.836-3.285V6.852H24.4v14.465c0 3.542 2.908 5.086 8.305 5.086 2.76 0 4.795-.467 6.322-.9v6.465h2.943l-.016-25.117H39.06zM11.941.027c-3.15 0-7.825.662-7.825 3.907v2.918H.702v1.674h3.414v17.422h2.861V8.526h4.505l.001-1.674H6.977V4.294c0-2.491 2.882-2.888 4.964-2.888 3.446 0 5.16.262 5.16 4.069L17.1 25.949h2.86V.488h-2.859c-1.593 0-2.363-.46-5.16-.46zm142.46 8.652c-1.73 0-3.134 1.422-3.134 3.172 0 1.753 1.404 3.176 3.134 3.176 1.747 0 3.144-1.423 3.144-3.176 0-1.75-1.397-3.172-3.144-3.172z" fill="#FF8200"/><path d="M131.56 11.175c2.224-.255 4.217-.38 5.472-.384-.69-2.689-3.847-3.739-9.055-3.739-4.5 0-8.513 1.568-8.513 1.568v3.734s2.781-2.26 8.59-2.26c1.902 0 2.953.343 3.506 1.081zm-69.411 9.384c-.161 2.069-2.37 3.188-4.516 3.188-4.647 0-5.299-2.039-5.299-6.698 0-4.652.911-6.688 5.07-6.688 2.696 0 4.583 1.113 4.745 3.18.13 1.673.196 2.528.196 3.508 0 .984-.067 1.938-.196 3.51zm.197-12.366c-1.92-.754-3.38-1.148-5.755-1.148-7.246 0-9.456 2.758-9.456 10.004 0 7.216 3.249 10.007 10.499 10.007 4.417 0 7.628-1.669 9.911-1.669V1.14h-5.2v7.053zm84.386-.705l-5.2.002v3.147h5.2V7.488zm-14.565 13.023c0 2.727-2.528 3.416-4.26 3.416-2.952 0-4.464-.897-4.464-2.828 0-3.26 4.142-4.936 8.724-5.215v4.627zm15.66-8.011l-1.51.002c-21.08 0-27.91 3.952-27.91 8.47 0 4.196 3.574 6.037 9.36 6.037 3.734 0 7.513-1.628 9.49-1.628V15.207a48.277 48.277 0 014.309-.366v11.763h5.195V17.75c0-3.163 1.066-5.25 1.066-5.25zm-42.65 11.247c-2.146 0-4.354-1.12-4.515-3.19-.13-1.571-.195-2.525-.195-3.508 0-.981.066-1.836.195-3.51.161-2.066 2.05-3.178 4.746-3.178 4.157 0 5.069 2.035 5.069 6.688 0 4.658-.65 6.698-5.3 6.698zm1.041-16.702c-2.373 0-3.835.394-5.751 1.148V1.14h-5.2v24.248c2.282 0 5.49 1.668 9.91 1.668 7.249 0 10.5-2.79 10.5-10.007 0-7.246-2.212-10.004-9.459-10.004zM85.781 20.69c0 1.316-.425 3.28-4.325 3.28-3.899 0-4.319-1.964-4.319-3.28V7.505h-5.203V21.97c.001 3.541 3.605 5.085 9.006 5.085 4.775 0 7.859-1.477 9.388-1.642l.65-.068V7.504H85.78V20.69z" fill="#006496"/></g></svg>