<svg viewBox="0 0 300 49" xmlns="http://www.w3.org/2000/svg"><g fill="#2c1e16"><path d="M25.298 25.145c.106-.159.203-.325.31-.484.064-.098.134-.195.204-.287.07-.093.172-.183.211-.293.013-.027.01-.026-.012-.053-.035-.05-.049-.1-.078-.148a1.43 1.43 0 00-.128-.193c-.142-.195-.468-.73-.738-1.129-.267-.398-.646-1.014-.942-1.412 0 0-.114.186-.335.56a17.65 17.65 0 01-.762 1.168c-.152.225-.392.54-.811 1.095.182.27.523.97.818 1.395.292.426.77 1.094 1.09 1.539.16-.196.268-.324.354-.468.093-.141.25-.324.324-.467.08-.143.2-.327.422-.718.02-.037.048-.071.073-.105m-1.106 8.596c.089-.205.2-.815.275-1.18.073-.367.096-.83.148-1.222.055-.392-.016-1.054-.061-1.346a3.968 3.968 0 00-.231-.838c-.095-.234-.202-.447-.36-.601-.062.157-.078.255-.121.382-.052.15-.068.28-.129.438-.058.155-.162.524-.2.609-.063.127-.07.247-.133.486-.058.236-.09.648-.1.759-.009.113.11.856.144 1.136.04.283.176.891.257 1.132.081.24.252.61.303.75.12-.116.12-.303.208-.505m-3.35-2.037c.098-.127.395-.527.664-.813.27-.285.386-.597.483-.887.1-.293.226-.829.25-1.114.027-.293-.016-.42-.024-.52-.019-.187-.043-.235-.121-.15-.05.043-.284.315-.468.53-.184.213-.48.64-.584.888-.108.251-.282.672-.34.974-.063.298-.124.747-.14.877-.014.13 0 .328.017.47.091-.035.17-.13.263-.255m-1.905-2.076c.222-.146.516-.293.91-.707.394-.412.54-.667.76-1.04.217-.374.265-.578.388-.79.12-.215.13-.26.03-.243-.144.029-.17.03-.542.25-.367.22-.781.68-.954.845-.177.164-.583.79-.689.991-.101.195-.38.78-.477.91-.1.133.019.1.197-.002.107-.073.149-.069.377-.214m-1.433-2.253c-.402.096-.956.068-1.268.057.1-.138.472-.412.774-.64.306-.228.756-.379.91-.456.156-.079.398-.198.582-.236.184-.044.2-.077.362-.108.19-.036.333-.021.609-.072.151-.03.227-.02.408.03.059.015.084.046.037.098-.033.038-.088.068-.131.097l-.095.072c-.068.047-.121.103-.194.147-.067.042-.135.082-.2.125-.18.12-.358.241-.532.37-.406.3-.865.418-1.262.516m2.283-3.474c-.135-.103-.488-.177-.707-.221-.24-.052-.592-.134-.84-.13-.244.004-.592-.013-.887-.035a3.72 3.72 0 00-1.08.12c-.365.099-.774.212-1.026.314-.173.067-.355.121-.599.235-.13.064-.292.063-.476.167-.186.104-.171.135-.116.145.052.01.263.093.411.105.206.014.653.132 1.158.17a12.81 12.81 0 001.465.02 5.048 5.048 0 001.626-.296c.222-.12.308-.088.544-.171.24-.084.369-.146.756-.255-.115-.084-.095-.067-.23-.168m4.477-5.535a1.27 1.27 0 00.102-.444c.02-.22.08-.468.098-.687.016-.215.08-.635.083-.835.003-.313.007-.413.002-.61-.009-.23-.03-1.007-.151-1.487-.116-.48-.128-.738-.433-1.175-.29.314-.357.917-.4 1.214a12.71 12.71 0 00-.096 1.299c-.024.697.046 1.532.128 1.86.08.334.241 1.007.317 1.129.124.19.124.15.251-.055 0 0 .044-.075.099-.209m1.32.95a.764.764 0 01-.05-.278c-.004-.136-.031-.135.033-.365.065-.23.18-.775.264-1.02.083-.25.294-.713.497-.903.202-.189.622-.75.95-1.013 0 0-.149 1.015-.278 1.406-.118.37-.239.707-.445 1.17-.212.463-.576.83-.82 1.033-.087.03-.123.017-.151-.03m1.852 1.185c.254-.106.62-.397.94-.652.318-.259.412-.388.606-.629.192-.24.348-.642.44-.814.095-.177.241-.351.033-.26-.214.088-.22.121-.534.263-.316.135-.262.11-.851.608-.593.496-.948 1.159-1.063 1.585 0 0 .178.006.429-.101m1.549 1.306c.248-.073.664-.372 1.077-.68.41-.305.624-.616.954-1.059-.13.011-.346.038-.62.105-.275.065-.43.138-.666.252-.233.113-.347.223-.651.347-.258.115-.486.284-.706.456-.097.08-.193.145-.264.25-.065.1-.115.24-.165.349a.662.662 0 00-.069.208c-.012.102.089.07.16.057.102-.016.2-.052.298-.08.16-.047.411-.13.652-.205m5.169 2.025c-.06-.062-.163-.148-.423-.24-.266-.093-.743-.205-1.013-.275a4.408 4.408 0 00-.866-.135c-.314-.029-.489-.033-.914-.057a3.535 3.535 0 00-1.01.125c-.364.097-1.38.478-1.619.552-.246.076-.07.19-.008.26.06.074.333.159.444.181.108.019.276.079.507.118.23.04.836.106 1.556.104a20.86 20.86 0 001.8-.084c.594-.058 1.245-.261 1.68-.413 0 0-.068-.078-.134-.136m-1.985 3.01c-.136-.1-.555-.31-.837-.434-.28-.122-.7-.359-1.088-.499-.387-.143-.768-.12-.993-.124-.22-.004-.434-.028-.68.032 0 0 .024.121.204.262.18.143.78.426 1.069.557.283.132.75.284 1.202.367.448.08.923.085 1.329.062 0 0-.072-.118-.206-.223m-2.221 2.853c-.19-.295-.385-.619-.795-1.047a6.199 6.199 0 00-1.081-.91c-.241-.157-.443-.235-.632-.377-.192-.14-.151-.01.08.383.233.39.599 1.039.732 1.21.134.167.394.346.658.503.27.158.569.317.7.429.133.11.402.241.544.297-.025-.14-.065-.26-.206-.488m-2.684 1.021c-.058-.477-.295-.937-.473-1.132-.18-.194-.09-.123-.306-.412-.218-.288-.473-.633-.715-.866-.143-.139-.165-.194-.16-.043 0 0 .003.295.015.392.03.29.084.74.386 1.51.307.768.803 1.448 1.28 1.99.115-.355.023-.961-.027-1.44m-7.116-8.691c-.186-.112-.568-.38-.989-.714-.417-.334-.693-.347-.983-.443-.29-.094-1.03-.223-1.1-.25-.082-.03-.072-.037-.23-.065-.1-.012-.13-.027-.314.003 0 0 .063.109.102.154.044.048.166.223.31.331.235.184.525.33.833.55.313.224.717.349 1.21.491.491.138.958.164 1.315.196.295-.01.032-.14-.154-.253m1.041-1.246c-.018-.098-.102-.337-.267-.686a3.317 3.317 0 00-.593-.845 11.444 11.444 0 01-.353-.377 2.217 2.217 0 00-.348-.282c-.096-.062-.328-.27-.578-.374-.259-.109-.351-.181-.71-.32-.355-.136-.278-.007-.213.121.07.13.255.514.448.871.2.353.292.45.483.654.187.21.475.42.713.596.235.175.501.305.688.404.185.101.514.309.75.415 0 0-.015-.148-.02-.177m.889-1.665c-.014-.22-.062-.447-.096-.637-.028-.162-.081-.277-.147-.485-.053-.175-.176-.323-.247-.493a5.28 5.28 0 00-.535-.893c-.233-.308-.393-.555-.662-.825 0 0-.023.057.005.22.031.158.104.533.208.884.106.344.253.766.455 1.204a6.332 6.332 0 001.008 1.468s.027-.223.011-.443m66.494-16.03l-30.515.048.064 43.208 4.155-2.06-.057-36.994 24.31-.041c0-.003 2.043-4.162 2.043-4.162"/><path d="M88.588 13.149l-2.074-4.157-22.546.04.06 35.245 4.156 2.051-.015-15.576 16.658-.027-2.073-4.155-14.596.023-.007-1.753 14.61-.023 2.05-4.158-16.667.027-.012-7.503 20.455-.034zm7.135-10.467l.072 43.591 4.161-2.053-.064-39.492-4.17-2.045h.001zm10.067-.015l.066 43.591-4.154-2.042-.064-39.49 4.152-2.06zm42.62-.07l.07 43.593 4.155-2.054-.061-39.492-4.164-2.047zm10.07-.015l.07 43.596-4.16-2.046-.064-39.49 4.154-2.061zm-24.46 28.194l-.044-26.1-4.16-2.047.04 27.394c.007 4.022-.955 6.627-5.269 6.633-2.87.006-4.784-1.443-6.719-3.641l-1.566 4.29c1.985 1.666 4.02 3.519 8.827 3.512 4.803-.008 8.902-3.459 8.89-10.04"/><path d="M139.93 30.721l-.044-28.111-4.16 2.06.047 26.504c.01 7.386-5.236 11.385-10.756 11.394-5.524.009-8.359-2.535-9.917-3.976l-4.291 1.596c3.124 3.189 7.05 6.54 14.093 6.526 7.048-.012 15.046-4.665 15.029-15.994M9.666 39.743c-.086 0-3.325.266-3.814.44.215.314 1.093 1.301 1.561 1.738.464.436 1.824 1.715 2.3 2.097.064.037.048.004.104-.205.05-.212-.016-4.074-.151-4.07m4.407-3.005c-.202-.16-1.087-1.19-1.237-1.354-.148-.16-1.16-1.307-1.21-1.363-.05-.053-.14-.236-.218-.346 0 0 .15 3.445.196 3.53.046.081 2.187.112 2.893-.06 0 0-.215-.25-.424-.407m-.474 9.249s.63.343.749.486c.12.142.602.277.777.443 0 0 .072-.112.158-.274.068-.126.114-.26.204-.417.067-.12.139-.167.222-.396.081-.224.33-.751.414-.934.083-.185 1.85-3.636 1.989-3.915.142-.278.707-1.303.866-1.534l-.152-.104c-.088-.057-.512-.296-.638-.376-.128-.08-.055.016-.235-.148 0 0-1.51 2.636-1.594 2.796-.078.16-.29.534-.381.721-.096.188-.248.528-.3.617-.049.085-1.632 2.412-1.716 2.54-.124.187-.19.24-.363.495m-1.624-.786c.112-.065.221-.155.395-.356.175-.204 3.846-6.174 3.947-6.286.097-.11 0-.22-.111-.183-.112.043-4.7.575-4.875.702.043.126.004.425.046.658.034.229.369 4.681.432 4.887.104.313.01.306.166.578m-1.723-12.992s-5.325 6.135-5.4 6.33c.057-.024-.076.16.127.066.206-.1 4.524-1.15 4.617-1.203.062-.062.628-4.656.656-5.193M3.91 36.195c.15-.208 2.702-2.688 2.971-3.014.267-.324 1.662-1.649 2.69-2.922-.059-.203-.229-.693-.321-.987-.088-.278-.144-.446-.213-.73 0 0-.11.164-.157.242-.045.071-.212.238-.536.643-.326.405-1.932 2.011-2.484 2.655-.553.643-2.812 2.835-3.23 3.27 0 0 .042.17.116.315.073.146.299.492.508.946 0 0 .081.155.18.096 0 0 .324-.307.476-.514m-1.96-3.281c.198-.116 1.062-1.039 1.226-1.197 0 0 2.497-2.472 3.15-3.064.658-.59 1.467-1.58 2.173-2.28 0 0-.04-1.165-.006-1.432.034-.269.006-.68.016-.993.006-.315-.005-.328-.067-.39 0 0-.16-.087-.356-.178-.193-.092-2.397-1.281-2.575-1.359-.17-.076-.701-.259-1.015-.42-.311-.16-3.612-2.03-3.972-2.135 0 .118-.072.527-.103.811-.029.28-.132.63-.142.902.068.028.669.308.977.469.315.16 2.663 1.413 3.219 1.662.556.255 2.844 1.396 3.235 1.633-.118.051-.556.455-.783.616-.228.166-1.505 1.563-1.921 1.964-.413.4-1.04.972-1.314 1.268-.271.3-2.111 2.027-2.27 2.124-.156.098-.323.258-.418.299.02.11.07.508.108.71.047.202.094.561.137.684.038.122.078.39.205.624.118-.093.282-.2.496-.318"/><path d="M.777 24.031c-.268-.1-.365-.14-.745-.243 0 0 .014.038-.01.31-.022.27.068 1.605.1 1.995.034.39.155 1.3.319 2.219 0 0 .208-.069.45-.244.241-.17 1.29-1.009 1.738-1.364.45-.358 1.307-1.089 1.512-1.24.189-.145.281-.212.281-.212-.088-.02-.977-.225-1.141-.29-.177-.071-.34-.09-.577-.215-.23-.12-.71-.277-.914-.38-.146-.073-.665-.207-1.013-.336m8.116-3.2c-.01-.069.042-.285.06-.472.016-.182.039-.404.157-.704 0 0-.104-.05-.236-.092-.108-.035-2.418-.98-3.083-1.272-.669-.293-3.376-1.542-3.63-1.692-.252-.148-.524-.236-.728-.354 0 0-.17.303-.232.433-.056.126-.184.684-.2.962 0 0 .755.225.809.253.05.025 6.233 2.746 7.065 3.083 0 0 .023-.073.018-.145m.594-3.589c-.12-.092-6.177-3.277-6.317-3.37-.141-.093-.401-.164-.575-.287 0 0 .33-.18.508-.248.09-.03.286-.095.564-.154.278-.063 4.651-1.07 4.808-1.092.072-.011.133.17.149.221.013.054.657 1.997.763 2.415.106.417.633 2.392.619 2.465-.012.074.033.164-.03.239 0 0-.366-.092-.489-.189M5.41 10.419c.208-.072 3.717-.729 3.908-.779-.014-.109-.165-.89-.199-1.136-.034-.242-.298-2.055-.368-2.272-.059-.162-.061-.213-.136-.254 0 0-.107 0-.171.027 0 0-.102.076-.295.246-.19.17-.867.818-1.295 1.224-.424.405-1.225 1.442-1.477 1.776-.255.332-.698 1.04-.914 1.4 0 0 .114-.034.24-.09.152-.074.576-.095.706-.142m7.74 2.595c.778-.736 1.44-1.222 1.976-1.53-.074-.077-.26-.098-.368-.132-.108-.03-3.492-.365-3.7-.387-.205-.024-.25.01-.405.01 0 0 .253 1.251.272 1.516.016.263.24 2.142.322 2.56.124-.155 1.122-1.306 1.903-2.037m3.47-3.2c-.174-.148-6.044-4.64-6.162-4.77-.227-.247-.245-.203-.2.157.042.323.206 1.021.293 1.445.084.42.347 1.658.455 2.444 0 0 .423.058.65.109.232.051 4.772.853 5.152.85.086 0-.005-.084-.188-.235m3.336-1.018a48.92 48.92 0 00-.714-.697c-.244-.22-1.022-1.003-1.425-1.366-.41-.362-1.55-1.366-2.136-1.878-.342-.3-2.04-1.943-2.143-2.083 0 0-.052.002-.214.154-.163.147-.875.64-.953.685-.073.044-.085.072.024.153.11.082 5.44 4.79 5.664 4.965.218.173.648.484.678.51.057.047.053 0 .178-.036.124-.035.786-.199 1.128-.274 0 0-.054-.101-.087-.133m-2.84-6.234c.151.192 3.054 3.018 3.327 3.284.274.264 2.168 2.187 2.286 2.274.113.088.199.203.24.234 0 0 2.636-.104 2.97-.033.05-.133.238-.45.36-.668.125-.218 1.22-3.505 1.491-4.16.27-.66.828-2.011.943-2.298.116-.288.155-.476.272-.625 0 0-.083-.073-.193-.095-.114-.029-.527-.075-.684-.124-.144-.036-.324-.05-.538-.093 0 0-.343.658-.41.831-.068.177-.932 2.169-1.06 2.391-.13.224-1.437 4.128-1.636 4.42 0 0-.942-1.112-1.25-1.424-.31-.316-3.229-3.142-3.745-3.659-.52-.519-1.121-1.083-1.606-1.711 0 0-.112.037-.44.131-.327.099-.829.31-1.05.385-.219.076-.123.155-.02.272.232.255.623.522.743.669"/><path d="M25.38 0s-.235.009-.49.015c-.256-.002-.591 0-.99.026-.408.028-1.226.05-1.931.12-.52.052-.853.08-1.552.283 0 0 .41.466.566.63.162.163.803.95 1.359 1.588.561.64 1.21 1.355 1.499 1.739 0 0 1.317-3.554 1.539-4.401m3.072 8.968c.236.059.696.212.872.266.148.045.122-.02.215-.223a4.78 4.78 0 01.38-.62c.205-.283 1.49-2.148 1.758-2.448.268-.3.532-.768.762-1.064.227-.293 1.074-1.291 1.21-1.552.063-.117.2-.317.584-.872 0 0-.1-.07-.212-.137-.114-.071-.41-.323-.698-.428-.288-.106-.827-.408-1.185-.387 0 0-.297.58-.435.81-.134.226-.884 1.383-1.066 1.665a451.71 451.71 0 00-2.428 4.04c-.123.203-.342.528-.489.771 0 0 .502.121.732.18m3.573 1.023c.188-.05 3.155-1.306 3.408-1.384.255-.077.37-.17.568-.32.064-.126.16-.281.157-.568-.001-.289.21-3.406.224-3.731.02-.355.102-.597-.048-.426-.145.17-1.011 1.319-1.27 1.65-.272.33-1.435 1.916-1.784 2.403-.347.485-1.234 1.89-1.559 2.427 0 0 .117 0 .304-.05m4.091 3.778c-.004-.13.059-2.584.075-2.905.019-.322.044-.26-.128-.226-.07.007-.202.06-.367.124-.132.053-1.412.309-1.66.37-.243.058-.722.088-1.032.238.077.019.462.366.735.598.272.233.904.755 1.262 1.078.36.321.825.77 1.08.995.077.07.041-.147.035-.272m3.42-.535c.357-.441 1.893-2.332 2.136-2.498.246-.166.58-.506.757-.643.18-.14.287-.231.202-.212-.083.019-.232.062-.447.098-.218.038-2.432.497-2.78.551-.342.058-.83.104-1.346.264.006.126-.095 1.294-.096 1.585-.006.295-.068 1.174-.068 1.324 0 .15-.051.644-.06.812-.01.169-.03.515-.015.84-.005.056.037.028.158-.126.095-.166 1.2-1.554 1.56-1.995m-.133 5.789c.075-.087.184-.22.307-.343.127-.122 3.782-4.149 3.961-4.313a2.06 2.06 0 00.351-.419c.03-.04.273-.3.411-.403.14-.1-.034.043.764-.618a4.33 4.33 0 01-.249-.425c-.054-.108-.228-.307-.403-.588a2.7 2.7 0 00-.424-.552s-.168.126-.3.238c-.14.108-1.045 1.203-1.197 1.365-.148.163-.337.513-.47.674-.129.159-1.231 1.28-1.495 1.521-.265.244-1.715 1.872-1.838 1.982-.12.106-.133.174-.296.319.063.086.092.429.137.622.04.197.193 1 .285 1.31.123-.1.376-.286.456-.37m2.234-10.859c-.146-.181-.295-.406-.478-.618-.187-.219-1.61-1.803-1.78-2.023-.171-.221-.559-.526-.69-.677-.132-.146-.113-.095-.178-.174-.045-.05-.096-.13-.138-.095-.057.048-.041.136-.057.254-.03.238-.022.333-.082.611-.05.226-.22 2.786-.229 2.99-.009.207-.042.663-.042.663s3.298-.443 3.423-.471c.178-.042.206-.041.5-.083 0 0-.111-.195-.249-.377m-.601 13.803c.134-.11 3.343-2.59 3.544-2.754.203-.169.704-.509 1.134-.864.43-.353.826-.636 1.464-1.032 0 0-.011-.315-.105-.656-.092-.339-.54-1.456-.54-1.456s-.262.238-.397.349c-.133.11-4.918 4.293-5.304 4.616-.384.318-1.01.9-1.14 1.01-.137.111-.21.149-.19.311.017.11.018.473.046.71.026.237.092.69.05.934-.037.246-.047.794-.1 1.102.201.053 2.545.956 2.955 1.11.408.156 1.228.467 1.684.634.458.164 1.477.543 1.837.696.362.147 1.127.475 1.55.622.05-.167.07-.5.073-.891 0-.388-.025-.629-.048-.932 0 0-.181-.105-.39-.194a45.443 45.443 0 00-1.884-.704c-.495-.156-4.526-1.634-4.697-1.725-.168-.094-.107-.152-.013-.29.082-.121.282-.447.47-.596"/><path d="M47.781 22.78c.012-.208.01-.53.01-.81-.001-.544-.087-1.49-.111-1.93a8.7 8.7 0 01-.008-.62c.005-.23-.133-.049-.276.07-.147.12-3.085 2.4-3.173 2.494-.094.092-.342.201-.29.234.053.036.146.033.307.087.2.064 2.183.74 2.479.857.296.113.79.244 1.03.372.013-.178.024-.547.032-.754m-1.055 7.519c-.133-.064-.41-.172-.65-.33-.24-.158-.595-.357-.866-.564-.276-.204-1.303-.692-1.718-.92-.42-.227-2.728-1.443-3.028-1.603-.294-.155-.835-.413-1.257-.635 0 0 .007.31 0 .5-.008.192 0 .801.005.97.002.169.005.268.1.343.095.075 4.011 2.31 4.301 2.459.289.147 2.45 1.396 2.568 1.455.17-.137.221-.318.341-.503.083-.126.21-.338.288-.51.074-.17.183-.354.256-.484 0 0-.192-.106-.34-.178m-2.64 3.932c-.204-.194-3.235-2.323-3.786-2.758-.55-.433-1.68-1.24-1.75-1.309-.095-.09-.156-.134-.171.002-.016.142-.043.318 0 .62.04.3.122 1.198.17 1.524.044.325.103 1.086.124 1.498.024.414.095 1.007.112 1.483 0 0 .38-.03.655-.041.275-.015 4.823-.471 5.169-.623 0 0-.314-.201-.523-.396m-7.261-.648c-.014-.21-.03-.452-.04-.636-.211.185-.301.312-.465.518-.163.208-.713.946-1.004 1.254-.29.306-.786.78-.984.923-.197.142-.941.675-1.048.746-.105.072-.065.127.055.15.123.022 2.754-.196 3.57-.3.072-.266-.066-2.446-.084-2.655m4.639 6.965c.329-.376 1.505-1.78 1.55-1.856.046-.078.9-1.38.91-1.464.018-.082.062-.084.044-.187-.27.08-4.956.58-5.602.628.022.158.127 4.982.194 5.178l.023.078.088-.028c.146-.168 2.466-1.97 2.793-2.349m-5.3-2.204s-.595.045-.865.006c-.266-.036-4.006-.028-4.394.006 0 0 .184.182.376.43.192.252 5.06 4.914 5.185 5.085.118.173.343.167.43.15.093-.17-.085-.698-.11-.881-.063-.388-.481-4.498-.622-4.796m-1.938 7.4c.28-.088.398-.183.483-.261-.075-.103-.22-.27-.584-.683-.363-.41-3.826-4.156-4.315-4.663-.49-.512-.646-.683-1.035-1.087 0 0-.195.08-.425.134-.236.056-.513.123-.65.167-.142.043-.207.033-.092.11.11.077 3.18 3.595 3.599 4.051a65.26 65.26 0 011.648 1.88c.149.191.234.372.474.77.341-.102.618-.33.897-.418m-6.523-1.866a42.79 42.79 0 01-1.78-2.01c-.728-.87-1.285-1.367-2.072-2.025-.37-.005-1.906-.038-2.505-.12a2.689 2.689 0 00-.216.41c-.062.128-1.989 3.99-2.133 4.281-.149.294-.682 1.28-.791 1.513-.104.235-.066.047-.292.385a4.778 4.778 0 00-.59 1.198c.118.087.408.194.63.288.227.097.776.186 1.01.292.025-.123 3.077-6.249 3.295-6.703.215-.46.372-.52.595-.867 0 0 2.554 2.662 2.82 3.014.264.354 1.446 1.881 1.861 2.427.414.544.97 1.147 1.346 1.778 0 0 .902-.176 1.095-.258.197-.083.652-.184.81-.283-.184-.14-2.531-2.745-3.083-3.32"/><path d="M22.769 48.656s.08-.01.556 0c.406.006.427-.022.8-.018.372.004.863-.06 1.414-.187.548-.127.614-.128 1.036-.216.396-.081.434-.124.316-.294-.121-.171-.393-.54-.644-.876a9.947 9.947 0 00-.832-.974c-.386-.4-1.16-1.129-1.44-1.443-.274-.315-.554-.63-.797-.928-.088.077-.25.453-.386.68-.134.228-.357.775-.473 1.016-.112.237-.655 1.459-.872 1.875-.218.412-.272.678-.487 1.05l-.02.057.089.024c.123.008.255.114.544.125.224.006.803.13 1.196.109m173.141-2.632l-1.743-.91-1.648.914-.031-21.27 1.748.873 1.637-.878.037 21.27zm36.59-14.758l4.34 14.696 1.62-.918 1.61.91 6.193-21.28-1.954.879-1.472-.873-4.385 16.089-4.73-16.075-1.224.873-1.236-.871-4.669 16.092-4.442-16.077-1.463.877-1.96-.87L225 45.983l1.602-.92 1.624.909 4.275-14.706zm38.17 14.631l-.018-8.483-7.438-12.766 2.369.868 1.359-.875 5.523 9.824 5.45-9.841 1.368.87 2.353-.88-7.365 12.793.01 8.484-1.841-.91-1.77.916zm20.6.276c-4.695.009-9.005-2.037-8.238-6.751l1.665.83 1.797-.835c-.427 2.315 1.968 3.829 4.766 3.824 3.162-.003 5.084-1.323 5.08-3.14-.006-5.032-12.809-2.53-12.822-10.033-.008-3.794 3.558-5.772 7.91-5.779 4.576-.002 8.544 1.923 7.623 6.363l-1.724-.84-1.842.852c.448-2.204-1.053-3.518-4.053-3.51-2.42 0-4.423 1.163-4.422 2.945.008 4.444 12.819 2.295 12.83 9.797.008 4.178-3.604 6.271-8.57 6.277m-78.67-7.246c2.018-1.083 3.557-3.837 3.65-6.707-.01-.099.008-.67-.002-.773-.247-4.137-3.2-6.725-6.91-6.72l-7.998.014.03 21.275.009-.003 1.634-.91 1.604.91-.01-6.198 3.747-.016s.338 0 .892-.047l4.905 6.24 1.325-.913 3.02.912-5.896-7.064zm-7.995-2.045l-.022-9.102 4.65-.01c2.04.002 3.614 1.67 3.778 3.746.006.07.04.195.04.522-.004.34-.052.652-.055.73-.267 2.49-1.975 4.11-4.04 4.109l-4.35.005zm-28.485.04l6.316-.005-3.19-8.624-3.126 8.629zm4.973-12.144l7.996 21.249-2.032-.898-1.354.902-2.3-6.201-8.232.009-2.31 6.214-1.364-.904-2.022.91 7.927-21.274 1.837.87 1.854-.878zm71.257 12.024l6.31-.01-3.223-8.619-3.087 8.629zm4.973-12.144l7.99 21.249-1.953-.9-1.425.907-2.308-6.206-8.226.012-2.31 6.214-1.421-.908-1.97.91 7.924-21.275 1.864.873 1.835-.876z"/></g></svg>