<svg viewBox="0 0 760 130.73" xmlns="http://www.w3.org/2000/svg"><path d="M120.984 80.122s-31.042-14.186-30.45-21.946c.077-.778.45-1.507 1.214-2.129 0 0 16.17-17.82 47.529-30.37 25.301-10.153 31.283-9.454 31.283-9.454-.44 11.616 7.07 20.769 19.168 24.989 0 0 47.418-15.1 74.186-17.265 32.306-2.626 44.044 9.404 44.044 9.404s26.845 1.55 35.757 7.054c0 0 1.14.908 1.084 1.378-.014.157-.172.241-.542.241-1.488.023-6.413-1.055-13.609-.283-17.206 1.855-48.22 5.654-57.375 10.745 0 0-49.777 78.888-273.271 77.757 0 0 69.175-15.08 120.984-50.12" fill="#25407b"/><path d="M174.925 2.887c1.985-.114 6.625.672 7.612 3.335 0 0-7.268-4.35-99.11 24.81C54.627 40.149 11.217 9.913.113.46c0 0 34.726 9.154 174.818 2.428" fill="#d42b3f"/><path d="M402.067 18.436h-.141L396 35.916h11.89zm-9.993 28.43l-3.797 9.55h-15.145l21.146-54.969h15.594l20.689 54.968h-15.238l-3.57-9.55zm64.649 9.552h-14.287V13.543h-14.584V1.463h43.499v12.08h-14.628zM492.2 44.31h17.141v12.107h-31.414V1.463H492.2zm51.838-25.874h-.158l-5.902 17.48h11.884zm-9.992 28.43l-3.793 9.55h-15.166l21.15-54.969h15.576l20.718 54.968h-15.243l-3.573-9.55zM579.358 1.45h14.306l26.142 33.597h.142V1.45h14.305v54.968h-14.305l-26.165-33.665h-.119v33.665h-14.306zm90.313 54.968h-14.309V13.543h-14.585V1.463h43.488v12.08H669.67zm37.299-.018h-14.274V1.45h14.275zm51.01-36.518c-2.905-3.919-7.655-6.027-12.557-6.027-8.718 0-14.613 6.692-14.613 15.23 0 8.658 5.955 14.935 14.824 14.935 4.691 0 9.368-2.27 12.346-5.84v17.141c-4.745 1.46-8.157 2.556-12.597 2.556-7.664 0-14.962-2.934-20.641-8.075-6.05-5.49-8.835-12.636-8.835-20.79 0-7.511 2.852-14.73 8.105-20.108 5.385-5.561 13.201-8.9 20.926-8.9 4.569 0 8.812 1.014 13.042 2.752zM402.067 91.32h-.141L396 108.817h11.89zm-9.993 28.425l-3.797 9.535h-15.145l21.146-54.956h15.594l20.689 54.956h-15.238l-3.57-9.535zm64.649 9.535h-14.287V74.325h14.287zm33.571-30.31h1.363c4.674 0 9.921-.868 9.921-6.844 0-5.99-5.247-6.87-9.92-6.87h-1.364zm31.394 30.31h-17.785l-13.468-21.125h-.141v21.125H476V74.324h21.35c10.867 0 19.11 5.189 19.11 16.914 0 7.573-4.244 14.134-12.033 15.537zm27.089-19.45h.145l11.53-35.505h11.358l10.773 35.505h.153l10.352-35.505h14.86l-17.559 54.956h-14.578l-9.628-31.838h-.138l-10.777 31.838h-14.501l-16.402-54.956h14.854zm88.49-18.51h-.142l-5.9 17.498h11.88zm-9.97 28.425l-3.808 9.535h-15.14l21.113-54.956h15.61l20.695 54.956h-15.244l-3.564-9.535zm34.858-45.421h17.125l10.272 14.945 10.276-14.945h17.15l-20.277 28.572v26.384h-14.257v-26.384zm89.919 14.152c-2.631-2.187-5.977-3.64-9.488-3.64-2.613 0-6.106 1.531-6.106 4.58 0 3.218 3.849 4.446 6.326 5.247l3.646 1.097c7.67 2.25 13.555 6.123 13.555 15.006 0 5.463-1.301 11.072-5.661 14.8-4.308 3.633-10.077 5.164-15.628 5.164-6.908 0-13.691-2.315-19.288-6.25l6.106-11.524c3.585 3.159 7.789 5.686 12.7 5.686 3.353 0 6.908-1.675 6.908-5.538 0-4.005-5.609-5.407-8.664-6.271-8.97-2.548-14.878-4.887-14.878-15.514 0-11.153 7.947-18.454 18.948-18.454 5.547 0 12.318 1.763 17.206 4.538z" fill="#25407b"/></svg>