<svg viewBox="0 0 434.8 174.3" xmlns="http://www.w3.org/2000/svg" xmlns:xlink="http://www.w3.org/1999/xlink"><style>.st0{clip-path:url(#a);fill:#72cdf4}</style><defs><path id="b" d="M0 0h434.8v174.3H0z"/></defs><clipPath id="a"><use xlink:href="#b"/></clipPath><path class="st0" d="M274.9 109.2c-22.5 10.9-38.8 33.5-37.3 49.9C149 132.8 66.5 142.7 6.7 172.5c-3.5 1.7-6.7 1.4-1.2-1.8 60.6-35.8 177.1-67.5 269.4-61.5"/><path d="M434.8 75.6l-3.2 14.9s-.9 6.7-5.7 9.2c-4.7 2.5-12.5 2.4-12.5 2.4h-83.7l5-23.4c-8.3 18.2-29.9 26.8-68.2 26.8-18.6 0-37.8-1.6-48.4-9.7l1.3 6.2H178l-1.7-11.3h-40.6l-6.6 11.3H87.8l54.5-85.4s5.4-8.8 9.6-10.9c4.8-2.4 13.6-2.3 13.6-2.3h33.1l14.7 68.9h44.6c-.6 3.3.2 5.5 2.6 7 2.6 1.4 6.7 2.1 12.8 2.1 12.2 0 16.2-3.3 17.2-8 .6-2.9-.6-5.8-5.6-6.6l-43.1-6.6c-18.4-2.9-24-14-21-27.8C226.2 6.9 252.6 0 284.7 0c43.9 0 59.6 11.5 56.5 32.3h-45.3c.9-4-1-6.5-4.3-7.9-3.1-1.5-7.4-2.1-11.7-2.1-11.6 0-16.2 2.9-17.1 7-.6 2.8.3 4.6 4 5.1l45.1 6.9c15.9 2.4 25.6 9.2 26.3 21.2l12.6-59.1h39l-15.3 72.1h60.3zM193.4 52.2S180.6 46.1 165 47c-23.6 1.4-31.7 16.1-31.7 16.1s10-7 28.3-6.1c12.7.6 20 5.3 20 5.3s1.7-5.3 4.7-7.5 7.1-2.6 7.1-2.6m98.8 59h4.4l3.3 20.9h-4.7l-.7-4.6h-8.8l-3.1 4.6h-4.9l14.5-20.9zm1.8 12.2l-.9-6.8-4.6 6.8h5.5zm14.2-12h4.5l-5.5 20.7h-4.6zm9.7 0h7.6c3.1 0 5.2.7 6.6 2.1 1 1 1.6 2.5 1.6 4.2 0 3.7-2.3 6.4-6.7 7.4l3.5 7.1h-5.2l-3.2-6.6h-3.4l-1.8 6.6h-4.6l5.6-20.8zm6 10.1c2.8 0 5-1.2 5-3.4 0-.7-.2-1.2-.7-1.7-.6-.6-1.6-.9-3-.9h-3.8l-1.6 6h4.1zm15.6-10.1h4.5l-4.4 16.6h10.3l-1.1 4.1h-14.9zm18.7 0h4.6l-5.6 20.7h-4.6zm9.8 0h4.2l6 13.2 3.6-13.2h4.5l-5.6 20.7h-3.9l-6.3-13.6-3.6 13.6h-4.5zm23.2 0h15.5l-1.1 4.1h-10.9l-1.2 4.2h9.7l-1.1 4h-9.7l-1.1 4.4h11.1l-1.1 4h-15.6zm13.5 17.2l3.4-2.9c1.6 1.8 3.4 2.7 5.8 2.7 1.8 0 3.2-.9 3.2-2.2 0-1-.7-1.6-3.5-2.7-2.7-1.1-5.1-2.5-5.1-5.6 0-4.2 3.8-6.8 8.2-6.8 3.6 0 6 1.2 7.8 3.1l-3.1 3.1c-1.6-1.4-3-2.2-5-2.2-1.9 0-3 1.1-3 2.1 0 1.1.8 1.6 3.6 2.7 2.8 1.2 5 2.6 5 5.6 0 4.4-3.9 6.9-8.2 6.9-4.1 0-7.1-1.3-9.1-3.8" fill="#00539b" clip-path="url(#a)"/><path class="st0" d="M267.6 140h15.7l-1.1 4.1H271l-1.2 4.4h9.9l-1.1 4.2h-9.9l-2.1 8H262zm19.6 0h7.6c3.1 0 5.2.7 6.6 2.1 1 1 1.6 2.5 1.6 4.2 0 3.7-2.3 6.4-6.7 7.4l3.5 7.1h-5.2l-3.2-6.6H288l-1.8 6.6h-4.6l5.6-20.8zm5.9 10.1c2.8 0 5-1.2 5-3.4 0-.7-.2-1.2-.7-1.7-.6-.6-1.6-.9-3-.9h-3.8l-1.6 6h4.1zm22.2-10.3h4.4l3.3 20.9h-4.7l-.7-4.6h-8.8l-3.1 4.6h-4.9l14.5-20.9zm1.8 12.2l-.9-6.8-4.6 6.8h5.5zm14-12h4.2l6 13.2 3.6-13.2h4.5l-5.6 20.7h-3.9l-6.2-13.6-3.7 13.6h-4.5zm19.3 12c0-6.6 5.6-12.4 12.6-12.4 4 0 6.6 1.7 8.3 4.4l-3.8 2.6c-1.2-1.7-2.6-2.8-5.1-2.8-3.8 0-7.3 3.6-7.3 8 0 3 2.1 5 5.1 5 2 0 3.3-.8 4.9-2l3 3.1c-2 1.8-4.4 3.2-7.8 3.2-5.8 0-9.9-3.5-9.9-9.1m25.5-12h15.4l-1 4h-11l-1.1 4.3h9.6l-1.1 4h-9.6l-1.2 4.4H387l-1.1 4h-15.6z"/></svg>