<svg width="153.65" height="57.693" viewBox="0 0 40.653 15.265" xmlns="http://www.w3.org/2000/svg"><path d="M15.133 7.633A7.5 7.5 0 11.132 7.63a7.5 7.5 0 0115.001.002" fill="#ed1c24"/><path d="M12.58 3.117c-1.202-.774-2.584-1.035-3.798-.862-1.183.168-2.502 1.192-2.502 2.593 0 .83-.696 1.43-1.52 1.43-1.125 0-1.726-.883-2.766-.883-.813 0-1.32.39-1.593.637-.06.053-.09.105-.09.157 0 .052.045.119.113.142.498.173 1.12.437 1.862.96a8.763 8.763 0 012.196 2.172c2.315 3.266 5.986 3.102 7.245 2.593 1.303-.528 2.322-1.566 2.794-2.712.036-.085-.082-.142-.134-.06-.146.227-.877 1.206-2.24 1.206a2.711 2.711 0 01-2.713-2.698c0-1.25.947-2.692 2.783-2.692 1.543 0 2.878 1.326 2.902 2.826a5.683 5.683 0 00-2.539-4.81" fill="#fee702"/><path d="M24.468 11.375a.174.174 0 01.053-.007c.047 0 .083.014.1.04.023.027.025.076.007.143a.31.31 0 01-.135.185 9.08 9.08 0 01-.169.098c-.03-.008-.06-.02-.09-.03-.032-.023-.038-.063-.028-.126a.518.518 0 01.1-.2.35.35 0 01.162-.103m-4.728.144a.24.24 0 00-.063.106c0 .086-.004.172 0 .254a.7.7 0 01.055.03.213.213 0 00.074.023c.024 0 .05-.01.075-.031a.92.92 0 00.163-.147.439.439 0 00.107-.216c.01-.065.006-.112-.013-.137-.018-.026-.05-.04-.092-.04a.336.336 0 00-.159.048.515.515 0 00-.147.11m-.261 1.01a.502.502 0 00-.157.12 1.737 1.737 0 00-.13.174c-.012.032-.027.084-.051.154a2.705 2.705 0 00-.104.396c-.021.148-.003.251.054.31.028.021.056.043.09.063a.33.33 0 00.16.063.291.291 0 00.164-.049.356.356 0 00.179-.086.435.435 0 00.131-.188.358.358 0 00.015-.1l-.028.028a.342.342 0 01-.219.072.193.193 0 01-.12-.047.185.185 0 01-.052-.127c.017-.052.043-.156.078-.315a2.19 2.19 0 01.045-.171.81.81 0 01.096-.197c.022-.068.013-.103-.028-.104l-.057.004a.195.195 0 01-.066 0m2.292.03a.924.924 0 00-.1.086.299.299 0 00-.065.115l.203-.01c.023.105.013.262-.034.476a7.83 7.83 0 00-.082.389c-.003.065.013.11.044.136a.21.21 0 00.13.04.617.617 0 00.065-.003c.084-.155.172-.306.26-.462a1.89 1.89 0 01.308-.415c.068 0 .11.059.122.181l.028.284c.052.138.108.243.167.313a.32.32 0 00.344.112.54.54 0 00.244-.12c.05-.048.084-.1.098-.154.009-.024.01-.053.009-.08a.383.383 0 01-.138.035c-.1 0-.175-.084-.235-.248a18.098 18.098 0 00-.238-.692.265.265 0 00-.066-.01c-.1 0-.223.082-.367.245a4.95 4.95 0 01-.364.39c-.019-.014-.025-.048-.012-.101a.375.375 0 00.01-.097.841.841 0 00-.036-.313c-.034-.084-.09-.127-.166-.127a.364.364 0 00-.129.03m2.697-1.184a.35.35 0 00-.161.104.518.518 0 00-.101.199c-.01.063-.004.103.027.125.032.011.06.023.091.03a9.08 9.08 0 00.17-.097.31.31 0 00.135-.185c.018-.067.015-.116-.008-.142-.017-.027-.052-.041-.1-.041a.171.171 0 00-.053.007m.023.18l-.098.014c-.04.014-.069.046-.081.097a.17.17 0 00.103-.014.185.185 0 00.076-.097m.576-.036a.258.258 0 00-.063.106c-.003.086-.003.172-.003.254.01.003.029.013.057.03.034.015.06.023.075.023.025 0 .047-.01.072-.031a.848.848 0 00.166-.147.469.469 0 00.108-.216c.008-.065.005-.112-.017-.136-.017-.027-.047-.04-.09-.04-.048 0-.1.016-.16.047a.576.576 0 00-.145.11m-.103 1.01a.485.485 0 00-.151.128c-.03.039-.07.1-.119.183-.01.031-.022.083-.044.156a2.616 2.616 0 00-.078.402c-.013.148.012.248.072.306.031.021.061.04.094.056a.34.34 0 00.167.054.28.28 0 00.156-.057.4.4 0 00.176-.097.44.44 0 00.119-.196c.01-.033.012-.066.01-.102l-.026.031a.34.34 0 01-.214.084.193.193 0 01-.125-.04c-.031-.026-.05-.068-.06-.123a3.85 3.85 0 00.06-.318c.01-.073.023-.13.035-.175a.717.717 0 01.085-.202c.018-.07.006-.103-.035-.103l-.056.009a.16.16 0 01-.066.005m.865.03a.654.654 0 00-.098.085.316.316 0 00-.068.115l.203-.01c.026.105.013.262-.034.476-.047.211-.071.342-.081.389-.004.065.012.11.047.136.034.028.078.04.128.04a.61.61 0 00.063-.002l.263-.463a1.8 1.8 0 01.305-.415c.069 0 .11.06.125.181l.028.285a.977.977 0 00.167.313.318.318 0 00.247.124.53.53 0 00.093-.013.532.532 0 00.245-.12.33.33 0 00.1-.154.208.208 0 00.007-.08.383.383 0 01-.138.035c-.098 0-.176-.084-.232-.248a30.848 30.848 0 00-.24-.692c-.017-.004-.039-.01-.067-.01-.1 0-.223.082-.366.246a5.295 5.295 0 01-.365.388c-.018-.012-.022-.047-.013-.1a.766.766 0 00-.025-.41c-.03-.084-.087-.126-.165-.126a.364.364 0 00-.129.03m6.152-1.04a.333.333 0 00-.063.105v.254l.057.03a.22.22 0 00.074.023.11.11 0 00.073-.031.948.948 0 00.166-.147.462.462 0 00.106-.216c.01-.065.004-.112-.015-.136-.018-.027-.05-.04-.09-.04a.35.35 0 00-.16.047.572.572 0 00-.148.11m-.1 1.01a.472.472 0 00-.15.128c-.032.04-.074.1-.123.183-.01.032-.022.083-.04.156a2.257 2.257 0 00-.08.402c-.012.148.012.248.072.306.03.021.06.04.093.057a.342.342 0 00.168.053.288.288 0 00.157-.057.398.398 0 00.173-.097.424.424 0 00.122-.195.463.463 0 00.009-.103l-.026.031a.34.34 0 01-.215.084.193.193 0 01-.123-.04c-.034-.026-.052-.068-.06-.123.014-.054.032-.158.06-.318.01-.073.022-.13.034-.175a.805.805 0 01.083-.201c.018-.07.009-.104-.036-.104l-.053.01a.175.175 0 01-.065.004m1.655-.067c-.21 0-.398.142-.559.426a.414.414 0 00-.064-.213.182.182 0 00-.155-.08.116.116 0 00-.037.004c-.05.02-.095.035-.142.049a.205.205 0 00-.109.129.232.232 0 00.04-.005c.126 0 .167.134.123.393-.06.354-.081.56-.066.623a.356.356 0 00.047.016c.02.007.05.01.05.01a.13.13 0 00.105-.054l.209-.589A.411.411 0 0133.06 13a.155.155 0 01.108-.047c.028 0 .085.017.176.054a.31.31 0 00.091.016l.264-.475c-.01-.04-.036-.06-.083-.06-.044-.006-.072-.012-.081-.024m.75-1.352c-.041.085-.07.154-.092.21a4.307 4.307 0 00-.139.537 5.314 5.314 0 01-.118.472.933.933 0 01-.053.142 2.058 2.058 0 01-.065.31 2.359 2.359 0 00-.044.156l-.04.15a2.73 2.73 0 00-.083.403.65.65 0 00.041.3c.038.015.07.024.103.024.054 0 .11-.013.165-.04a1.7 1.7 0 00.195-.112.25.25 0 00.02-.107c0-.023-.02-.035-.053-.035-.017 0-.04.003-.08.006-.028 0-.049-.007-.062-.023-.012-.018-.016-.05-.01-.098l.59-1.868a.764.764 0 00-.087-.287c-.05-.093-.114-.14-.188-.14m.667.408a.233.233 0 00-.063.107c-.003.085-.003.171-.003.254a.55.55 0 01.057.03c.034.014.056.022.077.022s.045-.01.07-.03a.94.94 0 00.167-.148.466.466 0 00.106-.216c.01-.065.007-.112-.017-.136-.016-.027-.046-.04-.09-.04-.046 0-.1.016-.158.047a.514.514 0 00-.146.11m-.101 1.01a.467.467 0 00-.154.128c-.03.04-.069.1-.12.184-.007.03-.023.082-.04.155a2.288 2.288 0 00-.08.402c-.013.148.014.248.072.306.032.021.06.04.094.057a.34.34 0 00.163.054.28.28 0 00.16-.058.42.42 0 00.295-.292.54.54 0 00.01-.103l-.026.031a.342.342 0 01-.216.084.19.19 0 01-.123-.04.183.183 0 01-.06-.123c.015-.054.032-.158.06-.318a1.145 1.145 0 01.116-.376c.02-.07.01-.104-.035-.104l-.052.01a.17.17 0 01-.064.004m.788.03a.724.724 0 00-.1.085.299.299 0 00-.066.116l.2-.01c.024.104.016.261-.03.476a6.37 6.37 0 00-.082.388c-.004.066.012.111.044.136a.2.2 0 00.128.04.561.561 0 00.062-.002c.088-.155.177-.307.265-.463.11-.187.21-.324.306-.415.07 0 .109.06.123.182l.028.284c.05.137.107.242.166.313a.324.324 0 00.25.125.608.608 0 00.198-.045.556.556 0 00.142-.088.329.329 0 00.096-.155c.01-.023.01-.052.01-.08a.395.395 0 01-.14.035c-.098 0-.175-.084-.23-.248-.157-.455-.235-.684-.242-.691a.258.258 0 00-.068-.01c-.101 0-.22.081-.364.245a5.674 5.674 0 01-.363.389c-.02-.013-.026-.048-.013-.1a.88.88 0 00-.025-.41c-.035-.085-.091-.127-.168-.127a.354.354 0 00-.127.03m3.41.31c-.02.03-.055.058-.071.085-.012.026-.025.053-.031.08-.01.039.006.068.022.095.091.048.23.077.42.087.189.006.296-.037.296.03 0 .048 0 .048-.02.084-.053.1-.15.129-.26.147-.107.023-.168.023-.314.023h-.125a1.558 1.558 0 00-.125-.005c-.026.004-.039.017-.048.043a.308.308 0 00-.006.062l.013.054c.012.059.033.098.062.12a.23.23 0 00.126.03 1.373 1.373 0 01.21-.016c.057-.022.153-.054.288-.103a.801.801 0 00.292-.212c.06-.09.094-.15.103-.174a.25.25 0 00.032-.083c.013-.037.015-.067.013-.093-.016-.075-.07-.098-.114-.116a.333.333 0 00-.16-.03c-.056 0-.137.01-.25.035a1.415 1.415 0 01-.242.036c-.028-.003-.053-.008-.08-.01-.031-.008-.039-.016-.015-.071a.718.718 0 01.274-.163.719.719 0 01.273-.057c.056 0 .11.01.162.03a.35.35 0 01.139.092.301.301 0 00.071-.075.257.257 0 00.057-.105l.007-.05a.443.443 0 00-.289-.097.804.804 0 00-.354.09 1.413 1.413 0 00-.356.237m-21.176-1.328a.178.178 0 01-.05.01.09.09 0 01-.045-.011c-.008-.01-.022-.022-.036-.04-.016-.017-.025-.028-.035-.036a.048.048 0 00-.028-.008c-.015 0-.032.007-.056.021a1.705 1.705 0 01-.051.108.756.756 0 00-.056.143c-.023.073-.01.129.031.165.113.038.27.057.477.057h.268a.07.07 0 00.01.016c.007.008.013.014.016.02V12c-.04.075-.075.153-.103.233-.025.081-.058.184-.098.305-.034.122-.254.795-.256.816-.007.022-.113.302-.013.402.058.059.153.076.244.076a.578.578 0 00.116-.012c.05-.026.079-.054.088-.085.006-.021 0-.056-.019-.106-.018-.048-.024-.087-.015-.117.03-.115.053-.188.107-.389.051-.203.102-.404.156-.607.053-.2.094-.36.123-.475.013-.051.042-.076.08-.076h.124l.156-.023c.191-.05.285-.105.364-.178l.072-.13a.936.936 0 00.076-.157.372.372 0 00.003-.076c-.107.018-.17.044-.399.094l-.222.023c-.167 0-.3.01-.405.023zm3.434 1.807a2.203 2.203 0 01-.032.178.515.515 0 01-.107.204c-.047.044-.116.064-.209.064-.012-.014-.017-.035-.01-.064a.318.318 0 01.01-.063l.018-.07c.013-.04.016-.065.02-.077a.104.104 0 00-.017-.061c-.122.103-.248.19-.379.257a.786.786 0 01-.351.097.406.406 0 01-.273-.103c0-.03 0-.055-.004-.07a.112.112 0 00-.024-.067c-.003-.005.004-.04.015-.107.013-.062.022-.114.032-.153a.987.987 0 01.097-.239c.125-.184.276-.32.442-.41a1.05 1.05 0 01.504-.135c.051 0 .095.003.14.012.093.042.15.07.173.085a.274.274 0 01.115.164.813.813 0 00-.101.243 2.551 2.551 0 00-.06.315m-.285-.203a.382.382 0 00.166-.239.371.371 0 00-.169-.04c-.117 0-.244.046-.39.139a2.362 2.362 0 00-.381.32.135.135 0 00.056.036.231.231 0 00.067.015c.043 0 .112-.02.21-.054a.714.714 0 01.218-.053c.072-.043.148-.083.223-.124m10.002.01c-.028 0-.054.019-.08.056.005.04.002.107-.003.2a2.808 2.808 0 00-.001.221.298.298 0 00.04.146c-.022.078-.056.12-.1.12-.462-.107-.815-.237-1.07-.394l-.05-.005c-.027-.006-.052-.006-.071-.006a1.482 1.482 0 01-.265.363.191.191 0 01-.09-.018.288.288 0 01-.065-.053 1.065 1.065 0 01-.054-.059.763.763 0 01.069-.14.747.747 0 00.066-.136.24.24 0 00.01-.064.186.186 0 01-.104-.1.36.36 0 01-.035-.17.258.258 0 01.11-.05.715.715 0 01.142-.019.62.62 0 00.115-.008c.238-.409.442-.758.618-1.05.172-.29.354-.572.537-.848a.25.25 0 01.097.041.908.908 0 01.097.079.62.62 0 00.091.078c-.007.124-.015.246-.026.37-.009.124-.018.257-.031.398-.009.142-.02.269-.022.38a7.68 7.68 0 00-.008.324c.005.04.027.058.068.058h.022l.025-.003c.025 0 .043.007.053.02.04.05.069.09.088.125.02.031.03.08.038.138-.016.012-.038.018-.073.018l-.053-.005a.642.642 0 00-.085-.007m-.808-.577c-.1.18-.181.316-.239.407.05-.001.13-.016.239-.04l.222-.048a.807.807 0 01.15-.011.106.106 0 01.035-.01.091.091 0 00.039-.015.095.095 0 00.021-.039c-.016-.08-.021-.178-.016-.297l.016-.348c.004-.119 0-.218-.016-.297h-.025a3.17 3.17 0 00-.191.286c-.054.092-.132.23-.235.412m.451 1.056c.031 0 .053-.017.065-.059a.305.305 0 01-.015-.106c0-.044-.003-.084-.003-.12a.312.312 0 00-.018-.096 6.546 6.546 0 00-.561.1c-.143.03-.242.05-.309.06l-.009.037.273.088a1.554 1.554 0 00.52.088l.026.004a.105.105 0 00.031.004m8.027-.29a.169.169 0 01-.012.066.326.326 0 01-.082.15.393.393 0 01-.132.1 1.156 1.156 0 01-.565.153.714.714 0 01-.303-.07c-.09-.069-.113-.183-.1-.323a.62.62 0 01.078-.325c.127-.202.294-.353.503-.451.164-.077.34-.115.533-.115.048 0 .086.03.117.092a.72.72 0 01.063.173.647.647 0 01-.276.344l-.341.16a.926.926 0 01-.172.036c-.09.013-.151.032-.18.058a.265.265 0 00.114.08.498.498 0 00.146.022c.079 0 .204-.028.38-.084a2.65 2.65 0 01.229-.065m-.627-.452a.618.618 0 00-.242.278.886.886 0 00.368-.094c.133-.06.36-.204.36-.252 0-.047-.044-.046-.066-.048a.403.403 0 00-.1-.002.787.787 0 00-.32.118m-13.621.308a.09.09 0 01.053.018.4.4 0 01-.132.126 3.547 3.547 0 00-.25.15c-.044.078-.135.29-.28.633-.11.265-.22.467-.326.602a.103.103 0 01-.046.008c-.038 0-.064-.021-.082-.065a.371.371 0 01-.01-.174c.01-.073.028-.155.054-.247a1.57 1.57 0 01.144-.372c.06-.113.14-.219.235-.315.035-.12.088-.35.16-.691.034-.17.066-.307.091-.408a.2.2 0 01.17.085c.04.056.069.136.084.24-.01.04-.015.076-.024.106a.984.984 0 01-.03.1 2.08 2.08 0 00-.03.107.926.926 0 00-.025.121c0 .031.005.057.018.073.076-.03.15-.062.226-.097m-.888 1.014a.887.887 0 00.034.139l.123-.488a.137.137 0 00-.053.041.774.774 0 00-.063.07.304.304 0 00-.034.079.39.39 0 00-.007.16M31.202 2.75l-.006.07.122.135h.138c.372-.061.567-.152.58-.274l.022-.206-.185-.208h-.207zm1.588-.069c-.014.138-.09.206-.227.206l-.007.068c-.01.092.1.138.33.138L32.5 4.125l-.044.41.242.345h.204l.074-.069-.004.07c-.403.61-.685 1.138-.855 1.58l-.031.275.126.137c.228-.152.46-.405.697-.756l.268.07.509 1.03c.566 0 1-.848 1.3-2.543l.019-.206h-.135l-.281.687-.816 1.236h-.069c.016-.137-.107-.297-.36-.479h-.346l.794-1.65c.032-.275-.088-.458-.355-.55a2.332 2.332 0 01-.746.55h-.067c.028-.261.377-.765 1.052-1.512.022-.2-.098-.36-.36-.483zm-.682.617c.131.047.188.186.164.414l-.038.342c-.26.292-.399.52-.417.688l.027.413c-.033.136-.162.297-.398.481l-.005.067.103.345c-.145.046-.23.184-.251.412l-.022.206.056.756-.075.069h-.069c-.489-.444-.768-.81-.845-1.1l.111-.412h-.068l-.214.07-.028.275.022 1.098-.075.069h-.139c-.108 0-.205-.16-.294-.481l.106-.344.041-.412h-.272l.038-.342c.213 0 .498-.757.855-2.268l.22-.139.308.346c.417-.337.78-.522 1.09-.553zm-1.52 1.376h-.07l-.285.755h.068l.214-.067zm.957-.62h-.067l-.352.07c-.008.366.041.55.148.55h.07zm6.345-1.877c-.097.023-.157.062-.185.117-.035.073-.013.108.06.104.382.26.367.567-.044.924-.044.04-.067.064-.072.083h.056a.76.76 0 01.157.02 5.429 5.429 0 01-.85.328l-.053.002-.088.031c-.006.036.018.053.072.05.26.065.863-.066 1.809-.387.406-.139.781-.25 1.12-.337.078-.019.084 0 .019.054-.141.167-.242.27-.305.31-.086.075-.082.092.015.053a1.32 1.32 0 00.258-.062c.323-.084.516-.145.578-.185.13-.13.107-.273-.079-.43-.364-.077-.904-.005-1.615.218.122-.617-.164-.915-.853-.893m.705 2.063c-.385.14-.84.336-1.357.588a.624.624 0 01-.292.092c-.106.006-.165.069-.173.196.054.197.132.303.237.318.134.048.265-.063.391-.338.065-.057.153-.142.267-.255.413-.358.843-.525 1.288-.505.073.016.082.06.032.136-.196.26-.396.446-.6.561-.124.079-.115.095.016.054.549-.126.948-.268 1.191-.42a.362.362 0 00.045-.354 2.49 2.49 0 00-1.045-.073m-1.648 1.79c-.056.02-.086.041-.09.058-.023.02-.019.047.01.081.18.283.466.345.857.187-.2.296-.388.51-.558.641-.084.239-.046.374.11.404.143.015.298 0 .471-.043a3.02 3.02 0 00.542-.153c.037-.002.063.006.08.023l-.046.082a6.064 6.064 0 01-.704.567c-.086.056-.079.075.017.056l.412-.178c.213-.08.328-.111.341-.095.28-.136.454-.241.524-.314.092-.294.048-.48-.135-.565a1.381 1.381 0 00-.32-.017 56.1 56.1 0 00-.573.02c.391-.428.666-.773.824-1.031a.252.252 0 00-.066-.213 1.236 1.236 0 00-.58.045c-.175.08-.392.168-.646.267-.263.136-.416.195-.47.178m-.299-1.506c.12-.348.177-.675.164-.983-.009-.053-.03-.079-.065-.077-.02.002-.054.028-.097.084-.119.13-.286.343-.505.64-.113.022-.1.194.034.514.157.12.314.063.47-.178M24.244 2.885c.157.232-.036 1.001-.226 1.21l-.002.037h.037c.097-.277.448-.816.67-.961l.02-.02.068.073.016.017.04-.036c.026-.16.124-.265.082-.445-.068-.293-.652-.905-1.056-.908-.022.012-.019.012-.056.017-.054.073-.242.245-.15.394.009.207.45.46.557.622m3.878-.303c.145.01.13.07.192.143-.044.081-.104.118-.13.213h-.057c-.233.248-.625.387-.81.678.069.015.138.037.156.107.029.036.032.072.026.142-.066.049-.063.127-.144.16-.085.049-.16.012-.252.07l-.41.376c-.02.102-.041.218-.028.32h.038c.055-.06.206-.102.272-.144l.004-.017c.037-.015.082.027.131 0-.103-.054-.157-.185-.18-.303h.038c.048.12.166.11.245.197.082.094.126.21.195.32.083.131.241.253.276.427.037.195-.144.36-.23.446-.16.164-.331.358-.53.48-.078.05-.356.188-.398.25-.015.171-.03.344-.047.516.076.137-.071.593-.037.818.029.208-.07.144-.034.372.031.232-.028.617-.045.856-.015.232-.068.593-.046.692l-.02.233c0 .08.073.266-.021.409l.053.054c-.107.012-.295.214-.364.285l-.109-.018c-.01-.067-.056-.097-.082-.142-.005-.009.047-.058.028-.09-.018-.027-.1-.02-.147-.017.02-.072.054-.13.074-.213l-.018-.019h-.055c.03-.211.071-.252.134-.426.072-.205-.057-.403.022-.642.05-.154.125-.455.1-.66-.006-.034-.054-.032-.031-.087.178-.475.093-.982.147-1.548h-.038c-.043.046-.658.36-.727.375-.033.006-.075-.026-.132 0-.081.037-.269.146-.329.14-.047-.029-.09-.06-.1-.124.088-.097.103-.239.16-.32l.16-.124c.038-.053.03-.097.069-.143.078-.092.194-.171.269-.266.028-.04.019-.082.049-.125l.282-.214c.095-.111.215-.356.372-.392l.028-.106-.05-.054c-.046-.013-.067-.018-.094 0-.054.033-.353.3-.397.25-.074-.085-.077-.256-.058-.374.113-.03.567-.516.619-.623l.02-.02h-.018c-.136.1-.678.261-.84.199-.025-.084 0-.134 0-.217.122-.067.181-.211.307-.284l.003-.017h-.038c-.125.103-.357.206-.512.266-.065.02-.128.035-.19.053-.01.06-.013.12-.019.181-.085.116-.054.308-.097.462-.056.187-.072.506-.125.73h.018v-.018c.028-.025.028-.033.044-.07h.02l-.007.07c-.072.075-.07.176-.12.284-.095.206-.219.43-.32.624-.071.136-.109.342-.26.392-.06-.045-.116.018-.222-.02-.057-.018-.091-.094-.139-.124-.05-.01-.096-.024-.147-.035l.007-.053c-.032-.073.072-.203.1-.285.022-.243.047-.486.07-.73-.005-.196-.005-.391-.005-.587-.046-.257-.156-.51-.167-.783.061-.036.042-.078.087-.125.028-.033.08-.011.115-.037l.025-.07h.095c.043-.025.043-.08.103-.108l-.005.037a.258.258 0 00-.048.125c.07.046.27.3.334.231.183-.097.311-.249.48-.356.202-.127.407-.218.613-.34.125-.073.292-.236.432-.23l.003-.02V3.83c.141-.158.546-.265.64-.446.011-.021.029-.126.053-.178h-.018c-.214.156-.587.32-.882.446-.058.006-.115.01-.169.018a1.36 1.36 0 00-.295.124.66.66 0 01-.014-.23c.061-.056.099-.15.168-.197.147-.1.308-.143.47-.232.254-.141.517-.306.787-.428-.032-.14.062-.777.125-.944.02-.048.078-.14.094-.193.01-.034-.046-.076-.05-.092-.01-.04.028-.102.028-.106a1.8 1.8 0 00.013-.124l.058-.017c.012-.043.02-.085.03-.126.022-.034.056-.032.084-.071l-.018-.016c-.063.001-.078.024-.11-.036.17-.034.317-.07.53-.073.022.033.034.032.05.073-.132.09-.06.234-.116.408-.11.348-.144.755-.169 1.033h.04c.057-.044.07-.006.133-.035.171-.085.383-.175.564-.25.067-.028.119-.004.19-.035l.064-.073c.128-.053.348.043.382.091.026.03.027.056.028.107-.064.062-.078.155-.133.23l-.143.125m-3.897 3.312c.204-.368.386-.783.597-1.174h-.04l-.481.179c-.07.011-.08-.023-.11-.038-.056.466-.274.967-.217 1.514h.02l.002-.016c.088-.076.166-.35.23-.465m1.777.571c.022-.222.04-.44.063-.66l-.035-.035c-.066.153-.2.215-.31.321l-.028.088-.079.037c-.031.026-.034.074-.064.105-.026.033-.092.042-.118.071-.141.168-.25.343-.35.552h.037c.179-.141.786-.304.884-.479m.226-2.423c-.022.03-.019.016-.04.053h.035l.042-.034c-.018-.015-.004-.008-.037-.019m-.019.997c.04-.05.066-.05.087-.124l-.035-.016c-.025.061-.06.08-.087.14zm-.3-.552c.14-.158.404-.14.431-.426h-.02c-.131.15-.305.255-.431.426zm1.053.714c-.126.063-.333.14-.36.248-.114.156-.03.542-.08.659h.057c.188-.235.662-.417.775-.71l.002-.233c-.038-.032-.053-.068-.062-.126h-.055c-.027.052-.068.145-.09.162a.267.267 0 01-.187 0M26.766 3.9l.185-.16-.035-.017c-.066.055-.144.098-.204.158h.02zm.52-.748h-.037c-.022.013-.02.01-.06.019-.097.108-.25.167-.342.286h.055c.097-.092.253-.244.382-.286zm.085-.516h-.037c-.084.066-.297.14-.408.16l-.016.177h.037c.104-.111.337-.18.405-.32zm-5.794 4.221c.301.099.552-.089.793-.107l-.003.053c-.113.029-.138.094-.22.142-.128.073-.25.09-.389.16-.163.084-.338.31-.59.303-.037 0-.109-.046-.18-.052-.076-.127-.262-.231-.28-.393h-.056c-.081-.24-.346-.425-.483-.624a4.426 4.426 0 01-.465-.836l-.04.018a4.803 4.803 0 00-.188.408c-.022.06-.006.165-.016.18l-.081.07c-.016.063-.016.167-.06.25-.034.064-.097.11-.128.178-.064-.005-.044-.039-.078.017l-.063.073c.055-.002.028-.019.055 0 .014.017.014.017.017.053-.087.08-.091.157-.157.267-.21.339-.897.96-1.398.977.009-.034.006-.032.022-.053l.077-.033c-.107-.002-.186.052-.322.07l.001-.037.023-.033c.493-.189.725-.49 1.001-.91.044-.067.137-.132.185-.195.044-.06.036-.106.072-.179.025-.046.094-.102.127-.141.033-.072.063-.144.096-.213h-.04c-.136.114-.603.244-.844.248-.087-.166-.142-.248-.123-.48.25-.053.445-.445.6-.624.24-.284.49-.563.733-.854.056-.07.172-.15.207-.232.012-.126.025-.25.034-.374.006-.026.06-.247.05-.303l-.05-.088.02-.376c-.02-.077-.066-.138-.073-.23a.33.33 0 01.113-.019c.053-.029.16.01.238.035.223.073.312.171.358.393.006.038-.003.156.034.214.166-.228.478-.41.552-.714-.508-.023-.756-.244-1-.496-.085-.09-.229-.164-.229-.322l.04-.053a2.388 2.388 0 011.327.213c.166.088.351.166.335.41-.078.068-.092.16-.153.248-.044.065-.147.166-.207.233-.057.062-.166.096-.223.16-.14.16-.307.318-.435.48.112.021.162.125.266.143.085.017.295-.062.43-.016.005.11.089.187.022.355-.033.088-.421.516-.5.57-.193.132-.45.293-.504.57.11.072.166.216.257.285h.074l.014.052c.276.2.536.4.802.607.201.153.34.464.603.552M20.05 3.812c-.022.183-.12.394-.104.481l.022-.019c.107-.045.188-.113.21-.248-.047-.065-.053-.176-.128-.214m-.76 1.121c.032-.072.07-.414.043-.462-.275.46-.65.874-.928 1.335h.037c.256-.233.476-.461.703-.73.043-.047.118-.08.146-.143m.498.445l-.034-.017-.003.036h.037zm.016.036l.223.232a.565.565 0 00-.223-.232" fill="#ed1c24"/></svg>