<svg width="250" height="30.704" viewBox="0 0 66.146 8.124" xmlns="http://www.w3.org/2000/svg"><path d="M3.21 3.895l-.045.091c-.174-.037-.493-.158-.823-.31l-.047.084.138.075c.484.249.642.302.92.302.56 0 .982-.316 1.178-.874.346-.07.793-.1 1.321-.1.454 0 .847.023 1.352.083l-.128.158a9.124 9.124 0 00-.975-.06c-.37 0-.605.009-.723.016l-.063.135c.311-.014.423-.014.665-.014.41 0 .733.014.998.038l-.13.165c-.475-.014-.694-.021-1.05-.021-.195 0-.34.007-.572.014l-.06.135c.202-.014.481-.021.777-.021.279 0 .612.007.807.013l-.128.168c-.135-.009-.4-.009-.605-.009-.323 0-.733.016-.942.046l-.06.121a9.392 9.392 0 011.049-.053c.165 0 .272 0 .46.016l-.144.172c-.256-.014-.34-.014-.437-.014-.717 0-1.186.105-1.654.37.43.43 1.147.724 1.789.724.053 0 .083 0 .22-.007l-.311.31c-1.705-.445-2.007-.566-3.57-1.494-.62-.356-1.124-.598-1.533-.72l.053-.188c.098.017.31.077.505.145l.093-.205zm-2.575.152a3.404 3.404 0 003.398 3.398c1.886 0 3.412-1.519 3.412-3.391 0-1.917-1.51-3.42-3.435-3.42C2.16.634.635 2.174.635 4.047zm7.18 0a3.763 3.763 0 01-3.782 3.768A3.767 3.767 0 01.265 4.054c0-2.122 1.69-3.79 3.835-3.79 2.038 0 3.715 1.715 3.715 3.783m35.418.768c-.152.047-.205.06-.326.1a3.694 3.694 0 00-.433.098c-.381.098-.572.249-.572.484 0 .233.181.367.484.367.574 0 .847-.255.847-.79zm-2.266-.73c.007-.816.649-1.307 1.728-1.307 1.126 0 1.677.467 1.677 1.419v1.849c0 .31 0 .31.098.507h-1.103l-.06-.302c-.437.355-.693.453-1.177.453-.81 0-1.389-.477-1.389-1.133 0-.544.354-.928 1.05-1.125.104-.03.453-.105 1.048-.21.25-.053.354-.137.354-.312 0-.202-.212-.34-.521-.34-.384 0-.619.192-.619.501zm-1.654-.023c-.03-.34-.174-.468-.535-.468-.295 0-.477.112-.477.3 0 .175.175.282.568.342l.407.075c.86.144 1.26.504 1.26 1.132 0 .77-.655 1.261-1.683 1.261-1.217 0-1.88-.484-1.88-1.358h1.156v.044c0 .302.25.49.65.49.346 0 .557-.127.557-.332 0-.212-.197-.332-.658-.414l-.377-.06c-.86-.152-1.23-.461-1.23-1.035 0-.784.658-1.261 1.737-1.261.754 0 1.222.204 1.463.642.107.181.121.242.152.642zm-4.999-1.133l.04.407c.279-.354.612-.512 1.049-.512.505 0 .914.219 1.126.596.149.279.179.437.179 1.035v2.098h-1.184V4.499c0-.535-.151-.754-.521-.754-.386 0-.582.256-.582.754v2.054h-1.186V2.929zm-2.633 1.886c-.15.047-.197.06-.318.1-.142.038-.27.068-.43.098-.385.098-.573.249-.573.484 0 .232.182.367.475.367.574 0 .846-.255.846-.79zm-2.258-.73c0-.824.642-1.307 1.714-1.307 1.126 0 1.684.467 1.684 1.419v1.849c0 .318 0 .318.098.507h-1.096l-.067-.303c-.377.333-.7.454-1.177.454-.8 0-1.382-.477-1.382-1.133 0-.544.354-.928 1.05-1.126.104-.03.453-.097 1.048-.209.256-.053.356-.137.356-.312 0-.202-.212-.34-.528-.34-.386 0-.612.182-.621.5zm-2.794-2.568v1.819c.221-.354.53-.512.991-.512.498 0 .898.21 1.116.596.159.279.182.43.182 1.035v2.098h-1.18V4.499c0-.521-.158-.754-.52-.754-.391 0-.589.256-.589.754v2.054h-1.184V1.517zm-2.173.28v1.132h.67v.8h-.67v1.435c.007.528.038.559.491.559h.233v.83h-.891c-.702 0-1.019-.326-1.019-1.065V3.729h-.498v-.8h.498V1.796zm-1.82.52h-.196c-.438 0-.551.107-.551.507v.105h.702v.8h-.702v2.824h-1.184V3.729h-.515v-.8h.515v-.105c0-.951.353-1.307 1.284-1.307h.646zm-3.767 4.236l-.037-.354a1.36 1.36 0 01-1.042.452c-.514 0-.928-.212-1.14-.575-.16-.272-.181-.407-.181-1.002V2.929h1.184v2.098c0 .528.15.75.52.75.394 0 .59-.26.59-.75V2.93h1.186v3.624zm-4.764-5.036v4.038h2.129v.998h-3.39V1.517m38.349 3.298c-.017.44-.128.77-.394 1.103-.407.528-1.049.793-1.886.793-.754 0-1.33-.204-1.782-.635-.528-.498-.807-1.193-.807-2 0-.824.293-1.594.807-2.075.43-.41 1.05-.628 1.812-.628.824 0 1.435.272 1.856.83.245.326.356.65.393 1.089h-1.277c-.088-.582-.481-.938-1.032-.938-.756 0-1.224.628-1.224 1.638 0 1.058.468 1.677 1.268 1.677.567 0 .907-.295.988-.854m3.958 0c-.145.047-.196.06-.326.1-.044.007-.044.007-.421.105-.386.09-.575.249-.575.484 0 .226.182.37.484.37.317 0 .626-.137.747-.333.063-.098.09-.235.09-.467zm-2.259-.73c0-.816.651-1.307 1.721-1.307.742 0 1.27.235 1.52.665.12.219.157.4.157.754v2.01c0 .141.007.171.098.346h-1.093l-.07-.302c-.414.346-.686.453-1.177.453-.807 0-1.382-.477-1.382-1.133 0-.551.356-.928 1.05-1.125.09-.03.437-.098 1.05-.21.25-.053.357-.144.357-.318 0-.205-.214-.333-.538-.333-.386 0-.604.181-.611.5m3.797-1.15l.04.387c.239-.32.571-.491.964-.491.045 0 .145.007.25.02v.99c-.091-.015-.129-.022-.196-.022-.333 0-.605.135-.78.384-.127.198-.164.363-.164.78v1.576h-1.184V2.935m3.47 1.67c0 .545.318.915.779.915.467 0 .723-.324.723-.905s-.272-.914-.737-.914c-.463 0-.765.362-.765.904zm2.672-1.667v3.328c0 .598-.044.747-.293 1.028-.37.391-.87.566-1.647.566-.574 0-.981-.135-1.305-.43a1.01 1.01 0 01-.353-.74h1.198c.083.255.242.355.574.355.46 0 .696-.241.696-.709v-.258a1.436 1.436 0 01-.96.323c-1.027 0-1.73-.707-1.73-1.756 0-1.052.71-1.805 1.701-1.805.438 0 .74.12 1.01.414l.04-.316m2.547 1.797c0 .694.279 1.063.816 1.063.535 0 .823-.37.823-1.056 0-.709-.279-1.072-.83-1.072-.53 0-.81.377-.81 1.066zm2.84.007c0 1.238-.74 1.964-2.017 1.964-1.26 0-2.007-.726-2.007-1.957 0-1.26.74-1.97 2.037-1.97 1.247 0 1.987.74 1.987 1.963" fill="#05164d"/></svg>