<svg viewBox="0 0 595.71 204.08" xmlns="http://www.w3.org/2000/svg"><g stroke-width=".32"><path d="M123.823 203.845c-5.69-.961-9.239-5.815-9.239-12.634 0-5.79 2.645-10.388 6.891-11.977 5.023-1.88 10.812-.745 13.858 2.714 2.184 2.481 2.749 4.385 2.749 9.263 0 3.563-.103 4.419-.72 5.967-2.05 5.152-7.276 7.725-13.538 6.667zm6.208-4.877c1.808-1.378 2.313-3.144 2.313-8.077 0-3.844-.06-4.27-.8-5.588-1.173-2.094-2.534-2.892-4.932-2.892-2.715 0-3.943.714-5.107 2.97-.742 1.44-.95 2.326-1.08 4.607-.272 4.802.688 7.667 3.127 9.323.951.646 1.418.738 3.228.64 1.697-.093 2.34-.287 3.251-.983zm-51.773 4.163c-.489-1.343-5.829-23.8-5.706-23.997.082-.134 1.284-.243 2.67-.243 2.119 0 2.547.089 2.695.56.096.308.904 4.087 1.795 8.397.89 4.311 1.743 7.961 1.894 8.112.328.329.22.677 2.26-7.31.9-3.52 1.847-7.155 2.106-8.08l.47-1.68h3.025c2.873 0 3.034.037 3.196.72.845 3.568 3.681 15.986 3.681 16.12 0 .096.171.117.38.047.215-.071 1.158-3.752 2.16-8.427l1.78-8.3 2.48-.093c1.959-.074 2.48.001 2.48.355 0 .852-5.831 23.42-6.154 23.818-.213.263-1.249.4-3.015.4-2.19 0-2.728-.096-2.89-.52-.11-.287-1.079-4.21-2.152-8.72-1.073-4.51-2.094-8.155-2.27-8.1-.175.055-1.276 3.825-2.446 8.378-1.17 4.553-2.223 8.432-2.34 8.62-.312.507-5.912.454-6.099-.058zm72.711.199c-.124-.125-.225-5.674-.225-12.332V178.89h6.341c6.977 0 8.847.318 10.614 1.806 1.44 1.21 2.027 2.564 2.008 4.624-.023 2.553-1.017 4.155-3.477 5.602-.55.324-.513.397.465.903 1.324.684 2.146 2.47 2.443 5.305.12 1.144.422 2.988.672 4.1s.453 2.082.453 2.16c0 .257-5.4.143-5.561-.118-.088-.142-.384-1.978-.66-4.08-.69-5.285-.809-5.422-4.693-5.422h-3.006l-.32 9.6-2.414.092c-1.328.05-2.516-.01-2.64-.133zm12.064-14.81c1.642-1.544 1.267-4.306-.696-5.119-.525-.217-1.999-.339-3.455-.285l-2.539.095-.093 2.693c-.052 1.481-.015 2.9.082 3.152.139.362.772.435 3.028.347 2.488-.098 2.957-.21 3.673-.883zm22.467 14.51c-.255-.664-.257-22.968-.002-23.632.155-.403.712-.507 2.716-.507h2.521l.17 20.32 10.56.32v3.84l-7.885.086c-6.98.076-7.906.027-8.08-.426zm28.121.13c-.09-.238-.127-5.759-.081-12.27l.084-11.839 5.401-.088c6.134-.1 8.311.278 10.791 1.87 2.53 1.623 3.953 4.21 4.44 8.074.358 2.844-.05 6.374-.987 8.554-.86 1.997-3.54 4.514-5.634 5.29-2.049.76-13.749 1.1-14.014.408zm11.946-4.755c2.016-1.133 3.018-3.366 3.055-6.808.068-6.164-2.27-8.76-7.638-8.485l-1.92.1-.086 7.673c-.047 4.22-.009 7.875.086 8.12.29.757 4.837.337 6.503-.6zm24.732 4.086c-.619-1.922-5.474-22.286-5.474-22.96 0-.629.148-.66 2.64-.573l2.64.093 1.624 8.025c1.809 8.932 1.962 9.501 2.365 8.775.146-.264 1.149-3.936 2.228-8.16s2.04-7.932 2.134-8.24c.148-.482.594-.56 3.178-.56h3.006l.309 1.2c.17.66 1.067 4.478 1.994 8.486 1 4.322 1.823 7.24 2.024 7.173.186-.062 1.132-3.845 2.102-8.406l1.765-8.293 2.475-.094c2.161-.081 2.476-.024 2.476.455 0 .538-5.15 21.032-5.8 23.078l-.33 1.04h-2.836c-1.56 0-2.906-.111-2.99-.247-.084-.136-1.036-3.978-2.115-8.536-1.079-4.56-2.046-8.426-2.15-8.594-.336-.544-.654.458-2.666 8.42-1.089 4.31-2.114 8.09-2.278 8.397-.25.47-.76.56-3.142.56h-2.844zm40.18.827c-.118-.117-.214-5.661-.214-12.32V178.89h2.526c2.008 0 2.565.104 2.72.506.107.278.194 5.595.194 11.814s-.087 11.535-.194 11.814c-.153.397-.694.506-2.507.506-1.272 0-2.408-.096-2.526-.213zm20.743-.159c-.09-.237-.127-5.758-.081-12.269l.084-11.839 6.24.014c5.77.013 6.383.07 8.13.762 3.575 1.414 5.679 4.397 6.325 8.965.924 6.535-1.564 11.921-6.384 13.822-1.622.64-2.535.737-7.99.85-4.954.102-6.19.042-6.324-.304zm10.755-4.157c1.77-.6 2.89-1.563 3.548-3.051 1.286-2.908 1.045-8.12-.48-10.382-1.201-1.784-2.554-2.346-5.657-2.352l-2.723-.005-.086 7.674c-.047 4.22-.016 7.856.07 8.08.2.522 3.824.547 5.328.037zm22.906 4.321c-.12-.12-.218-5.666-.218-12.325v-12.107h8.125c8.968 0 8.515-.11 8.515 2.08 0 2.137.159 2.08-5.78 2.08h-5.392l-.189 1.04c-.104.572-.073 1.832.07 2.8l.259 1.76 10.102.177-.095 1.991-.095 1.992-10.103.177.091 3.111.092 3.112 11.2.32v3.84l-8.182.085c-4.5.047-8.28-.013-8.4-.133zM.423 162.68c-.63-.254-.536-3.827.106-4.074.936-.359 424.44-.222 425.11.137.484.26.62.677.62 1.91 0 1.231-.136 1.65-.62 1.908-.631.338-424.38.457-425.22.12zm227.28-19.957c-8.06-.913-12.967-2.935-14.388-5.931-.678-1.43-.736-4.183-.114-5.481l.431-.899h21.431l.099 1.365c.141 1.957.967 2.42 4.038 2.265 2.026-.102 2.59-.265 3.76-1.088.757-.532 1.52-1.373 1.693-1.868.277-.788.206-.995-.568-1.661-1.098-.945-3.087-1.523-8.222-2.392-9.717-1.644-13.228-3.138-14.745-6.273-.896-1.85-.696-3.858.673-6.784 3.199-6.836 9.34-10.566 19.796-12.025 5.157-.719 13.526-.952 19.065-.53 8.517.648 12.743 2.114 14.439 5.01.753 1.285.837 1.704.695 3.473-.089 1.106-.362 2.429-.607 2.94l-.445.928h-20.47l-.09-.8c-.214-1.911-.431-2.29-1.59-2.773-2.156-.901-5.483-.047-6.733 1.728-1.085 1.54-1.15 2.231-.294 3.087.948.949 2.6 1.298 9.346 1.974 6.504.652 9.103 1.191 11.588 2.403 4.07 1.985 4.81 5.276 2.317 10.303-3.488 7.03-9.84 10.83-21.034 12.584-3.716.582-16.383.863-20.07.445zm-227.21-.654c-.117-.19.069-.657.412-1.04.343-.383 8.585-10.488 18.316-22.456 9.73-11.968 17.976-22.012 18.325-22.32.585-.518 1.862-.56 16.899-.56 8.946 0 16.34.12 16.431.267.272.44-4.314 45.619-4.674 46.053-.254.307-3.084.4-12.143.4-10.407 0-11.834-.06-12.002-.5-.105-.274.041-1.66.326-3.077.284-1.418.438-2.706.342-2.86-.096-.156-3.046-.283-6.556-.283h-6.382l-2.3 3.12c-1.266 1.716-2.454 3.226-2.64 3.355-.564.392-24.11.297-24.353-.099zm44.928-17.36c.485-.584 3.585-15.357 3.287-15.66-.284-.289-11.24 14.933-11.24 15.616 0 .65 7.417.69 7.954.043zm31.2 16.989c.1-.399 3.14-7.108 6.755-14.908 3.614-7.801 6.571-14.39 6.571-14.64 0-.382-1.203-.457-7.37-.457-5.99 0-7.402-.083-7.54-.443-.183-.476 3.867-8.839 4.47-9.232.525-.342 71.31-.292 71.853.051.363.23-.91 3.225-6.472 15.238-3.809 8.224-6.848 15.077-6.754 15.23.094.152 4.135.276 8.98.276h8.808l1.013-1.142c.557-.629 6.348-7.505 12.869-15.28l11.857-14.137 29.887-.167v1.126c0 1.49-3.483 38.286-3.673 38.8-.114.31-2.613.4-11.019.4-5.979 0-10.94-.112-11.026-.25-.085-.137.055-1.246.31-2.465.256-1.219.393-2.403.306-2.63-.122-.318-1.503-.414-5.92-.414h-5.763l-4.227 5.76H141.94c-16.918 0-28.67-.12-28.776-.293-.1-.16 2.904-6.96 6.675-15.112 3.771-8.15 6.787-14.93 6.703-15.068-.084-.136-3.6-.247-7.812-.247-6.95 0-7.69.051-8 .56-.189.308-3.404 7.184-7.146 15.28l-6.804 14.72-10.173.084-10.173.085zm112.36-14.627c.242-.393 2.727-12.158 2.729-12.925 0-.323-.131-.539-.293-.48-.464.168-9.626 12.81-9.626 13.282 0 .326.807.424 3.501.424 1.926 0 3.586-.136 3.688-.302zm95.53 15.002c0-.335 31.478-37.998 32.14-38.455.187-.13 6.785-.238 14.66-.24l14.32-.005v1.045c0 1.784-3.475 37.343-3.682 37.678-.122.198-4.15.316-10.779.316h-10.583l.18-1.2.405-2.72.226-1.52h-11.55l-2.014 2.72-2.015 2.72h-10.654c-7.307 0-10.654-.106-10.654-.34zm39.186-14.357c.222-.36 2.734-12.31 2.734-13.008 0-.271-.139-.407-.308-.302-.681.42-9.623 13.01-9.445 13.298.245.396 6.775.407 7.02.012zm21.806 14.429c-.161-.262 16.846-37.894 17.485-38.692.393-.49 18.65-.587 18.95-.102.175.284-16.31 36.838-17.292 38.342-.47.72-.48.72-9.724.72-5.09 0-9.328-.12-9.42-.268zm27.328-.065c0-.43 16.83-37.34 17.475-38.326l.488-.744 17.658.128c19.126.139 19.728.19 22.715 1.94 3.38 1.982 3.644 6.537.713 12.356-2.25 4.469-5.921 6.791-11.93 7.548-1.036.13-1.68.367-1.68.618 0 .224 1.728 3.968 3.84 8.32 2.113 4.352 3.76 8.044 3.662 8.203-.101.164-4.763.29-10.71.29-9.71 0-10.55-.044-10.804-.56-.151-.308-1.27-3.764-2.486-7.68-1.216-3.916-2.366-7.12-2.557-7.12-.19 0-1.758 3.132-3.483 6.96-1.724 3.828-3.338 7.284-3.586 7.68l-.45.72h-9.433c-6.322 0-9.433-.11-9.433-.333zm36.454-22.594c1.878-.936 3.546-3.103 3.546-4.606 0-1.545-1.005-2.054-4.29-2.176l-2.945-.108-1.668 3.628c-.917 1.996-1.665 3.737-1.662 3.87.003.131 1.201.24 2.662.24 2.233 0 2.93-.136 4.357-.848zm86.613 21.941c-1.198-1.424-1.671-2.435-2.48-5.304-1.05-3.715-.974-9.951.171-14.242.886-3.316 2.142-6.444 2.736-6.811.81-.5-.549-4.242-2.105-5.799-.412-.412-.749-.959-.749-1.217 0-.257-.538-.732-1.197-1.054-.917-.449-1.319-.92-1.717-2.012-.39-1.07-.751-1.5-1.443-1.726-1.461-.475-2.555-1.38-3.53-2.92-.92-1.454-1.191-1.635-4.995-3.332-1.277-.57-2.868-1.632-3.884-2.593-1.531-1.448-1.945-1.663-3.755-1.955-2.73-.44-6.06-2.25-8.097-4.402-4.425-4.677-4.536-4.77-5.985-4.995-2.22-.346-2.4-.443-3.271-1.76-.527-.796-2.01-2.029-4.093-3.402-17.709-11.677-31.279-30.573-38.93-54.21-2.538-7.842-4.254-16.071-4.335-20.8l-.047-2.72 1.403-.1c.772-.055 1.525.021 1.674.17.149.148.422 2.065.608 4.26.556 6.565 1.768 12.362 4.046 19.35 1.563 4.797 2.973 8.161 3.419 8.156.203-.002.692-.501 1.086-1.11 1.74-2.684 7.524-6.518 14.135-9.366 2.216-.955 4.164-1.866 4.33-2.025.186-.179.09-1.773-.253-4.211-.304-2.158-.72-6.346-.923-9.307-.318-4.626-.305-5.423.093-5.675.55-.348 4.786-.394 5.303-.057.213.138.51 2.212.724 5.035.625 8.27 1.07 11.73 1.53 11.905.232.09 2.475-.416 4.984-1.124 7.354-2.074 13.27-3.386 22-4.878 2.2-.376 4.073-.755 4.16-.842.089-.087.16-2.414.16-5.17V.172h7.04l.254 3.52c.139 1.936.329 4.007.422 4.602l.17 1.082 2.617-.207c11.361-.899 19.88-.857 29.141.143 2.201.238 3.265.24 3.498.007.184-.184.45-2.172.592-4.418.142-2.245.33-4.269.417-4.497.119-.311 1.013-.391 3.604-.323l3.446.091v10.52l2.4.424c7.702 1.363 16.438 3.218 21.65 4.597 6.305 1.67 6.691 1.741 6.965 1.299.231-.375 1.06-8.292 1.326-12.68.118-1.936.358-3.7.535-3.92.335-.416 4.226-.571 5.177-.206.405.155.505.715.5 2.8-.007 2.76-.675 9.988-1.287 13.92-.201 1.295-.245 2.46-.096 2.59.148.131 1.494.719 2.99 1.307 8.564 3.366 13.718 6.596 15.753 9.872.612.986.708 1.034 1.077.53.222-.305 1-2.232 1.728-4.283 2.85-8.031 4.823-15.926 5.644-22.594.261-2.121.591-3.974.734-4.118.143-.144.818-.216 1.501-.16l1.243.102-.044 3.04c-.098 6.835-2.79 18.02-6.738 28-7.134 18.035-18.094 33.054-31.692 43.43-1.907 1.454-3.248 2.754-3.783 3.668-.898 1.533-1.39 1.813-3.802 2.167-1.464.216-1.828.476-4.98 3.577-3.79 3.73-7.446 6.619-9.567 7.563-1.075.479-1.774.577-2.971.418l-1.566-.208-2.949 3.014c-2.137 2.184-3.3 3.123-4.228 3.413-1.553.484-2.4 1.178-2.4 1.965 0 1.13-1.269 3.911-2.242 4.915-.905.934-.952 1.087-.59 1.946.62 1.472.45 7.745-.324 12.01-.37 2.043-1.203 5.5-1.848 7.68-1.206 4.069-1.268 4.499-.899 6.283.149.718.056 1.284-.3 1.828-.935 1.426-.676 2.217 1.084 3.31 1.899 1.181 2.513 2.244 1.977 3.421l-.365.8h-4.767c-5.352 0-5.712-.135-5.36-2.017.11-.584.844-2.134 1.632-3.443 1.657-2.757 1.841-3.82.66-3.82-1.001 0-1.048-.092-1.482-2.913-.444-2.892-.725-3.528-1.176-2.658-.88 1.699-2.689 7.721-3.017 10.043-.232 1.642-.628 3.015-1.05 3.642-.66.982-.742 1.008-3.427 1.098-2.738.092-2.753.088-3.6-.918zm2.048-8.483c.005-1.015.305-2.078 1.74-6.161 1.194-3.4 1.148-6.246-.146-8.982-.634-1.34-1.08-1.944-1.285-1.74-.833.834-1.386 5.166-1.405 10.993-.019 5.993.226 8.248.798 7.343.162-.255.296-.908.298-1.452zm13.561-6.45c.11-.836.294-4.115.409-7.286.189-5.194.152-5.875-.37-6.88-.32-.613-.665-1.967-.768-3.009-.199-2.02-.987-2.953-.987-1.169 0 .545-.23 2.393-.51 4.107-.59 3.605-.453 6.063.505 9.037.368 1.144.757 3.124.864 4.4.106 1.276.298 2.32.426 2.32s.322-.684.431-1.52zm-7.18-15.57c.204-.247.285-.795.179-1.22-.156-.618-.026-.846.661-1.159.862-.393.931-.9.319-2.351-.182-.432.035-.612 1.075-.892.98-.264 1.354-.55 1.505-1.152.424-1.689-2.232-2.883-3.149-1.416-.51.816-.954.809-1.71-.026-.331-.367-1.084-.868-1.672-1.114-1.353-.565-1.052-1.1.619-1.1 1.749 0 1.588-.9-.259-1.444-1.708-.504-3.343-1.523-3.899-2.43-.239-.39-.51-1.55-.604-2.578-.093-1.027-.33-1.882-.525-1.9-.195-.017-1.004-.07-1.796-.116a62.464 62.464 0 01-3.36-.325c-1.687-.212-2.172-.136-3.966.62-2.363.994-2.938.927-5.15-.594-1.155-.795-2.275-1.204-4.461-1.629-1.873-.363-3.803-1.01-5.385-1.805-3.526-1.772-4.694-1.628-2.491.306.765.672 1.58 1.034 2.64 1.173 1.948.255 2.687.56 5.053 2.084 1.056.68 2.856 1.636 4 2.123 1.144.487 2.772 1.305 3.616 1.818 1.454.881 2.385.97 1.563.148-.208-.208-.379-.638-.379-.955 0-.864 2.172-.772 3.553.15.912.61 1.25 1.208 2.102 3.713 1.558 4.587 2.575 5.371 7.57 5.841 1.774.167 3.286.364 3.36.438.074.074.054.345-.045.603-.115.3-.847.54-2.04.669-3.397.367-3.86 1.331-1.001 2.088 2.443.648 2.486 1.098.181 1.914-1.552.55-.981.968 1.321.968 1.5 0 2.32-.143 2.574-.45zm14.131-16.091c1.42-1.283 3.339-3.88 3.067-4.152-.093-.093-1.365.025-2.828.262l-2.66.431-.025 2.32c-.022 2.038.046 2.32.557 2.32.32 0 1.17-.531 1.89-1.181zm4.774-4.259c0-.176-.208-.32-.461-.32-.254 0-.55.144-.66.32-.108.176.1.32.462.32s.659-.144.659-.32zm-27.04-2.24c.528-.35 1.294-.636 1.703-.638.409 0 1.345-.353 2.08-.782 2.658-1.552 6.265-1.362 8.557.452.84.664 1.372.858 2.018.735.5-.096 1.417.075 2.13.397 1.247.562 1.26.56 2.303-.233 2.772-2.11 5.21-2.678 6.99-1.628.817.483 1.106.496 2.609.117 4.234-1.067 12.397-4.108 14.2-5.29.434-.284.77-.816.768-1.217-.003-.857-.924-2.325-1.881-2.995-.66-.462-.804-.392-2.846 1.402-3.299 2.898-5.446 4.405-8.062 5.656-2.32 1.11-3.849 1.45-3.849.853 0-.16 1.188-1.267 2.64-2.459 3.04-2.496 7.92-7.153 7.92-7.558 0-.418-2.411-1.35-5.44-2.1-3.698-.918-10.216-1.83-10.537-1.476-.141.156-.656 1.364-1.143 2.684-1.812 4.91-4.562 9.755-6.115 10.772-1.57 1.028-1.546.144.132-5.054 1.798-5.566 2.515-8.492 2.169-8.84-.361-.363-9.954-.646-15.626-.462-4.727.154-5.04.203-5.04.788 0 1 .877 4.228 2.443 8.989 1.016 3.085 1.357 4.534 1.124 4.767-1.068 1.069-4.365-3.617-6.633-9.429-.844-2.162-1.687-4.106-1.874-4.319-.658-.749-11.867 1.164-15.3 2.61-.66.279-1.2.707-1.2.952 0 .512 5.058 5.363 7.253 6.955 1.943 1.41 3.307 2.699 3.307 3.126 0 1.579-6.694-1.877-10.912-5.633-3.447-3.07-3.058-2.876-4.002-1.995-1.107 1.034-1.802 2.43-1.571 3.157.323 1.019 6.562 3.65 13.3 5.607 5.823 1.693 7.245 1.88 9.79 1.29 2.58-.598 4.507-.388 5.963.649 1.291.92 1.454.93 2.631.15zm48.929-9.17c6.325-3.638 11.48-7.534 16.59-12.542 2.689-2.633 3.44-3.559 3.44-4.232 0-1.353-2.36-4.572-4.574-6.235-2.215-1.665-5.35-3.345-6.216-3.331-.39.006-1.123 1.04-2.329 3.28-2.253 4.187-6.943 11.234-9.607 14.43a585.373 585.373 0 00-2.827 3.416l-.754.927.973 1.324c.536.728 1.154 2.028 1.375 2.888.25.978.577 1.565.869 1.565.257 0 1.634-.67 3.06-1.49zm-82.278-.451c.33-.604 1.03-1.64 1.553-2.301.566-.716.853-1.364.71-1.6-.133-.219-1.115-1.406-2.183-2.638-3.73-4.302-7.793-10.32-11.826-17.52-.469-.836-1.067-1.52-1.33-1.52-.749 0-3.312 1.397-5.44 2.965-3.107 2.289-5.593 5.726-4.976 6.88.39.727 5.565 5.472 8.897 8.156 4.311 3.473 12.951 9.011 13.688 8.774.168-.054.575-.592.906-1.196zm7.55-6.358c2.11-1.077 6.784-2.473 10.76-3.214 2.111-.394 4.035-.774 4.275-.845.537-.16.463-.618-1.012-6.202-.628-2.376-1.59-6.552-2.138-9.28a1618.16 1618.16 0 00-1.147-5.68c-.132-.628-.351-.72-1.715-.72-3.585 0-13.77 1.595-19.683 3.082-3.792.954-5.3 1.546-5.3 2.08 0 .589 3.334 7.03 5.177 10.004 3.368 5.431 8.065 11.379 8.995 11.389.315.003 1.12-.273 1.787-.614zm68.088-2.5c4.122-5.167 6.851-9.42 9.752-15.202 1.38-2.748 1.546-3.27 1.161-3.654-.553-.553-6.772-2.106-11.922-2.978-4.877-.825-13.53-1.784-13.786-1.528-.107.108-.669 2.546-1.248 5.418a236.177 236.177 0 01-2.404 10.424c-.742 2.86-1.275 5.397-1.183 5.636.1.26.92.52 2.042.647 3.133.354 8.416 1.666 11.459 2.845 1.584.613 3.108 1.133 3.387 1.154.28.02 1.505-1.212 2.741-2.762zm-33.169-2.47c3.432.105 6.528.256 6.88.334 1.132.25 1.519-.377 2.116-3.432.873-4.469 2.2-13.905 2.287-16.273l.077-2.08-3.2-.202c-4.147-.262-20.827-.262-23.52 0-2.025.197-2.082.228-2.172 1.162-.099 1.018 1.42 12.051 2.349 17.062.304 1.64.725 3.155.936 3.366.285.285 1.365.318 4.196.127 2.096-.14 6.62-.17 10.052-.064zm64.232-9.37c2.006-2.437 4.999-6.72 6.987-10 2.51-4.142 6.221-11.363 6.221-12.104 0-.976-2.05-3.383-4.389-5.15-3.337-2.524-13.665-7.36-14.319-6.705-.102.102-.685 2.167-1.295 4.59-1.38 5.482-3.492 11.834-5.59 16.822-.883 2.102-1.606 3.947-1.606 4.101 0 .155 1.476 1.014 3.28 1.911 4.073 2.024 6.816 4.188 8.08 6.373.528.913 1.054 1.665 1.17 1.67.115.007.773-.673 1.462-1.509zm-131.79-.418c1.379-2.032 4.323-4.38 7.843-6.251 1.513-.805 2.751-1.642 2.751-1.86 0-.219-.584-1.755-1.299-3.414-1.842-4.281-4.568-12.497-5.867-17.688-.61-2.437-1.195-4.517-1.3-4.622-.39-.39-6.963 2.369-10.619 4.456-3.014 1.722-6.464 4.862-7.499 6.826l-.776 1.474 1.6 3.101c3.862 7.487 12.358 19.618 13.717 19.587.2-.004.852-.728 1.449-1.609zm19.33-10.698c2.147-.613 5.345-1.41 7.105-1.771 3.901-.8 13.207-2.234 14.5-2.234 1.593 0 1.646-.369.846-5.92-.406-2.816-1.05-8.36-1.43-12.32-.898-9.32-.734-8.64-2.077-8.64-4.698 0-28.922 4.643-30.044 5.758-1.004.999 5.732 26.242 7.003 26.242.105 0 1.948-.502 4.096-1.115zm95.216-1.765c1.552-3.936 3.766-11.863 4.945-17.704.984-4.874 1.001-5.082.437-5.495-1.981-1.452-29.125-6.438-30.198-5.548-.229.19-.418.868-.42 1.506-.01 2.41-2.013 19.641-2.743 23.581-.241 1.301.21 1.609 2.747 1.874 5.148.537 15.721 2.6 20.48 3.997 3.39.994 3.51.938 4.752-2.211zm-43.32-3.261c4.396.2 8.096.26 8.223.133.256-.258.945-6.94 1.688-16.392.27-3.432.579-7.066.685-8.076.185-1.749.155-1.851-.615-2.144-1.64-.624-17.867-1.054-25.955-.69-4.215.191-7.785.469-7.934.618-.461.461 1.764 26.27 2.294 26.6.152.095 3.28.04 6.95-.12 4.502-.198 9.271-.175 14.665.071z" fill="#fbb920"/><path d="M123.823 203.845c-5.69-.961-9.239-5.815-9.239-12.634 0-5.79 2.645-10.388 6.891-11.977 5.023-1.88 10.812-.745 13.858 2.714 2.184 2.481 2.749 4.385 2.749 9.263 0 3.563-.103 4.419-.72 5.967-2.05 5.152-7.276 7.725-13.538 6.667zm6.208-4.877c1.808-1.378 2.313-3.144 2.313-8.077 0-3.844-.06-4.27-.8-5.588-1.173-2.094-2.534-2.892-4.932-2.892-2.715 0-3.943.714-5.107 2.97-.742 1.44-.95 2.326-1.08 4.607-.272 4.802.688 7.667 3.127 9.323.951.646 1.418.738 3.228.64 1.697-.093 2.34-.287 3.251-.983zm-51.773 4.163c-.489-1.343-5.829-23.8-5.706-23.997.082-.134 1.284-.243 2.67-.243 2.119 0 2.547.089 2.695.56.096.308.904 4.087 1.795 8.397.89 4.311 1.743 7.961 1.894 8.112.328.329.22.677 2.26-7.31.9-3.52 1.847-7.155 2.106-8.08l.47-1.68h3.025c2.873 0 3.034.037 3.196.72.845 3.568 3.681 15.986 3.681 16.12 0 .096.171.117.38.047.215-.071 1.158-3.752 2.16-8.427l1.78-8.3 2.48-.093c1.959-.074 2.48.001 2.48.355 0 .852-5.831 23.42-6.154 23.818-.213.263-1.249.4-3.015.4-2.19 0-2.728-.096-2.89-.52-.11-.287-1.079-4.21-2.152-8.72-1.073-4.51-2.094-8.155-2.27-8.1-.175.055-1.276 3.825-2.446 8.378-1.17 4.553-2.223 8.432-2.34 8.62-.312.507-5.912.454-6.099-.058zm72.711.199c-.124-.125-.225-5.674-.225-12.332V178.89h6.341c6.977 0 8.847.318 10.614 1.806 1.44 1.21 2.027 2.564 2.008 4.624-.023 2.553-1.017 4.155-3.477 5.602-.55.324-.513.397.465.903 1.324.684 2.146 2.47 2.443 5.305.12 1.144.422 2.988.672 4.1s.453 2.082.453 2.16c0 .257-5.4.143-5.561-.118-.088-.142-.384-1.978-.66-4.08-.69-5.285-.809-5.422-4.693-5.422h-3.006l-.32 9.6-2.414.092c-1.328.05-2.516-.01-2.64-.133zm12.064-14.81c1.642-1.544 1.267-4.306-.696-5.119-.525-.217-1.999-.339-3.455-.285l-2.539.095-.093 2.693c-.052 1.481-.015 2.9.082 3.152.139.362.772.435 3.028.347 2.488-.098 2.957-.21 3.673-.883zm22.467 14.51c-.255-.664-.257-22.968-.002-23.632.155-.403.712-.507 2.716-.507h2.521l.17 20.32 10.56.32v3.84l-7.885.086c-6.98.076-7.906.027-8.08-.426zm28.121.13c-.09-.238-.127-5.759-.081-12.27l.084-11.839 5.401-.088c6.134-.1 8.311.278 10.791 1.87 2.53 1.623 3.953 4.21 4.44 8.074.358 2.844-.05 6.374-.987 8.554-.86 1.997-3.54 4.514-5.634 5.29-2.049.76-13.749 1.1-14.014.408zm11.946-4.755c2.016-1.133 3.018-3.366 3.055-6.808.068-6.164-2.27-8.76-7.638-8.485l-1.92.1-.086 7.673c-.047 4.22-.009 7.875.086 8.12.29.757 4.837.337 6.503-.6zm24.732 4.086c-.619-1.922-5.474-22.286-5.474-22.96 0-.629.148-.66 2.64-.573l2.64.093 1.624 8.025c1.809 8.932 1.962 9.501 2.365 8.775.146-.264 1.149-3.936 2.228-8.16s2.04-7.932 2.134-8.24c.148-.482.594-.56 3.178-.56h3.006l.309 1.2c.17.66 1.067 4.478 1.994 8.486 1 4.322 1.823 7.24 2.024 7.173.186-.062 1.132-3.845 2.102-8.406l1.765-8.293 2.475-.094c2.161-.081 2.476-.024 2.476.455 0 .538-5.15 21.032-5.8 23.078l-.33 1.04h-2.836c-1.56 0-2.906-.111-2.99-.247-.084-.136-1.036-3.978-2.115-8.536-1.079-4.56-2.046-8.426-2.15-8.594-.336-.544-.654.458-2.666 8.42-1.089 4.31-2.114 8.09-2.278 8.397-.25.47-.76.56-3.142.56h-2.844zm40.18.827c-.118-.117-.214-5.661-.214-12.32V178.89h2.526c2.008 0 2.565.104 2.72.506.107.278.194 5.595.194 11.814s-.087 11.535-.194 11.814c-.153.397-.694.506-2.507.506-1.272 0-2.408-.096-2.526-.213zm20.743-.159c-.09-.237-.127-5.758-.081-12.269l.084-11.839 6.24.014c5.77.013 6.383.07 8.13.762 3.575 1.414 5.679 4.397 6.325 8.965.924 6.535-1.564 11.921-6.384 13.822-1.622.64-2.535.737-7.99.85-4.954.102-6.19.042-6.324-.304zm10.755-4.157c1.77-.6 2.89-1.563 3.548-3.051 1.286-2.908 1.045-8.12-.48-10.382-1.201-1.784-2.554-2.346-5.657-2.352l-2.723-.005-.086 7.674c-.047 4.22-.016 7.856.07 8.08.2.522 3.824.547 5.328.037zm22.906 4.321c-.12-.12-.218-5.666-.218-12.325v-12.107h8.125c8.968 0 8.515-.11 8.515 2.08 0 2.137.159 2.08-5.78 2.08h-5.392l-.189 1.04c-.104.572-.073 1.832.07 2.8l.259 1.76 10.102.177-.095 1.991-.095 1.992-10.103.177.091 3.111.092 3.112 11.2.32v3.84l-8.182.085c-4.5.047-8.28-.013-8.4-.133zM.423 162.68c-.63-.254-.536-3.827.106-4.074.936-.359 424.44-.222 425.11.137.484.26.62.677.62 1.91 0 1.231-.136 1.65-.62 1.908-.631.338-424.38.457-425.22.12zm227.28-19.957c-8.06-.913-12.967-2.935-14.388-5.931-.678-1.43-.736-4.183-.114-5.481l.431-.899h21.431l.099 1.365c.141 1.957.967 2.42 4.038 2.265 2.026-.102 2.59-.265 3.76-1.088.757-.532 1.52-1.373 1.693-1.868.277-.788.206-.995-.568-1.661-1.098-.945-3.087-1.523-8.222-2.392-9.717-1.644-13.228-3.138-14.745-6.273-.896-1.85-.696-3.858.673-6.784 3.199-6.836 9.34-10.566 19.796-12.025 5.157-.719 13.526-.952 19.065-.53 8.517.648 12.743 2.114 14.439 5.01.753 1.285.837 1.704.695 3.473-.089 1.106-.362 2.429-.607 2.94l-.445.928h-20.47l-.09-.8c-.214-1.911-.431-2.29-1.59-2.773-2.156-.901-5.483-.047-6.733 1.728-1.085 1.54-1.15 2.231-.294 3.087.948.949 2.6 1.298 9.346 1.974 6.504.652 9.103 1.191 11.588 2.403 4.07 1.985 4.81 5.276 2.317 10.303-3.488 7.03-9.84 10.83-21.034 12.584-3.716.582-16.383.863-20.07.445zm-227.21-.654c-.117-.19.069-.657.412-1.04.343-.383 8.585-10.488 18.316-22.456 9.73-11.968 17.976-22.012 18.325-22.32.585-.518 1.862-.56 16.899-.56 8.946 0 16.34.12 16.431.267.272.44-4.314 45.619-4.674 46.053-.254.307-3.084.4-12.143.4-10.407 0-11.834-.06-12.002-.5-.105-.274.041-1.66.326-3.077.284-1.418.438-2.706.342-2.86-.096-.156-3.046-.283-6.556-.283h-6.382l-2.3 3.12c-1.266 1.716-2.454 3.226-2.64 3.355-.564.392-24.11.297-24.353-.099zm44.928-17.36c.485-.584 3.585-15.357 3.287-15.66-.284-.289-11.24 14.933-11.24 15.616 0 .65 7.417.69 7.954.043zm31.2 16.989c.1-.399 3.14-7.108 6.755-14.908 3.614-7.801 6.571-14.39 6.571-14.64 0-.382-1.203-.457-7.37-.457-5.99 0-7.402-.083-7.54-.443-.183-.476 3.867-8.839 4.47-9.232.525-.342 71.31-.292 71.853.051.363.23-.91 3.225-6.472 15.238-3.809 8.224-6.848 15.077-6.754 15.23.094.152 4.135.276 8.98.276h8.808l1.013-1.142c.557-.629 6.348-7.505 12.869-15.28l11.857-14.137 29.887-.167v1.126c0 1.49-3.483 38.286-3.673 38.8-.114.31-2.613.4-11.019.4-5.979 0-10.94-.112-11.026-.25-.085-.137.055-1.246.31-2.465.256-1.219.393-2.403.306-2.63-.122-.318-1.503-.414-5.92-.414h-5.763l-4.227 5.76H141.94c-16.918 0-28.67-.12-28.776-.293-.1-.16 2.904-6.96 6.675-15.112 3.771-8.15 6.787-14.93 6.703-15.068-.084-.136-3.6-.247-7.812-.247-6.95 0-7.69.051-8 .56-.189.308-3.404 7.184-7.146 15.28l-6.804 14.72-10.173.084-10.173.085zm112.36-14.627c.242-.393 2.727-12.158 2.729-12.925 0-.323-.131-.539-.293-.48-.464.168-9.626 12.81-9.626 13.282 0 .326.807.424 3.501.424 1.926 0 3.586-.136 3.688-.302zm95.53 15.002c0-.335 31.478-37.998 32.14-38.455.187-.13 6.785-.238 14.66-.24l14.32-.005v1.045c0 1.784-3.475 37.343-3.682 37.678-.122.198-4.15.316-10.779.316h-10.583l.18-1.2.405-2.72.226-1.52h-11.55l-2.014 2.72-2.015 2.72h-10.654c-7.307 0-10.654-.106-10.654-.34zm39.186-14.357c.222-.36 2.734-12.31 2.734-13.008 0-.271-.139-.407-.308-.302-.681.42-9.623 13.01-9.445 13.298.245.396 6.775.407 7.02.012zm21.806 14.429c-.161-.262 16.846-37.894 17.485-38.692.393-.49 18.65-.587 18.95-.102.175.284-16.31 36.838-17.292 38.342-.47.72-.48.72-9.724.72-5.09 0-9.328-.12-9.42-.268zm27.328-.065c0-.43 16.83-37.34 17.475-38.326l.488-.744 17.658.128c19.126.139 19.728.19 22.715 1.94 3.38 1.982 3.644 6.537.713 12.356-2.25 4.469-5.921 6.791-11.93 7.548-1.036.13-1.68.367-1.68.618 0 .224 1.728 3.968 3.84 8.32 2.113 4.352 3.76 8.044 3.662 8.203-.101.164-4.763.29-10.71.29-9.71 0-10.55-.044-10.804-.56-.151-.308-1.27-3.764-2.486-7.68-1.216-3.916-2.366-7.12-2.557-7.12-.19 0-1.758 3.132-3.483 6.96-1.724 3.828-3.338 7.284-3.586 7.68l-.45.72h-9.433c-6.322 0-9.433-.11-9.433-.333zm36.454-22.594c1.878-.936 3.546-3.103 3.546-4.606 0-1.545-1.005-2.054-4.29-2.176l-2.945-.108-1.668 3.628c-.917 1.996-1.665 3.737-1.662 3.87.003.131 1.201.24 2.662.24 2.233 0 2.93-.136 4.357-.848z" fill="#022663"/></g></svg>