<svg xmlns="http://www.w3.org/2000/svg" width="892.913" height="172.913"><defs><clipPath id="a"><path d="M0 0h498.898v935.433H0V0z"/></clipPath></defs><g clip-path="url(#a)" transform="matrix(4.68272 0 0 -4.68272 -1303.468 3802.455)"><path d="M291.762 781.481c0-2.094-.765-5.645-6.607-5.645-2.515 0-5.424 1.208-5.621 4.094h3.475c.32-1.308 1.357-1.75 2.614-1.75 1.948 0 2.835 1.307 2.81 3.153v1.677h-.05c-.762-1.356-2.267-1.973-3.82-1.973-3.847 0-5.45 2.911-5.45 6.411 0 3.304 1.924 6.313 5.475 6.313 1.676 0 2.934-.57 3.796-2.047h.049v1.7h3.329v-11.933zm-3.33 5.721c0 2.072-.713 3.92-2.982 3.92-1.972 0-2.835-1.726-2.835-3.625 0-1.823.665-3.82 2.835-3.82 1.998 0 2.983 1.702 2.983 3.525M297.21 786.19c.098-2.242 1.158-3.23 3.131-3.23 1.405 0 2.538.867 2.761 1.655h3.082c-.986-3.034-3.082-4.29-5.966-4.29-4.019 0-6.51 2.76-6.51 6.705 0 3.822 2.638 6.732 6.51 6.732 4.338 0 6.46-3.65 6.188-7.571h-9.196zm5.695 2.222c-.32 1.776-1.085 2.71-2.786 2.71-2.269 0-2.836-1.726-2.909-2.71h5.695zM308.599 793.414h3.329v-2.366h.049c.666 1.604 2.317 2.713 4.068 2.713.27 0 .518-.049.765-.122v-3.255a6.408 6.408 0 01-1.258.121c-2.59 0-3.451-1.823-3.451-4.09v-5.745h-3.502v12.744zM318.239 793.414h3.304v-1.724h.049c.913 1.306 2.219 2.071 3.896 2.071 1.602 0 3.032-.569 3.722-2.12.765 1.11 2.07 2.12 3.846 2.12 2.712 0 4.66-1.258 4.66-4.56v-8.53h-3.501v7.221c0 1.703-.148 3.107-2.144 3.107-1.973 0-2.342-1.652-2.342-3.23v-7.099h-3.502v7.148c0 1.48.099 3.181-2.12 3.181-.691 0-2.367-.442-2.367-2.933v-7.396h-3.501v12.744zM339.935 789.496c.197 3.254 3.13 4.265 5.99 4.265 2.54 0 5.596-.57 5.596-3.623v-6.634c0-1.158.123-2.317.444-2.833h-3.55a5.14 5.14 0 00-.246 1.23c-1.108-1.157-2.712-1.576-4.29-1.576-2.44 0-4.34 1.206-4.34 3.82.05 5.795 8.63 2.688 8.482 5.549 0 1.477-1.035 1.724-2.267 1.724-1.357 0-2.196-.542-2.318-1.922h-3.501zm8.086-2.591c-.592-.516-1.824-.541-2.91-.738-1.084-.198-2.07-.593-2.07-1.873 0-1.283 1.01-1.628 2.146-1.628 2.735 0 2.834 2.148 2.834 2.934v1.305zM354.332 793.414h3.329v-1.774h.073c.887 1.455 2.417 2.121 3.895 2.121 3.724 0 4.66-2.097 4.66-5.252v-7.839h-3.501v7.198c0 2.096-.591 3.131-2.242 3.131-1.9 0-2.713-1.059-2.713-3.649v-6.68h-3.502v12.744z" fill="#7f103f"/></g><path d="M489.46 146.796h-16.858l-10.63-40.056h-.234l-10.148 40.056h-16.974l-18.933-59.677h17.312l10.967 40.51h.234l9.932-40.51h15.926l10.171 40.398h.23l10.962-40.398h16.848l-18.806 59.677zM531.244 77.878H514.85v-13.51h16.394v13.51zM514.85 87.12h16.394v59.677H514.85V87.12zM544.752 87.12h15.588v8.308h.342c4.154-6.813 11.318-9.932 18.244-9.932 17.434 0 21.826 9.82 21.826 24.594v36.707h-16.408v-33.706c0-9.815-2.772-14.661-10.494-14.661-8.902 0-12.709 4.959-12.709 17.087v31.28h-16.39V87.121zM669.092 142.998c0 9.806-3.587 26.434-30.948 26.434-11.777 0-25.39-5.657-26.317-19.17h16.268c1.507 6.124 6.354 8.199 12.245 8.199 9.127 0 13.28-6.125 13.158-14.77v-7.853h-.234c-3.573 6.35-10.615 9.24-17.888 9.24-18.005 0-25.516-13.632-25.516-30.022 0-15.471 9.005-29.561 25.629-29.561 7.857 0 13.743 2.669 17.775 9.585h.234v-7.96h15.594v55.878zm-15.594-26.79c0-9.702-3.343-18.356-13.959-18.356-9.239 0-13.285 8.083-13.285 16.975 0 8.537 3.119 17.893 13.285 17.893 9.342 0 13.96-7.975 13.96-16.512M693.1 127.395c0 7.053 6.227 10.059 12.586 10.059 4.608 0 10.733-1.845 10.733-7.624 0-4.968-6.926-6.808-18.586-9.23-9.585-2.2-18.932-5.314-18.932-15.944 0-15.233 13.159-19.161 25.97-19.161 12.934 0 25.048 4.387 26.327 19.049h-15.589c-.454-6.345-5.315-8.078-11.196-8.078-3.704 0-9.122.585-9.122 5.535 0 5.89 9.346 6.701 18.59 8.893 9.572 2.196 18.932 5.661 18.932 16.736 0 15.705-13.734 20.786-27.248 20.786-13.852 0-27.479-5.193-28.055-21.02h15.59z" fill="#7f103f"/><path d="M784.533 71.83c-1.011-1.245-2.079-2.777-3.708-5.619a94223.675 94223.675 0 00-18.052-31.238c-2.74-4.767-6.312-10.583-20.234-10.583-2.94 0-6.303 0-9.726.337 2.631 2.945 5.15 6.968 8.017 11.936 7.853 13.594 19.166 33.196 19.925 34.507.5.871 2.182 3.882 3.245 5.357 3.975 2.473 14.769 2.576 20.533-4.697" fill="#fbba00"/><path d="M838.584 3.48c-13.922 0-17.49 5.822-20.239 10.584-2.749 4.767-28.625 49.576-30.105 52.147-1.634 2.842-2.697 4.373-3.704 5.619 5.764 7.272 16.553 7.17 20.529 4.697 1.063-1.475 2.744-4.486 3.25-5.357.754-1.312 24.125-41.817 31.973-55.416 2.87-4.963 5.39-8.986 8.017-11.931-3.418-.342-6.776-.342-9.721-.342" fill="#7f103f"/><path d="M784.533 71.83C778.77 79.103 767.975 79 764 76.527c4.603 6.434 12.081 10.625 20.533 10.625 8.453 0 15.931-4.19 20.534-10.625-3.98 2.473-14.77 2.576-20.534-4.697" fill="#ab0051"/><path d="M825.598 71.83c-1.011-1.245-2.084-2.777-3.713-5.619-1.48-2.575-15.299-26.476-18.048-31.238-2.734-4.767-6.307-10.583-20.234-10.583-2.936 0-6.303 0-9.726.337 2.627 2.945 5.151 6.968 8.017 11.936 7.848 13.594 19.167 33.196 19.925 34.507.501.871 2.182 3.882 3.245 5.357 3.98 2.473 14.77 2.576 20.534-4.697" fill="#fbba00"/><path d="M879.644 3.48c-13.922 0-17.485 5.822-20.234 10.584-2.744 4.767-28.625 49.576-30.1 52.147-1.635 2.842-2.698 4.373-3.714 5.619 5.77 7.272 16.554 7.17 20.534 4.697 1.058-1.475 2.744-4.486 3.25-5.357.754-1.312 24.125-41.817 31.973-55.416 2.87-4.963 5.39-8.986 8.017-11.931-3.418-.342-6.78-.342-9.726-.342" fill="#7f103f"/><path d="M825.598 71.83c-5.764 7.273-16.553 7.17-20.534 4.697 4.603 6.434 12.077 10.625 20.534 10.625 8.448 0 15.93-4.19 20.534-10.625-3.98 2.473-14.77 2.576-20.534-4.697" fill="#ab0051"/><path d="M816.529 56.934c-3.91-6.762-8.902-15.401-11.473-19.85-4.046 7.015-8.26 14.306-11.459 19.85 4.346 7.52 7.811 13.529 8.223 14.236.501.87 2.182 3.882 3.245 5.357 1.059-1.475 2.744-4.486 3.25-5.357.276-.483 3.662-6.355 8.214-14.236" fill="#ab0051"/></svg>