<svg viewBox="0 0 322.7 161.1" xmlns="http://www.w3.org/2000/svg"><style>.st0{fill:#a20025}.st1{fill:none}</style><path class="st0" d="M139.2 29.5c0 .1 0 .2.1.3.1.2.2.4.4.6 0 .1.1.1.2.2s.1.3.2.4.1.2.2.3.2.3.3.5.2.6.4.6c0 0 .1 0 .1-.1V32l-.3-.6c-.1-.2-.1-.4-.3-.5-.1-.1-.2-.2-.3-.4s-.1-.4-.2-.6-.3-.3-.4-.5-.3-.6-.5-.7v.3c0 .2 0 .3.1.5zm7.1 1.7s.1 0 0 0c.1-.2 0-.3 0-.4-.1-.2-.3-.5-.6-.5 0 .3.2.6.4.7 0 .1.1.2.2.2zm7.2 3.2c.1 0 .1 0 0 0 0-.4-.2-.6-.4-.7-.1-.1-.3-.1-.4-.1 0 0 .1.3.1.4.2.1.5.4.7.4zm-6.9-4.6l.6.9c.1.2.5.6.7.5v-.3c0-.1-.1-.2-.2-.3-.1-.2-.3-.4-.4-.5s-.2-.3-.3-.5c-.1-.1-.2-.2-.2-.3-.1-.1-.3-.5-.5-.5v.2c-.1.3.1.5.3.8zm-6.2-4.5v-.2c0-.1-.1-.2-.1-.3-.1-.2-.2-.3-.3-.5-.1-.3-.2-.6-.3-.8-.1-.1-.2-.2-.2-.4 0 0 0-.1-.1-.1l-.1-.1h-.1c-.1.2 0 .4.1.6.2.3.3.7.5 1 0 .1 0 .2.1.3 0 .1.1.2.1.3.1.2.2.5.4.5v-.3z"/><path class="st0" d="M131.8 3c0 .2.1.3.1.5 0 .3.1.5.1.8V5c.1.3.1.6.1.9.1.4.2.9.3 1.4v.4c0 .1.1.3.1.4v.5c0 .1.1.3.1.5s0 .4.1.6.1.4.2.6c0 .2.1.5.1.7s.1.4.2.7v.2c0 .2.1.3.1.5v.2l.3.9v.2c.1.2.1.3.1.5 0 .1 0 .2.1.3 0 .2.1.3.1.4s0 .2.1.3c0 .1.1.2.1.4.1.3.1.5.2.8 0 .2.1.3.2.5 0 .1 0 .3.1.5s.2.5.3.8l.3.9c0 .1 0 .2.1.3l.3.9c0 .1.1.3.1.4.1.2.2.4.3.7.1.2.1.4.2.6.1.3.2.5.3.8.1.2.1.4.2.6.1.1.2.3.2.5 0 .1.1.3.1.4s.1.3.2.4c.1.2.1.4.2.6.1.3.3.6.4.9.1.1.1.2.1.3.1.2.2.4.3.5.1.2.1.4.2.5.1.3.2.4.2.7v.1c-.1 0-.1-.1-.2-.1-.2-.2-.2-.4-.3-.6l-.6-1.2c-.1-.2-.1-.4-.2-.6-.1-.1-.1-.3-.2-.4-.1-.2-.1-.4-.2-.5-.1-.2-.2-.5-.3-.8 0-.1 0-.2-.1-.3 0-.1-.1-.2-.2-.3-.1-.2-.1-.4-.2-.5-.1-.3-.3-.7-.4-1l-.3-.9c0-.1-.1-.3-.1-.4s0-.2-.1-.3c-.1-.3-.2-.6-.4-.9-.1-.1-.1-.3-.1-.4-.1-.2-.1-.4-.2-.5-.1-.2-.1-.5-.2-.7-.2-.5-.4-1-.6-1.6 0-.1 0-.2-.1-.4l-.3-.9c-.1-.3-.1-.7-.2-1-.1-.4-.3-.8-.4-1.2 0-.1 0-.2-.1-.4-.1-.3-.2-.7-.3-1-.1-.1-.1-.3-.1-.4-.1-.2-.2-.1-.2.1s.1.4.1.5v.4c0 .2.1.4.2.6s.1.4.1.6c0 .1.1.2.1.3.1.2.1.4.1.6.1.1.1.3.1.5v.3c.1.2.1.4.2.6v.3c0 .2.1.3.1.5 0 .1 0 .3.1.5.1.3.2.5.3.8s.1.6.2.8c.2.5.3 1.1.5 1.6 0 .1 0 .3.1.4.1.2.1.4.2.6 0 .1.1.2.1.3.1.1.1.3.1.4s.1.2.1.3c.1.2 0 .3.1.5.1.1.1.3.2.4s0 .3.1.4c0 .1.1.2.2.3s.1.2.1.3.1.2.2.4c.1.1.1.3.1.4s.1.2.2.3c0 .1 0 .3.1.4l.3.6c.1.1.1.3.1.4.1.2.2.3.2.5l.3.6c.2.4.2.8.4 1.1.1.3.3.5.4.8.1.1.1.3.2.4.1.2.2.3.3.4.1.2.1.3.2.5l.3.6c.1.1.1.2.1.3.1.2.3.4.4.6.1.1.1.3.2.4.1.2.3.4.4.7.1.2.1.3.2.5.2.2.3.4.4.7l.3.6c.1.2.2.3.3.5s.2.3.3.5.2.3.3.5c.2.3.3.6.5.8.1.2.3.4.4.6.4.5.9 1.4 1.1 1.7.2.2.3.5.5.8.1.2.3.4.4.6.1.1.2.3.3.5l.1.1c4.6 5.9 9.4 9.8 13.4 12.3 2.1 1.3 3.3 1.7 3.3 1.7.3.1.1.3-.1.4l-23.5 15c-.1 0-.3.2-.2.3s.3.1.4 0c19.2-6.7 33.1-12.3 41.6-16.3 8.6-4.1 11.5-6.4 11.2-7.6-.3-1.1-3.5-.6-6.1-.9-2.4-.2-5.5-.6-9.2-1.9-3.5-1.2-6.8-2.6-9.7-4.1 0 0-1.2-.6-1.3-.7-.2-.1-.4-.3-.7-.4-.1-.1-.4-.2-.5-.3-.2-.1-.3-.2-.5-.3l-.6-.3c-.3-.2-.4-.3-.7-.5-.2-.1-.2-.1-.4-.3-.1-.1-.4-.2-.5-.3-.2-.2-.4-.3-.6-.4-.1-.1-.2-.2-.4-.3s-.3-.2-.5-.3c-.1-.1-.2-.1-.3-.2l-.5-.5c-.2-.1-.3-.3-.5-.4-.1-.1-.3-.2-.4-.3-.3-.2-.4-.3-.7-.5-.2-.1-.3-.3-.5-.4s-.4-.3-.6-.4c-.1-.1-.3-.2-.4-.3s-.2-.3-.4-.4c-.1-.1-.3-.2-.4-.3l-1.4-1.4s-.1-.2-.2-.3-.1-.2-.2-.2l-.5-.5c0-.1-.1-.1-.1-.2s-.1-.1-.1-.2c-.1-.1-.1-.1-.2 0 0 0-.1.1 0 .2s.2.3.2.4l.1.1c0 .1.1.1.1.2l.6.6c.1.1.1.2.2.2l.9.9c.2.2.4.5.6.7.1.1.3.2.4.3s.2.3.3.4l.3.3c.2.3.3.4.6.6.2.1.3.2.4.4l.4.4c.2.3.3.5.3.5-.1 0-.5-.3-.7-.4s-.2-.2-.4-.3c0 0-.3-.2-.4-.3l-.3-.3c-.3-.4-.4-.4-.7-.7-.2-.2-.5-.5-.8-.7-.1-.1-.1-.2-.2-.2l-.2-.2c-.1-.1-.3-.4-.4-.5s-.2-.2-.4-.3c-.1 0-.1-.1-.1-.1l-.2-.2c-.2-.2-.3-.4-.5-.6l-.3-.3c-.2-.2-.3-.5-.5-.7-.2-.3-.6-.5-.8-.8s-.4-.7-.6-1c-.1-.1-.2-.2-.3-.4-.1-.1-.1-.2-.1-.3-.1-.2-.2-.3-.4-.5-.1-.2-.3-.5-.4-.7 0 0-.1-.2-.2-.3s-.2-.2-.3-.4-.2-.3-.2-.4c-.1-.1-.1-.2-.2-.3 0-.1-.2-.2-.2-.3-.1-.2-.2-.3-.3-.5-.1-.1-.2-.2-.3-.2s0 .1 0 .2c.1.2.1.1.1.3.1.2.2.3.3.5.1.1.2.3.2.4.1.1.2.3.2.3.1.1.1.4.2.5s.1.2.2.4.3.4.4.6c.1.1.2.3.2.5.2.2.4.5.5.7s.2.3.3.5c.1.1.2.3.3.4.1.2.2.4.3.5s.2.3.3.4c.2.2.3.5.5.7l.3.3c.1.2.2.4.3.5.2.1.2.2.3.4.2.2.6.8.6.8-.3 0-.8-.5-1-.7s-.3-.3-.5-.4c-.2-.2-.3-.5-.5-.7-.1-.1-.2-.1-.2-.2-.1-.2-.2-.3-.4-.4 0-.1-.1-.1-.2-.2-.2-.3-.4-.5-.6-.8l-.3-.3c-.1-.1-.1-.2-.2-.3s-.2-.2-.3-.4c-.1-.1-.1-.2-.2-.3-.1-.2-.3-.3-.4-.5-.1-.1-.1-.3-.2-.4-.2-.3-.5-.7-.7-1-.1-.1-.1-.2-.1-.3-.2-.3-.3-.6-.5-.9-.1-.1-.1-.2-.2-.3l-.3-.3c-.1-.1-.1-.2-.1-.3-.1-.1-.2-.3-.2-.4s-.1-.2-.1-.3c-.2-.3-.4-.7-.6-1.1l-.6-1.2c-.1-.1-.1-.3-.2-.4-.1-.2-.3-.4-.4-.6s-.1-.3-.2-.4c0-.1-.1-.1-.2-.1s-.1.1 0 .2c.1.2.2.5.3.6.1.3.2.5.3.8.1.1.2.3.2.4.1.3.2.5.3.8.1.1.1.3.2.4 0 .1.1.1.1.2.1.2.1.4.2.5.1.2.2.3.3.5.4.9.8 1.7 1.3 2.5.1.2.2.5.3.7s.3.4.5.6c.1.2.1.4.3.6.2.3.4.5.5.8 0 .1.1.2.1.2.1.1.2.2.2.3.1.1.1.3.2.4l.4.4.3.6.3.3c.2.2.7.9.8 1.1.2.3.6.7.8 1.1.1.1.3.4.2.5s-.6-.5-.7-.6c-.2-.2-.4-.5-.6-.7 0-.1-.5-.5-.6-.6s-.1-.1-.1-.2c-.1-.2-.2-.4-.4-.6-.1-.1-.2-.1-.2-.2-.1-.1-.2-.3-.3-.5-.2-.2-.4-.5-.6-.7-.2-.3-.3-.6-.5-.8-.1-.1-.2-.2-.3-.4 0-.1-.1-.1-.1-.2-.1-.1-.2-.2-.2-.3-.1-.1-.1-.2-.2-.3-.2-.3-.4-.6-.6-1-.1-.1-.1-.3-.2-.4-.2-.2-.3-.4-.5-.7s-.3-.6-.5-.9c-.1-.2-.3-.4-.4-.5l-.3-.6c-.1-.2-.2-.4-.3-.5l-.3-.6c-.1-.1-.1-.2-.2-.3s-.1-.3-.1-.4c-.2-.4-.4-.8-.6-1.1-.1-.3-.2-.6-.4-.8-.1-.2-.1-.3-.1-.5-.2-.4-.4-.7-.5-1.1-.1-.2-.1-.4-.2-.6v-.2c-.1-.2-.2-.3-.2-.5-.1-.2-.1-.4-.2-.6-.2-.6-.5-1.3-.7-2 0-.1 0-.3-.1-.4-.1-.3-.2-.7-.4-1-.1-.2-.2-.1-.2.1s.1.3.1.5c0 .1 0 .2.1.3 0 .1.1.2.1.3.1.2.1.4.1.6.1.3.2.5.3.8 0 .1.1.3.1.4s.1.3.1.4c.1.3.3.7.4 1 0 .2.1.4.1.6 0 .1.1.2.2.3 0 .1 0 .2.1.3.1.2.2.4.3.7.1.2.2.4.2.5s0 .2.1.3c.2.6.4 1.2.7 1.7.1.1.1.3.1.4s.1.2.2.3c0 .1.1.1.1.2.1.2.2.3.3.4.2.4.4.9.7 1.2.2.3.3.8.5 1.2.1.2.2.4.3.5s.1.2.1.3l.5 1c0 .1.1.5.1.5s-.2-.1-.3-.2-.2-.2-.3-.5c0-.1-.2-.3-.2-.4-.1-.3-.3-.5-.5-.8-.1-.1-.1-.3-.2-.5-.1-.3-.3-.6-.4-.9-.1-.1-.2-.2-.2-.4-.1-.1-.1-.2-.2-.4-.2-.2-.3-.5-.5-.8-.1-.2-.1-.4-.2-.6 0-.1-.1-.1-.1-.2-.1-.1-.1-.2-.1-.3-.1-.2-.2-.3-.3-.5-.1-.3-.2-.6-.4-1-.1-.1-.2-.3-.3-.4-.1-.2-.1-.5-.2-.7-.3-.6-.6-1.2-.8-1.9 0-.1 0-.2-.1-.3-.1-.3-.2-.5-.3-.8 0-.1-.1-.2-.1-.4-.1-.2-.2-.4-.2-.6v-.2c-.1-.2-.1-.4-.2-.6 0-.1-.1-.2-.2-.3-.1-.2 0-.4-.1-.6-.1-.3-.2-.5-.3-.8-.1-.2-.1-.3-.1-.4-.1-.2-.1-.4-.2-.5-.1-.2-.1-.4-.1-.6 0-.1-.1-.3-.2-.4-.1-.2-.1-.5-.2-.7v-.1c0-.1-.1-.1-.1-.1-.1 0-.1.1-.1.2 0 .2.1.4.1.5.1.2.1.3.1.5v.3c0 .2.1.3.1.4v.4c.1.3.2.7.3 1 0 .2.1.3.1.5l.2.5c.1.1.1.3.1.4.1.1.1.3.2.4.1.2.1.4.1.6l.3.9c0 .1 0 .2.1.3.1.2.1.5.2.8.1.4.3.7.4 1.1.1.3.1.8.3 1.1.1.2.2.3.3.4 0 .1 0 .2.1.3 0 .1.1.3.2.4 0 .1.1.2.1.3s.1.3.2.4c.1.2.1.4.3.6.1.1.2.3.3.4.1.2.1.4.2.5.1.3.3.5.4.8.1.2.1.5.2.7s.3.4.4.6.1.3.2.5c.1.1.2.2.2.4.1.2.2.3.3.5.1.1.1.2.2.4s.2.3.3.5c.1.1.2.3.3.5.1.1.1.3.2.4l.3.3c.1.1.2.5.1.6-.1 0-.3-.2-.4-.3-.2-.2-.3-.6-.5-.8-.2-.3-.3-.4-.5-.7-.1-.2-.2-.5-.3-.7s-.2-.3-.3-.5c-.1-.1-.1-.3-.1-.5-.1-.2-.3-.3-.4-.5s-.2-.5-.3-.7c0-.1-.1-.2-.2-.3s-.1-.3-.2-.4c-.1-.3-.3-.5-.5-.8-.1-.3-.2-.6-.4-.9-.1-.2-.2-.3-.3-.4-.1-.2-.1-.4-.3-.6-.1-.1-.1-.3-.2-.4-.1-.2-.1-.4-.2-.6-.2-.4-.4-.9-.6-1.3-.1-.2-.1-.3-.2-.5-.1-.1-.1-.3-.2-.4-.2-.4-.2-.8-.4-1.2l-.3-.6c-.1-.3-.2-.7-.3-1-.2-.5-.3-1-.5-1.5-.1-.1-.1-.3-.1-.5-.1-.2-.1-.3-.2-.4 0-.1-.1-.3-.1-.4-.1-.4-.3-.9-.4-1.3 0-.1 0-.3-.1-.4 0-.1-.1-.2-.1-.2 0-.1 0-.2-.1-.3-.1-.3-.2-.7-.3-1 0-.1 0-.2-.1-.4-.1-.5-.2-1-.4-1.4 0-.1-.1-.2-.2-.1-.1 0-.1.1-.1.2 0 .2.1.4.1.5v.6c.1.3.2.6.3.8v.5c.1.4.2.9.4 1.3.1.4.2.8.3 1.1 0 .2 0 .3.1.5 0 .2.1.3.2.4 0 .1 0 .2.1.3.1.3.1.5.2.8.1.2.2.4.2.5v.2c0 .2.1.4.1.6.1.4.3.8.4 1.1.1.2.1.4.2.6l.9 2.4c0 .2.1.4.1.5.1.2.2.3.2.5.1.2.1.4.2.6.1.3.2.5.3.7 0 .1.1.3.2.4 0 .1.1.2.2.3.1.2.1.4.2.5.1.2.2.3.3.4s.1.3.2.5.3.5.4.7c0 .1.1.2.1.3s.1.2.2.4v.3c0 .1.1.2.1.2l.2.2c.1.2.1.4.2.6s.2.3.3.5c.1.1.1.5 0 .5-.4 0-.4-.5-.5-.8-.1-.2-.2-.4-.4-.6 0 0-.1-.1-.1-.2s0-.1-.1-.2c0-.1 0-.1-.1-.2 0-.1-.1-.2-.2-.3-.1-.2-.2-.5-.3-.7-.1-.1-.1-.2-.2-.3s-.1-.3-.2-.5c-.1-.1-.2-.3-.2-.4-.1-.2-.1-.4-.2-.6 0-.1-.1-.2-.2-.3l-.3-.6c0-.1-.1-.2-.2-.3-.1-.2-.1-.4-.2-.5-.2-.3-.4-.7-.6-1.1-.1-.2-.1-.4-.2-.6s-.2-.4-.3-.5-.1-.2-.1-.4c-.1-.2-.2-.4-.2-.6 0-.1-.1-.4-.1-.6 0-.1-.1-.3-.2-.5s-.1-.5-.2-.7-.2-.4-.2-.5c-.1-.1-.1-.3-.1-.4s-.1-.2-.1-.3-.1-.3-.1-.5c-.1-.2-.2-.4-.2-.6 0-.1 0-.5-.1-.5l-.6-1.8c-.1-.3-.1-.5-.2-.8 0-.1 0-.2-.1-.3 0-.2-.1-.3-.2-.5 0-.1 0-.2-.1-.4 0-.1-.1-.2-.1-.4-.1-.3-.2-.7-.3-1.1 0-.1 0-.3-.1-.5-.1-.4-.2-.9-.3-1.4 0-.1-.1-.3-.1-.4-.2-.8-.3-1.8-.6-2.6v-.5c0-.2-.1-.3-.1-.5v-.2c0-.1-.1-.2-.2-.2s-.1.1-.1.2c0 .2 0 .3.1.5 0 .1 0 .2.1.3.1.3.1.6.1.9v.3c0 .1.1.3.1.4v.6c0 .2.1.3.1.5v.4c0 .1.1.2.1.4v.5c.2.7.2 1.6.5 2.3 0 .1 0 .2.1.3.2.6.3 1.3.5 1.9v.3c.1.2.1.4.2.7v.3c.1.2.1.4.2.7 0 .1 0 .2.1.3 0 .1.1.2.1.3s0 .3.1.4c0 .1.1.1.1.2s0 .3.1.4c0 .1.1.3.2.5 0 .1 0 .3.1.4.1.2.2.5.3.7s.1.4.1.6c0 .1.1.3.1.4s0 .2.1.3c0 .1.1.2.2.4.1.1 0 .3.1.5 0 .1.1.3.2.4 0 .1 0 .3.1.4 0 .1.1.2.2.3 0 .1.1.2.1.4 0 .1.1.2.1.2.1.1.1.3.2.4.1.2.1.4.2.7v.2c-.1 0-.2-.1-.3-.2-.1-.2-.2-.3-.3-.5 0-.1 0-.1-.1-.2s-.1-.3-.2-.5c0-.1-.1-.2-.1-.3s0-.3-.1-.4-.1-.2-.2-.3c0-.1 0-.2-.1-.3 0-.1-.1-.2-.2-.3 0-.1 0-.2-.1-.3 0-.1-.1-.3-.2-.4s-.1-.3-.2-.4c0-.1 0-.2-.1-.2 0-.1-.1-.2-.1-.3s0-.2-.1-.2c-.1-.1-.1-.2-.2-.4 0-.1 0-.2-.1-.3-.1-.2-.1-.4-.2-.6 0-.1-.1-.3-.1-.4-.1-.2-.1-.3-.2-.5 0-.1-.1-.3-.1-.4-.1-.2-.1-.3-.2-.5 0-.1 0-.3-.1-.4-.1-.3-.2-.7-.3-1.1s-.1-.8-.2-1.2c-.1-.3-.2-.6-.3-.8 0-.1 0-.3-.1-.4-.1-.3-.2-.7-.3-1.1-.1-.2 0-.4-.1-.5-.1-.2-.1-.4-.1-.6 0-.1-.1-.2-.1-.4v-.5c0-.1-.2-.8-.2-.9v-.4c0-.1-.1-.4-.1-.4v-.3c0-.2-.1-.5-.1-.6v-.4c0-.1-.1-.3-.1-.5-.1-.2 0-.4-.1-.6 0-.1-.1-.3-.1-.4s-.1-.3-.1-.3v-.4c0-.1-.1-.3-.1-.5s-.1-.5-.1-.6V1c-.1-.2-.1-.4-.2-.4s-.1.1-.1.2c0 .2.1.3.1.5v2.2c0 .1.1.3.1.6 0 .2 0 .4.1.6v.4c0 .2.1.4.1.5V6c.1.2.2.5.2.5V7c0 .1.1.3.1.4v.2c0 .1.1.4.1.5v.2c0 .1.1.5.1.6v.3c0 .2.1.3.2.5v.3c0 .2.1.3.1.5v.4c.1.3.1.5.2.8 0 .1.1.3.2.4 0 .1 0 .3.1.4 0 .1.1.2.1.3v.3c0 .1.1.2.1.4v.3c0 .1.1.2.1.3s0 .3.1.4c0 .2.1.3.2.4 0 .1 0 .3.1.4.1.3.2.7.3 1 0 .2 0 .3.1.5 0 .1.1.2.1.3v.3c0 .2.1.4.2.6l.3.6c.1.2.1.4.1.6.1.2.2.4.2.5.1.2 0 .4.1.5.1.2.2.3.3.5s.1.4.2.6c0 .1 0 .2.1.3.1.3.2.5.3.7 0 .1 0 .2.1.3.1.2.1.4.2.6s.2.3.2.5c.1.1.1.3.1.4.1.1.1.3.2.5 0 .1 0 .2.1.3l.6 1.2c.1.2.1.5.3.7.1.2.2.3.3.5 0 .1.1.2.1.3.1.2.2.4.3.7 0 0 .1.3.1.4-.1 0-.2-.1-.3-.2-.3-.3-.3-.7-.5-1.1-.1-.1-.1-.2-.2-.3 0-.1 0-.1-.1-.2-.1-.2-.3-.4-.4-.6s-.1-.3-.2-.5c-.3-.6-.6-1.3-.9-1.9l-.3-.9c-.1-.2-.2-.3-.3-.5-.1-.1-.1-.3-.1-.4l-.3-.6c0-.1-.1-.3-.1-.4-.1-.1-.2-.3-.2-.4-.1-.2-.1-.4-.2-.6 0-.1-.1-.3-.1-.4s0-.2-.1-.3c-.1-.2-.2-.5-.3-.7s-.1-.4-.1-.5c-.1-.1-.2-.2-.2-.4-.1-.1 0-.3-.1-.5 0-.2-.1-.3-.2-.5 0-.1 0-.2-.1-.3-.1-.2-.1-.4-.2-.6 0-.1 0-.2-.1-.3s-.1-.2-.2-.4-.1-.4-.1-.6c-.1-.3-.2-.5-.2-.7v-.2c-.1-.2-.1-.5-.1-.7v-.3c-.1-.2-.1-.4-.2-.6 0-.1 0-.3-.1-.4-.1-.3-.2-.7-.3-1v-.3c-.1-.2-.2-.5-.2-.8 0-.1 0-.3-.1-.4 0-.2-.1-.3-.1-.5v-.5c-.1-.4-.3-1-.4-1.4 0-.2 0-.3-.1-.5 0-.1 0-.2-.1-.4 0-.1-.1-.2-.1-.4s0-.4-.1-.6c0-.2-.2-.7-.2-.9s-.1-.4-.1-.7c0-.1 0-.3-.1-.4 0-.2-.1-.4-.1-.7v-.4c0-.1 0-.2-.1-.2s-.1.1-.1.2v.7c1.9-.1 1.9.2 1.9.5zm21.4 30.7c.2.1.3.3.4.7v.1c-.2 0-.5-.3-.6-.5 0 0-.2-.3-.1-.4 0-.1.2 0 .3.1zm-7-5c.2 0 .4.4.5.5s.2.2.2.3c.1.2.1.4.3.5.1.2.3.4.4.5s.2.2.2.3.1.3 0 .3c-.2.1-.5-.4-.7-.5l-.6-.9c-.2-.3-.4-.4-.5-.9.2 0 .1-.1.2-.1zm-.5 1.6c.2 0 .5.4.6.5 0 .1.1.2.1.3s0 .1-.1.1-.2-.1-.2-.1c-.3-.2-.4-.4-.4-.8zm-5.8-5.3c0-.1-.1-.2-.1-.3s0-.2-.1-.3c-.1-.3-.3-.7-.5-1-.1-.1-.1-.4-.1-.6h.1c.1 0 .1.1.1.1s0 .1.1.1c.1.1.2.2.2.4.1.3.2.6.3.8s.2.3.3.5c0 .1.1.2.1.3v.4c-.2 0-.3-.3-.4-.4zm-.9 3.8c.2 0 .4.5.5.6.1.2.3.3.4.5s.1.4.2.6c.1.1.2.2.3.4s.2.4.3.5l.3.6v.3s0 .1-.1.1c-.3 0-.3-.4-.4-.6-.1-.1-.2-.3-.3-.5-.1-.1-.2-.2-.2-.3-.1-.1-.1-.3-.2-.4 0-.1-.1-.1-.2-.2-.1-.2-.3-.4-.4-.6 0-.1 0-.2-.1-.3s-.1-.3-.2-.4c.1-.1.1-.3.1-.3z"/><path class="st1" d="M170.8 95h-2.4c0 .2-.1.4-.1.7v18.1c0 .3 0 .5.1.7h2.6c1.2 0 2.5-.1 3.6-.4 5.1-1.3 6.9-5.4 6.9-9.4 0-1.5-.2-3-.8-4.4-2.2-5.1-7.4-5.3-9.9-5.3zm29.9 0c-.9-.3-2.4-.3-3.8-.3h-1.2v10h1.5c2.8 0 3.3-.2 4-.5 2.1-1 2.9-2.9 2.9-4.5.1-2.6-1.1-4-3.4-4.7zm20.7 12.7h7.3l-3.5-8zm-187.8 0h7.3l-3.5-8zm77.9 0h7.3l-3.4-8zm168.8-13.6c-4.9 0-8.5 3.9-8.5 10 0 5 2.9 10.7 8.9 10.7 2.8 0 5-1.3 6.3-3 1.5-2 2-4.5 2-7 0-5.7-2.9-10.7-8.7-10.7z"/><path class="st0" d="M14.8 114.8c-5.3 0-9-3.5-9-9.9S9.4 94.4 15 94.4c5.8 0 7.9 4.5 7.9 4.5l.1.1v-5.4s-3.5-1.7-8.5-1.7C5.6 92 0 97.5 0 105c0 6 4.7 12.6 14.2 12.6 3.6 0 7.8-1.4 7.8-1.4l1.9-6.6-.2.1c.1-.1-3 5.1-8.9 5.1zm112.6-1l-10.9-22.6-10.8 22.6c-1.6 3.1-3.4 3.2-3.4 3.2l-.2.2h7.4l-.2-.2s-2.1-.4-.8-3.2l1.9-4h9.3l1.9 4c1.3 2.8-.8 3.2-.8 3.2l-.2.2h10.2l-.2-.2c.2-.1-1.7-.1-3.2-3.2zm-15.9-6.1l3.8-8 3.5 8h-7.3zm144.7-.2s1.7.2 1.7 3.2v3c-1.1.5-2.4.8-3.8.8-5.3 0-9-3.5-9-9.8s3.6-10.5 9.2-10.5c5.8 0 7.9 4.5 7.9 4.5l.1.1v-5.3s-3.5-1.7-8.5-1.7c-8.9 0-14.6 5.5-14.6 12.9 0 6 4.6 12.5 14.2 12.5 1.5 0 3-.2 4.4-.5 1.9-.4 3.4-.9 3.4-.9l1.8-.6v-4.5c0-2.9 1.7-3.2 1.7-3.2l.2-.2H256l.2.2zm24.6-16c-7.4 0-14 4.8-14 13.2 0 6.9 4.7 12.8 13.4 12.8 2.9 0 7-.5 10.3-3.9 1.2-1.2 2.1-2.7 2.7-4.3.5-1.5.8-3.1.8-4.7 0-7.4-5.1-13.1-13.2-13.1zm6.2 20.3c-1.3 1.7-3.5 3-6.3 3-6 0-8.9-5.7-8.9-10.7 0-6.1 3.6-10 8.5-10 5.8 0 8.7 5 8.7 10.6 0 2.6-.5 5.1-2 7.1zm29.1-19.4l.2.2s1.7.2 1.7 3.2v13.7l-14.6-17.1h-6.8l.2.2s1.7.2 1.7 3.2v18.1c0 2.9-1.7 3.1-1.7 3.1l-.2.2h6.6l-.2-.2s-1.6-.2-1.6-3.1V97.2l17.3 20.1h2.3V95.7c0-2.9 1.7-3.2 1.7-3.2l.2-.2h-6.8zm-135.6 1.5c-2.8-1.4-6.3-1.5-7.6-1.5h-11.6l.2.2s1.6.2 1.6 3.2v18.1c0 2.9-1.6 3.2-1.6 3.2l-.2.2h10.3c3.3 0 7.6-.1 11.2-3.4 2-1.9 3.8-5.1 3.8-9.3-.1-4.6-2.1-8.7-6.1-10.7zm-6 20.2c-1.1.3-2.5.4-3.6.4h-2.6c0-.2-.1-.4-.1-.7V95.7c0-.3 0-.5.1-.7h2.4c2.5 0 7.8.1 9.9 5.2.6 1.4.8 2.9.8 4.4.1 4.1-1.7 8.2-6.9 9.5zM53 92.4c-2.9 0-3.3-.3-3.3-.3V97l.2-.1s1.3-2.1 4.2-2.1h4.2v19c0 2.9-1.6 3.2-1.6 3.2l-.2.2h8.8l-.2-.2s-1.7-.3-1.7-3.2v-19h4.1c2.9 0 4.3 2.1 4.3 2.1l.2.1v-4.9s-.4.3-3.3.3H53zm46.4 21.4V95.7c0-2.9 1.7-3.1 1.7-3.1l.2-.2h-8.8l.2.2s1.7.2 1.7 3.1v7.1H82.1v-7.1c0-2.9 1.7-3.1 1.7-3.1l.2-.2h-9l.2.2s1.6.2 1.6 3.1v18.1c0 2.9-1.6 3.2-1.6 3.2l-.2.2h8.8l-.2-.2s-1.7-.3-1.7-3.2v-8.6h12.2v8.6c0 2.9-1.7 3.2-1.7 3.2l-.2.2h8.8l-.2-.2c.3 0-1.4-.3-1.4-3.2zm-49.9 0L38.6 91.2l-10.8 22.6c-1.6 3.1-3.4 3.2-3.4 3.2l-.2.2h7.4l-.2-.2s-2.1-.4-.8-3.2l1.9-4h9.3l1.9 4c1.3 2.8-.8 3.2-.8 3.2l-.2.2H53l-.2-.2c.1 0-1.8-.1-3.3-3.2zm-15.9-6.1l3.8-8 3.5 8h-7.3zM145 92.6s2.2.6.5 3.2c-.8 1.2-3.2 4.7-5.5 8.1-2.2-3.4-4.6-6.9-5.4-8.1-1.6-2.6.5-3.2.5-3.2l.2-.2h-10.2l.2.2s1.5.2 3.4 3.2c.8 1.2 4.9 7 7.2 10.4v7.7c0 2.9-1.7 3.2-1.7 3.2l-.2.2h8.8l-.2-.2s-1.6-.3-1.6-3.2v-7.7c2.2-3.4 6.4-9.1 7.2-10.4 1.9-2.9 4.1-3.2 4.1-3.2l.2-.2h-7.8l.3.2zm63.5 20.8l-4-7.5c.2-.1.5-.2.7-.3 2.4-1.3 3.9-3.8 3.9-6.1 0-2-.8-5.5-6.3-6.8-1.2-.3-2.6-.3-4.4-.3h-9.7l.2.2s1.6.2 1.6 3.2v18c0 2.9-1.6 3.1-1.6 3.1l-.2.2h8.8l-.2-.2s-1.7-.2-1.7-3.1v-6.9h3.8l4.5 8.2c.8 1.6 1.8 2.2 3.1 2.2h4.3l-.2-.2c-1-.6-1.2-1.1-2.6-3.7zm-7.2-9.2c-.7.3-1.1.5-4 .5h-1.5v-10h1.2c1.4 0 2.9 0 3.8.3 2.3.6 3.5 2 3.5 4.7-.1 1.6-.9 3.5-3 4.5zm35.9 9.6l-10.9-22.6-10.8 22.6c-1.6 3.1-3.4 3.2-3.4 3.2l-.2.2h7.4l-.2-.2s-2.1-.4-.8-3.2l1.9-4h9.2l1.9 4c1.3 2.8-.8 3.2-.8 3.2l-.2.2h10.2l-.2-.2c.3 0-1.6-.1-3.1-3.2zm-15.8-6.1l3.8-8 3.5 8h-7.3z"/><path class="st1" d="M83.6 156.1v-18.5H65.2v21.1h15.7c1.5 0 2.6-1.2 2.7-2.6zm-6-1.6c-1.1 1.7-2.5 2.6-4.6 2.6h-5.5l-1.6-2.7h.2c.4.6 1.4 1 2.8 1h3.9c1.9 0 2.7-.9 4-3.5l-2.4-9.2H69c-1.8 0-2.3.6-2.4 1h-.2v-2.8H74c-.3-.9-.5-1.6-1.6-1.8v-.2h5v.1c-.6.2-.8.7-.5 1.9h1.9c.5-1.2.4-1.7-.2-1.9v-.1h3.9v.2c-.5.1-.8.4-1.4 1.8h1.6v2.8h-.2c-.1-.4-.6-1-2.4-1h-2.7l1.4 5.3.3-.6c.8-1.6.7-2.2 0-2.4v-.1h3.8v.2c-.7.3-1 1-1.4 1.9-.2.3-1.1 2.3-1.9 4l.6 2.4c.8 2.7 1.2 3.2 2.5 3.7v.1h-2.1c-2-.1-2.6-1.4-3-2.7zm-11.1-1.1v-8.6h7.6v6.2c0 1.4-1.1 2.5-2.5 2.5h-5.1zm80.1-13.7h3.8v2.6h-3.8zm27.9 8.3h-4.6v2.1h4.6zm0 3.9h-4.6v2h4.6z"/><path class="st1" d="M69 151.6h1.8c.4 0 .7-.3.7-.7v-4.4H69v5.1zm136.7-12.5v8.6h4.5v-8.6h-4.5zm2.9 3.2l.4 2.4c.2 1.2.6 1.7.9 1.7v.2h-1.1c-1 0-1.3 0-1.6-1.9l-.4-2.4c-.2-1.2-.6-1.7-.9-1.7v-.2h1.1c1 .1 1.3.1 1.6 1.9zm-55.6 9.8v-1.9h-8.3v3.7h6.4c1.5 0 1.9-.3 1.9-1.8z"/><path class="st0" d="M135.5 153l-2.8 5.2c-1 1.7-1.5 2.5-2.4 2.5v.2h2.3c.6 0 2.2-.1 3.2-1.9l2.8-5.2c1-1.7 1.4-2.5 2.4-2.5v-.2h-2.4c-.5 0-2.1.1-3.1 1.9zm19.1-7l-.2-.2c-.9-.9-1.5-1.4-2.2-1.6h1.5c1.3 0 2.4.6 2.4 1.4h.2v-3.1h-2.7v-2.6h.1c1.3 0 2.4.6 2.4 1.4h.2V138h-2.7v-.6c0-.5.4-1.4 1-1.4v-.2h-5.2v.2c.6 0 1 .9 1 1.4v.6h-3.8v-.6c0-.5.4-1.4 1-1.4v-.2h-5.2v.2c.6 0 1 .9 1 1.4v.6h-2.8v3.2h.2c0-.8 1.1-1.4 2.4-1.4h.2v2.6h-2.8v3.1h.2c0-.8 1.1-1.4 2.4-1.4h1.6c-.7.2-1.3.7-2.2 1.6l-.2.2c-.7.7-1.2 1.9-2.6 1.9v.2h3.2c1 0 1.1 0 2.7-1.7l.2-.2c.6-.7 1.5-1.6 2.6-1.8 1.1.2 2 1.2 2.6 1.8l.2.2c1.7 1.7 1.8 1.7 2.7 1.7h3.2v-.2c-1.4 0-1.9-1.1-2.6-1.8zm-4.2-3.6h-3.8v-2.6h3.8v2.6z"/><path class="st0" d="M154.7 158.7h-9c-.7 0-1-.5-1-1.1v-1.9h8.2c1.7 0 3.4-1.3 3.4-3.3v-4h-16.2v.2c.8 0 1.4.8 1.4 2.4v6.9c0 1.5.9 2.6 2.9 2.6H156l.9-3.2h-.2c-.2 1-.7 1.4-2 1.4zm-10-8.5h8.3v1.9c0 1.5-.4 1.8-1.9 1.8h-6.4v-3.7zm30.6-7h-6.5c-1.3 0-2.4-.6-2.4-1.4h-.2v3.1h11.7v-3.1h-.2c0 .8-1 1.4-2.4 1.4zm-.6-7.2v-.2h-5.2v.2c.5 0 .9.5 1 1.4h-4.6v3.1h.2c0-.8 1.1-1.4 2.4-1.4h7.4c1.3 0 2.4.6 2.4 1.4h.2v-3.1h-4.7c0-.9.4-1.4.9-1.4z"/><path class="st0" d="M168.3 141.9c.3.9 1.1.9 2 .9h1.1v-.1c-.3 0-.7-.3-.9-.8l-.4-1.2c-.3-.9-1-.9-2-.9H167v.1c.3 0 .7.3.9.8l.4 1.2zm7.6-.1l.4-1.2c.2-.6.6-.8.9-.8v-.1H176c-.9 0-1.7 0-2 .9l-.4 1.2c-.2.6-.6.8-.9.8v.1h1.1c1 0 1.8 0 2.1-.9zm-42.6-3.2l1.1 2c1.1 1.9 2.8 1.9 3.4 1.9h2.5v-.2c-1 0-1.5-.7-2.5-2.5l-1.1-2c-1.1-1.8-2.8-1.9-3.4-1.9h-2.5v.2c1 0 1.5.8 2.5 2.5zm0 7l1.1 2c1.1 1.9 2.8 1.9 3.4 1.9h2.5v-.2c-1 0-1.5-.8-2.5-2.5l-1.1-2c-1.1-1.9-2.8-1.9-3.4-1.9h-2.5v.3c1-.1 1.5.7 2.5 2.4zm35.2.5h-2.9v.2c.8 0 1.5.8 1.5 2.4v5c0 4.3-.3 7.2-1.9 7.2v.2h1.9c2.3 0 2.8-2.2 2.9-5.3h4.6v1.7c0 .8 0 1.7-1.4 1.7-.8 0-1.2-.2-1.8-.9h-.2l1.5 2.7c.5.1.8.1 1.5.1s3.2 0 3.2-3.7v-11.3h-8.9zm1.4 1.9h4.5v2.1h-4.5V148zm0 5.8v-1.9h4.5v2.1h-4.5v-.2zm19.9 4.9c-1.4 0-5.5.1-6.1.1-.7 0-1-.5-1-1.1v-.6h4.6c1.3 0 2.4.5 2.4 1.3h.2v-3h-7.2v-1.7h6c1.3 0 2.2.5 2.2 1.3h.2v-3h-8.4v-1.7h6c1.3 0 2.2.5 2.2 1.3h.2v-3.1h-8.4v-1.6h4.5c1.7 0 3.5-1.2 3.5-3.2l-.1-2.5h-6.9v-2h5c1.3 0 2.4.6 2.4 1.4h.2v-3.2h-7.6c0-.5.4-1.4 1-1.4v-.2h-5.2v.2c.6 0 1 .9 1 1.4v3.8h-1.7v3.2h.2c0-.8 1.1-1.4 2.4-1.4h6.1v.3c0 1.2-.1 1.8-1.6 1.8h-6.3v13c0 1.5 1 2.6 2.9 2.6l8.7-.1.9-3.2h-.2c-.3.9-.8 1.3-2.1 1.3zm-83.3-2.6v-.2h-3.1c-.9 0-1.9-.2-3.2 1.6l-1.5 1.9c-.6.8-1.2 1.4-2.4 1.4v.2h3c.9 0 1.9.1 3.2-1.6l1.5-1.9c.7-.8 1.3-1.4 2.5-1.4z"/><path class="st0" d="M111.3 149.5v-.2h-5.2v.2c.6 0 1 .9 1 1.4v6.3c0 .8 0 1.7-1.1 1.7-.7 0-1.2-.2-1.8-.9h-.2l1.5 2.7c.5.1.8.1 1.5.1s3.2 0 3.2-3.7v-6.3c.1-.4.5-1.3 1.1-1.3z"/><path class="st0" d="M99.6 153.6l.2.2c1.6 1.8 2.5 1.6 3.4 1.6h3.2v-.2c-1.2 0-1.9-.7-2.6-1.4l-.2-.2c-1.7-1.8-2.5-1.6-3.4-1.6H97v.2c1.2 0 1.9.7 2.6 1.4zm19.1 5.8l-1.5-1.9c-1.3-1.7-2.3-1.6-3.2-1.6h-3.1v.2c1.2 0 1.8.6 2.4 1.4l1.5 1.9c1.4 1.7 2.3 1.6 3.2 1.6h3v-.2c-1.2 0-1.7-.7-2.3-1.4zm-2-11.1c-1.6-1.2-2.3-1.7-3-2h5.3c1.3 0 2.4.6 2.4 1.4h.2v-3.1h-11.2v-2.1h6.7c1.3 0 2.4.6 2.4 1.4h.2v-3.2h-9.3V139h8.2c1.3 0 2.4.6 2.4 1.4h.2v-3.1h-10.7c0-.5.4-1.4 1-1.4v-.2h-5.2v.2c.6 0 1 .9 1 1.4H96.4v3.1h.1c0-.8 1.1-1.4 2.4-1.4h8.2v1.8h-9.3v3.2h.2c0-.8 1.1-1.4 2.4-1.4h6.7v2.1H95.9v3.1h.1c0-.8 1.1-1.4 2.4-1.4h5.3c-.6.2-1.4.8-3 2l-1.2.9c-2.7 2-2.7 2-3.7 2v.2h3.6c1.3 0 1.8 0 4.5-2.2l1.2-.9c2.4-1.8 2.5-2 3.5-2s1.1.1 3.5 2l1.2.9c2.8 2.1 3.3 2.2 4.5 2.2h3.6v-.2c-1 0-1 0-3.7-2l-1-1zm-5.8 7.1h3.3c.9 0 1.8.2 3.4-1.6l.2-.2c.7-.8 1.4-1.4 2.6-1.4v-.2h-3.3c-.9 0-1.8-.2-3.4 1.6l-.2.2c-.7.8-1.3 1.4-2.6 1.4v.2zM60.6 136c.8 0 1.4 1.6 1.4 3v19c0 1.3-.6 2.4-1.4 2.4v.2h22c2.3 0 4.2-1.9 4.2-4.2v-20.5H60.6v.1zm4.6 1.6h18.3v18.5c0 1.5-1.2 2.6-2.7 2.6H65.2v-21.1z"/><path class="st0" d="M74.1 150.9v-6.2h-7.6v8.6h5.1c1.4.1 2.5-1 2.5-2.4zm-2.6 0c0 .4-.3.7-.7.7H69v-5.1h2.5v4.4z"/><path class="st0" d="M82.6 157c-1.3-.5-1.7-1-2.5-3.7l-.6-2.4c.8-1.7 1.8-3.7 1.9-4 .4-.9.7-1.6 1.4-1.9v-.2H79v.1c.6.2.7.9 0 2.4l-.3.6-1.4-5.3H80c1.8 0 2.3.6 2.4 1h.2v-2.8H81c.6-1.4.9-1.8 1.4-1.8v-.2h-3.9v.1c.6.2.7.7.2 1.9h-1.9c-.3-1.2-.1-1.7.5-1.9v-.1h-5v.2c1.1.2 1.4.9 1.6 1.8h-7.5v2.8h.2c.1-.4.6-1 2.4-1h5.4l2.4 9.2c-1.3 2.6-2.1 3.5-4 3.5h-3.9c-1.4 0-2.3-.4-2.8-1H66l1.6 2.7H73c2 0 3.4-.9 4.6-2.6.4 1.4 1 2.6 2.9 2.6h2.1zm176.2-19.2h-8.3c0-1.2.4-1.9 1-1.9v-.2h-5.2v.2c.6 0 1 .7 1 1.9h-11.9v.2c.8 0 1.4 1.7 1.4 3v2.2h3.2v-3.5h17.1c.8 0 2-.1 1.6 1.4-.2 1-.5 2.2-.5 2.2h3.2s.4-1.5.5-2.4c.7-3.3-2.2-3.1-3.1-3.1z"/><path class="st0" d="M242.5 146.4l2.8-3.2c1.2-1.4 1.7-2 2.8-2v-.2h-2.9c-1.3 0-1.8 0-3.6 2.2l-2.8 3.2c-1.2 1.4-1.7 2-2.8 2v.2h2.9c1.2 0 1.8-.1 3.6-2.2zm16.6 12.3h-8.7v-7.4h7.4c1.3 0 2.4.6 2.4 1.4h.2v-3.1h-23.1v3.1h.2c0-.8 1.1-1.4 2.4-1.4h7.4v7.4h-8.7c-1.3 0-2.4-.6-2.4-1.4h-.2v3.1h25.6v-3.1h-.2c.1.8-1 1.4-2.3 1.4zm-.3-12.3l-2.8-3.2c-1.9-2.2-2.4-2.2-3.6-2.2h-2.9v.2c1.1 0 1.6.6 2.8 2l2.8 3.2c1.9 2.2 2.4 2.2 3.6 2.2h2.9v-.2c-1.1-.1-1.6-.6-2.8-2zm-42.3-6.8h7.4c1.3 0 2.4.6 2.4 1.4h.2v-3.1h-4.7c0-1.2.4-1.9 1-1.9v-.2h-5.2v.2c.6 0 1 .7 1 1.9H214v3.1h.2c-.1-.7 1-1.4 2.3-1.4zm9 19.5c-.9 0-.8-1.4-.8-1.9v-11.8c0-1.1.2-4.2-3.2-4.2H216v12.5c0 4.3-.3 7.2-1.9 7.2v.2h1.9c2.8 0 2.9-3.2 2.9-7.2v-10.7h1.2c1.5 0 1.6 1.2 1.7 2.6V157c0 1.3-.1 4.1 2.5 4.1.8 0 1.4-.3 1.7-.4.5-1.1 1-2.4 1-2.4h-.2c.1 0-.4.8-1.3.8zm-19.6-18.4c.3 0 .7.5.9 1.7l.4 2.4c.3 1.8.7 1.9 1.6 1.9h1.1v-.2c-.3 0-.7-.5-.9-1.7l-.4-2.4c-.3-1.8-.7-1.9-1.6-1.9h-1.1v.2zm2.9 16.1h1.1v-.2c-.3 0-.7-.5-.9-1.7l-.4-2.4c-.3-1.8-.7-1.9-1.6-1.9h-1.1v.2c.3 0 .7.5.9 1.7l.4 2.4c.3 1.8.6 1.9 1.6 1.9z"/><path class="st0" d="M214.6 150.9v-3.1h-1.5v-10.5h-6.3l.1-.1c.7-1.2 1.4-1.7 1.7-1.7v-.2h-2.2c-1 0-1.5 0-2.5 1.8l-1.4 2.3c-.7 1.2-1.3 1.7-1.7 1.7v.2h2v6.5h-1.6v3.1h.2c0-.6.6-1 1.4-1.2v4c0 4.3-.3 7.2-1.9 7.2v.2h1.9c2.8 0 2.9-3.2 2.9-7.2v-4.3h4.5v7.9c0 .9-.1 1.7-1.4 1.7-.8 0-1.2-.2-1.8-.9h-.2l1.5 2.7c.5.1.8.1 1.5.1s3.2 0 3.2-3.7v-7.7c.8.2 1.4.7 1.4 1.2h.2zm-4.4-3.2h-4.5v-8.6h4.5v8.6z"/></svg>