<svg viewBox="0 0 400 99" xmlns="http://www.w3.org/2000/svg"><defs><clipPath id="a"><path d="M496.56 36.109h170.92v42.25H496.56v-42.25z"/></clipPath></defs><g clip-path="url(#a)" transform="matrix(2.3403 0 0 -2.3403 -1162.053 183.5)"><path d="M520.43 36.724c0-.451-.246-.615-.574-.615h-3.078c-1.312 0-1.64.328-1.64 1.805v7.549c0 1.969-.328 2.297-1.888 2.297h-9.395c-1.641 0-1.928-.287-1.928-2.256v-7.631c0-1.436-.41-1.764-1.723-1.764h-3.118c-.41 0-.534.287-.534.738v26.34c0 .451.288.656.534.656h3.077c1.354 0 1.764-.288 1.764-1.847v-7.302c0-2.093.369-2.215 1.928-2.215h9.436c1.477 0 1.847.328 1.847 2.092v21.983c0 1.434.328 1.804 1.64 1.804h3.078c.492 0 .574-.328.574-.738V36.724zm9.39 17.232c0-1.436.082-1.559 1.313-1.559h3.241c2.298 0 3.118.492 4.061 2.338l3.201 6.237c1.026 1.969 1.969 2.872 4.349 2.872h1.845c.288 0 .821-.165.452-.903l-5.334-10.421c-.574-1.149-.902-1.888-.902-2.502 0-.657.328-1.601.985-2.954l5.21-10.134c.246-.534-.164-.82-.574-.82h-1.929c-2.42 0-3.364.738-4.513 2.995l-3.118 6.195c-.984 2.01-1.805 2.502-3.856 2.502h-3.2c-1.108 0-1.231-.205-1.231-1.641v-8.615c0-1.026-.41-1.436-1.477-1.436h-3.405c-.411 0-.493.205-.493.738v35.695c0 .411.165.615.534.615h3.528c.943 0 1.313-.491 1.313-1.394V53.956z" fill="#6f2c91"/><path d="M555.35 60.036c-.724-.573-.966-1.751-.966-2.295 0-.362.151-.453.876-.453h4.65c.724 0 1.237-.06 1.358.091a.71.71 0 01.211.483c0 .936-.271 1.962-.845 2.385-.452.363-1.177.574-2.536.574s-2.174-.302-2.748-.785m-2.687 2.295c1.087.906 2.869 1.479 5.676 1.479 2.718 0 4.258-.483 5.254-1.299.997-.875 1.811-2.687 1.811-7.156 0-.543-.06-.875-.573-.875h-9.511c-.815 0-.966-.12-.966-.513 0-.996.272-1.721.906-2.264.604-.604 1.993-.937 4.076-.937 2.023 0 3.985.303 5.012.454.242.06.483-.151.483-.423-.03-.815-.695-2.083-1.449-2.536-.574-.363-2.446-.725-5.103-.725-2.868 0-4.891.573-5.978 1.54-1.238 1.117-2.023 2.898-2.023 6.401 0 3.713 1.057 5.797 2.385 6.854m24.097-4.892c1.087 0 1.419.212 1.841 1.148l1.541 3.26c.543 1.178 1.057 1.691 2.597 1.691h1.449c.302 0 .573-.181.392-.513l-2.536-5.374c-.453-.936-.604-1.298-.604-1.872 0-.484.272-1.239.725-2.265l2.385-5.163c.181-.362-.06-.574-.362-.574h-1.51c-1.752 0-2.205.484-2.688 1.661l-1.539 3.563c-.423.996-.665 1.268-1.751 1.268h-.936c-.937 0-1.329-.181-1.692-.966l-1.781-3.925c-.483-1.148-1.087-1.601-2.597-1.601h-1.539c-.333 0-.514.243-.333.574l2.688 5.676c.422.936.604 1.45.604 1.963 0 .543-.212 1.148-.604 2.023l-2.325 5.012c-.181.332 0 .513.392.513h1.54c1.721 0 2.114-.423 2.657-1.63l1.329-3.17c.453-1.117.724-1.299 1.721-1.299h.936zm21.64 2.567c-.604.453-1.419.664-3.11.664-1.358 0-2.325-.091-2.838-.181-.453-.06-.604-.242-.604-.966v-7.609c0-.634.151-.846.665-.905.725-.121 1.479-.182 2.475-.182 1.842 0 2.778.302 3.292.876.664.604 1.177 2.052 1.177 4.166 0 2.506-.543 3.714-1.057 4.137m-3.472 3.804c3.835 0 5.496-.332 6.552-1.299 1.057-.935 1.842-3.018 1.842-6.4 0-3.955-1.057-5.918-2.204-6.944-1.057-.937-2.869-1.51-5.737-1.51-1.086 0-2.023.03-2.929.06-.362.03-.604 0-.604-.574V41.86c0-.665-.181-.846-.724-.846h-2.627c-.332 0-.483.091-.483.453v21.044c0 .604.181.816.694.877 1.45.241 4.167.422 6.22.422m12.502-1.027c0 .362.151.513.482.543 1.632.273 3.835.423 5.527.423 1.841 0 3.261-.09 3.895-.423.633-.332 1.026-1.359 1.026-2.657a.413.413 0 00-.423-.422c-.694.06-1.932.151-2.809.151-.905 0-2.022-.031-2.897-.121-.786-.121-.906-.211-.906-1.239V48.26c0-.332-.151-.483-.544-.483h-2.929c-.3 0-.422.12-.422.483v14.523zm17.78-2.747c-.725-.573-.966-1.751-.966-2.295 0-.362.15-.453.875-.453h4.65c.725 0 1.238-.06 1.359.091.12.12.21.302.21.483 0 .936-.27 1.962-.844 2.385-.453.363-1.178.574-2.536.574-1.359 0-2.174-.302-2.748-.785m-2.687 2.295c1.087.906 2.868 1.479 5.676 1.479 2.717 0 4.257-.483 5.254-1.299.997-.875 1.811-2.687 1.811-7.156 0-.543-.06-.875-.573-.875h-9.512c-.815 0-.966-.12-.966-.513 0-.996.272-1.721.906-2.264.604-.604 1.993-.937 4.077-.937 2.022 0 3.985.303 5.012.454.242.06.483-.151.483-.423-.03-.815-.695-2.083-1.45-2.536-.573-.363-2.446-.725-5.102-.725-2.869 0-4.892.573-5.978 1.54-1.24 1.117-2.023 2.898-2.023 6.401 0 3.713 1.057 5.797 2.385 6.854m27.447.936c.664-.453 1.056-1.661 1.086-2.476 0-.303-.301-.484-.512-.453-1.117.121-2.748.332-4.378.332-1.691 0-2.839-.151-3.231-.423-.332-.241-.604-.815-.604-1.329 0-.392.091-.694.301-.845.635-.452 6.764-1.509 7.79-2.204.544-.363.997-1.147.997-2.688 0-2.293-.664-3.683-1.51-4.407-.876-.695-2.536-1.269-5.676-1.269-2.717 0-4.016.272-4.619.665-.604.482-1.148 1.811-1.148 2.446 0 .362.242.543.514.513 1.328-.181 3.049-.423 4.921-.423 1.54 0 2.597.151 3.019.423.393.301.514.694.514 1.268 0 .452-.121.634-.333.755-.845.695-6.824 1.721-7.82 2.385-.513.303-.815 1.48-.815 2.295 0 2.597.695 3.985 1.631 4.77.936.755 2.686 1.178 5.556 1.178 2.234 0 3.743-.151 4.317-.513m16.06 0c.665-.453 1.056-1.661 1.087-2.476 0-.303-.303-.484-.513-.453-1.117.121-2.748.332-4.379.332-1.69 0-2.838-.151-3.23-.423-.332-.241-.604-.815-.604-1.329 0-.392.091-.694.302-.845.634-.452 6.763-1.509 7.79-2.204.543-.363.996-1.147.996-2.688 0-2.293-.665-3.683-1.509-4.407-.876-.695-2.536-1.269-5.677-1.269-2.717 0-4.016.272-4.619.665-.604.482-1.148 1.811-1.148 2.446 0 .362.242.543.513.513 1.33-.181 3.05-.423 4.922-.423 1.54 0 2.597.151 3.02.423.392.301.513.694.513 1.268 0 .452-.121.634-.331.755-.846.695-6.825 1.721-7.821 2.385-.513.303-.816 1.48-.816 2.295 0 2.597.695 3.985 1.63 4.77.938.755 2.688 1.178 5.557 1.178 2.234 0 3.743-.151 4.317-.513" fill="#ed1d24"/></g></svg>