<svg xmlns="http://www.w3.org/2000/svg" width="599.9" height="127.5"><g transform="translate(-26.8 -262.5)"><linearGradient id="a" gradientUnits="userSpaceOnUse" x1="-308.384" y1="699.762" x2="-308.384" y2="706.195" gradientTransform="matrix(118.642 0 0 -18.192 36822.18 13169.339)"><stop offset="0" stop-color="#a80e1f"/><stop offset=".8" stop-color="#d7192c"/></linearGradient><path d="M72.8 322.2c-.6 2.1-.9 4.9-1.2 7H36.5v19.7c3.5-.3 7.7-.2 10.9-.2h15.5v7H36.4v20.9h35c.4 2.8.8 4.9 1.5 7.6H35.6c-2.8 0-6.1-.3-8.8-.4v-61.5c2.8-.1 6.1-.1 8.8-.1zm18.3 0c5.4 8.4 12.7 17.5 19 24.2 6.5-6.9 13.6-15.9 19-24.2h11.6c-8.9 11.9-17.6 22.4-24.8 30.4 7.8 8.7 17.9 21 25.3 31.5h-11.7c-6-9-13-17.7-19.6-24.9-6.6 7.3-13.2 15.2-19.6 24.9H79c9.2-12.5 17.8-23.1 25.1-31.4C97 345 88.5 334 79.4 322.2zm88.1 0c8.4 0 13.8 1.2 18.2 4.3 4.3 3.1 7.1 8.9 7.1 14.3v1.3c0 6.5-2.1 11.7-6 15.1-4.4 3.9-10.9 5.4-19.1 5.4h-18.8v21.6h-9.7v-61.8c2.8-.1 5.7-.1 8.6-.1l19.7-.1zm-18.6 32.7h18.3c5.8 0 9.9-.9 12.4-3.2 2.5-2.3 3.4-5.6 3.4-9.6v-1c0-3.5-1.4-6.6-3.5-8.5-2.6-2.4-7.1-3.4-13-3.4h-17.7zm80.9-32.7c8.3 0 15.1 1 19.4 3.7 4.5 2.8 6.9 7.7 6.9 13.8v1c0 7.5-4 13.6-10.5 17.2 5.3 6.2 12 16.5 16.2 26.3h-10.3c-4-9-9.8-18.7-15.3-24.3h-21.2v24.3h-10.4v-61.8c2.8-.1 6.3-.1 9.2-.1zm-14.7 29.9H252c4.1-2.1 6.2-6.2 6.2-11.5v-.6c0-3.5-1-6.2-3.1-7.9-2.5-2-7-2.9-13.3-2.9h-14.9zm103.3-29.9c-.5 2.1-.9 4.9-1.2 7h-35.2v19.7c3.5-.3 7.8-.2 11-.2h15.4v7h-26.4v20.9h35.1c.4 2.8.8 4.9 1.5 7.6H293c-2.8 0-6.2-.3-8.9-.4v-61.5c2.8-.1 6.2-.1 8.9-.1h37.1zm52.2 8.5c-6.5-1.6-11.9-2.1-17.8-2.1-10.9 0-14.7 4-14.7 8.9 0 4.6 3.7 8 11.6 10.1l5.6 1.5c7.3 1.9 11.6 3.9 14.6 6.3 3.4 2.9 4.6 6.2 4.6 11.4 0 10.7-8.1 18-23.8 18-8.4 0-15.7-1.4-22.8-3.9l1.6-7.2c6.6 2.2 13.6 3.6 21.3 3.6 10 0 14.4-4.1 14.4-10.2 0-2.3-.7-4.7-2-5.9-1.8-1.7-4.9-3.1-11.3-4.9l-5.4-1.5c-13.7-3.8-17.8-9.6-17.8-17.5 0-10.3 9.5-16.4 24-16.4 7.2 0 14.1 1.1 19.2 2.6zm56.8 0c-6.5-1.6-11.9-2.1-17.8-2.1-10.9 0-14.7 4-14.7 8.9 0 4.6 3.7 8 11.6 10.1l5.6 1.5c7.3 1.9 11.6 3.9 14.6 6.3 3.4 2.9 4.6 6.2 4.6 11.4 0 10.7-8.1 18-23.8 18-8.4 0-15.7-1.4-22.8-3.9l1.6-7.2c6.7 2.2 13.6 3.6 21.3 3.6 10 0 14.4-4.1 14.4-10.2 0-2.3-.7-4.7-2-5.9-1.7-1.7-4.9-3.1-11.3-4.9l-5.4-1.5c-13.7-3.8-17.8-9.6-17.8-17.5 0-10.3 9.5-16.4 24-16.4 7.2 0 14.1 1.1 19.1 2.6z" fill="url(#a)"/><path d="M387.4 293.9c-1-1.5-2-2.7-2.9-3.5 3.1-1.1 5.2-3.8 5.2-7 0-1.8-.6-3.8-1.8-5-1.7-1.7-4.2-2.6-8.3-2.6h-16.3c-.4 3.9-.6 8.3-.6 12.3 0 3.9.2 8.3.5 12.3h7.5c-.4-3.3-.5-6-.6-9.3h7.5c.5.6 1.5 1.9 2.4 3.4 1.1 1.7 1.9 3.9 2.9 5.9h8.4c-.9-2-2.1-4-3.9-6.5zm-7.2-6.8h-10.1c0-2 .1-3.9.2-6.6h6.6c2.4 0 3.6.4 4.4 1.2.5.5.7 1.4.7 2.1.2 1.3-.6 2.7-1.8 3.3zm-88.6 1.2c0 4.1-.2 8.1-.5 12h-6.4c-.5-4-.6-8-.6-12 0-4.3.2-8.5.6-12.5h6.5c.2 4 .4 8.3.4 12.5zm112.5 0c0 4.1-.2 8.1-.5 12h-6.4c-.5-4-.6-8-.6-12 0-4.3.2-8.5.6-12.5h6.4c.3 4 .5 8.3.5 12.5zm30.2-1.1c-2.4-4.7-4.5-8-6.4-11.3h-7.7c-1.9 3.3-4.1 6.7-6.4 11.3-2.4 4.7-4.5 9.9-5.9 13.2h7.9c.5-1.3 1.1-3.3 1.7-4.7h13.1c.6 1.3 1.2 3.3 1.7 4.7h7.9c-1.4-4-3.5-8.5-5.9-13.2zm-15.1 3.9c1.6-3.3 3-6.5 4.7-9.6 1.7 2.9 3.1 6.2 4.8 9.6zm-96.5-3.8c1.7-1 2.9-2.9 2.9-5 0-1.9-.6-3.4-1.8-4.4-2.1-1.7-5.9-2-10-2H300c-.4 3.9-.6 8.4-.6 12.3 0 3.9.2 7.6.6 12.3h14.4c5.1 0 8.2-.5 10.1-1.9 1.5-1 2.4-3 2.4-5.3 0-2.8-1.5-4.9-4.2-6zm-15.6-6.8h6.4c2.6 0 3.4.3 4.1 1 .4.4.6 1 .6 1.7 0 1-.5 1.8-1.2 2.5h-10.2c.1-1.9.2-3.2.3-5.2zm11.7 14.3c-.7.6-1.7.9-3.5.9h-8.1c-.2-2-.2-4-.3-5.3h9.2c1.3 0 2 .1 2.6.6.6.5.8 1 .8 1.8 0 .9-.3 1.6-.7 2zm37.5 5.6h-23.2c-.4-3.9-.6-8.4-.6-12.3 0-3.9.2-8.3.5-12.3h23.3c-.2 2-.3 3.3-.3 5.3h-15.8c-.1 1.3-.2 3.3-.2 4.7h14.4v4.7H340c0 1.3.1 3.3.2 5.3H356c.1 1.3.2 3.2.3 4.6z" fill="#d7192c"/><linearGradient id="b" gradientUnits="userSpaceOnUse" x1="-298.226" y1="708.837" x2="-294.723" y2="712.352" gradientTransform="matrix(44.153 0 0 -25.366 13629.726 18379.156)"><stop offset="0" stop-color="#a80e1f"/><stop offset=".5" stop-color="#d7192c"/></linearGradient><path d="M487 359.7c37-37.1 89.9-57.8 124.9-58.7l-12 31.3C585.5 365.6 561 390 457 390z" fill="url(#b)"/><linearGradient id="c" gradientUnits="userSpaceOnUse" x1="-289.518" y1="704.171" x2="-285.998" y2="707.644" gradientTransform="matrix(29.522 0 0 -17.252 9069.072 12469.333)"><stop offset="0" stop-color="#f68400"/><stop offset=".85" stop-color="#fcd100"/></linearGradient><path d="M523.1 323.1l33.8-34.1c16.3-16.2 22.7-26.5 69.8-26.5l-7.7 20.2c-31.9 3.7-63.9 17.5-95.9 40.4z" fill="url(#c)"/></g></svg>