<svg viewBox="0 0 522.78 48.165" xmlns="http://www.w3.org/2000/svg"><g fill="#c00"><path d="M24.432 39h1.847l-.08-2.202"/><path d="M34.971 27.136c-4.923 4.793-12.285 1.732-11.536-4.152.577-4.537 6.14-9.056 10.35-11.51l.003-.052a37.023 37.023 0 01-2.432-2.603c-2.04-2.454-5.61-2.558-7.743.135l-12.111 1.13v.075l12.985.75c2.304.132 3.054 2.219.833 3.903-8.246 6.244-9.716 12.859-7.874 18.099l-.061.03c-.759-1.073-1.324-2.386-1.632-3.762-3.963-2.49-7.177-7.228-7.177-13.076C8.576 7.6 15.506.6 24.078.6s15.503 7 15.503 15.503c0 4.599-2.016 8.507-4.61 11.033M38 41.68h-7.454l2.643-6.885h3.286l-2.09 5.425h4.175L38 41.68zm-11.621 0l-.05-1.356h-2.966L22.27 41.68h-2.71l5.5-6.375c.262-.304.651-.51 1.01-.51h2.936l.657 6.885h-3.284zm-11.24.232c-.882 0-1.65-.092-2.282-.232l.561-1.463c1.502.177 2.79.046 3.294-1.267l1.596-4.155h3.283l-1.757 4.58c-.9 2.341-3.117 2.537-4.694 2.537m32.926-15.709c.158-1.525.117-3.711-.12-5.326h-.04c-.492 2.346-2.012 5.523-5.293 8.116l-.037-.047c2.875-3.07 4.594-6.855 4.86-10.754a23.949 23.949 0 00-2.444-6.055l-.036.015c.583 3.938-.349 9.14-4.172 13.36l-.045-.036c3.292-4.738 4.148-10.509 2.713-15.696C39.066 3.849 32.021.001 24.078.001S9.09 3.85 4.704 9.781c-1.436 5.187-.58 10.958 2.712 15.696l-.042.035c-3.824-4.219-4.754-9.421-4.17-13.36l-.04-.014a23.828 23.828 0 00-2.441 6.055c.264 3.899 1.981 7.684 4.857 10.754l-.036.047C2.262 26.4.743 23.224.25 20.878H.21c-.237 1.615-.278 3.8-.12 5.326.826 2.595 2.596 4.77 4.406 6.337l-.032.05c-2.02-1.257-3.152-2.487-3.924-3.573l-.034.014c2.22 10.812 11.915 19.136 23.572 19.136 11.658 0 21.351-8.324 23.574-19.136l-.035-.014c-.77 1.086-1.903 2.316-3.924 3.575l-.032-.05c1.809-1.568 3.577-3.743 4.405-6.338"/></g><path d="M519.534 28.537c-2.513 6.534-11.18 8.56-20.543 8.56-9.367 0-15.372-2.033-13.967-8.56h11.9c-.313 1.748.745 2.86 4.264 2.86 3.515 0 5.792-1.142 6.439-2.86 1.645-4.265-21.903-.095-18.156-9.862 2.098-5.464 10.361-8.035 19.679-8.035 9.314 0 14.614 2.015 13.491 8.031h-11.667c.187-1.61-.312-2.833-3.815-2.833-3.511 0-5.385 1.245-5.994 2.837-1.69 4.356 22.108.114 18.369 9.862m-208.255 7.811h-11.904l9.585-24.956h11.907m80.408 24.956h-11.891l9.58-24.956h11.892m67.101 24.956h-28.924l9.572-24.956h28.94l-1.84 4.79H468.67l-1.935 5.038H480.9l-1.835 4.782h-14.169l-1.934 5.053h17.024m-238.508 5.293h-9.622l-8.07-14.74-5.661 14.74h-9.604l9.573-24.956h11.18l7.132 13.114 5.026-13.114h9.627m190.583 24.956h-9.63l-8.069-14.74-5.662 14.74h-9.6l9.577-24.956h11.18l7.124 13.114 5.027-13.114h9.634M96.958 28.002c-3.255 8.488-11.29 9.192-17.01 9.192-3.205 0-5.978-.324-8.27-.838l2.034-5.289c5.449.636 10.113.156 11.933-4.6l5.788-15.063h11.903m61.919 7.946c-.704 1.824-2.947 3.157-5.113 3.157h-6.603l2.425-6.317h6.626c2.155 0 3.362 1.344 2.665 3.16m-.853-7.95H145.9l-9.58 24.956h11.9l3.476-9.059h6.614c10.997 0 16.918-2.943 18.841-7.947 1.92-5-1.736-7.95-12.749-7.95m183.191 7.95c-.708 1.824-2.95 3.157-5.11 3.157h-6.61l2.426-6.317h6.625c2.163 0 3.37 1.344 2.67 3.16m-.85-7.95h-18.506l-9.576 24.956h11.899l3.473-9.059h3.594l2.357 9.059h12.993l-3.184-9.965c5.274-1.234 8.404-3.66 9.691-7.04 1.935-5-1.732-7.951-12.74-7.951m26.065 19.66l7.562-19.663h-11.9l-9.568 24.956h27.009l2.033-5.293m-273.608-4.409l6.405-7.985.297 7.985h-6.702zm16.58-15.254h-10.643c-1.295 0-2.708.758-3.652 1.847l-19.945 23.11h9.835l3.957-4.912h10.75l.186 4.912h11.903m53.226-9.703l6.412-7.985.29 7.985h-6.702zm16.583-15.254H192.47c-1.29 0-2.704.758-3.656 1.847l-19.934 23.11h9.828l3.96-4.912h10.746l.183 4.912h11.907m71.881-9.703l6.412-7.985.297 7.985h-6.709zm16.587-15.254h-10.643c-1.302 0-2.707.758-3.66 1.847l-19.94 23.11h9.839l3.948-4.912h10.75l.19 4.912h11.892"/></svg>