<svg viewBox="0 0 584.8 196.06" xmlns="http://www.w3.org/2000/svg"><path d="M239.6 240.47l11.482-24.482 11.484 24.482H239.6zm-21.681 21.833h11.4l5.825-12.609h31.652l5.743 12.609h11.33l-26.668-54.926h-12.242l-27.04 54.926zm80.541-54.923h10.726v54.926H298.46V207.38zm41.93 24.41v-15.492h20.695c8.767 0 13.229 1.278 13.229 7.706 0 6.499-4.462 7.786-13.229 7.786H340.39zm-10.73 30.514h10.728v-21.602h16.998l15.938 21.603h13.221l-16.844-22.361c8.084-.446 15.332-6.042 15.332-16.163 0-13.453-9.365-16.4-22.357-16.4h-33.017v54.927h.001v-.004zm68.9-54.924h10.725l10.584 37.773h.141l10.508-37.773h10.277l10.657 37.693h.145l10.505-37.693h10.503l-16.015 54.926h-10.277l-10.429-38.976h-.151l-10.504 38.976h-10.491L398.56 207.38zm101.78 33.09l11.487-24.482 11.478 24.482H500.34zm-21.68 21.833h11.408l5.816-12.609h31.651l5.74 12.609h11.344l-26.676-54.926h-12.241l-27.042 54.926zm91.8-21.993l-26.815-32.931h13.141l19.034 23.267 18.969-23.267h13.225l-26.826 32.931v21.995h-10.726l-.002-21.995zm89.3-16.24c-1.736-4.915-6.187-9.142-19.263-9.142-7.255 0-14.579 1.812-14.579 6.869 0 2.349 1.359 4.841 12.316 6.202l12.995 1.962c12.312 1.894 19.576 6.646 19.576 15.866 0 12.997-12.396 17.833-27.058 17.833-23.572 0-29.316-11.638-30.603-15.794l10.354-3.248c1.962 4.004 6.038 9.828 20.552 9.828 8.76 0 16.008-2.874 16.008-7.637 0-3.55-4.072-5.891-11.931-6.873l-13.146-1.811c-12.693-1.743-19.801-7.259-19.801-15.648 0-16.465 21.39-16.465 25.614-16.465 23.651 0 27.724 10.957 29.082 14.729l-10.116 3.329zM18.864 44.986h22.379v119.91c0 18.646-13.61 31.159-32.481 31.159H0v-21.064h6.352c7.681 0 12.512-3.521 12.512-11.854V44.977zm0-44.986h22.379v22.383H18.864V0zm59.204 90.624c.435-16.893 10.312-25.887 23.483-25.887 13.17 0 22.821 8.994 23.471 25.887H78.068zm69.335 18.423V90.624c0-28.742-21.292-46.954-45.85-46.954-21.517 0-45.864 14.036-45.864 57.269 0 45.636 26.545 56.611 49.371 56.611 14.91 0 29.178-5.277 40.141-17.999l-16.222-13.815c-6.593 6.795-15.803 10.747-24.36 10.747-15.362 0-26.55-9.221-26.55-27.436h69.334zm17.747-97.856h22.379v33.795h16.225v17.115h-16.225v64.722c0 6.15 2.409 8.342 7.879 8.342h8.346v21.064H192.13c-15.585 0-26.98-9.891-26.98-27.429V62.101h-11.209V44.986h11.209V11.191zm113 75.703c17.55 0 25.434 11.185 25.434 23.471 0 12.294-7.886 23.481-25.434 23.481h-36.431V86.894h36.431zm-60.139 69.335h65.833c23.483 0 43.442-17.336 43.442-44.32 0-15.799-8.334-32.035-25.446-35.995v-.432c18.212-8.121 23.044-20.627 23.044-33.568C324.882 17.338 309.068 0 278.578 0h-60.567v156.23zm57.931-135.16c17.118 0 25.234 10.308 25.234 22.378 0 12.279-8.116 22.386-25.234 22.386h-34.223V21.069h34.223zM340.15 0h22.379v127.48c0 5.046 2.854 7.682 8.357 7.682h7.668v21.064h-9.873c-16.248 0-28.531-7.017-28.531-26.994V-.008zm47.83 44.986h22.382v66.257c0 15.15 9.431 23.922 22.174 23.922 12.501 0 21.924-8.771 21.924-23.922V44.986h22.389v111.24H454.46v-11.855h-.42c-7.029 8.782-17.126 13.175-28.759 13.175-17.541 0-37.301-13.393-37.301-38.617V44.983zm123.28 45.638c.455-16.893 10.311-25.887 23.479-25.887 13.163 0 22.815 8.994 23.49 25.887H511.26zm69.343 18.423V90.624c0-28.742-21.285-46.954-45.864-46.954-21.505 0-45.869 14.036-45.869 57.269 0 45.636 26.561 56.611 49.372 56.611 14.938 0 29.189-5.277 40.163-17.999l-16.244-13.814c-6.584 6.795-15.785 10.748-24.347 10.748-15.357 0-26.554-9.22-26.554-27.437l69.343-.001z" fill="#003876"/></svg>