<svg viewBox="0 0 609.9 119.6" xmlns="http://www.w3.org/2000/svg"><path fill="#00a7e1" d="M500.8 29.5l45.8-24.4-36-.1z"/><path fill="#f15a22" d="M173 91.1h-42.8l7.4-18.6h38.2l8-20.8h-38.4l8.1-20.5h38.2L200.4 9h-72.1l-39 104.5h75zm11.7 0l-8.9 22.5c19.8 2.1 36.7-.2 36.7-.2 11.7-1.1 31.4-4.9 42-30.4l29.6-74h-33.8l-25.9 64s-4.1 13.9-18.9 17.6c-5.3 1.4-14.9.8-20.8.5m-170.8 0L5 113.6c19.8 2.1 36.6-.2 36.6-.2 11.7-1.1 31.4-4.9 42-30.4l29.6-74H79.3L53.4 73s-4.1 13.9-18.9 17.6c-5.1 1.4-14.8.8-20.6.5M356.4 9l-24.8 67c-5.9 15-11.3 15.8-19.5 15.8-9.6 0-7.2-7.9-5.9-12.5L332.7 9h-33.5l-27.3 73.5c-9.5 26.2 12.2 31.7 22.9 31.7h17.5c9.6 0 39.8-2.6 49-27.3l28.8-77.8h-33.7zm173.7 22.4h-30.3l-31 83.1h30.4zm68.4 0c-16.3 0-25.8 9.4-30.8 15.4l6.1-15.4h-30.3l-31 83.1h30.4l14.8-39.4c7.6-17.7 23.8-18.8 26.6-18.8h11.5l9.1-24.9zM437.1 84.6s-4 12.3-21.2 12.3c-2.6 0-6.2-1.5-5.6-6.2.6-5.2 4-7.2 8.3-8.1l20.7-3.9zm-22.9-17c-19.3 2.1-34.8 10.9-36.8 27.4-1 8.2 3 19.5 24.7 19.5 0 0 16.3.6 26.4-6.3l-2.4 6.4h29.7l20.4-55.8 1.1-2.9c2.8-7.6 2.7-24.4-33.1-25.2-15.1-.3-39.8 2.6-54.4 28.1h29.6s4.2-10.9 17.8-10.9c0 0 8.5-.4 9.2 5.2 0 0 1 8.2-11.5 11.3-7.3 1.7-20.7 3.2-20.7 3.2"/></svg>