<svg width="106.46" height="33.746" viewBox="0 0 28.167 8.929" xmlns="http://www.w3.org/2000/svg"><path d="M2.863 3.188h-1.3V6.67c0 .366-.07.628-.209.783-.139.156-.367.234-.683.234-.035 0-.068-.003-.102-.004l-.437 1.06c.193.035.406.053.639.053.41 0 .751-.055 1.021-.163a1.61 1.61 0 00.642-.442 1.6 1.6 0 00.333-.654c.064-.25.096-.517.096-.8z" fill="#38a5e3"/><path d="M24.077 4.178c-.144 0-.287.007-.429.02a7.552 7.552 0 00-.598.083v.001a5.238 5.238 0 00-.113.022c-.095.02-.177.043-.244.07V5.4c.104-.025.34-.135.943-.135a2.734 2.734 0 01.422.023c.109.014.19.03.246.046l.025.007a.603.603 0 01.274.147c.127.128.191.213.191.424v.104a15.992 15.992 0 00-.733-.038c-.24 0-.47.024-.692.071-.223.047-.42.124-.592.23a1.19 1.19 0 00-.413.425 1.281 1.281 0 00-.154.65c0 .266.044.492.133.675.09.183.217.332.384.446.166.114.365.196.596.246.23.05.488.075.771.075.45 0 .834-.027 1.15-.08.317-.052.565-.098.742-.136V5.97c0-.272-.03-.52-.091-.741a1.313 1.313 0 00-.313-.567 1.422 1.422 0 00-.588-.359c-.244-.083-.55-.125-.917-.125m.1 3.66c-.228 0-.407-.038-.537-.113-.13-.075-.196-.21-.196-.405 0-.1.022-.183.067-.25a.462.462 0 01.183-.158c.046-.023.247-.06.515-.06.175 0 .378.016.585.062v.89a2.3 2.3 0 01-.267.025 6.534 6.534 0 01-.35.008M17.63 1.098c-.147-.01-.227-.022-.303-.022-.131 0-.256.005-.377.03-.122.026-.23.068-.324.125a.649.649 0 00-.226.233.702.702 0 00-.084.355c0 .147.024.27.073.37.049.1.118.182.21.244.09.062.2.107.326.134.126.028.246.042.402.042.246 0 .3-.015.474-.044.173-.029.308-.054.405-.075V1.175zm-.336.986A.59.59 0 0117 2.022c-.071-.04-.107-.114-.107-.22a.24.24 0 01.036-.137.252.252 0 01.1-.087.923.923 0 01.282-.033c.096 0 .208.01.32.034v.487c-.036.006-.085.01-.145.014a3.896 3.896 0 01-.192.005" fill="#5eb9e8"/><path d="M10.686 4.298H7.202V5.33h1.867a37.912 37.912 0 00-1.03 1.276c-.18.233-.353.466-.516.696a8.54 8.54 0 00-.421.646v.734h3.626V7.649H8.606c.162-.233.341-.475.539-.725s.394-.49.59-.717c.194-.228.376-.436.546-.626l.405-.45z" fill="#1f5596"/><path d="M12.892 4.178c-.266 0-.526.05-.779.15-.253.1-.477.247-.671.441a2.196 2.196 0 00-.471.73c-.12.292-.18.632-.18 1.021 0 .323.046.623.138.9.092.278.234.519.425.722.192.203.434.362.725.479s.635.175 1.03.175c.155 0 .311-.008.467-.025.156-.017.301-.037.437-.062a3.87 3.87 0 00.372-.088c.11-.033.336-.107.5-.205V7.364c-.434.17-.648.233-.938.302a2.873 2.873 0 01-.671.063c-.356 0-.64-.075-.85-.225a.825.825 0 01-.359-.608h2.818l.016-.23a3.43 3.43 0 00.009-.238c0-.739-.18-1.298-.542-1.68-.361-.38-.853-.57-1.476-.57m-.825 1.867a1.75 1.75 0 01.08-.313.837.837 0 01.154-.27.74.74 0 01.25-.188c.1-.047.219-.07.358-.07.145 0 .266.024.363.074a.754.754 0 01.383.458c.03.1.049.203.054.309z" fill="#273976"/><path d="M17.278 4.178c-.266 0-.526.05-.78.15-.252.1-.476.247-.67.441a2.19 2.19 0 00-.471.73 2.68 2.68 0 00-.18 1.021c0 .323.046.623.138.9.092.278.233.519.425.722.192.203.433.362.725.479a2.76 2.76 0 001.03.175c.156 0 .311-.008.467-.025.156-.017.301-.037.437-.062a3.87 3.87 0 00.372-.088c.11-.033.336-.107.5-.205V7.364c-.434.17-.649.233-.938.302a2.87 2.87 0 01-.671.063c-.356 0-.64-.075-.85-.225a.826.826 0 01-.36-.608h2.819l.016-.23a3.43 3.43 0 00.009-.238c0-.739-.181-1.298-.542-1.68-.362-.38-.853-.57-1.476-.57m-.825 1.867c.017-.106.043-.21.08-.313a.836.836 0 01.153-.27.742.742 0 01.25-.188.84.84 0 01.359-.07c.144 0 .265.024.363.074a.78.78 0 01.242.191c.063.079.11.167.141.267.03.1.048.203.054.309z" fill="#0d89cb"/><path d="M21.37 4.208c-.372 0-.71.035-1.013.104-.303.07-.565.143-.788.221v4.151h1.243v-3.35a2.405 2.405 0 01.525-.067h.035c.49 0 .94.106 1.049.133V4.374a1.356 1.356 0 00-.242-.07 4.67 4.67 0 00-.809-.096" fill="#429bdb"/><path d="M4.925 4.178c-.144 0-.287.007-.429.02a7.552 7.552 0 00-.598.083v.001l-.113.022c-.095.02-.177.043-.244.07V5.4c.104-.025.34-.135.943-.135a2.734 2.734 0 01.422.023c.109.014.19.03.246.046l.025.007a.609.609 0 01.274.147c.127.128.191.213.191.424v.104a15.957 15.957 0 00-.733-.038c-.24 0-.47.024-.692.071-.223.047-.42.124-.592.23-.172.105-.31.247-.413.425s-.154.394-.154.65c0 .266.044.492.133.675.09.183.217.332.384.446.167.114.365.196.596.246.23.05.488.075.771.075.45 0 .834-.027 1.15-.08.317-.052.565-.098.743-.137V5.97c0-.272-.031-.52-.092-.741a1.323 1.323 0 00-.313-.568 1.429 1.429 0 00-.588-.358c-.244-.083-.55-.125-.917-.125m.1 3.659c-.228 0-.407-.037-.537-.112-.13-.075-.196-.21-.196-.405 0-.1.022-.183.067-.25a.464.464 0 01.183-.158c.046-.023.247-.06.515-.06.175 0 .378.016.585.062v.89c-.066.011-.155.02-.266.025a6.557 6.557 0 01-.35.008m21.286-.019l.861.86.862-.86-.862-.861z" fill="#0d89cb"/><path d="M22.92 2.948a.278.278 0 00-.276.276c0 .152.125.277.276.277s.277-.125.277-.277a.278.278 0 00-.277-.276" fill="#1f5596"/><path d="M17.828.808a.278.278 0 00.277-.277.277.277 0 10-.277.277m-.594 0a.278.278 0 00.277-.277.277.277 0 10-.277.277" fill="#5eb9e8"/><path d="M19.681 2.948a.278.278 0 00-.276.276c0 .152.125.277.276.277s.277-.125.277-.277a.278.278 0 00-.277-.276m.595 0a.278.278 0 00-.276.276c0 .152.125.277.276.277s.277-.125.277-.277a.278.278 0 00-.277-.276" fill="#3c7fca"/><path d="M24.93.138h-.577v1.66c0 .29-.105.453-.396.453h-.006v-.42c0-.535-.277-.797-.845-.797h-.137c-.2 0-.425.015-.615.09v.455c.047-.012.151-.06.42-.06h.198c.179 0 .452.048.452.286v.446c0-.003-1.094 0-1.094 0h-.084c-.097 0-.19-.01-.288-.018l-.004.462c.109.01.22.014.334.014h1.71c.598 0 .931-.312.931-.913v-.351z" fill="#1f5596"/><path d="M25.394 2.708h.577V.137h-.577z" fill="#56bbe9"/><path d="M19.678 2.708h-.377c-.041.525-.37.797-.928.797h-.071v-.49h.03c.29 0 .395-.164.395-.453V1.06h.575v1.19h.5c.292 0 .396-.163.396-.452v-.74h.576v.737c0 .6-.333.913-.93.913zm-3.694-.43l-.405.405-.405-.405.405-.405z" fill="#0d89cb"/><path d="M21.65.808a.278.278 0 00.277-.277.277.277 0 10-.277.277m-.264.25v1.501c0 .29-.104.453-.395.453h-.03v.49h.071c.563 0 .893-.277.93-.81V1.058z" fill="#273976"/></svg>