<svg viewBox="0 0 740.74 127.85" xmlns="http://www.w3.org/2000/svg"><path d="M.709.708h128.6v111.81H.709z" fill="none" stroke="#00A583" stroke-miterlimit="3.864" stroke-width="1.417"/><path fill="#00A583" d="M126.33 102.91H79.189L49.28 51.124l23.569-40.812zm-49.542 0H3.689l36.55-63.284z"/><path d="M239.86 32.567c-3.946-3.527-7.997-6.109-12.152-7.747s-8.6-2.457-13.336-2.457c-9.722 0-17.47 2.906-23.246 8.718-5.775 5.812-8.663 13.617-8.663 23.415 0 9.589 2.68 17.196 8.04 22.822 5.359 5.625 12.673 8.438 21.939 8.438 5.277 0 10.18-.882 14.709-2.646 4.529-1.765 8.726-4.411 12.59-7.94l-.126 20.002c-4.152 2.452-8.502 4.282-13.05 5.486-4.547 1.205-9.333 1.808-14.359 1.808-14.535 0-26.464-4.515-35.787-13.546s-13.983-20.503-13.983-34.412c0-13.869 4.669-25.309 14.008-34.318 9.34-9.011 21.376-13.516 36.111-13.516 4.939 0 9.712.519 14.319 1.557s9.152 2.635 13.634 4.793l-.648 19.543zm61.49 36.827c0-5.483-1.382-9.825-4.146-13.023s-6.494-4.798-11.19-4.798c-4.82 0-8.612 1.589-11.376 4.767s-4.146 7.53-4.146 13.055c0 5.526 1.361 9.825 4.083 12.899s6.494 4.611 11.314 4.611c4.904 0 8.707-1.537 11.408-4.611 2.702-3.075 4.053-7.375 4.053-12.9zm16.215 30.648h-17.214l.249-8.779c-2.409 3.858-5.306 6.69-8.69 8.495-3.385 1.805-7.507 2.708-12.366 2.708-8.1 0-14.631-3.009-19.594-9.028s-7.445-13.967-7.445-23.846c0-10.293 2.44-18.314 7.32-24.064 4.88-5.749 11.661-8.623 20.343-8.623 4.526 0 8.502 1.015 11.929 3.045s6.304 5.054 8.629 9.072V38.944h16.839v61.098zm33.885-45.397c1.785-5.935 4.348-10.375 7.689-13.322 3.341-2.946 7.482-4.419 12.423-4.419 1.121 0 2.967.206 5.542.617l1.12.186-2.677 19.095c-1.329-.553-2.667-.967-4.016-1.244s-2.771-.415-4.266-.415c-5.396 0-9.278 1.382-11.644 4.146s-3.549 7.389-3.549 13.875v26.877H334.34V38.944h17.483l-.373 15.701zm51.08 14.749c0 5.526 1.36 9.825 4.08 12.899s6.509 4.611 11.367 4.611 8.647-1.537 11.368-4.611 4.081-7.374 4.081-12.899-1.381-9.876-4.142-13.055c-2.761-3.178-6.571-4.767-11.429-4.767-4.694 0-8.421 1.599-11.183 4.798s-4.142 7.54-4.142 13.024zm-16.178 58.454V38.944h16.985v10.077c2.325-4.061 5.18-7.095 8.563-9.104 3.384-2.009 7.317-3.013 11.801-3.013 8.677 0 15.465 2.874 20.364 8.623 4.899 5.75 7.348 13.771 7.348 24.064 0 9.921-2.47 17.88-7.41 23.878s-11.437 8.997-19.491 8.997c-4.858 0-8.979-.902-12.362-2.708-3.383-1.805-6.279-4.637-8.687-8.498.208 1.536.363 3.207.467 5.012s.156 3.87.156 6.193v25.383h-17.734zM509.99 69.394c0-5.483-1.382-9.825-4.146-13.023s-6.494-4.798-11.19-4.798c-4.82 0-8.612 1.589-11.375 4.767-2.764 3.178-4.146 7.53-4.146 13.055 0 5.526 1.361 9.825 4.083 12.899 2.723 3.074 6.494 4.611 11.315 4.611 4.903 0 8.706-1.537 11.407-4.611s4.052-7.375 4.052-12.9zm16.215 30.648h-17.214l.25-8.779c-2.409 3.858-5.306 6.69-8.69 8.495-3.385 1.805-7.507 2.708-12.367 2.708-8.099 0-14.63-3.009-19.594-9.028-4.963-6.019-7.445-13.967-7.445-23.846 0-10.293 2.44-18.314 7.32-24.064 4.88-5.749 11.661-8.623 20.342-8.623 4.526 0 8.503 1.015 11.93 3.045s6.303 5.054 8.629 9.072V38.944h16.839v61.098zm18.945-.002V52.847h-8.55V38.944h8.55v-20.28h17.73v20.28h8.54v13.903h-8.54v47.193zm82.31-30.646c0-5.483-1.382-9.825-4.146-13.023-2.764-3.199-6.494-4.798-11.19-4.798-4.82 0-8.611 1.589-11.375 4.767s-4.146 7.53-4.146 13.055c0 5.526 1.361 9.825 4.083 12.899s6.494 4.611 11.315 4.611c4.903 0 8.706-1.537 11.408-4.611 2.701-3.075 4.051-7.375 4.051-12.9zm16.216 30.648h-17.214l.249-8.779c-2.409 3.858-5.306 6.69-8.69 8.495-3.385 1.805-7.507 2.708-12.366 2.708-8.099 0-14.631-3.009-19.594-9.028s-7.445-13.967-7.445-23.846c0-10.293 2.44-18.314 7.321-24.064 4.88-5.749 11.661-8.623 20.342-8.623 4.526 0 8.503 1.015 11.929 3.045 3.427 2.03 6.304 5.054 8.629 9.072V38.944h16.839v61.098zm15.874-86.193c0-2.831 1.017-5.265 3.051-7.305 2.034-2.039 4.462-3.059 7.284-3.059 2.864 0 5.323 1.009 7.377 3.028s3.082 4.464 3.082 7.335c0 2.872-1.027 5.328-3.082 7.368-2.055 2.039-4.514 3.059-7.377 3.059-2.822 0-5.25-1.041-7.284-3.122s-3.051-4.516-3.051-7.304zm1.531 86.193V38.944h17.732v61.098h-17.732zm52.879-45.397c1.785-5.935 4.347-10.375 7.689-13.322 3.341-2.946 7.482-4.419 12.423-4.419 1.121 0 2.968.206 5.542.617l1.12.186-2.677 19.095c-1.329-.553-2.668-.967-4.017-1.244s-2.771-.415-4.265-.415c-5.397 0-9.278 1.382-11.644 4.146s-3.549 7.389-3.549 13.875v26.877H696.85V38.944h17.483l-.373 15.701z" clip-rule="evenodd" fill="#808285" fill-rule="evenodd"/></svg>