<svg width="521" height="191.22" clip-rule="evenodd" fill-rule="evenodd" image-rendering="optimizeQuality" shape-rendering="geometricPrecision" text-rendering="geometricPrecision" viewBox="0 0 5427.1 1991.9" xmlns="http://www.w3.org/2000/svg"><linearGradient id="b" x1="7286.3" x2="9402.7" y1="5570.8" y2="3920.9" gradientUnits="userSpaceOnUse"><stop stop-color="#24a859" offset="0"/><stop stop-color="#5bb852" offset=".094"/><stop stop-color="#24a859" offset=".188"/><stop stop-color="#92c84b" offset="1"/></linearGradient><radialGradient id="a" cx="8092.9" cy="4453.7" r="824.08" gradientTransform="matrix(.99971 0 0 -1.0111 2 8957)" gradientUnits="userSpaceOnUse"><stop stop-color="#fec32f" offset="0"/><stop stop-color="#fec32f" offset=".059"/><stop stop-color="#fefefe" offset=".529"/><stop stop-color="#fefefe" offset="1"/></radialGradient><path d="M3950.543 1845.297l39.056-22.907 114.381-98.148 79.318-45.745 67.257-36.359 48.426-43.043 147.96-115.683 119.759-104.921 61.878-94.151s90.075-103.62 91.47-107.608c1.385-4.077 74.024-108.989 74.024-108.989l87.388-158.73 72.64-135.849 29.59-92.82 51.113-117.073 51.107-154.683 34.974-67.257 36.364-71.293 55.11-88.773 94.156-114.332-92.755 6.714-67.266 20.186-154.734 41.692-134.512 56.496-147.96 75.33-152.047 83.396-133.117 106.272L4281.54 614.2l-41.747 79.59-88.773 252.882-53.814 127.828-60.577 189.608-6.68 137.21 12.068 79.402-2.603 48.431 8.446 55.565 8.074 27.83-4.458 38.6s-20.591 26.9-21.526 32.278c-.92 5.373-34.97 80.704-34.97 80.704l-42.117 63.64-23.377 29.6 21.056-12.067z" fill="#fefefe" fill-rule="nonzero"/><path d="M9247.8 4869.2c-45-210.93-283.51-383.81-494.44-387.2h-6.95c-131.43 0-266.25 13.89-466.87 138.2 51.94-13.88 131.44 3.56 179.81 27.74-89.81-13.88-165.93-10.5-221.24 31.13 0 89.82 27.56 183.19 41.43 273.18 114.19 110.63 294 221.26 466.87 245.46 31.12 3.54 62.25 3.54 93.39 3.54 103.68-7.12 210.74-62.44 293.8-134.99 45-41.44 86.44-83.06 114.2-131.44 13.86-20.62 6.94-44.81 0-65.63zm-1096.1-169.31c-34.7 86.24-76.13 228.19-135.02 290.24 24.38-48.36 96.94-269.63 90.01-317.99-72.56 58.87-152.07 110.61-224.82 152.07-107.06 62.24-200.43 103.87-249 114.18-34.51 86.44-72.56 214.32-79.49 335.43-6.95 79.51 10.48 159.02 41.62 224.64 44.81 100.31 75.94 176.43 228.17 124.49 20.64-6.93 41.45-13.69 58.69-20.61 134.81-55.51 238.7-148.69 300.95-359.63 3.38-13.87 10.31-31.13 13.69-51.94 31.13-124.5 10.5-231.74-13.69-342.19-10.5-48.56-20.81-96.94-31.13-148.69zm-90.01-107.25c-34.5-17.44-179.81 17.24-165.93 13.69 27.55-10.31 162.55-69.01 110.61-82.89-41.44-31.12-83.06-62.25-124.5-89.99-110.63-82.87-214.31-162.36-311.06-273.09-141.76 6.86-332.07 107.35-491.06 214.39-152.26 103.7-266.27 221.26-148.69 328.51 224.79 210.94 432.18 221.24 605.06 190.13 96.75-17.24 235.12-83.07 345.75-152.07 86.44-55.31 159.19-110.63 179.81-148.68zm-179.81-228.2c48.39 34.5 107.25 72.58 176.43 117.56v-3.55c-55.3-27.76-69.18-203.98-76.11-262.68 17.24 76.13 65.8 214.29 141.74 252.37-34.48-210.93-31.13-418.41 58.89-612.01 3.38-10.41 10.31-20.81 13.69-34.6-3.38-10.41-6.95-24.17-13.69-38.06-65.82-155.61-159.19-273.08-283.51-352.68-6.94-3.46-10.5-6.93-17.44-6.93-62.24-38.06-134.8-65.63-210.93-86.44-58.69-10.31-100.13-34.6-131.26-17.24-24.38 10.39-41.62 51.84-58.88 93.37-107.26 255.84-20.82 542.8 162.56 739.88 55.32 62.34 114.01 121.04 238.5 211.01zm300.95-338.9c-24.19 141.68-17.44 262.79 0 366.47 6.74 34.51 13.69 65.8 20.62 96.95 6.93-17.26 58.87-217.87 131.44-283.68-58.7 93.56-82.89 210.93-89.82 321.54 24.19 10.5 31.12 3.57 55.31 0 110.63-55.12 231.55-103.68 356.07-113.99 34.67-24.19 62.25-48.39 89.99-76.11 124.32-114.02 200.45-245.44 221.26-387.21 10.31-96.92-3.38-190.22-41.43-307.76-20.81-82.98 0-89.91-179.83-103.8h-10.5c-193.5-13.76-483.94 117.56-549.74 459.94 0 10.31-3.38 20.72-3.38 27.65z" fill="url(#a)" transform="translate(9.464 -1019.8) scale(.49475)"/><path d="M1500.64 698.318l42.766 17.119 49.624-1.717 6.808-17.118c-15.397 0-29.067-3.38-39.333-11.968-10.241-8.53-13.67-18.781-10.241-29.082 6.807-17.118 17.069-27.364 34.177-34.187 13.685-3.429 32.525-6.857 61.591-6.857 18.836 0 34.237 1.716 42.767 5.15 13.7 5.1 17.128 13.68 11.968 27.365-3.37 13.68-11.968 23.93-25.638 32.505-11.968 10.26-29.097 15.401-47.927 17.074l-6.813 18.835 42.767-3.439 35.933-5.1 15.402-6.858 18.795-6.818 8.57-5.15c1.672-1.722 6.832-6.867 11.968-13.68 3.394-3.438 5.16-6.872 6.832-10.26 1.697-1.713 3.429-5.151 5.14-10.297 3.43-13.68 0-25.647-10.24-37.61-13.7-13.69-30.794-18.836-53.063-18.836h-106.03c-22.268 0-46.204 5.15-70.135 15.402-22.264 10.296-35.954 23.94-41.094 39.337-6.828 20.542-1.727 35.944 15.401 46.195zm-205.301 189.89c0 15.402 3.428 25.698 10.3 32.515 8.53 10.296 22.22 15.397 39.333 15.397 10.251 0 18.78-1.717 25.648-5.101 8.53-3.438 11.968-8.589 15.401-15.406l1.717-8.58c0-10.246-8.589-20.546-23.985-34.236-6.818-6.808-10.247-11.958-10.247-18.78 0-5.151 3.43-8.58 10.247-13.68 6.872-5.151 13.73-6.873 18.835-6.873 13.68 0 23.975 1.722 30.798 8.58 6.857 5.1 8.58 15.351 8.58 27.364l1.671 6.822c-1.672 6.858-1.672 11.968-3.394 17.119-1.712 3.428-3.428 8.53-6.857 11.968-15.397 15.401-34.237 32.505-58.163 49.628l-32.515 25.648c-11.968 13.685-22.219 27.375-27.37 44.483-10.246 30.803-5.1 54.734 17.12 71.902 23.93 17.069 66.696 27.365 128.288 27.365 47.926 0 87.259-5.195 118.057-17.168 34.227-11.968 61.596-32.47 82.094-63.264l17.108-47.926 54.789-152.274 15.342-17.06 20.557-8.578h-153.956l20.497 8.579 5.16 13.68-54.734 155.653-18.825 51.355c-3.429 11.968-17.128 22.263-39.338 34.133-22.258 11.972-41.054 17.167-56.495 17.167-27.365 0-46.155-3.433-54.734-13.734-11.968-10.207-11.968-30.704-1.717-61.547l12.012-18.835c3.385-6.818 8.53-10.251 10.252-13.69 3.428-1.712 5.15-5.1 6.822-6.807 6.858-6.873 11.968-10.252 11.968-11.968 5.136-3.439 10.296-10.301 18.83-17.119l20.543-22.268c1.721-5.101 5.1-10.252 6.857-13.68 1.672-3.39 1.672-6.823 3.399-8.54l1.702-10.295 3.438-11.964c3.429-23.936-5.14-41.054-25.648-54.734-18.83-11.958-42.766-18.83-71.842-18.83-8.59 0-18.835 1.722-27.414 5.15-8.54 1.722-17.07 5.15-27.365 11.964-20.498 11.968-34.237 25.647-39.338 41.044l-3.428 15.406zm-648.32 49.624c10.25 0 18.78 0 23.93-3.429 8.535-3.379 13.68-8.54 17.114-17.118l1.717-8.53c0-8.589-3.434-15.401-12.018-22.268-15.347-15.352-23.931-23.931-23.931-29.087 1.717-5.1 5.15-10.251 11.968-13.68 6.867-5.1 11.968-8.53 18.83-8.53 11.968 0 22.22 3.43 27.365 10.252 5.15 6.857 6.862 15.402 6.862 29.082L681.191 982.32l-41.05 112.897-15.401 13.734-25.653 8.53h153.951l-15.401-8.53-8.535-13.734 29.077-75.281 25.653-73.565 6.862-18.79 3.384-6.858 1.717-6.817 1.716-3.439c3.429-10.296 5.15-18.825 6.863-23.975 3.433-22.22-6.863-41.045-30.799-53.018-10.246-5.15-22.263-8.53-35.943-11.958-11.968-3.429-25.653-3.429-42.766-3.429-17.119 0-35.9 5.14-54.735 15.387-20.502 11.968-34.231 25.648-39.332 42.766-1.717 5.15-3.434 8.58-3.434 13.68 0 15.407 1.712 25.697 8.535 34.237 8.579 8.53 22.263 13.68 41.094 13.68zM96.113 1115.719c6.867 1.761 15.402 3.439 25.702 3.439 30.75 0 59.88-5.101 88.961-15.402 32.47-13.64 56.451-30.803 68.415-54.734l6.817-15.397 56.451-160.823c3.434-10.242 15.402-17.06 32.515-23.926 15.402-5.15 29.082-8.53 41.094-8.53 13.64 0 25.653 3.38 32.466 11.958 6.867 6.823 8.583 15.402 5.15 27.37l-29.077 78.71-49.633 136.838-15.401 13.734-27.37 8.53H486.2l-13.685-8.53-1.717-13.734 1.717-8.53v-8.54l70.126-189.939c8.54-22.219 0-41.054-25.692-54.734-22.22-13.68-49.584-20.547-82.1-20.547-34.231 0-70.13 8.589-106.079 23.976-1.672-6.858-8.534-11.958-20.502-15.387-11.973-3.429-25.653-5.15-42.766-5.15-18.835 0-37.66 0-56.446 1.716l-23.98 3.429c29.08 13.68 46.194 23.926 51.344 32.505 6.823 10.251 8.535 29.077 3.434 53.013l-27.414 80.431-25.653 73.525c-5.1 6.857-10.251 13.724-15.402 17.158-3.433 5.1-8.534 8.54-11.968 11.968-10.25 6.867-22.263 10.296-35.899 10.296-5.145 0-10.295-1.762-13.729-6.952-3.384-3.344-3.384-8.54 0-13.64 1.717-5.1 13.73-11.968 32.515-18.83 18.83-6.773 34.227-18.835 42.761-32.47l1.717-6.868c3.429-8.53 1.717-13.68-3.433-18.83-5.101-3.389-13.685-5.11-23.932-5.11-18.83 0-34.231 5.11-51.3 15.406-10.296 6.808-22.264 18.78-32.515 32.465l-8.58 15.402c-5.1 15.401-1.716 30.793 10.297 41.099 6.817 6.862 11.968 10.296 18.78 13.63zm1130.8-133.4c3.434-13.69 10.252-30.798 17.12-54.734 8.529-23.975 13.679-39.377 15.4-44.482l1.713-5.14c1.672-5.161 3.389-10.262 5.1-17.12 3.439-6.822 5.15-13.689 6.873-22.219l17.118-13.68 20.497-6.857H1156.79l20.502 6.858 5.15 13.68-49.623 140.271-27.364 75.33c-1.712 5.102-6.823 10.202-15.397 15.397-5.1 3.335-10.251 5.101-15.401 6.773-5.101 1.757-10.247 3.429-15.397 3.429-18.79 0-34.187-5.1-46.145-13.635-12.018-8.634-15.407-18.83-10.301-30.843l30.798-87.26 13.68-39.327 5.15-11.968 1.717-5.15c0-1.722 0-3.434 1.712-8.54 3.389-22.253-6.857-39.372-30.798-53.052-10.296-5.1-22.26-8.529-35.944-11.958-11.968-1.716-25.653-3.438-42.761-3.438-17.119 0-35.949 5.15-54.734 15.401-20.552 12.008-34.232 25.693-39.333 42.757-1.722 5.16-3.434 10.295-3.434 13.69 0 15.396 1.712 25.692 10.247 34.236 6.862 10.296 20.552 13.68 39.332 13.68 10.296 0 18.835 0 25.698-3.38 6.822-3.438 11.968-8.588 15.357-15.406l1.761-10.29c0-6.818-3.434-15.407-12.013-22.23-15.401-13.68-23.93-23.975-22.214-29.076 0-5.15 3.384-10.296 10.251-13.68 6.863-5.15 11.968-8.589 18.83-8.589 11.969 0 22.22 3.439 27.365 11.968 5.15 5.15 6.823 13.68 6.823 27.414l-27.365 76.944-35.899 99.271c-3.433 11.968-13.69 25.599-30.798 35.895-13.685 10.211-29.081 18.84-49.628 25.702l5.145 8.53h68.414c10.251 0 20.547-1.762 30.798-5.097 11.968-6.867 29.082-17.167 47.912-34.236 13.68 13.64 27.37 23.94 41.05 30.803 11.967 5.1 25.647 8.53 42.765 8.53 35.944 0 65.03-5.097 87.24-13.725 22.263-10.296 39.382-25.608 49.633-47.867l27.365-73.57zm1717.624 114.664c29.027 15.401 66.693 22.17 114.565 22.17 63.263 0 111.224-8.54 145.461-27.37 42.747-22.17 75.217-63.264 95.714-119.715l5.195-12.017 5.101-11.968c8.53-22.22 11.968-41.05 10.296-56.446-1.766-23.941-11.968-42.766-32.564-56.446-25.693-17.109-64.936-25.648-117.979-25.648-47.96 0-85.532 6.823-116.33 18.78-24.025 10.297-49.624 29.082-80.432 58.164l-8.53 22.268-15.396 13.68-25.697 8.589h155.653l-15.396-8.589-8.53-13.68 1.766-3.433 5.101-10.261c8.53-13.68 20.503-27.365 34.227-37.66 18.835-15.353 41.094-22.21 66.702-22.21 35.9 0 58.148 8.53 66.678 25.648 5.195 11.958 3.428 25.648-3.429 44.483l-34.123 99.212-29.126 54.779c-15.396 17.069-47.867 29.037-92.4 34.142h-11.967c-20.498 0-37.666-3.344-52.968-11.973-15.402-6.773-24.025-15.302-25.697-27.265l3.433-12.067c0-3.38 3.439-8.53 8.54-17.07l11.967-18.83c5.101-1.716 11.959-3.428 20.498-6.817 6.857-1.717 11.968-3.438 15.397-3.438 6.867-1.712 13.724-1.712 20.596-1.712 6.773 0 15.397 1.712 22.17 1.712 3.428 1.721 6.857 5.16 12.052 8.539 3.344 5.15 5.1 8.589 3.344 12.017 0 1.673-1.672 3.38-3.344 3.38l-8.624 3.438h-8.53c-3.438 0-6.866 0-11.967-1.717-10.296-1.721-17.168-3.428-20.498-3.428h-10.295c-1.673 0-6.872 1.712-13.735 5.15-6.763 1.712-11.963 5.15-17.059 8.53-5.11 3.438-6.872 8.578-8.539 12.017-1.672 1.667-1.672 5.1 0 8.53l5.1 6.867c8.54 6.867 18.836 10.295 29.038 10.295 8.628 0 15.49 0 22.264-3.428l29.125-10.296c10.296-3.434 18.83-8.534 27.365-15.407 6.867-6.857 11.968-13.68 15.402-20.546 5.1-13.68 1.766-23.941-10.296-35.9-11.968-10.25-34.237-18.835-65.035-22.268l-35.9 1.721c-23.935 0-47.866 6.858-68.364 23.976-15.401 10.251-27.364 23.936-32.564 39.333-10.202 29.086 0 53.017 32.564 70.18zM2344.06 932.68l-15.436-8.53-8.54-11.967 3.44-8.574 1.701-6.818 5.11-10.296c3.43-10.25 15.398-22.219 35.954-32.47 23.927-13.68 44.464-20.547 64.976-20.547 29.126 0 53.052 6.872 71.892 18.83 17.069 11.968 23.926 23.941 20.498 35.904l-17.07 46.195-37.665 104.368v8.579c-3.428 8.534-10.295 13.635-20.497 17.068-6.857 1.762-11.968-3.433-11.968-13.64v-25.697c-1.761-13.68-3.429-22.254-5.185-27.365-3.439-6.872-6.867-13.68-11.968-18.83-5.101-6.823-11.968-11.968-20.503-17.123-10.295-3.39-18.835-6.818-25.697-6.818-5.11 0-18.78-1.722-37.606-1.722-15.411 0-30.808 1.722-47.916 6.818l-13.685 3.439-23.931 8.579c-10.246 3.379-18.835 8.529-25.658 11.968-12.008 8.529-20.547 11.958-22.259 15.396-6.817 5.101-10.246 11.968-13.685 18.79l-10.25 30.799c-6.868 18.825 0 34.227 20.497 47.961 18.835 15.402 47.916 22.17 82.148 22.17 18.78 0 39.328-6.773 59.875-17.07 22.219-11.972 35.899-27.369 42.756-44.537l1.667-13.63c0-13.73-3.369-23.985-8.53-32.515-8.539-8.574-22.209-13.685-41.034-13.685-10.27 0-17.118 1.717-25.657 6.818-6.858 5.15-11.959 10.296-15.402 18.835l-1.712 10.251c0 11.968 5.15 20.597 18.83 27.365 11.968 5.195 18.781 10.296 17.07 17.158 0 3.34-3.4 8.54-10.252 13.64-8.54 5.2-13.69 6.867-18.835 6.867-13.68 0-22.22-3.433-27.37-11.968-3.428-1.766-3.428-5.2-5.1-10.295 0-5.101-1.712-10.207-1.712-17.07l20.497-56.49c1.717-3.389 6.867-6.832 15.397-11.978 13.68-8.53 23.965-13.68 30.798-15.401 6.867-1.663 13.68-3.38 20.542-3.38 6.827 0 13.7 1.717 20.507 6.823l3.429 1.712 8.53 10.246c3.443 3.439 5.16 5.15 8.539 8.59 1.761 5.1 1.761 8.538 3.428 10.25l5.195 37.666c0 6.867 0 11.968-1.766 18.83 0 5.1-3.429 11.963-5.1 20.502l1.666 6.773c1.767 6.952 3.429 12.057 6.872 13.725 3.43 3.428 8.53 6.867 17.153 8.534 8.54 1.761 13.64 1.761 17.07 1.761 3.438 1.678 10.295 1.678 18.834 1.678l17.074-1.678 15.397-3.428c15.401-3.439 29.126-10.296 41.094-17.069 3.428-3.523 8.53-6.867 13.635-13.734l13.734-30.794 54.725-148.845c6.872-23.936 1.672-42.766-18.83-56.456-17.07-13.68-42.767-22.21-75.232-27.36-13.725-3.428-25.693-5.15-41.094-5.15-13.724-1.717-29.037-1.717-44.439-1.717-56.49 0-104.397 12.018-145.446 34.227-29.086 17.118-46.205 32.515-51.306 47.912l-5.15 15.401-15.402 13.69-23.926 8.53h152.265zm372.923 5.15c10.306 0 18.84 0 23.941-3.428 8.54-3.379 13.734-8.54 15.402-17.118l1.667-8.53c0-8.589-3.335-15.401-10.202-22.268-17.163-15.353-23.936-23.931-23.936-29.087 0-5.1 5.101-10.251 10.212-13.68 6.857-5.1 13.724-8.53 18.83-8.53 13.724 0 23.931 3.43 29.126 10.252 3.344 6.857 6.773 15.402 6.773 29.082l-39.328 107.796-37.675 112.897-15.396 13.734-27.271 8.53h152.234l-15.401-8.53-6.867-13.734 27.364-75.281 27.37-73.565 6.867-18.79 1.756-6.858 3.345-6.817 1.756-3.439c3.439-10.296 5.101-18.825 5.101-23.975 5.101-22.22-5.1-41.045-30.793-53.018-10.296-5.15-22.264-8.53-34.227-11.958-11.968-3.429-27.364-3.429-42.766-3.429-18.835 0-37.566 5.14-54.744 15.387-20.498 11.968-32.466 25.648-39.338 42.766-1.657 5.15-1.657 8.58-1.657 13.68-1.771 15.407 1.657 25.697 8.53 34.237 8.529 8.53 22.17 13.68 39.332 13.68zm-971.689-65.03c-1.727 5.161-3.399 10.297-3.399 13.69 0 15.397 1.672 25.693 8.54 34.237 8.588 10.296 22.219 13.68 41.044 13.68 10.296 0 18.83 0 23.976-3.38 8.539-3.438 13.69-8.588 15.406-15.406l1.667-10.29c1.717-6.818-1.667-15.407-10.25-22.23-15.397-13.68-23.927-23.975-23.927-29.076 1.662-5.15 5.1-10.296 11.958-13.68 6.823-5.15 11.968-8.589 17.119-8.589 13.69 0 23.94 3.439 29.086 11.968 5.1 5.15 6.813 13.68 6.813 27.414l-27.36 76.944-35.954 99.272c-3.384 11.968-13.63 25.598-30.748 35.894-13.67 10.211-29.067 18.84-49.624 25.702l5.16 8.53h66.683c11.968 0 22.264-1.762 32.515-5.097 11.968-6.867 29.076-17.167 47.916-34.236 13.68 13.64 27.365 23.94 41.045 30.803 11.968 5.1 25.648 8.53 42.766 8.53 35.949 0 64.986-5.097 87.254-13.725 22.21-10.296 39.328-25.608 49.574-47.867l27.414-73.57c3.429-13.69 10.247-30.798 17.07-54.734 8.578-23.975 13.723-39.377 15.4-44.482l1.717-5.141c1.712-5.16 3.43-10.261 5.15-17.118 3.43-6.823 5.151-13.69 6.858-22.22l17.069-13.68 20.547-6.857h-153.991l20.547 6.858 5.15 13.68-49.623 140.271-27.37 75.33c-1.717 5.102-6.817 10.202-17.118 15.397-3.429 3.335-8.53 5.101-13.68 6.773-5.15 1.757-10.246 3.429-15.397 3.429-18.79 0-34.187-5.1-46.204-13.635-11.963-8.634-15.352-18.83-11.963-30.843l32.515-87.26 13.68-39.327 5.15-11.968 1.717-5.15c0-1.722 0-3.434 1.662-8.54 3.439-22.253-6.813-39.372-30.749-53.052-12.012-5.1-22.263-8.529-35.943-11.958-11.968-1.716-25.648-3.438-42.766-3.438s-35.944 5.15-54.735 15.401c-20.537 12.008-34.226 25.693-39.367 42.757zm297.681 591.92c-1.717 0-5.15-1.668-6.872-1.668-10.246-3.428-18.785-5.1-27.364-5.1-15.402 0-27.37 3.428-39.338 11.968-13.68 8.534-27.36 23.926-42.756 47.867h-1.722l11.968-54.735h-95.779l-56.456 275.418h102.646l20.503-102.601c6.867-32.555 17.118-56.491 29.086-70.136 11.963-13.725 27.36-22.254 47.916-22.254 6.863 0 13.68 1.672 20.498 3.429l30.798-65.03 6.872-17.163zm162.526 249.824l-5.15 23.926H2303l56.446-275.418H2256.8l-51.295 251.492zm728.766-136.838h-99.256c5.185-20.597 13.724-34.227 24.02-44.523 8.53-6.872 17.074-11.968 25.603-13.64 3.429 0 5.1-1.756 8.54-1.756 12.057 0 22.258 5.096 29.125 11.963 8.53 6.862 13.64 17.163 13.64 30.803 0 6.852-1.672 11.958-1.672 17.153zm-39.332-119.76h-10.296c-18.83 0-34.227 3.43-49.623 6.774-17.074 5.2-34.143 15.401-52.978 29.126-17.158 15.401-30.798 34.236-41.094 54.734-10.296 22.269-15.397 44.443-15.397 70.136 0 34.221 10.296 65.02 32.466 88.96 22.268 23.932 59.929 37.666 112.996 37.666 5.1 0 8.53-1.766 13.635-1.766 30.798 0 54.734-6.773 75.33-17.07 23.932-11.957 44.439-30.797 58.07-58.167l-97.501-10.296c-10.202 13.735-22.17 20.498-35.899 24.035-3.429 0-6.867 1.663-11.968 1.663-29.027 0-44.429-18.83-47.867-56.496h203.53c5.195-25.598 6.872-44.433 6.872-54.734 0-32.47-10.296-59.825-32.47-82.094-22.269-22.264-58.163-32.465-107.796-32.465zm338.666 107.787c-23.906-3.429-39.308-6.857-44.409-11.963-6.867-3.434-8.54-8.624-8.54-15.49 0-6.774 3.345-11.969 8.54-17.07 6.858-3.428 17.07-6.867 29.012-6.867 20.508 0 32.47 8.535 35.91 25.693l95.827-10.296c-5.11-27.36-17.068-46.2-35.904-56.402-18.83-10.295-46.194-15.396-82.093-15.396-30.789 0-58.148 3.428-78.74 11.968-22.17 10.201-37.571 22.17-47.867 37.566-10.216 15.397-15.406 30.798-15.406 46.289 0 20.502 6.867 35.904 20.507 49.544 13.73 11.958 41.094 22.254 80.422 29.126 17.167 1.667 29.116 5.096 35.889 8.53 5.195 1.667 8.623 8.539 8.623 17.068 0 8.624-3.428 15.402-11.968 20.498-10.296 5.2-18.81 8.633-30.778 8.633-23.941 0-37.665-11.968-42.766-34.236l-101.028 8.539c3.438 30.798 15.401 51.296 34.236 63.264 20.592 13.724 51.39 20.596 94.156 20.596 51.281 0 90.614-10.296 116.311-30.793 25.598-20.513 37.571-44.533 37.571-71.902 0-20.498-6.773-37.572-18.74-49.624-13.725-11.973-39.422-20.512-78.76-27.285zm-617.547-107.786c-41.094 0-75.33 15.396-102.695 47.867l-1.672-1.673 10.295-41.094h-95.828l-58.168 275.418h102.607l25.692-119.754c5.1-27.37 13.64-47.867 25.697-63.269 10.212-13.74 23.941-20.512 39.333-20.512 13.64 0 20.497 6.773 20.497 22.17 0 3.443-3.428 22.268-10.295 53.061l-25.599 128.294h100.93l32.47-150.562c5.195-32.46 8.53-54.725 8.53-65.025 0-18.741-5.102-34.232-17.07-46.205-11.958-13.625-30.793-18.731-54.724-18.731zm-920.383-99.257l-15.402 71.892h102.65l15.402-71.892zm583.36 0l-15.402 71.892h102.65l15.397-71.892h-102.65zm-70.18 0h-100.885l-71.893 343.88-6.817 35.9h102.65l73.565-355.854zM903.6 1642.643c-8.535 17.168-20.552 27.37-35.904 29.136-3.429 1.667-5.15 1.667-8.584 1.667-11.968 0-23.931-5.101-30.798-15.402-8.535-10.201-13.68-22.17-13.68-37.571 0-20.596 5.145-41.094 17.113-61.591 8.535-17.168 20.552-27.365 35.949-29.131 3.384-1.663 8.534-1.663 11.968-1.663 10.246 0 20.497 3.429 29.076 10.197 8.54 8.629 11.968 20.597 11.968 37.665 0 25.698-5.15 47.867-17.113 66.698zm-20.552-184.695h-15.352c-27.414 1.672-53.057 8.53-75.282 20.502-23.975 15.392-44.483 35.9-56.446 61.591-13.729 25.693-20.551 52.978-20.551 80.427 0 35.909 10.25 64.936 32.514 88.877 22.22 24.025 58.163 35.993 104.363 35.993 5.1 0 10.251-1.766 15.397-1.766 30.748-1.668 56.446-8.53 76.948-22.264 25.653-15.308 44.483-35.904 56.451-61.502 13.68-27.365 18.83-53.062 18.83-78.76 0-32.47-10.25-61.507-32.515-87.204-22.214-23.926-56.44-35.9-104.357-35.9zm733.912 280.523h102.64l56.447-275.418h-102.651l-56.431 275.418zm-1079.495-66.692c-6.818 5.1-15.392 10.3-22.214 11.963-5.15 1.667-10.296 3.433-17.119 3.433-8.579 0-15.401-3.433-22.214-8.633-5.15-3.33-8.584-11.874-8.584-20.498 0-8.53 5.15-15.401 11.973-22.17 5.145-3.428 17.113-6.857 35.944-12.057 11.968-1.667 29.081-5.095 47.867-8.539-5.101 25.697-13.685 44.533-25.653 56.5zm109.508-195.095c-17.119-11.958-53.067-18.731-106.075-18.731h-25.652c-32.515 1.672-58.163 8.529-75.282 20.502-22.263 13.64-35.948 34.232-42.766 59.83l95.784 10.296c5.15-11.968 10.296-20.498 18.835-23.936 0 0 1.712-1.761 3.434-1.761 6.822-1.668 15.401-3.34 23.93-3.34 11.969 0 20.553 1.672 27.365 5.1 6.862 5.107 10.247 10.297 10.247 17.07 0 5.2-1.668 10.3-3.385 18.84-8.579 3.428-29.081 6.852-58.162 10.296-34.232 3.428-59.88 6.857-78.715 11.958-20.498 3.433-35.944 11.968-49.628 25.697-11.964 11.968-18.786 30.71-18.786 54.73 0 22.169 6.822 41.009 22.22 56.41 13.679 17.154 37.66 25.693 71.842 25.693 18.835 0 35.948-5.1 53.067-11.968 11.968-6.867 25.652-15.402 35.899-27.37 0 10.207 1.712 20.503 3.433 32.47h100.924c-5.15-13.724-6.817-25.692-6.817-37.664 0-15.402 3.389-41 11.968-78.66 10.25-39.338 13.684-68.37 13.684-85.533 0-25.693-8.583-46.195-27.364-59.934zm732.13 118.097l37.666-82.094 25.658-54.734 11.963 136.828zm18.836-236.085l-207.008 379.78h121.476l29.081-63.264h119.764l5.14 63.264h111.186l-58.163-379.78zm-1185.52 0H97.801l-76.993 379.78h295.97l18.835-92.39H152.536z" fill="#3660ab"/><path d="M4585.06 1421.89c-13.724 23.931-34.237 44.523-56.406 65.02-41.094 35.904-94.156 63.363-145.452 66.796-15.396 0-30.798 0-46.195-1.76-85.527-11.969-174.498-66.698-230.994-121.427-6.857-44.538-20.497-90.733-20.497-135.166 27.365-20.597 65.03-22.259 109.458-15.397-23.926-11.958-63.263-20.596-88.96-13.724 99.261-61.596 165.963-68.37 230.993-68.37h3.434c104.358 1.673 222.355 87.195 244.624 191.563 3.434 10.295 6.872 22.268 0 32.47zm-520.032 126.622c-1.766 10.295-5.194 18.83-6.867 25.697-30.798 104.263-82.094 150.468-148.796 177.922-8.623 3.34-18.83 6.773-29.126 10.212-75.236 25.692-90.633-11.968-112.902-61.607-15.396-32.47-23.936-71.793-20.497-111.13 3.334-59.93 22.17-123.198 39.328-165.964 23.94-5.101 70.135-25.698 123.197-56.49 35.9-20.503 75.237-46.107 111.131-75.238 3.438 23.941-32.47 133.395-44.429 157.336 29.032-30.71 49.53-100.93 66.693-143.695 5.1 25.697 10.295 49.628 15.401 73.564 11.968 54.734 22.264 107.786 6.867 169.388zm-326.822-147.12c-85.522 15.397-188.123 10.296-299.348-94.071-58.163-53.067-1.672-111.225 73.564-162.525 78.66-53.057 172.821-102.69 242.952-106.07 47.872 54.69 99.173 94.097 153.996 135.097 20.498 13.739 41 29.135 61.507 44.537 25.698 6.773-41.01 35.899-54.734 41-6.773 1.766 65.03-15.402 82.188-6.763-10.3 18.73-46.195 46.194-88.96 73.564-54.82 34.128-123.199 66.692-171.16 75.237zm-27.36-732.23c8.53-20.497 17.159-41.044 29.127-46.15 15.396-8.574 35.899 3.385 65.03 8.54 37.571 10.251 73.564 23.926 104.357 42.766 3.429 0 5.101 1.712 8.53 3.429 61.507 39.337 107.702 97.5 140.266 174.483 3.429 6.823 5.101 13.69 6.867 18.835-1.766 6.823-5.194 11.958-6.867 17.07-44.522 95.832-46.194 198.478-29.126 302.826-37.57-18.83-61.606-87.28-70.135-124.85 3.428 29.031 10.295 116.226 37.665 129.956v1.766c-34.237-22.264-63.264-41.094-87.205-58.163-61.591-44.523-90.727-73.555-118.092-104.397-90.633-97.51-133.399-239.489-80.426-366.11zm620.961 61.607h5.195c88.961 6.857 78.666 10.246 88.961 51.34 18.826 58.168 25.698 104.313 20.498 152.23-10.296 70.136-47.867 135.21-109.464 191.602-13.734 13.734-27.364 25.702-44.532 37.665-61.507 5.1-121.427 29.037-176.16 56.401-11.969 1.762-15.402 5.101-27.37 0 3.438-54.734 15.401-112.887 44.438-159.081-35.899 32.47-61.591 131.717-65.03 140.251-3.334-15.302-6.773-30.798-10.202-47.867-8.529-51.286-11.968-111.22 0-181.3 0-3.44 1.673-8.58 1.673-13.69 32.564-169.383 176.26-234.413 271.993-227.546zm261.778 656.979c-39.328-111.225-136.828-207.058-256.588-222.455-11.968-1.672-25.692-3.429-37.66-1.672 13.724-10.296 25.692-20.503 37.66-30.798 66.698-58.153 107.792-128.334 114.659-203.615 5.1-42.766-5.195-85.532-18.835-135.111-6.858-17.118-1.757-41.044-18.83-54.734-15.397-10.296-53.063-13.68-75.331-15.446h-1.668c-82.098-8.53-176.254 3.428-266.887 142.023-3.43-8.584-8.54-18.836-11.968-27.37-30.799-68.459-75.331-121.466-131.728-159.092-5.1-3.428-11.968-6.857-17.069-10.296-32.559-20.497-68.463-34.177-107.796-42.766-23.93-6.812-42.766-13.68-58.162-11.958-17.158 3.429-27.365 22.22-37.656 44.478-51.305 141.984-34.237 258.304 46.195 374.64-59.934 5.15-164.198 51.295-241.196 106.114-53.062 35.904-94.156 75.236-99.261 114.564v17.069c1.761 15.496 10.295 30.892 25.697 46.2 123.099 109.567 218.927 131.732 345.553 107.79-20.497 42.767-34.237 95.834-41.094 150.563-5.1 46.2 6.862 94.067 20.597 130.055 17.069 49.54 42.766 80.432 109.458 66.707 13.64-3.438 25.697-6.867 37.665-11.968 70.037-25.697 117.998-80.431 148.797-142.023 30.793-61.606 44.438-128.303 46.194-177.937 71.897 46.195 136.833 104.373 232.661 116.331 15.402 1.766 32.47 1.766 49.629 1.766 37.571-1.766 87.204-23.94 129.97-56.49 32.565-23.936 65.03-54.734 75.331-85.533 3.429-10.295 3.429-20.507 1.663-29.036zM34.513 1273.089H3404.6v-23.936H34.513z" fill="#ea3639"/><path d="M8366.5 5208.4c3.57 0-3.38 10.5 3.57 10.5 20.62-45 44.98-89.99 72.56-135-27.57-17.26-55.31-38.08-86.44-55.31-24.19-20.62-51.94-38.06-79.51-55.32 0 13.89-3.55 31.13-3.55 48.38 27.74 55.32 62.24 107.26 83.06 162.57 3.57 6.93 6.93 13.86 10.31 24.17zm169.5-69.18c-27.56 3.56-51.94 6.93-76.13 10.51-31.12 65.63-65.63 127.87-96.74 190.12 110.63 17.24 183.19 3.37 276.57-51.94-10.31 6.93-17.26 20.81-24.19 34.69-93.37 51.74-162.56 72.56-259.31 89.8-17.24 3.57-34.5 6.95-55.31 10.5-93.37 117.38-193.69 228.2-307.69 321.57 65.63-79.49 134.8-162.56 204-242.06l-72.75 62.25c55.31-76.13 183.36-207.57 183.36-311.26-10.48-31.13-31.12-76.13-51.94-127.88-24.17 114-76.11 238.5-159 338.81-13.86 34.5-31.13 69.2-48.37 100.32-86.44 155.43-207.57 273.17-325.13 321.56h-3.38v58.69c0 55.32 0 93.37 41.43 100.3h3.38l3.57-3.38c41.43-117.74 200.63-217.87 397.69-345.74 51.74-34.69 107.06-69.2 165.93-107.25 6.95-6.94 17.26-10.31 24.19-17.26 127.87-86.44 255.93-186.74 387.19-297.37 27.74-20.81 51.94-41.63 79.68-62.25-27.74 0-51.94 0-79.68-3.57-75.94-10.31-145.13-38.06-207.38-69.18zm2368.5-3035.8c-31.12 6.93-62.26 10.31-93.19 13.78-79.69 13.86-166.12 27.65-307.87 69.18-58.87 17.26-120.94 34.6-183.19 51.84-235.12 62.27-487.68 131.44-774.57 276.66-280.13 141.76-567 338.83-802.32 601.69-17.24 20.72-34.5 41.44-51.74 62.16-100.32 124.51-190.31 259.31-262.89 404.64 55.31-34.6 114.2-51.96 169.5-58.89 0-55.31 6.95-134.8 38.07-134.8-13.88 44.98-17.26 89.89-13.88 131.42 41.43-3.46 83.06-3.46 120.94 0 3.57 3.38 3.57 3.38 6.93 3.38 45 3.57 121.13 10.41 152.26 31.22 34.5 27.67 24.19 76.03 38.06 110.63 27.57 100.21 48.38 186.65 38.07 273.09 0 13.88-3.57 24.29-3.57 34.6 24.19-55.32 41.45-117.57 41.45-183.19-20.64-103.77-65.63-169.5-103.7-311.25-38.06-145.21-20.62-314.62 51.93-484.04-24.19 100.22-38.05 186.67-13.86 290.44 24.18 103.7 93.37 238.5 117.57 314.63 24.17 79.51 17.24 93.37 31.12 141.74 41.44-79.49 107.06-176.33 127.87-259.3 10.5-72.65-6.93-148.69-6.93-193.59-3.38-41.54-20.64-110.73-31.14-207.48-10.31-141.83-6.74-300.84 69.2-314.7-17.24 38.06-31.13 38.06-41.43 114.09-6.95 72.65 79.49 342.38 103.68 511.78 48.38-79.49 103.7-159.1 155.63-235.13-17.26-183.28-62.27-452.98 114.19-577.4-48.39 76.03-65.82 117.56-72.75 197.07 0 31.12-3.38 252.36 27.75 286.96 62.25-65.72 124.51-127.87 190.12-186.66 6.95-10.41 20.81-27.65 24.19-34.58 17.43-155.63 3.57-297.39 128.06-397.69-20.81 31.13-51.94 62.25-58.87 103.78-6.95 41.43-10.31 193.6 20.81 221.24 65.63-62.24 134.8-127.97 204-186.74 13.87-55.31 20.82-103.68 41.43-148.59 24.19-55.41 45.01-83.06 103.68-103.78-65.63 51.84-100.11 107.16-55.31 193.67 96.77-72.65 179.83-127.95 255.96-179.81 6.93-44.98 27.55-83.06 72.56-100.3-10.31 10.41-24.19 24.17-31.12 41.43-3.38 10.41-3.38 24.29-3.38 38.06 45-27.65 89.82-48.36 141.75-69.08-55.31 34.58-107.25 69.08-162.57 100.21-51.94 38.07-100.32 79.6-155.62 121.04 34.68 0 107.24 3.47 134.81-3.48 31.12-3.46 48.39-17.24 72.74-24.17-31.12 20.72-41.62 51.84-93.37 58.77-48.56 6.93-110.63 6.93-165.95 10.41-79.68 55.32-148.69 127.87-210.93 200.53 82.87 24.19 210.93 6.95 266.25-13.86 58.69-20.74 58.69-27.67 89.82-55.32-58.7 124.49-314.63 124.49-414.96 124.49-31.12 38.07-193.67 159.09-193.67 207.48 148.69 10.41 318.19 13.86 459.93-24.19-155.63 82.97-352.68 86.44-529.13 96.75-62.05 31.22-145.13 176.43-186.57 231.74 152.07 0 356.07 17.26 453.01 13.79 100.13-3.48 93.2-27.65 141.76-37.98-58.89 72.58-224.81 76.06-300.94 79.51-65.63 0-138.19-3.46-197.07 6.85-58.67 10.41-107.25 27.74-162.55 38.05-58.69 89.92-117.39 179.81-176.26 273.2 69.18-6.95 124.5-13.78 207.39-17.26 79.68 0 166.12 10.31 235.12 6.84 93.37 0 176.43-13.77 290.61-62.15-114.18 89.91-238.67 124.42-384 131.34-68.99 6.94-304.11-24.19-414.75 48.37-34.69 72.65-72.74 145.31-110.82 217.88 69.2 3.46 134.82 10.41 204 17.24 135.01 24.29 255.93 48.48 376.87 20.81 34.7-10.41 69.2-20.81 103.88-41.53 0 34.6-148.69 89.91-183.37 93.37-75.94 13.81-155.44 3.48-231.57 6.95-114.19 3.48-224.81 6.85-338.8 13.78-38.08 83.07-79.7 165.94-121.14 252.37 162.57 24.36 428.81 69.18 525.57 55.3 93.37-13.68 90.01-48.37 107.25-30.94-34.7 24-72.56 37.89-114.19 51.75-69.01 27.57-127.87 20.81-207.38 20.81-114.19-3.56-224.81-13.87-335.44-20.81-3.36 3.37-6.94 10.3-10.31 17.25 145.13 48.37 266.24 152.26 349.13 283.5 13.86-3.36 27.74-6.74 41.63-10.31-6.95 10.31-20.81 17.45-34.7 24.19 17.26 27.75 31.13 55.32 45 83.06 24.19-31.13 51.75-62.25 79.49-93.37 100.32-121.14 193.69-249.01 283.51-373.5 121.13-169.31 217.89-324.93 307.7-501.37 86.61-176.24 162.55-363 242.05-584.34 96.94-276.56 186.75-518.63 300.95-712.22 113.99-193.67 252.37-342.36 446.06-442.68l-3.56-10.31zm-2154.2 2313.2c24.19-44.82 48.57-93.35 69.2-138.17-20.62 24.19-48.39 48.36-76.13 72.54-20.62 20.81-48.37 41.44-72.56 62.25 24.19-3.56 48.36 0 72.56 3.38h6.93z" fill="url(#b)" transform="translate(9.464 -1019.8) scale(.49475)"/></svg>