<svg viewBox="0 0 208.5 35.8" xmlns="http://www.w3.org/2000/svg"><style>.st0{fill:#0054a5}</style><path class="st0" d="M62.6 8.8C44.2 5.7 35 27.6 20.1 29.5 9.3 30.9 1.4 23.1 0 17.4c-.8 11 9.2 18.9 20.3 18.4C39 35 48.9 12.3 62.6 8.8m-14.3-.3c-14-1.9-17.4 8.5-28.7 12.2-7.3 2.4-12.9.6-17-3.9 1.9 6 9.1 10.2 15.4 9.7 12.5-1 19.6-14.8 30.3-18"/><path d="M18.5 18c2.7-.9 4.6-2 6.2-3.1 1.3-.9 5.9-4.1 8.2-5.6C31 3.9 25.7 0 19.6 0 11.8 0 5.4 6.3 5.4 14.2c0 .7 0 1.3.1 1.9 3.4 2.4 7.9 3.6 13 1.9" fill="#ffca05"/><path class="st0" d="M61.2 16.2h5.3l-.4 2h.1c.7-.7 1.6-1.2 2.7-1.7 1.1-.4 2.3-.7 3.7-.7.9 0 1.6.1 2.3.3.7.2 1.2.5 1.7 1 .4.4.7 1 .9 1.6.2.6.2 1.4 0 2.3l-1.9 9.2h-5.4l1.5-7.5c.4-1.8-.4-2.6-2.3-2.6-1 0-1.8.3-2.6.8s-1.2 1.4-1.5 2.5l-1.4 6.8h-5.4l2.7-14zm28.1 3c-1.2 0-2.3.3-3.1 1-.9.6-1.4 1.6-1.7 3-.3 1.3-.1 2.3.5 3 .6.6 1.5 1 2.7 1 1.2 0 2.3-.3 3.1-1 .9-.6 1.4-1.6 1.7-3 .3-1.3.1-2.3-.5-3-.6-.7-1.5-1-2.7-1m-10.6 3.9c.5-2.5 1.7-4.4 3.7-5.6 1.9-1.3 4.5-1.9 7.7-1.9s5.5.6 6.9 1.9c1.4 1.3 1.8 3.1 1.3 5.6-.5 2.5-1.7 4.4-3.7 5.6-1.9 1.3-4.5 1.9-7.7 1.9s-5.5-.6-6.9-1.9c-1.3-1.2-1.8-3.1-1.3-5.6m22.9-6.9h5.4l-1.5 7.2c-.2 1.2-.2 2 .2 2.5s1 .7 1.9.7c1 0 1.8-.3 2.6-.8s1.2-1.4 1.5-2.5l1.5-7h5.4l-2.9 13.9h-5.3l.4-1.8h-.1c-.7.7-1.6 1.2-2.7 1.7-1.1.4-2.3.7-3.7.7-.8 0-1.6-.1-2.3-.3-.7-.2-1.2-.5-1.7-.9-.4-.4-.7-1-.9-1.7-.2-.7-.1-1.6.1-2.6l2.1-9.1zm18.1 0h6.2l1.4 9.1 5.2-9.1h6.2l-9.3 13.9h-6.2zm31.5 5.4c0-.4-.1-.7-.2-1.1-.1-.3-.3-.7-.6-.9-.3-.3-.6-.5-1.1-.6-.4-.2-1-.2-1.6-.2-1.3 0-2.3.3-3 .8-.7.6-1.3 1.2-1.6 2h8.1zm4.4 4.4c-.3.6-.7 1.2-1.3 1.7-.5.6-1.2 1.1-2.1 1.5-.8.4-1.8.8-2.9 1.1-1.1.3-2.4.4-3.9.4-3.1 0-5.4-.6-6.8-1.8-1.4-1.2-1.9-3.1-1.3-5.7.3-1.2.7-2.3 1.4-3.2.7-.9 1.5-1.7 2.4-2.3 1-.6 2.1-1.1 3.3-1.4 1.2-.3 2.6-.5 4-.5 1.5 0 2.8.2 3.9.5s2 .8 2.7 1.5c.7.7 1.2 1.6 1.4 2.6.2 1.1.2 2.3-.1 3.8l-.1.4h-13.6c0 .4 0 .9.2 1.2.1.4.3.7.6 1 .3.3.7.5 1.2.6.5.2 1.1.2 1.8.2.9 0 1.6-.2 2.2-.5.6-.3 1.1-.7 1.5-1.1h5.5zm5-14.7h5.5l-3.9 18.8h-5.5zm17.7 12.3c-.2.1-.5.1-.9.2s-.8.1-1.3.2l-3.8.4c-.6.1-1 .2-1.3.4-.3.2-.5.5-.6 1-.1.5 0 1 .4 1.3.4.3.9.4 1.7.4 1.6 0 2.9-.3 3.8-.8.9-.5 1.5-1.3 1.7-2.3l.3-.8zm-11.6-3c.3-1 .8-1.9 1.5-2.5.6-.6 1.4-1.1 2.3-1.4.9-.3 1.8-.5 2.8-.7 1-.1 2.1-.2 3.1-.2 1.2 0 2.4.1 3.5.2s2 .4 2.7.7c.7.3 1.2.8 1.6 1.4.3.6.4 1.4.2 2.4l-1.5 7c-.1.5-.2 1-.2 1.4 0 .2 0 .4.1.5 0 .2.1.4.2.6h-5.4c-.1-.2-.1-.4-.1-.6v-.6c-.9.8-2 1.2-3.1 1.5-1.1.2-2.4.4-3.8.4-4.5 0-6.5-1.4-5.9-4.3.2-.8.4-1.5.8-2s.9-1 1.4-1.3c.6-.4 1.2-.6 2-.8.8-.2 1.7-.3 2.7-.4l5.5-.4c.7 0 1.2-.1 1.4-.3.2-.2.4-.4.5-.8.1-.5-.1-.9-.6-1.1-.5-.2-1.3-.4-2.5-.4-1 0-1.8.1-2.4.4-.6.3-1 .7-1.2 1.3h-5.6zm22-9.3h5.4l-.7 3.3H188l.7-3.3zm-1 4.9h5.4l-2.9 13.9h-5.4l2.9-13.9zm7.9 0h5.4l-.6 2.7h.1c.7-.9 1.7-1.7 2.8-2.2 1.1-.6 2.3-.9 3.5-.9h.9l.9.1-1 5.1c-.3-.1-.8-.2-1.3-.3-.6-.1-1.1-.1-1.6-.1-1.6 0-2.8.4-3.6 1.1-.9.7-1.4 1.7-1.7 3l-1.1 5.4h-5.4l2.7-13.9z"/></svg>