<svg width="311.12" height="97.459" viewBox="0 0 82.316 25.786" xmlns="http://www.w3.org/2000/svg"><path d="M1.429 6.5l4.82 1.748c1.263-.456 2.587-.938 3.808-1.38A2090.564 2090.564 0 01.864 3.524c-.334-.121-.6-.26-.6.096v1.39c0 .788.416 1.204 1.165 1.49M.274 9.957c.016.337.157.379.516.27.17-.06.426-.153.747-.27l.251-.092h.001c.544-.197 1.237-.45 2.017-.732C2.533 8.67 1.354 8.246.71 8.007c-.288-.107-.436-.031-.436.3v1.32zm12.23.558c1.257-.455 2.19-.796 2.356-.856.918-.333 1.073-.66.668-.805.02.005.037.012.057.019a1.109 1.109 0 00-.124-.05c-.133-.05-.722-.263-1.594-.577-1.002.362-2.39.865-3.811 1.383zm-.008-4.533L5.155 3.37c-.748-.28-1.163-.7-1.163-1.488V.492c0-.358.266-.22.597-.096 2.443.901 10.22 3.661 10.872 3.897.084.031.154.064.209.1.216.167-.021.446-.81.733-.145.053-1.06.383-2.364.857" fill="#ed1650"/><path d="M15.53 4.32c.423.15.248.471-.67.806-.48.174-9.672 3.506-13.07 4.74l-.254.09c-.32.119-.575.211-.746.273-.359.108-.5.065-.518-.273 0 .211-.007.634.36.767l2.997 1.09s.212.067.414-.004c.27-.094 11.32-4.106 11.32-4.106.539-.2.571-.654.571-1.964 0-1.223 0-1.276-.403-1.418m-5.492 12.675c0-.576.063-1.07-.45-.885l-5.64 2.046v2.736l5.514-1.987c.542-.197.576-.577.576-1.154zM6.6 22.76c0-.578.065-1.068-.45-.886l-2.202.805v2.74l2.076-.746c.543-.2.576-.58.576-1.157zm8.762-10.523L3.945 16.381v-2.76L14.861 9.66c.918-.335 1.074-.66.67-.806.41.148.403.196.403 1.421 0 1.307-.032 1.764-.571 1.963m24.977 1.357h2.739l-4.266-8.418c-.225-.414-.444-.575-.956-.575H35.5l-4.489 8.993h2.738l.797-1.658h5.03zm22.448 0h2.706l-4.268-8.418c-.221-.414-.445-.575-.951-.575h-2.359l-4.49 8.993h2.74l.795-1.658h5.032zm9.647-2.2c.096.32.48.542.892.542h2.58l1.91-5.293 1.815 6.951h2.42l-2.007-7.973c-.189-.795-.635-1.02-1.366-1.02h-2.517l-1.816 5.262-1.43-4.466c-.194-.571-.546-.796-1.12-.796h-2.83l-2.325 8.993h2.452l1.783-6.951zm-11.334-1.276h-3.344l1.689-3.602zm-22.417 0h-3.34l1.686-3.602zm-9.581 3.477l1.018-2.073h-6.02v-6.92h-2.578v8.993zm17.893 0h2.482V6.675l4.333-.287V4.602H42.665v1.786l4.33.287zM28.2 18.405l-.288.75s-.928-.486-2.27-.486c-1.754 0-3.443 1.038-3.443 3.08 0 1.997 1.657 2.972 3.475 2.972 1.417 0 2.367-.53 2.367-.53l.254.752s-1.088.57-2.662.57c-2.388 0-4.321-1.3-4.321-3.765 0-2.497 1.965-3.873 4.288-3.873 1.522 0 2.6.53 2.6.53m5.92.33l-1.965 3.842h3.94zm2.388 4.635h-4.753l-1.037 2.02h-.939l3.844-7.406h.572c.294 0 .463.095.59.339l3.699 7.067h-.942zm10.442-2.995c0-.823-.592-1.597-2.27-1.597h-2.992v3.016a5.891 5.891 0 002.282.465c2.199 0 2.98-.857 2.98-1.884m-5.262 2.233v2.783h-.874v-7.407h3.95c1.974 0 3.05.953 3.05 2.36 0 1.111-.602 1.96-1.773 2.391l1.722 2.656h-1.046l-1.573-2.423a7.72 7.72 0 01-1.152.086c-.876 0-1.764-.18-2.304-.446m12.402 2.897c-2.387 0-4.32-1.301-4.32-3.765 0-2.498 1.997-3.874 4.352-3.874 1.616 0 2.79.53 2.79.53l-.265.708s-.993-.444-2.482-.444c-1.786 0-3.508 1.038-3.508 3.08 0 1.998 1.66 2.972 3.476 2.972.815 0 1.49-.17 2.019-.36v-2.475h.844v2.994s-1.215.634-2.906.634m6.11-3.85c0 1.798 1.204 3.066 3.178 3.066 1.977 0 3.172-1.268 3.172-3.066 0-1.78-1.195-3.006-3.172-3.006-1.974 0-3.178 1.226-3.178 3.006m7.226 0c0 2.105-1.46 3.862-4.048 3.862-2.619 0-4.055-1.757-4.055-3.862 0-2.073 1.447-3.799 4.055-3.799 2.588 0 4.048 1.726 4.048 3.8" fill="#1b0088"/></svg>