<svg xmlns="http://www.w3.org/2000/svg" width="300.1" height="140.06"><path d="M15.803 130.273l-4.718-12.516-4.891 12.516h9.609zm-3.318-14.836l9.575 24.41h-2.497l-2.976-7.591H5.476l-2.941 7.592H.076l9.812-24.411h2.597" fill="#596459"/><path d="M15.803 130.273l-4.718-12.516-4.891 12.516h9.609zm-3.318-14.836l9.575 24.41h-2.497l-2.976-7.591H5.476l-2.941 7.592H.076l9.812-24.411h2.597z" fill="none" stroke="#596459" stroke-width=".152" stroke-linecap="round" stroke-linejoin="round" stroke-miterlimit="10"/><path d="M39.082 126.953a6.54 6.54 0 00-1.112-2 5.526 5.526 0 00-1.744-1.401c-.683-.356-1.458-.53-2.326-.53-.888 0-1.675.174-2.359.53a5.55 5.55 0 00-1.742 1.401 6.99 6.99 0 00-1.146 2.02 9.751 9.751 0 00-.563 2.34h11.42a7.833 7.833 0 00-.428-2.36m-10.666 6.583a6.593 6.593 0 001.04 2.24 5.943 5.943 0 001.814 1.642c.728.433 1.607.648 2.63.648 1.575 0 2.804-.41 3.694-1.231.889-.82 1.503-1.909 1.846-3.28h2.153c-.456 2.006-1.293 3.554-2.511 4.65-1.221 1.092-2.948 1.642-5.182 1.642-1.39 0-2.59-.247-3.605-.738-1.014-.489-1.84-1.16-2.479-2.016-.64-.854-1.11-1.846-1.42-2.976a13.486 13.486 0 01-.46-3.573c0-1.16.152-2.3.46-3.42a9.187 9.187 0 011.42-2.99 7.064 7.064 0 012.479-2.116c1.015-.538 2.215-.808 3.605-.808 1.415 0 2.622.287 3.628.857a7.245 7.245 0 012.444 2.239c.624.922 1.076 1.984 1.349 3.18a14 14 0 01.342 3.64H28.09c0 .776.108 1.578.326 2.41" fill="#596459"/><path d="M39.082 126.953a6.54 6.54 0 00-1.112-2 5.526 5.526 0 00-1.744-1.401c-.683-.356-1.458-.53-2.326-.53-.888 0-1.675.174-2.359.53a5.55 5.55 0 00-1.742 1.401 6.99 6.99 0 00-1.146 2.02 9.751 9.751 0 00-.563 2.34h11.42a7.833 7.833 0 00-.428-2.36m-10.666 6.583a6.593 6.593 0 001.04 2.24 5.943 5.943 0 001.814 1.642c.728.433 1.607.648 2.63.648 1.575 0 2.804-.41 3.694-1.231.889-.82 1.503-1.909 1.846-3.28h2.153c-.456 2.006-1.293 3.554-2.511 4.65-1.221 1.092-2.948 1.642-5.182 1.642-1.39 0-2.59-.247-3.605-.738-1.014-.489-1.84-1.16-2.479-2.016-.64-.854-1.11-1.846-1.42-2.976a13.486 13.486 0 01-.46-3.573c0-1.16.152-2.3.46-3.42a9.187 9.187 0 011.42-2.99 7.064 7.064 0 012.479-2.116c1.015-.538 2.215-.808 3.605-.808 1.415 0 2.622.287 3.628.857a7.245 7.245 0 012.444 2.239c.624.922 1.076 1.984 1.349 3.18a14 14 0 01.342 3.64H28.09c0 .776.108 1.578.326 2.41" fill="none" stroke="#596459" stroke-width=".152" stroke-linecap="round" stroke-linejoin="round" stroke-miterlimit="10"/><path d="M52.501 122.204v4.137h.068c.547-1.437 1.398-2.543 2.548-3.314 1.151-.777 2.523-1.133 4.12-1.06v2.15c-.98-.04-1.87.085-2.667.397a5.969 5.969 0 00-2.069 1.315 5.918 5.918 0 00-1.351 2.035 6.842 6.842 0 00-.477 2.579v9.404h-2.156v-17.643H52.5" fill="#596459"/><path d="M52.501 122.204v4.137h.068c.547-1.437 1.398-2.543 2.548-3.314 1.151-.777 2.523-1.133 4.12-1.06v2.15c-.98-.04-1.87.085-2.667.397a5.969 5.969 0 00-2.069 1.315 5.918 5.918 0 00-1.351 2.035 6.842 6.842 0 00-.477 2.579v9.404h-2.156v-17.643H52.5z" fill="none" stroke="#596459" stroke-width=".152" stroke-linecap="round" stroke-linejoin="round" stroke-miterlimit="10"/><path d="M71.139 123.675a5.907 5.907 0 00-1.933 1.709 7.799 7.799 0 00-1.162 2.407 9.856 9.856 0 000 5.503c.26.903.65 1.707 1.162 2.413a5.91 5.91 0 001.933 1.71c.774.434 1.676.649 2.701.649 1.025 0 1.926-.215 2.7-.648a5.888 5.888 0 001.932-1.71c.513-.707.9-1.51 1.164-2.414a9.838 9.838 0 000-5.503 7.883 7.883 0 00-1.164-2.407 5.89 5.89 0 00-1.932-1.709c-.774-.435-1.675-.653-2.7-.653-1.025 0-1.927.218-2.701.653m6.274-1.711a7.808 7.808 0 012.615 2.018 8.68 8.68 0 011.605 2.959 11.62 11.62 0 01.55 3.603c0 1.275-.185 2.479-.55 3.61a8.682 8.682 0 01-1.605 2.955 7.605 7.605 0 01-2.615 2c-1.039.491-2.23.738-3.573.738-1.345 0-2.536-.247-3.573-.738a7.586 7.586 0 01-2.615-2c-.708-.842-1.244-1.826-1.608-2.955a11.741 11.741 0 01-.547-3.61c0-1.274.184-2.477.547-3.603.364-1.133.9-2.116 1.608-2.96a7.79 7.79 0 012.615-2.017c1.037-.5 2.228-.754 3.573-.754 1.343 0 2.534.254 3.573.754" fill="#596459"/><path d="M71.139 123.675a5.907 5.907 0 00-1.933 1.709 7.799 7.799 0 00-1.162 2.407 9.856 9.856 0 000 5.503c.26.903.65 1.707 1.162 2.413a5.91 5.91 0 001.933 1.71c.774.434 1.676.649 2.701.649 1.025 0 1.926-.215 2.7-.648a5.888 5.888 0 001.932-1.71c.513-.707.9-1.51 1.164-2.414a9.838 9.838 0 000-5.503 7.883 7.883 0 00-1.164-2.407 5.89 5.89 0 00-1.932-1.709c-.774-.435-1.675-.653-2.7-.653-1.025 0-1.927.218-2.701.653m6.274-1.711a7.808 7.808 0 012.615 2.018 8.68 8.68 0 011.605 2.959 11.62 11.62 0 01.55 3.603c0 1.275-.185 2.479-.55 3.61a8.682 8.682 0 01-1.605 2.955 7.605 7.605 0 01-2.615 2c-1.039.491-2.23.738-3.573.738-1.345 0-2.536-.247-3.573-.738a7.586 7.586 0 01-2.615-2c-.708-.842-1.244-1.826-1.608-2.955a11.741 11.741 0 01-.547-3.61c0-1.274.184-2.477.547-3.603.364-1.133.9-2.116 1.608-2.96a7.79 7.79 0 012.615-2.017c1.037-.5 2.228-.754 3.573-.754 1.343 0 2.534.254 3.573.754" fill="none" stroke="#596459" stroke-width=".152" stroke-linecap="round" stroke-linejoin="round" stroke-miterlimit="10"/><path d="M92.258 139.848h2.154v-24.41h-2.154v24.41z" fill="#596459"/><path d="M92.258 139.848h2.154v-24.41h-2.154v24.41z" fill="none" stroke="#596459" stroke-width=".152" stroke-linecap="round" stroke-linejoin="round" stroke-miterlimit="10"/><path d="M106.25 122.204h2.152v17.644h-2.153v-17.644zm-.96-2.46l3.591-4.823h2.667l-4.515 4.822h-1.743" fill="#596459"/><path d="M106.25 122.204h2.152v17.644h-2.153v-17.644zm-.96-2.46l3.591-4.823h2.667l-4.515 4.822h-1.743z" fill="none" stroke="#596459" stroke-width=".152" stroke-linecap="round" stroke-linejoin="round" stroke-miterlimit="10"/><path d="M123.248 122.204v3.044h.067c.413-1.074 1.139-1.932 2.187-2.583a6.47 6.47 0 013.456-.977c1.23 0 2.26.163 3.091.485.833.317 1.5.766 2.002 1.347.5.584.857 1.295 1.063 2.138.203.845.305 1.792.305 2.838v11.351h-2.155v-11.009c0-.75-.069-1.455-.205-2.103a4.38 4.38 0 00-.72-1.694c-.34-.477-.8-.853-1.381-1.13-.582-.272-1.31-.41-2.172-.41-.868 0-1.635.154-2.307.468a4.913 4.913 0 00-1.71 1.261 5.834 5.834 0 00-1.095 1.913 7.68 7.68 0 00-.426 2.414v10.29h-2.153v-17.643h2.153" fill="#596459"/><path d="M123.248 122.204v3.044h.067c.413-1.074 1.139-1.932 2.187-2.583a6.47 6.47 0 013.456-.977c1.23 0 2.26.163 3.091.485.833.317 1.5.766 2.002 1.347.5.584.857 1.295 1.063 2.138.203.845.305 1.792.305 2.838v11.351h-2.155v-11.009c0-.75-.069-1.455-.205-2.103a4.38 4.38 0 00-.72-1.694c-.34-.477-.8-.853-1.381-1.13-.582-.272-1.31-.41-2.172-.41-.868 0-1.635.154-2.307.468a4.913 4.913 0 00-1.71 1.261 5.834 5.834 0 00-1.095 1.913 7.68 7.68 0 00-.426 2.414v10.29h-2.153v-17.643h2.153z" fill="none" stroke="#596459" stroke-width=".152" stroke-linecap="round" stroke-linejoin="round" stroke-miterlimit="10"/><path d="M158.48 126.953a6.542 6.542 0 00-1.11-2 5.5 5.5 0 00-1.743-1.401c-.686-.356-1.46-.53-2.326-.53-.887 0-1.674.174-2.362.53a5.48 5.48 0 00-1.739 1.401 7.034 7.034 0 00-1.144 2.02 9.797 9.797 0 00-.564 2.34h11.418a7.872 7.872 0 00-.43-2.36m-10.665 6.583a6.577 6.577 0 001.041 2.24 5.966 5.966 0 001.812 1.642c.729.433 1.608.648 2.633.648 1.573 0 2.803-.41 3.69-1.231.893-.82 1.51-1.909 1.847-3.28h2.157c-.46 2.006-1.296 3.554-2.515 4.65-1.221 1.092-2.946 1.642-5.179 1.642-1.388 0-2.597-.247-3.604-.738-1.017-.489-1.842-1.16-2.482-2.016-.641-.854-1.111-1.846-1.42-2.976a13.544 13.544 0 01-.46-3.573c0-1.16.154-2.3.46-3.42a9.146 9.146 0 011.42-2.99 7.064 7.064 0 012.482-2.116c1.007-.538 2.216-.808 3.604-.808 1.413 0 2.623.287 3.626.857a7.19 7.19 0 012.439 2.239c.632.922 1.081 1.984 1.357 3.18a13.81 13.81 0 01.336 3.64h-13.567c0 .776.105 1.578.323 2.41" fill="#596459"/><path d="M158.48 126.953a6.542 6.542 0 00-1.11-2 5.5 5.5 0 00-1.743-1.401c-.686-.356-1.46-.53-2.326-.53-.887 0-1.674.174-2.362.53a5.48 5.48 0 00-1.739 1.401 7.034 7.034 0 00-1.144 2.02 9.797 9.797 0 00-.564 2.34h11.418a7.872 7.872 0 00-.43-2.36m-10.665 6.583a6.577 6.577 0 001.041 2.24 5.966 5.966 0 001.812 1.642c.729.433 1.608.648 2.633.648 1.573 0 2.803-.41 3.69-1.231.893-.82 1.51-1.909 1.847-3.28h2.157c-.46 2.006-1.296 3.554-2.515 4.65-1.221 1.092-2.946 1.642-5.179 1.642-1.388 0-2.597-.247-3.604-.738-1.017-.489-1.842-1.16-2.482-2.016-.641-.854-1.111-1.846-1.42-2.976a13.544 13.544 0 01-.46-3.573c0-1.16.154-2.3.46-3.42a9.146 9.146 0 011.42-2.99 7.064 7.064 0 012.482-2.116c1.007-.538 2.216-.808 3.604-.808 1.413 0 2.623.287 3.626.857a7.19 7.19 0 012.439 2.239c.632.922 1.081 1.984 1.357 3.18a13.81 13.81 0 01.336 3.64h-13.567c0 .776.105 1.578.323 2.41" fill="none" stroke="#596459" stroke-width=".152" stroke-linecap="round" stroke-linejoin="round" stroke-miterlimit="10"/><path d="M180.283 129.727c-.137.25-.4.43-.788.546-.385.114-.73.195-1.025.239-.911.16-1.852.3-2.82.425-.974.127-1.853.314-2.65.567-.799.251-1.451.608-1.965 1.08-.514.465-.769 1.13-.769 1.997 0 .547.107 1.03.324 1.455.216.415.505.786.875 1.091.36.31.78.541 1.262.7.478.16.968.239 1.467.239.826 0 1.61-.122 2.365-.376a5.782 5.782 0 001.964-1.095 5.179 5.179 0 001.329-1.742c.336-.684.496-1.459.496-2.324v-2.802h-.065zm-10.77-5.269a5.01 5.01 0 011.487-1.844 6.293 6.293 0 012.205-1.06c.844-.228 1.779-.344 2.807-.344.77 0 1.547.073 2.32.226.778.146 1.47.425 2.09.834.614.414 1.116.986 1.503 1.728.385.74.581 1.706.581 2.887v9.37c0 .868.421 1.297 1.263 1.297.256 0 .48-.045.682-.135v1.811a7.123 7.123 0 01-.662.103 6.2 6.2 0 01-.735.034c-.548 0-.988-.074-1.315-.223a1.724 1.724 0 01-.774-.632 2.407 2.407 0 01-.36-.973 8.85 8.85 0 01-.085-1.245h-.066a15.145 15.145 0 01-1.182 1.518 5.642 5.642 0 01-1.331 1.11c-.492.3-1.05.523-1.675.69-.628.154-1.372.237-2.242.237-.82 0-1.588-.098-2.307-.291a5.213 5.213 0 01-1.88-.923 4.41 4.41 0 01-1.263-1.605c-.312-.655-.464-1.422-.464-2.31 0-1.23.272-2.192.82-2.89.55-.697 1.272-1.225 2.17-1.591.901-.365 1.92-.62 3.043-.77 1.13-.15 2.277-.29 3.44-.427.453-.047.852-.102 1.196-.17.34-.07.626-.19.856-.359.222-.17.398-.403.53-.7.122-.295.183-.687.183-1.163 0-.73-.117-1.327-.358-1.796a2.822 2.822 0 00-.99-1.11 4.052 4.052 0 00-1.469-.567c-.558-.1-1.16-.152-1.795-.152-1.369 0-2.484.323-3.354.975-.866.652-1.321 1.691-1.366 3.126h-2.15c.064-1.027.283-1.91.647-2.666" fill="#596459"/><path d="M180.283 129.727c-.137.25-.4.43-.788.546-.385.114-.73.195-1.025.239-.911.16-1.852.3-2.82.425-.974.127-1.853.314-2.65.567-.799.251-1.451.608-1.965 1.08-.514.465-.769 1.13-.769 1.997 0 .547.107 1.03.324 1.455.216.415.505.786.875 1.091.36.31.78.541 1.262.7.478.16.968.239 1.467.239.826 0 1.61-.122 2.365-.376a5.782 5.782 0 001.964-1.095 5.179 5.179 0 001.329-1.742c.336-.684.496-1.459.496-2.324v-2.802h-.065zm-10.77-5.269a5.01 5.01 0 011.487-1.844 6.293 6.293 0 012.205-1.06c.844-.228 1.779-.344 2.807-.344.77 0 1.547.073 2.32.226.778.146 1.47.425 2.09.834.614.414 1.116.986 1.503 1.728.385.74.581 1.706.581 2.887v9.37c0 .868.421 1.297 1.263 1.297.256 0 .48-.045.682-.135v1.811a7.123 7.123 0 01-.662.103 6.2 6.2 0 01-.735.034c-.548 0-.988-.074-1.315-.223a1.724 1.724 0 01-.774-.632 2.407 2.407 0 01-.36-.973 8.85 8.85 0 01-.085-1.245h-.066a15.145 15.145 0 01-1.182 1.518 5.642 5.642 0 01-1.331 1.11c-.492.3-1.05.523-1.675.69-.628.154-1.372.237-2.242.237-.82 0-1.588-.098-2.307-.291a5.213 5.213 0 01-1.88-.923 4.41 4.41 0 01-1.263-1.605c-.312-.655-.464-1.422-.464-2.31 0-1.23.272-2.192.82-2.89.55-.697 1.272-1.225 2.17-1.591.901-.365 1.92-.62 3.043-.77 1.13-.15 2.277-.29 3.44-.427.453-.047.852-.102 1.196-.17.34-.07.626-.19.856-.359.222-.17.398-.403.53-.7.122-.295.183-.687.183-1.163 0-.73-.117-1.327-.358-1.796a2.822 2.822 0 00-.99-1.11 4.052 4.052 0 00-1.469-.567c-.558-.1-1.16-.152-1.795-.152-1.369 0-2.484.323-3.354.975-.866.652-1.321 1.691-1.366 3.126h-2.15c.064-1.027.283-1.91.647-2.666" fill="none" stroke="#596459" stroke-width=".152" stroke-linecap="round" stroke-linejoin="round" stroke-miterlimit="10"/><path d="M202.989 125.16a3.474 3.474 0 00-1.012-1.21 4.225 4.225 0 00-1.45-.704 6.718 6.718 0 00-1.746-.223 7.2 7.2 0 00-1.455.153 4.596 4.596 0 00-1.348.515c-.41.24-.74.55-.992.94-.248.388-.374.866-.374 1.434 0 .48.121.883.358 1.214.24.332.542.613.907.837.362.231.765.42 1.198.564.43.155.83.271 1.196.36l2.874.651a8.401 8.401 0 011.824.495 5.96 5.96 0 011.608.94c.47.386.85.867 1.146 1.437.293.567.442 1.243.442 2.018 0 .96-.212 1.77-.65 2.447a5.33 5.33 0 01-1.656 1.637 7.027 7.027 0 01-2.272.905c-.846.187-1.673.277-2.494.277-2.075 0-3.76-.49-5.05-1.47-1.284-.982-2.02-2.553-2.2-4.72h2.155c.09 1.456.622 2.56 1.587 3.298.968.743 2.171 1.111 3.607 1.111.526 0 1.064-.056 1.625-.17a5.215 5.215 0 001.559-.582 3.787 3.787 0 001.176-1.04c.307-.42.465-.94.465-1.557 0-.527-.113-.963-.329-1.314a2.87 2.87 0 00-.87-.892 5.587 5.587 0 00-1.252-.598 16.318 16.318 0 00-1.415-.41l-2.772-.617a14.845 14.845 0 01-1.945-.634 6.237 6.237 0 01-1.558-.884 3.666 3.666 0 01-1.041-1.301c-.253-.516-.378-1.148-.378-1.895 0-.895.202-1.657.596-2.292a4.666 4.666 0 011.559-1.54 7.22 7.22 0 012.138-.854 10.26 10.26 0 012.343-.276c.887 0 1.71.117 2.473.344a5.707 5.707 0 012.018 1.06 5.172 5.172 0 011.386 1.779c.343.705.537 1.536.58 2.492h-2.153c-.022-.653-.161-1.233-.408-1.725" fill="#596459"/><path d="M202.989 125.16a3.474 3.474 0 00-1.012-1.21 4.225 4.225 0 00-1.45-.704 6.718 6.718 0 00-1.746-.223 7.2 7.2 0 00-1.455.153 4.596 4.596 0 00-1.348.515c-.41.24-.74.55-.992.94-.248.388-.374.866-.374 1.434 0 .48.121.883.358 1.214.24.332.542.613.907.837.362.231.765.42 1.198.564.43.155.83.271 1.196.36l2.874.651a8.401 8.401 0 011.824.495 5.96 5.96 0 011.608.94c.47.386.85.867 1.146 1.437.293.567.442 1.243.442 2.018 0 .96-.212 1.77-.65 2.447a5.33 5.33 0 01-1.656 1.637 7.027 7.027 0 01-2.272.905c-.846.187-1.673.277-2.494.277-2.075 0-3.76-.49-5.05-1.47-1.284-.982-2.02-2.553-2.2-4.72h2.155c.09 1.456.622 2.56 1.587 3.298.968.743 2.171 1.111 3.607 1.111.526 0 1.064-.056 1.625-.17a5.215 5.215 0 001.559-.582 3.787 3.787 0 001.176-1.04c.307-.42.465-.94.465-1.557 0-.527-.113-.963-.329-1.314a2.87 2.87 0 00-.87-.892 5.587 5.587 0 00-1.252-.598 16.318 16.318 0 00-1.415-.41l-2.772-.617a14.845 14.845 0 01-1.945-.634 6.237 6.237 0 01-1.558-.884 3.666 3.666 0 01-1.041-1.301c-.253-.516-.378-1.148-.378-1.895 0-.895.202-1.657.596-2.292a4.666 4.666 0 011.559-1.54 7.22 7.22 0 012.138-.854 10.26 10.26 0 012.343-.276c.887 0 1.71.117 2.473.344a5.707 5.707 0 012.018 1.06 5.172 5.172 0 011.386 1.779c.343.705.537 1.536.58 2.492h-2.153c-.022-.653-.161-1.233-.408-1.725" fill="none" stroke="#596459" stroke-width=".152" stroke-linecap="round" stroke-linejoin="round" stroke-miterlimit="10"/><path d="M71.706 38.887h-24.92L29.47 103.701H7.713l17.312-64.814H.108l5.03-18.717h71.595l-5.027 18.717M82.23 72.58h18.954l-1.406-29.248h-.231L82.23 72.58zm12.636-52.41h22.11l8.892 83.531h-22.695L102.12 88.14H72.988l-9.357 15.56H41.403l53.463-83.53m99.202 27.156c1.09-4.226.507-7.436-1.756-9.626-2.262-2.19-5.965-3.285-11.11-3.285-1.564 0-3.063.096-4.506.287a598.02 598.02 0 00-3.802.519 68.63 68.63 0 00-3.506.692l-6.09 22.478h10.356c3.315 0 6.354-.285 9.125-.862 2.767-.578 5.125-1.633 7.077-3.17 1.948-1.536 3.353-3.88 4.212-7.033m-2.108 24.44a132.614 132.614 0 004.33 11.472c1.638 3.803 3.196 7.243 4.679 10.315a253.51 253.51 0 005.147 10.263h-25.033a143.147 143.147 0 01-4.095-9.108 213.508 213.508 0 01-3.448-9.454c-1.213-3.533-2.168-7.263-2.87-11.184h-11.58l-8.073 29.631h-21.642l21.523-79.777c3.589-.922 6.98-1.652 10.18-2.19 3.195-.538 6.98-1.037 11.347-1.5 4.369-.461 9.126-.691 14.271-.691 5.537 0 10.335.634 14.39 1.902 4.056 1.27 7.313 3.096 9.771 5.476 2.455 2.383 4.072 5.266 4.854 8.647.779 3.381.583 7.146-.586 11.297-2.03 7.225-5.089 12.779-9.182 16.66-4.096 3.879-8.758 6.627-13.983 8.24" fill="#4f5858"/><path d="M283.688 7.695l.026-.007s-2.946 1.29-8.028 9.972c0 0 2.448-4.981 3.936-7.606-8.976 5.437-18.918 13.043-25.418 22.727 0 0 .127-.4.827-4.805.01-.082.01-.149.046-.224 0 0-4.343 5.215-10.02 13.955-.661 1.092-7.672 12.836-9.33 21.708 0 0 .271-3.265.647-6.98-6.725 12.593-13.344 28.34-16.188 45.237 0 0 14.013-36.73 51.27-74.858 0 0-60.888 67.586-54.297 113.246-.397-3.98-1.02-17.852 7.763-28.967 1.046-.43 2.953-.856 4.769.742 0 0-.381-1.372-1.365-1.92 0 0 2.863-.826 4.9-.743 0 0-3.834-.568-5.322-1.063.365-.094 1.841-.478 2.946-.433 0 0-1.309-.196-2.352-.418.767-.712 1.553-1.414 2.447-2.079 17.381-13.14 35.149-29.789 37.964-33.268 0 0-4.043 2.42-7.4 3.09 0 0 12.396-5.853 19.57-29.714a496.787 496.787 0 014.637-14.614l-8.443 2.998c4.94-2.981 8.08-5.644 9.986-7.498C292.2 12.02 296.779 2.033 300.1 0c0 0-7.268 2.607-16.412 7.695" fill="#e51f04"/></svg>