<svg viewBox="0 0 250 76.734" xmlns="http://www.w3.org/2000/svg"><path d="M75.252 68.736c-1.663.112-5.34.317-7.714.327-2.393 0-4.587-.082-5.498-.174-4.061-.424-5.421-2.05-5.421-6.183v-23.86c0-2.185-.4-2.911-2.926-2.911H45.31v28.95c0 8.357 2.122 11.789 16.832 11.789 11.37 0 15.698-.573 15.698-.573s.025-3.928.025-5.437c-.005-1.995-.22-2.092-2.613-1.928m81.861-24.97h-10.388c-.91 0-1.59.307-2.097 1.094l-5.268 7.82h-.21l-5.094-7.82c-.501-.772-1.146-1.094-2.056-1.094h-11.457l11.4 15.835-12.715 16.321h10.424c.977 0 1.688-.45 2.107-1.1l6.322-9.436h.261l5.923 9.078c.624 1.09 1.33 1.458 2.342 1.458h11.764l-12.889-16.98 11.631-15.176zm-44.56 0h-8.592V69.59c-1.586.573-4.327.747-6.169.747-4.189 0-6.035-1.58-6.035-4.22V45.48c0-.946-.752-1.708-1.683-1.708h-8.598v21.686c0 7.785 5.514 11.202 16.52 11.202 6.645 0 13.059-1.085 16.256-2.522V45.479c-.006-.961-.757-1.713-1.699-1.713m98.72-10.301h-7.958v6.97h10.29v-4.551c-.005-2.164-.358-2.42-2.332-2.42m37.982 10.128c-2.46-.333-5.846-.563-9.743-.563-5.683.026-11.836.532-15.636 1.913v30.975h10.28v-21.86c0-2.128 1.213-3.658 3.3-3.975 1.452-.225 3.585-.317 4.986-.301 2.88.03 5.601.291 7.038.705 0 0 .251.057.39-.056l.101-.312v-5.713c0-.522-.148-.731-.716-.813m-37.982.174h-7.958v32.156h10.29V46.354c-.005-2.062-.516-2.588-2.332-2.588m-33.445-.716c-4.281 0-9.58.685-13.437 1.948-.143.046-.189.154-.189.312v5.36c0 .788.276 1.162.772 1.162.312.01.696-.185 1.197-.394 3.125-1.36 6.593-2.005 10.813-2.005 5.156 0 5.774.833 5.774 2.567 0 1.448-.097 1.489-2.184 2.051-4.72 1.346-10.265 2.578-14.715 5.054-3.11 1.723-4.23 4.797-4.23 8.066 0 7.094 4.338 9.482 13.969 9.482 8.096 0 13.953-1.038 17.441-2.444V52.716c.005-8.066-7.953-9.666-15.211-9.666m4.93 23.123c0 2.68-.552 4.731-5.319 4.731-3.908 0-5.32-1.529-5.32-4.756 0-2.113 1.233-3.355 4.435-4.609 2.056-.828 4.092-1.534 6.204-2.296v6.93zM25.592 4.7L5.717 28.605c-.205.225-.282.496-.19.705.092.225.297.363.583.363l30.714.006c.277 0 .471-.236.471-.497 0-.27-.128-.43-.399-.49-1.105-.261-7.135-1.566-11.467-2.875-2.685-.813-3.734-3.12-3.033-6.2.772-3.41 4.045-14.377 4.056-14.407.076-.225.025-.512-.21-.624-.26-.144-.486-.077-.65.112" fill="#00abbf"/><path d="M21.618-.027c11.892 0 21.57 9.682 21.57 21.666 0 11.877-9.678 21.57-21.57 21.57-11.968 0-21.645-9.693-21.645-21.57C-.027 9.66 9.65-.027 21.618-.027m0 2.644c-10.495 0-19.006 8.511-19.006 19.027 0 10.486 8.51 18.997 19.006 18.997S40.63 32.13 40.63 21.644A18.965 18.965 0 0021.618 2.617" fill="#00abbf"/></svg>