<svg width="492.65mm" height="846.009" viewBox="0 0 492.65 223.84" xmlns="http://www.w3.org/2000/svg"><g stroke-width=".265"><path d="M.001 111.92V0h492.65v223.84H.001z" fill="#fdfdfd"/><path d="M16.151 216.5l-.01-.33 5.083-11.247 4.997-11.337 5.585-13.237 2.9-7.44 1.284-3.76 1.286-3.76.664-2.987.664-2.987.947-6.35-.042-16.14-.44-5.82-.44-5.822-.51-2.116-.508-2.117-2.098-5.82-.97-2.25-.97-2.249-4.507-8.693-2.793-4.65-2.794-4.648-5.703-8.538-3.57-4.956-5.03-6.615L6.5 69.456l-5.255-5.98.476-.467 67.154-27.313.317.122.317.122.605 5.47.78 8.467.271 4.217.272 4.217.334 15.113-.608 13.229-.794 8.731-.676 5.16-.676 5.159-.771 3.26-.772 3.26-1.632 5.65-1.893 6.086-3.835 10.848-6.347 16.933-4.035 11.28-4.536 10.152-6.542 12.965-4.32 7.409-5.048 7.648-5.026 6.64-3.974 4.69-4.125 4.305-.01-.33zm17.192-8.687l.005-.244 1.508-2.646 6.706-11.642 6.802-13.494 3.825-8.467 3.612-8.523 3.256-8.146 2.385-6.35 4.137-11.716 3.45-11.038 2.696-9.525 2.333-9.525.916-4.497.916-4.498.546-3.44.546-3.44.79-6.879.309-4.895.309-4.894-.156-7.409-.156-7.408-.83-9.26-.395-3.175-.393-3.175-.704-4.708-.704-4.708.752-.692 71.541-26.537h.822v.453l-15.402 31.43-19.95 40.216-10.228 19.844-5.826 10.848-8.307 14.817-10.757 19.58-2.244 3.836-2.244 3.836-10.288 16.669-5.071 8.202-5.849 8.731-5.516 7.409-4.243 5.291-7.52 8.731-1.384 1.283.005-.244zm32.122-5.757l-.136-.354 83.204-158.57h49.345l.24.397-84.843 158.43-.694.44-46.98.008-.136-.354zm64.566.02l-.152-.397 56.824-106.82 50.1-.135v.498l-58.235 105.73-.501.427-.501.428-42.495.346-4.888.317-.152-.397zm110.85-.046l-1.613-.365-2.859-1.436-1.6-1.133-1.6-1.134-2.276-2.393-2.277-2.392-3.279-4.903-2.894-5.77-1.812-5.416-1.066-6.234-.883-6.677.008-11.377.574-3.157.575-3.157 2.08-6.219 1.336-2.674 1.337-2.674.964-1.51.965-1.511 2.897-3.855 4.72-5.141 6.2-5.734 5.697-4.573 6.473-4.628 7.144-4.302 8.466-4.134 6.615-2.374 5.556-1.356 5.027-.542 98.954-.54 7.313.005-.084.48-.085.48-56.885 106-41.275-.34-5.688-.322v-.622l37.042-72.087v-.453l-13.361-.37-24.606.201-4.231 1.209-2.22.919-2.22.919-4.237 2.444-4.228 3.134-4.757 4.581-3.272 4.085-2.765 4.638-.654 2.068-.653 2.069v3.775l.42 1.737.42 1.736 1.068 2.194 1.069 2.193 3.013 3.06 2.609 1.285 24.796.147-.134.512-.134.512-16.804 30.686-1.374.259-25.135.305-4.763.24-1.613-.365zm108.5.101l-.172-.278 83.24-153.03 3.021-5.556 31.66.125 13.89.332v.722l-11.913 24.669-11.913 24.669.13.34.13.34 27.137.001 5.953.343v.49l-18.07 31.841-.397.461-.397.461-32.812.136-39.208 73.341-.363.438-.363.437h-49.381l-.172-.278zm-98.062-129.12l-2.29-.202-3.092-.634-4.233-1.322-4.323-2.055-4.868-3.256-4.834-4.819-3.238-4.762-1.937-3.857-1.535-4.61-.474-2.249-.474-2.249V34.53l.474-2.249.474-2.249.767-2.304.768-2.305 1.927-3.857 2.809-4.233 3.788-4.098 5.28-3.977 5.396-2.618 4.136-1.336 4.595-.896 7.937.02 5.416 1.14 3.845 1.373 5.027 2.576 4.547 3.423 2.095 2.214 2.096 2.214 1.402 2.1 1.402 2.098 1.027 2.117 1.027 2.117 1.315 3.969.482 2.249.482 2.249v8.995l-.482 2.25-.482 2.248-1.32 3.97-1.182 2.35-1.183 2.352-2.712 3.924-1.719 1.856-1.719 1.856-4.282 3.313-3.274 1.961-3.341 1.51-4.3 1.353-2.216.391-2.215.391-4.498.228-2.291-.202z" fill="#fde330"/><path d="M34.97 205.32l.664-1.19 5.03-8.732 5.303-10.054 4.251-8.996 2.37-5.291 1.512-3.546 1.512-3.546 5.049-12.752 4.653-13.02 3.432-10.792 2.66-9.26 1.193-4.63 1.195-4.631 1.919-8.996 1.51-8.996.813-7.143.309-4.895.309-4.895-.153-7.408-.152-7.409-.418-4.63-.419-4.63-.393-3.175-.394-3.175-.703-4.704-.704-4.705.244-.213.243-.213L145.92 7.69l1.747-.604.118.118.117.118-17.25 35.147-17.042 34.396-11.023 21.431-5.824 10.848-9.912 17.727-6.22 11.377-5.06 8.996-5.107 8.467-12.567 20.373-5.465 8.202-5.4 7.408-5.323 6.615-5.93 6.879-1.471 1.323zm30.496-3.264l-.136-.354 83.204-158.57h49.345l.239.397-84.843 158.43-.693.44-46.98.008-.136-.354zm64.566.02l-.153-.397 56.824-106.82 50.1-.135v.498l-58.235 105.73-.5.428-.502.427-42.495.346-4.887.317-.152-.397zm110.85-.046l-1.614-.365-2.858-1.435-1.6-1.134-1.6-1.134-2.276-2.393-2.277-2.392-3.28-4.903-2.893-5.77-1.813-5.416-1.065-6.234-.884-6.677.008-11.377.575-3.157.575-3.156 2.08-6.22 1.336-2.674 1.337-2.674.964-1.51.964-1.511 2.897-3.855 4.721-5.14 6.199-5.734 5.697-4.574 6.473-4.628 7.144-4.302 8.467-4.134 6.615-2.373 5.556-1.357 5.027-.542 98.954-.539 7.313.004-.085.48-.084.48-56.885 106-41.275-.34-5.689-.322v-.622l37.042-72.087v-.453l-13.361-.37-24.606.201-4.23 1.21-2.22.918-2.22.919-4.237 2.444-4.228 3.135-4.757 4.58-3.273 4.085-2.765 4.638-.653 2.068-.653 2.069v3.775l.42 1.737.42 1.737 1.068 2.193 1.068 2.193 3.014 3.06 2.608 1.285 24.796.147-.134.512-.133.513-16.804 30.686-1.375.258-25.135.306-4.762.238-1.614-.364zm108.5.102l-.172-.278 83.24-153.03 3.02-5.557 31.66.126 13.89.331v.722l-11.912 24.67-11.913 24.668.13.34.13.34 27.136.002 5.953.343v.49l-18.07 31.84-.397.461-.397.461-32.812.137-39.208 73.34-.363.438-.363.437h-49.38l-.173-.278z" fill="#fd9920"/><path d="M65.466 202.06l-.136-.354 83.204-158.57h49.345l.24.397-84.843 158.43-.694.44-46.98.008-.136-.354zm64.566.02l-.152-.397 56.824-106.82 50.1-.135v.498l-58.235 105.73-.501.428-.501.427-42.495.346-4.888.317-.152-.396zm110.85-.046l-1.613-.364-2.859-1.436-1.6-1.134-1.6-1.134-2.276-2.392-2.277-2.393-3.279-4.902-2.894-5.77-1.812-5.417-1.066-6.234-.883-6.677.008-11.377.574-3.156.575-3.157 2.08-6.22 1.336-2.674 1.337-2.674.964-1.51.965-1.51 2.897-3.856 4.72-5.14 6.2-5.734 5.697-4.574 6.473-4.627 7.144-4.302 8.466-4.135 6.615-2.373 5.556-1.356 5.027-.543 98.954-.539 7.313.004-.084.48-.085.48-56.885 106-41.275-.34-5.688-.322v-.622l37.042-72.087v-.453l-13.361-.37-24.606.201-4.231 1.21-2.22.918-2.22.92-4.237 2.443-4.228 3.135-4.757 4.58-3.272 4.085-2.765 4.638-.654 2.069-.653 2.068v3.775l.42 1.737.42 1.737 1.068 2.193 1.069 2.193 3.013 3.061 2.609 1.284 24.796.147-.134.513-.134.512-16.804 30.686-1.374.258-25.135.306-4.763.239-1.613-.365zm108.5.102l-.172-.278 83.24-153.03 3.021-5.557 31.66.126 13.89.331v.722l-11.913 24.67-11.913 24.668.13.34.13.34 27.137.002 5.953.343v.49l-18.07 31.84-.397.462-.397.46-32.812.137-39.208 73.34-.363.438-.363.438h-49.381l-.172-.278z" fill="#204cac"/></g></svg>