<svg viewBox="0 0 403.09 100.36" xmlns="http://www.w3.org/2000/svg"><path d="M314.212 37.632l-.343 1.32s4.331-.071 6.077-.071c3.997-.004 6.432.361 6.7 2.796.236 1.64-.524 3.215-.963 4.764-.423 1.502-.808 2.943-1.225 4.425-.439 1.565-.913 2.944-1.75 4-.952 1.197-2.168 1.992-3.412 2.296-1.715.42-8.726.171-10.678.171-.218.55-.35 1.19-.525 1.785 5.684.29 11.162-.091 16.979.085 1.886.058 3.759.259 5.424-.085 2.539-.519 4.374-2.266 5.163-4.595.78-2.293 1.488-4.966 2.19-7.4.383-1.334.629-2.594 1.223-3.66.567-1.015 1.315-1.806 2.275-2.553 1.762-1.366 4.632-2.514 7.352-1.19 1.34.651 2.12 1.734 2.101 3.743-.016 1.73-.597 3.152-1.05 4.764-1.355 4.814-2.551 8.904-3.851 13.615-.427 1.546-.756 3.204-1.312 4.51a8.595 8.595 0 01-6.563 5.105c-2.606.414-5.57.086-8.314.086h-25.028s-.427 1.23-.613 1.872c10.984.155 22.305.083 32.992.083 2.91 0 5.607.078 8.14-.169 7.259-.707 13.685-2.744 18.99-5.616 8.816-4.774 15.745-11.437 20.827-19.995 2.926-4.93 7.82-8.687 15.865-8.687.23-.612.347-.878.537-1.4h-87.206zM111.889 26.614h10.152c-4.436 15.601-8.744 31.323-13.217 46.885H98.762c4.278-15.72 8.7-31.304 13.127-46.885M1.975 73.499v-.255c3.558-12.139 6.818-24.57 10.413-36.675h34.217c2.031 0 3.748.016 5.25.426 4.287 1.17 7.113 5.149 5.952 10.382-.646 2.911-1.682 6.099-2.45 8.764-1.274 4.41-2.467 8.747-3.675 13.02-.415 1.463-.613 2.987-1.314 4.339-3.295-.056-6.825.113-9.977-.084 1.844-6.856 4.276-15.282 6.302-22.38.347-1.216.7-2.478.613-3.488-.292-3.344-4.145-2.915-7.877-2.893a3959.94 3959.94 0 00-7.088 25.27c-.332 1.2-.618 2.435-1.137 3.574-3.297-.055-6.826.114-9.978-.083 2.55-9.69 5.41-19.079 7.965-28.761h-9.013c-2.657 9.67-5.304 19.348-8.14 28.845-3.006-.002-6.766.002-10.063 0m65.984-36.93H83.36c5.58 0 10.025-.316 13.301 1.958 1.938 1.343 3.434 3.66 3.5 6.806.053 2.554-.808 5.007-1.488 7.403-1.946 6.859-3.9 14.137-5.862 20.763H76.534c-5.183 0-11.746.668-15.226-1.107a6.952 6.952 0 01-3.763-5.614c-.327-3.604 1.03-6.841 2.539-9.107 1.563-2.35 3.732-4.126 6.475-5.274 5.886-2.472 14.392-.765 22.315-1.276.623-1.367 1.169-3.581.437-5.022-1.283-2.524-6.818-1.787-10.85-1.787H65.77c.669-2.64 1.376-5.243 2.188-7.743m5.512 22.295c-3.084.233-4.94 1.982-4.813 5.36.466 1.068 1.614 1.437 2.975 1.533 3.861.268 9.175-.203 13.214 0a819.53 819.53 0 001.926-6.893c-4.066.227-9.327-.3-13.302 0M126.5 36.57h15.928c2.867 0 5.522-.137 7.787.169 5.342.725 9.166 4.344 8.402 10.468-.378 3.026-1.6 6.155-2.365 8.85-1.696 5.991-3.137 11.765-4.899 17.443h-16.802c-5.445 0-11.847.612-15.227-1.447-1.743-1.061-3.039-2.94-3.237-5.445-.286-3.597 1.13-6.652 2.624-8.935 1.54-2.348 3.669-4.134 6.39-5.275 5.896-2.474 14.504-.761 22.314-1.276.638-1.345 1.16-3.603.438-5.022-1.284-2.522-6.819-1.787-10.851-1.787h-12.689c.687-2.62 1.378-5.238 2.187-7.742m5.427 22.295c-.76.063-1.887.322-2.539.681-1.273.7-2.718 3.146-2.101 4.85.305.834 1.594 1.27 2.8 1.36 4.25.319 9.073-.24 13.304 0a241.77 241.77 0 001.925-6.891c-4.27.284-8.993-.376-13.39 0m35.537-22.296h10.064c-1.586 6.01-3.761 13.355-5.6 20.083-.596 2.168-2.073 5.528-.79 7.403 1.016 1.478 3.487 1.275 6.126 1.275 2.536 0 5.222.004 7.264 0 2.816-9.485 5.418-19.182 8.138-28.76h10.152a9448.586 9448.586 0 01-11.114 39.652c-.94 3.323-2.475 5.859-4.814 7.999-2.242 2.053-4.985 3.824-8.138 4.68-3.469.94-7.967.509-12.427.509h-12.776c.582-2.695 1.414-5.15 2.1-7.741h9.627c3.391 0 6.851.207 9.625 0 2.667-.2 4.82-1.638 5.864-3.404.772-1.31.965-3.02 1.488-4.766-8.186-.217-17.976 1.296-21.265-3.83-.56-.872-1.032-2.144-1.139-3.488-.214-2.699.714-5.39 1.4-7.828 1.99-7.063 4.188-14.655 6.038-21.53.076-.068.053-.233.176-.254m76.913 0c-.75 2.562-1.43 5.19-2.187 7.743h-18.203c-2.152 0-4.134-.107-5.512.51-1.658.744-2.696 2.537-2.538 4.766.627 1.423 2.366 1.533 4.026 1.533h5.6c3.785 0 7.587-.18 10.15 1.02 2.522 1.18 4.233 3.75 3.939 7.742-.264 3.567-2.148 7.063-4.376 9.277-2.367 2.35-5.294 3.858-9.539 4.253-4.354.408-9.14.086-13.826.086-4.664 0-9.29-.002-13.739 0 .486-2.449 1.394-5.225 2.101-7.743h20.39c2.418 0 4.41.032 5.864-.85 1.106-.675 2.528-2.753 1.925-4.598-.703-2.14-6.552-1.445-9.538-1.445-3.79 0-7.495.13-9.979-1.021-2.757-1.28-4.443-3.567-4.112-7.743.162-2.041.838-3.776 1.576-5.276 2.218-4.508 6.581-7.863 12.864-8.254 4.188-.26 8.43 0 12.602 0h12.513zm6.737 0h10.064c-3.354 12.368-6.83 24.616-10.325 36.844-2.755.197-7.08.03-9.978.085-.203-.332-.002-.785.087-1.107 3.267-11.652 6.747-23.809 10.064-35.569-.006-.12-.014-.24.088-.254m17.076.001h20.653c6.514 0 11.41 2.496 11.55 8.764.06 2.528-.824 5.015-1.488 7.403-1.917 6.907-3.865 13.887-5.862 20.677-5.24.157-10.845.085-16.454.085-5.27 0-11.731.672-15.225-1.192-1.269-.676-2.415-1.886-2.975-3.146-1.5-3.383-.235-7.342 1.136-10.043 1.443-2.838 3.659-4.996 6.213-6.296 6.197-3.154 15.507-1.103 23.365-1.7.614-1.394 1.153-3.574.438-5.023-1.247-2.528-6.85-1.787-10.851-1.787h-12.689c.574-2.587 1.406-4.928 2.013-7.488.074-.068.052-.233.174-.254m5.424 22.295c-.754.063-1.882.323-2.536.681-1.365.745-2.802 3.331-2.101 4.935.353.807 1.653 1.19 2.888 1.276 4.224.294 9.011-.223 13.216 0 .615-2.323 1.3-4.58 1.923-6.892-4.278.286-8.966-.38-13.39 0m-38.16 18.209c-1.694 6.946-3.985 14.051-5.776 21.187h-3.062a1823.124 1823.124 0 005.862-21.019c.67-.37 2.024-.075 2.976-.168m-39.2 4.595h6.739c3.456 0 6.814-.441 7.613 1.955.572 1.724-.341 3.514-.787 5.106-.858 3.057-1.737 6.475-2.626 9.532-3.45-.183-7.522.24-10.939 0-2.273-.161-3.935-1.312-4.024-3.574-.084-2.047 1.197-4.136 2.45-5.105 2.751-2.135 7.712-1.131 12.251-1.364.264-.988 1.002-2.146.613-3.231-.488-1.364-3.482-.936-5.514-.936h-6.475c.194-.833.37-1.684.699-2.383m.787 9.444c-.856.505-1.964 1.918-1.662 3.404.505 2.486 6.584.914 9.451 1.362.415-1.288.775-2.809 1.139-4.085.114-.401.478-.908.175-1.275-2.51.469-7.167-.547-9.103.594m20.563-9.444c-1.427 5.618-3.068 11.028-4.55 16.592h-2.975a936.641 936.641 0 014.637-16.592h2.888zm1.312 16.678h-2.975c.64-2.64 1.651-6.034 2.538-9.276.879-3.211 1.666-6.18 4.726-7.146 1.61-.509 3.589-.141 5.776-.255-.184.841-.36 1.692-.701 2.381-1.28.046-2.277-.1-3.238.086-2.549.493-2.988 2.808-3.675 5.19-.815 2.819-1.835 6.732-2.45 9.02m21.174-16.678c-1.565 5.51-3.088 11.064-4.637 16.592h-2.976c1.513-5.45 3.023-10.903 4.552-16.338-.004-.146.063-.221.174-.255h2.888zm2.888 0c5.463.552 13.961-1.988 13.651 3.998-.055 1.06-.488 2.149-.787 3.234-.825 2.987-1.79 6.31-2.538 9.36h-3.062c.664-2.577 1.778-6.343 2.624-9.36.403-1.433 1.039-3.2.176-4.17-1.298-1.458-5.138-.302-7.701-.68-1.457 4.625-2.698 9.46-4.026 14.21h-2.974c1.508-5.566 3.035-11.117 4.637-16.592m31.425 0c-.251.777-.405 1.647-.699 2.383-2.408.149-4.617-.203-6.65 0-2.958.294-4.528 2.309-5.515 4.509 3.325.197 7.03.028 10.501.085-.155.813-.427 1.513-.613 2.298h-10.501c-.415.898-.524 2.16-.262 3.062.842 2.912 6.301 1.572 9.627 1.873.12.74-.407 1.59-.526 2.382-4.958-.176-9.929.895-11.727-2.212-2.208-3.817.71-9.801 3.327-12.083 1.353-1.182 3.262-2.132 5.075-2.297 2.677-.245 4.993.179 7.963 0m17.15.085c-.28.749-.44 1.615-.699 2.383-3.086.429-8.073-.722-10.416.34-.98.445-2.375 2.003-1.661 3.404.766 1.504 6.8.36 8.664 1.19 2.612 1.167 2.31 4.844.787 6.893-.86 1.16-2.404 2.118-4.2 2.299-3.581.358-8.114-.27-11.99 0 .227-.803.384-1.67.701-2.383 3.565-.44 10.976 1.065 12.864-1.278.52-.644.842-1.892.435-2.723-.936-1.917-7.654-.21-9.624-1.53-.77-.517-1.394-1.755-1.227-3.233.327-2.85 2.933-5.108 6.04-5.362 3.479-.285 6.704.212 10.326 0" fill="#002b5c"/><path d="M401.737 36.74c-6.162.137-10.77-2.506-11.212-8.083-.09-1.125.009-2.176-.088-3.148-.303-3.082-.967-5.51-2.013-7.914-4.017-9.223-11.94-14.303-24.678-15.316h-39.555c-.075.692-.384 1.157-.437 1.872h25.552c2.79 0 5.887-.38 8.227.255 1.51.41 3.354 1.769 3.237 4.424-.059 1.361-.694 2.81-1.138 4.34-1.224 4.235-2.275 8.43-3.5 12.68-.796 2.76-1.362 5.702-3.063 7.743-1.541 1.85-4.335 3.66-7.701 2.723-1.224-.342-1.99-.773-2.537-1.616-1.32-2.035-.106-5.165.526-7.403.345-1.228.723-2.367 1.048-3.49.313-1.079.848-2.375.875-3.659.045-1.973-1.212-2.99-2.449-3.404-1.467-.487-3.585-.254-5.514-.254-5.633 0-11.71-.07-17.152.085-.117.594-.342 1.085-.438 1.701 4.901 0 12.776-.614 12.776 3.405.013.938-.327 1.987-.613 2.977-.52 1.812-1.067 3.607-1.573 5.447-.258.932-.434 1.894-.787 2.723-.932 2.184-1.917 3.913-5.515 3.913h-9.58l-.228.892h87.206c.135-.397.208-.592.325-.892" fill="#ed1c24"/></svg>