<svg width="124.21" height="24.785" viewBox="0 0 32.864 6.558" xmlns="http://www.w3.org/2000/svg"><defs><linearGradient id="a" x2="1" gradientTransform="rotate(4.6 -297.312 -395.324) scale(9.2534)" gradientUnits="userSpaceOnUse"><stop stop-color="#fbc707" offset="0"/><stop stop-color="#f68712" offset="1"/></linearGradient></defs><path d="M-28.491 24.726s-.043.458.007.561l-.086-.176c-.207-.422-.771-.741-1.211-.885-.19-.069-.413-.043-.413-.043a1.982 1.982 0 00-.324.054c.31.082.599.335.783.64.197.325.254.706.157 1.045 0 0-.014.053-.016.048 0 0-.535-1.536-1.572-1.614a1.569 1.569 0 00-1.18.392c-.337.294-.56.718-.58 1.106-.045.612.258 1.12.351 1.26.27.42.995 1.15 1.681 1.657 0 0 .811.604 1.646.724h.532c.127-.022.251-.06.368-.121-.894-.351-1.8-.998-2.412-1.765-.208-.303-.448-.74-.418-1.114a.806.806 0 01.872-.734c.3.024.56.209.677.482.143.9 1.008 1.932 1.864 2.55 0 0 .327.297.832.154l1.524-.467-.553-.287c-.756-.402-1.408-.913-1.846-1.45-.549-.722-.568-1.19-.568-1.19a.656.656 0 01.105-.405c.132-.184.409-.3.65-.306 0 0 .258-.003.42.088.553.259.9 1.232.962 1.344 0 0 1.007 2.18 2.423 1.73-.523-.304-1.103-1.713-1.103-1.713a8.93 8.93 0 01-.363-1.39c-.158-.938-.457-1.593-1.448-1.673a1.637 1.637 0 00-1.76 1.498" fill="url(#a)" transform="translate(33.063 -23.09)"/><path d="M12.337 6.425h.28v-.992c0-.183-.097-.26-.327-.26h-.86c-.05 0-.156.025-.191.12l-.043.114h.427v1.018h.28V5.407h.434zm-1.423-1.047v1.047h.275V5.172c-.289 0-.275.206-.275.206m.417-3.23l-.285.445h.475l.21-.283.223.283h.435l-.461-.634h-.238c-.243 0-.359.189-.359.189m2.227 0l-.285.445h.475l.21-.283.222.283h.435l-.46-.634h-.238c-.243 0-.359.189-.359.189" fill="#2a46a2"/><path d="M10.903 3.628h1.63v.218h.62v-.218h1.245c.185-.064.297-.161.35-.338h-1.595v-.213H14.4c.183-.035.298-.133.349-.335h-1.596v-.937H14.4c.188-.02.303-.118.35-.338h-3.517c-.265 0-.33.338-.33.338h1.63v.937H11.23c-.283 0-.328.335-.328.335h1.63v.213h-1.265c-.317 0-.365.338-.365.338m2.354 1.771l-.513 1.026h.315l.12-.261h.362c.11-.011.18-.078.207-.197h-.477l.275-.606.259.606H13.8l.206.458h.344l-.586-1.252h-.216c-.187-.02-.292.226-.292.226m4.51 0l-.513 1.026h.315l.12-.261h.362c.11-.011.18-.078.207-.197h-.476l.275-.606.258.606h-.004l.205.458h.346l-.587-1.252h-.216c-.187-.02-.292.226-.292.226m5.962 0l-.513 1.026h.315l.12-.261h.362c.11-.011.18-.078.207-.197h-.477l.275-.606.259.606h-.005l.206.458h.346l-.587-1.252h-.216c-.186-.02-.292.226-.292.226m5.235-1.566l.896-.004 2.426-.004c.197-.024.34-.145.435-.372h-1.6v-.596h1.136c.22-.047.35-.168.393-.377h-3.29c-.275 0-.396.377-.396.377h1.541v.596H29.36c-.26-.01-.396.38-.396.38M19.074.978h-.651c-.301 0-.358.338-.358.338h2.228c.214-.014.336-.122.385-.338h-.987V.812h-.423c-.225 0-.194.166-.194.166m6.396.059h-.28c-.258.01-.222.31-.222.31h1.4c.222-.027.347-.13.372-.31h-.72V.813h-.283c-.296 0-.267.224-.267.224m5.566.502v.393c0 .19.12.286.356.286h.74c.301 0 .475-.124.532-.376h-.89c-.106 0-.121-.066-.121-.105v-.198zm-12.922.33h2.18c.18-.011.297-.107.367-.301h-2.228c-.22 0-.319.3-.319.3M13.597.97h-1.596c0-.16-.259-.158-.259-.158h-.353l.107.153h-.224c-.282.014-.338.305-.338.305h3.5a.492.492 0 00.294-.305h-.6l.096-.153h-.306c-.344 0-.32.158-.32.158m4.516 1.476h2.18c.175-.008.299-.114.367-.314h-2.244c-.217 0-.303.314-.303.314m-.864-1.129l-.314.735h.273v1.782h.485v-2.43l.247-.575h-.173c-.35-.017-.519.488-.519.488m.836 2.517h2.565V3.1c0-.241-.096-.362-.31-.394h-2.255zm1.864-.326h-1.288v-.484h1.414v.358c0 .083-.042.126-.126.126m9.719-1.728l-.597.438h.791l.79-.679h-.428c-.26-.018-.556.242-.556.242m-4.676.159V3a1.7 1.7 0 01-.188.81l-.001.003a.125.125 0 01-.007.012h.476l.038-.035c.128-.117.235-.21.235-.828v-.99h.466v1.853h.346c.305-.015.428-.116.447-.372a.485.485 0 01-.116-.01c-.064-.019-.078-.057-.078-.087V2.214c0-.305-.131-.479-.402-.53a.944.944 0 00-.202-.012h-.753c-.266-.002-.26.269-.26.269" fill="#2a46a2"/><path d="M29.543 1.317h2.522l.008.274h.617l-.016-.322c-.045-.223-.24-.328-.613-.328h-.94V.812h-.314c-.314 0-.303.129-.303.129h-1.216c-.392.007-.362.346-.362.346v.304h.617zM27.09 5.378v1.047h.713c.139-.007.219-.083.244-.23h-.656V5.172c-.301 0-.301.206-.301.206m4.523.817v.23h.8c.281 0 .32-.123.32-.256v-.25c0-.172-.027-.244-.19-.244h-.637v-.272h.653c.1-.013.155-.086.17-.23h-.797c-.02 0-.04.003-.06.006l-.015.002c-.112.027-.244.109-.244.249v.22c0 .115.019.22.242.24a.21.21 0 01.035.001.442.442 0 00.042.003h.508v.3zm-1.275-.817v1.047h.829c.11-.006.172-.078.202-.23h-.738v-.302h.536c.137-.021.18-.116.202-.218h-.738v-.503c-.307 0-.293.206-.293.206m.314.025h.515c.138-.021.18-.122.202-.23h-.554c-.072.01-.115.048-.133.117zM23 1.104v1.099h-.117v.35H23V3.1c0 .25-.015.405-.153.734h.45c.16-.184.217-.388.217-.771v-.508h.213v.871a.325.325 0 00.206-.173v-.698h.226v1.27h.509v-1.27h.108v-.351h-.108v-.84c-.027-.237-.17-.357-.436-.365h-.581l.078-.17h-.224c-.426 0-.505.276-.505.276m1.16 1.1h-.354l.053-.047.018-.015c.065-.054.07-.059.056-.509l-.206-.006v.576h-.213v-.829h.645zm-3.703 3.173v1.047h.305V5.172c-.33-.005-.305.206-.305.206m7.815 0v1.047h.305V5.172c-.331-.005-.305.206-.305.206m-3.275 0v1.047h.304V5.172c-.33-.005-.304.206-.304.206m-5.677.001h.53v.288h-.516l.549.758h.333l-.403-.606h.215c.111-.012.144-.058.161-.13v-.284a.23.23 0 00-.236-.232h-.415c-.171 0-.218.206-.218.206m-.012-.206c-.307 0-.293.224-.293.224v1.028h.293zm6.647.206h.53v.288h-.516l.55.758h.332l-.403-.606h.215c.111-.012.145-.058.161-.13v-.284a.229.229 0 00-.236-.232h-.416c-.17 0-.217.206-.217.206m-.012-.206c-.307 0-.293.224-.293.224v1.028h.293zm-10.122.236v1.016h.672c.116-.004.199-.008.25-.016a.495.495 0 00.172-.067.462.462 0 00.194-.205.676.676 0 00.068-.322.73.73 0 00-.067-.333.503.503 0 00-.202-.213.57.57 0 00-.188-.076 1.1 1.1 0 00-.227-.02h-.062l-.115.008c-.06 0-.114.06-.145.116l-.048.086v-.21c-.341 0-.302.236-.302.236m.56.786h-.258v-.788h.258c.04 0 .082.005.115.009a.499.499 0 01.246.093c.083.069.126.17.126.302 0 .13-.042.233-.118.291a.522.522 0 01-.254.088.833.833 0 01-.115.005m-1.111.23h.275v-.992c0-.15 0-.26-.182-.26h-.415c-.04 0-.103.05-.13.12l-.041.114h.496v.026zM14.483 5.4v1.024h.284V5.172c-.301.021-.284.229-.284.229m6.844.002h.482v1.016l.274-.001v-.992c-.001-.15-.004-.26-.186-.259h-.388c-.184 0-.182.236-.182.236m-.306.006v1.014l.285-.001V5.17c-.298 0-.285.24-.285.24m8.267-.007h.482v1.016l.274-.001v-.992c-.001-.15-.004-.26-.186-.259h-.388c-.185 0-.182.236-.182.236m-.306.009v1.011l.284-.001V5.17c-.297 0-.284.242-.284.242" fill="#2a46a2"/></svg>