<svg width="300" height="53" version="1.0" viewBox="0 0 1066 185" xmlns="http://www.w3.org/2000/svg"><path d="M118.77 1c7.66-1.25 18.28.09 20.99 8.7 1.5-2.99 3.53-5.95 6.76-7.23 4.53-2.28 9.68-1.83 14.56-1.45-4.76 4.06-6.73 10.23-8.16 16.11-2.53 10.79-3.17 21.89-4.82 32.83-.48 2.38-.83 4.88-2.1 6.99-1.09 1.46-2.95 1.99-4.47 2.87.09 12.05 0 24.11.05 36.17 1.54 1.36 3.05 2.74 4.58 4.13 3.92-18.12 7.92-36.24 12.93-54.1 2.58-10.29 5.77-20.44 9.77-30.27 1.68-4.3 5.43-8.01 10.19-8.47 8.47-1.13 16.34 3.36 23.23 7.74-3.07.72-6.28 1.45-8.73 3.55-3.51 2.96-5.76 7.08-7.76 11.14-3.96 8.42-7.78 16.9-11.72 25.33-1.6 2.93-3.05 6.42-6.27 7.9-3.18-.04-6.18-1.36-9.28-1.97-3.31 13.98-6.76 27.96-9.42 42.08.13 2.15 1.23 5.33 3.58 5.8 15.17-26.89 30.04-54.36 50.44-77.75 3.23-4 8.6-6.37 13.72-5.05 8.62 1.86 14.63 9 19.69 15.71-6.5-.58-13.14 1.37-18.07 5.68-8.03 6.95-14.99 15.05-23.02 21.99-2.15 1.64-4.51 3.67-7.36 3.57-2.68-.72-4.87-2.53-7.37-3.67-1.27-.97-1.89 1.12-2.51 1.83-8.47 13.69-16.06 27.87-23.95 41.89 1.15 2.42 2.37 4.81 3.68 7.16 16.31-18.4 33.2-36.49 52.74-51.53 6.08-4.72 12.51-9.02 19.3-12.64 6.89-3.8 16.18-2.29 21.53 3.47 4.43 5 7.14 11.27 9.55 17.44-5.79-2.57-12.4-3.55-18.54-1.65-10.33 3.04-19.49 8.99-29.54 12.76-2.34.76-5.02 1.48-7.36.37-2.43-1.61-4.31-3.89-6.44-5.85-11.96 10.55-22.88 22.18-33.54 34.02-1.88 2.17-4.03 4.15-5.55 6.61.11 3.14 2.1 5.87 3.28 8.71 23.1-17.52 47.21-35.12 75.52-43.08 8.04-2.04 17.17-3.87 24.8.46 4.9 2.62 7.58 7.82 8.88 13.02 1.23 4.21 2.15 8.51 2.65 12.87-9.81-8.26-23.42-7.55-35.32-5.72-6.59.6-13.62 3.18-20.05.58-2.14-2.4-3.37-5.45-5-8.19-17.88 9.1-34.25 20.89-49.94 33.34 1.11 3.23 2.37 6.41 3.8 9.52 24.04-12.67 49.63-24.58 77.25-25.76 9.72-.05 20.73.86 27.98 8.13 6.72 7.25 5.52 17.92 4.47 26.94-2.24-3.2-4.65-6.45-8.15-8.37-9.82-5.61-21.36-6.47-32.37-7.58-3.44-.59-7.27-.67-10.17-2.84-2.11-2.85-2.11-6.64-3.27-9.9-19.21 4.73-37.19 13.24-54.49 22.66.43 2.57 1.63 5.18 1.09 7.81-1.8 3.15-4.61 5.55-7.04 8.2-6.33 6.17-12.92 12.48-21.17 15.99-5.23 1.86-10.06-1.97-14.2-4.66-6.92-5.31-13.32-11.36-18.95-18.02-2.36-2.7-.28-6.3.19-9.31-17.45-9.26-35.43-18.27-54.84-22.51-1.01 4.13-.83 10.46-6.23 11.34-10.94 2.44-22.5 1.77-33.08 5.95a25.763 25.763 0 00-14.21 10.95c-1.89-6.28-1.45-13 .12-19.3 2.05-7.24 8.79-12.09 15.84-13.82 12.34-3.05 25.28-1.51 37.52 1.3 19.84 4.49 38.21 13.53 56.18 22.79a459.6 459.6 0 003.76-9.53c-15.81-12.31-32.05-24.33-50.04-33.29-1.62 2.69-2.75 5.74-4.88 8.09-3.87 1.9-8.34 1.12-12.45.63-9.76-1.35-19.73-3.39-29.58-1.62-4.99.83-9.55 3.24-13.52 6.32.87-5.99 2.17-11.93 4.29-17.61 2.3-5.87 8.07-9.93 14.24-10.76 7.46-1.06 14.89 1.08 22 3.12 26.52 8.54 49.5 24.96 71.25 41.93 1.28-2.66 2.76-5.23 3.66-8.05-.1-1.22-1.14-2.06-1.83-2.99-11.87-13.3-24.11-26.31-37.3-38.33-3.4 2.67-6.34 7.75-11.41 6.14-11.86-3.4-22.07-11.24-34.2-13.92-5.52-1.32-11.26-.11-16.37 2.12 1.99-5.66 4.59-11.15 8.15-16 4.82-6.41 14.18-8.86 21.5-5.55 4.94 2.22 9.39 5.33 13.89 8.29 22.42 15.89 41.32 36.06 59.53 56.48 1.29-2.33 2.51-4.7 3.59-7.13-8.34-14.84-16.19-29.99-25.51-44.26-3.75 1.63-7.79 6.07-12.01 3.18-6.07-3.71-10.53-9.42-15.74-14.18C66.25 52.31 61.02 45.34 53 42.8c-3.17-1.2-6.59-1.07-9.92-1C48.9 34.52 55.83 25.92 66 25.73c6.26-.31 10.42 4.92 14.01 9.26 18.72 22.8 33.01 48.75 47.32 74.43 1.27-1.76 2.93-3.41 3.46-5.57-2.61-14.37-6.22-28.55-9.47-42.8-3.05.54-6 1.7-9.1 1.88-3-.75-4.27-3.98-5.73-6.37-4.99-10.12-9.32-20.56-14.48-30.6-2.83-5.54-7.82-10.17-14.21-10.89C83.89 10.54 91.31 7 99.04 7.09c5.18-.06 9.74 3.55 11.7 8.2 4 9.78 7.22 19.87 9.77 30.12 5.02 18.07 9.24 36.36 13.08 54.71 1.54-1.35 3.26-2.56 4.48-4.23.33-12.01-.07-24.03.2-36.04-1.84-1.07-4.21-1.82-5.07-3.97-.85-2-1.23-4.15-1.61-6.28-1.55-10.83-2.26-21.81-4.73-32.49-1.38-5.89-3.52-11.92-8.09-16.11z" fill="#7e1d2e"/><path d="M691.71 79.38c4.39-.18 8.8-.14 13.21-.1-4.48 22.9-10.17 45.56-14.12 68.56-4.08.31-8.18.28-12.25.02.32-2.59.73-5.17 1.22-7.74-3.54 4.29-8.26 8.05-13.96 8.66-4.4.39-9.31.12-12.85-2.84-4.58-3.4-5.82-9.56-5.6-14.96.39-9.25 3.46-18.79 10.2-25.38 5.53-5.3 13.91-8 21.32-5.43 3.24 1.08 5.39 3.88 7.07 6.7 1.82-9.18 3.96-18.3 5.76-27.49m-19.24 29.21c-3.69 1.35-6.33 4.57-7.94 8.05-2.33 5-3.51 10.6-3.08 16.11.22 2.91 1.87 6.14 4.87 6.97 2.71.46 5.82.48 8.11-1.28 4.44-3.32 6.71-8.72 7.99-13.95.92-4.38 1.58-9.29-.59-13.41-1.86-3.18-6.17-3.5-9.36-2.49zM427 91.2c.48-3.57 1.21-7.09 1.98-10.61 4.39 0 8.77-.05 13.16.06-.43 3.44-1.1 6.83-1.79 10.22-4.43.62-8.9.36-13.35.33zm-46.48-6.75c6.18-.11 12.36-.11 18.54-.07 3.68 21.15 7.28 42.31 10.6 63.52-4.79.23-9.59.29-14.37-.11-.56-5.2-1.28-10.38-1.92-15.57-8.96-.17-17.93-.25-26.89.01-2.83 5.24-5.88 10.36-8.76 15.57-4.76.45-9.54.38-14.29.03 12.07-21.29 24.84-42.19 37.09-63.38m1.48 19.62c-3.29 6.16-7.39 11.9-10.12 18.35 6.68.06 13.37-.01 20.05.03-.59-9.45-2.17-18.84-3.88-28.14-2.48 2.95-4.18 6.42-6.05 9.76zm132.66-19.61c7.01-.21 14.03-.06 21.04-.08 2 15.94 3.73 31.92 5.98 47.83 9.26-15.73 17.53-32.02 26.61-47.85 6.92.02 13.85-.03 20.77.05-3.97 21.24-9.03 42.28-13.28 63.48-4.28.24-8.58.22-12.86-.06 3.35-17.73 7.82-35.25 11-53.02-10.18 17.38-19.51 35.25-29.46 52.75-4.04 1.05-8.3.39-12.41.3-2.58-17.64-4.38-35.39-6.96-53.03-4.51 17.5-7.68 35.35-11.55 53.01-4.13.29-8.28.29-12.41-.02 4.52-21.12 9-42.24 13.53-63.36zm-45.89 16.31c3.1-1.86 6.85-1.68 10.32-1.48-.58 3.86-1.64 7.62-2.54 11.41-3.86.32-8.12.06-11.43 2.39-4.16 3.26-6.66 8.22-7.83 13.29-1.66 7.12-3.09 14.3-4.57 21.46-4.41.36-8.85.3-13.26.03 3.01-15.93 6.97-31.67 9.82-47.64 4.11-.06 8.22-.05 12.33.06-.55 2.9-1.08 5.8-1.58 8.71 2.41-3.22 5.05-6.43 8.74-8.23zm138.03 4.02c10.89-6.68 24.48-6.81 36.56-3.74-2.62 15.65-7.8 30.89-8.72 46.81-4.45.25-8.89.28-13.33.11.33-3.66.96-7.28 1.52-10.91-2.92 4.29-6.2 8.84-11.32 10.62-5.52 2-12.47 1.96-17.06-2.14-3.29-2.83-4.38-7.37-4.56-11.52-.3-11.93 6.72-23.28 16.91-29.23m-2.63 24.26c-.23 3.63-.77 8.64 3.23 10.51 3.86 1.29 8.12-.46 10.69-3.45 6.97-7.52 8.4-18.06 10.66-27.64-12.44-2.88-23.24 9.04-24.58 20.58zm115.46-23.37c11.1-7.54 25.51-8.03 38.11-4.45-3.06 15.51-7.8 30.77-8.93 46.6-4.48.33-8.98.32-13.45-.04.55-3.56 1.1-7.12 1.64-10.69-3 4.78-6.95 9.49-12.62 11.01-4.86 1.26-10.57 1.33-14.79-1.74-3.83-2.83-5.45-7.76-5.39-12.36-.44-11.36 5.97-22.28 15.43-28.33m-.86 30.66c.68 2.74 3.63 3.88 6.22 3.59 4.7-.04 7.91-4.1 10.26-7.68 4.32-7.32 6.32-15.83 7.4-24.18-15.04-2.23-27.11 14.36-23.88 28.27zm59.83-31.77c10.73-6.43 23.96-6.37 35.8-3.48-1.85 9.52-4.22 18.93-6.21 28.42-2.08 9.08-3.52 18.49-7.83 26.86-3.2 6.47-9.68 11-16.74 12.25-9.08 1.6-18.57 1.26-27.38-1.57.65-3.06 1.55-6.06 2.39-9.08 7.98 2.7 17.51 4.61 25.11-.14 6.22-4.08 7.31-11.96 9.12-18.58-3.26 4.05-7.53 7.82-12.92 8.35-4.94.56-10.68.64-14.58-2.94-4.44-3.72-5.04-10.13-4.17-15.5 1.34-10.44 8.25-19.61 17.41-24.59m-3.48 25.5c-.05 3.13-.6 7.35 2.51 9.27 4.26 1.76 9.27-.18 12.06-3.67 6.53-7.53 7.73-17.87 10.11-27.17-12.77-2.83-23.96 9.56-24.68 21.57zM827.99 110c6.86-6.72 16.38-10.52 25.94-10.85 5.89-.23 11.76.6 17.5 1.85-2.81 15.62-7.81 30.88-8.81 46.79-4.49.28-8.99.4-13.47.07.46-3.62 1.06-7.22 1.8-10.79-3.2 4.94-7.43 9.79-13.37 11.27-4.88.99-10.55.96-14.61-2.32-3.6-2.82-4.93-7.59-5.06-11.98-.08-8.92 3.51-17.95 10.08-24.04m4.06 23.02c-.31 3.08 1.59 6.78 5.02 6.86 4.83.83 8.71-2.92 11.26-6.55 5-7.46 6.69-16.52 8.23-25.2-13.83-2.17-25.37 11.82-24.51 24.89zm63.33-33.46c6.82-1 13.83-.35 20.39 1.72-.87 2.75-1.8 5.47-2.77 8.19-5.83-2.08-12.56-3.68-18.48-1.06-2.97 1.07-4.56 5.66-1.5 7.56 5.23 3.9 12.15 5.37 16.54 10.46 2.17 2.48 2.25 6.01 1.83 9.11-1.01 5.63-5.82 9.93-11.15 11.51-8.89 2.84-18.67 2.4-27.52-.34.6-2.98 1.4-5.91 2.37-8.78 6.44 2.87 14.26 4.49 20.81 1.03 2.77-1.5 3.97-5.99 1.08-7.97-5.2-3.91-12.15-5.3-16.46-10.43-3.27-4.58-2.19-11.41 1.88-15.15 3.43-3.49 8.28-5 12.98-5.85zm32.99 7.81c8.98-8.63 22.95-10.01 34.42-6.23-.48 2.92-1.09 5.82-1.6 8.74-5.12-1.57-10.76-2.67-15.93-.77-7.21 2.84-11.82 10.35-12.32 17.92-.65 4.94 1.86 10.63 6.79 12.34 5.08 1.92 10.51.06 15.52-1.22-.51 2.85-.68 5.78-1.59 8.54-1.54 1.42-3.93 1.31-5.88 1.73-7.34.69-15.61 1.38-21.87-3.29-4.7-3.01-6.94-8.67-7.04-14.07-.1-8.7 2.94-17.75 9.5-23.69zm50.53-2.36c10.98-6.94 24.78-7.08 37.03-3.92-2.66 15.63-7.9 30.86-8.72 46.77-4.47.33-8.94.25-13.4-.09.46-3.3.87-6.61 1.15-9.94-3.09 4.57-7.07 8.96-12.6 10.42-5.26 1.24-11.58 1-15.68-2.95-3.79-3.63-4.55-9.27-4.11-14.26.66-10.71 7.28-20.48 16.33-26.03m13.13 3.91c-8.8 3.1-14.49 12.06-15.47 21.08-.32 3.34-.17 7.48 3.01 9.48 4.1 1.39 8.65-.3 11.33-3.59 6.55-7.65 8.56-17.96 10.09-27.63-3-.17-6.11-.46-8.96.66zm57.87-8.91c2.82-1.13 5.9-.78 8.87-.62-.84 3.95-1.92 7.84-2.98 11.74-3.65.03-7.73-.5-10.84 1.84-4.57 3.12-7.04 8.37-8.27 13.62-1.65 7.08-2.88 14.25-4.65 21.3-4.37.24-8.75.3-13.11.01 2.92-15.92 7.07-31.6 9.7-47.58 4.09-.19 8.19-.14 12.29-.07-.36 2.61-.72 5.23-.96 7.86 2.88-3.14 5.66-6.85 9.95-8.1zm-624.78.14c4.35-.02 8.69-.02 13.04.04-2.93 15.96-6.66 31.77-9.92 47.66-4.41.28-8.82.28-13.22-.01 3.29-15.92 6.57-31.83 10.1-47.69z" fill="#29812f"/></svg>