<svg version="1.0" viewBox="0 0 600 101.49" xmlns="http://www.w3.org/2000/svg"><path d="M288.684 99.229h28.384v2.243h-80.282v-2.243h22.639V45.3h-.69l-45.727 56.172h-7.775l-45.5-56.172h-.456v53.93h22.178v2.243h-52.131V99.23h22.635V43.774h-22.635v-2.239h58.991l32.006 41.005 33.153-41.005h63.412v2.24h-28.202v55.454z" fill="#cf0f3d"/><path d="M451.388 101.468v-2.193h18.172l53.607-57.744h7.628l51.364 57.744h17.948v2.193h-71.11v-2.193h23.333l-13.682-15.534h-48.455l-13.9 15.534h22.876v2.193h-47.781zm41.272-19.92h43.745l-21.086-24.483-22.659 24.483z" fill="#1378c7"/><path d="M375.46 43.774v25.754c22.708 0 32.072-1.344 33.257-10.948h6.624v25.037h-6.624c-2.127-9.96-7.705-12.117-33.258-11.85v27.462h28.64c30.755 0 37.372-6.911 42.346-17.053h6.857l-2.131 19.292H316.766V99.23h23.472V43.774h-23.666v-2.243H447.39l1.418 16.154h-6.62c-4.97-8.615-13.958-11.935-26.022-13.194-5.907-.628-12.772-.717-20.578-.717h-25.075 4.946zM89.178 99.217c-4.184-.158-7.647-.743-8.731-1.061-2.453-.736-4.858-1.182-7.055-2.739-.41-.225-.546-.306-.945-.527-.194 0-.457-.364-.65-.364-1.403-1.108-2.608-2.224-2.806-4.006-.298-2.184.438-4.245 1.763-5.896h.012a8.535 8.535 0 011.421-1.425c.612-.453 1.407-.233 2.003-.453.391 0 .6-1.337 1.399-1.12.802.45.213 1.34-.403 1.79v.666c.364.132.79.023 1.205.058-.388.651-.764.663-1 1.054 0 .217.802.217.802.434-.604.674-1.794.232-2.6.674v.45c1.996-.222 4.196-1.779 6.199-.671 0 0-.6.22-1.007.45 1.007.658 2.006 0 2.998.22 1.2.438 2.398 0 3.607.217-.198-.438-.806-.217-1.011-.666 1.607-.442 3.207.45 4.803.887-.6-.659-1.398-1.108-2.394-1.108-.604 0-1.205-.67-1.596-1.34v-.132c0-.174.027-.306.198-.306.5-.124 1.057.108 1.592.306.515.194 1.01.352 1.402.132.748-.407 1.329.352 2.046-.117h.023c.042-.042.085-.065.132-.1-.799-.891-2.2 0-2.999-1.108.798-.45 1.596 0 2.398-.67.403-.45 1.402-.45 2.193-.45 1.003-.22 2.01.229 3.002.229.198 0 .608.441.802.441.798 0 1.596.884 2.394.45 0-.217-.391-.45-.593-.67-.612 0-1.398 0-1.801-.67 0-.221 0-.45.197-.45.992 0 1.806 1.12 2.801.67-1.596-1.108-3.39-.441-5-1.329-.997-.67-2.395-.887-3.2-2.006-.194.45-.597.232-.795.232s-.198-.45-.395-.45c-1.007 0-2.204.218-2.204-.67 0-.89 1.197-.658 1.797-.658 2.204-.45 3.998.891 6.195 1.108.213 0 .213.438.213.67 0 .438-.411.217-.609.217 1 .22 2.19.22 3.196.22 1.403 0 2.999.222 4.401.667.806.221 1.596.67 2.402.221-.608-.438-1.798.229-1.596-.887 0-.438.79 0 1.19-.22l-.202-.218c.201-.45.608-.232 1.007-.232-1.399-.655-2.8-1.329-4.203-1.995.802-1.34 2.208-.438 3.397-.438 0 0 0-.45-.201-.45.41-.67 1.007.217 1.6 0-.198-.453-.593-.453-.992-.67-1.402-.22-2.8-.67-4.2-.887.202-.441 1.198.217 1-.67-.407-1.108-1.809-.89-2.603-1.329.794-.45 1.805-.666 2.603-.45.996.23 2.2-.216 3.2 0-1.596-1.556-3.804.23-5.602-1.328.4-.445 1.004-.666 1.201-1.336 1.201.437 2.603-.221 3.793 0-1.511-.62-3.006-1.255-4.51-1.69-.092-.03-.185-.065-.282-.092-.624-.275-1.248-.117-1.868.093-.371.12-.759.279-1.13.352-1.403.45-2.805.45-4.204-.22.085-.051.19-.097.275-.132a5.658 5.658 0 012.328-.535h1.197c.403 0 0-.662.403-.662.802 0 1.794-.229 2.596 0 1.123.62 2.351.914 3.533 1.197.496.104.984.228 1.464.352.198.233.4.45.608.667 1.19.232 2.394.232 3.192 1.107.198.233.396 0 .396-.216-.19-1.035-.372-1.5.422-1.91l.178-.093c-.194-.667-.6-.884-1.205-1.104 1.403-.45 3.014-.667 4.006.89h.604c0-.453.403-.67.6-.89 1-.229 1.6.89 2.6.89 1.995-.453 3.793-.228 5.582-.453-1.379-.437-2.587-.666-3.986-1.104-.41 0-1.003 0-1.402-.453.6-.655 1.801-.438 2.394-.217.407.217.407-.887.604-.67 1.011.232 2.003.45 2.801.887.604.233 1.801.67 2.595 1.12-.794-1.775-3.393-1.558-3.393-3.115-.201-.868 1.336.608 1.952-.163-3.78-.898-7.561-.542-11.35-1.173-.202-.221-.4-.438-.593-.659 1.186-.67 2.394-1.12 3.599-.891.198.22.384.22.589.442.802 0 1.2 0 2.01.217v-.438c-1.402-.45-2.804-.221-4.199-.45-1.007-.437-2.212.229-3.204.45-3.405.22-6.798-.45-10.196-.221-1.596 0-3.2-.229-4.993 0-1.403.442-2.999 0-4.4 0-1.206-.229-2.6 0-3.801.22-.992 0-2.003 0-2.793-.449-.206-.217 0-.437.19-.437 2.603-.45 5 .22 7.395 0-.992-.891-2.394-.45-3.591-.67-.202 0-.403-.45-.597-.667.798-.453 1.794-.225 2.588-.225.213 0 .213.225.213.442h3.792l-.201-.217c2.607-.662 5.195-.225 7.802-.662-1.805-.667-4.01.209-5.803-.45.608-.449 1.205-.449 1.794-.217-.194-.449-.992-.232-1.186-.67 1.79-.67 3.591-.217 5.389-.45 0-.437-.395-.89 0-1.328.197.438.604.659.802.659 1.204-.221 2.196-.438 3.002.67-.608.45-1.205.45-1.798.45.593.886 1.6 0 2.395.22.197 0 .197.217.197.45 1.197 0 2.596.216 3.8-.45.198 0 .6.887.992.217-1.19-.655-2.592-.438-3.595-1.108-1-.67-2.189-1.557-3.196-2.444.4-.45 1.205-.45 1.604 0 .593.449 1 .449 1.592.67.403.217.205-.67.597-.67.802-.221 1.809-.221 2.607.217 1.197.67 2.398.453 3.8.67.198 0 .198-.217.403-.438 0 .256.201.213.368.22-1.174-.995-2.65-.053-3.773-.89-.407-.45-.798-.67-1.399-1.12.798-.438 1.596-.217 2.197.45 0-.213 0-.667.194-.667.41 0 .813.667 1.208.454-.6-.891-1.6-.454-2.394-1.124-1.402-.658-3.211-.22-4.61-.887 0-.22.21-.22.407-.22.194-.218 0-.439-.198-.439-1.398 0-2.8 0-4.005-.89 1.205-.667 2.607-.446 3.796 0 .407.22 1.007.658 1.596.89.21 0 .81.221.81-.232-.205-.217-.403-.659-.81-.887.605-.655 1.403.67 2.007 0-.198-.217-.198-.438-.198-.655.992-.674 2.592.655 3.204 0 .984-.906 1.6.217 2.6 0-.849-.674-1.77-1.01-2.708-1.267-1.294-.34-2.63-.55-3.894-1.193.194-.437.6-.437.996-.437-.604-.67-1.402-.67-2.204-1.108a6.988 6.988 0 012.998 0c.806.217 1.6.658 2.41.887.39.22.786.441 1 .887-.61-1.337-1.403-1.991-2.604-2.445-.202-.228 0-.449.201-.449.392-.22.802.22 1.205.45.198 0 .395-.23.198-.45-.198 0-.403-.22-.403-.22.794-.888 1.6 0 2.394 0 .197 0 .41.44.608.67 0-.23 0-.45.194-.67-2.189-.888-4.397-1.996-6.601-2.228-1.794-.217-3.591-.217-5.393-.217-3.591-.221-7.194 0-10.793-.438 2-1.12 4.401.217 6.396-.666-.201-.454-.81-.225-1.003-.674 1.402-.887 3.196.674 4.4-.217-1.793-.67-3.796-.45-5.605-1.112.33-.457.725-.539 1.131-.523-.236-.236-.658-.64-.124-1.034.605-.229 1.403.22 2.007 0-2.007-.446-4.203-.446-5.605-2.224 2.591-1.108 5.392-.67 8.197-1.108 1.398-.45 2.8-.45 4.195 0 .403.217.794.438 1.003.887.396-.67-.209-.67-.406-.887-.992-.887-2.19-.887-3.394-1.34-.79-.217-1.596-.217-2.394-.438-2.402-.887-4.807 0-7.395-.45-.407-.22-1.004.217-1.6.217.197.454.992 0 .794.454-.597 1.108-1.995.217-3.192.437-2.197.45-4.4-.22-6.597-.658 1.6-.887 3.393 0 5.198-.233-.209-.216.388-.437 0-.654.996-.667 1.79.654 2.79.217.205-.217-.392-.667-.194-1.12.194-.438.593 0 .992-.217v-.438c1.611-1.12 3.014 0 4.594.655-.786-.655-1.793-.887-2.386-1.774-.205-.438.197-.659.395-.659 1.6 0 3.196 0 4.598.659-1.6-1.55-3.99-1.55-6.198-1.55-3.192.221-6.597.891-9.79.221-4.81-.666-9.208-1.12-13.988-2.223-.213-.221-.612-.454-.612-.67 0-.892 1.007 0 1.205-.67l-.198-.222c.403-.437.992-.437 1.399 0 .201.221 0 .45-.21.45h-.395c-.197.89.806.441 1 .441 1.402.217 2.998 0 4.4-.22 1.798-.45 3.596.67 5.393.89-.198-.22-.794-.22-.597-.67.597-.89 1.798-.22 2.604-.22 1.6 0 3.192.437 4.99 1.108.402 0 .809.449 1.204.232.6 0-.198-.232-.198-.45-2.2-1.34-4.594-.89-6.6-2.448-.202-.22 0-.437.205-.437.399-.229.596.437.988.216-1.794-2.006-4.792 0-6.997-1.336.407-.67 0-1.329.213-1.778.194-.67 1.19-.217 1.992-.217.205.217.399.217.596.217 1.402.232 2.6.887 3.804 1.34.392.217-.197-.232-.197-.453 0-.217.197-.438.391-.438.403 0 .813.221.813.659.787-.221 1.597-.221 2.19 0 .6.45 1.006 1.336 1.804 1.336-.209-.666-.798-.887-1.204-1.336-.198-.221 0-.438.193-.438h1.011c-.604 0-1.01-.22-1.402-.22-1.209-.218-2.003-1.12-3.002-1.558.197-.45.806-.217 1.197-.45-1.197-.887-2.999 0-4.196-1.107 1.197-.667 2.205-.667 3.41-.45-1.414-.434-2.604-.217-4.006-.217-.593.217-1.197 0-1.6-.67-.198-.438.794-.22.403-.658-.814-.45-1.805.22-2.805-.229l.198-.22c-.992-.892-2-.442-2.995-.222.6.442-.201.442-.201.67-1.399 0-2.801.438-4.188.438-1.414.221-3.014.674-4.2.891-.805 0-1.402-1.108-2.409-1.328.202-.45.81-.229 1.201-.229 1.6-.22 3.405.45 5.001 0 .407 0 1.399.666 1.596-.442-.39 0-.794.221-.995-.22 1.39-.667 2.804 0 4.195-.667-.798 0-1.39-.67-2.003-.89.612-1.105 1.407-.23 2.003.22.391.232.6-.45.996-.22 1.007.89 2.196 1.557 3.401 1.107-1.205-.434-2.394-.655-3.196-1.774 1.596-.438 3.196 0 4.595.666-.795-.883-1.798-1.336-2.999-1.557-4.594-.45-8.995-.887-13.392-.45-.403 0-1.6.903-1.797.233-.198-1.12 1.394-.453 1.99-1.12-.786-.654-1.793.45-2.188-.437 1.995-.891 4.195 0 6.392.437-.194-.887-1.205-.22-1.402-.887 0-.22.197-.441.41-.441.992 0 2.189.674 2.995.441 1.193-.441 2.595.233 3.792.233-.805-.903-1.797-.903-2.6-1.124-1.793-.67-3.792-.217-5.585-1.325l.193-.232c-.193 0-.39-.217-.39-.217 1.382-1.557 3.191.217 4.59 0-.407 0-.6-.22-.806-.438.612-.453 1.205 0 1.801-.232-3.595-.887-7.201-.887-10.986-1.557-.403 0-.205-.438-.205-.659 1.402-1.336 3.203 0 4.8-.67C62.602.06 60.394-.133 58.4.06c-1.805.167-3.61.333-5.412.217.004 0 .008.004.012.004 0 .22.798.453.194.67-.992.22-1.992 0-2.983.438.794.22 1.797-.217 2.591.22C51.005 2.73 48.6 2.06 47 3.4c-.391.438-1.402 0-1.99.217-1.202.67-2.802.67-4.003 1.561 1.596.217 2.995 0 4.59-.674.214 0 .412.438.412.438 1.402-.887 2.789-.438 4.385-.655.213-.232.612 0 .612-.449.197.45.806.887.197 1.104-1.402.453-2.603 1.34-3.99.891-.604 0-1.204 0-1.809.229-.395.22-.798.674-1.402.674.197.217-.794.434-.194.434.391 0 .605-.434 1.201-.434.395 0 .198.883.589.654.213-.437.806-.654 1.011-.437 1.79.217 3.785-.891 5.4 0 0 0-.407.887-.806.887-1.995 0-3.99.438-5.799.67-1.596 0-3.397.67-5.195 0-1.003-.232-1.793 0-2.6.67.807.221 1.597-.232 2.205.221-.802.883-2.006.883-2.998 1.557-.41.434-1 .655-1.403 1.325 2.395-1.108 5.002-1.546 7.403-2.448.392-.217.593.902 0 1.123-.34 0-.67.45-.999.477.728.104 1.457-.244 2.185-.043.41 0 1.205 0 1.402-.434 0-.22-.6-.453-.798-.674 1.205-.883 3.994-1.336 3.793.891 0 .438-.593.217-.79.217-.396-.217 0-.655-.198-.887-.41-.22-.802.453-1.205.232 0 .655 1.205.221 1.007 1.105-.213.22-.406.662-.604.662-2.41-.442-4.4.666-6.597.45-.806 0-2.204-.45-2.801.216.399 0 .992 0 1.205.45 0 .441-.806.441-1.008.89.202 0 .4 0 .597.218.41-.45 1.007-.45 1.402-.45 3.196-.434 6.404-.887 9.6-.887.6 0 1.999-.22 1.999.453-.202 1.104-1.798.434-3.006.667-.392.217-.787.887-1 .887-1.402.438-2.587-.45-3.99-.221 0 .22 0 .442-.194.442h-2.804l.197.217c-.197.449-.802.232-1.197.232-1.604-.67-3.196-1.34-5-.891.402 0 1.01-.229 1.401 0 .403.22.593.442.992.442.41.217 0 1.104-.194 1.104-1.596-.438-2.998-.438-4.4-.217.41.67 1.204-.221 1.402.453 0 .883-.992 0-1.205.666-1.189-.666-2.394.655-3.785.438 1.198.67 2.398-.22 3.785.217.407 0 .802-.217 1.205-.438 1.81-.217 3.603-.217 5.4.438 0 0 0 .453-.197.453h-1.6c-.21 0-.21.438-.21.438 1.202.453 2.406-.67 3.603.453-.197.213-.395.667-.802.438-.794-.225-1.6 0-2.394-.225 0 .454-.608.225-.406.454.604.437 1.398.216 2.006.216 0 .221.794.221.194.67a.292.292 0 01-.194.097c.756.314 1.662.16 2.394.562.21.229 0 .45-.201.45h-.794c.403.67 1.402-.221 1.6.67 0 .22-.198.438-.395.438-2.205 0-4.401.232-6.408-1.108-.194-.221 0-.45.213-.45 1.19-.22 1.991.67 3.18.67-1.189-.89-2.998-.441-4.19-1.55.402-.449.797-.449 1.401-.449-1.2-.67-2.2.221-3.405 0-.592-.216-.991-.67-1.596-.445v.445c-1.6.67-3.2.67-4.796 1.33 1.399.228 2.607-.66 3.998 0-.193.449-1 .228-1 .886 1 0 1.798-.217 2.802.233-2.406.887-5.207.438-7.593 1.778 1.6-.453 2.998-.67 4.594-.453.395 0 .198.67.395.67 2.007-.67 3.603 0 5.4.45.202.22.403.437.597.67-.992.437-2.196-.233-3.196-.233-2.8-.438-5.195.67-7.79 1.778 1.6-.438 3.39-1.108 5.187-.887.21 0 .604.666.798.45 1.402 0 2.805.437 4.203.216 1.805-.434 3.397-.434 5.195.221-.79.45-1.798 0-2.6.232 0 0 0 .438.21.438-2.603 1.337-5.203 0-8.004.453-1.193.434-2.196.667-3.39.667 1.79.217 3.797-.903 5.397 0 .992.654 2.588.438 3.99.438.213 0 .213.216.213.449.794 0 .794.438.984 1.108-1.995.438-3.785-.67-5.795-.67-.198 0-.198.453-.198.453.806.217 1.6-.233 2.208.438-.41.449-.608 1.108-1.01 1.336-1.403.221-2.596-.45-3.999.221 1.011 0 2.209-.22 2.402.666.194.442-.604 0-.802.442-1.193-.659-2.394.217-3.595.217.593.453 1.201-.217 1.798 0 .197 0 .197.232.197.453-.197.217-.197.446-.39.446-.613 0-1.206.22-1.806.22-1.596.221-3.39 0-4.99 0 0 .438-.604.221-.406.438.801.233 1.793-.658 2.595 0-1.197 1.12-2.793 0-3.998.67-.596.45-1.398.67-1.793 1.34 1.596-.22 2.998-1.111 4.594-.67 0 .45-.597.45-.597.67.4.218 1.205-.22 1.596.218-.999.89-2.397.89-3.39 1.557.597.22 1.4-.438 1.19 0-.593 1.108-2.196 1.561-3.2 2.448.806-.22 1.6-.453 2.41-.67 1.2-.217 2.6-.887 3.982-.67.608.232.41.887 0 1.12-1.79 0-3.39.22-5.187.658-.794.22-1.801.903-2.406 1.778 1.201-.658 2.406-1.778 3.808-1.329.396 0 1.197 0 1.391.454 0 .434-.995 1.104-.798 1.104 1.201.441 2.603-.45 3.8.22-.91.818-2.65.512-3.409 1.631-.07.105-.135.233-.182.36.376-.127.744-.263 1.116-.36.229-.034.445-.073.682-.073 2.8-.221 5.388-1.337 8.19-.67a13.61 13.61 0 01-2.403.743c-3.812.833-7.705.229-11.486 1.085.694-.035 1.298.341 1.895.837-1.201.67-2.604-.217-3.595.45-.806.437-1.992.22-2.6 1.328 1.197-.22 2.6-1.55 3.196-.22.198.673-1.596 0-1.19 1.107 0 .233 1.19-.434 1.585.233 0 .216-.588 0-.588.437 1.596.217 3.192-.437 4.594.217-1.205.67-2.603.237-3.796.45v.441c.197.229.798 0 .6.229-.403.67-1.604.22-2.212.89.814 0 1.402 0 2.212.439.391.449 1.596-.438 1.794.228.197 1.108-1.403.891-2.197.891-2.204 0-4.4 0-6.601.217v.453c.802-.232 1.596-.453 2.398 0-1.794 1.325-3.982.655-5.997 1.554 1.205 0 2.41 0 3.599.662-1.19 1.116-2.79.446-4.192.887 2.79.45 5.788-.441 8.589.229 0 .441-.4.22-.597.441-.802.217-1.6-.22-2.402.217-.596.229-1.189.45-1.793.45-.205.22-.403.438-.794.438 1.189.453 2.192-.888 3.39-.438.6.438 1.6 0 1.402.67 0 .438-1 .22-1.403 1.108.6 0 1.403-.22 1.798.434-1.6.89-3.196.89-4.796.674-1.794-.438-3.8-.221-5.594 0 .589.217 1.201 0 1.596.67-.798.666-1.797 1.104-2.8 1.557.604 0 1.003-.22 1.402-.453.193 0 .6.453 1.003.233 0-.233 0-.45.194-.45.805 0 1.603-.22 2.208.217-.41.453-1.205-.217-1.403.67 1.403.221 3.394-.887 4.599.221-1.159.694-2.43 1.085-3.723 1.426-2.053.554-4.157.995-5.877 2.359.605 0 1.596-.233 2.003-.233 2.805-.437 5.393-.875 8.193-.658.593 0 1.798-.217 1.6.658-.403 1.34-1.801 1.786-3.401 1.786 0 0 0 .442.198.442.81-.217 1.603 0 2.196-.442.604-.228 1.205-.445 1.81-.887.592-.228 1.204-.445 1.797-.228.197.228.197.449.197.67-1.197 1.336-2.797 1.336-4.397 1.774 1.197.453 2.402-.438 3.789-.438 1.205.221 2.212-.666 3.607-.45-.198-.44-1.004-.216-.802-.67.406-.658 1.809-2.432 2.405-1.557.396.454-.81.9-.596.9 1.398 1.556 2.785-1.116 4.594-.446v-.454c-.604-.216-1.205.233-1.809-.216 1.403-.891 3.212-.891 4.61-1.779.097 0-.043-.05-.217-.131-.174-.093-.383-.194-.383-.306 0-.891.786-.67 1.193-.67 2.603-.67 5.195-1.779 7.597-.67-1.403.449-2.6.886-4.002.67.608.883 2.01-.67 2.204.67a.755.755 0 01.02.306c-.078.484-.71.763-1.225.585.206 1.104 1.403 0 1.205.666 0 .217-.407.875-.604.875-.992.454-2.197-.216-3.196 0-1.403.454-2.805-.216-4.203.67-.198.23 0 .45.213.45-1.008.666-2.205 0-2.999 1.108h-.608c1.402.228 2.6-.217 3.998 0l-.198.228.198.221c-.604.221-.996.891-1.596 1.108-1.205.221-2.402-.438-3.603.45 1.003.22 2.007-.229 2.999.22-.6.438-1.403.221-1.996.438 0 .233 0 .45.198.45 1.402 0 3.002-.217 4.405.22-1.011.67-2.2 1.337-3.208 1.775 0 0-.198-.438-.391-.438-.806 0-1.403-.45-2.204-.666-.992-.217-2 .216-3.003.449.202 0 .608 0 .608.217-.197.438-.801.22-1.204.22-1.399-.886-2.999-.437-4.401-1.103-1.395-.674-2.998-.891-4.393-.237 0 0-1.003 0-.597.237 1.403.433 3.196-.454 4.401.433-1.6 1.554-4.006 1.12-5.408 2.666 2.607-.887 5.195-1.329 7.802-1.329 1 0 2.2-.45 3.192.442-2.192.449-3.99 1.557-6.194 2.223-.198.221-.198.67-.597.891-2.006.667-3.804 1.558-5.4 2.662 1.003.232 2.007-.651 2.999-.651 1.197 0 2.998-1.79 4.195-.674-.674.949-2.1 1.084-2.747 2.084-.112.17-.186.364-.251.585.116-.256.29-.43.492-.585.166-.112.34-.21.515-.306.991-.221 1.793-.453 2.591-1.104.407-.233 1 .217 1.399 0 .604-.453 1.209-.674 1.797-.903.21 0 .21.229.21.45-.21.453-.798.453-1.004.887.597.449 1.201-.434 1.802-.434.999 0 1.793-1.344 2.603-1.573 1.793-.659 3.59-.659 5.385-1.108.604 0 1.204-.438 1.797-.666 2.208-.442 4.203-.659 6.404-1.108 1.007-.221 2.002-.67 2.998 0-2.398 1.108-4.99 1.553-7.593 1.553-.608.221-1.003 1.112-1.809 1.329-2.592.45-4.99.45-7.384 1.573 1.201.65 2.588-.674 3.793.217 0 .217 0 .666-.198.666-.883.271-1.685.38-2.518.527-.48.097-.968.194-1.487.364 1.007-.232 2.2-.67 3.211 0-.407.22-.608.655-.806 1.108 0 .22.4.22.593.22.41-.22.41-.673.802-.89.794-.438 1.608-.438 2.41-.438.193 0 .39.438.39.887.702-.263 1.341-.825 2.015-1.251.492-.295 1.008-.527 1.585-.527 2.204-.232 4.195-.45 6.407-.666-1.205-.217-2.212.217-3.409-.217 2.007-1.124 4.203-1.124 6.392-1.79.41 0 1.007-.22.802.217-.194.899-1.596 0-2.2 1.12.801.453 1.596 0 2.405.22.194 0 .194-.441.395-.441 2.205-.229 4.792-.899 6.602.441-1.81.667-3.8-.441-5.594 0-1.426.485-2.75.957-4.331 1.654l-.442.004c-.337.105-.678.229-1.027.349h-1.402c-1.797 0-3.599 0-5.392.655 0 0 0 .453.197.453-1.995.67-4.195 1.774-6.194 1.995-1.403 0-2.797 1.34-4.401 1.778.992.666 1.801-.438 2.998-.89.194 0 .4 0 .597.22.201.67 0 1.12-.403 1.573-.194.434.205.654.403.875.395-.875 1.402-1.778 2.204-.875.198.217 0 .654 0 .875.798-1.112 1.995-1.999 3.196-1.999.403 0 .403.67 0 .887.992 0 1.805-.666 2.592-1.336.604-.22 1.2.45 1.809 0 1.402-.659 2.8-1.329 4.385-1.542.21 0 .21.213.21.434.592-.22 1.193-.434 1.797-.434.197-.22.597 0 .597-.453 0 .232.805.232.197.666 2.007.221 4.002-.434 5.997-.434-.794-.67-1.794.221-2.39-.67 0-.22 0-.45.193-.45 2.003 0 4.204.23 6.195 0-1-.89-2.402 0-3.587-.22-.214 0-.214-.22-.411-.453a7.96 7.96 0 011.007-.566c2.332-.918 5.365-.821 7.4-.98.24 0 .263.248.24.527-.02.194-.047.403-.047.585-.593 1.995-1.201 3.99-1.995 5.78-1 1.995-2.402 3.773-4.203 5.113-2.402 1.554-4.936 2.727-7.826 3.134l-30.94-.008c0 .613-.012 2.046 0 2.259h121.566v-2.255H89.178zm7.403-21.143c.392.232.996.232 1.403.67-.6.217-1.6.887-2.197.217-.197-.438.794 0 .597-.438-.206-.217-.794.22-.794-.217.197-.457.635-.426.991-.232m8.201-16.441c1.387.217 2.983 0 4.386.887.209.217 0 .434-.198.434-.798 0-1.476.19-2.2-.217-.798-.438-1.596-.217-2.398-.666.201-.221.201-.438.41-.438m-4.4-17.344c.197 0 .24.744.6.45.798-.67 1.596 0 2.402.22 0 .221.79.438.194.667-1 .22-2.007.22-2.999 0-.395-.229-1-1.116-.197-1.337M12.219 58.065c-.395-1.108 2.205-1.108 3.406-1.108.197 0 .197.232.395.232-1 1.104-3.196 2.216-3.8.876m10.2 6.45c-.404 1.12-2 .232-2.999-.217.198-.453.806-.67 1-.453.797 0 2.23.027 1.998.67m1.6-1.108c-.403 0-1.204.22-1.204-.217-.198-.453.801-.67 1.204-.236v.453zm0-4.672c0 .229 0 .45-.197.45-1.608-.221-3.003.67-4.599 0 .396-.221.593-.45 1.004-.221v-.446c-.806.217-1.6 0-2.406 0 0 .446-.201.446-.399.666-.395.221-.395-.22-.604-.449 0 .229 0 .45-.202.45-.193-.45-.391.22-.596 0-.198-.221-.395-.221-.198-.45 1.402-.88 2.805-1.329 4.405-1.108.193 0 .193.229.193.438 1.403 0 2.588-.659 3.99 0-.197.228-.39.228-.588.228-.206.225 0 .225.197.442M71.595 77.85c-.407 0-.802.225-.996-.217 0 .217 0 .442-.205.442h-1.798c-.209 0-.209-.442-.209-.659.21-.232.604-.45 1.007-.45.6 0 .802.218 1.205.667.391-.217.786-.45 1.197-.217 0 .217-.201.434-.201.434m-3.406-27.56v-.438c.605 0 1.399-.67 2.007 0-.608.667-1.205.667-2.007.438m.802 15.782c-.197.221-.395.45-.604 0 0-.437 0-1.108.407-1.325.395 0 .6.888.197 1.325m0 4.227c.198-.891 1.205-1.112 2.197-.891.197 0 .197.22.197.437-.197.454-.677.55-.991.9-.593.658-1.205 1.998-2.007 1.777-.794-.22.21-1.336.604-2.223m2.805 3.331c0 .221-.263.062-.41.221-.593.67-.992 2.01-1.992 1.337.6-.888 1.205-1.775 1.991-2.228.21 0 .411 0 .411.232v.438zM70.99 62.3c-.39-.23-.926-.814-.39-1.12.39-.217.995 0 1.39 0 1.402-.659 2.8-.659 4.203-.659.198 0 .198.22.391.442 0 .217 0 .449-.193.449-1.205.438-2.402-.45-3.41.22-.588.218-1.185.667-1.99.667m5.593 9.104c-.995 0-2.003.228-2.99 0 .395-.887 1.394-.438 1.797-1.104.589.445 1.402-.221 1.794.445.197.442-.392.442-.6.659m2.2 5.563c0-.221 0-.438.193-.438.213 0 .213-.039.41 0 1.403.217 2.802.217 4.193.887-.19.217-.396.659-.597.659-1.201-.442-2.193-.225-3.192-.659-.205 0-.814 0-1.007-.45m4.606 5.331H82.19c0 .229 0 .45-.198.45-.806-.221-1.596 0-2.2-.45.604-1.329 1.793-.67 2.99-.67.202 0 .609-.217.799.229 0 .22 0 .441-.19.441m11.788-11.11c-1.2.445-3.002 1.115-3.793-.221-.41-.45.612-.755.79-.666 1.004.445 2.209-.221 3.003.887m-1.6-5.551c.198.437-.597.437-1.2.437-.795 0-1.794.221-2.395-.437 1.205-.45 3.196-1.337 3.595 0m-3.397-4.223c.596.438 1.204.659 1.801.659.194 0 .395.228.395.449-.201.434-.616.318-.794.217-.806-.438-1.798.217-2.402-.666.407-.221.604-.891 1-.659m-4.401 11.11c.596 0 1.193-.166 1.805 0 .798.221 1.79 0 2.398.67.198.221 0 .438-.198.438-1.007-.217-2.002.221-2.998-.217-.41 0-.802 0-1.205-.453-.193-.217 0-.438.198-.438m0 9.553c-.787.221-1.402.45-2.2.221.406-.22.798-.887 1.2-.67.411.229.802 0 1 .45m-1.402-5.548c-.798-.233-1.597.217-2.19 0-.197-.233-.604 0-.604-.45 0-.216 0-.216.198-.453.21-.217.279.473.608.237.593-.454 1.596-.237 2.193.217.197.216 0 .449-.205.449m0-10.006c0 .437-.59 0-.798.437-.19.225-.396 0-.396-.217.206-.22.349-.449.802-.449.194 0 .392.229.392.229m-.988-3.332c.19 0 .19.217.399.438 0 .217 0 .453-.21.453-.395 0-.798-.453-1.189-.236-1.003.236-1.995-.217-2.804.453.81.217 1.8-.217 2.603.217-1.794.887-4.002 1.557-5.8 1.12a2.79 2.79 0 00-.418-.113c.05.085.105.213.221.333-.604.438-1.007.887-1.794.887-.209 0-.209.217-.41.217s-.202-.217-.202-.437c.36-.79 1.042-.876 1.763-1.054-.976-.07-1.987.136-2.75-.72.987-1.12 2.386-1.12 3.59-.667-.197.217-.197.217-.41.434.813-.434 2.007.232 2.41-.67.197-.217-.795-.217-.795-.655 0-.236.593-.453.992-.453.802 0 1.81.453 2.6.453.805.217 1.398 0 2.204 0m-.609-3.115c0-.22-.197-.22-.39-.22 0 .22 0 .437-.202.437-.605 0-1.004-.217-1.596-.437-1.616-.221-3.212.22-4.614-.67.41-1.779 2.007-.221 3.211-.892-2.398-1.104-5.202 1.34-7.201-.437-.194-.229.81-.229 1.205-.45-.396-.449-.76-.217-1.205-.217-.194 0-.194-.232-.395-.232.995-1.108 1.999-1.778 3.196-2.444.6-.438 2.002-.221 2.804.666-.802.453-2.006-.217-2.607.89 0 .233 0 .671.198.671.616 0 1.205-.22 1.801-.22 1.201.22 1.991 1.107 3.196.67.41-.233.806-.888 1.402-.67.605.22.605 1.107 0 1.336h-.991c.197 1.55 2.188.209 2.797 1.55.19.449-.407.449-.609.67m-7.39-17.123c.197-.442.611-.333.999-.221.794.22 1.596-.438 2.196.22-.798.9-3.401 1.787-3.196 0m9.39-5.55c1-.442 2.805-.67 3.003.449.193.22-.771.318-1.193.438-1.597.449-3.2.89-4.808 0 1-.217 2.007-.667 3.211-.667l-.213-.22zm3.196 17.11c0-.22.213-.22.407-.437 0 .217.198.182.395.217 1.205.22 2.41.22 3.398.887-.79.22-.593.453-.988 1.123-1.007-.67-2.607-.232-3.405-1.34 0-.22.406-.22.6-.22-.194 0-.407 0-.407-.23m-.193-9.552c0-.221.406-.221.6-.221.198 0 1.6 0 .992.658-.388.229-1.186 0-1.592-.437m-2.394-5.114c.987-.438 2.03-.752 2.994-.217.395.217.798-.22 1.205.217-1.205.67-2.8.67-4.2 0m-.608 4.006c.411.217 1.403.217 1.205.658-.596 1.337-2.595 0-3.796-.441.794-.434 1.882-.62 2.591-.217m-2.39-4.223c0-.22.391-.22.593-.22v.437c-.202 0-.593 0-.593-.217m-.201 7.996c-1.004.67-2.204.887-3.405.45.604-.218 1.2-.218 1.611-.892.593.442 1.19 0 1.794.442m.995 2.444c-.201-.217 0-.438.206-.438.19 0 .232-.135.399 0 .794.659 1.99-.232 2.8.659 0 .229 0 .453-.213.453-.987-.453-2.196.213-3.192-.674m.605 6c-.21-.437.224-1.107 1.402-1.107.198 0 .198.217.391.217l-.193.22c.794.233 1.793 0 2.587.903.213.217 0 .438-.193.438-1.407 0-3.405.666-3.994-.67m3.393 1.786c-.395 0-1.197.209-1.6-.45 1.802-.449 3.6-.449 5.393-.449.608 0 1.402 0 2.006.45-1.793 1.557-3.8.449-5.799.449m7.396-4.451c0 .217 0 .449-.194.449-2.007 0-4.203.438-6.195-.67.59-.67 1.596.22 2.197-.67.391-.45 1.092.197 1.79 0 .805-.213 2.01-.213 2.402.89M91.983 36.96c-.205 0-.399 0-.399-.229a1.68 1.68 0 011.995 0c-.198.45-.597.229-1.003.229 1.611.89 3.405-.666 4.807.22-1.402.442-2.816.54-4.4.892-1 .217-1.399-.67-2.205-.891.41-.667.806.22 1.205-.221m-1.398 1.778c0 .225 0 .442-.198.442-1.205-.67-2.41.666-3.599-.217.798-.674 1.77-.674 2.8-.674.396 0 .799 0 .997.449m-7.803-3.115c2.41.438 4.603-.22 6.807.438-.6 1.12-1.612 0-2.406.453-.395.217-1 .667-1.402.446-1-.666-2.2-.446-3.196-.899-.194-.217 0-.438.197-.438m-2.99-3.552c.802.217 1.596.438 2.2.887-.209.221-.209.442-.407.442-.991-.221-2.196.228-2.998-.67.391-.221.593-.833 1.205-.659m-6.198-6c1.995 0 4.001-.67 5.795.658.198.232 0 .45-.198.45-1.003 0-2.204-.888-3.211-.218-1.19.655-2.785 0-4.184 0-.201 0-.201-.453-.201-.67.592-.67 1.387-.22 1.999-.22m0 7.557c.395 0 .987 0 .805.438-.209 1.337-2.006.67-2.804.22.592-.22 1.204-.658 1.999-.658M72.59 46.296c.21.22.605.22.802.655 0 .232 0 .453-.197.453-.605.22-1.422.6-1.6 0-.21-.67.592-1.108.995-1.108m-.995 4.66l-.21.221h-.395c-.197-.22 0-.434.198-.434s.407 0 .407.213m.395-33.563c.197 0 .469-.058.6.232.21.438 1.004 0 1.197.438-.592.217-1.6.67-2.192.217.395-.217 0-.655.395-.887m-1.596.45c.205.22.399.437 0 .658-.4 0-1 .232-1-.221-.205-.438.678-.79 1-.438m.991 1.329c.21 0 .411-.22.605-.438.197 0 .403.217.197.438-.802.666-2.192.891-3.196.453.597-.89 1.577-.453 2.394-.453m-1.797 14.008c.608 0 1.205 0 1.6.45-.589.437-1.387 1.107-2.197.875-.197 0-.197-.217-.197-.438.197-.22.197-.22.395-.438-.198 0-.802.217-.802-.228.21-.442.802-.221 1.201-.221m.608 7.337c.198.221 0 .438-.201.438h-1.608c-.198 0-.198-.217-.395-.217.395-.67 1.596-.67 2.204-.22m-2.8-24.011c.197 0 .197.217.197.453-.593.666-1.6 1.321-2.402.666.41-.666 1-.45 1.399-.902.197-.217.604.236.805-.217m-2.599 0h.395c.213 0 .802-.438.802 0-.198.453-.802 1.12-1.395.453 0-.236 0-.453.198-.453m-6.593 1.336c1.8-.217 3.397-.217 4.99.438-.19.67-.787.453-1.198.453-.6.217-1.19.438-1.6.217-.596-.45-1.003-.67-1.596-.67 0 .453-.205.67-.399.67-1.402.221-2.797.221-3.998-.45 1.201-.437 2.596-.51 3.8-.658m.392 17.781c0 .221-.194.438-.194.438-.593-.438-1.797-.217-1.6-1.104 0-.453.597-.67 1.201-.67.593 0 .798.45.992.67 0 .446-.593.217-.79.217.197.229.197.229.39.45m-2.188-9.786c0-.217.593-.438.593 0 0 .232-.593.232-.593 0m1.596 11.343c.202.22 0 .441-.194.441-.604 0-1.007 0-1.615-.441l-.391.441c-.403-.22-.794-.662-.794-1.108 0-.453.612-.329.991-.22.802.22 1.399.437 2.003.887m-2.603 2.886c0-.221 0-.438.205-.438.198 0 .113.217.395.217.194 0 .194.22.407.22-.407.45-.604.45-1.007 0M55.2 62.3c-.193 0-.193-.228-.193-.45 0-.216.193-.216.193-.437.403.22.403.659 0 .887m-1-32.893c-.204.217-.402.654-.596.654-.802 0-1.402.67-2.003.891-.201 0-.201-.437-.596-.437-1.205 0-2.607.217-3.793-.67.992-.888 2.197 0 3.394-.438.995-.45 2.394-.667 3.595 0M43.307 59.82c-1.088.562-2.328.283-3.157-.453.395-.45 1 0 1.403.22.794.175 1.328-.627 1.921-.519 1.058-.457 2.138-.666 3.332-1.003.604 0 .999.453 1.398.899-1.697.186-3.242 1.01-4.897.856m1.298 2.25c-1.197 1.12-2.8.884-3.8 0 .41-.437 1 0 1.402.23 1 .22 1.6-1.12 2.398-.23m-8.395-2.665c-.395 0-1.189.229-1.189-.22.182-1.12 1.585-.667 2.386-.892 1.205-.437 2.166-.228 3.6-.228.209 0 .209.228.406.228-1.6.891-3.409.442-5.203 1.112m11.002-8.228c-.213 0-.604-.22-.604-.434 0-.453.391-.89.802-.674.395.45.794 1.108 1.19 1.778 0 .217 0 .454-.202.454-.4 0-.593-.237-.79-.454v-.437c0-.233-.198-.233-.396-.233m-6.407-21.554c1.6-.667 3.393-.217 5.005.437-.213.891-1.007.67-1.81.67-.99 0-1.793.221-2.784-.216.395-.454.991-.221 1.6-.454-.609-.216-1.403.233-2.011-.437m6.194 4.005c.41.217 0 .876.213 1.108.395.221 1.14-.12 1.387.438.198.45-.395.45-.6.67-.787-.441-1.991.67-2.402 0-.589-.887.41-.22.806-.67-1.798-.67-3.588-.217-5.397-.67 2.003-.217 4.002-.876 5.993-.876M49.8 39.63c0 .217-.24.34-.391.217-.612-.438-1.41-.666-1.802-1.337 0-.22 0-.437.198-.437.794 0 1.801.666 1.995 1.557m-7.996 1.995c.403-.887 1.604-.438 2.608 0-.411.45-.802.67-1.004 1.108-.593.22-1.797-.659-1.604-1.108m3.204 5.56c-.596.44-.968.89-1.6.89h-.593c-.213 0-.41-.217-.213-.45.605-.673 1.81-1.107 2.406-.44m-.403-4.452c.798-.659 2.003-.438 3.002 0-.999.903-2.204.45-3.002 0m3.994 13.57c-.6.438-1.19.887-1.991.887-1.205 0-2.196.876-3.401.438.6-1.108 1.801-.438 2.603-1.108.593-.67 1.797-.45 2.79-.217m-.202 6.652c0 .236.81.236.201.674-.395.217-.992-.267-.992.217v.453c-.801.217-2.01.666-2.599-.217 1-1.127 2.204-.89 3.39-1.127m2.405 5.784c-.592 1.107-1.797-.217-2.405.67-.4-.67-1.186.22-1.592-.438.999-.899 2.8-.45 3.997-.232m-.592-18.448c-.213 0-.605.229-.802-.22 0-.218 0-.439.197-.439.194 0 .252-.155.392 0 .213.221.805.438.213.659m1.797.887c-.608.233-1.003.45-1.615 0 .612-.434 1.007-.434 1.615 0M50.211 62.52c.592.217 1.75.205 1.6 1.108-.21 1.12-1.6.67-2.402 0 .197-.438.391-1.108.802-1.108m2.196 3.115c.194.22.395.887 0 .887-.806.22-2.014 0-2.014-.667 0-.89 1.503-.794 2.014-.22m-2.8 4.21c.786 0 1.994-.216 2.8 0 .395.233.593 1.12.194 1.558-1.201-1.558-3.18-.659-4.994-.659-.395 0-.608-.228-.801-.445.801-.67 1.99-.454 2.8-.454m3.196 1.786c0 .225.198.67-.201.891-.194 0-.4-.22-.79-.22-.21 0-.21-.23-.411-.446.41-.225 1.007-.225 1.402-.225m-4.598-24.448c.802-.232 1.832-1.515 2.402-.887.197.22.794-.229.995 0 .407.655 1 .438 1.593.887.217.22 0 .442-.194.442-1.6 0-3.2.232-4.796-.442m3.196-6.667c-.395 0-.198-.887-.597-1.108.597-.445 1.267-.523 1.798-.228.399.228 1.003.228 1.395.666-.585 1.108-1.794.22-2.596.67m.201-19.788c.21 0 .21.229.407.229-.407.441-.806.441-1.003 0 0-.229.395-.229.596-.229M47.41 18.95c.589 0 .984.17 1.596 0 .794-.217 1.387 0 1.999.221-.612.229-.794.666-1.205.891-.794.445-1.801-.225-2.588-.662 0-.229 0-.45.198-.45m-1.6.45h.798c.198 0 .198.224.198.437-.403.454-1.21.71-1.21 0 0-.213.214-.437.214-.437m-.802 4.443c.802-.217 1.6 0 2.402.22-.604.45-1.205 0-1.813.45 1.011 0 2.01-.67 2.8.438-1.398.67-2.994.67-4.59.228-.6 0-.992-.228-1.6.221-.201-.666-.403-.887-.991-1.12 1.189-.654 2.61-.108 3.792-.437m-1.801 4.66a9.672 9.672 0 014.997 0c0-.217 0-.438.194-.438.81 0 1.995-.67 2.405.438.202.67-.592.453-.805.453-3.192.45-6.388.45-9.584.217.802-1.108 1.793-.434 2.793-.67m-.392 17.344c-.41.449-.81.449-1.402.449-.608 0-1.205-.229-1.6-.45.992-.449 1.991-.449 3.002 0m-.41 6.218c-1.19.67-2.999.67-4.4.237.41-.891.98-.675 1.599-.675 1.003 0 2.007-.449 2.8.438m-5.392-16.22v.45c-1.007.437-2.204.887-3.393.22.995-.67 2.196-.22 3.393-.67m-.197 6.23l-.21.22c1.004.887 2.201-.67 2.999.217 0 .221-.504.027-.593.221-.81 1.778-3.006 1.12-4.397.666-.604-.217-1.402-.217-2.002-.666 1.204-.659 2.8-1.325 4.203-.659M30.41 44.07c.605-.217.973 0 1.596 0 1.007 0 1.81-.434 2.801-.217.213.217.395.658.802.887-.407.658-1.197 0-1.794.22v.667c-1.402.89-2.607-.446-3.804-1.116.198-.22.198-.441.4-.441m-.4 6c.4-.217.608.221.806.45 0 .224 0 .658-.198.658-.608 0-1.2.233-1.809-.22.407-.214.802-.667 1.201-.888m-1.2 5.563c3.8-.232 7.592-.453 11.396-.67-1.003-.67-2.204 0-3.196-.22 0 0-.802-.45-.197-.667 2.789-.891 5.807-.341 8.782-.891 1.209-.229 2.402.22 2.8 1.329.4.887-.79.449-.987.449-2.007.217-4.203-.67-5.997.438 1.19-.221 2.394-.221 3.595.232 0 0 .802.438.198.438-2.39.45-4.599.887-6.791.887-1.008.232-2.205-.217-3.212-.438-2.591-.217-5.396-.217-7.992-.217.407-.67 1.205-.67 1.6-.67m5.005 2.224c-.41.209-.604.437-1.007.437-.197 1.782-2.189.891-3.196 1.782-.604.217-.604-.67-1-.89.605-.45 1.4-.221 2.205-.45.391 0 .198-.67.198-.67-1.403-.438-2.794.453-4.196 0-.205-.21-.798-.659-.403-.659 3.003-.666 5.997-.887 8.995 0v.45c-.604 0-1.2-.229-1.596 0m-8.2 16.665c-.4 0-.4-.67-.601-1.108 0-.67.883-.937 1.193-.67.806.67 1.41.217 2.208.217.802.232 1.794-.659 2.6-.887.399 0 .794.228 1.204.45.392 0 .992-.45 1.399 0-2.41 1.998-5.203 1.557-8.004 1.998m7.4 1.34c-.206 0-.206.434-.206.667-.802.655-1.991.438-2.6 0-.79-.45-1.398.655-2.192-.233 2.394-.887 4.997-1.107 7.395-1.995 1.194-.449 2.592-.67 3.994 0-1.999 1.108-4.203 1.562-6.392 1.562m6.392-5.118c-1.402.659-3.002.442-4.598.442-2.394-.442-4.397.67-6.79 1.336-.198 0-.4-.45-.4-.45.604-.886 1.6-.67 2.394-1.107.198-.22-.794-.22-.794-.22.992-.9 2.197-.23 3.196-.446l-.194-.454c0-.437.59-.437.794-.658.996-.217 2.007.22 2.991-.217.4-.45.81-1.12 1.402-1.344h1.205l.194.445c-.391.667-1 .667-1.596 1.116.197 0 .197.22.197.442.4 0 .795 0 1.205-.442.593-.217.794.442 1.201.89.198.222-.209.439-.407.667m1.6-3.331c-.201-.454-.798-.229-.995-.229-1.81-.662-3.607.229-5.203.666-.596.221-1.794.67-1.999 0-.197-.89 1.007-.437 1.604-1.108.395-.22 1.197.217 1.592 0 2-.887 4.006-.887 6-.449 1.996.229 4.2.229 5.994 1.557-1.193.454-2.189.454-3.394.454-.604 0-.798-.891-1.398-1.12-.802 0-1.596-.225-2.2.229M53 81.855c-.4.89-1.19.22-1.798.441-.596.229-1.793.802-1.793 0 0-.22.197-.67.391-.67.593 0 1.003-.217 1.402-.438.609 0 1.205-.441 1.798 0v.667zm.194-5.56c-.194.45-.992.67-1.186.233 0-.45.194-.903.4-1.34-2.197.22-4.204 0-6.4.437-1.205.454-2.639.853-3.406 0-.197-.217-.798-.437-.197-.654 2.007-.67 4.594 1.108 5.799-1.12 1.596.45 3.196-.438 4.598.45.609.22.609 1.324.392 1.994m.217-32.897c.387-.217 1.12.237 1.185.454.213.658-.6 0-.992.217 0-.217-.802-.434-.193-.67m.585 15.12l.205.216c1 .67 1.197 2.228.201 2.228-.406 0-.991-1.558-.406-2.445m.813 4.672c0-.453.391-.453.794 0-.403.217-.794.438-.794 0m.992 2.882c-.403-.437-.794-1.108-.794-1.774 0-.217.39-.217.596-.217.198 0 .113.24.198.434.197.45.391 1.12 0 1.557m.802-19.338c-.411.217-1.205-.887-.411-1.337 0 0 .322.024.41.229.198.441.396 1.108 0 1.108m.601 25.122c-.205 0-.205-.225-.205-.453 0-.217.205-.217.205-.438.391.22.391.666 0 .891m1.39-29.345c-.39.221-.592-.217-.786-.438 0-.232.396-.232.593-.232.194 0 .194.232.4.232 0 .221 0 .438-.206.438m0-2.882c0-.22-.593-.22-.194-.666.4-.454.992-.225.992.217 0 .228-.4.666-.798.449m2.212 26.664c-.616-1.546-.213-3.34-.616-5.113 0-.438.616-.217.798-.217.407 0 .81.449.81.67-.198 1.557.197 3.552-.992 4.66m-.802-10.66c.186-.233.186-.671.589-.454.213 0 .352.294.213.453-.213.217-.213.438-.41.438-.206 0-.206-.221-.392-.438m-.612-1.778c-.186-.232 0-.45.21-.45.402 0 .99-.22 1.386.218 0 0 .213-.217.407-.217.205.217.403.449.6.67-.6.666-1.991.438-2.603-.221m.612-5.78c0-.45.875-.802 1.197-.45.194.233 0 .67-.213.67h1.205c.213 0 1.402.218.81.446-.597.442-1.802-.228-2.41.442 0-.442-.59 0-.59-.442 0-.197 0-.387.121-.433-.074-.043-.12-.113-.12-.233M61.6 34.957c0 .446-1.007.666-1.596.446.186-.229.391-.667.802-.667.395 0 .992-.232.794.221m-.794-5.334h.395l-.213.22-.182-.22zm.992 16.003c.197-.229.608-.229.805-.229 0 .217.717.43.275.64a.507.507 0 01.314.48c0 .434-.589.666-1 .666-.394 0-.592-.887 0-1.116a.856.856 0 01.249-.085c-.24-.081-.52-.22-.643-.356m-.403-2.894h-.407c0-.22-.798-.438-.182-.659-.41-.449-.41-1.12 0-1.336.395 0 .794-.22 1.19.217.197.232.801.453.801.67-.391.67-1.402-.217-1.991.45.395 0 .992-.233 1.387.22 0 .217 0 .438-.198.438h-.6zm.205 4.002c0 .217 0 .45-.205.45-.407 0-1 .22-1.205-.233 0-.434.616-.434 1.011-.434.194 0 .194.217.399.217m1.794-4.223c-.392.221-.79.442-1.201 0 .41-.438.81-.438 1.2 0m-.39 1.778c-.206-.437-1.008-.654-.81-1.336.213-.221.41 0 .41.228 0-.228.194-.228.4-.228.39.228.592.682.39 1.116 0 0-.2.22-.39.22m-2.197-4.88c-.213 0-.213-.23-.213-.446.608-.891 1.813-.454 2.6-.454.2 0 .2.229.402.229-.798.891-1.797.67-2.79.67m1.388-8.894c-.395-.221-.798-1.108-.198-1.558.198 0 .473.024 1.007.217.593.233 1 0 1.197.67.194.45-.197.45-.41.67-.597.218-1.186.218-1.596 0m.213 7.11c0 .228.786.449.197.666-.608 0-1.208-.217-1.615-.438.407-.45 1.007-.229 1.418-.229M60.19 45.18h.403c0 .217.833.667.213.667-.213 0-.616.22-.802-.221 0-.229 0-.446.186-.446m1.805 6.23c0-.454.802-.667 1.007-.233.19.45 0 1.337-.399 1.337-.41.22-.608-.667-.608-1.104m1.197 25.335c-.395-1.557-.899-3.665.202-4.889.201-.225.608 0 .608.217-.213 1.557 0 3.335-.81 4.672m.81-8.895c-.213-.224-.407-.224-.407-.437.407-1.12-.403-2.449.798-3.115.403 1.104.205 2.444-.391 3.552m.992-5.113c-.198.217-.396.453-.6.67-.195 0-.392 0-.392-.217 0-.67 0-1.557.596-1.557a.545.545 0 01.167-.039l-.167-.182.198-.232v.414c.457-.004.655.647.198 1.143m-6.001-40.9c.213 0 .213.228.213.449h1.6c0-.221 0-.45.182-.45.213 0 .407.45.407.45.6-.45 1.402 0 1.797.437-1.197.903-2.6 0-3.8 0-.992 0-2.189.233-3.2-.437 1.402-1.108 3.014-1.108 4.614-1.108 1.797 0 3.393-.45 5.187 0-2.204 1.328-4.598 0-7 .658M68.189 83.2c-1.402-.674 0-2.681-.197-4.238.197 0 .197-.887.604-.217 0 .217 0 .217-.209.45 0 .216.062.278.21.437.197.22.592.22.592.45 0 .666.205.886 0 1.328-.198.666-.802 2.007-1 1.79" fill="#007b5e"/></svg>