<svg width="300" height="105" version="1.0" viewBox="0 0 1000 349" xmlns="http://www.w3.org/2000/svg"><path d="M611.65 0h.93c-23.41 19.41-48.95 36.1-75.29 51.24-43.65 24.75-90.68 44.4-140.17 53.65-64.29 11.92-128.6 23.73-192.89 35.63-14.14 2.45-26.39 11.4-35.15 22.49-14.52 18.52-29.08 37.01-43.65 55.49-14.96 19.37-37.26 32.96-61.45 36.92 23.66-32.85 47.42-65.62 71.11-98.45 21.85-31.23 55.65-53.64 92.68-62.41C336.56 67.79 445.38 41.13 554.18 14.4 573.34 9.63 592.6 5.21 611.65 0zM57.01 275.04c10.08-3.79 21.04-2.74 31.59-2.76 8.6 25.66 17.32 51.28 26.53 76.72H97.12c-4.55-1.07-9.38-3.11-11.85-7.32-1.83-3.57-2.74-7.51-4.08-11.27-11.26-.06-22.51-.06-33.76-.12 2.98-5.68 7.7-10.7 13.96-12.66 4.75-1.67 9.83-1.88 14.81-2.1-2.71-7.85-5.39-15.69-8.1-23.53-11.75 16.34-22.72 33.24-34.77 49.37-3.36 4.74-9.13 6.83-14.67 7.63H.34c16.15-22.44 32.07-45.05 48.14-67.54a17.47 17.47 0 018.53-6.42zm114.74 2.69c6.8-4.52 15.25-5.52 23.24-5.51 13.33-.01 26.65-.12 39.97.16 6.91.24 14.79 3.13 17.62 9.97 2.98 8.3 1.89 17.69-1.69 25.63-2.43 5.33-7.46 8.72-12.18 11.85 3.93 1.71 9.34 3.11 10.13 8.06.69 7.13-1.66 14.13-2.79 21.11h-7.37c-4.7-1.15-9.85-2.78-12.68-7.01-2.45-3.4-1.53-7.96-3.4-11.58-2.09-3.1-6.26-3.31-9.63-3.56-8.4-.2-16.81-.1-25.21-.22 2.91-6.63 8.56-12.13 15.66-13.99 6.56-2.06 13.96.28 20.18-3.05 4.29-3.02 5.44-8.74 5.84-13.65.36-3.16-.89-7.12-4.48-7.63-6.25-1.07-12.63-.39-18.93-.59-5.23.17-11.15-.57-15.53 2.92-3.34 2.38-4.36 6.58-5.16 10.37-1.68 8.61-2.73 17.34-4.27 25.98-1.1 5.96-3.41 11.97-7.84 16.25-3.44 3.18-7.99 4.88-12.53 5.76h-8.24c3.1-17.35 5.94-34.75 9.27-52.05 1.42-7.13 3.79-14.82 10.02-19.22zm276.36-1.81c6.8-3.18 14.46-3.74 21.86-3.72 14.05.02 28.1-.07 42.14.19 6.51.23 14.09 1.6 17.78 7.6 4.32 6.79 2.04 15.14.85 22.5-2.16 10.61-3 21.56-6.51 31.85-2.78 8.16-10.54 13.92-19.08 14.66h-61.24c-5.49-1.13-10.94-4.44-12.98-9.88-2.37-6.89-.78-14.26.37-21.22 1.69-8.96 2.71-18.1 5.5-26.82 2.05-6 5.29-12.33 11.31-15.16m20.31 12.65c-3.44.64-6.12 3.28-7.51 6.39-2.97 6.67-3.22 14.13-4.71 21.2-.54 4.85-2.76 10.24-.15 14.82 3.1 3.73 8.53 3.42 12.93 3.54 8.03-.18 16.14.53 24.12-.64 4.64-.53 8.47-4.44 9.17-9.01 1.61-8.58 3.33-17.16 4.66-25.79.44-3.23.32-7.36-2.62-9.42-4.39-2.21-9.5-1.83-14.27-1.94-7.2.21-14.5-.54-21.62.85zm152.6-16.37c21.68.02 43.37-.04 65.05.02 7.1.12 15.2.87 20.27 6.48 4.78 6.07 4.07 14.39 2.81 21.54-2.2 12.02-3.05 24.56-8.29 35.77-3.28 7.2-10.75 11.56-18.29 12.99h-50.46c2.79-4.61 5.85-9.5 10.97-11.8 9.11-4.68 19.7-1.11 29.22-3.97 3.75-1.18 6.63-4.39 7.75-8.11 2.14-6.89 2.84-14.12 4.31-21.16.65-4.09 1.63-8.79-.93-12.43-2.32-3.31-6.8-3.37-10.43-3.63-10.1-.22-20.21-.15-30.31-.17-2.14 12.31-4.24 24.63-6.46 36.92-1.36 6.56-3.36 13.44-8.21 18.32-3.4 3.39-8.08 5.03-12.67 6.03h-7.81c4.49-25.6 8.98-51.2 13.48-76.8zm102.09 8.78c4.84-6.3 13.29-7.89 20.76-8.53 12.38-.5 24.79-.14 37.18-.25 7.62.11 15.51-.51 22.84 2.05 4.44 1.41 7.64 5.43 8.77 9.86 2.14 7.63-.52 15.41-1.6 22.98-1.97 9.83-2.56 20.08-6.59 29.37-3.09 7.03-10.32 11.48-17.75 12.54h-61.59c-5.23-1.19-10.9-3.9-12.84-9.28-3.02-8.4-.44-17.33.87-25.8 2.12-11.24 2.96-23.41 9.95-32.94m26.29 7.65c-3.04.73-6.04 2.62-7.2 5.65-3.04 7.28-3.5 15.26-4.98 22.93-.61 4.08-1.98 8.33-.68 12.41.99 3.12 4.54 4.25 7.48 4.54 6.62.69 13.29.26 19.94.37 5.27-.14 11.13.38 15.62-2.93 3.28-2.41 3.87-6.73 4.6-10.44 1.26-7.43 2.89-14.79 3.95-22.25.42-3.22.22-7.31-2.74-9.31-4.45-2.15-9.59-1.77-14.39-1.88-7.2.21-14.5-.56-21.6.91zm65.59-16.45c7.86.17 16-.26 23.51 2.46 4.52 1.64 6.99 6.15 8.45 10.45 5.17 15.22 10.25 30.47 15.4 45.7 10.13-14.34 20.24-28.7 30.36-43.05 3.27-4.31 5.78-9.79 11.05-12.01 8.33-3.73 17.66-3.62 26.61-3.52-15.99 22.73-32.01 45.44-48.09 68.11-3.41 5.03-9.28 7.66-15.09 8.68h-24.75c-9.74-25.4-18.22-51.24-27.45-76.82zm129.98 1.98c9.26-2.69 19.01-1.87 28.52-1.89 9.07 25.26 17.57 50.72 26.51 76.02v.71h-18.04c-4.28-1.06-8.61-3.1-11.15-6.84-2.03-3.67-2.88-7.83-4.26-11.76-11.26-.02-22.51.07-33.76-.1 2.2-3.79 4.53-7.77 8.38-10.11 5.99-3.96 13.38-4.49 20.36-4.63-2.73-7.88-5.45-15.77-8.18-23.65-9.91 14.21-19.59 28.59-29.74 42.64-2.89 3.75-5.19 8.16-9.23 10.83-3.22 2.08-6.99 3.09-10.75 3.62h-18c16.26-22.57 32.47-45.2 48.39-68.01 2.65-3.57 6.76-5.65 10.95-6.83zm-805.88 4.97c5.47-5.03 13.22-6.14 20.33-6.67-3.07 18.5-6.35 36.96-9.92 55.36-.91 4.44-2.42 8.86-5.19 12.52-3.48 4.92-9.25 7.62-15.05 8.66h-7.82c2.98-16.68 5.89-33.36 8.87-50.04 1.4-7.11 3.56-14.54 8.78-19.83zM312 277c7.46-4.28 16.56-5.28 24.91-3.6 5.29 1.1 10.32 4.9 11.5 10.38 3.76 14.77 7.07 29.65 10.65 44.46 8.69-14.73 17.39-29.45 26.04-44.2 2.24-3.98 5.73-7.28 10.06-8.86a41.162 41.162 0 0119.92-2.13c5.33.8 10.93 3.68 12.79 9.06 2.66 7.49.39 15.46-.82 23-2.59 14.64-5.13 29.29-7.98 43.89h-6.88c-4.8-1.17-9.65-3.69-12.04-8.21-2.51-4.7-2.02-10.25-1.38-15.35 1.41-9.79 3.3-19.5 5.05-29.24-8.68 14.22-17.23 28.53-25.84 42.79-3.35 5.68-9.59 8.99-15.95 10.01h-12.35c-4.95-.95-10.12-3.43-12.42-8.17-1.87-4.15-2.69-8.66-3.82-13.04-2.48-10.62-5.21-21.17-8.01-31.71-1.77 9.8-3.37 19.63-5.19 29.42-1.28 6.6-3.58 13.42-8.74 18.03-3.36 3.18-7.9 4.66-12.37 5.47h-7.67c3.47-17.45 6.08-35.07 9.35-52.56 1.71-7.3 4.58-15.21 11.19-19.44zm232.68 3.81c5.33-6.54 14.25-7.77 22.14-8.34-3.03 17.2-6.14 34.39-9 51.62-.64 3.36-.37 8.25 3.57 9.4 10.85 2.82 22.9-1.48 33.17 4.02 4.4 2.16 5.68 7.19 6.96 11.49h-54.91c-6.6-1.18-13.25-5.98-14.01-13.06-.78-9.06 1.88-17.94 3.09-26.85 1.78-9.67 2.54-20.35 8.99-28.28z" fill="#004595"/><path d="M214.06 155.82c63.33-10.38 126.66-20.78 189.98-31.17-27.15 22.17-57.63 40.49-90.54 52.72-17.91 6.61-36.64 11.03-55.65 12.9-33.21 3.52-66.42 7.06-99.63 10.59 7.87-9.68 15.63-19.45 23.55-29.09 8.07-9.41 20.15-14.53 32.29-15.95z" fill="#ffed00"/><path d="M143.88 218.89c40.76-3.75 81.52-7.44 122.3-10.93-26.29 22.9-59.08 39.5-94.09 42.8-22.33 1.32-44.71 1.88-67.08 2.41 15.32-8.4 27.77-20.98 38.87-34.28z" fill="#e53138"/></svg>