<svg version="1.0" viewBox="0 0 100 15" xmlns="http://www.w3.org/2000/svg"><path d="M95.207 3.445c.393.466.967.632 1.334.364.23-.169.315-.476.265-.811.218.033.43.099.683.201.125.042.274-.481.08-.499-2.084-.3-3.241 1.382-3.213 1.355.322-.242.588-.447.851-.61m1.189.192c-.275.223-.734.084-1.057-.272.435-.269.804-.396 1.201-.391.081.256.011.54-.144.663m-10.383.742a8.161 8.161 0 011.796-3.127C91.4-.263 96.03-.252 99.5 2.541 97.323 1.431 90.885.25 86.013 4.379m-.208 3.85a8.059 8.059 0 01-.065-2.584c2.541-2.583 6.344-4.283 10.336-3.448-2.185.005-7.423 1.502-10.271 6.032m1.359 3.181a8.046 8.046 0 01-1.021-1.938c1.512-3.201 4.427-5.989 8.345-6.596-1.95.735-6.014 3.726-7.324 8.534m2.466 2.279a8.104 8.104 0 01-1.634-1.282c.522-3.384 2.589-6.921 5.895-8.757a1.987 1.987 0 00-.335 1.223c-1.927 1.954-3.841 4.988-3.926 8.816m3.058 1.067a8.43 8.43 0 01-1.879-.482c.022-3.063 1.015-6.7 2.818-8.93.1.391.29.792.597 1.194 1.427-1.679 3.073-2.866 5.117-3.391-2.787 1.058-7.125 4.433-6.653 11.609m-77.352-2.663h3.171c.3 0 .642-.237.77-.555l.13-.311H17.74l.787-1.848h4.413v.006l-1.765 4.104c-.342.755-.879 1.294-1.881 1.241l-7.948-.01 4.048-9.452c.345-.762.877-1.267 1.882-1.246h7.96L23.337 8.45h-2.741l.774-1.82h-3.476c-.122 0-.268.108-.314.235l-2.244 5.228zm.7-11.829L8.065.278C7.051.25 6.526.771 6.172 1.536c-.136.287-.353.788-.622 1.418L.5 14.73h8.015c1.013.006 1.542-.497 1.89-1.259.13-.287.357-.792.624-1.417l-6.536-.02 1.345-3.131h3.69l1.146-2.676H6.991l1.304-3.04c.056-.127.2-.235.325-.235h6.264L16.036.264zm58.99 8.222h3.158c.297 0 .632-.256.77-.561l.564-1.294H76.04c-.123 0-.266.108-.32.235l-.694 1.62zm.19 2.722H73.81a164.586 164.586 0 01-1.005 2.281c-.342.755-.866 1.252-1.881 1.239H69.47l1.494-3.506C72 8.789 73.135 6.126 73.522 5.269c.34-.755.879-1.29 1.884-1.243l7.953-.002c-1.03 2.43-2.174 5.096-2.566 5.956-.343.751-.875 1.286-1.879 1.241l2.476 3.508h-3.805l-2.369-3.521zM34.537 4.026l1.462-.002c-1.032 2.43-2.164 5.096-2.554 5.956-.342.751-.874 1.286-1.876 1.241h-1.866c-.442 1.029-.808 1.854-.992 2.269-.34.755-.875 1.294-1.879 1.241l-1.464.006 1.506-3.514h-3.258c1.037-2.434 2.169-5.097 2.554-5.954.348-.755.877-1.29 1.879-1.243l1.457-.005-1.887 4.461 3.16.004c.3 0 .645-.251.768-.561.362-.891.715-1.778 1.119-2.656.34-.755.862-1.267 1.871-1.243m30.64 10.703l1.472.002c1.007.053 1.537-.486 1.877-1.241l4.063-9.466-1.47.002c-1.007-.046-1.539.488-1.879 1.243-.395.857-1.531 3.52-2.563 5.954l-1.5 3.506zM38.385 8.486h3.113c.306 0 .635-.256.77-.561l.562-1.295h-3.436c-.122 0-.268.11-.322.235l-.687 1.621zm-1.159 2.722l5.115.013c1.034 0 1.531-.49 1.874-1.241.39-.86 1.523-3.526 2.551-5.956l-7.961.002c-1.009-.029-1.531.488-1.876 1.243l-4.038 9.461h1.465c1.019.018 1.534-.486 1.879-1.241.189-.415.548-1.255.991-2.281m9.662 3.518l1.475.005c.999.053 1.528-.486 1.871-1.241.377-.835 1.456-3.385 2.463-5.764.03-.064.436-1.031.468-1.095h3.24l1.1-2.602-7.928-.005c-1.01-.044-1.539.491-1.879 1.246l-.578 1.371 3.224-.01-3.456 8.095zm13.017-6.24h3.103c.298 0 .64-.256.77-.561l.558-1.294H60.92c-.124 0-.267.108-.319.235l-.696 1.62zm2.471 2.735h-3.63a236.768 236.768 0 01-.995 2.269c-.347.755-.874 1.294-1.914 1.241l-1.421-.002 1.489-3.506c1.036-2.434 2.171-5.097 2.565-5.954.34-.755.819-1.248 1.877-1.243h7.933l-4.05 9.463c-.34.755-.875 1.294-1.882 1.241h-1.424l1.452-3.509z" clip-rule="evenodd" fill="#00265D" fill-rule="evenodd"/></svg>