<svg width="382" height="175.86" viewBox="0 0 101.07 46.53" xmlns="http://www.w3.org/2000/svg"><path d="M10.48 16.34v19.429H.33V.267h9.548s1.326.019 2.819.989c1.281.832 1.72 1.794 1.72 1.794l8.348 15.414.11.33.22.658V.267h10.15V35.77h-9.308s-1.48-.053-2.636-.786c-1.565-.993-2.087-2.015-2.087-2.015l-8.275-15.273-.22-.44c-.072-.146-.239-.915-.239-.915M71.75 31.83a38.528 38.528 0 003.295-3.792h15.313v7.727h10.086V.263H88.795S80.08.198 74.641 8.355c-1.61 2.416-2.16 5.858-5.492 10.654-2.752 3.964-5.528 6.482-5.528 6.482H46.523s-.53-2.342-.53-7.47c0-5.163.53-7.67.53-7.67h21.784V.262H42.516s-3.5.147-4.817 2.966c-.994 2.126-1.857 8.055-1.857 14.791 0 7.145 1.081 13.223 1.857 14.598 1.741 3.094 4.795 2.962 4.795 2.962h24.933s2.26-1.688 4.32-3.75zm18.609-21.462v7.575h-8.833s.988-3.694 2.856-5.451c2.46-2.315 5.977-2.124 5.977-2.124" fill="#001171"/><path d="M2.325 41.035v3.495H.27v-6.848h2.055l2.15 3.539v-3.539H6.53v6.848H4.474l-2.15-3.495m39.351-1.57c.202.467.185.785.185.785h-1.984s-.228-.985-1.141-.985c-.928 0-1.342.842-1.342 1.885 0 0-.072 1.868 1.37 1.868 1.113 0 1.185-1.04 1.185-1.04h1.954s.042.339-.114.757c-.343.913-1.17 1.953-3.01 1.953-1.613 0-3.468-1.084-3.468-3.553 0-2.425 1.855-3.524 3.296-3.524 1.802 0 2.732 1.08 3.068 1.854m27.951-1.74h-2.027l-2.562 6.807h2.099l.342-.998h2.231l.344.998h2.127zm-1.688 4.468l.653-1.905.657 1.905h-1.31m-25.222-1.818c.209-.38.613-.94 2.082-.97 1.228-.024 1.97.172 2.432.823.388.549.194 2.387.295 3.815.007.115.143.39.143.39h-1.885s-.057-.09-.114-.263c-.058-.171-.086-.198-.086-.198s-.413.613-1.555.613c-.888 0-1.455-.371-1.655-.985-.223-.685.056-1.377.6-1.656.698-.356 2.032-.4 2.439-.614.272-.14.171-.47.015-.613-.194-.176-.685-.155-.942 0-.214.129-.242.542-.242.542l-1.684-.041s-.053-.462.157-.843zm2.895 1.855s-.493.2-.77.285c-.328.1-.713.186-.741.443-.036.314.269.649.87.499.856-.214.641-1.227.641-1.227m47.095-2.855c-1.5-.005-2.712 1.196-2.712 2.67 0 1.476 1.092 2.62 2.733 2.62 1.214 0 2.354-.602 2.683-1.67h-1.826c-.158.313-.512.413-.785.413-.49 0-.846-.374-.978-.9h3.647c.1-.87-.43-3.123-2.763-3.132zm-.864 2.093c.144-.469.47-.784.9-.784.357 0 .827.3.827.784H91.84m-36.055.397c0 .597-.42 1.08-.937 1.08s-.937-.483-.937-1.08c0-.595.42-1.08.937-1.08s.937.485.937 1.08zm1.696 2.226v-4.529h-1.732v.607a1.912 1.912 0 00-1.53-.762c-1.206 0-2.067 1.123-2.08 2.44-.017 1.732 1.12 2.417 1.9 2.435.605.014 1.222-.17 1.64-.475v.217s.05.886-.536.992c-.628.115-.834-.295-.834-.295h-1.746s.066.836.902 1.278c.868.456 2.636.284 3.231-.205.776-.64.785-1.704.785-1.704M7.305 37.695h1.85v1.278h-1.85zm0 6.833h1.85v-4.85h-1.85zm65.32-6.833h1.85v1.278h-1.85zm0 6.833h1.85v-4.85h-1.85zm9.15-6.833h1.85v1.278h-1.85zm0 6.833h1.85v-4.85h-1.85zm-2.49-6.843h1.85v6.842h-1.85zm-46.4 3.53v3.32h-1.968v-2.978s-.106-.566-.606-.566c-.8 0-.803.813-.803.813v2.73h-1.893v-4.908h1.807l.009.532s.946-.927 2.078-.68c1.4.305 1.375 1.737 1.375 1.737m56.791 0v3.32h-1.97v-2.978s-.103-.566-.603-.566c-.8 0-.804.813-.804.813v2.73h-1.893v-4.908h1.808l.008.532s.946-.927 2.079-.68c1.4.305 1.374 1.737 1.374 1.737m-64.579-.24c.164.245.198.64.198 1.024 0 .415-.045.734-.217.993a.773.773 0 01-.643.351c-.605 0-.851-.654-.851-1.312 0-.743.295-1.38.851-1.38.23 0 .508.093.662.324zm-.643-1.587c-1.65 0-2.753 1.068-2.753 2.658 0 1.425 1.094 2.544 2.768 2.544 1.722 0 2.732-1.228 2.732-2.602 0-1.288-.943-2.6-2.747-2.6m36.823 1.587c.164.245.198.64.198 1.024 0 .415-.045.734-.217.993a.775.775 0 01-.643.351c-.605 0-.851-.654-.851-1.312 0-.743.295-1.38.851-1.38.23 0 .507.093.662.324zm-.643-1.587c-1.651 0-2.754 1.068-2.754 2.658 0 1.425 1.093 2.544 2.768 2.544 1.722 0 2.733-1.228 2.733-2.602 0-1.288-.943-2.6-2.747-2.6m-45.247 2.667c0 1.635-.943 2.63-2.131 2.63-.343 0-1.065-.13-1.47-.632v2.016H9.916v-6.422h1.807l.01.496c.384-.443.953-.738 1.522-.738 1.188 0 2.13 1.08 2.13 2.65zm-2.768-1.093c-.562 0-.88.52-.88 1.164 0 .644.329 1.166.88 1.166.552 0 .88-.522.88-1.166 0-.643-.319-1.164-.88-1.164m8.738 1.093c0 1.635-.943 2.63-2.131 2.63-.343 0-1.067-.13-1.47-.632v2.016h-1.869v-6.422h1.807l.01.496c.383-.443.952-.738 1.522-.738 1.188 0 2.13 1.08 2.13 2.65zm-2.769-1.093c-.56 0-.88.52-.88 1.164 0 .644.329 1.166.88 1.166s.88-.522.88-1.166c0-.643-.319-1.164-.88-1.164m31.539 1.203v2.365h-1.87v-4.923h1.788l.028.61s.495-.506.952-.637c.457-.133.885-.021.885-.021v1.599s-.576-.12-.98.039c-.818.324-.803.968-.803.968m26.93 0v2.365h-1.87v-4.923h1.788l.028.61s.495-.506.952-.637c.456-.133.885-.021.885-.021v1.599s-.578-.12-.98.039c-.818.324-.803.968-.803.968m21.84-1.19h1.722s.218-1.577-2.37-1.54c-1.987.026-2.416 1.037-2.377 1.692.113 1.961 3.132 1.114 3.092 1.979-.02.4-.533.496-.895.39-.479-.139-.475-.655-.475-.655h-1.79s-.132 1.797 2.475 1.797c2.13 0 2.674-1.045 2.501-2.026-.314-1.789-3.348-1.038-3.08-1.856.086-.27.634-.284.901-.208.309.088.296.427.296.427" fill="#4a4b4f"/></svg>