<svg width="203" height="79" viewBox="-1.5 -1.43 203 79" xmlns="http://www.w3.org/2000/svg"><path d="M21.625.041c4.492-.271 9.074.807 12.927 3.146 3.473 2.075 6.375 5.079 8.363 8.599 2.755 4.83 3.716 10.627 2.778 16.1 2.222-.83 4.431-1.703 6.586-2.693 1.158-.555 2.345-1.047 3.517-1.568 1.17-.537 2.348-1.1 3.628-1.316 1.351-.253 2.834-.141 4.027.59.597.376 1.099.878 1.579 1.387-.98-.031-1.956-.17-2.938-.122-1.34.063-2.693.168-3.99.53-.814.222-1.574.595-2.34.936-1.7.783-3.37 1.629-5.083 2.387-1.906.86-3.866 1.62-5.663 2.7-.694 2.384-1.789 4.643-3.18 6.694 1.716.003 3.432.003 5.148.005-.318 7.937-.674 15.873-1.025 23.808-2.207.005-4.415-.004-6.622-.004.202-1.69.417-3.38.577-5.075-1.918 0-3.837.006-5.757.004-.769 1.688-1.55 3.369-2.302 5.063-2.23.02-4.464.008-6.695.008 3.215-5.709 6.477-11.396 9.688-17.108a23.111 23.111 0 01-7.807 2.987 22.49 22.49 0 01-12.166-1.166c-3.64-1.407-6.88-3.795-9.368-6.799C2.102 35.051.152 29.8.013 24.49a24.262 24.262 0 011.657-9.65c1.652-4.238 4.547-7.988 8.255-10.627 3.41-2.45 7.508-3.933 11.7-4.171M10.679 4.849c-3.561 2.46-6.348 5.992-7.995 9.989C1.126 18.578.638 22.73 1.13 26.744c.513 4.003 2.087 7.873 4.547 11.078 2.585 3.39 6.159 6.027 10.186 7.448 3.311 1.18 6.911 1.477 10.385.979a21.775 21.775 0 009.425-3.861c.248-.167.425-.413.567-.67a561.609 561.609 0 012.433-4.293c.668-.006 1.336.005 2.004-.008 1.262-1.794 2.336-3.73 3.05-5.808-2.18 1.437-4.362 3.014-6.942 3.633-2.424.51-4.913.482-7.376.583-2.778.102-5.552.453-8.248 1.135-1.75.42-3.459.995-5.207 1.43-.933.22-2.013.256-2.821-.333-.28-.188-.441-.681-.125-.908.562-.4 1.254-.54 1.916-.68 2.112-.4 4.229-.777 6.338-1.19 1.967-.391 3.947-.725 5.9-1.187 2.014-.48 4.02-1.174 5.713-2.398-3.917-1.17-7.757-2.617-11.415-4.446-2.477-1.22-4.682-2.952-6.55-4.977-1.939-2.015-3.326-4.466-4.61-6.927-1.192-2.211-2.186-4.529-2.913-6.935 3.292 2.093 6.528 4.29 9.998 6.083 1.949.967 3.997 1.746 6.116 2.24-2.583-1.838-4.707-4.38-5.843-7.357 3.472 1.477 6.93 2.987 10.393 4.484.258.086.37.346.483.57.954 2.04 2.278 3.904 3.847 5.52 2.612 2.772 5.514 5.277 8.682 7.393 1.043.727 2.354 1.16 3.623.852.929-4.982.271-10.271-1.999-14.816-1.956-3.95-5.08-7.322-8.902-9.522A21.492 21.492 0 0022.406.984c-4.177.099-8.306 1.474-11.727 3.865m26.004 46.696c1.25.006 2.498.006 3.746.006.42-3.357.86-6.715 1.216-10.08-1.611 3.377-3.32 6.71-4.962 10.074z" fill="#00477F"/><path d="M54.863 37.174c1.987 0 3.976 0 5.963.006-.318 1.066-.718 2.105-1.082 3.16-.05.275-.377.262-.595.268-1.825-.013-3.652 0-5.479-.013.371-1.151.788-2.283 1.193-3.421zm29.699.105c2.858.002 5.716-.005 8.573.004.071 1.424-.014 2.852.112 4.272.02 3.883.171 7.764.226 11.646 1.583-5.309 3.167-10.615 4.757-15.923h5.638c-2.47 8.02-4.974 16.027-7.474 24.039-2.707 0-5.412-.006-8.119-.004-.172-2.773-.206-5.555-.353-8.33-.043-1.744-.15-3.481-.19-5.227-.03-.748-.05-1.498-.147-2.24-1.586 5.256-3.084 10.541-4.66 15.801-1.921.004-3.84-.006-5.76-.004 2.467-8.01 4.931-16.02 7.397-24.034zm66.558 3.325c.393-1.121.783-2.24 1.18-3.36 2.002-.009 4.004-.008 6.006.002a263.57 263.57 0 00-1.18 3.358c-2.002.006-4.004.002-6.006 0zm28.54-3.367l5.99.001a214.89 214.89 0 01-1.188 3.368c-1.992.004-3.984-.004-5.976-.004.371-1.127.777-2.244 1.174-3.365zm-18.91.281c1.95-.01 3.898-.015 5.85-.003-.68 2.364-1.357 4.727-2.053 7.088 1.531-1.068 3.47-1.434 5.309-1.271 1.046.133 2.061.646 2.71 1.486.786.994 1.075 2.285 1.099 3.529.04 1.924-.52 3.795-1.194 5.574-.813 2.061-1.98 4.043-3.7 5.473a8.489 8.489 0 01-5.275 1.986c-1.389.039-2.842-.265-3.918-1.19a47.13 47.13 0 01-.355 1.128c-2.034 0-4.064 0-6.098-.008 2.539-7.931 5.084-15.863 7.625-23.792m4.27 10.677c-.862.163-1.84.532-2.192 1.413a71.463 71.463 0 00-1.637 5.05c-.078.307-.209.605-.213.926.04.461.471.725.868.854 1 .354 2.216.347 3.091-.312.982-.72 1.497-1.871 1.896-2.98.373-1.109.69-2.275.602-3.454-.048-.53-.232-1.122-.729-1.392-.51-.302-1.132-.214-1.687-.105zm23.79-3.591a11.522 11.522 0 015.889-1.293c1.242.027 2.525.215 3.62.84a3.277 3.277 0 011.643 2.494c.114 1.072-.054 2.158-.382 3.182-.729 2.283-1.47 4.562-2.194 6.85-.494 1.494-1.053 3.035-.892 4.64-1.924-.004-3.852 0-5.778-.004-.061-.332-.127-.664-.19-.996-1.06.744-2.353 1.069-3.628 1.17-.938.045-1.889.101-2.815-.067-.949-.174-1.896-.664-2.39-1.525-.506-.805-.512-1.801-.379-2.711.285-1.79 1.397-3.393 2.888-4.404 1.807-1.291 3.98-1.938 6.143-2.328 1.077-.277 2.205-.264 3.279-.56.22-.708.434-1.462.28-2.206-.151-.541-.833-.652-1.305-.514-.933.196-1.597.979-1.976 1.81-1.922-.2-3.854-.282-5.774-.495.762-1.75 2.297-3.026 3.961-3.883m.361 9.744c-.515.285-1.025.65-1.296 1.19-.223.435-.313.978-.104 1.435.264.426.84.398 1.274.334a17.473 17.473 0 002.396-.582c.356-1.057.668-2.127 1.006-3.19-1.121.102-2.272.27-3.276.813zm-83.131-9.082c2.846-1.885 6.57-2.478 9.828-1.416.945.352 1.819 1.045 2.166 2.018.473 1.29.21 2.707-.174 3.984-.8 2.512-1.617 5.02-2.414 7.531-.387 1.27-.875 2.588-.65 3.938-1.934-.004-3.87 0-5.803-.002a22.188 22.188 0 00-.2-.943c-1.36.926-3.042 1.189-4.66 1.215-1.187.035-2.472-.1-3.45-.842-.858-.635-1.226-1.75-1.183-2.785.094-1.571.754-3.123 1.893-4.225 1.18-1.188 2.702-1.965 4.27-2.506 1.15-.414 2.368-.596 3.56-.859.896-.205 1.84-.147 2.713-.475.14-.682.404-1.37.286-2.075-.088-.472-.618-.712-1.06-.642-1.052.06-1.85.914-2.252 1.824-1.922-.146-3.847-.283-5.765-.465.553-1.388 1.663-2.472 2.895-3.275m.758 9.558c-.602.454-1.008 1.237-.836 1.997.105.43.601.617 1.004.578.695-.075 1.373-.256 2.052-.407.293-.082.685-.15.788-.482.32-.977.623-1.955.904-2.943-1.361.162-2.815.365-3.912 1.257zm32.982-10.726c.975-.363 2.006-.52 3.027-.676 1.077-.166 2.254.094 3.076.836.705.625 1.029 1.584 1.044 2.508-.007.88-.296 1.719-.548 2.553l-3.63 12c-2.02-.004-4.036-.004-6.055-.004 1.078-3.439 2.164-6.881 3.25-10.32.175-.572.287-1.21.086-1.79-.219-.405-.735-.587-1.172-.578-1.325.284-2.71 1.128-3.09 2.51-1.02 3.395-2.05 6.792-3.094 10.184-2.058 0-4.115.004-6.171-.004 1.107-3.305 2.222-6.609 3.316-9.921.188-.698.473-1.481.145-2.183-.311-.588-1.106-.68-1.68-.48-1.303.418-2.34 1.557-2.688 2.873-.98 3.24-1.98 6.478-2.973 9.713-1.937.004-3.871-.007-5.81-.004 1.824-5.769 3.625-11.55 5.435-17.328 1.903-.007 3.805-.002 5.709-.002-.131.495-.269.985-.404 1.48.988-.748 2.073-1.396 3.275-1.733 1.026-.31 2.118-.278 3.172-.144.757.106 1.53.317 2.149.784.425.324.7.798.914 1.276.826-.643 1.732-1.194 2.717-1.55zm-70.677-.301c1.128-.309 2.312-.121 3.439.092-.693 1.865-1.437 3.71-2.17 5.56-.335-.302-.618-.694-1.04-.88-.935-.137-1.858.203-2.68.617-.827.447-1.671 1.068-1.945 2.015a3040.5 3040.5 0 01-2.952 10.021c-2.007.002-4.013-.004-6.021-.006a8730.293 8730.293 0 005.455-17.322c1.922-.01 3.844-.007 5.766-.004-.157.518-.314 1.034-.467 1.551.784-.666 1.585-1.4 2.615-1.644zm-16.373.096c1.988-.01 3.979-.004 5.967-.002a46548.11 46548.11 0 01-5.44 17.424h-5.995c1.826-5.805 3.65-11.613 5.468-17.422zm92 17.421a5720.184 5720.184 0 015.47-17.418c1.981 0 3.964.004 5.944.004-1.793 5.812-3.615 11.613-5.43 17.418-1.996.002-3.99-.006-5.984-.004zM177.56 43.9c1.98-.008 3.957 0 5.939 0-1.334 4.441-2.758 8.855-4.123 13.285a508.577 508.577 0 01-1.312 4.133c-1.99.002-3.98-.008-5.972-.004A8993.56 8993.56 0 01177.56 43.9z" fill="#00477F"/><path d="M158.69 68.293c.559-.48 1.355-.4 2.018-.217-.057.314-.114.633-.168.95-.295-.021-.598-.083-.889-.017-.322.207-.344.638-.463.968.303.052.668.007.928.177a1.906 1.906 0 01-.196.854c-.279.11-.605.045-.902.068-.303 1.283-.524 2.584-.803 3.871-.113.537-.388 1.088-.896 1.348-.516.236-1.114.207-1.64.023.056-.283.122-.562.224-.83.334-.057.84-.004.976-.404.373-1.312.546-2.674.863-3.998-.235-.018-.466-.027-.695-.043.055-.3.046-.635.212-.9.194-.139.454-.116.683-.164.121-.604.244-1.274.748-1.686zm-42.42 6.395c.469-2.234.838-4.488 1.385-6.705.396-.02.8-.035 1.186.072-.136.863-.274 1.735-.552 2.569.42-.413.977-.739 1.585-.684.467-.015.932.3 1.04.766.17.65-.06 1.314-.164 1.959-.136.677-.269 1.357-.43 2.03-.411.016-.82.016-1.233 0 .144-.99.406-1.958.562-2.947.047-.261-.062-.511-.125-.755-.732.047-1.29.65-1.481 1.324-.226.782-.316 1.6-.532 2.385-.415.013-.829.005-1.24-.014zm69.19-6.639c.4-.063.807-.088 1.213-.08-.045.875-.268 1.727-.469 2.576.455-.365 1.006-.695 1.615-.603.635.02 1.077.64 1.121 1.23.08.923-.1 1.895-.619 2.671-.566 1.015-2.062 1.321-2.936.52-.205.499-.795.334-1.213.327.36-2.225.878-4.422 1.288-6.64m1.488 2.972c-.855.355-1.22 1.352-1.263 2.213.129.518.87.697 1.282.396.388-.3.561-.789.664-1.252.067-.375.125-.78-.019-1.146-.082-.272-.44-.28-.664-.211zm-87.703-2.809c.337-.15.717-.049 1.069-.021.04.328.103.697-.105.988-.227.344-.698.263-1.048.238-.256.014-.347-.289-.311-.494.045-.268.126-.584.395-.711zm39.875-.02c.332-.096.86-.164 1.053.197.088.428-.127 1.053-.649 1.051-.293-.01-.799.08-.851-.313-.06-.355.101-.787.447-.935zm5.75.075c.352-.238.795-.11 1.182-.055-.018.37.074.832-.252 1.098-.303.197-.688.105-1.024.115-.058-.058-.177-.168-.235-.224.067-.317.048-.715.329-.934zm38.15.043c.344-.293.828-.146 1.23-.098 0 .393.069.903-.316 1.147-.317.123-.676.098-1.002.035-.324-.283-.156-.803.088-1.084zm7.65-.034c.365-.252.83-.113 1.232-.043-.03.396.028.92-.38 1.147-.381.134-.784.039-1.153-.077.053-.345.004-.777.301-1.027zm-113.325 1.09c.92-1.031 2.618-1.404 3.81-.627.362.355.054.89-.11 1.27-.427-.284-.892-.616-1.431-.573-.666.072-1.21.562-1.51 1.139-.345.664-.54 1.434-.428 2.182.063.427.39.81.823.896.706.188 1.347-.258 1.999-.447-.08.44-.02 1.066-.51 1.287-.911.43-2.064.488-2.938-.063-.604-.414-.855-1.181-.85-1.886.014-1.143.387-2.31 1.145-3.178zm86.065-.76c.477-.213 1.022-.23 1.525-.106.248.145.318.448.416.7.396 1.23.838 2.449 1.186 3.695a84.89 84.89 0 01.887-4.437 6.775 6.775 0 011.16.02c-.338 1.849-.736 3.685-1.09 5.528-.05.315-.209.733-.603.7-.39-.002-.985.146-1.177-.309-.527-1.416-.947-2.867-1.447-4.291a89.513 89.513 0 01-.908 4.586c-.377.012-.754.016-1.127.012.305-2.05.774-4.069 1.178-6.098zm-49.11.309c.387-.03.8-.117 1.154.104-.06.324-.123.646-.187.97.351.026.705.054 1.058.088a6.79 6.79 0 01-.203.988c-.357 0-.717.004-1.074.006-.156.888-.451 1.758-.398 2.668.322-.026.646-.054.971-.076-.051.335-.033.75-.326.98a1.784 1.784 0 01-1.61-.015c-.358-.223-.43-.695-.38-1.08.104-.832.33-1.645.464-2.47a22.8 22.8 0 00-.63-.022c.035-.297 0-.623.156-.889.18-.168.455-.125.683-.176.072-.367.138-.744.322-1.076zm32.96.066a2.886 2.886 0 011.223-.059c-.02.373-.06.748-.1 1.123.35.006.7.018 1.05.036-.075.32-.048.72-.31.96-.326.047-.654.028-.98.03-.18.774-.33 1.558-.485 2.338.039.084.114.25.153.332l.9-.1c-.076.362-.033.893-.449 1.06-.533.177-1.217.204-1.645-.214-.306-.303-.243-.773-.202-1.158.12-.76.293-1.506.446-2.256-.22-.01-.439-.016-.655-.023.037-.323.088-.645.159-.96.237-.038.477-.07.718-.105.062-.334.118-.668.177-1.004zm-65.612 2.204c.357-.719 1.095-1.309 1.932-1.25.461-.025.85.256 1.204.514.025-.094.077-.279.104-.373.364-.08.738-.078 1.104 0-.321 1.54-.591 3.094-.944 4.627-.359.006-.718.006-1.076 0 .03-.203.062-.404.094-.605-.425.371-.923.742-1.516.732-.538.045-1.096-.28-1.254-.811-.302-.94-.074-1.969.352-2.834m1.34.094c-.535.68-.68 1.608-.46 2.438.294.011.626.105.885-.078.703-.487 1.05-1.385 1.013-2.22-.282-.494-1.078-.597-1.438-.14zm5.141-.628c.416-.512 1.126-.944 1.776-.576-.04.39-.146.764-.272 1.129-.275-.008-.57-.109-.83.009-.508.311-.792.887-.909 1.455-.138.675-.269 1.35-.415 2.02-.406.026-.812.03-1.22.002.211-1.553.605-3.07.876-4.611a2.83 2.83 0 011.062-.02l-.068.592zm4.3-.646c.295-.088.608-.037.91-.03a4.7 4.7 0 01-.22 1.225c-.396-.052-.866-.118-1.143.242-.802.877-.706 2.165-1.024 3.243-.408.023-.817.029-1.228.017.238-1.556.589-3.09.894-4.633a2.897 2.897 0 011.074-.005c-.045.218-.096.438-.144.656.27-.266.518-.58.881-.715zm9.671.68c.52-.473 1.201-.88 1.935-.725.666.08.998.848.891 1.45-.18 1.1-.429 2.185-.648 3.275-.406.024-.81.03-1.215.008.074-.961.37-1.883.516-2.83.054-.293-.022-.582-.082-.864-.707.018-1.258.577-1.47 1.217-.263.805-.341 1.653-.552 2.47-.41.022-.818.024-1.228.015.236-1.553.6-3.082.9-4.622a2.72 2.72 0 011.059-.019c-.034.207-.073.416-.106.625zm5.02-.586c.695-.334 1.54-.13 2.11.357.01-.097.033-.287.042-.384.364-.07.732-.08 1.098-.017-.258 1.494-.594 2.976-.875 4.466-.123.596-.336 1.254-.896 1.575-.95.53-2.105.43-3.107.117a2.57 2.57 0 01.252-1.016c.637.225 1.353.41 2.01.166.445-.205.455-.764.589-1.172-.34.271-.707.531-1.146.607-.512.108-1.119-.06-1.39-.537-.354-.621-.288-1.379-.145-2.053.187-.847.652-1.71 1.458-2.109m.674.91c-.842.399-1.02 1.485-.941 2.324-.01.422.523.532.832.371.732-.365 1.029-1.214 1.154-1.97.133-.54-.606-.854-1.045-.725zm14.366.101c.367-.576.957-1.041 1.648-1.133.607-.078 1.295-.074 1.797.326.594.455.533 1.494-.091 1.897-.776.561-1.786.47-2.69.549.027.367-.006.908.436 1.049.7.183 1.404-.104 2.084-.254a8.22 8.22 0 01-.188.972c-.809.295-1.697.408-2.543.215-.574-.142-.992-.697-1.027-1.28-.043-.812.133-1.652.574-2.341m1.59-.193c-.436.17-.621.636-.79 1.033.54-.004 1.126.043 1.606-.25.229-.115.248-.41.184-.63-.24-.294-.676-.25-1-.153zm6.07-.752c.756-.348 1.654-.29 2.39.08-.068.309-.14.613-.212.922-.48-.176-1.016-.44-1.528-.23-.27.093-.35.55-.087.693.425.295.996.412 1.298.863.315.508.172 1.184-.175 1.633-.381.467-.997.674-1.582.697-.547.012-1.165-.025-1.563-.451.058-.297.12-.59.191-.88.538.212 1.141.58 1.723.302.235-.076.35-.387.258-.602-.389-.465-1.114-.514-1.428-1.06-.383-.703.024-1.63.715-1.967zm4.52.502c.504-.51 1.238-.871 1.965-.69.482.112.789.573.887 1.032.154.71-.006 1.451-.234 2.129-.282.77-.88 1.517-1.73 1.662-.54.107-1.091-.07-1.523-.397-.086.674-.234 1.336-.375 2-.398.045-.8.063-1.201.022-.002-.592.174-1.162.283-1.737.317-1.546.608-3.097.947-4.638a4.11 4.11 0 011.084.002 9.186 9.186 0 00-.103.615m.832.367c-.805.348-1.103 1.276-1.228 2.072.017.609.9.88 1.328.497.488-.437.664-1.118.687-1.75-.002-.269.02-.577-.166-.792a.816.816 0 00-.621-.027zm6.758-.349c.264-.268.52-.586.896-.697.3-.104.614.004.915.068-.074.387-.17.77-.285 1.145-.346-.018-.777-.148-1.035.156-.908.865-.785 2.217-1.117 3.332-.411.02-.825.021-1.235.01.242-1.553.601-3.082.895-4.625a2.736 2.736 0 011.08-.006c-.036.207-.077.412-.114.617zm11.79-.666a3.724 3.724 0 011.562.008c.528.143.993.59 1.07 1.146.17 1.116-.157 2.37-1.056 3.104-.635.533-1.527.635-2.318.496-.645-.107-1.203-.664-1.25-1.326-.19-1.393.545-3.055 1.992-3.428m.203.97c-.777.43-1.002 1.417-.93 2.24-.002.44.487.697.881.622.645-.074 1.014-.716 1.155-1.287.11-.468.216-1.017-.063-1.44-.27-.265-.715-.302-1.043-.134zm15.477-.123c.563-.988 2.022-1.242 2.877-.478.232-.479.803-.427 1.242-.329-.268 1.553-.6 3.092-.906 4.637-.363.006-.725.01-1.084.006.027-.201.059-.4.09-.602-.442.375-.96.758-1.569.729a1.204 1.204 0 01-1.248-.926 3.941 3.941 0 01.598-3.037m1.164.377a2.707 2.707 0 00-.46 2.49c.3-.002.645.086.9-.12.651-.481.983-1.31.995-2.103-.2-.56-1.044-.708-1.435-.267zm5.116-.572c.51-.438 1.145-.861 1.852-.72.449.03.703.449.873.818.529-.614 1.393-1.06 2.199-.735.566.242.695.944.6 1.492-.174 1.062-.414 2.11-.625 3.166-.414.018-.828.018-1.238.006.127-.914.35-1.806.52-2.709.071-.334.022-.672-.056-.998-.645.037-1.166.508-1.393 1.088-.332.836-.343 1.754-.629 2.602a5.95 5.95 0 01-1.222 0c.166-.905.354-1.805.524-2.71.045-.304.14-.695-.137-.92-.613-.06-1.051.487-1.28.987-.344.848-.39 1.774-.622 2.652-.412.018-.821.02-1.23.008.247-1.554.589-3.093.907-4.634.35-.065.706-.065 1.058-.002-.03.203-.068.404-.101.609zm16.58.777c.328-.807 1.072-1.545 1.996-1.514.48-.05.899.229 1.264.512.045-.135.098-.269.148-.398a3.223 3.223 0 011.06.021c-.31 1.547-.587 3.104-.95 4.639a47.6 47.6 0 01-1.07-.01c.029-.203.062-.406.098-.607-.432.39-.952.763-1.562.738a1.21 1.21 0 01-1.191-.774c-.328-.847-.12-1.793.207-2.607m1.697-.344c-.703.532-.865 1.514-.744 2.338.084.399.623.399.906.213.735-.455 1.006-1.344 1.12-2.151-.258-.415-.84-.702-1.282-.4zM93.527 70.09a3.117 3.117 0 011.254-.041c.162 1.041.312 2.086.462 3.129.663-.926 1.038-2.012 1.361-3.094.43-.101.873-.105 1.302-.008-.565 2.264-1.92 4.211-3.285 6.06-.359.497-1.042.286-1.556.278.241-.695.905-1.135 1.16-1.812-.175-1.512-.566-2.994-.698-4.512zm5.178.01a2.586 2.586 0 011.252-.021c-.252 1.547-.589 3.078-.9 4.615-.415.018-.829.018-1.241.002.257-1.54.612-3.06.89-4.596zm39.825-.014a3.02 3.02 0 011.234-.016c-.234 1.555-.584 3.086-.896 4.625-.418.02-.834.014-1.25-.016.3-1.53.603-3.062.912-4.593zm5.91-.01c.408-.086.83-.08 1.237.006-.267 1.539-.601 3.066-.897 4.603-.412.024-.824.026-1.236.016.236-1.553.582-3.088.896-4.625zm38.2.006a2.8 2.8 0 011.234-.006c-.254 1.545-.59 3.076-.9 4.611-.404.023-.807.03-1.207.006.19-1.554.578-3.076.873-4.611zm7.63-.004c.41-.09.832-.084 1.244.008-.28 1.531-.623 3.053-.89 4.586a7.757 7.757 0 01-1.278.015c.291-1.539.592-3.076.924-4.61z" fill="#170E0A"/><path d="M10.68 4.849C14.1 2.456 18.229 1.08 22.405.979a21.485 21.485 0 0111.382 2.872c3.823 2.199 6.946 5.572 8.902 9.523 2.27 4.543 2.927 9.832 1.999 14.815-1.271.31-2.58-.125-3.623-.851-3.168-2.115-6.069-4.623-8.682-7.393-1.568-1.617-2.893-3.48-3.848-5.521-.112-.224-.225-.483-.482-.569-3.463-1.498-6.921-3.01-10.393-4.483 1.135 2.977 3.258 5.518 5.842 7.357-2.12-.495-4.167-1.273-6.115-2.241-3.47-1.793-6.705-3.991-9.998-6.083a37.528 37.528 0 002.912 6.934c1.285 2.46 2.673 4.914 4.61 6.928 1.868 2.025 4.073 3.757 6.55 4.978 3.659 1.828 7.5 3.275 11.416 4.445-1.693 1.223-3.7 1.918-5.714 2.399-1.953.46-3.933.795-5.9 1.188-2.108.412-4.225.79-6.338 1.19-.661.139-1.354.278-1.916.679-.316.229-.154.72.125.908.808.589 1.89.553 2.822.332 1.748-.433 3.457-1.008 5.207-1.43 2.694-.681 5.47-1.033 8.248-1.133 2.463-.102 4.951-.074 7.376-.583 2.58-.62 4.763-2.196 6.942-3.634-.714 2.076-1.79 4.015-3.05 5.809-.669.012-1.337.002-2.005.008a593.53 593.53 0 00-2.432 4.293c-.144.258-.32.502-.568.668a21.752 21.752 0 01-9.424 3.862c-3.474.494-7.076.2-10.386-.979-4.025-1.418-7.6-4.057-10.185-7.447-2.46-3.205-4.035-7.074-4.548-11.078-.492-4.015-.004-8.166 1.553-11.907C4.332 10.84 7.12 7.307 10.68 4.848z" fill="#FFF500"/></svg>