<svg viewBox="0 0 400 98.284" xmlns="http://www.w3.org/2000/svg"><defs><clipPath id="a"><path d="M0 0h581.1v765.35H0V0z"/></clipPath></defs><path d="M287.633 33.677c0 25.58 25.765 29.006 25.765 64.644 0 0 25.778.832 25.778-17.114 0-18.524-53.865-49.948-42.791-69.274-8.459 8.66-8.752 21.744-8.752 21.744" fill="#a7a9ac"/><path d="M297.664 10.505c-11.49 20.316 42.743 52.563 42.743 69.673 0 5.878-.605 9.952-4.88 12.488 0 0 20.54-9.4 23.426-22.05v-6.334c-3.956-20.272-41.574-35.94-41.955-51.762-.219-8.866 8.397-11.314 8.397-11.314a54.957 54.957 0 00-3.718-.127c-18.038-.005-24.013 9.426-24.013 9.426" fill="#a7a9ac"/><path d="M371.165 6.913c-13.487 0-38.257-5.295-42.9-5.243-9.27.118-14.245 11.424-6.348 20.04 0 0 3.969-4.437 7.767-5.734 5.274-1.813 11.388-1.367 18.997-.92 7.933.46 17.504.929 29.444-1.17 14.556-2.553 19.449-8.23 21.836-13.828-5.839 4.836-15.305 6.855-28.796 6.855" fill="#b5985a"/><path d="M378.699 14.885c-11.945 2.099-21.507 1.634-29.444 1.17-7.613-.447-13.728-.89-19.002.924-3.802 1.292-7.648 5.427-7.648 5.427s9.628 10.066 15.397 14.017c3.714-11.936 27.228-7.236 36.838-10.67 12.111-4.323 17.197-11.6 19.12-16.417l-.057-.022c-3.333 2.352-8.125 4.327-15.204 5.571" fill="#b5985a"/><path d="M375.458 26.537c-10.351 3.316-24.666.788-32.493 5.375-3.264 1.905-4.188 5.216-4.188 5.216s7.355 5.923 14.153 13.676c0-1.822.626-4.744 2.996-7.114 4.205-4.205 27.118-7.122 31.393-24.039-3.25 3.719-10.035 6.299-11.861 6.886" fill="#b5985a"/><g clip-path="url(#a)" transform="matrix(6.7132 0 0 -6.7132 -832.112 5080.315)"><g fill="#b5985a"><path d="M162.771 749.462l1.525 4.017h-.919l-1.527-4.017h.921zm-13.61 0l1.527 4.017h-.919l-1.527-4.017h.919zm-6.67 0l1.527 4.017h-.92l-1.526-4.017h.919zm19.38 4.02l-1.179-3.133h-.726l.126.337c.145.386-.049.7-.437.7h-2.557a.948.948 0 01-.472-.14l.84 2.236h-.917l-1.178-3.133h-.602l.406 1.078h-.919l-.405-1.078h-2.254l.281.748h-1.055l-.644-1.714-.871.001c-.075-.257-.046-.475.082-.649.13-.174.384-.239.65-.239.255 0 .503.053.746.23.242.174.351.401.449.657l.031.082h10.025v.027l1.498 3.99h-.918zm-2.844-3.187h-2.762c.066.174.157.316.33.316h2.235c.174 0 .263-.142.197-.316m-13.386-.033c-.502-.115-.831-.587-.923-.874-.075-.257-.046-.475.083-.649s.567-.338.831-.338c.257 0 .893 0 1.428.328.254.156.497.402.591.658l.032.082.333.884.281.748h-1.056l-.613-1.632h-1.284l.297.793zm-3.11 3.22h-.919l-1.192-3.133h-2.17l.039.101a.453.453 0 00.389.284h1.093l.337.887c-.186 0-.196-.098-.389-.098h-1.624c-.193 0-.454-.157-.526-.349l-.311-.825h-1.132c.001.414-.299.71-.788.71-.488 0-1.02-.296-1.343-.71H132.7l1.191 3.133h-.919l-1.527-4.017h2.26c.054-.347.339-.585.779-.585.438 0 .911.238 1.238.585h5.283l1.526 4.017zm-7.305-3.494a.518.518 0 00-.444-.308c-.177 0-.268.138-.2.308.067.17.264.31.442.31s.268-.14.202-.31m-4.515 1.134l-.339-.839h-1.488l-.083-.086.168.45h.004l.463 1.215c-.088-.018-.357-.334-.744-.334h-1.623c-.192 0-.454-.157-.527-.349l-.03-.078-.16-.428-.232-.618-.22-.585h-1.285l.298.793c-.504-.115-.832-.587-.923-.874-.075-.258-.048-.475.082-.649.129-.174.568-.338.831-.338.257 0 .893 0 1.429.327.253.156.496.403.592.66l.031.081.332.884.11.292h.654l-.444-1.176h.921l.009.026h2.146c.066 0 .132.021.201.063a.323.323 0 01.139.16l.527 1.403h-.839zm.17.74c-.034-.239.13-.432.369-.432s.46.193.495.432a.365.365 0 01-.368.432.52.52 0 01-.496-.432m-5.83-4.01a.323.323 0 01.328-.385c.212 0 .408.171.441.385a.325.325 0 01-.328.384.461.461 0 01-.441-.384m-1.01 0c-.031-.214.115-.385.327-.385.213 0 .41.171.442.385.031.211-.117.384-.329.384s-.408-.173-.44-.384"/><path d="M153.401 748.712a.324.324 0 01.327-.385.46.46 0 01.441.385c.032.212-.115.384-.327.384s-.41-.172-.441-.384m-1.01 0a.327.327 0 01.329-.385c.213 0 .409.173.441.385a.324.324 0 01-.328.384.463.463 0 01-.442-.384m-6.47 2.53c-.035-.239.13-.432.368-.432s.46.193.496.432a.365.365 0 01-.368.431.52.52 0 01-.496-.43m-7.74 1.459a.517.517 0 01-.495-.43.465.465 0 01-.004-.099c0-.073-.489-.097-.489-.097l-.123-.35a28.198 28.198 0 001.075.123h.002-.001a.52.52 0 01.402.422.362.362 0 01-.367.431m.068-.436c-.011-.082-.088-.148-.169-.148s-.138.066-.126.148c.012.08.089.147.17.147s.137-.067.125-.147"/></g></g><path d="M.61 88.036l2.497-7.951c2.716-8.67 10.241-10.327 20.113-10.327s16.365 1.657 13.641 10.327l-2.496 7.951c-2.717 8.67-10.235 10.32-20.12 10.32-9.865 0-16.345-1.65-13.635-10.32m23.99-.825l1.998-6.344c1.302-4.168-.362-4.573-5.42-4.573-5.063 0-6.841.405-8.3 4.573l-1.99 6.344c-1.174 4.204.348 4.623 5.412 4.623 5.057 0 6.984-.42 8.3-4.623m20.889 10.925h-9.73l8.833-28.15h15.42l1.408 17.673h.341l12.162-17.674H89.72l-8.827 28.15h-9.722l7.738-21.585h-.334L62.558 98.136h-8.414L51.577 76.55h-.292L45.49 98.136zM97.195 93.3l-3.315 4.843H83.76l19.786-28.15h14.772l2.262 28.15h-9.922l-.377-4.844H97.195zm12.162-17.682h-.093l-8.257 12.198h9.047l-.697-12.198zm23.541 22.518h-9.722l8.833-28.15h16.437l3.67 21.613h.39l6.203-21.614h9.722l-8.826 28.15h-16.593l-3.528-21.62h-.384l-6.202 21.62zm58.534-4.836l-3.321 4.843H177.99l19.78-28.15h14.779l2.261 28.15h-9.921l-.384-4.844h-13.073zm12.155-17.682h-.1l-8.25 12.198h9.047l-.697-12.198zm23.335 22.518h-9.73l8.834-28.15h9.73l-8.834 28.15zm14.652-28.165h18.776c8.378.114 12.07 1.508 9.865 8.52-1.465 4.688-2.326 7.433-9.623 8.67l-.093.306c3.955.107 6.003 1.793 4.993 4.986l-1.77 5.668h-9.73l1.237-3.94c.754-2.098.036-3.527-2.88-3.527h-7.54l-2.34 7.467h-9.736l8.84-28.15zm12.823 14.146c4.182 0 4.424-1.195 5.413-4.388.789-2.518.192-3.229-3.016-3.229h-7.546l-2.39 7.617h7.54z" fill="#a7a9ac"/></svg>