<svg width="100" height="26" version="1.0" viewBox="0 0 80 20.8" xmlns="http://www.w3.org/2000/svg"><path d="M11.294.362c-.4-.02-.802-.018-1.196.01-1.147.073-2.453.394-3.46.855-.325.148-.418.193-.427.208-.005.01-.14.454-.302.991-.573 1.914-.531 1.762-.499 1.762.011 0 .123-.084.253-.187a8.31 8.31 0 014.073-1.713c.022 0 .225-.099.452-.222l1.555-.837c.784-.422 1.14-.622 1.135-.64-.007-.03-.037-.037-.408-.098a10.22 10.22 0 00-1.176-.124zm2.616.476c-.017 0-.593.302-1.28.672-1.273.687-1.356.738-1.186.738.125 0 .649.075.953.136a8.428 8.428 0 013.322 1.483l.181.137 1.623.48c.891.264 1.652.485 1.685.49.055.01.062.01.062-.028 0-.067-.397-.614-.754-1.037a14.523 14.523 0 00-1.25-1.233 10.069 10.069 0 00-2.692-1.607c-.258-.103-.628-.231-.664-.231zm-8.6 1.126c-.02-.01-.08.022-.229.123A10.116 10.116 0 001.21 7.108l-.03.09.545 1.004c.3.551.585 1.08.636 1.173.051.094.109.195.127.222.05.07.087.065.087-.01a8.007 8.007 0 01.815-2.79c.243-.488.472-.861.802-1.3L4.34 5.3l.491-1.641a80.1 80.1 0 00.49-1.671c0-.013-.003-.021-.01-.025zm5.336 2.096c-3.597 0-6.513 2.894-6.513 6.464 0 3.57 2.916 6.465 6.513 6.465 3.596 0 6.512-2.895 6.512-6.465S14.243 4.06 10.647 4.06zm6.42.993c-.017 0-.03.01-.03.017 0 .011.077.114.17.231a8.386 8.386 0 011.402 2.568c.164.494.297 1.071.359 1.583l.03.247.408.748c.224.41.584 1.071.798 1.47.353.647.42.757.447.73.035-.033.172-.88.216-1.318.038-.385.03-1.58-.01-1.954a10.02 10.02 0 00-.777-2.966c-.158-.365-.23-.509-.267-.54a94.532 94.532 0 00-2.747-.816zM7.342 6.897h5.342c.448.037.785.128 1.149.304.46.223.776.524 1.002.953.168.322.253.632.268.996a2.196 2.196 0 01-.75 1.788c-.336.296-.756.485-1.315.595-1.214.076-1.665.047-3.212.053l.024 2.458c.034.066.13.123.238.135.109.014.14.04.132.102l.004.032h-2.87c-.014-.011-.024-.043-.02-.068.005-.041.016-.047.096-.058.123-.018.238-.066.27-.11l.029-6.913-.054-.05a.484.484 0 00-.268-.09.1.1 0 01-.055-.02c-.023-.023-.029-.09-.009-.11zM.923 8.181c-.01 0-.017.01-.022.022-.028.08-.13.657-.166.946a9.591 9.591 0 00-.076 1.512 9.767 9.767 0 00.584 3.183c.106.299.37.921.404.952.018.016 2.468.751 2.655.796.077.018.063-.023-.067-.193a7.891 7.891 0 01-.79-1.256 8.067 8.067 0 01-.86-2.8l-.03-.233-.64-1.179c-.353-.65-.713-1.307-.799-1.465-.107-.198-.162-.282-.192-.285zm8.904.261v1.675l1.29-.011c1.173-.01 1.299-.01 1.415-.037.463-.12.648-.358.648-.829.002-.268-.03-.367-.16-.507a.789.789 0 00-.427-.24c-.148-.039-.18-.04-1.458-.046H9.827zm26.777.263v.05c0 .04.013.06.042.076l.042.02-.94 2.553c-.035.02-.048.043-.048.08v.05l.897-.01.004-.052c.004-.033 0-.05-.018-.05-.068 0-.066-.046.01-.272l.073-.222 1.12.01c.033.046.162.447.15.466-.005.01-.021.02-.035.02-.016 0-.025.02-.025.055v.057h.993v-.054c0-.037-.01-.06-.033-.067l-.95-2.598s.025-.019.025-.056v-.056h-1.307zm27.753.014v.053c0 .039.013.06.042.075l.042.02-.94 2.552a.085.085 0 00-.048.082v.05l.897-.01.004-.053c.004-.033-.001-.05-.018-.05-.068 0-.066-.047.01-.273l.073-.222 1.12.011c.033.047.164.448.152.466-.005.011-.023.02-.037.02-.016 0-.025.02-.025.056v.055h.993v-.053c0-.038-.01-.06-.033-.068l-.95-2.599s.025-.02.025-.056v-.056h-1.307zm-24.138.016l-.004.045c-.005.042.105.123.138.132l.001 2.478-.038.028a.136.136 0 01-.07.03c-.023 0-.031.016-.031.056v.055h1.044v-.052c0-.043-.01-.056-.06-.078-.04-.013-.065-.039-.07-.062v-.86h.424l.596.909-.052.022c-.042.017-.055.032-.055.072v.053h1.056l.004-.056c.003-.037-.01-.053-.053-.075l-.641-.919s.034-.018.076-.031c.249-.079.47-.287.543-.507.073-.225.065-.596-.018-.791a.736.736 0 00-.305-.328c-.208-.108-.244-.11-1.414-.12h-1.07zm13.101 0l-.004.045c-.005.042.105.123.138.132l.001 2.478-.038.028a.136.136 0 01-.07.03c-.023 0-.031.016-.031.056v.055h1.045v-.052c0-.043-.011-.057-.062-.078-.038-.013-.064-.039-.07-.062v-.86h.425l.596.907-.052.024c-.042.017-.055.032-.055.073v.052H56.2l.003-.055c.003-.038-.01-.054-.053-.076l-.641-.92s.034-.015.076-.028c.249-.079.472-.287.545-.507.073-.226.063-.598-.02-.793a.733.733 0 00-.304-.327c-.207-.109-.244-.11-1.414-.12H53.32zm-6.063 0v.053c0 .039.012.058.042.073l.042.02-.94 2.552c-.035.02-.05.045-.05.082v.05l.897-.01.006-.053c.003-.033-.003-.05-.02-.05-.068 0-.066-.046.01-.271l.073-.222 1.122.01c.033.046.162.447.15.466-.005.011-.023.02-.037.02-.016 0-.023.02-.023.055v.057h.99v-.056c0-.037-.01-.058-.032-.066l-.95-2.601s.026-.02.026-.056v-.056h-1.306zm26.605.023c-.263 0-.416 0-.506.019-.55.105-.949.376-1.14.78-.081.174-.113.339-.113.598 0 .402.084.634.322.884.224.236.432.356.76.443.147.04.223.048.518.055.362.011.592-.01.882-.068.22-.045.528-.149.694-.232.155-.078.178-.121.1-.194l-.046-.042v-.428c0-.428.008-.499.062-.499.018 0 .028-.02.028-.055v-.054h-1.535l-.027-.045c-.018-.027-.048-.045-.073-.045h-.044v.761h.045c.033 0 .051-.013.062-.044a.107.107 0 01.047-.054c.016-.01.159-.01.316-.01.222 0 .289.01.305.025.012.016.02.073.017.149-.006.11-.01.126-.051.146-.08.039-.373.079-.572.079-.44 0-.79-.167-.935-.453a.7.7 0 01-.08-.44c.062-.405.414-.668.894-.67.199 0 .398.029.598.087.219.063.29.102.308.175.011.04.028.06.055.064.036.01.058-.032.201-.33.09-.185.163-.35.163-.367 0-.025-.013-.028-.08-.02-.06.01-.109 0-.22-.044a3.79 3.79 0 00-.359-.11c-.202-.05-.244-.056-.596-.061zm-44.72.01c-.2 0-.32.013-.442.038-.381.081-.717.28-.895.532-.188.266-.248.468-.248.834 0 .373.058.567.248.821.178.237.483.431.811.515.145.036.205.042.542.04.408 0 .507-.016.767-.124.37-.148.65-.442.768-.8.05-.155.053-.178.053-.479 0-.308-.002-.322-.056-.47a1.119 1.119 0 00-.328-.491c-.316-.301-.66-.418-1.22-.414zm32.147 0c-.289 0-.444 0-.536.019-.27.052-.53.157-.738.302a1.278 1.278 0 00-.491.65c-.044.126-.047.16-.048.426 0 .272.004.299.05.431.066.187.152.321.309.475.236.236.541.387.918.454.145.025.24.03.515.022.395-.011.565-.044.96-.175.195-.065.27-.084.294-.07.02.01.054.014.079.01.034-.01.044-.02.039-.05-.015-.068-.504-.81-.536-.81-.054 0-.079.03-.071.092.005.052-.004.065-.056.102-.085.058-.354.141-.576.178a.856.856 0 01-.329.01c-.359-.052-.6-.194-.707-.415a.45.45 0 01-.06-.266c0-.12.009-.162.052-.247.088-.185.273-.314.553-.39.249-.068.71-.028.975.087.105.045.127.07.143.15.009.037.023.059.048.062.027 0 .051-.025.105-.128l.222-.41c.08-.15.15-.29.15-.31 0-.04-.051-.049-.105-.02-.02.01-.086 0-.202-.037-.344-.105-.516-.128-.957-.135v-.01zm16.66 0c-.2 0-.321.013-.444.038-.38.081-.716.28-.895.532-.188.266-.246.468-.246.834 0 .373.057.567.246.821.179.237.485.431.813.515.145.036.203.04.54.039.409 0 .509-.017.769-.124.37-.15.65-.443.768-.801.05-.154.053-.178.053-.479 0-.308-.002-.322-.056-.47a1.117 1.117 0 00-.328-.491c-.316-.301-.66-.418-1.22-.414zm-27.164.025v.057c0 .04.015.058.06.079l.058.027v2.463l-.057.019c-.05.013-.06.024-.06.067l.002.048 1.072-.01.005-.048c.005-.04-.064-.066-.106-.076V8.925a.184.184 0 01.073-.018c.03 0 .038-.01.033-.05l-.005-.05-1.075-.01zm-26.876.02v.055c0 .039.008.057.027.057.016 0 .049.02.072.045l.01 2.455a.125.125 0 01-.073.036c-.029 0-.036.014-.036.055v.054h1.078l.002-.057c.005-.04-.005-.049-.05-.06a.234.234 0 01-.074-.033l.003-.848h.558c.456-.01.588-.016.673-.042a.847.847 0 00.547-.442c.065-.132.069-.146.076-.35a.994.994 0 00-.025-.317c-.076-.266-.298-.474-.6-.563-.091-.027-.234-.031-1.145-.038l-1.043-.012zm44.183 0l-.004.041c-.005.041.108.12.142.13l.002 2.41-.04.027a.15.15 0 01-.072.03c-.023 0-.032.013-.032.054v.055h1.082v-.052c0-.042-.011-.054-.063-.074-.04-.013-.068-.038-.073-.061v-.837h.44s.615.88.618.882l-.055.023c-.043.017-.055.03-.055.07v.052h1.095l.003-.055c.003-.036-.01-.05-.055-.073l-.664-.895s.034-.015.077-.028c.259-.077.49-.279.566-.493.076-.219.066-.58-.02-.77a.737.737 0 00-.316-.32c-.215-.105-.253-.106-1.465-.115h-1.11zm-36.018.01v.053c0 .037.01.056.028.056.016 0 .048.02.071.045l.047.042-.037 2.413a.123.123 0 01-.072.036c-.029 0-.037.014-.037.055v.054l2.684.014c.01.01.03.037.04.064.015.034.031.05.065.05h.045v-.943h-.043c-.033 0-.072.092-.08.127h-1.752l-.011-1.935.07-.016c.057-.014.066-.022.066-.068v-.052h-1.084zm9.523.544h.002c.42.01.458.012.534.048a.26.26 0 01.146.269c-.013.076-.1.168-.183.2-.09.012-.965 0-.965 0v-.507l.466-.01zm13.102 0c.423.01.458.012.534.048a.26.26 0 01.146.269c-.012.076-.1.168-.183.2-.09.012-.965 0-.965 0v-.507l.468-.01zm-17.52.023l.453 1.065-.81.01.356-1.07zm27.752.014l.454 1.067-.81.01.356-1.072zm-35.788.017c.05 0 .101.01.177.025.151.032.315.11.418.198.092.08.198.283.22.427a.706.706 0 01-.325.689c-.41.266-1.03.112-1.218-.3-.204-.445.046-.904.552-1.012a.809.809 0 01.176-.028zm18.687 0l.452 1.067-.81.01.358-1.072zm21.691 0c.439.01.475.01.555.045.106.05.171.161.151.263-.012.074-.103.163-.19.193-.093.013-1 0-1 0l.001-.492.483-.01zm8.43 0c.05 0 .099.01.175.025.151.032.315.11.418.198.092.08.2.283.221.427a.706.706 0 01-.325.689c-.41.266-1.031.112-1.219-.3-.204-.445.048-.904.553-1.012a.81.81 0 01.177-.028zm-53.087.016h.44c.407.01.441 0 .528.042.067.031.099.057.12.104a.265.265 0 01-.122.362c-.065.031-.034.034-.416.04h-.55v-.548zm-5.842 1.726c-.015 0-.03.028-.036.067a10.614 10.614 0 01-.169 1.01 8.279 8.279 0 01-1.681 3.39.716.716 0 00-.152.254c-.059.177-.9 3.006-.914 3.062-.007.034-.002.05.013.05.05 0 .606-.38.952-.65a10.268 10.268 0 001.828-1.855 9.851 9.851 0 001.09-1.8c.198-.42.413-.975.413-1.06 0-.035-.176-.37-.848-1.6l-.302-.558c-.094-.17-.181-.31-.194-.31zM2.186 15.666c-.018 0-.032.014-.032.03s.07.138.156.268a10.305 10.305 0 003.7 3.356c.434.234 1.214.57 1.364.592.053.01.223-.08 1.26-.64.658-.357 1.2-.66 1.204-.674.004-.022-.056-.036-.275-.07a8.375 8.375 0 01-4.038-1.801l-.152-.124-1.578-.47a84.856 84.856 0 00-1.609-.467zm13.776 1.165c-.025-.01-.093.03-.226.132a8.18 8.18 0 01-2.362 1.237 8.36 8.36 0 01-1.903.395l-.192.016-.403.215-1.443.778c-.729.392-1.039.567-1.035.586.013.064.865.211 1.563.273.331.029 1.3.029 1.629 0a10.202 10.202 0 003.413-.883l.192-.09.292-.975.388-1.302c.055-.179.1-.339.1-.355 0-.014-.005-.023-.013-.027z" fill="#003d80"/></svg>