<svg clip-rule="evenodd" fill-rule="evenodd" stroke-linejoin="round" stroke-miterlimit="1.414" viewBox="0 0 173 27" xmlns="http://www.w3.org/2000/svg"><path d="M.339 23.38h22.817L27.221.695.339 23.38z" fill="#3d4194"/><path d="M24.08 10.605l.189-7.417-.625.527-.174 6.955-.839 3.086h.001l-.004.001.003-.001-1.44-2.631-.768-4.691-.542.456.678 4.235v3.312l.018-.006-.033.013.015-.007-1.986-2.328-1.709-2.673-.459.388 1.634 2.556.776 2.975.021-.011-.042.028.021-.017-2.652-1.793-1.678-2.117-.45.379 1.662 2.098 1.495 2.672-3.048-1.219-2.232-1.76-.45.38 2.299 1.814 2.107 2.225.02-.021-.032.041.012-.02-3.306-.57-3.424-1.508-.48.406 3.618 1.594 2.525 1.776.017-.029-.031.064.014-.035-3.253-.226-5.01-1.355-.52.439 5.338 1.444 2.753 1.476-3.225.38-8.222-.468-.618.522 8.757.498 2.98.831 11.215-9.29-.916-3.378z" fill="#f6b83a"/><path d="M13.23 23.38h22.816L40.112.695 13.23 23.38z" fill="#ed373b"/><path d="M47.192 23.38h-2.207l2.229-10.711h4.338c.771 0 1.381.092 1.83.274a2.21 2.21 0 011.066.906c.263.421.393.924.393 1.509 0 .54-.104 1.066-.312 1.577-.208.512-.464.921-.766 1.228a3.303 3.303 0 01-.977.698c-.349.157-.819.278-1.41.361-.344.049-.988.073-1.932.073h-1.402l-.85 4.085zm1.22-5.866h.673c1.151 0 1.919-.073 2.305-.217.385-.145.689-.377.91-.696.221-.318.333-.669.333-1.05 0-.256-.057-.466-.171-.63a.973.973 0 00-.477-.359c-.205-.075-.662-.112-1.372-.112H49.05l-.638 3.064zm8.521 5.866h-2.085l2.228-10.711h2.086l-.795 3.821c.479-.378.927-.65 1.342-.816a3.55 3.55 0 011.336-.25c.638 0 1.142.183 1.513.551.371.367.557.848.557 1.443-.013.309-.085.79-.217 1.442l-.978 4.52h-2.085l.985-4.609c.104-.5.164-.823.178-.969 0-.267-.083-.479-.248-.641-.166-.16-.391-.241-.676-.241-.361 0-.707.123-1.038.367-.431.324-.759.72-.985 1.19-.121.259-.28.869-.478 1.828l-.64 3.075zm8.555-7.764h2.085l-1.616 7.766h-2.085l1.616-7.766zm.612-2.945h2.086l-.395 1.9h-2.086l.395-1.9zm1.846 10.709l2.229-10.711h2.086l-2.23 10.711h-2.085zm5.691-7.764h2.085l-1.616 7.766h-2.085l1.616-7.766zm.612-2.945h2.086l-.395 1.9h-2.086l.395-1.9zm3.413 2.945h1.989l-.159.793c.422-.352.817-.604 1.185-.756a3.091 3.091 0 011.185-.227c.809 0 1.459.28 1.95.842.492.562.738 1.4.738 2.513 0 1.402-.427 2.586-1.28 3.553-.733.826-1.599 1.238-2.599 1.238-1.029 0-1.808-.414-2.334-1.241l-.821 3.996H75.43l2.232-10.711zm1.245 4.458c0 .611.147 1.086.442 1.424s.641.506 1.041.506c.345 0 .679-.126 1-.378.322-.254.588-.673.8-1.26.211-.587.318-1.131.318-1.632 0-.584-.139-1.032-.417-1.344a1.356 1.356 0 00-1.058-.468c-.4 0-.764.143-1.093.43-.328.286-.582.708-.763 1.263-.18.556-.27 1.042-.27 1.459zm7.803-4.458h1.988l-.158.793c.422-.352.817-.604 1.185-.756a3.09 3.09 0 011.184-.227c.809 0 1.459.28 1.951.842s.738 1.4.738 2.513c0 1.402-.427 2.586-1.281 3.553-.732.826-1.598 1.238-2.598 1.238-1.03 0-1.808-.414-2.335-1.241l-.821 3.996h-2.085l2.232-10.711zm1.245 4.458c0 .611.147 1.086.441 1.424.295.338.642.506 1.042.506.345 0 .679-.126 1-.378.321-.254.588-.673.799-1.26.212-.587.318-1.131.318-1.632 0-.584-.139-1.032-.416-1.344a1.36 1.36 0 00-1.059-.468c-.399 0-.763.143-1.092.43-.329.286-.583.708-.763 1.263-.18.556-.27 1.042-.27 1.459zm7.855-4.458h2.085l-1.616 7.766h-2.085l1.616-7.766zm.612-2.945h2.087l-.396 1.9h-2.086l.395-1.9zm3.478 2.945h1.989l-.201 1.025c.503-.437.973-.749 1.41-.935.437-.187.898-.28 1.381-.28.647 0 1.157.186 1.53.558.372.372.559.867.559 1.481-.007.272-.096.785-.267 1.542l-.942 4.375h-2.086l.94-4.39c.137-.656.211-1.05.222-1.181 0-.276-.082-.493-.243-.652-.162-.157-.387-.237-.676-.237-.314 0-.663.13-1.046.389-.384.26-.685.602-.904 1.028-.162.303-.345.922-.547 1.856l-.648 3.187h-2.085l1.614-7.766zm14.94 4.534h-5.222a3.537 3.537 0 00-.008.191c0 .519.146.938.438 1.255.292.319.647.478 1.067.478.69 0 1.228-.356 1.614-1.069l1.876.309c-.364.752-.849 1.316-1.457 1.692s-1.29.564-2.046.564c-1.037 0-1.88-.331-2.529-.993-.65-.661-.974-1.537-.974-2.626 0-1.065.293-2.012.879-2.842.798-1.123 1.938-1.685 3.42-1.685.944 0 1.695.294 2.252.883s.835 1.413.835 2.473c0 .508-.048.965-.145 1.37zm-1.755-1.282c.005-.093.007-.165.007-.213 0-.579-.128-1.012-.384-1.301-.257-.289-.6-.434-1.03-.434-.431 0-.817.164-1.158.493-.341.328-.572.813-.693 1.455h3.258zm13.005 2.142h-4.236l-1.304 2.375h-2.273l6.046-10.711h2.479l1.724 10.711h-2.086l-.35-2.375zm-.263-1.781l-.634-4.299-2.361 4.299h2.995zm5.563-3.613h2.086l-1.616 7.766h-2.085l1.615-7.766zm.613-2.945h2.086l-.396 1.9h-2.085l.395-1.9zm3.337 2.945h1.964l-.308 1.473c.734-1.109 1.528-1.663 2.382-1.663.302 0 .626.075.974.225l-.807 1.706a1.837 1.837 0 00-.615-.102c-.365 0-.736.137-1.113.412a2.745 2.745 0 00-.885 1.1c-.211.459-.421 1.186-.629 2.182l-.492 2.433h-2.085l1.614-7.766zm4.25 7.764l2.228-10.711h2.085l-2.229 10.711h-2.084zm5.69-7.764h2.086l-1.616 7.766h-2.086l1.616-7.766zm.613-2.945h2.086l-.395 1.9h-2.086l.395-1.9zm3.477 2.945h1.988l-.201 1.025c.504-.437.974-.749 1.411-.935.437-.187.897-.28 1.381-.28.647 0 1.157.186 1.53.558s.559.867.559 1.481c-.008.272-.097.785-.267 1.542l-.942 4.375h-2.086l.94-4.39c.136-.656.211-1.05.222-1.181 0-.276-.082-.493-.244-.652-.161-.157-.387-.237-.676-.237-.313 0-.662.13-1.045.389-.385.26-.686.602-.904 1.028-.163.303-.346.922-.549 1.856l-.647 3.187h-2.084l1.614-7.766zm14.94 4.534h-5.221c-.007.083-.007.147-.007.191 0 .519.145.938.437 1.255.292.319.648.478 1.068.478.689 0 1.226-.356 1.613-1.069l1.876.309c-.364.752-.85 1.316-1.457 1.692a3.815 3.815 0 01-2.047.564c-1.036 0-1.88-.331-2.528-.993-.65-.661-.974-1.537-.974-2.626 0-1.065.293-2.012.878-2.842.798-1.123 1.939-1.685 3.422-1.685.944 0 1.694.294 2.25.883.557.589.837 1.413.837 2.473 0 .508-.05.965-.147 1.37zm-1.754-1.282c.004-.093.008-.165.008-.213 0-.579-.129-1.012-.386-1.301-.256-.289-.6-.434-1.03-.434s-.816.164-1.157.493c-.341.328-.572.813-.694 1.455h3.259zm2.194 2.362l2.019-.318c.181.425.405.724.676.9.268.176.636.264 1.1.264.48 0 .865-.108 1.152-.324.201-.147.301-.326.301-.538a.55.55 0 00-.153-.382c-.107-.107-.397-.239-.869-.395-1.268-.42-2.051-.752-2.354-.997-.472-.381-.708-.879-.708-1.494 0-.616.23-1.145.687-1.59.639-.62 1.586-.93 2.843-.93 1 0 1.755.183 2.267.549.511.367.835.863.971 1.488l-1.923.338a1.21 1.21 0 00-.499-.64c-.314-.191-.692-.287-1.132-.287-.442 0-.759.074-.953.221-.193.147-.29.315-.29.506 0 .196.097.357.292.484.122.078.514.215 1.176.41 1.023.299 1.707.591 2.054.88.486.405.729.893.729 1.465 0 .738-.309 1.377-.927 1.919-.62.542-1.491.813-2.616.813-1.121 0-1.986-.205-2.597-.615-.611-.409-1.026-.984-1.246-1.727z" fill="#373535"/></svg>