<svg viewBox="0 0 744.1 324.24" xmlns="http://www.w3.org/2000/svg"><defs><clipPath id="a"><path d="M4370.3 2011.4s-430.23 58.69-523.17 73.15c41.76-42.34 68.58-91.38 69.24-169.06.37-43.26-19.75-102.17-39.68-136.55l493.61 232.46z"/></clipPath><clipPath id="c"><path d="M0 2593.9V0h5952.8v2593.9H0z"/></clipPath><linearGradient id="b" x2="1" gradientTransform="matrix(-162.47 281.4 281.4 162.47 4134.9 1875.5)" gradientUnits="userSpaceOnUse"><stop stop-color="#b1da19" offset="0"/><stop stop-color="#67c530" offset=".993"/><stop stop-color="#67c530" offset="1"/></linearGradient></defs><g clip-path="url(#a)" transform="matrix(.13 0 0 -.13 0 324.24)"><path d="M4370.3 2011.4s-430.23 58.69-523.17 73.15c41.76-42.34 68.58-91.38 69.24-169.06.37-43.26-19.75-102.17-39.68-136.55l493.61 232.46" fill="url(#b)"/></g><g clip-path="url(#c)" transform="matrix(.13 0 0 -.13 0 324.24)"><path d="M3847.2 2084.6c41.76-42.34 68.58-91.38 69.24-169.06.37-43.26-19.75-102.17-39.68-136.55l123.04 57.94c1.76 10.82 1.83 16.79 1.83 28.11 0 94.93-67.4 194.67-154.43 219.56" fill="#4dbd38"/><path d="M4024.2 825.31a3697.851 3697.851 0 01-49.31-88.289c-16.2-29.891-33.13-62.11-50.77-96.649h149.03c-8.03 34.617-16.02 66.879-24.06 96.777a3286.327 3286.327 0 01-24.89 88.161zm76.61-309.91a1721.483 1721.483 0 00-11.43 49.481c-3.39 15.82-6.54 31.269-9.52 46.262h-170.61a1906.916 1906.916 0 01-23.64-46.379c-7.79-15.864-16.03-32.301-24.6-49.364h-35.78c18.35 36.364 35.61 70.231 51.8 101.62 16.24 31.39 31.97 61.121 47.25 89.109 15.28 28.043 30.32 54.953 45.14 80.75 14.82 25.84 30.19 51.762 46.21 77.73h30.19c8.66-25.839 16.73-51.718 24.14-77.597 7.41-25.891 14.87-52.84 22.28-80.801 7.45-28.031 14.83-57.719 22.07-89.191 7.29-31.43 15.41-65.301 24.31-101.62h-37.81m185.89 339.14c-1.08-7.738-4.31-13.867-9.61-18.379-5.34-4.558-11.38-6.828-18.09-6.828s-12.09 2.27-16.19 6.828c-4.06 4.512-5.55 10.641-4.48 18.379 1.12 7.711 4.31 13.832 9.65 18.391 5.35 4.511 11.39 6.789 18.1 6.789s12.09-2.278 16.19-6.789c4.02-4.559 5.55-10.68 4.43-18.391zm-55.2-339.14h-32.75l36.6 260.55h32.76L4231.5 515.4M4448 780.96c10.77 0 20.79-.832 30.11-2.531 9.4-1.688 15.77-3.348 19.21-5.008l-10.48-28.242c-2.52 1.332-7.78 2.781-15.82 4.308-8.03 1.492-18.71 2.231-32.17 2.231-14.08 0-25.59-.989-34.45-3.02-8.82-2.027-14.7-3.679-17.6-5.008l-32.05-228.29h-32.76l34.91 248.42c8.9 3.68 21.04 7.489 36.36 11.34 15.32 3.852 33.58 5.801 54.74 5.801m138-270.071c-11.06.328-20.5 1.73-28.36 4.257-7.91 2.532-14.25 6.383-19.05 11.602-4.81 5.211-8.04 11.922-9.78 20.16-1.69 8.199-1.65 18.551.09 30.981l45.3 322.49 33.62 6.051-46.04-327.51c-1.12-8.07-1.25-14.531-.46-19.422.87-4.84 2.53-8.738 5.18-11.59 2.61-2.859 6.29-4.969 10.93-6.301 4.72-1.359 10.35-2.519 16.89-3.519L4586 510.89m156.9 343.65c-1.08-7.738-4.31-13.867-9.61-18.379-5.34-4.558-11.39-6.828-18.09-6.828-6.71 0-12.1 2.27-16.19 6.828-4.06 4.512-5.55 10.641-4.48 18.379 1.12 7.711 4.31 13.832 9.65 18.391 5.34 4.511 11.39 6.789 18.1 6.789s12.09-2.278 16.19-6.789c4.02-4.559 5.55-10.68 4.43-18.391zm-55.2-339.14h-32.75l36.6 260.55h32.76L4687.7 515.4m125.7 251.44c10.15 2.691 23.65 5.711 40.62 9.109 16.9 3.313 37.31 5.012 61.17 5.012 19.79 0 35.94-2.859 48.4-8.57 12.47-5.719 21.91-13.832 28.33-24.43 6.42-10.563 10.23-23.281 11.55-38.063 1.24-14.777.62-31.058-1.86-48.859l-20.46-145.64h-32.75l18.96 135.04c2.61 18.457 3.56 34.118 2.82 46.868-.75 12.761-3.44 23.191-8.2 31.273-4.76 8.027-11.68 13.828-20.75 17.387-9.07 3.519-20.83 5.261-35.28 5.261-15.44 0-28.94-.832-40.41-2.531-11.47-1.66-19.01-3.187-22.57-4.508l-32.14-228.79h-32.75l35.32 251.44M5261 666.59c3.14 27.199-.25 48.359-10.23 63.48-9.94 15.11-26.05 22.692-48.24 22.692-11.76 0-22.57-2.364-32.47-7.082-9.89-4.68-18.84-11.02-26.83-18.879-7.99-7.91-14.66-17.071-20-27.461-5.34-10.43-9.15-21.32-11.39-32.75H5261zm-187.88-20.668c3.23 22.816 9.32 42.738 18.26 59.719 8.95 16.968 19.51 31.14 31.68 42.558 12.18 11.43 25.47 19.922 39.84 25.473 14.41 5.547 28.78 8.316 43.23 8.316 31.93 0 55.9-10.429 71.97-31.258 16.07-20.832 21.04-52.878 14.95-96.242-.37-2.687-.87-5.379-1.41-8.066-.54-2.692-1.12-5.223-1.78-7.543h-182.91c-3.52-31.918.96-56.438 13.34-73.578 12.38-17.153 34.7-25.68 66.92-25.68 17.8 0 32.13 1.66 43.06 5.008 10.85 3.363 18.8 6.223 23.85 8.582l2.07-28.199c-5.09-2.703-14.37-5.93-27.78-9.614-13.46-3.687-28.91-5.507-46.38-5.507-22.86 0-41.87 3.359-57.02 10.058-15.2 6.711-27.12 16.11-35.86 28.199-8.7 12.102-14.29 26.473-16.61 43.114-2.4 16.609-2.19 34.828.58 54.66M5409.5 538.59c18.84 0 34.83 3.101 47.95 9.32 13.13 6.211 20.75 16.731 22.82 31.512.99 7.039.74 13.078-.75 18.137-1.45 5.05-4.43 9.562-8.9 13.582-4.47 4.058-10.6 7.91-18.26 11.589-7.74 3.692-17.27 8.079-28.66 13.129-9.19 4.02-17.84 8.121-26 12.34-8.16 4.18-15.16 9.071-21.12 14.582-5.92 5.59-10.39 12.168-13.33 19.91-2.9 7.75-3.61 17.149-2.07 28.2 2.98 21.211 13.37 38.308 31.18 51.429 17.76 13.09 40.62 19.668 68.49 19.668 17.8 0 32.3-1.527 43.48-4.547 11.18-3.019 18.88-5.722 23.27-8.082l-11.68-29.23c-3.72 2.031-10.14 4.723-19.21 8.07-9.15 3.36-22.9 5.063-41.37 5.063-7.41 0-14.49-.75-21.24-2.282-6.79-1.531-12.92-3.89-18.39-7.082-5.51-3.187-10.1-7.25-13.79-12.136-3.72-4.84-6.08-10.801-7.08-17.883-.99-7.09-.45-13.129 1.49-18.18 1.95-5.058 5.3-9.527 9.98-13.379 4.64-3.89 10.52-7.488 17.6-10.851 7.08-3.309 15.24-7 24.43-11.008 9.49-4.02 18.55-8.121 27.21-12.301 8.65-4.18 16.11-9.191 22.32-15.121 6.25-5.828 10.97-12.918 14.16-21.16 3.19-8.199 3.93-18.547 2.2-30.969-3.32-23.519-14.62-41.289-33.92-53.418-19.34-12.094-44.35-18.14-74.91-18.14-22.82 0-40 1.949-51.55 5.796-11.56 3.852-19.22 6.793-22.94 8.821l12.75 29.73c.87-.66 2.94-1.738 6.05-3.269 3.14-1.532 7.45-3.188 12.87-5.051 5.47-1.82 12.05-3.438 19.76-4.758 7.7-1.371 16.77-2.031 27.16-2.031M4142.2 1154.4c26.21 0 49.48.6 69.73 1.8 20.29 1.22 37.15 3.44 50.69 6.67v187.67c-7.95 4.01-20.87 7.45-38.76 10.29-17.89 2.81-39.55 4.22-64.97 4.22-16.69 0-34.37-1.2-53.05-3.62-18.68-2.43-35.78-7.48-51.26-15.14-15.53-7.68-28.45-18.16-38.76-31.47-10.36-13.33-15.49-30.87-15.49-52.67 0-40.38 12.67-68.41 38.14-84.15 25.42-15.73 60-23.6 103.73-23.6zm-9.53 564.18c44.48 0 82.04-5.86 112.68-17.55 30.56-11.72 55.24-28.27 73.92-49.65 18.67-21.39 31.96-46.82 39.91-76.26 7.96-29.48 11.93-61.97 11.93-97.48v-393.47c-9.52-1.62-22.86-3.83-39.92-6.65-17.1-2.83-36.36-5.44-57.85-7.87-21.45-2.42-44.68-4.63-69.73-6.66-25.05-2.01-49.9-3.03-74.54-3.03-34.99 0-67.16 3.63-96.57 10.9-29.4 7.26-54.82 18.75-76.31 34.51-21.45 15.74-38.14 36.5-50.07 62.34-11.92 25.82-17.89 56.9-17.89 93.24 0 34.68 6.96 64.55 20.87 89.59 13.92 24.99 32.8 45.17 56.65 60.52 23.85 15.32 51.64 26.64 83.44 33.91 31.8 7.25 65.18 10.89 100.17 10.89 11.1 0 22.65-.6 34.58-1.82 11.92-1.2 23.23-2.84 33.95-4.85 10.77-2.02 20.09-3.83 28.04-5.44 7.95-1.62 13.5-2.84 16.69-3.62v31.47c0 18.55-1.99 36.93-5.97 55.09-3.97 18.16-11.14 34.29-21.45 48.43-10.35 14.1-24.43 25.42-42.32 33.89s-41.16 12.72-69.77 12.72c-36.57 0-68.53-2.63-95.99-7.87-27.41-5.26-47.87-10.71-61.37-16.36l-13.12 93.24c14.28 6.44 38.13 12.71 71.55 18.75 33.38 6.07 69.53 9.09 108.49 9.09m559.13-657.38c-68.37 1.63-116.86 16.54-145.47 44.8-28.61 28.24-42.9 72.22-42.9 131.97v721.76l110.89 53.08v-756.68c0-18.59 1.58-33.91 4.77-46 3.14-12.12 8.32-21.81 15.48-29.07 7.17-7.27 16.69-12.72 28.62-16.34 11.92-3.64 26.62-6.67 44.1-9.09l-15.49-94.43m230.5 12.1h-110.9v629.57h110.9V1073.3zm-56.03 743.36c-19.88 0-36.77 6.67-50.69 19.98-13.91 13.32-20.87 31.27-20.87 53.88 0 22.58 6.96 40.56 20.87 53.87 13.92 13.31 30.81 19.98 50.69 19.98s36.77-6.67 50.68-19.98c13.88-13.31 20.87-31.29 20.87-53.87 0-22.61-6.99-40.56-20.87-53.88-13.91-13.31-30.8-19.98-50.68-19.98m432.43-662.26c26.21 0 49.48.6 69.73 1.8 20.29 1.22 37.15 3.44 50.69 6.67v187.67c-7.95 4.01-20.87 7.45-38.76 10.29-17.89 2.81-39.55 4.22-64.97 4.22-16.69 0-34.37-1.2-53.05-3.62-18.67-2.43-35.78-7.48-51.26-15.14-15.53-7.68-28.45-18.16-38.76-31.47-10.36-13.33-15.49-30.87-15.49-52.67 0-40.38 12.67-68.41 38.14-84.15 25.42-15.73 60-23.6 103.73-23.6zm-9.53 564.18c44.48 0 82.04-5.86 112.68-17.55 30.56-11.72 55.24-28.27 73.92-49.65 18.67-21.39 31.96-46.82 39.91-76.26 7.96-29.48 11.93-61.97 11.93-97.48v-393.47c-9.52-1.62-22.86-3.83-39.92-6.65-17.1-2.83-36.36-5.44-57.85-7.87-21.45-2.42-44.68-4.63-69.73-6.66-25.05-2.01-49.9-3.03-74.54-3.03-34.99 0-67.16 3.63-96.57 10.9-29.4 7.26-54.82 18.75-76.31 34.51-21.45 15.74-38.14 36.5-50.07 62.34-11.92 25.82-17.89 56.9-17.89 93.24 0 34.68 6.96 64.55 20.87 89.59 13.92 24.99 32.8 45.17 56.65 60.52 23.85 15.32 51.64 26.64 83.44 33.91 31.81 7.25 65.18 10.89 100.17 10.89 11.1 0 22.65-.6 34.58-1.82 11.93-1.2 23.23-2.84 33.96-4.85 10.76-2.02 20.08-3.83 28.03-5.44 7.95-1.62 13.5-2.84 16.69-3.62v31.47c0 18.55-1.99 36.93-5.96 55.09-3.98 18.16-11.14 34.29-21.46 48.43-10.35 14.1-24.43 25.42-42.32 33.89s-41.16 12.72-69.77 12.72c-36.57 0-68.53-2.63-95.99-7.87-27.41-5.26-47.87-10.71-61.37-16.36l-13.12 93.24c14.28 6.44 38.13 12.71 71.55 18.75 33.38 6.07 69.53 9.09 108.49 9.09M3720.3 1697.7c-10.86 2.28-21.25 4.52-33.32 6.92-38.55 7.66-83.64 11.51-135.32 11.51-46.92 0-89.03-7.87-126.39-23.6-37.35-15.76-68.94-37.54-94.78-65.39-22.02-23.72-38.59-52.09-51.65-83.43 148.71 44.17 295.77 95.92 441.46 153.99m-47.1-119.6v-342.58c-14.29-11.32-33.79-21.2-58.43-29.67s-51.68-12.71-81.08-12.71c-21.45 0-42.32 4.04-62.57 12.11-20.29 8.05-38.18 20.58-53.67 37.52-15.49 16.95-27.83 38.32-36.98 64.18-9.11 25.82-13.7 56.9-13.7 93.22 0 24.09 2.94 45.83 7.31 66.41-40.53-13.44-81.14-26.27-121.96-38.35-.54-8.83-1.01-17.7-1.01-26.84 0-52.49 7.16-97.69 21.49-135.62 14.29-37.93 33.75-69.61 58.43-95.03 24.6-25.43 53.42-44.19 86.42-56.3 32.96-12.11 68.16-18.16 105.51-18.16 36.57 0 68.58 5.03 95.99 15.14 27.41 10.08 45.92 18.34 55.45 24.82v-26.65c0-58.11-14.5-100.48-43.52-127.12-29.03-26.628-76.53-39.941-142.49-39.941-35 0-68.54 3.43-100.75 10.293-32.18 6.848-59.43 14.738-81.66 23.598l-20.29-98.059c25.46-8.883 55.44-16.539 90.02-23s71.35-9.691 110.32-9.691c100.12 0 174.83 21.781 224.15 65.371 49.27 43.597 73.91 113.81 73.91 210.67v503.37c-36.65-16.31-73.8-31.58-110.89-46.98m-552.3-78.401c9.19 2.4 18.3 5.21 27.48 7.67v195.46h-110.89v-223.46c27.82 6.59 55.65 13.11 83.41 20.33m-362.5-75.6v278.76h-110.85v-294.5c37.12 4.65 74.05 9.96 110.85 15.74m379.3-28.6c-33.39-8.72-66.79-16.7-100.19-24.19v-199.95c-3.98-1.62-10.56-3.03-19.67-4.23-9.15-1.22-19.3-2.42-30.39-3.64-11.14-1.2-23.07-2.22-35.78-3.02-12.71-.81-25.05-1.21-36.98-1.21-56.44 0-96.57 16.53-120.42 49.63-18.1 25.11-29.26 62.93-33.62 113.15-36.86-4.95-73.83-9.2-110.86-13.05 1.92-27.01 5.07-52.93 10.93-76.49 8.74-35.1 23.07-65.57 42.95-91.39 19.87-25.86 46.08-45.82 78.67-59.94s72.76-21.19 120.42-21.19c54.87 0 103.15 3.63 144.9 10.9 41.69 7.26 75.28 14.12 100.74 20.58v307.1c-3.57-.94-7.12-2.12-10.7-3.06m-833.6-13.3v226.2h234.92v94.43H2304.1v194.91l-110.85-54.08v-462.98c37.19.01 74.18.43 110.85 1.52m194.9-211.4c-20.25-7.69-47.08-11.5-80.46-11.5-19.09 0-35.78 2.43-50.1 7.27-14.29 4.83-26.22 13.11-35.78 24.81-9.53 11.69-16.69 27.84-21.45 48.42-3.11 13.42-4.83 30.03-5.92 48.08-36.93-.75-73.87-1.41-110.83-1.12 1.27-29.45 3.79-57.04 8.84-80.85 6.75-31.88 18.51-58.72 35.19-80.52 16.69-21.78 38.76-38.14 66.18-49.03 27.41-10.89 62.19-16.34 104.31-16.34 35.77 0 67.58 4.23 95.4 12.72 27.79 8.47 47.25 15.53 58.43 21.18l-21.49 93.23c-7.95-3.25-22.03-8.69-42.32-16.35m-640.3 218v213.61c6.38 1.61 19.67 4.64 39.96 9.09a286.45 286.45 0 0061.41 6.64c31.77 0 57.81-2.21 78.1-6.64 20.25-4.45 34.75-8.29 43.48-11.52l19.09 98.09c-4.76 1.59-12.13 3.41-22.03 5.44-9.98 2.01-20.87 4.02-32.79 6.04a526.7 526.7 0 01-36.36 4.85c-12.34 1.22-23.27 1.82-32.8 1.82-48.49 0-92.22-4.24-131.18-12.71-38.93-8.47-71.52-17.56-97.77-27.25V1393.5c37.04-1.62 74-3.2 110.89-4.7m-110.9-84v-231.53h110.89v225.3c-36.97 2.04-73.93 4.09-110.89 6.23m-584.2 105.5c3.07 60.33 17.85 109.68 45.83 146.69 31.39 41.58 74.08 62.37 128.16 62.37 54.04 0 96.78-20.79 128.17-62.37 29-38.42 44.02-89.99 46.23-153.56 38.75-1.46 77.46-3.05 116.11-4.71-.96 45.04-7.78 86.6-21.05 124.38-14.29 40.75-34.37 75.67-60.21 104.73s-56.65 51.44-92.39 67.2c-35.78 15.74-74.74 23.6-116.86 23.6-42.15 0-81.08-7.86-116.85-23.6-35.78-15.76-66.59-38.14-92.39-67.2-25.84-29.06-45.92-63.98-60.21-104.73-12.3-35-18.99-73.31-20.73-114.55 38.73 1.04 77.46 1.58 116.19 1.75m342.3-93.1c-7.28-38.42-20.18-71.55-40.17-98.01-31.39-41.57-74.13-62.34-128.17-62.34-54.08 0-96.77 20.77-128.16 62.34-20.6 27.24-33.75 61.48-40.84 101.39-22.22-.65-44.46-.61-66.67-1.73-16.09-.81-32.77-1.7-49.81-2.64 3.59-22.43 8.92-43.68 16.03-63.72 14.29-40.38 34.37-75.06 60.21-104.13 25.8-29.05 56.61-51.45 92.39-67.18 35.77-15.74 74.7-23.61 116.85-23.61 42.12 0 81.08 7.87 116.86 23.61 35.74 15.73 66.55 38.13 92.39 67.18 25.84 29.07 45.92 63.75 60.21 104.13 6.64 18.7 11.56 38.55 15.11 59.33-38.75 2.08-77.5 3.73-116.23 5.38m-1080.68-78.7v-165.19h115.66v199.46c-44.352-7.57-75.492-17.51-115.66-34.27m115.66 575.7c26.254 2.42 63.98 3.65 113.26 3.65 31.015 0 60.414-2.43 88.242-7.27 27.828-4.85 52.258-13.52 73.336-26.03 21.035-12.53 37.723-29.28 50.062-50.25 12.34-20.99 18.512-47.64 18.512-79.9 0-33.91-5.961-61.76-17.887-83.54-11.925-21.81-28.824-38.95-50.687-51.46-21.863-12.52-48.695-21.4-80.5-26.64-31.805-5.26-67.539-7.87-107.29-7.87h-87.043v329.31zm0-429.79c33.828.69 91.805 0 91.805 0 58.015 0 110.11 4.84 156.2 14.53 46.09 9.67 85.262 25.2 117.44 46.61 32.215 21.37 56.813 49.22 73.914 83.54 17.106 34.29 25.63 75.66 25.63 124.09 0 88.78-31.176 155.58-93.583 200.38-62.402 44.79-151.64 67.19-267.67 67.19-33.375 0-70.144-1.43-110.27-4.25-40.168-2.83-76.523-8.28-109.11-16.33v-547.15c39.504 18.14 75.949 30.58 115.66 31.39" fill="#2e2d2d"/></g></svg>