<svg width="603.628" height="189.479" viewBox="0 0 159.71 50.133" xmlns="http://www.w3.org/2000/svg"><g stroke-width=".265"><path d="M13.24 29.39a3.352 3.352 0 01-3.096-2.037L.778 5.445a3.35 3.35 0 011.773-4.419A3.35 3.35 0 016.969 2.8l6.271 14.684L19.51 2.8a3.35 3.35 0 014.42-1.773 3.35 3.35 0 011.772 4.419l-9.366 21.908a3.352 3.352 0 01-3.096 2.037M139.1 25.79a2.816 2.816 0 01-1.138-2.249c0-1.561 1.244-2.752 2.805-2.752.767 0 1.323.265 1.693.556 2.064 1.508 4.313 2.434 6.932 2.434 2.435 0 3.916-.979 3.916-2.566v-.08c0-1.508-.926-2.302-5.477-3.44-5.477-1.402-8.996-2.91-8.996-8.307v-.08c0-4.92 3.97-8.175 9.499-8.175 3.307 0 6.165.847 8.599 2.408a2.724 2.724 0 011.323 2.38c0 1.562-1.244 2.752-2.805 2.752a2.868 2.868 0 01-1.508-.423c-1.984-1.164-3.836-1.826-5.688-1.826-2.302 0-3.493 1.059-3.493 2.355v.08c0 1.772 1.164 2.354 5.847 3.572 5.504 1.428 8.6 3.413 8.6 8.149v.08c0 5.397-4.102 8.413-9.975 8.413-3.493-.027-7.118-1.111-10.134-3.28m-17.12 3.549c-7.858 0-14.261-6.403-14.261-14.261S114.122.818 121.98.818s14.261 6.403 14.261 14.261-6.376 14.261-14.261 14.261m0-22.437c-4.498 0-8.176 3.678-8.176 8.176 0 4.497 3.678 8.175 8.176 8.175s8.176-3.678 8.176-8.175c0-4.498-3.652-8.176-8.176-8.176M100.89 3.28l5.556 21.908a3.355 3.355 0 01-2.434 4.075 2.91 2.91 0 01-.82.105c-1.508 0-2.884-1.005-3.255-2.54l-3.095-12.277-5.45 12.753a3.352 3.352 0 01-3.096 2.038 3.352 3.352 0 01-3.096-2.038l-5.74-13.282-3.837 12.965c-.423 1.456-1.773 2.408-3.228 2.408a3.95 3.95 0 01-.952-.132c-1.773-.53-2.805-2.408-2.276-4.18l6.483-21.83S76.363.741 78.824.741c2.328 0 3.122 1.958 3.122 1.958l6.323 14.764 6.27-14.684S95.388.742 97.663.742c2.275.026 3.096 2.037 3.228 2.54" fill="#7d4697"/><path d="M31.97 29.39a3.352 3.352 0 01-3.096-2.037L19.508 5.445a3.35 3.35 0 011.773-4.419A3.35 3.35 0 0125.699 2.8l6.271 14.684L38.24 2.8a3.35 3.35 0 014.42-1.773 3.35 3.35 0 011.772 4.419l-9.366 21.908a3.352 3.352 0 01-3.096 2.037m32.04.269a3.322 3.322 0 01-3.096-2.064l-6.27-15.002L48.4 27.596a3.345 3.345 0 01-4.392 1.8 3.345 3.345 0 01-1.8-4.393l9.367-22.437A3.377 3.377 0 0154.67.503c1.35 0 2.593.82 3.096 2.063l9.366 22.437a3.367 3.367 0 01-1.8 4.392c-.45.186-.899.265-1.322.265m-33.57 18.2l3.36-9.26c.344-.98.9-1.561 1.826-1.561.952 0 1.508.582 1.852 1.56l3.28 9.261c.054.159.08.318.08.503 0 .767-.608 1.243-1.296 1.243-.582 0-1.059-.344-1.244-.952l-.503-1.508h-4.418l-.503 1.508c-.211.608-.661.952-1.243.952-.662 0-1.297-.502-1.297-1.243 0-.185.053-.37.106-.503m6.615-2.99l-1.43-4.339h-.052l-1.429 4.34zm5.265-6.43c0-.847.556-1.429 1.35-1.429.767 0 1.322.556 1.322 1.429v9.763c0 .847-.555 1.429-1.323 1.429-.793 0-1.349-.556-1.349-1.429zm11.4 10.35l-2.064-3.995h-1.825c-.08 0-.106.026-.106.106v3.307c0 .847-.556 1.429-1.323 1.429-.794 0-1.35-.556-1.35-1.43v-9.894c0-.715.424-1.191 1.165-1.191h3.942c2.54 0 4.233 1.587 4.233 3.836 0 1.509-.767 2.726-2.037 3.36l1.8 3.281c.131.239.184.503.184.741 0 .688-.476 1.27-1.27 1.27-.608 0-1.058-.238-1.349-.82m-.053-7.805c0-.953-.661-1.535-1.667-1.535h-2.196c-.08 0-.106.027-.106.106v2.858c0 .079.027.105.106.105H52c1.006 0 1.667-.608 1.667-1.534" fill="#6fb92c"/></g></svg>