<svg viewBox="0 0 125.27 25.535" xmlns="http://www.w3.org/2000/svg"><defs><linearGradient id="d" x2="1" gradientTransform="translate(267.17 -369.89) scale(12.168)" gradientUnits="userSpaceOnUse"><stop stop-color="#fff" offset="0"/><stop stop-color="#fff" offset=".43"/><stop stop-color="#a2a5a3" offset="1"/></linearGradient><linearGradient id="c" x2="1" gradientTransform="translate(280.76 -358.6) scale(10.885)" gradientUnits="userSpaceOnUse"><stop stop-color="#fff" offset="0"/><stop stop-color="#a2a5a3" offset=".9"/><stop stop-color="#a2a5a3" offset="1"/></linearGradient><linearGradient id="b" x2="1" gradientTransform="rotate(-85 -57.348 -337.725) scale(2.59618)" gradientUnits="userSpaceOnUse"><stop stop-color="#fff" offset="0"/><stop stop-color="#fff" offset=".65"/><stop stop-color="#a2a5a3" offset=".95"/><stop stop-color="#a2a5a3" offset="1"/></linearGradient><linearGradient id="a" x2="1" gradientTransform="rotate(-124.401 50.98 -253.272) scale(29.727)" gradientUnits="userSpaceOnUse"><stop stop-color="#be0000" stop-opacity=".996" offset="0"/><stop stop-color="red" offset="1"/></linearGradient></defs><path d="M266.86-378.8h-.001l.315.825 1.398 3.665 7.638 20.045h25.164l-20.164-20.251c-2.686-2.687-6.332-4.284-10.13-4.284h-4.22z" fill="url(#a)" transform="translate(-266.35 379.3)"/><path d="M2.22 4.99c2.755 4.705 9.985 5.201 10.77 12.518a.67.67 0 00.563.589 24.883 24.883 0 0111.75 5.192l.002.002a.13.13 0 00.166-.006.126.126 0 00.005-.177 25 25 0 00-8.774-5.965l-1.019-.41a1.393 1.393 0 01-.873-1.33c.057-2.185 5.227-1.742 5.75-2.792l.09-.18a9.659 9.659 0 00-3.72-1.977c-.013.052-.047.307.236.769.308.502-.337 1.3-1.277.438l-.078-.07C8.826 5.19 3.59 8.508.82 1.324l1.4 3.666z" fill="#fff"/><path d="M283.03-367.26v1.744c.754-.218 1.611-.353 2.334-.504v-.971s-1.145.056-1.848-1.089a.544.544 0 01-.486.82" fill="url(#b)" transform="translate(-266.35 379.3)"/><path d="M280.76-361.06a24.863 24.863 0 0110.885 5.041c-5.25-4.486-8.45-5.17-9.924-5.17-.58 0-.894.106-.961.129" fill="url(#c)" transform="translate(-266.35 379.3)"/><path d="M267.17-377.98l1.397 3.665c2.754 4.705 9.984 5.201 10.771 12.515-.796-9.335-4.896-7.94-9.3-12.188-1.137-.809-2.098-1.994-2.868-3.993z" fill="url(#d)" transform="translate(-266.35 379.3)"/><path d="M37.72 17.88c2.716 0 5.002-1.344 5.002-3.188s-2.286-3.187-5.002-3.187-5.003 1.344-5.003 3.187 2.287 3.188 5.003 3.188m-.143 2.644c-4.975 0-8.133-2.586-8.133-5.831 0-3.302 3.345-5.832 8.276-5.832s8.276 2.544 8.276 5.703c0 1.415-.629 2.574-1.83 3.545h2.93l-.7 1.201c-.444.758-.986 1.214-2.159 1.214h-6.66zM52.81 16.2h5.174l-2.402-4.274c-.056-.1-.1-.129-.185-.129-.086 0-.128.03-.186.13L52.81 16.2zm6.504 2.359H51.48l-1.115 1.972H47.12l5.431-9.405c.43-.743 1.044-1.315 2.273-1.315h1.215c1.23 0 1.844.572 2.272 1.315l5.432 9.405h-3.315l-1.115-1.972zM79.21 9.81v10.72h-2.901l-8.52-7.104v7.104h-2.902V9.81h1.817c.928 0 1.4.242 1.928.7l7.677 6.39V9.81h2.9zm10.32 2.41v8.305h-2.901V12.22h-5.947V9.805h14.794v2.415H89.53zm9.1 3.98h5.174l-2.402-4.274c-.057-.1-.1-.129-.185-.129-.086 0-.128.03-.186.13L98.63 16.2zm6.504 2.359H97.3l-1.115 1.972H92.94l5.431-9.405c.43-.743 1.044-1.315 2.273-1.315h1.215c1.23 0 1.844.572 2.272 1.315l5.432 9.405h-3.315l-1.115-1.972zm5.426 1.201l-.271-.086.728-2.33c2.087.672 4.317.943 6.332.943 3.302 0 4.117-.386 4.117-.8 0-.17-.115-.3-.372-.386-.33-.114-1.244-.3-3.945-.742-2.988-.487-4.33-.73-5.317-1.188-.986-.456-1.587-1.186-1.587-2.257 0-.815.401-1.473 1.044-1.988 1.143-.886 3.1-1.242 5.23-1.242 2.746 0 5.047.228 7.605.857l.228.071-.613 2.273c-2.86-.615-4.445-.786-6.618-.815-1.53-.014-2.587.1-3.145.271-.315.101-.444.244-.444.415 0 .158.1.3.415.4.343.115.9.244 3.83.715 3.174.515 4.218.729 5.09 1.073 1.185.456 1.9 1.3 1.9 2.357 0 1.33-1.028 2.316-2.816 2.859-1.1.329-2.572.515-4.23.515-2.601 0-5.375-.344-7.161-.915" fill="#323232"/></svg>