<svg viewBox="0 0 400 167.88" xmlns="http://www.w3.org/2000/svg"><defs><clipPath id="a"><path d="M0 595.28h841.89V0H0z"/></clipPath><pattern id="b" width="2" height="1" patternTransform="scale(10)" patternUnits="userSpaceOnUse"><path d="M0-.5h1v2H0z"/></pattern></defs><path d="M239.8.004h88.19L160.29 167.88H72.1z" fill="#ffea00"/><g clip-path="url(#a)" transform="matrix(.5487 0 0 -.5487 -29.698 243.715)"><path d="M72.901 268.42l28.114-51.593h8.173l-29.425 53.897zm72.559-28.4s-19.339-1.834-19.339 29.12c0 30.955 19.339 29.014 19.339 29.014s18.88 1.721 18.88-29.065c0-30.785-18.88-29.069-18.88-29.069m0 62.835c-4.302 0-27.028-.458-27.028-35.085 0-15.366 7.115-32.336 26.397-32.336 0 0 27.66-1.491 27.66 32.336 0 33.825-22.725 35.085-27.029 35.085m44.65-1.405h7.031l16.406-33.673 16.818 33.673h5.721v-1.446l-19.439-38.701v-24.722h-6.961v25.205l-19.576 38.08zm76.27-37.41l9.683 29.91 9.894-29.91zm14.451 37.416h-8.118l-21.311-63.774v-1.095h6.089l7.247 22.385h22.895l7.405-22.385h7.104v1.703zM334.92 241.7v59.75h-7.205v-64.868h34.401v5.118z" fill="#231512"/><path d="M69.665 272.57h-8.269v32.795h8.395c3.131 0 18.293.626 17.915-17.023-.377-17.648-18.041-15.772-18.041-15.772m1.127 37.633H54.128v-73.645h7.142v31.007h7.651c8.896 0 26.678 2.443 26.678 22.362 0 21.06-22.697 20.276-24.807 20.276M447.55 256.51c-.474-15.38-14.081-15.395-22.821-15.434a1294.44 1294.44 0 00-6.185-.016v31.42h12.76c1.782 0 16.735-.119 16.246-15.97m-29.006 48.872c.031.178.051.282.051.282h11.926s14.602.335 14.379-13.363c-.224-13.697-11.592-14.921-15.716-14.921h-10.64zm22.677-30.119s12.373 3.674 11.816 17.372-10.924 17.707-23.073 17.707h-19.173V236.58h23.185s20.399-.181 21.737 18.527c1.337 18.709-14.492 20.156-14.492 20.156m59.139-9.753l26.307-48.719h8.174l-27.621 51.022z" fill="#231512"/><path d="M498.88 268.37h-7.04l-.009 28.541h7.147c2.666 0 15.258.548 15.258-14.814 0-14.816-15.356-13.727-15.356-13.727m-.746 33.351h-13.643v-65.173h7.231v27.154h6.619c7.695 0 23.078 2.178 23.078 19.939 0 19.369-21.46 18.08-23.285 18.08m52.736-.791h7.458v-37.995c0-7.913 1.36-13.611 4.082-17.094 2.721-3.485 6.877-5.225 12.918-5.225 3.157 0 5.839.456 8.042 1.373 2.205.915 3.987 2.303 5.348 4.162 1.36 1.86 2.341 4.177 2.94 6.953.598 2.775.898 6.05.898 9.831v37.995h5.552v-39.766c0-8.327-1.892-14.689-5.675-19.088s-9.484-6.598-17.105-6.598c-7.674 0-15.069 2.245-18.825 6.732-3.755 4.485-5.633 10.805-5.633 18.954zm86.33-8.24h-.178v-56.198h-6.091v64.431h7.688l33.767-53.041h.179v53.041h6.011v-64.431h-6.391zm74.57-56.19v64.431h34.117v-5.19h-26.945v-23.267h24.356v-5.189h-24.356V241.69h27.841v-5.19zm64.13 64.43h7.257v-64.431H775.9zM396.62 174.71v25.418h-3.451v-27.597h15.021v2.179zm-35.32 11.23h-2.994l-.004 12.142h3.041c1.133 0 6.49.233 6.49-6.303 0-6.301-6.533-5.839-6.533-5.839m11.335-13.402l-6.506 12.08c2.747.921 5.359 3.047 5.359 7.819 0 8.24-9.13 7.691-9.907 7.691h-6.824v-27.725h3.498v11.55h3.412c.212 0 .435.005.67.014l6.127-11.429zm84.725 24.092h-.076v-23.908h-2.591v27.409h3.967l13.668-22.564h.077v22.564h2.96v-27.409h-3.901zm40.38-23.91v27.41h15.063v-2.207h-11.461v-9.899h10.361v-2.208h-10.361v-10.888h11.844v-2.208zm-169.12 27.41h3.65v-27.41h-3.65zm99.46 0h3.65v-27.41h-3.65zM294.4 183.59l4.322 13.346 4.16-13.346zm6.989 16.539h-4.588l-9.066-27.13v-.467h3.085l2.782 8.592h10.049l2.68-8.592h3.847v.725zm246.971-5.159l-3.292-.769s-1.208 4.386-5.651 4.606c-4.445.218-4.775-4.276-4.775-4.276s-.274-2.412.713-3.564c.988-1.151 4.321-2.405 5.378-2.851 1.53-.642 8.248-2.311 7.45-8.708-.427-3.431-1.755-7.119-8.547-7.298-8.34-.22-9.768 6.195-9.768 6.195l3.239 1.04s.986-4.934 6.144-5.261c5.158-.33 6.31 5.097 5.323 7.4-.988 2.302-2.414 2.905-5.433 3.948-3.017 1.04-8.195 3.051-8.011 7.344.219 5.099 3.172 7.577 8.121 7.949 5.104.383 8.34-2.63 9.109-5.755m-177.51 147.3s-3.234-1.053-6.272-8.738c1.301 1.105 3.904 1.931 6.272 1.775 2.366-.158 6.389-1.814 6.389-1.814s6.075-2.206 6.114 1.183-3.944 2.838-4.459 2.719c-.512-.119-4.614-1.654-6.98-1.143-2.209.478-3.25 3.719-1.112 5.581.409.356.518.589.048.437" fill="#231512"/><path d="M370.69 339.25c0-1.616 1.854-2.286 4.102-2.01 2.248.277 3.983 1.457 6.271 1.142 2.289-.314 3.194-2.679 3.155-3.23.671 1.3 1.815 3.506 1.815 3.506l-9.822 2.877s-5.521 1.26-5.521-2.285m75.06 3.23s3.509-1.26 6.547-8.945c-1.301 1.104-3.904 1.931-6.272 1.774-2.366-.158-6.389-1.813-6.389-1.813s-6.074-2.207-6.114 1.182c-.04 3.39 3.945 2.838 4.457 2.719.513-.119 4.615-1.654 6.981-1.142 2.367.512 3.512 4.373.79 6.225" fill="#231512"/><path d="M446.19 339.25c0-1.616-1.854-2.286-4.103-2.01-2.247.277-3.983 1.457-6.27 1.142-2.288-.314-3.194-2.679-3.157-3.23-.669 1.3-1.814 3.506-1.814 3.506l9.822 2.877s5.522 1.26 5.522-2.285m-73.53 3.58l3.037 4.335s1.736 2.442 5.047 1.891c3.315-.551 14.155-3.501 20.275-4.453 4.443-.691 7.793-.487 7.793-.487s6.696.304 10.299 1.064c3.604.76 17.759 4.765 19.687 4.055s5.988-6.64 5.988-6.64-2.295-.037-3.603-.203c-3.196-.406-18.367-6.437-33.233-6.437-14.868 0-29.937 7.364-35.29 6.875M409.79 443a1.05 1.05 0 11-2.1 0 1.05 1.05 0 012.1 0" fill="#231512"/><path d="M409.29 430.72h-1.103v11.809h1.103zm0-13.57l-.57-.577-.533.577v3.867h1.103z" fill="#231512"/><path d="M408.29 441.26s1.418.578 3.099-.316c1.681-.891 3.1-2.255 5.464-2.203-.737-1.26-3.099-1.731-3.099-1.731s.893-.473 1.154-.894c.262-.419.736-1.259 1.84-1.259-.893-.787-2.994-.997-3.626-.42-.629.578-2.048 1.838-4.359 1.732-.263 1.994-.473 5.091-.473 5.091m7.17-10.99c0-.651-3.01-1.18-6.723-1.18-3.714 0-6.724.529-6.724 1.18 0 .653 3.01 1.182 6.724 1.182 3.713 0 6.723-.529 6.723-1.182m.08-1.23c-2.237-.812-6.53-.937-6.802-.944-.274.007-4.567.132-6.803.944 0 0-.789-4.723-1.629-6.088 2.101 1.154 2.732 2.152 2.732 2.152l.788-3.045s1.733 1.314 2.312 2.572c1.166-1.864 2.327-2.731 2.573-2.903v-.036s.017.013.027.018l.026-.018v.036c.245.172 1.407 1.039 2.574 2.903.577-1.258 2.31-2.572 2.31-2.572l.789 3.045s.63-.998 2.732-2.152c-.841 1.365-1.629 6.088-1.629 6.088m25.57-15.35s-2.365-1.11-7.777-.572c-5.412.537-11.399 6.444-16.524 6.552-4.809.102-7.787-3.613-8.137-4.071-.349.458-3.329 4.173-8.138 4.071-5.125-.108-11.111-6.015-16.523-6.552-5.412-.538-7.778.572-7.778.572s4.122-7.306 10.86-3.725c-.43-.607-.43-1.468-4.192-2.041.034-1.216 2.365-4.297 9.067-.572-.753-1.182-2.366-2.256-4.338-2.687 1.291-1.575 2.833-3.509 9.392.932-1.183-2.291-4.051-3.294-4.051-3.294s2.151-2.292 7.026-.824c4.873 1.468 5.663 5.157 5.663 5.157l.933-.538s-1.794-3.151-1.794-5.908 2.187-3.044 2.187-3.044l1.686 1.612v.114l.001-.114 1.684-1.612s2.187.287 2.187 3.044-1.792 5.908-1.792 5.908l.931.538s.789-3.689 5.664-5.157c4.874-1.468 7.025.824 7.025.824s-2.868 1.003-4.05 3.294c6.56-4.441 8.101-2.507 9.391-.932-1.973.431-3.584 1.505-4.336 2.687 6.702-3.725 9.031-.644 9.067.572-3.763.573-3.763 1.434-4.193 2.041 6.738-3.581 10.859 3.725 10.859 3.725" fill="#231512"/><path d="M412.76 387.05c-.528 2.69-2.426 3.836-2.426 6.171 0 2.336 1.986 3.659 1.986 3.659s-1.898-.308-2.647-1.41c-.043 1.167-1.099 1.931-1.214 2.012v.016l-.011-.008-.011.008v-.016c-.116-.081-1.173-.845-1.214-2.012-.749 1.102-2.647 1.41-2.647 1.41s1.986-1.323 1.986-3.659c0-2.335-1.898-3.481-2.428-6.171-.528-2.689 2.736-4.099 2.736-4.099l1.578 1.533 1.578-1.533s3.264 1.41 2.734 4.099" fill="#231512"/><path d="M413.66 370.42c-.64 3.251-2.935 4.637-2.935 7.462 0 2.824 2.402 4.423 2.402 4.423s-2.294-.374-3.202-1.705c-.05 1.412-1.326 2.336-1.467 2.433v.019s-.01-.009-.013-.009a.17.17 0 00-.014.009v-.019c-.139-.097-1.415-1.021-1.467-2.433-.906 1.331-3.2 1.705-3.2 1.705s2.401-1.599 2.401-4.423c0-2.825-2.294-4.211-2.934-7.462-.641-3.252 3.308-4.956 3.308-4.956l1.906 1.852 1.907-1.852s3.948 1.704 3.308 4.956M357 402.59c-.578.037-2.359-5.024-.995-10.835 1.361-5.811 4.662-8.48 4.662-8.48s4.35-2.356 5.711-4.24c-.365-4.241-1.31-19.317-1.31-19.317s4.297-1.833 9.696-.158c-.63 7.592-1.888 18.95-1.888 18.95s.368 4.659-.577 6.493c-.943 1.831-3.09 3.087-3.09 3.087s-4.559 6.021-6.813 6.439c-.575-.314-.209-2.147 1.626-4.816 1.832-2.67 1.466-3.979 1.466-3.979s-2.777 2.88-5.292 3.142c-.996 2.669-2.253 4.659-2.253 4.659s0 4.868-.21 5.392c.158 1.309.106 3.612-.733 3.663" fill="#231512"/><path d="M359.98 402.17c-.854.252-1.937-2.721-1.31-7.171.368-1.675 1.991-5.13 1.991-5.13s1.782-.105 3.511-2.042c-1.361 2.355-3.667 6.491-3.667 6.491l-.21 4.817s.576 2.775-.315 3.035" fill="#231512"/><path d="M362.08 400.49c-.572.076-1.256-1.465-.837-5.496.419.262 1.31.313 1.31.313l.051 3.718s.263 1.361-.524 1.465m2.04-2.09c-.572-.062-.628-1.099-.628-1.78s-.053-1.728-.053-1.728l1.152-.888v3.087s0 1.362-.471 1.309m6.09-41.98c-3.495 0-5.835.943-5.933.984a.608.608 0 10.463 1.125c.022-.009 2.23-.892 5.47-.892 3.177 0 4.789.881 4.805.889a.607.607 0 00.603-1.055c-.075-.044-1.872-1.051-5.408-1.051m.05-2.22c-4.026 0-6.715.934-6.827.974a.61.61 0 00.404 1.148c.027-.009 2.62-.905 6.423-.905 3.748 0 5.648.899 5.668.909a.608.608 0 00.537-1.092c-.085-.043-2.141-1.034-6.205-1.034m.03-2.54c-4.428 0-7.382.927-7.505.967a.608.608 0 00.371 1.16c.027-.011 2.909-.912 7.134-.912 4.172 0 6.289.91 6.31.919a.608.608 0 00.495-1.112c-.094-.042-2.343-1.022-6.805-1.022m89.6 50.93c.578.037 2.357-5.024.995-10.835s-4.662-8.48-4.662-8.48-4.351-2.356-5.712-4.24c.366-4.241 1.309-19.317 1.309-19.317s-4.296-1.833-9.694-.158c.63 7.592 1.888 18.95 1.888 18.95s-.369 4.659.575 6.493c.944 1.831 3.092 3.087 3.092 3.087s4.559 6.021 6.812 6.439c.576-.314.21-2.147-1.625-4.816-1.835-2.67-1.467-3.979-1.467-3.979s2.778 2.88 5.292 3.142a27.99 27.99 0 002.254 4.659s0 4.868.209 5.392c-.156 1.309-.105 3.612.734 3.663" fill="#231512"/><path d="M456.9 402.17c.855.252 1.938-2.721 1.31-7.171-.368-1.675-1.991-5.13-1.991-5.13s-1.781-.105-3.51-2.042a665.628 665.628 0 013.667 6.491l.209 4.817s-.575 2.775.315 3.035" fill="#231512"/><path d="M454.8 400.49c.573.076 1.257-1.465.838-5.496-.418.262-1.31.313-1.31.313l-.051 3.718s-.264 1.361.523 1.465m-2.04-2.09c.572-.062.628-1.099.628-1.78s.052-1.728.052-1.728l-1.153-.888v3.087s0 1.362.473 1.309m-6.09-41.98c3.495 0 5.834.943 5.933.984a.608.608 0 11-.462 1.125c-.023-.009-2.23-.892-5.471-.892-3.178 0-4.788.881-4.805.889a.608.608 0 01-.603-1.055c.075-.044 1.872-1.051 5.408-1.051m-.05-2.22c4.027 0 6.717.934 6.828.974a.609.609 0 01-.404 1.148c-.027-.009-2.621-.905-6.424-.905-3.747 0-5.648.899-5.666.909a.613.613 0 01-.814-.28.606.606 0 01.276-.812c.085-.043 2.142-1.034 6.204-1.034m-.03-2.54c4.427 0 7.38.927 7.505.967a.609.609 0 01-.371 1.16c-.029-.011-2.91-.912-7.134-.912-4.172 0-6.29.91-6.31.919a.608.608 0 01-.495-1.112c.093-.042 2.342-1.022 6.805-1.022m-15.47 49.51a27.875 27.875 0 004.038-14.51c0-13.795-9.906-25.22-22.832-27.227.666 3.518 3.811 5.487 3.811 5.487s-3.767-.572-5.256-2.619c-.082 2.168-2.178 3.587-2.408 3.736v.029s-.018-.013-.022-.014l-.022.014v-.029c-.228-.149-2.326-1.568-2.409-3.736-1.488 2.047-5.254 2.619-5.254 2.619s3.174-1.988 3.818-5.538c-13.116 1.834-23.225 13.343-23.225 27.278a27.884 27.884 0 004.038 14.51c-5.97-5.836-9.671-13.941-9.671-22.902 0-17.784 14.565-32.201 32.533-32.201 17.967 0 32.531 14.417 32.531 32.201 0 8.961-3.701 17.066-9.67 22.902" fill="#231512"/><path d="M0 0c.091-.407.426-.599.794-.671l.67.67C.725-.068 0 0 0 0" transform="translate(386.37 340.72)" fill="url(#b)"/><path d="M398.98 339.67s.029-.075.093-.166c.111.394.023.75-.067.799-.442-1.324-1.173-.99-1.503-.75a2.254 2.254 0 00-.591-.496c.204-.221.614-.595 1.029-.577.36.102.617.264.796.448-.043.092-.059.159-.059.159z" fill="#ffea00"/><path d="M397.5 339.55c-.105.076-.171.143-.171.143l-.558-.481s.052-.068.138-.158c.23.132.431.307.591.496m1.48.12l-.302-.583s.016-.067.059-.159c.176.18.28.383.336.576a.864.864 0 00-.093.166" fill="#ffea00"/><path d="M392.37 354.15l.703.109-.174.775-.705-.112zm7.34.3l-.174.773-.702-.11.173-.774zm-17.02 9.13c.665-.097 2.075.265 1.979.76-.094.493-.894 1.597-.437 1.843.457.248 1.199.267 1.123-.74-.019-.229-.019-.324-.019-.324s1.085-.038.952.836c-.134.875-1.771 1.046-2.189.742-.419-.304-.913-.533-.762-.969.153-.438.705-1.521.381-1.693-.324-.171-3.579 2.339-3.616 5.818l-.013-.06c-.067-.29-.183-1.767-.405-1.955.321-.892 2.343-4.163 3.006-4.258m4.46-3.9c.267-.252.537-.499.777-.716.061-.451.085-1.136-.353-1.086-.595.379-.692 1.227-.677 1.847.088-.021.167-.029.253-.045m2.003.88c.226-.39-.372-.541-1.181-.583-.234.205-.46.415-.656.614.538.202 1.536.488 1.837-.031m-4.071 2.376c-.209.361.229 1.121.229 1.121s-1.219-.721-1.086-1.102c.13-.369.709-1.486 1.876-.924-.199-.501-.275-.978-.029-1.262.125-.147.291-.321.479-.508a3.073 3.073 0 01-.121-.271c-.214.012-.421.023-.606.037.198-.069.377-.117.557-.171-.356-1.075-.278-2.566.795-2.509.846.044 1.111.696 1.186 1.228l.335-.297s.932-.664 1.865.21 1.673 2.167 1.673 2.167l.971-.095s-.112 1.064.153 1.445c-.514.038-.97-.057-.97-.057l-.247-.648s-1.922-2.679-2.284-2.679c-.157 0-.784.435-1.442.977 1.903.184 1.737 1.95 1.366 2.121-.411.189-2.132-.603-2.702-.877-.273.302-.447.56-.437.706.038.59 1.54 2.433 1.54 2.433l-.893.019s-.666-.839-1.07-1.695c-.304-.05-.775.002-1.138.631m6.338-5.686c-.343-.647.514-1.56 1.256-1.674 2.225.152 2.264 2.281 2.264 2.281s-.4-.133-.952-.399c.018-1.235-.457-1.215-.457-1.215-.381-.02-1.045.607-1.256.893-.208.284.647 1.406 1.294 2.319.647.912 1.162.323 1.162.323l.913.76c-1.999 1.026-3.882-2.643-4.224-3.288m10.43-2.47l-.989-.305s.066-.257.128-.588l.864.864-.003.029m-6.66.06l.59-1.483s1.179-1.395 2.915-1.764l.874.875c-2.237.35-4.379 2.372-4.379 2.372" fill="#fff"/><path d="M390.69 341.87c.356-.128.559-1.14.356-1.344-.204-.202-1.016.912-1.016.912s.305.558.66.432m-2.537-1.774c.483.152 1.346.811 1.346.811l1.216-1.217s.737.482.99 1.065c.255.583-.025 1.798-.634 1.976-.609.177-1.295-1.318-2.131-1.748-.295-.153-.699-.228-1.1-.266l-.67-.67a2.18 2.18 0 01.983.049m9.177-.406s.066-.067.171-.143c.187.222.312.462.312.675-.609-.43-.99-.836-1.928-.455-.356.253.455 4.358.455 4.358l-.786-.659-1.142-2.687s-.202 3.168-1.673 3.195l-.076-1.293s1.166-.051 1.419-2.13c-.886-.329-2.257-.659-2.486-.506.609-.456 1.853-.912 2.106-.836s1.726 2.763 1.726 2.763l-.255-2.257s-.025-.759.788-.887c.306-.047.644.05.949.223-.086.09-.138.158-.138.158zm5.59 3.32l-.686-.533.278-.177s-.101-1.851-.278-3.117c-.66-.558-1.472-.051-1.472-.051l-.126 1.418-.405-.329s-.077-.278-.077-.988c-.637-.189-.943.074-1.076.264a1.37 1.37 0 00-.335-.576c.088-.189.282-.489.674-.576.584-.126.966.635.966.635s-.152-.913 1.115-.785c1.269.126 1.395 1.671 1.395 1.671l.128 1.977s.43.076.557.329c-.658.179-.658.838-.658.838m1.14-.65s.153-3.955-.151-4.36c.507.354.862.887.837 1.546s-.051 3.497-.051 3.497zm3.35-2.34s1.116-1.165 1.09-1.318c-.024-.152-.633-1.243-2.055-1.039.381-.43 1.042-.989 1.319-.938.28.051.888 1.14 1.015 1.621.127.482-.127 1.472-.685 2.36zm1.64 2.49l.28-4.587.658.963-.252 4.258zm2.47-.66l-.102-1.165s.939-.457 1.065-1.04c.128-.583-1.444-.583-1.825.204-.153-.583-.356-1.192.557-1.547.914-.354 1.548.355 1.676 1.09.126.735-.077 1.546-1.371 2.458m9-1.07s.56 1.217-.354 1.952c-.406-.304-.661-.709-.661-.709s.761-.28.533-1.091h-.558v-.912s1.091.43 1.244.101c.152-.329-2.614-1.647-6.242-.987l1.472-1.09s1.471-.203 3.375.455c1.902.658 2.358 2.003 1.191 2.281m1.88 1.4c.278 0 .659-.481.659-.481-1.877-1.013-.939.481-.659.481m0 .838c-.686-.077-1.27-1.369-.864-2.052.407-.686 1.27-1.092 1.751.15.356.178.636-1.419-1.496-1.623.152-.329.506-.734 1.243-.583.737.153 1.242 1.395.609 2.764-.634 1.368-1.243 1.344-1.243 1.344m4.74 1.492c-.533-.304-.481-.608-.481-.608s.76-.66.709-1.115c-.05-.457-1.471-.862-2.282.557l-.076-.76s.272-.549.792-.854c-.011-.548-.185-1.79-1.605-1.351.102-.227.735-.786 1.167-.812.408-.023.879.712.776 2.018.206-.058.438-.075.695-.014 1.194.277 1.091 2.154.305 2.939m-6.52-6.23l-.369.294-.445-.613.573-.46.39.534-.206.166zm0 0l.207-.166-.058-.079.369-.294.445.615-.573.46z" fill="#ffea00"/><path d="M420.62 338.28l-.057-.079.206-.166.058.079zm6.77 2.35l.719-.236.244.657-.718.236zm-8.41 2.62l.65-.388.426.612-.652.387zm-12.17 11.91l-.471.637-.599-.383.471-.637zM425 357.8l-.789.091-.128-.699.789-.09zm-25.17-6.29c2.216.18 2.044 2.945 2.02 3.24l-.864-.864c.09-.466.173-1.081.062-1.37a3.642 3.642 0 00-1.482-.052l-.874-.875a3.834 3.834 0 011.138-.079" fill="#ffea00"/><path d="M403.81 352.54c-1.806.551-1.104 1.083-.571 1.255.369.119.738-.476.734-1.293-.055.012-.106.021-.163.038m7.498-.4s.152-.817 1.065-.703c.914.115 2.169.989 3.291 2.225l.267.019s.171-1.407.952-1.427c.781-.018 1.085.553 2.112.438.475.589.494 1.141.494 1.141s-1.407.019-1.54 1.14a80.204 80.204 0 01-.305 2.244l.4-.096s-.076.379.076.495c-.476.132-.724.702-.838.969-.551-.552-.856-.969-.856-.969l.591-.266s.284-2.948.647-3.176c.36-.227.932-.665.932-.665s-.286-.285-.628-.228c-.343.056-1.542-.569-1.866.342.438.02.762.419.762.419l-.057.532s-1.104-.419-1.96.038c-.855.457-1.2.609-1.617.076-.419-.533-.514-.666-.249-1.045.191.474.666.683 1.142.474.476-.208 1.142-.342 1.142-.342s-1.426-1.007-2.073-1.292c-.648-.285-1.998-.38-1.58 1.292-.304-.208-.552-.303-.552-.303s.267-1.274-.552-1.35c-.818-.077-.832.336-.832.336.031.272.047.59.052.957 0-1.179-.381-1.293-.952-1.293-.344 0-.541.137-.644.247.182.451.225.874.225.874s-.531-1.045-1.368-.989a1.462 1.462 0 00-1.021.491c.205.549.183 1.088.183 1.088s-.417-1.435-1.757-1.392c.009.125.025.247.025.383 0 1.864-.666 1.693-.666 1.693-.665.095-1.616-.798-1.635-1.445-.017-.578.29-1.353 1.704-1.469a3.134 3.134 0 00-.107-.28c-.894-.552-2.15.248-2.15.248s.306-1.255 1.086-1.406c.58-.116 1.281.387 1.597 1.424h.114c.593.018.99.247 1.255.554.074-.37.332-.826 1.162-.838.399-.006.697.153.922.381.093-.203.306-.419.79-.477.532-.063.844.123 1.024.564.135-.204.4-.488.821-.45.648.058.972.817.972.817m8.672 1.04s.531.979.368 1.863c-.165.884-1.09 3.656-.954 4.011 0 0-.34-.954-.624-.979.338-.273.557-1.13.692-1.824.137-.692.518-3.071.518-3.071m3.69.75c1.036.449 4.614 1.782 3.825 3.958-.381 1.005-1.62 1.876-1.62 1.876 0-.055-.122-1.143-.122-1.143s1.429-.503 1.456-.693c.028-.19-.45-1.754-3.333-3.019-1.023-.245-1.947-.38-1.947-.38s1.606-.286 1.741-.599m5.76 5.64c-.41-.385-.756-.714-.781-.714-.054 0-.72-.175-.83.259-.1.4.683 1.036 1.611.455l.26.244c-.056.048-.107.096-.17.145-.925.679-1.416.951-1.756.72-.533-.363-.327-1.7.313-2.38.641-.68 1.226.109 1.348.177.038.02.249.252.542.556-.058.121-.149.24-.284.356-.085.071-.169.13-.253.182" fill="#ffea00"/><path d="M429.69 359.81l-.26-.244c.084-.052.169-.11.254-.182.134-.116.226-.235.283-.356.072.075.147.153.228.233a2.939 2.939 0 01-.505.549" fill="#ffea00"/><path d="M431.62 361.75s.041-.571-.532-.448c-.571.122-1.141.531-1.115.924-.354.136-.803-1.101.776-1.469-.196-.146-.633-.549-1.056-.945.211-.182.378-.365.505-.549.671.672 1.6 1.506 2.047 1.345.027.517-.096 1.102-.096 1.102zm-3.04-4.77c.775-.056 1.66-.136 1.66-.136s.8 1.198-.047 2.42c-.08-.08-.156-.158-.228-.233.385-.802-.782-1.673-1.385-2.051m.37 9.26l.036-1.026 3.845-3.688-.115.761zm6.88.73c-.571.359-2.436 1.976-2.436 1.976l-.132.608s-.857-.209-1.067.418c-.17-.721 0-1.293 0-1.293l.648.02s2.435-1.881 2.529-2.053c.096-.172.306-1.197-1.063-1.159-1.371.038-2.151.684-2.266.912v-.894s.808-.47 1.732-.701a1.692 1.692 0 01-.038.264c.114-.059.24-.179.356-.331.331-.059.666-.08.976-.031 1.293.21 1.331 1.902.761 2.264m-2.59 4.41c0-.076.019-.969.019-.969l3.939-2.928-.058.608zm-.91-7.63c.477-.57 1.18-1.218 1.771-.665.531.498.317 1.212-.006 1.645-.107.02-.213.041-.318.067.038-.469-.06-1.376-1.447-1.047" fill="#ffea00"/><path d="M433.74 365.06s.027-.108.038-.264a4.99 4.99 0 01.318-.067 1.168 1.168 0 01-.356.331m-5.21-2.25c-.146-.269-.032-.452.07-.702.093.433.699 1.283.699 1.283s.073.058-.305.086c-.131-.565-.406-.608-.668-.303-.26.303.247.332.247.332l.205.392c-.349.116-.769.145-.886-.463-.116-.61.638-.625.638-.625" fill="#ffea00"/></g></svg>