<svg viewBox="0 0 280 65" xmlns="http://www.w3.org/2000/svg"><path d="M160.96 13.442c.641-3 .549-6.333.927-9.313l-.343.083-.214 1.305c-.683 5.434-6.021 7.075-9.969 9.87 1.684-.414 3.367-.912 4.882-1.479 1.988-.742 3.516-2.506 4.53-4.048.156.985-.448 2.293.187 3.582m-1.057 12.207c.523 1.097 1.083 2.104 2.34 2.5 1.05.34 2.903-.47 4-4.562.518.86.781 1.558 1.553 2.271 3.423 3.341 6.043-1.884 9.114-2.448.376-.72.575-1.731.623-2.543-1.075.043-2.066.885-3.333.514-.361-.116-.786-.297-.813-.843.513-5.099-.404-10.375-3.951-13.894-1.603 4.379.644 8.906.844 13.321.979-3.096.23-6.302-.336-9.291 2.376 3.252 2.986 7.233 2.589 11.502-.361 2.321-2.448 2.193-3.389 1.531-3.673-2.873-3.176-8.66-4.903-12.073-.854 1.679-.183 3.53.186 5.145.488 2.047 2.041 6.039-.154 8.016-1.407 1.253-2.942.242-3.464-.997-1.351-3.261-1.662-6.717-2.354-10.241l-.335-.287c-.209.759-.439 1.672-.349 2.547.235 1.625.949 5.818 1.735 8.553-1.021 2.464-2.522 2.821-3.288 2.671-1.685-.748-1.188-2.731-1.215-4.149-3.837 2.136-7.775 4.425-10.98 5.384-7.546 2.269-16.92 4.019-24.462.444-2.722-1.329-4.995-3.958-4.938-7.127-.057-.329-.414-.51-.755-.466-3.075 1.124-3.717 4.503-4.717 7.107-1.092 2.819-3.715.909-3.927-.188-.348-4.148 3.674-6.731 6.009-9.413 1.703-1.938 2.541-4.234 2.774-6.905-1.31.811-3.163 1.14-4.591 1.616-.865.445-.781 2.009-1.046 2.907l4.09-1.269.125-.042c-1.456 3.895-6.605 5.194-7.806 9.523-.575 2.175-.623 5.62 1.062 7.247.693.583 2.002 1.139 3.006.539 2.019-1.978 1.615-4.805 3.266-6.905.518-.648 1.249-1.517 1.895-1.273l.378 1.976c.979 3.888 5.176 6.065 8.759 6.854 9.192 1.501 18.431-.628 26.191-4.426 1.646-.773 3.011-1.837 4.616-2.575.126 2.135.892 3.673 2.188 3.926.968.185 2.459-.752 3.763-4.177M25.633 57.356c-.15.201-.332.358-.523.463-2.044 1.365-6.574.578-7.951-1.235-.709-1.023-.926-2.546-.921-3.953 0-1.078.135-2.413.75-3.418 1.382-2.167 6.952-1.219 8.495.766 1.423 2.092.869 6.43.15 7.377M4.255 52.89c-.238-.01-.362-.191-.362-.405v-4.373c1.599-.522 4.037-.564 4.767.637.616.982.575 2.962-.14 3.646-.932.811-3.954.547-4.265.495m20.223-6.165c-3.224-.596-6.967-.145-9.099 2.005-1.678 1.666-2.428 6.841-.083 9.646h-.015l.036.021.191.227c.088.114.155.248.135.373-.456 1.263-2.122 1.253-2.671.901-2.21-1.75-2.842-4.763-4.716-5.973.968-.592 2.02-1.295 2.634-2.324.529-1.166.549-2.938-.444-3.89-.802-.9-2.422-1.22-4.286-1.22H1.062c-1.051 0 .404.232.404 1.18.176 4.364.026 12.789.026 12.789h3.446c.006-.336-.859-.357-1.009-.894 0 0-.062-4.664-.062-4.96-.036-.316.228-.316.228-.316.952-.049 1.713-.17 2.241.513.518.705 2.656 5.446 5.518 6.265 1.714.423 3.546-.348 4.799-1.325l.171-.149c2.402 1.236 5.947 1.105 8.24-.234 3.505-2.023 3.835-6.345 2.785-9.768-.518-1.697-1.948-2.536-3.371-2.867m11.698 12.812l-.062-4.106c2.215-2.759 4.384-5.657 5.316-8.938h-2.413c-1.056 0 .394.232.394 1.18-.186 2.003-2.127 4.435-3.84 6.461l-4.534-7.641h-3.401l-.077.065c-.016.267.667.167 1.273 1.031a95.795 95.795 0 014.881 7.959c0 1.426.041 4.913.041 4.913h3.411c0-.475-.915-.394-.989-.924m88.978-5.519c1.139-2.69 1.527-4.917 1.527-4.917.782 1.475 2.049 4.917 2.049 4.917h-3.576zm8.898 4.85c-2.443-3.908-4.167-8.206-5.854-12.376h-3.374l-.072.065c0 .119 1.251.457.942 2.106-.492 2.455-1.59 5.174-4.645 11.266l-.217.491c-.031.03-.031.04.228.04h2.78l.068-.066c0-.249-1.166-.249-.974-1.149.279-.995 1.169-2.774 1.77-4.172h4.555c.875 1.646 1.636 3.401 2.65 4.935.119.138.243.334.33.413.094.057.435.04.622.04.456.017 2.702 0 2.702 0l.094-.066c.009-.227-.761-.27-1.605-1.527m-16.284-.936c-1.708 1.471-5.585.797-7.93.562V48.252c.953-.326 1.527-.348 3.214-.279 1.796.078 4.219.614 5.162 2.215 1.07 1.779 1.417 6.129-.446 7.744M97.027 52.89c-.249-.01-.346-.191-.346-.405v-4.373c1.583-.522 4.012-.564 4.747.637.62.982.574 2.962-.13 3.646-.939.811-3.961.547-4.271.495m23.821-2.454c-1.325-4.581-7.288-3.943-12.144-3.943h-1.714c-.942 0 .198.185.404.946.14 5.523.011 10.036.011 10.036-.011.475-.011.958-.011 1.445-.052 1.03-.979 1.414-1.651.979-2.226-1.75-2.832-4.763-4.71-5.973.958-.592 2.019-1.295 2.634-2.324.523-1.166.538-2.938-.445-3.89-.807-.9-2.422-1.22-4.286-1.22h-5.098c-1.046 0 .403.232.403 1.18.191 4.364.021 12.789.021 12.789h3.441c.016-.336-.87-.357-1.005-.894 0 0-.052-4.664-.076-4.96 0-.316.252-.316.252-.316.964-.049 1.704-.17 2.232.513.527.705 2.665 5.446 5.522 6.265.358.097.73.145 1.113.118 1.025.035 2.008-.347 2.868-.874 3.441.165 7.251.714 10.062-1.444 2.978-2.016 2.902-5.415 2.177-8.433m-31.647 6.92c-.171.201-.316.358-.523.463-2.055 1.365-6.579.578-7.972-1.235-.688-1.023-.916-2.546-.894-3.953-.011-1.078.128-2.413.75-3.418 1.351-2.167 6.946-1.219 8.467.766 1.434 2.092.891 6.43.172 7.377m-1.066-10.631c-3.23-.596-6.978-.145-9.095 2.005-1.978 1.945-2.65 8.627 1.278 10.764 2.387 1.337 6.072 1.245 8.406-.134 3.488-2.023 3.814-6.345 2.78-9.768-.533-1.697-1.941-2.536-3.369-2.867m58.707-.167c-.021.254.901.327 1.011.945.605 3.149.353 10.086.353 10.086-3.837-3.189-6.964-7.092-10.1-10.961-.191-.178-.694-.136-.988-.136h-2.071l-.094.065c-.015.267.533.235 1.14.945.32.408.533.893.553 1.318.094 1.47.037 2.515-.015 4.193-.031 1.671-.254 6.822-.254 6.993l.079.413c.093.083.439.04.622.04h1.697l.072-.066c0-.249-.859-.27-.967-1.149-.058-.455-.114-2.092-.166-3.58-.046-1.927.026-3.402.124-5.104 3.193 3.712 10.467 10.604 10.953 11 .325.222.331.04.331.04.344-4.709.178-10.265.482-15.108h-2.672l-.09.066zM87.435 19.632c1.383 2.047 2.262 5.228.404 7.91-1.522-1.947-1.164-5.452-.404-7.91m-5.818 8.073c-1.372-2.297-1.055-5.782 0-8.146 1.233 2.29 2.133 5.925 0 8.146m15.317-2.491c.709-4.769-1.288-9.451-3.871-12.498-.476 2.576-.124 9.461.444 13.738 1.46-3.126-.041-6.317.213-9.583.844 1.263 1.32 2.509 1.847 3.923.866 2.301.296 5.373-1.527 7.351-1.127 1.192-2.722 1.875-4.197 1.375-.555-.182-1.051-.775-1.051-.775s.387-.992.853-2.641c.844-3.599.224-6.725-2.158-10.621-1.946 4.042-2.329 9.439-.755 13.525-1.631 1.68-3.743.855-4.167.183 2.112-3.898 1.683-9.458-.849-13.555-1.843 3.657-2.541 8.937-1.195 13.509-2.076 1.91-4.627 2.948-7.04 4.11 3.1-.18 5.75-.414 7.945-2.106.792.914 1.729 1.639 2.945 1.639 1.439 0 2.707-.947 3.457-1.639 1.625 1.703 3.971 1.46 5.042.833 2.501-1.436 3.671-4.166 4.064-6.768m64.598 28.804c1.144-2.69 1.532-4.917 1.532-4.917.801 1.475 2.035 4.917 2.035 4.917h-3.567zm8.919 4.85c-2.465-3.908-4.177-8.206-5.851-12.376h-3.385l-.084.065c0 .119 1.244.457.918 2.106-.451 2.455-1.589 5.174-4.598 11.266l-.241.491c-.017.03-.021.04.248.04h2.765l.087-.066c0-.249-1.185-.249-.984-1.149.271-.995 1.135-2.774 1.767-4.172h4.56c.874 1.646 1.637 3.401 2.66 4.935.095.138.217.334.304.413.104.057.448.04.639.04.44.017 2.697 0 2.697 0l.075-.066c-.001-.227-.739-.27-1.577-1.527m12.719-12.31c0 .254.914.327 1.028.945.591 3.149.329 10.086.329 10.086-3.813-3.189-6.939-7.092-10.076-10.961-.18-.178-.692-.136-.983-.136h-2.09l-.067.065c-.021.267.526.235 1.117.945.309.408.522.893.565 1.318.096 1.47.014 2.515 0 4.193-.048 1.671-.275 6.822-.275 6.993l.071.413c.122.083.43.04.639.04h1.692l.07-.066c.008-.249-.875-.27-.992-1.149-.031-.455-.079-2.092-.151-3.58a67.584 67.584 0 01.125-5.104c3.203 3.712 10.478 10.604 10.964 11 .311.222.341.04.341.04.33-4.709.155-10.265.451-15.108h-2.666l-.092.066zM74.4 46.492h-2.681l-.094.065c0 .254.855.267.963 1.154.088.652.114 3.676.156 5.238v5.524s-.031.998-.368 1.986c-.435 1.321-2.51 2.761-4.057 2.761-2.289 0-5.167-1.021-3.944-5.002-.378-.127-.523.425-1.129.652-1.573.549-4.047.53-5.719 0a216.545 216.545 0 01-.063-5.187v-6.724l-.067-.434c-.124-.058-.456-.036-.632-.036h-2.697l-.103.065c0 .254.87.267.978 1.154.048.339.084 1.258.12 2.289.063 3.449.14 7.152-.103 10.46h8.266s-.186 2.28.637 3.283c1.133 1.362 3.055 1.336 4.866.811 2.692-.811 6.088-3.085 6.331-5.888.031-1.531.041-3.106.041-4.668l.032-7.037-.073-.434c-.137-.053-.468-.032-.66-.032m99.066-13.979h.155c2.825.08 5.37.254 7.91-.8 2.179-1.217 2.95-3.19 3.556-5.163 1.676-5.708 0-11.617-4.36-15.5-1.183 3.626.297 7.354.613 10.873.21 1.214.014 2.584.301 3.757 1.287-3.683.31-7.256-.348-10.632l-.017-.246c2.139 2.746 3.731 5.323 3.531 8.651-.569 5.884-7.043 7.365-11.341 9.06m-18.219 26.732c-.091-.643-.173-3.675-.199-5.246l.026-7.037-.075-.434c-.143-.058-.457-.036-.639-.036h-2.706l-.1.065c0 .254.877.267.964 1.154.097.652.188 3.676.218 5.238l-.016 5.939c-.014.46-.014 1.009-.014 1.118 0 .108 0 .356.112.413.091.083.423.04.604.04h2.711l.079-.066c.002-.247-.863-.268-.965-1.148m-2.337-27.724c-1.144.552-2.605.754-3.859 1.124-1.19.398-1.217 1.952-1.596 2.901 1.14-.492 2.476-.727 3.707-1.055 1.169-.499 1.274-1.978 1.748-2.97m-147.37.992c.698-.137 1.16-.516 1.625-1.458 1.335-2.789 2.071-6.259 4.421-6.79.367.296.274.869.388 1.367.756 3.781 4.487 5.528 7.536 6.185 10.512 2.083 20.534-.905 28.573-7.795l.118-.085c-.45 2.569 1.139 3.572 2.36 3.351 1.662-.288 2.335-2.228 2.909-3.457.353-.844.601-1.458.776-2.025.146-.465.274-.916.348-1.384l-.383.232c-1.128.875-1.357 2.387-2.375 3.368-.399.349-1.041.603-1.616.444-.782-.274-.968-.949-.999-1.647.016-.632.15-1.267.15-1.655v-.37c-6.428 5.5-14.043 8.645-22.588 9.004-5.202-.072-10.559-.598-13.655-4.982-.559-.959-.771-2.093-1.03-3.161-.797-.3-1.719.435-2.267.961-2.19 2.008-2.267 5.052-4.337 7.049-1.046.546-2.811-.551-2.791-2.273.052-2.428 1.693-4.382 3.634-5.958 3.018-2.458 5.544-5.616 6.103-9.174-1.398.611-3.116.875-4.643 1.203-.87.394-1 1.543-1.274 2.821 1.253-.415 2.759-.606 4.142-1.007l.015.079c-1.289 3.089-4.549 4.236-6.812 6.62-2.2 2.365-2.754 6.128-1.46 8.767.772 1.52 1.755 1.938 3.132 1.77m24.318-11.45c.212 1.114 1.723.413 2.235-.481a.722.722 0 00.44.307c.218.021.581-.022.818-.626.165-.414.232-.98-.042-1.501l-.098.585a.65.65 0 01-.631.528c-.332.011-.259-.374-.312-.538-.398.127-.269.725-.983 1.108-.269.137-.719.284-.916-.043-.161-.354.128-.679.175-.992-.464.313-.748 1.035-.686 1.653m34.038 11.905c2.251-.03 5.735-.525 6.993-1.055 2.309-1.245 3.1-3.359 3.629-5.863.439-2.113-.171-3.459 1.252-4.414.595-.359.347-1.478.482-2.353a.464.464 0 00-.357-.191c-1.688.546-1.589 2.311-1.785 3.801-.855 5.104-5.342 8.352-9.473 9.772l-.741.303zm-2.117-5.077l.062-1.145c.212-2.299-2.619-3.229-3.132-5.258.088-.621.378-1.151.802-1.638.953-.885 2.101-1.203 3.448-.8 1.552.487 2.112 2.014 2.324 3.491-1.223 5.478-7.289 8.117-11.6 10.363l.404-.031c2.79-.371 4.752-.78 6.956-1.563 2.226-.823 3.779-3.372 4.536-5.501.884-2.63 1.36-6.451-.617-8.735-1.086-1.066-2.903-1.527-4.295-.844-1.465.641-2.588 2.184-2.77 3.863-.389 3.139 1.428 5.957 3.882 7.798m-40.804-9.669a230.2 230.2 0 0018.324-4.492c.667-.233 2.283-.469 2.179-1.47-6.413 1.718-13.013 3.261-19.742 4.66l-.388.568c-.125.157-.621.697-.373.734m32.879-2.946c-.625-.557-1.532-1.035-2.246-1.368-.409.642-.958 1.42-1.087 2.264.725.613 1.485.942 2.241 1.41.652-.878.9-1.755 1.092-2.306M42.011 34.354c1.228-.601 2.583-.782 3.862-1.132 1.019-.629 1.16-1.828 1.528-2.852-1.171.601-2.589.759-3.857 1.172-1.248.371-1.171 1.893-1.533 2.812m2.07 19.664c1.109-2.69 1.512-4.917 1.512-4.917.798 1.475 2.045 4.917 2.045 4.917h-3.557zm8.872 4.85c-2.432-3.908-4.151-8.206-5.843-12.376h-3.375l-.078.065c0 .119 1.253.457.938 2.106-.476 2.455-1.594 5.174-4.617 11.266l-.228.491c-.037.03-.041.04.228.04h2.753l.099-.066c0-.249-1.17-.249-.983-1.149.274-.995 1.154-2.774 1.779-4.172h4.55c.864 1.646 1.625 3.401 2.666 4.935.098.138.211.334.294.413.109.057.445.04.636.04.43.017 2.719 0 2.719 0l.077-.066c0-.227-.75-.27-1.615-1.527m92.952-47.636c-6.687 2.039-13.85 4.251-20.844 5.815l-.714 1.736c7.034-1.96 14.234-3.885 20.991-6.465l.567-1.086zm-11.474 8.533a2.906 2.906 0 00-.481.774c-.187.403-.156 1.141.227 1.395.405.232 1.238.064 1.632-.753.238.096.435.186.837.021.675-.286.653-1.362.653-2.045-.311.244-.098.79-.487 1.053-.377.213-.719-.188-.719-.485-.213.324-.368.916-.809 1.144-.237.126-.624.246-.868.043-.363-.353.128-.775.015-1.147m-57.492-4.643c1.041-.224 2.334-.624 2.91-1.181.564-.53 1.071-1.288.942-2.115-.352-.939-1.119.548-1.833.179-.352-.253.548-1.118 1.118-.944.17-.174.27-.447.295-.673-.125-.148-.43-.178-.591-.083-.75.424-1.386 1.063-1.319 2.094.145 1.159 1.236-.246 1.827.095-.688 1.297-2.407 1.747-3.349 2.628M267.05 37.649s1.428 1.504 1.946 3.584c0 0-3.096-.245-4.334.714 0 0 .095.869 1.533 2.409 0 0 .264.452-.368.857-.591.378-3.593.574-3.702-2.584 0 0-1.928 2.35-4.569 1.998 0 0-2.085-.254-2.22-2.216 0 0 2.003.396 3.596-.352 0 0-.057-1.294-1.884-2.572 0 0 1.426-1.851 4.671-2.726 0 0-.633-2.809.289-5.65.953-2.852 1.418-3.529 1.661-4.151.265-.592.558-2.08.078-3.666 0 0 7.537-.154 7.566 7.913.001.001.074 4.491-4.263 6.442m-8.484 13.852l-4.421-2.022 4.348-1.423 4.167 1.904-4.094 1.541zm-7.428-7.313c-2.535-.148-3.453-2.672-3.453-2.672-1.271 1.667-3.886 1.405-3.886 1.405-2.105-.478-2.254-2.306-2.254-2.306 2.319-.465 2.915-1.31 2.915-1.31-.532-1.478-3.037-2.297-3.037-2.297 1.506-2.386 4.746-3.595 4.746-3.595-1.262-1.315-1.627-2.62-1.952-4.769-.33-2.21.243-5.615.243-5.615.657-3.048 1.806-4.526 2.796-5.815 1.072-1.27 2.133-1.118 2.133-1.118 1.407.157 2.682.911 2.682.911 1.687.986 2.883 2.433 3.437 3.192.501.763 2.132 4.425.104 9.021-2.044 4.533-4.136 5.402-4.136 5.402 3.147 3.026 3.132 4.391 3.132 4.391-2.599 0-3.293 1.443-3.293 1.443.638 1.268 2.501 1.742 2.501 1.742-.537 2.088-2.678 1.99-2.678 1.99m-1.679 6.704a1.585 1.585 0 01-1.603-1.584c0-.912.72-1.604 1.603-1.604.856 0 1.565.692 1.565 1.604a1.57 1.57 0 01-1.565 1.584m-8.915 0l-4.225-1.697 4.225-1.713 4.311 1.713-4.311 1.697zm-7.14-9.376s-.942 2.523-3.451 2.672c0 0-2.148.099-2.671-1.988 0 0 1.821-.475 2.483-1.742 0 0-.694-1.443-3.308-1.443 0 0-.024-1.364 3.162-4.391 0 0-2.138-.869-4.162-5.402-2.021-4.597-.407-8.258.126-9.021.532-.759 1.723-2.206 3.422-3.192 0 0 1.262-.754 2.706-.911 0 0 1.031-.152 2.075 1.118 1.005 1.289 2.215 2.767 2.828 5.815 0 0 .583 3.404.247 5.615-.313 2.149-.673 3.454-1.946 4.769 0 0 3.205 1.209 4.735 3.595 0 0-2.53.819-3.036 2.297 0 0 .601.845 2.903 1.31 0 0-.094 1.828-2.271 2.306.001-.002-2.58.26-3.842-1.407m-1.765 9.376c-.854 0-1.619-.694-1.619-1.584 0-.849.766-1.552 1.619-1.552.875 0 1.538.703 1.538 1.552 0 .889-.663 1.584-1.538 1.584m-9.134.609l-4.142-1.531 4.207-1.914 4.334 1.458-4.399 1.987zm-7.306-6.179c-.569-.404-.365-.861-.365-.861 1.436-1.519 1.562-2.39 1.562-2.39-1.252-.952-4.316-.704-4.316-.704.506-2.126 1.924-3.578 1.924-3.578-4.355-2.038-4.237-6.495-4.237-6.495 0-8.031 7.553-7.904 7.553-7.904-.478 1.574-.173 3.064.061 3.702.244.592.745 1.244 1.684 4.116.909 2.843.279 5.621.279 5.621 3.229.893 4.643 2.746 4.643 2.746-1.838 1.275-1.838 2.585-1.838 2.585 1.553.761 3.588.348 3.588.348-.15 1.976-2.252 2.202-2.252 2.202-2.604.344-4.571-1.967-4.571-1.967-.091 3.141-3.083 2.967-3.715 2.579m63.01-14.346c1.616-.54 1.423-2.331 1.423-2.331-.346-2.095-2.54-1.797-2.54-1.797 1.388-1.627.288-2.896.288-2.896-1.074-1.341-2.769-.476-2.769-.476.771-1.719-.248-2.586-.248-2.586-1.355-1.192-2.77.041-2.77.041-.041-1.679-1.254-2.063-1.254-2.063-1.428-.618-2.477.668-2.477.668-1.048-2.883-3.106-1.403-3.598-1.204-.487.287-.535 0-.535 0-.092-3.485-3.059-2.175-3.059-2.175.808-1.741-.6-2.722-.6-2.722-1.523-.942-2.79.378-2.79.378-.157-2.301-1.857-1.618-2.397-1.415-.518.116-1.636.158-1.636.158-3.516-.435-4.817-.233-4.817-.233-4.281-.087-7.888 7.013-7.888 7.013v.062l-.064-.062s-3.658-7.1-7.925-7.013c0 0-1.308-.202-4.813.233 0 0-1.092-.042-1.635-.158-.54-.203-2.248-.886-2.366 1.415 0 0-1.283-1.32-2.811-.378 0 0-1.402.981-.596 2.722 0 0-2.981-1.31-3.074 2.175 0 0-.017.287-.543 0-.474-.2-2.527-1.679-3.571 1.204 0 0-1.067-1.286-2.48-.668 0 0-1.231.384-1.274 2.063 0 0-1.423-1.233-2.789-.041 0 0-1.022.867-.271 2.586 0 0-1.654-.865-2.689.476 0 0-1.118 1.269.288 2.896 0 0-2.255-.298-2.566 1.797 0 0-.171 1.791 1.403 2.331 0 0-1.849.865-1.517 2.353 0 0 .113 1.482 2.033 1.765 0 0-1.608 1.066-.941 2.556 0 0 .637 1.739 2.692 1.233 0 0-.773 1.802.423 2.604 0 0 1.122.957 2.511.017 0 0 .73-.27 1.034.253 0 0 .523.838-.573 2.075 0 0 5.974-.506 7.584 9.131H264.9c1.618-9.637 7.676-9.131 7.676-9.131-1.123-1.237-.579-2.075-.579-2.075.274-.522 1.01-.253 1.01-.253 1.393.94 2.546-.017 2.546-.017 1.153-.802.399-2.604.399-2.604 2.075.506 2.737-1.233 2.737-1.233.596-1.489-.984-2.556-.984-2.556 1.926-.283 2.004-1.765 2.004-1.765.342-1.488-1.5-2.353-1.5-2.353m-61.626 27.282c.096 1.137.135 2.186.135 2.186h47.509s.039-.992.136-2.046c.108-1.149.239-2.051.239-2.051h-48.267s.153.954.248 1.911m21.233-47.402s-1.528-.033-2.533.466c0 0 3.547.95 5.261 5.058 1.727-4.107 5.252-5.058 5.252-5.058-.941-.499-2.536-.466-2.536-.466-.154-.536-.749-.959-.749-.959.465-.562 1.392-1.179 1.392-1.179L240.545.747l-3.346 7.971s.917.618 1.377 1.179c-.001-.001-.607.423-.76.959" fill="#5F6367"/><path d="M160.53 12.805c.648-3 .554-6.333.928-9.318l-.335.085-.213 1.31c-.683 5.432-6.025 7.077-9.97 9.87 1.677-.415 3.36-.912 4.875-1.479 1.988-.742 3.52-2.508 4.534-4.051.156.988-.448 2.297.181 3.583m-1.06 12.207c.535 1.098 1.092 2.106 2.351 2.504 1.052.339 2.906-.474 4.003-4.56.517.854.781 1.552 1.552 2.27 3.421 3.333 6.041-1.892 9.115-2.448.37-.722.57-1.734.623-2.544-1.079.037-2.072.885-3.337.513-.36-.117-.783-.295-.81-.842.51-5.101-.405-10.373-3.955-13.892-1.601 4.377.645 8.906.843 13.318.983-3.096.232-6.303-.342-9.292 2.388 3.256 2.997 7.236 2.598 11.504-.362 2.319-2.446 2.193-3.39 1.53-3.67-2.872-3.173-8.66-4.9-12.073-.861 1.68-.183 3.525.184 5.148.487 2.044 2.04 6.035-.161 8.013-1.401 1.255-2.933.243-3.467-.997-1.346-3.259-1.65-6.715-2.351-10.246l-.33-.279c-.206.764-.44 1.67-.349 2.544.235 1.627.948 5.817 1.735 8.554-1.019 2.465-2.52 2.82-3.285 2.673-1.684-.749-1.191-2.736-1.218-4.152-3.838 2.136-7.774 4.427-10.979 5.387-7.546 2.266-16.916 4.016-24.463.445-2.722-1.331-4.995-3.959-4.938-7.131-.057-.328-.414-.506-.751-.465-3.078 1.123-3.731 4.506-4.72 7.107-1.092 2.822-3.721.906-3.929-.184-.352-4.156 3.676-6.731 6.01-9.414 1.703-1.94 2.541-4.235 2.774-6.906-1.31.811-3.164 1.139-4.597 1.618-.869.446-.776 2.008-1.041 2.904l4.09-1.269.124-.041c-1.456 3.894-6.611 5.195-7.806 9.524-.58 2.173-.622 5.617 1.051 7.247.703.581 2.012 1.144 3.018.54 2.018-1.977 1.615-4.808 3.261-6.907.522-.647 1.242-1.517 1.899-1.266l.367 1.97c.989 3.888 5.187 6.066 8.774 6.855 9.188 1.499 18.427-.637 26.186-4.427 1.635-.772 3.013-1.838 4.618-2.576.123 2.135.884 3.673 2.189 3.929.965.176 2.462-.761 3.754-4.186M25.21 56.72c-.15.203-.326.351-.533.46-2.036 1.37-6.564.587-7.951-1.235-.698-1.019-.916-2.542-.906-3.946 0-1.075.129-2.42.735-3.421 1.382-2.168 6.962-1.218 8.504.771 1.424 2.087.866 6.417.151 7.371M3.833 52.253c-.244-.011-.362-.191-.362-.402v-4.369c1.6-.527 4.037-.574 4.767.63.617.979.575 2.955-.134 3.64-.938.815-3.961.554-4.271.501m20.223-6.165c-3.229-.596-6.967-.144-9.1 1.997-1.687 1.676-2.428 6.85-.082 9.661h-.016l.037.021.192.222c.088.113.154.254.134.366-.456 1.27-2.127 1.258-2.671.913-2.21-1.762-2.841-4.769-4.716-5.986.963-.583 2.024-1.283 2.635-2.319.528-1.158.549-2.937-.45-3.881-.797-.905-2.417-1.227-4.281-1.227H.628c-1.04 0 .404.233.404 1.182.187 4.361.036 12.789.036 12.789h3.437c.016-.34-.849-.361-.999-.9 0 0-.057-4.66-.057-4.948-.041-.322.228-.322.228-.322.947-.052 1.703-.165 2.236.519.518.692 2.656 5.439 5.518 6.265 1.713.423 3.546-.353 4.798-1.331l.17-.152c2.402 1.244 5.942 1.109 8.235-.23 3.51-2.023 3.841-6.343 2.79-9.769-.516-1.7-1.945-2.539-3.368-2.87m11.698 12.81l-.057-4.104c2.216-2.754 4.379-5.665 5.312-8.94h-2.413c-1.056 0 .393.233.393 1.182-.186 2.003-2.132 4.43-3.846 6.463l-4.523-7.645h-3.407l-.077.068c-.016.27.657.165 1.278 1.031 1.724 2.55 3.396 5.23 4.876 7.959 0 1.423.041 4.912.041 4.912h3.406c.001-.474-.921-.39-.983-.926m88.973-5.517c1.142-2.697 1.531-4.922 1.531-4.922.782 1.48 2.05 4.922 2.05 4.922h-3.581zm8.902 4.851c-2.443-3.907-4.172-8.21-5.849-12.378h-3.379l-.073.068c0 .113 1.259.454.944 2.103-.494 2.462-1.59 5.173-4.645 11.272l-.217.487c-.035.031-.035.04.228.04h2.78l.056-.066c0-.256-1.154-.256-.963-1.144.274-1 1.17-2.785 1.771-4.172h4.555c.875 1.64 1.636 3.395 2.65 4.925.12.135.239.334.331.417.094.058.43.04.622.04.45.018 2.696 0 2.696 0l.1-.066c.008-.229-.763-.273-1.607-1.526m-16.284-.931c-1.703 1.463-5.59.792-7.935.558V47.615c.958-.326 1.532-.348 3.21-.273 1.806.07 4.228.61 5.169 2.206 1.073 1.788 1.414 6.135-.444 7.753m-20.741-5.048c-.248-.011-.346-.191-.346-.402v-4.369c1.584-.527 4.006-.574 4.737.63.626.979.585 2.955-.125 3.64-.932.815-3.966.554-4.266.501m23.822-2.449c-1.326-4.585-7.29-3.949-12.144-3.949h-1.714c-.952 0 .191.182.404.948.14 5.522.01 10.031.01 10.031-.01.485-.01.963-.01 1.45-.052 1.036-.979 1.418-1.662.983-2.215-1.762-2.821-4.769-4.695-5.986.953-.583 2.015-1.283 2.63-2.319.518-1.158.538-2.937-.446-3.881-.807-.905-2.421-1.227-4.286-1.227h-5.098c-1.051 0 .403.233.403 1.182.192 4.361.016 12.789.016 12.789h3.448c.02-.34-.87-.361-1.01-.9 0 0-.048-4.66-.067-4.948 0-.322.248-.322.248-.322.963-.052 1.697-.165 2.232.519.522.692 2.661 5.439 5.521 6.265.353.093.731.132 1.103.113 1.035.03 2.019-.348 2.879-.87 3.441.162 7.241.714 10.062-1.448 2.973-2.012 2.889-5.406 2.176-8.43M88.778 56.72c-.171.203-.316.351-.518.46-2.06 1.37-6.594.587-7.977-1.235-.688-1.019-.916-2.542-.895-3.946-.01-1.075.125-2.42.75-3.421 1.351-2.168 6.947-1.218 8.468.771 1.43 2.087.887 6.417.172 7.371m-1.071-10.632c-3.225-.596-6.967-.144-9.089 1.997-1.978 1.946-2.65 8.635 1.278 10.778 2.381 1.335 6.072 1.23 8.407-.14 3.483-2.023 3.809-6.343 2.779-9.769-.534-1.696-1.935-2.535-3.375-2.866m58.711-.165c-.021.253.898.332 1.011.94.604 3.149.353 10.089.353 10.089-3.838-3.193-6.958-7.087-10.099-10.969-.192-.174-.694-.129-.995-.129h-2.064l-.094.068c-.015.27.538.232 1.133.94.322.414.54.9.559 1.326.094 1.46.038 2.512-.015 4.191-.026 1.669-.248 6.817-.248 6.987l.072.417c.093.083.439.04.622.04h1.697l.072-.066c0-.256-.864-.273-.968-1.144-.057-.457-.113-2.097-.159-3.582-.052-1.927.009-3.405.108-5.11 3.209 3.711 10.47 10.607 10.962 10.999.325.221.333.043.333.043.34-4.713.17-10.264.475-15.11h-2.671l-.084.07zM87.012 18.996c1.384 2.047 2.263 5.229.405 7.909-1.522-1.947-1.165-5.448-.405-7.909m-5.817 8.074c-1.376-2.296-1.056-5.785 0-8.147 1.232 2.288 2.133 5.924 0 8.147m15.316-2.491c.705-4.771-1.288-9.452-3.87-12.498-.477 2.576-.125 9.461.444 13.736 1.46-3.126-.042-6.315.213-9.583.844 1.258 1.314 2.508 1.847 3.924.855 2.3.296 5.376-1.532 7.352-1.123 1.192-2.717 1.875-4.192 1.373-.565-.181-1.051-.774-1.051-.774s.388-.99.849-2.639c.849-3.605.222-6.727-2.154-10.621-1.946 4.044-2.334 9.438-.754 13.525-1.632 1.68-3.744.854-4.168.181 2.112-3.9 1.677-9.452-.849-13.553-1.842 3.657-2.535 8.937-1.195 13.504-2.076 1.916-4.627 2.954-7.045 4.116 3.106-.181 5.756-.416 7.951-2.1.792.906 1.734 1.633 2.945 1.633 1.443 0 2.707-.95 3.458-1.633 1.62 1.701 3.97 1.452 5.047.825 2.494-1.438 3.663-4.168 4.056-6.768m64.593 28.802c1.148-2.697 1.532-4.922 1.532-4.922.809 1.48 2.045 4.922 2.045 4.922h-3.577zm8.923 4.851c-2.463-3.907-4.177-8.21-5.848-12.378h-3.385l-.088.068c0 .113 1.245.454.918 2.103-.448 2.462-1.583 5.173-4.604 11.272l-.243.487c-.008.031-.021.04.257.04h2.76l.095-.066c0-.256-1.187-.256-.983-1.144.267-1 1.136-2.785 1.753-4.172h4.569c.875 1.64 1.642 3.395 2.663 4.925.097.135.222.334.304.417.104.058.444.04.636.04.439.018 2.697 0 2.697 0l.079-.066c0-.229-.745-.273-1.58-1.526m12.719-12.309c0 .253.905.332 1.026.94.593 3.149.339 10.089.339 10.089-3.824-3.193-6.944-7.087-10.081-10.969-.183-.174-.705-.129-.984-.129h-2.092l-.078.068c-.014.27.54.232 1.118.94.321.414.534.9.57 1.326.104 1.46.021 2.512 0 4.191-.052 1.669-.27 6.817-.27 6.987l.069.417c.117.083.435.04.641.04h1.687l.073-.066c.01-.256-.869-.273-.99-1.144-.031-.457-.075-2.097-.149-3.582a67.831 67.831 0 01.123-5.11c3.206 3.711 10.478 10.607 10.964 10.999.305.221.343.043.343.043.332-4.713.148-10.264.449-15.11h-2.667l-.091.07zm-108.77-.069h-2.68l-.099.068c0 .253.859.27.968 1.158.088.652.114 3.673.156 5.234v5.522s-.037 1.005-.373 1.987c-.43 1.317-2.505 2.754-4.053 2.754-2.288 0-5.166-1.014-3.938-4.995-.383-.131-.533.426-1.134.658-1.574.548-4.047.521-5.719 0a190.251 190.251 0 01-.063-5.188v-6.726l-.066-.432c-.129-.067-.456-.042-.636-.042h-2.693l-.103.068c0 .253.863.27.972 1.158.052.331.083 1.253.125 2.288.052 3.447.139 7.149-.104 10.456h8.266s-.191 2.279.637 3.281c1.134 1.36 3.048 1.334 4.865.817 2.692-.817 6.088-3.084 6.331-5.896.032-1.532.041-3.103.041-4.669l.032-7.031-.073-.432c-.136-.063-.467-.038-.659-.038m99.067-13.972h.154c2.814.07 5.368.248 7.909-.805 2.181-1.214 2.945-3.191 3.556-5.169 1.679-5.705 0-11.612-4.357-15.487-1.187 3.622.29 7.345.61 10.865.214 1.214.017 2.589.3 3.759 1.288-3.683.313-7.255-.347-10.632l-.026-.243c2.145 2.746 3.744 5.322 3.542 8.65-.575 5.881-7.045 7.361-11.341 9.062m-18.221 26.733c-.083-.653-.17-3.681-.2-5.256l.03-7.031-.078-.432c-.14-.067-.456-.042-.637-.042h-2.706l-.099.068c0 .253.87.27.967 1.158.095.652.178 3.673.211 5.234l-.021 5.935c-.013.462-.013 1.018-.013 1.118 0 .104 0 .365.117.417.095.083.426.04.605.04h2.714l.078-.066c.002-.255-.862-.273-.968-1.143m-2.333-27.729c-1.145.551-2.604.747-3.862 1.118-1.186.403-1.223 1.958-1.593 2.904 1.136-.492 2.468-.724 3.702-1.053 1.172-.501 1.276-1.973 1.753-2.969m-147.38.996c.698-.143 1.154-.52 1.625-1.462 1.331-2.788 2.071-6.261 4.42-6.792.368.297.274.87.389 1.369.755 3.778 4.492 5.527 7.536 6.186 10.513 2.078 20.534-.909 28.563-7.799l.128-.084c-.455 2.571 1.139 3.574 2.355 3.35 1.666-.287 2.345-2.225 2.914-3.457.352-.842.601-1.458.777-2.024.145-.466.274-.915.342-1.381l-.383.233c-1.124.875-1.351 2.382-2.371 3.364-.404.35-1.051.605-1.614.446-.782-.274-.974-.948-1-1.649.015-.629.155-1.267.155-1.653v-.371c-6.439 5.502-14.048 8.644-22.593 9.003-5.208-.071-10.561-.603-13.655-4.981-.559-.958-.771-2.093-1.036-3.152-.792-.313-1.713.43-2.256.953-2.195 2.011-2.273 5.052-4.343 7.044-1.046.552-2.811-.546-2.791-2.267.052-2.428 1.693-4.384 3.634-5.957 3.019-2.462 5.543-5.619 6.103-9.177-1.402.609-3.116.876-4.643 1.201-.87.394-.999 1.542-1.268 2.822 1.248-.414 2.753-.603 4.137-1.001l.015.074c-1.3 3.091-4.555 4.236-6.807 6.62-2.2 2.362-2.764 6.126-1.464 8.761.77 1.522 1.753 1.946 3.131 1.781m24.317-11.456c.207 1.116 1.724.415 2.235-.481a.707.707 0 00.441.309c.217.015.58-.022.818-.627.16-.415.233-.981-.042-1.494l-.098.578c-.052.244-.269.525-.626.525-.336.011-.264-.373-.315-.535-.399.126-.27.724-.983 1.107-.27.137-.725.285-.912-.043-.171-.355.124-.679.167-.992-.462.313-.752 1.035-.685 1.653m34.039 11.907c2.24-.032 5.734-.526 6.993-1.053 2.308-1.249 3.1-3.363 3.628-5.865.44-2.114-.171-3.465 1.252-4.416.584-.359.347-1.478.481-2.352a.46.46 0 00-.357-.19c-1.693.544-1.59 2.309-1.781 3.799-.859 5.104-5.347 8.355-9.478 9.768l-.738.309zm-2.123-5.079l.067-1.145c.207-2.301-2.629-3.228-3.131-5.258.082-.619.382-1.149.802-1.639.952-.884 2.101-1.201 3.448-.799 1.547.483 2.111 2.013 2.318 3.494-1.217 5.474-7.283 8.113-11.595 10.362l.398-.033c2.8-.37 4.757-.779 6.962-1.564 2.231-.825 3.784-3.37 4.534-5.502.885-2.63 1.361-6.451-.616-8.735-1.086-1.064-2.903-1.527-4.296-.841-1.464.639-2.593 2.182-2.768 3.863-.388 3.138 1.428 5.957 3.877 7.797m-40.798-9.667a231.93 231.93 0 0018.323-4.495c.668-.232 2.283-.466 2.174-1.469-6.408 1.717-13.008 3.26-19.737 4.66l-.388.566c-.134.159-.631.694-.372.738m32.878-2.941c-.626-.561-1.531-1.038-2.246-1.373-.42.639-.958 1.427-1.092 2.267.724.611 1.48.945 2.246 1.405.653-.879.901-1.754 1.092-2.299M41.58 33.718c1.226-.602 2.577-.78 3.862-1.129 1.019-.637 1.158-1.831 1.526-2.852-1.175.597-2.587.755-3.856 1.168-1.243.374-1.17 1.893-1.532 2.813m2.06 19.663c1.117-2.697 1.517-4.922 1.517-4.922.802 1.48 2.049 4.922 2.049 4.922H43.64zm8.882 4.851c-2.438-3.907-4.151-8.21-5.844-12.378h-3.375l-.082.068c0 .113 1.253.454.936 2.103-.47 2.462-1.593 5.173-4.611 11.272l-.239.487c-.025.031-.036.04.239.04h2.748l.104-.066c0-.256-1.171-.256-.985-1.144.275-1 1.15-2.785 1.787-4.172h4.534c.869 1.64 1.641 3.395 2.676 4.925.098.135.212.334.294.417.104.058.446.04.637.04.43.018 2.713 0 2.713 0l.083-.066c.001-.229-.761-.273-1.615-1.526M145.475 10.6c-6.688 2.037-13.852 4.248-20.846 5.81l-.714 1.74c7.034-1.961 14.239-3.885 20.985-6.467l.575-1.083zM134 19.129a2.957 2.957 0 00-.483.774c-.186.401-.16 1.139.235 1.393.398.232 1.231.065 1.619-.753.244.096.441.181.844.023.673-.288.652-1.363.652-2.053-.311.248-.098.794-.48 1.062-.383.213-.731-.191-.731-.489-.206.324-.356.918-.796 1.146-.243.126-.637.244-.875.037-.364-.344.124-.768.015-1.14m-57.492-4.642c1.03-.222 2.334-.627 2.915-1.182.559-.531 1.066-1.29.926-2.116-.347-.938-1.118.552-1.822.179-.352-.254.548-1.117 1.123-.942.162-.175.259-.445.29-.674-.128-.15-.434-.181-.595-.085-.745.424-1.381 1.066-1.315 2.095.145 1.153 1.237-.244 1.832.096-.694 1.3-2.417 1.75-3.354 2.629M266.62 37.014s1.43 1.496 1.947 3.583c0 0-3.096-.242-4.332.719 0 0 .092.857 1.527 2.401 0 0 .269.457-.363.858-.595.382-3.591.583-3.7-2.576 0 0-1.937 2.345-4.578 1.997 0 0-2.084-.258-2.214-2.215 0 0 2.004.387 3.599-.352 0 0-.069-1.298-1.884-2.577 0 0 1.423-1.849 4.669-2.724 0 0-.645-2.811.289-5.652.95-2.85 1.417-3.53 1.659-4.148.267-.596.562-2.084.078-3.668 0 0 7.537-.155 7.563 7.912.001 0 .078 4.491-4.26 6.442m-8.494 13.856l-4.408-2.027 4.349-1.423 4.154 1.897-4.095 1.553zm-7.426-7.317c-2.527-.157-3.455-2.672-3.455-2.672-1.262 1.667-3.877 1.396-3.877 1.396-2.105-.466-2.249-2.298-2.249-2.298 2.317-.466 2.914-1.305 2.914-1.305-.529-1.482-3.049-2.303-3.049-2.303 1.517-2.393 4.755-3.595 4.755-3.595-1.262-1.314-1.624-2.616-1.95-4.77-.331-2.209.244-5.612.244-5.612.646-3.047 1.806-4.527 2.798-5.817 1.067-1.27 2.128-1.119 2.128-1.119 1.41.157 2.681.914 2.681.914 1.68.987 2.884 2.434 3.434 3.191.507.762 2.144 4.426.104 9.02-2.04 4.532-4.131 5.396-4.131 5.396 3.148 3.034 3.131 4.395 3.131 4.395-2.599 0-3.291 1.45-3.291 1.45.638 1.265 2.499 1.738 2.499 1.738-.534 2.09-2.686 1.991-2.686 1.991m-1.663 6.707c-.884 0-1.608-.704-1.608-1.583 0-.913.725-1.605 1.608-1.605.85 0 1.549.692 1.549 1.605 0 .879-.699 1.583-1.549 1.583m-8.923 0l-4.229-1.704 4.229-1.711 4.313 1.711-4.313 1.704zm-7.138-9.379s-.941 2.515-3.461 2.672c0 0-2.14.1-2.661-1.99 0 0 1.816-.474 2.483-1.738 0 0-.691-1.45-3.307-1.45 0 0-.031-1.36 3.162-4.395 0 0-2.139-.864-4.162-5.396-2.023-4.594-.414-8.258.126-9.02.531-.758 1.723-2.205 3.42-3.191 0 0 1.264-.757 2.707-.914 0 0 1.025-.151 2.082 1.119.997 1.29 2.21 2.77 2.82 5.817 0 0 .585 3.403.248 5.612-.31 2.154-.673 3.456-1.945 4.77 0 0 3.203 1.203 4.735 3.595 0 0-2.529.82-3.038 2.303 0 0 .601.839 2.908 1.305 0 0-.099 1.832-2.282 2.298 0-.001-2.566.27-3.835-1.397m-1.769 9.379c-.86 0-1.616-.704-1.616-1.583 0-.855.756-1.553 1.616-1.553.879 0 1.54.697 1.54 1.553 0 .879-.661 1.583-1.54 1.583m-9.137.61l-4.137-1.531 4.198-1.919 4.342 1.453-4.403 1.997zm-7.299-6.179c-.568-.417-.377-.87-.377-.87 1.445-1.513 1.571-2.381 1.571-2.381-1.251-.965-4.315-.716-4.315-.716.509-2.128 1.926-3.575 1.926-3.575-4.358-2.039-4.24-6.492-4.24-6.492 0-8.031 7.553-7.904 7.553-7.904-.475 1.576-.171 3.063.062 3.701.242.592.747 1.245 1.684 4.118.909 2.842.277 5.613.277 5.613 3.221.901 4.64 2.75 4.64 2.75-1.833 1.283-1.833 2.588-1.833 2.588 1.548.754 3.582.35 3.582.35-.144 1.975-2.245 2.206-2.245 2.206-2.604.343-4.578-1.972-4.578-1.972-.084 3.143-3.074 2.967-3.707 2.584M277.78 30.34c1.605-.542 1.415-2.333 1.415-2.333-.345-2.094-2.533-1.796-2.533-1.796 1.388-1.627.286-2.893.286-2.893-1.072-1.342-2.766-.479-2.766-.479.772-1.721-.249-2.584-.249-2.584-1.36-1.195-2.768.041-2.768.041-.042-1.68-1.253-2.061-1.253-2.061-1.435-.622-2.479.668-2.479.668-1.046-2.885-3.106-1.406-3.594-1.204-.491.283-.536 0-.536 0-.094-3.485-3.065-2.18-3.065-2.18.813-1.74-.589-2.72-.589-2.72-1.528-.942-2.797.377-2.797.377-.154-2.3-1.867-1.616-2.402-1.415-.518.116-1.634.157-1.634.157-3.519-.435-4.813-.232-4.813-.232-4.286-.083-7.889 7.014-7.889 7.014v.061l-.062-.061s-3.659-7.097-7.927-7.014c0 0-1.309-.202-4.813.232 0 0-1.092-.041-1.636-.157-.539-.202-2.245-.886-2.367 1.415 0 0-1.282-1.319-2.81-.377 0 0-1.402.98-.605 2.72 0 0-2.972-1.305-3.068 2.18 0 0-.013.283-.544 0-.466-.202-2.519-1.681-3.566 1.204 0 0-1.066-1.29-2.48-.668 0 0-1.231.381-1.271 2.061 0 0-1.424-1.236-2.789-.041 0 0-1.031.863-.271 2.584 0 0-1.656-.863-2.697.479 0 0-1.113 1.266.297 2.893 0 0-2.258-.298-2.576 1.796 0 0-.173 1.791 1.405 2.333 0 0-1.85.864-1.513 2.351 0 0 .107 1.48 2.026 1.767 0 0-1.601 1.065-.94 2.556 0 0 .64 1.745 2.698 1.238 0 0-.771 1.789.42 2.599 0 0 1.129.961 2.517.013 0 0 .729-.267 1.033.256 0 0 .523.841-.585 2.075 0 0 5.982-.513 7.593 9.131h48.891c1.62-9.644 7.676-9.131 7.676-9.131-1.13-1.234-.579-2.075-.579-2.075.273-.522 1.003-.256 1.003-.256 1.398.948 2.553-.013 2.553-.013 1.153-.81.393-2.599.393-2.599 2.082.507 2.744-1.238 2.744-1.238.588-1.49-.984-2.556-.984-2.556 1.917-.287 2.004-1.767 2.004-1.767.333-1.487-1.504-2.351-1.504-2.351m-61.632 27.28c.104 1.139.135 2.184.135 2.184h47.518s.039-.992.135-2.045c.108-1.141.23-2.055.23-2.055H215.91s.152.963.238 1.916m21.238-47.401s-1.527-.03-2.532.467c0 0 3.547.949 5.261 5.056 1.727-4.107 5.254-5.056 5.254-5.056-.941-.498-2.536-.467-2.536-.467-.155-.54-.756-.959-.756-.959.47-.562 1.396-1.175 1.396-1.175L240.115.112l-3.344 7.973s.916.613 1.376 1.175c-.001-.001-.617.419-.761.959" fill="#A6844B"/></svg>