<svg width="172.38" height="36.511" viewBox="0 0 45.608 9.66" xmlns="http://www.w3.org/2000/svg"><path d="M11.656 4.828c-.903 2.49-4.004 4.512-6.925 4.515C1.81 9.345.174 7.329 1.078 4.838 1.98 2.348 5.082.327 8.003.324c2.92-.003 4.557 2.013 3.653 4.504" fill="#1c4e9d"/><path d="M7.33.668l-.173 1.984L8.425.667l-.732 2.06L9.381.948 8.139 2.943l1.99-1.447L8.465 3.29l2.16-1.019L8.647 3.74l2.18-.52-2.153 1.044 2.053.014-2.183.55 1.786.546-2.065.018 1.397 1.04-1.804-.515.912 1.465-1.422-1.014.367 1.79-.942-1.444-.206 1.993-.399-1.775-.762 2.06.172-1.985L4.31 8.991l.731-2.058-1.687 1.776 1.241-1.994-1.99 1.447L4.27 6.37 2.111 7.388 4.088 5.92l-2.18.52 2.154-1.046-2.054-.013 2.184-.55-1.786-.546 2.064-.017-1.397-1.041 1.805.516-.912-1.466 1.421 1.014-.366-1.79.942 1.445L6.17.952l.398 1.775z" fill="#f9e20e"/><path d="M4.718 4.828c-.33.909.141 1.648 1.05 1.648.91-.001 1.918-.742 2.248-1.652.33-.909-.141-1.648-1.05-1.647-.91 0-1.918.742-2.248 1.65m.15 0c.299-.827 1.216-1.5 2.044-1.502.827 0 1.255.672.955 1.5-.3.827-1.217 1.5-2.044 1.501-.827.001-1.256-.671-.956-1.499" fill="#fff"/><path d="M1.874 4.828C2.758 2.388 5.43.397 7.877.33l.12-.002c.341 0 .665.026.97.077a4.856 4.856 0 01.852.223C8.908.115 7.244.012 5.999.26 3.292.795.95 2.776.131 4.83z" fill="#4ba3e0"/><path d="M10.86 4.828c-.884 2.439-3.558 4.43-6.003 4.497l-.12.002c-.341 0-.665-.027-.97-.076a4.818 4.818 0 01-.852-.223c.911.51 2.575.614 3.82.368 2.706-.536 5.048-2.517 5.866-4.57z" fill="#87cf2e"/><path d="M18.513 3.578c0-.187-.09-.328-.27-.426-.161-.088-.374-.132-.639-.131-.126 0-.225.009-.296.026l-.328 1.39c.075.01.15.015.222.015.39 0 .706-.079.949-.235.242-.157.363-.37.362-.64m1.256 3.018a4.552 4.552 0 01-.72.058c-.22 0-.386-.05-.496-.154-.11-.103-.28-.37-.508-.796-.217-.403-.392-.66-.526-.773-.135-.112-.338-.168-.606-.167l-.336 1.44a.669.669 0 00-.02.158.37.37 0 00.108.269H15.4a.511.511 0 00.268-.347l.744-3.22a.62.62 0 00.014-.136.232.232 0 00-.122-.21l1.508-.001c.544-.001.963.078 1.26.235.27.143.404.334.404.573 0 .312-.175.573-.524.784-.296.179-.657.295-1.084.348.225.028.42.132.586.31.108.112.23.296.364.552.22.417.389.69.506.822a.805.805 0 00.445.255m4.951-2.697c-.13.084-.294.29-.49.616l-1.258 2.11h-.464l-.325-1.809-1.163 1.811h-.45l-.239-2.145a2.885 2.885 0 00-.064-.4.361.361 0 00-.118-.178l.996-.001c-.085.046-.127.122-.127.231 0 .056.004.126.013.21l.15 1.384L22.357 3.9h.37l.332 1.814.793-1.326c.117-.196.175-.335.175-.416 0-.035-.014-.06-.04-.073zm2.316.45a.616.616 0 00-.497-.215c-.346 0-.629.191-.849.573a1.965 1.965 0 00-.261.974c0 .382.18.573.54.573a.813.813 0 00.39-.122c.13-.073.24-.16.33-.258zm.883-.454l-.53 2.305a1.131 1.131 0 00-.034.21c0 .105.09.175.269.21a3.91 3.91 0 01-.585.048c-.153 0-.256-.007-.31-.02-.107-.025-.161-.081-.161-.169v-.116c-.281.232-.61.348-.984.349-.338 0-.601-.1-.789-.3-.17-.185-.255-.432-.255-.74 0-.425.176-.828.53-1.211a1.963 1.963 0 011.495-.654c.273 0 .504.068.693.205l.27-.116zm3.736.494c0 .087-.022.228-.066.42l-.322 1.4a.906.906 0 00-.027.2c0 .105.092.175.276.21a5.12 5.12 0 01-.727.048c-.22 0-.33-.065-.33-.194 0-.035.017-.132.054-.29l.308-1.352c.031-.144.047-.248.047-.315 0-.169-.11-.253-.33-.253-.243 0-.519.125-.828.374l-.342 1.526c-.027.12-.04.202-.04.247 0 .081.038.151.115.211l-1.131.001c.143-.088.24-.237.289-.447l.422-1.863a.765.765 0 00.02-.169c0-.136-.043-.218-.129-.246l.97-.001-.067.284c.139-.098.303-.184.491-.258.21-.078.399-.116.565-.116.52 0 .782.193.782.583m2.989-.05c-.108-.144-.272-.215-.491-.215-.342 0-.622.185-.842.553a1.92 1.92 0 00-.275.994c0 .382.18.573.54.573.246 0 .484-.122.713-.363zm1.163-1.758l-.812 3.556a1.214 1.214 0 00-.033.258c0 .102.088.174.263.216a3.924 3.924 0 01-.572.047c-.175 0-.296-.01-.364-.03-.08-.029-.12-.081-.12-.158 0-.032.006-.07.019-.116-.295.232-.621.348-.976.348s-.624-.1-.808-.304c-.17-.182-.256-.428-.256-.736 0-.438.182-.849.55-1.231.404-.421.89-.633 1.46-.633.234 0 .425.047.573.141l.22-.926a1.01 1.01 0 00.034-.2.254.254 0 00-.127-.23zm3.213 2.378l-.405-1.6-1.17 1.606c.143.014.413.023.808.025.17-.004.426-.014.767-.031m1.355 1.65h-1.137c.08-.031.12-.084.12-.157a.797.797 0 00-.027-.168l-.242-.947a11.22 11.22 0 00-.897-.03c-.408 0-.75.01-1.022.032l-.68.927c-.094.13-.14.217-.14.262 0 .032.027.06.08.085h-.835c.112-.066.243-.201.39-.405l2.36-3.231c.058-.081.088-.145.088-.19 0-.042-.032-.072-.095-.09h.936l.885 3.57c.04.172.113.285.216.342m2.373-3.69a.3.3 0 01-.13.247.5.5 0 01-.314.1.499.499 0 01-.313-.1.3.3 0 01-.131-.246c0-.095.043-.177.13-.245a.496.496 0 01.314-.103c.121 0 .225.034.313.102.088.069.131.15.131.245m-.28.957l-.511 2.252a1.648 1.648 0 00-.047.263c0 .098.088.168.263.21a3.679 3.679 0 01-.687.048c-.237 0-.356-.068-.356-.205a1.276 1.276 0 01.04-.231l.435-1.91a.892.892 0 00.027-.194c0-.116-.043-.193-.128-.232zm3.007-.017l-.046.705a.727.727 0 00-.545-.23c-.256 0-.5.117-.734.352l-.355 1.505a1.01 1.01 0 00-.034.19c0 .097.039.171.115.22h-1.124c.148-.076.244-.215.289-.415l.435-1.894a.938.938 0 00.027-.205c0-.102-.04-.172-.121-.21l.942-.001-.08.363c.283-.302.573-.453.875-.454.13 0 .249.025.356.073" fill="#1c4e9d"/></svg>