<svg xmlns="http://www.w3.org/2000/svg" height="34.952" viewBox="0 0 299.999 34.952" width="300"><path d="M64.685 34.706l-9.382-12.037h-3.529v12.037H41.016V3.025h16.008c11.706 0 19.195 3.303 19.195 9.866 0 4.436-4.305 7.194-10.156 8.642L76.39 34.704H64.685v.001zm-8.176-26.16h-4.735v8.826h5.336c5.51 0 8.348-1.496 8.348-4.391.001-2.85-2.493-4.436-8.95-4.436zm46.66 14.209v11.948H92.41V22.846L76.917 3.022h11.879l4.647 6.427c1.98 2.759 3.961 5.884 4.477 7.377.601-1.493 2.582-4.753 4.476-7.377l4.647-6.427h11.705l-15.58 19.732zm40.677 11.951l-2.839-6.607h-13.51l-2.84 6.607H113.64l15.406-31.681h10.5l15.405 31.68h-11.105zm-6.796-15.658c-1.033-2.445-2.41-6.113-2.84-7.694-.431 1.628-1.634 5.022-2.754 7.601l-1.635 3.85h8.865l-1.636-3.757zm47.17 15.658l-11.1-14.12c-1.551-1.992-3.445-4.573-4.562-6.426a199.6 199.6 0 01.17 7.194v13.352h-9.813V3.028h10.846l10.587 13.895c1.463 1.898 3.616 4.843 4.733 6.608-.086-1.948-.343-5.387-.343-7.38V3.028h9.812v31.678h-10.33zm45.063 0l-2.843-6.607h-13.512l-2.84 6.607h-11.016l15.405-31.681h10.502l15.406 31.68h-11.102zm-6.8-15.658c-1.033-2.445-2.409-6.113-2.84-7.694-.432 1.628-1.636 5.022-2.756 7.601l-1.635 3.85h8.867l-1.636-3.757zM244.605 3.02h10.757V34.7h-10.757V3.02zm43.692 31.686l-9.383-12.037h-3.528v12.037h-10.76V3.025h16.01c11.704 0 19.192 3.303 19.192 9.866 0 4.436-4.302 7.194-10.154 8.642L300 34.704h-11.703v.001zm-8.177-26.16h-4.734v8.826h5.335c5.509 0 8.348-1.496 8.348-4.391 0-2.85-2.494-4.436-8.95-4.436z" fill="#2b4779"/><g fill="#f4ca35"><path d="M23.405 1.896c2.23.744 4.588 1.315 6.994 1.588l1.677.017.052-.047c1.003.028 1.745-.413 2.72-.628.105-.025.357-.088.464.055.049.187-.028.389-.239.528-1.194.914-2.619 1.594-3.962 2.083v-.028c-.44.085-.912.275-1.37.425-1.653.501-3.537.816-5.316.688-3.408-.175-6.305-1.393-9.314-1.25-2.955-.172-5.765.957-7.338 3.186-.807 1.166-1.448 2.395-1.649 3.748.09 1.224 1.808 1.694 2.452 2.707.37.612.553 1.287.832 1.922.713 1.28 1.42 2.56 2.298 3.765l-.022.025c.514.806 1.332 1.504 2.3 1.977 1.255.897 2.363 2.022 3.022 3.23l-.034.02c.741 1.182 1.157 2.407 1.731 3.64.258.756.542 1.421.762 2.157.075.069.075.18.12.277.203.582.375 1.203.623 1.743-.107.081.084.112.06.192.014.327.333.817-.093 1.036-.62-.547-.944-1.35-1.28-1.933-.73-1.277-1.569-2.51-2.471-3.724l.027-.025c-.554-.696-1.166-1.48-1.8-2.2-2.67-2.956-6.593-4.73-9.461-7.545l-.028.025c-.244-.22-.401-.51-.6-.76l.02-.027c-.35-.49-.557-1.048-.895-1.549l.02-.024c-.888-1.322-1.742-2.725-2.316-4.116-.12-.615-.33-1.145-.377-1.853l-.067-.232c.037-.645-1.563-1.02-.683-2.256.553-.596 2.692-1.332 3.42-2.451.016-.167.055-.366-.09-.518 0-.12-.123-.245-.21-.37-.405-.503-1.502-.105-1.484-.848.113-.005.006-.104.08-.146-.062-.367-.087-.61.016-.918.222-.61.438-1.31.394-1.925.045-.23.276-.368.509-.458.455-.115.853-.176 1.3-.236l.056.046c1.033-.085 2.273-.011 2.958.8.297.616.065 1.346-.101 1.965-.052.357-.443.648-.352 1.024.136.14.42.13.602.054 1.559-.945 2.92-2.256 4.055-3.58 1.046-.98 2.587-1.319 4.005-1.115 2.87.221 5.298 1.184 7.974 1.837z"/><path d="M16.005 7.076c.404.538-.137 1.013-.298 1.486-1.685 2.53-2.273 5.396-3.391 8.107-.084.093-.25.121-.37.084-.298-.212-.298-.563-.264-.87.225-2.938 1.001-5.695 2.252-8.322.292-.42.791-.897 1.434-.797.243.05.46.135.636.312zm4.44.768c.215.966-.478 1.758-.785 2.622-1.64 3.273-3.607 6.475-4.58 9.974-.045.111-.11.262-.24.31-.139.038-.255-.03-.291-.129-.328-1.39.05-2.837.407-4.16.934-2.936 2.064-5.94 3.644-8.672.183-.14.212-.258.44-.323.55-.058 1.101-.017 1.405.378zm4.742.164c.442.333.214.962.04 1.352-1.921 4.254-5.033 7.923-6.32 12.385-.356.946-.587 1.923-.883 2.876-.052.172-.303.177-.482.135-.17-.405-.12-.918-.12-1.356.405-3.585 1.262-7.068 3.014-10.19a165.39 165.39 0 012.402-4.483c.236-.43.631-.82 1.205-.96.423-.025.83.074 1.144.241zm5.263.219c.308.516.01 1.084-.13 1.577-1.222 3.42-3.507 6.25-5.343 9.364-1.571 2.559-2.6 5.4-3.646 8.179-.363.834-.493 1.761-.932 2.554-.036.086-.149.034-.226.056-.27-.227-.235-.552-.299-.84.208-3.479 1.549-6.621 2.808-9.76 1.576-3.5 3.689-6.843 5.125-10.462.2-.457.595-1.016 1.206-1.187.61-.093 1.073.128 1.437.52z"/></g></svg>