<svg width="228.48" height="31.219" viewBox="0 0 60.453 8.26" xmlns="http://www.w3.org/2000/svg"><path d="M17.705 5.655c.71-.367 1.003-.845 1.003-1.434 0-.82-.606-1.315-1.586-1.315h-1.157c-.893 0-1.396.38-1.396 1.265v3.663c0 .115.019.133.136.133h.613c.12 0 .138-.018.138-.133v-1.34h-.52c-.047 0-.082-.02-.087-.061a.07.07 0 01.06-.083l.544-.071c.557-.083 1.03-.184 1.43-.303l1.04 1.873c.03.058.055.118.122.118h.815c.048 0 .073-.03.073-.071 0-.012 0-.03-.013-.047zm-2.25-1.447c.006-.369.102-.525.546-.525h1.083c.513 0 .738.209.738.563 0 .425-.222.958-2.367 1.304m10.541-.655c-.914-.239-1.062-.395-1.062-.705 0-.3.292-.508.647-.508l1.871-.001a.097.097 0 00.099-.096V3a.097.097 0 00-.099-.095H25.63c-.952 0-1.58.593-1.58 1.327 0 .914.777 1.194 1.804 1.465.917.242 1.27.439 1.27.85 0 .37-.37.642-.812.642h-2.021c-.056 0-.1.044-.1.096v.585c0 .053.046.096.1.096h1.978c.962 0 1.741-.654 1.741-1.459 0-.969-.749-1.28-2.014-1.611M9.042 3.855c0-.567-.39-.955-1.238-.955H5.535a.129.129 0 00-.13.127v.523c0 .07.059.126.13.126h2.31c.137 0 .256.049.256.198 0 .468-3.057 1.538-3.057 3.096 0 .545.355.992 1.297.992h2.57c.072 0 .13-.057.13-.127v-.524a.128.128 0 00-.13-.127H6.276a.29.29 0 01-.266-.287c0-1.054 3.032-1.822 3.032-3.042m-6.268-.95H.719a.097.097 0 00-.099.097v.584c0 .053.044.097.099.097h2.053c.496.001.778.217.817.695h.523c.048 0 .081.02.088.061a.07.07 0 01-.06.083l-.545.071C1.21 4.946.265 5.635.265 6.65c0 .822.607 1.317 1.586 1.317h1.232c.893 0 1.396-.38 1.396-1.265V4.468c0-.938-.575-1.563-1.705-1.563m.82 3.759c-.006.369-.104.525-.547.525H1.888c-.513 0-.737-.209-.737-.564 0-.423.297-.955 2.442-1.303m8.564-2.417h-.842c-1.131 0-1.707.625-1.707 1.563v1.936c0 .938.576 1.563 1.707 1.563h.842c1.13 0 1.706-.625 1.706-1.563V4.468c0-.938-.576-1.563-1.706-1.563m.82 2.417V6.41c0 .482-.266.78-.821.78h-.842c-.554 0-.82-.298-.82-.78V4.463c0-.482.266-.78.82-.78h.842c.555 0 .821.298.821.78m10.589-.248c0-.82-.606-1.315-1.585-1.315h-.923c-1.131 0-1.707.624-1.707 1.562v1.936c0 .938.576 1.563 1.707 1.563h2.053a.098.098 0 00.1-.097V7.28a.098.098 0 00-.1-.096h-2.053c-.495 0-.777-.217-.816-.695 0 0-.006-.082-.006-.176v-.04c2.383-.353 3.33-1.041 3.33-2.057m-3.33.894h.001v-.652c0-.482.266-.78.821-.78h.884c.513 0 .738.209.738.563 0 .425-.298.958-2.444 1.304m15.29-.34l-.222-.669.51-.062" fill="#002754"/><path d="M32.916 4.415l.544-.226 1.846.353.222.67" fill="#4fc6e0"/><path d="M29.806.265l-.48.782 1.397.682" fill="#002754"/><path d="M29.016 2.455l.319-1.401 1.396.682" fill="#4fc6e0"/><path d="M32.916 6.685l1.85-.608.762-.87-2.612-.797" fill="#008abf"/><path d="M31.446 6.685L30.07 7.961h2.16l.684-1.276V4.41" fill="#002754"/><path d="M31.446 6.685l-.22-.796 1.69-1.479m-3.9-1.955l1.715-.72 1.961 1.945h-3.394" fill="#008abf"/><path d="M32.686 3.675H29.29l1.93 2.214 1.69-1.478" fill="#4fc6e0"/><path d="M52.146 7.745V4.85c0-1.456-.91-1.602-1.524-1.602h-.483c-.613 0-1.523.146-1.523 1.602v2.896c0 .108.08.218.207.218h.087c.127 0 .206-.11.206-.218V4.85c0-1.017.467-1.133 1.023-1.133h.483c.556 0 1.023.116 1.023 1.133v2.896c0 .108.08.218.207.218h.087c.128 0 .207-.11.207-.218m-4.57-5.171v-.621a.227.227 0 00-.224-.217h-.053a.227.227 0 00-.224.217v.621c0 .126.107.218.224.218h.053a.22.22 0 00.224-.218m0 5.172V3.51a.227.227 0 00-.224-.218h-.053a.227.227 0 00-.224.218v4.238c0 .116.105.217.224.217h.053c.119 0 .224-.1.224-.217m-5.93-5.173v-.62a.226.226 0 00-.224-.218h-.052a.227.227 0 00-.225.217v.621a.22.22 0 00.225.217h.052a.22.22 0 00.224-.217m0 5.173v-4.24a.226.226 0 00-.224-.217h-.052a.227.227 0 00-.225.217v4.24c0 .115.105.217.225.217h.052c.12 0 .224-.102.224-.217m-1.52-.193V4.852c0-.925-.318-1.602-1.532-1.602-.575 0-.872.034-1.237.076-.135.018-.252.068-.252.209v.05c0 .158.156.193.265.184.405-.042.655-.076 1.224-.076.797 0 1.031.308 1.031 1.16v.244h-.607c-1.583 0-2.199.417-2.198 1.35v.11c0 .955.47 1.409 1.809 1.409.439 0 .902-.068 1.322-.178.138-.034.175-.113.175-.233m-.501-.123a6.24 6.24 0 01-.996.09c-1.1 0-1.3-.324-1.3-.965v-.11c0-.656.38-.899 1.69-.899h.606m6.411 2.197V1.952c0-.107-.08-.217-.208-.217h-.086c-.128 0-.207.11-.207.217v5.793c0 .108.08.218.207.218h.087c.128 0 .207-.11.207-.218m-1.44-4.47a6.363 6.363 0 00-.666-.025c-.785 0-1.246.26-1.246 1.132v3.366a.22.22 0 00.224.217h.07a.219.219 0 00.215-.217V4.382c0-.607.181-.69.737-.69h.658c.135 0 .242-.037.242-.166v-.059c0-.106-.06-.173-.234-.192m11.91 2.25V5.3c-.001-1.21-.543-2.056-1.783-2.056-1.188 0-1.81.886-1.81 2.064v.554c0 1.623.907 2.097 2.009 2.097a7.09 7.09 0 001.31-.143c.15-.03.213-.09.213-.216v-.06c0-.126-.1-.175-.19-.175a.3.3 0 00-.064.01 6.98 6.98 0 01-1.27.142c-.837 0-1.507-.28-1.507-1.655v-.118h2.867a.22.22 0 00.225-.217m-1.783-1.84c.926 0 1.28.566 1.282 1.606h-2.59c.003-.976.4-1.606 1.308-1.606m5.463 3.078c0 .809-.545 1.236-1.577 1.236-.406 0-.978-.061-1.295-.121-.119-.024-.228-.063-.228-.176V7.61c0-.1.068-.16.182-.16h.053c.393.063.932.138 1.306.138.762 0 1.088-.246 1.088-.823 0-.333-.181-.51-.921-.903l-.568-.302c-.641-.34-1.096-.629-1.096-1.256 0-.698.51-1.098 1.4-1.098.604 0 .931.038 1.22.072l.053.006c.194.026.223.127.223.184v.07c0 .113-.068.176-.191.176h-.036l-.098-.011c-.265-.031-.708-.084-1.136-.084-.579 0-.964.116-.964.684 0 .347.271.554.84.862l.596.318c.672.361 1.149.665 1.149 1.282" fill="#008abf"/></svg>