<svg viewBox="0 0 370.21 203.39" xmlns="http://www.w3.org/2000/svg"><defs><linearGradient id="c" x1="431.29" x2="478.33" y1="363.68" y2="402.75" gradientUnits="userSpaceOnUse"><stop stop-color="#820008" offset="0"/><stop stop-color="#c70d12" offset=".346"/><stop stop-color="#e26a48" offset=".451"/><stop stop-color="#eb9b7b" offset=".575"/><stop stop-color="#e26b49" offset=".746"/><stop stop-color="#cc221b" offset=".839"/><stop stop-color="#940109" offset="1"/></linearGradient><linearGradient id="d" x1="472.01" x2="597.83" y1="252.56" y2="370.98" gradientUnits="userSpaceOnUse"><stop stop-color="#0b1838" offset="0"/><stop stop-color="#032f70" offset=".208"/><stop stop-color="#585e97" offset=".355"/><stop stop-color="#8182b2" offset=".451"/><stop stop-color="#585e98" offset=".512"/><stop stop-color="#032f70" offset=".618"/><stop stop-color="#061c41" offset="1"/></linearGradient><linearGradient id="e" x1="471.3" x2="556.86" y1="254.34" y2="330.42" gradientUnits="userSpaceOnUse"><stop stop-color="#084c11" offset="0"/><stop stop-color="#027516" offset=".391"/><stop stop-color="#64a378" offset=".6"/><stop stop-color="#88b797" offset=".674"/><stop stop-color="#64a279" offset=".753"/><stop stop-color="#138437" offset=".849"/><stop stop-color="#084c11" offset="1"/></linearGradient><linearGradient id="f" x1="1072.3" x2="1079.6" y1="223.42" y2="205.94" gradientTransform="translate(-4794.3 -740.12) scale(4.8878)" gradientUnits="userSpaceOnUse"><stop stop-color="#90600c" offset="0"/><stop stop-color="#c6891c" offset=".076"/><stop stop-color="#f2c876" offset=".263"/><stop stop-color="#fbf1d6" offset=".496"/><stop stop-color="#fbf1d6" offset=".692"/><stop stop-color="#f2c876" offset=".845"/><stop stop-color="#c6891c" offset=".947"/><stop stop-color="#90600c" offset="1"/></linearGradient><linearGradient id="g" x1="1073.5" x2="1074.4" y1="231.42" y2="227.43" gradientTransform="translate(-4794.3 -740.12) scale(4.8878)" gradientUnits="userSpaceOnUse"><stop stop-color="#fde2a0" offset="0"/><stop stop-color="#cc770d" offset="1"/></linearGradient><linearGradient id="h" x1="1079.8" x2="1083.2" y1="212.77" y2="215.27" gradientTransform="translate(-4794.3 -740.12) scale(4.8878)" gradientUnits="userSpaceOnUse"><stop stop-color="#000002" offset="0"/><stop stop-color="#5a5a5a" offset="1"/></linearGradient><clipPath id="a"><path d="M-338.21 607.05h88.164l231.59 208.43h-241.16l-78.59-208.43" fill="red"/></clipPath><filter id="b" color-interpolation-filters="sRGB"><feGaussianBlur stdDeviation="6.604"/></filter></defs><path d="M119.998 110.943c-2.1 5.256-3.347 8.115-5.448 13.365-1.048 2.626-1.71 4.131-2.76 6.755-1.121 2.807-1.63 4.719-3.995 6.61h.581c-.057.048-.086.098-.145.145h5.956c-.41-.508-.58-.947-.58-1.598 0-1.2.426-1.868.87-2.978l.8-1.96c.142-.373.218-.614.436-.945h7.844c.162.267.226.477.364.799.302.703.517 1.107.799 1.816.427 1.08.793 1.682.944 2.833.029.168.072.267.072.435 0 .605-.226.924-.508 1.453h.508c-.026.05-.044.093-.072.146h7.482c-2.43-1.779-2.723-3.815-3.996-6.538-1.211-2.6-1.766-4.123-2.905-6.755-1.456-3.362-2.249-5.28-3.705-8.644-.816-1.886-1.345-2.882-2.106-4.794-.067.166-.08.274-.145.436-.088-.213-.197-.344-.29-.581zM8.357 112.468c-.468 0-.7.067-1.162.145-.747.122-1.18.25-1.889.509-2.56.932-4.239 2.591-4.503 5.302-.03.238-.073.413-.073.654 0 3.463 2.496 5.352 5.593 6.9 2.02 1.006 3.263 1.427 5.085 2.761 1.075.787 1.743 1.647 1.743 2.978 0 2.432-2.22 4.14-4.649 4.14H7.34c-.685 0-1.17-.105-1.743-.29-.083-.028-.14-.044-.218-.073-.057-.018-.085-.052-.145-.072-.28-.093-.49-.255-.727-.363-1.022-.556-1.752-1.317-2.615-2.397l-.072.217c-.105-.127-.254-.225-.364-.363L.004 136.44c.798.425 1.496.72 2.179.944.045.016.1.056.145.072.466.146.93.232 1.525.364.16.037.262.107.436.145.96.212 1.485.322 2.47.363 1.182.047 1.877.125 3.05 0 2.174-.23 3.51-.413 5.303-1.67 1.857-1.3 2.592-2.758 2.833-5.013.038-.351.03-.587 0-.944-.279-3.469-2.487-5.349-5.593-6.9-2.016-1.012-3.28-1.37-5.157-2.616-1.067-.711-1.744-1.481-1.744-2.76 0-.16-.029-.279 0-.436.184-1.47 1.084-2.333 2.47-2.833.616-.217 1.017-.363 1.67-.363h1.163c.492 0 .857.046 1.235.146.248.086.505.163.799.29.877.38 1.365.633 1.961 1.38.395.494.477.883.872 1.38l.145-.363c.091.159.149.33.29.509l1.453-3.56c-.07-.125-.168-.142-.29-.217-.259-.16-.462-.285-.727-.436-.138-.078-.24-.083-.363-.146-.215-.121-.397-.203-.581-.29-.131-.052-.295-.098-.436-.145-.177-.07-.383-.154-.58-.218-.028-.007-.048.007-.073 0-.128-.04-.217-.102-.364-.145-.694-.207-1.098-.265-1.816-.364-.467-.06-.76-.145-1.234-.145H8.357zm247.405.508c-.27.985-.648 1.476-1.09 2.397-.688 1.43-1.025 2.188-1.67 3.632-1.067 2.38-1.767 3.716-2.833 6.102-1.014 2.269-1.674 3.541-2.688 5.81-1.17 2.621-1.932 4.089-3.777 6.32h.581c-.045.055-.099.089-.145.145h6.174c-.555-.389-.726-.938-.726-1.598 0-1.092.354-1.682.799-2.687.474-1.06.73-1.639 1.235-2.688h7.917c.478.9.7 1.505 1.162 2.47.483 1 .8 1.58.8 2.687 0 .703-.326 1.142-.8 1.671h.581c-.048.056-.093.087-.145.145h7.772c-1.112-.86-1.551-1.563-2.251-2.76-.706-1.209-.991-1.938-1.598-3.196-1.148-2.391-1.764-3.748-2.979-6.101-.947-1.837-1.481-2.906-2.324-4.794-.686-1.543-1.2-2.38-1.889-3.923-.348-.784-.592-1.177-.944-1.961-.267-.607-.378-.956-.726-1.525-.046.169-.093.292-.146.435-.088-.183-.156-.362-.29-.58zm-225.976 3.995c-.61 0-1.002.082-1.598.218-.714.169-1.063.308-1.743.581-1.528.608-2.391 1.122-3.414 2.397-1.066 1.337-1.575 2.275-2.034 3.923-.27.979-.436 1.598-.436 2.615v1.888c0 .7.14 1.064.291 1.744.186.845.238 1.38.581 2.179 1.25 2.882 3.001 4.463 6.029 5.302.16.052.268.172.436.218.892.247 1.4.363 2.324.363h1.961c.924 0 1.439-.098 2.325-.363 3.164-.947 5.052-2.708 6.174-5.81.279-.777.372-1.224.509-2.035.093-.566.145-.88.145-1.452v-1.889c0-1.325-.236-2.08-.654-3.341-.9-2.705-2.435-4.443-4.794-5.448-.224-.109-.487-.197-.726-.29-.141-.048-.29-.103-.436-.146-.254-.086-.529-.147-.8-.218-.17-.038-.292-.113-.435-.145-.668-.151-1.06-.29-1.743-.29h-1.962zm176.798 0c-.22.84-.506 1.25-.872 2.034-.566 1.22-.92 1.892-1.452 3.124-.88 2.034-1.372 3.205-2.252 5.23-.84 1.94-1.412 3.001-2.252 4.939-.967 2.234-1.6 3.47-3.123 5.375h.58c-.044.058-.098.087-.144.145h5.084c-.459-.334-.581-.74-.581-1.307 0-.933.285-1.464.654-2.324.392-.904.598-1.43 1.017-2.325h6.464c.386.754.564 1.29.944 2.107.396.854.727 1.383.727 2.324 0 .599-.262.93-.654 1.38h.509c-.045.053-.097.09-.146.145h6.465c-.046-.036-.03-.109-.073-.145-.82-.688-1.266-1.286-1.816-2.252-.584-1.034-.804-1.612-1.307-2.687-.95-2.037-1.467-3.225-2.47-5.23a68.858 68.858 0 01-1.888-4.068c-.567-1.313-1.029-1.955-1.598-3.268-.288-.672-.509-1.078-.8-1.744-.22-.517-.29-.822-.58-1.307-.05.184-.161.284-.218.436-.08-.176-.092-.371-.218-.581zm10.895 20.702h.582c-.05.056-.087.088-.146.146h5.158c-.462-.46-.669-.834-.872-1.453-.14-.421-.218-.645-.218-1.09v-11.622l10.896 14.02h.217l.146.145h2.978c0-6.529-.03-10.175 0-16.707 0-1.133.287-1.96 1.09-2.76h-.582c.046-.049.096-.096.146-.145h-5.085c.439.439.607.787.799 1.38.157.47.29.74.29 1.235v10.46l-10.314-12.93h-.218l-.145-.145h-4.722c.834.83 1.087 1.656 1.09 2.832.014 5.486.032 8.607 0 14.092 0 .419-.099.613-.218 1.017-.192.645-.398 1.055-.872 1.525zm113.098-20.193c-.218.8-.514 1.215-.872 1.962a85.89 85.89 0 00-1.38 2.978c-.865 1.935-1.386 3.001-2.251 4.939-.826 1.845-1.354 2.874-2.18 4.721-.953 2.127-1.551 3.342-3.05 5.158h.508c-.044.055-.099.09-.145.145h5.012c-.45-.317-.581-.773-.581-1.307 0-.89.363-1.366.726-2.18.384-.863.535-1.324.944-2.179h6.392c.375.713.502 1.186.872 1.961.392.814.726 1.357.726 2.252 0 .57-.267.878-.653 1.308h.508c-.037.042-.033.1-.072.145h6.247c-.904-.697-1.247-1.276-1.816-2.252-.573-.979-.814-1.592-1.308-2.615-.933-1.94-1.412-3.03-2.397-4.939a68.427 68.427 0 01-1.888-3.922c-.558-1.253-.968-1.869-1.526-3.124-.285-.636-.514-.956-.799-1.598-.218-.49-.296-.848-.581-1.307a4.13 4.13 0 01-.145.435c-.082-.174-.162-.372-.29-.58zm-141.862.29c-.692 0-1.067.14-1.744.291-.912.204-1.464.282-2.324.654-2.144.927-3.33 1.953-4.576 3.923-.546.865-.744 1.409-1.017 2.397-.195.706-.363 1.086-.363 1.816v2.033c0 .558.095.837.218 1.38.194.878.369 1.427.726 2.252.505 1.174.927 1.77 1.889 2.615.932.82 1.475 1.395 2.614 1.889.557.24 1.003.362 1.453.508.592.219 1.192.432 1.961.581.64.125 1.02.218 1.671.218h2.47c.49 0 .75-.14 1.235-.218.738-.122 1.18-.197 1.888-.435.221-.073.288-.1.727-.291.153-.224.133-.465.217-.726.218-.651.29-1.046.581-1.671-.219.087-.384.138-.58.218.043-.117.083-.23.145-.363-1.476.584-2.336 1.09-3.923 1.09h-1.525a6.24 6.24 0 01-1.38-.146c-.021-.007-.053.007-.073 0-.298-.069-.618-.25-.944-.363-.156-.058-.289-.083-.436-.146-.443-.162-.79-.374-1.162-.58-1.415-.907-2.32-2.22-2.833-4.068-.21-.756-.363-1.174-.363-1.962v-1.598c0-.883.206-1.345.508-2.179 1.084-2.955 3.321-4.69 6.465-4.794.543-.019.84-.026 1.38 0 .412.019.815.077 1.162.145.174.051.344.078.509.146.023.007.05-.007.072 0 .594.253 1.144.636 1.743 1.162.384.337.483.619.8 1.017l.072-.29c.105.148.22.255.363.435l1.09-3.414a3.47 3.47 0 01-.436-.145c-.43-.112-.678-.284-1.017-.436-.143-.052-.235-.103-.363-.145-.942-.343-1.555-.419-2.543-.581-.668-.11-.996-.218-1.67-.218h-2.688zm-146.071.437c.444.444.63.773.799 1.38.13.47.217.75.217 1.235.041 3.887.035 6.139.073 10.024.012 1.075.096 1.667.436 2.687.36 1.078.656 1.674 1.38 2.542.412.489.758.69 1.307 1.017.503.297.814.497 1.38.654.125.046.209.103.364.145.304.088.599.157.871.218.535.147 1.063.29 1.744.29h2.324c1.153 0 1.833-.229 2.905-.653.991-.395 1.587-.767 2.252-1.598.921-1.148 1.281-1.955 1.525-3.414.1-.599.218-.994.218-1.598.04-3.96-.038-6.136 0-10.097.012-1.112.305-1.903 1.09-2.687h-.581c.048-.052.093-.093.145-.145h-5.23c.52.52.712.956.872 1.67.075.355.145.584.145.945v10.169c0 .764-.07 1.223-.29 1.96-.23.777-.37 1.183-.872 1.817-.442.552-.849.793-1.526 1.017-.485.162-.796.29-1.307.29h-1.09c-.285 0-.504-.027-.726-.072-.02-.007-.052.007-.073 0-.11-.026-.247-.109-.363-.146-.688-.247-1.086-.511-1.525-1.09-.462-.61-.613-1.065-.8-1.815-.141-.578-.29-.854-.29-1.453-.043-4.08 0-6.38 0-10.46 0-1.11.36-1.79 1.017-2.687h-.508c.035-.05.035-.095.072-.145h-5.956zm20.048 0l.871 3.268c.078-.13.203-.196.29-.29l.073.436c.331-.552.773-.744 1.38-.945.57-.191.927-.29 1.526-.29h2.76v14.455c0 1.17-.262 2.005-1.09 2.833h.581c-.046.05-.094.094-.145.145h6.029c-.47-.378-.607-.738-.8-1.308-.176-.537-.29-.883-.29-1.452-.032-5.715 0-8.96 0-14.673 1.343 0 2.072.047 3.414.073.426.004.76-.027 1.09.072.205.094.36.205.581.363.227.166.29.401.508.582l.073-.291c.12.123.203.303.363.436l.8-3.269h-.436v-.145H62.69zm19.03 0c.544.543.71.996.872 1.743.087.404.218.68.218 1.09v13.873c0 1.171-.259 1.932-1.09 2.76h.581c-.05.055-.09.09-.145.146h5.956c-.784-.785-1.09-1.5-1.09-2.615-.031-2.424 0-3.818 0-6.247h8.935v6.101c0 .508-.128.822-.29 1.307-.192.576-.34.907-.8 1.308h.582c-.052.052-.085.092-.146.145h5.957c-.45-.45-.671-.773-.872-1.38a3.655 3.655 0 01-.218-1.307v-14.092c0-.47.084-.712.218-1.162.19-.637.401-.982.872-1.453h-.581c.058-.066.075-.149.145-.218H94.87c.476.48.688.869.871 1.526.113.424.218.726.218 1.162v5.52h-8.934c-.002-2.028-.028-3.278 0-5.375.009-1.101.31-1.836 1.09-2.615h-.582c.055-.061.084-.156.145-.218h-5.956zm52.009 0c.56.56.793 1.04.944 1.816.067.348.146.59.146.944v14.092c0 .479-.067.775-.218 1.234-.2.605-.424.933-.872 1.38h.581c-.048.053-.09.09-.145.146h5.956c-.802-.8-1.09-1.558-1.09-2.688-.028-2.464 0-3.861 0-6.32 2.101 0 3.275-.022 5.376 0 .282.003.56.033.799.073.087.027.207.04.29.073.128.033.243.097.364.145.286.16.577.386.871.654v-.145c.123.094.237.175.363.29v-4.285a2.247 2.247 0 00-.363.29v-.436c-.258.169-.383.355-.654.509-.767.436-1.298.58-2.179.58h-4.866v-5.738c2.29 0 3.594-.023 5.883 0 .295.003.544.031.8.073.092.028.2.037.29.073.023.004.05-.007.072 0 .429.184.791.443 1.163.871l.072-.218c.133.117.235.215.363.364l.944-3.56h-.508l.073-.217H133.73zm17.142 0c.457.456.669.836.872 1.452.142.425.218.715.218 1.163v14.309c0 .412-.099.619-.218 1.017-.192.654-.39 1.04-.872 1.525h.509c-.04.043-.03.102-.073.145h5.957c-.457-.459-.625-.828-.8-1.452-.139-.517-.29-.773-.29-1.308v-14.672c1.11 0 1.723-.021 2.833 0 .221.005.443.03.654.072 1.27.426 2.251 1.507 2.251 2.906v1.017c0 .694-.24 1.072-.58 1.67-.399.71-.756 1.038-1.453 1.453-.782.468-1.267.758-2.18.8.21.45.378.603.654 1.016.512.77.849 1.203 1.38 1.961 1.136 1.624 1.697 2.589 2.833 4.213.89 1.27 1.284 2.13 2.47 3.124.744.624 1.2 1.02 2.106 1.38a9 9 0 001.017.363c.464.165.863.29 1.453.29h1.525l1.598-.145c-.34-.302-.642-.392-1.017-.654-.877-.613-1.35-.988-2.106-1.743-1.125-1.124-1.65-1.86-2.615-3.123-1.85-2.415-2.746-3.868-4.649-6.247.706-.378 1.171-.477 1.816-.945.654-.467.912-.9 1.308-1.598.47-.833.613-1.37.653-2.324.007-.415.03-.674 0-1.09-.11-1.86-1.347-3.166-2.978-3.85-.156-.079-.343-.151-.508-.217-.148-.048-.284-.108-.436-.145a6.588 6.588 0 00-1.961-.29c-3.655-.036-5.715-.065-9.37-.073zm19.685 0c.558.56.77 1.043.944 1.816.073.337.146.523.146.871v14.092c0 .476-.082.782-.218 1.235-.189.639-.404.982-.872 1.453h.581c-.05.055-.087.087-.145.145h5.956c-.482-.485-.653-.88-.871-1.526-.137-.415-.218-.65-.218-1.09v-14.236c0-.43.096-.68.218-1.09.195-.65.395-1.045.871-1.525h-.508c.038-.042.03-.102.072-.145h-5.956zm191.183 0c-.363 0-.511.09-.871.145-.579.09-.974.168-1.526.363-1.984.703-3.21 1.958-3.414 3.995-.031.177-.072.326-.072.509 0 2.6 1.955 3.995 4.358 5.157.121.062.239.085.363.145 1.343.628 2.27 1.046 3.56 1.961.833.593 1.307 1.18 1.307 2.18 0 1.827-1.674 3.123-3.56 3.123h-.944c-.498 0-.829-.023-1.235-.145-.14-.046-.237-.095-.363-.146-.185-.06-.347-.15-.508-.217-.794-.419-1.29-1.001-1.961-1.816l-.073.218c-.12-.138-.235-.209-.363-.364l-1.162 2.978c.642.334 1.192.485 1.743.654.047.017.098.057.145.073.336.097.664.2 1.09.29.154.036.262.11.436.146.743.162 1.124.255 1.888.29.918.035 1.488.096 2.397 0 1.685-.174 2.752-.363 4.14-1.307 1.442-.974 1.99-2.08 2.18-3.778a2.461 2.461 0 000-.653c-.215-2.607-1.95-4.06-4.359-5.23-.161-.079-.285-.076-.435-.145-.62-.301-1.098-.505-1.598-.727a15.112 15.112 0 01-1.962-1.09c-.825-.531-1.307-1.147-1.307-2.106 0-.119-.03-.171 0-.29.142-1.105.813-1.802 1.888-2.18a3.564 3.564 0 011.308-.217h.872c.382 0 .724-.003 1.016.072.156.057.256.142.436.218.683.285 1.136.456 1.598 1.017.305.372.346.717.654 1.09l.145-.364c.088.152.149.337.29.509l1.09-2.76c-.058-.093-.125-.093-.218-.146-.2-.125-.302-.177-.508-.29-.572-.311-.9-.398-1.525-.581-.143-.047-.263-.095-.436-.146a9.07 9.07 0 00-1.453-.29c-.363-.05-.578-.145-.944-.145h-2.107zm-82.008.363c.45.433.595.796.799 1.38.136.404.217.662.217 1.09v13.656c0 .395-.101.566-.217.944-.192.624-.326.99-.8 1.453h.509c-.048.051-.09.09-.145.145h5.883c-.45-.439-.63-.79-.799-1.38-.14-.494-.217-.724-.217-1.235v-13.947c1.092 0 1.667-.018 2.76 0 .331.007.64.055.944.145 1.072.478 1.889 1.478 1.889 2.688v.872c0 .662-.247 1.098-.582 1.67-.392.674-.697.985-1.38 1.38-.77.448-1.28.689-2.179.727.207.433.38.622.654 1.017.503.735.784 1.162 1.307 1.888 1.116 1.546 1.715 2.447 2.833 3.995.875 1.215 1.23 1.959 2.397 2.906.732.596 1.215.962 2.107 1.307.146.057.234.098.363.146.08.03.143.044.218.072.123.042.242.114.363.145.456.157.87.291 1.453.291h1.525l1.598-.145c-.334-.288-.645-.332-1.017-.581-.863-.584-1.293-.95-2.034-1.671-1.11-1.072-1.664-1.772-2.615-2.978-1.818-2.301-2.705-3.684-4.576-5.956.692-.358 1.107-.428 1.744-.872.642-.448.918-.854 1.307-1.526.462-.79.689-1.342.726-2.251.007-.393-.043-.62-.072-1.017-.108-1.76-1.318-3.049-2.906-3.705a6.754 6.754 0 00-.508-.218c-.145-.045-.286-.11-.436-.145a6.426 6.426 0 00-1.888-.29c-3.595-.035-5.631.002-9.226 0zm-10.606.145c.552.532.776.936.944 1.67.073.32.146.541.146.872v13.438c0 .46-.084.654-.218 1.09-.186.607-.407 1.005-.872 1.453h.581a3.71 3.71 0 01-.145.145h5.884c-.477-.46-.66-.837-.872-1.453-.134-.392-.218-.604-.218-1.017V121.33c0-.41.1-.628.218-1.017.192-.619.401-.997.872-1.453h-.581c.05-.054.087-.09.145-.145h-5.884zm33.123.073l-3.85.072c.828 1.729 1.546 4.135 1.67 4.649l3.705 13.729h.363l.073.145h2.252l3.559-10.242 3.414 10.096h.363l.073.145h2.251l4.286-15.398c.351-1.29.511-1.642 1.09-2.906h-.509c.027-.06.043-.08.073-.145l-3.705-.073.073.872c0 .924-.404 2.394-.654 3.341l-2.252 8.136-4.213-12.204h-.145l-.146.364-.145-.509h-.145l-4.358 12.348-2.034-7.627c-.25-.924-.8-2.78-.8-3.632 0-.316.123-.845.146-1.017h-.436c.005-.035-.002-.12 0-.145zm40.387.145l-4.286.072c.828.608 1.2 1.076 2.106 2.688l4.213 7.264v5.158c0 1.923-.232 2.44-.508 3.123h.508c-.018.047-.053.097-.072.145h3.85c-.5-.947-.509-2.01-.509-2.179v-6.32l4.504-7.7c.174-.266.75-1.158 1.452-2.033h-.508c.035-.045.037-.1.073-.145l-3.85-.073c.05.878-.14 1.52-.945 2.833l-2.397 4.213-2.397-4.14c-.479-.828-.897-1.688-.799-2.76h-.435c.002-.048-.005-.097 0-.146zm-311.98.436h1.018c.212 0 .346.035.508.072.044.012.098-.014.146 0 .125.033.28.103.435.146.574.22.982.49 1.526.944.947.793 1.354 1.461 1.816 2.615.313.79.372 1.267.508 2.106.076.454.218.776.218 1.235v2.325c0 .703-.14 1.057-.29 1.743-.672 3.022-2.717 5.52-5.812 5.52a5.205 5.205 0 01-1.67-.29c-1.842-.805-3.048-2.672-3.56-4.867-.2-.869-.363-1.363-.363-2.252v-1.743c0-.988.102-1.587.363-2.542.381-1.375.756-2.18 1.671-3.27.619-.74 1.125-1.048 2.034-1.38.552-.2.866-.362 1.453-.362zm88.834 1.38l2.978 7.046h-5.739l2.76-7.046zm135.977.799l2.76 6.029h-5.375l2.615-6.03zm-49.03 2.76l2.179 5.157h-4.286l2.107-5.157zm123.994.29l2.179 4.795h-4.286l2.107-4.794z" fill="#002c6d" fill-rule="evenodd"/><path d="M.897 152.678h368.29" stroke="#000" stroke-miterlimit="3.864" stroke-width=".738"/><path d="M98.182-.003h41.927L250.24 99.119H135.555L98.182-.003" fill="#fff"/><path transform="translate(259.025 -288.686) scale(.47555)" d="M-370.64 597.38l78.75 224.57 52.635.807-83.632-225.19-47.753-.188zm89.166-2.42l238.71 226.99h54.938l-240.68-226.8-52.969-.187z" clip-path="url(#a)" fill="#8a8a8a" filter="url(#b)"/><path d="M432.87 359.13l97.018-1.901-55.775 50.08h-58.976l17.733-48.178" fill="url(#c)" transform="matrix(.59444 0 0 -.59444 -142.22 245.755)"/><path d="M645.74 252.71l-57.75 52.119-115.97-52.265 173.72.147" fill="url(#d)" transform="matrix(.59444 0 0 -.59444 -142.22 245.755)"/><path d="M538.98 348.94l39.322-35.388-107.14-59.206-37.279 102.89 105.09-8.295" fill="url(#e)" transform="matrix(.59444 0 0 -.59444 -142.22 245.755)"/><path d="M433.88 357.23l66.293-45.54-29.014-57.349 75.463 70.712-112.74 32.176" fill="url(#f)" transform="matrix(.59444 0 0 -.59444 -142.22 245.755)"/><path d="M442.07 389.34c3.773 6.804 12.787 9.018 20.138 4.947 7.351-4.077 10.255-12.9 6.481-19.703-3.773-6.81-12.79-9.023-20.143-4.942-7.351 4.072-10.25 12.894-6.476 19.698" fill="url(#g)" transform="matrix(.59444 0 0 -.59444 -142.22 245.755)"/><path d="M433.88 357.23l66.293-45.54-29.014-57.349-37.279 102.89" fill="url(#h)" transform="matrix(.59444 0 0 -.59444 -142.22 245.755)"/><path d="M.469 152.535h368.29" stroke="#000" stroke-miterlimit="3.864" stroke-width=".738"/><path d="M29.753 179.403c-2.605 0-5.305 1.077-5.305 4.384 0 2.441 1.705 3.437 4.919 4.012 2.47.442 4.92.734 4.92 3.047 0 2.402-2.097 3.002-4.117 3.002-2.584 0-4.453-.768-4.696-3.953h-1.397c.21 4.085 2.68 5.394 6.092 5.394 2.626 0 5.603-1.016 5.603-4.726 0-2.903-2.423-3.528-4.875-3.997-3.303-.61-4.963-1.093-4.963-3.062 0-1.717 1.653-2.675 3.819-2.675 2.177 0 4.051.71 4.235 3.3h1.397c-.085-3.608-2.874-4.726-5.632-4.726zm155.21 0c-5.161 0-6.97 4.506-6.97 7.965 0 4.86 2.688 7.92 6.97 7.92 3.768 0 6.224-2.751 6.524-6.152h-1.367c-.456 2.892-2.03 4.711-5.157 4.711-4 0-5.513-3.106-5.513-6.48 0-4.41 2.25-6.538 5.513-6.538 2.371 0 4.607 1.165 5.023 4.057h1.367c-.406-3.995-3.519-5.484-6.39-5.484zm-177.974.386l-5.811 15.114h1.456l1.724-4.578h6.747l1.68 4.578h1.53l-5.81-15.114H6.988zm32.441 0v1.427h5.514v13.687H46.4v-13.687h5.514v-1.427H39.43zm19.914 0l-6.063 15.114h1.515l1.813-4.578h7.03l1.768 4.578h1.605l-6.063-15.114h-1.605zm11.339 0v15.114h1.352v-6.673h5.26c2.248 0 3.108.898 3.151 3.567 0 1.247.038 2.191.164 2.72.042.175.122.305.178.386h1.427c-.078-.086-.14-.24-.194-.476-.163-.71-.23-1.965-.252-2.675-.03-.62-.041-1.137-.12-1.62-.037-.241-.104-.461-.163-.668-.117-.416-.28-.76-.505-1.04a2.231 2.231 0 00-.401-.387 2.681 2.681 0 00-1.115-.476v-.044c1.671-.435 2.556-2.014 2.556-3.626 0-3.19-2.043-4.102-4.25-4.102h-7.088zm27.225 0l-5.81 15.114h1.426l1.768-4.578h6.732l1.71 4.578h1.515l-5.81-15.114h-1.531zm11.755 0v15.114h9.823v-1.427h-8.47v-13.687h-1.353zm13.762 0v15.114h9.823v-1.427h-8.441v-13.687h-1.382zm14.31 0v15.114h1.413v-15.114h-1.412zm11.459 0l-6.064 15.114h1.516l1.798-4.578h7.044l1.754 4.578h1.605l-6.019-15.114h-1.634zm11.68 0v15.114h1.367v-12.87h.03l9.2 12.87h1.56v-15.114h-1.353v12.914l-9.154-12.914h-1.65zm35.607 0v15.114h10.61v-1.427h-9.243v-5.677h8.738v-1.426h-8.738v-5.157h9.08v-1.427H196.48zm22.871 0v15.114h1.293V181.84h.03l5.41 13.063h1.158l5.44-13.063h.044v13.063h1.234v-15.114h-1.784l-5.468 13.152-5.484-13.152h-1.873zm20.33 0v15.114h10.61v-1.427h-9.243v-5.677h8.753v-1.426h-8.753v-5.157h9.08v-1.427H239.68zm15.93 0v15.114h1.279V181.84l5.44 13.063h1.158l5.44-13.063h.044v13.063h1.249v-15.114h-1.799l-5.468 13.152-5.484-13.152h-1.858zm21.059 0v15.114h7.222c.249 0 .49-.007.743-.045 1.774-.264 3.522-1.48 3.522-4.25 0-.242-.037-.488-.044-.714-.032-.225-.052-.462-.12-.668-.058-.207-.146-.38-.237-.565-.453-.924-1.266-1.578-2.333-1.769v-.044c1.546-.427 2.2-1.772 2.2-3.24 0-2.148-1.014-3.82-3.567-3.82h-7.386zm16.718 0v15.114h10.224v-1.427h-8.946v-5.677h8.47v-1.426h-8.47v-5.157h8.798v-1.427h-10.076zm15.574 0v15.114h1.382v-6.673h5.29c2.278 0 3.177.898 3.21 3.567.03 1.247.078 2.191.209 2.72.043.175.118.305.178.386h1.457c-.077-.086-.154-.24-.209-.476-.163-.71-.217-1.965-.252-2.675-.03-.62-.043-1.137-.119-1.62-.038-.241-.121-.461-.178-.668-.117-.416-.263-.76-.49-1.04a2.2 2.2 0 00-.417-.387 2.703 2.703 0 00-1.13-.476v-.044c1.706-.435 2.542-2.014 2.542-3.626 0-3.19-2.01-4.102-4.25-4.102h-7.223zm-236.928 1.427h5.84c1.243 0 2.66.433 2.66 2.675 0 2.316-1.308 2.957-2.794 2.957h-5.706v-5.632zm205.941 0h5.84c1.479 0 2.497.586 2.497 2.437 0 2.03-1.183 2.72-3.002 2.72h-5.335v-5.157zm32.367 0h5.915c1.267 0 2.72.433 2.72 2.675 0 2.316-1.342 2.957-2.839 2.957h-5.796v-5.632zm-302.583.148l2.81 7.535H4.876l2.883-7.535zm52.387 0l2.898 7.535H57.16l2.987-7.535zm38.534 0l2.78 7.535h-5.648l2.868-7.535zm51.303 0l2.957 7.535h-5.944l2.987-7.535zm127.999 6.435h6.003c1.57 0 2.735.621 2.735 2.809 0 2.085-1.313 2.868-3.061 2.868h-5.678v-5.677z"/><path d="M354.07 180.872c-.03-.03 2.779-5.785-2.913-13.237l-3.291 4.354-4.834 4.524 5.068 2.62 4.19 1.098 1.145.703s.594-.094.635-.062" fill="#89898a"/><path d="M342.669 176.42s6.09 4.702 11.506 4.418l-4.16-5.935-7.346 1.517" fill="#3f3f3f"/><path d="M351.312 167.539s-7.147 4.772-8.564 8.868l7.308-1.51 1.256-7.358" fill="#d5d5d4"/><path d="M370.161 182.388c-.029-.009-2.333-5.979-11.667-6.898l.943 5.379v6.62l5.372-1.918 3.66-2.313 1.294-.36s.337-.5.387-.51" fill="#89898a"/><path d="M359.135 187.688s7.595-1.244 11.082-5.402l-7.18-1.01-3.902 6.412" fill="#3f3f3f"/><path d="M358.534 175.314s-1.388 8.476.644 12.31l3.88-6.378-4.524-5.932" fill="#d5d5d4"/><path d="M361.934 203.373c0-.03 4.744-4.319 2.258-13.36l-4.685 2.805-6.175 2.383 3.719 4.33 3.47 2.586.798 1.077s.589.138.615.179" fill="#89898a"/><path d="M353.036 194.979s3.882 6.643 9.012 8.412l-1.631-7.065-7.381-1.347" fill="#3f3f3f"/><path d="M364.372 189.984s-8.412 1.745-11.26 5.012l7.34 1.335 3.92-6.347" fill="#d5d5d4"/><path d="M352.726 200.003c-.029-.015-.26-6.412-8.783-10.318l-.86 5.39-2.144 6.264 5.704-.068 4.213-.992 1.34.079s.484-.363.53-.355" fill="#89898a"/><path d="M340.576 201.426s7.583 1.294 12.236-1.5l-6.462-3.29-5.774 4.79" fill="#3f3f3f"/><path d="M344.036 189.53s-4.073 7.563-3.4 11.848l5.742-4.766-2.342-7.083m2.414-7.123c-.03.009-4.867-4.181-13.54-.612l3.356 4.307 3.118 5.838 3.844-4.216 2.143-3.763.975-.925s.065-.597.103-.63" fill="#d5d5d4"/><path d="M339.203 192.265s6.12-4.665 7.247-9.973l-6.814 2.483-.433 7.49" fill="#3f3f3f"/><path d="M332.86 181.621s2.756 8.137 6.345 10.57l.434-7.451-6.779-3.119" fill="#8e9192"/></svg>