<svg width="92.279" height="31.203" viewBox="0 0 24.415 8.256" xmlns="http://www.w3.org/2000/svg"><path d="M20.143 1.328l1.476 1.476-.878 3.092-1.12-1.099-.665-2.66z" fill="#008fc5"/><path d="M22.618 5.128h1.665l-1.332 1.22-2.21-.459z" fill="#008fc5"/><path d="M22.951 6.348l-1.998.547-2.33 1.229 2.118-2.236z" fill="#003568"/><path d="M19.622 7.078l-1.998.388 1 .666z" fill="#62cae3"/><path d="M22.618 5.128h1.665l-.844-.333zm1.373.27l.292.291V5.13z" fill="#003568"/><path d="M22.618 5.128l-.998-2.33-.879 3.091z" fill="#62cae3"/><path d="M18.955 2.138l.333-1.665L17.956.14z" fill="#003568"/><path d="M20.143 1.328L19.29.473l-.333 1.665z" fill="#62cae3"/><path d="M.132 4.178c0-.768.718-1.39 1.605-1.39h2.078a.1.1 0 01.1.1v.613a.1.1 0 01-.1.1H1.688c-.362 0-.657.22-.657.534 0 .325.15.487 1.078.738 1.285.348 2.045.674 2.045 1.689 0 .844-.791 1.53-1.767 1.53H.377a.1.1 0 01-.101-.101v-.613a.1.1 0 01.1-.1h2.055c.447 0 .823-.286.823-.672 0-.433-.358-.639-1.29-.893C.922 5.43.132 5.137.132 4.178m13.534 3.1h1.178c.45-.001.549-.165.555-.552V5.32c-2.18.364-2.482.922-2.482 1.366 0 .372.228.592.75.592m1.727-2.947c-.04-.501-.326-.727-.83-.73H12.48a.1.1 0 01-.101-.1v-.613a.1.1 0 01.1-.1h2.087c1.149 0 1.734.654 1.734 1.637v2.341c0 .927-.511 1.325-1.419 1.325H13.63c-.996 0-1.611-.518-1.611-1.378 0-1.064.961-1.787 3.382-2.156l.553-.075a.074.074 0 00.061-.087c-.006-.042-.04-.064-.089-.064zM6.191 7.278H7.37c.45-.001.549-.165.555-.552V5.32c-2.18.364-2.482.922-2.482 1.366 0 .372.228.592.75.592M7.918 4.33c-.04-.501-.326-.727-.829-.73H5.004a.1.1 0 01-.1-.1v-.613a.1.1 0 01.1-.1H7.09c1.149 0 1.734.654 1.734 1.637v2.341c0 .927-.511 1.325-1.419 1.325H6.154c-.996 0-1.611-.518-1.611-1.378 0-1.064.962-1.787 3.382-2.156l.553-.075a.074.074 0 00.061-.087c-.006-.042-.04-.064-.088-.064zm3.688-1.544a.1.1 0 01.1.1V3.5a.1.1 0 01-.1.101H10.41v3.136c.007.385.103.54.56.54h.57c.087 0 .167.066.167.162v.489c0 .095-.08.163-.166.163h-.612c-.91-.004-1.419-.396-1.419-1.323v-5.05c0-.094.079-.162.166-.162h.382c.105 0 .154.09.165.144l.15.865-.517.07a.074.074 0 00-.061.087c.006.042.04.064.088.064z" fill="#003568"/></svg>