<svg overflow="visible" viewBox="0 0 326.15 116.59" xmlns="http://www.w3.org/2000/svg"><switch><g><g clip-rule="evenodd" fill-rule="evenodd"><path d="M326.151 0H0v116.59l326.151.001V0z" fill="#B2DB1F"/><path d="M100.38 58.305c0 21.25-17.208 38.457-38.458 38.457S23.446 79.556 23.446 58.305c0-21.249 17.227-38.477 38.476-38.477s38.458 17.229 38.458 38.477z" fill="#FA002C"/><path d="M63.542 37.624h-4.153c-6.056 0-9.994.336-12.835 1.395-4.783 1.865-8.081 5.929-8.081 11.053 0 4.278 1.984 7.369 7.743 10.926 6.147 3.726 7.372 4.958 7.372 7.198 0 2.455-2.41 5.251-8.6 5.251-2.161 0-5.419-.298-7.496-.805-.715-.213-1.141.085-1.392.805-.556 1.486-.975 2.583-1.355 3.854-.258 1.019-.087 1.359.546 1.653 1.865.591 6.311 1.061 9.489 1.061 10.584 0 16.9-6.396 16.9-13.089 0-4.112-1.863-7.239-8.179-11.178-3.173-1.948-4.785-3.217-5.759-4.19-.8-1.019-.888-1.783-.888-2.585 0-.764.168-1.65.676-2.289.548-.805 1.614-1.525 2.968-1.945 1.397-.464 3.979-.637 8.004-.637h2.452c1.144 0 1.524-.337 1.865-1.183.385-.851 1.183-2.968 1.522-3.899.47-1.105-.168-1.396-.799-1.396zm23.445 0H70.489c-.896 0-1.355.291-1.783 1.226-.172.635-1.224 3.217-1.435 4.025-.26.633 0 1.226.625 1.226h3.899c4.195 0 5.64-.087 6.694-.087-1.524 3.477-9.276 20.625-9.527 21.265-.339.756-.089 1.223.55 1.223h4.612c1.06 0 1.527-.208 1.955-1.223 1.226-2.802 10.394-23.298 11.62-26.347.342-.679.173-1.308-.712-1.308z" fill="#fff"/><path d="M141.12 75.518h-4.832c-.411 0-.775-.364-.866-.775l-2.099-8.663h-10.487l-2.096 8.663c-.091.411-.456.775-.866.775h-4.833c-.456 0-.821-.318-.821-.775 0-.046.046-.137.046-.228l7.478-28.589c1.093-4.24 4.377-4.65 6.338-4.65 1.96 0 5.242.41 6.337 4.65l7.479 28.589c0 .091.045.182.045.228-.001.456-.366.775-.823.775zM128.811 47.34c-.137-.549-.275-.73-.73-.73-.456 0-.594.181-.729.73l-3.283 13.54h8.024l-3.282-13.54zm22.849 28.178h-4.515a.914.914 0 01-.911-.912v-32.1c0-.501.411-.866.911-.866h4.515c.501 0 .912.365.912.866v32.1a.915.915 0 01-.912.912zm32.39 0h-5.544c-.503 0-.685-.454-.912-.912l-6.567-12.175h-.636c-1.188 0-3.011-.136-4.06-.181v12.355c0 .503-.365.912-.866.912h-4.56a.914.914 0 01-.913-.912v-31.37c0-.911.548-1.23 1.459-1.367 2.372-.365 5.609-.593 8.939-.593 7.021 0 13.111 2.508 13.111 10.306v.41c0 4.833-2.397 7.843-6.138 9.302l7.142 13.313a.62.62 0 01.09.367c.001.317-.18.545-.545.545zm-6.822-23.937c0-3.42-2.28-4.88-6.838-4.88-.959 0-3.239.091-4.06.183v10.258c.729.045 3.284.138 4.06.138 4.693 0 6.838-1.277 6.838-5.29v-.409zm30.252 23.663c-1.368.317-5.335.639-7.751.639-5.929 0-10.534-1.595-10.534-9.346V42.551c0-.501.411-.912.913-.912h4.513c.503 0 .913.41.913.912v23.986c0 3.005.911 3.921 3.557 3.921h8.39c.502 0 .912.408.912.911v2.919c-.001.636-.23.82-.913.956zm10.08.274h-4.516a.913.913 0 01-.911-.912v-32.1c0-.501.41-.866.911-.866h4.516c.502 0 .912.365.912.866v32.1c0 .502-.41.912-.912.912zm32.14 0h-4.605c-1.095 0-2.054 0-2.783-1.642L232.189 51.67c-.137-.273-.274-.364-.411-.364-.136 0-.227.091-.227.364v22.935c0 .503-.366.912-.868.912h-3.876a.914.914 0 01-.911-.912V43.464a1.83 1.83 0 011.824-1.825h4.924c.958 0 1.46.274 2.007 1.459l10.624 23.438c.091.227.229.362.365.362.091 0 .228-.136.228-.409V42.506c0-.501.364-.866.867-.866h3.921c.501 0 .866.365.866.866v31.188a1.83 1.83 0 01-1.822 1.824zm27.86-.274c-1.457.228-3.236.639-8.662.639-5.929 0-10.532-1.595-10.532-9.346V50.622c0-7.751 4.604-9.347 10.532-9.347 5.426 0 7.205.41 8.662.639.686.091.913.318.913.957v2.918a.916.916 0 01-.913.912h-9.301c-2.646 0-3.603.913-3.603 3.921v4.925h12.356c.502 0 .912.411.912.911v3.284c0 .5-.41.911-.912.911h-12.356v5.884c0 3.005.957 3.921 3.603 3.921h9.301c.502 0 .913.408.913.911v2.919c0 .636-.228.865-.913.956zm15.57.639c-3.42 0-5.881-.321-8.071-.819-.454-.091-.866-.413-.866-.915v-3.282c0-.5.412-.865.866-.865h.093c1.824.227 6.383.457 8.071.457 4.057 0 5.287-1.46 5.287-4.106 0-1.777-.866-2.688-3.874-4.466l-6.021-3.604c-4.241-2.506-5.38-5.152-5.38-8.344 0-5.015 2.919-8.663 11.4-8.663 3.008 0 7.204.458 8.753.82.456.092.821.411.821.867v3.375c0 .456-.321.821-.774.821h-.092c-3.01-.273-6.018-.456-8.983-.456-3.373 0-4.786 1.185-4.786 3.237 0 1.505.774 2.417 3.738 4.059l5.473 3.055c5.015 2.781 6.337 5.696 6.337 9.3 0 4.604-2.873 9.529-11.992 9.529z" fill="#FA002C"/><path d="M141.12 75.518h-4.832c-.411 0-.775-.364-.866-.775l-2.099-8.663h-10.487l-2.096 8.663c-.091.411-.456.775-.866.775h-4.833c-.456 0-.821-.318-.821-.775 0-.046.046-.137.046-.228l7.478-28.589c1.093-4.24 4.377-4.65 6.338-4.65 1.96 0 5.242.41 6.337 4.65l7.479 28.589c0 .091.045.182.045.228-.001.456-.366.775-.823.775zM128.811 47.34c-.137-.549-.275-.73-.73-.73-.456 0-.594.181-.729.73l-3.283 13.54h8.024l-3.282-13.54zm22.849 28.178h-4.515a.914.914 0 01-.911-.912v-32.1c0-.501.411-.866.911-.866h4.515c.501 0 .912.365.912.866v32.1a.915.915 0 01-.912.912zm32.39 0h-5.544c-.503 0-.685-.454-.912-.912l-6.567-12.175h-.636c-1.188 0-3.011-.136-4.06-.181v12.355c0 .503-.365.912-.866.912h-4.56a.914.914 0 01-.913-.912v-31.37c0-.911.548-1.23 1.459-1.367 2.372-.365 5.609-.593 8.939-.593 7.021 0 13.111 2.508 13.111 10.306v.41c0 4.833-2.397 7.843-6.138 9.302l7.142 13.313a.62.62 0 01.09.367c.001.317-.18.545-.545.545zm-6.822-23.937c0-3.42-2.28-4.88-6.838-4.88-.959 0-3.239.091-4.06.183v10.258c.729.045 3.284.138 4.06.138 4.693 0 6.838-1.277 6.838-5.29v-.409zm30.252 23.663c-1.368.317-5.335.639-7.751.639-5.929 0-10.534-1.595-10.534-9.346V42.551c0-.501.411-.912.913-.912h4.513c.503 0 .913.41.913.912v23.986c0 3.005.911 3.921 3.557 3.921h8.39c.502 0 .912.408.912.911v2.919c-.001.636-.23.82-.913.956zm10.08.274h-4.516a.913.913 0 01-.911-.912v-32.1c0-.501.41-.866.911-.866h4.516c.502 0 .912.365.912.866v32.1c0 .502-.41.912-.912.912zm32.14 0h-4.605c-1.095 0-2.054 0-2.783-1.642L232.189 51.67c-.137-.273-.274-.364-.411-.364-.136 0-.227.091-.227.364v22.935c0 .503-.366.912-.868.912h-3.876a.914.914 0 01-.911-.912V43.464a1.83 1.83 0 011.824-1.825h4.924c.958 0 1.46.274 2.007 1.459l10.624 23.438c.091.227.229.362.365.362.091 0 .228-.136.228-.409V42.506c0-.501.364-.866.867-.866h3.921c.501 0 .866.365.866.866v31.188a1.83 1.83 0 01-1.822 1.824zm27.86-.274c-1.457.228-3.236.639-8.662.639-5.929 0-10.532-1.595-10.532-9.346V50.622c0-7.751 4.604-9.347 10.532-9.347 5.426 0 7.205.41 8.662.639.686.091.913.318.913.957v2.918a.916.916 0 01-.913.912h-9.301c-2.646 0-3.603.913-3.603 3.921v4.925h12.356c.502 0 .912.411.912.911v3.284c0 .5-.41.911-.912.911h-12.356v5.884c0 3.005.957 3.921 3.603 3.921h9.301c.502 0 .913.408.913.911v2.919c0 .636-.228.865-.913.956zm15.57.639c-3.42 0-5.881-.321-8.071-.819-.454-.091-.866-.413-.866-.915v-3.282c0-.5.412-.865.866-.865h.093c1.824.227 6.383.457 8.071.457 4.057 0 5.287-1.46 5.287-4.106 0-1.777-.866-2.688-3.874-4.466l-6.021-3.604c-4.241-2.506-5.38-5.152-5.38-8.344 0-5.015 2.919-8.663 11.4-8.663 3.008 0 7.204.458 8.753.82.456.092.821.411.821.867v3.375c0 .456-.321.821-.774.821h-.092c-3.01-.273-6.018-.456-8.983-.456-3.373 0-4.786 1.185-4.786 3.237 0 1.505.774 2.417 3.738 4.059l5.473 3.055c5.015 2.781 6.337 5.696 6.337 9.3 0 4.604-2.873 9.529-11.992 9.529z" fill="#FA002C"/></g></g></switch></svg>