<svg xmlns="http://www.w3.org/2000/svg" width="250" height="32"><style>.shp0{fill:#f68235}.shp1{fill:#034484}</style><path fill-rule="evenodd" class="shp0" d="M14.32 0c.07 0 .09.9.11 4.17.02 4.11.02 4.17.15 4.2.08.01.4 0 1.31-.07l-.05-.43c-.03-.23-.08-.67-.12-.97-.04-.3-.12-.81-.17-1.13-.06-.32-.16-.93-.22-1.34-.05-.42-.13-.98-.17-1.25-.03-.28-.08-.53-.1-.57a.248.248 0 010-.17c.03-.08.15-.11.53-.1.28 0 .83.04 1.22.09.4.06.96.17 1.24.25.28.08.64.16.8.18.17.01.3.06.3.09 0 .04.05.07.12.07.06 0 .15.03.19.06.03.03.17.1.3.15.14.05.57.24.96.43.4.19.74.37.76.39.02.02.11.08.21.13.13.07.26.08.61.02.25-.04.68-.11.96-.14.29-.04.82-.11 1.18-.16.37-.05.69-.07.71-.04.02.03 0 .12-.05.21-.05.08-.12.19-.17.24-.04.05-.11.08-.15.08-.04 0-.08.04-.08.07 0 .04-.27.35-.6.68-.33.34-.77.81-.99 1.05-.22.24-.4.44-.4.45 0 .01-.32.35-.72.76-.4.41-.87.91-1.05 1.12-.17.2-.38.43-.45.49-.13.11-.14.19-.12.96.02.49.06.88.11.93.06.07.1.05.19-.1.07-.1.16-.25.21-.32.05-.07.15-.21.24-.31.08-.1.39-.5.68-.9.29-.4.55-.74.57-.75.02-.02.12-.15.21-.28.1-.13.23-.29.28-.34.05-.06.23-.31.4-.55.17-.25.38-.53.46-.62.09-.09.21-.24.28-.33.08-.1.16-.14.22-.12.06.03.26.23.45.46.19.22.37.44.41.49.04.05.15.2.24.34.1.14.2.26.23.26.02 0 .05.03.05.07 0 .03.12.26.27.49.16.24.32.52.36.62.05.11.11.19.14.19.03 0 .05.06.05.14 0 .07.03.14.07.14.04 0 .07.05.07.12 0 .06.06.22.13.36.07.13.19.41.27.62.08.2.15.41.15.46 0 .05.03.08.07.08.03 0 .06.07.07.16 0 .08.07.36.15.61.11.33.23.52.43.7.15.14.29.25.31.25.02 0 .13.09.25.19s.44.36.71.57c.27.2.57.44.67.53.1.08.22.15.27.15.05 0 .1.06.11.12.02.12-.27.13-4.92.18-2.73.03-5.16.06-5.41.05-.26 0-.48.03-.5.07-.02.03.05.12.15.18.1.07.36.28.56.47.2.19.45.46.73.88l.45-.05c.24-.02.64-.07.89-.11.24-.03.71-.1 1.03-.14.32-.04.8-.1 1.06-.14.26-.03.71-.08.99-.11.27-.03.51-.08.53-.11.01-.03.27-.05.57-.05.31 0 .55-.02.55-.05 0-.03.25-.06 1.1-.09v.24c0 .13-.03.45-.06.71-.04.25-.1.77-.15 1.15-.04.37-.13.85-.18 1.06-.06.21-.13.49-.16.62s-.08.33-.12.45c-.04.11-.15.42-.25.68-.11.27-.31.75-.74 1.65l.14 1c.07.54.17 1.25.21 1.58.04.32.07.73.07.9.01.3-.01.33-.13.3-.08-.02-.14-.08-.14-.12 0-.05-.1-.18-.22-.3s-1.2-1.21-2.39-2.42c-1.19-1.22-2.18-2.26-2.21-2.32-.03-.05-.09-.1-.14-.09-.04 0-.12-.08-.17-.18-.05-.09-.13-.19-.19-.2-.05-.02-.15 0-.21.05-.06.04-.1.14-.1.2 0 .07-.02.12-.05.12-.03 0-.1.11-.17.24-.07.14-.17.26-.22.28-.06.02-.1.09-.1.15 0 .07.08.19.17.28.09.08.19.15.22.15s.17.11.32.25c.16.14.39.33.52.43.13.1.26.21.28.25.03.04.18.16.35.27.16.12.34.25.4.31.06.05.21.17.34.27.13.1.29.23.35.3.05.06.13.11.17.11.03 0 .26.18.5.4.32.29.42.43.38.5a.64.64 0 01-.18.19c-.06.05-.12.12-.12.16 0 .03-.05.12-.12.18-.06.07-.13.12-.15.11-.02-.01-.16.1-.32.24-.15.14-.41.36-.58.49-.17.13-.31.27-.32.3-.01.02-.06.05-.11.05-.04 0-.14.05-.22.12-.07.06-.22.17-.33.22-.1.06-.19.13-.19.16.01.03-.02.05-.06.05-.04 0-.2.08-.36.19-.16.1-.46.27-.67.37-.21.1-.49.23-.62.29-.13.06-.44.17-.69.25-.24.07-.51.14-.59.15-.09.01-.2.09-.24.18-.05.09-.21.29-.35.45-.14.15-.26.32-.26.37 0 .04-.02.08-.05.08-.03 0-.1.09-.16.19-.06.11-.23.31-.36.47-.14.15-.25.31-.25.36 0 .04-.02.08-.05.08-.03 0-.1.08-.16.19-.05.1-.14.22-.2.27-.06.04-.14.06-.19.05-.07-.02-.09-.84-.09-3.77 0-2.94-.01-3.75-.08-3.77-.05-.01-.33.01-.64.03-.3.03-.6.06-.67.06-.09.01-.11.04-.07.16.02.09.06.36.1.6.03.25.09.68.13.96.04.29.09.66.11.83.02.17.08.6.14.96.06.36.12.91.19 1.79l-.34-.01c-.19 0-.67-.04-1.06-.07-.4-.03-.92-.1-1.17-.14-.24-.04-.66-.13-.92-.21-.27-.08-.76-.23-1.1-.34-.34-.12-.82-.3-1.07-.42-.24-.12-.59-.31-.77-.41a1.16 1.16 0 00-.65-.19c-.18 0-.5.03-.7.07-.21.03-.66.1-1 .14-.34.04-.76.1-.93.13-.17.03-.34.04-.39.03-.05-.02-.09-.06-.09-.1 0-.03.41-.48.91-.99.5-.5 1.52-1.53 2.27-2.28.74-.75 1.35-1.4 1.35-1.45 0-.05-.09-.08-.25-.08-.15 0-.3-.04-.35-.09-.05-.05-.08-.26-.08-.55 0-.26-.03-.46-.07-.46-.04 0-.14.11-.22.26-.09.14-.27.41-.41.6-.15.18-.26.38-.26.43 0 .04-.03.09-.06.1-.03.01-.16.15-.29.32-.13.17-.25.33-.27.35-.03.02-.18.23-.35.48-.17.24-.35.49-.4.55-.05.05-.14.19-.2.29-.06.1-.14.19-.17.19-.02 0-.03.03-.01.07.02.04-.04.06-.14.05-.09-.01-.16-.03-.15-.04.01-.01-.1-.13-.23-.27-.13-.15-.35-.39-.48-.54-.13-.15-.32-.38-.41-.51-.09-.13-.21-.28-.26-.32-.04-.05-.08-.12-.08-.16 0-.04-.04-.11-.09-.15-.05-.05-.18-.24-.3-.43-.11-.19-.28-.49-.37-.67-.09-.18-.19-.33-.22-.33s-.05-.05-.05-.12c0-.06-.03-.15-.06-.19-.03-.03-.16-.31-.27-.61-.12-.31-.22-.59-.22-.64 0-.05-.03-.09-.07-.09-.04 0-.07-.07-.07-.15 0-.09-.04-.26-.08-.4-.04-.13-.1-.29-.13-.36-.04-.06-.06-.21-.06-.32 0-.12-.03-.21-.06-.21-.02 0-.14-.08-.26-.19-.12-.1-.41-.32-.64-.49-.24-.17-.52-.4-.63-.5-.11-.11-.22-.19-.25-.19s-.22-.15-.43-.34c-.21-.18-.36-.35-.34-.37.02-.02.59-.05 1.27-.08.68-.02 2.89-.05 4.9-.07 2.02-.02 3.68-.05 3.69-.07.01-.02 0-.07-.03-.13-.03-.05-.14-.2-.26-.34-.11-.14-.27-.37-.35-.51-.08-.14-.18-.25-.22-.24-.05.01-.08 0-.07-.03v-.14c-.01-.06-.12-.07-.44-.05-.23.02-.65.07-.93.11-.27.03-.72.09-.99.13-.27.03-.75.09-1.05.13-.3.04-.78.1-1.06.14-.28.04-.76.1-1.06.14-.31.03-.68.08-.83.11-.2.03-.28.02-.32-.05-.02-.05 0-.54.05-1.09s.16-1.29.23-1.65c.08-.35.2-.86.27-1.13.08-.26.22-.68.32-.93.1-.24.24-.56.32-.7.07-.14.13-.3.13-.36s.03-.1.07-.1c.03 0 .06-.07.06-.14 0-.08.03-.14.06-.14.02 0 .12-.15.21-.33.15-.29.16-.37.11-.84-.02-.28-.07-.79-.11-1.13-.03-.34-.08-.9-.1-1.25-.03-.59-.02-.63.09-.58.07.04.24.2.39.36.15.17.69.75 1.21 1.3S6.8 7.97 7.08 8.27c.28.3.79.83 1.14 1.18.35.36.63.67.63.7 0 .02.13.18.28.34.15.16.31.29.36.29.04 0 .28-.21.51-.46.24-.26.43-.5.43-.53.01-.04-.15-.21-.35-.38-.19-.17-.42-.36-.5-.41-.08-.05-.19-.15-.25-.22-.05-.07-.12-.12-.15-.12a5.62 5.62 0 01-.52-.39c-.25-.21-.52-.43-.6-.49-.07-.06-.32-.27-.55-.46-.22-.19-.42-.37-.42-.4-.01-.03-.07-.05-.12-.05-.06 0-.12-.03-.12-.06-.01-.02-.17-.17-.35-.32-.18-.15-.33-.31-.33-.36 0-.05.22-.3.49-.57.26-.26.5-.48.53-.48.03 0 .13-.06.22-.14.1-.07.33-.25.52-.39.18-.14.42-.3.53-.36.1-.06.53-.28.96-.5.42-.22.81-.4.86-.4.04.01.09-.02.1-.05.01-.02.22-.12.46-.2.25-.08.5-.15.55-.15.06 0 .27-.07.48-.16.21-.08.47-.24.58-.36.1-.11.24-.29.3-.4.07-.1.14-.19.17-.19.03.01.05-.03.05-.06 0-.04.13-.24.29-.44.16-.2.37-.46.45-.57.09-.11.24-.31.35-.45.1-.14.22-.26.26-.26zm-3.11 6.11c.05.21.13.56.18.79.05.23.15.66.22.96.07.3.12.61.12.69 0 .07.05.18.1.22.06.05.19.07.28.05.1-.01.17-.06.17-.1 0-.04.1-.07.23-.07.12 0 .27-.04.34-.09.06-.04.11-.11.11-.14-.01-.03-.16-.3-.35-.58-.19-.29-.38-.53-.41-.54-.03-.01-.05-.06-.05-.11 0-.04-.06-.14-.12-.22-.07-.08-.2-.28-.3-.46-.09-.18-.19-.33-.22-.33s-.04-.03-.04-.08c.01-.04-.06-.16-.16-.28-.09-.11-.18-.17-.18-.14-.01.03.03.22.08.43zm7.39.52c0 .02-.1.13-.21.25-.11.13-.2.27-.2.31 0 .05-.03.1-.06.11-.02.01-.12.12-.22.25-.09.14-.26.37-.37.53-.11.16-.19.31-.19.34.01.03.16.1.34.15.18.05.41.12.51.15.14.05.22.05.29-.02.05-.04.13-.28.17-.53.05-.24.11-.55.15-.69.03-.13.12-.49.2-.8.07-.31.14-.61.14-.67 0-.06-.03-.1-.06-.1s-.15.15-.27.34c-.12.19-.22.36-.22.38zm5.01 4.97c-.14.04-.41.1-.62.14-.21.04-.52.11-.69.15-.17.04-.37.1-.44.13-.08.03-.26.07-.41.1-.16.02-.39.05-.52.08-.13.02-.28.07-.33.1-.06.04-.08.29-.08.82 0 .41.01.75.03.75.02 0 .18-.09.35-.2.17-.12.34-.21.37-.21.04 0 .07-.03.07-.07 0-.04.03-.07.07-.07.04 0 .26-.12.5-.27.23-.15.47-.3.51-.34a.37.37 0 01.19-.07c.06 0 .14-.06.19-.12.05-.07.13-.14.19-.15.06-.01.23-.11.39-.22s.31-.2.33-.2c.02 0 .13-.07.26-.16.12-.08.23-.17.24-.2.01-.03.08-.05.15-.05.08 0 .15-.03.17-.07.02-.04-.02-.07-.08-.06-.07 0-.23.03-.36.07-.13.04-.35.09-.48.12zm-17.67.07c.09.08.2.14.24.14.03 0 .06.02.06.05 0 .03.09.1.21.16.12.05.21.12.21.15s.06.07.13.09c.08.02.18.07.23.12.05.04.19.15.31.24.12.08.26.15.3.15.05 0 .13.06.18.14.04.08.12.14.17.14.04 0 .21.1.36.24.15.13.3.24.32.24.03 0 .06-.03.06-.05 0-.03.02-.15.03-.26.01-.11.05-.42.08-.67l.06-.47c-.38 0-.62-.04-.79-.1-.17-.06-.47-.14-.65-.18-.19-.04-.47-.1-.62-.14-.15-.03-.42-.09-.59-.11-.16-.03-.34-.05-.39-.03-.05.01-.02.07.09.15zm2.52 6.05c-.05 0-.1.04-.12.08-.02.05-.16.15-.31.23-.15.07-.28.16-.28.18 0 .03-.03.06-.06.06-.04 0-.27.13-.5.28-.24.16-.44.32-.45.35-.01.03-.05.05-.08.05-.04 0-.27.13-.52.29-.3.2-.42.31-.36.35.05.02.18.02.29-.02.12-.03.36-.09.55-.13.19-.04.69-.15 1.1-.25.42-.1.82-.2.89-.21.08-.01.22-.02.33-.02.18-.01.19-.02.19-.38 0-.21-.03-.4-.07-.42-.04-.02-.06-.16-.06-.32.01-.16.05-.32.09-.35.04-.02-.01-.05-.11-.05s-.23.06-.31.14c-.07.08-.16.14-.21.14zm12.79.05c.03.18.05.4.05.5 0 .09-.02.28-.05.41-.05.23-.05.24.17.28.13.03.37.09.54.13.17.04.46.11.65.15.19.03.48.09.65.12.17.03.53.11.79.17.27.06.51.11.53.11.03 0 .06-.03.06-.07 0-.04-.05-.07-.11-.07-.05 0-.29-.13-.53-.28-.23-.16-.44-.32-.44-.35-.01-.03-.05-.05-.09-.05-.04 0-.25-.13-.48-.28-.23-.15-.44-.27-.48-.27-.04 0-.07-.03-.07-.06 0-.02-.09-.09-.21-.15-.11-.06-.21-.13-.2-.15 0-.03-.06-.06-.14-.06-.07 0-.14-.02-.14-.05 0-.03-.13-.13-.28-.21l-.26-.15.04.33zm-3.06 4.89c-.08 0-.26.07-.4.15-.14.08-.27.16-.29.17-.02.01.16.31.41.66.24.35.46.64.49.65.03.01.06.06.06.1 0 .05.05.15.12.23.07.07.17.22.22.33.06.1.14.18.17.16.04-.01.06-.13.05-.26a.735.735 0 00-.08-.3c-.03-.04-.07-.18-.09-.31-.02-.13-.07-.39-.11-.58-.03-.19-.09-.49-.11-.66-.03-.17-.1-.34-.15-.39-.05-.05-.1-.09-.12-.09-.02 0-.04.03-.04.07 0 .04-.06.07-.13.07zm-6.62.58c-.03.16-.06.39-.08.52-.02.13-.07.44-.13.69-.05.24-.08.51-.07.6.02.08.06.14.1.12.04-.02.07-.1.07-.17 0-.08.02-.15.05-.16.03-.01.12-.12.21-.24.08-.12.15-.27.15-.33 0-.05.03-.1.05-.1.03 0 .13-.11.22-.26.08-.14.15-.28.15-.3 0-.03.06-.12.13-.19.08-.08.15-.17.15-.2.01-.03-.16-.13-.37-.21-.22-.08-.4-.14-.41-.14-.01 0-.05.02-.1.05-.04.03-.09.17-.12.32z"/><path class="shp1" d="M135.06 6.14l-.01 2.79h-2.67v1.99h2.67l.04 13.15c.29.85.4 1.03.64 1.27.23.22.45.35.76.46.25.08.64.18.86.22.23.04.85.08 1.37.07.53 0 1.23-.03 1.55-.07.32-.03.67-.08.77-.1l.19-.03v-1.92c-.98.08-1.64.1-2.09.09-.74 0-.86-.02-1.17-.18-.2-.1-.39-.26-.46-.39-.12-.2-.12-.63-.12-6.39v-6.18h3.77V8.93h-3.77l-.04-5.53-2.29-.04v2.78z"/><path class="shp0" d="M184.67 4.94v1.38h1.89l.01-2.75h-1.9v1.37zm14.56 9.74l.02 11.11 1.89.03.03-22.25h-1.95l.01 11.11zm5.34-9.74v1.38h1.92l-.03-2.71-1.89-.04v1.37z"/><path fill-rule="evenodd" class="shp1" d="M38.6 8.62c.48.02.99.09 1.41.2.36.09.87.26 1.13.38.26.12.67.33.89.46.23.14.63.42.89.63.26.22.62.58 1.14 1.25l-.47.43c-.25.24-.6.56-1.08 1l-.65-.67c-.36-.37-.84-.79-1.06-.94-.23-.15-.65-.36-.93-.47-.42-.16-.65-.2-1.3-.23-.62-.03-.91-.01-1.31.08-.28.07-.6.17-.7.22-.1.05-.33.23-.51.39-.17.16-.39.44-.49.63-.13.26-.18.49-.21.93-.03.53-.01.62.15.98.14.29.28.46.55.66.19.15.54.36.77.48.22.11.78.33 1.23.48.46.15 1.32.43 1.92.63.61.19 1.41.5 1.79.67.38.18.84.43 1.03.56.19.13.48.36.64.51.16.16.41.44.56.63.14.19.31.46.39.61.08.16.19.48.25.73.07.24.14.7.16 1.03a5.487 5.487 0 01-.35 2.19c-.1.25-.32.63-.48.86-.16.23-.45.55-.64.72-.19.17-.51.41-.71.53-.21.13-.57.31-.82.41-.24.1-.68.24-.96.31-.34.1-.83.15-1.47.18-.72.02-1.14 0-1.65-.08-.38-.07-.96-.21-1.3-.33-.34-.11-.9-.35-1.24-.52-.34-.18-.79-.45-.99-.61-.21-.16-.6-.5-.86-.76-.27-.25-.55-.57-.79-.91l1.82-1.38.1.16c.06.09.21.29.34.46.13.16.46.48.72.7.27.22.72.53 1 .67.28.15.76.34 1.06.42.43.12.75.15 1.48.15.83.01.98-.01 1.47-.18.3-.11.68-.28.83-.38.15-.11.4-.33.55-.49.15-.17.34-.47.42-.68.08-.21.17-.55.19-.76.04-.26.02-.51-.06-.8-.06-.24-.19-.56-.28-.71-.09-.15-.36-.42-.6-.59-.24-.17-.57-.39-.74-.47-.17-.09-.79-.32-1.37-.5l-2.09-.67c-.6-.19-1.38-.5-1.86-.74-.69-.35-.9-.5-1.34-.94-.32-.32-.59-.66-.7-.9-.1-.2-.23-.57-.3-.82-.07-.28-.11-.69-.11-1.1 0-.36.05-.88.11-1.17.06-.28.2-.7.31-.92.1-.23.33-.6.49-.82.17-.22.49-.54.72-.71.23-.17.63-.41.89-.54.27-.12.68-.27.93-.34.24-.06.65-.14.89-.17.25-.03.79-.04 1.2-.03zm28.69-.03c.22 0 .62.03.89.06.26.04.71.15.99.24.29.09.7.29.93.43.23.15.58.46.79.68.21.23.48.62.6.86s.29.68.53 1.53l.04 13.36-.19.04c-.11.02-.62.03-2.08 0v-6.27c0-4.28-.02-6.42-.08-6.76-.04-.28-.15-.67-.24-.88-.1-.21-.29-.48-.42-.61-.14-.13-.41-.31-.6-.4-.19-.08-.56-.18-.82-.22-.28-.03-.66-.03-.93 0-.24.04-.6.11-.79.17-.18.06-.59.23-.89.38-.3.15-.84.49-1.2.75-.36.27-.81.65-1.37 1.2v12.6l-.19.04c-.1.02-.61.03-2.05 0l-.05-2.37c-.02-1.31-.04-3.98-.04-5.94 0-1.97.02-4.69.1-8.55h2.23v2.26l.5-.49c.27-.28.7-.65.94-.84.25-.18.63-.43.86-.56.22-.13.63-.31.91-.4.27-.1.66-.21.85-.24.2-.03.55-.06.78-.07zm16.64.03c.45.02 1.03.09 1.37.17.32.08.8.25 1.06.37.27.13.69.39.93.58.25.19.57.5.73.68.15.18.4.51.56.74.15.23.44.74.63 1.13.2.4.35.77.33.83-.02.05-.41.24-.92.43-.48.18-.94.34-1 .34-.1.01-.18-.12-.35-.54-.12-.3-.34-.73-.48-.94-.14-.22-.42-.56-.61-.76-.2-.19-.53-.45-.74-.57-.21-.12-.56-.27-.79-.33-.23-.06-.69-.1-1.03-.11-.35 0-.8.05-1.03.11-.23.06-.6.21-.82.33-.23.12-.6.4-.83.63-.23.22-.55.63-.7.89-.16.27-.38.74-.49 1.07-.11.32-.25.81-.31 1.09-.06.29-.15.98-.19 1.55-.07.8-.07 1.26 0 2.09.04.59.14 1.33.21 1.65.08.32.21.79.3 1.03.09.25.27.65.4.89.14.25.42.63.62.86.2.22.55.52.78.67.23.15.63.33.89.42.38.12.65.15 1.27.14.51 0 .95-.04 1.24-.12.24-.06.64-.21.89-.34.27-.13.62-.39.9-.66.25-.25.59-.67.76-.93.17-.27.37-.6.44-.74.11-.23.15-.26.3-.22.1.02.51.2.91.4.41.19.74.38.74.42 0 .04-.17.35-.39.69-.21.34-.51.79-.67.99-.16.21-.46.56-.66.78-.21.23-.58.55-.82.72-.25.17-.63.4-.86.51-.22.1-.66.25-.96.33-.38.1-.85.16-1.51.18-.71.03-1.12.01-1.59-.07-.35-.06-.88-.2-1.17-.32-.29-.11-.76-.35-1.05-.54-.28-.19-.71-.54-.95-.78-.24-.23-.59-.68-.79-.98-.2-.3-.46-.75-.57-.99-.12-.25-.29-.68-.38-.97-.1-.28-.24-.82-.32-1.2-.08-.37-.17-1.01-.21-1.4-.04-.4-.07-1.1-.07-1.55a15.374 15.374 0 01.33-3.06c.08-.32.23-.84.35-1.16.12-.32.36-.85.53-1.17.17-.32.45-.75.61-.96.16-.21.45-.53.66-.72.2-.19.56-.47.78-.62.23-.15.6-.35.82-.45.23-.11.61-.24.86-.31.24-.06.63-.14.86-.17.22-.03.76-.04 1.2-.03zm13.62 0c.42.02.99.09 1.27.16.28.08.7.2.93.29.22.09.64.31.92.5.29.2.68.52.89.73.2.21.51.56.67.79.17.23.44.67.6 1 .17.32.39.87.51 1.23s.28.95.35 1.31c.07.36.17 1.04.21 1.51.05.5.07 1.24.04 1.78-.02.51-.1 1.3-.18 1.75-.07.46-.22 1.12-.34 1.48-.11.36-.3.87-.42 1.13-.11.27-.38.75-.59 1.07-.21.32-.56.76-.77.98-.21.22-.6.55-.86.73-.27.19-.72.44-1 .56-.28.12-.8.27-1.15.35-.38.07-.92.12-1.34.12-.38 0-.95-.04-1.25-.09-.3-.06-.73-.17-.96-.25-.23-.08-.61-.25-.86-.38-.24-.13-.68-.44-.96-.69-.28-.26-.68-.68-.89-.95-.21-.27-.52-.78-.7-1.14-.18-.36-.42-.93-.53-1.27-.11-.34-.25-.85-.31-1.13-.05-.28-.14-.83-.18-1.2-.05-.44-.07-1.21-.05-2.1.03-.88.08-1.61.15-1.95.06-.31.16-.74.22-.97.06-.22.18-.62.28-.89.09-.26.27-.68.39-.93.13-.24.3-.57.4-.72.09-.15.33-.46.52-.7.2-.24.57-.6.82-.81.26-.21.59-.45.74-.54.15-.08.52-.25.82-.36.3-.12.77-.25 1.03-.29.27-.04.56-.09.65-.11.1-.01.51-.01.93 0zm-1.82 2.31a3.2 3.2 0 00-.55.31c-.17.11-.46.36-.64.54-.18.19-.44.51-.58.72-.13.21-.3.51-.37.68-.08.17-.2.5-.27.73-.07.22-.17.55-.2.72-.04.17-.12.66-.17 1.1-.06.43-.1 1.15-.1 1.59 0 .45.03 1.11.07 1.48.04.37.13.93.21 1.25.07.32.2.77.28 1 .08.22.21.53.28.68.08.15.25.45.39.66.14.2.44.54.66.74.23.2.59.45.82.56.23.1.57.23.75.27.19.05.63.08.97.08.34 0 .8-.05 1.02-.11.23-.06.57-.19.76-.29.18-.11.5-.34.71-.53.21-.19.51-.53.68-.76.16-.22.38-.63.49-.89.11-.27.28-.78.38-1.13.1-.36.21-.97.25-1.34.05-.43.07-1.22.04-2.1-.02-1.02-.07-1.57-.17-2.02-.07-.34-.2-.82-.29-1.07-.08-.24-.28-.69-.43-.99-.2-.38-.44-.71-.77-1.04-.36-.36-.61-.55-.99-.73-.29-.14-.68-.28-.88-.32-.2-.04-.58-.07-.86-.07-.27 0-.66.04-.87.09-.21.05-.49.13-.62.19zm31.33-2.3c.43.02.9.1 1.27.2.32.1.74.26.92.36.19.1.58.41.86.7.37.36.58.65.75.99.13.27.29.72.37 1 .15.51.15.63.19 13.94h-2.27l-.02-2.15c0-1.18-.01-4.14-.01-6.57 0-4.42 0-4.43-.16-4.88-.08-.24-.24-.56-.34-.71-.1-.14-.33-.35-.5-.46a2.76 2.76 0 00-.68-.3c-.21-.06-.63-.11-.93-.11-.3 0-.73.05-.96.11-.23.06-.75.27-1.17.47-.43.22-1.01.58-1.34.84-.32.25-.73.6-1.23 1.09v12.67l-2.23-.03-.04-1.45c-.03-.79-.05-3.83-.05-6.76-.01-2.93.01-6.07.09-8.65h2.23v2.26l.46-.46c.26-.26.65-.61.88-.78.22-.18.61-.44.85-.58.25-.14.69-.35.98-.46.3-.1.73-.22.96-.25.24-.04.74-.05 1.12-.03zm23.85.02v2.34l-.4.04c-.22.02-.58.08-.81.14-.22.06-.63.22-.91.35-.28.14-.7.43-.93.64-.23.21-.58.61-.77.89-.19.28-.44.68-.56.89-.11.21-.29.58-.39.82-.1.25-.28.71-.59 1.62v4.68c0 4.11-.01 4.7-.1 4.73-.06.01-.57.03-1.13.03-1.01 0-1.03 0-1.06-.15-.02-.09-.04-3.82-.04-8.3 0-4.47.02-8.2.04-8.29.03-.15.04-.15 2.29-.15l.01 3.33.21-.35c.12-.18.36-.55.53-.81.17-.26.54-.69.8-.96.27-.27.66-.59.86-.71.21-.13.56-.3.78-.4.23-.09.66-.21.96-.27.31-.05.7-.1 1.21-.11zm-104.8.28h2.24l.05 1.52c.04.85.06 3.74.05 6.44-.02 3.5 0 5.02.06 5.29.04.21.15.53.24.72.09.19.27.43.4.54.12.11.37.27.55.36.18.09.55.2.82.24.37.06.64.06 1.03 0 .3-.04.76-.17 1.03-.28.28-.11.75-.35 1.05-.52.3-.17.76-.49 1.02-.7.26-.22.61-.53 1.07-.98V8.93h2.34v16.82l-.23.04c-.12.02-.64.03-2.07 0l-.03-2.27-.62.6c-.34.33-.91.79-1.26 1.01-.35.23-.86.51-1.15.61-.28.11-.73.24-.99.29-.29.05-.76.07-1.2.05-.4-.02-.91-.09-1.13-.16a6.86 6.86 0 01-.93-.35c-.33-.16-.66-.38-.92-.63-.22-.22-.51-.55-.63-.75-.13-.2-.3-.52-.38-.72-.08-.2-.19-.56-.25-.81-.09-.39-.11-1.32-.13-7.09l-.03-6.64zm59.43 0h2.27l.02 6.54c.02 5.69.03 6.58.13 6.88.05.19.17.47.24.62.08.15.25.38.39.5s.4.29.57.37c.18.07.56.17.85.21.42.07.62.06 1.13-.04.45-.09.82-.22 1.37-.49.42-.21.99-.55 1.28-.77.29-.22.72-.58 1.37-1.22l-.01-12.6h2.23l.06 2.01c.03 1.1.05 4.77.04 8.15 0 3.38-.02 6.28-.06 6.73l-2.23-.03-.04-2.27-.6.58c-.33.32-.86.76-1.18.97-.32.21-.69.44-.83.5-.13.06-.41.17-.61.24-.21.08-.54.17-.74.21-.2.04-.64.07-.98.07-.34 0-.84-.04-1.11-.1-.28-.06-.7-.18-.95-.28-.24-.1-.55-.25-.68-.35-.14-.09-.4-.31-.58-.49-.19-.17-.46-.51-.6-.73-.15-.23-.34-.65-.43-.93-.09-.28-.2-.78-.24-1.1-.05-.38-.08-2.78-.08-6.88v-6.3zm46.69-.01l2.4.04.17.48c.09.27.45 1.29.78 2.27.34.98.77 2.23.96 2.78.19.55.43 1.26.54 1.58.11.32.59 1.73 1.06 3.12.48 1.4.88 2.56.9 2.58.01.02.05-.08.09-.21.04-.13.24-.81.45-1.51.21-.7.48-1.64.62-2.09.13-.46.42-1.44.65-2.2.22-.76.77-2.58 1.21-4.05.44-1.47.82-2.7.85-2.73.02-.03.57-.05 2.39-.02l-.98 3.16c-.54 1.74-1.39 4.44-1.88 6.01-.5 1.57-1.22 3.88-1.62 5.15-.39 1.26-.89 2.86-1.12 3.54-.22.68-.57 1.56-.76 1.95-.2.4-.51.92-.69 1.17-.19.25-.45.56-.6.69-.14.14-.41.36-.6.49s-.45.29-.59.35c-.13.06-.37.16-.54.22-.17.06-.51.15-.74.21-.25.06-.75.1-1.17.1-.4-.01-.92-.05-1.56-.18l-.03-1.95.15.05c.08.02.54.04 1.01.04.66 0 .99-.04 1.41-.15.3-.08.7-.25.88-.37.19-.12.52-.41.74-.65.26-.27.5-.64.68-1 .15-.31.35-.84.62-1.8l-1.19-3.54c-.66-1.94-1.8-5.35-2.54-7.58-.74-2.23-1.41-4.26-1.49-4.5-.08-.25-.22-.67-.3-.95l-.16-.5z"/><path fill-rule="evenodd" class="shp0" d="M48.43 9.41c.01.21.01.56 0 .79-.01.22-.02.05-.02-.38s.01-.62.02-.41zm69.04.17c.01.26.01.73 0 1.03-.01.3-.03.09-.03-.48s.01-.81.03-.55zm-57.3.34c.01.42.01 1.11 0 1.55-.02.43-.03.09-.03-.76s.01-1.2.03-.79zm59.36-.24c.01.25.01.68 0 .96-.02.29-.03.09-.03-.44s.01-.76.03-.52zm56.6-.2c.56 0 1.13.03 1.27.06.13.04.38.08.56.09.18.01.33.03.33.05-.01.02.1.06.22.09s.47.17.77.32c.32.15.7.41.9.6.19.18.4.42.48.54.07.11.16.27.2.34.04.08.13.28.2.45.07.17.16.43.19.58.04.15.1.43.14.62.05.21.09 2.43.13 5.94.03 3.08.07 5.83.13 6.66h-1.75l-.06-.33c-.03-.18-.08-.56-.1-.85-.03-.29-.07-.55-.1-.58-.03-.03-.13-.01-.23.04-.1.06-.23.15-.29.21-.06.06-.2.15-.3.21-.11.05-.19.12-.19.15s-.03.05-.07.05c-.04 0-.15.06-.26.13-.1.07-.31.2-.46.29l-.55.29c-.15.07-.33.16-.41.19-.08.03-.25.08-.38.12-.13.04-.36.1-.51.14-.15.03-.46.1-.69.14-.22.04-.87.07-1.42.07-.63 0-1.01-.02-1.01-.06 0-.04-.1-.07-.23-.07-.12 0-.44-.09-.7-.2-.26-.1-.56-.24-.65-.29-.09-.05-.28-.21-.41-.34-.14-.13-.3-.26-.36-.29-.07-.03-.13-.09-.13-.14 0-.04-.05-.13-.12-.18-.06-.06-.2-.26-.3-.45-.1-.19-.23-.48-.29-.65-.06-.17-.11-.41-.11-.54 0-.12-.03-.22-.07-.22-.04 0-.06-.24-.06-.6 0-.33.04-.85.1-1.15.05-.3.12-.64.16-.76.03-.11.12-.33.19-.49.07-.16.15-.3.18-.3s.05-.06.05-.13c0-.08.22-.36.54-.67.29-.29.62-.6.72-.69.1-.08.23-.15.28-.15.06 0 .11-.03.11-.07 0-.04.06-.07.14-.07.07 0 .14-.02.15-.05.01-.03.16-.12.33-.2l.58-.27c.15-.06.37-.16.48-.21.11-.05.27-.1.36-.1.08 0 .17-.03.19-.06.02-.04.1-.07.19-.07s.19-.03.22-.06c.04-.03.24-.09.45-.14.2-.05.4-.11.44-.14.04-.02.13-.04.21-.05.07-.01.24-.05.38-.09.13-.03.6-.16 1.04-.27.45-.12.85-.21.91-.21.06 0 .37-.07.7-.14.33-.08.67-.16.76-.18.08-.01.2-.08.27-.15.1-.1.1-.24.07-1.08-.03-.59-.09-1.08-.16-1.27-.06-.17-.16-.4-.21-.51a1.01 1.01 0 00-.24-.31c-.06-.06-.12-.14-.12-.19 0-.05-.04-.09-.07-.09-.04 0-.11-.04-.16-.09-.05-.04-.19-.13-.32-.2-.14-.06-.35-.15-.48-.2-.14-.06-.48-.14-.76-.19-.31-.05-.8-.08-1.23-.06-.4.02-.88.09-1.07.15-.19.06-.4.15-.46.18-.07.04-.18.07-.26.07-.07 0-.14.03-.14.07 0 .04-.03.07-.08.07s-.28.13-.51.29c-.23.16-.56.42-.74.58-.17.16-.5.53-.72.81-.23.28-.42.54-.42.58 0 .04-.06.07-.13.07-.08 0-.14-.02-.14-.05 0-.03-.22-.16-.48-.29-.26-.13-.49-.28-.51-.33-.02-.05.04-.25.15-.46.1-.21.21-.38.24-.38s.05-.05.05-.1c0-.06.06-.18.14-.26.08-.08.36-.39.63-.67.28-.28.57-.57.65-.63.09-.07.17-.12.19-.12.02 0 .18-.1.35-.21.17-.11.32-.21.34-.21.02 0 .18-.06.36-.14.18-.08.39-.17.46-.2.08-.03.26-.09.41-.13.15-.04.37-.07.48-.08.12 0 .26-.03.31-.06.06-.04.57-.07 1.14-.07zm2.77 7.48c0 .04-.1.07-.22.07s-.39.05-.6.1c-.21.06-.6.16-.87.22-.27.07-.51.15-.54.18-.03.03-.14.05-.25.05-.1 0-.21.03-.23.07-.01.04-.09.07-.16.07s-.2.03-.28.07c-.07.03-.2.09-.28.13a.59.59 0 01-.24.07.73.73 0 00-.22.06c-.07.04-.2.09-.29.13-.1.04-.36.15-.58.23-.23.09-.42.19-.43.22-.01.02-.08.05-.16.05-.07 0-.14.03-.14.07 0 .03-.03.07-.08.07s-.29.15-.53.34c-.25.18-.57.47-.72.63-.15.17-.32.39-.37.5-.06.12-.12.27-.15.35-.03.07-.09.24-.13.37-.04.14-.08.51-.07.83 0 .32.03.69.08.82.04.13.15.4.24.58.09.19.26.43.36.52.1.09.25.23.34.29.08.07.23.17.33.22.11.05.38.14.6.2.23.06.66.11.96.11.3 0 .72-.05.93-.11.21-.05.48-.13.62-.15.13-.03.36-.11.51-.18l.58-.27c.17-.08.56-.29.86-.48.3-.18.57-.35.59-.38.01-.03.14-.12.27-.21.13-.1.35-.27.48-.4.13-.12.3-.28.36-.34.11-.11.12-.31.12-2.59 0-1.91-.02-2.49-.08-2.56a.268.268 0 00-.16-.08c-.04.01-.15.03-.26.04-.1.01-.19.05-.19.09zm18.29-7.48l.05.79c.03.43.04.83.02.89-.02.08-.14.1-.48.1-.24 0-.59.03-.77.07-.18.04-.46.11-.62.16-.16.04-.29.1-.29.12 0 .01-.08.05-.19.08-.1.02-.4.2-.67.4-.26.19-.57.43-.68.53-.12.11-.29.3-.38.43-.09.13-.24.31-.33.41-.08.09-.15.19-.15.22s-.04.09-.09.14c-.04.05-.15.21-.24.36-.08.15-.15.33-.15.4 0 .06-.03.12-.05.11-.03 0-.1.15-.15.33-.05.18-.12.42-.17.53-.06.15-.08 1.59-.09 5.12-.01 2.7-.03 4.96-.05 5.03-.04.11-.14.12-1.83.12l-.04-3.21c-.02-1.77-.02-5.36 0-7.98.03-2.63.06-4.79.09-4.81.02-.02.43-.02.9-.01.48.01.89.04.91.06.02.01.02.6.01 1.29-.01.96.01 1.28.07 1.32.05.02.1.01.1-.02.01-.04.18-.31.37-.61.2-.31.58-.76.85-1.02.26-.26.54-.48.6-.5.07-.02.12-.05.12-.08s.24-.17.53-.31c.3-.14.71-.29.92-.33.2-.04.39-.08.4-.1.02-.02.36-.03 1.48-.03zm20.06 0c.42 0 .93.03 1.13.07.2.04.48.11.64.15.15.03.41.13.58.21.17.08.43.23.58.33.15.1.32.23.36.29.05.07.13.09.17.06.06-.03.07-.02.04.04-.03.05.04.18.19.34.13.14.24.28.24.31 0 .03.05.13.12.24.06.1.17.34.24.53.07.19.16.45.2.59.03.13.11.5.16.82.08.47.1 1.75.1 12.36l-1.89-.03-.03-6.05c-.03-4.1-.07-6.14-.12-6.35-.04-.17-.1-.37-.12-.45-.03-.07-.11-.27-.2-.43-.08-.16-.17-.29-.2-.29-.02 0-.03-.03-.01-.07.02-.03-.08-.18-.23-.33-.14-.14-.38-.32-.53-.4-.15-.08-.35-.18-.44-.22-.1-.04-.34-.11-.55-.15-.21-.03-.53-.06-.71-.06-.17 0-.54.04-.8.08-.27.05-.48.11-.48.14 0 .03-.06.05-.14.05-.08 0-.24.06-.38.14-.13.07-.27.14-.31.14-.03 0-.24.12-.46.26-.22.15-.46.33-.53.4-.08.07-.34.3-.59.5-.24.21-.63.57-.86.81-.22.24-.45.43-.49.43-.07 0-.09 1.32-.08 5.72 0 3.14-.03 5.81-.11 6.16h-1.82V9.79l.91.01c.67.01.92.03.96.1.03.05.05.56.05 1.14 0 .85.02 1.04.1 1.03.05-.01.43-.34.84-.73.41-.39.81-.74.89-.79.08-.04.29-.16.46-.25.18-.09.32-.19.32-.22s.05-.05.11-.05c.05 0 .21-.06.36-.13.14-.07.42-.16.63-.21.21-.04.5-.11.65-.14.15-.03.62-.06 1.05-.07zm13.43.03c.53.01 1.19.07 1.48.13.28.07.57.14.65.18.07.03.37.17.65.3.28.13.56.28.62.35.06.06.13.11.15.11.03 0 .32.26.64.58.32.32.58.63.58.69 0 .05.03.11.06.12.04.01.22.33.41.72.2.38.36.75.36.8 0 .06.02.12.05.13.02.02.07.12.09.23.03.1.11.44.2.74.08.3.18.75.22 1 .04.24.08.86.13 2.3l-11.13-.04v.18c0 .09.03.47.07.84.04.37.11.85.15 1.08.04.23.13.6.21.82.07.23.16.48.19.55.03.08.1.25.15.38.05.13.18.39.3.58.11.19.23.39.27.43.04.05.19.24.35.43.15.18.3.34.34.34.04 0 .17.1.29.21.12.11.24.18.26.16.02-.03.03-.03.03.01s.13.13.29.2c.16.07.43.18.6.25.17.06.46.15.64.2.18.04.63.07 1.01.07s.85-.03 1.05-.07c.2-.05.48-.13.63-.2.15-.07.37-.16.48-.21.12-.04.33-.18.48-.3.15-.12.38-.32.52-.46.13-.14.28-.32.34-.4.06-.09.19-.25.29-.37.1-.12.19-.24.19-.27 0-.03.04-.09.09-.14.05-.04.16-.18.24-.31.08-.12.15-.27.15-.32 0-.07.07-.1.19-.1.1 0 .45.14.77.31.32.17.61.34.64.36.04.03.04.12.02.22-.02.09-.1.25-.18.34-.08.1-.15.23-.17.29-.02.07-.06.12-.1.12-.04 0-.07.05-.07.11 0 .05-.07.17-.15.26-.09.09-.33.36-.54.59-.2.24-.41.47-.46.51-.05.04-.16.13-.23.2-.07.06-.15.12-.18.12s-.1.06-.16.12c-.05.07-.18.16-.27.22-.1.05-.31.17-.48.25-.17.08-.42.2-.55.25-.13.06-.33.13-.45.15-.11.03-.36.06-.56.08-.2.01-.36.06-.36.1 0 .04-.43.06-1.15.06-.63 0-1.34-.03-1.56-.07-.23-.04-.62-.13-.86-.21a5.06 5.06 0 01-.6-.2c-.09-.04-.24-.1-.34-.15-.11-.04-.42-.23-.71-.42-.28-.19-.71-.54-.94-.78-.24-.24-.43-.45-.43-.47 0-.01-.12-.21-.26-.43-.15-.21-.38-.65-.52-.97-.13-.32-.31-.82-.39-1.1-.08-.29-.17-.7-.21-.93-.03-.23-.09-.84-.14-1.37-.04-.53-.05-1.4-.03-1.93.02-.52.07-1.13.11-1.33.04-.21.11-.54.15-.73.04-.18.15-.57.24-.85.09-.29.3-.78.46-1.1.16-.32.34-.66.39-.76.05-.09.11-.19.13-.2.02-.02.12-.15.21-.28.1-.13.33-.39.52-.58.18-.19.44-.42.57-.52.14-.09.26-.18.28-.21.02-.02.2-.13.41-.24.21-.12.56-.28.79-.36.23-.09.47-.19.53-.22.07-.04.22-.07.35-.07.12-.01.3-.04.39-.07.09-.03.6-.05 1.13-.03zm-1.38 1.7c-.02.03-.14.05-.24.05-.11 0-.2.03-.2.07 0 .04-.04.07-.09.07-.05 0-.29.13-.53.29-.24.16-.57.42-.73.58-.16.17-.29.33-.29.37 0 .03-.05.09-.1.12-.05.02-.14.14-.21.25-.06.12-.2.38-.32.59-.11.2-.21.44-.22.53-.01.08-.03.15-.05.15-.01 0-.07.1-.11.23-.04.12-.11.37-.15.56-.04.19-.1.55-.14.79-.05.25-.06.46-.04.48.03.02 2.01.04 4.41.05 2.41.01 4.46 0 4.56-.02.17-.02.19-.06.19-.28 0-.15-.04-.46-.1-.71-.05-.24-.18-.72-.3-1.06-.11-.34-.26-.74-.33-.88s-.15-.26-.18-.26-.05-.03-.05-.08-.06-.16-.14-.24c-.07-.09-.13-.18-.13-.21s-.21-.26-.47-.52c-.25-.25-.49-.46-.53-.46-.04.01-.15-.05-.26-.13-.1-.08-.23-.14-.29-.14-.06 0-.1-.03-.1-.07 0-.04-.08-.07-.17-.07-.1 0-.23-.03-.3-.06-.06-.04-.26-.1-.44-.14-.18-.04-.54-.07-.79-.06-.26 0-.61.04-.78.08-.18.04-.35.1-.38.13zm14.39-1.73c.39 0 1.01.04 1.37.09.36.06.82.16 1.03.22.21.06.57.21.81.33.24.12.5.27.57.33.07.07.15.12.18.12s.25.2.5.43c.24.24.57.59.73.78.16.19.3.42.33.51.04.14.01.19-.13.28-.1.05-.18.12-.18.15s-.04.05-.1.05c-.05 0-.18.07-.28.16-.1.08-.23.2-.3.25-.06.06-.18.14-.25.19-.11.07-.15.05-.27-.14-.07-.12-.37-.45-.65-.73-.29-.29-.66-.62-.84-.74-.18-.12-.36-.22-.4-.22-.03 0-.06-.03-.06-.06 0-.02-.13-.09-.29-.14-.17-.05-.38-.12-.47-.15-.09-.03-.33-.09-.53-.13-.2-.04-.55-.07-.77-.07-.23 0-.56.03-.74.07-.18.04-.38.1-.45.14-.06.03-.19.06-.29.06-.09 0-.17.03-.17.07 0 .04-.04.07-.09.07-.04 0-.15.06-.24.14-.08.07-.17.13-.2.13s-.17.13-.3.29c-.14.16-.31.44-.39.61-.08.17-.18.52-.22.79-.06.37-.06.55 0 .79.05.17.12.34.15.37.03.04.06.12.06.18 0 .05.06.17.13.25.08.09.15.16.17.16.02 0 .14.09.26.21.12.11.26.2.31.2.05 0 .08.02.08.05 0 .03.11.09.23.14.12.05.33.15.46.22.13.08.34.14.46.14.13 0 .23.03.23.07 0 .04.05.07.12.07.06 0 .32.07.56.17.25.09.47.14.5.12.03-.03.09-.02.14.02.05.04.22.11.39.16s.4.11.52.15c.11.03.27.06.34.06.08 0 .17.03.21.06.03.04.27.13.51.22.25.09.55.21.67.28.12.07.27.13.33.13.05 0 .1.03.1.07 0 .04.05.07.1.07.06 0 .25.1.42.22.17.12.37.25.43.29.06.04.18.16.28.27.1.12.23.25.3.31.06.06.12.15.12.19 0 .05.03.09.07.09.03 0 .16.19.27.43.11.24.25.67.31.96.05.29.1.79.1 1.1 0 .31-.04.7-.08.87-.03.17-.08.41-.1.54-.01.12-.06.22-.09.22-.04 0-.06.03-.05.06 0 .03-.1.23-.24.46-.14.22-.4.56-.58.75-.19.19-.49.44-.68.57-.19.12-.38.25-.43.29-.04.04-.11.07-.13.07-.03 0-.27.09-.54.2-.26.11-.6.23-.75.27-.15.03-.46.1-.69.14-.22.04-.86.07-1.42.07-.56 0-1.01-.02-1.01-.05 0-.03-.16-.07-.36-.1-.2-.04-.48-.07-.62-.09-.14-.02-.26-.06-.26-.1 0-.04-.05-.07-.12-.07-.06 0-.3-.09-.53-.21-.23-.11-.45-.2-.5-.2-.04 0-.08-.03-.08-.07 0-.04-.03-.07-.07-.07-.04 0-.22-.1-.4-.22-.18-.12-.41-.3-.53-.39-.11-.1-.34-.31-.5-.47-.16-.16-.32-.29-.36-.29-.03 0-.07-.05-.07-.12 0-.07-.06-.17-.12-.22a1.28 1.28 0 01-.24-.33c-.06-.12-.1-.27-.08-.33.02-.05.07-.1.12-.1.05 0 .19-.1.33-.21.13-.11.27-.2.3-.2.04-.01.12-.06.18-.13.05-.07.16-.14.24-.16.09-.01.22.07.39.25.14.16.25.3.26.33 0 .03.23.28.51.57.29.28.62.56.74.63.12.06.26.15.31.2.05.05.15.09.22.09.08 0 .15.03.16.07.01.03.09.07.19.08.09.02.18.04.2.06.02.02.21.1.41.17.26.08.68.13 1.31.15.62.03 1.01.01 1.2-.05.15-.04.36-.11.48-.15.11-.04.29-.1.39-.15.11-.04.19-.1.19-.12 0-.03.03-.04.07-.02.04.02.15-.04.24-.14.1-.09.2-.17.23-.17.02 0 .16-.12.3-.27.14-.16.26-.31.26-.35 0-.04.02-.07.05-.07.03.01.11-.11.18-.25.07-.15.16-.39.2-.54.04-.15.07-.47.07-.72 0-.24-.03-.57-.07-.72a2.08 2.08 0 00-.17-.48c-.06-.11-.21-.32-.34-.45-.13-.14-.45-.4-.71-.57-.26-.18-.5-.32-.53-.32-.03 0-.18-.06-.34-.13-.17-.07-.39-.15-.5-.18-.12-.02-.3-.07-.41-.11-.12-.04-.27-.1-.35-.13-.07-.03-.27-.09-.43-.13-.16-.04-.42-.11-.58-.15-.16-.04-.38-.1-.5-.13-.11-.03-.36-.09-.55-.14-.18-.05-.37-.11-.41-.14a3.71 3.71 0 00-.34-.13c-.15-.05-.58-.24-.96-.43s-.7-.36-.72-.39c-.02-.02-.18-.17-.37-.32-.18-.15-.32-.31-.32-.36 0-.04-.04-.1-.1-.12-.06-.01-.18-.2-.28-.41-.09-.21-.17-.41-.17-.46a.29.29 0 00-.08-.18c-.06-.06-.09-.36-.08-1.06 0-.68.04-1.08.11-1.32.06-.19.16-.47.23-.63.07-.17.15-.3.18-.3s.05-.05.05-.12c0-.06.21-.33.47-.6.25-.26.56-.53.67-.6.11-.07.36-.2.55-.29.18-.08.54-.22.79-.3.24-.08.61-.17.82-.2.21-.04.7-.07 1.1-.08z"/><path class="shp1" d="M14.27 9.61c-.28.03-.63.09-.79.13-.15.04-.38.1-.51.13-.13.04-.41.14-.62.23-.21.1-.58.31-.82.48-.25.16-.51.36-.59.44-.07.08-.21.25-.3.38s-.19.25-.21.27c-.02.02-.1.16-.17.31s-.16.42-.22.59c-.05.17-.09.51-.09.75 0 .26.05.59.12.79.07.19.2.45.29.59.09.13.29.35.43.49s.28.26.31.26c.03 0 .13.07.23.15.09.09.24.2.32.25.09.04.22.12.31.17.08.04.18.11.22.15.04.04.26.16.48.27.23.11.43.22.45.24.02.02.25.14.51.27.27.13.56.27.65.31.1.04.19.09.21.11.02.02.23.14.48.27.25.13.58.32.74.43.16.11.31.2.32.2.02 0 .14.1.26.22.13.12.28.34.35.48.06.14.11.42.11.62s-.03.47-.06.62c-.04.14-.18.36-.33.5-.14.13-.35.28-.46.33-.12.05-.32.12-.45.17-.13.04-.38.08-.55.08-.17 0-.46-.04-.65-.09a3.778 3.778 0 01-1.22-.62c-.1-.08-.33-.27-.52-.43-.18-.15-.45-.45-.6-.68-.15-.22-.3-.49-.35-.58-.04-.1-.12-.29-.18-.42a4.42 4.42 0 01-.15-.48c-.03-.13-.1-.28-.16-.32-.06-.05-.22-.09-.35-.09-.14 0-.29.03-.35.07-.09.05-.1.31-.08 1.73.01.92.04 1.72.05 1.79.02.08.12.13.32.15.16.01.39.04.5.07.11.02.27.07.34.1.08.04.53.19 1 .34.47.15 1.14.31 1.48.35.49.06.77.05 1.4-.03.44-.06.95-.15 1.13-.21.19-.05.49-.14.66-.21.17-.06.47-.19.68-.29.21-.1.52-.27.69-.39.17-.11.47-.38.67-.59.19-.2.45-.56.56-.79.11-.22.23-.59.28-.82.04-.23.06-.58.05-.79-.02-.21-.06-.47-.09-.58-.02-.12-.08-.29-.12-.4-.05-.1-.1-.19-.13-.19s-.05-.04-.05-.08c0-.05-.14-.24-.31-.42-.17-.17-.34-.32-.36-.32-.03 0-.12-.05-.19-.12-.08-.07-.25-.2-.38-.29-.13-.09-.26-.19-.27-.21-.02-.02-.11-.07-.19-.12-.09-.05-.23-.12-.31-.17a.733.733 0 01-.19-.13c-.02-.02-.58-.31-1.24-.64s-1.44-.74-1.74-.92c-.29-.18-.62-.4-.73-.51-.11-.1-.27-.33-.35-.51-.12-.27-.13-.4-.1-.71.03-.22.11-.46.2-.58.08-.11.27-.28.43-.38.15-.1.36-.22.48-.27.12-.05.47-.08.89-.08.51 0 .78.04 1.06.14.21.08.39.17.4.21.01.04.05.07.1.07s.24.16.43.36c.2.2.45.52.56.7.12.19.3.55.39.79.1.25.18.49.18.54 0 .04.05.1.1.12.06.02.22.03.36.03.14 0 .31-.04.38-.08.1-.08.11-.15.05-.54-.04-.24-.09-.92-.12-1.51l-.05-1.06c-.48-.12-.93-.23-1.3-.31-.38-.08-.76-.18-.84-.21-.09-.04-.63-.08-1.2-.09-.58-.02-1.28-.01-1.57.02z"/><path class="shp0" d="M184.67 17.8v8.02c1.83 0 1.85 0 1.88-.15.01-.09.02-3.67.01-7.96 0-4.3-.03-7.84-.06-7.87-.03-.03-.46-.05-.94-.05h-.89v8.01zm19.9.02v8.03c1.5-.03 1.84-.07 1.87-.12.03-.05.04-3.63.03-7.96 0-4.33-.04-7.9-.07-7.93-.03-.03-.46-.05-.94-.05h-.89v8.03zm-96.73-2.85c0 2.74.01 3.85.02 2.47s.01-3.62 0-4.98c-.01-1.36-.02-.23-.02 2.51zm21.27 1.1c0 .92.01 1.29.02.82.02-.47.02-1.23 0-1.68-.01-.45-.02-.07-.02.86zm-59.36 3.57c0 1.98.01 2.79.02 1.78a216 216 0 000-3.6c-.01-.98-.02-.16-.02 1.82zm31.91-2.27c0 .32.01.45.02.28.02-.17.02-.43 0-.59-.01-.15-.02-.01-.02.31zm-29.57 2.27c0 1.38.01 1.93.02 1.24.01-.7.01-1.83 0-2.51-.01-.68-.02-.11-.02 1.27zm-23.69.79c0 .3.02.41.03.24.02-.17.01-.42 0-.55-.01-.13-.03.01-.03.31zm69.04 1.99c0 .49.01.68.03.41.01-.26.01-.66 0-.89-.02-.23-.03-.01-.03.48zm11.67.79c0 .93.01 1.3.02.82.02-.47.02-1.22 0-1.68-.01-.45-.02-.07-.02.86zm-68.97.86c0 .79.01 1.1.03.69.01-.42.01-1.07 0-1.45-.02-.37-.03-.03-.03.76zm59.36.24c0 .62.01.87.03.55.01-.32.01-.83 0-1.13-.02-.31-.03-.04-.03.58zm32.87 6.49c0 .45.01.62.03.38.01-.25.01-.62 0-.83-.02-.21-.03 0-.03.45z"/></svg>