<svg viewBox="0 0 349.31 53.047" xmlns="http://www.w3.org/2000/svg"><path d="M43.593 28.608c12.5-.441 20.092-5.741 20.092-11.975 0-6.648-8.273-12.036-22.364-12.036h-2.023L43.445.642l-6.161.023-10.166 3.932h-16.19C5.24 4.597 2.08 5.991.816 8.71h33.276c9.176 0 15.342 1.391 15.342 7.719 0 6.818-7.414 8.147-15.342 8.147H19.147l13.252 14.225C43.613 50.613 54.128 52.71 67.181 52.71L43.593 28.608zM151.05 40.161c-6.114 0-10.351-4.476-10.351-11.568 0-7.046 4.237-11.665 10.351-11.665 6.163 0 10.352 4.619 10.352 11.665s-4.19 11.568-10.352 11.568m0-26.185c-11.41 0-18.969 5.951-18.969 14.617 0 8.665 7.559 14.52 18.969 14.52 11.411 0 18.971-5.854 18.971-14.52-.001-8.666-7.56-14.617-18.971-14.617m-51.759 3.572a57.469 57.469 0 017.174-.478c5.007 0 8.041 2 8.041 6.189 0 4.285-3.034 6.665-8.041 6.665h-7.174V17.548zm23.832 5.76c0-6.857-6.45-9.188-15.792-9.188-4.863 0-9.243.559-15.743.75V42.4h7.703v-9.617h8.04c.052 0 .101-.003.153-.003l2.688 3.245c4.526 5.428 7.992 6.903 15.022 6.903h.963L115.9 31.806c4.603-1.297 7.223-3.969 7.223-8.498m136.827-8.617h7.704v27.708h-7.704zm46.95-.001l-10.58 14.533-10.46-14.533h-9.06l13.48 18.187v9.521h7.71v-9.521l13.33-18.187zm13.52 17.092l6.876-13.41 6.802 13.41H320.42zm19.065 10.616h8.569l-14.25-27.708h-8.859l-14.203 27.708h4.237l3.782-7.379h16.98l3.744 7.379zM224.61 21.07c0-2.19 2.602-4.238 7.848-4.238 8.765 0 13.289 3.381 13.289 3.381l1.638-4.19s-6.454-2.047-14.541-2.047c-9.821 0-15.214 3.047-15.214 8.856 0 12.711 24.314 6.617 24.314 13.425 0 2.285-2.841 3.689-8.859 3.689-8.329 0-14.589-3.332-14.589-3.332v4.451s6.355 2.095 15.117 2.095c9.727 0 15.264-2.285 15.264-8.809 0-12.568-24.267-7.141-24.267-13.281m-38.8 0c0-2.19 2.599-4.238 7.849-4.238 8.762 0 13.287 3.381 13.287 3.381l1.636-4.19s-6.45-2.047-14.539-2.047c-9.822 0-15.214 3.047-15.214 8.856 0 12.711 24.313 6.617 24.313 13.425 0 2.285-2.84 3.689-8.857 3.689-8.33 0-14.589-3.332-14.589-3.332v4.451s6.354 2.095 15.118 2.095c9.725 0 15.262-2.285 15.262-8.809 0-12.568-24.266-7.141-24.266-13.281" fill="#DD052B"/></svg>