<svg width="115.6" height="38.439" viewBox="0 0 30.585 10.17" xmlns="http://www.w3.org/2000/svg"><defs><clipPath id="d"><path d="M249.38 589.94c-2.046-1.213-4.535-2.066-7.085-2.344a23.133 23.133 0 00-2.501-.13c-3.556 0-7.255.73-10.112 1.729 3.7-2.946 8.742-4.271 12.883-4.271.618 0 1.218.03 1.788.088 7.268.742 11.17 5.712 14.547 9.821 1.437 1.75 3.606 4.378 5.425 4.378.122 0 .241-.012.359-.037a4.522 4.522 0 01-1.365.212c-4.245 0-8.092-5.98-13.939-9.446"/></clipPath><clipPath id="c"><path d="M0 0h595.28v841.89H0z"/></clipPath><clipPath id="a"><path d="M233.24 603.35c8.157 2.161 12.598-1.787 13.659-4.97 1.314-3.941-.684-8.662-7.22-10.147 6.742-.284 10.635 3.155 13.944 5.81 3.309 2.654 7.351 7.067 10.944 5.632-1.389 1.924-2.861 2.116-4.312 1.717-1.452-.398-2.07-1.137-3.148-1.38-1.079-.241-1.968.236-2.136 1.353-.167 1.118.728 2.485 3.2 2.929-1.503 1.182-6.179 3.084-11.844 3.084-4.12 0-8.762-1.006-13.087-4.028"/></clipPath><linearGradient id="e" x2="1" gradientTransform="matrix(35.367 1.5442 1.5442 -35.367 232.98 512.69)" gradientUnits="userSpaceOnUse"><stop stop-color="#0070b8" offset="0"/><stop stop-color="#b0d2f0" offset="1"/></linearGradient><linearGradient id="b" x2="1" gradientTransform="scale(23.709 -23.709) rotate(60.901 24.941 -5.633)" gradientUnits="userSpaceOnUse"><stop stop-color="#41c0f0" offset="0"/><stop stop-color="#174b86" offset="1"/></linearGradient></defs><path d="M1.697 10.04C.86 10.04.154 9.429.132 8.563h.51c.015.807.611 1.04 1.317 1.04.59 0 1.266-.342 1.266-1.011 0-.524-.378-.771-.822-.917C1.552 7.391.256 7.122.256 5.986c0-.917.844-1.419 1.674-1.419.691 0 1.594.24 1.71 1.252h-.51c-.014-.648-.603-.815-1.142-.815-.546 0-1.223.277-1.223.917 0 1.492 2.97.815 2.97 2.627 0 1.142-.983 1.492-2.038 1.492m4.954-2.68c-.044-.597-.35-.786-.866-.786-.458 0-.837.138-.895.633h-.466c.11-.75.67-1.033 1.368-1.033.808 0 1.31.37 1.295 1.208v1.732c-.007.284.023.575.037.822h-.451l-.015-.538h-.014l-.022.05c-.16.306-.648.597-1.143.597-.677 0-1.215-.415-1.215-1.128 0-.494.299-.873.735-1.055.488-.211 1.12-.138 1.652-.167zM5.559 9.645c.954 0 1.135-.786 1.092-1.55-.619.022-1.914-.095-1.914.822 0 .495.378.728.822.728m2.694.285V6.677h-.735v-.4h.735v-.779c0-.626.255-.91.88-.91.14 0 .285.051.416.08v.35a1.672 1.672 0 00-.27-.03c-.597 0-.611.3-.59.823v.466h.83v.4h-.83V9.93zm3.741-2.57c-.044-.597-.35-.786-.866-.786-.459 0-.837.138-.895.633h-.466c.109-.75.67-1.033 1.368-1.033.808 0 1.31.37 1.296 1.208v1.732c-.008.284.021.575.036.822h-.451L12 9.398h-.015l-.021.05c-.16.306-.648.597-1.143.597-.676 0-1.215-.415-1.215-1.128 0-.494.298-.873.735-1.055.488-.211 1.12-.138 1.652-.167zm-1.092 2.285c.954 0 1.135-.786 1.092-1.55-.619.022-1.914-.095-1.914.822 0 .495.378.728.822.728m3.006-4.425h-.51v-.546h.51zm-.037 4.709h-.436V6.276h.436zm1.471.001h-.437V7.099c.008-.284-.022-.575-.036-.822h.451l.022.538h.014c.132-.37.46-.633.823-.648.145-.007.291 0 .437.007v.423c-.088-.007-.183-.03-.27-.03-.648 0-.99.466-1.004 1.165z" fill="#747373"/><g transform="matrix(.35278 0 0 -.35278 -62.921 214.41)" clip-path="url(#a)"><path d="M0 0h595.28v841.89H0z" fill="url(#b)"/></g><g transform="matrix(.35278 0 0 -.35278 -62.921 214.41)" clip-path="url(#c)"><path d="M229.68 589.2c3.536-1.237 8.365-2.061 12.613-1.599 2.55.278 5.038 1.131 7.084 2.344 6.468 3.834 10.489 10.742 15.305 9.234-1.886.391-4.251-2.474-5.784-4.341-3.377-4.109-7.278-9.08-14.547-9.821-4.392-.447-10.419.797-14.671 4.183" fill="#b0d2f0"/></g><g transform="matrix(.35278 0 0 -.35278 -62.921 214.41)" clip-path="url(#d)"><path d="M0 0h595.28v841.89H0z" fill="url(#e)"/></g></svg>