<svg xmlns="http://www.w3.org/2000/svg" width="250.646" height="73.584"><path fill="#0F1131" d="M28.417 33.294H7.733v2.309h24.28s.877-2.036.877-4.258V15.786c0-1.222.501-3.297 3.033-3.858l.208-.04c7.158-1.688 14.563-.147 18.728 1.655.743.367.924-.241.891-.5.094-3.498-2.585-7.482-7.479-7.716-3.991-.1-6.201 1.329-6.998 1.735l-.248-.101c-.736-.721-2.303-1.802-4.071-2.309-.268-.054-.288-.434.021-.475 3.769-.413 7.064.027 8.443.248.308.053.549-.14.409-.434-.081-.22-.154-.321-.322-.647-.341-.727-1.218-1.468-2.35-1.789C40.209.727 35.16.019 30.654 0c-5.042-.04-10.391.968-11.738 1.274-.321.074-.776.187-.856.201-.369.08-.462.42-.295.601l.509.48c.161.207.241.5-.08.808l-9.348 8.397h6.462c.422-.021.823.367.823.841 0 .44-.348.834-.79.834l-.06.006H6.977l-2.544 2.303h10.941c.428 0 .756.44.756.848 0 .367-.321.807-.756.807H2.571L0 19.697h22.009l.067.014c.436 0 .771.44.771.827.014.455-.302.868-.757.848H0v2.296h21.989l.067.014c.502 0 .791.448.791.874 0 .375-.355.781-.797.781H0v2.31h28.765c.475.02.777.42.757.868-.007.387-.328.814-.757.814l-.06-.014H7.74v2.31h21.112c.388 0 .71.467.71.848 0 .394-.342.808-.724.808h-.421v-.001zm-12.481 7.63v3.29s3.031.027 4.742 0c4.247-.02 7.018-3.29 7.018-3.29h-11.76zm-.333-3.63v2.207h14.034c.656-.629 1.493-1.784 1.7-2.207H15.603z"/><path fill="#0F1131" d="M38.844 13.048c.902.014 1.508.278 1.998.489 1.046.483 2.237 1.026 3.759 1.728l2.582-1.76c.84-.549 1.646-.139 1.907.338.916 1.66 2.617 5.09 3.491 8.246a.909.909 0 01-.626 1.152c-.358.099-.978.172-1.611.257-.896.1-.881.794-.881 1.219 0 .515.021 3.997.021 5.194.02.734-.558 3.098-3.443 3.084h-6.506c-2.486.014-4.49-1.973-4.497-4.115 0-1.404 0-11.226.006-12.297-.002-2.125 1.996-3.561 3.8-3.535m44.709 20.655c-.152-.391-1.149-2.805-1.888-4.768l-6.256-17.262h-4.845s-1.398 4.051-1.597 4.713l-4.574 13.377c-.58 1.729-1.412 3.939-1.412 3.939h3.986s1.109-3.688 1.354-4.365l.607-1.867h6.876l.931 2.832c.211.541 1.023 3.359 1.036 3.4h5.782v.001zm-13.629-9.38l2.303-7.149.132-.396 2.422 7.546h-4.857zm23.064 6.176h-3.542c-.042-1.948-.056-3.82-.056-5.521l-.021-.269h.007v-.048h5.865v-2.733h-5.852c.014-2.938.056-4.867.056-4.867l7.292-.02v-2.864c-5.072.013-12.412 0-12.412 0s.111 2.65.111 4.165v10.973c0 1.397-.077 3.766-.097 4.138h12.899v-3.05c-.006-.001-2.538.096-4.25.096m23.314 2.329c-1.073-1.652-1.477-2.345-2.323-3.557l-3.174-5.209c1.527-.8 2.953-2.125 3.174-4.916.133-1.745-.732-3.184-1.281-3.684-.764-.713-1.508-.993-2.557-1.132-.839-.114-1.458-.126-1.976-.153h-7.461s.077 2.551.077 4.037v10.564c0 1.492-.077 4.05-.077 4.05h4.589s-.145-2.558-.145-4.05l.038-3.377h1.704l2.904 5.635c.403.687.96 1.592 1.104 1.792h5.404zm-8.118-10.418c-.687.386-2.24.286-3.004.233l.05-5.349.447-.034c1.401-.113 2.437.086 2.86.293.625.279.997.926 1.034 1.971.046 1.574-.522 2.406-1.387 2.886m28.34.519l-.02-.127a9.837 9.837 0 00-1.471-4.852c-1.68-2.834-4.605-4.365-8.164-4.324-3.555-.041-6.499 1.49-8.188 4.324-.813 1.301-1.391 2.975-1.462 4.852l-.032.127c-.455 6.271 2.898 10.603 8.661 11.088.35.035.682.043 1.012.043.346 0 .678-.008 1.029-.043 5.743-.485 9.128-4.816 8.635-11.088m-9.207 8.178l-.443.021-.428-.021a3.793 3.793 0 01-2.118-.914l-.52-.549c-.884-1.062-1.364-2.911-1.481-4.381-.261-3.396.376-8.346 4.214-8.67l.295-.014.02-.007.064.007.299.014c3.84.324 4.457 5.273 4.197 8.67-.111 1.47-.547 3.256-1.449 4.381l-.52.549c-.616.499-1.331.829-2.13.914m28.45-19.85h5.314l.156 1.248c1.188 12.586 1.908 20.389 1.908 20.389h-5.523l-.551-7.776-.512-6.97-4.693 14.732h-2.986s-1.482-5.225-1.744-5.949l-2.672-8.864s-.42 4.929-.578 7.051c-.322 4.218-.615 7.776-.615 7.776h-4.137s1.697-17.58 1.811-18.662c.137-1.102.348-2.975.348-2.975h5.404l4.523 12.679 4.547-12.679zm19.22 19.076h-3.541c-.041-1.948-.055-3.82-.055-5.521l-.021-.269h.008v-.048h5.865v-2.733h-5.852c.014-2.938.055-4.867.055-4.867l7.291-.02v-2.864c-5.07.013-12.412 0-12.412 0s.111 2.65.111 4.165v10.973c0 1.397-.076 3.766-.096 4.138h12.898v-3.05c-.007-.001-2.538.096-4.251.096m16.6-7.432l5.309-8.431h-3.68l-.02.065c-1.121 1.905-2.498 4.196-3.025 5.031l-.23.346-3.066-5.442h-5.537l5.334 9.434-5.559 8.822h3.658c2.375-3.979 3.586-5.82 3.586-5.82l3.277 5.82h5.512l-5.559-9.825zm12.859-4.503c0-1.51.17-4.116.17-4.116h-5.893s.178 2.606.178 4.116l-.031 10.799c0 1.511-.146 4.029-.146 4.029h5.893s-.154-2.518-.154-4.029l-.017-10.799zm14.879 12.164c-4.143 0-6.387-3.278-6.266-7.319.104-3.519 1.6-6.516 5.172-6.763 1.342-.083 2.441.158 4.359.708l-.186-2.99s-1.623-.564-3.924-.667c-2.953-.117-5.639.502-7.773 2.625-1.887 1.849-3.043 4.625-3.043 7.32 0 2.982 1.156 5.739 3.291 7.649 2.232 1.986 4.623 2.447 7.461 2.447 1.854 0 2.941-.137 4.756-.667l-.281-2.928c-.402.138-1.701.585-3.566.585m24.365-7.633l-.02-.127a9.837 9.837 0 00-1.471-4.852c-1.68-2.834-4.605-4.365-8.164-4.324-3.555-.041-6.5 1.49-8.188 4.324-.813 1.301-1.391 2.975-1.463 4.852l-.033.127c-.453 6.271 2.898 10.603 8.662 11.088.35.035.682.043 1.012.043.346 0 .678-.008 1.029-.043 5.744-.486 9.129-4.817 8.636-11.088m-9.207 8.177l-.443.021-.428-.021a3.796 3.796 0 01-2.119-.914l-.52-.549c-.883-1.062-1.363-2.911-1.48-4.381-.26-3.396.377-8.346 4.215-8.67l.295-.014.02-.007.064.007.299.014c3.84.324 4.457 5.273 4.197 8.67-.111 1.47-.547 3.256-1.449 4.381l-.52.549c-.617.499-1.332.829-2.131.914"/><circle fill="none" stroke="#313131" cx="247.063" cy="30.477" r="3.083"/><path fill="#0F1131" d="M247.474 30.639c.572-.056.994-.352.994-1.005 0-.745-.443-1.068-1.352-1.068h-1.459v3.682h.566v-1.573h.676l1.01 1.573h.674l-1.109-1.609zm-1.25-.429v-1.146h.785c.414 0 .834.057.834.527 0 .569-.428.618-.922.618h-.697v.001z"/><path d="M150.646 58.684c-1.229.793-2.688 1.188-4.375 1.188-2.281 0-4.123-.795-5.523-2.385s-2.102-3.651-2.102-6.184c0-2.822.756-5.09 2.266-6.803s3.525-2.57 6.047-2.57c1.406 0 2.646.281 3.719.838v2.812c-1.188-.893-2.459-1.34-3.813-1.34-1.635 0-2.977.629-4.023 1.885-1.047 1.254-1.57 2.903-1.57 4.944 0 2.008.492 3.594 1.477 4.752.984 1.161 2.305 1.741 3.961 1.741 1.396 0 2.709-.495 3.938-1.488v2.61zm9.666 1.189c-2.365 0-4.252-.801-5.664-2.4-1.412-1.603-2.117-3.725-2.117-6.368 0-2.88.734-5.128 2.203-6.745 1.469-1.616 3.453-2.428 5.953-2.428 2.385 0 4.248.787 5.586 2.361 1.338 1.572 2.008 3.755 2.008 6.543 0 2.735-.721 4.923-2.164 6.568s-3.378 2.469-5.805 2.469zm.187-15.632c-1.646 0-2.947.601-3.906 1.801-.959 1.199-1.438 2.853-1.438 4.961 0 2.031.484 3.631 1.453 4.804.969 1.171 2.266 1.757 3.891 1.757 1.656 0 2.93-.574 3.82-1.723.891-1.149 1.336-2.785 1.336-4.905 0-2.141-.445-3.792-1.336-4.953-.89-1.161-2.164-1.742-3.82-1.742zm23.762 15.064h-2.563v-9.774c0-3.635-1.24-5.456-3.719-5.456-1.281 0-2.342.518-3.18 1.549-.84 1.033-1.258 2.335-1.258 3.907v9.774h-2.563V42.167h2.563v2.847h.063c1.207-2.164 2.957-3.247 5.25-3.247 1.75 0 3.088.605 4.016 1.816.926 1.21 1.391 2.959 1.391 5.247v10.475zm16.047 0h-2.563v-9.774c0-3.635-1.24-5.456-3.719-5.456-1.281 0-2.342.518-3.18 1.549-.84 1.033-1.258 2.335-1.258 3.907v9.774h-2.563V42.167h2.563v2.847h.063c1.207-2.164 2.957-3.247 5.25-3.247 1.75 0 3.088.605 4.016 1.816.926 1.21 1.391 2.959 1.391 5.247v10.475zm16.623-7.883h-11.297c.041 1.908.521 3.381 1.438 4.419.916 1.037 2.178 1.556 3.781 1.556 1.803 0 3.459-.636 4.969-1.908v2.578c-1.406 1.093-3.266 1.64-5.578 1.64-2.26 0-4.037-.779-5.328-2.335-1.291-1.557-1.938-3.745-1.938-6.569 0-2.665.705-4.837 2.117-6.517 1.412-1.679 3.164-2.521 5.258-2.521s3.713.729 4.859 2.177c1.146 1.451 1.719 3.464 1.719 6.042v1.438zm-2.625-2.327c-.01-1.582-.367-2.816-1.07-3.696-.703-.883-1.68-1.324-2.93-1.324-1.209 0-2.234.464-3.078 1.39s-1.365 2.137-1.563 3.631h8.641zm17.343 9.589c-1.229.793-2.688 1.188-4.375 1.188-2.281 0-4.123-.795-5.523-2.385s-2.102-3.651-2.102-6.184c0-2.822.756-5.09 2.266-6.803s3.525-2.57 6.047-2.57c1.406 0 2.646.281 3.719.838v2.812c-1.188-.893-2.459-1.34-3.813-1.34-1.635 0-2.977.629-4.023 1.885-1.047 1.254-1.57 2.903-1.57 4.944 0 2.008.492 3.594 1.477 4.752.984 1.161 2.305 1.741 3.961 1.741 1.396 0 2.709-.495 3.938-1.488v2.61zm11.069.288c-.604.355-1.4.534-2.391.534-2.801 0-4.203-1.673-4.203-5.02V44.344h-2.75v-2.343h2.75v-4.184l2.563-.887V42h4.031v2.343h-4.031V54c0 1.148.184 1.97.547 2.461.365.49.969.735 1.813.735.646 0 1.203-.189 1.672-.569v2.345z" fill="#1963A3"/><path fill="#E73D49" d="M63.287 60.34c6.137-1.509 12.452-2.237 18.727-3.115 8.215-.384 16.454-.275 24.674-.06 8.422.741 16.769 1.969 25.047 3.549 15.445 2.881 30.549 7.287 46.227 9.099 3.926.794 7.969.628 11.936 1.172 5.924.218 11.871.818 17.803.24 7.303-.112 14.547-1.076 21.734-2.186 4.254-.695 8.365-2.08 12.711-2.323-8.963 3.569-18.744 4.989-28.385 6.146-7.111 1.201-14.379.5-21.561.666-4.84.21-9.576-.925-14.398-1.029-19.137-2.131-37.379-8.28-56.404-11.015-17.166-2.69-34.854-2.856-52.053-.274-4.553.441-8.984 1.632-13.549 1.97 2.026-1.769 4.891-2.185 7.491-2.84z"/></svg>