<svg width="300" height="122" version="1.0" viewBox="0 0 1200 486" xmlns="http://www.w3.org/2000/svg"><g fill="#009484"><path d="M0 0h675.96c17.67 11.96 32.73 27.28 46.79 43.21 33.11 36.77 62.64 77.72 103.3 106.78 7.15 4.66 14.21 10.51 23.04 11.33-6.29-6.06-13.23-11.53-19.47-17.69-28.3-27.11-52.94-57.66-79.44-86.46-5.82-6.63-12.59-12.42-17.99-19.41 1.68.53 3.3 1.26 4.79 2.23 15.98 10.63 29.99 23.93 42.98 37.98 13.64 15.04 27.52 29.84 41.4 44.66 14.57 15.64 29.65 30.81 45.48 45.18-22.56 2.24-45.31 1.08-67.85-.89-14.2-.54-28.15-3.46-42.08-6.04-15.4-2.48-30.31-7.17-45.23-11.56 2.55 10.39 11.04 17.88 19.85 23.21 14.46 9.18 31.27 15.01 43.51 27.4 8.06 8.01 9.65 20.06 16.78 28.72 18.76-8.36 38.6-14.63 59.06-16.99 19.8-2.12 40.99 2.06 56.89 14.54 12.48 9.71 23.68 21.02 33.57 33.36 10 12.25 18.52 25.58 27.11 38.83 14.92 23.02 29.45 46.32 45.56 68.55 12.48 17.4 25.52 34.4 39.23 50.85.79.9 1.54 1.89 1.62 3.16-2.55-.71-4.09-3.13-6.15-4.63-36.07-32.1-62.3-73.09-89.43-112.57-10.45-15.13-21.17-30.12-32.91-44.29-8.34-9.86-16.58-19.97-26.69-28.08-3.51-2.94-8.02-4.29-12.47-4.94 4.5 9.17 12.12 16.17 18.47 24.01 37.44 44.15 63.66 96.39 99.96 141.39 14.06 17.36 29.49 33.74 47.23 47.4 24.36 19.01 50.24 37.23 79.95 46.76H.02V0m125.1 242.52c-15.3.88-31.45 9.71-36.8 24.72-2.86 7.31-4.21 15.86-.95 23.26 4.43 10.85 11.84 20.08 18.83 29.36 7.3 9.75 15.11 19.21 20.89 29.99 4.13 6.64 3.72 14.96 2.18 22.32-2.78 8.12-8.34 16.56-17.17 18.75-7.21 2.31-15.47 2.09-22.11-1.78-4.8-2.97-7.65-8.08-10.01-13.04-2.64-5.65-2.56-12.02-3.19-18.1-1.51-.21-3.03-.21-4.55-.22-1.43 11.6-3.29 23.15-5.64 34.6 6.05 3.12 12.9 4.2 19.47 5.72 11.79 2.83 24.11 2.65 36.05.98 9.87-1.6 20.29-3.25 28.43-9.54 8.02-5.89 12.82-15.67 12.67-25.62-.15-8.27-.12-17.09-4.48-24.43-8.91-19.1-24.4-33.84-36.38-50.9-2.12-3.42-5.12-6.55-5.66-10.7-1.13-7.81 1.25-15.92 6.31-21.97 2.82-3.23 6.4-6.68 10.98-6.69 6.35-.77 13.47-.2 18.33 4.45 8.41 6.36 11.46 16.89 15.62 26.01l1.28-.27c1.45-10.79 2.78-21.68 3.34-32.52-15.23-5.03-31.56-6.01-47.44-4.38m492.1.38c-3.23 7.38-7.34 14.35-10.92 21.57-19.29 37.23-38.41 74.54-58.46 111.37-4.6 8.1-13.22 13.47-22.37 14.75-.21 2.08-.39 4.16-.45 6.25 13.06-.19 26.14.08 39.2-.26.11-2.03.28-4.06.51-6.08-3.71.61-7.26-2.01-8.2-5.55-1.4-4.41 1.54-8.46 3.42-12.21 3.84-6.39 6.57-13.52 10.77-19.62 16.49-.09 32.99-.08 49.48-.11 1.45 10.62 3.13 21.34 2.38 32.1-.05 1.8-.67 3.96-2.55 4.61-3.21 1.1-6.61.12-9.9.43-.21 2.17-.28 4.36-.39 6.54 18.86.04 37.72.16 56.57-.06.39-2.01.79-4.01 1.18-6.01-4.37-1.64-10.61-1.22-12.97-6.02-2.8-4.68-3.46-10.18-4.16-15.48-1.66-13.4-3.14-26.83-5.48-40.14-2.38-12.54-3.14-25.31-5.54-37.85-3.05-16.01-4.35-32.28-7.28-48.31-4.95-.16-9.9-.25-14.84.08m-148.59 30.03c2.72.52 5.39 1.25 8.1 1.81-.72 2.57-2.57 4.75-4.42 6.65-9.89 9.76-20.05 19.24-30.05 28.88-3.26 3.21-6.4 6.67-10.42 8.93 2.5-12.89 3.62-26.03 6.77-38.8.75-2.27 1.59-5.46 4.39-5.84 3.27-.61 6.56-1.1 9.85-1.55.35-2.17.75-4.33 1.16-6.48-17.87.05-35.74.02-53.61.02-.02 2.31-.02 4.63 0 6.94 3.72.6 7.5.91 11.18 1.83.81 8.75-2.25 17.18-2.88 25.83-1.7 10.31-4.01 20.52-5.66 30.84-1.6 14.14-5.38 27.92-7.24 42.02-.75 5.49-1.05 12.15-6.1 15.59-3.27.94-6.71.39-10.05.75-.41 2.11-.81 4.24-1.16 6.37 17.97.01 35.94.06 53.91-.02.22-2.21.54-4.41.7-6.62-3.63.02-7.31.43-10.88-.46-2.38-3.15-1.22-7.16-1-10.74 1.43-11.41 4.12-22.61 6.07-33.93.87-4.97 1.13-10.02 2.12-14.97 1.02 1.27 1.97 2.61 2.79 4.03 9.97 17.75 19.84 35.58 29.36 53.58 2.73 4.4 6.83 9 12.43 9.07 10.01.2 20.02.18 30.03-.07.16-.65.33-1.29.51-1.93-4.36-2.3-9.59-3.32-12.98-7.16-10.06-10.05-15.44-23.39-22.38-35.54-5.99-11.23-12.44-22.27-17.89-33.74 14.01-13.95 26.45-29.5 41.68-42.19 2.99-2.04 6.7-2.4 10.16-3.05.6-2.3.82-4.67 1.14-7.01-11.49-.05-22.98.02-34.47.01-.69 2.25-.92 4.61-1.16 6.95m239.68.52c4.23.56 8.46 1.19 12.7 1.78-.8 14.79-4.44 29.24-6.82 43.81-1.84 15.44-5.88 30.52-7.72 45.95-1.74 7.58-2 15.7-5.84 22.64-3.08 4.15-8.88 1.91-13.21 2.53-.28 2.2-.53 4.41-.76 6.61 17.68.1 35.36.07 53.04.02.43-2.23.98-4.43 1.35-6.66-3-.35-6.06.02-9.01-.59-1.99-.58-4.57-2.05-4.01-4.5.29-8.86 3.31-17.33 4.3-26.1 1.5-12.75 4.62-25.23 6.66-37.89 1.56-12.95 4.68-25.64 6.75-38.5.57-2.57.73-6.05 3.44-7.36 4.28-1.29 8.81-1.46 13.22-2.13.45-2.32.83-4.67.62-7.03-17.36-.06-34.72-.15-52.08-.01-1.49 2.11-1.84 4.97-2.63 7.43m78.53-7.03c-.58 2.3-1.14 4.6-1.64 6.92 4.21-.02 8.51-.31 12.62.84.41 14.88-4.81 29.06-6.5 43.7-1.67 13.98-5.45 27.6-6.97 41.6-2.25 9.4-2.42 19.41-6.55 28.28-3.35 3.61-8.75 2.04-13.07 2.31-.56 2.21-.86 4.47-1.23 6.72 17.84.06 35.68.05 53.52 0 .67-2.01.27-4.44.63-6.59-3.78-.84-9.6.81-11.39-3.68-1.48-5.48.23-11.18 1.1-16.64 2-10.32 3.59-20.7 5.17-31.09 3.72-.08 7.47-.36 11.19-.08 3.98 7.23 6.59 15.08 9.65 22.72 3.99 9.06 5.87 19 10.84 27.65 3.1 3.99 7.47 7.75 12.81 7.72 10.5.09 21 .12 31.51.13.46-2.1.64-4.25.87-6.38-6.89-1.11-15.02-2.42-19.19-8.71-5.79-11.22-10.85-22.82-15.37-34.61-1.8-4.33-4.17-8.51-4.93-13.18 8.22-1.94 16.24-5.83 21.81-12.34 4.11-4.7 6.05-10.81 7.49-16.78 2.08-9.29 1.43-19.85-4.42-27.7-6.39-7.89-16.96-10.73-26.74-10.88-20.4.02-40.81-.11-61.21.07m-575.88.12c-.63 2.32-1.25 4.64-1.82 6.98 4.09.83 8.31.96 12.36 2.04.08.6.25 1.79.33 2.39-1.75 14.77-5.11 29.3-7.48 43.98-1.79 15.18-5.88 29.97-7.61 45.16-1.65 7.55-2.18 15.64-6.4 22.34-4.04.81-8.16.65-12.24.66-.35 2.31-.81 4.59-1.25 6.89 17.77.68 35.55.35 53.33.26.51-2.34.94-4.69 1.37-7.03-3.39-.14-6.86.23-10.19-.52-2.15-1.4-2.84-4.17-2.51-6.58.9-7.77 2.79-15.37 4.07-23.08 1.53-11.77 3.98-23.4 6.14-35.06 1.5-14.54 5.41-28.68 7.31-43.15.44-2.3.93-4.95 3-6.38 4.19-1.63 8.78-1.3 13.17-1.94.51-2.31.95-4.64 1.52-6.94-17.7-.02-35.4-.17-53.1-.02m78.5.15c-.12 2.19-.15 4.39.25 6.56 3.55 1.02 7.43.55 10.79 2.3 1.46 5.19-.6 10.42-1.28 15.55-1.53 13.77-4.96 27.24-7.03 40.93-1.86 15.12-5.94 29.89-7.54 45.06-.78 3.96-1.33 8.34-4.2 11.42-3.12 2.87-7.68 1.28-11.45 1.58-.4 2.38-.87 4.76-1.23 7.15 16.77.2 33.55-.01 50.33.12 14.26-.82 28.55-.63 42.84-.54 2.41-9.17 3.84-18.6 6.8-27.62-2.56-.25-5.16-.17-7.65.48-2.26 2.69-3.15 6.2-5.16 9.04-4.08 5-9.32 9.57-15.8 10.94-6.68.89-13.41.38-20.11.4-3.86.02-8.87-1.68-9.39-6.12 1.07-18.27 6.63-35.88 8.72-54.02 2.22-12.3 5.15-24.48 6.74-36.88 1.17-5.62 1.46-11.67 4.45-16.7 3.3-3.24 8.29-1.79 12.32-3.08.36-2.26.92-4.47 1.45-6.69-17.95-.09-35.91-.17-53.85.12zM689.36 2.52c.06.02.17.05.23.07-.06-.02-.17-.05-.23-.07zm6.96 1.97zm7 2.01c.09.02.26.08.35.1-.09-.02-.26-.08-.35-.1zm15.06 4.98l.24.08-.24-.08zm2.83.98zm2.93 1.01c.16.06.48.17.64.23-.16-.06-.48-.17-.64-.23zm5.23 1.96c.07.03.2.08.27.11-.07-.03-.2-.08-.27-.11zm71.01 35.01c.06.03.17.11.23.14-.06-.03-.17-.11-.23-.14zm8.99 5.96c.07.05.21.14.27.18-.06-.04-.2-.13-.27-.18zm2.99 2.01l.27.19-.27-.19zm55.01 48.03c.04.05.13.15.17.2-.04-.05-.13-.15-.17-.2zm144.03 162.93z"/><path d="M823.91 274.47c6.03-.66 12.23-.93 18.21.36 6.18.86 11.23 5.85 13.2 11.62 1.22 3.42.72 7.12.29 10.63-1.13 7.95-2.89 15.92-6.45 23.16-2.97 5.95-9.54 9.74-16.14 9.74-6.08.07-12.17-.03-18.25-.03.88-5.04 2.13-10.02 2.61-15.12 1.54-13.56 5.45-26.74 6.53-40.36zm-213.37 4.09c.54-.75.71-1.98 1.69-2.3 1.73 16.61 3.91 33.17 4.81 49.84.61 5.55 1.15 11.11 1.76 16.67-14.33.05-28.66.08-42.99-.03 10.46-21.93 22.98-42.89 34.73-64.18zm507.86 180.83c.04.05.11.17.15.23-.04-.06-.11-.18-.15-.23zm10 15.01c.04.06.13.18.17.24-.04-.06-.13-.18-.17-.24zm2 2.98zm5 7.17l.17.21-.17-.21z"/></g><g fill="#fff"><path d="M675.96 0h5.58c2.54 1.03 5.21 1.67 7.82 2.52.06.02.17.05.23.07 2.24.64 4.48 1.26 6.73 1.9.09.03.27.08.36.1 2.22.6 4.43 1.24 6.64 1.91.09.02.26.08.35.1 4.99 1.35 9.85 3.12 14.71 4.88l.24.08c.65.23 1.94.68 2.59.9.15.05.46.16.62.22.57.2 1.73.59 2.31.79.16.06.48.17.64.23 1.55.54 3.05 1.13 4.59 1.73.07.03.2.08.27.11 24.7 9.15 48.36 21.03 70.74 34.9.06.03.17.11.23.14 2.93 1.91 5.89 3.8 8.76 5.82.07.05.21.14.27.18.68.46 2.04 1.38 2.72 1.83l.27.19c13.35 9.73 26.74 19.53 38.83 30.83 5.62 5.36 10.66 11.28 15.91 17.01.04.05.13.15.17.2 11.23 13.31 22.11 27.03 34.91 38.9 12.62 10.88 27.01 20.63 43.53 24.22 17.52 3.28 35.85-1.27 53.14 3.89 13.86 6.52 25.15 17.27 35.36 28.46-12.17-.26-24.4-.01-36.42 1.86-12.68 1.14-25.58 4.21-36.24 11.47 9.27 8.97 19.06 17.44 27.76 27.01 7.73 8.58 15.7 17.09 21.85 26.92.04.06.12.18.16.25 37.66 62.09 67.47 128.67 106.83 189.77.04.05.11.17.15.23 3.16 5 6.44 9.92 9.82 14.78.04.06.13.18.17.24.46.69 1.38 2.06 1.85 2.74.04.06.12.18.16.25 1.6 2.29 3.2 4.6 4.78 6.92l.17.21 1.22 1.24h-3.92c-29.71-9.53-55.59-27.75-79.95-46.76-17.74-13.66-33.17-30.04-47.23-47.4-36.3-45-62.52-97.24-99.96-141.39-6.35-7.84-13.97-14.84-18.47-24.01 4.45.65 8.96 2 12.47 4.94 10.11 8.11 18.35 18.22 26.69 28.08 11.74 14.17 22.46 29.16 32.91 44.29 27.13 39.48 53.36 80.47 89.43 112.57 2.06 1.5 3.6 3.92 6.15 4.63-.08-1.27-.83-2.26-1.62-3.16-13.71-16.45-26.75-33.45-39.23-50.85-16.11-22.23-30.64-45.53-45.56-68.55-8.59-13.25-17.11-26.58-27.11-38.83-9.89-12.34-21.09-23.65-33.57-33.36-15.9-12.48-37.09-16.66-56.89-14.54-20.46 2.36-40.3 8.63-59.06 16.99-7.13-8.66-8.72-20.71-16.78-28.72-12.24-12.39-29.05-18.22-43.51-27.4-8.81-5.33-17.3-12.82-19.85-23.21 14.92 4.39 29.83 9.08 45.23 11.56 13.93 2.58 27.88 5.5 42.08 6.04 22.54 1.97 45.29 3.13 67.85.89-15.83-14.37-30.91-29.54-45.48-45.18-13.88-14.82-27.76-29.62-41.4-44.66-12.99-14.05-27-27.35-42.98-37.98-1.49-.97-3.11-1.7-4.79-2.23 5.4 6.99 12.17 12.78 17.99 19.41 26.5 28.8 51.14 59.35 79.44 86.46 6.24 6.16 13.18 11.63 19.47 17.69-8.83-.82-15.89-6.67-23.04-11.33-40.66-29.06-70.19-70.01-103.3-106.78C708.69 27.28 693.63 11.96 675.96 0zM125.1 242.52c15.88-1.63 32.21-.65 47.44 4.38-.56 10.84-1.89 21.73-3.34 32.52l-1.28.27c-4.16-9.12-7.21-19.65-15.62-26.01-4.86-4.65-11.98-5.22-18.33-4.45-4.58.01-8.16 3.46-10.98 6.69-5.06 6.05-7.44 14.16-6.31 21.97.54 4.15 3.54 7.28 5.66 10.7 11.98 17.06 27.47 31.8 36.38 50.9 4.36 7.34 4.33 16.16 4.48 24.43.15 9.95-4.65 19.73-12.67 25.62-8.14 6.29-18.56 7.94-28.43 9.54-11.94 1.67-24.26 1.85-36.05-.98-6.57-1.52-13.42-2.6-19.47-5.72 2.35-11.45 4.21-23 5.64-34.6 1.52.01 3.04.01 4.55.22.63 6.08.55 12.45 3.19 18.1 2.36 4.96 5.21 10.07 10.01 13.04 6.64 3.87 14.9 4.09 22.11 1.78 8.83-2.19 14.39-10.63 17.17-18.75 1.54-7.36 1.95-15.68-2.18-22.32-5.78-10.78-13.59-20.24-20.89-29.99-6.99-9.28-14.4-18.51-18.83-29.36-3.26-7.4-1.91-15.95.95-23.26 5.35-15.01 21.5-23.84 36.8-24.72zm492.1.38c4.94-.33 9.89-.24 14.84-.08 2.93 16.03 4.23 32.3 7.28 48.31 2.4 12.54 3.16 25.31 5.54 37.85 2.34 13.31 3.82 26.74 5.48 40.14.7 5.3 1.36 10.8 4.16 15.48 2.36 4.8 8.6 4.38 12.97 6.02-.39 2-.79 4-1.18 6.01-18.85.22-37.71.1-56.57.06.11-2.18.18-4.37.39-6.54 3.29-.31 6.69.67 9.9-.43 1.88-.65 2.5-2.81 2.55-4.61.75-10.76-.93-21.48-2.38-32.1-16.49.03-32.99.02-49.48.11-4.2 6.1-6.93 13.23-10.77 19.62-1.88 3.75-4.82 7.8-3.42 12.21.94 3.54 4.49 6.16 8.2 5.55-.23 2.02-.4 4.05-.51 6.08-13.06.34-26.14.07-39.2.26.06-2.09.24-4.17.45-6.25 9.15-1.28 17.77-6.65 22.37-14.75 20.05-36.83 39.17-74.14 58.46-111.37 3.58-7.22 7.69-14.19 10.92-21.57m-6.66 35.66c-11.75 21.29-24.27 42.25-34.73 64.18 14.33.11 28.66.08 42.99.03-.61-5.56-1.15-11.12-1.76-16.67-.9-16.67-3.08-33.23-4.81-49.84-.98.32-1.15 1.55-1.69 2.3zm-141.93-5.63c.24-2.34.47-4.7 1.16-6.95 11.49.01 22.98-.06 34.47-.01-.32 2.34-.54 4.71-1.14 7.01-3.46.65-7.17 1.01-10.16 3.05-15.23 12.69-27.67 28.24-41.68 42.19 5.45 11.47 11.9 22.51 17.89 33.74 6.94 12.15 12.32 25.49 22.38 35.54 3.39 3.84 8.62 4.86 12.98 7.16-.18.64-.35 1.28-.51 1.93-10.01.25-20.02.27-30.03.07-5.6-.07-9.7-4.67-12.43-9.07-9.52-18-19.39-35.83-29.36-53.58-.82-1.42-1.77-2.76-2.79-4.03-.99 4.95-1.25 10-2.12 14.97-1.95 11.32-4.64 22.52-6.07 33.93-.22 3.58-1.38 7.59 1 10.74 3.57.89 7.25.48 10.88.46-.16 2.21-.48 4.41-.7 6.62-17.97.08-35.94.03-53.91.02.35-2.13.75-4.26 1.16-6.37 3.34-.36 6.78.19 10.05-.75 5.05-3.44 5.35-10.1 6.1-15.59 1.86-14.1 5.64-27.88 7.24-42.02 1.65-10.32 3.96-20.53 5.66-30.84.63-8.65 3.69-17.08 2.88-25.83-3.68-.92-7.46-1.23-11.18-1.83-.02-2.31-.02-4.63 0-6.94 17.87 0 35.74.03 53.61-.02-.41 2.15-.81 4.31-1.16 6.48-3.29.45-6.58.94-9.85 1.55-2.8.38-3.64 3.57-4.39 5.84-3.15 12.77-4.27 25.91-6.77 38.8 4.02-2.26 7.16-5.72 10.42-8.93 10-9.64 20.16-19.12 30.05-28.88 1.85-1.9 3.7-4.08 4.42-6.65-2.71-.56-5.38-1.29-8.1-1.81zm239.68.52c.79-2.46 1.14-5.32 2.63-7.43 17.36-.14 34.72-.05 52.08.01.21 2.36-.17 4.71-.62 7.03-4.41.67-8.94.84-13.22 2.13-2.71 1.31-2.87 4.79-3.44 7.36-2.07 12.86-5.19 25.55-6.75 38.5-2.04 12.66-5.16 25.14-6.66 37.89-.99 8.77-4.01 17.24-4.3 26.1-.56 2.45 2.02 3.92 4.01 4.5 2.95.61 6.01.24 9.01.59-.37 2.23-.92 4.43-1.35 6.66-17.68.05-35.36.08-53.04-.02.23-2.2.48-4.41.76-6.61 4.33-.62 10.13 1.62 13.21-2.53 3.84-6.94 4.1-15.06 5.84-22.64 1.84-15.43 5.88-30.51 7.72-45.95 2.38-14.57 6.02-29.02 6.82-43.81-4.24-.59-8.47-1.22-12.7-1.78z"/><path d="M786.82 266.42c20.4-.18 40.81-.05 61.21-.07 9.78.15 20.35 2.99 26.74 10.88 5.85 7.85 6.5 18.41 4.42 27.7-1.44 5.97-3.38 12.08-7.49 16.78-5.57 6.51-13.59 10.4-21.81 12.34.76 4.67 3.13 8.85 4.93 13.18 4.52 11.79 9.58 23.39 15.37 34.61 4.17 6.29 12.3 7.6 19.19 8.71-.23 2.13-.41 4.28-.87 6.38-10.51-.01-21.01-.04-31.51-.13-5.34.03-9.71-3.73-12.81-7.72-4.97-8.65-6.85-18.59-10.84-27.65-3.06-7.64-5.67-15.49-9.65-22.72-3.72-.28-7.47 0-11.19.08-1.58 10.39-3.17 20.77-5.17 31.09-.87 5.46-2.58 11.16-1.1 16.64 1.79 4.49 7.61 2.84 11.39 3.68-.36 2.15.04 4.58-.63 6.59-17.84.05-35.68.06-53.52 0 .37-2.25.67-4.51 1.23-6.72 4.32-.27 9.72 1.3 13.07-2.31 4.13-8.87 4.3-18.88 6.55-28.28 1.52-14 5.3-27.62 6.97-41.6 1.69-14.64 6.91-28.82 6.5-43.7-4.11-1.15-8.41-.86-12.62-.84.5-2.32 1.06-4.62 1.64-6.92m37.09 8.05c-1.08 13.62-4.99 26.8-6.53 40.36-.48 5.1-1.73 10.08-2.61 15.12 6.08 0 12.17.1 18.25.03 6.6 0 13.17-3.79 16.14-9.74 3.56-7.24 5.32-15.21 6.45-23.16.43-3.51.93-7.21-.29-10.63-1.97-5.77-7.02-10.76-13.2-11.62-5.98-1.29-12.18-1.02-18.21-.36zm-612.97-7.93c17.7-.15 35.4 0 53.1.02-.57 2.3-1.01 4.63-1.52 6.94-4.39.64-8.98.31-13.17 1.94-2.07 1.43-2.56 4.08-3 6.38-1.9 14.47-5.81 28.61-7.31 43.15-2.16 11.66-4.61 23.29-6.14 35.06-1.28 7.71-3.17 15.31-4.07 23.08-.33 2.41.36 5.18 2.51 6.58 3.33.75 6.8.38 10.19.52-.43 2.34-.86 4.69-1.37 7.03-17.78.09-35.56.42-53.33-.26.44-2.3.9-4.58 1.25-6.89 4.08-.01 8.2.15 12.24-.66 4.22-6.7 4.75-14.79 6.4-22.34 1.73-15.19 5.82-29.98 7.61-45.16 2.37-14.68 5.73-29.21 7.48-43.98-.08-.6-.25-1.79-.33-2.39-4.05-1.08-8.27-1.21-12.36-2.04.57-2.34 1.19-4.66 1.82-6.98zm78.5.15c17.94-.29 35.9-.21 53.85-.12-.53 2.22-1.09 4.43-1.45 6.69-4.03 1.29-9.02-.16-12.32 3.08-2.99 5.03-3.28 11.08-4.45 16.7-1.59 12.4-4.52 24.58-6.74 36.88-2.09 18.14-7.65 35.75-8.72 54.02.52 4.44 5.53 6.14 9.39 6.12 6.7-.02 13.43.49 20.11-.4 6.48-1.37 11.72-5.94 15.8-10.94 2.01-2.84 2.9-6.35 5.16-9.04 2.49-.65 5.09-.73 7.65-.48-2.96 9.02-4.39 18.45-6.8 27.62-14.29-.09-28.58-.28-42.84.54-16.78-.13-33.56.08-50.33-.12.36-2.39.83-4.77 1.23-7.15 3.77-.3 8.33 1.29 11.45-1.58 2.87-3.08 3.42-7.46 4.2-11.42 1.6-15.17 5.68-29.94 7.54-45.06 2.07-13.69 5.5-27.16 7.03-40.93.68-5.13 2.74-10.36 1.28-15.55-3.36-1.75-7.24-1.28-10.79-2.3-.4-2.17-.37-4.37-.25-6.56z"/></g><path d="M681.54 0H1200v486h-63.26l-1.22-1.24-.17-.21c-1.58-2.32-3.18-4.63-4.78-6.92-.04-.07-.12-.19-.16-.25-.47-.68-1.39-2.05-1.85-2.74-.04-.06-.13-.18-.17-.24-3.38-4.86-6.66-9.78-9.82-14.78-.04-.06-.11-.18-.15-.23-39.36-61.1-69.17-127.68-106.83-189.77-.04-.07-.12-.19-.16-.25-6.15-9.83-14.12-18.34-21.85-26.92-8.7-9.57-18.49-18.04-27.76-27.01 10.66-7.26 23.56-10.33 36.24-11.47 12.02-1.87 24.25-2.12 36.42-1.86-10.21-11.19-21.5-21.94-35.36-28.46-17.29-5.16-35.62-.61-53.14-3.89-16.52-3.59-30.91-13.34-43.53-24.22-12.8-11.87-23.68-25.59-34.91-38.9-.04-.05-.13-.15-.17-.2-5.25-5.73-10.29-11.65-15.91-17.01-12.09-11.3-25.48-21.1-38.83-30.83l-.27-.19c-.68-.45-2.04-1.37-2.72-1.83-.06-.04-.2-.13-.27-.18-2.87-2.02-5.83-3.91-8.76-5.82-.06-.03-.17-.11-.23-.14-22.38-13.87-46.04-25.75-70.74-34.9-.07-.03-.2-.08-.27-.11-1.54-.6-3.04-1.19-4.59-1.73-.16-.06-.48-.17-.64-.23-.58-.2-1.74-.59-2.31-.79-.16-.06-.47-.17-.62-.22-.65-.22-1.94-.67-2.59-.9l-.24-.08c-4.86-1.76-9.72-3.53-14.71-4.88-.09-.02-.26-.08-.35-.1-2.21-.67-4.42-1.31-6.64-1.91-.09-.02-.27-.07-.36-.1-2.25-.64-4.49-1.26-6.73-1.9-.06-.02-.17-.05-.23-.07-2.61-.85-5.28-1.49-7.82-2.52z" fill="#00246a"/></svg>