<svg viewBox="0 0 150 34.795" xmlns="http://www.w3.org/2000/svg"><path d="M27.869.046H46.63c-2.9 11.588-5.689 23.209-8.598 34.795H0v-.362l.003.354A12582.345 12582.345 0 0127.869.046m-2.104 6.705c.004 2.492-.006 4.987.006 7.48-2.483.006-4.967-.006-7.451.006.013 2.139.013 4.275 0 6.413 2.484.013 4.968 0 7.451.007-.012 2.492-.002 4.988-.006 7.48 2.157.012 4.311.006 6.467.003-.012-2.495 0-4.991-.006-7.486 2.493 0 4.985.003 7.479 0-.004-2.139-.004-4.28 0-6.422-2.493 0-4.985 0-7.479.003.006-2.496-.006-4.991.006-7.486-2.156-.005-4.311-.012-6.467.002zm26.996 1.067c1.969-1.71 4.707-2.157 7.232-2.073 2.334.102 4.871.705 6.461 2.543.98 1.077 1.32 2.541 1.431 3.954-1.836.015-3.668.009-5.504.003-.099-1.011-.621-2.061-1.659-2.369-1.353-.385-3.177-.328-4.037.959-.627 1.053.035 2.379 1.079 2.854 2.931 1.494 6.558 1.755 8.962 4.193 2.316 2.696 1.836 7.346-1.008 9.504-2.02 1.6-4.727 1.963-7.227 1.824-2.352-.149-4.864-.766-6.529-2.547-1.137-1.191-1.602-2.861-1.578-4.48 1.83-.004 3.663 0 5.492 0 .141.744.309 1.542.882 2.085.906.936 2.325 1.063 3.545.882 1.233-.201 2.31-1.335 2.202-2.625-.033-.882-.747-1.535-1.479-1.92-2.512-1.337-5.553-1.48-7.869-3.227-3.007-2.151-3.218-7.166-.396-9.56zm61.809.021c1.885-1.662 4.506-2.127 6.943-2.108 2.357.075 4.93.585 6.615 2.373 1.082 1.089 1.502 2.637 1.596 4.134-1.84.021-3.676.023-5.514 0-.104-.951-.537-1.965-1.506-2.301-1.221-.42-2.748-.411-3.789.438-.83.682-.816 2.043-.09 2.795.771.793 1.879 1.084 2.896 1.407 2.088.642 4.275 1.212 6.059 2.535 3.109 2.271 3.088 7.421.266 9.917-1.992 1.826-4.838 2.307-7.451 2.198-2.438-.126-5.086-.718-6.803-2.593-1.137-1.179-1.58-2.847-1.584-4.45 1.836-.003 3.676 0 5.512-.003.158.731.287 1.525.859 2.061 1.057 1.08 2.791 1.186 4.154.741 1.488-.511 2.23-2.654.98-3.783-1.221-1.05-2.85-1.405-4.34-1.901-2.064-.6-4.283-1.354-5.609-3.16-1.758-2.46-1.518-6.273.806-8.3zm19.98-.111c2.24-1.817 5.307-2.184 8.096-1.905 2.133.198 4.387.966 5.729 2.729.838 1.045 1.119 2.392 1.219 3.689-1.828.018-3.654-.003-5.48.012-.184-.666-.293-1.425-.867-1.884-1.025-.852-2.543-.846-3.752-.438-.98.322-1.596 1.438-1.266 2.437.326 1.054 1.418 1.56 2.381 1.896 2.379.805 4.941 1.312 7.006 2.826 3.143 2.256 3.121 7.463.277 9.957-1.932 1.761-4.674 2.256-7.209 2.188-2.4-.099-4.982-.604-6.777-2.321-1.295-1.203-1.863-3-1.838-4.732 1.832.003 3.664.003 5.494 0 .145 1.173.76 2.359 1.932 2.773 1.404.465 3.281.438 4.242-.863.785-.967.566-2.531-.52-3.183-2.643-1.704-6.107-1.653-8.574-3.705-2.857-2.26-2.915-7.164-.093-9.476zM68.603 6.265c1.893-.004 3.785.006 5.678-.006 1.252 4.957 2.506 9.916 3.713 14.887 1.469-4.955 2.885-9.926 4.35-14.885 1.867.004 3.736.004 5.605.004 1.479 4.939 2.828 9.922 4.383 14.841 1.146-4.961 2.451-9.886 3.65-14.835 1.896-.01 3.801-.01 5.697-.003-2.062 7.438-4.098 14.883-6.182 22.313-1.982-.003-3.963-.007-5.945 0a1414.523 1414.523 0 01-4.391-15.25c-1.518 5.069-2.932 10.172-4.426 15.247-1.977.003-3.955-.013-5.933.009-2.133-7.42-4.094-14.894-6.199-22.322zM103.9 28.581c-.021-7.438-.002-14.878-.008-22.316h5.791c-.006 7.438.012 14.877-.01 22.313-1.923 0-3.849-.004-5.773.003z" fill="#E60005"/><path d="M25.765 6.751c2.157-.013 4.311-.007 6.467-.004-.012 2.496 0 4.991-.006 7.487 2.493-.003 4.985-.003 7.479-.003-.004 2.143-.004 4.284 0 6.422-2.493.003-4.985 0-7.479 0 .006 2.495-.006 4.991.006 7.486-2.156.003-4.311.009-6.467-.004.004-2.491-.006-4.987.006-7.479-2.483-.007-4.967.006-7.451-.007.013-2.139.013-4.273 0-6.413 2.484-.012 4.968 0 7.451-.006-.012-2.492-.002-4.988-.006-7.479z" fill="#fff"/></svg>