<svg viewBox="0 0 892.91 204.09" xmlns="http://www.w3.org/2000/svg"><defs><clipPath id="a"><path d="M297.64 0h297.64v595.27H297.64V0z"/></clipPath></defs><g clip-path="url(#a)" transform="matrix(6.5048 0 0 -6.5048 -2798.359 367.63)"><path d="M476 36.693a7.902 7.902 0 011.816-.99 5.615 5.615 0 012.018-.358c.785 0 1.39.157 1.817.47.425.313.638.749.638 1.307 0 .34-.047.634-.14.879a1.839 1.839 0 01-.459.673 3.79 3.79 0 01-.838.582 31.25 31.25 0 01-1.258.623 16.23 16.23 0 00-1.508.786 4.914 4.914 0 00-1.138.909 3.533 3.533 0 00-.719 1.194c-.166.456-.249 1.003-.249 1.643 0 .668.119 1.262.36 1.787.239.524.575.967 1.008 1.327a4.51 4.51 0 001.557.827c.605.191 1.281.285 2.027.285.758 0 1.463-.094 2.116-.285.652-.191 1.204-.435 1.657-.735l-.5-2.491a6.257 6.257 0 01-1.447.858 4.435 4.435 0 01-1.767.347c-.639 0-1.165-.151-1.577-.45-.413-.299-.619-.708-.619-1.225 0-.312.05-.578.149-.796.101-.217.247-.416.44-.592a3.5 3.5 0 01.729-.5c.292-.157.632-.324 1.018-.501a35.9 35.9 0 001.577-.775c.493-.26.918-.563 1.278-.909.36-.347.645-.752.859-1.215.213-.463.319-1.029.319-1.695 0-1.484-.486-2.632-1.457-3.441-.973-.809-2.317-1.215-4.034-1.215-.838 0-1.594.113-2.266.337a8.148 8.148 0 00-1.727.786l.32 2.553zm10.33 7.514h2.655v-7.288c0-.559.108-.991.32-1.297.214-.306.552-.461 1.017-.461.414 0 .757.129 1.03.389.272.259.522.606.748 1.042v7.615h2.616V33.262h-2.536v1.329a5.33 5.33 0 00-.39-.521 2.989 2.989 0 00-1.278-.899 2.627 2.627 0 00-.927-.153c-.586 0-1.086.089-1.498.265a2.503 2.503 0 00-1.008.767c-.26.333-.45.734-.569 1.203-.119.471-.18.992-.18 1.563v7.391zm10.02 0h2.536v-1.306c.094.163.22.336.381.521.158.184.344.354.557.51.212.157.456.285.729.388.274.102.581.153.928.153 1.172 0 2.008-.344 2.507-1.031.5-.688.748-1.61.748-2.766v-7.414h-2.655v7.312c0 .557-.107.989-.32 1.295-.212.307-.552.46-1.018.46-.414 0-.755-.129-1.027-.388-.274-.258-.524-.605-.75-1.042v-7.637h-2.616v10.945zm10.12 4.186h8.206l-.1-2.348h-5.311v-3.756h4.333V39.94h-4.333v-4.329h5.67v-2.349h-8.465v15.131zm9.25-15.131a131.42 131.42 0 001.698 2.921c.265.435.542.878.827 1.327.287.45.563.885.829 1.308-.292.449-.576.905-.847 1.367-.272.464-.544.919-.809 1.369-.267.435-.521.877-.758 1.327-.241.449-.488.891-.741 1.326h2.977l.657-1.286.459-.877c.174-.327.353-.641.54-.94.173.273.365.585.578.94.214.354.399.667.559.938.122.192.234.388.341.593.106.204.22.415.34.632h2.795c-.269-.462-.523-.905-.768-1.326-.248-.422-.502-.858-.769-1.306-.254-.423-.517-.855-.789-1.298-.274-.442-.542-.86-.809-1.255l.848-1.39c.299-.488.583-.973.85-1.449.265-.476.535-.951.807-1.43.273-.476.548-.972.829-1.491h-2.975l-.838 1.533-1.059 1.857-1.058-1.775a29.234 29.234 0 01-.917-1.615h-2.797zm10.6 10.945h2.615v-.795c.241.3.55.552.927.755.382.204.825.306 1.329.306 1.225 0 2.187-.473 2.885-1.418.7-.947 1.047-2.352 1.047-4.217 0-1.96-.347-3.42-1.047-4.38-.698-.96-1.626-1.44-2.785-1.44-.346 0-.643.04-.898.122a3.304 3.304 0 00-.672.297c-.19.116-.35.245-.477.388a3.563 3.563 0 00-.309.399v-5.431h-2.615v15.414zm2.615-8.104a2.75 2.75 0 01.63-.676c.272-.217.593-.326.969-.326.518 0 .967.288 1.347.867.377.579.569 1.494.569 2.746 0 1.321-.186 2.268-.559 2.84-.374.571-.846.857-1.417.857-.387 0-.703-.102-.95-.307a3.84 3.84 0 01-.589-.59v-5.411zm7.365 8.104h2.537v-1.713c.119.243.263.479.43.703a2.696 2.696 0 001.357 1.001c.299.102.64.152 1.028.152.267 0 .499-.02.698-.061l-.239-2.245a2.084 2.084 0 01-.289.06 2.736 2.736 0 01-.371.021c-.572 0-1.065-.126-1.476-.379-.413-.251-.766-.682-1.058-1.296v-7.188H536.3v10.945zm14.26-10.189c-.347-.299-.783-.54-1.308-.725-.527-.183-1.208-.276-2.047-.276-.717 0-1.376.137-1.978.41a4.327 4.327 0 00-1.536 1.164 5.404 5.404 0 00-.987 1.806 7.28 7.28 0 00-.352 2.317c0 1.824.388 3.24 1.161 4.248.769 1.006 1.823 1.51 3.153 1.51 1.332 0 2.333-.432 3.006-1.296s1.009-2.031 1.009-3.502c0-.245-.009-.498-.02-.756a5.025 5.025 0 00-.062-.612h-5.608c.012-.463.098-.885.258-1.265.16-.383.369-.712.629-.991.258-.279.555-.496.889-.654a2.46 2.46 0 011.058-.235c1.01 0 1.864.335 2.555 1.002l.18-2.145zm-2.436 6.126c-.041 1.647-.525 2.471-1.458 2.471-.452 0-.829-.197-1.126-.593-.301-.394-.476-1.021-.531-1.878h3.115zm3.816-3.962a7.657 7.657 0 011.348-.786 3.743 3.743 0 011.587-.357c.173 0 .349.017.53.051.178.033.334.091.468.173.133.082.243.194.33.337s.129.323.129.542c0 .408-.159.732-.479.97-.318.238-.725.46-1.216.663a9.901 9.901 0 00-1.069.542c-.34.196-.638.428-.887.694a2.907 2.907 0 00-.601.939c-.148.361-.22.786-.22 1.276 0 .504.108.957.32 1.358s.491.741.837 1.021c.347.278.75.494 1.21.643.459.149.935.224 1.427.224.639 0 1.197-.068 1.677-.203a6.725 6.725 0 001.298-.511l-.342-2.104c-.346.232-.731.436-1.156.613s-.892.266-1.399.266c-.319 0-.618-.092-.898-.276-.277-.184-.42-.452-.42-.807 0-.177.036-.333.102-.469.066-.135.171-.266.318-.388a3.2 3.2 0 01.579-.368c.241-.122.534-.259.88-.408.345-.149.68-.321 1.008-.511.324-.19.611-.415.858-.674a2.9 2.9 0 00.587-.918c.15-.354.222-.769.222-1.244 0-1.105-.361-1.956-1.078-2.554-.718-.599-1.683-.899-2.897-.899-.676 0-1.275.069-1.796.204a7.228 7.228 0 00-1.517.593l.26 2.368zm7.96 0a7.805 7.805 0 011.348-.786 3.729 3.729 0 011.586-.357c.174 0 .35.017.528.051.179.033.337.091.471.173a.995.995 0 01.33.337c.085.143.129.323.129.542 0 .408-.16.732-.479.97-.321.238-.725.46-1.218.663-.374.163-.729.344-1.069.542-.34.196-.636.428-.888.694a2.936 2.936 0 00-.599.939c-.148.361-.219.786-.219 1.276 0 .504.105.957.318 1.358.212.401.493.741.839 1.021.345.278.749.494 1.208.643s.937.224 1.427.224c.641 0 1.197-.068 1.677-.203a6.65 6.65 0 001.298-.511l-.339-2.104a6.663 6.663 0 01-1.158.613 3.612 3.612 0 01-1.398.266c-.318 0-.618-.092-.899-.276-.278-.184-.418-.452-.418-.807 0-.177.034-.333.099-.469.068-.135.173-.266.319-.388a3.12 3.12 0 01.581-.368c.238-.122.532-.259.879-.408a9.727 9.727 0 001.008-.511c.324-.19.611-.415.857-.674a2.92 2.92 0 00.588-.918c.148-.354.221-.769.221-1.244 0-1.105-.358-1.956-1.079-2.554-.717-.599-1.684-.899-2.895-.899-.678 0-1.277.069-1.797.204a7.207 7.207 0 00-1.517.593l.261 2.368zm-110.1-.738c-5.195-.38-12.384-1.524-17.548-1.244a15.277 15.277 0 012.029-3.095 15.43 15.43 0 011.461-1.501 15.185 15.185 0 0110.161-3.907c3.771 0 7.376 1.364 10.153 3.841 1.148 1.023 2.077 2.122 2.816 3.328.5.817.911 1.682 1.241 2.609-2.224.442-6.031.283-10.313-.031m-12.26 17.934a.34.34 0 01-.272-.054 14.561 14.561 0 01-.816-.605.345.345 0 01-.087-.443l2.575-4.46.133-.179-.006-.009-.179.134-4.464 2.577a.344.344 0 01-.442-.085 15.056 15.056 0 01-.603-.817.349.349 0 01.112-.495l7.615-4.394.172-.046c.096 0 .192.04.26.118.171.195.355.381.548.55.125.109.155.29.072.432l-4.394 7.611a.342.342 0 01-.224.165m20.89-4.21a.344.344 0 01-.052.271c-.191.276-.395.551-.607.817a.342.342 0 01-.441.085l-4.462-2.575-.179-.132-.006.005.133.179 2.576 4.464a.345.345 0 01-.086.443c-.265.21-.541.413-.817.603a.346.346 0 01-.494-.111l-4.395-7.615-.046-.172c0-.097.042-.192.119-.26.195-.17.382-.355.549-.549a.347.347 0 01.434-.072l7.611 4.395a.343.343 0 01.163.224m-5.85 5.157a.352.352 0 01-.182.209c-.303.144-.617.279-.934.404a.345.345 0 01-.425-.147l-2.576-4.461-.089-.205-.009.004.026.22v5.154a.345.345 0 01-.297.342 15.82 15.82 0 01-1.007.113.343.343 0 01-.261-.092.337.337 0 01-.112-.252l.002-8.792.046-.172a.348.348 0 01.232-.167c.254-.05.508-.116.75-.2a.348.348 0 01.411.155l4.394 7.612c.048.084.06.183.031.275m8.34-12.553a.347.347 0 01.09.262 15.37 15.37 0 01-.116 1.012.343.343 0 01-.34.293l-5.152.002-.221-.026-.002.009.204.088 4.462 2.577c.148.087.213.268.148.428-.125.314-.262.627-.406.929a.347.347 0 01-.482.151L451.49 43.1l-.125-.126a.348.348 0 01-.029-.285c.085-.245.154-.498.202-.75a.346.346 0 01.338-.278h8.79a.35.35 0 01.254.111m-28.54 5.757a.352.352 0 01-.209-.182 15.015 15.015 0 01-.404-.934.343.343 0 01.147-.425l4.461-2.575.204-.089-.004-.01-.219.026h-5.154a.344.344 0 01-.341-.296 15.726 15.726 0 01-.114-1.009.351.351 0 01.091-.261.35.35 0 01.253-.111l8.791.002.173.045c.083.05.146.132.167.233.048.255.115.507.199.75a.348.348 0 01-.153.412l-7.613 4.394a.352.352 0 01-.275.03m12.55 8.337a.353.353 0 01-.262.09 15.234 15.234 0 01-1.01-.116.345.345 0 01-.295-.341l-.001-5.152.026-.22-.009-.002-.089.203-2.576 4.464a.343.343 0 01-.428.146c-.314-.125-.627-.26-.929-.405a.342.342 0 01-.151-.483l4.396-7.614.127-.127a.35.35 0 01.284-.028c.246.084.498.153.751.202a.347.347 0 01.279.339l-.002 8.79a.34.34 0 01-.111.254" fill="#1a428a"/><path d="M460.05 39.762c-3.174 0-5.605-.772-11.907-2.11-8.916-1.894-15.249-.33-16.701-.143-.216.027-.358-.083-.285-.326.157-.725.694-2.278 1.098-2.983 5.165-.28 12.354.864 17.548 1.244 4.283.314 8.089.473 10.314.031.36 1.012.625 2.093.8 3.261.101.668.02 1.026-.867 1.026" fill="#ee5f2a"/><path d="M431.06 38.679c.298-.117 4.42-1.521 10.819-1.612 1.816-.027 4.133.243 5.517.545a25.874 25.874 0 00-4.188-.34c-3.687.013-9.28 1.306-11.934 2.49a.337.337 0 01-.336-.04.345.345 0 01-.141-.31c.014-.17.031-.34.049-.51.016-.083.041-.154.214-.223" fill="#ee5f2a"/></g></svg>