<svg width="208.65" height="49.674" viewBox="0 0 55.205 13.143" xmlns="http://www.w3.org/2000/svg"><path d="M15.758 10.478h-1.714V4.16h1.714v5.71zm-.86-7.01a.96.96 0 01-.975-.963c0-.526.437-.954.975-.954.555 0 .988.419.988.954 0 .53-.442.963-.988.963m17.9 7.15c-.968 0-1.773-.334-2.328-.967-.506-.574-.785-1.388-.785-2.29 0-.927.328-1.774.93-2.385.597-.612 1.43-.948 2.339-.948.713 0 1.29.157 1.838.465l-.058 1.412a2.668 2.668 0 00-1.597-.528c-1.006 0-1.737.802-1.737 1.906 0 .886.45 1.921 1.724 1.921.61 0 1.134-.247 1.493-.456l.45 1.22c-.456.311-1.361.65-2.269.65m-24.501-.14H6.48l-.847-2.153H2.667l-.795 2.153H.133l3.398-8.782h1.25zm-5.09-3.591h1.875l-.657-1.869a10.06 10.06 0 01-.258-.8c-.06.224-.148.473-.254.773zm10.321-2.719h-1.715l-1.527 4.094-1.5-4.094h-1.73l2.308 5.629c.175.437.44.688.94.688h.596zm5.17 6.45c-1.234 0-2.096-.847-2.096-2.057 0-1.276.969-2.04 2.656-2.096l1.023-.037v-.084c0-.8-.62-.967-1.139-.967-.517 0-1.02.155-1.577.49l-.581-1.112c.688-.457 1.556-.727 2.51-.727 1.7 0 2.527.758 2.527 2.315v2.889c0 .555.048.929.146 1.256h-.99c-.421 0-.585-.17-.71-.506a2.634 2.634 0 01-1.769.636m1.583-2.958l-.81.024c-1.034.031-1.153.449-1.153.759 0 .493.347.787.929.787.408 0 .756-.118 1.034-.351zm17.247 2.958c-1.233 0-2.097-.847-2.097-2.057 0-1.276.97-2.04 2.657-2.096l1.023-.037v-.084c0-.8-.62-.967-1.138-.967-.518 0-1.02.155-1.578.49l-.58-1.112c.686-.457 1.555-.727 2.51-.727 1.7 0 2.527.758 2.527 2.315v2.889c0 .555.048.929.145 1.256h-.99c-.421 0-.585-.17-.71-.506a2.634 2.634 0 01-1.769.636m1.583-2.958l-.81.024c-1.034.031-1.153.449-1.153.759 0 .493.347.787.929.787.41 0 .756-.118 1.034-.351zm-10.193 2.818h-1.715v-3.7c0-.876-.26-1.267-.84-1.267-.45 0-.938.2-1.49.614v4.353h-1.715V4.16h.656c.5 0 .812.192.953.583l.01.033c.728-.524 1.386-.758 2.12-.758.977 0 2.021.602 2.021 2.29zm23.64-.18c-.21-.653-.876-1.162-3.215-1.338.374.434.767.847 1.18 1.235h1.187c.493 0 .71.041.848.103m-8.97-6.75c-.109 2.531 1.247 5.082 5.718 5.407l.044.004c-2.27-2.638-3.801-6.015-4.416-8.827 0 0-1.247 1.1-1.346 3.416m6.94 6.65h-4.802c.063.15.284.255.784.284 3 .178 3.424 2.532 7.715 2.532.378 0 .613-.022.85-.067-1.696-.522-3.22-1.502-4.547-2.75" fill="#da291c"/></svg>