<svg width="146.01" height="25.16" viewBox="0 0 38.631 6.657" xmlns="http://www.w3.org/2000/svg"><g fill-rule="evenodd"><path d="M5.944.125h3.132c1.236 0 2.238 1.022 2.238 2.283 0 1.26-1.002 2.283-2.238 2.283H7.734v1.826h-1.79zm1.79 1.826h1.342c.247 0 .448.205.448.457s-.2.456-.448.456H7.734v-.913z" fill="#ed1c24"/><path d="M1.47 6.517V1.951H.132V.125h5.813v6.392l-.342-1.162v.02H3.596L3.26 6.518zM4.132 3.55h.94l-.47-1.598z" fill="#bfd730"/><path d="M1.47 6.517h1.79V1.951h1.342V.125H3.26z" fill="#46a41a"/><path d="M5.944 6.517h1.79L5.944.125z" fill="#ba141a"/><path d="M19.453 4.698h.36v-1.09c.094.027.206.032.33.032.372 0 .683-.1.882-.299.147-.142.224-.347.224-.594A.748.748 0 0021 2.171c-.169-.15-.435-.235-.806-.235-.315 0-.559.024-.742.055v2.707zm.36-2.444a2.044 2.044 0 01.382-.032c.393 0 .693.154.693.543 0 .37-.27.584-.731.584a1.24 1.24 0 01-.343-.038V2.254zm3.05 2.493c.764 0 1.397-.537 1.397-1.448 0-.793-.543-1.388-1.366-1.388-.8 0-1.395.597-1.395 1.451 0 .796.56 1.385 1.36 1.385h.004zm.005-.292c-.61 0-.991-.512-.991-1.105 0-.614.347-1.148 1.002-1.148.653 0 .995.557.995 1.114 0 .65-.383 1.14-1.002 1.14zm1.667.243h.359V3.513h.398c.332.015.486.162.573.537.08.344.144.57.188.648h.374c-.06-.114-.127-.386-.224-.771-.067-.258-.197-.458-.404-.535v-.01c.285-.09.531-.332.531-.696a.68.68 0 00-.218-.515c-.176-.16-.433-.236-.836-.236-.266 0-.55.025-.741.06zm.359-2.444c.066-.017.201-.036.405-.036.377 0 .67.139.67.507 0 .31-.248.513-.646.513h-.429zm2.543 2.444h.363V2.264h.93v-.305h-2.22v.305h.927zm1.506-2.74v1.545c0 .908.465 1.244 1.06 1.244.645 0 1.126-.367 1.126-1.253V1.96h-.362v1.553c0 .64-.295.94-.745.94-.416 0-.716-.29-.716-.94V1.96zm4.998 1.3h-.968v.29h.609v.791c-.099.05-.283.087-.552.087-.728 0-1.168-.457-1.168-1.101 0-.632.449-1.091 1.205-1.091.314 0 .52.057.687.133l.094-.294a1.949 1.949 0 00-.768-.141c-1.042 0-1.598.675-1.598 1.409 0 .4.147.76.39.992.289.276.662.394 1.127.394.426 0 .772-.106.942-.17zm1.987.566l.324.874h.393l-1.023-2.74h-.443l-1.012 2.74h.38l.31-.874zm-.992-.285l.307-.826c.057-.161.1-.306.141-.45h.008c.042.14.084.283.148.457l.307.82zm1.92 1.152h1.642v-.309h-1.28v-2.43h-.362zm-21.272.008h.513v-2.74h-.513zm-1.173-.794l.276.794h.564l-.978-2.74h-.667l-.95 2.74h.539l.257-.794h.958zm-.868-.391l.237-.693c.053-.16.094-.326.136-.477h.008c.044.15.091.313.149.48l.245.69h-.775zm3.617-1.128c.06-.01.169-.023.334-.023.273 0 .599.076.599.436 0 .27-.22.44-.575.44h-.358zm0 1.272h.325c.298.014.426.135.506.481.07.303.117.466.15.56h.526a6.237 6.237 0 01-.186-.659l-.015-.059c-.06-.235-.167-.41-.313-.513a.774.774 0 00.443-.709.747.747 0 00-.243-.57c-.193-.175-.465-.253-.882-.253-.262 0-.55.024-.754.062l-.058.01v2.69h.5v-1.04z"/></g></svg>