<svg width="135.87" height="89.794" viewBox="0 0 35.949 23.758" xmlns="http://www.w3.org/2000/svg"><path fill="#2dccd3" d="M0 0h35.949v23.758H0z"/><g fill="#fff"><path d="M6.064 19.189h-.268a.022.022 0 00-.021.022v2.722c0 .012.01.022.021.022h.469c.012 0 .021-.01.021-.022v-2.522c0-.123-.1-.222-.222-.222m13.939 0h-.268a.022.022 0 00-.021.022v2.722c0 .012.01.022.021.022h.469c.012 0 .021-.01.021-.022v-2.522c0-.123-.1-.222-.222-.222m4.32 0h-.268a.022.022 0 00-.021.022v2.722c0 .012.01.022.021.022h.469c.012 0 .021-.01.021-.022v-2.522c0-.123-.1-.222-.222-.222m9.3 0h-.268a.022.022 0 00-.021.022v2.722c0 .012.01.022.021.022h.469c.012 0 .021-.01.021-.022v-2.522c0-.123-.1-.222-.222-.222m-21.6-.07h1.144c.092 0 .126-.044.126-.122v-.135a.022.022 0 00-.022-.021h-2.734a.022.022 0 00-.022.021v.235c0 .012.01.022.022.022h1.094v2.814c0 .012.01.022.022.022h.503c.012 0 .022-.01.022-.022v-2.578a.26.26 0 00-.155-.236m-8.183-.08c-.076-.168-.132-.193-.197-.193H3.55a.037.037 0 00-.03.02L2.1 21.94c-.005.011 0 .02.013.02h.239a.038.038 0 00.03-.02l.446-.984h1c.083 0 .13-.029.168-.11l.051-.11.536 1.204c.005.011.02.02.031.02h.526c.012 0 .017-.008.012-.02zm-.897 1.664l.55-1.215.54 1.215zm15.76-1.514h-.468a.022.022 0 00-.022.022v1.209h-1.322v-1.01c0-.122-.1-.221-.223-.221h-.267a.022.022 0 00-.022.022v2.722c0 .012.01.022.022.022h.468c.012 0 .022-.01.022-.022v-1.282h1.322v1.282c0 .012.01.022.022.022h.468c.012 0 .022-.01.022-.022v-2.722a.022.022 0 00-.022-.022m-4.15.16c-.053-.112-.1-.157-.175-.157h-.074a.037.037 0 00-.03.02l-1.25 2.727c-.005.01 0 .02.013.02h.214a.036.036 0 00.03-.02l.396-.883h.884c.073 0 .112-.032.14-.094l.047-.103.501 1.08c.005.01.02.02.03.02h.487c.012 0 .017-.009.012-.02zm-.772 1.476l.468-1.045.484 1.045zm9.562-1.636h-2.425a.022.022 0 00-.022.022v.185c0 .012.01.022.022.022h.955v2.515c0 .012.01.022.022.022h.468c.012 0 .022-.01.022-.022v-2.311a.21.21 0 00-.154-.204h1.034c.073 0 .1-.035.1-.097v-.11a.022.022 0 00-.022-.022m9.08 0h-.214a.022.022 0 00-.022.022v1.725c0 .568-.285.85-.84.85-.63 0-.836-.354-.836-.846v-1.53c0-.122-.1-.221-.223-.221h-.267a.022.022 0 00-.022.021v1.78c0 .635.464 1.037 1.323 1.037.71 0 1.123-.382 1.123-1.05V19.21a.022.022 0 00-.022-.021m-22.13 2.93c-.014 0-.058.005-.095.005-.705 0-1.36-.96-1.556-1.453.387-.096.604-.352.604-.705 0-.498-.384-.779-1.052-.779h-.9a.022.022 0 00-.022.022v2.723c0 .012.01.022.022.022h.468c.012 0 .022-.01.022-.022v-1.19h.343c.293.7.95 1.503 1.765 1.503.222 0 .417-.061.417-.112 0-.008-.004-.014-.016-.014M8.124 20.52h-.34v-1.105h.34c.405 0 .576.222.576.55 0 .328-.14.555-.576.555m20.959-1.681h-.247a.022.022 0 00-.021.022v2.245l-1.801-2.084c-.108-.124-.179-.183-.308-.183h-.134a.022.022 0 00-.022.022v3.07c0 .012.01.022.022.022h.246c.012 0 .022-.01.022-.022v-2.294l1.989 2.3a.055.055 0 00.036.016h.22c.01 0 .02-.01.02-.022v-3.07a.022.022 0 00-.022-.022m-3.63-7.94c-.273-.443-.46-.656-.569-.75-.51-.44-.992-.626-1.39-.799l-.322-.137a6.51 6.51 0 00-2.318-.534 3.503 3.503 0 00-.568.035.943.943 0 00-.228.054 1.56 1.56 0 00-.184.085c.044-.034.11-.08.197-.121.12-.059.2-.08.2-.08l.012-.003c.001.002 1.632-.42 3.234-1.325.84-.475 1.54-.87 1.485-1.3-.057-.452-.938-.835-1.672-.772-.272.024-.469.104-.677.19-.513.209-.64.408-1.436 1.025-.712.552-.875.598-1.232.99-.233.254-.449.602-.5.653-.05.05-.246.217-.192.309.022.038.107.032.179.11.024.028.072.139.114.17.06.058.09.025.106.082.008.028-.015.053 0 .093.016.047.02.046.037.092.006.018-.003.068-.034.093-.033.028-.087.004-.161.051a.128.128 0 00-.062.113c0 .032.017.083.074.102l.116.025c.118.025.212.15.238.188l.006.009c.8 1.174 3.932 2.154 3.932 2.154.144.053 1.494.418 1.805-.046.122-.224-.094-.601-.19-.757"/><path d="M20.483 10.359c-.097-.223-.156-.3-.217-.357-.087-.083-.149-.101-.237-.194a.793.793 0 00-.023-.027c-.049-.06-.065-.093-.143-.18a1.63 1.63 0 00-.098-.105.312.312 0 00-.084-.065.412.412 0 00-.273-.029c-.101.026-.135.081-.201.06-.046-.013-.047-.044-.104-.082-.085-.058-.143-.042-.222-.07-.1-.035-.17-.17-.193-.264a.446.446 0 01.14-.48.598.598 0 01.203-.094.19.19 0 00.117-.083c.02-.033.019-.066.037-.107a.418.418 0 01.05-.08c.049-.06.088-.067.16-.126.032-.025.053-.048.095-.094.213-.23.474-.787.474-.787.072-.178.185-.453.336-.784.635-1.389.89-1.474 1.07-2.18.076-.305.276-1.146-.119-1.999a2.562 2.562 0 00-.475-.694c-.02-.019-.06-.03-.095-.028 0 0-.065 0-.143.066-.693.576-1.33 2.329-1.33 2.329-.4 1.1-.58 1.462-.781 2.277-.105.423-.195.886-.066 1.421.073.304.2.557.19.566-.059-.083-.301-.587-.537-1.128-.151-.347-.185-.452-.394-.959-.119-.286-.228-.55-.457-1.073-.823-1.881-1.108-2.239-1.31-2.458-.284-.31-.567-.611-.905-.567-.464.061-.696.726-.73.823a1.67 1.67 0 00-.077.326c-.076.573.156 1.084.263 1.32.034.073.073.145.121.222.106.171.255.368.483.67.316.418.872 1.089 1.08 1.305a2.939 2.939 0 01.313.396c.067.104.144.225.237.35.12.161.266.33.458.482.235.185.473.306.641.378-.188-.07-.51-.2-1.023-.425a31.684 31.684 0 01-1.764-.825c-.928-.472-1.678-.919-2.618-1.236a3.166 3.166 0 00-.938-.137c-.264 0-.539.003-.72.104a.388.388 0 00-.151.137c-.26.421.139 1.017.37 1.359.31.457.678.857 1.131 1.177.99.696 2.206 1.007 3.383 1.208 1.303.222 2.242.042 2.248.04.008-.002.302-.073.301-.08 0 0 .007.057-.069.08-.165.048-.177.058-.251.073-.251.053-.397.12-.947.377-.227.093-.536.22-.98.405-.971.405-.983.432-1.441.69-.89.5-1.047.668-1.185.778-.382.303-1.011 1.056-1.036 1.608-.006.13.04.177.116.248.358.33 1.136.311 1.434.296 1.001-.05 1.52-.328 1.943-.575.432-.25.842-.57.91-.623.139-.108.253-.204.59-.504.176-.156.639-.614.806-.789.71-.742.737-.872.849-1.023l.033-.046c.04-.055.075-.117.18-.247.066-.082.126-.183.131-.196a.542.542 0 01-.087.243c-.023.035-.036.061-.06.092a2.394 2.394 0 00-.164.296c-.193.39-.151.62-.124.74.276 1.188.47 2.949 1.531 4.094.42.454.865.692 1.31.511.117-.046.295-.79.332-1.839.049-1.397-.737-2.675-1.142-3.505a4.23 4.23 0 00-.152-.403"/></g></svg>