<svg width="648.06" height="102.53" viewBox="0 0 171.46 27.126" xmlns="http://www.w3.org/2000/svg"><path d="M10.017 13.856C11.143 9.63 9.86 5.2 6.79 2.852 2.609 5.499.198 10.476 1.069 15.66a12.59 12.59 0 001.783 4.67c3.27-.91 6.144-2.634 7.165-6.475m5.644 12.199c6.9-1.159 11.554-7.692 10.394-14.59C25.091 5.722 20.41 1.538 14.89.96a12.712 12.712 0 00-7.255 1.407c6.082 2.063 9.352 5.198 9.579 8.411.111 1.984-.81 3.419-2.022 4.588l8.6-.6c.243-.017.32.266.025.35L3.303 20.999a12.695 12.695 0 008.932 5.166c1.114.117 2.266.087 3.426-.11M14.968.205c6.755.703 12.024 6.412 12.027 13.353.002 7.417-6.01 13.433-13.427 13.435C6.15 26.995.135 20.984.133 13.566.13 6.148 6.14.133 13.559.13c.475 0 .946.026 1.41.074" fill="#fff"/><path d="M1.069 15.661a12.585 12.585 0 001.783 4.67c3.27-.91 6.144-2.634 7.166-6.475C11.143 9.63 9.86 5.2 6.79 2.852 2.61 5.5.198 10.477 1.07 15.662m24.986-4.199c1.16 6.9-3.494 13.433-10.394 14.592a12.64 12.64 0 01-3.427.109 12.694 12.694 0 01-8.931-5.166l20.512-5.881c.295-.086.219-.368-.025-.352l-8.6.601c1.212-1.17 2.134-2.604 2.022-4.588-.226-3.213-3.496-6.348-9.578-8.411A12.712 12.712 0 0114.889.96c5.52.578 10.201 4.762 11.166 10.504" fill="#c70a0c"/><path d="M96.56 18.831v-4.416h-4.43v4.416H89.7V8.312h2.43v4.19h4.428v-4.19h2.449v10.519zM44.18 8.311v6.586c0 .728.107 1.358.319 1.87.21.507.514.93.905 1.254.394.328.87.57 1.413.72.552.151 1.175.23 1.852.23.676 0 1.293-.079 1.834-.23a3.37 3.37 0 001.35-.716c.362-.325.647-.747.847-1.256.2-.51.3-1.14.3-1.872V8.31h-2.273v6.516c0 .663-.165 1.2-.49 1.592-.332.401-.86.604-1.568.604-.697 0-1.22-.202-1.559-.602-.33-.392-.499-.928-.499-1.594V8.31zm-7.012 10.522v-8.556h-2.857V8.313h8.163v.942c0 .563-.458 1.022-1.022 1.022H39.6v8.556zM76.233 8.31h2.431v10.52h-2.43zm-8.095 5.615l.082.104 3.105 4.002a2.06 2.06 0 001.637.802h1.935l-4.448-5.659-.066-.083.066-.083 3.657-4.7h-2.53l-3.353 4.533-.085.11V8.307h-2.432v10.52h2.431v-4.715zm-10.462-.799h1.417c.51 0 .9-.14 1.156-.416.253-.273.382-.627.382-1.053 0-.437-.125-.796-.372-1.069-.251-.277-.643-.417-1.166-.417h-1.417zm4.862 5.703a2.08 2.08 0 01-1.771-.998l-1.892-3.123h-1.199v4.12h-2.43V8.312h4.333c1.112 0 1.984.29 2.59.864.604.571.91 1.354.91 2.326 0 .494-.131.994-.39 1.487-.257.484-.71.88-1.35 1.178l-.14.065 2.95 4.598zm18.122-.446v-2.017c.774.357 1.771.712 2.802.712 1.186 0 1.787-.406 1.787-1.186 0-.915-.807-1.016-2.423-1.712-1.1-.49-2.148-1.254-2.148-3.015 0-2.05 1.564-3.017 3.73-3.017 1.151 0 2.131.271 2.681.474v1.966c-.55-.254-1.53-.56-2.51-.56-1.065 0-1.564.39-1.564 1.068 0 .712.602.933 1.685 1.34 1.392.694 3.008 1 3.008 3.372 0 2.05-1.633 3.168-3.816 3.168-1.341 0-2.406-.237-3.232-.593m75.087.446V8.309h6.587v.955a1.01 1.01 0 01-1.01 1.01h-3.146v2.262h3.533v1.756h-3.533v2.573h4.156v1.964zm-24.033 0V8.31h1.18c.69 0 1.25.56 1.25 1.249v7.375h3.88v1.895zm-15.047-.002V8.314h2.43v10.513zm7.091-5.703h1.417c.51 0 .898-.14 1.155-.415.253-.274.382-.628.382-1.054 0-.436-.125-.796-.373-1.069-.25-.277-.642-.417-1.164-.417h-1.417zm4.86 5.702a2.08 2.08 0 01-1.771-.997l-1.89-3.123h-1.2v4.12h-2.429V8.31h4.331c1.113 0 1.984.29 2.59.863.605.572.911 1.355.911 2.327 0 .493-.131.994-.391 1.486-.256.484-.71.88-1.349 1.178l-.14.066 2.95 4.597zm-20.306-3.828l.955-2.66a42.98 42.98 0 00.565-1.694h.035c.124.482.337 1.08.548 1.695l.92 2.659zm3.003-6.688h-2.791l-3.967 10.52h1.751c.445 0 .837-.284.976-.706l.408-1.234h4.266l.624 1.94h2.634zm52.97 10.073v-2.016c.773.356 1.77.711 2.802.711 1.186 0 1.788-.406 1.788-1.186 0-.915-.809-1.016-2.424-1.71-1.1-.493-2.149-1.255-2.149-3.017 0-2.05 1.564-3.017 3.73-3.017 1.152 0 2.132.271 2.682.474v1.966c-.55-.253-1.53-.559-2.51-.559-1.065 0-1.564.39-1.564 1.068 0 .711.602.932 1.684 1.338 1.393.695 3.008 1 3.008 3.373 0 2.05-1.633 3.168-3.815 3.168-1.341 0-2.407-.237-3.232-.593M144.244 8.311h1.507c.715 0 1.38.37 1.758.977L150.443 14c.331.524.715 1.215.943 1.705h.052a24.444 24.444 0 01-.052-1.604v-5.79h2.13V18.83h-2.666l-3.567-5.69a22.911 22.911 0 01-.927-1.621h-.034c.018.456.052.996.052 1.502v5.809h-2.13zm-4.656 10.516V8.314h2.43v10.513z"/></svg>