<svg width="141.23" height="121.32" viewBox="0 0 37.367 32.099" xmlns="http://www.w3.org/2000/svg"><defs><linearGradient id="a" x2="0" y2="1" gradientTransform="matrix(3.73 0 0 -3.7295 -157.57 -56.725)" gradientUnits="userSpaceOnUse"><stop stop-color="#fd0" offset="0"/><stop stop-color="#fccc00" offset=".25"/><stop stop-color="#f4a000" offset=".7"/><stop stop-color="#ee7f00" offset="1"/></linearGradient></defs><path d="M2.532 30.27v1.696H2.24l-.765-1.198v1.198h-.28v-1.695h.293l.765 1.198V30.27zm.332.842a.85.85 0 01.841-.854c.472 0 .855.382.855.841a.852.852 0 01-.842.855.836.836 0 01-.854-.842m.28 0c0 .319.255.561.561.561a.558.558 0 00.561-.561c0-.306-.255-.561-.56-.561s-.562.255-.562.561m1.722.472l.268-.102c.05.14.19.191.318.191h.039c.127-.013.267-.076.293-.204v-.051a.217.217 0 00-.039-.128.411.411 0 00-.318-.127.522.522 0 01-.447-.23c-.063-.102-.063-.204-.063-.23 0-.025 0-.114.063-.229.115-.191.306-.23.447-.23.242 0 .42.154.433.179l-.153.23s-.153-.128-.28-.128c-.039 0-.153 0-.204.09-.026.038-.026.075-.026.088 0 .013 0 .051.026.09.038.05.102.076.204.089.23 0 .42.089.535.242.077.09.102.191.102.306 0 .038 0 .064-.013.102-.05.242-.267.408-.548.434h-.05a.604.604 0 01-.587-.382m2.575.37h-.28v-1.696h.663c.013 0 .166 0 .319.076a.616.616 0 01.331.574c0 .267-.114.471-.331.586l-.026.013.319.446h-.344l-.268-.382h-.37l-.013.383zm0-.663h.37s.102 0 .204-.051c.115-.064.179-.166.179-.32 0-.152-.064-.267-.179-.33-.09-.052-.191-.052-.191-.052h-.37l-.013.753zm2.882.663h-.306l-.128-.358h-.688l-.128.358h-.306l.625-1.696h.306zm-.548-.638l-.243-.65-.242.65zm2.18.383a.827.827 0 01-.6.242.852.852 0 01-.854-.841c0-.472.383-.855.842-.855.23 0 .446.102.6.255l-.205.204a.567.567 0 00-.408-.165.558.558 0 00-.56.56.558.558 0 00.955.396zm.33-1.453h.28l.004 1.695h-.28zm1.99 0v1.695h-.305l-.753-1.198v1.198h-.28l-.013-1.696h.306l.765 1.199-.013-1.199zm.638.28v.497h.689v.28h-.689v.357l.842-.012v.293h-1.122v-1.696h1.122v.28h-.842zm1.173 1.032l.268-.102c.05.14.191.192.319.192h.038c.127-.013.268-.077.293-.204v-.051a.216.216 0 00-.038-.128.41.41 0 00-.319-.128.521.521 0 01-.446-.229c-.064-.102-.064-.204-.064-.23 0-.025 0-.114.064-.23.115-.19.306-.229.446-.229a.62.62 0 01.434.179l-.153.23s-.154-.128-.28-.128c-.04 0-.154 0-.205.089-.025.038-.025.076-.025.089 0 .013 0 .05.025.089.038.051.102.077.204.09.23 0 .42.089.536.241.076.09.102.192.102.307 0 .038 0 .063-.013.101-.051.243-.268.408-.548.434h-.052c-.28 0-.51-.152-.586-.382m2.257-.471a.85.85 0 01.841-.854c.472 0 .855.382.855.84a.852.852 0 01-.842.855.852.852 0 01-.854-.841m.293 0c0 .319.255.56.561.56a.566.566 0 00.561-.56.566.566 0 00-.56-.561.535.535 0 00-.562.56m3.073-.853l.013 1.695h-.306l-.765-1.198.012 1.198h-.293v-1.695h.306l.752 1.185v-1.185zm1.58.28h-.496l.013 1.402h-.293v-1.402h-.498v-.28l1.275-.013v.293zm1.098 1.402V30.22h.56a.8.8 0 01.383.102c.179.101.395.306.395.739s-.216.637-.382.74c-.191.102-.37.102-.382.102l-.574.012zm.28-.28h.28s.14 0 .255-.077c.154-.089.23-.255.23-.484 0-.23-.076-.395-.242-.484-.128-.077-.255-.077-.255-.077h-.28l.012 1.122zm1.67-1.135v.497h.689v.28h-.689v.358l.842-.013v.293h-1.122V30.22h1.11v.28h-.83zm1.16 1.033l.268-.102c.051.14.192.191.32.191h.038c.127-.013.267-.076.293-.204v-.05a.215.215 0 00-.039-.128.41.41 0 00-.318-.128.521.521 0 01-.447-.23c-.063-.102-.063-.204-.063-.23 0-.025 0-.127.063-.229.115-.191.306-.23.447-.23.242 0 .42.154.433.179l-.153.23s-.153-.128-.28-.128c-.039 0-.153 0-.204.09-.026.038-.026.076-.026.088s0 .051.026.09c.038.05.102.076.204.089.23 0 .42.09.535.242.077.09.102.191.102.306 0 .039 0 .064-.012.102-.051.243-.268.408-.549.433h-.05c-.269-.011-.498-.152-.587-.381m3.8.37h-.307l-.127-.357h-.689l-.127.357h-.306l.625-1.696h.306zm-.536-.638l-.242-.65-.243.65h.485zm.84-1.057l.28-.001.004 1.695-.28.001-.005-1.696zm1.633 1.695h-.981l-.013-1.696h.293v1.402h.701zm.562-1.416v.484h.688v.294h-.688v.344h.841v.28h-1.122v-1.695h1.122v.293h-.841zm1.172 1.02l.268-.102c.05.14.191.191.319.191h.038c.128-.012.268-.076.293-.204v-.05a.215.215 0 00-.038-.128.41.41 0 00-.319-.128.522.522 0 01-.446-.23c-.064-.102-.064-.204-.064-.23 0-.025 0-.127.064-.229.115-.19.306-.23.446-.23.243 0 .421.154.434.18l-.153.229s-.153-.128-.28-.128c-.04 0-.154 0-.205.09-.025.038-.025.076-.025.089s0 .05.025.089c.039.05.102.076.204.089.23 0 .421.089.536.242a.45.45 0 01.102.306c0 .039 0 .064-.013.102-.051.243-.267.408-.548.434h-.051c-.28 0-.51-.14-.587-.382m-.841-2.83a156.624 156.624 0 00-7.842-.625c-1.81-.097-3.62-.169-5.431-.216l-1.492-.026c-.255 0-.51-.013-.765-.013l-.778.013A167.636 167.636 0 00.365 29.046H.34l.012.103a171.93 171.93 0 0114.255-.842c1.097-.013 2.168-.025 3.2-.025h.778l.765-.013 1.492-.013c1.951 0 3.774.026 5.432.076 3.315.102 5.993.28 7.854.421 1.85.14 2.87.242 2.87.23-.001.026-1.021-.102-2.87-.306m-31.073-2.83c-.128.012-.191-.013-.217-.09-.025-.063-.025-.14-.025-.255v-1.045c0-.714-.46-1.084-1.377-1.084-.396 0-.778.077-1.071.217H.352l.115.625.025-.013c.204-.115.46-.166.816-.166.255 0 .689.051.689.396v.165c-.256-.153-.574-.165-.74-.165-.37 0-.676.114-.88.318-.178.179-.255.434-.242.727.013.586.561.905 1.046.905.331 0 .777-.115.969-.446.012.153.063.255.165.331.153.115.421.14.753.064h.013v-.497l-.026.013zm-1.096-.548c-.026.306-.396.42-.625.42-.179 0-.357-.089-.37-.293a.323.323 0 01.076-.267c.077-.09.204-.14.358-.153.216 0 .42.063.573.153v.14H1.96zm2.193-3.137h-.013c-.243 0-.497.153-.497.485 0 .344.267.497.51.497h.012c.23 0 .485-.166.485-.497 0-.319-.255-.472-.497-.485m-.434 1.339h.855v2.843h-.855V23.5zm3.443-.128h-.026c-.37 0-.663.166-.79.447-.051-.268-.294-.421-.676-.421-.166 0-.319.025-.408.051h-.013v.536h.013c.025 0 .05-.013.076-.013.166 0 .192.115.192.344v2.027h.841v-1.555c0-.46.332-.663.65-.663a.788.788 0 01.523.153l.013.013.191-.727-.012-.013a.907.907 0 00-.574-.179m4.526 1.849a.605.605 0 01-.6.434c-.344 0-.7-.268-.7-.765 0-.485.357-.753.7-.753h.014c.255 0 .471.14.56.382v.013h.817v-.013c-.14-.777-.816-1.134-1.416-1.134-.765 0-1.542.523-1.542 1.517 0 .471.165.854.484 1.134.28.243.65.383 1.046.383h.012c.625 0 1.314-.37 1.441-1.16v-.013zm4.208.625c-.128.012-.192-.013-.217-.09-.026-.063-.026-.14-.026-.255v-1.045c0-.714-.459-1.084-1.377-1.084-.395 0-.777.077-1.07.217h-.014l.115.625.026-.013c.204-.115.459-.166.816-.166.255 0 .688.051.688.396v.165c-.255-.153-.573-.165-.74-.165-.37 0-.675.114-.88.318-.177.179-.254.434-.241.727.025.586.56.905 1.045.905.332 0 .778-.115.97-.446.012.153.063.255.165.331.153.115.42.14.752.064h.013v-.497l-.025.013zm-1.097-.549c-.025.307-.395.421-.625.421-.178 0-.357-.089-.37-.293a.322.322 0 01.077-.267c.077-.09.204-.14.357-.153.217 0 .421.063.574.153v.14h-.013zm3.124.396c-.076.012-.14.012-.204.012-.255 0-.357-.127-.357-.459v-3.263h-.842v3.263c0 .409.09.702.256.88.153.178.395.255.713.255a2.2 2.2 0 00.472-.05h.013l-.026-.651zm1.913-2.308c-.74 0-1.492.46-1.518 1.48 0 .458.153.853.447 1.134.293.267.688.408 1.16.408h.038c.37 0 .766-.09 1.11-.255h.013l-.102-.638-.013.013c-.179.076-.421.14-.676.165-.05.013-.115.013-.191.013h-.191c-.32-.026-.702-.153-.74-.612h1.938v-.012c.115-.51.051-.944-.191-1.25-.217-.293-.6-.446-1.084-.446m0 .663c.204 0 .37.051.471.166a.363.363 0 01.102.306h-1.21c.063-.28.318-.472.637-.472m.701-1.67v-.09l-.727-.267-.42.88v.09h.65l.497-.613zm4.297 3.404a.29.29 0 01-.204-.038c-.051-.051-.051-.14-.051-.268V22.01h-.854v1.568a1.518 1.518 0 00-.651-.153c-.778 0-1.377.638-1.377 1.492 0 .408.115.778.331 1.058.23.306.574.46.97.46h.025c.37 0 .676-.192.842-.498v.013c.012.306.204.472.573.472.115 0 .243-.013.383-.051h.012v-.587zm-1.097-1.492v.727c0 .357-.242.638-.573.638-.383 0-.612-.281-.612-.753 0-.459.267-.752.675-.752a.84.84 0 01.51.14m3.137-.918h-.013c-.727 0-1.517.485-1.517 1.517 0 1.033.79 1.517 1.53 1.517.727 0 1.517-.471 1.517-1.517 0-1.045-.79-1.517-1.517-1.517m.675 1.518a.85.85 0 01-.204.573.626.626 0 01-.459.191h-.012c-.32 0-.664-.242-.664-.765s.357-.752.676-.752c.319 0 .663.23.663.753m3.316-1.492c-.32 0-.715.102-.893.408-.025-.255-.23-.383-.612-.383-.127 0-.267.013-.446.039H28.9v.548h.013c.255 0 .255.077.255.357v1.99h.854v-1.645c0-.396.293-.612.587-.612a.52.52 0 01.382.153.546.546 0 01.14.433v1.67H32v-1.67c.012-.83-.409-1.288-1.135-1.288m1.963.102h.854v2.843h-.854V23.5zm.446-1.339h-.012c-.243 0-.498.153-.498.485 0 .344.268.497.51.497h.013c.23 0 .485-.166.485-.497-.013-.319-.255-.472-.498-.485m3.71 1.67c-.229-.28-.598-.433-1.083-.433-.74 0-1.492.46-1.517 1.479 0 .459.153.854.446 1.135.293.267.689.408 1.16.408h.04c.369 0 .764-.09 1.108-.255h.013l-.102-.638-.013.013c-.178.076-.42.14-.675.165-.051.013-.115.013-.191.013h-.192c-.318-.025-.701-.153-.74-.612h1.939v-.013c.126-.535.05-.968-.192-1.261m-1.084.216c.204 0 .37.051.471.166a.361.361 0 01.102.306h-1.21c.063-.28.305-.472.637-.472" fill="#341f14"/><path d="M-108.87-53.246c-4.285 0-7.77-3.486-7.77-7.77s3.485-7.77 7.77-7.77 7.77 3.486 7.77 7.77-3.485 7.77-7.77 7.77z" fill="url(#a)" transform="translate(127.542 73.59)"/><path d="M21.812 14.92c-2.499 1.441-3.71 1.403-6.298-.012 0 .191 0 .382.076.523.829.663 1.823 1.364 3.175 1.606 1.326-.268 1.543-.586 2.5-1.16.292-.268.713-.51.547-.956m-4.73 1.823c-.612.892-1.316 1.896-1.265 3.056 1.556.714 3.93.68 5.575.03.025-1.16-.497-2.22-1.186-3.086-.893.574-2.244.574-3.124 0m-1.033-5.1c-.165.153-.217.472-.09.689.664-.14 1.53-.395 2.283-.319-.089 1.16-1.568 1.02-2.282 1.44.497.587 1.415.077 2.078.243-.305.548-.637 1.058-.777 1.696.675.586 1.262.51 1.402.51.153 0 .842.038 1.352-.46a4.321 4.321 0 00-.727-1.746c.714-.217 1.67.395 2.104-.242-.357-.192-.778-.192-1.135-.332-.638-.076-.752-.701-1.084-1.109.83-.191 1.581.23 2.27.306.051-1.657-1.862-.306-2.601-1.186.88-.05 1.746-.42 2.6-.115-.025-.165.09-.42-.088-.522-.855-.217-1.607.153-2.474-.128.548-.688 1.44-.076 2.244-.267.332-.026.382-.485.332-.765-.625.637-1.747-.128-2.55.153.05-.077.05-.166.114-.243.574-.726 2.538.09 2.513-1.236 0-.09-.013-.191-.039-.293-.165-.804-.115-.625-.37-1.3-.382-.919-1.797-1.212-2.027-1.747-.14-1.492-.204-2.295-.19-4.539h-.218c.039 1.594-.165 3.009-.242 4.513-.23.536-1.658.803-2.027 1.734-.255.688-.217.497-.37 1.3-.025.128-.038.23-.038.332 0 1.275 1.925.484 2.499 1.21l.051.256c-.778-.332-1.708.382-2.423-.28-.14.165-.216.356-.165.56.561.714 2.155-.344 2.55.6-.676.165-1.53-.039-2.333.012-.14.039-.243.09-.268.217a.69.69 0 00.102.42c.854-.305 1.696.077 2.55.116-.588.688-1.799.102-2.526.522" fill="#341f14"/></svg>