<svg viewBox="0 0 334.88 115.18" xmlns="http://www.w3.org/2000/svg"><defs><clipPath id="a"><path d="M278.25 663.84h306.8v112.32h-306.8V663.84z"/></clipPath></defs><g clip-path="url(#a)" transform="matrix(1.25 0 0 -1.25 -371.22 951.25)"><path d="M318.628 718.06s-5.138-15.016-6.11-24.858c3.523 8.58 10.275 20.542 14.377 26.195-5.79 4.793-16.474 9.83-16.474 9.83s8.456 3.669 25.52 4.58c0 0 7.107 13.917 25.437 26.966-11.077-3.603-21.562-13.207-32.222-23.692-13.642-.711-28.413-6.262-29.99-6.97 15.713-8.236 19.462-12.051 19.462-12.051" fill="#47c4f3"/><path d="M380.404 729.016c-13.342 5.451-29.801 6.859-29.801 6.859s-.368 4.267.902 12.483c-1.565-3.42-4.422-10.74-4.906-16.204 11.996-.944 20.192-3.703 20.192-3.703s-12.169-4.67-18.896-10.05c1.225-3.037 3.938-11.848 5.487-18.67-2.65 2.418-10.473 8.969-16.152 12.45-7.582-2.98-28.505-23.956-40.26-43.347 5.087 5.364 19.994 22.424 40.18 34.759 4.125-2.463 23.327-15.197 23.327-15.197s-4.205 22.642-5.77 27.803c6.013 4.162 16.147 9.839 25.697 12.817" fill="#47c4f3"/><path d="M397.885 739.364h-3.292s-5.55-9.517-5.717-10.088l-4.137-.183v-5.07h3.677v-15.119c0-3.41.88-6.069 2.591-7.912 1.724-1.852 4.087-2.787 7.027-2.787 1.303 0 2.638.087 3.998.263 1.358.179 2.521.484 3.47.873l.266.104v5.57l-.557-.194a11.737 11.737 0 00-1.81-.449 11.746 11.746 0 00-2.04-.166c-1.393 0-2.322.309-2.764.92-.48.649-.712 1.72-.712 3.182v15.63h8.152v5.449h-8.152v9.977zm158.827 0h-3.281s-5.552-9.517-5.719-10.088c-.522-.016-4.135-.183-4.135-.183v-5.07h3.683v-15.119c0-3.41.864-6.069 2.584-7.912 1.722-1.852 4.09-2.787 7.024-2.787 1.3 0 2.639.087 3.999.263 1.353.179 2.524.484 3.47.873l.265.104v5.57l-.555-.194a11.955 11.955 0 00-1.816-.449 11.63 11.63 0 00-2.04-.166c-1.379 0-2.314.309-2.763.92-.473.649-.716 1.72-.716 3.182v15.63h8.163v5.449h-8.163v9.977zm-98.446-9.942h9.497v-30.814h-9.497v30.814zm10.856-7.846c.345.239.7.453 1.083.619 1.01.428 2.118.65 3.327.65.901 0 1.634-.236 2.24-.715.576-.455.868-1.417.868-2.848V698.56h9.5v21.42c0 3.689-.746 6.31-2.222 7.797-1.483 1.484-3.513 2.236-6.04 2.236-2.141 0-4.024-.367-5.637-1.103l-3.293-7.157.174-.176zm40.618-7.033c-1.344 1.596-3.763 2.894-7.163 3.864-2.565.727-4.228 1.301-4.956 1.696-.601.333-.9.907-.9 1.76 0 .709.407 1.275 1.234 1.713.914.478 2.14.723 3.64.723 1.323 0 2.734-.14 4.195-.432a14.91 14.91 0 001.691-.415l2.23 4.854-.222.105a17.614 17.614 0 01-3.645 1.183c-1.296.265-2.88.4-4.713.4-4.026 0-7.041-.876-8.945-2.6-1.91-1.727-2.876-3.878-2.876-6.406 0-2.442.536-4.471 1.605-6.021 1.064-1.555 3.096-2.775 6.002-3.615 3.656-1.069 4.98-1.774 5.453-2.18.637-.557.952-1.27.952-2.15 0-.89-.473-1.61-1.447-2.202-1.039-.634-2.563-.95-4.533-.95a15.85 15.85 0 00-4.623.69c-1.504.46-2.684.915-3.493 1.35l-.491.25-.136-.136h-.01v-6.018l.206-.128c.78-.497 1.994-.9 3.693-1.228 1.656-.318 3.512-.477 5.512-.477 4.85 0 8.395.972 10.547 2.887 2.156 1.944 3.264 4.38 3.264 7.267 0 2.518-.684 4.603-2.07 6.216m-58.04 12.715c-1.986 1.815-5.088 2.73-9.19 2.73-2.527 0-4.703-.203-6.488-.606-.658-.159-1.287-.323-1.914-.484l-3.155-6.858.157-.165.442.244c1.07.585 2.34 1.073 3.783 1.466 1.446.384 3.122.588 4.985.588 1.672 0 2.97-.332 3.857-.998.866-.642 1.29-1.402 1.29-2.337v-2.183a8.394 8.394 0 01-2.019.91c-1.195.351-2.44.532-3.676.532-4.055 0-7.34-.947-9.757-2.81-2.458-1.903-3.707-4.616-3.707-8.081v-.53c0-3.49.937-6.142 2.8-7.89 1.835-1.747 4.562-2.625 8.115-2.625 1.464 0 2.802.215 4.037.605l2.814 6.395-.173.18a5.287 5.287 0 00-3.096-.989c-1.447 0-2.65.308-3.568.934-.863.579-1.302 1.818-1.302 3.68v.815c0 1.797.431 3.12 1.284 3.92.853.808 2.041 1.224 3.532 1.224 1.604 0 2.814-.44 3.603-1.29.787-.858 1.2-2.139 1.2-3.796l-.008-11.311h9.185v20.02c0 3.953-1.025 6.886-3.03 8.71m87.048 0c-1.992 1.818-5.084 2.733-9.196 2.733-2.512 0-4.702-.206-6.488-.609-.656-.159-1.289-.31-1.906-.484l-3.155-6.858.16-.165.444.244c1.054.585 2.326 1.073 3.783 1.466 1.437.384 3.119.588 4.968.588 1.677 0 2.983-.332 3.869-.998.863-.642 1.28-1.402 1.28-2.337v-2.183a8.143 8.143 0 01-2.014.91 13.123 13.123 0 01-3.676.538c-4.054 0-7.332-.953-9.756-2.816-2.46-1.903-3.701-4.616-3.701-8.081v-.53c0-3.49.934-6.142 2.792-7.89 1.837-1.747 4.566-2.625 8.102-2.625 1.476 0 2.827.215 4.05.605l2.813 6.395-.172.18a5.266 5.266 0 00-3.085-.989c-1.45 0-2.662.308-3.576.934-.864.579-1.304 1.818-1.304 3.68v.815c0 1.797.432 3.12 1.274 3.92.858.808 2.05 1.224 3.55 1.224 1.59 0 2.8-.44 3.59-1.285.8-.863 1.208-2.144 1.208-3.8l-.017-11.312h9.183v20.02c0 3.953-1.014 6.886-3.02 8.71m-107.839 1.082c-1.325 1.114-3.102 1.672-5.26 1.672-1.842 0-3.468-.494-4.83-1.469l-.12-.108c-.916-.68-1.707-1.563-2.389-2.612-.049 1.406-.131 3.59-.131 3.59h-9.159V698.55h9.508v19.348c0 1.864 1 3.547 2.655 4.513.04.028.086.053.086.053a5.685 5.685 0 002.753.707l.12-.005a5.576 5.576 0 003.316-1.16l.428-.32 3.042 6.637-.019.016z" fill="#15569c"/><path d="M421.537 755.731l-4.207-9.951h8.45l-4.243 9.951zm12.868-19.833h-4.558l-2.489 6.007h-11.606l-2.525-6.007h-4.418l10.8 25.058h3.996l10.8-25.058zm1.977 18.683h4.615V735.75h-4.615v18.832zm-.027 2.294l.08 4.11h4.558v-4.089l-4.638-.02zM449.2 735.78h-4.243v18.766h4.242v-4.23c1.156 2.808 3.295 4.728 6.556 4.585v-4.549h-.246c-3.715 0-6.31-2.452-6.31-7.429v-7.144z" fill="#47c4f3"/></g></svg>