<svg viewBox="0 0 470.23 82.257" xmlns="http://www.w3.org/2000/svg"><switch transform="translate(-5 -6.363)"><g><path fill="none" d="M0 0h490v95H0z"/><path d="M475.22 6.363v82.243h-17.046c3.61-9.451 4.414-21.14 1.863-31.387-3.072-13.012-11.592-25.386-23.67-33.025-11.414-7.268-25.911-10.12-40.161-7.188l-3.277.807V6.363h82.291zm-59.638 12.894c-4.378-2.418-10.131-2.771-15.287-1.887l1.818.208.258-.128c2.389-.176 4.909-.092 7.138.399-.73.201-1.988.61-2.868.974a9.12 9.12 0 011.571.788c.946-.345 2.934-.872 3.902-1.065.866.253 3.089 1.282 4.468 2.291-1.638.174-3.864.496-5.659.912.424.37.783.809 1.104 1.288 1.74-.317 4.286-.609 6.489-.693 1.112.962 2.025 2.123 2.643 3.325-2.421-.161-5.638-.121-7.609.093.203.353.482 1.254.601 1.794 2.449-.104 6.44.077 8.115.32.549 1.318.865 2.743.992 4.231-2.795-.551-6.088-1.015-8.66-1.139.028.827-.006 1.618-.082 2.393a60.73 60.73 0 018.895 1.611c-.039 1.458-.252 3.274-.635 4.678-2.276-.813-5.918-1.891-8.997-2.516a20.877 20.877 0 01-1.261 3.699c3.015 1.008 5.991 2.32 8.84 3.733a26.478 26.478 0 01-1.779 3.988c-2.854-1.604-5.793-3.173-8.7-4.414-.881 1.608-2 3.324-3.051 4.733 2.836 1.724 5.513 3.592 8.174 5.596-.798 1.169-1.945 2.571-2.634 3.406-2.552-2.122-7.788-6.288-7.788-6.288-1.54 1.854-2.857 3.24-4.798 4.743 2.149 2.198 4.96 5.341 6.716 7.517a17.642 17.642 0 01-2.86 2.438c-2.132-2.618-4.697-5.928-6.19-8.005-2.096 1.644-3.376 2.535-5.518 3.641v3.078l3.402 6.804c-.772.495-1.401.796-2.392 1.223l-1.011-1.984v3.576c13.119-5.826 26.473-18.674 30.355-32.625 1.422-4.822 1.669-11.027-.655-15.522-1.364-2.957-4.12-5.715-7.047-7.214m-1.957-2.028c.571.187 1.117.441 1.664.679l.308-.053a25.075 25.075 0 017.882 2.708c-1.304.011-2.652-.009-3.954.099a21.73 21.73 0 011.59 1.577 60.252 60.252 0 015.149.115c1.668 1.224 3.363 2.863 4.311 4.554-1.95-.448-4.629-.831-7.02-1.038.31.711.626 1.444.889 2.204 2.657.39 5.287.875 7.85 1.523.845 1.749 1.487 3.592 1.763 5.541-2.825-1.007-5.72-1.964-8.691-2.568.075.959.082 1.944.088 2.915 3.063.885 6.051 1.913 8.95 3.225.013 1.968-.196 3.843-.638 5.624-2.912-1.453-5.885-2.891-8.978-3.94a40.985 40.985 0 01-1.506 5.058c2.967 1.523 5.909 3.073 8.717 4.906a24.937 24.937 0 01-2.198 4.609c-2.757-1.886-5.518-3.719-8.395-5.315-.979 2.035-2.22 4.121-3.688 6.021 2.563 2.018 5.188 4.121 7.658 6.354a30.069 30.069 0 01-3.127 3.932c-1.803-1.9-4.815-4.606-7.321-6.719-1.771 2.139-3.866 4.501-5.976 6.271 1.61 1.692 6.39 7.451 6.39 7.451-.955.953-2.148 1.935-3.37 2.813 0 0-4.881-6.26-6.083-7.769-2.886 2.289-5.194 3.891-8.573 5.686 1.338 2.28 4.661 8.461 4.661 8.461-.854.523-1.745 1.014-2.636 1.341-1.569-2.604-3.457-6.376-4.462-8.528-.971.534-1.949.879-1.949.879V87.1c10.175-3.306 19.551-9.148 27.486-17.605 7.231-7.837 12.952-16.298 14.65-26.409 1.355-8.059-1.315-15.653-7.715-20.784-3.881-3.325-8.692-4.482-13.726-5.073m-3.388 5.368c-4.453-4.501-11.283-4.878-17.309-3.461.002-.002 0 .547 0 .547 1.259-.267 2.89-.525 4.386-.52-.976.59-1.915 1.305-2.763 2.003.361.078.744.201 1.096.349 1.359-.971 2.674-1.812 3.77-2.41 1.423.012 3.26.276 4.458.756-1.981.712-4.381 1.812-5.926 2.853.284.152.585.403.807.633 1.902-1.015 4.633-2.188 6.875-2.904 1.063.425 2.207 1.179 2.855 1.814-2.866.679-5.611 1.429-8.372 2.553.266.314.557.789.695 1.084 1.996-.71 5.91-1.85 8.98-2.436.563.601 1.236 1.558 1.58 2.453-3.392.353-7.26.943-9.873 1.687.164.439.266.868.336 1.278 3.216-.617 6.755-1.078 10.216-1.216.308.994.481 2.059.488 3.15-3.45-.218-7.401-.067-10.543.247 0 .409-.058 1.227-.111 1.733 3.185-.097 6.746-.062 10.549.366-.136 1.032-.383 2.366-.715 3.516-3.555-.811-6.793-1.206-10.375-1.442-.128.692-.426 1.539-.759 2.262 3.347.608 6.69 1.536 9.918 2.696a30.163 30.163 0 01-1.528 3.058c-2.416-1.137-6.704-2.74-9.517-3.527-.464.938-1.242 2.216-2.017 3.164 2.021.985 5.896 3.172 8.554 4.89a27.034 27.034 0 01-2.099 2.514c-2.573-2.005-5.126-3.889-7.921-5.667a28.838 28.838 0 01-3.045 3.009v.324l6.422 6.836a25.555 25.555 0 01-2.2 1.8l-4.222-5.397v9.524c6.52-3.826 13.119-10.106 16.83-16.76 3.027-5.327 5.319-12.538 2.386-18.663-.517-.947-1.067-1.867-1.906-2.696m19.184.068l1.896.232c1.892.982 3.634 2.367 5.199 4.025.577.63 1.199 1.267 1.6 1.955-1.564-.443-3.079-.981-4.695-1.331.547.859.936 1.697 1.338 2.678 1.804.519 3.594 1.142 5.346 1.765 1.123 2.132 1.943 4.42 2.335 6.843-2.021-1.012-4.048-1.997-6.129-2.814.161 1.188.206 2.407.161 3.586 2.286 1.042 4.847 2.446 6.431 3.463.059 1.673-.108 4.647-.599 6.542-1.824-1.329-4.451-3.034-6.583-4.133-.29 1.643-1.074 4.202-1.887 6.007 2.223 1.509 4.448 3.054 6.553 4.868-.644 1.779-1.471 3.488-2.365 5.151a125.333 125.333 0 00-6.49-5.223c-1.267 2.505-2.668 4.763-4.581 7.112 2.146 1.979 4.192 3.915 6.242 6.036-1.004 1.454-2.128 2.898-3.44 4.254-1.952-2.093-3.96-4.241-5.999-6.247-2.125 2.449-4.524 5.019-7.026 7.125 1.153 1.203 3.646 4.112 5.459 6.725-1.247 1.068-2.41 2.073-3.655 2.987l-5.274-6.807c-3.256 2.54-6.715 4.633-10.174 6.522l2.767 4.617h8.578c13.109-8.951 24.95-22.243 28.599-37.081 2.203-9.073.111-18.374-6.142-25.13-3.342-3.6-7.046-4.804-9.661-5.612.669.445 1.438 1.116 2.196 1.885m-36.49-.756v1.585l.887-.615c.74.17 1.582.544 2.147.91-1.024.601-2.077 1.193-3.023 1.841v.994c1.264-.771 2.751-1.673 3.928-2.27.474.304.901.755 1.232 1.205-1.699.678-4.069 1.833-5.173 2.417v1.025c1.885-.92 3.971-1.841 5.955-2.457.255.452.514 1.019.605 1.542-2.108.408-4.551 1.298-6.548 2.072v.936c2.113-.736 4.952-1.481 6.813-1.78.138.599.156 1.373.158 1.919-2.802.269-4.688.596-6.966 1.055v1.069c2.03-.271 5.396-.518 6.854-.464-.14.733-.3 1.493-.581 2.159-1.676-.154-4.39-.278-6.279-.227-.013 0-.013 1.427-.013 1.433 1.848.102 3.875.555 5.498.862-.22.567-.633 1.355-.987 1.925-1.265-.428-3.13-1.015-4.511-1.235v2.813c.889.4 2.178 1.039 2.615 1.323-.294.433-.878 1.139-1.271 1.494-.59-.393-1.344-.831-1.344-.831v3.596c1.484-1.459 2.943-2.988 4.102-4.6 2.871-4.139 5.133-9.507 3.072-14.683-1.246-2.839-4.274-4.621-7.17-5.013m48.062 7.923c.599 1.017 1.17 2.06 1.644 3.125l2.287 1.054c1.623 2.646 2.917 5.429 3.625 8.461-1.262-.796-2.546-1.623-3.833-2.322.203 1.375.249 2.615.284 4.061 1.446 1.013 2.957 2.081 4.357 3.325.134 2.542-.05 5.048-.435 7.4a38.152 38.152 0 00-4.708-3.91c-.383 2.174-1.171 4.634-2.084 6.815 1.608 1.282 3.368 2.952 4.909 4.639a35.406 35.406 0 01-2.434 5.516c-1.557-1.676-3.256-3.417-4.953-4.908-1.042 2.028-3.158 5.306-5.013 7.828 1.696 1.738 3.265 3.557 4.818 5.381-1.1 1.542-2.36 3.012-3.656 4.44-1.573-1.813-3.047-3.675-4.69-5.443-2.488 2.898-4.57 5.149-7.543 7.646 1.756 2.131 4.416 5.668 4.416 5.668h1.499c2.78-2.469 5.46-5.249 7.896-8.06 5.999-7.341 10.744-15.182 12.4-24.292 1.795-9.554-.709-18.855-7.032-25.766l-1.754-.658zm6 4.784l-.028.07c2.741 3.371 4.924 6.988 6.049 11.013l-.021.043-2.115-1.601c.271 1.635.484 3.154.543 4.858.997.753 2.087 1.738 2.938 2.77.145 2.775.145 5.734-.331 8.461-.949-1.263-1.795-2.181-3.279-3.66-.327 2.018-1.085 5.199-1.997 7.32 1.303 1.407 2.626 3.187 3.465 4.486-.489 1.673-1.432 3.919-2.438 5.795-1.194-1.541-2.04-2.788-3.598-4.622-1.546 2.854-3.361 5.755-5.369 8.419 1.361 1.605 2.615 3.279 3.8 4.972a53.12 53.12 0 01-3.645 4.603c-1.239-1.705-2.56-3.398-3.849-5.082-1.799 2.097-3.61 4.227-5.8 6.146h10.098c6.503-7.544 11.22-15.894 13.146-25.336 1.986-9.511.415-19.579-5.714-26.75-.573-.635-1.168-1.436-1.855-1.905m8.618 13.225c.396 1.816.563 3.319.792 5.71.748.813 1.646 2.196 1.646 2.196.094 2.78-.063 5.582-.644 8.457l-1.533-1.889c-.46 2.643-1.114 5.101-2.075 7.794l1.695 2.945c-.502 1.768-1.466 4.208-2.408 6.152-.636-1.029-1.227-2.164-1.881-3.063-1.526 2.968-3.355 5.856-5.335 8.64l2.371 3.823h.549c5.718-8.482 9.549-17.841 9.942-28.481.196-4.454-1.202-8.336-2.882-12.051l-.237-.233zm4.538 15.258c-.194 1.43-.292 2.876-.551 4.231l-.452-.616c-.486 2.916-1.193 5.625-2.203 8.325l.705 1.952a55.79 55.79 0 01-2.244 6.256c-.217-.67-.638-1.466-1.016-2.083-1.266 2.522-2.768 5.207-4.274 7.442h3.786c2.068-3.98 3.673-8.215 4.867-12.581.995-4.087 1.902-8.451 1.399-12.927h-.017zm.233 10.422c-.794 4.172-2.231 9.314-3.432 12.985a9.275 9.275 0 01-.402-.869c-.566 1.141-1.425 2.969-1.425 2.969h1.941c1.673-3.943 2.851-9.639 3.318-15.085m-60.241 11.865a64.042 64.042 0 01-7.213 2.77v.443h9.008l-1.795-3.213zm19.723.604c-.938.671-2.127 1.728-3.557 2.63h5.279c.001 0-1.141-1.717-1.722-2.63M325.93 38.18h9.205c10.087.013 14.184 4.239 14.184 11.906 0 7.87-4.211 11.874-14.184 11.89h-9.205V38.18zm-12.254-9.691v43.174h21.733c17.896-.014 26.679-8.104 26.679-21.635 0-12.803-7.91-21.519-26.679-21.54h-21.733zm-23.736 0v9.46h-28.1v7.654h23.8v8.774h-23.8v7.888h28.28v9.398h-40.5V28.489zm-61.69.001v9.777H212.4V71.66h-12.28V38.267h-15.83V28.49zm-78.18 0h12.49v43.173h-12.49V38.389zM87.112 44.639l26.548 27.024h9.18V28.489h-11.45v25.888L86.294 28.489H75.663v43.174h11.449zm-34.97 7.98c.002 13.206-8.22 19.836-23.484 19.836C13.354 72.455 5 65.857 5 52.696V28.49h12.262v24.237c.011 6.585 3.735 9.873 11.437 9.848 7.615-.026 11.216-3.236 11.222-9.774V28.49h12.221v24.129z" fill="#005daa"/></g></switch></svg>