<svg width="2140" height="510" viewBox="0 0 3210 765" xmlns="http://www.w3.org/2000/svg" xmlns:xlink="http://www.w3.org/1999/xlink"><circle cx="350" cy="353" r="328" fill="#FCDD53" stroke="#E42A2B" stroke-width="30"/><path d="M571 430c-11 13-21 20-39 23H334c-10-5-11-12 0-17h112c10 0 19-3 26-12 33-44 71-86 100-134-13 12-21 19-40 22H395c-14 0-25 5-34 17-27 35-55 69-82 104-71 85-120-102-24-72-13-17-27-33-40-50-10-10-25-11-35 0-60 76-61 193 64 204h266c20-29 41-57 61-85zm-41-238c-9 7-15 10-29 10H380c-12 0-27 5-35 15l-77 98 22 28 27-33c9-10 19-14 33-14h75c38 0 87-82 105-104z" fill="#478C3E"/><g fill="#0F477F" fill-rule="evenodd"><path d="M2998 258l-46 168h-66l76-276h67l55 167 46-167h66l-77 276h-66l-55-168zm-266 70h65l-4-99-61 99zm115-178l22 276h-69l-3-51h-91l-31 51h-69l174-276h67zm-302 54h-79l15-54h223l-15 54h-78l-62 222h-65l61-222zm-278 133c0 31 16 52 51 46 49-10 45-70-13-76-49-6-74-46-62-93 21-45 56-64 107-70h1c38-8 95 2 101 50 1 8 3 24-2 32h-62c0-14-3-27-17-31-46-13-104 41-7 66 25 6 59 15 66 43 10 49-19 95-58 117-36 15-88 16-125 9-46-16-55-45-47-93zm-46-187c-26 92-51 184-76 276h-66l76-276h66zm-306 108l127-108h80l-136 114 69 162h-81l-45-117-36 30-25 87h-65l77-276h65l-30 108zm-252 2h130l-14 50h-129l-17 62h148l-14 54h-215l76-276h212l-15 54h-146l-16 56zm-248-59l-16 59h50c18 0 35-8 42-29 4-13 1-23-12-28-17-5-45-2-64-2zm-30 107l-18 68c37 0 90 11 104-35 4-24-13-33-34-33zm114-158c34 0 71 13 64 54-5 32-33 62-62 73v2c42 0 42 55 32 83-15 44-62 64-106 64h-140l76-276zm-276 55h-126l16-55h206l-13 51-182 170h143l-14 55h-224l16-58 178-163zm-311-55c-15 54-31 108-46 161-6 28-5 75 36 69 33-4 59-38 66-69 14-53 28-107 43-161h65c-20 73-31 172-78 236-33 32-63 46-112 46-79 0-98-36-88-111 15-57 31-114 47-171z"/><path id="a" d="M2300 637c-18 0-49 7-55 26-4 8 3 14 10 17 30 0 35-21 45-43zm-77-31c0-32 42-44 69-48 26 0 45-1 58 22 1 7 2 11 1 18-5 25-31 80-21 103v1h-44v-12c-89 64-121-54-29-66 8-2 52-6 52-23 0-28-33-17-43-2 0 2-2 6-2 7h-41z"/><use x="554" xlink:href="#a"/><path d="M2657 616l-45 86h-44l-4-140h45l-2 86 44-86h41l-4 86 45-86h47l-82 140h-45l4-86zm-97-57l-9 33h-2c-14 0-17-1-30 4-19 11-28 26-34 49l-15 57h-50l46-140h40l-6 19c17-16 38-22 60-22zm-163-17l8-33h44l-9 33h-43zm37 20l-38 140h-43l39-140h42zm468 162c28 0 26 0 41-24l-21-138h51l6 87 46-87h45l-86 148c-23 37-44 42-90 42l8-28zm148-68h41c-2 9-2 13 4 20 15 12 32 2 40-12 4-25-45-17-62-34-4-5-6-8-6-15 0-14 4-27 13-38 6-6 13-10 21-13 13-5 26-6 39-6 9 0 16 0 25 1 25 4 25 22 25 41h-39l1-4c0-13-10-13-19-13-12 0-21 5-23 18 0 6 3 9 8 11 36 6 74 13 59 53-7 17-20 29-37 36-11 4-25 5-37 5-10 0-20 0-30-3-9-4-15-8-21-15-6-12-7-18-5-32h3z"/></g></svg>