<svg viewBox="0 0 220.68 41.497" xmlns="http://www.w3.org/2000/svg"><g fill="#ed1d24"><path d="M51.93 20.7H38.253c-.13 3.145 1.08 5.409 4.517 5.409 2.453 0 4.899-.766 6.181-1.4l.649 4.37c-1.891.981-4.904 1.8-8.335 1.8-5.85 0-9.283-3.464-9.283-9.316 0-3.555 1.154-7.608 3.138-10.478 2.23-3.29 5.623-5.356 9.83-5.356 5.121 0 7.994 3.141 7.994 8.535 0 1.356-.363 4.351-1.014 6.436M44.137 9.825c-1.927 0-3.56 1.395-4.684 3.766-.462 1.042-.543 1.325-.854 2.608h8.066c.185-.713.356-1.881.356-2.649 0-2.43-1.036-3.725-2.883-3.725M9.41 37.59H3.36L.508 6.395H7.12l1.215 21.208L17.64 6.395h6.836L9.41 37.59zM66.54 10.9h-3.586l-2.519 12.689c-.079.369-.49 2.574 1.634 2.687.6.047 1.489-.118 1.88-.301 0 0-1.038 4.904-5.74 4.904-3.638 0-5.298-2.868-4.445-7.158L57.99 2.655S60.381-.174 65.025.65c-.804 3.98-1.17 5.748-1.17 5.748l3.58-.01-.895 4.512zm44.5 0h-3.59l-2.524 12.689c-.08.369-.485 2.574 1.642 2.687.595.047 1.483-.118 1.873-.301 0 0-1.035 4.904-5.737 4.904-3.633 0-5.293-2.868-4.433-7.158l4.214-21.066s2.4-2.829 7.045-2.005c-.81 3.98-1.18 5.748-1.18 5.748l3.596-.01-.906 4.512zm-14.61 9.8H82.751c-.135 3.145 1.077 5.409 4.512 5.409 2.443 0 4.895-.766 6.178-1.4l.657 4.37c-1.894.981-4.904 1.8-8.35 1.8-5.832 0-9.267-3.464-9.267-9.316 0-3.555 1.145-7.608 3.128-10.478 2.239-3.29 5.635-5.356 9.842-5.356 5.119 0 7.997 3.141 7.997 8.535 0 1.356-.365 4.351-1.018 6.436M88.634 9.825c-1.93 0-3.57 1.395-4.683 3.766-.476 1.042-.551 1.325-.856 2.608h8.056c.192-.713.363-1.881.363-2.649 0-2.43-1.031-3.725-2.88-3.725m70.556 1.165c-1.586-.637-3.316-.684-4.424-.185l-3.911 19.84h-6.587l4.556-22.887c2.77-1.588 7.921-2.518 11.955-1.774l-1.589 5.006zM127 37.59l.066-6.951h-9.126l-3.684 6.951h-6.537l17.9-31.195h6.823l1.168 31.195H127zm.216-24.261l-6.875 12.809h6.73l.145-12.809z"/><path d="M60.29 41.02c-5.914 0-9.151-4.037-8.674-8.255 2.929 3.548 8.377 3.558 11.625.58 1.199-1.08 2.18-2.824 2.988-7.01 1.399-7.14 3.997-19.914 3.997-19.914h6.624L72.264 29.26c-1.514 7.123-6.055 11.76-11.974 11.76M27.42 30.64h-6.611l4.85-24.242h6.622l-4.86 24.242zm113.73 0h-6.623l4.865-24.242h6.63L141.15 30.64zm15.14.24c-1.098 0-1.861-.823-1.861-1.874 0-1.421 1.298-2.789 2.736-2.789 1.095 0 1.886.802 1.886 1.877 0 1.416-1.336 2.786-2.761 2.786m16.55-14.65a3.006 3.006 0 00-1.795-.607c-1.314 0-2.492.773-3.38 2.423-.845 1.507-1.386 3.847-1.386 5.584 0 2.214.869 3.384 2.245 3.384.897 0 1.847-.333 2.331-.695l.414 3.205c-.826.736-2.3 1.34-4.291 1.34-3.352 0-5.753-2.673-5.753-6.928 0-2.646.965-5.827 2.401-7.97 1.728-2.54 4.162-3.816 6.652-3.816 1.95 0 3.592.738 4.157 1.334l-1.595 2.746z"/><path d="M185.88 26.85c-1.595 2.476-4.034 4.01-7.291 4.01-4.085 0-6.2-2.737-6.2-6.66 0-2.644.927-5.929 2.33-8.072 1.629-2.515 4.091-3.982 7.252-3.982 4.099 0 6.248 2.708 6.248 6.632 0 2.648-.968 5.923-2.339 8.072m-4.319-11.459c-1.34 0-2.302 1.077-2.972 2.679-.735 1.713-1.378 4.784-1.378 6.631 0 1.54.442 2.613 1.854 2.613 1.386 0 2.271-.999 2.94-2.613.716-1.71 1.408-4.821 1.408-6.658 0-1.544-.48-2.652-1.852-2.652m33.079 2.669l-2.49 12.644h-5.031l2.551-12.813c.027-.235.065-.432.065-.666 0-1.051-.62-1.8-2.104-1.8-.902 0-1.797.405-2.417.953l-2.838 14.326h-5.034l2.553-12.851c.03-.232.066-.427.066-.628 0-1.121-.777-1.8-2.291-1.8-.819 0-1.495.139-2.137.371l-2.937 14.908h-5.023l3.418-17.2c2.056-.881 4.423-1.351 7.315-1.351 2.298 0 4.16.81 4.975 1.823 1.156-.947 3.351-1.823 6.221-1.823 3.524 0 5.264 1.887 5.264 4.59a6.4 6.4 0 01-.126 1.317m4.35 11.88a.398.398 0 01-.088-.165 1.317 1.317 0 01-.066-.415c-.004-.077-.005-.137-.011-.219-.005-.072-.02-.136-.035-.208a.97.97 0 00-.065-.18.573.573 0 00-.126-.14.429.429 0 00-.19-.07h-.003a.628.628 0 00.37-.278.965.965 0 00.115-.47.754.754 0 00-.226-.57c-.15-.139-.365-.207-.635-.207h-1.319v2.937h.39V28.71H218a.47.47 0 01.211.043.382.382 0 01.127.11.357.357 0 01.073.165c.02.067.034.128.043.202.012.066.025.139.025.216l.006.207c.004.065.005.122.022.17.007.06.026.096.063.132h.428l-.008-.015zm-1.889-2.575h.915c.167 0 .292.05.365.134.078.095.12.211.12.359 0 .1-.016.19-.051.25a.529.529 0 01-.136.157.496.496 0 01-.203.078 1.13 1.13 0 01-.242.02h-.768v-.998z"/><path d="M217.8 30.99c-1.321 0-2.396-1.122-2.396-2.509 0-1.38 1.075-2.5 2.396-2.5 1.32 0 2.393 1.12 2.393 2.5 0 1.387-1.073 2.509-2.393 2.509m0-4.641c-1.127 0-2.036.96-2.036 2.132 0 1.183.909 2.133 2.036 2.133 1.124 0 2.034-.95 2.034-2.133 0-1.172-.91-2.132-2.034-2.132"/></g></svg>