<svg viewBox="0 0 2092 691" xmlns="http://www.w3.org/2000/svg"><style>.st1{fill:#ed164a}</style><path d="M53.616 333.45h57.504l53.74 218.28h.85l53.3-218.28h57.17l-77.85 305.43h-66.47zM303.6 431.57c0-75.269 39.801-102.36 96.428-102.36 56.715 0 96.494 27.088 96.494 102.36v109.18c0 75.291-39.779 102.34-96.494 102.34-56.627 0-96.428-27.044-96.428-102.34V431.57zm58.443 116.78c0 33.871 14.748 43.105 37.985 43.105 23.303 0 38.094-9.234 38.094-43.105V423.91c0-33.784-14.791-43.083-38.094-43.083-23.237 0-37.985 9.299-37.985 43.083v124.44zm181.877 90.53V333.45h58.38v253.84h93.89v51.59zm182.74-207.31c0-75.269 39.735-102.36 96.406-102.36 56.715 0 96.428 27.088 96.428 102.36v109.18c0 75.291-39.713 102.34-96.428 102.34-56.671 0-96.406-27.044-96.406-102.34V431.57zm58.334 116.78c0 33.871 14.791 43.105 38.072 43.105 23.259 0 38.072-9.234 38.072-43.105V423.91c0-33.784-14.813-43.083-38.072-43.083-23.281 0-38.072 9.299-38.072 43.083v124.44zm358.706-214.9V385h-68.1v253.88h-58.3V385h-68.13v-51.55zm34.7 305.43V333.45h159.9V385h-101.5v70.3h77.4v51.6h-77.4v80.39h105.7v51.59zm414.2 0H1535l-53.8-218.3h-.7l-53.4 218.3H1370l77.9-305.43h66.4z" fill="#432129"/><path class="st1" d="M1895.8 404.43l-71.3 71.27-71.3-71.27 71.3-71.35zm0-285.21l-71.3 71.31-71.3-71.31 71.3-71.311zm142.6 142.59l-71.3 71.28-71.3-71.28 71.3-71.29zm-285.2 0l-71.3 71.28-71.4-71.28 71.4-71.29z"/><path class="st1" d="M1697.7 348.95v-31.683l-15.82 15.82 15.82 15.863zm15.863 15.842l15.863 15.842v-95.049l-15.863 15.863v63.344zm31.705-95.028v126.75l7.899 7.921 7.899-7.921v-126.75l-7.899-7.965-7.899 7.965zm63.323 47.503v31.683l15.907-15.863-15.907-15.82zm-31.662 63.366l15.863-15.842v-63.344l-15.863-15.863v95.049zM1840.3 206.32v-31.639l-15.863 15.863 15.863 15.776zm15.841 15.864l15.863 15.842v-95.071l-15.863 15.885v63.344zm31.683-95.028v126.73l7.943 7.921 7.899-7.921v-126.73l-7.899-7.943-7.943 7.943zm63.367 47.525v31.639l15.863-15.776-15.863-15.863zm-31.683 63.344l15.885-15.842v-63.344l-15.885-15.885v95.071z"/><path class="st1" d="M1840.3 348.95v-31.683l-15.863 15.82 15.863 15.863zm15.841 15.842l15.863 15.842v-95.049l-15.863 15.863v63.344zm31.683-95.028v126.75l7.943 7.921 7.899-7.921v-126.75l-7.899-7.965-7.943 7.965zm63.367 47.503v31.683l15.863-15.863-15.863-15.82zm-31.683 63.366l15.885-15.842v-63.344l-15.885-15.863v95.049zM1697.7 206.32v-31.639l-15.82 15.863 15.82 15.776zm15.863 15.864l15.863 15.842v-95.071l-15.863 15.885v63.344zm31.705-95.028v126.73l7.899 7.921 7.899-7.921v-126.73l-7.899-7.943-7.899 7.943zm63.323 47.525v31.639l15.907-15.776-15.907-15.863zm-31.662 63.344l15.863-15.842v-63.344l-15.863-15.885v95.071z"/></svg>