<svg width="455.88" height="133.42" viewBox="-0.378 -0.292 455.88 133.42" xmlns="http://www.w3.org/2000/svg"><path d="M279.6 13.292c-2.788 1.526-7.217 5.696-12.334 11.438 6.45 6.53 13.837 14.963 21.798 25.671 12.567-16.854 20.79-28.627 26.738-32.993 5.947-4.374 25.217-10.034 59.144-15.76-51.01 4.613-87.741 7.473-95.346 11.644z" clip-rule="evenodd" fill="#4ea322" fill-rule="evenodd"/><path d="M251.39 10.754c-8.256-5.992-54.951-9.605-114.18-11.047 28.341 4.233 64.641 10.325 75.093 16.902 8.313 5.237 17.364 15.06 32.806 32.918l43.952.873c-15.766-21.188-29.275-33.544-37.675-39.646zM378.5 70.378c-5.214-5.349-12.537-7.752-23.724-7.752-11.12 0-18.477 2.387-23.816 7.737l-.033.015c-5.01 5.31-6.802 12.5-6.802 27.511 0 14.991 1.791 22.18 6.784 27.46 5.39 5.405 12.747 7.781 23.867 7.781 11.187 0 18.492-2.376 23.724-7.752 5.72-5.861 6.801-14.186 6.801-27.489 0-13.31-1.081-21.644-6.8-27.51zm-23.724 50.213c-4.013 0-7.106-.395-9.524-1.196l26.383-34.932c.762 3.374.845 7.716.845 13.146 0 16.35-.674 22.98-17.704 22.98zm0-45.541c4.606 0 7.978.466 10.5 1.474l-27.031 35.829c-1.18-3.608-1.302-8.487-1.302-14.743 0-16.045.687-22.56 17.833-22.56zm-100.316 39.4c-1.355 4.169-6.036 6.044-15.144 6.044-14.965 0-16.917-5.629-17.129-18.381h45.903v-2.604c0-10.903-.302-19.764-4.139-26.305-4.21-7.213-12.213-10.58-25.167-10.58-24.61 0-29.424 12.941-29.424 35.35 0 10.705.849 19.09 5.029 25.164 4.527 6.561 12.415 9.61 24.783 9.61 16.93 0 26.267-6.028 27.776-17.943l.063-.355H254.46zm-15.675-39.685c12.668 0 16.268 3.196 16.703 15.209h-33.121c.563-11.318 4.808-15.209 16.418-15.209zM455.5 99.505c0-10.903-.312-19.764-4.124-26.305-4.226-7.213-12.22-10.581-25.175-10.581-24.619 0-29.425 12.942-29.425 35.351 0 10.705.854 19.09 5.036 25.164 4.514 6.56 12.39 9.61 24.786 9.61 16.932 0 26.267-6.028 27.784-17.944l.04-.354h-12.554c-1.33 4.169-6.007 6.044-15.14 6.044-14.952 0-16.913-5.63-17.144-18.381h45.914v-2.604zm-45.719-9.535c.55-11.318 4.81-15.21 16.42-15.21 12.65 0 16.258 3.197 16.693 15.21h-33.113zm-298.358 41.734h12.79V65.367h-12.79zm-90.031-.01h14.113l14.343-43.96 14.538 43.96h13.917l21.8-66.347h-13.47L71.25 112.054 55.881 65.347H43.839l-15.38 46.707-15.362-46.707H-.378zM197.43 104.65V37.72h-12.806v28.374c-4.468-2.207-10.054-3.27-17.438-3.27-11.044 0-18.34 2.373-23.671 7.7-5.03 5.284-6.79 12.447-6.79 27.368 0 14.899 1.94 22.534 6.718 27.312 4.798 4.792 11.952 7.74 23.743 7.74 11.139 0 18.347-2.441 23.61-7.705 4.462-4.469 6.634-13.461 6.634-20.59zm-30.245-29.42c17.027 0 17.703 6.47 17.703 22.403 0 15.797-.718 22.793-17.703 22.793-16.962 0-17.674-6.996-17.674-22.793 0-15.934.68-22.403 17.674-22.403zm126.225 56.46h-12.815l-.01-66.348h12.884v4.823c5.178-3.064 9.37-4.823 19.184-4.823 2.287 0 3.377.036 4.164.095v12.535c-1.154-.178-2.773-.273-4.164-.273-3.16 0-10.437.339-14.675 4.6-2.981 2.97-4.585 7.858-4.585 16.414l.018 32.977z" clip-rule="evenodd" fill="#00482d" fill-rule="evenodd"/></svg>