<svg xmlns="http://www.w3.org/2000/svg" width="130" height="60"><linearGradient id="a" gradientUnits="userSpaceOnUse" x1="64.999" y1="60" x2="64.999" y2="0"><stop offset="0" stop-color="#161998"/><stop offset=".129" stop-color="#441e93"/><stop offset=".266" stop-color="#6e228f"/><stop offset=".407" stop-color="#90258c"/><stop offset=".549" stop-color="#ab2889"/><stop offset=".694" stop-color="#be2a87"/><stop offset=".842" stop-color="#c92b86"/><stop offset="1" stop-color="#cd2b86"/></linearGradient><path fill="url(#a)" d="M95.53 21.298h12.558L93.216 40.747H80.654L95.53 21.298zm-.944-1.9L78.777 40.08a1.545 1.545 0 00-.163 1.667c.267.545.833.898 1.432.898h14.113l15.937-20.839a1.526 1.526 0 00.151-1.585 1.5 1.5 0 00-1.359-.823H94.586zM49.437 9.288a.468.468 0 01.401-.227h8.236l1.183-6.798a.446.446 0 01.445-.36l7.708-.006a.43.43 0 01.337.134.487.487 0 01.106.369l-.767 4.399 36.237.026c.196 0 .336.119.405.232.042.084.1.255-.019.417l-3.272 4.272 26.856-.007c.156 0 .268.098.312.186a.287.287 0 01-.004.316l-22.32 29.215c-.254.318-.243 1.126-.066 1.472.184.348.821.844 1.22.844l15.7.016a.437.437 0 01.44.506l-1.194 6.827a.446.446 0 01-.446.357H61.204l-.982-.006c.073.338.102.689.102 1.047a5.562 5.562 0 01-5.565 5.561 5.56 5.56 0 110-11.12 5.579 5.579 0 014.881 2.88l24.344-31.907c.391-.824.196-1.119-.015-1.604-.157-.366-.744-.742-1.384-.736h-17.04l-4.354 24.856a.44.44 0 01-.438.332H53.04a.453.453 0 01-.341-.153.422.422 0 01-.099-.356l4.729-26.98-19.237 37.701a.98.98 0 01-.854.498l-6.552.032c-.234 0-.426-.167-.447-.367l-1.807-27.388L14.219 51a.984.984 0 01-.85.494l-6.646-.004a.436.436 0 01-.441-.384L1.947 9.531a.475.475 0 01.113-.346.463.463 0 01.337-.125h8.933c.244 0 .449.198.449.459l1.34 27.123L26.257 9.294a.446.446 0 01.397-.234l8.144-.035c.225 0 .426.17.44.37l1.324 27.333 12.875-27.44zM59.323 0c-.92 0-1.702.657-1.867 1.569l-.981 5.59h-6.927c-.707 0-1.339.381-1.699 1.041l-9.751 20.793-.968-20.102a1.902 1.902 0 00-1.892-1.732h-8.866c-.708 0-1.361.394-1.699 1.045L14.647 29.076l-.99-20.023a1.896 1.896 0 00-1.896-1.893H1.899c-.539 0-1.039.21-1.401.591-.35.384-.53.919-.493 1.478L4.426 51.69a1.895 1.895 0 001.888 1.686l7.331.003c.9 0 1.719-.491 2.143-1.289l11.196-21.444 1.38 21.044a1.9 1.9 0 001.884 1.686l7.277.003c.896 0 1.723-.497 2.146-1.299l13.606-26.67-2.635 15.041c-.1.554.055 1.118.412 1.555.359.427.891.675 1.452.675h8.624c.896 0 1.658-.624 1.858-1.522l4.149-23.671h14.815L59.564 46.783a7.463 7.463 0 00-4.789-1.731c-4.117 0-7.478 3.354-7.478 7.473 0 4.122 3.361 7.475 7.478 7.475 3.783 0 7.003-2.889 7.438-6.622l59.105-.003a1.88 1.88 0 001.865-1.571l1.353-7.693a1.91 1.91 0 00-.42-1.545 1.884 1.884 0 00-1.45-.669l-15.328-.014 22.348-29.237c.38-.567.414-1.251.1-1.839a1.792 1.792 0 00-1.594-.968h-23.915l1.516-1.979a1.867 1.867 0 00.102-1.949 1.909 1.909 0 00-1.671-1.014H69.342l.478-2.682a1.953 1.953 0 00-.441-1.561A1.841 1.841 0 0067.943 0h-8.62z"/></svg>