<svg xmlns="http://www.w3.org/2000/svg" width="841.891" height="234.357"><path fill="#002C5A" d="M292.632 172.538c0 2.551-.602 3.036-3.273 3.036h-8.74c-2.671 0-3.273-.484-3.273-3.036v-72.451c0-2.548.603-3.036 3.273-3.036h8.74c2.672 0 3.273.488 3.273 3.036v72.451zm72.457-68.082l-2.307 6.92c-.492 1.694-2.064 2.06-3.643 1.332-4.492-2.185-11.65-4.125-17.477-4.125-6.066 0-10.801 1.089-13.835 4.487-3.52 3.886-4.974 10.802-4.974 21.848v2.668c0 11.893.847 17.478 3.883 21.482 2.667 3.64 7.157 4.974 13.952 4.974 4.13 0 7.648-.242 9.351-.484 1.455-.242 1.94-.729 1.94-2.306v-17.6H343c-2.556 0-3.279-.604-3.279-2.789v-6.798c0-2.302.724-3.031 3.279-3.031h21.356c2.188 0 2.913.968 2.913 3.031v35.201c0 2.905-.486 3.881-3.155 4.607-6.797 1.819-15.414 2.792-22.693 2.792-13.229 0-20.633-2.188-25.973-7.526-6.066-5.943-8.25-15.899-8.25-30.583v-4.733c0-14.565 3.028-24.514 9.462-30.459 5.827-5.342 14.442-7.403 25.854-7.403 7.768 0 16.746 2.304 21.357 4.729 1.459.73 1.822 1.822 1.218 3.766zm31.795 56.31c0 1.575.728 2.308 2.308 2.308h20.386c2.79 0 3.278.604 3.278 2.915v6.673c0 2.183-.488 2.913-3.278 2.913H393.85c-4.611 0-7.646-.971-9.587-2.913-1.944-1.944-2.669-4.373-2.669-8.74v-63.834c0-2.548.604-3.036 3.275-3.036h8.736c2.671 0 3.278.488 3.278 3.036v60.678zm50.727-19.418c0 6.559.244 12.139.849 18.329.245 2.79 1.334 3.396 3.887 3.396h26.333c2.791 0 3.16.604 3.16 2.914v6.674c0 2.183-.369 2.913-3.16 2.913h-27.791c-6.188 0-10.315-.73-12.986-2.913-2.668-2.188-3.518-5.462-4.246-11.167-.729-6.432-1.093-15.29-1.093-22.692v-4.978c0-7.036.363-16.263 1.093-22.694.605-5.944 2.063-9.227 4.732-11.409 2.79-2.183 6.798-2.67 12.5-2.67h27.912c2.791 0 3.039.607 3.039 2.917v6.671c0 2.185-.248 2.913-3.039 2.913h-26.454c-2.309 0-3.765.853-4.01 3.643-.359 4.246-.726 9.71-.726 15.654h27.188c2.791 0 3.032.605 3.032 2.917v6.672c0 2.188-.241 2.911-3.032 2.911l-27.188-.001zm186.921 21.725c2.793 0 3.277.727 3.277 2.914v6.674c0 2.305-.484 2.913-3.277 2.913h-44.778c-2.916 0-4.128-.73-4.128-3.646v-3.881c0-1.457.853-2.667 2.062-4.609l33.014-53.885h-29.25c-2.787 0-3.274-.729-3.274-2.913v-6.671c0-2.309.487-2.917 3.274-2.917h44.412c2.555 0 3.648.729 3.648 3.036v3.643c0 1.818-.488 2.788-2.065 5.458l-33.493 53.886 30.578-.002zm76.462-14.078c0 9.829-2.188 16.142-7.284 20.876-4.609 4.487-12.015 6.796-22.692 6.796-10.924 0-17.962-2.309-22.574-6.796-5.1-4.734-7.406-11.529-7.406-20.876v-48.908c0-2.548.61-3.036 3.277-3.036h8.741c2.669 0 3.271.488 3.271 3.036v48.178c0 5.341.975 9.472 3.281 11.773 2.427 2.67 6.19 4.004 11.408 4.004 5.704 0 8.979-1.333 11.528-4.004 2.061-2.303 3.151-6.434 3.151-11.773v-48.178c0-2.548.609-3.036 3.277-3.036h8.742c2.668 0 3.276.488 3.276 3.036v48.908h.004zm30.823 23.543c0 2.551-.606 3.036-3.273 3.036h-8.739c-2.669 0-3.278-.484-3.278-3.036v-70.511c0-3.639.971-4.61 4.25-5.097 4.488-.604 9.952-.968 17.593-.968 11.896 0 19.543 1.577 24.884 5.704 4.246 3.396 6.188 8.856 6.188 17.11v2.061c0 11.047-4.729 18.936-15.05 22.454l17.962 29.734c.971 1.578.242 2.549-2.793 2.549h-8.857c-2.914 0-4.006-.85-5.096-2.67l-15.168-27.063c-.49-.97-1.097-1.214-2.431-1.214h-6.189l-.003 27.911zm1.458-63.955c-1.09.119-1.458.483-1.458 1.697v21.847h5.341c7.043 0 11.043-.728 13.227-2.311 2.55-1.814 3.396-5.095 3.396-9.22v-1.454c0-4.246-.602-6.556-2.425-8.254-1.939-1.821-5.341-2.549-12.016-2.549-2.428 0-4.487 0-6.065.244zm-475.52 63.835c-6.795-24.636-15.53-52.066-22.451-70.998-1.333-3.762-3.276-4.369-8.253-4.369h-5.945c-4.977 0-6.672.607-8.008 4.369-3.607 10.042-7.857 22.48-12.073 35.614h15.223c2.353-8.285 4.756-16.578 7.162-24.448h1.458c3.156 10.316 6.312 21.356 9.347 32.16v.035h-35.643c-2.881 9.217-5.682 18.611-8.173 27.637-.849 3.155 1.097 3.155 4.496 3.155h6.428c3.155 0 4.492-.484 5.22-3.155l4.002-14.928h27.188l4.008 14.928c.725 2.67 2.06 3.155 5.216 3.155h6.437c3.391 0 5.21 0 4.361-3.155zm310.103 0c-6.795-24.636-15.531-52.066-22.451-70.998-1.336-3.762-3.273-4.369-8.252-4.369h-5.943c-4.98 0-6.678.607-8.011 4.369-3.604 10.042-7.86 22.48-12.07 35.614h15.219c2.354-8.285 4.756-16.578 7.162-24.448h1.462c3.156 10.316 6.31 21.356 9.345 32.16l.012.035h-35.655c-2.884 9.217-5.683 18.611-8.166 27.637-.85 3.155 1.092 3.155 4.485 3.155h6.436c3.151 0 4.491-.484 5.222-3.155l4-14.928h27.186l4.005 14.928c.729 2.67 2.064 3.155 5.217 3.155h6.435c3.395 0 5.21 0 4.362-3.155z"/><path fill="#A0D6F1" d="M176.013 169.472c-.466-.678-.987-1.436-1.536-2.227-.021-.045-.034-.102-.061-.139l-4.526-6.466c-5.564-7.978-13.167-18.802-21.869-31.233l-4.412-6.303c-1.104-1.58-2.208-3.156-3.313-4.731l-3.491-4.985c-1.032-1.479-2.063-2.95-3.089-4.414a157302.889 157302.889 0 00-33.218-47.44c-1.145-1.626-2.896-3.733-8.091-3.733H62.642s-3.728-.004-3.236 3.92c.208 1.656 2.503 19.657 5.215 40.887.348 2.736.706 5.525 1.064 8.342l.56 4.391c.38 2.969.759 5.952 1.139 8.913.196 1.542.393 3.073.588 4.6.375 2.95.749 5.86 1.11 8.701l4.325 33.871c.266 2.06.441 3.468.519 4.054h99.363c4.193-.002 5.378-2.138 2.724-6.008z"/><path fill="#002C5A" d="M101.082 175.478h72.208c4.192 0 5.376-2.136 2.724-6.006-5.151-7.509-15.428-22.117-27.992-40.064-15.933 10.223-37.43 35.045-46.94 46.07zM68.244 102c.817-.08 1.617-.126 2.399-.132 11.123-.46 18.576 12.909 22.58 20.098 0 0 1.501 2.138 3.416 1.948 1.181-.121 2.339-1.104 3.429-2.905l.873-1.443c3.194-5.273 3.771-6.229 5.701-6.462l.224-.023c2.184-.221 2.786.817 4.013 6.924l.611 3.527a1768.927 1768.927 0 0117.591-21.179A157302.889 157302.889 0 00100.5 61.535c-1.145-1.626-2.896-3.733-8.091-3.733H62.644s-3.728-.004-3.236 3.92c.208 1.656 2.503 19.657 5.215 40.887a28.179 28.179 0 013.621-.609z"/><path fill="#002C5A" d="M80.425 121.168c2.374 3.926 4.66 8.405 6.512 12.004 1.658 3.239 3.086 6.038 3.781 6.834.499.57 1.545 1.514 2.915 1.373 1.775-.177 3.599-2.087 5.264-5.523.352-.684 2.16-4.064 3.866-4.239.366-.034.717.068 1.015.311.166.136.314.312.445.532.771-.953 1.53-1.891 2.278-2.811-.196-1.123-.477-2.294-.868-3.031-.779-1.457-1.354-1.564-1.722-1.535-.471.052-1.294.479-2.544 2.228-.032.076-1.695 3.062-3.809 5.287-1.392 1.469-2.679 2.267-3.818 2.383-.86.084-2.093-.18-3.076-1.937l-4.845-9.81c-.076-.179-5.679-13.911-17.911-12.669-.728.073-1.471.199-2.223.383l.56 4.391c.478-.089.979-.164 1.504-.216 3.882-.394 9.23.325 12.676 6.045zm1.93 38.345c-1.37-5.185-2.367-8.401-3.041-9.829-.058-.142-3.892-9.735-10.232-12.131l4.325 33.871c3.078-3.985 6.101-7.872 9.054-11.641l-.106-.27zm-5.36-24.486c2.845 3.989 5.594 10.171 7.585 14.681.831 1.86 1.566 3.505 2.146 4.646.932-1.181 1.857-2.352 2.775-3.506-.037-.066-.07-.132-.104-.199-2.391-4.85-5.829-12.197-5.858-12.273-.073-.182-5.408-13.999-16.155-14.122.196 1.542.393 3.073.588 4.6 2.509.463 5.986 1.927 9.023 6.173zm11.663 40.062l-.324.389h6.284c20.742-26.104 37.242-42.859 48.991-52.373-1.104-1.58-2.208-3.156-3.313-4.731-20.314 18.715-45.174 48.778-51.638 56.715zm-10.903-.276a8.73 8.73 0 01-.515.665h5.276c.147-.186.306-.378.476-.583 14.324-17.106 38.549-45.626 53.812-61.508-1.032-1.479-2.063-2.95-3.089-4.414-17.999 19.04-38.216 43.965-51.81 60.733l-4.15 5.107z"/></svg>