<svg width="927.21" height="333.87" version="1.0" viewBox="0 0 1563 403.77" xmlns="http://www.w3.org/2000/svg"><defs><style/></defs><path d="M176.841 374.016l-6.39-21.45h-36.357l-6.436 21.45H107.22l34.895-103.028 20.145.001 35.02 103.028h-20.44zm-24.636-80.393l-13.15 42h26.423l-13.273-42zM273.25 359.84c-6.715 12.127-19.834 16.232-32.983 16.232-17.378 0-33.42-7.182-38.55-25.12-1.15-3.914-1.306-7.898-1.603-12h19.137c.294 2.799.731 5.41 1.756 8.085 3.341 8.3 10.942 11.811 19.537 11.811 6.592 0 16.493-2.797 16.493-10.942 0-1.771-.577-2.956-1.306-4.542-2.19-4.415-10.211-7.46-14.44-9.2-8.767-3.639-19.835-7.585-27.299-13.276-6.994-5.407-10.491-12.992-10.491-21.733 0-19.896 17.223-30.215 35.3-30.215 12.98 0 26.704 5.534 32.411 18.094 2.19 4.664 2.765 9.014 3.045 14.144h-19.103c.14-9.637-7.755-15.204-16.804-15.204-6.406 0-15.031 3.544-15.031 11.131 0 7.274 9.045 9.885 14.58 12.091 8.798 3.515 21.046 7.43 28.633 12.871 7.6 5.378 10.665 13.087 10.665 22.289 0 5.444-1.308 10.822-3.948 15.486zm17.533-88.852h19.864v103.028h-19.864zm99.749 103.028l-6.435-21.45h-36.358l-6.403 21.45h-20.425l34.882-103.028 20.131.001 35.036 103.028h-20.428zm-24.685-80.393l-13.134 42h26.41l-13.275-42z" fill="#4c4c4c"/><path fill="#4d4d4d" d="M480.36 374.016l-43.236-72.562v72.562h-18.818V270.988h21.165l41.915 72.528v-72.528h18.81v103.028z"/><path d="M577.167 374.016l-6.436-21.45H534.42l-6.436 21.45h-20.441l34.895-103.028 20.116.001 35.051 103.028h-20.439zm-24.669-80.393l-13.148 42h26.455l-13.307-42zm161.208 80.333l-6.435-21.45h-36.356l-6.39 21.45h-20.441l34.85-103.054h20.16l35.051 103.054h-20.439zm-24.666-80.393l-13.149 42h26.423l-13.274-42zm55.745-22.661h19.834v103.054h-19.834zm92.838 103.054l-21.015-39.422-14.3.001v39.422l-19.836-.001V270.902h27.854c8.332 0 17.1-.28 24.933 2.64 12.996 4.693 20.02 15.481 20.02 29.037 0 13.151-6.279 23.069-18.249 28.6l23.658 42.777h-23.064v.003zm-10.508-84.189c-4.385-2.052-10.508-1.929-15.328-1.929h-9.483v29.785H815.3c10.508 0 19.71-2.924 19.71-15.328.003-5.685-2.611-10.224-7.895-12.528zm43.493 84.189V270.902h20.302v86.143h44.832v16.91zm76.79-103.054h19.865v103.054h-19.865zm99.681 103.054l-43.227-72.502v72.502h-18.81V270.902h21.226l41.846 72.553v-72.553h18.81v103.054zm37.532 0V270.902h64.97v16.937h-45.125v24.245h40.983v16.92h-40.983v28.04h46.764v16.912zm145.469-14.185c-6.685 12.127-19.801 16.232-32.983 16.232-17.347 0-33.42-7.15-38.488-25.119-1.181-3.916-1.306-7.897-1.648-11.94h19.12c.31 2.74.748 5.41 1.772 8.024 3.39 8.298 10.946 11.813 19.554 11.813 6.59 0 16.476-2.8 16.476-10.945 0-1.74-.56-2.921-1.306-4.507-2.176-4.386-10.195-7.493-14.457-9.203-8.733-3.668-19.834-7.614-27.262-13.305-7.024-5.379-10.508-12.996-10.508-21.734 0-19.834 17.223-30.235 35.316-30.235 12.966 0 26.675 5.554 32.395 18.111 2.177 4.664 2.765 9.046 3.081 14.144h-19.122c.127-9.606-7.738-15.204-16.787-15.204-6.436 0-15.048 3.544-15.048 11.13 0 7.275 9.079 9.948 14.613 12.128 8.733 3.479 21.014 7.395 28.6 12.838 7.585 5.411 10.633 13.149 10.633 22.351-.002 5.35-1.308 10.792-3.951 15.42z" fill="#4c4c4c"/><path d="M1198.2 130.041c0 3.606.53 7.258 1.961 10.726 6.28 15.606 22.26 25.15 42.59 17.035 4.853-1.942 139.28-56.13 139.28-56.13s-52.912 134.26-54.9 139.24c-7.708 19.26 1.554 36.67 17.284 42.513 3.45 1.306 7.12 1.896 10.696 1.863 12.838-.059 24.247-7.646 29.781-22.785.81-2.3 67.03-184.11 68.518-188.49.869-2.58 2.363-8.657 2.425-12.868.06-9-3.295-17.472-9.73-23.878-6.404-6.327-14.768-9.606-23.69-9.575-4.259 0-7.802.764-13.089 2.44-3.202 1.025-173.88 64.57-188.52 70.014-14.58 5.437-22.632 17.066-22.606 29.89z" fill="red"/></svg>