<svg xmlns="http://www.w3.org/2000/svg" width="595.399" height="342.511" viewBox="0 0 157.533 90.623"><path d="M76.01.644c6.387-.536 12.798.485 18.966 2.1 7.717 2.073 15.169 5.129 22.15 9.013 3.104 1.767 6.164 3.659 8.887 5.98-2.238 1.308-4.945 1.324-7.446 1.026-3.847-.488-7.56-1.672-11.237-2.86-6.263-2.08-12.444-4.413-18.792-6.23-5.852-1.682-11.87-2.984-17.98-3.1-3.243-.062-6.501.26-9.648 1.059a17.658 17.658 0 015.078-4.153C69.059 1.786 72.538.956 76.01.644M52.143 15.03c5.026-2.53 10.762-3.246 16.328-3.124 7.264.185 14.43 1.722 21.35 3.865 7.815 2.46 15.384 5.727 22.509 9.778 3.405 1.958 6.727 4.093 9.75 6.61-2.249 1.345-4.967 1.534-7.52 1.346-3.334-.262-6.592-1.096-9.795-2.02-5.344-1.586-10.58-3.506-15.854-5.305-6.713-2.294-13.494-4.469-20.465-5.83-7.545-1.474-15.452-1.991-22.966-.067 1.826-2.188 4.12-3.97 6.663-5.253m-8.578 12.299c4.388-1.297 9.002-1.663 13.559-1.528 7.29.241 14.49 1.716 21.47 3.783a127.07 127.07 0 0125.272 10.69c4.001 2.259 7.906 4.728 11.443 7.672-2.334 1.4-5.148 1.653-7.811 1.499-3.472-.217-6.87-1.04-10.21-1.973C92.6 46.131 88 44.51 83.394 42.915c-6.679-2.323-13.378-4.628-20.228-6.401-6.564-1.687-13.295-2.91-20.09-2.93-3.887-.015-7.784.41-11.556 1.367 3.077-3.742 7.427-6.281 12.045-7.622" fill="#3e96d9"/><path d="M46.015 67.76c.36-.667 1.143-1.013 1.884-.968.375-.047.49.293.37.596-.513-.199-1.125-.21-1.567.156.724.25 1.499.214 2.246.103-.15.146-.296.294-.44.443-.895.005-1.764.214-2.611.485.216-.186.437-.364.66-.543l-.542-.271m43.348-.113c.331-.274.66-.55.988-.83.442.536 1.112.758 1.762.925-.305.294-.523.85-1.026.755.084.826.368 1.647.31 2.477-.254.148-.536.24-.803.347.627.108 1.245.262 1.854.448 1.426.428 2.902.709 4.395.747-.47.447-.93.901-1.4 1.345-2.02-.005-3.993.474-5.95.917-2.224.517-4.52.302-6.78.34-.856 1.936-3.148 3.083-5.208 2.601-.923-.223-1.754-.705-2.525-1.243 2.248.297 4.829.202 6.634-1.341-.96-.04-1.93.05-2.881-.116-.416-.076-.911-.24-1.05-.686-.205-.758.25-1.504.79-2 .682-.652 1.65-1.182 2.616-.896.879.238 1.385 1.08 1.692 1.874 1.92.008 3.839.001 5.76.003 1.044-.005 2.11.008 3.121-.298-1.908-.758-4.091-1.054-6.067-.37.47-.673 1.237-1.046 2.005-1.27.856-.277 1.781-.047 2.637-.334-.136-.876-.36-1.734-.536-2.601-.047-.291-.178-.551-.338-.794zm-10.417 5.547a5.38 5.38 0 002.19.16c-.33-.266-.669-.57-1.104-.62-.42-.04-.76.243-1.086.46m68.442-6.379c.452.532 1.117.762 1.772.929-.305.294-.527.843-1.03.753.118.785.29 1.565.35 2.355-.138.309-.576.315-.843.468 2.079.428 4.101 1.217 6.255 1.193-.469.446-.931.9-1.4 1.346-3.122-.072-6.052 1.317-9.168 1.263-5.28.007-10.56-.006-15.84.005-.883 2.041-3.4 3.188-5.515 2.5-.8-.242-1.523-.677-2.202-1.153 1.637.245 3.344.193 4.922-.345.617-.209 1.201-.529 1.666-.993-1.07-.056-2.17.089-3.212-.212-.388-.106-.732-.438-.724-.862-.045-.9.63-1.62 1.308-2.116.661-.506 1.58-.78 2.377-.427.755.313 1.174 1.071 1.464 1.794 1.347-.026 2.812.219 3.998-.588.164-.283.07-.615.03-.916-.117-.63-.28-1.25-.411-1.876a67.776 67.776 0 01-.406-.257c.398-.343.796-.69 1.19-1.04.395.602 1.049.933 1.744 1.063-.283.353-.528.785-.992.917.133.63.115 1.285-.164 1.875 1.975-.6 4.019-1.175 6.104-1.067.552.063 1.238.087 1.595.585.287.446-.084.923-.286 1.315 2.188-.027 4.376.01 6.564-.02.739-.005 1.482-.086 2.196-.293-1.92-.737-4.097-1.055-6.08-.371.468-.678 1.244-1.044 2.014-1.27.853-.27 1.773-.038 2.623-.333-.18-1.057-.443-2.096-.668-3.146-.065-.048-.193-.147-.257-.195a85.08 85.08 0 001.026-.88zm-15.271 6.548c.79.058 1.585.046 2.38.04 1.398-.04 2.85.032 4.193-.42-.683-.557-1.608-.553-2.44-.514-1.41.102-2.813.385-4.133.894zm-8.394-.17c.714.2 1.46.265 2.198.162-.32-.259-.65-.554-1.07-.617-.434-.06-.789.236-1.128.455M40.45 67.8c.506.228 1.006.468 1.507.711-.371.25-.742.5-1.112.747-.502-.231-1.004-.464-1.503-.7.37-.251.74-.503 1.108-.759m-34.445.927c.387-.15.737-.373 1.09-.593.471.234.947.463 1.424.69-.418.274-.837.548-1.258.817-.417-.196-.837-.389-1.277-.522.005-.132.011-.261.021-.392m-1.717-.467c.46.206.916.416 1.381.605l-.035.256c-.376.199-.736.427-1.092.658-.497-.236-.99-.48-1.473-.738.406-.26.814-.518 1.219-.781m14.955.046c.463.206.92.421 1.404.579-.064.565-.763.613-1.125.938-.493-.246-.987-.485-1.48-.725.401-.26.803-.523 1.2-.792m1.684.559c.378-.218.746-.45 1.114-.686.494.229.99.46 1.484.696-.432.263-.832.588-1.3.784-.445-.15-.857-.376-1.298-.535v-.259m31.104.466c.254-.35.513-.695.766-1.046.393.666 1.125.96 1.828 1.178-.276.33-.5.737-.912.919-.296.617-.668 1.193-1.152 1.68.493.442 1.029.96 1.073 1.664.071.526-.15 1.165-.707 1.322-.955.245-1.956.185-2.933.22-.464-.027-1.026.05-1.386-.302-.344-.493-.418-1.111-.573-1.677 1.187.228 2.276-.39 3.238-1.007-.845-.604-1.741-1.15-2.724-1.494-.43.207-.861-.115-1.247-.28-.262-.168-.633-.29-.726-.613.129-.51.493-.91.832-1.296 1.64.753 3.078 1.882 4.515 2.96.368-.659.777-1.617.108-2.228zm-1.264 4.072c.586.001 1.174-.033 1.757-.118a46.53 46.53 0 00-.639-.63c-.374.247-.749.494-1.118.748m4.927-3.704c.495-.41.997-.811 1.48-1.237-.067 1.729.542 3.393.602 5.108-.127.728-.7 1.28-1.266 1.71.128-1.057-.162-2.09-.347-3.122-.16-.819-.315-1.64-.47-2.46m12.073-.595c.343-.215.692-.427 1.04-.64a119 119 0 011.451.66c-.43.242-.824.584-1.295.735-.422-.12-.811-.334-1.208-.513l-.085.192c0-.196.002-.392.005-.586l.092.152m-2.965.22c.412-.244.826-.491 1.241-.739.451.203.906.399 1.367.579l-.122.297a9.012 9.012 0 00-.99.563 23.965 23.965 0 01-1.497-.7m44.763.323c.398-.327.79-.663 1.179-1.004.39.617 1.062.932 1.76 1.06-.287.354-.554.754-.995.924.073.635.118 1.303-.206 1.881 1.693-.527 3.426-1 5.206-1.093.692-.015 1.413-.015 2.072.235.373.127.684.548.518.948-.362.96-1.194 1.67-2.061 2.17-.995.318-2.06.299-3.091.35-1.788.003-3.578.03-5.362-.014-1.205-.018-2.439-.745-2.835-1.917 1.532.116 3.228.43 4.602-.457.226-.5-.05-1.046-.127-1.55-.16-.535-.117-1.213-.66-1.533zm1.336 3.719c2.18.067 4.394.13 6.541-.315-.448-.577-1.248-.577-1.908-.6a13.543 13.543 0 00-4.633.915m44.056-3.464c.493-.385.991-.764 1.475-1.164-.06 1.64.544 3.213.604 4.843-.129.707-.73 1.195-1.249 1.635.014-.495.031-.992-.067-1.48-.245-1.28-.519-2.553-.763-3.834m-57.048.002c.493-.385.991-.765 1.475-1.165-.056 1.64.547 3.213.607 4.844-.132.705-.728 1.198-1.258 1.627.087-1.802-.559-3.537-.824-5.306" fill="#212129"/><path d="M142.787 69.976c.417-.286.849-.55 1.292-.795.56.271 1.126.528 1.692.789-.43.258-.858.514-1.29.763-.564-.256-1.131-.505-1.694-.757m-102.347.472c.498-.663 1.294-1.253 2.17-1.065 1.157.235 2.197 1.025 2.754 2.064.476.892.318 1.976-.084 2.865-.13.26-.266.594-.594.637-1.467.376-2.993.223-4.49.254-1.341-.04-2.761.185-4.014-.424-.72 1.099-1.63 2.242-2.978 2.548-1.568.408-3.12-.384-4.342-1.303 2.287.36 4.944.05 6.584-1.75a5.38 5.38 0 01-1.113-.923c.477-.437.978-.845 1.476-1.256.43.525.933 1.103 1.66 1.172 1.01.089 2.03.017 3.045.039 1.308-.022 2.64.093 3.923-.225a8.595 8.595 0 00-.646-1.04c-.586.409-1.265.719-1.995.687-.607-.008-1.363-.074-1.709-.65-.29-.552.003-1.185.354-1.63zm.659.656c.72.188 1.478.236 2.205.066-.651-.403-1.604-.741-2.205-.066m-34.749.033c.447-.374.897-.748 1.351-1.118.16.87.236 1.761.465 2.619.133.527.716.682 1.195.665.996-.012 2.012.077 2.992-.137.3-.257.5-.607.738-.919.295.39.594.852 1.113.956.88.185 1.791.082 2.683.026.902-1.826 3.048-3.086 5.084-2.614.742.659.567 1.767.168 2.566 1.51.186 3.068.218 4.57-.052a5.094 5.094 0 00-.745-.814c.447-.39.89-.786 1.344-1.168.518.572.972 1.293.92 2.096a3.123 3.123 0 01-.638 1.563c-.555.318-1.223.33-1.844.373-1.557.027-3.117.043-4.672-.029-.581-.014-1.12-.244-1.637-.488-1.354.602-2.86.504-4.305.546-.518-.006-1.08.048-1.54-.231-.416-.206-.709-.574-.958-.951-.363.348-.64.827-1.097 1.055-1.033.153-2.1.181-3.135.047-.733-.113-1.125-.803-1.334-1.445-.466.478-.926 1.056-1.57 1.27-1.26-.065-2.593-.193-3.687-.88.501-.619.991-1.335 1.775-1.615.952-.35 1.961-.503 2.952-.709l-.188-.612zm12.133 1.448c.323.163.643.35 1 .438.5.042.995-.095 1.489-.18-.142-.306-.341-.62-.693-.702-.633-.148-1.243.175-1.796.444zm-13.53.504c.671.207 1.373.281 2.075.29l-.334-1.037c-.606.185-1.218.381-1.741.747m61.584-1.851c.448-.335.887-.684 1.327-1.03.173.841.236 1.707.487 2.53.17.513.779.589 1.245.58 1.083-.017 2.18.076 3.244-.17a7.189 7.189 0 00-.751-.767c.445-.367.887-.74 1.338-1.102.62.621 1.152 1.535.829 2.435-.18.464-.36 1.105-.932 1.195-1.112.283-2.266.177-3.4.215-.638-.008-1.329.053-1.9-.285-.42-.243-.594-.72-.788-1.135-.464.43-.91.92-1.502 1.174-1.282-.04-2.63-.176-3.765-.825.496-.581.986-1.247 1.734-1.513.965-.34 1.978-.501 2.98-.681l-.146-.62zm-1.264 1.77l.008.155c.618.182 1.267.204 1.907.24l-.325-.99c-.543.164-1.097.311-1.59.596m7.097 3.575c.2-.4.771-.546 1.13-.817.5.212 1 .43 1.5.649-.421.25-.826.528-1.268.737-.478-.096-.944-.315-1.362-.569m17.182-.043c.424-.257.848-.514 1.273-.774.562.263 1.125.527 1.69.787a38.8 38.8 0 01-1.25.757c-.576-.25-1.151-.497-1.713-.77M9.674 76.8c.414-.25.79-.587 1.248-.755.455.15.898.348 1.298.617.003.043.01.131.011.176-.353.236-.722.447-1.082.673-.493-.236-.984-.474-1.475-.711m2.903-.216c.355-.247.73-.464 1.095-.697.493.227.987.457 1.478.686l-1.283.818c-.433-.196-.874-.374-1.273-.633l-.017-.174m10.786.214l1.25-.787c.487.219.979.429 1.454.678-.355.334-.794.554-1.197.82-.506-.229-1.007-.47-1.507-.71m2.882-.202c.37-.247.758-.465 1.133-.708.502.22 1.002.451 1.5.682a42.4 42.4 0 01-1.325.821c-.437-.207-.884-.395-1.301-.637l-.006-.158m43.269.031c.4-.259.808-.505 1.218-.747.47.199.93.424 1.393.642-.29.362-.763.529-1.142.786a27.953 27.953 0 01-1.469-.681M46.05 82.965c1.307-1.353 3.243-1.809 5.058-1.93 2.113-.12 4.357.023 6.226 1.106 1.128.64 2.034 1.815 2.004 3.158.051 1.21-.7 2.246-1.552 3.026.427.264.89.473 1.31.747l.017.19c-.386.34-.9.509-1.285.86h-.224c-.456-.402-1.009-.66-1.542-.939-1.184.36-2.419.546-3.658.545-1.6.002-3.245-.158-4.716-.83-.9-.43-1.755-1.066-2.221-1.969-.648-1.27-.436-2.946.583-3.964zm2.808.548c-.826.675-1.059 1.92-.6 2.869.386.793 1.181 1.307 1.999 1.574a6.9 6.9 0 003.604.074c-.493-.288-.994-.558-1.492-.832a107.19 107.19 0 011.584-.935c.557.307 1.121.605 1.684.907.838-.819 1.07-2.242.351-3.207-.804-1.032-2.176-1.403-3.43-1.453-1.286-.041-2.692.135-3.7 1.003M.5 89.5c1.757-2.705 3.512-5.412 5.277-8.114 1.197.005 2.393.002 3.59.003 1.732 2.702 3.462 5.404 5.189 8.109-1.054.008-2.108-.008-3.162.013-.377-.535-.729-1.088-1.084-1.637H4.723c-.347.541-.692 1.082-1.036 1.626H.5zm5.227-3.024c1.279.002 2.557.002 3.836 0-.658-1.045-1.32-2.09-1.982-3.132a748.878 748.878 0 00-1.854 3.132m9.606-5.082c3.517-.015 7.031-.003 10.547-.005v1.404c-2.483.003-4.966-.001-7.45.003a93.16 93.16 0 00.01 1.831c2.185-.014 4.37-.003 6.555-.006v1.396c-2.187.001-4.375-.002-6.565 0 0 1.162.002 2.321 0 3.483h-3.092c-.003-2.702.005-5.404-.005-8.106m11.607 8.094c.01-2.7 0-5.4.005-8.1 2.7 0 5.402.003 8.102-.002 1.268-.03 2.638.091 3.682.886.654.473.92 1.475.439 2.16-.461.644-1.251.905-1.965 1.159.546.206 1.188.342 1.563.829.224.739.111 1.539.283 2.292.148.294.492.45.604.776-1.173.03-2.347-.002-3.52.02-.59-.695-.335-1.615-.443-2.437-.09-.598-.79-.709-1.283-.75-1.427-.055-2.855-.008-4.281-.023v3.201c-1.064-.003-2.125.013-3.187-.01zm3.188-6.693c-.003.702-.003 1.405.003 2.109 1.424-.008 2.851.005 4.277-.003.682 0 1.428-.222 1.851-.79.247-.338.094-.849-.262-1.04-.479-.271-1.05-.273-1.586-.28-1.427.006-2.856.002-4.284.004m10.653-1.406h2.95v8.11c-.984 0-1.968.002-2.95 0a9967.24 9967.24 0 010-8.11m19.918 0h2.96v8.11c-.987.002-1.973.002-2.96 0-.002-2.703-.002-5.406 0-8.11m3.854.003c1.147-.01 2.294-.002 3.442-.005l3.04 3.472c.96-1.157 1.916-2.317 2.88-3.472 1.146.006 2.293-.01 3.44.012-1.471 1.613-2.987 3.185-4.486 4.775-.138.16-.323.323-.28.561-.019.917.002 1.836 0 2.755a94.26 94.26 0 01-3.11 0c-.003-.92.018-1.84 0-2.758.036-.232-.138-.392-.274-.543-1.555-1.595-3.112-3.189-4.652-4.797m17.461.002c1.202-.011 2.405-.005 3.608-.003 1.725 2.705 3.461 5.402 5.185 8.109h-3.184c-.353-.54-.706-1.08-1.054-1.623-1.861-.01-3.723.006-5.583-.01-.362.545-.704 1.1-1.07 1.642-1.055-.02-2.11-.003-3.166-.011 1.75-2.703 3.52-5.396 5.264-8.104zm1.81 1.956c-.613 1.045-1.234 2.084-1.849 3.128h3.84c-.664-1.042-1.31-2.098-1.99-3.128m7.916-1.961h3.313c0 1.014-.002 2.027 0 3.04 2.111.003 4.222 0 6.334.003.004-1.015 0-2.029.002-3.043h3.31c.007 2.7-.002 5.401.007 8.101-1.107.022-2.212.007-3.317.01-.003-1.22.002-2.443-.002-3.664-2.114.007-4.227-.01-6.337.008.008 1.216-.002 2.432.006 3.65-1.107.014-2.212.005-3.316.006-.002-2.704-.002-5.407 0-8.11m22.46 1.896a77.778 77.778 0 011.527.006c.927 2.161 1.876 4.312 2.811 6.47h-1.558a293.25 293.25 0 01-.62-1.476c-.933-.002-1.867 0-2.798-.002-.197.492-.39.985-.584 1.478l-1.52-.001c.912-2.16 1.829-4.316 2.743-6.475zm-.197 3.902c.632.005 1.266.005 1.9.002-.316-.787-.635-1.573-.95-2.36-.34.778-.635 1.571-.95 2.358m5.227-3.904h1.423c.002 2.16.002 4.318 0 6.477l-1.423.001c-.002-2.16-.003-4.319 0-6.478m2.78.002c1.164.005 2.327-.013 3.492.006.552.03 1.156.064 1.613.418.822.618.89 2.014.096 2.682-.34.304-.802.4-1.227.518 1.092.655 1.628 1.862 2.362 2.851-.57 0-1.138 0-1.707.003-.606-.782-1.128-1.632-1.791-2.366-.358-.398-.935-.315-1.412-.352l-.001 2.715h-1.425v-6.475zm1.426 1.105v1.626c.786-.027 1.59.066 2.365-.101.683-.2.645-1.34-.067-1.47-.76-.12-1.534-.032-2.299-.055m4.807-1.107c.488 0 .978.002 1.47.012a384.78 384.78 0 001.047 4.388c.434-1.463.85-2.931 1.276-4.396.567-.004 1.134-.004 1.704-.002.408 1.484.798 2.973 1.222 4.455.378-1.482.714-2.97 1.075-4.455.479-.002.96-.002 1.442 0-.571 2.159-1.14 4.318-1.713 6.477-.505-.001-1.01-.001-1.512-.003-.467-1.598-.913-3.203-1.4-4.795-.468 1.598-.92 3.203-1.394 4.8-.515-.003-1.03-.003-1.543-.005-.556-2.16-1.12-4.317-1.674-6.476m11.434 0h1.51c.943 2.158 1.883 4.318 2.822 6.477-.525.001-1.047 0-1.57-.005-.2-.49-.405-.978-.604-1.466-.937-.006-1.872-.006-2.805-.002-.192.492-.386.982-.579 1.473h-1.52c.913-2.159 1.826-4.32 2.746-6.477zm-.205 3.907h1.903c-.322-.792-.641-1.585-.962-2.376-.317.792-.63 1.584-.941 2.376m3.641-3.903a59.659 59.659 0 011.692.006c.54.847 1.071 1.7 1.643 2.523.528-.848 1.068-1.688 1.603-2.533.55.002 1.1.002 1.653 0-.864 1.256-1.733 2.51-2.594 3.766 0 .902 0 1.807.002 2.71-.476 0-.948.002-1.42.005-.047-.92.06-1.852-.052-2.765-.805-1.262-1.698-2.466-2.527-3.713m7.882.367c.911-.597 2.103-.57 3.126-.323.83.206 1.4.967 1.473 1.804-.477.024-.952.042-1.424.053-.214-1.033-1.54-1.136-2.302-.68-.331.185-.248.696.093.825 1.023.491 2.284.408 3.2 1.142.933.761.732 2.403-.31 2.973-.97.527-2.164.517-3.208.247-.925-.245-1.526-1.129-1.608-2.052.448-.04.898-.082 1.35-.124.174.42.341.928.817 1.097.607.219 1.402.228 1.905-.235.32-.276.302-.865-.116-1.036-1.057-.485-2.395-.384-3.26-1.254-.691-.673-.534-1.917.264-2.437" fill="#212129"/></svg>