<svg xmlns="http://www.w3.org/2000/svg" viewBox="0 0 132 48"><g fill="none" fill-rule="evenodd"><path d="M-5-6h140v60H-5z"/><path d="M95.553 21.08l-9.618-1.484 8.8-4.452a.29.29 0 00-.174-.543l-9.772 1.522 7.018-6.946a.289.289 0 00-.336-.462l-8.76 4.492 4.414-8.723a.29.29 0 00-.463-.334l-6.932 7.01 1.63-9.755a.292.292 0 00-.195-.323.294.294 0 00-.35.142l-4.533 8.857L74.789.45a.29.29 0 00-.285-.245.29.29 0 00-.286.245l-1.512 9.626-4.49-8.89a.287.287 0 00-.347-.145.29.29 0 00-.196.321l1.62 9.883-7.02-7.183a.29.29 0 00-.465.334l4.57 8.916-8.948-4.626a.288.288 0 00-.368.087.293.293 0 00.031.376l7.187 7.016-9.943-1.615a.287.287 0 00-.32.196.288.288 0 00.144.347l8.936 4.484-9.855 1.503a.286.286 0 00-.244.307c.01.152.138.267.287.267h42.224a.288.288 0 00.044-.573" fill="#FF9800"/><path d="M83.75 21.675c.006-.114-.05-.185-.127-.197l-4.116-.635 3.766-1.904a.154.154 0 00.077-.18.154.154 0 00-.168-.105l-4.183.653 3.005-2.976a.151.151 0 00.015-.195.148.148 0 00-.19-.046l-3.753 1.923 1.89-3.733a.149.149 0 00-.048-.19.149.149 0 00-.194.016l-2.966 3 .699-4.176a.153.153 0 00-.102-.167.149.149 0 00-.182.074l-1.94 3.793-.641-4.124a.15.15 0 00-.298 0l-.646 4.121-1.922-3.807a.155.155 0 00-.183-.076.154.154 0 00-.103.168l.694 4.23-3.003-3.077a.15.15 0 00-.196-.015.147.147 0 00-.047.189l1.956 3.82-3.83-1.982a.153.153 0 00-.194.046.153.153 0 00.017.196l3.077 3.004-4.257-.69a.15.15 0 00-.168.101.154.154 0 00.076.182l3.824 1.918-4.217.644c-.078.012-.136.082-.128.197H83.75" fill="#FBCE20"/><path d="M9.953 34.638c0 .28-.035.558-.094.805-.286.897-1.267 1.667-2.372 1.662-1.044-.03-1.711-.498-1.733-1.661.01-.865.422-1.38 1.212-1.764.73-.343 1.78-.507 2.987-.529v1.487zm5.52-4.108c0-2.044-.434-3.955-1.61-5.368-1.175-1.418-3.08-2.285-5.874-2.28-3.052 0-5.349.888-6.536 1.577a.29.29 0 00-.134.329l.944 3.375a.29.29 0 00.43.169c1.022-.628 2.779-1.21 4.388-1.208 2.335.039 2.644 1.04 2.698 1.832-2.812.035-5.17.558-6.868 1.64C1.15 31.709.124 33.459.13 35.758c.006 2.851 2.114 5.51 5.607 5.519h.005c1.831 0 3.466-.632 4.603-1.829l.211 1.205c.024.14.145.239.286.239h4.613a.29.29 0 00.225-.107.293.293 0 00.057-.245c-.2-.894-.265-2.455-.265-4.053V30.53zm73.572 4.108c0 .28-.035.558-.094.805-.287.897-1.267 1.667-2.373 1.662-1.044-.03-1.711-.498-1.733-1.661.01-.865.423-1.38 1.212-1.764.732-.343 1.781-.507 2.988-.529v1.487zm5.52 1.85V30.53c0-2.044-.435-3.955-1.612-5.368-1.174-1.418-3.08-2.285-5.874-2.28-3.052 0-5.347.888-6.534 1.577a.29.29 0 00-.135.329l.944 3.375a.294.294 0 00.172.192.293.293 0 00.258-.023c1.022-.628 2.779-1.21 4.39-1.208 2.334.039 2.643 1.04 2.697 1.832-2.812.035-5.171.558-6.87 1.64-1.758 1.113-2.785 2.863-2.779 5.163.007 2.851 2.114 5.51 5.606 5.519h.005c1.833 0 3.468-.632 4.604-1.829l.212 1.205c.023.14.143.239.286.239h4.612a.29.29 0 00.226-.107.29.29 0 00.056-.245c-.199-.894-.266-2.455-.264-4.053zm30.793-12.506a.294.294 0 00-.206-.087h-3.371v-4.178a.291.291 0 00-.366-.28l-5.008 1.377a.289.289 0 00-.212.28v2.801h-2.205a.294.294 0 00-.206.087.294.294 0 00-.084.203v3.554c0 .272.084.413.084.413.054.053.13.083.206.083h2.205v6.437c.001 2.35.472 4.01 1.488 5.073.91.91 2.362 1.498 4.07 1.5 1.445-.002 2.701-.197 3.4-.454a.293.293 0 00.191-.274l-.038-3.867a.296.296 0 00-.11-.225.285.285 0 00-.241-.054c-.455.097-.752.128-1.447.13-.705-.008-1.075-.193-1.334-.572-.261-.387-.395-1.061-.392-2.03v-5.664h3.37a.283.283 0 00.288-.288v-3.762a.292.292 0 00-.082-.203zM63.392 33.29c0 .423-.041.94-.152 1.294-.309 1.068-1.23 1.844-2.45 1.846-1.904-.004-3.02-1.698-3.038-4.079.018-2.91 1.39-4.383 3.074-4.386 1.274.01 2.12.79 2.477 2.044.052.27.089.58.089.86v2.421zm5.528-9.394h-4.434a.29.29 0 00-.288.265l-.104 1.27c-.914-1.145-2.334-1.916-4.342-1.91a7.296 7.296 0 00-5.473 2.441c-1.41 1.563-2.281 3.806-2.281 6.52 0 2.413.742 4.483 2.027 5.957 1.284 1.473 3.113 2.337 5.227 2.334 1.69.003 3.175-.611 4.21-1.693v.328c-.029 2.927-1.658 4.01-3.98 4.045-1.888.002-3.633-.622-4.63-1.204a.292.292 0 00-.258-.016.291.291 0 00-.168.193l-1.006 3.9a.285.285 0 00.14.324c1.552.846 4.46 1.283 6.682 1.284 2.456 0 4.351-.475 6.22-2.089 1.97-1.732 2.62-4.422 2.62-7.616V29.09c0-2.45.062-3.82.127-4.889a.288.288 0 00-.078-.214.285.285 0 00-.21-.091zm43.858 3.973c-.3-1.017-.76-1.856-1.357-2.519-1.11-1.237-2.673-1.831-4.42-1.829-2.462 0-4.09 1.222-4.951 2.286l-.169-1.653a.294.294 0 00-.289-.26h-4.438a.295.295 0 00-.21.09.293.293 0 00-.08.215c.07 1.472.138 3.183.138 5.226V40.62a.296.296 0 00.291.289h5.106c.076 0 .152-.03.204-.085a.297.297 0 00.087-.204v-9.48c-.003-.456.039-.907.145-1.17.353-.877 1.096-1.736 2.35-1.736 1.647.013 2.266 1.192 2.301 3.274v9.112a.29.29 0 00.29.289h5.111a.29.29 0 00.29-.289v-9.714c0-1.016-.11-1.929-.316-2.737l-.083-.3zm-35.865-4.6h-5.11a.29.29 0 00-.29.289v17.046a.3.3 0 00.084.205.3.3 0 00.206.084h5.11a.296.296 0 00.204-.084.295.295 0 00.084-.205V23.559a.287.287 0 00-.288-.29zm-53.528-6.84h-5.11a.297.297 0 00-.205.085.294.294 0 00-.085.206v23.9a.291.291 0 00.289.289h5.111a.29.29 0 00.29-.289v-23.9a.286.286 0 00-.085-.206.295.295 0 00-.205-.085zm15.857 13.818c.23-1.24 1.05-2.758 2.864-2.747 1.924.002 2.465 1.561 2.553 2.747h-5.417zm3.128-6.726c-2.919-.005-5.092 1.194-6.504 2.93-1.414 1.735-2.085 3.989-2.086 6.133-.001 2.63.82 4.81 2.383 6.323 1.56 1.513 3.835 2.338 6.68 2.335 2.245 0 4.33-.337 6.062-1.059a.292.292 0 00.174-.322l-.672-3.462a.287.287 0 00-.138-.194.283.283 0 00-.239-.024c-1.353.458-2.725.685-4.448.687-2.2-.012-3.992-.858-4.31-2.55H49.53a.29.29 0 00.284-.234c.073-.388.18-1.17.18-2.067-.002-2.082-.515-4.193-1.734-5.805-1.216-1.613-3.157-2.696-5.89-2.69zM31.494 16.43h-5.109a.288.288 0 00-.29.291v23.9a.29.29 0 00.29.289h5.11a.293.293 0 00.29-.289l-.001-23.9a.292.292 0 00-.29-.29zm96.945 4.459h.39c.447 0 .823-.16.823-.572 0-.293-.216-.585-.822-.585-.177 0-.3.015-.391.027v1.13zm0 1.848h-.54v-3.34c.285-.042.554-.082.956-.082.512 0 .856.111 1.052.257.206.144.315.37.315.689 0 .44-.294.703-.659.815v.026c.296.052.498.317.56.809.078.52.167.721.219.826h-.571c-.077-.105-.16-.415-.229-.85-.079-.43-.29-.582-.724-.582h-.38v1.432zm.572-4.275c-1.337 0-2.435 1.136-2.435 2.531 0 1.427 1.098 2.542 2.44 2.542 1.352.012 2.433-1.115 2.433-2.527 0-1.41-1.081-2.546-2.433-2.546h-.005zm.005-.462A2.973 2.973 0 01132 20.993c0 1.69-1.317 3.007-2.99 3.007a2.986 2.986 0 01-3.01-3.007A2.994 2.994 0 01129.01 18h.006z" fill="#01579b"/></g></svg>