<svg version="1.0" xmlns="http://www.w3.org/2000/svg" width="600" height="131.077"><path fill="#CAB999" d="M84.096 0C47.797 0 11.018 29.344 1.945 65.544c2.407 3.614 19.825 7.409 33.142 8.539 66.977-74.545 112.226-62.565 83.57-10.301-1.001 1.83-2.073 3.218-3.096 4.936 9.33-1.809 17.324-4.574 18.281-5.186C141.757 28.162 119.794 0 84.096 0zm-42.34 74.876c17.194 2.08 30.914-.342 40.389-1.825 5.34-5.747 11.083-12.234 14.777-17.321 28.774-39.712-4.461-35.129-55.166 19.146z"/><path fill="#004886" d="M166.3 55.098l-19.089 35.386h11.479l4.497-8.174h17.496l4.494 8.174h11.481l-19.089-35.386H166.3zm-.9 20.899l6.572-12.359 6.573 12.359H165.4zm47.602-20.899h-9.821v35.386h9.821V55.098zm35.687 23.023c2.628 1.116 4.149 3.553 4.632 7.316.348 2.496.692 4.194 1.037 5.046h10.997c-.482-1.067-.829-2.814-1.106-5.364-.273-2.545-.826-4.556-1.798-5.882-1.243-1.807-3.458-3.133-6.567-3.984 5.877-1.482 8.781-4.93 8.781-10.289 0-3.502-1.796-6.151-5.464-7.955-2.562-1.277-7.057-1.911-13.485-1.911h-22.548v35.386h9.824V77.06h7.884c3.455 0 6.082.317 7.813 1.061zm-15.697-16.71h13.762c1.796 0 3.042.105 3.803.318 2.214.584 3.32 1.959 3.32 4.137 0 1.963-.764 3.289-2.212 4.084-.969.531-2.631.793-4.911.793h-13.762v-9.332zm85.166-6.313h-11.273l-19.086 35.386h11.479l4.495-8.174h17.5l4.493 8.174h11.479l-19.087-35.386zm-12.171 20.899l6.569-12.359 6.567 12.359h-13.136zm67.053-20.899h-39.765v6.313h14.659v29.072h9.822V61.411h15.283v-6.313zm20.023 28.22c-1.664-.583-2.696-1.693-3.039-3.343-.284-1.487-.421-3.181-.421-4.986V55.098h-9.751V74.99c0 3.391.205 5.893.759 7.424 1.385 3.822 4.637 6.313 9.688 7.429 2.006.426 5.529.642 10.717.642h8.912v-6.318h-7.874c-4.288-.002-7.263-.213-8.991-.849zm37.276-28.22l-19.096 35.386h11.481l4.497-8.174h17.496l4.492 8.174h11.485l-19.091-35.386h-11.264zm-.905 20.899l6.572-12.359 6.563 12.359h-13.135zm69.459 5.467l-18.328-26.366h-12.582v35.386h9.401v-25.94l18.813 25.94h12.039V55.098h-9.343v26.366zm54.929-26.366H514.05v6.313h14.662v29.072h9.822V61.411h15.288v-6.313zm27.093 0H569.64l-19.092 35.386h11.481l4.497-8.174h17.496l4.492 8.174H600l-19.085-35.386zm-12.176 20.899l6.572-12.359 6.567 12.359h-13.139zM29.426 117.864s21.361-10.943 41.854-32.701c-13.952 1.958-23.596 1.943-38.64-.293-15.391 21.523-18.854 15.469-18.854 15.469C17.07 96.435 24 87.121 26.659 83.935 19.722 82.257 5.545 78.763.46 73.012c-3.907 32.202 17.352 58.065 50.774 58.065 35.194 0 70.844-27.586 81.248-62.252-4.845 2.508-10.747 5.895-21.932 8.576-42.895 61.086-81.124 40.463-81.124 40.463zm129.265 9.783h5.202v-20.805h-5.202v20.805zm31.587-17.285c1.857 0 3.346.371 4.365.773l1.082-3.705c-.928-.436-2.971-.926-5.662-.926-6.935 0-12.538 3.921-12.538 11.017 0 5.961 4.089 10.468 12.041 10.468 2.755 0 4.923-.499 5.851-.895l-.741-3.705c-1.052.4-2.755.676-4.365.676-4.612 0-7.336-2.619-7.336-6.789-.001-4.658 3.217-6.914 7.303-6.914zm25.316 8.491h8.449v-3.826h-8.449v-4.322h8.945v-3.861h-14.113v20.805h14.576v-3.857h-9.408v-4.939zm29.701-12.01h-5.166v20.805h14.3v-3.949h-9.134v-16.856zm26.458 0l-7.027 20.805h5.388l1.61-5.34h6.593l1.764 5.34h5.602l-7.15-20.805h-6.78zm.71 11.946l1.397-4.414c.366-1.204.712-2.78 1.021-4.013h.09c.343 1.203.744 2.779 1.147 4.013l1.425 4.414h-5.08zm41.84-5.897c0 3.152.094 5.961.401 8.707h-.063c-1.052-2.345-2.381-4.938-3.744-7.131l-4.767-7.625h-6.065v20.805h4.764v-6.265c0-3.396-.061-6.327-.244-9.107h.151c1.084 2.437 2.602 5.095 3.967 7.346l4.918 8.026h5.447v-20.805h-4.765v6.049zm36.927-4.042c-2.168-1.513-5.016-2.158-9.411-2.158-2.601 0-5.077.151-6.995.46v20.402c1.272.157 3.22.313 5.882.313 4.518 0 8.231-.837 10.646-2.687 2.2-1.669 3.776-4.449 3.776-8.428 0-3.703-1.512-6.297-3.898-7.902zm-9.411 15.342c-.616 0-1.36 0-1.827-.094v-13.614c.467-.093 1.24-.181 2.354-.181 4.52 0 7.304 2.129 7.304 6.602-.001 4.972-3.094 7.317-7.831 7.287zm27.447 3.455h5.197v-20.805h-5.197v20.805zm31.588-17.285c1.859 0 3.343.371 4.365.773l1.087-3.705c-.935-.436-2.976-.926-5.667-.926-6.936 0-12.543 3.921-12.543 11.017 0 5.961 4.091 10.468 12.043 10.468 2.761 0 4.924-.499 5.854-.895l-.744-3.705c-1.052.4-2.75.676-4.36.676-4.614 0-7.341-2.619-7.341-6.789-.001-4.658 3.22-6.914 7.306-6.914z"/></svg>