<svg xmlns="http://www.w3.org/2000/svg" viewBox="0 0 207.15 64.36"><g data-name="레이어 2"><path d="M12.64 35.45H9.72L0 63.83h3.29l2.57-7.51H16.5l2.5 7.51h3.3zM6.71 53.54l4.45-14.17 4.5 14.17zm18.87-18.08h3.29v28.37h-3.29zm24.54 28.37L43 51.7h-4.9v12.13h-3.24V35.46H41a19.62 19.62 0 016.5.76 7.34 7.34 0 014.86 7.29c0 3.94-2.29 6.46-5.83 7.67L54 63.83zm-12-25.64v10.74H42c2.41 0 5.1-.36 6.35-2.73a5.52 5.52 0 00.65-2.65c0-4.89-4-5.36-7.87-5.36zm46.49 10.2a6 6 0 003.64-5.5A7.07 7.07 0 0087.08 39c-2.47-3.5-7.57-3.5-10.47-3.5H67v28.33h9c3 0 6.7 0 9.31-1.32a8 8 0 003.92-4 8.17 8.17 0 00.64-3.15c-.03-3.3-1.87-5.78-5.26-6.97zM74.3 40.92h2.62c2.82 0 4.18.7 4.18 2.68 0 2.16-1.86 2.66-4.22 2.66H74.3zm3.33 17.45h-3.29v-6.5h3.08c2.92 0 5 .19 5.11 3.09s-2.1 3.41-4.9 3.41zm33.94-22.91v16.73c0 1.53 0 3.26-.8 4.5-1.08 1.61-3.41 1.74-4.15 1.74-1.22 0-3.27-.25-4.26-1.88-.75-1.19-.74-3-.73-4.45V35.46h-7.54v17.15a14.28 14.28 0 00.76 5.27c1.6 4.12 5.87 6.48 11.73 6.48 6.08 0 10.42-2.47 11.9-6.77a13.48 13.48 0 00.63-4.6V35.46zm32.25 13.44a32.39 32.39 0 00-6.62-2.81l-2.2-.79c-1.72-.59-3.13-1.17-3.13-2.25 0-1.44 1.62-2.27 3.44-2.35a4.53 4.53 0 013.3 1 3.12 3.12 0 01.87 2.48h6.93a9.49 9.49 0 00-1-4.13c-1.89-3.8-6.42-5.15-10-5.15-5.27 0-10.94 2.69-10.94 8.63a7.42 7.42 0 003.34 6.27 30.9 30.9 0 006.68 3.07l1.55.58c1 .36 2.86 1.08 3.45 1.93a1.44 1.44 0 01.28.83c0 1.69-2.52 2.27-3.86 2.3-1.65 0-4.08-.47-5.09-2.59a4.29 4.29 0 01-.41-1.55h-6.85a12 12 0 00.44 2.85c1.41 4.5 5.72 7.09 11.83 7.09 3.36 0 7.85-.8 10.17-4.61a8.3 8.3 0 001.24-4.4 7.25 7.25 0 00-3.42-6.4zm23.43-13.44h-7.43L149 63.83h7.77l1.92-5.71h9.81l1.92 5.71h7.77zm-6.57 16.83l2.86-8.4 2.89 8.4zm39.11-16.83v17.43l-10.81-17.43h-7.49v28.37h7.36V45.97l11.18 17.86h7.12V35.46h-7.36zm7.31-24.89c-.15-.15-.87.4-1.32.8-24.54 21.34-47 3-63.76-.5A47.52 47.52 0 00117.66 12c-5.86 1.85-11.74 0-14.2-1.15C97.12 8 93.28 3.55 86.89 1.14c-6.07-2.28-11.63-.72-16.21 1C68.41 3 62.82.74 60.59 2c-.67.38-3.27 2.09-2.49 2.76.15.13 1 0 1.41 0a27.15 27.15 0 019.06 1.4c8.31 3.15 11.43 11.3 13.6 16.5 0 0-12.6-12.36-32.74-7C39 18.5 24.9 26.15 12.26 19.62c-.42-.22-1.85-1.22-2.27-1.14s.56 1.23 1 1.66c3.59 3.33 13.6 8.64 31.74 2 17.81-6.5 36-5.09 43.26 7.57 0 0 .48-18.75-12.21-24.59a12.64 12.64 0 017.94-1.42 20.2 20.2 0 018.06 2.7c5 3 10 7.63 16.09 9.53a18.5 18.5 0 002.51.55c-10.82 7.05-14.93 17-14.27 16.09a43.63 43.63 0 0128.38-17.22l2.92-.35c8.34-.73 16.25 1.22 32.18 6.39 31.52 10.21 43.6-2.69 48.55-8.69.86-1.07 1.12-1.98.96-2.13z" fill="#273591" data-name="Layer 1"/></g></svg>