<svg xmlns="http://www.w3.org/2000/svg" width="236.088" height="126.261"><path d="M144.082 24.471a1256.784 1256.784 0 00-13.934 10.456c-.322.322-.593.6-.809.816-.321.216-.641.432-.968.648a110.513 110.513 0 01-5.021 3.805 949.621 949.621 0 01-4.619 3.813 839.505 839.505 0 00-7.292 6.153 176.298 176.298 0 00-6.637 5.675c-.438.433-.868.808-1.294 1.127-.486.44-1 .897-1.541 1.384a649.332 649.332 0 01-6.486 5.916c-2.206 2.111-4.586 4.381-7.121 6.813l6.475 9.802c2.213-2.535 4.316-4.976 6.324-7.294a176.204 176.204 0 015.667-6.648c.216-.216.43-.483.646-.808l.649-.648a3207.59 3207.59 0 016.156-6.803c2-2.224 4.213-4.702 6.643-7.461 1.4-1.676 2.992-3.462 4.773-5.354a275.77 275.77 0 015.349-5.51c.216-.319.43-.589.646-.805.216-.216.44-.433.656-.649 4.638-4.973 8.956-9.458 12.959-13.453 3.832-3.886 5.74-5.883 5.74-5.997-.421.217-2.75 1.888-6.961 5.022M67.463 125.335c1.457-1.887 2.673-3.589 3.646-5.1a37.81 37.81 0 002.351-4.694 20.736 20.736 0 001.784-4.619c.478-1.67.886-3.559 1.205-5.67v-.156c.327-1.673.543-3.272.649-4.783.111-1.567.216-3.078.327-4.532V93.68a52.135 52.135 0 00-.648-5.51 60.103 60.103 0 00-1.373-5.748c-.43.432-2.135 2.021-5.1 4.772a543.712 543.712 0 00-9.802 8.994l-.167.159-.163.159a118.356 118.356 0 00-3.643 3.486 113.735 113.735 0 00-3.479 3.159c-1.678 1.511-3 2.781-3.973 3.806a140.405 140.405 0 01-2.997 2.748l-.159.249c-1.562 1.399-3.408 3.156-5.511 5.259-2.1 2.105-5.475 5.486-10.121 10.121H0c1.727-2.535 5.418-6.395 11.097-11.575 5.508-5.237 11.688-10.667 18.544-16.274.919-.762 1.865-1.546 2.833-2.354a46.6 46.6 0 012.837-2.26c8.961-7.453 17.25-13.935 24.86-19.444 6.646-4.859 10.348-7.281 11.097-7.281l.057.014.114.138-.114-.138c-.311-.454-1.278-1.943-2.892-4.475-1.832-2.919-4.318-6.078-7.454-9.48a109.177 109.177 0 00-2.259-2.67c-.921-.865-1.808-1.706-2.673-2.519-4.54-4.156-10.126-8.075-16.771-11.745a129.661 129.661 0 00-21.058-8.834 80.492 80.492 0 00-3.157-.973 27.616 27.616 0 00-1.335-.367c-3.405-2.296-6.889-3.933-10.656-6.366 2.87.6 5.756 1.295 8.664 2.111a73.52 73.52 0 014.421 1.127c1.478.43 2.951.943 4.416 1.543a154.072 154.072 0 0113.604 4.924c4.364 1.895 8.451 3.883 12.231 5.989C57.9 40.46 66.542 45.962 72.323 50.918c5.724 5.122 8.632 7.783 8.746 8.008 1.021-1.024 5.454-4.229 13.28-9.624A7224.273 7224.273 0 01119.858 31.6a4.64 4.64 0 00.735-.479c.103-.111.273-.224.486-.327a1764.367 1764.367 0 0121.874-14.799c6.851-4.524 11.869-7.834 15.062-9.942l1.375-.97c.757-.646 1.813-1.34 3.157-2.1 1.396-.697 3.103-1.367 5.1-2.024 1.896-.646 3.94-.959 6.164-.959 0 .865-4.597 7.873-13.774 21.05a3924.24 3924.24 0 00-31.02 44.935 103.089 103.089 0 01-2.668 4.133 256.73 256.73 0 00-2.84 4.294 1348.165 1348.165 0 00-17.577 27.195c-5.613 8.97-10.259 16.877-13.929 23.729h-24.54" fill="#ed2225"/><path d="M186.166 97.932c-.038.083-.136.453-.316 1.115-.189.646-.892 2.579-2.089 5.792a451.31 451.31 0 01-1.587 4.268c-1.927.151-3.002.227-3.227.227-1.165 0-2.651-.021-4.459-.075-.681-.017-1.021-.114-1.021-.287 0-.07.095-.199.283-.399.033.035.203-.206.511-.725.063-.116.995-1.405 2.798-3.878.694-.938 1.789-2.092 3.286-3.462 1.494-1.376 2.641-2.278 3.43-2.694 1.156-.613 1.805-.922 1.932-.922.368 0 .555.194.555.581a1.466 1.466 0 01-.096.459m1.029 23.319c.065-.321.144-.653.229-.994.049-1.292 1.024-4.459 2.93-9.508 2.008-5.308 3.319-8.999 3.94-11.072.622-2.072.933-3.772.933-5.097 0-.708-.187-1.272-.573-1.697-.376-.413-.895-.627-1.56-.627-.854 0-2.202.243-4.04.727a25.465 25.465 0 00-6.734 2.881c-5.392 3.278-10.121 8.268-14.191 14.962a40.088 40.088 0 00-3.462 7.14c-.919 2.5-1.378 4.48-1.378 5.933 0 .597.13 1.078.376 1.427.254.354.586.532 1.002.532.292 0 .711-.113 1.257-.338 1.168-.494 2.578-.835 4.229-1.011-.816-1.673-1.054-4.575-.024-6.638l.136.151c.188-1.564.78-3.589 1.794-6.08 1.321-.162 2.835-.238 4.546-.238 1.678 0 3.175.076 4.502.238-1.283 3.953-2.083 6.545-2.395 7.791a15.46 15.46 0 00-.462 3.732c0 .737.13 1.324.402 1.751.266.43.625.641 1.081.641.338 0 .873-.151 1.601-.46.581-.227 1.405-.459 2.473-.699 1.07-.243 1.965-.39 2.697-.436.213-.016.399-.029.583-.04-.186-1.014-.094-1.968.108-2.971m-65.209-26.177c-.179 1.584-.567 3.311-1.187 5.181-.919 2.76-1.476 4.479-1.667 5.157 1.359-.649 2.519-1.352 3.467-2.108 1.087-.856 1.951-1.832 2.598-2.927.641-1.095.962-2.151.962-3.173 0-.754-.192-1.354-.592-1.8-.392-.448-.919-.662-1.592-.662-.461 0-1.126.112-1.989.332m-4.27 14.681c-.424.727-1.254 2.924-2.502 6.586-.665 2.424-.992 3.846-.992 4.303 0 .932.465 1.396 1.383 1.396.822 0 1.687-.327 2.6-.973.903-.656 1.732-1.562 2.467-2.722 1.433-2.205 2.2-4.545 2.311-7.026.049-.943-.151-1.7-.613-2.275-.465-.567-1.105-.873-1.914-.905-1.196 0-2.107.535-2.74 1.616m-11.974 15.021c-.297-.457-.441-1.07-.441-1.846 0-2.856 1.608-8.516 4.83-16.98 1.989-5.253 2.981-8.267 2.981-9.042 0-.136-.024-.257-.065-.368.375-1.167.44-2.589 1.489-3.534.111 0 .216-.009.327-.017.646-.046 2.357-.229 5.146-.557 2.159-.243 4.119-.362 5.888-.362 2.521 0 4.554.506 6.089 1.521 1.319.87 1.984 2.087 1.984 3.651 0 2.159-1.217 4.054-3.654 5.675 0 .02-1.24.714-3.708 2.078 1.376.306 2.422.722 3.157 1.232 1.8 1.249 2.691 3.095 2.691 5.564 0 1.965-.605 3.951-1.811 5.948-1.633 2.638-3.927 4.613-6.887 5.916-1.988.87-3.87 1.311-5.643 1.311-.6 0-1.886-.103-3.878-.318a20.298 20.298 0 00-2.127-.135c-1.359 0-2.622.208-3.781.621-.646.225-1.127.335-1.43.335-.484.001-.871-.229-1.157-.693m30.482-1.265v-3.762 3.762m10.214.897c-.413-.746-.899-2.111-1.462-4.111a81.673 81.673 0 01-2.054-10.118c-1.089.743-2.349 2.103-3.797 4.076-1.654 2.28-2.489 4.188-2.489 5.756 0 .481.098.838.297 1.063l.56 3.029c-.229.043-.497.081-.797.113a12.44 12.44 0 00-1.808.352c-.735.184-1.327.37-1.768.56-.625.262-1.103.395-1.44.395-.301 0-.568-.154-.766-.465-.208-.306-.321-.682-.321-1.136 0-1.104.384-2.519 1.151-4.216.762-1.702 1.775-3.395 3.029-5.091 1.897-2.557 4.44-5.141 7.605-7.754-.041-.238-.203-1.119-.481-2.638-.592-3.294-1.151-5.486-1.678-6.572a3.976 3.976 0 00-1.344-1.567c.192-1.017-.605-2.03-.751-3.043l1.74.086c1.538 0 3.13-.272 4.8-.813.511-.162.919-.243 1.232-.243.821 0 1.524.819 2.124 2.448.335.936.768 2.543 1.278 4.821.249 1.027.416 1.765.514 2.206 1.646-1.058 3.092-2.16 4.348-3.327 1.246-1.165 1.871-1.989 1.871-2.479a.601.601 0 00-.065-.294c.762-.387.624-2.576 1.527-2.679l.072-.017c.105-.008.217-.023.33-.032.646-.032 1.524-.191 2.646-.486.511-.144.927-.216 1.229-.216.743 0 1.111.416 1.111 1.237 0 1.67-1.703 3.757-5.108 6.259-2.678 1.984-5.164 3.633-7.45 4.951.895 5.275 1.673 9.081 2.294 11.399.521 1.916.981 3.214 1.4 3.887.191.303.433.583.711.821l.191.144c.751.681.76 1.743.76 2.797 0-1.054-.009-2.116-.76-2.797.278.216.608.407.973.567.179.07.338.138.484.202l-.484-.202.611 2.486c-.335.11-.76.191-1.271.224-2.632.225-4.67.641-6.124 1.241-.505.191-.905.289-1.208.289-.564.001-1.053-.369-1.462-1.113m53.741-1.716c-.044-.794.089-1.586.535-2.378.251-1.603 1.467-5.243 3.648-10.938 1.548-4.059 2.626-7.137 3.24-9.224.613-2.086.919-3.762.919-5.019 0-1.519-.46-2.272-1.379-2.272-.294 0-.694.089-1.211.262-.548.179-1.286.354-2.219.53-.924.176-1.613.265-2.064.265l-1.378-.049c.04 1.725.494 3.451-1.03 5.176-.105.392-.237.84-.399 1.359a63.15 63.15 0 01-1.7 4.751c-2.173 5.545-3.656 9.64-4.454 12.294-.794 2.648-1.194 4.854-1.194 6.612 0 .66.136 1.195.4 1.595.271.4.627.605 1.078.605.37 0 .897-.133 1.573-.39 1.372-.548 3.127-.918 5.256-1.11.289-.029.549-.054.775-.078-.199-.664-.359-1.331-.396-1.991m26.73-20.001c-.581 1.759-1.309 3.286-2.173 4.583-1.046 1.576-2.424 2.362-4.127 2.362-.354 0-.765-.06-1.232-.17l.436-1.281c1.664-4.613 2.673-7.502 3.026-8.661a19.08 19.08 0 00.725-3.703c.691-.227 1.308-.34 1.854-.34 1.57 0 2.359.851 2.359 2.551-.001 1.345-.29 2.897-.868 4.659m6.735-8.157c-1.399-1.116-3.716-1.676-6.935-1.676-1.557 0-2.803.043-3.754.119-.948.084-3.294.343-7.037.775-.468.057-.865.103-1.208.144.021 1.3.162 2.572-.17 3.478.023.104.04.217.04.352 0 .517-.173 1.275-.514 2.271-.338 1.003-1.078 2.956-2.227 5.859-3.549 8.956-5.324 14.987-5.324 18.104 0 1.532.486 2.3 1.46 2.3.321 0 .815-.138 1.476-.41.697-.276 1.684-.541 2.973-.801a23.438 23.438 0 012.308-.354c.057-1.367.26-2.854.924-4.135.104-1.414.893-3.948 2.393-7.635l.146.438c.902 2.971 1.497 4.83 1.786 5.592.289.757.776 1.792 1.451 3.092 1.484 2.811 3.3 4.213 5.438 4.213 1.194 0 2.26-.41 3.194-1.234.646-.581 1.098-1.235 1.362-1.968-2.592-3.003-7.021-3.864-8.84-7.321-.76-1.051-1.399-2.341-1.924-3.875.389.029.757.04 1.113.04 2.43 0 4.729-.511 6.875-1.538 2.159-1.026 3.867-2.418 5.143-4.178 1.532-2.132 2.295-4.346 2.295-6.643-.001-2.03-.815-3.706-2.444-5.009"/><path d="M48.964 26.166l.927-.936 1.06-.494 1.548.062 5.021-.311 8.11-.151 1.516 3.146-18.182-1.316m27.366 1.978l-5.119-4.081 6.691-.44 6.951-.495 1.93-.268-.194.268-1.97 1.725-.592.395-3.948 2.883-.362.26-3.387-.247m-21.352 9.094l.278-.278.513-.513s.927-.465 1.486-.695c.563-.232 1.257-.187 1.257-.187l3.948-.143 3.67-.181 4.864-.178.154.359.024.181-.346.378-1.065 1.624-14.783-.367" stroke="#fff" stroke-width=".02"/><path stroke="#fff" stroke-width=".02" d="M71.06 23.944l6.878 5.481-.294.435-2.033 1.479-2.413 2.045-2.024 2.219-.025-.181-1.438-3.34-1.486-2.657-.746-1.251-2.646-5.486 2.233-1.487z"/><path d="M106.885 22.32l.722-.465c-.3.197-.565.373-.781.516l.059-.051M69.344 38.541c.181-.416.414-.927.414-.927l1.07-1.63 2.368-2.6 2.416-2.046 2.045-1.486 2.424-1.719 3.948-2.886s.216-.149.589-.397l-.014.011-.065.187 1.238 2.294s1.735.678 2.662.246c.935-.438 2.229-1.676 2.229-1.676l1.368-1.792s-.622-1.681-.676-1.93c-.065-.246-.692-.805-1.122-.989-.038-.014-.073-.03-.111-.046 2.165-1.446 4.165-2.781 4.541-3.016.886-.559 7.162-4.556 7.162-4.556l5.764-3.862s2.743-1.392 3.765-1.765c1.024-.367 2.646-.513 3.389-.746.746-.232 1.914.048 1.914.048l1.021.465s.135.232.646.278c.513.049 1.305.462 1.44.695.143.232.465.889.232 1.351-.232.465-.135.232-.319 1.392-.194 1.167-.608 1.583-.608 1.583s-.232.368-.746 1.438c-.511 1.073-2.414 2.184-3.251 2.608l-45.72 21.981c-.07-.108-.118-.281-.013-.508" stroke="#fff" stroke-width=".02"/><path d="M69.663 39.516l-.313-.465 45.729-21.985-8.194 5.254-.192.162-.8-.505-7.659 7.132.076-.003-.573.433-6.873 3.189-4.965 2.392-4.665 1.562-.659-.108-3.719.746 1.768.208-3.135.902s-2.911.808-3.219.959c-.313.16-1.403.405-1.738.405-.342.001-.869-.278-.869-.278" stroke="#fff" stroke-width=".02"/><path d="M105.893 21.977l3.005 1.894.43.3c-.262.676-.278 1.432-.278 1.432l.154.371 1.302.927.992.281 2.421-.249.986-.373.035.005 3.375.71.278.127.032.089-1.021.343-1.432.584-1.703.159-16.234.53 7.658-7.13" stroke="#fff" stroke-width=".02"/><path d="M110.506 26.901l-1.305-.927-.151-.368s.033-1.519.746-2.176c.71-.648 1.397-1.143 1.613-1.173.213-.032.338-.216 1.111-.402.775-.189 1.151-.16 1.519-.16.378 0 1.024.16 1.089.249.062.097.678.56.678.56l.408.897s-.008.741-.041.903c-.024.151-.335 1.141-.335 1.141s-.278.378-.494.497c-.216.13-.281.562-.281.562l-1.143.43-2.424.249-.99-.282m-24.728.44l-1.238-2.294.063-.187 1.983-1.732s.927-1.237 1.176-1.551c.249-.311.624-.56.992-.625.373-.054 1.054.065 1.486.249.433.184 1.054.743 1.119.992.057.246.681 1.927.681 1.927l-1.367 1.789s-1.294 1.24-2.229 1.681c-.225.103-.498.141-.776.141-.89 0-1.89-.39-1.89-.39m-4.149 10.346h-1.678l-3.094-.37 3.719-.744 2.662.433-.122.681z" stroke="#fff" stroke-width=".02"/></svg>