<svg viewBox="0 0 300.7 39.3" xmlns="http://www.w3.org/2000/svg"><path d="M20.7 27.9c0-1.3.7-1.5 1.9-.8 2.2 1.2 4.6 2.5 4.6 2.5.1-.7.7-1.3 2-1 1.2.3 2.6.6 2.6.6s-.7-1.7-1.1-2.4c-.6-1.4 0-2 .6-2.2 0 0-.8-.6-1.4-1-1.2-.8-.9-1.7.2-2.2 1.6-.7 3.6-1.6 3.6-1.6-.6-.4-1.4-1.4-.5-2.6.8-1.2 2-2.8 2-2.8h-3.6c-1.3 0-1.6-1.1-1.6-1.8 0 0-2.1 1.5-3.6 2.5-1.3.9-2.4 0-2.2-1.5.3-2.3.6-4.9.6-4.9-.8.5-2.1.5-2.7-.8-1-1.7-2.1-4-2.1-4S19 6.1 18.1 8c-.6 1.3-2 1.3-2.7.8 0 0 .3 2.6.6 4.9.2 1.5-1 2.3-2.2 1.5-1.5-1-3.6-2.5-3.6-2.5 0 .7-.3 1.8-1.6 1.8H5s1.2 1.7 2 2.8c.8 1.2.1 2.2-.5 2.6 0 0 2 .9 3.6 1.6 1.2.5 1.5 1.3.2 2.2-.6.4-1.4 1-1.4 1 .6.2 1.2.8.6 2.2-.3.7-1.1 2.4-1.1 2.4s1.4-.3 2.6-.6c1.3-.3 2 .3 2 1 0 0 2.3-1.3 4.5-2.5 1.2-.7 1.9-.4 1.9.8v3c0 1.8-.3 3.8-1 4.8-8.6-.9-15.7-7.7-15.7-16.7C2.7 9.8 10.5 2.2 20 2.2c9.6 0 17.3 7.5 17.3 16.8 0 8.7-6.7 15.8-15.4 16.7V38C32.1 37.1 40 28.9 40 19c.1-10.5-8.9-19-20-19C9 0 0 8.5 0 19.1c0 9.3 6.9 17 16.2 18.7 1.6.3 2.5.5 3.4 1.5 1-1.8 1.2-5.6 1.2-7.8v-3.6z" fill="#d82f2e"/><path d="M101.6 29.3V8.9h9.9c5.3 0 7.7 2.2 7.8 5.1.1 1.3-.2 2.6-1.1 3.6s-1.3 1.4-3 2.2l7.5 9.5h-5.6l-6.6-8.4H106v8.4h-4.4zm4.5-11.2h2c5.5 0 6.6-.9 6.6-3.6 0-2.6-2.4-3-6-3H106v6.6zM56.9 29.3l8.9-20.4h5.4L80 29.3h-5.5l-2.4-5.5h-9.4l-2.4 5.5h-3.4zm7-8.2H71L67.5 13l-3.6 8.1zM86.4 8.9h4.8v20.4h-4.8zM157 28.6c-2.3.9-5.1 1.3-8.4 1.3-4 0-7.2-1-9.4-2.9-2.3-1.9-3.4-4.6-3.4-8 0-3.5 1.1-6.1 3.4-8s5.5-2.8 9.7-2.8c2.7 0 5.4.3 8 .8v3.3c-3-.9-5.8-1.3-7.8-1.3-2.6 0-4.6.7-6 2-1.4 1.4-2.1 3.3-2.1 5.9 0 2.5.7 4.4 2.3 5.8 1.5 1.4 3.6 2.1 6.3 2.1 2.4 0 5.1-.5 7.5-1.5v3.3zm5.8.7l8.9-20.4h5.4l8.8 20.4h-5.5l-2.4-5.5h-9.4l-2.4 5.5h-3.4zm7-8.2h7.1l-3.5-8.1-3.6 8.1zm51.9 8.2l8.9-20.4h5.4l8.8 20.4h-5.5l-2.4-5.5h-9.4l-2.4 5.5h-3.4zm7-8.2h7.1l-3.5-8.1-3.6 8.1zm48.9 8.2l8.9-20.4h5.4l8.8 20.4h-5.5l-2.4-5.5h-9.4l-2.4 5.5h-3.4zm7-8.2h7.1l-3.5-8.1-3.6 8.1zm-91.9 8.2V8.9h5.5L211 23.4V8.9h3.9v20.4h-5L196.6 14v15.3zm58.9 0V8.9h9.9c3.5 0 6.2.9 8.1 2.5 1.9 1.7 2.8 4.1 2.8 7.2 0 3.4-1 6-3 7.8-2 1.9-4.8 2.8-8.4 2.8h-9.4zm4.7-2.9h3.5c2.5 0 4.3-.6 5.6-1.8 1.2-1.2 1.8-3.1 1.9-5.6 0-1.9-.5-3.6-1.5-4.9-.7-.9-1.5-1.5-2.4-1.9-1-.3-2.3-.5-4.2-.5h-2.9v14.7z"/></svg>