<svg viewBox="0 0 145 33" xmlns="http://www.w3.org/2000/svg"><path fill="#004A8F" d="M90.795 31.766h-.42l-1.246-2.431v2.431h-.35v-2.821h.532l1.134 2.233v-2.233h.35zm3.256-1.057c0-.272-.051-.478-.149-.611a.504.504 0 00-.427-.199.505.505 0 00-.429.199c-.101.134-.151.339-.151.611 0 .266.051.466.151.604a.502.502 0 00.429.205.496.496 0 00.425-.203c.1-.133.151-.336.151-.606m.367 0c0 .355-.086.63-.257.824-.173.194-.4.29-.687.29-.294 0-.526-.099-.694-.3-.168-.199-.252-.471-.252-.814 0-.354.086-.629.26-.824a.873.873 0 01.687-.294c.286 0 .514.098.687.292.17.197.256.471.256.826m3.351 1.057h-.356v-.234a1.483 1.483 0 01-.312.218.699.699 0 01-.329.074.746.746 0 01-.261-.045.52.52 0 01-.213-.145.681.681 0 01-.141-.247 1.145 1.145 0 01-.05-.363V29.65h.355v1.206c0 .111.004.204.012.278.009.075.027.14.057.195a.27.27 0 00.118.118c.05.025.121.037.216.037a.646.646 0 00.277-.071c.099-.052.189-.111.271-.184v-1.58h.356v2.117zm3.511-2.117l-.79 2.117h-.32l-.794-2.117h.385l.579 1.633.57-1.633zm2.95.823a1.013 1.013 0 00-.035-.248.532.532 0 00-.087-.177.387.387 0 00-.16-.12.609.609 0 00-.241-.042.638.638 0 00-.241.042.586.586 0 00-.303.31.83.83 0 00-.053.235h1.12zm-.417 1.342c-.338 0-.599-.095-.785-.284-.187-.19-.279-.46-.279-.812 0-.343.09-.618.27-.821a.905.905 0 01.709-.307c.132 0 .247.02.349.057.101.038.189.098.265.179s.134.179.175.296c.04.116.06.26.06.43v.193h-1.465c0 .246.062.435.186.564.124.13.295.194.514.194a1.11 1.11 0 00.595-.178.894.894 0 00.11-.076h.021v.387c-.041.018-.093.037-.154.063a3.067 3.067 0 01-.167.057 3.416 3.416 0 01-.188.044c-.06.009-.131.014-.216.014m2.467-2.996h.355v2.947h-.355zm2.22 0h.356v2.947h-.356zm3.56 1.654a1.068 1.068 0 00-.034-.248.574.574 0 00-.087-.177.408.408 0 00-.16-.12c-.064-.028-.146-.042-.241-.042s-.176.015-.241.042a.564.564 0 00-.303.31.796.796 0 00-.054.235h1.12zm-.417 1.342c-.337 0-.599-.095-.785-.284-.186-.19-.278-.46-.278-.812 0-.343.089-.618.271-.821a.898.898 0 01.708-.307c.131 0 .247.02.349.057a.707.707 0 01.266.179.85.85 0 01.174.296c.04.116.06.26.06.43v.193h-1.466c0 .246.062.435.186.564.124.13.295.194.514.194.078 0 .155-.01.23-.027s.144-.039.203-.066a1.5 1.5 0 00.273-.161h.021v.387l-.154.063a2.81 2.81 0 01-.168.057 3.038 3.038 0 01-.188.044c-.06.009-.13.014-.216.014m2.367-1.454h1.069v.344h-1.069zm3.97 1.455c-.184 0-.353-.029-.508-.093a1.066 1.066 0 01-.4-.275 1.261 1.261 0 01-.261-.458 1.978 1.978 0 01-.093-.632c0-.235.029-.44.089-.617.06-.175.148-.328.264-.457.111-.127.245-.224.399-.289.153-.066.326-.1.517-.1a1.626 1.626 0 01.684.145c.063.028.127.06.188.095v.451h-.03a3.841 3.841 0 00-.127-.109 1.226 1.226 0 00-.423-.224 1.048 1.048 0 00-.295-.037.806.806 0 00-.34.073c-.106.05-.201.123-.281.219s-.143.216-.187.36c-.044.146-.066.31-.066.49 0 .194.023.36.07.499.047.14.11.259.191.354a.786.786 0 00.612.282 1.122 1.122 0 00.729-.26c.05-.04.09-.077.119-.104h.028v.446l-.176.083a2.06 2.06 0 01-.428.138c-.071.016-.161.02-.275.02m3.72-.571v-.587c-.085.008-.192.018-.321.032a1.545 1.545 0 00-.313.056.57.57 0 00-.235.133.334.334 0 00-.094.251c0 .122.035.213.104.274s.168.093.299.093a.641.641 0 00.305-.071c.089-.05.174-.109.255-.181m0 .296c-.03.021-.068.052-.117.09a1.055 1.055 0 01-.324.168.951.951 0 01-.247.025.638.638 0 01-.455-.186.72.72 0 01-.188-.487c0-.146.031-.271.093-.374s.159-.184.293-.244c.119-.056.259-.094.42-.113a6.07 6.07 0 01.524-.045v-.07a.458.458 0 00-.039-.201.276.276 0 00-.106-.118.424.424 0 00-.166-.059 1.343 1.343 0 00-.492.024 2.069 2.069 0 00-.333.105h-.021v-.36c.064-.02.159-.04.281-.063.123-.022.244-.034.364-.034.145 0 .268.012.366.034.1.023.19.065.27.124a.533.533 0 01.173.224.913.913 0 01.055.338v1.447h-.352v-.225zm2.2-2.722h.356v2.947h-.356zm3.64-.226l-.518.708h-.282l.34-.708h.46zm-.091 1.88a1.017 1.017 0 00-.034-.248.552.552 0 00-.087-.177.39.39 0 00-.161-.12.605.605 0 00-.241-.042.633.633 0 00-.24.042.575.575 0 00-.304.31.798.798 0 00-.052.235h1.119zm-.417 1.342c-.337 0-.599-.095-.785-.284-.187-.19-.279-.46-.279-.812 0-.343.09-.618.271-.821a.906.906 0 01.709-.307c.131 0 .247.02.349.057.101.038.189.098.265.179s.134.179.175.296c.039.116.06.26.06.43v.193h-1.465c0 .246.062.435.187.564.122.13.294.194.513.194.078 0 .154-.01.229-.027.077-.017.144-.039.205-.066.063-.029.118-.058.163-.085a.957.957 0 00.109-.076h.021v.389c-.042.016-.094.035-.155.062a3.058 3.058 0 01-.166.057 3.66 3.66 0 01-.189.044 1.64 1.64 0 01-.217.013m3.738-.563V30.03a1.137 1.137 0 00-.239-.089 1.01 1.01 0 00-.228-.024.507.507 0 00-.43.206c-.103.137-.155.333-.155.593 0 .25.039.439.12.57.078.132.206.198.383.198.093 0 .188-.021.282-.063s.183-.099.267-.17m.356.515h-.356v-.217a4.386 4.386 0 01-.144.116.914.914 0 01-.3.139.775.775 0 01-.19.02.725.725 0 01-.318-.07.681.681 0 01-.248-.212c-.071-.093-.125-.208-.162-.345s-.057-.294-.057-.473c0-.185.023-.346.072-.481.048-.137.114-.255.199-.355a.811.811 0 01.622-.296.955.955 0 01.525.144v-.917h.356v2.947zm3.224-1.057c0-.272-.051-.478-.15-.611a.5.5 0 00-.425-.199.507.507 0 00-.43.199c-.101.134-.15.339-.15.611 0 .266.05.466.15.604a.504.504 0 00.43.205.496.496 0 00.425-.203c.099-.133.15-.336.15-.606m.367 0c0 .355-.085.63-.258.824-.171.194-.399.29-.685.29-.294 0-.526-.099-.694-.3-.168-.199-.253-.471-.253-.814 0-.354.087-.629.26-.824.175-.196.403-.294.688-.294s.514.098.685.292c.172.197.257.471.257.826m3.363 1.057h-.356V30.56c0-.096-.005-.187-.015-.271a.545.545 0 00-.054-.201.275.275 0 00-.122-.119.49.49 0 00-.211-.039.6.6 0 00-.274.072 1.301 1.301 0 00-.275.185v1.579h-.356V29.65h.356v.235c.106-.094.211-.167.314-.218a.745.745 0 01.328-.076c.208 0 .371.068.489.206.117.138.176.336.176.596v1.373zm1.85 0h.355V29.65h-.355v2.116zm-.024-2.47h.405v-.37h-.405v.37zm3.574 1.176a.97.97 0 00-.034-.248.55.55 0 00-.086-.177.404.404 0 00-.161-.12.599.599 0 00-.241-.042.629.629 0 00-.24.042.586.586 0 00-.304.31.83.83 0 00-.053.235h1.119zm-.417 1.342c-.337 0-.598-.095-.784-.284-.186-.19-.279-.46-.279-.812 0-.343.09-.618.271-.821a.904.904 0 01.708-.307c.132 0 .247.02.35.057.101.038.188.098.265.179s.135.179.175.296c.04.116.061.26.061.43v.193h-1.467c0 .246.062.435.187.564.123.13.294.194.513.194a1.085 1.085 0 00.596-.178 1.08 1.08 0 00.11-.076h.021v.387c-.041.018-.094.037-.155.063a2.8 2.8 0 01-.167.057 3.216 3.216 0 01-.188.044 1.46 1.46 0 01-.217.014M42.948 17.695l-.779-4.717-3.378 4.718 4.157-.001zm-13.197 5.518L40.569 8.904l5.579-.002 2.939 14.308-5.265.001-.468-2.922-6.4.002-2.076 2.922h-5.127zM60.114 10.88h-4.801l.722-2.624 4.8-.001-.721 2.625zm-3.398 12.328H51.93l2.971-10.79 4.786-.002-2.971 10.792zm17.162-7.614h-.396a4.333 4.333 0 00-.766-.1c-.339-.023-.72-.035-1.139-.035-.502.002-1.042.053-1.623.154s-1.148.225-1.707.367l-1.99 7.227h-4.786l2.971-10.791 4.786-.002-.426 1.546c.257-.141.609-.318 1.056-.532.446-.215.847-.388 1.201-.515a9.066 9.066 0 011.316-.38 6.392 6.392 0 011.349-.159 12.24 12.24 0 011.029.038l-.875 3.182zm8.285 7.898c-1.268 0-2.396-.113-3.388-.337-.991-.223-1.811-.57-2.456-1.037-.637-.468-1.072-1.057-1.307-1.763-.233-.708-.217-1.542.047-2.503.284-1.03.758-1.911 1.423-2.634a8.236 8.236 0 012.379-1.787 11.45 11.45 0 012.975-.994c1.093-.218 2.2-.323 3.322-.323.848 0 1.677.067 2.487.205.81.139 1.602.357 2.376.659l-.795 2.882h-.615a6.685 6.685 0 00-.587-.424 5.732 5.732 0 00-.794-.424 6.146 6.146 0 00-1.082-.34 6.575 6.575 0 00-1.424-.139c-1.223 0-2.251.299-3.086.898a4.29 4.29 0 00-1.67 2.417c-.298 1.084-.162 1.892.407 2.423.568.53 1.445.797 2.632.797a8.353 8.353 0 002.896-.492 8.17 8.17 0 00.936-.418c.268-.145.499-.273.695-.39h.615l-.794 2.883-1.029.288c-.391.11-.782.198-1.175.271-.489.088-.944.157-1.363.206-.418.05-.96.076-1.625.076m17.616-3.108l.619-2.247c-.827.057-1.497.106-2.01.148-.513.041-1.027.122-1.544.246-.449.102-.816.258-1.106.465-.29.208-.482.486-.578.831-.139.506-.041.854.294 1.043.336.189.882.284 1.638.284.421 0 .868-.068 1.342-.203s.923-.324 1.345-.567m-.46 1.672c-.381.192-.722.364-1.025.52a8.02 8.02 0 01-1.173.461c-.469.147-.917.26-1.344.337-.427.078-1.004.116-1.734.116-1.357 0-2.397-.32-3.119-.961-.723-.641-.948-1.447-.681-2.421.221-.801.626-1.447 1.218-1.941.593-.493 1.355-.883 2.292-1.174.947-.293 2.039-.5 3.273-.615a85.536 85.536 0 013.957-.27l.016-.057c.164-.596-.034-1.008-.597-1.236-.561-.225-1.467-.34-2.715-.34-.565 0-1.247.072-2.043.219a23.12 23.12 0 00-2.367.551h-.41l.717-2.603c.5-.098 1.297-.21 2.391-.342a26.943 26.943 0 013.254-.198c2.645 0 4.484.31 5.521.926 1.039.618 1.383 1.563 1.034 2.831l-2.021 7.341-4.76.002.316-1.146zm13.861 1.141h-4.78l4.11-14.95 4.79-.001zm12.94-12.331l-4.793.002.722-2.622 4.793-.002-.722 2.622zm-3.399 12.328l-4.786.001 2.971-10.792h4.787l-2.972 10.791zm19.149-.003l-4.812.002 1.472-5.354c.121-.436.215-.871.283-1.303.07-.432.063-.75-.016-.955-.098-.244-.287-.418-.568-.523-.279-.105-.679-.16-1.199-.158-.393 0-.803.053-1.232.152-.43.105-.902.268-1.42.492l-2.106 7.648-4.786.001 2.971-10.792h4.787l-.328 1.192a17.205 17.205 0 012.593-1.094 8.27 8.27 0 012.576-.396c1.567-.002 2.671.347 3.309 1.041.639.695.775 1.703.412 3.023l-1.936 7.024z"/><path d="M29.277 26.122s57.777-.879 114.71-.12c-.001 0-59.22 1.121-114.71.12" fill="#00B1EB"/><path d="M10.272 15.457s-1.45-6.034 1.86-7c3.309-.965 3.786.518 3.786.518l.115.805.875-.408.206 1.199s2.53-.44 2.23.666c-.301 1.108-4.627 2.166-5.233 4.658 0 0 6.538-4.401 9.579-3.507 3.043.897 1.822 2.214 1.822 2.214l.677.537-.8.738 1.391 2.451s-.05 2.503-3.775 3.77l-5.006-2.522s4.707 3.63 3.244 6.316c-1.462 2.689-3.108 1.542-3.108 1.542l-.791-1.342-.645 1.116-.567-.354s-4.067 1.274-4.457 1.088c-.389-.188-.873-3.812.44-5.638 1.313-1.823-.085.229-.085.229s-3.21 1.702-4.524 4.425c-1.316 2.723-3.708-.466-3.708-.466l.185-1.013-.623.003-1.803-.622s-1.61-4.618.645-6.862c2.254-2.248 1.727-1.229 1.727-1.229l-.549-1.187 1.076.168s1.115-3.299 1.853-3.4c.738-.099 3.21 5.564 5.313 5.984 2.104.419-1.129-1.609-1.35-2.877" fill="#F04923"/><path d="M23.887 7.866c-.194-.338-.791-.196-1.333.314-.119.11-.223.232-.314.357.04-.159.035-.301-.022-.402-.156-.27-.633-.157-1.066.251-.434.409-.659.961-.504 1.231.156.27.634.157 1.067-.252.079-.074.146-.153.21-.232a1.074 1.074 0 00-.057.334c-3.343 4.933-6.201 7.611-7.446 8.659a127.96 127.96 0 01-1.759-3.37c.328 1.521.398 4.618.398 4.618l-1.992-.193s.212.926-.32.722c-.533-.202-2.102-1.385-2.339-1.005-.237.378 1.895 1.189.728 1.05-1.169-.138-3.308 1.153-3.308 1.153 3.445-.544 4.174-.549 4.174-.549l2.017-.05c.082.712 1.171.869 1.592.935.421.065.276-1.278.801-.751.527.53 1.306 2.866 1.306 2.866.107-.593-.357-3.327-.357-3.327s.485.701.805 1.033c.319.333.901.039.938-.863.037-.9-1.859-1.035-.98-1.804.878-.768 2.957.696 3.272.299.314-.396-.638-1.55-.638-1.55.291-.148 3.809-1.439 3.809-1.439-1.614-.031-4.963 1.184-6.792 1.9 1.257-2 4.034-5.125 5.988-7.239a.49.49 0 00.039.325c.155.269.633.156 1.066-.252.435-.408.66-.961.505-1.231-.015-.026-.035-.044-.055-.062.499-.505.754-1.152.567-1.476m1.921-4.791c.434-.409.659-.961.504-1.232-.156-.271-.633-.157-1.066.254-.435.409-.659.96-.504 1.229.154.271.632.159 1.066-.251m-3.004 2.861c.347-.327.526-.767.403-.984-.125-.216-.507-.127-.854.201s-.527.77-.402.985c.123.217.506.126.853-.202m5.47-4.642c-.125-.216-.506-.126-.853.201-.347.329-.528.77-.403.986.125.218.507.125.854-.201.346-.328.526-.768.402-.986m-2.799 6.062c-.434.41-.659.961-.504 1.231.156.27.633.159 1.066-.251.434-.409.659-.962.504-1.231-.155-.271-.633-.159-1.066.251m.46-2.895c-.194-.339-.791-.196-1.332.316-.542.512-.824 1.199-.63 1.539.194.337.792.197 1.333-.315.544-.511.824-1.202.629-1.54M12.662 14.756c-.076-.35-.165-.617-.27-.744-.18-.219-.024.146.27.744" fill="#FDB913"/></svg>