<svg xmlns="http://www.w3.org/2000/svg" width="81.99" height="31.552" viewBox="0 0 21.693 8.348"><path d="M1.785 5.689h1.067L6.2 2.757v2.914h2.18s1.086-.09 1.086-1.212c0-.915-.905-1.177-.905-1.177s-.697-.226-.697-.778c0-.588.851-.452.942-.452.09 0 1.022.013 1.022.013v3.588h.697V2.061h1.077v3.61h.633v-3.61s.886-.154 1.176.09c.289.244.253.652-.073.86-.325.208-.804.145-.804.145l1.9 2.523 3.157-2.777v2.769h.715V1.237L14.533 4.55l-.727-.868s.69-.28.619-1.295c-.08-1.11-1.204-1.13-1.204-1.13H8.244s-.267.005-.506.108c-.293.127-.571.397-.606.896-.06.866.237 1.048.424 1.25.236.254.979.476 1.142.75.171.289-.091.705-.264.705h-1.51V1.283z" fill="#cecccd"/><path d="M5.92 1.327H1.306c-.23.232-.433.491-.601.774h4.348zM4.608 2.534H.48a4 4 0 00-.254.773h3.515zM3.132 3.846H.147a3.966 3.966 0 00.01.773h2.108zm-1.266 1.16H.22c.056.269.139.527.246.773H1zm5.852 1.113H.63c.155.28.34.539.553.774h5.983c.213-.235.398-.494.552-.774m-.902 1.113H1.533c.708.613 1.63.984 2.641.984 1.01 0 1.934-.371 2.642-.984M4.174.132c-.91 0-1.75.301-2.425.809H6.6A4.022 4.022 0 004.174.132" fill="#d71f41"/><path d="M7.599 7.201l.11.002.112.003c.038 0 .076 0 .115-.002l.115-.003-.228-.522zm.91.64a.372.372 0 00-.054-.005h-.109a.386.386 0 00-.055.004 4.399 4.399 0 00-.093-.254l-.061-.148-.057-.142a5.342 5.342 0 00-.134-.003l-.136-.001h-.125l-.125.004a7.844 7.844 0 00-.12.305 3.13 3.13 0 00-.08.24.647.647 0 00-.152 0 85.456 85.456 0 00.643-1.439h.04l.106.257a40.246 40.246 0 00.237.563l.112.26.094.215c.028.062.051.11.069.143m1.135-.292a87.34 87.34 0 00-.145-.36l-.159-.386c-.054-.131-.105-.256-.155-.374l.056.008a.434.434 0 00.102 0l.056-.008a13.025 13.025 0 00.215.588l.124.313.13.314a9.714 9.714 0 00.167-.404c.03-.075.06-.15.087-.228l.084-.223a11.205 11.205 0 00.128-.36c.03.007.056.01.076.01.02 0 .046-.003.076-.01a32.49 32.49 0 00-.592 1.412.53.53 0 00-.135 0l-.115-.292m8.941-6.28h.82v3.668h2.156v.738h-2.953zm-7.148 5.426l-.01-.266a.461.461 0 00.05.007.333.333 0 00.099 0 .898.898 0 00.051-.007l-.011.266a7.716 7.716 0 00-.005.266v.354a7.791 7.791 0 00.016.526 1.13 1.13 0 00-.2 0l.01-.259a5.87 5.87 0 00.006-.267V6.96c0-.09-.002-.179-.005-.266m1.519.507l.11.002.112.003a4.008 4.008 0 00.23-.005l-.228-.522zm.91.64a.377.377 0 00-.054-.005h-.11a.375.375 0 00-.054.004 3.572 3.572 0 00-.093-.253l-.06-.149a5.87 5.87 0 01-.059-.142 5.328 5.328 0 00-.133-.003l-.136-.001h-.125l-.125.004a8.463 8.463 0 00-.12.305 3.343 3.343 0 00-.08.24.63.63 0 00-.152 0 98.122 98.122 0 00.643-1.439h.04l.106.257c.038.094.078.186.117.28l.12.283.111.26.095.215c.028.062.051.11.07.143m1.082-1.304h-.112c-.039.002-.078.002-.116.005a3.275 3.275 0 00-.211.017.241.241 0 00.01-.067.276.276 0 00-.01-.063l.265.008a10.893 10.893 0 00.53 0l.265-.008a.277.277 0 00-.01.066c0 .017.003.039.01.064a3.56 3.56 0 00-.21-.017c-.04-.003-.078-.003-.117-.004l-.112-.001c-.005.14-.007.282-.007.425v.353c0 .09.002.18.005.267l.012.26a1.124 1.124 0 00-.201 0c.004-.086.008-.171.01-.26.005-.087.006-.177.006-.267v-.353c0-.143-.003-.284-.006-.425m1.577.158l-.01-.266a.461.461 0 00.05.007.323.323 0 00.099 0c.017-.001.033-.004.051-.007l-.012.266a6.637 6.637 0 00-.004.266v.354c0 .09.001.18.004.267l.012.26a1.137 1.137 0 00-.2 0l.01-.26a6.69 6.69 0 00.006-.267V6.96c0-.09-.002-.179-.006-.266m2.475.148a.564.564 0 00-.12-.205.481.481 0 00-.18-.12.625.625 0 00-.226-.04.619.619 0 00-.223.04.472.472 0 00-.18.12.556.556 0 00-.121.205.909.909 0 00-.043.295c0 .114.014.212.043.295a.551.551 0 00.12.205.48.48 0 00.181.12.64.64 0 00.448 0 .49.49 0 00.181-.12.56.56 0 00.12-.205.886.886 0 00.044-.295.89.89 0 00-.044-.295m-1.238-.016a.652.652 0 01.402-.375.933.933 0 01.31-.05c.114 0 .218.016.312.05a.647.647 0 01.402.375c.038.09.057.195.057.311a.81.81 0 01-.057.311.644.644 0 01-.402.372.996.996 0 01-.312.047.991.991 0 01-.31-.047.65.65 0 01-.244-.14.656.656 0 01-.158-.232.81.81 0 01-.056-.31c0-.117.019-.221.056-.312m3.144.48l-.535-.57-.005.155-.001.263v.106l.003.134.003.142.004.133.004.108.004.063a.635.635 0 00-.149 0 3.779 3.779 0 00.019-.208l.01-.168.008-.181.005-.176.002-.154v-.34a4.784 4.784 0 00-.007-.212h.033l.269.292.284.305c.094.101.182.197.267.286.085.09.159.167.221.23v-.28c0-.144 0-.284-.003-.42a10.347 10.347 0 00-.013-.386.28.28 0 00.07.01.287.287 0 00.065-.01c-.003.03-.006.076-.009.136l-.01.193-.01.202c-.002.066-.004.118-.004.158v.123l.001.146.002.153c0 .051.002.1.003.144v.184h-.028a21.419 21.419 0 00-.503-.56" fill="#cecccd"/></svg>