<svg viewBox="0 0 265.93 77.581" xmlns="http://www.w3.org/2000/svg"><defs><clipPath id="a"><path d="M0 842.84h595.28V0H0v842.84z"/></clipPath></defs><g clip-path="url(#a)" transform="matrix(1.0722 0 0 -1.0722 -321.264 133.006)"><path d="M355.79 105.35c-2-.438-10.936-4.684-14.559-6.512l-2.144-.484c-1.102.266-15.805 5.133-23.645 2.617-3.83-1.244-15.423-4.273-15.423-4.273-1.168-.362.675-.493 1.236-.409.551.073 2.453.377 4.707.834 4.521.914 7.068 1.067 9.451 1.206 4.541.257 11.332-.434 16.764-3.137.418-.203.607-.436.633-.717.041-.768-1.223-2.016-1.723-2.34 0 0 1.58-.09 2.568.217.369.107.791.131 1.367.168.747.06 1.76.123 3.348.418 3.131.572 4.553 1.351 6.045 2.193l.107.061c.961.521 9.557 4.027 9.557 4.027 5.135 2.106 7.297.078 13.453.735 6.166.65 11.041 2.455 14.805 2.759.705.061-.908.533-1.344.586-1.822.209-10.48.008-13.119.365-5.773.78-10.063 2.124-12.084 1.686m13.14-8.358c0-2.59-1.188-7.242-1.188-7.242-.05-.192-.134-.465-.173-.602-.047-.131.076-.248.279-.248h3.143c.187 0 .384.057.396.135.02.074.078.287.129.482 0 0 1.068 4.811 1.068 7.475 0 .846-.054 1.684-.134 2.516a54.863 54.863 0 00-3.602-.58c.055-.639.082-1.295.082-1.936m2.53 7.668a26.89 26.89 0 01-3.029 6.697c-1.758-.119-3.098 0-4.313.131-.092.016-.181.016-.267.016a23.081 23.081 0 003.679-6.588c.166-.026.33-.055.504-.074.733-.094 1.973-.155 3.426-.182" fill="#002d62"/><path d="M318.47 96.992c0-2.652 1.072-7.475 1.072-7.475.049-.195.108-.408.116-.482.025-.078.203-.135.406-.135h3.148c.19 0 .317.117.272.248-.051.137-.121.41-.18.602 0 0-1.137 4.502-1.17 7.109-1.269.172-2.5.266-3.664.297v-.164zm4.41 5.828a23.38 23.38 0 003.229 7.203 42.885 42.885 0 01-4.598-.637 26.583 26.583 0 01-2.381-6.566 31.65 31.65 0 003.75 0m7.77 12.22a23.281 23.281 0 0014.871 5.346c4.295 0 8.322-1.174 11.783-3.2.959.395 1.739.676 2.162.772.854.187 1.936.072 3.323-.158a26.931 26.931 0 01-17.268 6.244c-8.711 0-16.473-4.143-21.414-10.551 1.336.369 2.52.711 3.303.967.937.297 2.021.496 3.24.58" fill="#002d62"/><path d="M359.72 116.84c-1.582-.33-8.68-3.715-11.537-5.16-.057-.004-1.596-.363-1.705-.375-.867.201-12.524 4.055-18.727 2.062-3.041-.984-12.232-3.388-12.232-3.388-.928-.272.539-.375.99-.321.428.059 1.94.309 3.732.668 3.573.725 5.583.848 7.485.957 3.588.202 8.973-.355 13.275-2.49.332-.16.494-.357.516-.58.017-.592-.975-1.592-1.373-1.846 0 0 1.248-.062 2.029.17.305.084.631.117 1.084.137.598.045 1.4.102 2.658.33 2.485.451 3.612 1.084 4.787 1.738l.088.034c.754.435 7.551 3.21 7.551 3.21 4.086 1.668 5.799.055 10.682.579 4.871.517 8.75 1.939 11.722 2.193.571.047-.722.414-1.062.455-1.434.166-8.285.01-10.4.291-4.563.615-7.971 1.678-9.563 1.336" fill="#002d62"/><path d="M401.54 96.945l-1.186 8.588c-.041.342-.183.365-.324.045l-3.369-8.059c-.131-.314.045-.574.387-.574h4.492m8.592-7.34c.053-.332-.168-.603-.512-.603h-6.248c-.34 0-.662.271-.691.619l-.196 1.662c-.029.348-.351.621-.685.621h-6.709c-.342 0-.731-.262-.862-.563l-.767-1.775c-.135-.31-.533-.564-.867-.564h-6.752c-.34 0-.494.242-.34.556l11.56 23.68c.151.318.563.568.901.568h6.721a.796.796 0 00.746-.615l4.701-23.586zm24.818 24.205l-.789-5.268c-.057-.341-.383-.625-.717-.625h-10.213c-.357 0-.685-.265-.734-.607l-.348-2.182a.52.52 0 01.526-.601h8.884a.519.519 0 00.528-.625l-.701-4.322c-.032-.338-.368-.604-.717-.604h-8.842c-.338 0-.652-.285-.707-.629l-.41-2.777a.527.527 0 01.543-.619h10.963c.341 0 .572-.28.531-.62l-.672-4.71a.734.734 0 00-.709-.616h-18.83c-.346 0-.59.272-.525.616l3.576 23.568a.74.74 0 00.709.621h18.654m47.78 0l-.793-5.268c-.059-.341-.375-.625-.715-.625h-10.234a.753.753 0 01-.727-.607l-.347-2.162c-.039-.336.183-.621.539-.621h8.882a.523.523 0 00.532-.625l-.686-4.322c-.049-.338-.375-.604-.738-.604h-8.863c-.334 0-.643-.285-.698-.629l-.406-2.777a.526.526 0 01.539-.619h10.979c.341 0 .58-.28.541-.62l-.68-4.71a.74.74 0 00-.719-.616h-18.847a.514.514 0 00-.524.616l3.586 23.568c.053.35.365.621.715.621h18.664m14-16.865l-1.164 8.588c-.053.342-.197.365-.338.045l-3.367-8.059c-.137-.314.031-.574.383-.574h4.486m8.596-7.34c.068-.332-.155-.603-.5-.603h-6.237c-.343 0-.668.271-.693.619l-.205 1.662a.707.707 0 01-.695.621h-6.698c-.341 0-.734-.262-.879-.563l-.757-1.775c-.129-.31-.541-.564-.868-.564h-6.759c-.342 0-.498.242-.352.556l11.586 23.68c.147.318.557.568.9.568h6.709c.348 0 .68-.271.752-.615l4.696-23.586zm28.314 24.205l-3.662-24.189c-.043-.344-.369-.616-.715-.616h-6.076c-.34 0-.735.254-.877.565l-5.377 11.722a10 10 0 00-.397 1.166l-.277 1.514c-.051.34-.094.459-.094.277 0-.195 0-.625-.002-.968 0 0-.007-.59-.044-.916a25.755 25.755 0 00-.147-1.201l-1.719-11.543a.748.748 0 00-.715-.616h-6.152a.517.517 0 00-.523.616l3.554 23.568c.045.35.373.621.719.621h6.022c.337 0 .738-.262.89-.568l5.237-11.551c.146-.311.349-.848.447-1.17l.379-1.717c.066-.34.125-.336.136 0l.098 1.799c.035.348.09.894.166 1.234l1.719 11.358a.744.744 0 00.721.615h6.689m-80.49-10.9c-.34 0-.621 0-.621-.025 0 0-.283-.004-.627-.004h-1.279a.74.74 0 01-.721-.612l-.693-4.318a.522.522 0 01.533-.615h.82c.35 0 .484-.252.324-.541 0 0-.324-.584-.705-.977-1.047-1.105-2.377-1.64-3.992-1.64-1.559 0-2.719.556-3.457 1.669-.74 1.112-.91 2.95-.523 5.5.378 2.575 1.127 4.422 2.203 5.538 1.08 1.113 2.386 1.673 3.9 1.673 1.572 0 2.734-.554 3.496-1.662l.104-.15c.093-.201.461-.363.804-.363h6.6c.334 0 .549.261.461.601 0 0-.74 2.826-1.777 4.108-1.829 2.252-4.76 3.39-8.782 3.39-3.91 0-7.156-1.156-9.695-3.435-2.547-2.315-4.127-5.533-4.762-9.672-.445-2.944-.256-5.399.545-7.375.819-1.977 2.047-3.414 3.688-4.328 1.636-.907 3.843-1.367 6.551-1.367 2.697 0 5.005.55 6.957 1.593a12.957 12.957 0 014.796 4.422c1.252 1.891 2.075 4.307 2.53 7.258.052.451.09.703.09.703a.558.558 0 01-.561.629h-6.207z" fill-rule="evenodd" fill="#002d62"/><path d="M299.7 80.59h247.96" stroke-width=".434" stroke="#000"/><path d="M524.61 66.508a27.786 27.786 0 005.514 5.709l-1.112-4.445-4.402-1.264z" fill="#d1d3d4"/><path d="M532.3 64.588a27.744 27.744 0 00-3.912.684c-1.311.326-2.572.74-3.787 1.236l4.404 1.264 3.295-3.184z" fill="#58595b"/><path d="M530.12 72.217a28.492 28.492 0 001.365-3.732c.369-1.295.643-2.598.821-3.897l-3.297 3.184 1.111 4.445zm-7.07-14.846a27.845 27.845 0 00-3.727 7.006l3.887-2.428-.16-4.578z" fill="#939598"/><path d="M527.25 64.1a27.604 27.604 0 00-4.203-6.73l.16 4.58 4.043 2.15z" fill="#58595b"/><path d="M519.33 64.377c1.299.141 2.621.191 3.967.146a27.943 27.943 0 003.959-.423l-4.043-2.151-3.883 2.428z" fill="#d1d3d4"/><path d="M531.26 53.068a27.746 27.746 0 00-7.814-1.379l3.509 2.945 4.305-1.566z" fill="#58595b"/><path d="M526.16 59.146a28.117 28.117 0 002.766-2.854 27.655 27.655 0 002.336-3.226l-4.305 1.568-.797 4.512z" fill="#939598"/><path d="M523.45 51.69a27.701 27.701 0 002.713 7.457l.797-4.512-3.51-2.945z" fill="#d1d3d4"/><path d="M537.89 59.547a28.053 28.053 0 00-.268-3.965 27.412 27.412 0 00-.836-3.894l-1.716 4.248 2.82 3.611z" fill="#939598"/><path d="M530.53 56.572a28.253 28.253 0 003.564 1.75c1.252.504 2.52.912 3.795 1.225l-2.824-3.612-4.535.637z" fill="#d1d3d4"/><path d="M536.79 51.69a27.376 27.376 0 00-3.297 2.215 27.88 27.88 0 00-2.959 2.668l4.539-.637 1.717-4.246z" fill="#58595b"/><path d="M533.78 67.852a27.77 27.77 0 007.131-3.479l-4.568-.32-2.563 3.799z" fill="#939598"/><path d="M534.33 59.936a27.872 27.872 0 00-.555 7.916l2.563-3.799-2.008-4.117z" fill="#d1d3d4"/><path d="M540.91 64.373a27.75 27.75 0 00-6.578-4.438l2.01 4.118 4.568.32z" fill="#58595b"/><path d="M543.64 62.963h.197v1.734h.752v.182h-1.701v-.182h.752v-1.734zm3.44 1.916h.281v-1.916h-.197v1.654h-.002l-.848-1.654h-.183l-.842 1.656h-.006v-1.656h-.197v1.916h.289l.853-1.666.852 1.666z" fill="#fff"/><path d="M458.3 65.107h1.238V56.64h-.871v7.309h-.025l-3.729-7.309h-.808l-3.719 7.321h-.02V56.64h-.873v8.467h1.274l3.769-7.365 3.764 7.365zm-33.12-4.255c0-2.664 1.848-4.385 4.568-4.385 2.534 0 4.067 1.713 4.268 3.403l.025.205h-.914l-.029-.151c-.289-1.625-1.572-2.631-3.35-2.631-2.619 0-3.666 1.84-3.666 3.563 0 2.105 1.518 3.576 3.698 3.576 1.662 0 2.855-.791 3.195-2.117l.035-.145h.91l-.051.229c-.418 1.814-1.904 2.857-4.089 2.857-3.096 0-4.6-2.285-4.6-4.404m11.576 4.227v-8.432h6.805v.824h-5.932v3.131h5.629v.811h-5.629v2.841h5.862v.825h-6.735zm-15.18 0v-7.038c-.539.657-6.101 7.038-6.101 7.038h-.879v-8.432h.867v7.035c.541-.658 6.104-7.035 6.104-7.035h.877v8.432h-.868zm-21.486-8.432h.869v8.432h-.869v-8.432zm-7.883 8.432v-8.432h6.065v.824h-5.188v7.608h-.877zm-7.953 0v-8.432h6.076v.824h-5.199v7.608h-.877zm23.694-1.166c.265-.582 1.562-3.428 1.753-3.852h-3.519c.197.426 1.5 3.27 1.766 3.852m-.407 1.166l-3.879-8.432h.969l1.186 2.605h4.244l1.201-2.605h.955l-3.859 8.432h-.817zm-30.277-1.166c.264-.582 1.561-3.428 1.75-3.852H375.5c.192.426 1.496 3.27 1.764 3.852m-.408 1.166l-3.877-8.432h.967l1.187 2.605h4.244l1.198-2.605h.959l-3.862 8.432h-.816zm-12.879-.825c1.332 0 1.976-.48 1.976-1.47 0-1.108-.683-1.647-2.099-1.647h-3.344v3.117h3.467zm-4.344.825v-8.432h.877v3.666h3.412c1.504 0 1.858-.299 1.897-1.611.031-1.371.091-1.821.275-2l.055-.055h.904l-.143.269c-.138.264-.183.788-.199 2.149-.011.836-.47 1.443-1.193 1.711.943.424 1.332 1.281 1.332 1.982 0 1.563-.953 2.321-2.912 2.321h-4.305zm-6.719-1.166c.266-.582 1.571-3.426 1.764-3.852h-3.518c.196.424 1.491 3.27 1.754 3.852m-.392 1.166l-3.879-8.432h.953l1.199 2.605h4.246c.09-.201 1.186-2.605 1.186-2.605h.973l-3.879 8.432h-.799zm-11.514 0v-.825h3.264v-7.607h.867v7.607h3.266v.825h-7.397zm-8.941-5.663c0-.835.246-1.453.732-1.943.651-.652 1.809-.982 3.258-.982.812 0 3.594.179 3.594 2.488 0 2.031-1.852 2.221-3.489 2.383l-.002.004c-1.687.17-2.933.353-2.933 1.502 0 .568.289.984.892 1.257.622.288 1.293.329 1.989.329.531 0 1.509-.082 2.066-.635.254-.256.387-.664.387-1.067l.848-.009c0 .617-.198 1.24-.588 1.632-.711.711-1.907.86-2.787.86-1.206 0-2.393-.258-3.124-.99a1.878 1.878 0 01-.578-1.377c0-1.991 2.026-2.153 3.616-2.295.752-.067 1.461-.131 1.988-.362.556-.244.818-.65.818-1.271 0-.395-.133-.727-.392-.986-.618-.618-1.897-.682-2.36-.682-1.148 0-2.072.246-2.562.736-.354.354-.53.789-.535 1.41l-.838-.002zm-11.267.644c.195.424 1.492 3.27 1.754 3.848.264-.578 1.572-3.424 1.767-3.848H320.8zm2.164 5.016h-.803l-3.875-8.43h.951s1.106 2.406 1.198 2.603h4.248l1.183-2.603h.973l-3.875 8.43zm139.306-.016v-8.43h6.807v.825h-5.932v3.128h5.629v.813h-5.629v2.84h5.865v.824h-6.74zm18.27.04h1.238v-8.465h-.869v7.311h-.025l-3.731-7.311h-.808l-3.719 7.322h-.022v-7.322h-.869V65.1h1.27l3.771-7.361 3.764 7.361zm4.85-4.485h3.885c1.015 0 1.773-.344 1.773-1.568 0-1.162-.851-1.614-1.986-1.614h-3.672v3.182zm-.863-3.975h4.677c1.297 0 2.78.645 2.78 2.407 0 1.08-.668 1.896-1.774 2.062v.024c1 .238 1.444 1 1.444 1.82 0 1.199-.686 2.125-2.34 2.125h-4.787V56.64zm.863 7.647h3.76c.955 0 1.636-.336 1.636-1.371 0-1.127-.753-1.508-1.931-1.508h-3.465v2.879zm9.35.781v-8.43h6.807v.826h-5.936v3.129h5.631v.811h-5.631v2.84h5.865v.824h-6.736zm13.68-3.937h-3.348v3.113h3.467c1.336 0 1.981-.478 1.981-1.467 0-1.107-.69-1.646-2.1-1.646m3.055-4.221c-.139.264-.186.785-.201 2.147-.01.836-.471 1.443-1.194 1.711.944.422 1.332 1.281 1.332 1.982 0 1.563-.955 2.32-2.912 2.32h-4.305v-8.429h.877v3.664h3.414c1.502 0 1.856-.297 1.895-1.612.031-1.371.094-1.818.275-1.998l.055-.054h.904l-.14.269z"/></g></svg>