<svg xmlns="http://www.w3.org/2000/svg" version="1.1" id="layer" x="0" y="0" xml:space="preserve" width="600" height="164.8"><style type="text/css" id="style2">.st0{fill:#2d2f41}</style><g id="g22" transform="translate(-25.9 -244.4)"><path class="st0" d="M342.1 300.2h6l26.5 53.2h-8.7l-7.9-15.7h-25.2l-7.4 15.7h-8.7zm12.5 30.8l-9.6-19.2-8.8 19.2z" id="path4" fill="#2d2f41"/><path class="st0" id="rect6" fill="#2d2f41" d="M390.5 300.5h7v52.9h-7z"/><g id="g20"><path class="st0" d="M420.4 353.4v-52.9h14.8c6 0 10.7 1.3 14.2 4s5.3 6.3 5.3 10.8c0 3.1-.9 5.8-2.6 8-1.7 2.3-4.2 4-7.4 5.1 1.9 1.1 3.7 2.6 5.5 4.6 1.8 1.9 4.3 5.3 7.6 10 2.1 3 3.7 5.3 5 6.8l3.1 3.8h-10.1l-2.6-3.5-.5-.6-1.6-2.1-2.6-3.9-2.9-4.1c-1.8-2.1-3.3-3.9-4.8-5.2-1.4-1.3-2.8-2.2-3.9-2.7-1.2-.6-3.2-.9-5.9-.9h-2.2v23h-8.4zm11-46.5h-2.6v16.7h3.2c4.3 0 7.2-.3 8.8-1 1.6-.7 2.8-1.6 3.7-3 .9-1.3 1.3-2.8 1.3-4.6 0-1.6-.5-3.2-1.5-4.5-1-1.4-2.4-2.3-4.2-2.9-1.6-.4-4.6-.7-8.7-.7" id="path8" fill="#2d2f41"/><path class="st0" id="polygon10" fill="#2d2f41" d="M514.6 307.2h-25v16.1h24.2v6.9h-24.2v16.4h25.8v6.8h-34.3v-52.9h33.5z"/><path class="st0" d="M547.8 331.3l-6.5-3.5c-4-2.2-6.9-4.4-8.6-6.5-1.7-2.1-2.5-4.6-2.5-7.4 0-4.2 1.6-7.5 4.8-10.1 3.2-2.6 7.5-3.9 12.6-3.9 5 0 9.5 1.2 13.6 3.7v8.6c-4.2-3.7-8.8-5.5-13.8-5.5-2.7 0-5 .6-6.8 1.7-1.8 1.2-2.6 2.6-2.6 4.4 0 1.6.6 3.1 2 4.5 1.3 1.4 3.4 2.8 6.3 4.3l6.5 3.4c7.2 3.9 10.8 8.8 10.8 14.8 0 4.2-1.6 7.7-4.8 10.3-3.2 2.7-7.3 4-12.4 4-5.8 0-11.2-1.6-16-4.8v-9.6c4.6 5.2 9.9 7.8 15.9 7.8 2.7 0 4.9-.7 6.7-2 1.8-1.3 2.7-3 2.7-5-.1-3.3-2.7-6.4-7.9-9.2" id="path12" fill="#2d2f41"/><path class="st0" id="polygon14" fill="#2d2f41" d="M625.9 307.2h-20.6v46.2h-8.5v-46.2h-20.3v-6.8h49.4z"/><path d="M158.1 388.7c-4.1-3.2-8.3-6.7-12.5-10.5-2.9-2.6-5.8-5.4-8.8-8.3-18.9-18.8-32.6-37.3-33.2-38.1l-3.4-4.7 3.4-4.7c.6-.8 14.1-19.4 33-38.2 1-1 2-1.9 2.9-2.9l12.2 10.4c-12.9 12.4-24.4 25.9-31.7 35.3 8.5 10.9 22.6 27.2 38 40.9 4.1 3.6 8.3 7.1 12.5 10.2 12.1 8.9 24.4 15.1 34.9 15.1 36.6-.1 66.3-29.9 66.2-66.5-.1-36.6-29.9-66.3-66.5-66.2-8.8 0-18.8 4.4-29.6 11.6l-12.4-10.8c16-11.3 29.8-16.7 42-16.8 45.4-.1 82.4 36.8 82.5 82.2.1 45.4-36.7 82.4-82.1 82.5-13.8 0-29.7-6.9-47.4-20.5" id="path16" fill="#4393c9"/><path class="st0" d="M155.5 264.9c4.1 3.1 8.3 6.6 12.5 10.5 2.9 2.6 5.8 5.4 8.8 8.3 19 18.8 32.6 37.3 33.2 38.1l3.5 4.7-3.4 4.7c-.6.8-14.1 19.4-33 38.2-1.2 1.2-1.7 1.8-2.8 2.9L162 361.9c12.9-12.4 24.4-25.9 31.7-35.4-8.5-10.9-22.5-27.2-38-40.9-4.1-3.6-8.3-7.1-12.5-10.2-12.1-8.9-24.4-15.2-34.9-15.1-36.6.1-66.3 29.9-66.2 66.5.1 36.6 29.9 66.3 66.5 66.2 8.9 0 19-4.5 29.7-11.6l12.6 10.7C135 403.4 121 408.9 108.6 409c-45.6.2-82.6-36.7-82.7-82.1-.1-45.4 36.8-82.4 82.1-82.5 13.9 0 29.8 6.9 47.5 20.5" id="path18" fill="#2d2f41"/></g></g></svg>