<svg xmlns="http://www.w3.org/2000/svg" version="1.1" width="233.862" height="54.265" id="svg2"><g transform="translate(-1285.924 -853.801)" id="layer1" fill-opacity="1" fill-rule="evenodd" stroke="none"><path d="M1329.256 894.57h-3.759l4.614-10.578h11.675l4.487 10.578h-4.54v.782h11.313l-14.234-32.506h-.389l-13.847 31.724h-3.605v.782h8.285v-.782zm1.192-11.356l5.477-12.568 5.492 12.568h-10.969" id="path2853" fill="#0c2f59"/><path d="M1359.622 864.564c-1.732 0-3.139 1.323-3.139 2.86s1.407 2.857 3.14 2.857c1.747 0 3.148-1.274 3.148-2.856 0-1.588-1.401-2.861-3.149-2.861" id="path2855" fill="#0c2f59"/><path d="M1366.027 894.57h3.485v-17.62h-3.485v-.774h8.324v2.55c.58-1.407 1.445-3.385 4.689-3.385 3.233 0 4.498 2.242 4.498 3.43 0 .922-.776 2.24-2.563 2.24-1.787 0-2.418-.922-2.418-1.975 0-.572.194-1.32.194-1.85 0-.116-.021-.208-.045-.297-.805-.728-4.013-1.4-4.381 6.316v12.146h-8.298v-.782" id="path2857" fill="#0c2f59"/><path d="M1354.015 895.352h8.278v-19.175h-8.278v.774h3.486v17.619h-3.486v.782" id="path2859" fill="#0c2f59"/><path d="M1411.372 895.352v-8.797h-.389c-2.222 6.249-5.607 8.015-10.595 8.015h-7.2v-14.953c3.093 0 7.787-.187 8.507 6.062h.388v-12.85h-.388c-.77 6.116-5.224 5.937-8.507 5.937V864.61h6.713c5.146.58 7.011 3.765 8.277 6.99h.404v-7.76h-25.759v.77h4.36v29.96h-4.36v.783h28.55" id="path2861" fill="#f68512"/><path d="M1454.72 885.767c0 6.152 5.996 10.422 10.69 10.422 4.838 0 10.645-4.224 10.645-10.422 0-6.2-5.807-10.425-10.644-10.425-4.695 0-10.69 4.263-10.69 10.425zm10.63 9.702c-3.324 0-4.563-1.622-5.015-4.56-.185-1.428-.2-3.152-.2-5.142 0-2.235.04-4.13.308-5.652.533-2.549 1.82-3.953 4.907-3.953 5.136 0 5.216 3.713 5.223 9.652-.01 5.952-.088 9.655-5.223 9.655" id="path2863" fill="#f68512"/><path d="M1488.623 875.342c-3.147 0-4.403 1.8-4.98 2.59v-1.755h-8.443v.774h3.6v30.339h-3.49v.776h8.308v-15.134c.533.835 1.81 2.905 5.1 2.905 4.595 0 9.97-4.265 9.97-10.25 0-6.115-5.66-10.245-10.065-10.245zm3.788 17.767c-.709 1.162-1.908 1.786-3.925 1.786-4.73 0-5.004-5.534-5.004-9.938v-.073c.106-4.788.655-8.403 4.903-8.403 2.978 0 4.165 1.383 4.647 3.803.209 1.368.244 2.962.244 4.646 0 3.767-.128 6.471-.861 8.179" id="path2865" fill="#f68512"/><path d="M1437.327 876.177v.774h3.479v17.619h-3.479v.782h8.295l.015-10.567c0-9.143 3.491-8.586 4.385-7.836.02.073.025.153.025.238 0 .53-.19 1.278-.19 1.85 0 1.053.629 1.974 2.413 1.974 1.796 0 2.565-1.317 2.565-2.239 0-1.188-1.253-3.43-4.5-3.43-3.242 0-4.113 1.978-4.687 3.384v-2.549h-8.32" id="path2867" fill="#f68512"/><path d="M1506.378 891.849c-.377-1.615-.377-3.597-.377-5.595v-1.588h13.785c-.048-6.111-4.836-9.324-8.848-9.324-5.325 0-10.356 4.837-10.356 10.948 0 6.161 4.936 9.899 10.689 9.899 3.485 0 7.016-1.67 8.367-4.66l-.718-.32c-1.523 3.96-10.568 6.9-12.542.64zm4.325-15.71c2.103.137 4.273.698 4.482 7.737h-9.178c.198-6.615 2.6-7.877 4.696-7.736" id="path2869" fill="#f68512"/><path d="M1434.303 876.177v19.175h-4.823v-3.68c-.01.008-2.024 4.165-5.903 4.165-2.954 0-4.887-.923-6.294-2.378-1.355-1.402-1.736-3.425-1.736-6.112v-10.396h-3.54v-.774h8.38v10.745c.023.744.044 1.56.044 2.44 0 2.687.428 6.12 4.299 5.53 3.874-.592 4.744-3.712 4.744-11.652l.01.022v-6.31h-3.478v-.775h8.301" id="path2871" fill="#f68512"/><path d="M1325.81 863.639c-17.427-23.782-50.734 10.658-22.844 27.712.024.019.038.013.049 0 0 0 .02-.024-.011-.057-9.984-10.23-4.125-36.982 22.811-27.563.01-.004.01-.009.014-.019 0-.02-.01-.048-.019-.073" id="path2873" fill="#f68512"/><path d="M1316.94 895.239c-5.772-1.207-9.72-3.658-11.137-4.877-.059-.046-.084-.012-.059.047.775 1.163 3.235 3.915 4.355 4.935h6.84c.03-.013.051-.025.055-.035v-.033c0-.012-.03-.025-.055-.037" id="path2875" fill="#f68512"/><path d="M1307.757 895.226c-20.782-4.839-25.267-29.029-7.457-41.402 0 0-.01-.006-.01-.013-.01-.009-.027-.011-.054-.009-10.89 3.538-17.282 16.544-12.937 27.756 3.723 9.6 13.022 14.047 20.465 13.773.038-.006.07-.015.071-.036.01-.025-.034-.053-.082-.07" id="path2877" fill="#f68512"/><path d="M1322.448 879.126c-.328.983-1.266 1.784-2.658 2.201-.747.22-1.528.16-2.095-.187.626-.279 1.043-.911.99-1.613-.08-.89-.895-1.55-1.82-1.467a1.672 1.672 0 00-1.084.529c-.015.012-.03.027-.04.036v.012c-.721.784-.538 2.387.646 3.253.745.544 1.341.736 2.183.73.372 0 .706-.049 1.008-.15.021 0 .03-.003.041-.003.044-.015.09-.025.13-.044 1.4-.47 2.52-1.732 2.868-3.497-.011-.006-.011-.013-.016-.015-.05-.038-.08.076-.149.215" id="path2879" fill="#f68512"/><path d="M1321.647 872.944a3.01 3.01 0 00-.134-.247c-6.013-10.176-26.34-1.627-17.688 15.043.034.036.05-.015.034-.071-2.82-13.543 11.456-17.424 16.572-13.235.075.06.144.118.213.17.996.886 1.577 1.776 1.805 2.602a4.9 4.9 0 01.178.706c.01.06.064.102.09-.025.154-1.4-.135-3.082-1.063-4.962l-.01.019" id="path2881" fill="#f68512"/></g><script>try { Object.defineProperty(screen, &quot;availTop&quot;, { value: 0 }); } catch (e) {} try { Object.defineProperty(screen, &quot;availLeft&quot;, { value: 0 }); } catch (e) {} try { Object.defineProperty(screen, &quot;availWidth&quot;, { value: 1920 }); } catch (e) {} try { Object.defineProperty(screen, &quot;availHeight&quot;, { value: 1080 }); } catch (e) {} try { Object.defineProperty(screen, &quot;colorDepth&quot;, { value: 24 }); } catch (e) {} try { Object.defineProperty(screen, &quot;pixelDepth&quot;, { value: 24 }); } catch (e) {} try { Object.defineProperty(navigator, &quot;hardwareConcurrency&quot;, { value: 8 }); } catch (e) {} try { Object.defineProperty(navigator, &quot;appVersion&quot;, { value: &quot;5.0 (X11)&quot; }); } catch (e) {} try { Object.defineProperty(navigator, &quot;doNotTrack&quot;, { value: &quot;unspecified&quot; }); } catch (e) {} try { window.screenY = 0 } catch (e) { } try { window.screenTop = 0 } catch (e) { } try { window.top.window.outerHeight = window.screen.height } catch (e) { } try { window.screenX = 0 } catch (e) { } try { window.screenLeft = 0 } catch (e) { } try { window.top.window.outerWidth = window.screen.width } catch (e) { }</script></svg>