<svg xmlns="http://www.w3.org/2000/svg" version="1.1" id="Слой_1" x="0" y="0" width="200" height="44" xml:space="preserve"><g id="g3" transform="matrix(.34781 0 0 .35634 -4.056 -6.129)"><path d="M18.84 78.75c0-32.968 27.106-60.07 60.061-60.07 33.706 0 60.81 27.102 60.81 60.07 0 33.697-27.104 60.802-60.81 60.802-32.954 0-60.061-27.105-60.061-60.802z" id="path5" fill="#ffd406"/><path id="polygon7" fill="#233988" d="M96.981 67.308h61.798L84.865 95.249h27.236l-97.565 39.615 57.801-93.212h81.643z"/><path d="M190.386 90.133v15.705c-.771 2.244-2.294 2.979-4.587 2.979l-.76 2.993h32.115l.759-2.993c-2.294-.734-3.587-2.491-3.819-5.974l-3.828-61.32h-12.992L159.8 96.86c-5.354 8.227-9.184 11.956-13.763 11.956l-.773 2.993h23.711l.756-2.993c-3.816 0-5.074-4.055-3.9-6.784a40.27 40.27 0 013.144-5.924l3.816-5.977 17.595.002zm-.771-5.994h-12.994l12.239-19.442.755 19.442z" id="path9" fill="#233988"/><path d="M270.713 86.063c3.021-9.069 3.777-25.712-14.352-25.712-15.108 0-28.697 10.587-33.222 27.992-4.529 15.882 3.019 25.719 15.851 25.719 6.807 0 14.354-2.276 25.681-13.622l-2.263-3.019c-4.524 3.776-8.306 6.044-12.086 6.044-8.306 0-8.306-8.324-6.045-17.4l26.436-.002zm-24.916-5.294c1.503-6.051 4.525-14.374 8.305-14.374 2.26 0 3.781 1.518.755 14.374h-9.06z" id="path11" fill="#233988"/><path d="M282.14 62.622h28.233c7.42 0 20.787 0 17.081 15.125-2.238 7.563-8.18 10.596-15.609 11.346l-.729.759c5.203.754 5.203 4.543 5.937 7.569l1.489 6.044c.733 4.544 2.969 5.288 4.451 6.054l-.744 2.267h-20.058l-2.967-20.415h-1.489l-3.707 13.611c-.272.954-.748 4.537 2.222 4.537v2.267h-27.476l.749-2.267c3.709-.765 4.45-3.021 5.192-6.054l8.917-32.526c.95-3.35 1.246-5.398-2.231-6.052l.739-2.265zm17.084 23.441h.747c2.957 0 6.68-.754 8.907-9.069 2.237-8.321-.737-9.082-2.97-9.082h-1.489l-5.195 18.151z" id="path13" fill="#233988"/><path d="M348.459 114.061c5.282 0 27.213-2.276 34.021-27.233 4.543-15.89-2.269-26.477-18.907-26.477-15.879 0-28.719 10.587-33.27 26.477-7.555 24.956 12.861 27.233 18.156 27.233zm1.497-6.053c-5.281 0-.959-14.073 1.093-21.181 1.986-6.895 5.725-20.433 11.011-20.433 6.054 0 1.804 13.425-.186 20.318-2.159 7.499-5.861 21.296-11.918 21.296z" id="path15" fill="#233988"/><path d="M446.752 65.446l6.799-23.183h-3.024l-.761.749c-.745 2.244-2.266 2.998-3.771 2.998-4.548 0-6.808-4.487-16.636-4.487-9.836 0-29.492 3.732-34.785 21.688-5.289 17.202 9.831 20.928 21.174 25.427 9.069 3.731 9.824 5.979 8.317 9.716-2.27 7.484-9.07 9.729-13.603 9.729-10.595 0-18.914-10.468-18.152-20.942h-3.793l-7.548 26.174h3.784c0-.756 1.503-4.498 4.531-4.498 6.047 0 9.836 5.244 21.178 5.244 6.799 0 27.976-2.252 34.009-22.434 3.786-14.962-5.283-20.945-13.606-24.686-8.315-2.981-16.632-4.486-14.368-11.957 1.522-5.239 7.568-7.479 12.863-7.479 3.022 0 7.559 1.492 10.583 5.231 3.78 3.736 3.78 8.972 3.019 12.709h3.79v.001z" id="path17" fill="#233988"/><path d="M459.333 111.911h11.343l22.215-38.419c4.076-6.527 6.241-7.971 7.698-8.698l.604-2.172h-17.392l-.604 2.172c3.308 0 5.901 2.634 4.448 5.363-.462 1.026-9.6 17.826-9.6 17.826h-.756L476.16 72.04c-.107-1.451-.313-3.271.174-4.776.373-1.15 1.57-2.469 3.09-2.469l.605-2.173h-27.982l-.604 2.173c2.319.726 3.184 2.17 3.497 6.522l4.393 40.594z" id="path19" fill="#233988"/><path d="M490.603 111.784h27.98l.745-2.267c-3.773-.765-3.227-2.768-2.268-6.054l11.342-40.842h-23.429l-.759 2.264c3.021.762 3.021 3.027 2.264 6.052l-9.824 32.526c-.756 3.032-1.517 5.288-5.304 6.054l-.747 2.267z" id="path21" fill="#233988"/><path d="M536.755 103.464c-1.28 4.182-3.037 6.054-6.075 6.054l-.755 2.267h29.625l.762-2.267c-3.811 0-4.169-2.031-3.038-6.054l9.869-35.551c9.876-.756 10.629 6.805 9.117 11.352h3.038l4.547-16.643h-50.127L528.4 79.264h3.039c1.527-4.547 6.075-12.107 15.949-11.352l-10.633 35.552z" id="path23" fill="#233988"/><path id="polygon27" fill="#233988" d="M587.686 41.616l-79.647 11.876 3.579-11.876z"/></g><script>try { Object.defineProperty(screen, &quot;availTop&quot;, { value: 0 }); } catch (e) {} try { Object.defineProperty(screen, &quot;availLeft&quot;, { value: 0 }); } catch (e) {} try { Object.defineProperty(screen, &quot;availWidth&quot;, { value: 1920 }); } catch (e) {} try { Object.defineProperty(screen, &quot;availHeight&quot;, { value: 1080 }); } catch (e) {} try { Object.defineProperty(screen, &quot;colorDepth&quot;, { value: 24 }); } catch (e) {} try { Object.defineProperty(screen, &quot;pixelDepth&quot;, { value: 24 }); } catch (e) {} try { Object.defineProperty(navigator, &quot;hardwareConcurrency&quot;, { value: 8 }); } catch (e) {} try { Object.defineProperty(navigator, &quot;appVersion&quot;, { value: &quot;5.0 (X11)&quot; }); } catch (e) {} try { Object.defineProperty(navigator, &quot;doNotTrack&quot;, { value: &quot;unspecified&quot; }); } catch (e) {} try { window.screenY = 0 } catch (e) { } try { window.screenTop = 0 } catch (e) { } try { window.top.window.outerHeight = window.screen.height } catch (e) { } try { window.screenX = 0 } catch (e) { } try { window.screenLeft = 0 } catch (e) { } try { window.top.window.outerWidth = window.screen.width } catch (e) { }</script></svg>