<svg xmlns="http://www.w3.org/2000/svg" width="590" height="57"><path fill="#197EF2" d="M371.11 38.524c-.627-.62-1.173-1.108-1.832-1.581-.402.384-.852.872-1.27 1.404.643.487 1.221.961 1.88 1.537.451-.384.772-.769 1.222-1.36zm3.102-.192c-.627-.62-1.173-1.107-1.832-1.581-.402.385-.852.872-1.27 1.404.643.487 1.221.96 1.88 1.537.45-.383.772-.768 1.222-1.36zm15.331 6.387c0-1.553-1.655-3.43-4.13-5.277l.385-.739-2.619-.931v-.089a77.543 77.543 0 015.287-1.937 33.646 33.646 0 012.587-.725c.435-.605.852-1.212 1.206-1.817l-.113-.118c-3.696 1.108-6.766 2.084-8.646 2.955-.724.34-1.028.636-1.205.902-.209.325-.37.694-.37.99 0 .502.113 1.034.579 1.359 2.635 1.878 4.13 3.297 4.837 4.184.611.768 1.109 1.552 1.109 2.217 0 .178-.305.473-.884.798-1.093.621-2.636.769-4.291.769h-1.302c-.852 0-1.414-.162-1.928-.562-.37-.28-.563-.636-.563-1.196 0-.37.161-1.109.386-1.76l-.096-.104-1.093.725-.707 2.068c-.659.267-1.398.474-2.138.637-1.784.384-3.6.664-5.48.664-2.009 0-3.792-.221-5.11-.945-1.27-.709-2.122-1.893-2.122-3.267 0-.65.161-1.404.466-2.247l-.643-.251a6.95 6.95 0 00-.948 3.577c0 1.803.932 3.163 2.362 4.006 1.414.827 3.311 1.138 5.513 1.138 1.993 0 4.371-.429 6.235-.931 1.157-.311 1.977-.65 2.507-.946.611 1.005 1.704 1.286 3.278 1.286h1.013c2.989 0 4.596-.547 5.609-1.375.628-.591 1.029-1.685 1.029-3.058zm18.048-3.106c.45-.384.771-.768 1.222-1.359-.627-.621-1.173-1.108-1.832-1.582-.401.385-.853.873-1.271 1.405.644.487 1.223.96 1.881 1.536zm-1.012-4.315c-.627-.621-1.174-1.108-1.832-1.581-.402.384-.852.872-1.27 1.404.643.487 1.221.961 1.88 1.537.451-.385.771-.769 1.222-1.36zm-.869 3.148c-.626-.621-1.172-1.108-1.831-1.582-.401.384-.853.872-1.27 1.405.643.487 1.222.96 1.88 1.536.45-.383.772-.768 1.221-1.359zm4.292 2.335c-.515.399-.997.843-1.446 1.33.209.872.401 1.818.401 2.395 0 .443-.401.666-.852.666-.771 0-1.671-.577-1.671-1.7 0-.414.08-.976.208-1.448l-.097-.06-.964.518c-.498 1.537-.578 1.966-1.141 2.35a2.723 2.723 0 01-1.431.429c-1.076 0-2.041-.945-2.041-1.951 0-.295.016-.59.096-.887l-.031-.104a38.18 38.18 0 00-5.994 1.744c-.226.65-.386 1.257-.482 1.789.627.635 1.173 1.286 1.173 1.773 0 .709-.562 1.434-1.591 2.409-1.27.99-2.619 1.641-4.146 1.641a5 5 0 01-1.961-.384l-.241.413c1.462.946 2.764 1.435 3.889 1.435 1.045 0 2.17-.474 3.552-1.804.819-.917 1.189-1.759 1.237-2.808.033-.621.064-1.242.064-1.863 0-.34-.064-.724-.193-1.094 1.014-.458 2.154-.783 3.729-1.241-.016 1.7 1.094 2.823 2.652 2.823 1.157 0 1.961-.68 2.539-1.271h.129c.578.754 1.317 1.227 2.009 1.227.932 0 1.768-.694 2.378-1.626.289-.517.579-1.359.579-2.024 0-.621-.064-1.523-.257-2.631l-.096-.046zm24.652 6.371c2.459 0 3.6-.222 4.323-.887.643-.784 1.125-1.641 1.125-2.75 0-1.463-.868-3.311-1.607-4.508h-.08a11.792 11.792 0 00-1.206 1.67c.836 1.508 1.607 2.956 1.607 3.651 0 .251-.354.458-.916.65-.707.236-1.8.28-3.166.28h-5.945l-1.109 1.686.096.207c2.556 0 4.308.636 4.678 1.345-.129.295-.724.65-1.447 1.02-1.943.872-3.647 1.271-5.127 1.271-1.51 0-2.908-.458-3.888-1.39-.836-.798-1.286-1.966-1.286-3.222 0-.991.306-2.202.979-3.71l-.609-.252c-.9 1.404-1.512 3.4-1.512 4.878 0 1.671.402 3.104 1.398 4.124.932.946 2.362 1.597 4.419 1.597 2.363 0 5.416-1.035 7.49-2.749.209-.311.723-1.361.723-1.848 0-.297-.016-.65-.064-1.064h1.124zm2.877 4.168c.643.487 1.221.961 1.88 1.537.45-.385.771-.769 1.222-1.359-.627-.621-1.174-1.109-1.832-1.582-.403.385-.852.872-1.27 1.404zm-3.101.192c.643.488 1.221.961 1.88 1.537.45-.384.771-.768 1.222-1.359-.627-.621-1.174-1.108-1.832-1.581-.403.383-.852.871-1.27 1.403zm10.06-19.274a14.187 14.187 0 00-1.576 1.566c.258 2.558.579 6.489.579 9.193v1.449c0 .976-.017 2.025-.177 2.956l.209.104c.932-.946 1.366-1.566 1.414-2.38.08-.65.112-1.537.112-2.438 0-3.444-.08-7.184-.417-10.405l-.144-.045zm23.592 8.972c-1.865-1.3-4.131-2.571-5.657-3.946h-.128a8.388 8.388 0 00-.29 1.479c-.627.325-1.125.812-1.575 1.374-.707.901-1.012 1.789-1.012 2.69 0 .695.096 1.404.354 2.024-.997.354-2.074.429-2.861.429h-1.719c-.45-3.029-1.977-4.937-3.455-4.937-1.014 0-1.865.606-2.476 1.419a3.79 3.79 0 00-.819 2.38c0 2.069 1.671 3.03 4.949 3.03h.788c-.209.754-.739 1.345-1.511 2.069-1.383 1.3-2.845 2.039-4.468 2.039-.964 0-1.735-.222-2.362-.532l-.273.488c1.543.872 3.166 1.493 4.629 1.493.852 0 2.635-.799 3.873-2.528.675-.931 1.141-2.099 1.221-3.029h1.703c1.238 0 2.62-.325 4.404-1.006 2.105.621 4.146 1.006 5.48 1.006 2.201 0 3.197-1.301 3.197-2.765 0-1.315-.594-2.201-1.992-3.177zm-16.875 3.828c-.996-.266-1.752-.709-1.752-1.463 0-.592.916-1.301 1.816-1.301.595 0 1.189.296 1.703.828.547.547.949 1.329 1.125 2.157-1.043.001-2.007.001-2.892-.221zm10.783-.591c-1.173-.547-1.768-1.242-1.768-1.715 0-.769 1.447-2.336 2.652-2.336.691 0 1.655 1.109 1.655 2.351.001.814-1.751 1.448-2.539 1.7zm5.368 1.049c-1.173 0-2.121-.147-2.989-.414.707-1.137 1.109-2.261 1.238-3.443 2.024 1.183 3.455 2.232 3.455 3.192 0 .385-.803.665-1.704.665zm19.124-10.095a14.318 14.318 0 00-1.928-1.581c-.434.457-.868.976-1.303 1.507.644.503 1.27.976 1.896 1.522a6.064 6.064 0 001.335-1.448zm2.331 3.222c-.466.621-.853 1.242-1.237 1.863.514.768.964 1.744 1.35 2.911.241.739.498 1.597.498 2.616 0 .281-.402.725-1.109 1.228-1.012.724-2.604 1.286-3.889 1.286-1.205 0-2.347-.4-3.037-.99-.627-.533-1.077-1.316-1.077-2.572 0-.681.354-1.818.899-2.764l-.61-.311c-.739 1.123-1.382 2.424-1.382 4.301 0 2.631 1.912 4.479 4.934 4.479 1.896 0 3.97-.902 5.352-2.246.643-.621 1.141-2.292 1.141-3.77 0-2.247-.609-4.124-1.719-6.061l-.114.03zm16.441-2.911a14.188 14.188 0 00-1.929-1.581c-.435.458-.868.975-1.302 1.507.643.503 1.27.976 1.896 1.522a6.104 6.104 0 001.335-1.448zm9.851-1.922a14.208 14.208 0 00-1.93-1.581 27.35 27.35 0 00-1.301 1.508c.643.502 1.27.975 1.896 1.521a6.085 6.085 0 001.335-1.448zm-1.238 3.119c-.723 0-1.43.384-2.072.989-.771.74-1.206 1.818-1.206 2.912 0 .399.097.754.241 1.064.562 1.139 1.992 1.597 3.857 1.597.578 0 1.237 0 1.815-.06.032.104.032.222.032.326 0 .384-.867.945-1.896 1.227-.916.251-2.121.295-3.504.295h-1.992c-1.365 0-2.588-.28-3.664-.812v-.06l2.797-2.38.562-1.611c-1.189-.457-2.797-.738-4.661-.738-1.575 0-3.054.236-4.308.488l-.498.059-.626 1.7.048.028h.498c.273 0 .707.281 1.109.622.755.636 1.511 1.448 2.25 1.906v.06c-1.704.694-2.829.738-4.211.738h-.9a3.49 3.49 0 01-1.027-.162c-.627-.207-1.206-.636-1.206-1.582v-.843c0-3.636 0-7.464-.257-10.7l-.113-.06c-.465.34-.964.827-1.51 1.374.24 3.134.418 6.076.418 8.884 0 2.173.016 3.222.996 4.139.658.606 1.479.843 2.748.843h.675c1.929 0 3.648-.414 5.625-1.729h.063c1.56 1.108 3.553 1.729 5.352 1.729h1.785c2.859 0 4.725-.399 5.736-1.463.547-.592.787-1.391.787-2.336 0-1.42-.272-2.543-.674-3.518-.722-1.788-1.766-2.926-3.069-2.926zm-2.281 3.251c0-.561.867-1.314 1.928-1.314 1.303 0 2.411 1.463 2.732 2.867-2.539.015-4.66-.356-4.66-1.553zm-7.377 3.652a18.281 18.281 0 01-1.993-1.464c-.337-.295-.659-.605-.948-.842v-.06a17.506 17.506 0 012.974-.266c1.125 0 2.105.177 2.989.369v.06c-1.029.901-2.009 1.582-2.957 2.202h-.065zm17.742-11.574a14.095 14.095 0 00-1.575 1.566c.257 2.558.579 6.489.579 9.193v1.449c0 .976-.016 2.025-.178 2.956l.209.104c.933-.946 1.367-1.566 1.415-2.38.08-.65.112-1.537.112-2.438 0-3.444-.08-7.184-.418-10.405l-.144-.045zm18.305 6.77a11.711 11.711 0 00-1.205 1.67c.835 1.508 1.606 2.956 1.606 3.651 0 .251-.353.458-.915.65-.708.236-1.801.28-3.167.28h-.498c-.209 0-.627-.029-1.028-.162-.627-.207-1.205-.636-1.205-1.582v-.843c0-3.636 0-7.464-.258-10.7l-.112-.06c-.466.34-.964.827-1.511 1.374.241 3.134.418 6.076.418 8.884 0 2.173.017 3.222.997 4.139.658.606 1.478.843 2.748.843h.369c2.459 0 3.6-.222 4.323-.887.643-.784 1.125-1.641 1.125-2.75 0-1.463-.868-3.311-1.607-4.508h-.08zm.482-3.163a14.188 14.188 0 00-1.929-1.581c-.434.458-.868.975-1.302 1.508.643.502 1.27.975 1.896 1.521a6.123 6.123 0 001.335-1.448zm8.244 15.667c.643.488 1.222.961 1.88 1.537.45-.384.771-.768 1.222-1.359-.627-.621-1.173-1.108-1.832-1.581-.401.383-.852.871-1.27 1.403zm3.102-.192c.643.487 1.222.961 1.88 1.537.45-.385.771-.769 1.222-1.359-.627-.621-1.173-1.109-1.832-1.582-.402.385-.852.872-1.27 1.404zm1.446-5.054c.643-.784 1.125-1.641 1.125-2.75 0-1.463-.868-3.311-1.607-4.508h-.08a11.711 11.711 0 00-1.205 1.67c.836 1.508 1.607 2.956 1.607 3.651 0 .251-.354.458-.917.65-.707.236-1.8.28-3.166.28h-.498c-.209 0-.627-.029-1.028-.162-.627-.207-1.205-.636-1.205-1.582v-.843c0-3.636 0-7.464-.257-10.7l-.113-.06c-.466.34-.964.827-1.511 1.374.241 3.134.418 6.076.418 8.884 0 2.173.017 3.222.997 4.139.658.606 1.479.843 2.748.843h.369c2.459 0 3.601-.221 4.323-.886zm9.45-6.741l-.097-.016a37.808 37.808 0 00-1.142 1.848c.707.99 1.351 2.07 1.929 3.252.097.252.226.532.226.783 0 .163-.049.399-.178.65-1.061 2.188-3.374 3.977-5.641 3.991a6.074 6.074 0 01-1.783-.267l-.177.503c1.574.739 2.94 1.138 4.13 1.138.804 0 1.671-.398 2.651-1.344 1.254-1.391 2.025-2.795 2.025-4.109v-1.626c0-1.271-.386-2.069-.804-2.809l-1.139-1.994zm8.694-9.918a3.788 3.788 0 01-1.317.207c-1.222 0-2.378-.443-3.487-.443-1.141 0-1.463.945-1.463 1.641l.547.901h.112c.354-.606.644-1.138.9-1.138.804 0 1.96.251 2.973.251.9 0 1.64-.236 2.25-.71.161-.266.306-.694.466-1.107l-.08-.074c-.29.207-.611.369-.901.472zm-2.121 2.631a14.004 14.004 0 00-1.574 1.566c.257 2.558.578 6.489.578 9.193v1.449c0 .976-.017 2.025-.177 2.956l.209.104c.933-.946 1.366-1.566 1.414-2.38.08-.65.112-1.537.112-2.438 0-3.444-.08-7.184-.418-10.405l-.144-.045zm17.854 7.627c-1.076-1.227-2.539-2.32-3.841-3.06l-.128.015c-.37.547-.82 1.315-.82 1.686 0 .177.129.369.515.547 1.141.531 2.362 1.33 3.278 2.231.948.96 1.511 2.01 1.511 2.808 0 .119-.112.252-.321.355-1.173.605-2.233.96-3.487.96-2.009 0-2.588-1.005-2.636-2.275h-.627c-.08.474-.08.843-.08 1.079 0 2.188 1.254 3.119 3.085 3.119 1.512 0 3.038-.592 4.469-1.375.417-.799.675-1.671.675-2.587-.001-1.241-.612-2.38-1.593-3.503zM44.716 13.83L6.514 0l70.912 1.899-6.177 9.419-26.533 2.512zm59.756-4.731L0 19.95l31.554 6.718L9.387 47.871l95.085-38.772zM52.318 31.96L32.436 57l54.693-29.586-11.196-5.293-23.615 9.839zm536.681-13.207c0 3.185-5.258 4.344-9.531 4.344-4.371 0-6.54-1.146-6.54-1.146a.828.828 0 00-1.035.249l-.224.316c-.224.319-.408.261-.408-.13v-3.748c0-.39.281-.557.622-.369 0 0 3.299 1.801 7.619 1.801 2.358 0 3.548-.413 3.535-1.241-.015-1.043-1.378-1.087-5.25-1.439-4.51-.411-6.498-1.748-6.498-3.972 0-2.921 4.358-4.447 9.01-4.362 4.989.092 7.671 1.348 7.671 1.348.354.165.642.62.642 1.009v2.121c0 .389-.29.577-.646.417 0 0-3.577-1.615-6.709-1.869-1.956-.158-4.11.135-4.11 1.222 0 1.088 3.023 1.159 5.163 1.279 6.178.344 6.689 2.905 6.689 4.17zM549.78 9.171c-.378 0-.43.172-.115.381l2.019 1.347c.312.209.569.689.569 1.066v8.241c0 .377-.257.857-.571 1.066l-2.017 1.345c-.314.209-.263.381.115.381l18.58.001a.688.688 0 00.685-.686v-4.806c0-.377-.171-.429-.38-.114l-1.338 2.009c-.211.314-.691.571-1.067.571h-7.636a.689.689 0 01-.687-.686v-.773c0-.377.309-.686.687-.686h4.128c.376 0 .854.254 1.062.565.207.311.376.256.376-.121v-3.705c0-.377-.169-.433-.376-.122-.207.31-.686.563-1.062.563h-4.128a.689.689 0 01-.687-.686v-1.646c0-.377.309-.686.687-.686h7.621c.376 0 .856.257 1.066.57l1.354 2.031c.209.314.38.262.38-.115V9.857a.69.69 0 00-.685-.687h-18.58zm-8.353 0a.685.685 0 00-.684.682v7.302c0 .375-.207.456-.46.179l-7.006-7.66c-.254-.277-.77-.503-1.144-.503h-6.122a.684.684 0 00-.683.682V22.32c0 .375.307.682.683.682h5.914c.374 0 .428-.172.117-.381l-1.987-1.342c-.311-.21-.565-.689-.565-1.064V14.98c0-.375.208-.456.46-.179l7.037 7.698c.254.277.768.503 1.144.503h6.09a.684.684 0 00.682-.682V11.97c0-.375.255-.854.566-1.064l2.003-1.353c.312-.21.257-.381-.117-.381h-5.928zm-18.667.381c.312-.209.26-.381-.116-.381h-7.486a.69.69 0 00-.687.687v12.456c0 .377.309.686.687.686h7.486c.376 0 .429-.171.116-.38l-2.031-1.354c-.315-.209-.572-.689-.572-1.066v-8.226c0-.377.257-.857.572-1.067l2.031-1.355zm-22.657 10.422a.69.69 0 01-.688-.686v-7.315c0-.377.257-.857.572-1.067l2.031-1.354c.312-.209.261-.381-.116-.381h-7.484a.69.69 0 00-.687.687v12.456c0 .377.309.686.687.686h17.328a.69.69 0 00.686-.686v-4.806c0-.377-.172-.429-.38-.114l-1.339 2.009c-.21.314-.69.571-1.066.571h-9.544zm-16.344-6.348c0-.778-.767-1.411-1.713-1.411l-5.604.001a.69.69 0 00-.687.687v1.421c0 .377.309.686.687.686h5.772c.802-.001 1.545-.702 1.545-1.384zm-7.318 4.213a.69.69 0 00-.687.688v1.677c0 .377.257.857.571 1.066l2.024 1.349c.312.209.26.38-.116.38h-7.477a.69.69 0 01-.688-.686V9.856a.69.69 0 01.688-.686l13.498-.001c2.729 0 4.943 1.824 4.943 4.075 0 1.723-1.298 3.195-3.132 3.792 2.469 0 2.526 3.119 3.955 4.835.23.279.824.585 1.102.67.38.118.404.456.237.457h-6.074c-2.334 0-2.413-5.159-4.779-5.159h-4.065zm-8.611-8.287c.313-.209.261-.381-.115-.381h-7.486a.69.69 0 00-.687.687v12.456c0 .377.309.686.687.686h7.486c.376 0 .429-.171.115-.38l-2.032-1.355c-.315-.21-.572-.69-.572-1.067v-8.222c0-.377.257-.857.572-1.067l2.032-1.357zm-10.359 13.067c.315.209.263.38-.113.38h-8.047c-.378 0-.847-.263-1.045-.585l-1.576-2.588c-.196-.322-.667-.586-1.043-.586h-6.172c-.378 0-.848.264-1.043.587l-.287.471a.722.722 0 00.215.967l2.031 1.354c.312.209.261.38-.115.38h-6.908c-.378 0-.524-.263-.329-.586l7.71-12.656c.197-.322.666-.586 1.044-.586h5.255c.376 0 .847.264 1.042.586l6.422 10.541c.197.323.614.758.929.967l2.03 1.354zm-13.543-6.199c.376 0 .525-.264.328-.586l-1.339-2.199c-.195-.321-.518-.321-.715 0l-1.339 2.199c-.195.322-.049.586.33.586h2.735zm-37.839-7.249a.684.684 0 00-.683.682v7.302c0 .375-.207.456-.46.179l-7.007-7.66c-.253-.277-.769-.503-1.143-.503h-6.12a.685.685 0 00-.684.682V22.32c0 .375.308.682.684.682h5.913c.374 0 .429-.171.117-.381l-1.988-1.342c-.311-.21-.565-.689-.565-1.064V14.98c0-.375.208-.456.461-.179l7.038 7.698c.253.277.768.503 1.144.503h6.09a.685.685 0 00.682-.682V11.97c0-.375.255-.854.565-1.064l2.002-1.353c.311-.21.257-.381-.117-.381h-5.929zm-18.823 13.448c.314.209.263.38-.113.38h-8.045c-.378 0-.848-.263-1.045-.585l-1.577-2.588c-.195-.322-.666-.586-1.042-.586h-6.173c-.378 0-.847.264-1.042.587l-.287.471a.722.722 0 00.214.967l2.031 1.354c.313.209.261.38-.115.38h-6.909c-.378 0-.525-.263-.329-.586l7.71-12.656c.197-.322.666-.586 1.044-.586h5.254c.377 0 .848.264 1.043.586l6.422 10.541c.197.323.614.758.929.967l2.03 1.354zm-13.541-6.199c.376 0 .525-.264.327-.586l-1.338-2.199c-.196-.321-.518-.321-.716 0l-1.338 2.199c-.195.322-.049.586.329.586h2.736zm-13.21-6.868c.312-.209.261-.381-.115-.381h-7.483a.69.69 0 00-.687.687v4.467a.69.69 0 01-.686.686h-6.788a.69.69 0 01-.688-.686v-2.352c0-.377.257-.857.572-1.067l2.031-1.354c.314-.209.263-.381-.114-.381h-7.486a.69.69 0 00-.687.687v12.456c0 .377.309.686.687.686h7.486c.377 0 .429-.171.114-.38l-2.031-1.354c-.315-.209-.572-.689-.572-1.066v-1.684a.69.69 0 01.688-.686h6.788a.69.69 0 01.686.686v3.799c0 .377.309.686.687.686h7.483c.376 0 .428-.171.113-.38l-2.027-1.353c-.314-.209-.572-.689-.572-1.066v-8.228c0-.377.258-.857.572-1.067l2.029-1.355zm-33.281-.496c-6.986 0-9.743 1.412-10.439 3.676-.233.753-.341 1.871-.341 3.346 0 1.407.099 2.517.357 3.305.84 2.564 4.619 3.715 10.32 3.715 5.018 0 7.118-1.788 7.118-1.788a.598.598 0 01.903.126l.663.994c.208.313.38.262.38-.115v-5.664a.69.69 0 00-.686-.686h-6.811c-.378 0-.427.166-.108.368 0 0 1.387.885 1.949 1.395.437.397-.16 1.43-.841 1.832-.545.32-1.447.512-2.567.512-1.447 0-4.458-.095-4.798-1.59-.103-.446-.196-1.241-.196-2.403 0-1.164.078-1.959.196-2.396.326-1.227 2.71-1.614 4.379-1.614 5.437 0 8.946 2.744 8.946 2.744.299.232.54.114.54-.263v-1.603l-.002-2.577c-.001-.377-.204-.454-.454-.17l-.203.23a.8.8 0 01-1.02.132c.001-.002-2.221-1.506-7.285-1.506zm-30.959.115a.69.69 0 00-.687.687v12.456c0 .377.309.686.687.686h7.485c.378 0 .43-.171.115-.38l-2.031-1.354c-.314-.209-.571-.689-.571-1.066v-1.684c0-.377.309-.686.687-.686h6.033c.377 0 .855.254 1.062.565.207.311.376.256.376-.121v-3.705c0-.377-.169-.433-.376-.122-.207.31-.685.563-1.062.563h-6.033a.689.689 0 01-.687-.686v-1.646c0-.377.309-.686.687-.686h9.528c.377 0 .857.257 1.068.57l1.353 2.031c.209.314.381.262.381-.115V9.857a.69.69 0 00-.686-.687h-17.329zm-3.031 13.448c.313.209.261.38-.116.38h-8.045c-.377 0-.847-.263-1.042-.586l-1.577-2.586c-.197-.323-.667-.587-1.044-.587h-6.17c-.378 0-.847.264-1.044.587l-.287.471a.724.724 0 00.214.967l2.031 1.354c.315.209.263.38-.115.38h-6.908c-.377 0-.525-.263-.33-.586l7.712-12.656c.196-.322.666-.586 1.043-.586h5.254c.377 0 .847.264 1.043.586l6.423 10.541c.195.323.613.758.927.967l2.031 1.354zm-13.543-6.199c.378 0 .527-.264.33-.586l-1.339-2.199c-.197-.321-.518-.321-.715 0l-1.338 2.199c-.198.322-.048.586.33.586h2.732zm-31.603 6.199c.314.209.262.38-.116.38h-8.045c-.377 0-.847-.263-1.042-.586l-1.577-2.586c-.196-.323-.667-.587-1.043-.587h-6.171c-.377 0-.847.264-1.042.587l-.288.471a.723.723 0 00.214.967l2.03 1.354c.315.209.263.38-.115.38h-6.908c-.378 0-.526-.263-.33-.586l7.711-12.656c.197-.322.666-.586 1.044-.586h5.254c.377 0 .847.264 1.043.586l6.422 10.541c.196.323.613.758.928.967l2.031 1.354zm-13.543-6.199c.377 0 .526-.264.33-.586l-1.34-2.199c-.196-.321-.518-.321-.714 0l-1.339 2.199c-.197.322-.048.586.33.586h2.733zm-16.647-7.249a.684.684 0 00-.682.682v7.302c0 .375-.207.456-.46.179l-7.007-7.66c-.253-.277-.768-.503-1.142-.503h-6.122a.685.685 0 00-.683.682V22.32c0 .375.307.682.683.682h5.913c.375 0 .428-.172.117-.381l-1.986-1.342c-.311-.21-.566-.689-.566-1.064V14.98c0-.375.208-.456.461-.179l7.037 7.698c.253.277.768.503 1.143.503h6.09a.684.684 0 00.682-.682V11.97c0-.375.254-.854.565-1.064l2.002-1.353c.311-.21.258-.381-.116-.381h-5.929zm-18.272 13.448c.314.209.262.38-.115.38h-8.045c-.377 0-.847-.263-1.044-.586l-1.577-2.586c-.196-.323-.666-.587-1.043-.587h-6.172c-.377 0-.847.264-1.042.587l-.288.471a.724.724 0 00.214.967l2.031 1.354c.314.209.262.38-.115.38h-6.909c-.378 0-.526-.263-.33-.586l7.712-12.656c.195-.322.666-.586 1.042-.586h5.254c.378 0 .847.264 1.043.586l6.423 10.541c.196.323.614.758.928.967l2.033 1.354zm-13.542-6.199c.377 0 .525-.264.33-.586l-1.341-2.199c-.195-.321-.518-.321-.713 0l-1.34 2.199c-.196.322-.048.586.329.586h2.735zm-13.687-6.868c.313-.209.262-.381-.116-.381h-7.485a.69.69 0 00-.686.687v12.456c0 .377.309.686.686.686h7.485c.377 0 .429-.171.116-.38l-2.031-1.354c-.315-.209-.572-.689-.572-1.066v-8.224c0-.377.257-.857.572-1.067l2.031-1.357zm-17.827 4.074c0-.778-.766-1.411-1.712-1.411l-5.604.001a.69.69 0 00-.687.687v1.421c0 .377.309.686.687.686h5.771c.803-.001 1.545-.702 1.545-1.384zm-7.316 4.213a.69.69 0 00-.687.688v1.677c0 .377.257.857.571 1.066l2.023 1.349c.314.209.262.38-.115.38h-7.478a.688.688 0 01-.686-.686V9.856c0-.377.309-.686.686-.686l13.499-.001c2.73 0 4.944 1.824 4.944 4.075 0 1.723-1.298 3.195-3.131 3.792 2.469 0 2.525 3.119 3.954 4.835.231.279.826.585 1.102.67.38.118.405.456.236.457h-6.073c-2.335 0-2.412-5.16-4.779-5.16h-4.066zm-8.743 4.78c.315.21.263.381-.115.381h-8.045c-.378 0-.847-.263-1.044-.586l-1.577-2.587c-.197-.323-.666-.587-1.044-.587h-6.172c-.377 0-.847.264-1.042.587l-.288.471a.723.723 0 00.214.967l2.031 1.354c.314.21.262.381-.115.381h-6.909c-.378 0-.527-.263-.33-.586l7.712-12.659c.195-.322.666-.585 1.042-.585h5.254c.378 0 .847.263 1.044.585l6.423 10.543c.196.323.614.758.927.967l2.034 1.354zm-13.543-6.199c.378 0 .526-.264.33-.586l-1.34-2.199c-.196-.321-.518-.321-.714 0l-1.34 2.199c-.196.322-.048.586.329.586h2.735z"/></svg>