<svg viewBox="0 0 200 41" xmlns="http://www.w3.org/2000/svg"><path d="M30 17.1v-16l15.002.063v2.11h-9.303v4.823h8.712v2.028H35.7v5.18h9.668v1.859z" fill="#00529c"/><g clip-rule="evenodd" fill-rule="evenodd"><path d="M161.06 2.105c1.647 0 3.521.341 4.971 2.13 1.164 1.42 1.362 3.068 1.362 4.516 0 1.449-.198 3.067-1.362 4.515-1.45 1.79-3.323 2.13-4.971 2.13s-3.521-.34-4.97-2.13c-1.165-1.448-1.363-3.066-1.363-4.515 0-1.448.198-3.096 1.363-4.516 1.448-1.789 3.322-2.13 4.97-2.13zm0 15.28c3.068 0 7.355-.682 10.225-2.756 2.271-1.618 3.352-3.918 3.352-5.878 0-1.959-1.08-4.26-3.352-5.879C168.416.799 164.129.118 161.06.118c-3.038 0-7.355.681-10.252 2.754-2.271 1.619-3.323 3.92-3.323 5.879 0 1.96 1.052 4.26 3.323 5.878 2.896 2.074 7.214 2.756 10.252 2.756zM88.954 2.105c1.62 0 3.521.341 4.97 2.13 1.165 1.42 1.363 3.068 1.363 4.516 0 1.449-.199 3.067-1.363 4.515-1.449 1.79-3.351 2.13-4.97 2.13-1.647 0-3.55-.34-4.998-2.13-1.165-1.448-1.334-3.066-1.334-4.515 0-1.448.17-3.096 1.334-4.516 1.448-1.789 3.351-2.13 4.998-2.13zm0 15.28c3.039 0 7.356-.682 10.224-2.756 2.244-1.618 3.294-3.918 3.294-5.878 0-1.959-1.051-4.26-3.294-5.879C96.31.799 91.992.118 88.954.118c-3.067 0-7.384.681-10.252 2.754-2.272 1.619-3.323 3.92-3.323 5.879 0 1.96 1.051 4.26 3.323 5.878 2.868 2.074 7.185 2.756 10.252 2.756zm-24.088-6.923c2.94.01 6.008-1.684 6.015-4.602 0-1.222-.455-2.812-2.414-3.919C66.905 1.06 64.803.776 61.282.776H50.063v16.33h6.56l.013-8.47 6.266 8.47 7.805.005zm-4.522-7.187c.795.029 1.818.171 2.556.625.994.624 1.165 1.477 1.165 1.988s-.143 1.42-1.221 2.073c-.74.483-1.647.625-2.5.682h-3.722V3.248h3.04c.199 0 .426 0 .682.027z" fill="#00529c"/><path d="M10.81 4.606l3.266 5.565H7.543l3.096-5.679h.085l.086.114zm4.601 7.781l2.812 4.714h7.327L15.61.771H9.531L.5 17.101h3.266l2.584-4.714h9.061zM178.82 3.243h7.05v13.858h6.56V3.243h7.07V.771h-20.68zM11.377 36.639L9.02 35.617l9.77-1.191c.17.283.341.539.54.795l-7.953 1.418zm26.213 0l2.357-1.078-9.713-1.164c-.085.313-.341.568-.511.824l7.867 1.418zm-1.419.172l-2.954.994-4.203-1.277-.37-.113c.142-.115.256-.229.37-.369.17-.143.312-.342.483-.484l6.674 1.249zm7.81-2.754l-2.698 1.25-10.792-1.25.256-.768 13.234.768zm.965-.369l3.521-2.244H29.383c0 .797-.114 1.479-.369 2.074-.739 1.902-2.584 2.811-4.431 2.781-1.817-.057-3.663-.992-4.487-2.727a5.004 5.004 0 01-.454-2.129H.5l3.494 2.244 14.626-.766c.283 1.049.794 1.959 1.476 2.639 1.165 1.223 2.84 1.904 4.487 1.904 1.619.029 3.267-.566 4.431-1.875.625-.682 1.107-1.563 1.391-2.613l14.541.712zm-15.932 5.791l.369.684-.369.172-.994.453-1.136-2.244a7.648 7.648 0 01-2.301.426 7.27 7.27 0 01-2.499-.342l-.966 2.16c-.313.027-.739 0-1.022-.197a.748.748 0 01-.34-.428l.34-.568.824-1.479c-.256-.168-.483-.281-.71-.51l.682-.822c1.164.711 2.442 1.107 3.691 1.107 1.25.029 2.499-.371 3.664-1.193l.768.227.312.115c-.113.084-.199.17-.312.256-.228.225-.426.453-.795.652l.794 1.531zm0-11.614c.738.881 1.277 1.961 1.562 3.209h-1.221a6.699 6.699 0 00-.34-1.078c-.824-2.158-2.5-3.693-4.431-4.973-.255-.141-.482-.311-.738-.453.256.086.483.172.738.258 1.76.707 3.322 1.674 4.43 3.037zm-3.295 8.008a2.941 2.941 0 001.165-.51l-1.932-3.834 2.017-.967-1.704-1.477-.682.315-2.925 1.332.852 1.932 1.392-.623 1.817 3.832zm-5.282.541c-.114-.086-.228-.199-.341-.285a3.555 3.555 0 01-.568-.596l-6.669 1.26 2.839.953 4.739-1.332zm-1.817-2.357c-.114-.254-.199-.51-.285-.768l-13.348.768 2.698 1.307 10.935-1.307z" fill="#00529C"/></g><path d="M107.25 17.103L107.16.816l15.788.127v1.859h-9.678v4.877l8.948-.06v2.247l-8.949.06v7.185zm20.57.067L127.79.943h6.025v13.89l9.192.044-.002 2.354z" fill="#00529c"/><text x="109.538" y="33.713" fill="#00529c" font-family="Sans" font-size="8" font-style="oblique" letter-spacing="2.02" word-spacing="-10.34" style="line-height:0%"><tspan x="109.538" y="33.713">Russian</tspan></text><text x="158.32" y="33.551" fill="#00529c" font-family="Sans" font-size="8" font-style="oblique" letter-spacing="2" word-spacing="-7.29" style="line-height:0%"><tspan x="158.32" y="33.551">Airlines</tspan></text></svg>