<svg width="315.18" height="60" xmlns="http://www.w3.org/2000/svg"><path d="M182.752 46.53h-19.929V35.344h19.939c3.279.053 5.925 2.507 5.925 5.571 0 3.065-2.657 5.615-5.936 5.615m-19.929-32.796h19.586c2.679.032 4.95 2.1 4.95 4.81 0 2.7-2.378 4.854-5.068 4.822h-19.468zm31.19 15.643c3.685-2.593 5.078-6.89 5.078-11.614 0-8.893-7.49-16.018-16.671-16.018h-33.257V58.52h34.564v.021c9.707 0 17.786-7.489 17.786-16.66 0-5.98-3.6-10.405-7.5-12.505M245.3 1.616v31.917c0 9.761-5.7 13.854-12.707 13.854-7.018 0-12.675-4.082-12.675-13.843V1.615h-14.154V33.63c0 20.421 12 26.368 26.829 26.368 14.839 0 26.85-5.946 26.85-26.368V1.615zm49.66 22.124c-11.453-2.485-15.32-3.589-15.32-7.221 0-3.204 4.146-4.821 10.693-4.821 6.182 0 13.65 2.635 18.032 5.26l4.468-11.55c-6.643-2.764-14.636-5.41-25.2-5.41-13.854 0-22.5 8.1-22.5 18 0 9.91 7.125 14.27 21.246 17.26 10.95 2.315 13.918 3.708 13.918 7.115s-4.393 4.66-10.33 4.66c-7.681 0-15.074-2.56-22.038-5.55l-4.21 11.26c8.324 3.858 16.97 6.954 27.278 6.954 17.175 0 24.182-8.207 24.182-17.775 0-8.507-5.893-15.064-20.218-18.182M28.682 1.744L0 58.508l17.036.01 4.286-9.128h19.564L34.8 36.95h-7.725l7.275-15.524 18.321 37.093h17.08L39.953 1.745zm115.24 18.88c0-10.34-7.093-18.73-21.675-18.73H92.793V58.67l13.65-.01V13.885h16.746c4.95 0 7.007 3.065 7.007 6.707 0 3.654-2.164 6.579-7.114 6.579H111.37l17.72 31.489h14.015s-12.13-20.582-12.064-20.593c8.754-2.722 12.879-9.354 12.879-17.443M72.67 58.542h14.12V1.777H72.67z" fill="#00205b"/></svg>