<svg xmlns="http://www.w3.org/2000/svg" width="92.2" height="42.82" viewBox="0 0 24.395 11.329"><defs><clipPath id="a" clipPathUnits="userSpaceOnUse"><path d="M35.64 725.099h68.4v31.365h-68.4z"/></clipPath></defs><g clip-path="url(#a)" transform="matrix(.35278 0 0 -.35278 -12.44 266.996)"><path d="M40.49 738.379c-.094 0-.187-.074-.224-.168l-4.415-12.609c-.056-.131-.018-.261.112-.261h2.384c.093 0 .205.075.224.168l.707 2.216h4.768l.708-2.216c.037-.093.131-.168.224-.168h2.384c.13 0 .167.13.112.261l-4.415 12.609c-.037.094-.13.168-.223.168zm35.928-3.185c-1.248 0-2.31-.521-2.924-1.62l-.149 1.21a.218.218 0 01-.205.168h-1.658a.167.167 0 01-.168-.168v-9.275c0-.093.075-.168.168-.168h2.235c.112 0 .205.075.205.168v4.917c0 1.621.708 2.403 1.751 2.403.912 0 1.453-.615 1.453-1.826v-5.494c0-.093.074-.168.167-.168h2.273c.093 0 .167.075.167.168v6.24c0 2.086-1.322 3.445-3.315 3.445m8.996-10.095c1.248 0 2.235.522 2.85 1.621l.15-1.211a.218.218 0 01.204-.168h1.657c.094 0 .168.075.168.168v9.275a.166.166 0 01-.168.168H88.04c-.112 0-.205-.074-.205-.168v-4.917c0-1.62-.689-2.421-1.676-2.421-.857 0-1.36.633-1.36 1.844v5.494a.166.166 0 01-.167.168H82.36a.166.166 0 01-.167-.168v-6.239c0-2.105 1.285-3.446 3.222-3.446m13.448 2.98c0-2.049 1.1-2.961 3.054-2.961.876 0 1.956.223 1.956.223.093.019.168.112.168.224v1.806c0 .15-.112.168-.205.15a9.264 9.264 0 00-1.285-.075c-.745 0-1.08.317-1.08 1.062v4.321h2.253c.093 0 .168.074.168.186v1.769a.167.167 0 01-.168.168h-2.254v2.831c0 .13-.11.186-.242.149l-2.198-.763c-.093-.038-.167-.112-.167-.224v-1.993h-1.49a.167.167 0 01-.168-.168v-1.769c0-.112.075-.186.168-.186h1.49zm-30.528 10.3h-2.347a.187.187 0 01-.186-.186v-12.665c0-.112.075-.187.186-.187h2.347c.112 0 .187.075.187.187v12.665a.187.187 0 01-.187.186m-8.4-3.241c-.167.038-.466.056-.763.056a2.715 2.715 0 01-2.552-1.713l-.168 1.303a.201.201 0 01-.204.168H54.57a.167.167 0 01-.168-.168v-9.256c0-.112.075-.187.168-.187h2.272c.112 0 .186.075.186.187v4.898c0 1.564.802 2.421 2.087 2.421.242 0 .745-.037 1.024-.074.112-.019.168.018.168.112v1.844c0 .335-.019.335-.373.409m-8.474-.186h-2.273c-.112 0-.186-.074-.186-.168v-9.256c0-.112.074-.187.186-.187h2.273c.111 0 .186.075.186.187v9.256c0 .094-.075.168-.186.168m44.161 0h-2.29a.167.167 0 01-.169-.168v-9.256c0-.112.075-.187.168-.187h2.291c.093 0 .186.075.186.187v9.256c0 .094-.093.168-.186.168m-53.959.205l1.602-5.029h-3.222zm54.015 3.707h-2.422c-.093 0-.167-.075-.167-.187v-2.235c0-.093.074-.186.167-.186h2.422c.111 0 .186.093.186.186v2.235c0 .112-.075.187-.186.187m-44.162 0h-2.42c-.094 0-.169-.075-.169-.187v-2.235c0-.093.075-.186.168-.186h2.421c.112 0 .187.093.187.186v2.235c0 .112-.075.187-.187.187" fill="#231f20"/><path d="M40.303 755.98c-.093 0-.186-.074-.223-.168l-4.415-12.609c-.056-.13-.018-.26.112-.26h11.399c.13 0 .167.13.112.26l-4.415 12.61c-.037.093-.13.167-.223.167zm25.685 0c-.094 0-.187-.074-.224-.168l-4.414-12.609c-.056-.13-.02-.26.112-.26H72.86c.13 0 .168.13.112.26l-4.414 12.61c-.037.093-.13.167-.223.167zm-9.406-3.185c-2.701 0-4.601-1.974-4.601-4.843 0-1.099.354-2.235.913-2.96-1.62 0-3.967.185-4.712.241-.131 0-.187-.056-.187-.168v-1.788c0-.11.056-.205.168-.205 1.993-.167 5.308-.353 7.599-.353 3.632 0 5.42 1.881 5.42 5.103 0 3.166-1.825 4.973-4.6 4.973m19.76 1.676c.504 0 1.1-.056 1.1-.056.112 0 .187.075.187.187v1.527a.22.22 0 01-.187.223s-.614.112-1.21.112c-2.943 0-4.563-1.769-4.563-4.433 0-2.887 1.695-4.45 4.563-4.45.503 0 1.21.111 1.21.111a.216.216 0 01.187.205v1.564c0 .093-.075.186-.187.168 0 0-.596-.056-1.1-.056-1.488 0-2.308.875-2.308 2.458 0 1.584.857 2.44 2.309 2.44m-19.761-9.573c-1.211 0-1.975.987-1.975 2.868 0 1.881.82 2.757 1.993 2.757 1.248 0 1.956-.95 1.956-2.757 0-1.918-.801-2.868-1.974-2.868m-15.106 7.86l2.366-7.413h-4.75zm25.685 0l2.365-7.413h-4.75z" fill="#f1471d"/></g></svg>