<svg width="261" height="126.07" viewBox="0 0 69.056 33.357" xmlns="http://www.w3.org/2000/svg"><path d="M5.12 19.51c0-.1.018-.217.055-.339l-4.89.89c.013.18.036.356.065.524l4.79-.87a1.136 1.136 0 01-.02-.204" fill="#d40e8c"/><path d="M7.39 24.774c.917 0 1.946-.117 2.944-.299l4.801-.873V20.73L1.808 23.153c1.437 1.222 3.643 1.62 5.582 1.62" fill="#009989"/><path d="M7.755 21.366c-1.378 0-2.103-.58-2.423-1.146l-4.86.884a4.18 4.18 0 00.873 1.59l7.85-1.427c-.367.059-.838.1-1.44.1" fill="#f8a800"/><path d="M.266 19.517l5.26-.957c.395-.434 1.116-.807 2.328-.807.71 0 1.221.041 1.589.096l5.69-1.035v-1.816L.73 17.617c-.281.533-.45 1.161-.464 1.9" fill="#70b62b"/><path d="M7.13 14.761c-1.588 0-4.533.416-5.995 2.24l9.197-1.672s-1.033-.568-3.201-.568" fill="#00873b"/><path d="M11.658 9.09L1.115 11.007l1.786 2.615c.93-.569 2.788-1.395 4.389-1.395 1.6 0 3.045.878 3.045 2.117v.98l4.645-.843.153-.028c-.065-2.505-1.33-4.376-3.476-5.363" fill="#a71580"/><path d="M7.65 8.305c-4.595 0-6.866 2.22-6.866 2.22l9.902-1.8c-.9-.275-1.917-.42-3.036-.42" fill="#e6420f"/><path d="M10.334 21.063l4.801-.873v-1.749l-4.8.873z" fill="#009ee2"/><path d="M10.334 18.769l4.801-.873v-.537l-4.8.873z" fill="#8e7a3b"/><path d="M52.19.26l-4.864.883v4.895l4.863-.884zm11.793 20.79l-1.025.189c-.383.07-.893.12-1.562.12-2.018 0-2.639-1.242-2.639-1.863s.62-1.76 2.742-1.76 2.484.363 2.484.363zm-2.69-12.782c-4.605 0-6.882 2.225-6.882 2.225l2.122 3.105c.931-.569 2.793-1.397 4.398-1.397 1.603 0 3.052.88 3.052 2.121v.983s-1.035-.57-3.208-.57-6.88.777-6.88 4.864c0 4.088 3.932 5.174 7.14 5.174.919 0 1.949-.116 2.949-.298l4.81-.875v-8.967c0-3.932-2.896-6.364-7.5-6.364m-13.965.444v15.776l4.863-.885V7.83zm-25.783-.439l-4.15.755v15.46l4.15-.755.713-.13V15.29c0-1.744 1.738-2.83 3.612-2.903a7.362 7.362 0 011.832.177V8.32a7.376 7.376 0 00-1.832-.14c-2.326.073-3.65 1.584-4.325 2.769zm20.817 5.213C44 11.512 44.909 9.72 45.275 9.084l-6.243 1.135c-.984 1.514-2.8 3.625-4.387 4.844V3.45l-4.863.885v20.152l4.863-.884v-3.888c.604-.285.984-.578.984-.578l4.764 5.402 5.353-.973-6.185-7.017a45.842 45.842 0 002.802-3.062M56.048 26.66a8.91 8.91 0 00-1.7.179v.965c.357-.078 1.025-.207 1.59-.207.373 0 1.038.05 1.303.387.18.227.239.557.175.981-.05.33-.153.675-.34.948-.129.19-.32.357-.487.487l.597.83c.215-.159.555-.44.783-.771.19-.278.342-.673.428-1.113.19-.984.06-1.738-.365-2.122-.544-.491-1.476-.564-1.984-.564m-1.526 6.429l1.126-.204v-4.353l-1.126.205zm-4.718-3.351c0 .336-.289.597-.71.742-.146.05-.23.062-.23.062l-.031-.19a28.905 28.905 0 00-.85-3.76l-1.037.214c.328 1.108.655 2.475.843 3.7a5.244 5.244 0 01-.774-.31l-.524.703c.285.185.974.54 2.065.54 1.455 0 2.358-.689 2.358-1.798v-3.044l-1.11.23zm11.052-3.085c-1.003 0-1.635.358-1.891.539l.482.706c.325-.167.831-.363 1.295-.363.651 0 1.161.382 1.161.87v2.829l1.11-.202v-2.58c0-1.127-.807-1.799-2.157-1.799m7.092 3.341l.104-.481a25.43 25.43 0 00.353-2.019l.12-.897-1.093.2a26.335 26.335 0 01-.262 1.707l-.084.45-1.805-2.385-1.242.227.582.692-.178.823a25.442 25.442 0 00-.352 2.02l-.12.897 1.093-.2c.082-.694.193-1.393.331-2.08l.09-.44 2.066 2.748 1.246-.228zm-15.761-3.198l1.125-.206v2.477l-1.125.205z" fill="#0046ba"/></svg>