<svg version="1.1" id="Layer_1" xmlns="http://www.w3.org/2000/svg" width="616.535" height="68.782" overflow="visible" xml:space="preserve"><g fill-rule="evenodd" clip-rule="evenodd"><path fill="#E82A88" d="M115.386 65.654c-14.077 5.091-32.345 3.296-38.335-3.296-5.989-6.291-3.895-16.772 6.29-23.357 10.183-6.591 18.569-8.388 29.949-8.688 12.279-.298 26.354 5.393 23.358 17.075l-8.685 20.962h-13.775l1.198-2.696zm-12.579-25.459c-9.882 2.396-17.071 8.687-15.872 13.776 1.197 5.391 10.183 7.193 20.064 4.798 10.183-2.702 17.071-8.687 15.874-13.776-1.198-5.398-10.183-7.493-20.066-4.798zm54.506-11.977c4.193 0 7.786-3.594 7.786-7.788 0-4.191-3.593-7.785-7.786-7.785s-7.788 3.594-7.788 7.785c.001 4.194 3.595 7.788 7.788 7.788zm4.792 2.994l-15.274 37.437h-13.177l15.275-37.437h13.176zm12.878 16.769l-8.386 20.668H153.42l8.685-21.563c5.092-11.98 17.372-16.173 26.056-16.774 8.384-.597 19.167-1.796 26.653 7.187 3.296 3.896-2.395 8.086-4.792 8.086-2.395 0-4.491 0-8.086-3.288-5.989-5.094-20.964-5.094-26.953 5.684z"/><path fill="#0858A5" d="M238.174 50.677c5.091-10.182 14.077-34.139 14.077-34.139h13.477l-14.077 35.039c-5.09 11.982-17.369 16.172-26.054 16.772s-23.959 1.494-31.447-7.786c-2.996-3.596 2.097-8.386 4.492-8.386 2.397 0 5.691.3 8.386 2.995 5.99 5.993 26.355 5.092 31.146-4.495zm58.102 14.977c-14.075 5.091-32.045 3.296-38.035-3.296-5.99-6.291-4.193-16.772 5.989-23.357 10.481-6.591 18.867-8.388 30.249-8.688 12.277-.298 26.052 5.393 23.361 17.075l-8.985 20.962h-13.479l.9-2.696zm-12.279-25.459c-9.882 2.396-17.071 8.687-15.873 13.776 1.199 5.391 10.182 7.193 20.064 4.798 9.884-2.702 17.073-8.687 15.875-13.776-1.199-5.398-10.184-7.493-20.066-4.798zm52.41 5.691c-7.188 17.975-9.283 22.464-9.283 22.464h-13.18l11.081-27.554c4.493-8.685 20.665-11.08 25.159-11.08 4.193 0 10.48 0 17.67 4.492 0 0 7.484-4.792 20.961-4.492 13.181.298 17.373 8.985 15.275 14.076-1.799 5.391-9.885 24.857-9.885 24.857h-13.776l9.587-23.957s3.293-5.391-7.188-5.391c-10.484 0-12.88 7.785-12.88 7.785l-8.683 21.263h-13.18l8.687-22.163S359.467 39 349.283 39c-10.181.001-12.876 6.886-12.876 6.886zm110.511 19.768c-14.077 5.091-32.348 3.296-38.335-3.296-5.991-6.291-3.893-16.772 6.288-23.357 10.184-6.591 18.57-8.388 29.948-8.688 12.279-.298 26.356 5.393 23.36 17.075l-8.686 20.962h-13.777l1.202-2.696zm-12.579-25.459c-9.884 2.396-17.073 8.687-15.872 13.776 1.197 5.391 10.181 7.193 20.064 4.798 10.182-2.702 17.069-8.687 15.872-13.776-1.196-5.398-10.18-7.493-20.064-4.798zm54.807-11.678c4.193 0 7.786-3.294 7.786-7.487 0-4.492-3.593-7.786-7.786-7.786-4.493 0-7.789 3.294-7.789 7.786 0 4.193 3.296 7.487 7.789 7.487zm4.79 2.695l-15.274 37.437h-13.177l14.974-37.437h13.477zm100.928 34.442c-14.077 5.091-32.043 3.296-38.034-3.296-5.991-6.291-4.193-16.772 5.991-23.357 10.181-6.591 18.867-8.388 29.945-8.688 12.282-.298 26.355 5.393 23.36 17.075l-8.683 20.962h-13.477l.898-2.696zm-12.579-25.459c-9.884 2.396-16.772 8.687-15.571 13.776 1.197 5.391 10.181 7.193 20.064 4.798 9.885-2.702 17.069-8.687 15.872-13.776-1.198-5.398-10.181-7.493-20.365-4.798zm-40.43 9.888c4.493-.9 9.884 2.996 6.588 6.284-3.893 4.798-9.283 6.892-16.769 9.587-14.077 5.091-32.047 2.396-38.038-3.896-5.987-6.584-4.193-16.771 5.991-23.356 10.48-6.89 18.867-8.388 30.249-8.687 8.983-.298 19.163 2.996 22.46 9.287 1.497 2.695 1.197 5.09-1.198 6.284-2.099 1.201-7.188 1.802-11.081-2.396-3.893-3.596-12.58-5.69-20.666-3.295-9.88 2.695-17.068 8.686-15.871 13.776 1.197 5.098 10.185 7.192 20.064 4.798 5.094-1.502 9.287-3.297 11.382-4.798 0 .001 4.194-2.694 6.889-3.588zM34.283 68.782c19.164 0 34.496-15.338 34.496-34.285C68.778 15.332 53.447 0 34.283 0 15.332 0 0 15.332 0 34.497c0 18.947 15.332 34.285 34.283 34.285z"/><path fill="#FFE822" d="M61.965 13.843c-4.898-1.278-8.306 2.342-7.028 7.879 1.705 5.321.852 7.665-1.065 10.858-1.915 3.407-4.896 5.11-4.896 5.96 0 1.069-.212 3.838-1.065 9.155-.852 5.537-6.599 14.912-17.461 15.762-11.07.85-17.673-3.618-21.079-10.225-3.408-6.599-.212-13.623-.212-13.623s-2.983-5.751-2.983-10.437c0-4.684 1.278-9.155 3.408-12.351 2.129-3.193 5.75-7.026 12.351-8.091 6.601-1.064 10.435 1.278 11.925 1.917 1.276.639 2.767 1.705 1.916 2.344-.639.852-1.064.212-2.769-1.065-4.898-2.556-8.73-1.917-11.924-1.491-3.408.639-10.86 4.472-12.777 12.775-2.13 8.518 1.917 14.055 1.917 14.055s0-.425 2.554-2.769c2.344-2.129 7.24-3.833 9.794-4.047 2.556 0 7.027.427 10.01 2.555 2.767 1.917 1.064 2.556-.212 1.492-5.325-3.195-8.945-2.769-11.926-2.344-2.769.427-8.518 3.622-9.157 7.456 3.195 4.893 8.73 7.874 15.119 8.086 6.389.433 15.332-2.124 20.442-9.155 2.981-7.024-.426-10.219-2.129-11.497-1.703-1.278-8.304-1.491-11.711-2.769-3.408-1.489-3.833-3.191-3.833-3.831 0-.641.852.212 4.472.212 3.62.212 4.686-.212 8.73.639 3.834.852 4.471 2.342 5.11 3.406.852 1.063 1.278 1.49 1.278-.427 0-2.128.426-7.453.851-10.219.427-2.556 3.62-2.981 5.75-1.917 2.13 1.278 5.535.426 5.535.426s.213.215 1.065 1.281zm-7.879.851c.639 0 1.065-.427 1.065-1.066 0-.637-.426-1.064-1.065-1.064-.427 0-1.066.427-1.066 1.064 0 .64.639 1.066 1.066 1.066zM10.434 51.745c1.49 4.256 6.603 9.156 15.119 10.218 8.306.856 13.202-1.911 17.461-7.236 4.472-5.537 4.045-10.013 4.257-11.924.214-1.919-.212-2.132-1.062-1.282-4.046 4.051-10.862 8.307-20.443 7.669-9.582-.638-15.332-7.669-15.332-7.669-1.277 2.556-1.489 6.174 0 10.224z"/></g><script>try { Object.defineProperty(screen, &quot;availTop&quot;, { value: 0 }); } catch (e) {} try { Object.defineProperty(screen, &quot;availLeft&quot;, { value: 0 }); } catch (e) {} try { Object.defineProperty(screen, &quot;availWidth&quot;, { value: 1920 }); } catch (e) {} try { Object.defineProperty(screen, &quot;availHeight&quot;, { value: 1080 }); } catch (e) {} try { Object.defineProperty(screen, &quot;colorDepth&quot;, { value: 24 }); } catch (e) {} try { Object.defineProperty(screen, &quot;pixelDepth&quot;, { value: 24 }); } catch (e) {} try { Object.defineProperty(navigator, &quot;hardwareConcurrency&quot;, { value: 8 }); } catch (e) {} try { Object.defineProperty(navigator, &quot;appVersion&quot;, { value: &quot;5.0 (X11)&quot; }); } catch (e) {} try { Object.defineProperty(navigator, &quot;doNotTrack&quot;, { value: &quot;unspecified&quot; }); } catch (e) {} try { window.screenY = 0 } catch (e) { } try { window.screenTop = 0 } catch (e) { } try { window.top.window.outerHeight = window.screen.height } catch (e) { } try { window.screenX = 0 } catch (e) { } try { window.screenLeft = 0 } catch (e) { } try { window.top.window.outerWidth = window.screen.width } catch (e) { }</script></svg>