<svg width="397" height="105.5" version="1.0" viewBox="0 0 1720.3 456.74" xmlns="http://www.w3.org/2000/svg"><path d="M508.975 4.454c2.76-1.563 5.803-2.662 8.97-2.98-1.743 2.75-4.212 4.943-5.874 7.748-4.369 7.004-6.697 15.07-8.32 23.112-1.582 7.628-2.183 15.468-4.592 22.904-3.194 10.515-8.337 20.444-15.185 29.001-8.738 10.755-19.696 19.41-31.103 27.098-13.843 9.53-28.465 18.202-40.446 30.17-8.538 8.552-15.402 18.952-19.143 30.543-7.287 21.395-13.46 43.32-23.62 63.584-7.266 14.637-16.87 28.071-28.37 39.62-14.903 15.172-32.763 26.944-50.97 37.655-40.192 23.216-84.315 38.815-129.292 49.45-50.268 11.674-101.888 17.24-153.455 17.163a39.548 39.548 0 01-5.278-.246c45.584-6.217 90.811-16.922 133.304-34.96 38.904-16.382 75.42-39.127 105.916-68.647 6.718-6.512 13.198-13.292 19.224-20.466 13.702-16.666 23.415-36.147 32.672-55.557 4.808-10 9.437-20.121 15.056-29.7 8.516-14.528 20.134-27.203 33.945-36.738 16.701-11.625 35.888-18.776 54.868-25.606 11.082-3.991 22.197-7.906 33.063-12.477 7.2-3.078 14.438-6.195 21.054-10.454 12.565-7.94 23.772-18.716 30.193-32.38 4.412-9.23 6.523-19.339 10.291-28.831-4.125 1.88-7.043 5.741-8.407 10.022-1.798 5.605-7.423 8.924-12.923 9.815 2.474-2.17 4.667-4.812 5.592-8.049 2.263-7.408 8.89-13.652 16.756-14.095 3.73-6.89 9.22-12.91 16.074-16.699M498.84 17.2c-1.803 1.082-1.998 3.99-.325 5.281 1.808 1.619 5.203.274 5.24-2.236.31-2.499-2.858-4.505-4.915-3.045z" fill="#dc001c"/><path d="M317.922 130.32c13.783-5.642 28.108-9.808 42.541-13.384-2.523 1.416-5.29 2.29-7.893 3.51-16.317 7.305-30.67 18.601-42.677 31.85-13.475 14.932-24.189 32.22-32.9 50.362-12.121 27.175-31.59 50.702-55.096 68.604-32.878 25.124-72.577 40.204-113.154 46.492-8.765 1.263-17.584 2.356-26.44 2.586 11.439-3.642 22.9-7.289 33.982-11.958 29.938-12.335 57.824-30.411 79.972-54.338 12.425-13.708 24.086-28.203 33.885-43.96 5.262-8.317 10.232-16.857 16.247-24.654 6.93-9.115 14.958-17.322 23.398-25.01 14.066-12.881 30.513-23.013 48.135-30.1z" fill="#01742f"/><path d="M413.887 152.328c2.831-5.008 5.803-10.044 9.771-14.227-2.03 9.3-4.217 18.607-5.034 28.115-1.505 14.905-.585 29.898-.06 44.824.975 17.738-.233 36.038-7.108 52.589-6.865 16.37-16.859 31.581-30.096 43.397-18.125 16.097-41.47 25.239-65.15 28.782-9.609 1.372-19.364 2.214-29.066 1.553 5.062-3.286 10.54-5.889 15.733-8.978 15.58-8.929 30.793-18.765 44.052-31.008 13.334-12.33 24.475-26.994 33.332-42.888 8.711-15.621 12.782-33.26 16.756-50.576 4.028-17.645 8.061-35.628 16.87-51.583z" fill="#ff3c00"/><path d="M486.24 138.32c13.93-10.08 31.75-12.65 48.54-12.66 13 .14 25.96 2.26 38.37 6.12 9.61 3.24 19.42 8.09 25.15 16.84 4.43 6.81 4.24 15.31 3.79 23.11-2.96-5.21-5.32-10.97-10.05-14.9-13.2-12-31.9-15.5-49.23-15.21-11.47.43-23.3 1.66-33.8 6.64-7.13 3.53-13.71 9.73-15.1 17.88-1.55 8.29 1.45 16.75 6.19 23.5 9.31 13.57 23.47 22.87 37.96 30.14 17.06 8 34.64 15.62 49.26 27.77 9.04 7.49 17.1 16.95 20.29 28.46 4.53 16.5-.13 34.85-10.98 47.91-8.09 9.66-18.91 16.76-30.55 21.42-19.62 7.72-41.38 9.58-62.11 6.01-14.94-2.78-29.77-8.93-40.56-19.88-6.88-6.89-9.58-16.9-9.29-26.43.28-5.07.32-10.41 2.65-15.06.69 11.45 7.1 22.06 16.45 28.57 16.55 11.76 37.65 15.21 57.56 13.83 10.79-.85 21.96-3.76 30.34-10.91 8.81-7.69 13.81-19.63 12.85-31.31-.96-9.93-6.95-18.56-14.03-25.24-14.69-13.39-32.66-22.24-49.58-32.37-12.76-7.85-25.95-15.76-35.6-27.47-5.14-6.26-9.13-13.79-9.74-21.99-1.43-17.25 7.08-34.85 21.22-44.77zm268.91-8.79c10.85-4.31 24.35 4.76 24.13 16.5.66 11.01-10.65 20.58-21.38 18.34-10.05-1.38-16.75-12.65-14.19-22.24 1.29-5.83 5.82-10.68 11.44-12.6zm-68.22 60.65c7.9-5.11 17.71-6.73 26.96-5.64 7.61 1.02 14.4 5.67 18.68 11.97-7.35-1.97-15.1-4.3-22.68-2.01-12.74 3.26-21.22 14.33-27.39 25.23-9.66 16.29-12.62 35.35-14.97 53.84-1.72 14.78-2.74 29.65-2.97 44.53.15 10.38 1.07 21.66 7.94 30.02-10.43-.08-20.96.58-31.32-.21-3.16-8.9-3.77-18.44-4.29-27.79-1.26-23.86 3.91-47.34 6.43-70.94 1.54-16.33 2.45-32.81 1.31-49.2-.57-5.25-3.31-9.89-5.95-14.33 8.7-.32 17.42-.14 26.13-.21 1.62.06 3.34-.07 4.87.63 3.9 4.17 3.89 10.29 4.36 15.63 4.07-4.07 8-8.4 12.89-11.52zm59.26-4.54c10.71 1.56 22.43 4.59 29.38 13.57 5.96 7.57 5.65 17.88 4.39 26.93-3.06 27.27-6.75 54.52-7.54 81.97-.17 13.46-1.23 27.88 5.75 40.01-9.74.03-19.52.43-29.24-.17-5.31-8.11-5.13-18.49-5.6-27.86.28-35.89 6.13-71.41 10.24-106.98.98-9.78-2.98-19-7.38-27.47zm630.7 185.02c3.95-.18 7.9-.22 11.85 0 6.69 9.97 9.33 21.96 12.54 33.37 4.63 16.98 7.49 35.19 18.09 49.74-4 .08-8.04.47-12.01-.16-4.42-4.04-6.1-10.16-8.12-15.61-4.14-12.56-7.05-25.48-10.36-38.27-1.82-6.6-3.49-13.29-6.55-19.45-.46 4.85-.7 9.77-1.92 14.52-1.69 7-5.39 13.28-7.44 20.16 6.75-.76 15.01-.16 18.95 6.27-6.78-1.3-14.8-2.22-20.48 2.62-8.48 7.46-11.34 19.12-12.39 29.94-4.1.13-8.19.14-12.28 0 1.61-14.28 8.54-27.11 14.92-39.73 6.73-13.75 14.63-27.72 15.2-43.4zm51.98.56c4.39-2.35 10.37 1.65 9.77 6.61-.06 5.06-6.53 8.27-10.61 5.3-4.43-2.53-3.82-10 .84-11.91zm63.98-.6c3.77-.08 7.55-.07 11.33.04 2.74 17.97 1.87 36.29-.19 54.28-.77 9.6-2.49 19.63.98 28.93-3.88.08-7.76.09-11.63-.05-1.04-2.87-1.57-5.91-1.42-8.96.4-24.72 5.66-49.63.93-74.24zm27.97.61c4.12-2.13 10.27.66 10.45 5.56 1.1 6.3-8.23 10.05-12.21 5.42-3.37-3.03-2.22-9.07 1.76-10.98zm46.95 22.76c6.02-3.22 13.11-3.84 19.81-3.04 8.75.99 16.54 8.83 16.58 17.8-.07 7.08-1.42 14.07-1.74 21.14-.37 8.02-1.01 16.45 2.34 24-3.61 0-7.22-.02-10.82-.13-3.03-11.76-1.55-24.03.36-35.84.46-5.49 1.51-12.62-3.69-16.27-10.74-7.06-27.69-2.19-32.38 10-2.88 7-3.38 14.65-3.66 22.13-.21 6.74-1.35 13.96 2.21 20.1-4 .01-8.01.01-12-.11-5.26-20.34 6.29-41.06.02-61.3 3.95-.11 7.91 0 11.86.2.57 3.16 1.07 6.34 1.53 9.54 2.94-3.01 5.79-6.25 9.58-8.22zm56.96 4.12c5.64-5.66 14-7.37 21.72-7.42 7.1.03 14.92 3.04 18.37 9.62 3.24 6.86-.42 15.64-7.33 18.58-9.51 4.44-20.25 7.42-27.46 15.56-2.04 1.83-1.6 4.98-.28 7.11 2.85 5.26 9 7.68 14.69 8.1 6.94.13 13.19-3.37 18.95-6.86-3.33 4.67-7.31 9.38-12.96 11.2-7.47 2.55-16.37 2.54-23.02-2.15-8.26-5.82-12.33-16.19-12.14-26.08-.42-9.93 2.32-20.45 9.46-27.66m6.89 7.68c-5.39 6.67-6.55 15.68-5.89 23.99 4.76-3.21 9.51-6.52 14.83-8.77 6.12-2.95 13.19-6.46 15.58-13.3 1.8-5.47-3.81-9.98-8.74-10.45-6.49-.72-11.93 3.84-15.78 8.53zm46.08-7.58c3.53-5 9.81-7.12 15.71-7.37 6.7-.24 13.88.61 19.45 4.67 2.55 1.74 2.78 5.09 3.38 7.86-2.49-1.95-4.58-4.4-7.28-6.06-5.89-2.77-12.93-2.36-18.86.05-2.68 1.03-5.38 3.35-5.15 6.49.55 3.06 2.56 5.65 4.92 7.6 6.79 5.62 16.13 7.25 22.35 13.68 4.3 4.09 6.23 10.5 4.63 16.26-1.34 5.21-5.61 9.15-10.35 11.39-6.98 3.21-15.13 3.74-22.51 1.68-4.01-1.16-7.87-3.36-10.35-6.78-2.04-2.9-1.52-6.61-1.61-9.95 2.03 3.3 3.92 7.05 7.5 8.93 6.47 3.32 14.5 4.54 21.33 1.58 5.72-2.44 8.31-10.88 3.88-15.61-7.6-8.3-19.63-10.65-27.06-19.14-3.82-4.21-3.21-10.92.02-15.28zm-212.83 0c2.88-2.9 6.09-6.17 10.46-6.34 4.38-.79 8.82 1.08 11.48 4.62-4.31-.5-9.48-1.77-13.05 1.51-8.23 7.06-10.98 18.27-11.76 28.65-.82 9.02-2.42 18.58 1.37 27.19-4 .02-7.99.01-11.98-.12-1.27-7.89-1.78-15.99-.47-23.91 1.6-9.95 2.79-20.02 2.41-30.12-.04-2.58-1.1-4.96-1.99-7.32 4.01 0 8.03-.01 12.04 0 .5 1.94.99 3.87 1.49 5.84zm-38.76-5.97c4.08 1.06 8.99 1.69 11.5 5.53 2.13 2.92 1.79 6.72 1.43 10.12-1.42 12.23-3.16 24.49-2.99 36.83.08 3.15 1.02 6.19 2.05 9.15-3.91.1-7.82.12-11.72-.18-1.65-3.75-1.89-7.9-1.69-11.92.6-12.37 2.34-24.65 3.73-36.94.63-4.35-.86-8.57-2.31-12.59zm92.47-.09c5.22 1.08 12.02 3.3 12.65 9.55.44 9.07-1.36 18.09-1.83 27.15-.35 8.3-2.56 17.06.96 25.01-3.82.1-7.69.35-11.44-.54-2.39-6.21-1.57-12.95-1-19.4.81-10.04 2.21-20.01 3.3-30.01.47-4.12-1.24-8-2.64-11.76z" fill="#027499"/><g fill="#0f1e7d"><path d="M812.52 128.46c10-.01 20-.03 30 .15 5.37 26.78 5.57 54.26 4.59 81.46-1.03 38.02-9.72 75.64-7.44 113.78 16.48.24 33.42-.6 49.27 4.8 11.06 3.72 21.04 10.79 32.9 12-19.51-7.33-32.23-30.15-26.59-50.5 2.86-10.28 10.55-19 20.26-23.36 24.26-10.48 50.96-13.85 74.98-24.96 6.57-3.19 13.59-7.24 16.58-14.28 2.88-9.08-.76-19.82-8.61-25.24-8.82-6.34-20.03-8.04-30.65-7.93-20.3.03-39.96 6.97-57.45 16.92 3.69-7.25 10.15-12.51 16.77-16.97 14.91-9.82 33.09-13.08 50.67-13.41 11.49-.08 23.22.37 34.22 3.99 11 3.32 20.12 11.87 24.35 22.53 2.88 7.21 1.64 15.14 1.16 22.67-1.71 19.08-6.21 37.8-7.66 56.92-.79 8.63-.39 17.31-.49 25.98.02 11.94.83 24.39 6.49 35.17-9.98.11-19.96.33-29.94-.11-7.3-32.9-2.96-66.75 0-99.88-21.05 15.42-48.55 16.89-70.46 30.64-7.86 4.78-15.44 10.94-19.29 19.54-4.43 9.72-1.26 21.84 6.41 29.02 6.18 5.81 14.99 7.9 23.28 7.6 16.4-.71 31.97-7.86 44.61-18.09-6.56 11.99-18.58 19.66-30.78 25.01-14.38 6.31-30.25 8.99-45.91 8.04-13.42-.72-26.59-3.68-39.95-4.92-19.61-1.74-39.29.42-58.69 3.22-5.93-16.01-5.47-33.46-4.09-50.21 2.32-29.69 6.61-59.24 7.23-89.05.17-26.84 3.84-54.77-5.77-80.53zm432.04-.01c10.21.07 20.42-.13 30.63.16 4.36 30.63 4.27 61.65 3.35 92.5-.38 8.98-1.56 17.9-2.01 26.87 14.55-10.36 24.83-25.3 38.16-37.01 12.33-11.36 27.27-20.04 43.53-24.31 11.08-2.98 22.53-4.43 33.98-4.96-8.92 3.97-18.41 6.71-26.75 11.94-24.91 14.2-41.05 38.63-60.78 58.65 13.7 13.25 22.43 30.41 32.41 46.41 8.7 14.47 18.18 28.88 31.26 39.81 4.4 3.76 9.58 6.4 14.43 9.5-10.63.39-21.32.56-31.93.08-5.37-2.18-9.52-6.53-13.89-10.22-13.96-12.94-23.62-29.58-32.91-45.98-7.75-13.89-15.61-28.28-27.98-38.66-1.26 13.25-2.65 26.49-3.67 39.77-1.03 12.5-1.66 25.11-.34 37.62.68 6.13 2.41 12.14 5.35 17.57-10.12.09-20.25.44-30.35-.25-4.48-8.57-4.51-18.51-4.64-27.94.83-42.07 7.79-83.8 7.65-125.91.14-15.38.06-30.78-1.09-46.13-.57-6.67-1.95-13.28-4.41-19.51zm-121.82 62.53c16.26-9.2 35.77-11.41 54.07-8.8 14.95 2.19 28.92 11.2 36.27 24.53 5.76 10.06 7.83 22.07 6.19 33.51-3.53 24.12-5.6 48.52-4.92 72.91.47 11.99 1.49 24.56 7.86 35.07-8.81 0-17.66.46-26.44-.18-6.05-6.27-6.54-15.73-7.16-23.96-.26-14.68-.77-29.47 1.36-44.05 2.07-16.93 6.17-33.81 4.82-50.98-.52-7.58-3.99-15.26-10.39-19.63-10.02-6.94-22.65-9-34.61-8.2-17.04.92-34.08 8.63-44.68 22.23-5.97 7.44-8.52 16.83-11.13 25.83-4.5 16.19-5.65 33.05-5.85 49.79-.54 16.44-3.02 34.79 6.99 49.13-10.38-.1-20.81.67-31.15-.27-2.82-8.33-3.63-17.13-4.15-25.84-1.45-19.16 1.78-38.23 4.55-57.13 2.9-18.82 5.31-37.91 3.78-56.98-.73-7.94-2.77-15.87-6.98-22.71 9.55.04 19.1.11 28.65.07 2.83-.41 4.17 2.6 4.97 4.79 2.58 8.01 2.5 16.55 2.54 24.88 6.78-9.55 14.96-18.45 25.41-24.01z"/><path d="M1441.5 185.92c13.26-4.25 27.37-5.28 41.22-4.95 11.26.56 23.02 1.47 33.09 7.03 7.43 3.94 13.07 10.66 16.8 18.11 2.62 5.25 1.95 11.28 1.85 16.95-1.15 21.84-6.86 43.15-7.96 65-.61 12.67-1.04 25.4-.06 38.07.59 7.62 2.28 15.23 5.79 22.06-8.49.12-16.99.17-25.48.14-1.48-.2-4.01.36-4.17-1.73-3.04-11.23-3.45-22.95-3.82-34.52-.13-21.33 1.94-42.59 3.81-63.81-14.11 10.1-30.87 15.28-47.27 20.32-14.49 4.95-29.76 11.04-39.4 23.55-9.61 12.59-4.57 33.3 9.72 40.11 8.63 3.86 18.53 3.27 27.54 1.12 12.26-2.93 23.96-8.38 33.79-16.33-6.73 12.7-18.74 21.68-31.58 27.59-11.4 5.07-24.26 7.56-36.65 5.31-9.76-1.67-18.87-7.03-24.89-14.89-9.43-12.11-10.89-29.54-4.22-43.27 6.76-14.13 19.74-24.58 34.52-29.4 19.57-7.49 40.38-11.16 59.79-19.08 6.27-2.6 12.44-5.92 17.1-10.94 4.42-5.19 4.72-12.78 2.55-18.99-1.99-6.06-6.89-10.74-12.43-13.63-7.15-3.79-15.32-5.01-23.31-5.31-12.73-.5-25.4 1.99-37.45 5.98-8.45 2.66-16.14 7.15-24.1 10.95 7.81-12.75 21.22-21 35.22-25.44zm187.6.37c12.6-4.88 26.38-5.84 39.74-4.71 12.05 1.23 23.98 6.16 32.52 14.91 8.84 8.86 14 21.13 14.63 33.59.41 6.68-1.06 13.26-1.85 19.86-3.02 23.21-4.88 46.69-3.42 70.1.55 9.77 2.28 19.83 7.75 28.15-9.16-.06-18.35.66-27.47-.38-5.68-7.66-6-17.57-6.29-26.71-.02-12.05-.42-24.12.65-36.13 1.44-15.02 4.89-29.81 5.55-44.91.3-8.54 0-17.81-5.15-25.04-5.5-7.15-14.3-10.97-22.91-12.81-16.32-3-33.95-.23-47.98 8.85-8.68 5.58-16 13.62-19.79 23.3-5.76 14.56-9.44 30-10.1 45.68-.47 11.34-.87 22.69-1.26 34.05-.33 11.69.63 24.25 7.63 34.1-10.69.06-21.39.54-32.05-.37-4.75-22.53-4.96-45.92-1.3-68.62 3.61-23.13 7.82-46.5 6.16-70-.46-8.34-2.72-16.52-6.54-23.94 10.3.02 20.59.15 30.89 0 5.6 8.92 4.73 19.8 5.12 29.86 8.4-13.01 20.82-23.57 35.47-28.83z"/></g></svg>