<svg xmlns="http://www.w3.org/2000/svg" viewBox="0 0 434.4 52"><path fill="#005089" d="M164.2 22.9h7.3c4.6 0 6.7-2.6 6.7-5.6 0-1.9-1.1-4.3-4.7-4.3H166l-1.8 9.9zm-9.6-21.7h22.8c8.3 0 14.7 2.5 14.7 13 0 7.2-4 12.5-10.5 13.7v.1c4.1 1.3 4.7 5.5 4.7 10.2s-.5 9.7.6 12.7h-13.2c-.5-1.3-.6-2.6-.6-4.9 0-2.4.7-5.4.7-7.9 0-2.6-1.8-4.5-5.6-4.5h-6l-3.3 17.3h-13.6l9.3-49.7zM40.2 14l-1 4.3-3.5 14.9h-9L40.2 14zM36.1 1.2L0 50.8h14.1l5-7.1H33l-1.6 7.1H45l9.8-49.7H36.1zm54.5 0L78.3 27.9h-.1l-.5-26.7H58.3l-9.4 49.6h12.9l6.1-34.2h.2l1.6 34.2H80l14.7-34.2h.2l-7 34.2h12.9l9.6-49.6zm23.4 0l-9.4 49.6h37.7l2.4-12.7h-23.8l1.2-6.2h21.7l2.2-11.8h-21.6l1.2-6.2h23.3l2.3-12.7zM333.2 46l-.1-.1c-2.9 4.3-7.4 6.1-12.2 6.1-15.8 0-18.3-14.7-18.3-20.9 0-15.6 8.1-31.1 25.7-31.1 10.1 0 18.5 5.6 18.7 18.6h-13.1c-.4-4.6-2.8-6.2-6.4-6.2-7.6 0-11 9-11 17.5 0 5.8 2.3 9.7 7.9 9.7 3.7 0 6.9-1.5 8.3-5.5h-6.3l2-10.6h18.4l-5.2 27.3h-8.8l.4-4.8zM198.8 1.2l-9.4 49.6h13.9l9.3-49.6zm17.2 0l-9.4 49.6h13.9l3.6-18.9h17.7l2.2-11.8h-17.7l1.2-6.2h20.9l2.4-12.7zm37.3 0L244 50.8h33.8l2.4-12.7h-20l7-36.9zm37.1 0l-9.3 49.6H295l9.3-49.6zm91.6 0l-3.2 17.2h-12.7l3.3-17.2h-13.9l-9.4 49.6H360l3.7-19.6h12.7l-3.8 19.6h13.9l9.4-49.6zm17.1 0l-2.4 12.7h8.9l-6.9 36.9h13.8l7-36.9H432l2.4-12.7z"/><path opacity=".3" fill="#093B78" d="M328.3 23.5L328 25h18.4l.3-1.5h-18.4z"/><linearGradient id="a" gradientUnits="userSpaceOnUse" x1="337.388" y1="34.701" x2="337.388" y2="6.212"><stop offset="0" stop-color="#fff"/><stop offset="1" stop-color="#fff" stop-opacity="0"/></linearGradient><path opacity=".3" fill="url(#a)" d="M328.3 23.5L328 25h18.4l.3-1.5h-18.4z"/><linearGradient id="b" gradientUnits="userSpaceOnUse" x1="170.887" y1="34.701" x2="170.887" y2="6.212"><stop offset="0" stop-color="#fff"/><stop offset="1" stop-color="#fff" stop-opacity="0"/></linearGradient><path opacity=".3" fill="url(#b)" d="M192.1 14.2c0-10.5-6.4-13-14.7-13h-22.8l-4.9 25.9c11.6-.4 23.8-.7 36.5-1 3.7-2.3 5.9-6.6 5.9-11.9zm-20.6 8.7h-7.3L166 13h7.5c3.6 0 4.7 2.4 4.7 4.3 0 3-2.1 5.6-6.7 5.6z"/><linearGradient id="c" gradientUnits="userSpaceOnUse" x1="30.002" y1="34.701" x2="30.002" y2="6.212"><stop offset="0" stop-color="#fff"/><stop offset="1" stop-color="#fff" stop-opacity="0"/></linearGradient><path opacity=".3" fill="url(#c)" d="M36.1 1.2L5.2 43.7c12.4-3.5 26.6-6.4 42.9-8.7l6.7-33.8H36.1zm-.5 31.9h-9L40.2 14l-1 4.3-3.6 14.8z"/><linearGradient id="d" gradientUnits="userSpaceOnUse" x1="81.193" y1="34.701" x2="81.193" y2="6.212"><stop offset="0" stop-color="#fff"/><stop offset="1" stop-color="#fff" stop-opacity="0"/></linearGradient><path opacity=".3" fill="url(#d)" d="M90.6 1.2L78.3 27.9h-.1l-.5-26.7H58.3L52 34.4c4.2-.6 8.5-1.1 13-1.6l2.9-16.2h.1l.8 15.7c6.4-.7 13-1.3 19.9-1.9l6-13.9h.1L92 30.1c4.2-.3 8.5-.6 12.8-.9l5.4-28.1H90.6z"/><linearGradient id="e" gradientUnits="userSpaceOnUse" x1="129.988" y1="34.701" x2="129.988" y2="6.212"><stop offset="0" stop-color="#fff"/><stop offset="1" stop-color="#fff" stop-opacity="0"/></linearGradient><path opacity=".3" fill="url(#e)" d="M124.4 20.1l1.2-6.2h23.3l2.3-12.7H114l-5.3 27.9c11.3-.7 23.3-1.3 35.9-1.8l1.3-7.2h-21.5z"/><linearGradient id="f" gradientUnits="userSpaceOnUse" x1="325.005" y1="34.701" x2="325.005" y2="6.212"><stop offset="0" stop-color="#fff"/><stop offset="1" stop-color="#fff" stop-opacity="0"/></linearGradient><path opacity=".3" fill="url(#f)" d="M327.5 12.4c3.5 0 6 1.6 6.4 6.2H347c-.1-13-8.6-18.6-18.7-18.6C313 0 304.9 11.7 303 25h13.8c1.1-6.7 4.5-12.6 10.7-12.6z"/><linearGradient id="g" gradientUnits="userSpaceOnUse" x1="203.373" y1="34.701" x2="203.373" y2="6.212"><stop offset="0" stop-color="#fff"/><stop offset="1" stop-color="#fff" stop-opacity="0"/></linearGradient><path opacity=".3" fill="url(#g)" d="M198.8 1.2L194.1 26c4.6-.1 9.2-.2 13.9-.2l4.6-24.5h-13.8z"/><linearGradient id="h" gradientUnits="userSpaceOnUse" x1="231.093" y1="34.701" x2="231.093" y2="6.212"><stop offset="0" stop-color="#fff"/><stop offset="1" stop-color="#fff" stop-opacity="0"/></linearGradient><path opacity=".3" fill="url(#h)" d="M226.3 20.1l1.2-6.2h20.9l2.4-12.7H216l-4.6 24.5c10.2-.1 20.8-.3 31.7-.4l1-5.2h-17.8z"/><linearGradient id="i" gradientUnits="userSpaceOnUse" x1="257.973" y1="34.701" x2="257.973" y2="6.212"><stop offset="0" stop-color="#fff"/><stop offset="1" stop-color="#fff" stop-opacity="0"/></linearGradient><path opacity=".3" fill="url(#i)" d="M253.3 1.2l-4.5 24.1c4.6 0 9.2-.1 13.9-.1l4.5-24h-13.9z"/><linearGradient id="j" gradientUnits="userSpaceOnUse" x1="295.126" y1="34.701" x2="295.126" y2="6.212"><stop offset="0" stop-color="#fff"/><stop offset="1" stop-color="#fff" stop-opacity="0"/></linearGradient><path opacity=".3" fill="url(#j)" d="M290.4 1.2l-4.5 23.9h13.9l4.5-23.9h-13.9z"/><linearGradient id="k" gradientUnits="userSpaceOnUse" x1="373.453" y1="34.701" x2="373.453" y2="6.212"><stop offset="0" stop-color="#fff"/><stop offset="1" stop-color="#fff" stop-opacity="0"/></linearGradient><path opacity=".3" fill="url(#k)" d="M382 1.2l-3.3 17.2H366l3.3-17.2h-13.9L351 25h40.4l4.5-23.9H382z"/><linearGradient id="l" gradientUnits="userSpaceOnUse" x1="415.551" y1="34.701" x2="415.551" y2="6.212"><stop offset="0" stop-color="#fff"/><stop offset="1" stop-color="#fff" stop-opacity="0"/></linearGradient><path opacity=".3" fill="url(#l)" d="M432 13.9l2.4-12.7h-35.2l-2.4 12.7h8.9L403.5 25h13.9l2.1-11.1H432z"/></svg>