<svg xmlns="http://www.w3.org/2000/svg" version="1.1" id="layer" x="0" y="0" xml:space="preserve" width="600" height="252.8"><style type="text/css" id="style2">.st0{fill:#a29064}</style><g id="Version_couleur" transform="translate(-26.9 -199.7)"><path class="st0" id="rect4" fill="#a29064" d="M146.5 361.6h.7v.7h-.7z"/><path class="st0" id="rect6" fill="#a29064" d="M122.7 378.9h.7v.7h-.7z"/><path class="st0" d="M217.3 349.7h30.5l-1.3-25.1c-.2-3.4-.3-7.7-.4-12.9-.1-5.2-.2-8.9-.2-11.2h-.9zm21.6 42.2l.9-3.8c2-.1 3.9-.8 5.5-2 1.4-1.3 2.4-2.9 2.8-4.8.6-2.6.9-5.3.8-8 0-2 0-4.2-.2-6.6l-.5-10.1h-34.4l-4.3 7.7c-1.7 3-3.2 6.1-4.4 9.3-.9 2.2-1.3 4.5-1.4 6.8 0 4.4 2.6 7 7.9 7.8l-.9 3.8h-32l.9-3.8c1.7-.2 3.2-.9 4.6-1.9 1.7-1.4 3.3-3 4.6-4.8 2.4-3.4 4.7-7 6.8-10.7l50-86.5h11.8l5.6 87c.1 3.3.6 6.5 1.4 9.6.5 1.9 1.4 3.7 2.8 5.2 1.4 1.2 3.2 2 5.1 2.1l-.9 3.8z" id="path8" fill="#a29064"/><path class="st0" d="M381.4 285.3H406l-.9 3.8c-1.5.2-2.9.7-4.3 1.4-.9.6-1.7 1.4-2.3 2.3-.9 1.5-1.6 3.2-2.1 4.9-.7 2.2-1.6 5.8-2.7 10.8l-13.4 60.6c-.7 3.1-1.1 5.5-1.3 7.3-.2 1.6-.3 3.3-.3 4.9-.2 1.8.5 3.7 1.8 5 1.8 1.2 3.8 1.8 5.9 1.8l-.9 3.8h-31.2l.9-3.8c1.6-.2 3.1-.7 4.4-1.5 1.1-.8 1.9-1.8 2.5-2.9.8-1.5 1.4-3 1.9-4.6.6-1.8 1.4-5.3 2.6-10.4l10.4-47.1c1.4-6.2 3.1-12.8 5.2-19.9H381c-1.5 2.8-3 5.5-4.5 8.1-1.5 2.6-3.7 6.3-6.6 11.1l-35.5 58.6h-8.5l-7.5-58.6-2.1-21h-1.6c-2 13-4 24.1-5.9 33.2l-7.5 34c-.9 3.9-1.5 6.9-1.8 8.9-.2 1.8-.4 3.5-.4 5.3-.2 1.8.5 3.7 1.8 5 1.7 1.2 3.8 1.8 5.9 1.8l-.9 3.8h-27.3l.9-3.8c1.6-.2 3.1-.7 4.4-1.5 1.1-.8 1.9-1.8 2.5-2.9.8-1.5 1.4-3 1.9-4.6.6-1.8 1.4-5.3 2.6-10.4l13.3-60.1c.5-2.2.9-4.4 1.2-6.4.3-2 .5-4.1.5-6.2.2-1.9-.5-3.8-1.9-5.1-1.7-1.1-3.7-1.7-5.8-1.7l.9-3.8H327l8.9 75.7z" id="path10" fill="#a29064"/><path class="st0" d="M416.6 388.5c-1.3 6.8-3.6 13.3-6.8 19.4-2.5 4.5-6.2 8.2-10.7 10.7-5 2.5-10.6 3.7-16.2 3.6-1.4 0-2.8 0-4.1-.2-1.1-.1-2.2-.3-3.3-.6l2-7.5c.9.3 1.8.4 2.8.5 1 0 2.1.1 3.2.1 2.8.1 5.5-.7 7.8-2.1 2.6-1.9 4.7-4.4 6-7.3 2.2-4.5 3.7-9.3 4.7-14.2l18.3-82.3c.5-2.3.9-4.6 1.2-6.8.3-1.9.4-3.8.5-5.7.2-1.9-.5-3.8-1.9-5.1-1.7-1.1-3.7-1.7-5.8-1.7l.9-3.8h31.2l-.9 3.8c-1.5.2-2.9.7-4.2 1.4-.9.6-1.7 1.4-2.3 2.3-.9 1.5-1.6 3.2-2.1 4.9-.7 2.2-1.6 5.8-2.7 10.8z" id="path12" fill="#a29064"/><path class="st0" d="M532 285.3l-5.3 24h-7.5c-.1-3-.5-5.9-1-8.8-.3-1.6-.7-3.2-1.4-4.7-.4-.9-1-1.7-1.8-2.3-.8-.5-1.6-.9-2.5-1-1.4-.2-2.9-.4-4.3-.3h-25.5l-8.9 40.9h14.9c2 .1 3.9-.3 5.7-.9 1.7-.7 3.1-1.8 4.3-3.2 1.7-2.2 3.2-4.6 4.4-7.1h7.1l-7.1 30h-6.6c0-2.1-.1-4.2-.3-6.3-.1-1-.4-2-.8-3-.3-.6-.7-1.1-1.3-1.5-.6-.4-1.3-.7-2-.8-1.4-.2-2.8-.3-4.1-.2h-15.5l-10 45h23.1c1.9 0 3.9-.1 5.8-.5 1.5-.3 3-.9 4.3-1.8 1.4-.9 2.6-2 3.7-3.2 1.4-1.6 2.6-3.3 3.7-5.1 1.3-2.1 3-5.3 5.2-9.5h7.6l-6.9 27h-69.3l.9-3.8c1.6-.2 3.1-.7 4.4-1.5 1.1-.8 1.9-1.8 2.5-2.9.8-1.5 1.4-3 1.9-4.6.6-1.8 1.4-5.3 2.6-10.4l13.3-60.1c1-4.1 1.6-8.3 1.8-12.6.2-1.9-.5-3.8-1.9-5.1-1.7-1.1-3.7-1.7-5.8-1.7l.9-3.8z" id="path14" fill="#a29064"/><path class="st0" d="M577.4 391.9h-32.9l.9-3.8c1.6-.1 3.1-.5 4.5-1.2 1.1-.6 1.9-1.5 2.6-2.5 1-1.6 1.8-3.3 2.3-5.1.8-2.4 1.7-5.9 2.7-10.7l16.7-76.4h-10c-2.7-.1-5.3.4-7.7 1.4-2.3 1.3-4.3 3.1-5.8 5.2-2.8 4-5.2 8.3-7.1 12.8h-7.5l5.8-26.3h81.5l-6 27.4h-7.5c0-5-.1-8.8-.4-11.4-.1-2-.6-4-1.5-5.8-.6-1.2-1.5-2.1-2.7-2.7-1.8-.6-3.7-.9-5.7-.7h-11.5l-16.9 77c-.5 2-.8 3.6-1 4.8-.2 1.2-.3 2.5-.5 3.8-.1 1.3-.2 2.5-.2 3.6-.1 1.3.2 2.6.8 3.8.5.9 1.4 1.6 2.3 2 1.7.5 3.5.9 5.3.9z" id="path16" fill="#a29064"/><path class="st0" d="M447.3 404.9l-1.4 6.2H444c0-.8-.1-1.5-.2-2.3-.1-.4-.2-.8-.4-1.2-.1-.2-.3-.4-.5-.6-.2-.1-.4-.2-.7-.3h-7.7l-2.3 10.7h3.9c.5 0 1-.1 1.5-.2.4-.2.8-.5 1.1-.9.4-.5.8-1.1 1.1-1.8h1.8l-1.8 7.8H438v-1.7c0-.3-.1-.5-.2-.8-.1-.2-.2-.3-.3-.4-.2-.1-.3-.2-.5-.2h-5.2l-2.6 11.7h6c.5 0 1 0 1.5-.1.4-.1.8-.2 1.1-.5.4-.2.7-.5 1-.8.4-.4.7-.9 1-1.3.3-.6.8-1.4 1.4-2.5h2l-1.8 7.1h-18.1l.2-1c.4 0 .8-.2 1.2-.4.3-.2.5-.5.6-.8.2-.4.4-.8.5-1.2.2-.5.4-1.4.7-2.7l3.4-15.7c.3-1.1.4-2.2.4-3.3.1-.5-.1-1-.5-1.3-.4-.3-1-.4-1.5-.4l.2-1z" id="path18" fill="#a29064"/><path class="st0" d="M459.1 404.9l-.2 1c-.5.1-1 .3-1.4.6-.4.4-.5.8-.5 1.3.1 1.1.3 2.2.7 3.3l1.7 4.9 4.4-5.5.6-.8c.2-.3.4-.5.5-.8.1-.2.2-.4.3-.7.1-.2.1-.3.2-.5v-.4c0-.3-.1-.7-.3-.9-.3-.3-.7-.4-1.1-.4l.2-1h7.6l-.2 1c-.4.1-.8.3-1.1.6-.5.4-.9.8-1.3 1.2-.5.6-1.4 1.6-2.8 3.2l-6.1 7.2 3 8.3c.4 1.2.8 2.2 1.1 2.8.2.5.5 1 .8 1.5.2.2.3.4.6.6.3.2.6.3 1 .4l-.2 1h-8.2l.2-1c.5-.1 1-.3 1.4-.6.3-.3.5-.8.5-1.3 0-.9-.2-1.8-.5-2.7l-2.1-6.2-4.6 5.8-1.5 2.1c-.3.4-.4.9-.5 1.4 0 .3 0 .5.1.8.1.2.3.4.5.5.3.1.6.2.9.2l-.2 1H445l.2-1c.3-.1.5-.2.7-.3.2-.1.5-.3.7-.5.4-.3.7-.7 1-1 .4-.5.9-1 1.5-1.7l7.9-9.4-3-8.4c-.3-.8-.6-1.5-.8-2.1-.2-.5-.4-.9-.7-1.3-.2-.3-.4-.5-.7-.7-.3-.2-.6-.3-.9-.4l.2-1z" id="path20" fill="#a29064"/><path class="st0" d="M493.7 404.9l-1.4 6.2h-2c0-.8-.1-1.5-.2-2.3-.1-.4-.2-.8-.4-1.2-.1-.2-.3-.4-.5-.6-.2-.1-.4-.2-.7-.3h-7.8l-2.3 10.7h3.9c.5 0 1-.1 1.5-.2.4-.2.8-.5 1.1-.9.4-.5.8-1.1 1.1-1.8h1.8l-1.8 7.8h-1.8v-1.7c0-.3-.1-.5-.2-.8-.1-.2-.2-.3-.3-.4-.2-.1-.3-.2-.5-.2H478l-2.6 11.7h6c.5 0 1 0 1.5-.1.4-.1.8-.2 1.1-.5.4-.2.7-.5 1-.8.4-.4.7-.9 1-1.3.3-.6.8-1.4 1.4-2.5h2l-1.8 7.1h-18l.2-1c.4 0 .8-.2 1.2-.4.3-.2.5-.5.6-.8.2-.4.4-.8.5-1.2.2-.5.4-1.4.7-2.7l3.4-15.7c.3-1.1.4-2.2.4-3.3.1-.5-.1-1-.5-1.3-.4-.3-1-.4-1.5-.4l.2-1z" id="path22" fill="#a29064"/><path class="st0" d="M516.1 405.7l-1.2 5.5h-2c0-1.3-.4-2.5-1.1-3.6-.8-.8-1.9-1.2-3-1.1-1.1 0-2.3.4-3.2 1-1.1.8-2.1 1.8-2.8 2.9-1 1.4-1.7 2.9-2.3 4.4-.7 1.7-1.2 3.4-1.5 5.2-.3 1.6-.5 3.2-.5 4.8-.1 1.7.2 3.4 1.1 4.9.8 1.1 2.1 1.6 3.4 1.5.9 0 1.8-.1 2.7-.5.8-.3 1.5-.9 2.1-1.5.8-.9 1.5-1.9 2-3h1.9l-1.2 5.8c-1.3.4-2.6.6-4 .8-1.3.2-2.6.2-4 .2-1.5 0-3-.3-4.3-1-1.2-.7-2.1-1.8-2.7-3-.6-1.5-.9-3.1-.9-4.8 0-1 .1-1.9.2-2.9.2-1.3.4-2.5.8-3.7.4-1.6 1-3.1 1.7-4.6.7-1.4 1.5-2.7 2.5-3.8.8-1 1.8-1.9 2.9-2.6.9-.6 2-1.1 3.1-1.5 1.1-.4 2.3-.5 3.6-.5 1.1 0 2.3.1 3.4.2 1.2.2 2.4.5 3.6.8" id="path24" fill="#a29064"/><path class="st0" d="M519.8 405.9l.2-1h8.2l-.2 1c-.4.1-.8.2-1.1.4-.2.2-.5.4-.6.6-.2.4-.4.8-.6 1.3-.2.6-.4 1.5-.7 2.8l-2.5 11.4c-.2.8-.3 1.5-.4 2.2-.1.7-.1 1.4-.1 2.2-.1 1.2.3 2.4 1.1 3.4.9.8 2.1 1.2 3.3 1.1 1.2 0 2.4-.2 3.4-.9 1-.6 1.7-1.4 2.2-2.5.6-1.3 1.1-2.7 1.4-4.2l2.8-12.8.3-1.8c.1-.5.1-1 .1-1.5.1-.5-.1-1-.5-1.3-.5-.3-1-.4-1.5-.4l.2-1h7.7l-.2 1c-.4.1-.8.2-1.1.4-.2.2-.5.4-.6.6-.2.4-.4.8-.5 1.3-.2.6-.4 1.5-.7 2.8l-2.6 12.2c-.4 2.1-1.1 4-2.2 5.8-.9 1.4-2.1 2.4-3.6 3.1-1.7.7-3.5 1-5.3 1-1.9.1-3.8-.5-5.3-1.8-1.3-1.3-2-3.1-1.9-5 0-.9.1-1.7.2-2.6.1-1 .4-2.1.7-3.3l2.1-9.5c.2-.7.3-1.4.4-1.9.1-.4.1-.9.1-1.4 0-.5-.1-1-.5-1.3-.5-.3-1.1-.4-1.7-.4" id="path26" fill="#a29064"/><path class="st0" d="M555.3 432.7h-8.6l.2-1c.4 0 .8-.1 1.2-.3.3-.1.5-.4.7-.6.3-.4.5-.9.6-1.3.2-.6.4-1.5.7-2.8l4.4-19.9h-2.6c-.7 0-1.4.1-2 .4-.6.3-1.1.8-1.5 1.4-.7 1.1-1.3 2.2-1.8 3.3h-2l1.5-6.9h21.2l-1.6 7.1h-1.9c0-1.3 0-2.3-.1-2.9 0-.5-.2-1-.4-1.5-.1-.3-.4-.6-.7-.7-.5-.2-1-.2-1.5-.2h-3l-4.5 20.1c-.1.5-.2 1-.3 1.3-.1.3 0 .6-.1 1-.1.3 0 .7 0 .9 0 .3.1.7.2 1 .1.2.4.4.6.5.5.1.9.2 1.4.2z" id="path28" fill="#a29064"/><path class="st0" d="M572.4 426.8c-.1.6-.3 1.3-.3 1.9v1.3c-.1.5.1 1 .5 1.3.5.3 1 .5 1.5.5l-.2 1h-8.1l.2-1c.4 0 .8-.2 1.2-.4.3-.2.5-.5.6-.8.2-.4.4-.8.5-1.2.1-.5.4-1.4.7-2.7l3.4-15.7.3-1.8c.1-.5.1-1 .1-1.5.1-.5-.1-1-.5-1.3-.4-.3-1-.4-1.5-.4l.2-1h8.1l-.2 1c-.4.1-.8.2-1.1.4l-.6.6c-.2.4-.4.8-.6 1.3-.2.6-.4 1.5-.7 2.8z" id="path30" fill="#a29064"/><path class="st0" d="M590.6 404.9l-.2 1c-.5 0-1 .2-1.4.5-.4.3-.6.7-.7 1.2-.2.7-.2 1.4-.2 2v.9l.6 15.9v1.6h.2l8.9-15.9 1.2-2.4c.2-.6.4-1.2.4-1.8 0-.5-.1-1-.5-1.3-.4-.4-1-.7-1.6-.7l.2-1h8.3l-.2 1c-.4.1-.7.2-1 .4-.4.3-.8.7-1.1 1.1-.7 1-1.3 2-1.9 3l-13 22.5h-2.9l-1.4-22.7c0-.8-.1-1.5-.3-2.3-.1-.5-.3-1-.7-1.5-.4-.4-.9-.6-1.5-.7l.2-1z" id="path32" fill="#a29064"/><path class="st0" d="M626.9 404.9l-1.4 6.2h-2c0-.8-.1-1.5-.2-2.3-.1-.4-.2-.8-.4-1.2-.1-.2-.3-.4-.5-.6-.2-.1-.4-.2-.7-.3H614l-2.3 10.7h3.9c.5 0 1-.1 1.5-.2.4-.2.8-.5 1.1-.9.4-.5.8-1.1 1.1-1.8h1.8l-1.8 7.8h-1.8v-1.7c0-.3-.1-.5-.2-.8-.1-.2-.2-.3-.3-.4-.2-.1-.3-.2-.5-.2h-5.2l-2.6 11.7h6c.5 0 1 0 1.5-.1.4-.1.8-.2 1.1-.5.4-.2.7-.5 1-.8.4-.4.7-.9 1-1.3.3-.6.8-1.4 1.4-2.5h2l-1.8 7.1h-18.1l.2-1c.4 0 .8-.2 1.2-.4.3-.2.5-.5.7-.8.2-.4.3-.8.5-1.2.1-.5.4-1.4.7-2.7l3.4-15.7c.3-1.1.4-2.2.5-3.3.1-.5-.1-1-.5-1.3-.4-.3-1-.4-1.5-.4l.2-1z" id="path34" fill="#a29064"/><radialGradient id="SVGID_1_" cx="154.232" cy="313.146" r="68.994" gradientTransform="matrix(1 0 0 -1 0 654)" gradientUnits="userSpaceOnUse"><stop offset=".09" id="stop36" stop-color="#fff"/><stop offset=".14" id="stop38" stop-color="#fbfaf8"/><stop offset="1" id="stop40" stop-color="#a29064"/></radialGradient><circle cx="122.8" cy="342.2" r="52.3" id="circle43" fill="url(#SVGID_1_)"/><path class="st0" d="M123 282.1s1.2-49.7 6.4-49.7 10 42.3 10.1 42.5c-2.6 1.2-5.3 2.4-8 3.6-2.5.9-5.4 2.1-8.5 3.6zm16.7-7.3h-.2l9.7-5.2zM93.6 389.3c-31.1 25.2-66.7 42.6-66.7 42.6l7.5 20.6s38.9-23.6 71.1-54.6l3.2-3.2c16.2-16.2 30.2-34.1 35.8-51.8 5.9-18.6 8.3-38.1 7.1-57.6 34.7-15.7 41.8-30.6 41.8-30.6v-13.4s-1.8 5.5-14.2 9.5c-9.9 3.2-16.8 1-16.8 1 .4 7.1-4.9 12.8-12.9 17.8 0-.2-7.3-69.9-18-69.9-12.5 0-15.2 85.5-15.2 85.5-7.8 3.7-15.1 8.2-22 13.3 0 0 16.3-12.3 42.3-6.9l5.5-2.2c1.4 14.2.9 36.8-10.9 58.2-7.5 13.7-20 26.8-33.8 38.4z" id="path45" fill="#a29064"/><path class="st0" d="M114 394c26 15.3 55.8 19.1 55.8 19.1l.3-3.8c-19.3-3.6-34.2-8.7-46-14.6-3.3 0-6.7-.2-10.1-.7" id="path47" fill="#a29064"/></g></svg>