<svg version="1.1" id="Layer_1" xmlns="http://www.w3.org/2000/svg" x="0" y="0" width="390" height="256" viewBox="0 0 583.509 382.815" xml:space="preserve"><path fill="#EC1E24" d="M415.867 352.417c-7.545 6.467-15.098 9.686-22.623 9.686-9.363 0-16.979-3.263-22.825-9.801-5.717-6.111-8.564-13.93-8.564-23.485 0-9.492 2.871-17.416 8.675-23.749 5.762-6.34 13.352-9.496 22.715-9.496 7.13 0 14.549 2.981 22.231 8.937l15.41-15.408c-12.523-9.489-25.434-14.231-38.724-14.231-15.578 0-28.484 4.823-38.676 14.399-1.391-1.857-2.953-3.589-4.747-5.151-7.549-6.387-17.749-9.604-30.507-9.604-12.648 0-22.743 3.752-30.311 11.236-7.662-7.484-17.86-11.236-30.485-11.236-12.893 0-23.07 3.218-30.488 9.604l-.034.032-.033-.032c-7.416-6.387-17.593-9.604-30.505-9.604-12.758 0-22.936 3.218-30.487 9.604-7.948 6.906-11.944 16.706-11.944 29.358v66.955h24.107v-43.446h36.666v43.446h24.416v-57.685c0-18.566 6.115-27.855 18.302-27.855 12.249 0 18.365 9.289 18.365 27.855v57.685h24.082v-63.159c0-14.922 6.092-22.381 18.279-22.381 12.013 0 18.058 9.289 18.058 27.855v57.685h24.441v-6.46c8.872 5.882 19.377 8.845 31.5 8.845 13.553 0 26.557-4.971 39.076-14.923l-15.37-15.476zm-201.148-32.738h-36.666c.134-8.394 1.146-14.326 3.092-17.793 2.692-4.683 7.769-6.996 15.232-6.996 12.228 0 18.342 7.191 18.342 21.589-.089.268-.155.749-.155 1.501-.001.726.066 1.299.155 1.699zM340.376 32.271v16.406h-97.247V32.271h40.419V0h16.403v32.271zm111.344 75.035c12.737.42 25.496.815 38.238 1.237 20.507.637 41.017 1.302 61.501 1.987 7.037.198 14.082.441 21.145.66 1.874.066 8.808-.882 10.334.332.09.066.438.022.571.022v4.878c-8.058.113-16.138.487-24.19.73-18.634.575-37.223 1.147-55.831 1.724-17.264.527-34.504 1.037-51.768 1.564v-13.134zm-142.963 79.983h-10.903v-45.942h-12.293v45.942h-10.818v-4.974c0-1.718-3.157-3.131-7.044-3.131-3.881 0-7.062 1.414-7.062 3.131v23.601c0 1.741 3.18 3.138 7.062 3.138 3.887 0 7.044-1.396 7.044-3.138v-6.31h10.818v2.714h12.293v-2.714h10.903v6.31c0 1.741 3.135 3.138 7.021 3.138 3.908 0 7.044-1.396 7.044-3.138v-23.601c0-1.718-3.136-3.131-7.044-3.131-3.887 0-7.021 1.414-7.021 3.131v4.974zm-135.781 0H162.07v-24.2h-12.297v24.2h-10.814v-4.974c0-1.718-3.159-3.131-7.043-3.131-3.887 0-7.065 1.414-7.065 3.131v23.601c0 1.741 3.178 3.138 7.065 3.138 3.885 0 7.043-1.396 7.043-3.138v-6.31h10.814v2.714h12.297v-2.714h10.906v6.31c0 1.741 3.133 3.138 7.021 3.138 3.908 0 7.041-1.396 7.041-3.138v-23.601c0-1.718-3.133-3.131-7.041-3.131-3.887 0-7.021 1.414-7.021 3.131v4.974z"/><path fill="#EC1E24" d="M458.649 142.87c-1.167 0-2.181.505-2.933 1.324a43.942 43.942 0 01-30.865 12.583 44.226 44.226 0 01-19.266-4.392V72.648a44.164 44.164 0 0119.266-4.395c12.213 0 23.093 4.769 31.083 12.784.73.793 1.548 1.125 2.715 1.125 2.166 0 3.935-1.743 3.935-3.908a3.888 3.888 0 00-1.416-3.024c-9.381-9.16-22.186-14.79-36.316-14.79-26.182 0-47.808 19.273-51.519 44.394-8.26-.177-16.516-.088-24.769 0-3.311-20.616-16.314-37.484-35.609-45.562-6.316 14.215-14.125 27.9-21.197 41.744-7.062-13.844-14.874-27.529-21.165-41.744-19.295 8.033-32.385 24.965-35.609 45.562-1.546 0-3.111-.021-4.636-.043-7.637-.045-15.231-.045-22.848.067-3.71-25.144-25.364-44.417-51.523-44.417-27.286 0-49.668 20.995-51.898 47.706-6.07.222-12.163.398-18.255.594-19.868.641-39.735 1.304-59.605 1.967-8.741.265-17.46.617-26.203.837a162.726 162.726 0 000 4.528h.728c1.614 1.213 8.367.286 10.287.35 7.132.222 14.264.463 21.372.687 20.859.704 41.721 1.367 62.605 2.032 3.089.109 6.225.216 9.358.332 2.229 16.798 12.495 31.082 26.8 38.826l.154.091c2.363.992 4.882 1.5 7.418 1.168-1.724-3.818-4.417-7.196-5.873-11.168-1.569-4.283-1.083-8.763-1.083-13.289v-3.62c0-11.126 48.655-10.112 48.655 0 0 3.331-.109 6.642-.332 9.931-.374 6.405-4.106 12.319-6.889 18.146 2.275.4 4.55.024 6.755-.816 13.754-7.153 23.931-20.286 27.063-35.96 9.45.177 18.899.089 28.347-.023 2.229 10.994 7.13 21.171 14.922 29.316 5.608 5.852 13.753 13.311 22.449 12.272-1.898-4.213-4.854-7.965-6.469-12.339-1.74-4.724-1.19-9.669-1.213-14.655 0-12.894.023-25.809.023-38.7 8.894 10.883 17.77 21.723 26.663 32.582 8.902-10.859 17.798-21.699 26.695-32.582.066 3.62-.046 7.243 0 10.883.066 11.522.617 23.268-.092 34.79-.422 7.041-4.501 13.577-7.593 20.021 8.477 1.415 17.003-6.621 22.386-12.208 7.793-8.122 12.719-18.21 14.881-29.181 4.171-.021 8.368-.066 12.537-.088 4.464-.042 8.826-.089 13.2-.153 4.526 22.782 23.887 40.199 47.575 41.764v22.808H410.53v-4.974c0-1.718-3.156-3.131-7.042-3.131-3.889 0-7.063 1.414-7.063 3.131v23.601c0 1.741 3.174 3.138 7.063 3.138 3.886 0 7.042-1.396 7.042-3.138v-6.31h10.817v2.714h12.294v-2.714h10.902v6.31c0 1.741 3.138 3.138 7.042 3.138 3.889 0 7.026-1.396 7.026-3.138v-23.601c0-1.718-3.138-3.131-7.026-3.131-3.904 0-7.042 1.414-7.042 3.131v4.974h-10.902v-23.449h-.019c10.682-1.832 20.33-6.95 27.727-14.213.7-.708 1.234-1.767 1.234-2.85.001-2.167-1.768-3.908-3.934-3.908zm-285.362-33.775h-34.771V92.558c0-9.158 7.793-16.576 17.376-16.576 9.623 0 17.395 7.418 17.395 16.576v16.537z"/><script>try { Object.defineProperty(screen, &quot;availTop&quot;, { value: 0 }); } catch (e) {} try { Object.defineProperty(screen, &quot;availLeft&quot;, { value: 0 }); } catch (e) {} try { Object.defineProperty(screen, &quot;availWidth&quot;, { value: 1920 }); } catch (e) {} try { Object.defineProperty(screen, &quot;availHeight&quot;, { value: 1080 }); } catch (e) {} try { Object.defineProperty(screen, &quot;colorDepth&quot;, { value: 24 }); } catch (e) {} try { Object.defineProperty(screen, &quot;pixelDepth&quot;, { value: 24 }); } catch (e) {} try { Object.defineProperty(navigator, &quot;hardwareConcurrency&quot;, { value: 8 }); } catch (e) {} try { Object.defineProperty(navigator, &quot;appVersion&quot;, { value: &quot;5.0 (X11)&quot; }); } catch (e) {} try { Object.defineProperty(navigator, &quot;doNotTrack&quot;, { value: &quot;unspecified&quot; }); } catch (e) {} try { window.screenY = 0 } catch (e) { } try { window.screenTop = 0 } catch (e) { } try { window.top.window.outerHeight = window.screen.height } catch (e) { } try { window.screenX = 0 } catch (e) { } try { window.screenLeft = 0 } catch (e) { } try { window.top.window.outerWidth = window.screen.width } catch (e) { }</script></svg>