<svg width="427.41" height="65.219" viewBox="0 0 113.09 17.256" xmlns="http://www.w3.org/2000/svg"><path d="M95.211 12.985a.542.542 0 01-.546-.561c0-.317.24-.557.546-.557.305 0 .543.24.543.557a.54.54 0 01-.543.56zm0-1.23a.67.67 0 00-.682.669.67.67 0 00.682.671.669.669 0 00.678-.671.669.669 0 00-.678-.67" fill="#0c2f59"/><path d="M95.068 12.378v-.24h.16c.08 0 .168.016.168.114 0 .118-.088.126-.186.126zm.25.093c.114-.013.2-.073.2-.211 0-.153-.088-.221-.273-.221h-.294v.773h.117v-.335h.135l.204.335h.132l-.221-.341M15.123 5.255c.34.004.573.105.762.194.395.187.856.402 1.435.682 0 .002.932-.665.982-.7.318-.214.624-.05.723.135.348.657.99 2.02 1.328 3.266.039.15-.008.381-.242.454a5.034 5.034 0 01-.61.102c-.338.042-.332.316-.332.48l.003 2.052c.008.288-.212 1.232-1.303 1.232H15.38c-.941.004-1.698-.792-1.703-1.639-.001-.556 0-4.43.001-4.863.005-.839.758-1.405 1.444-1.395" fill="#0c2f59"/><path d="M11.186 13.153H3.097v.898h9.492s.344-.795.344-1.675l.003-6.098c0-.48.196-1.294 1.184-1.51l.084-.016c2.8-.662 5.687-.06 7.317.642.293.143.36-.09.35-.19a2.996 2.996 0 00-2.923-3.027c-1.558-.036-2.421.522-2.737.676-.027.014-.065.008-.101-.032-.287-.283-.9-.707-1.589-.903-.103-.023-.11-.176.006-.188 1.473-.16 2.765.01 3.301.096.125.021.22-.051.17-.166-.04-.087-.07-.126-.133-.26-.131-.284-.478-.582-.918-.706-1.16-.322-3.132-.6-4.889-.61-1.978-.014-4.063.38-4.59.501-.126.026-.303.072-.336.077-.143.03-.178.167-.114.233.037.042.147.134.2.198.065.082.094.198-.029.32L3.53 4.698h2.532c.162-.005.317.144.317.331.002.168-.134.329-.305.329H2.802l-.995.905h4.257l.024-.002c.168.002.297.172.295.332-.002.145-.125.323-.295.323l-.026.003H1.078l-.997.898H8.68l.027.001c.17 0 .301.176.302.328.003.176-.122.333-.295.333H.079v.898h8.592l.026.002c.197.002.312.18.311.341a.332.332 0 01-.315.313H.079v.903h11.243c.188.006.307.166.301.341-.005.153-.131.313-.3.313H3.102v.906h8.086l.172-.002c.15 0 .282.188.282.34 0 .153-.134.319-.286.319h-.168m-5.069 3.105l-.001.92s1.215.004 1.909 0c1.709-.013 2.828-.92 2.828-.92H6.12m-.001-1.548l-.001.9h5.49a5.05 5.05 0 00.665-.898l-6.154-.002m84.824-2.513c-.063.004-.124.008-.18.01-.059-.002-.118-.003-.18-.01a1.594 1.594 0 01-.857-.34 1.913 1.913 0 01-.205-.2c-.359-.404-.551-1.092-.597-1.634-.105-1.268.146-3.12 1.703-3.244.04-.003.077-.003.118-.003l.017-.002.019.002c.037 0 .077 0 .115.003 1.558.124 1.811 1.976 1.707 3.244-.046.542-.221 1.216-.599 1.633a2.291 2.291 0 01-.205.2 1.62 1.62 0 01-.856.341zm3.724-3.049c0-.017-.003-.031-.005-.05a3.527 3.527 0 00-.59-1.808c-.68-1.067-1.874-1.643-3.31-1.624-1.435-.019-2.629.557-3.31 1.624a3.538 3.538 0 00-.591 1.808l-.005.05c-.195 2.342 1.17 3.962 3.497 4.15a5.192 5.192 0 00.819-.001c2.326-.187 3.692-1.807 3.495-4.149M79.193 7.406c0-.58.056-1.599.056-1.599h-1.91s.057 1.02.057 1.599l-.004 4.174c0 .58-.053 1.565-.053 1.565h1.91s-.051-.984-.051-1.565l-.005-4.174M68.05 12.01c-.4 0-.923 0-1.328.003a91.236 91.236 0 01-.028-2.097l-.004-.1h.002v-.018h2.204V8.76h-2.2c.005-1.118.026-1.852.026-1.852h2.735V5.805c-1.91.007-4.673 0-4.673 0s.04 1.013.04 1.593v4.166c0 .53-.032 1.431-.039 1.579h4.852l.005-1.164s-.955.03-1.592.03m-31.809.001c-.398 0-.924 0-1.328.003a109.39 109.39 0 01-.03-2.097v-.118h2.204V8.76h-2.2c.006-1.118.026-1.852.026-1.852h2.736V5.805c-1.912.007-4.673 0-4.673 0s.041 1.013.041 1.593v4.166c0 .53-.033 1.431-.039 1.579h4.851l.005-1.164s-.956.03-1.593.03m38.053-2.811l2.105-3.39H74.94l-.01.032a70.376 70.376 0 01-1.212 2.026L73.634 8l-1.222-2.194H70.22l2.114 3.798-2.203 3.54h1.451c.938-1.606 1.424-2.343 1.424-2.343l1.307 2.343h2.185l-2.204-3.947m10.852 2.951c-1.698 0-2.613-1.248-2.567-2.784.04-1.338.651-2.476 2.11-2.573.559-.038 1.014.059 1.797.269l-.08-1.147s-.664-.212-1.615-.248c-1.209-.046-2.304.186-3.177.992a3.884 3.884 0 00-1.24 2.796c0 1.136.466 2.18 1.341 2.906.912.769 1.89.944 3.053.944.762 0 1.21-.051 1.95-.253l-.109-1.125c-.16.053-.695.224-1.463.224M60.637 4.706h2.126l.06.49c.474 4.902.766 7.953.766 7.953h-2.213l-.22-3.038-.203-2.714-1.875 5.747h-1.185s-.593-2.042-.701-2.326L56.118 7.37s-.166 1.92-.229 2.739c-.13 1.646-.245 3.04-.245 3.04h-1.651s.676-6.866.727-7.283c.052-.43.132-1.16.132-1.16h2.171l1.798 4.942 1.816-4.942m-11.246 7.487c-.06.007-.12.008-.177.009-.06-.001-.118-.001-.18-.01a1.584 1.584 0 01-1.059-.536c-.355-.402-.548-1.088-.594-1.63-.105-1.26.148-3.103 1.697-3.226.04-.001.078-.005.117-.005.006 0 .012-.003.02 0 .003-.003.01 0 .015 0 .038 0 .078.004.117.005 1.548.123 1.803 1.967 1.696 3.226-.044.542-.22 1.213-.595 1.63a1.964 1.964 0 01-.204.197 1.594 1.594 0 01-.853.34zm3.711-3.034l-.006-.049c-.03-.7-.261-1.32-.588-1.803-.677-1.063-1.865-1.635-3.294-1.615-1.432-.02-2.62.552-3.298 1.615a3.526 3.526 0 00-.586 1.803c0 .014-.005.032-.005.049-.196 2.331 1.164 3.944 3.48 4.131a6.093 6.093 0 00.815 0c2.316-.187 3.677-1.8 3.482-4.131m-25.993.393l.918-2.733.055-.16.962 2.894zm5.408 3.592a63.65 63.65 0 01-.746-1.832l-2.48-6.606h-1.932s-.55 1.55-.628 1.804l-1.812 5.122c-.235.655-.566 1.513-.566 1.513h1.576s.446-1.423.538-1.68l.243-.712h2.732l.371 1.084c.08.202.402 1.29.408 1.307h2.296M42.05 9.05c-.284.146-.926.105-1.244.087l.024-2.098.178-.012c.584-.046 1.011.033 1.186.112.263.115.416.36.43.776.022.618-.213.949-.573 1.134zm3.372 4.095c-.457-.656-.625-.926-.976-1.406L43.13 9.695c.634-.312 1.228-.836 1.319-1.933.055-.685-.311-1.253-.529-1.446-.317-.282-.625-.396-1.063-.45-.352-.045-.606-.048-.817-.06h-3.098s.036 1.013.036 1.594v4.148c0 .583-.036 1.596-.036 1.596h1.906s-.056-1.013-.056-1.596l.014-1.33s.415 0 .707.003l1.206 2.21c.162.281.396.634.451.714h2.252" fill="#0c2f59"/><path d="M109.904 1.926l-.08-.037.02-.044.216.098-.02.044-.08-.036-.106.235-.056-.024.106-.236m.199.034l.089.044-.037.24v.001l.168-.177.088.044-.134.275-.053-.026.111-.227-.186.19-.052-.026.036-.263-.112.227-.052-.026.134-.275m.653 2.386l-.007.007a6.416 6.416 0 01-8.53 9.555l-.006.007a6.417 6.417 0 108.543-9.569m-11.372 7.295c-.203.114-.25.285-.145.55.097.24.248.344.41.28.13-.051.151-.163.097-.453l-.023-.112c-.053-.286-.062-.408-.027-.53a.371.371 0 01.232-.276c.29-.116.565.062.729.472.175.44.081.773-.262.916l-.087-.215c.24-.105.3-.328.172-.648-.105-.263-.271-.378-.446-.308-.141.057-.175.187-.123.485l.02.123.02.11c.038.221.042.299.02.393a.351.351 0 01-.224.25c-.271.11-.533-.05-.68-.419-.16-.398-.074-.694.232-.831l.085.213m-.182-2.316l.973-.82.007.302-.825.683.268.295.578-.013.005.238-1.654.037-.005-.238.651-.015.09.001.084-.002-.056-.058-.057-.06-.732-.79-.008-.313.68.753m.734-2.563l.638.224-.08.225-.637-.225-1.143.345.096-.273.71-.198.087-.025c.035-.01.058-.014.12-.027a1.705 1.705 0 01-.126-.163l-.438-.593.09-.26.683.97m1.12-3.037l-.35.428 1.044.854-.25.307-1.045-.855-.348.425-.237-.193.95-1.159.236.193m2.233-1.568l-.835.488.178.305.767-.448.143.244-.767.448.206.352.851-.498.154.264-1.193.698-.836-1.428 1.178-.689.154.264m2.256-.21a2.637 2.637 0 01-.178-.337 3.682 3.682 0 01-.07.376l-.07.316.48-.077zm.946.853l-.433.027-.214-.357-.667.106-.094.408-.412.106.436-1.808.407-.065.977 1.583m2.658.529l-.349-.133.133-.491c.015-.058.036-.137.065-.237a6.58 6.58 0 01.07-.244l.064-.207.04-.118a6.288 6.288 0 01-.227.362c-.038.06-.073.109-.102.15l-.47.658-.3-.079-.095-.79c-.007-.04-.01-.098-.016-.177-.005-.104-.012-.183-.014-.238a4.396 4.396 0 010-.2l-.042.2c-.049.218-.07.313-.137.572l-.137.533-.366-.057.414-1.618.556.107.08.766c.02.18.022.33.015.543.063-.122.085-.163.157-.274.048-.076.09-.138.127-.196l.436-.625.528.179-.43 1.614" fill="#1b458f"/><path d="M109.11 8.668c.477-.322.875-.494 1.122-.485.146.005.32.049.32.23 0 .185-.176.34-.521.464-.303.108-.769.136-1.276.078a3.25 3.25 0 01.356-.287zm-6.712.588c-.297-.02-.442-.14-.442-.368 0-.03.02-.754 1.679-.837a4.05 4.05 0 01.723.02c-.014.001-.188.16-.188.16l-.104.095c-.4.362-1.07.97-1.668.93zm3.589-2.739c-.202.176-.599.558-.983.926l-.435.417a5.924 5.924 0 00-1.067-.095c-.807 0-1.545.222-1.881.565a.586.586 0 00-.19.426c.009.389.455.585.592.636.715.267 1.316.19 1.947-.251.348-.244.769-.636 1.095-.95.255.06.544.134.854.225l.287.084c-.371.364-.753.75-1.106 1.062l-.027.024c-.492.433-.847.747-1.36.86-.362.081-.618.006-.702-.047-.008.001-.02.016-.02.016.297.245.579.384 1.062.342.461-.04.993-.33 1.539-.84l.735-.722.514-.511a123.615 123.615 0 001.06.31c-.01 0-.644.628-.644.628l-.553.55c-.567.55-.875.836-1.206 1.07-.549.39-1.016.591-1.43.62-.213.013-.522-.002-.78-.153-.011-.002-.027.012-.027.012.28.24.623.526 1.213.51.668-.019 1.259-.34 2.18-1.186.42-.385.836-.816 1.205-1.197l.683-.693c.45.1.853.14 1.298.132.649-.013 1.202-.323 1.21-.678.004-.262-.21-.402-.34-.485a1.488 1.488 0 00-.797-.23c-.486 0-.992.214-1.507.637l-.342.301a1.719 1.719 0 00-.126-.034l-.952-.266c.28-.263.52-.488.736-.68.52-.463 1.097-.653 1.434-.675.245-.016.673.005.85.13.008-.001.019-.019.019-.019-.469-.402-.874-.454-1.209-.454-.329 0-.858.105-1.505.606-.265.205-.607.547-.966.909 0-.003-.482-.148-.482-.148l-.116-.037-.506-.154c.01 0 .288-.272.288-.272.341-.334.664-.65.915-.862.913-.768 1.488-.868 1.888-.87.438-.002.786.088 1.034.268.008-.001.02-.018.02-.018-.514-.463-.882-.612-1.52-.617-.558-.004-1.227.308-1.88.878" fill="#1b458f"/><path d="M54.193 16.94s3.337-2.73 11.767-2.73c6.352 0 10.159 2.03 17.587 2.03 6.68 0 11.14-2.296 11.14-2.296S90.77 17 82.912 17s-10.364-2.057-18.127-2.057-10.593 1.995-10.593 1.995" fill="#e41d25"/></svg>