<svg width="6491.8mm" height="1430.1mm" viewBox="0 0 6491.8 1430.1" xmlns="http://www.w3.org/2000/svg"><g stroke-width=".265"><path d="M454.853 1428.98c-1.796-.417-15.016-1.72-29.38-2.895-91.622-7.498-198.42-60.765-275.285-137.297-57.887-57.64-100.02-126.637-126.25-206.743C7.075 1030.54-.015 981.581-.015 916.651c0-91.005 15.601-160.92 52.37-234.701 20.02-40.17 46.243-80.861 52.109-80.861 3.565 0 28.294 18.28 28.294 20.914 0 .599-6.852 11.464-15.226 24.144-37.534 56.83-61.96 118.42-74.485 187.8-4.257 23.583-4.91 34.59-4.91 82.697 0 61.506 2.98 85.6 16.558 133.842 51.067 181.442 202.417 315.959 381.991 339.5 139.723 18.316 280.442-32.094 380.445-136.286 43.937-45.776 82.152-106.37 103.162-163.568 4.09-11.139 4.23-12.733 1.215-13.89-4.577-1.757-5.921.15-11.751 16.68-18.211 51.629-57.55 106.18-102.512 142.15-34.792 27.836-78.572 48.946-123.108 59.36-32.521 7.604-92.749 9.634-128.669 4.337-114.924-16.947-196.066-85.321-233.03-196.338-13.288-39.91-22.39-111.732-18.445-145.53l1.778-15.234 8.705-.584c4.788-.321 12.969.17 18.18 1.094l9.476 1.678.662 38.079c1.544 88.743 27.034 158.271 76.785 209.424 33.408 34.353 72.394 55.102 124.49 66.258 14.863 3.182 27.908 3.933 66.377 3.82 44.327-.129 49.41-.553 68.552-5.723 81.377-21.98 144.149-72.75 181.18-146.542 9.962-19.854 19.654-47.011 17.486-49.004-.942-.866-11.017-5.242-22.387-9.724-27.014-10.648-41.272-17.9-42.747-21.746-.692-1.802 4.242-9.767 11.743-18.954 33.298-40.789 51.573-80.113 60.83-130.89 4.402-24.152 4.879-79.508.9-104.757-5.896-37.43-23.683-98.843-35.551-122.746l-4.969-10.008-39.173-1.347c-42.758-1.471-69.964-5.982-104.461-17.321-27.52-9.046-72.468-31.98-96.689-49.33-40.534-29.043-85.74-77.266-116.799-124.606-16.252-24.768-18.768-27.155-41.142-39.024-34.027-18.05-74.195-50.87-94.55-77.253-7.322-9.49-14.972-15.459-36.782-28.694-47.753-28.98-61.484-40.667-55.182-46.97 1.192-1.192 18.183-4.465 37.758-7.274s40.323-6.61 46.11-8.446c9.111-2.892 19.445-3.069 77.257-1.319 86.168 2.608 112.571 7.75 135.98 26.49 4.568 3.657 8.632 6.305 9.031 5.886.399-.42 4.363-10.556 8.808-22.525 43.11-116.084 124.268-197.292 232.833-232.957 15.56-5.113 33.189-9.908 39.173-10.657 5.985-.75 18.428-2.421 27.652-3.716 14-1.964 17.291-1.832 19.924.8 4.51 4.511 11.993 53.902 14.232 93.95 1.948 34.836.09 87.246-3.983 112.316-1.263 7.78-2.305 15.37-2.314 16.866-.008 1.981 5.455 2.722 20.115 2.727 75.768.023 156.313 28.148 239.932 83.783 48.527 32.285 109.01 83.116 104.46 87.788-1.479 1.519-15.459-2.2-43.689-11.62-84.251-28.115-157.975-42.553-243.246-47.639-9.393-.56-16.604-.544-16.025.033.58.58 12.05 3.525 25.492 6.548 144.88 32.577 268.145 132.633 337.443 273.927 37.36 76.17 54.88 152.596 54.88 239.389 0 126.859-39.778 242.375-116.906 339.491-96.713 121.776-244.49 191.567-392.66 185.448-16.004-.662-30.053-2.156-31.218-3.322-1.375-1.374 2.62-7.743 11.367-18.125 40.519-48.094 77.422-118.263 102.002-193.944 8.043-24.767 19.855-68.23 19.855-73.062 0-1.163-2.977-3.151-6.615-4.42-6.116-2.131-6.783-1.86-8.854 3.596-34.367 90.544-85.198 163.569-154.29 221.664-58.594 49.26-138.408 88.693-207.821 102.668-28.485 5.735-70.918 9.192-108.812 8.864-16.758-.144-31.938-.604-33.732-1.022zM446.19 327.943c12.509-6.468 14.487-19.515 4.477-29.525-7.09-7.09-12.642-7.9-21.775-3.177-11.154 5.768-12.337 19.789-2.5 29.627 7.209 7.208 10.744 7.757 19.798 3.075zM5070.7 1361.37c-4.188-.4-18.388-1.747-31.555-2.993-50.809-4.81-138.744-22.354-142.89-28.51-2.859-4.247-1.392-135.965 1.547-138.902 1.608-1.607 12.136.952 35.184 8.549 55.135 18.175 116.774 28.108 158.386 25.524 49.685-3.086 73.58-21.8 85.847-67.229 4.665-17.272 12-66.771 10.167-68.604-.622-.622-7.79 3.88-15.928 10.004-19.456 14.638-54.008 31.833-75.734 37.69-23.821 6.422-81.875 7-103.376 1.029-33.374-9.269-65.002-29.547-85.534-54.837-13.756-16.946-30.664-51.73-36.467-75.029-6.603-26.51-8.167-79.648-3.316-112.654 18.205-123.84 91.992-206.422 211.276-236.452 40.099-10.094 70.263-12.759 129.49-11.44 56.824 1.265 91.441 4.952 157.778 16.802 20.348 3.635 38.282 7.887 39.853 9.449 2.357 2.344-1.94 49.515-24.587 269.823-18.17 176.761-28.885 272.619-31.712 283.674-2.348 9.18-8.108 24.579-12.801 34.22-16.55 33.997-40.49 57.276-77.39 75.254-38.15 18.588-80.252 26.17-142.545 25.67-20.947-.169-41.512-.634-45.701-1.034zm71.003-362.95c6.865-3.142 16.629-9.113 21.699-13.267 19.372-15.874 36.041-49.98 43.238-88.463 5.144-27.512 11.74-96.08 9.515-98.926-3.194-4.087-35.703-8.045-54.847-6.678-20.62 1.472-44.76 9.065-60.081 18.896-15.396 9.88-35.545 32.33-43.366 48.32-9.497 19.416-15.452 44.798-15.452 65.863 0 40.917 15.258 67.577 45.055 78.724 12.702 4.753 38.796 2.604 54.24-4.467zm-709.736 148.903c-73.95-11.222-116.232-56.043-116.396-123.38-.033-14.383 33.337-350.159 35.915-361.362l1.127-4.897h86.884c47.784 0 87.41.862 88.068 1.916.65 1.053-4.742 59.078-11.985 128.948-15.1 145.653-15.488 159.02-5.17 178.102 9.18 16.98 22.32 24.768 43.6 25.842 37.433 1.89 65.23-20.171 81.465-64.656 9.732-26.667 12.144-42.54 23.861-156.988 6.066-59.249 11.467-108.952 12.003-110.449.756-2.115 20.32-2.72 87.862-2.72 67.524 0 87.106.606 87.888 2.72 1.39 3.778-46.996 472.157-49.124 475.513-2.686 4.239-173.068 3.93-174.697-.318-.64-1.67-.148-12.144 1.094-23.276 1.243-11.13 1.925-20.574 1.515-20.983-.41-.41-6.483 4.768-13.495 11.507-33.757 32.435-77.62 46.973-139.987 46.4-16.247-.148-34.436-1.014-40.421-1.922zm-2701.024-11.843c-.676-1.761 8.84-20.277 21.531-41.893 69.971-119.185 128.767-225.324 252.912-456.587 39.195-73.014 72.257-133.981 73.47-135.495 1.734-2.152 26.75-2.619 116.684-2.176l114.48.563 12.58 47.878c29.381 111.815 55.13 201.388 124.95 434.666 24.623 82.27 44.198 151.066 43.5 152.884-1.112 2.895-13.772 3.31-101.18 3.31-78.531 0-100.406-.597-102.224-2.787-1.272-1.532-11.688-40.46-23.148-86.505-11.46-46.047-21.784-85.938-22.944-88.636l-2.109-4.918-209.786 1.13-43.02 87.78c-23.66 48.28-44.17 89.163-45.575 90.858-3.876 4.67-208.322 4.595-210.115-.075zm484.922-320.096c1.636-1.635-38.19-160.04-40.364-160.55-1.953-.457-81.83 154.612-81.902 158.996-.033 2.112 13.497 2.72 60.528 2.72 33.315 0 61.098-.524 61.738-1.165zm283.33 320.162c-1.271-3.31 46.39-472.906 48.313-476.015.63-1.019 40.26-1.852 88.068-1.852h86.925l.03 8.16c.05 13.123-46.242 462.51-48.199 467.897l-1.778 4.897h-86.086c-72.378 0-86.275-.493-87.27-3.092zm246.322 1.194c-1.116-1.806 45.433-463.923 47.764-474.164l1.113-4.897h83.512c64.824 0 83.733.609 84.515 2.72.55 1.497.157 10.463-.879 19.926-1.034 9.464-1.415 17.672-.845 18.24.57.57 8.344-5.79 17.278-14.133 17.841-16.662 39.399-29.175 59.105-34.308 21.394-5.572 67.46-3.663 71.557 2.966 2.081 3.367-2.367 154.874-4.613 157.12-1.467 1.467-7.484.721-18.257-2.265-27.312-7.568-57.897-5.03-80.923 6.718-25.334 12.924-47.461 44.228-55.945 79.145-2.413 9.935-9.057 65.068-15.474 128.397-6.185 61.045-12.224 112.218-13.422 113.707-1.675 2.093-21.902 2.72-87.747 2.72-47.063 0-86.095-.854-86.744-1.898zm620.22-.033c-1.44-2.33 63.063-632.361 65.075-635.61 2.204-3.566 224.107-3.134 226.895.442 1.164 1.496 41.522 90.371 89.68 197.497 48.163 107.127 87.97 195.187 88.464 195.68.493.499 1.275.499 1.736 0 .462-.498 9.862-89.047 20.892-196.774 11.029-107.726 20.502-196.6 21.052-197.497.55-.898 38.677-1.632 84.73-1.632 72.219 0 83.897.446 84.975 3.247 1.745 4.548-62.564 630.527-65.12 633.858-1.619 2.113-26.564 2.72-111.667 2.72h-109.585l-3.194-4.896c-2.585-3.966-143.885-305.06-172.6-367.795-7.829-17.105-11.423-20.84-11.519-11.97-.124 11.54-38.8 380.199-40.109 382.321-1.796 2.906-167.911 3.302-169.696.405zm698.049-1.56c-1.467-3.824 46.023-471.655 48.244-475.25.89-1.44 31.367-2.214 87.27-2.214 77.516 0 86.037.348 87.27 3.56 1.505 3.918-45.947 471.425-48.223 475.11-.95 1.537-29.603 2.287-87.32 2.287-76.848 0-86.044-.368-87.245-3.492zm1368.772.773c-2.338-2.958 44.892-470.57 48.029-475.513 2.592-4.091 173.06-3.947 174.63.147 1.085 2.827-46.094 470.084-47.997 475.373-.762 2.114-20.107 2.72-86.744 2.72-66.014 0-86.259-.626-87.912-2.72zm239.677-.403c-1.275-3.323 46.402-472.872 48.331-475.99.626-1.013 37.837-1.842 82.69-1.842 73.323 0 81.686.357 82.91 3.542.748 1.948.207 15.312-1.2 29.699-1.408 14.386-2.03 26.686-1.382 27.334.647.647 5.32-2.833 10.381-7.734 21.443-20.762 58.19-42.776 87.88-52.646 45.515-15.13 117.078-14.788 158.377.757 37.402 14.077 62.71 40.02 74.44 76.306 10.502 32.49 9.97 46.372-8.85 230.687-9.167 89.77-17.581 165.427-18.698 168.116l-2.031 4.897h-86.078c-67.8 0-86.308-.59-87.147-2.778-.586-1.527 4.83-60.042 12.036-130.033 7.206-69.99 13.103-132.576 13.104-139.082 0-28.612-13.847-52.879-34.125-59.788-33.976-11.577-73.793 3.27-97.141 36.223-27.394 38.661-34.34 67.592-47.982 199.842-5.132 49.753-10.047 91.622-10.923 93.037-1.184 1.915-23.658 2.577-87.493 2.577-72.621 0-86.086-.482-87.098-3.123zm581.677 1.673c-.798-.798-1.471-4.47-1.496-8.161-.087-12.966 46.14-461.613 48.062-466.449l1.944-4.897h86.078c72.504 0 86.267.49 87.27 3.102 1.26 3.283-46.44 472.963-48.346 476.048-1.317 2.13-171.383 2.476-173.513.353zM2553.596 604.51c-1.261-3.286 9.483-111.74 11.373-114.8.604-.978 40.214-1.778 88.018-1.778h86.925l.047 8.161c.078 13.959-8.995 101.476-11.056 106.641l-1.955 4.897h-86.078c-72.723 0-86.267-.484-87.279-3.12zm1564.617-.355c-1.44-3.75 9.149-110.622 11.305-114.11.805-1.303 34.128-2.108 87.205-2.108 76.986 0 86.045.364 87.246 3.506 1.53 3.99-8.849 110.088-11.131 113.78-1.05 1.697-26.916 2.41-87.394 2.41-76.663 0-86.045-.373-87.238-3.474zm1368.772-.231c-1.775-4.627 7.908-106.979 10.613-112.177 1.835-3.53 8.279-3.808 87.937-3.808 70.147 0 86.16.54 87.081 2.937 1.195 3.116-9.563 112.16-11.352 115.056-.578.935-39.707 1.7-86.95 1.7-78.902 0-86.02-.302-87.327-3.706zm820.465.016c-1.723-4.492 7.575-104.23 10.359-111.107l1.982-4.897 83.29.033c45.809.016 84.597.86 86.192 1.872 2.381 1.51 2.467 7.256.48 32.067-5.377 67.166-6.774 81.996-7.9 83.816-.648 1.048-39.834 1.905-87.082 1.905-78.752 0-86.02-.307-87.32-3.69z" fill="#cfb4c6"/><path d="M452.632 1428.898c-26.381-3.22-56.145-8.407-74.164-12.922-118.543-29.701-224.098-105.407-292.697-209.91-41.561-63.318-67.275-130.938-80.687-212.187-5.599-33.919-5.641-118.09-.074-153.427 12.984-82.458 39.028-149.988 83.8-217.312 6.65-10 13.298-18.645 14.773-19.211 3.309-1.27 24.781 14.455 24.781 18.147 0 1.473-6.907 13.26-15.35 26.195-39.305 60.22-65.524 131.54-74.895 203.716-4.324 33.302-4.324 95.965 0 129.27 26.87 206.956 180.594 372.449 379.688 408.747 26.832 4.892 100.94 6.844 127.55 3.36 165.048-21.61 301.86-126.11 368.534-281.51 14.27-33.255 14.746-35.357 8.744-38.569-6.557-3.508-8.464-.968-17.182 22.885-31.42 85.97-105.58 158.255-191.781 186.936-39.729 13.218-54.527 15.406-104.355 15.433-49.564.024-72.56-3.07-107.685-14.496-98.087-31.905-166.406-114.2-188.097-226.582-5.71-29.592-9.304-78.618-7.213-98.4l1.61-15.234 14.994.5c8.248.275 15.291.797 15.653 1.159.362.362 1.13 17.765 1.708 38.673 1.632 59.09 11.302 102.281 32.388 144.65 36.747 73.845 98.885 119.48 180.776 132.764 26.704 4.331 84.293 4.272 109.437-.114 93.72-16.344 173.826-83.544 210.75-176.803 4.401-11.118 7.694-21.724 7.316-23.568-.416-2.027-12.289-8.074-30.003-15.282-16.123-6.56-30.568-12.968-32.1-14.24-4.746-3.938-3.163-8.208 7.784-20.992 59.14-69.06 78.334-160.82 55.885-267.166-5.392-25.544-22.136-78.042-30.131-94.467l-4.767-9.793-39.173-1.394c-42.136-1.5-64.099-4.897-97.223-15.037-60.092-18.395-111.675-50.39-159.315-98.819-22.225-22.593-55.45-64.807-66.708-84.753-8.001-14.177-12.35-18.095-31.487-28.368-33.786-18.137-51.902-32.012-83.783-64.176-28.35-28.598-34.59-33.695-61.424-50.165-35.305-21.672-49.68-33.259-45.983-37.07 1.373-1.415 18.51-4.84 38.085-7.609 19.575-2.77 39.797-6.565 44.94-8.434 8.202-2.981 17.409-3.14 75.08-1.295 36.153 1.157 68.671 2.657 72.261 3.334 35.746 6.739 55.348 14.215 66.493 25.36 3.674 3.674 7.44 5.81 8.368 4.747.929-1.064 4.923-10.748 8.877-21.52C619.611 136.837 699.968 55.259 807.917 19.14c21.327-7.135 52.026-14.294 75.962-17.714L894.016-.02l2.35 11.643c12.385 61.354 15.309 144.025 6.916 195.54-1.268 7.78-2.313 16.71-2.322 19.843l-.016 5.698 34.276 1.147c38.79 1.298 63.442 5.76 101.369 18.35 49.3 16.367 119.44 55.611 169.523 94.847 28.008 21.942 56.979 48.067 54.298 48.96-1.334.445-15.92-3.644-32.414-9.087-96.269-31.766-192.596-49.184-272.003-49.184-21.926 0-25.512 2.827-6.677 5.263 45.789 5.921 100.76 22.98 145.703 45.209 99.205 49.076 176.836 127.517 227.882 230.267 37.969 76.43 54.097 142.018 56.191 228.507 1.77 73.112-5.668 123.774-27.96 190.424-59.532 177.996-203.971 306.212-382.296 339.36-29.663 5.513-86.267 8.786-104.683 6.052-8.729-1.295-16.37-2.855-16.983-3.467-.61-.61 4.905-8.474 12.258-17.473 44.646-54.636 82.903-132.666 107.867-220.01 14.027-49.072 13.763-45.993 4.266-49.961-4.42-1.847-8.762-3.358-9.65-3.358-.888 0-6.296 11.507-12.018 25.572-12.943 31.813-19.91 45.835-36.496 73.45-67.9 113.056-177.23 195.868-300.56 227.676-36.377 9.381-64.18 12.885-109.068 13.744-23.939.458-46.953.415-51.142-.097zm-.87-1102.93c4.691-4.692 7.399-9.51 7.399-13.165 0-19.691-21.634-29.955-34.988-16.6-10.519 10.52-7.6 29.802 5.297 35.007 8.975 3.622 14.797 2.253 22.291-5.241zm4622.207 1033.344a23018.1 23018.1 0 01-32.645-3.175c-52.557-5.14-138.9-22.356-142.766-28.466-2.186-3.45-2.635-101.385-.557-121.266.846-8.094 2.419-13.376 3.984-13.376 1.422 0 15.942 4.395 32.266 9.766 64.216 21.131 140.332 30.383 180.29 21.913 46.625-9.882 64.583-38.09 73.874-116.034 1.464-12.281 2.003-22.988 1.199-23.793-.806-.805-4.141.66-7.413 3.255-42.375 33.608-82.158 49.515-130 51.978-92.832 4.779-159.358-46.577-180.95-139.69-6.154-26.545-5.566-91.787 1.108-122.96 22.926-107.077 82.903-175.594 183.013-209.071 66.17-22.124 152.604-25.351 259.862-9.703 41.665 6.079 84.457 13.92 88.035 16.132 1.92 1.186.133 25.158-7.165 96.12l-27.289 265.382c-9.661 93.957-18.944 176.803-20.627 184.09-14.74 63.854-56.713 107.513-121.89 126.785-29.539 8.734-52.753 11.614-99.025 12.286-24.537.356-48.53.272-53.319-.186zm67.066-357.718c33.579-12.87 58.84-52.754 68.915-108.796 4.857-27.018 10.934-94.303 8.754-96.927-1.206-1.453-8.991-3.765-17.3-5.137-64.561-10.662-120.665 15.155-145.777 67.087-12.161 25.147-16.163 44.965-14.962 74.1.867 21.024 1.713 25.035 7.967 37.738 8.295 16.849 22.733 30.517 37.108 35.13 13.815 4.434 39.217 2.965 55.294-3.198zm-710.073 143.186c-18.083-2.582-43.698-11.194-58.564-19.688-33.714-19.265-54.511-57.591-54.657-100.727-.04-12.457 33.635-349.427 35.94-359.627l1.108-4.896h84.704c46.588 0 85.14.734 85.675 1.632.534.898-4.763 56.964-11.773 124.589-7.01 67.627-12.776 131.983-12.813 143.005-.083 24.503 4.856 39.578 16.784 51.22 10.54 10.285 23.39 14.699 42.725 14.673 32.916-.042 58.951-20.767 75.234-59.88 11.067-26.585 14.607-48.475 26.249-162.326 6.044-59.115 11.421-108.706 11.948-110.203.744-2.113 19.908-2.72 85.897-2.72h84.942l.066 5.985c.13 12.359-46.16 461.036-48.05 465.724l-1.975 4.897h-83.709c-48.134 0-84.227-.844-84.934-1.987-.676-1.092-.146-11.93 1.176-24.085 1.322-12.155 1.851-22.65 1.176-23.327-.676-.675-8.537 5.598-17.47 13.94-25.502 23.815-54.601 37.362-92.725 43.167-22.721 3.459-65 3.764-86.966.628zm-2697.323-10.147c-.615-.996 13.51-26.965 31.391-57.71 69.332-119.21 140.513-248.157 251.267-455.172 33.298-62.241 62.022-114.89 63.832-116.996 3.072-3.575 10.701-3.791 115.376-3.265l112.086.564 1.669 5.44c.918 2.993 9.164 33.842 18.323 68.553 23.16 87.764 57.719 207.68 114.036 395.695 26.466 88.364 47.558 161.57 46.872 162.68-1.482 2.397-194.603 2.742-198.131.354-1.3-.88-11.97-40.283-23.712-87.559-11.742-47.28-22.22-87.673-23.285-89.77-1.804-3.55-9.101-3.807-106.863-3.776-57.711.017-106.016.753-107.349 1.632-1.33.88-21.72 41.248-45.314 89.705s-44.05 88.842-45.46 89.738c-3.533 2.248-203.338 2.137-204.728-.113zm485.062-318.065c1.533-2.48-39.488-165.558-42.37-168.437-1.114-1.114-19.798 33.816-44.392 82.993-23.359 46.704-41.869 85.518-41.136 86.25 2.306 2.307 126.456 1.525 127.895-.806zm283.033 317.85c-1.236-2 45.748-466.58 47.72-471.86.79-2.113 19.999-2.72 85.963-2.72h84.942l-.033 7.072c-.06 13.33-47.085 464.368-48.682 466.95-1.987 3.215-167.928 3.758-169.91.556zm246.372-.693c-.554-1.496-.18-10.065.83-19.042 1.01-8.977 11.66-112.785 23.667-230.687s22.32-216.564 22.919-219.262l1.087-4.896h163.659l-1.558 22.85c-.856 12.569-1.064 22.851-.461 22.851s7.356-6.26 15.008-13.911c16.879-16.88 36.41-29.824 54.56-36.157 14.798-5.165 46.973-8.033 63.057-5.621 17.83 2.674 16.85-2.66 14.938 81.258-.934 40.994-2.35 75.186-3.147 75.983-.796.797-9.19-.32-18.652-2.481-12.84-2.933-22.532-3.65-38.21-2.83-19.125 1-22.629 1.903-39.161 10.095-30.146 14.938-50.653 42.463-60.043 80.59-2.259 9.17-9.108 66.075-15.35 127.549-6.2 61.045-12.237 112.218-13.417 113.706-1.648 2.092-21.395 2.72-85.428 2.72-64.642 0-83.511-.608-84.293-2.72zm620.262 0c-1.234-3.412 62.772-627.426 64.671-630.502.93-1.503 37.87-2.251 111.116-2.251h109.726l3.097 4.896c1.704 2.693 42.5 92.543 90.66 199.678 48.157 107.126 87.936 195.203 88.388 195.72.458.52 1.673.034 2.701-1.087 1.028-1.118 10.84-90.174 21.806-197.893 10.966-107.727 20.36-197.086 20.878-198.583 1.372-3.973 163.954-3.964 165.484.008.576 1.501-6.306 74.216-15.293 161.586a356719.61 356719.61 0 00-31.96 312.29c-8.59 84.383-16.548 154.652-17.685 156.149-1.604 2.112-25.971 2.713-108.985 2.687-58.803-.017-108.014-.753-109.355-1.632-1.344-.88-43.346-89.245-93.34-196.38-49.993-107.126-91.269-195.202-91.721-195.72-.453-.52-1.65-.033-2.662 1.088-1.012 1.117-10.694 88.89-21.517 195.046-10.823 106.156-20.32 194.052-21.104 195.318-2.216 3.586-163.61 3.182-164.91-.413zm697.835-.23c-1.318-3.434 46.094-468.298 48.092-471.53.815-1.32 33.01-2.122 85.041-2.122 70.298 0 83.915.495 84.91 3.088 1.148 2.993-42.984 442.924-46.41 462.632l-1.701 9.793-84.392.57c-70.098.473-84.58.058-85.543-2.43zm1368.607-.64c-1.671-4.357 44.502-461.177 47.315-468.119l1.985-4.897h83.709c46.038 0 84.219.838 84.852 1.862 1.136 1.837-45.825 466.753-47.678 472.025-.743 2.113-19.703 2.72-84.877 2.72-75.988 0-84.054-.34-85.304-3.591zm239.891 1.54c-1.09-1.764 41.565-428.349 46.146-461.497l1.655-11.97 79.297-.571c47.65-.344 80.118.248 81.353 1.483 1.288 1.288 1.032 12.69-.687 30.578-1.508 15.688-2.167 29.099-1.465 29.801.703.703 8.237-4.728 16.743-12.067 31.892-27.516 62.38-44.087 99.608-54.137 19.399-5.236 24.586-5.7 63.56-5.693 48.261.008 63.758 2.908 93.58 17.504 40.801 19.97 65.11 63.302 65.364 116.511.102 21.316-32.919 345.932-35.54 349.386-1.59 2.093-21.296 2.72-85.461 2.72-45.865 0-83.882-.79-84.474-1.756-.597-.967 4.717-58.013 11.81-126.769 7.094-68.756 12.911-131.934 12.928-140.397.057-30.313-11.044-51.69-31.78-61.183-10.54-4.826-14.25-5.371-32.006-4.708-17.415.651-22 1.695-34.492 7.85-34.98 17.234-60.94 61.299-72.52 123.099-1.923 10.261-7.708 59.207-12.855 108.771-5.148 49.562-10.052 91.235-10.9 92.6-1.948 3.154-167.927 3.584-169.869.44zm580.616-1.405c-1.518-3.955 44.801-460.798 47.476-468.25l1.757-4.896h83.709c48.698 0 84.227.838 84.95 2.005 1.224 1.979-45.758 466.605-47.714 471.877-.784 2.112-19.783 2.72-84.934 2.72-74.654 0-84.07-.381-85.247-3.455zM2556.153 603.478c-1.204-1.947 8.81-105.473 10.705-110.663.77-2.113 19.962-2.72 85.938-2.72h84.942l.024 5.984c.05 12.497-9.172 99.79-11.036 104.462l-1.952 4.896h-83.709c-47.233 0-84.235-.853-84.918-1.958zm1564.452-1.002c-1.282-3.341 9.224-107.225 11.16-110.359.735-1.189 35.76-2.022 84.976-2.022 71.19 0 83.906.473 84.943 3.16 1.397 3.642-8.979 106.502-11.088 109.915-.93 1.506-29.47 2.265-85.124 2.265-68.592 0-83.93-.535-84.86-2.96zm1368.69-.512c-1.662-4.33 7.547-100.283 10.266-106.978l1.99-4.897h83.71c47.388 0 84.235.852 84.917 1.963 1.191 1.927-8.838 105.333-10.734 110.663-.75 2.113-19.718 2.72-84.893 2.72-74.82 0-84.07-.376-85.255-3.471zm820.53.204c-1.491-3.887 7.841-100.11 10.396-107.175l1.77-4.897h84.926c68.17 0 84.926.558 84.926 2.825 0 6.186-10.96 107.258-11.908 109.8-.786 2.111-19.789 2.72-84.934 2.72-72.634 0-84.096-.44-85.181-3.268z" fill="#b1935f"/><path d="M452.632 1428.898c-26.381-3.22-56.145-8.407-74.164-12.922-118.543-29.701-224.098-105.407-292.697-209.91-41.561-63.318-67.275-130.938-80.687-212.187-5.599-33.919-5.641-118.09-.074-153.427 12.984-82.458 39.028-149.988 83.8-217.312 6.65-10 13.298-18.645 14.773-19.211 3.309-1.27 24.781 14.455 24.781 18.147 0 1.473-6.907 13.26-15.35 26.195-39.305 60.22-65.524 131.54-74.895 203.716-4.324 33.302-4.324 95.965 0 129.27 26.87 206.956 180.594 372.449 379.688 408.747 26.832 4.892 100.94 6.844 127.55 3.36 165.048-21.61 301.86-126.11 368.534-281.51 14.27-33.255 14.746-35.357 8.744-38.569-6.557-3.508-8.464-.968-17.182 22.885-31.42 85.97-105.58 158.255-191.781 186.936-39.729 13.218-54.527 15.406-104.355 15.433-49.564.024-72.56-3.07-107.685-14.496-98.087-31.905-166.406-114.2-188.097-226.582-5.71-29.592-9.304-78.618-7.213-98.4l1.61-15.234 14.994.5c8.248.275 15.291.797 15.653 1.159.362.362 1.13 17.765 1.708 38.673 1.632 59.09 11.302 102.281 32.388 144.65 36.747 73.845 98.885 119.48 180.776 132.764 26.704 4.331 84.293 4.272 109.437-.114 93.72-16.344 173.826-83.544 210.75-176.803 4.401-11.118 7.694-21.724 7.316-23.568-.416-2.027-12.289-8.074-30.003-15.282-16.123-6.56-30.568-12.968-32.1-14.24-4.746-3.938-3.163-8.208 7.784-20.992 59.14-69.06 78.334-160.82 55.885-267.166-5.392-25.544-22.136-78.042-30.131-94.467l-4.767-9.793-39.173-1.394c-42.136-1.5-64.099-4.897-97.223-15.037-59.534-18.224-111.444-50.27-158.27-97.708-33.427-33.863-75.128-90.388-69.377-94.032 4.038-2.563 78.022-2.232 99.682.447 120.394 14.882 232.283 78.287 308.959 175.083 39.014 49.25 71.272 111.725 87.649 169.754 14.202 50.326 19.245 88.019 19.22 143.63-.025 53.484-8.118 128.24-17.872 165.082-2.331 8.804-2.752 8.925-16.26 4.687-4.081-1.28-5.583 1.152-15.004 24.307-13.009 31.976-19.958 45.967-36.56 73.609-67.9 113.056-177.23 195.869-300.561 227.676-36.376 9.382-64.179 12.886-109.067 13.744-23.94.459-46.954.415-51.143-.097zm417.343-47.094c-3.111-2.41-1.698-5.132 12.375-23.845 80.425-106.946 132.526-279.694 132.452-439.157-.025-54.092-4.346-88.719-17.073-136.82-51.133-193.27-210.732-338.405-401.584-365.187-20.652-2.899-25.993-4.352-26.006-7.078-.009-1.887 9.366-12.515 20.835-23.618 85.107-82.393 194.619-129.688 316.501-136.696 76.6-4.404 158.14 21.81 243.74 78.356 34.979 23.106 70.805 51.432 67.574 53.428-1.35.835-14.929-2.128-30.174-6.585-79.142-23.133-165.822-36.873-232.62-36.873-21.926 0-25.512 2.827-6.677 5.263 45.789 5.921 100.76 22.98 145.703 45.209 99.206 49.076 176.836 127.516 227.882 230.267 37.969 76.43 54.097 142.018 56.191 228.507 1.77 73.111-5.668 123.774-27.96 190.424-65.327 195.326-232.15 329.35-429.278 344.903-36.746 2.899-47.616 2.792-51.876-.507zm4203.951-22.505c-4.788-.458-19.477-1.887-32.644-3.175-52.558-5.141-138.901-22.356-142.767-28.466-2.185-3.45-2.635-101.385-.557-121.266.846-8.094 2.42-13.377 3.984-13.377 1.422 0 15.942 4.396 32.266 9.767 64.216 21.13 140.332 30.383 180.29 21.913 46.625-9.882 64.583-38.09 73.875-116.034 1.464-12.281 2.003-22.988 1.198-23.793-.805-.805-4.14.66-7.413 3.255-42.375 33.608-82.157 49.515-130 51.978-92.831 4.779-159.357-46.577-180.949-139.69-6.154-26.545-5.567-91.787 1.108-122.96 22.926-107.078 82.902-175.594 183.012-209.071 66.17-22.124 152.604-25.351 259.862-9.703 41.666 6.079 84.458 13.92 88.036 16.132 1.92 1.186.132 25.158-7.165 96.12l-27.29 265.382c-9.661 93.957-18.943 176.802-20.626 184.09-14.74 63.854-56.714 107.513-121.89 126.785-29.54 8.734-52.754 11.614-99.025 12.286-24.538.356-48.531.272-53.32-.186zm67.067-357.718c33.578-12.871 58.84-52.754 68.915-108.796 4.856-27.019 10.934-94.303 8.754-96.927-1.206-1.454-8.992-3.766-17.3-5.138-64.562-10.661-120.666 15.156-145.777 67.088-12.161 25.147-16.163 44.965-14.962 74.1.866 21.023 1.713 25.035 7.967 37.738 8.295 16.849 22.732 30.517 37.107 35.13 13.816 4.434 39.218 2.965 55.295-3.198zm-710.074 143.186c-18.082-2.582-43.698-11.194-58.563-19.688-33.715-19.265-54.512-57.591-54.657-100.727-.041-12.457 33.635-349.427 35.94-359.627l1.107-4.896h84.705c46.588 0 85.14.734 85.674 1.632.535.898-4.763 56.964-11.773 124.588-7.01 67.628-12.775 131.984-12.813 143.006-.082 24.503 4.857 39.578 16.785 51.22 10.539 10.285 23.39 14.699 42.724 14.672 32.916-.04 58.952-20.766 75.235-59.879 11.067-26.585 14.607-48.475 26.248-162.326 6.045-59.115 11.422-108.706 11.948-110.203.745-2.113 19.908-2.72 85.897-2.72h84.943l.066 5.985c.13 12.359-46.16 461.036-48.051 465.724l-1.975 4.897h-83.708c-48.134 0-84.227-.844-84.935-1.987-.675-1.093-.145-11.93 1.176-24.085 1.322-12.155 1.852-22.651 1.176-23.327-.675-.675-8.537 5.598-17.47 13.94-25.501 23.815-54.6 37.362-92.724 43.166-22.722 3.46-65.001 3.765-86.966.629zm-2697.322-10.148c-.616-.996 13.51-26.965 31.39-57.71 69.332-119.208 140.513-248.156 251.267-455.17 33.298-62.242 62.023-114.892 63.832-116.997 3.073-3.575 10.702-3.791 115.377-3.265l112.086.564 1.668 5.44c.918 2.993 9.164 33.842 18.324 68.553 23.16 87.764 57.718 207.68 114.035 395.695 26.466 88.364 47.558 161.57 46.872 162.68-1.481 2.397-194.602 2.742-198.13.353-1.3-.88-11.97-40.282-23.713-87.558-11.742-47.28-22.22-87.673-23.285-89.77-1.803-3.55-9.1-3.807-106.863-3.776-57.71.016-106.016.753-107.348 1.632-1.33.88-21.721 41.248-45.315 89.705s-44.05 88.842-45.46 89.738c-3.533 2.247-203.337 2.137-204.727-.113zm485.062-318.064c1.532-2.48-39.489-165.559-42.37-168.437-1.114-1.114-19.799 33.816-44.393 82.993-23.358 46.704-41.868 85.518-41.136 86.25 2.307 2.307 126.456 1.525 127.896-.806zm283.032 317.85c-1.236-2 45.749-466.58 47.72-471.86.79-2.113 20-2.72 85.963-2.72h84.943l-.033 7.072c-.061 13.33-47.085 464.368-48.682 466.95-1.987 3.215-167.928 3.757-169.91.556zm246.373-.693c-.554-1.496-.18-10.065.829-19.042 1.01-8.977 11.66-112.786 23.667-230.687s22.321-216.564 22.919-219.262l1.088-4.896h163.658l-1.557 22.85c-.857 12.569-1.064 22.851-.462 22.851.603 0 7.357-6.26 15.008-13.911 16.88-16.88 36.411-29.824 54.56-36.157 14.798-5.165 46.973-8.033 63.058-5.621 17.83 2.673 16.849-2.66 14.937 81.258-.934 40.994-2.35 75.185-3.146 75.982-.797.797-9.19-.319-18.653-2.48-12.84-2.933-22.531-3.65-38.209-2.83-19.126 1-22.63 1.903-39.162 10.095-30.146 14.938-50.653 42.463-60.043 80.589-2.258 9.17-9.107 66.076-15.35 127.55-6.2 61.045-12.237 112.217-13.416 113.706-1.649 2.092-21.396 2.72-85.428 2.72-64.642 0-83.512-.608-84.293-2.72zm620.262 0c-1.234-3.413 62.772-627.426 64.671-630.502.929-1.503 37.87-2.252 111.116-2.252h109.725l3.097 4.897c1.704 2.693 42.5 92.543 90.66 199.678 48.158 107.126 87.936 195.202 88.389 195.72.457.52 1.673.033 2.7-1.088 1.028-1.117 10.841-90.174 21.807-197.892 10.966-107.727 20.36-197.087 20.877-198.584 1.373-3.973 163.955-3.964 165.485.009.576 1.501-6.306 74.216-15.293 161.586a356719.61 356719.61 0 00-31.96 312.29c-8.59 84.383-16.548 154.652-17.685 156.149-1.605 2.112-25.971 2.713-108.985 2.687-58.804-.017-108.015-.753-109.356-1.632-1.343-.88-43.345-89.245-93.34-196.38-49.992-107.126-91.268-195.202-91.72-195.72-.453-.52-1.651-.033-2.663 1.088-1.011 1.117-10.693 88.89-21.516 195.046-10.823 106.156-20.32 194.051-21.105 195.318-2.216 3.586-163.61 3.182-164.909-.413zm697.834-.23c-1.318-3.434 46.095-468.299 48.092-471.531.815-1.318 33.01-2.121 85.042-2.121 70.297 0 83.914.495 84.91 3.088 1.148 2.993-42.984 442.924-46.41 462.632l-1.702 9.793-84.392.57c-70.097.473-84.58.058-85.543-2.431zm1368.608-.64c-1.672-4.357 44.501-461.177 47.314-468.12l1.985-4.896h83.71c46.037 0 84.218.838 84.852 1.862 1.135 1.837-45.825 466.753-47.678 472.025-.743 2.113-19.703 2.72-84.877 2.72-75.988 0-84.055-.34-85.305-3.591zm239.89 1.54c-1.09-1.764 41.565-428.35 46.147-461.497l1.654-11.97 79.298-.571c47.65-.344 80.118.248 81.352 1.483 1.289 1.288 1.033 12.69-.687 30.578-1.507 15.688-2.166 29.099-1.464 29.801.702.702 8.236-4.728 16.742-12.067 31.892-27.516 62.38-44.087 99.609-54.137 19.398-5.236 24.585-5.701 63.56-5.694 48.26.009 63.757 2.908 93.579 17.505 40.802 19.97 65.11 63.302 65.364 116.511.102 21.316-32.918 345.931-35.54 349.386-1.589 2.093-21.296 2.72-85.46 2.72-45.866 0-83.882-.79-84.475-1.757-.597-.966 4.718-58.012 11.811-126.768s12.91-131.934 12.927-140.398c.058-30.312-11.043-51.689-31.78-61.183-10.54-4.825-14.249-5.37-32.006-4.707-17.415.65-22 1.694-34.492 7.849-34.98 17.234-60.94 61.3-72.52 123.1-1.922 10.26-7.707 59.207-12.855 108.771-5.148 49.562-10.052 91.235-10.9 92.6-1.948 3.154-167.927 3.584-169.868.44zm580.616-1.405c-1.517-3.955 44.802-460.798 47.477-468.25l1.756-4.896h83.71c48.698 0 84.226.838 84.95 2.005 1.223 1.979-45.758 466.605-47.714 471.877-.784 2.112-19.784 2.72-84.935 2.72-74.653 0-84.07-.381-85.247-3.455zM2556.11 603.465c-1.204-1.948 8.811-105.473 10.705-110.663.771-2.113 19.962-2.72 85.938-2.72h84.943l.024 5.984c.05 12.497-9.172 99.79-11.036 104.462l-1.953 4.896h-83.709c-47.232 0-84.235-.853-84.918-1.958zm1564.452-1.002c-1.282-3.341 9.224-107.225 11.161-110.359.735-1.189 35.76-2.022 84.976-2.022 71.19 0 83.906.473 84.942 3.16 1.398 3.642-8.978 106.501-11.087 109.915-.931 1.505-29.47 2.265-85.124 2.265-68.592 0-83.931-.535-84.86-2.96zm1368.69-.512c-1.661-4.33 7.548-100.283 10.267-106.978l1.99-4.897h83.709c47.388 0 84.235.852 84.918 1.963 1.19 1.927-8.839 105.333-10.734 110.663-.751 2.113-19.719 2.72-84.893 2.72-74.82 0-84.071-.376-85.256-3.471zm820.531.204c-1.492-3.888 7.84-100.11 10.395-107.175l1.77-4.897h84.926c68.17 0 84.927.558 84.927 2.825 0 6.186-10.961 107.258-11.908 109.8-.786 2.111-19.79 2.72-84.935 2.72-72.634 0-84.095-.44-85.18-3.268zM438.482 401.993c-12.294-7.384-28.585-18.386-36.202-24.447-23.534-18.729-69.344-69.043-69.344-76.162 0-1.224 1.894-4.634 4.209-7.577 4.203-5.343 4.2-5.37-2.176-18.01-7.37-14.61-7.964-20.824-2.47-25.797 11.01-9.963 46.307-14.065 53.418-6.208 1.981 2.189 3.623 6.35 3.65 9.25.066 7.579 7.538 22.977 17.63 36.343 6.067 8.037 9.253 14.86 10.439 22.363 2.042 12.92 6.9 18.9 16.878 20.771 6.305 1.183 9.248.092 19.884-7.368 23.313-16.353 50.175-17.008 64.727-1.578 10.797 11.45 14.271 26.26 13.555 57.796-.6 26.466-.732 27.108-6.055 29.585-2.992 1.393-19.019 2.966-35.614 3.498l-30.175.966zm105.777 3.355c-2.168-1.34-2.534-5.25-1.469-15.652 4.025-39.29 16.396-99.806 21.741-106.362 1.465-1.795 6.393-13.547 10.952-26.115 23.577-65.001 55.307-115.31 99.698-158.066C730.347 46.02 799.976 13.413 883.882 1.43L894.02-.02l2.35 11.643c12.67 62.77 15.098 135.01 6.66 198.23-2.093 15.682-3.72 21.47-6.264 22.265-1.89.591-15.149 2.603-29.465 4.472-55.685 7.268-106.14 22.056-154.11 45.166-55.533 26.757-89.885 50.98-135.503 95.537-21.368 20.872-31.412 29.3-33.433 28.05z" fill="#a06a8e"/><path d="M453.783 1427.911c-64.81-8.2-117.564-23.353-169.753-48.756-143.844-70.025-244.522-206.504-274.56-372.211C-2.482 941.02-2.876 902.63 7.717 836.104c8.453-53.088 24.09-102.544 47.82-151.255 13.173-27.035 45.385-79.434 48.833-79.434 2.795 0 19.845 13.07 21.01 16.108.607 1.58-5.853 13.539-14.356 26.572-39.264 60.186-65.502 131.53-74.988 203.897-4.36 33.257-4.375 95.816-.033 129.268 28.202 217.206 195.532 387.955 405.746 414.037 23.732 2.945 80.866 2.943 104.577-.004 162.704-20.216 303.003-127.747 369.81-283.444 14.489-33.768 14.785-35.191 8.216-39.495-8.044-5.27-11.77-2.27-16.975 13.664-25.027 76.637-87.41 147.076-161.117 181.918-47.329 22.376-76.236 28.32-137.971 28.368-50.656.041-70.328-2.559-104.898-13.856-92.732-30.304-157.399-102.355-183.3-204.242-8.681-34.145-14.3-89.91-11.842-117.515l1.404-15.778 7.861.258c4.324.141 10.746.876 14.272 1.633l6.41 1.375-.586 21.84c-2.435 90.667 30.544 179.78 85.584 231.262 48.28 45.164 106.206 65.72 185.193 65.72 64.29 0 108.212-12.532 158.699-45.28 19.793-12.837 64.932-57.987 78.184-78.2 13.242-20.2 27.54-48.712 34.12-68.042 6.222-18.276 6.113-18.446-17.567-27.28-29.366-10.956-43.525-18.034-43.525-21.757 0-1.94 4.755-9.081 10.568-15.87 66.789-77.993 82.648-188.737 44.468-310.488-7.603-24.244-20.15-55.896-23.825-60.105-2.54-2.908-9.974-3.737-42.715-4.762-27.084-.848-46.494-2.65-61.279-5.69-81.964-16.847-152.719-59.638-212.624-128.586-17.864-20.562-47.568-62.802-47.568-67.644 0-3.946 2.06-4.161 39.775-4.161 21.876 0 48.072 1.026 58.215 2.28 105.128 12.995 204.514 63.117 278.55 140.48 37.391 39.071 63.48 76.871 87.978 127.475 22.787 47.073 35.712 87.797 43.697 137.675 10.031 62.661 6.763 151.74-8.39 228.655-5.195 26.369-3.434 24.487-20.972 22.402-4.912-.584-6.083 1.14-13.605 20.035-48.028 120.649-134.739 215.939-246.529 270.917-77.739 38.233-178.612 57.926-250.27 48.858zm414.062-46.87c-.646-1.076 5.94-11.463 14.638-23.082 80.568-107.637 132.452-279.76 132.378-439.157-.025-54.092-4.346-88.719-17.073-136.82-51.133-193.27-210.732-338.405-401.583-365.187-20.653-2.899-25.994-4.352-26.007-7.078-.008-1.887 9.367-12.515 20.835-23.618 85.107-82.393 194.62-129.688 316.502-136.696 76.6-4.404 158.14 21.81 243.74 78.356 31.504 20.81 71.398 51.822 68.086 52.926-1.248.416-13.895-2.66-28.105-6.837-55.104-16.193-96.474-24.946-149.832-31.7-41.505-5.254-105.555-8.052-111.263-4.86-3.89 2.177-3.815 2.429 1.31 4.336 2.993 1.114 11.807 2.704 19.587 3.533 7.78.83 25.259 3.975 38.843 6.99 87.18 19.354 169.038 65.067 235.342 131.432 201.224 201.389 204.826 541.365 7.926 747.968-75.41 79.126-169.556 128.767-275.564 145.316-26.79 4.18-88.052 7.03-89.763 4.174zm4189.886-24.99c-46.41-3.95-138.67-20.094-152.341-26.656l-5.44-2.611v-64.531c0-35.492.774-65.304 1.72-66.25.947-.945 14.169 2.353 29.38 7.33 50.452 16.505 86.86 23.565 133.793 25.943 82.788 4.196 112.202-22.266 124.457-111.962 4.065-29.751 4.165-35.291.635-35.286-1.496.002-10.554 5.892-20.13 13.089-21.782 16.37-51.321 31.175-73.993 37.085-22.004 5.736-63.73 7.875-85.914 4.405-36.492-5.708-61.846-18.554-88.405-44.79-27.464-27.131-44.572-63.164-51.034-107.488-3.73-25.587-1.484-82.18 4.346-109.479 27.7-129.721 116.273-204.892 261.178-221.655 32.867-3.803 113.666-1.559 158.954 4.414 44.456 5.864 104.437 16.559 106.945 19.072 2.864 2.863-51.686 528.54-57.067 549.935-2.427 9.65-8.476 25.87-13.441 36.043-7.343 15.046-12.704 22.17-28.717 38.17-16.463 16.447-23.078 21.35-40.364 29.912-40.003 19.815-83.158 27.881-146.468 27.374-20.587-.164-46.733-1.09-58.105-2.059zm72.992-349.222c41.015-10.68 69.044-49.264 80.43-110.72 5.697-30.742 11.958-97.66 9.424-100.71-6.643-8.004-52.486-11.726-77.972-6.33-64.65 13.687-107.579 72.56-103.918 142.52 1.494 28.586 7.257 43.265 23.21 59.116 18.683 18.564 40.155 23.596 68.829 16.129zm-703.37 135.216c-70.703-13.42-107.184-53.464-107.34-117.819-.033-14.59 33.78-353.778 35.842-359.503.76-2.113 19.75-2.72 84.967-2.72h83.989l-1.275 9.249c-4.368 31.681-25.107 245.476-25.107 258.825 0 24.534 4.718 37.703 18.227 50.878 13.54 13.206 24.947 17.094 46.406 15.818 43.209-2.567 73.16-38.181 86.522-102.882 2.406-11.648 25.12-219.722 25.12-230.111 0-2.227 167.014-2.368 168.158-.142.46.898-10.023 106.913-23.297 235.581l-24.134 233.953-169.17 1.14 1.281-10.364c3.705-29.99 4.156-41.919 1.585-41.919-1.44 0-7.518 5.361-13.506 11.914-19.34 21.16-46.878 36.834-79.107 45.025-22.672 5.762-85.675 7.541-109.158 3.083zm-2691.154-9.042c-.688-.688 4.655-11.215 11.872-23.395 58.942-99.469 134.287-235.104 249.803-449.727l83.783-155.663 225.069-1.127 2.106 8.18c34.07 132.304 59.568 221.77 134.122 470.644 23.128 77.203 42.726 143.062 43.552 146.353l1.5 5.984h-196.428l-2.098-4.896c-1.155-2.693-11.475-42.571-22.935-88.62-11.46-46.047-21.876-84.975-23.148-86.505-1.82-2.194-24.564-2.78-107.052-2.753-57.607.016-106.008.836-107.546 1.816-1.545.981-21.911 40.827-45.256 88.546-23.345 47.72-43.501 88.035-44.79 89.59-1.859 2.239-22.945 2.824-101.821 2.824-54.714 0-100.044-.563-100.727-1.25zm483.27-314.93c1.692-2.04-3.382-25.51-18.786-86.884-11.609-46.247-21.916-84.893-22.906-85.889-.99-.99-3.196.109-4.902 2.443-1.706 2.333-21.393 40.57-43.75 84.975-26.722 53.074-40.16 82.001-39.225 84.441 1.293 3.372 7.089 3.706 64.335 3.706 48.573 0 63.443-.638 65.234-2.795zm283.303 313.68c0-3.208 45.251-445.696 46.982-459.416l1.305-10.338h167.162l.022 5.985c.026 7.35-45.46 454.538-46.93 461.374l-1.053 4.896h-83.742c-61.514 0-83.742-.662-83.742-2.495zm247.376.863c-1.015-1.702 45.846-463.11 47.522-467.93 1.221-3.507 161.24-2.939 160.681.572-.191 1.197-1.053 11.234-1.913 22.307-1.126 14.506-.872 20.13.912 20.13 1.362 0 8.587-6.23 16.058-13.846 15.395-15.693 35.466-29.416 53.528-36.599 10.659-4.239 16.381-4.897 43.188-4.968 17.815-.05 31.822.84 33.076 2.094 2.488 2.488-.05 147.9-2.625 150.474-.859.859-8.648-.096-17.31-2.122-66.495-15.552-121.398 20.503-138.63 91.037-2.45 10.025-8.929 63.567-15.276 126.226-6.062 59.847-11.457 110.038-11.988 111.535-.75 2.111-19.46 2.72-83.602 2.72-45.451 0-83.075-.734-83.61-1.632zm620.229 0c-.676-1.117 62.04-620.015 63.735-628.964.059-.31 49.797-.31 110.532 0l110.425.564 89.499 198.723c49.223 109.298 90.593 199.818 91.934 201.158 1.342 1.342 3.091 1.79 3.887.993 1.128-1.128 41.933-388.004 42.109-399.24.032-2.127 17.838-2.72 81.653-2.72 63.827 0 81.615.593 81.63 2.72.039 5.428-63.411 623.034-64.28 625.683-.697 2.127-24.367 2.72-108.64 2.72h-107.743l-3.096-4.896c-1.703-2.694-43.017-90.586-91.81-195.318-48.793-104.733-89.97-191.806-91.507-193.5-2.369-2.605-3.116-2.274-4.905 2.176-1.16 2.887-10.568 89.474-20.906 192.406-10.337 102.94-19.31 189.856-19.94 193.146l-1.143 5.985h-80.22c-44.122 0-80.666-.734-81.209-1.632zm697.135-2.64c0-5.002 44.947-445.063 46.855-458.734l1.29-9.249h167.311v4.658c0 5.781-45.344 450.763-46.928 460.518l-1.148 7.073h-83.684c-81.713 0-83.684-.101-83.684-4.272zm1368.937-4.977c.05-5.087 10.594-111.1 23.431-235.581l23.341-226.336 84.293-.569c46.362-.313 84.285.176 84.277 1.088-.066 8.091-48.116 467.115-49.056 468.637-.724 1.17-35.688 2.009-83.816 2.009h-82.574l.092-9.25zm239.299 6.754c0-3.208 45.25-445.696 46.982-459.416l1.304-10.338h159.102l-1.338 15.778c-.735 8.678-2 22.878-2.808 31.557-1.112 11.934-.81 15.777 1.243 15.777 1.492 0 9.53-5.882 17.863-13.072 38.699-33.39 78.215-52.228 123.42-58.838 26.111-3.818 79.192-1.627 101.024 4.17 61.812 16.41 94.838 60.72 95.1 127.59.067 16.772-31.365 338.932-33.813 346.573-.677 2.114-19.599 2.72-84.935 2.72h-84.062l1.298-10.337c.714-5.686 6.779-63.71 13.477-128.948 8.403-81.839 11.845-123.75 11.1-135.191-1.693-26.054-12.262-44.952-30.637-54.78-7.623-4.079-12.425-4.802-31.872-4.802-21.372 0-23.836.464-36.997 6.965-38.847 19.19-64.48 64.342-75.841 133.588-2.438 14.86-7.948 62.273-12.243 105.366-4.296 43.09-8.277 80.55-8.848 83.24l-1.037 4.896h-83.742c-61.514 0-83.742-.662-83.742-2.495zm581.027-3.49c-.042-7.315 45.45-454.497 46.936-461.373l1.06-4.897h83.742c59.951 0 83.742.687 83.742 2.418 0 1.33-10.773 107.167-23.94 235.194-13.166 128.027-23.938 233.195-23.938 233.705 0 .515-37.704.936-83.783.936h-83.783l-.033-5.985zM2557.199 600.52c.025-1.496 2.46-26.103 5.44-54.682 2.982-28.579 5.421-52.328 5.421-52.775 0-.448 37.704-.813 83.783-.813h83.783v6.812c0 8.103-8.4 92.238-9.913 99.28l-1.051 4.896h-83.742c-65.556 0-83.742-.59-83.725-2.72zm1564.699-1.509c0-4.771 7.967-83.281 9.895-97.51l1.253-9.25h167.31v5.252c0 6.282-8.276 88.57-9.924 98.663l-1.154 7.073h-83.684c-81.422 0-83.684-.115-83.684-4.23zm1369.019-5.02c.074-5.087 2.275-29.815 4.896-54.95l4.767-45.702 84.334-.57c49.566-.335 84.334.246 84.334 1.409 0 1.088-2.448 25.29-5.44 53.783s-5.441 52.587-5.441 53.542-37.704 1.737-83.783 1.737h-83.783l.13-9.25zm820.325 3.315c0-7.685 8.497-93.76 9.882-100.11l1.057-4.846 84.301-.594c46.366-.327 84.556-.502 84.869-.39.312.113-.415 7.947-1.617 17.41-2.67 21.033-10.819 90.577-10.878 92.831-.024.898-37.746 1.632-83.832 1.632h-83.783zM450.222 406.907c-30.19-16.382-48.585-30.763-80.194-62.696-17.357-17.534-32.954-34.502-34.662-37.708-2.816-5.285-2.68-6.405 1.459-12.002l4.564-6.173-6.355-12.6c-6.934-13.747-7.946-21.014-3.447-24.748 9.59-7.96 43.367-12.341 53.467-6.936 2.885 1.544 4.578 4.612 4.608 8.349.066 8.13 7.234 23.213 17.483 36.788 6.17 8.173 8.585 13.5 8.585 18.94 0 10.68 3.225 17.894 9.978 22.32 9.819 6.433 18.642 4.938 30.032-5.087 18.902-16.638 48.684-17.478 63.48-1.79 10.797 11.45 14.27 26.26 13.555 57.796-.601 26.474-.731 27.108-6.055 29.562-2.992 1.38-17.903 2.954-33.134 3.498l-27.693.99zm94.131-1.568c-2.168-1.34-2.535-5.249-1.469-15.652 4.496-43.884 16.595-100.373 23.013-107.447 2.172-2.394 7.56-14.146 11.975-26.115 22.374-60.673 52.962-109.841 93.448-150.203 47.995-47.854 98.358-76.16 164.571-92.493 14.883-3.671 30.487-7.568 34.676-8.659 4.19-1.09 11.23-2.55 15.649-3.242 6.771-1.061 7.998-.65 7.824 2.624-.114 2.135 1.397 13.186 3.356 24.557 6.316 36.642 8.27 61.15 8.244 103.376-.025 36.125-3.98 84.013-8.036 97.248-.808 2.638-4.6 4.05-13.536 5.042-82.87 9.201-154.192 33.247-220.767 74.432-31.405 19.426-52.965 36.694-85.519 68.492-21.367 20.872-31.411 29.3-33.432 28.05z" fill="#9c5466"/><path d="M461.926 1428.652c-9.874-.458-17.954-1.633-17.954-2.61 0-.979-5.843-2.39-12.986-3.136-76.041-7.948-168.906-47.752-236.058-101.18C95.92 1242.954 24.615 1117.171 8.42 992.74c-1.48-11.37-3.683-21.343-4.895-22.16-3.073-2.072-2.992-103.845.084-105.844 1.258-.816 2.973-8.316 3.81-16.666 5.612-55.936 34.16-141.78 63.567-191.131 14.134-23.723 31.777-49.398 33.944-49.398 2.22 0 21.31 13.161 21.31 14.692 0 .493-6.283 10.365-13.962 21.938C72.725 703.778 46.823 772 35.702 845.846c-5.427 36.035-5.427 105.424 0 141.459 27.78 184.477 150.243 333.766 319.47 389.451 193.04 63.52 403.172-11.511 519.042-185.332 24.41-36.62 55.07-99.897 55.07-113.658 0-4.711-5.908-8.852-12.632-8.852-3.297 0-5.497 3.67-10.115 16.866-30.816 88.069-101.945 161.447-186.344 192.25-79.918 29.166-181.845 24.135-255.544-12.614-98.013-48.872-155.606-155.82-155.606-288.971 0-16.027.756-29.608 1.681-30.179.925-.572 7.046-.385 13.601.415l11.92 1.455 1.38 40.262c.969 28.272 2.79 47.065 6.115 63.111 24.454 117.992 96.697 192.662 205.781 212.698 27.834 5.113 91.284 5.054 117.03-.11 80.506-16.145 149.544-66.495 191.534-139.69 13.081-22.803 23.968-50.098 24.214-60.711l.197-8.48-22.85-9.192c-32.325-13.002-38.69-15.918-40.25-18.443-.756-1.223 3.443-7.848 9.331-14.723 33.171-38.728 54.35-86.242 62.802-140.9 4.473-28.926 2.758-86.694-3.49-117.523-8.028-39.609-29.603-106.312-37.443-115.754-1.689-2.036-9.29-2.856-26.582-2.869-132.633-.098-240.903-60.148-324.192-179.813-6.774-9.733-12.317-18.663-12.317-19.846 0-3.148 13.372-4.845 38.399-4.872 179.27-.195 341.26 103.195 421.07 268.745 16.054 33.304 24.366 56.01 33.5 91.515 11.68 45.4 14.984 73.659 15.005 128.29.016 50.642-2.3 78.189-10.897 129.49-7.028 41.937-5.796 39.212-17.463 38.6l-9.775-.514-7.254 18.498c-33.957 86.604-87.5 160.09-157.054 215.552-65.835 52.494-149.38 89.187-228.474 100.35-10.661 1.503-19.875 3.39-20.473 4.191-1.405 1.88-58.834 3.739-82.155 2.658zm409.02-52.376a9137.774 9137.774 0 0115.393-20.607c34.548-46.156 64.477-106.535 87.673-176.86 43.152-130.84 54.3-271.18 30.133-379.36-17.548-78.554-57.092-157.152-110.318-219.278-45.395-52.984-95.142-91.531-157.144-121.767-47.654-23.241-88.842-36.099-139.213-43.458-13.127-1.918-24.244-3.864-24.703-4.323-2.658-2.658 24.213-29.361 55.098-54.755C705.057 292.4 823.858 250.584 926.79 250.65c86.563.052 180.669 40.827 284.95 123.47 6.755 5.354.81 4.725-23.807-2.519-79.15-23.29-161.71-36.013-234.043-36.065-27.894-.017-37.322 1.597-31.236 5.359 1.183.73 14.988 3.214 30.678 5.516 214.968 31.55 383.825 207.023 418.832 435.242 5.469 35.657 6.647 101.78 2.453 137.716-8.356 71.612-25.469 129.03-56.782 190.515-43.058 84.547-109.956 156.535-190.506 204.999-69.46 41.792-152.045 65.238-229.798 65.238-27.747 0-29.266-.22-26.585-3.841zm4207.323-20.125c-48.316-2.817-102.232-10.916-153.879-23.117l-23.395-5.526v-64.736c0-35.605.526-65.262 1.17-65.905.643-.643 15.577 3.496 33.188 9.198 53.115 17.2 92.666 23.89 141.212 23.89 31.924 0 46.917-2.409 61.878-9.943 34.362-17.304 44.114-39.962 55.44-128.808 1.818-14.259-2.656-13.967-23.203 1.515-9.738 7.339-27.64 18.179-39.779 24.089-29.738 14.479-53.952 20.11-87.36 20.315-33.013.203-54.084-4.323-81.611-17.53-36.874-17.692-65.97-52.318-80.454-95.743-24.968-74.85-11.736-173.702 32.92-245.97 22.494-36.4 65.811-74.082 107.077-93.151 82.813-38.263 184.173-42.893 339.804-15.526 38.049 6.69 39.191 7.044 39.792 12.329.96 8.45-51.344 514.648-55.205 534.274-1.884 9.576-6.366 24.481-9.96 33.123-33.62 80.845-116.734 115.434-257.641 107.217zm68.776-354.075c31.41-15.478 51.41-45.678 63.034-95.183 3.889-16.562 13.01-91.507 13.01-106.904 0-8.5-4.102-10.294-31.964-13.984-45.568-6.034-89.985 9.53-119.143 41.748-42.384 46.836-47.78 130.873-10.602 165.148 15.922 14.675 24.34 17.509 49.756 16.743 19.46-.586 23.444-1.425 35.908-7.568zm-696.535 141.599c-64.317-5.964-106.731-32.176-121.874-75.324-9.508-27.087-9.607-38.179-1.095-121.784 23.322-229.05 28.962-280.713 30.85-282.597 1.264-1.264 33.527-1.853 82.466-1.505l80.386.57-.396 13.058c-.218 7.182-5.939 66.431-12.712 131.663-13.138 126.538-13.487 137.387-5.046 157.012 5.37 12.48 19.595 26.248 31.395 30.383 4.687 1.643 16.357 2.944 25.932 2.893 14.461-.074 19.541-1.12 29.99-6.152 30.608-14.742 52.681-51.965 61.444-103.614 1.726-10.174 7.605-63.058 13.065-117.523 5.46-54.462 10.397-101.221 10.97-103.919l1.045-4.896h81.44c45.344 0 81.972.86 82.64 1.94.958 1.55-40.725 418.898-45.725 457.795l-1.328 10.338h-165.584l1.542-18.996c.847-10.447 2.08-21.695 2.74-24.993 2.338-11.69-4.4-9.03-22.628 8.93-27.598 27.191-59.523 40.841-107.283 45.866-19.866 2.09-36.004 2.352-52.23.848zm-2709.907-18.728c52.773-87.056 157.654-275.975 274.56-494.562 32.65-61.045 61.71-114.67 64.58-119.168l5.218-8.181 220.29 1.128 11.702 44.614c28.156 107.332 61.087 221.886 126.695 440.72 21.527 71.805 39.815 133.258 40.641 136.565l1.5 6.007-194.997-1.134-21.893-87.5c-12.041-48.125-22.93-88.53-24.199-89.796-1.568-1.559-37.012-2.111-110.836-1.727l-108.533.564-87.36 179.517-201.66.033 4.287-7.073zM2221.413 817c1.55-3.999-39.475-169.852-42.848-173.225-1.051-1.05-2.908-1.294-4.128-.54-3.408 2.107-87.393 168.816-87.393 173.472 0 3.93 2.799 4.102 66.444 4.102 61.268 0 66.56-.297 67.922-3.808zm283.592 306.853c.065-4.488 10.61-110.013 23.44-234.495l23.325-226.335h165.304l-.51 9.793c-.28 5.386-10.807 110.202-23.394 232.924-12.588 122.721-22.886 223.843-22.886 224.698 0 .862-37.214 1.567-82.697 1.567h-82.697l.113-8.161zm245.87 4.353c.292-16.288 47.67-462.64 49.276-464.252 1.257-1.257 32.442-1.847 79.194-1.5l77.12.572-.091 6.529c-.05 3.59-.826 14.119-1.723 23.395-2.106 21.77-.249 21.845 21.028.841 30.208-29.817 55.77-41.233 92.864-41.47 12.568-.082 25.69.637 29.16 1.594l6.31 1.74-1.573 73.25c-.865 40.287-1.969 73.89-2.452 74.67-.483.783-8.49-.465-17.794-2.772-29.94-7.423-63.16-2.236-88.076 13.753-23.002 14.76-42.674 44.33-50.486 75.892-1.926 7.78-8.405 62.132-14.397 120.78-5.992 58.65-11.42 109.824-12.06 113.707l-1.166 7.072h-82.598c-77.242 0-82.599-.246-82.533-3.808zm620.171.842c0-3.116 57.006-559.584 61.564-600.949l2.637-23.938 107.99-.565c84.753-.442 108.45.025 110.161 2.177 1.195 1.507 42.607 92.592 92.025 202.416 55.988 124.416 90.98 199.677 92.847 199.677 1.646 0 3.43-1.224 3.965-2.72.857-2.397 28.094-264.855 37.433-360.72 1.925-19.75 4.442-37.133 5.596-38.63 1.608-2.086 20.256-2.72 80.047-2.72 42.873 0 78.334.734 78.802 1.632.468.898-4.817 56.474-11.743 123.503-6.927 67.03-20.95 203.642-31.163 303.587-10.212 99.946-19.13 185.884-19.817 190.967l-1.249 9.25h-107.323c-83.306 0-107.785-.61-109.397-2.72-1.136-1.497-42.469-89.393-91.852-195.319-49.381-105.933-91.16-194.026-92.855-195.77-1.932-1.996-3.795-2.4-5.029-1.088-1.517 1.613-41.725 380.477-41.62 392.182.021 2.128-17.519 2.72-80.498 2.72-66.528 0-80.523-.515-80.523-2.966zm697.415-4.107c.664-3.89 11.527-108.434 24.14-232.315 12.615-123.881 23.348-226.467 23.853-227.964.711-2.112 19.167-2.72 82.466-2.72 44.853 0 81.983.734 82.508 1.632.528.897-9.68 104.955-22.684 231.23-13.004 126.274-23.661 231.311-23.682 233.409-.034 3.56-5.498 3.808-83.922 3.808h-83.882zm1367.868 6.264c0-7.093 48.156-465.782 49.052-467.23.745-1.206 34.49-2.037 82.739-2.037h81.482l-.1 8.162c-.058 4.488-10.61 110.013-23.456 234.495l-23.354 226.335-83.182.57c-45.751.314-83.183.183-83.183-.291zm241.667-7.352c.058-4.488 10.6-110.013 23.43-234.495l23.326-226.335 77.086-.573c42.397-.315 77.843.184 78.768 1.11.925.924.262 14.403-1.473 29.952-1.736 15.549-3.165 29.494-3.177 30.991-.05 5.955 7.395 1.946 27.011-14.546 11.295-9.497 28.124-21.709 37.398-27.137 76.962-45.052 191.057-41.222 241.1 8.094 24.297 23.944 34.712 52.841 34.66 96.153-.025 20.989-25.425 284.538-32.351 335.691l-1.253 9.25h-165.13v-4.642c0-2.553 5.946-62.047 13.214-132.205 14.537-140.332 14.627-145.095 3.166-167.714-10.696-21.107-25.881-29.11-55.667-29.338-19.8-.15-21.575.232-37.367 8.037-39.191 19.369-65.518 64.94-76.788 132.92-2.546 15.356-20.66 183.03-20.66 191.239 0 .94-37.215 1.71-82.698 1.71h-82.697l.102-8.16zm579.596-1.088c.719-5.087 11.622-109.997 24.23-233.138 12.607-123.14 23.45-224.748 24.095-225.792 1.162-1.88 162.516-2.794 164.383-.931.995.995-45.51 461.505-47.099 466.39-.687 2.114-19.41 2.72-83.898 2.72h-83.018zM2559.415 592.842c.066-4.489 2.278-28.727 4.912-53.863l4.788-45.701 81.46-.57c44.803-.315 82.215.183 83.14 1.107.924.923-.72 24.684-3.652 52.801-2.931 28.118-5.34 51.858-5.35 52.756-.022.897-37.236 1.632-82.723 1.632h-82.697l.124-8.161zm1564.288 7.14c-1.057-1.057 8.503-100.242 10.127-105.07.71-2.112 19.162-2.72 82.466-2.72 44.853 0 81.983.734 82.508 1.631.528.898-1.35 23.667-4.174 50.6-2.824 26.93-5.157 50.68-5.184 52.774-.046 3.56-5.44 3.809-82.385 3.809-45.285 0-82.796-.46-83.355-1.022zm1366.962.398c0-6.228 11.227-104.815 12.096-106.221.693-1.121 36.364-1.972 82.697-1.972h81.483l-.15 9.25c-.083 5.087-2.287 29.325-4.897 53.862l-4.746 44.614-83.24.57c-45.784.314-83.24.267-83.24-.104zm821.42-8.626c.677-5.087 3.245-28.836 5.706-52.775s5.164-44.226 6.007-45.082c.843-.855 39.028-1.835 84.853-2.176 82.409-.614 83.314-.572 82.151 3.732-.644 2.394-1.184 8.573-1.2 13.73-.025 5.158-.82 8.89-1.787 8.293-.966-.597-3.512 17.217-5.657 39.588s-4.35 41.41-4.9 42.307c-.55.898-38.217 1.632-83.7 1.632h-82.706zM448.186 404.875c-33.872-18.313-66.255-44.956-92.617-76.205-18.008-21.345-22.833-32.224-16.49-37.18 3.25-2.537 3.276-2.398.3 1.569-3.027 4.037-2.988 4.136.544 1.366 4.334-3.4 5.036-10.144 1.296-12.455-1.557-.962-1.922-.597-.96.96.854 1.381 1.04 2.512.413 2.512s-2.251-2.077-3.61-4.615c-1.7-3.176-1.731-4.159-.1-3.152 1.474.912 1.88.194 1.076-1.9-.71-1.851-2.065-2.887-3.011-2.302-2.537 1.567-4.222-4.264-2.927-10.128.898-4.065.652-4.441-1.204-1.842-1.893 2.65-2.338 2.175-2.365-2.527-.05-8.055 14.886-15.13 34.964-16.567 19.286-1.38 27.023 2.676 24.76 12.98-1.085 4.935-.78 6.236 1.18 5.026 1.918-1.186 2.216-.293 1.087 3.264-.938 2.956-.726 4.385.537 3.605 1.15-.71 3.221 1.188 4.602 4.22 1.774 3.892 1.804 5.073.101 4.02-1.716-1.06-1.7-.161.058 3.127 1.358 2.538 2.983 4.615 3.61 4.615.627 0 .535-.98-.205-2.176-3.13-5.066.68-1.611 5.4 4.896 4.31 5.94 4.443 6.55.834 3.809-2.363-1.796-1.305-.442 2.352 3.007 3.656 3.45 5.18 5.484 3.384 4.522-2.378-1.274-2.23-.566.543 2.605 2.185 2.497 3.809 7.854 3.809 12.561 0 6.432 1.6 9.808 7.4 15.607 11.273 11.273 23.037 9.265 38.732-6.614 4.362-4.413 7.089-5.553 10.61-4.435 2.606.827 4.22.665 3.586-.361-.634-1.026 6.003-1.865 14.75-1.865s15.514.631 15.039 1.404c-.476.772.65 1.985 2.5 2.695 2.095.804 2.813.397 1.902-1.077-3.277-5.301 7.653 2.676 11.968 8.734 5.166 7.256 6.176 11.89 1.204 5.526-3.066-3.925-3.12-3.805-.77 1.692 1.391 3.254 3.263 5.463 4.16 4.909 2.623-1.622 4.231 4.968 3.073 12.593-.688 4.534-.453 5.662.66 3.161.966-2.172 1.73 8.58 1.73 24.367 0 15.54-.745 27.082-1.655 25.65-1.124-1.767-1.666-1.393-1.689 1.164-.041 4.802-3.735 5.49-37.034 6.903l-27.208 1.154-16.317-8.822zm71.822-78.905c0-.452-1.714-2.166-3.809-3.809-3.451-2.707-3.528-2.63-.821.822 2.843 3.625 4.63 4.778 4.63 2.987zm22.79 63.39c2.823-30.334 13.722-87.567 19.779-103.853.969-2.606 1.524-2.664 2.98-.308 1.235 1.998 2.975-.38 5.62-7.678 8.859-24.46 23.754-61.39 28.841-71.51 36.462-72.532 98.046-134.615 165.23-166.57 24.232-11.525 63.449-24.634 88.817-29.689 10.772-2.146 20.076-4.503 20.674-5.238.599-.735 5.323-1.89 10.499-2.565 7.308-.955 9.161-.58 8.295 1.678-.614 1.599.693 13.022 2.905 25.386 9.335 52.197 11.173 127.007 4.322 175.906-3.311 23.633-4.655 26.115-14.143 26.115-13.317 0-51.331 6.37-79.342 13.293-89.878 22.217-172.674 69.64-238.156 136.409-10.69 10.9-20.239 19.322-21.219 18.717-.98-.605-1.781.426-1.781 2.292 0 1.866-1.079 3.393-2.397 3.393-1.66 0-1.946-4.853-.929-15.778zm-54.89-77.127c2.094-.547 5.522-.547 7.617 0 2.094.548.38.996-3.809.996s-5.903-.448-3.808-.996zm-154.89-10.65c.104-2.536.62-3.051 1.314-1.315.628 1.57.551 3.448-.172 4.17-.723.724-1.237-.561-1.143-2.856z" fill="#b33146"/><path d="M461.926 1428.652c-9.874-.458-17.954-1.633-17.954-2.61 0-.979-5.843-2.39-12.986-3.136-76.041-7.948-168.906-47.752-236.058-101.18C95.92 1242.954 24.615 1117.171 8.42 992.74c-1.48-11.37-3.683-21.343-4.895-22.16-3.073-2.072-2.992-103.845.084-105.844 1.258-.816 2.973-8.316 3.81-16.666 5.612-55.936 34.16-141.78 63.567-191.131 14.134-23.723 31.777-49.398 33.944-49.398 2.22 0 21.31 13.161 21.31 14.692 0 .493-6.283 10.365-13.962 21.938C72.725 703.778 46.823 772 35.702 845.846c-5.427 36.035-5.427 105.424 0 141.459 27.78 184.477 150.243 333.766 319.47 389.451 193.04 63.52 403.172-11.511 519.042-185.332 24.41-36.62 55.07-99.897 55.07-113.658 0-4.711-5.908-8.852-12.632-8.852-3.297 0-5.497 3.67-10.115 16.866-30.816 88.069-101.945 161.447-186.344 192.25-79.918 29.166-181.845 24.135-255.544-12.614-98.013-48.872-155.606-155.82-155.606-288.971 0-16.027.756-29.608 1.681-30.179.925-.572 7.046-.385 13.601.415l11.92 1.455 1.38 40.262c.969 28.272 2.79 47.065 6.115 63.111 24.454 117.992 96.697 192.662 205.781 212.698 27.834 5.113 91.284 5.054 117.03-.11 80.506-16.145 149.544-66.495 191.534-139.69 13.081-22.803 23.968-50.098 24.214-60.711l.197-8.48-22.85-9.192c-32.325-13.002-38.69-15.918-40.25-18.443-.756-1.223 3.443-7.848 9.331-14.723 33.171-38.728 54.35-86.242 62.802-140.9 4.473-28.926 2.758-86.694-3.49-117.523-8.028-39.609-29.603-106.312-37.443-115.754-1.689-2.036-9.29-2.856-26.582-2.869-132.633-.098-240.903-60.148-324.192-179.813-6.774-9.733-12.317-18.663-12.317-19.846 0-3.148 13.372-4.845 38.399-4.872 179.27-.195 341.26 103.195 421.07 268.745 16.054 33.304 24.366 56.01 33.5 91.515 11.68 45.4 14.984 73.659 15.005 128.29.016 50.642-2.3 78.189-10.897 129.49-7.028 41.937-5.796 39.212-17.463 38.6l-9.775-.514-7.254 18.498c-33.957 86.604-87.5 160.09-157.054 215.552-65.835 52.494-149.38 89.187-228.474 100.35-10.661 1.503-19.875 3.39-20.473 4.191-1.405 1.88-58.834 3.739-82.155 2.658zm4616.368-72.501c-48.316-2.817-102.232-10.916-153.88-23.117l-23.394-5.526v-64.736c0-35.605.526-65.262 1.17-65.905.642-.643 15.577 3.496 33.188 9.198 53.114 17.2 92.666 23.89 141.211 23.89 31.925 0 46.918-2.409 61.879-9.943 34.362-17.304 44.114-39.962 55.44-128.808 1.817-14.259-2.656-13.967-23.203 1.515-9.739 7.339-27.64 18.179-39.78 24.089-29.738 14.479-53.951 20.11-87.36 20.315-33.012.203-54.083-4.323-81.61-17.53-36.874-17.692-65.97-52.318-80.455-95.743-24.967-74.85-11.736-173.702 32.921-245.97 22.494-36.4 65.81-74.082 107.077-93.151 82.812-38.263 184.173-42.893 339.804-15.526 38.048 6.69 39.19 7.044 39.791 12.329.96 8.45-51.344 514.648-55.205 534.274-1.884 9.576-6.366 24.481-9.96 33.123-33.62 80.845-116.733 115.434-257.64 107.217zm68.776-354.075c31.41-15.478 51.41-45.678 63.033-95.183 3.89-16.562 13.01-91.507 13.01-106.904 0-8.5-4.101-10.294-31.963-13.984-45.568-6.034-89.985 9.53-119.144 41.748-42.384 46.836-47.779 130.873-10.601 165.148 15.922 14.675 24.34 17.509 49.756 16.743 19.46-.586 23.443-1.425 35.908-7.568zm-696.535 141.599c-64.317-5.964-106.732-32.176-121.874-75.324-9.508-27.087-9.608-38.179-1.095-121.784 23.322-229.05 28.961-280.713 30.85-282.597 1.263-1.264 33.527-1.853 82.466-1.505l80.386.57-.397 13.058c-.218 7.182-5.938 66.431-12.711 131.663-13.138 126.538-13.487 137.387-5.046 157.012 5.369 12.48 19.594 26.248 31.394 30.383 4.688 1.643 16.357 2.944 25.933 2.893 14.461-.074 19.541-1.12 29.99-6.152 30.608-14.742 52.681-51.965 61.443-103.614 1.726-10.174 7.606-63.058 13.065-117.523 5.46-54.462 10.397-101.221 10.971-103.919l1.045-4.896h81.44c45.344 0 81.972.86 82.64 1.94.958 1.55-40.726 418.898-45.725 457.795l-1.328 10.338h-165.584l1.541-18.996c.848-10.447 2.082-21.695 2.741-24.993 2.338-11.69-4.4-9.03-22.628 8.93-27.598 27.191-59.524 40.841-107.283 45.866-19.867 2.09-36.005 2.352-52.23.848zm-2709.907-18.728c52.773-87.056 157.654-275.975 274.56-494.562 32.65-61.045 61.71-114.67 64.58-119.168l5.217-8.181 220.29 1.128 11.703 44.614c28.155 107.332 61.087 221.886 126.694 440.72 21.528 71.805 39.816 133.258 40.642 136.565l1.5 6.007-194.997-1.134-21.893-87.5c-12.041-48.125-22.93-88.53-24.2-89.796-1.568-1.559-37.011-2.111-110.835-1.727l-108.533.564-87.36 179.517-201.66.033 4.287-7.073zM2221.438 817c1.55-3.999-39.475-169.852-42.849-173.225-1.05-1.05-2.908-1.294-4.127-.54-3.409 2.107-87.394 168.816-87.394 173.472 0 3.93 2.8 4.102 66.445 4.102 61.268 0 66.56-.297 67.921-3.808zm283.591 306.853c.066-4.488 10.61-110.013 23.44-234.495l23.326-226.335H2717.1l-.51 9.793c-.28 5.386-10.808 110.202-23.395 232.924-12.587 122.721-22.885 223.843-22.885 224.698 0 .862-37.215 1.567-82.697 1.567h-82.697l.113-8.161zm245.871 4.353c.292-16.288 47.669-462.64 49.276-464.252 1.256-1.257 32.442-1.847 79.193-1.5l77.12.572-.09 6.529c-.05 3.59-.826 14.119-1.724 23.395-2.106 21.77-.248 21.845 21.03.841 30.207-29.817 55.77-41.233 92.863-41.47 12.568-.082 25.69.637 29.16 1.594l6.31 1.74-1.573 73.25c-.866 40.287-1.969 73.89-2.452 74.67-.483.783-8.49-.465-17.794-2.772-29.94-7.423-63.161-2.236-88.077 13.753-23.002 14.76-42.673 44.33-50.486 75.892-1.926 7.78-8.404 62.132-14.396 120.78-5.992 58.65-11.42 109.824-12.06 113.707l-1.166 7.072h-82.599c-77.242 0-82.598-.246-82.532-3.808zm620.171.842c0-3.116 57.006-559.584 61.563-600.949l2.637-23.938 107.99-.565c84.754-.442 108.45.025 110.162 2.177 1.194 1.507 42.607 92.592 92.024 202.416 55.99 124.416 90.98 199.677 92.848 199.677 1.646 0 3.43-1.224 3.965-2.72.857-2.397 28.094-264.855 37.433-360.72 1.924-19.75 4.442-37.133 5.595-38.63 1.608-2.086 20.257-2.72 80.048-2.72 42.873 0 78.334.734 78.802 1.632.468.898-4.817 56.474-11.744 123.503-6.926 67.03-20.95 203.642-31.162 303.587-10.213 99.946-19.13 185.884-19.817 190.967l-1.249 9.25h-107.324c-83.306 0-107.784-.61-109.396-2.72-1.137-1.497-42.469-89.393-91.852-195.319-49.381-105.933-91.161-194.026-92.855-195.77-1.932-1.996-3.795-2.4-5.029-1.088-1.517 1.613-41.725 380.477-41.62 392.182.02 2.128-17.52 2.72-80.499 2.72-66.527 0-80.522-.515-80.522-2.966zm697.415-4.107c.663-3.89 11.526-108.434 24.14-232.315 12.615-123.881 23.347-226.467 23.852-227.964.712-2.112 19.168-2.72 82.467-2.72 44.853 0 81.983.734 82.508 1.632.528.897-9.68 104.955-22.684 231.23-13.005 126.274-23.661 231.311-23.682 233.409-.034 3.56-5.498 3.808-83.923 3.808h-83.881zm1367.867 6.264c0-7.093 48.156-465.782 49.053-467.23.745-1.206 34.49-2.037 82.738-2.037h81.482l-.1 8.162c-.057 4.488-10.61 110.013-23.455 234.495l-23.354 226.335-83.183.57c-45.75.314-83.182.183-83.182-.291zm241.668-7.352c.058-4.488 10.6-110.013 23.429-234.495l23.327-226.335 77.086-.573c42.397-.315 77.842.184 78.768 1.11.924.924.261 14.403-1.474 29.952-1.735 15.549-3.164 29.494-3.176 30.991-.05 5.955 7.395 1.946 27.01-14.546 11.296-9.497 28.125-21.709 37.399-27.137 76.962-45.052 191.057-41.222 241.1 8.094 24.296 23.944 34.712 52.841 34.66 96.153-.025 20.989-25.425 284.538-32.351 335.691l-1.253 9.25h-165.131v-4.642c0-2.553 5.946-62.047 13.215-132.205 14.537-140.332 14.627-145.095 3.166-167.714-10.696-21.107-25.882-29.11-55.667-29.338-19.8-.15-21.575.232-37.368 8.037-39.19 19.369-65.518 64.94-76.788 132.92-2.546 15.356-20.66 183.03-20.66 191.239 0 .94-37.215 1.71-82.697 1.71h-82.697l.102-8.16zm579.596-1.088c.719-5.087 11.622-109.997 24.23-233.138 12.607-123.14 23.45-224.748 24.095-225.792 1.162-1.88 162.516-2.794 164.383-.931.995.995-45.51 461.505-47.1 466.39-.687 2.114-19.41 2.72-83.897 2.72h-83.018zM2559.44 592.842c.065-4.489 2.278-28.727 4.912-53.863l4.788-45.701 81.46-.57c44.802-.315 82.214.183 83.14 1.107.924.923-.72 24.684-3.652 52.801-2.932 28.118-5.34 51.858-5.351 52.756-.021.897-37.235 1.632-82.722 1.632h-82.697l.124-8.161zm1564.287 7.14c-1.056-1.057 8.504-100.242 10.127-105.07.71-2.112 19.163-2.72 82.467-2.72 44.853 0 81.982.734 82.508 1.631.528.898-1.35 23.667-4.174 50.6-2.824 26.93-5.157 50.68-5.184 52.774-.046 3.56-5.44 3.809-82.385 3.809-45.285 0-82.796-.46-83.355-1.022zm1366.963.398c0-6.228 11.227-104.815 12.096-106.221.693-1.121 36.364-1.972 82.697-1.972h81.482l-.15 9.25c-.082 5.087-2.286 29.325-4.897 53.862l-4.746 44.614-83.24.57c-45.783.314-83.24.267-83.24-.104zm821.42-8.626c.676-5.087 3.244-28.836 5.706-52.775s5.164-44.226 6.007-45.082c.843-.855 39.027-1.835 84.852-2.176 82.41-.614 83.314-.572 82.152 3.732-.644 2.394-1.184 8.573-1.2 13.73-.025 5.158-.82 8.89-1.788 8.293-.966-.597-3.511 17.217-5.656 39.588s-4.35 41.41-4.9 42.307c-.55.898-38.218 1.632-83.701 1.632h-82.705zM448.21 404.875c-34.372-18.583-66.715-45.331-93.562-77.377-17.598-21.007-20.578-28.025-14.16-33.351 4.473-3.712 4.13-6.609-2.106-17.765-2.953-5.285-5.646-12.998-5.984-17.14-.557-6.822.18-7.92 7.82-11.65 10.29-5.024 35.719-7.239 42.352-3.69 3.307 1.77 4.723 4.603 4.756 9.517.066 9.593 7.04 24.204 18.575 38.912 7.46 9.514 9.669 14.16 9.669 20.349 0 6.217 1.662 9.68 7.399 15.417 9.043 9.043 17.211 9.627 27.643 1.976 12.843-9.42 22.177-12.77 37.863-13.592 19.958-1.045 27.41 3.307 35.346 20.64 4.577 9.996 5.863 16.676 6.66 34.577 1.256 28.25-.342 37.436-6.736 38.724-2.641.532-17.045 1.486-32.01 2.12l-27.208 1.155zm100.11-14.804c0-53.86 30.51-150.21 66.58-210.271 37.085-61.745 91.12-112.177 150.376-140.365 24.232-11.526 63.449-24.634 88.816-29.689 10.773-2.146 20.077-4.503 20.675-5.238.598-.735 5.323-1.89 10.498-2.565 7.308-.955 9.162-.58 8.296 1.678-.614 1.599.693 13.022 2.904 25.386 9.336 52.197 11.174 127.006 4.323 175.906-3.312 23.633-4.656 26.115-14.143 26.115-25.72 0-91.54 14.522-130.486 28.788-48.038 17.597-106.065 50.261-143.63 80.848-8.379 6.822-26.251 23.334-39.717 36.691l-24.483 24.288z" fill="#5e1e56"/><path d="M5078.212 1356.187c-48.317-2.817-102.233-10.916-153.88-23.117l-23.395-5.526v-64.736c0-35.605.527-65.262 1.17-65.905.643-.643 15.578 3.496 33.188 9.198 53.115 17.2 92.667 23.89 141.212 23.89 31.924 0 46.917-2.409 61.878-9.943 34.362-17.304 44.114-39.962 55.44-128.808 1.818-14.259-2.656-13.967-23.202 1.516-9.739 7.338-27.64 18.178-39.78 24.088-29.738 14.48-53.952 20.11-87.36 20.315-33.013.203-54.083-4.323-81.61-17.53-36.874-17.692-65.97-52.318-80.455-95.743-24.967-74.85-11.736-173.702 32.92-245.97 22.495-36.399 65.811-74.081 107.078-93.151 82.812-38.262 184.173-42.893 339.803-15.526 38.049 6.69 39.191 7.044 39.792 12.329.96 8.45-51.344 514.649-55.205 534.274-1.884 9.576-6.366 24.481-9.96 33.123-33.62 80.845-116.733 115.434-257.641 107.217zm68.775-354.075c31.41-15.478 51.41-45.678 63.034-95.183 3.89-16.562 13.01-91.506 13.01-106.904 0-8.5-4.101-10.294-31.963-13.984-45.569-6.034-89.985 9.53-119.144 41.748-42.384 46.836-47.779 130.873-10.601 165.148 15.921 14.676 24.34 17.51 49.755 16.743 19.46-.586 23.444-1.425 35.909-7.568zm-696.534 141.599c-64.317-5.963-106.732-32.176-121.875-75.324-9.507-27.087-9.607-38.179-1.094-121.784 23.322-229.05 28.961-280.713 30.849-282.597 1.264-1.264 33.528-1.853 82.467-1.505l80.386.57-.397 13.058c-.218 7.182-5.938 66.431-12.711 131.663-13.139 126.538-13.487 137.387-5.046 157.013 5.369 12.48 19.594 26.247 31.394 30.382 4.687 1.643 16.357 2.945 25.933 2.893 14.46-.074 19.54-1.12 29.99-6.152 30.607-14.742 52.68-51.965 61.443-103.614 1.726-10.174 7.606-63.058 13.065-117.523 5.46-54.462 10.397-101.22 10.971-103.919l1.044-4.896h81.44c45.344 0 81.972.86 82.64 1.94.959 1.55-40.725 418.898-45.724 457.796l-1.329 10.337h-165.583l1.541-18.995c.848-10.448 2.081-21.695 2.74-24.994 2.339-11.69-4.4-9.03-22.628 8.93-27.597 27.192-59.523 40.841-107.282 45.866-19.867 2.09-36.005 2.353-52.231.848zm-2709.908-18.728c52.774-87.056 157.655-275.975 274.56-494.562 32.65-61.045 61.711-114.67 64.58-119.168l5.218-8.181 220.29 1.128 11.703 44.614c28.155 107.332 61.087 221.886 126.694 440.72 21.527 71.805 39.816 133.258 40.641 136.565l1.5 6.007-194.996-1.133-21.894-87.501c-12.04-48.125-22.93-88.529-24.198-89.796-1.569-1.559-37.013-2.111-110.836-1.727l-108.533.564-87.361 179.517-201.66.033 4.288-7.073zm480.81-307.947c1.55-3.999-39.475-169.852-42.848-173.224-1.05-1.051-2.908-1.294-4.127-.54-3.409 2.106-87.394 168.815-87.394 173.47 0 3.93 2.8 4.104 66.445 4.104 61.268 0 66.56-.297 67.921-3.809zm283.592 306.853c.066-4.488 10.61-110.013 23.44-234.495l23.326-226.335h165.304l-.51 9.793c-.28 5.386-10.808 110.202-23.395 232.924-12.587 122.721-22.885 223.843-22.885 224.699 0 .861-37.215 1.566-82.697 1.566h-82.698l.114-8.161zm245.87 4.353c.293-16.288 47.67-462.64 49.277-464.252 1.256-1.257 32.441-1.847 79.193-1.5l77.12.572-.09 6.529c-.051 3.59-.826 14.119-1.724 23.395-2.106 21.77-.248 21.845 21.029.841 30.207-29.817 55.77-41.233 92.864-41.47 12.568-.082 25.69.637 29.16 1.594l6.31 1.74-1.574 73.25c-.865 40.288-1.968 73.89-2.451 74.671-.484.782-8.49-.466-17.794-2.772-29.941-7.424-63.162-2.237-88.077 13.752-23.002 14.76-42.673 44.33-50.486 75.892-1.926 7.78-8.404 62.132-14.397 120.78-5.992 58.65-11.419 109.824-12.06 113.707l-1.165 7.073h-82.599c-77.242 0-82.598-.247-82.532-3.809zm620.172.842c0-3.116 57.005-559.583 61.563-600.948l2.637-23.94 107.99-.564c84.753-.442 108.45.025 110.161 2.177 1.195 1.507 42.607 92.592 92.025 202.416 55.989 124.416 90.98 199.678 92.847 199.678 1.646 0 3.43-1.225 3.965-2.72.858-2.398 28.095-264.855 37.434-360.721 1.924-19.75 4.442-37.133 5.595-38.63 1.608-2.086 20.256-2.72 80.048-2.72 42.872 0 78.333.735 78.801 1.632.468.898-4.816 56.474-11.743 123.503-6.927 67.03-20.95 203.642-31.162 303.588-10.213 99.945-19.13 185.883-19.817 190.966l-1.25 9.25H3872.76c-83.306 0-107.784-.609-109.396-2.72-1.137-1.497-42.47-89.393-91.852-195.319-49.382-105.933-91.161-194.026-92.856-195.77-1.931-1.996-3.795-2.4-5.028-1.088-1.518 1.613-41.726 380.478-41.621 392.182.022 2.128-17.518 2.72-80.498 2.72-66.528 0-80.522-.515-80.522-2.966zm697.415-4.106c.663-3.89 11.526-108.435 24.14-232.316 12.615-123.881 23.347-226.467 23.852-227.964.712-2.112 19.167-2.72 82.467-2.72 44.852 0 81.982.734 82.508 1.632.528.898-9.68 104.955-22.685 231.23-13.004 126.274-23.66 231.311-23.681 233.409-.035 3.56-5.499 3.808-83.923 3.808H4067.2zm1367.867 6.263c0-7.093 48.156-465.782 49.053-467.23.745-1.206 34.49-2.036 82.738-2.036h81.482l-.1 8.16c-.058 4.49-10.61 110.014-23.455 234.496l-23.354 226.335-83.183.57c-45.75.314-83.182.183-83.182-.29zm241.668-7.352c.057-4.488 10.6-110.013 23.429-234.495l23.327-226.335 77.086-.573c42.397-.315 77.842.185 78.767 1.11.925.924.262 14.403-1.473 29.952-1.735 15.55-3.165 29.494-3.177 30.991-.049 5.955 7.395 1.947 27.011-14.546 11.295-9.497 28.124-21.708 37.398-27.137 76.963-45.052 191.058-41.222 241.1 8.094 24.297 23.944 34.713 52.842 34.66 96.154-.024 20.988-25.424 284.537-32.35 335.69l-1.253 9.25h-165.131v-4.642c0-2.553 5.946-62.047 13.215-132.205 14.537-140.332 14.627-145.095 3.166-167.714-10.696-21.107-25.882-29.11-55.667-29.337-19.8-.15-21.575.23-37.368 8.036-39.191 19.369-65.518 64.94-76.788 132.92-2.546 15.356-20.66 183.03-20.66 191.239 0 .94-37.215 1.71-82.698 1.71h-82.697l.102-8.16zm579.596-1.088c.718-5.087 11.622-109.997 24.229-233.138 12.608-123.14 23.45-224.748 24.096-225.792 1.162-1.88 162.515-2.794 164.382-.931.995.995-45.51 461.505-47.098 466.39-.688 2.114-19.411 2.721-83.898 2.721h-83.018zM2559.357 592.878c.066-4.488 2.279-28.727 4.912-53.862l4.789-45.702 81.459-.57c44.803-.315 82.215.184 83.141 1.107.924.923-.72 24.684-3.652 52.802-2.932 28.117-5.34 51.857-5.351 52.755-.022.898-37.235 1.632-82.722 1.632h-82.697l.124-8.16zm1564.288 7.14c-1.056-1.056 8.503-100.242 10.127-105.07.71-2.112 19.162-2.72 82.467-2.72 44.852 0 81.982.734 82.508 1.632.528.897-1.35 23.666-4.175 50.598-2.823 26.932-5.156 50.68-5.184 52.776-.046 3.559-5.44 3.808-82.384 3.808-45.285 0-82.796-.46-83.355-1.021zm1366.963.399c0-6.229 11.226-104.815 12.096-106.222.692-1.121 36.364-1.971 82.697-1.971h81.482l-.15 9.249c-.083 5.087-2.287 29.326-4.897 53.862l-4.746 44.614-83.24.57c-45.784.314-83.24.267-83.24-.104zm821.42-8.627c.676-5.087 3.244-28.835 5.705-52.775s5.165-44.226 6.008-45.081c.843-.856 39.027-1.835 84.852-2.177 82.41-.613 83.314-.572 82.152 3.732-.644 2.394-1.184 8.573-1.2 13.731-.025 5.158-.82 8.89-1.788 8.292-.966-.597-3.512 17.217-5.657 39.588s-4.35 41.41-4.9 42.307c-.55.898-38.217 1.632-83.7 1.632h-82.706zM548.805 380.145c.025-4.788.47-6.49.99-3.783.521 2.707.502 6.624-.04 8.704-.545 2.081-.971-.134-.947-4.922zm2.133-18.499c0-4.19.447-5.903.995-3.808s.548 5.522 0 7.617-.995.38-.995-3.809zm2.015-15.234c0-2.992.494-4.217 1.097-2.72.604 1.496.604 3.944 0 5.44-.603 1.497-1.097.273-1.097-2.72zm2.176-10.881c0-2.993.494-4.217 1.098-2.72.603 1.496.603 3.944 0 5.44s-1.098.272-1.098-2.72zm2.176-10.881c0-2.993.494-4.217 1.098-2.72.604 1.495.604 3.944 0 5.44s-1.098.272-1.098-2.72zm2.005-9.975c.104-2.536.62-3.051 1.314-1.315.629 1.57.552 3.448-.171 4.171-.723.723-1.238-.563-1.143-2.856zm2.176-8.705c.104-2.535.62-3.051 1.315-1.315.628 1.571.55 3.448-.172 4.171-.723.723-1.238-.562-1.143-2.856zm2.176-8.705c.105-2.535.62-3.05 1.315-1.315.628 1.571.551 3.448-.172 4.171-.723.724-1.238-.562-1.143-2.856z" fill="#6f144d"/></g></svg>