<svg viewBox="0 0 216.5 37.062" xmlns="http://www.w3.org/2000/svg"><path d="M11.34 18.63L1.996 32.099h1.688l2.312-3.281h5.531l.25 1.531c.18 1.212.495 1.75 1.907 1.75h1.406L12.84 18.63h-1.5zm8.125 1.094l-2.781 12.375h3l2.781-12.375h-3zm5.375 0l.594 1.062-2.531 11.312h3l2.5-11.25h.937c1.726 0 2.446 1.005 2.313 2.5-.112 1.34-1.1 2.806-4.125 3.125l2.437 4.281c.628 1.09.904 1.344 2.563 1.344h1.593l-3.343-5.25c1.792-.275 3.745-1.4 3.968-3.406.27-2.301-1.386-3.719-4.187-3.719H24.84zm18.188 0l.781 1.437L41.372 32.1h1.562l2.063-9.093 4.656 7.75c.512.873.971 1.343 2.406 1.343l2.781-12.375h-1.562l-1.938 8.563-4.218-7.25c-.608-1.048-.92-1.313-2.22-1.313h-1.874zm14.594 0l-2.781 12.375h9.562c-.178-.853-.558-1.188-1.656-1.188h-4.594l1.031-4.562h4.72l.28-1.25h-4.75l.938-4.188h4.375c1.098 0 1.476-.336 1.656-1.187h-8.781zm9.875 0l1.906 12.375h1.438l4.28-7.375 1.032 7.375h1.438l7.437-12.375h-1.594l-5.156 8.656-1-8.125c-.044-.381-.367-.531-.75-.531h-2.062l.406 2.937-3.25 5.719-1.219-8.125c-.046-.381-.369-.531-.75-.531h-2.156zm23.906 0c.179.852.556 1.187 1.656 1.187h5.563l-8.813 8.875c-.761.772-1.267 1.27-1.312 2.313h11.438c-.18-.846-.545-1.184-1.625-1.188h-5.812l8.5-8.75c1.073-1.15 1.315-1.736 1.405-2.437h-11zm13.312 0l-2.75 12.375h9.531c-.182-.853-.559-1.188-1.656-1.188h-4.594l1.031-4.562h4.72l.28-1.25h-4.75l.938-4.188h4.375c1.099 0 1.477-.335 1.656-1.187h-8.781zm15.906 0l-8.375 12.375h1.688l2.218-3.281h5.031l.313 1.53c.271 1.2.556 1.75 1.969 1.75h1.437l-2.78-12.374h-1.5zm8.656 0l-2.781 12.375h8.313c-.18-.851-.59-1.188-1.688-1.188h-3.344l2.5-11.188h-3zm14.625 0l-8.344 12.375h1.657l2.218-3.281h5.032l.343 1.53c.268 1.2.557 1.75 1.97 1.75h1.437l-2.813-12.374h-1.5zm7.563 0l.812 1.437-2.469 10.938h1.594l2.031-9.093 4.657 7.75c.518.873 1 1.343 2.437 1.343l2.75-12.375h-1.562l-1.907 8.563-4.25-7.25c-.603-1.048-.918-1.313-2.218-1.313h-1.875zm14.219 0l.562 1.062-2.531 11.312h4.562c4.08 0 7.883-2.265 8.532-6.187.648-3.878-2.144-6.188-6.094-6.188h-5.031zm3.562 1.156h.813c2.843 0 4.148 1.875 3.656 5.031-.496 3.196-3.063 5.063-5.906 5.063h-.844l2.281-10.094zm-158.72 1.5l.813 5.156H6.9l3.625-5.156zm109.38.812l.969 4.344H117l2.906-4.344zm23.312 0l.969 4.344h-3.875l2.906-4.344zM201.75 2c-3.747 0-7.216 2.663-9.187 4.594-7.013 6.84-10.72 11.469-10.72 11.469h31.25l1.407-3.125h-25.22s1.905-2.608 6-6.469c1.03-.963 3.723-3.375 6.47-3.375 1.803 0 3.218 1.127 3.218 2.656a2.01 2.01 0 01-1.28 1.938c.133-.647-.3-2.407-2-2.407-1.763 0-2.5 1.345-2.5 2.25 0 1.86 1.692 3.188 3.655 3.188 3.777 0 5.532-2.685 5.532-5.281 0-2.62-2.554-5.438-6.625-5.438zm-20.438 17.688s1.64 4.716 3.813 9.219c1.84 3.836 4.895 6.156 8.625 6.156 3.505 0 5.875-2.666 5.875-5.219 0-2.889-2.198-4.781-4.813-4.781-2.789 0-3.375 2.096-3.375 2.625 0 1.219 1.02 2.344 2.313 2.344 2.035 0 2.187-1.625 2.187-1.625s.625.4.625 1.437c0 .998-.845 2.281-2.812 2.281-1.57 0-3.878-.827-5.47-4.187-1.87-3.934-2-5.094-2-5.094h24.657l1.406-3.156h-31.031z" fill="#231f20"/></svg>