<svg width="250" height="70.467" viewBox="0 0 66.146 18.645" xmlns="http://www.w3.org/2000/svg"><g stroke-width="3.572"><path d="M42.113 18.122s-.068-1.085.61-2.43c0 0 2.102-2.565-3.255-6.972 0 0-3.108-2.435-3.424-3.99l2.367 2.007-.056-.34S35.7 3.94 35.7 3.828l-.028-.678 2.571 2.627s-.152-.475-.395-.717L35.5 2.414l.069-.735 2.474 3.052-.028-.311S35.976 1.87 35.57.922l.158-.655s3.051 6.295 8.447 7.543c0 0 2.204.628 3.136.808 0 0 1.78.475.763 2" fill="#949599"/><path d="M12.672 18.212L9.485 5.262H7.18L.264 18.278h2.17l1.712-3.661 4.068-.085.864 3.679zm-4.441-4.916H4.807l2.305-4.357m7.525 9.281l1.246-9.298h2.924l-.17 1.865s1.153-2.17 2.747-2l-.441 3.05s-1.97-.926-2.562 1.199l-.633 5.184m7.5 0h-2.882l1.289-9.06h2.847m1.585 9.06l1.627-12.111 2.814-.034-.983 6.814h.576l3.526-3.865 2.61.034-3.627 3.831 2.61 5.373-3.67-.042-1.517-4.077h-.712l-.542 4.035" fill="#0d3f84"/><path d="M42.44 18.382l6.775-7.995s.616-1.053 2.534-1.1c1.918-.048 5.647-.677 6.535-.921.887-.245 6.646-2.028 7.596-3.097 0 0-1.271 1.233-1.803 1.442 0 0-3.541 1.519-4.491 1.736l-.345.352s3.712-1.112 3.845-1.274l-.962.72s-2.774.837-3.434.989l-.46.434s2.867-.787 3.034-.869c0 0-.682.532-.814.632 0 0-2.504.628-2.682.698l-.38.326 2.55-.652s-3.953 2.442-5.452 2.74c0 0-3.407.989-5.058 1.194-1.65.206-2.271 1.22-2.907 1.736-.635.515-2.72 2.659-4.081 2.91" fill="#949599"/></g></svg>