<svg width="200.42" height="40.998" viewBox="0 0 53.028 10.847" xmlns="http://www.w3.org/2000/svg"><g fill="#0f2d53" stroke-width=".265"><path d="M24.17 7.82l.44-2.104c.089-.422.224-.776.405-1.062.181-.285.395-.514.642-.685a2.44 2.44 0 01.779-.352 3.34 3.34 0 01.853-.108l.079.001.321.001s-.164.198-.274.488c-.084.22-.09.664-.09.664l-.45-.003c-.338-.002-.58.072-.76.222-.18.15-.303.388-.37.712l-.466 2.225zm3.337-1.536h1.008c-.04.285.016.485.168.598.155.134.401.2.737.2.298 0 .538-.05.72-.155a.73.73 0 00.356-.456c.083-.303-.281-.55-1.094-.741l-.025-.014-.107-.029c-.461-.104-.758-.215-.89-.328a.592.592 0 01-.278-.456c-.05-.172-.038-.39.035-.655.127-.465.39-.831.79-1.096.397-.257.908-.384 1.532-.383.586 0 1 .134 1.246.4.245.294.313.679.202 1.154l-.577-.001c-.221-.001-.351-.1-.393-.3a.49.49 0 00-.136-.242c-.139-.123-.357-.186-.655-.186-.288 0-.51.052-.663.157a.725.725 0 00-.337.44c-.07.257.157.447.68.57.15.049.262.077.337.087.156.057.295.102.416.135.12.034.216.06.288.078l.357.172c.16.114.27.261.326.442.05.199.043.417-.021.655a2.04 2.04 0 01-.847 1.195c-.419.265-.945.398-1.58.398-.652 0-1.105-.14-1.355-.415-.28-.275-.36-.684-.24-1.224m4.475 1.53l1.202-4.386a.676.676 0 01.25-.363.65.65 0 01.41-.147h3.082l-.23.84h-2.594l-.288 1.052h1.931l-.09.33a.672.672 0 01-.251.362.65.65 0 01-.409.148l-1.41-.001-.345 1.254h2.595l-.25.91h-3.603zm4.529.005l1.203-4.39a.68.68 0 01.25-.363c.129-.1.268-.15.41-.15l1.886.004c.538 0 .906.114 1.103.342.203.238.243.583.118 1.04-.083.303-.22.555-.409.754-.167.19-.387.327-.66.413.2.076.322.19.368.341.047.143.033.385-.041.727l-.132.584-.05.185c-.019.066-.03.128-.037.185-.018.17.013.28.086.329H39.48a.755.755 0 01-.004-.302 3.08 3.08 0 01.058-.313l.13-.526c.058-.286.056-.49-.006-.612-.077-.106-.25-.159-.519-.159h-1.08l-.525 1.912h-1.022zm1.78-2.766h1.197c.26.001.466-.051.619-.155a.823.823 0 00.32-.484c.06-.218.04-.38-.054-.484-.085-.114-.243-.171-.473-.171l-1.253-.001zm3.128 2.766l1.202-4.386a.686.686 0 01.25-.363.67.67 0 01.412-.152h1.812c.51 0 .87.11 1.081.319.207.228.258.537.15.927a1.537 1.537 0 01-.33.626 1.633 1.633 0 01-.552.383.88.88 0 01.455.443c.075.18.073.417-.007.711a1.93 1.93 0 01-.765 1.11c-.388.257-.87.382-1.446.382zm1.804-3.003h1.166c.25 0 .444-.042.583-.127a.646.646 0 00.282-.398c.05-.18.028-.314-.064-.4-.075-.075-.252-.114-.53-.114h-1.153zm-.582 2.12l1.21.003c.27 0 .49-.052.662-.157.16-.095.273-.256.335-.484.062-.228.04-.394-.065-.499-.1-.095-.297-.143-.595-.143h-1.196zm3.773.883l1.2-4.382a.68.68 0 01.252-.362c.128-.1.27-.157.415-.157h.5L47.437 7.82zM23.922 3.79a.448.448 0 00-.082-.36.41.41 0 00-.346-.167l-.568-.004-.239 1.134a25.234 25.234 0 001.235-.602m-.187.873a14.558 14.558 0 01-1.206.476l-.563 2.68h1.108l.67-3.183zm27.866 1.322h-1.273l1.26-2.075.134 2.212c.297-.038.665.113 1.012.007l-.302-3.213h-.795c-.24 0-.444.119-.59.338L48.15 7.819h1.084l.597-1.003h1.924l.05 1.003h1.086l-.181-1.94c-.716.127-1.11.107-1.11.107m-31.842 0h-1.274l1.26-2.076.102 1.733a5.92 5.92 0 00.978-.225l-.235-2.501h-.795c-.24 0-.445.118-.59.337L16.309 7.82h1.084l.597-1.003 1.924-.001.052 1.004h1.084l-.182-1.94c-.715.127-1.109.107-1.109.107M6.492 7.49l.686.794.441-.51-.871-1.009-.44-.51-.409-.477-.405.54.459.533v.001z"/><path d="M15.29 3.64c-.624-.613-1.288-.909-1.973-.88-.544.022-.987.249-1.287.459a.6.6 0 00-.034.024l-.011.008a2.268 2.268 0 00-.107.081l-.474-.513c-.116-.136-.293-.356-.338-.481-.035-.098-.043-.198-.054-.255-.04-.203-.061-.54-.061-.54s0-.08-.039-.172l-.047-.117s.395-.174.677-.16l.17.207.006-.205V.799s-.019-.16-.17-.28c-.112-.089-.164-.097-.303-.117-.173-.025-.205.023-.336-.099L10.79.128l-.737.003-.289.107s-.159.038-.267.31l-.22.695s-.06.23-.072.578c-.013.35-.007.012-.007.012s-.016.52-.077.676L9 2.92c-.171.41-.345.61-.349.615l-.663.768h.001l-.185.214-.184-.214.003-.002-.407-.467-.058-.066-.204-.233c-.004-.005-.188-.217-.364-.649l-.109-.375c-.062-.156-.077-.677-.077-.677s.006.338-.007-.012c-.013-.348-.073-.578-.073-.578l-.22-.695C5.998.277 5.84.238 5.84.238L5.55.131 4.813.128l-.12.175c-.129.122-.162.074-.335.099-.139.02-.19.029-.303.117a.46.46 0 00-.17.28v.297l.006.205.17-.207c.282-.014.677.16.677.16l-.048.118c-.038.091-.038.171-.038.171s-.022.337-.062.54c-.01.058-.018.157-.053.255-.06.17-.361.508-.429.584l-.38.41c-.29-.234-.793-.547-1.438-.573-.684-.028-1.348.268-1.972.88l-.193.19.145.227c.02.035.534.828 1.453 1.007.597.115 1.246-.066 1.862-.507l-.448-.508c-.458.328-.874.438-1.28.362-.385-.074-.676-.315-.849-.496.414-.34.833-.505 1.25-.49.728.027 1.24.6 1.244.605l1.08 1.25.44-.51-.826-.957.966-1.207.394-.49c.092.485.534 1.324.723 1.616L5.206 4.982l-.429.5-.006.007-.005.005-.458.535c-.239.248-1.072 1.074-2.048 1.6 0 0 .306.21.709.203a1.14 1.14 0 00.785-.337c.11-.104.269-.246.425-.4 0 0-.073.18.1.504.134.25.37.397.686.409.496.018.853-.242 1.102-.54l-.356-.394s-.323.458-.715.178c-.144-.135-.133-.364-.133-.364s-.003-.077.072-.237c.267-.454.998-1.41 1.432-1.965l.334-.424.477.55.188.217.01.013-.835 1.036.38.425.883-.965.002.002.002-.002 1.078 1.2.446.503.16.169.11.123c.245.27.585.492 1.045.475.317-.013.551-.16.685-.41.175-.324.101-.502.101-.502.157.153.316.295.425.399.71.672 1.494.134 1.494.134-.977-.526-1.81-1.352-2.049-1.6l-.26-.305-.545.61c.265.362.251.554.251.554s.012.23-.132.365c-.39.284-.736-.204-.736-.204L8.798 5.733l-.006-.006-.556-.686.01-.012v-.001l.412-.478.248-.287.11.138.707.957.498-.591-.81-.945v.003l-.08-.093c.188-.292.63-1.13.722-1.617l.394.491.966 1.207-.198.23-.811.94-.702.812-.21.244.44.51.35-.406.036-.042.526-.608.307-.355.957-1.108c.004-.004.516-.577 1.245-.604.416-.016.834.149 1.248.489-.172.181-.464.422-.847.496-.407.076-.827-.037-1.285-.366l-.437.508c.616.441 1.258.626 1.854.51.92-.178 1.433-.971 1.454-1.006l.145-.227zM8.432 8.695l-.452.533.05.06.274.319c.144.176.54.633.602 1.103 0 0 .392-.539.094-1.295 0 0-.044-.2-.568-.72"/><path d="M8.08 7.68l-.712.823c-.716.668-.77.916-.77.916-.298.758.093 1.296.093 1.296.061-.47.457-.927.602-1.102l.274-.32.983-1.138.583-.674-.435-.517z"/></g></svg>