<svg xmlns="http://www.w3.org/2000/svg" viewBox="0 0 328.43 45.47"><g data-name="레이어 2"><path d="M16.38 1.39L0 44.06h11.73l10.71-29.52 10.39 29.52h11.73L28.5 1.39H16.38zm34.95 0h11.18v42.67H51.33zM104.57 21c2.67-4.83 1.55-11.51-.56-14.22s-5.59-5.39-13.13-5.39H74.64v42.67h11.18V27.55L97 44.06h13l-13.19-17.5a11.46 11.46 0 007.76-5.56zm-12.46-1.5c-2.57 1.48-6.3 1.07-6.3 1.07V9.9a14.36 14.36 0 015.56.6 4.54 4.54 0 013.18 4.5 4.7 4.7 0 01-2.44 4.5zM141 16.61c-2.19-.74-3.29-2-3.13-3.69a4.13 4.13 0 013.66-3.47c4.14-.61 8.63 2.6 8.63 2.6l4.21-8.19A24.14 24.14 0 00140.08.29c-8.51.47-13.36 6.33-13.74 13C126 18.73 128.52 23.41 136 26c2.67.92 6.67 1.67 8 3.68 1.74 2.55 0 7-6.29 6-4.3-.7-8.43-4.15-8.43-4.15l-4.7 8.8a26.74 26.74 0 0017.25 4.81C156.35 44 157.9 30.5 155.06 25s-9.65-6.9-14.06-8.39zm35.88 10.65h11.97v-9.31h-11.9v-7.52h12.61V1.39h-23.64v42.67h24.23v-9.33h-13.27v-7.47zM221.65 0c-12.92 0-23.3 9.72-23.3 22.6 0 13.43 9.41 22.87 23.3 22.87S245 36 245 22.6C245 9.72 234.58 0 221.65 0zm0 34.81a12.08 12.08 0 1112-12.3 12 12 0 01-12 12.3zm59.67-8.23c0 7.54-4.3 8.94-7.16 8.94s-7.8-1-7.8-9.15v-25h-11.09v25.3c0 13.19 7.44 18.54 19 18.54 11.36 0 18.14-6.37 18.14-18V1.39h-11.09zm34.25 8.21V1.39h-11.03v42.67h23.89v-9.27h-12.86z" fill="#1db898" data-name="Layer 1"/></g></svg>