<svg xmlns="http://www.w3.org/2000/svg" width="3633.4" height="600.4" viewBox="0 0 363.34 60.04"><path d="M13.964 54.11l1.631-6.574H29.78l1.689 6.574h14.185L30.082 4.29H15.594L.02 54.11h13.944zm13.34-16.953H18.31l4.406-17.851 4.587 17.85zM64.518 4.29H50.273v49.82h14.245V4.29z" fill="#002f5e"/><path d="M90.803 36.743c6.639 0 7.606 2.144 7.606 8.648 0 4.43.363 7.612.725 8.719h14.426v-1.521c-1.69 0-1.51-2.215-1.51-8.719 0-10.035-2.778-11.28-7.365-13.217 5.07-1.592 7.306-6.435 7.306-12.178 0-9.689-4.77-14.185-19.256-14.185H72.212v49.82h14.244V36.743h4.347zm-4.346-20.83h6.641c3.32 0 5.733 1.663 5.733 5.19 0 3.462-2.354 4.707-6.76 4.707h-5.614v-9.896z" fill="#002f5e" fill-rule="evenodd"/><path d="M152.393 54.11V36.603h15.574V24.979h-15.574v-9.065h19.556V4.29h-33.8v49.82h14.244z" fill="#002f5e"/><path d="M252.07 36.743c6.64 0 7.607 2.144 7.607 8.648 0 4.43.362 7.612.724 8.719h14.426v-1.521c-1.689 0-1.509-2.215-1.509-8.719 0-10.035-2.778-11.28-7.365-13.217 5.07-1.592 7.306-6.435 7.306-12.178 0-9.689-4.77-14.185-19.256-14.185h-20.524v49.82h14.245V36.743h4.346zm-4.346-20.83h6.642c3.319 0 5.733 1.663 5.733 5.19 0 3.462-2.355 4.707-6.76 4.707h-5.615v-9.896z" fill="#002f5e" fill-rule="evenodd"/><path d="M320.975 23.335c-1.146-12.794-8.571-20.331-21.85-20.331-12.134 0-21.67 10.027-21.67 26.141 0 16.184 8.693 26.279 23.056 26.279 11.471 0 19.5-7.744 20.767-20.608h-13.704c-.544 4.77-2.716 8.437-7.303 8.437-7.244 0-8.571-6.57-8.571-13.554 0-9.614 3.019-14.524 8.027-14.524 4.468 0 7.304 2.974 7.728 8.16h13.52zM363.32 54.11V42.486h-22.032v-7.82h17.929V23.04h-17.929v-7.127h21.186V4.29h-35.43v49.82h36.276z" fill="#002f5e"/><circle cx="201.243" cy="30.02" r="30" fill="#002f5e"/><circle cx="201.243" cy="30.02" r="20.1" fill="#fff"/><path d="M192.825 27.433s.205-.034.374-.19c.129-.117.255-.444.255-.444s.783-1.92 2.058-2.995c2.023-1.704 3.428-1.83 3.428-1.83s1.93-.546 3.43-.002c2.101.764 3.202 1.798 3.202 1.798s1.186.948 1.298 1.09c.106.133 1.575 1.379 1.575 1.379l.66.61s4.09 3.413 6.077 3.643c3.528.409 3.781-2.563 3.781-2.563s.06-.662.339-.642c.358.025.905 2.962-1.478 4.336-1.893 1.092-5.236.098-5.236.098s-1.848-.66-2.879-1.24c-1.044-.587-2.327-1.39-2.327-1.39s-.018-.06-.495-.163c-.342-.073-.72.34-.72.34s-1.504 1.223-2.198 1.749c-.784.59-3.019 1.595-3.019 1.595s-.694 1.673-.825 3c-.21 2.12-.034 3.047-.034 3.047s.077.754-.129 1.059c-.249.368-.973.672-.973.672s-1.219.582-2.379 1.273c-1.254.748-2.706 2.119-2.706 2.119s-.332.343-.558.39c-.225.048-.194-.381-.194-.381s-.49.368-.73.39c-.24.025-.215-.353-.215-.353s-.195.084-.382.227c-.123.095-.451.469-.451.469s-.167-.162.099-.65c.094-.174.468-.5.468-.5s.123-.118.168-.188c.067-.1.09-.207.09-.207s.158-.458.695-.897c.232-.19.853-.48.853-.48s3.616-.947 4.385-3.65c.49-1.716.533-5.15.533-5.15s-.011-.083-.089-.163a8.041 8.041 0 00-.12-.124l-.582-.585s-.07-.073-.197-.107c-.116-.031-.252.01-.252.01s-.33.087-.551.12c-.244.037-.541-.048-.541-.048s-.259-.124-.435.018c-.132.105-.05.297-.05.297s.387 1.184.416 1.311c.052.23.246 1.231.246 1.231l.379.609s.13-.026.163-.036c.03-.009.181-.044.181-.044s.022-.53.226-.552c.312-.032.253 1.128.253 1.128s-.01.06-.059.108c-.056.058-.135.092-.135.092s-.274.074-.414.118c-.249.08-.53.147-.846-.029-.152-.084-.326-.322-.326-.322s-.755-1.148-.796-1.196c-.04-.048-.88-1.195-1.345-1.384a5.198 5.198 0 00-.777-.222l-.666-.16c-.532-.12-1.014-.396-1.014-.396s-1.208-.911-1.575-1.24a60.173 60.173 0 00-1.5-1.231c-.085-.058-.234-.01-.234-.01s-.457.126-.917.057c-.275-.04-.655-.11-.957-.129-.113-.008-.488.029-.598.035-.282.015-1.025.201-1.396-.093-.28-.222-.476-.75-.452-.959.034-.29.213-.406.213-.406s.245-.175.607-.386c.49-.286.776-.383.776-.383s.307-.087.477-.152c.169-.062.4-.272.4-.272s.533-.46.806-.6c.202-.105.667-.26.667-.26s.386-.12.42-.136c.246-.118.432-.313.432-.313s.729-.986 1.664-1.342c.097-.037.36-.12.615-.199.304-.094.6-.182.6-.182s.197-.092.29.008c.09.096-.071.328-.071.328s-.513 1.036-1.183 1.565c-.234.184-.833.355-.833.355s-.25.091-.25.207c.003.146.177.23.177.23l1.005.754s.157.098.228.12c.146.044.3-.012.3-.012s.727-.18.79-.194c.065-.016.99-.203.99-.203" fill="#e31736"/></svg>