<svg viewBox="0 0 380 145.74" xmlns="http://www.w3.org/2000/svg"><defs><clipPath id="c"><path d="M285.96 541.12a21.686 21.686 0 01-15.287-6.324l-3.118-6.657c3.276 6.866 10.285 11.629 18.411 11.65a20.367 20.367 0 008.288-1.729l-6.357 2.98c-.618.053-1.244.08-1.875.08h-.062m20.484-21.676a20.344 20.344 0 00-1.882-8.626l3.135 6.695c.053.628.079 1.264.077 1.906a21.694 21.694 0 01-6.301 15.26l-1.725.806-4.65 2.18c6.706-3.333 11.322-10.241 11.346-18.221m-42.109 1.818a22.192 22.192 0 01-.082-1.955 21.7 21.7 0 016.258-15.217l6.572-3.079c-6.791 3.306-11.478 10.266-11.502 18.33a20.27 20.27 0 001.849 8.531l-3.095-6.61zm21.731-22.301h-.052c-2.984 0-5.821.641-8.378 1.792l4.795-2.246 1.773-.831c.615-.05 1.236-.075 1.864-.074a21.688 21.688 0 0115.247 6.283l3.178 6.787c-3.265-6.904-10.285-11.689-18.427-11.711"/></clipPath><clipPath id="f"><path d="M187 480.89h242v97H187v-97z"/></clipPath><clipPath id="a"><path d="M365.24 346.81c-3.411 3.424-61.371 74.362-67.505 80.539-3.755 3.764-7.17 5.825-9.563 6.519-3.355 1.35-23.288 8.141-53.536 17.38h143.39l26.212-105.14-.656-.425a689.533 689.533 0 00-11.268-.093c-9.542 0-22.079.212-27.076 1.225"/></clipPath><clipPath id="d"><path d="M357.47 375.97c-15.028.035-27.192 12.224-27.156 27.25.044 15.029 12.254 27.194 27.281 27.156 10.829-.027 20.145-6.369 24.5-15.531l.125-.281a27.176 27.176 0 002.5-11.47c-.03-10.835-6.383-20.181-15.562-24.53l-.188-.094c-3.476-1.614-7.352-2.5-11.438-2.5h-.062zm0 1.656c14.098-.036 25.551 11.372 25.594 25.438.034 14.1-11.37 25.556-25.469 25.594h-.063c-14.073.001-25.52-11.385-25.561-25.469-.032-14.062 11.396-25.526 25.5-25.562zm.031 1.125c-9.704.022-18.066 5.674-22 13.844l-.219.469a24.296 24.296 0 00-2.187 10.156c.025 9.7 5.719 18.08 13.938 22l.312.125a24.446 24.446 0 0010.281 2.25c6.57-.019 12.541-2.684 16.906-6.906.187-.153.347-.305.5-.5-.153-.151-.31-.313-.5-.469-8.717-8.669-20.63-14.096-33.812-14.375l-1.468 1.469v-6.344h.187c5.334-.011 10.05.468 14.531 1.688-2.44-1.072-5.001-1.864-7.594-2.438v-4.938l28.094-.093h6.032c-1.32-3.514-3.404-6.655-6.063-9.156a24.103 24.103 0 00-6.094-4.282l-.906-.406a24.214 24.214 0 00-9.844-2.094h-.093zm23.594 17.906l-6.625.031h-5.844l-.156 1h6l6.875-.03c-.08-.35-.17-.655-.25-1zm.656 2.969l-7.28.031-15.189.031c6.075 3.42 11.264 8.207 15.22 13.875.31.425.604.822.874 1.25v.063s-.005.021 0 .031c-.01.01 0 .021 0 .063v4.875a24.722 24.722 0 004.094-5.875l.438-.969a24.324 24.324 0 002.062-9.906c0-1.199-.059-2.31-.219-3.469z"/></clipPath><linearGradient id="e" x1="322.35" x2="370.83" y1="415.56" y2="438.23" gradientUnits="userSpaceOnUse"><stop stop-color="#f9f5a5" offset="0"/><stop stop-color="#fbda63" offset=".335"/><stop stop-color="#ffc409" offset=".581"/><stop stop-color="#ffbf0a" offset="1"/></linearGradient><linearGradient id="b" x1="144.28" x2="319.61" y1="464.69" y2="577.31" gradientUnits="userSpaceOnUse"><stop stop-color="#15b8ec" offset="0"/><stop stop-color="#15b8ec" offset=".55"/><stop stop-color="#006bb6" offset=".72"/><stop stop-color="#006bb6" offset="1"/></linearGradient></defs><path transform="translate(-322.426 -476.641) scale(1.3793)" d="M276.22 263.56L144.28 467.18 319.5 580.27l131.97-203.62z" clip-path="url(#a)" fill="url(#b)"/><g clip-path="url(#c)" transform="matrix(1.7241 0 0 -1.7241 -322.426 974.883)"><path d="M258.85 509.55l17.319 36.984 4.16-1.945-17.32-36.983-4.159 1.944zm4.16-1.95l17.32 36.983.834-.39-17.32-36.984-.834.391z" fill="#f9f790"/><path d="M263.85 507.21l17.32 36.983 2.2-1.031-17.32-36.983-2.2 1.03z" fill="#f9f489"/><path d="M266.05 506.18l17.32 36.983 6.676-3.13-17.32-36.98-6.676 3.127z" fill="#f9ee77"/><path d="M272.72 503.05l17.319 36.981 6.676-3.13-17.318-36.978-6.677 3.127z" fill="#fad947"/><path d="M279.4 499.93l17.318 36.979 2.2-1.031L281.6 498.9l-2.2 1.03z" fill="#fac71b"/><path d="M281.6 498.89l17.317 36.978c.53-.249.834-.39.834-.39l-17.317-36.979-.834.391z" fill="#fbc10e"/><path d="M282.43 498.5l17.317 36.978 8.018-3.748-17.321-36.983-8.014 3.753z" fill="#fbbf09"/><path d="M290.45 494.75l17.321 36.983 5.406-2.533-17.319-36.983-5.408 2.533z" fill="#fabb09"/></g><path transform="translate(-322.426 -476.641) scale(1.3793)" d="M344.41 367l-23.062 49.281 49.281 23.062 23.062-49.281z" clip-path="url(#d)" fill="url(#e)"/><g clip-path="url(#f)" transform="matrix(1.7241 0 0 -1.7241 -322.426 974.883)"><path d="M323.38 565.05s-24.904.314-30.999-.92c-2.436-2.445-50.285-60.844-54.67-65.251-2.295-2.304-4.998-4.067-7.272-4.851-20.413-7.022-87.744-27.504-98.48-29.679" fill="none" stroke="#fff" stroke-width=".272"/></g><path d="M287.845 83.579c0 4.684-1.434 12.986-10.09 12.986-8.734 0-10.373-8.224-10.373-12.986l-.081-32.615h-12.39v32.218c0 19.373 14.588 25.491 22.765 25.491 10.797 0 22.64-8.818 22.64-25.49v-32.22h-12.493l.022 32.616zm22.8 24.948h12.753V50.953h-12.753v57.574zm37.938-20.12l.905-3.09c.909-2.892 1.65-5.367 3.057-10.652.66-2.646 1.902-7.517 2.724-10.991 1.077 5.536 1.57 6.94 2.312 10.08.662 2.89 1.326 5.777 3.143 11.563l2.364 8.077c-4.962-2.884-10.073-4.198-14.505-4.988m13.293-37.453h-12.47l-18.833 57.574h12.063l3.155-10.624c4.388.403 13.583 1.5 21.709 10.362l.077.262h12.392l-18.093-57.574z" fill="#006cb7"/></svg>