<svg viewBox="0 0 400 146.8" xmlns="http://www.w3.org/2000/svg"><g fill-rule="evenodd"><path d="M383.17 12.603c-3.53 2.243-7.429 4.737-8.667 5.542s-4.825 3.108-7.972 5.117L359.114 28c-.933.596-4.542 2.883-8.019 5.083s-7.976 5.05-9.999 6.334l-3.676 2.333-.051.7c-.05.687-.029.718 1.151 1.667 1.194.96 2.808 2.279 5.618 4.591.808.665 2.585 2.109 3.95 3.209 1.364 1.1 3.984 3.238 5.822 4.752 1.839 1.514 4.093 3.359 5.01 4.101 1.446 1.17 12.08 9.927 13 10.705 1.668 1.411 2.386 1.136 2.996-1.15.207-.775.57-2.121.806-2.992s.58-2.145.763-2.833c.355-1.33.577-2.14 1.276-4.667l.576-2.083c.077-.275.326-1.212.556-2.083.229-.871.543-2.034.698-2.584s.341-1.225.415-1.5c.073-.275.289-1.062.478-1.75.969-3.514.225-4.113-5.981-4.816-3.408-.386-8.983-1.037-10.25-1.198-.733-.093-2.446-.306-3.805-.472-4.161-.51-4.034-1.124.328-1.576 1.545-.16 3.41-.36 4.144-.443.733-.084 2.533-.268 4-.41 1.466-.142 3.266-.329 4-.417.733-.088 2.495-.277 3.916-.42 6.283-.636 7.138-1.449 8.664-8.248.072-.321.247-.996.389-1.5s.409-1.479.594-2.166c.185-.688.458-1.7.608-2.25.149-.55.448-1.675.664-2.5s.513-1.95.661-2.5.487-1.825.754-2.834c.533-2.018.766-2.889 1.407-5.25.876-3.226.884-3.523.107-4.119-.581-.447-1.188-.133-7.514 3.889M160.5 64.336c-.28.522-.139 37.522.145 38.414.117.367.326 1.066.463 1.554.744 2.632 3 4.909 5.51 5.558 2.734.708 7.941.489 8.986-.378.322-.268.338-6.687.017-6.953-.121-.101-.965-.175-1.958-.173-2.549.007-3.565-.514-4.271-2.191-.243-.578-.363-19.475-.126-19.859.049-.078 1.355-.141 2.904-.141 1.781 0 2.971-.071 3.24-.194l.424-.193v-3.039c0-3.619.409-3.241-3.503-3.241-1.82 0-3.017-.065-3.081-.168-.057-.092-.097-2.032-.088-4.31.009-2.41-.055-4.326-.152-4.582l-.167-.44h-4.082c-3.922 0-4.089.013-4.261.336M20.42 72.771c-6.302.682-10.311 4.757-10.311 10.479 0 5.525 2.974 8.688 10.444 11.109 4.186 1.356 5.967 3.437 5.203 6.077-.937 3.234-5.183 3.925-11.393 1.854-2.555-.851-2.338-.986-3.731 2.309-1.595 3.771-1.598 3.765 2.038 4.769 10.431 2.883 19.659.434 22.006-5.84 2.514-6.72-.306-11.576-8.673-14.934l-1.083-.435a47.682 47.682 0 00-1.3-.481c-6.413-2.295-5.777-8.235.883-8.255 2.364-.007 4.219.406 6.032 1.343.277.144.668.22.868.17.347-.087.497-.34 1.181-1.986.145-.348.495-1.135.778-1.75 1.014-2.204.48-2.726-3.859-3.774a39.302 39.302 0 01-1.75-.458c-.532-.165-6.213-.319-7.333-.197m31.416.005c-3.218.218-7.752 1.423-8.859 2.355-1.032.868-.974-.193-.974 17.855 0 16.145.007 16.506.322 16.675.532.284 7.705.228 8.104-.064.316-.231.325-.601.368-14.536.025-7.865.108-14.363.186-14.441 1.017-1.017 6.846-1.049 8.774-.049 2.728 1.416 2.746 1.523 2.746 16.572 0 12.035.008 12.35.322 12.518.532.284 7.705.228 8.104-.064.316-.231.325-.596.369-14.032.049-15.467-.081-14.024 1.335-14.815 3.224-1.802 8.131-.974 9.46 1.596.75 1.451.738 1.216.741 14.436l.002 12.532.371.26c.493.345 8.055.389 8.52.049.269-.196.284-1.104.235-14.041l-.051-13.832-.469-1.372c-1.285-3.761-4.084-6.24-8.356-7.401-1.112-.303-6.506-.305-7.666-.004l-1.807.468c-1.379.356-4.226 1.577-5.34 2.289-1.059.677-1.296.725-1.625.325-2.017-2.459-7.853-3.751-14.812-3.279m58-.012c-1.825.202-5.57.986-7.083 1.481-1.06.347-1.08.68-.179 3.007.426 1.099.846 2.128.935 2.287.088.16.161.392.161.516 0 .539.582.8 1.353.607 3.8-.952 4.214-1.02 6.813-1.111 5.168-.18 6.899.997 7.117 4.839.119 2.111.182 2.051-2.377 2.269-3.715.317-4.859.492-8.74 1.342-8.433 1.846-12.425 9.031-8.969 16.142 2.835 5.834 12.562 7.925 24.392 5.244 2.29-.519 3.162-1.08 3.81-2.449l.434-.917v-10.77c0-5.934-.069-11.084-.153-11.469a98.101 98.101 0 01-.352-1.699c-.55-2.773-1.453-4.547-3.205-6.299-1.306-1.306-2.494-1.904-5.54-2.787-.645-.187-7.197-.369-8.417-.233m38 .907c-1.713.229-2.248.372-3.5.939-3.618 1.638-6.567 4.759-7.773 8.226-.859 2.471-.893 3.039-.893 15.202v11.288l.401.262c.44.289 7.924.31 8.21.023.076-.076.18-5.214.231-11.416.07-8.598.143-11.437.309-11.945.918-2.824 3.13-4.783 6.099-5.402 1.783-.372 2.496-.563 2.708-.728.341-.263.292-6.012-.054-6.358-.285-.285-3.856-.342-5.738-.091M118.902 92.43c.147.384.119 10.617-.03 10.851-.542.854-6.874 1.067-9.03.305-2.511-.888-3.839-2.62-3.839-5.009 0-2.307 1.265-4.07 3.627-5.055 2.25-.939 9.024-1.737 9.272-1.092m184.32 22.831c-.106.276.053 2.228.215 2.652.201.522-.47.464-1.605-.14-1.435-.763-1.608-.762-1.822.016-.238.86-.004 1.039 1.635 1.248 1.631.208 1.645.269.354 1.546-1.103 1.092-1.177 1.3-.625 1.76.674.562.912.417 1.594-.968.842-1.712 1.021-1.718 1.853-.065.802 1.596.815 1.605 1.48 1.141.705-.493.685-.568-.469-1.827-1.249-1.364-1.246-1.405.125-1.548 1.692-.177 2.061-.414 1.827-1.174-.253-.826-.402-.839-1.62-.151-.582.329-1.213.576-1.403.548-.383-.054-.388-.111-.176-2.091l.129-1.208h-.696c-.478 0-.728.082-.796.261m-138.97 6.672c-11.631 1.111-12.97 13.623-1.711 15.992 2.259.475 6.694.254 8.575-.428 5.31-1.925 7.74-6.617 5.428-10.476-2.156-3.597-6.982-5.595-12.292-5.088m15.708.336c-.272.083-.291.598-.291 7.743v7.655h2.482c2.955 0 2.684.304 2.684-3.014v-2.486h2.39c2.637 0 4.752-.218 6.027-.62 4.852-1.53 4.51-7.599-.505-8.953-.995-.268-12.052-.55-12.787-.325m22.831.106c-.258.195-.842 1.364-4.515 9.042a297.25 297.25 0 01-1.652 3.416c-.184.355-.351.425-1.124.469-1.047.059-1.16.176-1.16 1.198 0 1.264-.905 1.174 11.256 1.126l10.989-.043.052-.901c.055-.98-.08-1.175-.818-1.179-.576-.004-.746-.228-2.048-2.717-.613-1.172-1.249-2.372-1.413-2.667s-.686-1.267-1.161-2.161l-1.728-3.25a93.848 93.848 0 01-1.042-1.991c-.238-.499-.5-.545-3.101-.548-1.554-.002-2.346.063-2.535.206m22.924.083c-.178.161-.704 1.117-1.169 2.125a611.12 611.12 0 01-2.754 5.917 178.3 178.3 0 00-1.124 2.417c-.206.458-.778 1.673-1.271 2.699-.492 1.027-.895 1.911-.895 1.966s.54.077 1.201.05c1.375-.056 1.13.217 2.525-2.815.895-1.945.558-1.817 4.776-1.817 4.105 0 3.636-.243 5.015 2.605l.998 2.062h5.81l-.164-.431c-.09-.237-.341-.743-.557-1.125-.217-.382-.789-1.444-1.271-2.361s-1.081-2.042-1.331-2.5a584.98 584.98 0 01-1.169-2.167c-.393-.733-.918-1.708-1.166-2.166-.248-.459-.881-1.641-1.406-2.627s-1.094-1.867-1.264-1.958c-.577-.309-4.413-.208-4.784.126m15.912-.188c-.272.082-.292.598-.292 7.76v7.672l7.042-.079c6.163-.069 7.163-.116 8.016-.378 3.453-1.064 3.777-5.295.529-6.91-1.282-.638-1.317-.748-.368-1.155 3.159-1.354 2.481-5.603-1.052-6.589-1.068-.298-13.033-.575-13.875-.321m19.832.006c-.276.077-.291.549-.25 7.695l.043 7.612 5.667.09 1.741-2.378c4.277-5.841 5.307-7.256 5.767-7.919.954-1.375.987-1.224 1.036 4.835l.044 5.456h5.332l-.044-7.709-.043-7.708-2.417-.049c-3.473-.071-3.2-.188-4.674 2.008-6.207 9.247-6.408 9.53-6.666 9.37-.058-.036-.156-2.557-.218-5.602-.063-3.046-.156-5.58-.208-5.632-.118-.119-4.712-.181-5.11-.069m28.533 0c-.143.038-.551.686-.907 1.439-.355.752-1.22 2.568-1.922 4.035s-1.56 3.267-1.907 4-1.108 2.315-1.692 3.515c-.584 1.201-1.062 2.232-1.062 2.292s.56.11 1.244.11c1.44 0 1.261.18 2.366-2.394 1.057-2.462.65-2.273 4.89-2.273 4.151 0 3.795-.134 4.664 1.75l.942 2.042.404.875h2.912c3.198 0 3.125.03 2.522-1.052-.495-.885-2.067-3.876-3.566-6.782a353.799 353.799 0 00-1.853-3.541c-.38-.711-1.001-1.873-1.379-2.584-.379-.71-.772-1.346-.875-1.414-.194-.127-4.321-.143-4.781-.018m-156.9.266c-.036.114-.112 3.566-.17 7.67l-.106 7.463 2.8-.046 2.801-.046.045-3.107c.034-2.365.099-3.153.271-3.295.156-.13 1.445-.173 4.204-.142l3.98.044.166 6.5 5.584.092v-15.35l-5.75.092-.084 3.166-.083 3.167-4.072.045c-3.146.034-4.102-.004-4.205-.167-.074-.116-.136-1.58-.137-3.253l-.003-3.042h-2.588c-1.926 0-2.605.054-2.653.209m34.205 1.215c4.743.716 5.582 9.93 1.12 12.292-.815.431-3.706.516-4.417.129-2.732-1.485-4.251-6.006-3-8.928.117-.275.32-.747.451-1.048.715-1.651 2.894-2.857 4.716-2.61.229.031.738.105 1.13.165m84.808.323c2.267.674 2.357 3.418.145 4.438-.76.351-4.969.469-5.169.145-.249-.402-.306-4.524-.065-4.676.395-.251 4.164-.181 5.089.093m-63.938.897c2.832.273 4.144 1.846 3.025 3.625-.648 1.03-4.064 1.801-5.919 1.335l-.44-.11v-5.202l.959.108c.527.06 1.595.169 2.375.244m39.221 1.413c.221.381.75 1.353 1.177 2.16.426.806.861 1.602.965 1.769.469.752.165.848-2.697.848-3.35 0-3.253.188-1.584-3.088 1.414-2.773 1.48-2.826 2.139-1.689m64.088.263c.191.42.77 1.542 1.288 2.492 1.144 2.104 1.226 2.016-1.894 2.019-3.012.003-2.982.053-1.692-2.747.253-.55.651-1.434.884-1.964.503-1.143.824-1.097 1.414.2m-87.161.097c.25.458.999 1.872 1.664 3.142.666 1.27 1.534 2.92 1.929 3.667.396.747.684 1.451.642 1.566-.121.325-9.313.3-9.437-.026-.05-.128.392-1.222.982-2.43.589-1.208 1.072-2.218 1.072-2.244s.45-.993 1-2.148 1-2.182 1-2.283c0-.492.729-.011 1.148.756m-149.1 1.457c-.715.229-.736.385-.677 5.124l.048 3.915.5.246c.881.434 3.975.444 5.112.016 2.225-.837 3.044-3.372 1.465-4.539-.458-.339-.683-.969-.346-.969.241 0 .686-1.09.686-1.679 0-1.699-4.102-2.977-6.788-2.114m61.871.123c-1.444.2-2.019.543-2.797 1.665-.621.895-.233 3.174.584 3.433.611.194.654.655.129 1.38-.554.765-1.332 2.307-1.332 2.64 0 .153.263.218.875.218l.875-.001.748-1.426c.941-1.793 1.101-1.936 2.201-1.965l.884-.024.047 1.708.048 1.709h1.06c1.347 0 1.262.315 1.262-4.675 0-4.757.131-4.398-1.675-4.571-.592-.057-1.3-.127-1.575-.155s-.875.001-1.334.064m-83.892.224c-.143.172-.184 1.442-.152 4.633l.044 4.396.87.051.869.05.047-1.884.048-1.883 1.82-.048c2.186-.057 2.09-.153 2.094 2.089l.002 1.709h1.834v-9.161l-.397-.099a2.947 2.947 0 00-.875-.045l-.478.055-.048 1.657c-.062 2.116-.039 2.093-2.036 2.093-1.996 0-1.974.023-2.035-2.093l-.048-1.657-.681-.05c-.438-.032-.751.035-.878.187m12.514.141c-3.276 1.589-3.111 7.731.239 8.872 3.589 1.223 6.485-1.723 5.757-5.856-.501-2.841-3.376-4.286-5.996-3.016m21.045-.045c-3.185 1.478-3.196 7.422-.018 8.865 3.227 1.465 6.35-1.214 6.041-5.182-.25-3.224-3.167-5.008-6.023-3.683m10.691-.066c-2.981 1.554-3.512 4.695-1.311 7.757.781 1.086 3.255 1.615 5.435 1.163l.976-.203-.105-.762c-.129-.946-.135-.952-.786-.725-1.715.598-3.911-.046-4.583-1.345-.469-.908-.3-.969 2.687-.969 3.628 0 3.754-.118 2.901-2.705-.728-2.207-3.207-3.259-5.214-2.211m31.348.041c-.144.16-.574.967-.956 1.792-1.406 3.036-1.86 3.916-2.019 3.916-.135 0-1.198-2.106-2.537-5.028-.328-.716-.434-.768-1.343-.646l-.684.091-.115 1.044c-.064.575-.191 2.395-.284 4.045s-.21 3.067-.26 3.149c-.246.397.129.679.904.679h.792l.088-2.292c.084-2.173.275-3.208.592-3.208.17 0 1.079 1.775 1.45 2.83.67 1.908 1.955 2.145 2.568.476.113-.306.42-1.006.683-1.556s.556-1.207.651-1.459c.424-1.125.6-.616.868 2.518l.215 2.524h1.788l-.068-1.458c-.174-3.716-.513-7.467-.686-7.581-.357-.235-1.379-.133-1.647.164m-19.044.244c-.046.121-.064 2.169-.04 4.55l.045 4.331.833.047.834.048.482-.881c.266-.484.735-1.237 1.042-1.673.307-.435.559-.841.559-.902 0-.207 1.841-2.556 2.004-2.556.099 0 .163 1.068.163 2.737 0 3.361-.033 3.263 1.081 3.263 1.096 0 1.021.394.919-4.833l-.084-4.25-.852.006c-1.052.007-1.205.162-3.068 3.102-1.143 1.804-1.563 2.309-1.923 2.309-.036 0-.086-1.219-.111-2.709l-.046-2.708-.877-.05c-.61-.036-.902.016-.961.169m-41.516 1.216c1.701.711 2.16 3.725.8 5.257-1.599 1.802-4.112.473-4.112-2.175 0-2.316 1.594-3.799 3.312-3.082m10.98-.008c.869.363 1.085 1.272.44 1.856-.453.41-3.101.577-3.334.21-.215-.339-.177-1.881.052-2.11.279-.279 2.137-.251 2.842.044m10.418.202c1.928 1.443 1.43 5.414-.729 5.819-2.327.436-3.78-2.418-2.509-4.931.648-1.282 2.158-1.696 3.238-.888m10.376-.111c.707.361 1.216 1.132 1.132 1.718-.049.344-.147.367-1.802.413-2.375.066-2.5.027-2.331-.727.324-1.432 1.691-2.072 3.001-1.404m39.296 1.068c.058 1.554.026 1.591-1.413 1.595-1.591.004-2.386-.431-2.386-1.306 0-1.089 1.001-1.707 2.667-1.647l1.083.039.049 1.319m133.59-.636c1.802.425 2.29 2.874.858 4.305-.691.691-1.377.805-4.417.73l-2.083-.052-.046-2.394c-.034-1.736.011-2.463.163-2.646.216-.261 4.363-.218 5.525.057m-243.32 1.466c-.05.13-.066.486-.037.793l.053.558h17.5v-1.5l-8.713-.043c-7.383-.037-8.726-.008-8.803.192m49.867 1.607c1.387.528 1.074 2.291-.457 2.576-.308.057-1.048.081-1.644.053l-1.083-.052-.051-.993c-.089-1.732-.068-1.757 1.46-1.757.726 0 1.524.078 1.775.173" fill="#350775"/><path d="M334.82 46.61c-.143.169-.357.644-.477 1.057-.554 1.92-.652 2.277-.727 2.666-.045.23-.282 1.129-.527 2s-.51 1.846-.588 2.167-.343 1.296-.588 2.167a61.786 61.786 0 00-.575 2.166 38.885 38.885 0 01-.412 1.584 203.595 203.595 0 00-1.03 3.833c-.143.55-.322 1.15-.398 1.333a4.412 4.412 0 00-.214.75c-.042.23-.205.867-.363 1.417-.793 2.761-.437 4.917.812 4.917.137 0 .295.075.351.166.057.092.446.167.865.167.418 0 1.483.112 2.365.248 3.285.509 3.875.585 4.521.585.364 0 .981.072 1.372.159s1.761.278 3.044.423c1.283.146 2.653.337 3.044.425s.991.163 1.333.166c1.305.013 4.91.617 5.055.847.369.581-.147.877-1.749 1.003-.742.059-2.475.23-3.85.38-2.34.257-3.664.388-7.583.752-.871.081-2.708.273-4.083.426-1.375.154-3.138.341-3.917.415-1.824.175-2.522.367-3.472.954-1.358.84-1.994 1.911-2.701 4.55a195.54 195.54 0 01-.41 1.5c-.115.413-.29 1.05-.387 1.417l-.536 2c-.196.733-.419 1.596-.496 1.917-.077.32-.262 1.033-.411 1.583-.15.55-.335 1.263-.413 1.583a97.058 97.058 0 01-.586 2.167c-.484 1.722-.648 2.353-.909 3.5a35.52 35.52 0 01-.435 1.667 186.64 186.64 0 00-1.652 6.315c-.411 1.646.585 2.492 1.873 1.59.205-.143.541-.353.746-.465s1.028-.632 1.829-1.155c.801-.524 1.526-.952 1.611-.952s.18-.058.21-.129c.072-.167 2.771-1.871 2.964-1.871a.24.24 0 00.203-.128c.058-.134 4.586-3.039 4.737-3.039.048 0 .655-.375 1.351-.833.695-.458 1.328-.833 1.407-.833s.144-.067.144-.148.131-.191.291-.245c.161-.054.742-.4 1.292-.768s1.131-.716 1.292-.774c.16-.057.291-.17.291-.251s.08-.148.178-.148.424-.187.724-.416c.301-.229.601-.417.667-.417s.366-.188.667-.417c.3-.229.626-.416.725-.416.098 0 .203-.057.234-.127.058-.132 3.263-2.207 3.41-2.207.046 0 .33-.187.631-.416.3-.229.605-.417.677-.417s.496-.263.943-.583c.446-.321.854-.584.906-.584s.34-.187.64-.416c.301-.229.595-.417.655-.417s.475-.263.921-.583c.447-.321.891-.584.987-.584s.199-.066.23-.146c.03-.081.318-.291.639-.467s1.333-.808 2.25-1.405a893.25 893.25 0 017.726-4.944c.334-.208.776-.464.982-.568s.375-.253.375-.33.08-.14.178-.14.423-.187.724-.416c.3-.23.607-.417.681-.417.075 0 .381-.188.682-.417.3-.229.626-.416.724-.416s.178-.058.178-.127c0-.07.145-.202.322-.292 1.125-.574 4.524-2.882 4.605-3.127.198-.598-.114-1.205-.962-1.871-.466-.367-.93-.742-1.032-.833-.298-.271-2.15-1.836-2.58-2.182a97.513 97.513 0 01-1.098-.902 58.358 58.358 0 00-1.348-1.083 37.05 37.05 0 01-1.151-.932c-.279-.237-.656-.55-.84-.695a139.06 139.06 0 01-1.5-1.235 422.632 422.632 0 00-1.5-1.245l-3-2.467a843.409 843.409 0 00-3-2.462c-.183-.147-.561-.462-.839-.699s-.795-.657-1.148-.932-.726-.575-.828-.666c-.102-.092-.539-.452-.972-.8s-.883-.723-1-.833-.567-.485-1-.833-.883-.723-1-.834a14.57 14.57 0 00-.879-.692c-.367-.27-.705-.535-.75-.588-.046-.054-1.059-.881-2.25-1.839-2.156-1.732-2.481-1.997-3.106-2.525-.18-.152-.636-.527-1.013-.833s-.768-.632-.867-.723c-1.536-1.414-2.632-1.874-3.112-1.307m-73.948 11.309c-3.086.751-4.663 3.726-3.402 6.414.44.937 1.246 1.811 1.992 2.16.251.117.586.279.745.36s.929.147 1.711.147c.781 0 1.551-.066 1.71-.147s.493-.242.742-.358c3.888-1.814 2.835-7.927-1.477-8.573a14.369 14.369 0 01-.955-.167c-.103-.028-.583.046-1.066.164m-68.538 15.072c-.321.068-1.333.254-2.25.414-.916.161-1.797.36-1.956.443a1.519 1.519 0 01-.595.152c-1.166 0-2.353.789-2.077 1.381.094.203.302.706.462 1.119.159.412.35.9.423 1.083.074.184.354.934.623 1.667.556 1.513.79 1.647 2.084 1.194.387-.135 1.153-.334 1.703-.442s1.338-.283 1.75-.389c2.796-.722 7.478-.069 8.801 1.228.884.866 1.199 1.889 1.199 3.893 0 1.96.057 1.917-2.815 2.113-12.61.861-18.352 4.69-18.352 12.236 0 6.021 3.559 9.748 10.417 10.909 2.676.453 8.929.466 11.167.023.458-.091 1.47-.287 2.25-.437 3.419-.658 4.276-1.137 5.084-2.845l.423-.894-.062-10.961c-.06-10.882-.098-11.668-.672-13.878-1.023-3.946-3.452-6.498-7.19-7.556-1.962-.556-2.523-.61-6.127-.594-2.039.009-3.969.073-4.29.141m91.917.025c-1.619.281-3.673.688-4.167.824-2.978.826-2.929.768-2.175 2.577.115.275.302.762.417 1.083.312.873.435 1.188.735 1.881.15.347.273.739.273.871 0 .386.809.488 1.65.207a17.625 17.625 0 011.767-.454c.55-.11 1.337-.286 1.75-.394.992-.257 5.922-.257 6.583 0 .275.108.711.241.969.298 1.201.263 2.176 1.602 2.551 3.508.573 2.906.193 3.404-2.603 3.411-1.824.005-7.189.822-8.833 1.346-.229.073-.867.258-1.417.412-5.157 1.442-8.185 5.118-8.373 10.164-.066 1.801-.031 2.042.594 4.06 1.183 3.816 4.234 6.037 9.862 7.18 2.217.45 9.003.463 11.25.022 8.475-1.662 7.917-.666 7.917-14.14 0-8.701-.124-12.126-.489-13.539-.87-3.363-1.479-4.614-3.05-6.267-1.195-1.259-1.997-1.743-4.211-2.547-1.788-.649-8.417-.953-11-.503m-67.852.481c-.668.27-.577 1.126.347 3.253.119.275.311.8.426 1.167.114.366.267.816.339 1 .071.183.323.877.56 1.541l.86 2.417c.237.665.493 1.358.57 1.542.077.183.333.877.57 1.541l.832 2.334a260.034 260.034 0 011.367 3.875c.139.412.352.975.473 1.25s.385.987.586 1.583.547 1.59.769 2.208a899 899 0 01.833 2.334c.237.664.493 1.358.57 1.541.077.184.339.896.583 1.584.244.687.505 1.4.579 1.583.075.183.267.708.428 1.167 1.276 3.646 6.06 5.34 10.14 3.591 1.211-.519 3.097-2.78 3.102-3.719.001-.161.07-.424.153-.583.084-.159.277-.664.43-1.123.153-.458.341-.983.418-1.166.14-.333.904-2.46 1.167-3.25.279-.837 1.031-2.926 1.17-3.25.079-.184.368-1.009.643-1.834s.81-2.362 1.188-3.416c.379-1.055.801-2.255.938-2.667.138-.413.433-1.256.656-1.875s.599-1.669.835-2.333a53.88 53.88 0 01.569-1.542c.077-.183.273-.746.437-1.25s.358-.988.431-1.075.133-.326.133-.532c0-.205.066-.414.147-.464.08-.05.184-.261.23-.468.045-.208.319-1.015.607-1.794 1.28-3.464 1.429-3.334-3.809-3.334-4.311 0-4.783.079-4.942.821a5.578 5.578 0 01-.228.763c-.074.183-.264.82-.422 1.416-.157.596-.345 1.234-.416 1.417s-.333 1.083-.582 2-.512 1.854-.585 2.083c-.073.23-.259.867-.413 1.417s-.341 1.188-.414 1.417c-.074.229-.226.754-.338 1.166-.111.413-.298 1.05-.414 1.417s-.293.967-.394 1.333a204.86 204.86 0 01-.593 2.084c-.225.779-.533 1.866-.685 2.416s-.336 1.188-.41 1.417c-.073.229-.216.717-.318 1.083-.234.85-.68 2.377-.85 2.917-.073.229-.228.736-.346 1.127-.441 1.471-.79 1.214-1.416-1.044a66.235 66.235 0 00-.406-1.416c-.072-.229-.261-.867-.421-1.417-.159-.55-.356-1.13-.436-1.289a1.669 1.669 0 01-.146-.628c0-.185-.07-.468-.155-.627-.214-.401-.678-1.962-.678-2.281 0-.145-.066-.393-.147-.552-.143-.284-.465-1.296-.832-2.623-.102-.367-.365-1.267-.584-2-.22-.733-.568-1.896-.772-2.583-.205-.688-.477-1.588-.604-2-.299-.972-.464-1.528-.817-2.75-.158-.55-.381-1.3-.496-1.667-.997-3.2-.932-3.057-1.46-3.241-.605-.211-8.039-.222-8.557-.012m41.852.121c-.579.152-.578.127-.581 18.084-.002 17.251.004 17.623.32 17.792.479.256 7.719.231 7.978-.027.252-.252.288-35.235.037-35.634-.159-.252-6.903-.44-7.754-.215m-55.789 24.177l.043 5.712-.46.184c-2.133.856-7.435.652-9.501-.365-5.021-2.472-3.853-9.142 1.814-10.353 2.69-.574 5.825-.961 7.393-.911l.667.021.044 5.712m92.2-5.473c.245.458.233 10.363-.014 10.904-.536 1.177-6.639 1.387-9.519.327-5.489-2.021-4.598-9.331 1.289-10.575 1.98-.419 3.678-.681 5.166-.799 2.776-.219 2.887-.214 3.078.143" fill="#fc5b5c"/><path d="M387 9.841c-1.238.817-2.363 1.538-2.5 1.602-.137.065-.887.533-1.667 1.04-1.653 1.076-1.603 1.045-3.17 2.017-.664.412-1.378.862-1.586 1-.208.137-2.317 1.482-4.686 2.989a688.629 688.629 0 00-5.974 3.832c-.917.601-1.78 1.143-1.917 1.204s-1.43.887-2.873 1.835c-2.629 1.727-13.675 8.765-16.416 10.459-5.012 3.098-8.589 5.436-8.878 5.802-.611.777-.251 1.922.825 2.629.279.183.508.39.508.458 0 .069.107.125.237.125s.261.057.291.125c.031.069.468.463.973.875a719.576 719.576 0 004.083 3.341 382.419 382.419 0 013.25 2.666c.413.347 1.05.865 1.417 1.152.366.287.779.614.916.727l2.084 1.7c1.008.821 1.983 1.62 2.166 1.775.435.367 3.321 2.723 4.254 3.473.399.32 1.518 1.247 2.486 2.058 2.236 1.872 2.265 1.896 3.26 2.69 1.063.846 3.807 3.128 3.917 3.256.046.053.383.317.75.587.367.269.704.528.75.575.17.173 1.283 1.1 1.9 1.584.351.275.785.626.966.781.847.727 2.217.389 2.503-.617.365-1.288.635-2.265.944-3.414.652-2.426.856-3.177 1.122-4.125.43-1.541.578-2.089.731-2.709.079-.321.343-1.295.587-2.166s.503-1.809.576-2.084.339-1.25.59-2.166c.409-1.489.657-2.401 1.509-5.55.321-1.186.302-1.569-.12-2.466-.635-1.351-1.358-1.646-5.058-2.062a733.96 733.96 0 01-3-.345c-.733-.087-2.308-.271-3.5-.409s-2.767-.326-3.5-.419-2.571-.321-4.083-.507c-4.611-.567-4.735-.648-1.5-.977 1.054-.107 2.216-.236 2.583-.286s1.342-.157 2.167-.239c.825-.081 2.587-.265 3.916-.408s3.129-.329 4-.414c1.717-.167 5.694-.595 7.167-.772 2.695-.324 4.49-2.49 5.368-6.48.214-.969.388-1.641.883-3.416.244-.871.619-2.259.834-3.084.362-1.386.624-2.369 1.334-5a393.434 393.434 0 001.252-4.75c.079-.321.267-1.033.416-1.583.15-.55.31-1.187.355-1.417.046-.229.147-.566.225-.75.078-.183.175-.52.217-.75.042-.229.206-.866.365-1.416.496-1.72.497-1.865.012-2.501-.79-1.036-1.534-.874-4.261.925m3.681-1.127c.777.596.769.893-.107 4.119a632.613 632.613 0 00-1.407 5.25c-.267 1.009-.606 2.284-.754 2.834s-.445 1.675-.661 2.5-.515 1.95-.664 2.5c-.15.55-.423 1.562-.608 2.25-.185.687-.452 1.662-.594 2.166s-.317 1.179-.389 1.5c-1.526 6.799-2.381 7.612-8.664 8.248-1.421.143-3.183.332-3.916.42-.734.088-2.534.275-4 .417-1.467.142-3.267.326-4 .41-.734.083-2.599.283-4.144.443-4.362.452-4.489 1.066-.328 1.576 1.359.166 3.072.379 3.805.472 1.267.161 6.842.812 10.25 1.198 6.206.703 6.95 1.302 5.981 4.816-.189.688-.405 1.475-.478 1.75-.074.275-.26.95-.415 1.5s-.469 1.713-.698 2.584a251.42 251.42 0 01-1.132 4.166 465.529 465.529 0 00-1.276 4.667c-.183.688-.527 1.962-.763 2.833s-.599 2.217-.806 2.992c-.61 2.286-1.328 2.561-2.996 1.15-.92-.778-11.554-9.535-13-10.705-.917-.742-3.171-2.587-5.01-4.101a892.696 892.696 0 00-5.822-4.752 628.385 628.385 0 01-3.95-3.209 687.142 687.142 0 00-5.618-4.591c-1.18-.949-1.201-.98-1.151-1.667l.051-.7 3.676-2.333c2.023-1.284 6.522-4.134 9.999-6.334s7.086-4.487 8.019-5.083l7.417-4.738c3.147-2.009 6.734-4.312 7.972-5.117 12.741-8.287 15.544-9.921 16.181-9.431m-230.03 55.063c-.147.039-.356.237-.463.439-.259.486-.156 36.734.109 38.117 1.108 5.801 4.24 8.333 10.307 8.333 2.372.001 4.596-.443 5.243-1.046.297-.277.322-.553.322-3.626 0-4.069-.012-4.093-1.813-3.946-.972.079-2.331-.056-3.234-.32-.43-.126-1.071-.869-1.454-1.684-.32-.68-.333-1.063-.333-10.106v-9.399l.375-.101c.207-.055 1.62-.101 3.141-.102 3.582-.003 3.318.28 3.318-3.557 0-3.875.254-3.612-3.487-3.612-1.551 0-2.938-.046-3.083-.101-.231-.089-.264-.642-.264-4.491 0-4.347-.003-4.392-.37-4.649-.354-.248-7.469-.375-8.314-.149m8.36.663c.097.256.161 2.172.152 4.582-.009 2.278.031 4.218.088 4.31.064.103 1.261.168 3.081.168 3.912 0 3.503-.378 3.503 3.241v3.039l-.424.193c-.269.123-1.459.194-3.24.194-1.549 0-2.855.063-2.904.141-.237.384-.117 19.281.126 19.859.706 1.677 1.722 2.198 4.271 2.191.993-.002 1.837.072 1.958.173.321.266.305 6.685-.017 6.953-1.045.867-6.252 1.086-8.986.378-2.51-.649-4.766-2.926-5.51-5.558a56.798 56.798 0 00-.463-1.554c-.284-.892-.425-37.892-.145-38.414.172-.323.339-.336 4.261-.336h4.082l.167.44m-149.01 8.083c-6.177 1.095-9.722 4.486-10.254 9.81-.112 1.127.141 3.534.454 4.306 1.321 3.265 2.768 4.72 6.427 6.466 1.033.492 1.931.895 1.996.895.101 0 1.66.56 2.794 1.003 3.631 1.42 5.119 3.879 3.728 6.161-1.473 2.416-6.804 2.592-11.92.395-.982-.422-2.058.043-2.058.89 0 .171-1.584 3.996-1.832 4.424-.751 1.294.832 2.414 4.415 3.124.367.073 1.304.27 2.083.438 3.645.788 10.376.308 13.349-.952 4.302-1.822 6.579-5.484 6.439-10.355-.145-5.062-2.218-7.704-7.996-10.192-1.487-.64-1.764-.751-2.791-1.109-3.766-1.314-5.167-2.578-5.167-4.66 0-3.342 4.293-4.537 9.5-2.646.595.216 1.12.438 1.166.492.603.717 1.591.177 2.231-1.219 1.23-2.683 1.791-4.134 1.74-4.496-.056-.392-1.723-1.423-2.348-1.451a1.724 1.724 0 01-.583-.16c-.715-.361-1.682-.609-4.04-1.038-1.294-.235-6.237-.32-7.333-.126m32.308-.109c-.045.045-.751.154-1.57.242-1.87.202-3.069.411-4.238.739a90.46 90.46 0 01-1.333.363c-1.72.44-3.01 1.423-3.43 2.613-.369 1.044-.352 32.423.017 33.137l.255.492h4.323c4.103 0 4.332-.016 4.495-.322.116-.215.173-5.04.173-14.48 0-12.007.036-14.187.236-14.353.371-.308 3.339-.845 4.655-.843 2.628.004 4.873 1.113 5.735 2.831.483.965.541 2.489.541 14.367 0 8.06.058 12.264.172 12.478.289.539 8.688.495 9.068-.048.23-.328.26-1.948.26-14.145V81.711l.654-.433c3.097-2.05 7.805-1.506 9.4 1.086.909 1.478.945 2.058.945 15.228.001 9.117.049 12.056.201 12.208.396.397 9.082.273 9.299-.133.344-.642.141-27.726-.216-28.834-1.214-3.768-4.419-7.012-7.773-7.867-3.152-.803-6.1-.798-10.094.018-.912.186-2.011.555-2.191.735-.063.063-.215.114-.338.114-.289 0-2.565 1.086-3.609 1.722l-.805.49-.445-.355c-3.037-2.423-6.237-3.338-11.709-3.351-1.428-.003-2.634.031-2.678.075m57.025.109c-3.809.553-7.04 1.375-7.597 1.932-.379.378-.293.754.794 3.514 1.396 3.541 1.214 3.385 3.303 2.821 4.218-1.139 7.595-1.311 10.25-.523 1.807.536 2.584 1.896 2.584 4.523v1.334l-.792.095c-.435.052-1.767.179-2.958.282-1.192.102-2.438.257-2.77.343a5.194 5.194 0 01-1.059.156c-.409 0-1.37.204-3.088.657-7.376 1.941-10.588 5.449-10.542 11.51.058 7.589 5.083 11.32 15.625 11.6 3.649.097 3.275.129 9.084-.772 2.038-.316 3.271-.789 4.167-1.599 1.495-1.35 1.409-.644 1.463-12.008.062-12.853-.204-15.609-1.745-18.093-.212-.342-.385-.664-.385-.715 0-.407-2.875-3.181-3.667-3.54-2.045-.925-2.24-.988-4.25-1.397-1.133-.23-7.077-.315-8.417-.12m-81.583.445c.275.086 1.063.292 1.75.458 4.339 1.048 4.873 1.57 3.859 3.774a68.373 68.373 0 00-.778 1.75c-.684 1.646-.834 1.899-1.181 1.986-.2.05-.591-.026-.868-.17-3.685-1.905-8.917-1.843-10.417.124-1.983 2.6-.575 5.329 3.502 6.788.532.19 1.116.406 1.3.481l1.083.435c8.367 3.358 11.187 8.214 8.673 14.934-2.347 6.274-11.575 8.723-22.006 5.84-3.636-1.004-3.633-.998-2.038-4.769 1.393-3.295 1.176-3.16 3.731-2.309 6.21 2.071 10.456 1.38 11.393-1.854.764-2.64-1.017-4.721-5.203-6.077-7.47-2.421-10.444-5.584-10.444-11.109 0-5.246 3.001-8.793 8.589-10.151 1.786-.434 7.804-.52 9.055-.131m30.917-.134c3.313.38 6.804 1.789 7.978 3.221.329.4.566.352 1.625-.325 1.114-.712 3.961-1.933 5.34-2.289l1.807-.468c1.16-.301 6.554-.299 7.666.004 4.272 1.161 7.071 3.64 8.356 7.401l.469 1.372.051 13.832c.049 12.937.034 13.845-.235 14.041-.465.34-8.027.296-8.52-.049l-.371-.26-.002-12.532c-.003-13.22.009-12.985-.741-14.436-1.329-2.57-6.236-3.398-9.46-1.596-1.416.791-1.286-.652-1.335 14.815-.044 13.436-.053 13.801-.369 14.032-.399.292-7.572.348-8.104.064-.314-.168-.322-.483-.322-12.518 0-15.049-.018-15.156-2.746-16.572-1.928-1-7.757-.968-8.774.049-.078.078-.161 6.576-.186 14.441-.043 13.935-.052 14.305-.368 14.536-.399.292-7.572.348-8.104.064-.437-.235-.513-32.808-.078-33.649.692-1.338 3.064-2.265 7.673-3 2.105-.335 6.586-.426 8.75-.178m59.583.163c3.046.883 4.234 1.481 5.54 2.787 1.752 1.752 2.655 3.526 3.205 6.299.109.55.267 1.315.352 1.699.084.385.153 5.535.153 11.469v10.77l-.434.917c-.648 1.369-1.52 1.93-3.81 2.449-11.83 2.681-21.557.59-24.392-5.244-3.456-7.111.536-14.296 8.969-16.142 3.881-.85 5.025-1.025 8.74-1.342 2.559-.218 2.496-.158 2.377-2.269-.218-3.842-1.949-5.019-7.117-4.839-2.599.091-3.013.159-6.813 1.111-.771.193-1.353-.068-1.353-.607 0-.124-.073-.356-.161-.516-.089-.159-.509-1.188-.935-2.287-.901-2.327-.881-2.66.179-3.007 1.513-.495 5.258-1.279 7.083-1.481 1.22-.136 7.772.046 8.417.233m29.25.428c-2.091.367-2.537.498-3.786 1.12-4.09 2.034-6.809 5.411-7.981 9.912-.317 1.217-.348 25.028-.033 25.343.336.336 8.531.279 8.871-.062.233-.233.263-1.467.265-11.042.003-11.718.037-12.222.928-13.859 1.057-1.942 2.473-2.905 5.664-3.852a4.475 4.475 0 011.05-.152c.642 0 1.441-.381 1.585-.757.146-.381.125-6.12-.024-6.343-.405-.607-3.892-.771-6.539-.308m6.071.337c.346.346.395 6.095.054 6.358-.212.165-.925.356-2.708.728-2.969.619-5.181 2.578-6.099 5.402-.166.508-.239 3.347-.309 11.945-.051 6.202-.155 11.34-.231 11.416-.286.287-7.77.266-8.21-.023l-.401-.262V98.038c0-13.586.085-14.335 1.991-17.542 1.797-3.026 5.736-6.041 8.592-6.577 2.535-.476 6.908-.57 7.321-.157m-37.654 18.522c-2.348.215-5.172.771-6.29 1.238-5.015 2.092-4.885 8.262.212 10.064 2.156.762 8.488.549 9.03-.305.149-.234.177-10.467.03-10.851-.102-.264-1.14-.315-2.982-.146m2.75 5.456c0 2.974-.062 5.445-.138 5.492-.832.515-5.458.736-7.276.348-3.46-.739-4.836-2.16-4.836-4.997 0-3.517 2.239-5.145 7.916-5.756.779-.084 1.942-.22 2.584-.302a49.956 49.956 0 011.458-.171c.272-.019.292.34.292 5.386m184.19 17.272c-.073.199-.071.784.004 1.3.243 1.647.245 1.609-.097 1.55-.173-.03-.621-.248-.996-.484-1.15-.726-1.78-.627-2.08.328-.341 1.08-.102 1.327 1.554 1.605 1.494.251 1.459.12.337 1.251-1.125 1.134-1.167 1.506-.24 2.162.875.619 1.046.525 1.768-.975.716-1.487.786-1.487 1.586.015.809 1.519.961 1.603 1.753.963.905-.731.88-1.003-.197-2.133-.511-.536-.908-.994-.882-1.019.025-.025.601-.16 1.28-.3 1.592-.329 1.747-.479 1.471-1.431-.321-1.111-.552-1.165-1.925-.454-.649.335-1.228.61-1.288.61-.059 0-.082-.731-.05-1.625l.058-1.625-.961-.05c-.857-.045-.975-.011-1.095.312m1.725 1.196c-.212 1.98-.207 2.037.176 2.091.19.028.821-.219 1.403-.548 1.218-.688 1.367-.675 1.62.151.234.76-.135.997-1.827 1.174-1.371.143-1.374.184-.125 1.548 1.154 1.259 1.174 1.334.469 1.827-.665.464-.678.455-1.48-1.141-.832-1.653-1.011-1.647-1.853.065-.682 1.385-.92 1.53-1.594.968-.552-.46-.478-.668.625-1.76 1.291-1.277 1.277-1.338-.354-1.546-1.639-.209-1.873-.388-1.635-1.248.214-.778.387-.779 1.822-.016 1.135.604 1.806.662 1.605.14-.162-.424-.321-2.376-.215-2.652.068-.179.318-.261.796-.261h.696l-.129 1.208m-141.09 5.547c-9.202 1.386-12.356 10.287-5.25 14.815 4.697 2.992 13.276 2.429 16.898-1.109 6.667-6.513-.831-15.335-11.648-13.706m6.167.509c10.339 2.661 10.187 13.481-.22 15.653-7.757 1.618-14.728-2.179-14.686-8 .039-5.525 7.765-9.491 14.906-7.653m9.833-.015c-.23.607-.225 14.997.006 15.429.204.38 5.194.506 5.422.136.063-.102.102-1.337.085-2.744-.036-3.051-.513-2.709 3.904-2.794 3.341-.064 4.081-.169 5.266-.745 3.796-1.845 3.687-7.059-.183-8.823-1.361-.62-2.526-.73-8.708-.818l-5.625-.08-.167.439m22.999-.082c-.183.184-.587.878-.896 1.542-.31.664-1.216 2.558-2.015 4.208-1.987 4.108-2.839 5.902-3.108 6.541-.213.505-.283.542-1.032.542-1.296 0-1.448.155-1.448 1.485 0 1.654-1.033 1.523 11.602 1.475l11.148-.043.049-1.292.048-1.292h-.583c-.753 0-1.007-.283-1.979-2.203a114.912 114.912 0 00-1.47-2.797c-.377-.687-1.158-2.15-1.737-3.25-3.085-5.871-2.417-5.25-5.649-5.25-2.375 0-2.624.029-2.93.334m22.984-.042c-.245.303-.401.611-1.372 2.708-.318.688-.989 2.113-1.49 3.167s-1.081 2.292-1.288 2.75a214.472 214.472 0 01-2.127 4.583c-1.326 2.781-1.34 2.735.799 2.634l1.078-.05.714-1.5c1.157-2.431 1.446-2.97 1.578-2.943.069.014 1.735.026 3.703.026h3.579l.869 1.792c.478.985 1.01 1.998 1.183 2.25l.314.458h2.994c2.39 0 3.011-.046 3.082-.23.081-.212-.395-1.206-2.007-4.187-.347-.641-.97-1.804-1.385-2.583a385.42 385.42 0 00-2.337-4.333c-.227-.413-.825-1.538-1.327-2.5-1.318-2.522-1.005-2.334-3.876-2.334-2.131 0-2.479.038-2.684.292m15.69.031c-.112.208-.173 2.952-.173 7.761s.061 7.552.173 7.761c.348.651 13.361.429 15.571-.267 3.46-1.088 3.681-5.628.355-7.311l-.802-.406.512-.265c3.058-1.581 2.563-6.038-.777-6.984-2.509-.711-14.509-.945-14.859-.289m19.86-.123c-.15.15-.2 2.155-.2 7.997v7.797l.375.092c.207.051 1.613.071 3.125.045l2.75-.047 1.049-1.417a99.151 99.151 0 011.253-1.667c.113-.137 1.063-1.45 2.112-2.916 1.048-1.467 1.985-2.748 2.081-2.847s.437-.566.757-1.037c.32-.472.637-.86.704-.862.068-.002.143 2.414.167 5.371l.044 5.375 2.583.047c1.421.027 2.752.006 2.959-.044l.375-.093v-7.797c0-5.842-.05-7.847-.2-7.997-.14-.14-1.058-.2-3.058-.2-3.313 0-2.852-.232-4.553 2.295-.608.904-1.931 2.862-2.939 4.351-1.009 1.49-1.909 2.835-2 2.99-.092.154-.21.318-.263.364s-.235.323-.405.616c-.502.864-.534.632-.663-4.821-.067-2.866-.192-5.343-.277-5.503-.193-.366-5.419-.448-5.776-.092m28.5.259c-.178.252-.715 1.283-1.193 2.291-.479 1.009-1.193 2.509-1.588 3.334l-1.796 3.75c-3.36 7.012-3.24 6.326-1.1 6.33 1.464.003 1.421.041 2.219-1.914.263-.641.54-1.238.618-1.325.077-.087.14-.281.14-.432 0-.762.397-.835 4.235-.788l3.618.045.402.75c.222.413.676 1.35 1.009 2.084.768 1.69.486 1.577 3.95 1.58 3.513.003 3.487.02 2.591-1.651a577.005 577.005 0 01-3.554-6.763c-.568-1.1-1.2-2.292-1.403-2.65-.204-.357-.752-1.407-1.219-2.333s-1.029-1.927-1.248-2.225l-.398-.542h-4.96l-.323.459m-156.75.105c-.138.359-.182 15.192-.046 15.412s5.547.272 5.886.056c.147-.093.217-1.017.25-3.289l.046-3.159 7.75-.09v3.137c0 2.217.058 3.195.2 3.336.23.23 5.574.286 5.926.062.165-.105.201-1.792.167-7.873l-.043-7.739-3.071-.046c-3.691-.054-3.34-.405-3.343 3.341l-.003 2.961-3.875-.045-3.875-.044-.083-3.084-.084-3.083-2.855-.046c-2.352-.037-2.872-.003-2.947.193m59.964.197c5.015 1.354 5.357 7.423.505 8.953-1.275.402-3.39.62-6.027.62h-2.39v2.486c0 3.318.271 3.014-2.684 3.014h-2.482v-7.655c0-7.145.019-7.66.291-7.743.735-.225 11.792.057 12.787.325m15.172-.333c.183.049.412.254.508.456.096.201.565 1.098 1.042 1.991l1.728 3.25c.475.894.997 1.866 1.161 2.161s.8 1.495 1.413 2.667c1.302 2.489 1.472 2.713 2.048 2.717.738.004.873.199.818 1.179l-.052.901-10.989.043c-12.161.048-11.256.138-11.256-1.126 0-1.022.113-1.139 1.16-1.198.773-.044.94-.114 1.124-.469.119-.229.862-1.766 1.652-3.416 3.673-7.678 4.257-8.847 4.515-9.042.279-.212 4.422-.304 5.128-.114m22.58.071c.17.091.739.972 1.264 1.958s1.158 2.168 1.406 2.627c.248.458.773 1.433 1.166 2.166.394.734.92 1.709 1.169 2.167.25.458.849 1.583 1.331 2.5s1.054 1.979 1.271 2.361c.216.382.467.888.557 1.125l.164.431h-5.81l-.998-2.062c-1.379-2.848-.91-2.605-5.015-2.605-4.218 0-3.881-.128-4.776 1.817-1.395 3.032-1.15 2.759-2.525 2.815-.661.027-1.201.005-1.201-.05s.403-.939.895-1.966a163.696 163.696 0 001.271-2.699 178.3 178.3 0 011.124-2.417 611.12 611.12 0 002.754-5.917c1.146-2.485 1.045-2.416 3.569-2.416 1.141 0 2.214.074 2.384.165m25.003.259c3.533.986 4.211 5.235 1.052 6.589-.949.407-.914.517.368 1.155 3.248 1.615 2.924 5.846-.529 6.91-.853.262-1.853.309-8.016.378l-7.042.079v-7.672c0-7.162.02-7.678.292-7.76.842-.254 12.807.023 13.875.321m11.067-.246c.052.052.145 2.586.208 5.632.062 3.045.16 5.566.218 5.602.258.16.459-.123 6.666-9.37 1.474-2.196 1.201-2.079 4.674-2.008l2.417.049.043 7.708.044 7.709H275.5l-.044-5.456c-.049-6.059-.082-6.21-1.036-4.835-.46.663-1.49 2.078-5.767 7.919l-1.741 2.378-2.834-.045-2.833-.045-.043-7.612c-.041-7.146-.026-7.618.25-7.695.398-.112 4.992-.05 5.11.069m28.204-.051c.103.068.496.704.875 1.414.378.711.999 1.873 1.379 2.584.38.71 1.214 2.304 1.853 3.541 1.499 2.906 3.071 5.897 3.566 6.782.603 1.082.676 1.052-2.522 1.052h-2.912l-.404-.875-.942-2.042c-.869-1.884-.513-1.75-4.664-1.75-4.24 0-3.833-.189-4.89 2.273-1.105 2.574-.926 2.394-2.366 2.394-.684 0-1.244-.05-1.244-.11s.478-1.091 1.062-2.292c.584-1.2 1.345-2.782 1.692-3.515s1.205-2.533 1.907-4 1.567-3.283 1.922-4.035c.356-.753.764-1.401.907-1.439.46-.125 4.587-.109 4.781.018m-156.44 3.081c.001 1.673.063 3.137.137 3.253.103.163 1.059.201 4.205.167l4.072-.045.083-3.167.084-3.166 5.75-.092v15.35l-5.584-.092-.166-6.5-3.98-.044c-2.759-.031-4.048.012-4.204.142-.172.142-.237.93-.271 3.295l-.045 3.107-5.601.092.106-7.463c.058-4.104.134-7.556.17-7.67.048-.155.727-.209 2.653-.209h2.588l.003 3.042m26.533-1.691c-1.596.269-2.841 1.186-3.418 2.518-.131.301-.334.773-.451 1.048-1.251 2.922.268 7.443 3 8.928.711.387 3.602.302 4.417-.129 4.462-2.362 3.623-11.576-1.12-12.292-.392-.06-.901-.134-1.13-.165s-.813.011-1.298.092m82.147.303c-.241.152-.184 4.274.065 4.676.2.324 4.409.206 5.169-.145 2.212-1.02 2.122-3.764-.145-4.438-.925-.274-4.694-.344-5.089-.093m-78.789.353c2.913 1.369 3.793 6.642 1.673 10.017-1.348 2.146-5.196 2.506-7.07.662-2.746-2.705-2.402-8.88.587-10.535 1.114-.617 3.642-.693 4.81-.144m84.278.154c1.499.771 1.3 2.909-.35 3.762-.343.177-1.061.244-2.628.244h-2.157l-.119-1.987c-.066-1.093-.064-2.078.005-2.189.169-.274 4.669-.128 5.249.17m-67.672 2.732v2.601l.44.11c1.855.466 5.271-.305 5.919-1.335 1.119-1.779-.193-3.352-3.025-3.625-.78-.075-1.848-.184-2.375-.244l-.959-.108v2.601m4.084-1.797c1.637.273 2.25.797 2.25 1.923 0 1.58-.881 2.109-3.766 2.264-2.472.132-2.401.198-2.401-2.206 0-2.712-.113-2.655 3.917-1.981m36.332 2.65c-1.669 3.276-1.766 3.088 1.584 3.088 2.862 0 3.166-.096 2.697-.848a53.905 53.905 0 01-.965-1.769c-1.932-3.653-1.71-3.622-3.316-.471m64.813-1.626c-.233.53-.631 1.414-.884 1.964-1.29 2.8-1.32 2.75 1.692 2.747 3.12-.003 3.038.085 1.894-2.019-.518-.95-1.097-2.072-1.288-2.492-.59-1.297-.911-1.343-1.414-.2m-86.895-.459c0 .101-.45 1.128-1 2.283s-1 2.122-1 2.148-.483 1.036-1.072 2.244c-.59 1.208-1.032 2.302-.982 2.43.124.326 9.316.351 9.437.026.042-.115-.246-.819-.642-1.566-.395-.747-1.263-2.397-1.929-3.667-2-3.816-2.095-3.972-2.466-4.029-.19-.029-.346.03-.346.131m24.003.601c.394.714 1.683 3.089 1.932 3.56.118.222.176.466.13.541-.119.192-4.69.173-4.809-.019-.128-.208 2.114-4.669 2.319-4.614.087.023.28.263.428.532m64.023.197c1.581 2.942 1.971 3.745 1.885 3.884-.125.201-4.361.208-4.485.007-.051-.083.089-.514.312-.958.362-.724.693-1.453 1.442-3.183.303-.701.341-.69.846.25m-86.842.666c.323.619 1.102 2.1 1.731 3.292a616.426 616.426 0 011.68 3.208l.537 1.042h-4.497c-2.473 0-4.471-.056-4.441-.125.031-.069.405-.838.832-1.708a223.02 223.02 0 001.551-3.25c1.978-4.249 1.772-4.055 2.607-2.459m-157.43.545c-.275.081-.7.188-.945.238-3.491.718-3.937 7.743-.6 9.445.95.485 3.293.493 4.224.014 3.638-1.87 3.208-8.753-.596-9.544-1.307-.272-1.605-.294-2.083-.153m7.791.109c-.373.261-.375.281-.375 4.833v4.572l.625.269c1.003.43 4.74.379 5.625-.077 2.324-1.197 2.93-3.381 1.351-4.86l-.428-.402.316-.515c.989-1.61.292-3.24-1.667-3.899-.923-.31-4.973-.251-5.447.079m12.872-.042c-1.409.355-2.677 1.362-3.051 2.424-.435 1.234-.529 1.703-.529 2.635 0 .993.057 1.216.672 2.621 1.406 3.211 6.282 3.209 7.808-.003 1.535-3.23.204-7.194-2.563-7.634-.367-.059-.854-.14-1.084-.18-.229-.041-.793.021-1.253.137m10.92-.07c-.138.089-.427.163-.644.164-1.728.011-3.97 3.677-3.417 5.586.992 3.423 3.966 5.028 7.445 4.017l.949-.276v-.709c0-.898-.402-1.516-.894-1.376-1.874.536-3.292.362-4.164-.509-.961-.962-.747-1.064 2.236-1.064 1.527 0 2.816-.074 3-.172.851-.456.028-3.871-1.177-4.885-.824-.693-2.763-1.145-3.334-.776m38.333-.01a9.102 9.102 0 01-.885.251c-2.205.488-3.079 3.73-1.418 5.262l.635.587-.579.86c-1.677 2.49-1.688 3.043-.065 3.047 1.086.003 1.036.048 2.023-1.827.609-1.157.832-1.435 1.225-1.529.265-.064.65-.168.856-.231.37-.114.375-.095.375 1.415 0 2.075.068 2.175 1.473 2.175.654 0 1.211-.084 1.327-.2.298-.298.283-8.79-.016-9.199-.335-.457-4.08-.92-4.951-.611m-57.463.206c1.474.243 2.63 1.177 2.63 2.125 0 .589-.445 1.679-.686 1.679-.337 0-.112.63.346.969 1.579 1.167.76 3.702-1.465 4.539-1.137.428-4.231.418-5.112-.016l-.5-.246-.048-3.915c-.059-4.739-.038-4.895.677-5.124.746-.24 2.743-.245 4.158-.011m-26.585.075c-.065.065-.118 2.235-.118 4.822 0 5.261-.09 4.907 1.25 4.907 1.237 0 1.249-.017 1.252-1.726.003-2.366-.065-2.274 1.684-2.274h1.48v1.738c0 2.091.106 2.262 1.396 2.262 1.316 0 1.271.17 1.271-4.853 0-5.331.089-4.98-1.262-4.98-1.327 0-1.405.12-1.405 2.162v1.517l-3.083-.096-.083-1.75-.084-1.75-1.09-.048c-.6-.027-1.144.004-1.208.069m56.921.035c-.164.104-.201 1.209-.167 4.955l.044 4.822.786.051c1.005.065 1.379-.144 1.818-1.015.195-.386.608-1.05.917-1.475.31-.424.563-.82.563-.878 0-.181.892-1.49 1.374-2.016l.457-.5.001 2.857c.001 3.21-.062 3.062 1.306 3.057 1.268-.004 1.205.264 1.156-4.925l-.044-4.656-1.1-.048-1.1-.049-.817.998c-.449.549-.966 1.284-1.148 1.632-.183.349-.374.671-.424.717-.051.046-.311.435-.579.864-.681 1.092-.749.93-.749-1.784 0-2.203-.027-2.415-.322-2.574-.381-.203-1.67-.225-1.972-.033m11.408.069c-.29.214-.652 4.511-.685 8.125l-.012 1.417.911.051c1.173.067 1.338-.144 1.34-1.708.001-1.57.184-3.427.337-3.427.163 0 .917 1.565 1.192 2.477.537 1.774 2.258 2.153 2.886.634.158-.382.541-1.226.852-1.876s.573-1.287.583-1.417c.035-.474.464 2.96.473 3.794.014 1.339.059 1.388 1.269 1.388 1.268 0 1.406-.157 1.224-1.388-.07-.474-.216-2.361-.325-4.194-.252-4.244-.203-4.114-1.533-4.051l-1.043.05-.751 1.5c-.413.825-.973 2.01-1.243 2.633-.718 1.657-.755 1.655-1.581-.098-1.674-3.554-1.88-3.923-2.236-4.018-.599-.161-1.36-.111-1.658.108m18.878.046c1.806.173 1.675-.186 1.675 4.571 0 4.99.085 4.675-1.262 4.675h-1.06l-.048-1.709-.047-1.708-.884.024c-1.1.029-1.26.172-2.201 1.965l-.748 1.426-.875.001c-.612 0-.875-.065-.875-.218 0-.333.778-1.875 1.332-2.64.525-.725.482-1.186-.129-1.38-.519-.164-.87-.988-.87-2.042 0-2.051 1.882-3.38 4.417-3.12.275.028.983.098 1.575.155m-85.194 1.653c.061 2.116.039 2.093 2.035 2.093 1.997 0 1.974.023 2.036-2.093l.048-1.657.478-.055c.263-.03.657-.01.875.045l.397.099v9.161h-1.834l-.002-1.709c-.004-2.242.092-2.146-2.094-2.089l-1.82.048-.048 1.883-.047 1.884-.869-.05-.87-.051-.044-4.396c-.05-4.925-.055-4.9 1.03-4.82l.681.05.048 1.657m14.961-1.329c2.881 1.439 2.687 7.172-.293 8.657-3.633 1.811-6.966-1.598-5.935-6.068.573-2.48 3.779-3.812 6.228-2.589m20.831-.098c3.116 1.415 2.843 7.826-.38 8.924-3.262 1.112-5.793-.843-5.793-4.474 0-3.738 2.993-5.895 6.173-4.45m10.676.124c1.027.698 1.734 2.246 1.734 3.798 0 .94.033.931-3.246.931-2.987 0-3.156.061-2.687.969.672 1.299 2.868 1.943 4.583 1.345.651-.227.657-.221.786.725l.105.762-.976.203c-2.18.452-4.654-.077-5.435-1.163-2.201-3.062-1.67-6.203 1.311-7.757.855-.446 3.049-.339 3.825.187m29.17-.31c.173.114.512 3.865.686 7.581l.068 1.458h-1.788l-.215-2.524c-.268-3.134-.444-3.643-.868-2.518-.095.252-.388.909-.651 1.459s-.57 1.25-.683 1.556c-.613 1.669-1.898 1.432-2.568-.476-.371-1.055-1.28-2.83-1.45-2.83-.317 0-.508 1.035-.592 3.208l-.088 2.292h-.792c-.775 0-1.15-.282-.904-.679.05-.082.167-1.499.26-3.149s.22-3.47.284-4.045l.115-1.044.684-.091c.909-.122 1.015-.07 1.343.646 1.339 2.922 2.402 5.028 2.537 5.028.159 0 .613-.88 2.019-3.916.938-2.028 1.665-2.574 2.603-1.956m-18.807 2.997c.025 1.49.075 2.709.111 2.709.36 0 .78-.505 1.923-2.309 1.863-2.94 2.016-3.095 3.068-3.102l.852-.006.084 4.25c.102 5.227.177 4.833-.919 4.833-1.114 0-1.081.098-1.081-3.263 0-1.669-.064-2.737-.163-2.737-.163 0-2.004 2.349-2.004 2.556 0 .061-.252.467-.559.902a21.528 21.528 0 00-1.042 1.673l-.482.881-.834-.048-.833-.047-.045-4.331c-.052-5.111-.121-4.784 1.001-4.719l.877.05.046 2.708m-45.166-1.35c-1.32.548-1.987 3.131-1.199 4.642 1.153 2.209 4.123 1.642 4.498-.858.405-2.696-1.276-4.623-3.299-3.784m9.904-.075c-.229.229-.267 1.771-.052 2.11.233.367 2.881.2 3.334-.21.645-.584.429-1.493-.44-1.856-.705-.295-2.563-.323-2.842-.044m10.975.083c-1.572.822-1.868 3.903-.521 5.424.723.816 2.275.819 3.089.004 2.268-2.268.11-6.828-2.568-5.428m10.908-.049c-1.048.463-1.769 2.006-1.024 2.191 1.06.264 3.856-.002 3.909-.372.18-1.262-1.602-2.385-2.885-1.819m38.313.002c-2.059.911-1.17 2.768 1.323 2.762 1.439-.004 1.471-.041 1.413-1.595l-.049-1.319-1.083-.039c-.643-.023-1.295.055-1.604.191m-67.934.652c1.257 1.144 1.187 3.842-.123 4.775-2.02 1.438-4.088-1.363-2.953-3.999.557-1.293 2.085-1.678 3.076-.776m10.355-.409c1.749.489-.176 2.191-2.071 1.831-.335-.064-.558-1.191-.345-1.745.094-.247 1.645-.302 2.416-.086m10.806.501c1.612 1.875.703 5.02-1.451 5.02-2.015 0-2.867-3.003-1.405-4.947.613-.814 2.184-.854 2.856-.073m10.437-.165c1.15.994.72 1.519-1.245 1.519h-1.649v-.478c0-1.219 1.899-1.902 2.894-1.041m38.773.685v1.167h-1.25c-1.028 0-1.309-.059-1.583-.333-.559-.559-.271-1.603.487-1.769.236-.052.504-.119.596-.149.092-.031.523-.062.958-.069l.792-.013v1.166m128.37-.79c-.152.183-.197.91-.163 2.646l.046 2.394 2.083.052c3.04.075 3.726-.039 4.417-.73 1.432-1.431.944-3.88-.858-4.305-1.162-.275-5.309-.318-5.525-.057m4.535.235c2.151.203 3.028 1.721 1.989 3.441-.604 1-1.018 1.114-4.028 1.114h-2.53v-2.236c0-1.633.057-2.259.209-2.32.308-.125 3.037-.124 4.36.001m-242.62.833c-.192.192-.121 1.813.089 2.022.288.289 17.645.289 17.933 0 .259-.259.259-1.674 0-1.933-.218-.218-17.807-.305-18.022-.089m17.805 1.056v.75h-17.5l-.053-.558c-.106-1.103-.733-1.033 8.84-.985l8.713.043v.75m29.161 1.215c-.053.21-.073.829-.045 1.375l.051.993 1.083.052c2.381.113 3.715-.931 2.773-2.17-.569-.75-3.686-.951-3.862-.25m3.505.284c1.013.841-.428 1.971-2.541 1.993l-.708.008v-2.38l1.499.086c.827.047 1.612.178 1.75.293" fill="#b097c0"/><path d="M334.51 46.444c-.192.244-.393.638-.447.875-.162.711-.726 2.858-1.625 6.181a692.302 692.302 0 00-1.269 4.75 421.26 421.26 0 01-1.253 4.667c-1.349 4.86-1.914 7.095-1.909 7.546.013 1.296 1.215 2.572 2.609 2.769 2.452.347 4.624.635 5.803.77.733.084 1.933.229 2.666.323l3.417.435c1.146.147 2.608.33 3.25.408 5.343.65 5.75.72 5.75.996 0 .183-.828.33-2.833.505-.963.084-2.838.272-4.167.417-1.329.146-3.204.335-4.167.421-.962.086-2.425.228-3.25.314-.825.087-2.662.276-4.083.421-4.019.408-4.772.532-5.56.913-1.378.667-2.732 2.364-3.111 3.897-.072.292-.282 1.094-.466 1.781l-1.448 5.417-.577 2.167c-.169.641-.46 1.729-.645 2.416-.186.688-.647 2.45-1.027 3.917a195.99 195.99 0 01-1.002 3.75c-1.51 5.218-1.787 6.645-1.385 7.141.799.987 1.77.679 5.481-1.742 1.094-.714 3.64-2.33 5.657-3.591 2.016-1.262 4.887-3.066 6.379-4.009a811.16 811.16 0 013.417-2.152c.912-.565 6.624-4.192 8.454-5.368.779-.5 3.104-1.979 5.166-3.285 7.093-4.493 12.419-7.879 13.595-8.644.648-.422 2.067-1.329 3.154-2.017 3.852-2.435 3.864-2.647.335-5.501a54.673 54.673 0 01-1.667-1.386c-.183-.169-1.383-1.161-2.667-2.203-1.934-1.571-8.81-7.221-10-8.216a571.921 571.921 0 00-2.898-2.361c-1.41-1.146-3.102-2.533-3.759-3.083s-1.52-1.262-1.917-1.583c-2.98-2.406-5.783-4.692-8.092-6.597-2.59-2.139-3.196-2.365-3.909-1.459m2.451.671c.435.349.872.71.972.802.099.091.49.417.867.723s.833.681 1.013.833c.625.528.95.793 3.106 2.525 1.191.958 2.204 1.785 2.25 1.839.045.053.383.318.75.588.366.271.762.582.879.692.117.111.567.486 1 .834s.883.723 1 .833.567.485 1 .833.87.708.972.8c.102.091.475.391.828.666s.87.695 1.148.932.656.552.839.699c.184.148 1.534 1.255 3 2.462l3 2.467c.184.151.859.711 1.5 1.245.642.534 1.317 1.09 1.5 1.235.184.145.561.458.84.695.278.238.796.657 1.151.932.356.275.962.762 1.348 1.083.385.321.88.727 1.098.902.43.346 2.282 1.911 2.58 2.182.102.091.566.466 1.032.833.848.666 1.16 1.273.962 1.871-.081.245-3.48 2.553-4.605 3.127-.177.09-.322.222-.322.292 0 .069-.08.127-.178.127s-.424.187-.724.416c-.301.229-.607.417-.682.417-.074 0-.381.187-.681.417-.301.229-.626.416-.724.416s-.178.063-.178.14-.169.226-.375.33-.648.36-.982.568a893.25 893.25 0 00-7.726 4.944c-.917.597-1.929 1.229-2.25 1.405s-.609.386-.639.467c-.031.08-.134.146-.23.146s-.54.263-.987.584c-.446.32-.861.583-.921.583s-.354.188-.655.417c-.3.229-.588.416-.64.416s-.46.263-.906.584c-.447.32-.871.583-.943.583s-.377.188-.677.417c-.301.229-.585.416-.631.416-.147 0-3.352 2.075-3.41 2.207-.031.07-.136.127-.234.127-.099 0-.425.187-.725.416-.301.229-.601.417-.667.417s-.366.188-.667.417c-.3.229-.626.416-.724.416s-.178.067-.178.148-.131.194-.291.251c-.161.058-.742.406-1.292.774s-1.131.714-1.292.768c-.16.054-.291.164-.291.245s-.065.148-.144.148-.712.375-1.407.833c-.696.458-1.303.833-1.351.833-.151 0-4.679 2.905-4.737 3.039a.24.24 0 01-.203.128c-.193 0-2.892 1.704-2.964 1.871-.03.071-.125.129-.21.129s-.81.428-1.611.952c-.801.523-1.624 1.043-1.829 1.155s-.541.322-.746.465c-1.288.902-2.284.056-1.873-1.59a186.64 186.64 0 011.652-6.315 35.52 35.52 0 00.435-1.667c.261-1.147.425-1.778.909-3.5.244-.871.508-1.846.586-2.167.078-.32.263-1.033.413-1.583.149-.55.334-1.263.411-1.583.077-.321.3-1.184.496-1.917l.536-2c.097-.367.272-1.004.387-1.417.115-.412.299-1.087.41-1.5 1.074-4.007 2.339-5.136 6.173-5.504.779-.074 2.542-.261 3.917-.415 1.375-.153 3.212-.345 4.083-.426 3.919-.364 5.243-.495 7.583-.752 1.375-.15 3.108-.321 3.85-.38 1.602-.126 2.118-.422 1.749-1.003-.145-.23-3.75-.834-5.055-.847-.342-.003-.942-.078-1.333-.166s-1.761-.279-3.044-.425c-1.283-.145-2.653-.336-3.044-.423s-1.008-.159-1.372-.159c-.646 0-1.236-.076-4.521-.585-.882-.136-1.947-.248-2.365-.248-.419 0-.808-.075-.865-.167-.056-.091-.214-.166-.351-.166-1.249 0-1.605-2.156-.812-4.917.158-.55.321-1.187.363-1.417.041-.229.138-.566.214-.75.076-.183.255-.783.398-1.333.379-1.459.712-2.7 1.03-3.833.155-.55.34-1.263.412-1.584.071-.321.331-1.295.575-2.166.245-.871.51-1.846.588-2.167s.343-1.296.588-2.167.482-1.77.527-2c.075-.389.173-.746.727-2.666.448-1.548 1.185-1.704 2.617-.552M259.89 57.841c-4.295 1.692-4.134 7.853.242 9.255 5.212 1.671 9.332-4.167 5.629-7.977-1.48-1.522-3.909-2.051-5.871-1.278m3.004.081c4.312.646 5.365 6.759 1.477 8.573-.249.116-.583.277-.742.358s-.929.147-1.71.147c-.782 0-1.552-.066-1.711-.147s-.494-.243-.745-.36c-3.07-1.434-3.106-6.635-.054-8.083.676-.321 2.256-.729 2.53-.655.103.029.533.103.955.167M193.669 72.59c-2.998.288-6.93 1.106-8.018 1.669-.699.362-.586 1.195.518 3.824.077.184.34.878.584 1.543.562 1.525.639 1.546 3.276.893 8.318-2.063 12.279-.643 12.105 4.338l-.049 1.391-2.25.212c-13.534 1.277-18.711 4.742-18.736 12.54-.025 7.974 5.152 11.681 16.32 11.687 3.075.001 4.032-.092 7.757-.756 3.218-.574 4.451-1.232 5.29-2.823l.453-.858.048-10.083c.056-11.573-.063-13.455-1.036-16.331-1.935-5.718-7.298-8.107-16.262-7.246m92.583-.069c-3.05.235-7.955 1.282-8.681 1.854-.401.315-.545 1.055-.27 1.383.073.087.232.459.353.825.121.367.316.892.434 1.167s.414 1.038.658 1.696c.634 1.713.587 1.695 2.89 1.139 8.709-2.104 12.806-.797 12.664 4.039l-.048 1.62-2.167.21c-10.703 1.034-15.556 3.036-17.795 7.34-3.04 5.846-.571 12.895 5.395 15.402 3.212 1.35 10.032 1.929 14.567 1.236l2.768-.422c.606-.093 1.543-.29 2.083-.439s1.132-.306 1.316-.35c1.32-.313 2.657-2.095 2.835-3.777.311-2.933-.015-21.479-.407-23.194-1.468-6.421-4.7-9.133-11.606-9.739-2.198-.193-2.362-.192-4.989.01m-85.127.499c5.773 1.361 8.118 3.873 9.242 9.897.121.649.208 4.844.247 11.961l.062 10.961-.423.894c-.808 1.708-1.665 2.187-5.084 2.845-.78.15-1.792.346-2.25.437-2.238.443-8.491.43-11.167-.023-6.858-1.161-10.417-4.888-10.417-10.909 0-7.546 5.742-11.375 18.352-12.236 2.872-.196 2.815-.153 2.815-2.113 0-4.067-1.589-5.319-6.75-5.316-1.375 0-2.838.088-3.25.195-.412.106-1.2.281-1.75.389s-1.316.307-1.703.442c-1.294.453-1.528.319-2.084-1.194-.269-.733-.549-1.483-.623-1.667-.073-.183-.264-.671-.423-1.083-.16-.413-.368-.916-.462-1.119-.276-.592.911-1.381 2.077-1.381.168 0 .436-.068.595-.152.159-.083 1.04-.282 1.956-.443.917-.16 1.929-.346 2.25-.414.952-.202 7.906-.179 8.79.029m92.408.065c1.108.229 1.553.359 2.552.744 2.927 1.126 5.093 3.602 5.98 6.838.558 2.035.599 2.252.768 4.07.244 2.625.223 20.232-.025 21.231-.265 1.066-.846 1.943-1.63 2.462-.807.534-.981.58-6.093 1.582-1.372.27-5.424.415-7.958.285-7.286-.372-11.733-2.903-13.154-7.487-.625-2.018-.66-2.259-.594-4.06.188-5.046 3.216-8.722 8.373-10.164.55-.154 1.188-.339 1.417-.412 1.644-.524 7.009-1.341 8.833-1.346 2.796-.007 3.176-.505 2.603-3.411-.375-1.906-1.35-3.245-2.551-3.508a7.835 7.835 0 01-.969-.298c-.661-.257-5.591-.257-6.583 0-.413.108-1.2.284-1.75.394-.55.109-1.345.313-1.767.454-.841.281-1.65.179-1.65-.207 0-.132-.123-.524-.273-.871-.3-.693-.423-1.008-.735-1.881a27.142 27.142 0 00-.417-1.083c-.754-1.809-.803-1.751 2.175-2.577.494-.136 2.548-.543 4.167-.824 1.494-.26 7.92-.212 9.281.069m-77.809.518c-.321.49-.331.449.863 3.647.308.825.832 2.287 1.165 3.25.333.962.855 2.425 1.161 3.25.627 1.694 1.238 3.39 2.686 7.458.236.665.493 1.359.57 1.542.175.417.792 2.14 1.583 4.417.334.962.984 2.762 1.445 4a440.004 440.004 0 011.258 3.416c1.44 3.999 3.265 5.314 7.38 5.321 4.17.007 5.648-1.201 7.329-5.987l1.259-3.584c.305-.871.828-2.333 1.161-3.25.333-.916.893-2.491 1.244-3.5.351-1.008.918-2.621 1.261-3.583l1.007-2.833c.21-.596.657-1.834.992-2.75.335-.917.786-2.192 1.002-2.834.216-.641.665-1.916.997-2.833 2.229-6.149 2.587-5.583-3.531-5.583-5.355 0-4.84-.236-5.635 2.583-.155.55-.425 1.487-.599 2.083s-.693 2.396-1.153 4c-.46 1.605-.979 3.404-1.153 4-.175.596-.444 1.534-.599 2.084-.156.55-.344 1.187-.419 1.416-.075.23-.253.829-.396 1.334a1117.48 1117.48 0 01-2.463 8.55c-.353 1.139-.359 1.13-1.306-2.05-.177-.596-.622-2.059-.987-3.25a119.45 119.45 0 01-.909-3.084c-.135-.504-.443-1.554-.685-2.333s-.542-1.792-.666-2.25-.333-1.171-.465-1.583c-.132-.413-.443-1.425-.691-2.25s-.586-1.95-.753-2.5c-.166-.55-.434-1.45-.595-2s-.47-1.561-.686-2.246c-.217-.685-.394-1.331-.394-1.436 0-.104-.155-.388-.345-.629l-.346-.439h-9.301l-.286.436m42.088-.118l-.393.319v17.861c0 17.489.006 17.867.323 18.098.498.365 7.866.344 8.39-.022l.37-.26-.003-17.782c-.001-9.78-.057-17.865-.125-17.966-.327-.491-.929-.566-4.509-.566-3.355 0-3.692.026-4.053.318m-32.855.024c.528.184.463.041 1.46 3.241.115.367.338 1.117.496 1.667.353 1.222.518 1.778.817 2.75.127.412.399 1.312.604 2 .204.687.552 1.85.772 2.583.219.733.482 1.633.584 2 .367 1.327.689 2.339.832 2.623.081.159.147.407.147.552 0 .319.464 1.88.678 2.281.085.159.155.442.155.627 0 .186.066.468.146.628.08.159.277.739.436 1.289.16.55.349 1.188.421 1.417.071.229.254.866.406 1.416.626 2.258.975 2.515 1.416 1.044.118-.391.273-.898.346-1.127.17-.54.616-2.067.85-2.917.102-.366.245-.854.318-1.083.074-.229.258-.867.41-1.417s.46-1.637.685-2.416c.226-.779.492-1.717.593-2.084.101-.366.278-.966.394-1.333s.303-1.004.414-1.417c.112-.412.264-.937.338-1.166.073-.229.26-.867.414-1.417s.34-1.187.413-1.417c.073-.229.336-1.166.585-2.083s.511-1.817.582-2 .259-.821.416-1.417c.158-.596.348-1.233.422-1.416.075-.184.177-.527.228-.763.159-.742.631-.821 4.942-.821 5.238 0 5.089-.13 3.809 3.334-.288.779-.562 1.586-.607 1.794-.046.207-.15.418-.23.468-.081.05-.147.259-.147.464 0 .206-.06.445-.133.532s-.267.571-.431 1.075-.36 1.067-.437 1.25a53.88 53.88 0 00-.569 1.542c-.236.664-.612 1.714-.835 2.333s-.518 1.462-.656 1.875c-.137.412-.559 1.612-.938 2.667-.378 1.054-.913 2.591-1.188 3.416s-.564 1.65-.643 1.834c-.139.324-.891 2.413-1.17 3.25-.263.79-1.027 2.917-1.167 3.25-.077.183-.265.708-.418 1.166-.153.459-.346.964-.43 1.123a1.531 1.531 0 00-.153.583c-.005.939-1.891 3.2-3.102 3.719-4.08 1.749-8.864.055-10.14-3.591a34.943 34.943 0 00-.428-1.167 66.37 66.37 0 01-.579-1.583c-.244-.688-.506-1.4-.583-1.584a50.69 50.69 0 01-.57-1.541 899 899 0 00-.833-2.334c-.222-.618-.568-1.612-.769-2.208s-.465-1.308-.586-1.583-.334-.838-.473-1.25c-.251-.741-.583-1.683-1.367-3.875l-.832-2.334a50.69 50.69 0 00-.57-1.541 51.075 51.075 0 01-.57-1.542l-.86-2.417a102.53 102.53 0 00-.56-1.541 19.578 19.578 0 01-.339-1 14.54 14.54 0 00-.426-1.167c-.924-2.127-1.015-2.983-.347-3.253.518-.21 7.952-.199 8.557.012m41.049.324c.251.399.215 35.382-.037 35.634-.259.258-7.499.283-7.978.027-.335-.179-.526-35.089-.195-35.6.303-.468 7.917-.524 8.21-.061m-66.504 18.34c-1.457.122-3.329.413-5.143.8-5.667 1.211-6.835 7.881-1.814 10.353 2.066 1.017 7.368 1.221 9.501.365l.46-.184-.043-5.712-.044-5.712-.667-.021c-.367-.011-1.379.038-2.25.111m92.083.006c-1.488.118-3.186.38-5.166.799-5.887 1.244-6.778 8.554-1.289 10.575 2.88 1.06 8.983.85 9.519-.327.247-.541.259-10.446.014-10.904-.191-.357-.302-.362-3.078-.143m-89.416 5.551c0 6.13.132 5.635-1.584 5.935-5.495.961-10.058-.741-10.752-4.01-.946-4.455 3.178-7.081 11.461-7.299l.875-.023v5.397m92.166.092c0 5.087-.021 5.495-.291 5.566-2.303.611-6.759.593-8.542-.035-5.802-2.041-4.732-9.03 1.562-10.206 1.493-.279 5.488-.775 6.396-.795l.875-.019v5.489" fill="#fc888c"/></g></svg>