<svg xmlns="http://www.w3.org/2000/svg" data-name="Layer 1" width="188.1" height="68.5"><defs><clipPath id="a"><path fill="none" d="M298.4 40.3h188.2v68.5H298.4z"/></clipPath></defs><path d="M316.8 97.2a25 25 0 01-.5-2.9 12.2 12.2 0 01-9 3.9c-5.6 0-8.9-3.3-8.9-8.4 0-4.8 2.5-7.7 7.5-8.8 6.6-1.6 10.1-1.1 10.1-3.3V77c0-1.7-1.3-2.5-3.7-2.5-2.7 0-4.2 1.1-4.6 3.2h-8.6c.9-6.5 5.3-9.5 13.4-9.5 5 0 8.5 1.2 10.4 3.7 1.8 2.3 1.9 5.2 1.9 9.1v10.8c0 2.5.4 4 1.4 4.5v1.1h-9.4zm-6.5-11.7c-2.1.6-3.1 1.4-3.1 3.2a3.2 3.2 0 003.4 3.4c3.2 0 5.4-2 5.4-5v-3.3c-1.5 1-3.6 1.1-5.7 1.7" clip-path="url(#a)" fill="#153152" transform="translate(-298.4 -40.3)"/><g clip-path="url(#a)" transform="translate(-298.4 -40.3)"><path d="M354.9 97.2h-9.1v-3.9a9.76 9.76 0 01-8.6 4.6c-6.3 0-9.5-3.2-9.5-9.6V68.7h9.3v15.9c0 4.2.8 6.2 3.9 6.2 3.4 0 4.7-2.2 4.7-6.9V68.7h9.3z" fill="#153152"/></g><g clip-path="url(#a)" transform="translate(-298.4 -40.3)"><path d="M357.3 68.7h8.9v5c2-3.9 4.8-5.6 9.4-5.7v9.2a19.53 19.53 0 00-2.3-.2c-2.8 0-4.7.8-5.8 2.6-.9 1.4-1 4-1 7.9V97h-9.3V68.7z" fill="#153152"/></g><g clip-path="url(#a)" transform="translate(-298.4 -40.3)"><path fill="#153152" d="M377.5 68.7h9.3v28.4h-9.3z"/></g><g clip-path="url(#a)" transform="translate(-298.4 -40.3)"><path d="M399.7 99.8c.5 1.7 1.9 2.3 4.3 2.3 4.3 0 5.5-1.9 5.5-6.2v-3a9.74 9.74 0 01-8.8 4.6c-6.8 0-11.9-5.7-11.9-14.6 0-8.9 5-14.9 12-14.9a10.19 10.19 0 019 4.6v-3.8h8.7v23.5c0 4.9-.1 8.5-1.7 11.1-2.2 3.4-6.5 5.4-12.5 5.4-8.6 0-13-2.8-13.9-9h9.3zm4-9.7c3.5 0 5.6-2.6 5.6-7.3 0-5-1.9-7.6-5.4-7.6-3.5 0-5.5 2.6-5.5 7.6 0 4.6 2.1 7.3 5.3 7.3" fill="#153152"/></g><g clip-path="url(#a)" transform="translate(-298.4 -40.3)"><path d="M421.1 68.7h9.1v3.9a9.31 9.31 0 018.6-4.6c6.9 0 9.5 3.4 9.5 10.7v18.5H439V82.9c0-5.2-.2-7.8-3.9-7.8-3.4 0-4.7 2.2-4.7 6.9v15.2h-9.3z" fill="#153152"/></g><g clip-path="url(#a)" transform="translate(-298.4 -40.3)"><path d="M462.4 108c-1.8.8-4.3.8-7.4.8h-2.5v-7.4h1.8c3.1 0 4.5-.5 4.5-2.9a15 15 0 00-1.4-4.6l-9.6-25.2h10l5.4 19.4 5.5-19.4h9.9l-11.4 31.6c-1.5 4.1-2.6 6.7-4.8 7.7" fill="#153152"/></g><g clip-path="url(#a)" transform="translate(-298.4 -40.3)"><path d="M387.3 61.4a5.1 5.1 0 11-5.1-5.1 5 5 0 015.1 5.1" fill="#ad1923"/></g><g clip-path="url(#a)" transform="translate(-298.4 -40.3)"><path d="M414.3 40.3a5.26 5.26 0 013.4 1.1l-.7 1a4.14 4.14 0 00-2.6-.9 3.38 3.38 0 00-3.5 3.6 3.47 3.47 0 003.5 3.7 4 4 0 002.7-1.2v-1.4h-2.5v-1.1h3.7v4.7h-1.2v-1a4.06 4.06 0 01-2.9 1.1 4.8 4.8 0 01.1-9.6" fill="#153152"/></g><g clip-path="url(#a)" transform="translate(-298.4 -40.3)"><path d="M419.7 40.5h1.3v6.1a2.4 2.4 0 004.8 0v-6h1.3v6.1a3.71 3.71 0 01-7.4 0z" fill="#153152"/></g><g clip-path="url(#a)" transform="translate(-298.4 -40.3)"><path fill="#153152" d="M430.5 45.7v3h4.4v1.1h-5.7v-9.3h5.5v1.1h-4.2v2.9h3.4v1.2z"/></g><g clip-path="url(#a)" transform="translate(-298.4 -40.3)"><path d="M437.1 40.5h2.9a6.25 6.25 0 011.8.2 2.72 2.72 0 01-.1 5 3 3 0 01.3.4l2 3.6h-1.5l-2-3.7h-2v3.7h-1.4zm3.2 4.5a1.63 1.63 0 001.7-1.7 1.49 1.49 0 00-.7-1.4 3.47 3.47 0 00-1.3-.2h-1.5V45z" fill="#153152"/></g><g clip-path="url(#a)" transform="translate(-298.4 -40.3)"><path d="M445.6 40.5h1.3l4.2 6.1c.3.5.8 1.4.8 1.4a13.8 13.8 0 01-.1-1.4v-6.1h1.3v9.4h-1.3l-4.2-6.1c-.3-.5-.8-1.4-.8-1.4a13.8 13.8 0 01.1 1.4v6.1h-1.3z" fill="#153152"/></g><g clip-path="url(#a)" transform="translate(-298.4 -40.3)"><path d="M455.7 47.8a3.74 3.74 0 002.4 1 1.42 1.42 0 001.6-1.4c0-2-4.5-1.6-4.5-4.5a2.75 2.75 0 013-2.6 4.26 4.26 0 012.7.9l-.6 1.1a3.49 3.49 0 00-2.1-.8 1.52 1.52 0 00-1.7 1.4c0 1.9 4.5 1.4 4.5 4.5a2.7 2.7 0 01-3 2.6 4.39 4.39 0 01-3.1-1.2z" fill="#153152"/></g><g clip-path="url(#a)" transform="translate(-298.4 -40.3)"><path fill="#153152" d="M464.2 45.7v3h4.4v1.1h-5.7v-9.3h5.4v1.1h-4.1v2.9h3.4v1.2z"/></g><g clip-path="url(#a)" transform="translate(-298.4 -40.3)"><path d="M472.5 45.9l-3.1-5.4h1.5l1.7 3.1a12 12 0 01.6 1.2l.6-1.2 1.7-3.1h1.5l-3.1 5.4v4h-1.3v-4z" fill="#153152"/></g><g clip-path="url(#a)" transform="translate(-298.4 -40.3)"><path fill="#153152" d="M477.9 42.9l.6-2.6h1.3l-.9 2.6z"/></g><g clip-path="url(#a)" transform="translate(-298.4 -40.3)"><path d="M481.2 47.8a3.74 3.74 0 002.4 1 1.42 1.42 0 001.6-1.4c0-2-4.5-1.6-4.5-4.5a2.75 2.75 0 013-2.6 4.26 4.26 0 012.7.9l-.6 1.1a3.49 3.49 0 00-2.1-.8 1.52 1.52 0 00-1.7 1.4c0 1.9 4.5 1.4 4.5 4.5a2.7 2.7 0 01-3 2.6 4.39 4.39 0 01-3.1-1.2z" fill="#153152"/></g><g clip-path="url(#a)" transform="translate(-298.4 -40.3)"><path d="M439 60.2h-3.5l-.9 2.7h-1.4l3.4-9.4h1.4l3.4 9.4H440zm-1.7-5.4a7.91 7.91 0 01-.4 1.3l-1 3h2.8l-1-3a12.76 12.76 0 01-.4-1.3z" fill="#153152"/></g><g clip-path="url(#a)" transform="translate(-298.4 -40.3)"><path fill="#153152" d="M442.7 53.5h1.3v9.4h-1.3z"/></g><g clip-path="url(#a)" transform="translate(-298.4 -40.3)"><path d="M446.6 53.5h2.9a6.25 6.25 0 011.8.2 2.72 2.72 0 01-.1 5 3 3 0 01.3.4l2 3.6H452l-2-3.7h-2v3.7h-1.3v-9.2zm3.2 4.5a1.63 1.63 0 001.7-1.7 1.49 1.49 0 00-.7-1.4 3.47 3.47 0 00-1.3-.2H448V58z" fill="#153152"/></g><g clip-path="url(#a)" transform="translate(-298.4 -40.3)"><path fill="#153152" d="M456.4 53.5v8.2h4.2v1.2h-5.5v-9.4z"/></g><g clip-path="url(#a)" transform="translate(-298.4 -40.3)"><path fill="#153152" d="M462.1 53.5h1.3v9.4h-1.3z"/></g><g clip-path="url(#a)" transform="translate(-298.4 -40.3)"><path d="M466 53.5h1.3l4.2 6.1c.3.5.8 1.4.8 1.4a13.8 13.8 0 01-.1-1.4v-6.1h1.3v9.4h-1.3l-4.2-6.1c-.3-.5-.8-1.4-.8-1.4a13.8 13.8 0 01.1 1.4v6.1H466z" fill="#153152"/></g><g clip-path="url(#a)" transform="translate(-298.4 -40.3)"><path fill="#153152" d="M477.3 58.7v3h4.4l-.5 1.2H476v-9.4h5.5v1.1h-4.2v3h3.4v1.1z"/></g></svg>