<svg xmlns="http://www.w3.org/2000/svg" width="248.569" height="61.233" overflow="visible"><path fill="#F10" d="M99.479 16.1c0-.411-.151-.822-.368-1.153-.284-.37-.762-.559-1.311-.559h-4.354a2.35 2.35 0 00-1.525.559c-.546.331-.87.835-.983 1.374l-6.485 34.238c-2.726 1.264-5.014 2.026-6.798 2.397-1.849.412-3.593.607-5.292.607-3.157 0-5.273-.541-6.203-1.521-1.03-.983-1.57-2.376-1.57-4.313 0-.587.041-1.306.104-2.074.107-.783.221-1.541.33-2.328l5.12-26.877v-.35c0-1.043-.766-1.712-1.856-1.712h-4.2c-.588 0-1.139.189-1.57.559-.434.331-.764.835-.939 1.374L56.46 43.216c-.26 1.529-.474 2.981-.474 4.468 0 1.789.323 3.484.805 5.033a10.698 10.698 0 002.398 4.157c1.15 1.199 2.563 2.135 4.309 2.788 1.675.673 3.744 1.018 6.142 1.018 3.044 0 5.655-.363 7.901-1.19a47.995 47.995 0 005.782-2.418l-.121.894-.057.412c0 .416.177.783.383 1.175.328.374.809.571 1.355.571h4.357c.543 0 1.091-.221 1.481-.634.478-.37.764-.872.917-1.33l7.84-41.71v-.35zM44.548 7.285c-.613-.871-1.312-1.616-2.138-2.139-.805-.542-1.742-.89-2.719-1.086a15.75 15.75 0 00-2.655-.221c-.829 0-1.743.093-2.79.286-.976.221-2.005.547-2.937 1.021-1.021.523-1.894 1.201-2.771 2.049-.87.87-1.635 1.962-2.283 3.29L.226 57.637c-.106.328-.213.719-.213 1.156-.068.479.151 1.087.585 1.411.433.379.936.476 1.489.476h5.327c.545 0 1.091-.211 1.572-.476.434-.324.823-.715 1.044-1.261l8.926-18.227h21.562l2.18 18.01c0 .502.218.936.479 1.263.322.479.938.69 1.48.69h5.34c.656 0 1.304-.152 1.74-.646.438-.434.545-1.09.545-1.742v-.348l-6.646-47.26c-.171-1.332-.546-2.484-1.088-3.398M22.66 33.024l11.221-20.187c.431-.822 1.522-.96 2.177-.941 1.343.093 1.521.941 1.521.941l2.331 20.187H22.66zm127.126-11.215h9.994c.569 0 1.158-.216 1.528-.586.437-.323.72-.828.872-1.374l.574-2.764v-.41c0-1.069-.791-1.729-1.816-1.729h-9.777l1.459-8.426v-.325c0-.872-.586-1.591-1.459-1.591h-.279l-4.73.719c-1.264.132-2.133.872-2.285 1.962l-1.302 7.263c-4.642-.055-14.253-.094-16.45-.141-1.199-.021-3.878-.021-5.553-.021-2.18 0-4.423.189-6.643.559-2.246.395-4.249 1.092-5.948 2.074-1.741 1.041-3.157 2.351-4.292 4.027-1.15 1.699-1.695 3.793-1.695 6.316 0 3.789 2.568 7.189 7.512 10.236l8.059 4.79c2.072 1.177 3.44 2.253 4.029 3.05.611.758.937 1.592.937 2.399 0 1.259-.285 2.286-.761 3.134-.502.849-1.198 1.436-2.071 1.963-.873.457-1.852.868-3.053 1.088a20.183 20.183 0 01-3.654.348c-.758 0-1.679 0-2.877-.045-1.091-.086-2.35-.107-3.589-.217-1.271-.086-2.508-.197-3.705-.281a244.499 244.499 0 01-3.482-.331h-.549c-1.048-.04-1.853.548-2.066 1.528l-.502 2.895v.329c-.049.478.176.999.61 1.24.324.216.701.413 1.131.544 1.045.217 2.181.397 3.373.55 1.204.181 2.461.306 3.705.376 1.2.122 2.459.122 3.662.232 1.131.021 2.174.041 3.093.041 2.459 0 4.851-.218 7.143-.677 2.395-.459 4.466-1.284 6.205-2.307 1.852-1.155 3.268-2.573 4.361-4.356 1.086-1.851 1.63-4.096 1.63-6.751 0-1.919-.618-3.681-1.698-5.315-1.135-1.66-3.268-3.396-6.252-5.249l-7.95-4.796c-1.522-.932-2.718-1.828-3.55-2.592-.764-.759-1.089-1.541-1.089-2.479 0-1.136.282-2.006.76-2.658.55-.719 1.264-1.2 2.141-1.634a9.046 9.046 0 012.87-.847c1.048-.197 2.074-.241 3.048-.241 2.215 0 17.191.121 21.888.227l-.035.21-5.336 28.029c-.115.653-.174 1.262-.221 1.723-.072.455-.109 1-.109 1.541 0 2.92 1.086 5.119 3.199 6.385 2.14 1.182 4.639 1.787 7.691 1.787.807 0 1.743-.021 2.766-.115a19.555 19.555 0 002.832-.326c.713-.111 1.172-.235 1.521-.587.311-.278.479-.604.656-1.085l.52-2.921v-.413c.071-.457-.157-.912-.588-1.088-.277-.109-.652-.131-1.019-.131h-5.384c-1.371 0-2.354-.131-2.941-.414-.434-.129-.719-.655-.719-1.785 0-.546.111-1.309.285-2.287l5.375-28.27zm79.116-3.943c-.062-.87-.886-1.395-1.974-1.611-2.241-.566-4.713-1.002-7.461-1.354a67.068 67.068 0 00-8.063-.514 31.28 31.28 0 00-7.783.954c-2.499.591-4.788 1.679-6.856 3.158-2.063 1.455-3.809 3.42-5.322 5.815-1.546 2.46-2.628 5.429-3.353 8.995l-1.556 8.08c-.343 1.72-.549 3.406-.549 5.01 0 2.527.336 4.77 1.16 6.623.73 1.871 1.743 3.418 2.982 4.615 1.314 1.264 2.828 2.137 4.51 2.715 1.736.607 3.597.881 5.505.881 1.515 0 2.833-.041 4.032-.273a17.583 17.583 0 003.488-.926c1.079-.371 2.167-.914 3.294-1.525a33.772 33.772 0 002.799-1.678l-.262 1.568v.545c0 .502.081.87.37 1.18.292.433.76.557 1.303.557h3.601c.551 0 1.087-.211 1.525-.583.424-.392.764-.849.865-1.37l7.587-40.119c.042-.11.158-.44.158-.743m-14.674 31.931c-2.382 1.482-4.501 2.611-6.471 3.379a15.006 15.006 0 01-5.936 1.195c-2.052 0-3.75-.567-5.158-1.787-1.373-1.09-2.116-3.16-2.116-6.266 0-.586.054-1.221.091-1.852.064-.655.16-1.251.27-1.857l1.602-8.408c.813-4.269 2.377-7.491 4.728-9.693 2.272-2.154 5.651-3.287 10.168-3.287 1.875 0 3.481.109 4.749.26 1.201.11 2.289.305 3.314.502l-5.241 27.814zM247.995.532c-.381-.392-.914-.546-1.45-.527h-4.588c-1.365-.082-2.612.874-2.758 2.208L228.61 58.137v.438c0 .545.135 1.088.495 1.549.441.404.992.557 1.532.557h4.575c.657 0 1.304-.249 1.807-.69.487-.438.797-.96.909-1.525l10.634-56.039v-.366a1.887 1.887 0 00-.567-1.529m-60.654 20.95c1.31.065 2.34-.583 2.492-1.676l.611-3.486v-.411c0-1.008-.813-1.522-1.964-1.522h-.159c-2.13 0-4.188.235-6.365.736-1.928.435-3.915 1.415-6.096 2.833l.17-.873v-.41c0-1.008-.72-1.729-1.701-1.729h-4.185c-.56 0-1.089.202-1.521.612-.426.351-.713.812-.928 1.354l-7.781 41.685v.348c0 1.046.701 1.736 1.678 1.736h4.357c.545 0 1.094-.211 1.52-.557.498-.418.822-.852.939-1.396l6.396-34.022c2.142-1.194 4.044-2.026 5.83-2.505 1.79-.497 3.943-.718 6.445-.718h.262z"/></svg>