<svg xmlns="http://www.w3.org/2000/svg" xmlns:xlink="http://www.w3.org/1999/xlink" width="250" height="125"><defs><radialGradient r="33.629" fy="94.83" fx="25.756" cy="94.83" cx="25.756" gradientTransform="matrix(.66834 .97864 -.79725 .62341 82.907 13.638)" gradientUnits="userSpaceOnUse" id="g" xlink:href="#a"/><radialGradient r="33.629" fy="85.191" fx="34.182" cy="85.191" cx="34.182" gradientTransform="matrix(.5182 1.42585 -1.13395 .47185 108.476 -2.728)" gradientUnits="userSpaceOnUse" id="f" xlink:href="#b"/><radialGradient r="33.629" fy="85.191" fx="34.182" cy="85.191" cx="34.182" gradientTransform="matrix(.57561 1.58627 -1.3612 .56554 125.874 -16.193)" gradientUnits="userSpaceOnUse" id="e" xlink:href="#b"/><radialGradient r="33.629" fy="85.191" fx="34.182" cy="85.191" cx="34.182" gradientTransform="matrix(.57561 1.58627 -1.3612 .56554 125.874 -16.193)" gradientUnits="userSpaceOnUse" id="d" xlink:href="#b"/><radialGradient r="33.629" fy="85.191" fx="34.182" cy="85.191" cx="34.182" gradientTransform="matrix(.57561 1.58627 -1.3612 .56554 125.874 -16.193)" gradientUnits="userSpaceOnUse" id="c" xlink:href="#b"/><linearGradient id="b"><stop offset="0" stop-color="#d66d02"/><stop offset="1" stop-color="#d66d02" stop-opacity="0"/></linearGradient><linearGradient id="a"><stop offset="0" stop-color="#f7b94a"/><stop offset="1" stop-color="#f7b94a" stop-opacity="0"/></linearGradient></defs><path d="M86.046 78.426c0 22.954-18.844 41.561-42.09 41.561-23.245 0-42.09-18.607-42.09-41.56 0-22.954 18.845-41.561 42.09-41.561 23.246 0 42.09 18.607 42.09 41.56z" fill="#ef9827"/><path d="M86.046 78.426c0 22.954-18.844 41.561-42.09 41.561-23.245 0-42.09-18.607-42.09-41.56 0-22.954 18.845-41.561 42.09-41.561 23.246 0 42.09 18.607 42.09 41.56z"/><path transform="matrix(1.25157 0 0 1.16964 -11.898 -23.992)" d="M78.257 87.563c0 19.625-15.056 35.533-33.63 35.533-18.572 0-33.629-15.908-33.629-35.533 0-19.624 15.057-35.533 33.63-35.533s33.63 15.91 33.63 35.533z" fill="url(#c)"/><path d="M78.257 87.563c0 19.625-15.056 35.533-33.63 35.533-18.572 0-33.629-15.908-33.629-35.533 0-19.624 15.057-35.533 33.63-35.533s33.63 15.91 33.63 35.533z" transform="matrix(1.25157 0 0 1.16964 -11.898 -23.992)" fill="url(#d)"/><path transform="matrix(1.25157 0 0 1.16964 -11.898 -23.992)" d="M78.257 87.563c0 19.625-15.056 35.533-33.63 35.533-18.572 0-33.629-15.908-33.629-35.533 0-19.624 15.057-35.533 33.63-35.533s33.63 15.91 33.63 35.533z" fill="url(#e)"/><path d="M78.257 87.563c0 19.625-15.056 35.533-33.63 35.533-18.572 0-33.629-15.908-33.629-35.533 0-19.624 15.057-35.533 33.63-35.533s33.63 15.91 33.63 35.533z" transform="matrix(1.25157 0 0 1.16964 -11.898 -23.992)" fill="url(#f)"/><path transform="matrix(1.25157 0 0 1.16964 -11.898 -23.992)" d="M78.257 87.563c0 19.625-15.056 35.533-33.63 35.533-18.572 0-33.629-15.908-33.629-35.533 0-19.624 15.057-35.533 33.63-35.533s33.63 15.91 33.63 35.533z" fill="url(#g)"/><path d="M137.785 30.831l-5.82-4.153-5.964 3.946 2.151-6.82-5.595-4.451 7.15-.061 2.505-6.698 2.267 6.782 7.144.312-5.749 4.253zm-62.049 4.573l-2.914-2.08-2.985 1.976 1.077-3.414-2.801-2.228 3.58-.03 1.253-3.353 1.135 3.394 3.576.157-2.878 2.129zm107.533-8.074l-2.915-2.08-2.987 1.976 1.078-3.415-2.803-2.23 3.581-.03 1.255-3.355 1.135 3.397 3.578.156-2.879 2.13zm53.753-2.438l-7.123-5.083-7.297 4.83 2.633-8.346-6.848-5.448 8.75-.075 3.065-8.196 2.776 8.3 8.742.382-7.035 5.204z" fill="#b3b3b3"/><path d="M103.378 86.06V46.984H90.291v-5.232h31.481v5.232h-13.14V86.06h-5.254" fill-rule="evenodd" stroke="#000"/><path d="M130.184 86.051v-45.07h5.237v45.07h-5.237" fill-rule="evenodd" stroke="#000" stroke-width="1.017"/><path d="M156.074 86.06V46.984h-13.088v-5.232h31.482v5.232h-13.14V86.06h-5.254m30.992-43.448c-4.988 14.508-10.263 28.937-15.25 43.437h5.562c1.405-4.32 2.906-8.617 4.313-12.937l.062-.219 1.5-4.688c.007-.021.024-.04.031-.062 1.422-4.23 2.923-8.456 4.344-12.688.895-2.76 1.645-5.49 2.156-8.28.608 2.347 1.566 5.345 2.813 9 1.35 4.002 2.774 7.99 4.125 12v.03l1.625 4.688.031.063c1.517 4.37 3.088 8.722 4.594 13.093h6c-5.318-14.508-10.943-28.93-16.25-43.437h-5.656zm27.746 43.448V42.598h5.392c6.832 11.414 14.025 22.71 20.857 34.124V42.598h5.04V86.06h-5.392c-6.831-11.422-14.025-22.726-20.856-34.155V86.06h-5.041" fill-rule="evenodd" stroke="#000"/><path stroke="#000" d="M179.282 70.013h21.39v5.834h-21.39z"/><g fill="#ababab" stroke="#ababab" stroke-width=".5"><path d="M153.783 91.704l6.703 28.136h2.094l6.594-25.625 6.562 25.625h2.063l6.652-28.129h-1.66l-6.117 25.88-6.653-25.895-1.8.004-6.61 25.89-6.148-25.879zm53.954.039l8.407 16.813v11.312l1.437.008v-11.32l8.375-16.812h-1.625l-7.469 15.187-7.531-15.187z" style="line-height:125%;-inkscape-font-specification:District Pro Thin" font-size="40" font-weight="400" letter-spacing="0" word-spacing="0" font-family="District Pro Thin"/><path d="M120.382 119.88V91.715h-1.618v28.165zm68.96-8.792h15.227v1.438h-15.227z"/><path d="M198.067 91.685l10.038 28.138-1.73-.018-9.943-28.107z"/><path d="M196.219 91.716l-10.037 28.138 1.729-.018 9.944-28.107z"/><path d="M239.101 91.411c-2.4-.002-4.373.551-5.969 1.656s-2.439 2.79-2.5 5.032c-.035 1.587.522 2.99 1.657 4.187s3.056 2.256 5.78 3.219c3.132 1.116 5.317 2.236 6.563 3.312 1.246 1.077 1.862 2.205 1.813 3.438-.018 1.895-.654 3.384-1.906 4.469-1.253 1.084-3.036 1.635-5.313 1.656-1.81-.005-3.335-.451-4.625-1.344-1.283-.888-2.288-2.166-2.937-3.875l-1.438.875c.932 2.005 2.163 3.497 3.688 4.438 1.54.95 3.294 1.417 5.25 1.406 2.599-.013 4.722-.656 6.406-1.938 1.684-1.281 2.566-3.137 2.625-5.53.064-1.616-.554-3.063-1.875-4.376-1.321-1.312-3.743-2.635-7.219-3.937-2.502-.911-4.242-1.797-5.25-2.688-1.007-.891-1.506-2.05-1.469-3.469.053-1.695.712-2.949 1.969-3.78 1.258-.833 2.824-1.253 4.656-1.25 1.717.006 3.192.353 4.469 1.062 1.277.709 2.373 1.729 3.25 3.062l1.313-1c-1.01-1.507-2.268-2.657-3.782-3.437-1.514-.78-3.247-1.184-5.156-1.188zm-109.507.328v15.813h1.461l.024-.305 7.36-.008.304-.012 1.226.024.344-.012c2.235-.058 3.991-.813 5.281-2.281 1.29-1.468 1.943-3.29 1.97-5.469-.027-2.178-.67-4-1.907-5.469-1.238-1.468-2.922-2.223-5.063-2.28zm1.493 1.5h9.414c1.684.048 2.979.662 3.937 1.844.959 1.183 1.45 2.659 1.469 4.406-.018 1.748-.51 3.224-1.469 4.407-.958 1.182-2.253 1.796-3.937 1.843l-9.391-.015z" style="line-height:125%;-inkscape-font-specification:District Pro Thin" font-size="40" font-weight="400" letter-spacing="0" word-spacing="0" font-family="District Pro Thin"/><path d="M131.132 119.828V91.732h-1.564v28.094zm8.401-13.932l8.145 13.951-1.876.021-7.356-12.646zm-45.566 5.234h15.227v1.438H93.967z"/><path d="M102.692 91.727l10.038 28.138-1.73-.018-9.943-28.107z"/><path d="M100.844 91.758l-10.037 28.138 1.729-.018 9.944-28.107z"/></g></svg>