<svg version="1.1" id="Layer_1" xmlns="http://www.w3.org/2000/svg" x="0" y="0" viewBox="0 0 201.83 74.57" xml:space="preserve"><style>.st1{fill:#007362}.st2{fill:#0b4953}.st3{fill:#dc8027}.st4{fill:#f8b418}</style><path d="M45.36 49.28l-1.63-8.33H31.07l-4.73 8.33h-6.41l19.3-33.75h5.23l7.37 33.75h-6.47zm-4.95-25.15l-6.86 12.15h9.34l-2.48-12.15zm17.04-3.26v-5.34h6.53v5.34h-6.53zm0 28.41v-24.3h6.53v24.3h-6.53zM76.92 36v13.28h-6.53v-24.3h5.96l.28 4.44c1.41-2.81 4.95-5.12 9.06-5.12v6.36c-4.44-1.07-8.77 1.18-8.77 5.34zm41.96 13.28h-4.89l-2.76-20.2c-.11-.73-.22-2.48-.22-2.59-.06.06-.68 1.91-1.07 2.59l-9.9 20.2h-4.89l-5.01-33.75h6.47l2.7 21.21c.11.73.06 3.09.06 3.15l1.29-3.15 9.96-21.21h4.78l2.42 21.21c.11.79.17 3.04.17 3.15.06-.23.84-2.42 1.18-3.15l10.18-21.21h6.36l-16.83 33.75zm37.75-11.98h-16.2c-.17 3.71 1.74 7.93 8.27 7.93 2.76 0 6.02-1.24 7.88-2.87v4.73c-2.31 1.8-5.85 2.87-9.9 2.87-7.48 0-12.71-5.46-12.71-13 0-7.76 5.96-12.66 12.26-12.66 6.19 0 10.8 3.88 10.8 9.62-.01 1.07-.18 2.53-.4 3.38zm-10.24-8.84c-2.76 0-5.12 1.58-5.68 5.34h10.41c.56-2.92-1.35-5.34-4.73-5.34zm24.13 21.61c-5.01 0-8.72-2.14-9.73-2.76l1.07-4.5c1.97 1.18 4.95 2.7 8.55 2.7 2.59 0 4.39-.79 4.39-2.81 0-1.74-1.86-2.36-5.18-3.15-5.96-1.29-8.1-4.44-8.1-7.88 0-3.83 2.98-7.43 9.56-7.43 3.99 0 7.48 1.74 8.27 2.19l-1.07 4.28c-2.08-1.24-4.61-2.03-7.03-2.03-2.64 0-3.94.9-3.94 2.36 0 1.63 1.69 2.36 4.28 2.98 6.41 1.35 9 4.33 9 7.59 0 5.25-3.82 8.46-10.07 8.46zm24.08-20.82v20.03h-6.53V29.25h-5.12v-4.28h5.12v-6.64h6.53v6.64h5.12v4.28h-5.12zm-92.63 43.14c-5.26 0-9.8-3.62-9.8-9.52s4.53-9.52 9.8-9.52c2.4 0 4.84.7 6.36 1.86v3.38c-1.46-1.28-3.44-2.25-5.96-2.25-3.62 0-6.3 2.43-6.3 6.54 0 4.08 2.68 6.54 6.3 6.54 2.53 0 4.5-.97 5.96-2.25v3.38c-1.52 1.14-3.95 1.84-6.36 1.84zm18.78-.4v-7.27c0-2.56-.88-3.41-2.49-3.41-1.67 0-3.5 1.52-3.5 3.35v7.33h-3.53V53.74h3.53v7.3c.97-1.43 2.83-2.56 4.72-2.56 3.5 0 4.81 2.43 4.81 5.69v7.82h-3.54zm17.4 0l-.12-2.1c-1.1 1.61-3.04 2.46-4.9 2.46-3.56 0-6.18-2.98-6.18-6.94s2.62-6.94 6.18-6.94c1.86 0 3.8.85 4.9 2.46l.12-2.1h3.19v13.14h-3.19zm-3.93-10.89c-2.07 0-3.74 1.61-3.74 4.32s1.67 4.32 3.74 4.32 3.74-1.61 3.74-4.32c.01-2.71-1.67-4.32-3.74-4.32zm14.12 3.71v7.18h-3.53V58.85h3.22l.15 2.4c.76-1.52 2.68-2.77 4.9-2.77v3.44c-2.4-.58-4.74.64-4.74 2.89zm12.48-3.65v10.83h-3.53V61.16h-2.77v-2.31h2.77v-3.59h3.53v3.59h2.77v2.31h-2.77zm16.49 4.35h-8.76c-.09 2.01.94 4.29 4.47 4.29 1.49 0 3.26-.67 4.26-1.55v2.56c-1.25.97-3.16 1.55-5.35 1.55-4.05 0-6.88-2.95-6.88-7.03 0-4.2 3.22-6.85 6.63-6.85 3.35 0 5.84 2.1 5.84 5.2 0 .58-.09 1.38-.21 1.83zm-5.54-4.77c-1.49 0-2.77.85-3.07 2.89h5.63c.3-1.59-.74-2.89-2.56-2.89zM184 64.81v7.18h-3.53V58.85h3.22l.15 2.4c.76-1.52 2.68-2.77 4.9-2.77v3.44c-2.4-.58-4.74.64-4.74 2.89zm11.1 7.61c-2.71 0-4.72-1.16-5.26-1.49l.58-2.43c1.06.64 2.68 1.46 4.62 1.46 1.4 0 2.37-.43 2.37-1.52 0-.94-1-1.28-2.8-1.7-3.22-.7-4.38-2.4-4.38-4.26 0-2.07 1.61-4.02 5.17-4.02 2.16 0 4.05.94 4.47 1.19l-.58 2.31c-1.13-.67-2.49-1.1-3.8-1.1-1.43 0-2.13.49-2.13 1.28 0 .88.91 1.28 2.31 1.61 3.47.73 4.87 2.34 4.87 4.11.01 2.82-2.06 4.56-5.44 4.56z" fill="#414042"/><path class="st1" d="M8.22 12.55l10.39 25.04L1.45 23.03l4.72.74z"/><path class="st2" d="M18.58 12.17l.03 25.42L8.22 12.55l7.19 5.22z"/><path class="st3" d="M18.61 38.12L1.46 23.54l8.59 16.63z"/><path class="st4" d="M18.59 38.11l.09 10.87s-4.66-4.09-13.51-3.83l4.88-4.99 8.54-2.05zM31.83 2.5L18.97 33l.04-27.95 4.27 3.83z"/><path class="st1" d="M39.42 14.29L18.97 34.06 32.28 2.5l1.26 12.3z"/><path class="st2" d="M39.42 14.29L18.97 34.06l11.71-4.82z"/><path class="st4" d="M30.68 29.59l-11.71 4.82 3.34 9.51z"/><path class="st3" d="M22.31 43.92l-3.22 5.49-.12-15z"/><path d="M1.28 23.01l16.87 14.57-8.88 2.06m21.91-10.96l-12.21 5.03L32.28 2.15" fill="none"/></svg>