<svg xmlns="http://www.w3.org/2000/svg" width="354.57" height="154"><path d="M211.345 152.333c4.892-6.357 101.279-123.622 103.598-126.038 2.802-2.92 3.652-3.024 21.683-2.667l18.766.372-19.168 23.306c-10.543 12.818-19.168 23.686-19.168 24.151 0 .465 5.7 13.01 12.666 27.876 6.967 14.867 12.667 27.549 12.667 28.182 0 .633-8.442 1.151-18.76 1.151h-18.76l-6.138-13.333c-3.376-7.333-6.484-13.324-6.906-13.313-.423.012-10.327 11.712-22.008 26L248.577 154H229.32c-15.201 0-18.987-.351-17.975-1.667zM26.012 129.96c-7.81-1.967-12.268-4.732-17.52-10.867-11.45-13.376-11.798-36.981-.874-59.033C23.8 27.396 65.858 11.9 105.745 23.905c12.924 3.89 12.622-.712 3.428 52.158-4.457 25.632-8.418 47.953-8.803 49.603-.675 2.899-1.222 3-16.147 3H68.775l.485-5.085.485-5.085-4.54 4.41c-2.497 2.425-6.703 5.01-9.345 5.742-7.231 2.006-24.142 2.75-29.848 1.312zm28.223-29.215c12.52-6.388 23.748-26.613 24.506-44.147l.315-7.265-6.425-.41c-18.3-1.168-36.342 14.843-39.06 34.661-1.104 8.065 2.043 15.253 7.768 17.74 5.795 2.518 6.924 2.467 12.896-.58zm57.568 25.588c.045-1.283 4.107-24.833 9.026-52.333l8.944-50 17.677-.373 17.676-.372-.703 3.04c-.387 1.67-4.317 23.738-8.734 49.038-4.417 25.3-8.364 47.65-8.771 49.667l-.741 3.666H128.95c-15.55 0-17.22-.227-17.147-2.333zm46.586.01c0-1.32 3.9-24.46 8.667-51.422 4.766-26.96 8.666-49.597 8.666-50.304 0-.758 7.16-1.284 17.478-1.284h17.478l-.858 3.417-.857 3.416 6.338-3.714c5.514-3.231 7.993-3.77 19.047-4.145 6.99-.237 13.383.047 14.21.631 1.093.773.71 5.414-1.407 17.062l-2.907 16-10.015.82c-23.007 1.885-30.304 11.495-37.795 49.771L192.244 128l-16.927.373c-15.557.343-16.928.178-16.928-2.03zM267.642 49.24c-5.228-10.949-10.033-21.257-10.68-22.907l-1.174-3h38.635l3.316 7.5c1.824 4.124 3.317 8.072 3.317 8.773 0 1.033-15.052 19.788-22.178 27.634-1.454 1.601-3.26-1.29-11.236-18zM140.887 15.938c10.85-3.72 19.357-9.004 24.682-15.332 4.056-4.821 4.212-3.945 1.672 9.394l-1.65 8.666-17.268.322-17.267.321z" fill="#9da3a1"/><path d="M219.847 142.333c5.29-6.417 29.459-35.817 53.71-65.333l44.094-53.667h18.369c10.103 0 18.369.309 18.369.686 0 .377-8.4 10.826-18.667 23.22-10.266 12.395-18.666 23.191-18.666 23.992 0 1.431 7.113 17.442 19.148 43.102l6.098 13h-37.428l-6.37-13.493-6.37-13.493-21.873 26.754-21.872 26.754-19.08.072-19.08.073zM22.053 128.097c-11.961-4.268-18.65-13.398-21.32-29.1C-.41 92.283-.261 88.597 1.5 80c3.199-15.608 8.952-26.298 20.112-37.367 16.353-16.216 34.767-22.755 60.777-21.58 12.7.574 27.897 3.942 32.82 7.275 1.383.937-1 16.125-13.6 86.673l-2.202 12.332H69.024l.845-5.281.844-5.281-5.345 5.085c-3.355 3.19-7.608 5.655-11.42 6.614-8.124 2.046-25.693 1.84-31.895-.373zm34.698-28.43c6.87-4.64 13.13-12.408 17.063-21.176 3.293-7.344 7.754-26.584 6.596-28.457-1.56-2.525-11.35-2.892-18.865-.707-6.15 1.788-9.184 3.79-15.82 10.442-9.162 9.183-12.67 16.916-12.67 27.935 0 5.685.606 7.168 4.534 11.096 5.783 5.783 11.498 6.041 19.162.866zM112.519 125c.3-1.284 4.158-23.034 8.573-48.334 4.415-25.3 8.36-47.65 8.768-49.666l.74-3.667h16.562c9.108 0 16.568.45 16.577 1 .01.55-4.014 23.95-8.94 52l-8.958 51h-16.934c-15.448 0-16.887-.205-16.388-2.333zm46.444-1.334c.432-2.016 4.38-24.066 8.775-49 4.395-24.933 8.3-46.683 8.68-48.333.667-2.908 1.183-3 16.837-3h16.15l-.787 4.848-.787 4.848 2.964-2.784c6.36-5.976 22.71-9.709 33.584-7.668 4.693.88 4.903 1.14 4.187 5.175-.415 2.336-1.728 9.648-2.917 16.248l-2.163 12-9.43.405c-11.255.483-16.224 2.357-22.263 8.395-6.972 6.973-11.59 18.521-15.408 38.533-1.89 9.9-3.723 19.35-4.074 21-.622 2.918-1.098 3-17.387 3h-16.747zm107.18-78.385L255.9 23.333h38.14l3.55 8.183c3.039 7.008 3.287 8.491 1.732 10.333-1 1.183-6.182 7.4-11.518 13.817s-10.088 11.644-10.56 11.615c-.47-.029-5.465-9.929-11.1-22zM140.488 16.837c9.227-3.149 19.015-9.011 24.302-14.555 3.994-4.188 4.338-4.322 3.72-1.448-.375 1.74-1.348 6.616-2.162 10.832l-1.48 7.667-15.573-.093-15.572-.094z" fill="#489559"/><path d="M211.944 152.9c.245-.605 24.145-29.977 53.112-65.271l52.666-64.173 18.424-.061 18.424-.062L351.862 27c-1.49 2.016-10.121 12.626-19.18 23.576l-16.47 19.91 3.606 8.757c1.984 4.816 7.574 17.082 12.422 27.257 4.849 10.175 8.816 19.025 8.816 19.666 0 .642-8.102 1.167-18.004 1.167h-18.003L298.859 114c-3.402-7.334-6.551-13.301-6.995-13.261-.445.04-10.592 12.04-22.55 26.666L247.574 154h-18.037c-9.92 0-17.837-.495-17.593-1.1zM22.053 128.097c-11.961-4.268-18.65-13.398-21.32-29.1C-.41 92.283-.261 88.597 1.5 80c3.199-15.608 8.952-26.298 20.112-37.367 16.353-16.216 34.767-22.755 60.777-21.58 12.7.574 27.897 3.942 32.82 7.275 1.383.937-1 16.125-13.6 86.673l-2.202 12.332H69.024l.845-5.281.844-5.281-5.345 5.085c-3.355 3.19-7.608 5.655-11.42 6.614-8.124 2.046-25.693 1.84-31.895-.373zm34.698-28.43c6.87-4.64 13.13-12.408 17.063-21.176 3.293-7.344 7.754-26.584 6.596-28.457-1.56-2.525-11.35-2.892-18.865-.707-6.15 1.788-9.184 3.79-15.82 10.442-9.162 9.183-12.67 16.916-12.67 27.935 0 5.685.606 7.168 4.534 11.096 5.783 5.783 11.498 6.041 19.162.866zM112.519 125c.3-1.284 4.158-23.034 8.573-48.334 4.415-25.3 8.36-47.65 8.768-49.666l.74-3.667h16.562c9.108 0 16.568.45 16.577 1 .01.55-4.014 23.95-8.94 52l-8.958 51h-16.934c-15.448 0-16.887-.205-16.388-2.333zm46.444-1.334c.432-2.016 4.38-24.066 8.775-49 4.395-24.933 8.3-46.683 8.68-48.333.667-2.908 1.183-3 16.837-3h16.15l-.787 4.848-.787 4.848 2.964-2.784c6.36-5.976 22.71-9.709 33.584-7.668 4.693.88 4.903 1.14 4.187 5.175-.415 2.336-1.728 9.648-2.917 16.248l-2.163 12-9.43.405c-11.255.483-16.224 2.357-22.263 8.395-6.972 6.973-11.59 18.521-15.408 38.533-1.89 9.9-3.723 19.35-4.074 21-.622 2.918-1.098 3-17.387 3h-16.747zm117.026-58.51c-2.253-4.224-18.933-40.51-18.933-41.186 0-.35 8.09-.637 17.98-.637h17.98l4.066 8.053 4.065 8.052-10.268 12.281c-14.642 17.51-13.343 16.338-14.89 13.436zM145.274 15.443c6.714-2.626 12.876-6.524 18.952-11.991L168.062 0l-.882 5.333c-.485 2.933-1.21 6.983-1.61 9L164.844 18l-12.894-.063-12.894-.062z" fill="#626366"/><path d="M211.944 152.9c.245-.605 24.145-29.977 53.112-65.271l52.666-64.173 18.497-.061c14.605-.049 18.224.289 17.204 1.605-.712.916-9.502 11.673-19.536 23.903L315.645 71.14l12.705 26.985c6.988 14.842 12.706 27.486 12.706 28.097 0 .611-8.102 1.111-18.004 1.111h-18.003L298.859 114c-3.402-7.334-6.551-13.301-6.995-13.261-.445.04-10.592 12.04-22.55 26.666L247.574 154h-18.037c-9.92 0-17.837-.495-17.593-1.1zm64.045-87.745c-2.253-4.223-18.933-40.509-18.933-41.185 0-.35 8.09-.637 17.98-.637h17.98l4.066 8.053 4.065 8.052-10.268 12.281c-14.642 17.51-13.343 16.338-14.89 13.436zM145.274 15.443c6.714-2.626 12.876-6.524 18.952-11.991L168.062 0l-.882 5.333c-.485 2.933-1.21 6.983-1.61 9L164.844 18l-12.894-.063-12.894-.062z" fill="#18792e"/><path d="M302.459 87.367c6.272-7.622 12.018-14.063 12.77-14.314 1.08-.36 4.493 4.842 4.493 6.847 0 .487-23.48 18.204-26.666 20.123-1.1.661 3.13-5.034 9.403-12.656z" fill="#1d201c"/></svg>