<svg xmlns="http://www.w3.org/2000/svg" version="1.0" width="708.661" height="708.661"><g fill-rule="evenodd"><path d="M329.31 672.237C154.219 658.455 22.643 504.404 36.425 329.311 50.207 154.218 204.258 22.64 379.351 36.424 554.444 50.207 686.02 204.258 672.237 379.351 658.455 554.444 504.404 686.02 329.311 672.237" fill="#289fe1"/><path d="M249.988 547.223l47.918 19.882-4.04 9.742-56.72 28.137 38.755 16.085-3.438 8.3-50.079-20.783 4.166-10.031 56.516-27.933-36.5-15.146 3.422-8.253zm57.84 20.908l43.572 5.764-1.167 8.857-32.922-4.354-2.388 18.081 28.536 3.775-1.167 8.857-28.544-3.783-2.913 21.982 33.43 4.432-1.182 8.896-44.073-5.834 8.818-66.673zm66.798 13.485l3.76 20.322 16.084-2.976c4.526-.846 7.784-2.357 9.757-4.526 1.99-2.17 2.655-5.012 2.013-8.513-.564-3.1-2.208-5.293-4.91-6.578-2.702-1.268-6.234-1.519-10.611-.705l-16.093 2.976zm-12.17-6.758l25.874-4.785c8.239-1.511 14.762-1.19 19.53.987 4.762 2.177 7.699 6.155 8.764 11.911.76 4.12.25 7.721-1.488 10.807-1.762 3.116-4.51 5.262-8.262 6.452l-.031.33c4.103-.431 7.228.18 9.334 1.84 2.123 1.675 3.595 4.745 4.417 9.217l.666 3.586c.986 5.365 1.973 9.123 2.913 11.206.955 2.115 2.208 3.697 3.774 4.738l-12.553 2.326c-.932-1.042-1.707-2.326-2.302-3.814-.61-1.495-1.159-3.555-1.645-6.186-.007-.032-.101-.666-.305-1.919a162.938 162.938 0 00-.642-3.759c-.94-5.105-2.255-8.316-3.955-9.632-1.699-1.292-4.565-1.59-8.614-.838l-17.94 3.313 5.246 28.403-10.564 1.958-12.216-66.14zm61.787-10.493l12.389-6.445 45.2 39.538.376-.094-6.296-59.86 12.389-6.429 31.018 59.672-8.872 4.613-25.012-49.516-.486.259 6.813 58.967-8.943 4.652-44.433-39.422-.572.298 26.234 48.873-8.786 4.566-31.019-59.672zm96.345-51.466l15.583 32.334 17.667-18.598-32.984-14.018-.266.282zm-11.997-2.568l8.888-9.35 67.417 26.688-8.184 8.614-14.236-5.944-22.209 23.36 6.61 13.986-8.121 8.551-30.165-65.905zm25.967-25.905l25.435-44.887 7.933 4.495-9.89 17.479 50.58 28.653-5.458 9.616-50.58-28.653-10.087 17.792-7.933-4.495zm27.252-46.406l13.814-49.72 8.786 2.452-5.38 19.35 56.015 15.568-2.96 10.65-56.015-15.568-5.474 19.71-8.786-2.442zm-433.358-32.053l-35.741-3.296 6.836 24.714 29.014-21.057-.11-.36zm8.37-8.958l3.447 12.42-57.597 44.057L79.5 442.02l12.436-9.13-8.599-31.074-15.388-1.535-3.148-11.363 72.022 8.09zm17.503 49.24l5.012 10.064-60.205 29.977-5.011-10.07 60.204-29.97zm12.53 39.078l-15.96 13.132 10.4 12.624c2.928 3.563 5.834 5.677 8.684 6.35 2.866.682 5.678-.101 8.426-2.364 2.436-2.013 3.556-4.503 3.368-7.487-.188-2.976-1.707-6.194-4.527-9.632l-10.391-12.623zm0-13.924l16.727 20.314c5.325 6.468 8.207 12.341 8.614 17.557.4 5.223-1.653 9.702-6.179 13.438-3.226 2.654-6.633 3.97-10.18 3.939-3.571-.032-6.782-1.379-9.64-4.088l-.298.125c2.365 3.375 3.344 6.398 2.906 9.06-.431 2.655-2.405 5.435-5.913 8.325l-2.819 2.326c-4.213 3.461-7.016 6.147-8.387 7.98-1.386 1.863-2.161 3.72-2.318 5.599l-8.113-9.86c.462-1.315 1.198-2.623 2.209-3.86 1.025-1.269 2.56-2.733 4.628-4.44.023-.016.524-.415 1.535-1.19 1.01-.807 1.996-1.598 2.96-2.39 4.01-3.288 6.186-5.998 6.515-8.128.313-2.114-.822-4.753-3.446-7.948L144.06 504.09l-22.303 18.363-6.82-8.3 51.919-42.75zm123.792-59.155l-60.659 109.078c-42.138-32.021-71.505-74.747-82.445-132.869-.093-.454-.65-1.104-.258-1.37l17.158-11.762 126.204 36.923zm116.862 1.394l57.361 113.525c46.039-31.034 78.702-74.605 91.81-136.51l-25.184-12.584-123.987 35.569zm159.938-115.928c10.188-1.3 20.353.094 29.68 4.26l58.074 31.074-302.37 86.767.008.728-1.26-.368-.815.22.023-.455-297.326-87.51 58.239-30.76c9.35-4.12 19.522-5.466 29.71-4.104l210.254 54.379 215.783-54.23z" fill="#fff"/><path d="M228.933 309.943l50.643-147.05 8.41.666 1.825-18.74 9.828.775 4.3-41.81 37.58-36.123 22.914 10.14 51.574 69.923L475.1 311.752l-38.834 9.24 1.144-28.45-31.09-21.77 1.669-88.114-66.556-95.78-24.19 21.464-3.109 33.932 59.907 19.867-20.392 16.531-2.756 98.358 29.507 56.594-12.702 3.923-18.058-34.323-18.348 33.877-102.359-27.158z" fill="#fff"/></g></svg>