<svg viewBox="0 0 253.97 106.67" xmlns="http://www.w3.org/2000/svg"><path d="M243.23 28.47h-11L223.73 55h-.15l-8.78-26.53h-11.4l13.65 36.38a6.58 6.58 0 01.45 2.39 5.52 5.52 0 01-.5 2.26 4.49 4.49 0 01-1.36 1.76 4.44 4.44 0 01-2.3.86 29.34 29.34 0 01-3.14-.1l-3.09-.28v8.78c1.09.11 2.17.2 3.26.28s2.18.1 3.26.1a18.49 18.49 0 006.21-.89 10.07 10.07 0 004.28-2.85 15.61 15.61 0 002.86-5zm-50.48 23.78a15.13 15.13 0 01-.1 1.82 10.32 10.32 0 01-.54 2.33 7.37 7.37 0 01-1.35 2.3 6.83 6.83 0 01-2.54 1.78 10.93 10.93 0 01-4.1.7 11.53 11.53 0 01-3.23-.4 4.59 4.59 0 01-2.38-1.5 4.72 4.72 0 01-.92-3.05 5 5 0 01.9-3.06 5.63 5.63 0 012.3-1.73 15.47 15.47 0 013.1-.91c1.11-.19 2.24-.35 3.36-.5a26.15 26.15 0 003.13-.6 6 6 0 002.36-1.15zm-14-11.85a6 6 0 012.15-4.5 7.78 7.78 0 014.9-1.35 13.75 13.75 0 013.46.34 4.52 4.52 0 012.49 1.51 5.4 5.4 0 011 3.4 3.18 3.18 0 01-1.05 2.5 6.71 6.71 0 01-2.8 1.31 31.56 31.56 0 01-4 .69q-2.25.26-4.73.6a32.43 32.43 0 00-4.85 1 14.08 14.08 0 00-4.23 2 9.06 9.06 0 00-3 3.43 11.89 11.89 0 00-1.09 5.34 12.44 12.44 0 001 5.18 9.72 9.72 0 002.82 3.61A11.87 11.87 0 00175 67.6a18.41 18.41 0 005.16.7 24.26 24.26 0 004.74-.46 18 18 0 004.48-1.53 14 14 0 003.84-2.81 12.22 12.22 0 00.26 1.9c.14.64.3 1.25.49 1.85h10.8a7.18 7.18 0 01-.77-2.15 22 22 0 01-.43-3c-.1-1.11-.14-2.26-.14-3.45V38.44a10.45 10.45 0 00-1-4.72 9 9 0 00-2.74-3.18 13.93 13.93 0 00-3.94-1.92 24.68 24.68 0 00-4.59-1 40.55 40.55 0 00-4.74-.25 33.91 33.91 0 00-5.18.39 23 23 0 00-4.82 1.3 14.93 14.93 0 00-4.05 2.41 11.29 11.29 0 00-2.89 3.7 13.71 13.71 0 00-1.29 5.17zm-10.3-11.93H157.5l-7.12 26.25h-.15l-6.6-26.25h-10.35l-6.45 26.33h-.15l-7.13-26.33H108.3l12.3 38.78h11.03l6.6-26.03h.15l6.9 26.03h10.95zM69.98 67.25h10.65V53.9l4.12-3.98L95.4 67.25h12.9L92.03 42.72l14.62-14.25h-12.6L80.63 42.42V13.69H69.98zM54.3 13.69h10.65v53.55H54.3zm-15.6 0h10.65v8.77H38.7zm0 14.78h10.65v38.78H38.7zM0 54.65A14.47 14.47 0 001.2 60 12 12 0 004 63.88a14.49 14.49 0 004 2.56 21.05 21.05 0 004.86 1.41 31.14 31.14 0 005.31.44 31.52 31.52 0 005.24-.43 21.21 21.21 0 004.81-1.39 14.16 14.16 0 004-2.53 11.13 11.13 0 002.69-3.84 13.61 13.61 0 001-5.33 9.36 9.36 0 00-1-4.54 8.78 8.78 0 00-2.76-3.06 16.16 16.16 0 00-3.94-2 40 40 0 00-4.55-1.29c-1.54-.35-3-.66-4.45-1a32.78 32.78 0 01-3.86-1 7.67 7.67 0 01-2.73-1.47 3.19 3.19 0 01-.45-4.2 3.53 3.53 0 011.47-1.1 8.08 8.08 0 011.92-.5 15 15 0 011.94-.11 12.49 12.49 0 013.5.5 5.45 5.45 0 012.59 1.61 5.49 5.49 0 011.16 3.2h10.13a13.58 13.58 0 00-1.82-5.95A11.57 11.57 0 0029.2 30a17.21 17.21 0 00-5.29-2 29.71 29.71 0 00-6.14-.59 32.48 32.48 0 00-5 .35 20.78 20.78 0 00-4.59 1.17 13.18 13.18 0 00-3.8 2.26 10 10 0 00-2.57 3.56 12.62 12.62 0 00-1 5.1A8.48 8.48 0 002 44.17a8.76 8.76 0 002.79 2.93 16.42 16.42 0 003.9 1.9 39.84 39.84 0 004.51 1.22q3.8.78 6.54 1.58a13.46 13.46 0 014.11 1.8 3.15 3.15 0 011.42 2.63 4.19 4.19 0 01-.65 2.35 4.87 4.87 0 01-1.69 1.54 7.94 7.94 0 01-2.25.81 11.24 11.24 0 01-2.39.25 12.63 12.63 0 01-3-.36 8.44 8.44 0 01-2.6-1.15 5.93 5.93 0 01-1.82-2 6.51 6.51 0 01-.71-3z" fill="#114495"/><path d="M254 0l-7.7 20.22H100.71c2.38-4.55 7-7 16-8.92 16.3-3.47 44.74-7.29 74.67-1 46.16 9.77 55.82-7.93 57.45-9.56z" fill="#e3000f"/><path d="M184.4 99.38a8 8 0 00.83 3.39 6.33 6.33 0 002 2.26 8.61 8.61 0 002.86 1.26 14.4 14.4 0 003.44.39 16 16 0 002.63-.22 11.24 11.24 0 002.49-.7 7.52 7.52 0 002.08-1.27 5.6 5.6 0 001.43-1.93 6.47 6.47 0 00.53-2.67 5.3 5.3 0 00-.6-2.6 4.91 4.91 0 00-1.59-1.72 9.41 9.41 0 00-2.25-1.1 23.9 23.9 0 00-2.6-.7l-2.49-.56a17.71 17.71 0 01-2.27-.66 4.58 4.58 0 01-1.65-1 2.13 2.13 0 01-.64-1.55 2.22 2.22 0 01.42-1.35 2.77 2.77 0 011.08-.84 5.54 5.54 0 011.48-.44 8.93 8.93 0 011.61-.12 7.55 7.55 0 011.73.18 5.06 5.06 0 011.56.6 3.63 3.63 0 011.16 1.12 3.88 3.88 0 01.56 1.73h3.54a7.81 7.81 0 00-.83-3.27 5.68 5.68 0 00-1.91-2.08 8.19 8.19 0 00-2.75-1.08 15.47 15.47 0 00-3.34-.32 11.55 11.55 0 00-2.28.22 9.68 9.68 0 00-2.17.69 7 7 0 00-1.84 1.19 5.18 5.18 0 00-1.28 1.77 5.46 5.46 0 00-.48 2.3 5.22 5.22 0 00.61 2.58 5 5 0 001.6 1.72 9.84 9.84 0 002.26 1.09 25.64 25.64 0 002.58.7l2.6.57a15.12 15.12 0 012.25.69 4.15 4.15 0 011.59 1.06 2.43 2.43 0 01.6 1.67 2.66 2.66 0 01-.5 1.65 3.09 3.09 0 01-1.28 1 6.31 6.31 0 01-1.69.47 11.59 11.59 0 01-1.74.12 10 10 0 01-2.12-.21 5.93 5.93 0 01-1.83-.69 3.71 3.71 0 01-1.3-1.28 4.11 4.11 0 01-.55-2zm-16.33-6a7.49 7.49 0 01.55-2.34 6.41 6.41 0 011.24-1.94 5.61 5.61 0 011.89-1.32 6.55 6.55 0 014.92 0 6 6 0 011.92 1.22 6.29 6.29 0 011.31 2 6.75 6.75 0 01.55 2.38zm12.29 6a5.17 5.17 0 01-1.93 3.15 6.05 6.05 0 01-3.65 1.06 7.68 7.68 0 01-3-.58 5.79 5.79 0 01-2.12-1.56 6.41 6.41 0 01-1.21-2.26 8.14 8.14 0 01-.33-2.69h16.08a16.52 16.52 0 00-.12-2.72 15.25 15.25 0 00-.62-2.79 11.79 11.79 0 00-1.19-2.6 9.2 9.2 0 00-1.85-2.17 8.22 8.22 0 00-2.58-1.49 10.44 10.44 0 00-7.44.29 9.52 9.52 0 00-3.2 2.34 10.62 10.62 0 00-2.1 3.55 13.06 13.06 0 00-.76 4.48 16.62 16.62 0 00.74 4.55 10.4 10.4 0 001.93 3.58 8.53 8.53 0 003.18 2.35 11.26 11.26 0 004.49.85 10.54 10.54 0 004.33-.85 8 8 0 003.15-2.47 9.76 9.76 0 001.74-4zm-36 6.83h3.54V94a8.71 8.71 0 01.4-2.69 5.9 5.9 0 011.18-2.14 5.27 5.27 0 012-1.42 7.38 7.38 0 012.81-.51 4.83 4.83 0 012.34.54 3.63 3.63 0 011.5 1.5 4.69 4.69 0 01.53 2.29v14.58h3.54V92a12.64 12.64 0 00-.36-3.18 6.43 6.43 0 00-1.22-2.49 5.48 5.48 0 00-2.28-1.63 9.88 9.88 0 00-3.55-.58 8.3 8.3 0 00-4.09 1 7.37 7.37 0 00-2.91 3h-.08v-3.49h-3.31zM141 76.42h-3.54v4.33H141zm-3.54 29.75H141V84.63h-3.54zm-7.17 0h3.54V76.42h-3.54zm-12.12 0h3.54v-9.58a12.76 12.76 0 01.75-4.69 5.94 5.94 0 012.49-3 8.85 8.85 0 014.56-1v-3.77a8.73 8.73 0 00-3.37.49 7 7 0 00-2.58 1.68 11 11 0 00-2 2.87h-.08v-4.54h-3.33zm-3.29-29.75h-3.54v4.33h3.54zm-3.54 29.75h3.54V84.63h-3.54zm-1.42-2.83a3.36 3.36 0 01-.6.17 3 3 0 01-.48 0 1 1 0 01-.79-.26 1.34 1.34 0 01-.29-.79 13 13 0 010-1.37V90a6.44 6.44 0 00-.47-2.55 4.62 4.62 0 00-1.29-1.67 5.92 5.92 0 00-1.83-1 10.1 10.1 0 00-2.19-.5 18.49 18.49 0 00-2.33-.13 14.24 14.24 0 00-3.42.38 8.66 8.66 0 00-2.86 1.23 6.17 6.17 0 00-2 2.23 7.77 7.77 0 00-.84 3.38H94a4.35 4.35 0 01.8-2.46 3.76 3.76 0 011.89-1.26 8.88 8.88 0 012.69-.35 9.94 9.94 0 011.7.12 4.85 4.85 0 011.54.51 2.9 2.9 0 011.14 1.07 3.73 3.73 0 01.43 1.86 2 2 0 01-.58 1.51 3.51 3.51 0 01-1.57.78 19 19 0 01-2.31.43c-.87.11-1.8.26-2.79.44a23.71 23.71 0 00-2.69.65 8.61 8.61 0 00-2.33 1.1 5 5 0 00-1.65 1.88 6.54 6.54 0 00-.62 3 6.43 6.43 0 00.56 2.76 5 5 0 001.53 1.88 6.5 6.5 0 002.26 1.04 10.63 10.63 0 002.76.34 10.49 10.49 0 004.18-.81 9.23 9.23 0 003.4-2.53 3.57 3.57 0 00.81 2.54 2.92 2.92 0 002.19.79 6 6 0 001.46-.15 3.65 3.65 0 001.08-.43zm-5.75-4.67a3.9 3.9 0 01-.37 1.59 5.19 5.19 0 01-1.17 1.58 6.08 6.08 0 01-2 1.22 8.71 8.71 0 01-3 .49 6.25 6.25 0 01-2-.31 3.21 3.21 0 01-1.53-1 2.9 2.9 0 01-.6-1.86 3.37 3.37 0 01.5-2.08 3.78 3.78 0 011.57-1.19 9.88 9.88 0 012.16-.6c.8-.13 1.6-.24 2.42-.34a21.93 21.93 0 002.26-.39 4.94 4.94 0 001.74-.73zm-28.58-20.5H72v6.46h-3.62v3.12H72v13.71a8.22 8.22 0 00.28 2.4 2.9 2.9 0 00.9 1.44 3.51 3.51 0 001.59.69 12.09 12.09 0 002.35.18h2.71V103h-1.58a7 7 0 01-1.67-.14 1.1 1.1 0 01-.79-.56 2.64 2.64 0 01-.2-1.22V87.75h4.29v-3.12h-4.29zm-25 21.21a8 8 0 00.83 3.39 6.34 6.34 0 002 2.26 8.61 8.61 0 002.86 1.26 14.4 14.4 0 003.44.39 16 16 0 002.63-.22 11.24 11.24 0 002.49-.7 7.52 7.52 0 002.08-1.27 5.6 5.6 0 001.43-1.93 6.47 6.47 0 00.53-2.67 5.3 5.3 0 00-.6-2.6 4.91 4.91 0 00-1.59-1.72 9.41 9.41 0 00-2.25-1.1 23.91 23.91 0 00-2.6-.7l-2.49-.56a17.72 17.72 0 01-2.35-.68 4.57 4.57 0 01-1.65-1 2.13 2.13 0 01-.6-1.53 2.22 2.22 0 01.42-1.35 2.77 2.77 0 011.08-.84 5.54 5.54 0 011.48-.44 8.93 8.93 0 011.61-.12 7.55 7.55 0 011.73.18 5.06 5.06 0 011.56.6 3.63 3.63 0 011.16 1.12 3.88 3.88 0 01.56 1.73h3.54a7.81 7.81 0 00-.89-3.27 5.68 5.68 0 00-1.91-2.08 8.2 8.2 0 00-2.75-1.08 15.47 15.47 0 00-3.34-.32 11.56 11.56 0 00-2.28.22 9.68 9.68 0 00-2.17.69 7 7 0 00-1.84 1.19A5.17 5.17 0 0051.48 88a5.46 5.46 0 00-.48 2.3 5.22 5.22 0 00.61 2.58 5 5 0 001.6 1.72 9.84 9.84 0 002.26 1.09 25.61 25.61 0 002.58.7l2.6.57a15.11 15.11 0 012.25.69 4.15 4.15 0 011.59 1.06 2.43 2.43 0 01.6 1.67 2.67 2.67 0 01-.5 1.65 3.09 3.09 0 01-1.28 1 6.31 6.31 0 01-1.69.47 11.59 11.59 0 01-1.74.12 10 10 0 01-2.12-.21 5.93 5.93 0 01-1.83-.69 3.71 3.71 0 01-1.3-1.28 4.11 4.11 0 01-.55-2zm-16.33-6a7.5 7.5 0 01.5-2.38A6.42 6.42 0 0136 89.06a5.61 5.61 0 011.89-1.32 6.55 6.55 0 014.92 0A6 6 0 0144.73 89 6.29 6.29 0 0146 91a6.75 6.75 0 01.55 2.38zm12.29 6a5.17 5.17 0 01-1.93 3.15 6.05 6.05 0 01-3.65 1.06 7.68 7.68 0 01-3-.58 5.79 5.79 0 01-2.12-1.56 6.42 6.42 0 01-1.21-2.26 8.15 8.15 0 01-.33-2.69h16.03a16.52 16.52 0 00-.12-2.72 15.23 15.23 0 00-.62-2.79 11.79 11.79 0 00-1.19-2.6 9.2 9.2 0 00-1.85-2.17A8.23 8.23 0 0044 84.68a10.44 10.44 0 00-7.44.29 9.52 9.52 0 00-3.2 2.34 10.61 10.61 0 00-2.1 3.55 13.06 13.06 0 00-.76 4.48 16.62 16.62 0 00.74 4.55 10.4 10.4 0 001.93 3.58 8.53 8.53 0 003.18 2.35 11.26 11.26 0 004.49.85 10.54 10.54 0 004.33-.85 8 8 0 003.15-2.47 9.76 9.76 0 001.74-4zM30.34 84.63h-3.67l-4.83 17.63h-.08l-4.5-17.63h-3.88L9 102.25 4.09 84.63H.17l6.92 21.54h3.83L15.25 89h.08l4.37 17.13h3.75z" fill="#817e7e"/></svg>