<svg xmlns="http://www.w3.org/2000/svg" width="126" height="28" viewBox="-0.045 -0.094 126 28"><path fill="#1A65AA" d="M17.36 3.471h-4.64L2.46 23.18h4.853s2.018-3.961 2.458-4.812h5.763c.125 1.18.497 4.812.497 4.812h4.62l-2.42-19.71h-.872z"/><path fill="#FFF" d="M17.36 4.21h-4.19L3.684 22.438h3.18s2.318-4.557 2.449-4.81H16.2l.5 4.81h3.109L17.58 4.21h-.22zm-2.024.495h1.805l2.112 17.24h-2.106l-.496-4.811h-7.64s-2.324 4.558-2.452 4.812h-2.06c.355-.688 8.838-16.986 8.969-17.24h1.868z"/><path fill="#FFF" d="M6.828 12.678l-.875.478 10.868 3.707s-4.378-3.682-5.006-4.175c.543-.59 4.585-5.222 4.585-5.222l-9.572 5.212z"/><path fill="#D81B18" d="M11.156 12.74l4.19 3.302-8.305-2.973 7.731-4.247z"/><path fill="#1A65AA" d="M21.888 18.927L32.816 7.691l.614-.62h-9.14l.255-1.312.237-1.311H36.62l-.315 1.622-.301 1.621-10.926 11.24-.88.876h9.345l-.223 1.187-.223 1.188h-11.82l.298-1.626.313-1.629z"/><path fill="#1A65AA" d="M36.62 3.46H23.96l-.386 2.12-.477 2.475h7.99C29.402 9.79 20.976 18.453 20.976 18.453l-.369 1.917-.517 2.799h13.826l.818-4.348H26.56L36.918 8.165l.358-1.915.536-2.79H36.62zm-1.198 1.973l-.124.649h-9.813c0-.025.076-.404.121-.649h9.816zm-1.9 2.948s1.177-1.194 1.663-1.69c-.05.265-.068.371-.1.53l-10.72 11.023s-1.261 1.261-1.659 1.656c.05-.248.071-.35.096-.494.393-.407 10.72-11.025 10.72-11.025zm-9.324 12.412h8.158s-.05.233-.082.401h-9.812c.031-.16.07-.374.074-.4h1.662zm12.104-1.866L47.23 7.691l.614-.62h-9.146l.255-1.312.245-1.311h11.83l-.313 1.622-.3 1.621-10.927 11.24-.879.876h9.344l-.223 1.187-.222 1.188h-11.82l.301-1.626.313-1.629z"/><path fill="#1A65AA" d="M51.027 3.46H38.375l-.39 2.12-.478 2.475H45.5a28318.525 28318.525 0 00-10.114 10.398l-.368 1.917-.519 2.799h13.826l.819-4.348H40.97c1.358-1.393 10.358-10.656 10.358-10.656l.359-1.915.532-2.79h-1.192zm-1.194 1.973c-.036.179-.117.608-.124.649h-9.813c.007-.025.075-.404.125-.649h9.812zm-1.9 2.948l1.663-1.69a19.3 19.3 0 01-.1.53c-.397.41-10.717 11.023-10.717 11.023s-1.265 1.261-1.659 1.656c.046-.248.067-.35.092-.494L47.932 8.38zm-9.324 12.412h8.154s-.04.233-.072.401h-9.815l.071-.4h1.662zM64.708 15.9c-.39 2.082-1.244 3.713-2.557 4.893-1.297 1.172-2.91 1.76-4.841 1.76-2.081 0-3.602-.592-4.57-1.772-.675-.826-1.007-1.879-1.007-3.169 0-.532.056-1.102.173-1.712l2.17-11.452h2.488L54.32 16.293c-.085.412-.12.793-.113 1.149-.007.746.174 1.347.546 1.792.524.65 1.44.973 2.744.973 1.198 0 2.216-.353 3.049-1.057.84-.709 1.371-1.658 1.61-2.857l2.237-11.845h2.484L64.708 15.9z"/><path fill="#1A65AA" d="M66.877 3.46h-3.304l-2.39 12.653c-.187.971-.605 1.72-1.272 2.28-.656.558-1.45.829-2.414.829-.985 0-1.651-.206-1.978-.607-.223-.27-.327-.659-.323-1.164 0-.032.096-.955.096-.955L57.756 3.46H53.26l-2.33 12.257-.184 1.895c0 1.516.412 2.794 1.227 3.793 1.156 1.416 2.957 2.134 5.336 2.134 2.175 0 4.026-.678 5.504-2.013 1.464-1.32 2.433-3.151 2.865-5.442l2.39-12.624h-1.192zm-1.248 1.973h.053c-.35 1.888-1.942 10.286-1.942 10.286-.355 1.852-1.106 3.313-2.248 4.341-1.12 1.014-2.488 1.507-4.182 1.507-1.788 0-3.032-.463-3.804-1.41-.528-.647-.787-1.48-.787-2.545l.155-1.528s1.759-9.26 2.02-10.65h.479c-.361 1.903-2.02 10.679-2.02 10.679.003-.02-.131 1.348-.131 1.348-.011.956.252 1.776.77 2.404.711.88 1.896 1.33 3.505 1.33 1.432 0 2.669-.435 3.69-1.293 1.007-.85 1.663-2.003 1.932-3.419 0 0 1.83-9.653 2.092-11.05h.418zm4.971-.985h5.726c1.683 0 2.93.294 3.75.884.819.59 1.223 1.484 1.223 2.689 0 1.863-.504 3.391-1.518 4.577-1.017 1.188-2.315 1.78-3.906 1.78h-1.35l4.554 7.804h-3.016l-4.69-8.776h-.008l-1.659 8.776h-2.484L70.6 4.448zm.914 8.173h2.542c1.602 0 2.775-.314 3.52-.949.744-.627 1.113-1.621 1.103-2.976 0-.608-.228-1.03-.673-1.27-.451-.24-1.248-.355-2.384-.355h-3.037l-1.071 5.55z"/><path fill="#1A65AA" d="M71.836 3.46H69.78l-3.758 19.71h4.5l1.293-6.838c1.36 2.547 3.66 6.838 3.66 6.838h5.324s-3.453-5.915-4.58-7.838c1.726-.085 3.182-.771 4.31-2.09 1.167-1.366 1.76-3.123 1.76-5.22 0-1.909-.89-2.951-1.636-3.49-1.003-.72-2.418-1.07-4.328-1.07h-4.49zm0 1.973h4.49c1.462 0 2.527.234 3.171.7.352.254.816.724.816 1.888 0 1.636-.418 2.925-1.283 3.935-.822.968-1.858 1.438-3.155 1.438h-3.074s3.42 5.856 4.558 7.8h-.7l-5.737-10.72-.528 2.752-1.506 7.968h-.476c.372-1.944 2.744-14.4 3.003-15.76h.42z"/><path fill="#1A65AA" d="M72.585 6.082h-.813l-1.453 7.524h3.737c1.861 0 3.222-.382 4.158-1.18.972-.828 1.46-2.083 1.453-3.735 0-.964-.429-1.725-1.197-2.136-.617-.324-1.518-.473-2.848-.473h-3.037zm3.037 1.973c1.316 0 1.784.172 1.919.244.06.034.151.078.151.397v.038c0 1.043-.25 1.756-.754 2.189-.56.473-1.528.71-2.882.71h-1.343c.23-1.192.516-2.694.687-3.578h2.222zm9.388-3.607h5.725c1.681 0 2.932.294 3.747.884.819.59 1.23 1.484 1.23 2.689 0 1.863-.51 3.391-1.52 4.577-1.017 1.188-2.315 1.78-3.908 1.78h-1.35l4.555 7.804H90.48l-4.694-8.776h-.01l-1.659 8.776H81.63l3.38-17.734zm.915 8.173h2.542c1.601 0 2.774-.314 3.52-.949.74-.627 1.109-1.621 1.106-2.976 0-.608-.227-1.03-.68-1.27-.448-.24-1.241-.355-2.38-.355h-3.038l-1.07 5.55z"/><path fill="#1A65AA" d="M86.251 3.46h-2.06l-3.75 19.709h4.495l1.29-6.838 3.663 6.838h5.32s-3.456-5.915-4.576-7.838c1.725-.085 3.182-.771 4.31-2.09 1.166-1.366 1.758-3.123 1.758-5.22 0-1.909-.892-2.951-1.638-3.49-.999-.72-2.417-1.07-4.328-1.07h-4.484zm0 1.973h4.484c1.464 0 2.532.234 3.172.7.353.254.82.724.82 1.888 0 1.636-.422 2.925-1.284 3.935-.825.968-1.857 1.438-3.159 1.438h-3.07s3.419 5.856 4.556 7.8h-.7c-.494-.92-5.737-10.72-5.737-10.72l-.525 2.752s-1.26 6.643-1.51 7.968h-.472c.37-1.944 2.74-14.4 3-15.76h.425z"/><path fill="#1A65AA" d="M86.995 6.082h-.811l-1.45 7.524h3.733c1.864 0 3.222-.382 4.16-1.18.973-.828 1.462-2.083 1.451-3.735 0-.964-.426-1.725-1.201-2.136-.61-.324-1.51-.473-2.844-.473h-3.038zm3.038 1.973c1.319 0 1.783.172 1.918.244.064.034.149.078.149.397v.038c0 1.043-.245 1.756-.751 2.189-.553.473-1.528.71-2.882.71h-1.344c.23-1.192.518-2.694.691-3.578h2.22zm13.698-3.607h4.038l2.177 17.734h-2.606l-.5-4.81h-7.268l-2.452 4.81H94.5l9.231-17.734zm-2.854 10.424h5.712l-.915-9.304h.004l-4.801 9.304z"/><path fill="#1A65AA" d="M107.769 3.46h-4.637L92.877 23.17h4.849s2.021-3.96 2.454-4.812h5.77l.496 4.812h4.613l-2.414-19.71h-.876zm-2.018 1.973h1.15c.177 1.466 1.702 13.916 1.932 15.761h-.606c-.12-1.174-.498-4.81-.498-4.81h-8.762s-2.014 3.963-2.45 4.81h-.39c1.227-2.354 7.728-14.844 8.204-15.76h1.42z"/><path fill="#1A65AA" d="M105.27 4.2l-.472.916-5.544 10.745h8.427l-1.153-11.662h-1.258zm-.251 4.798c.22 2.246.382 3.882.481 4.886h-3.007c.663-1.28 1.43-2.76 2.526-4.886z"/><path fill="#FFF" d="M36.62 4.2H24.578l-.28 1.513-.309 1.603h8.853l-.202.202-10.98 11.293-.325 1.697-.356 1.92H33.3l.542-2.866h-9.043c.223-.229.453-.458.453-.458L36.234 7.811l.312-1.697.368-1.915h-.294zm-.3.494c-.079.391-.26 1.33-.26 1.33l-.283 1.552C35.674 7.68 24.9 18.761 24.9 18.761l-1.3 1.293h9.645c-.063.332-.3 1.603-.354 1.88H21.57c.072-.392.25-1.332.25-1.332l.297-1.554c.103-.103 10.872-11.184 10.872-11.184l1.029-1.04h-9.43l.194-1.018s.154-.823.206-1.112h11.33zM51.027 4.2H38.988l-.276 1.513-.312 1.603h8.852c-.085.09-.198.202-.198.202L36.07 18.811l-.326 1.697-.354 1.92h12.322l.542-2.866h-9.05c.227-.229.457-.458.457-.458L50.645 7.811l.312-1.697.371-1.915h-.3zm-.298.494c-.078.391-.258 1.33-.258 1.33s-.263 1.413-.283 1.552c-.103.103-10.876 11.185-10.876 11.185l-1.302 1.293h9.645c-.06.332-.3 1.603-.353 1.88h-11.32c.075-.392.248-1.332.248-1.332s.27-1.42.298-1.554c.103-.103 10.876-11.184 10.876-11.184l1.025-1.04h-9.43l.2-1.018.2-1.112h11.33zM66.877 4.2H64.19l-2.28 12.048c-.22 1.134-.73 2.046-1.52 2.713-.787.664-1.762 1-2.893 1-1.223 0-2.081-.296-2.553-.88-.333-.4-.496-.952-.493-1.637l.117-1.1L56.86 4.2h-2.985l-2.212 11.657-.178 1.756c0 1.34.355 2.458 1.064 3.327 1.01 1.234 2.613 1.86 4.762 1.86 1.988 0 3.669-.614 5.008-1.824 1.347-1.207 2.23-2.902 2.637-5.027L67.176 4.2h-.298zm-1.248.494h.954c-.11.555-2.117 11.162-2.117 11.162-.382 2.017-1.216 3.616-2.482 4.755-1.24 1.124-2.814 1.695-4.674 1.695-1.993 0-3.468-.566-4.375-1.679-.631-.774-.954-1.789-.954-3.015l.166-1.664s2.06-10.865 2.138-11.254h1.982c-.103.558-2.187 11.554-2.187 11.554l-.117 1.197c-.01.8.19 1.457.599 1.947.57.705 1.556 1.065 2.935 1.065 1.247 0 2.332-.377 3.212-1.12.876-.74 1.446-1.75 1.684-2.996 0 0 2.13-11.257 2.208-11.647h1.028zm6.207-.494h-1.442l-3.47 18.228h2.984s1.35-7.141 1.57-8.297l4.439 8.297h3.595s-4.17-7.13-4.559-7.801h.922c1.658 0 3.034-.63 4.09-1.87 1.054-1.226 1.585-2.821 1.585-4.736 0-1.281-.446-2.251-1.33-2.889-.86-.617-2.17-.933-3.895-.933h-4.49zm0 .494h4.49c1.62 0 2.831.282 3.604.838.755.545 1.12 1.359 1.12 2.489 0 1.794-.49 3.28-1.457 4.419-.975 1.138-2.19 1.692-3.718 1.692h-1.783l4.558 7.802h-2.435l-4.956-9.258-.135.685-1.624 8.573h-1.981a59586.4 59586.4 0 013.283-17.24h1.034z"/><path fill="#FFF" d="M72.585 6.823h-.202l-1.167 6.044h2.84c1.659 0 2.893-.338 3.68-1.005.798-.677 1.199-1.742 1.188-3.166 0-.701-.267-1.203-.806-1.487-.49-.26-1.307-.386-2.496-.386h-3.037zm3.037.493c1.089 0 1.852.11 2.266.328.369.196.543.54.543 1.052v.04c0 1.252-.341 2.176-1.014 2.75-.695.59-1.826.887-3.361.887h-2.24c.095-.507.907-4.705.974-5.057h2.832zM86.251 4.2h-1.446l-3.471 18.228h2.988s1.352-7.141 1.567-8.297l4.442 8.297h3.59s-4.163-7.13-4.559-7.801h.922c1.66 0 3.035-.63 4.096-1.87 1.049-1.226 1.577-2.821 1.577-4.736 0-1.281-.442-2.251-1.326-2.889-.859-.617-2.17-.933-3.896-.933h-4.484zm0 .494h4.484c1.623 0 2.833.282 3.605.838.759.545 1.128 1.359 1.128 2.489 0 1.794-.492 3.28-1.465 4.419-.97 1.138-2.19 1.692-3.719 1.692h-1.782s4.165 7.13 4.562 7.802h-2.439l-4.951-9.258-.139.685s-1.55 8.193-1.628 8.573H81.93c.106-.557 3.209-16.855 3.284-17.24h1.038z"/><path fill="#FFF" d="M86.995 6.823h-.201l-1.167 6.044h2.84c1.654 0 2.892-.338 3.683-1.005.794-.677 1.198-1.742 1.188-3.166 0-.701-.27-1.203-.81-1.487-.492-.26-1.307-.386-2.495-.386h-3.038zm3.038.493c1.09 0 1.855.11 2.265.328.365.196.547.54.547 1.052v.04c0 1.252-.344 2.176-1.018 2.75-.69.59-1.826.887-3.36.887h-2.24c.094-.507.906-4.705.97-5.057h2.836zM107.769 4.2h-4.19l-9.482 18.228h3.175l2.453-4.81h6.892c.043.402.496 4.81.496 4.81h3.113l-2.238-18.229h-.22zm-2.018.494h1.805c.047.417 2.046 16.711 2.109 17.24h-2.105c-.039-.403-.5-4.811-.5-4.811h-7.635s-2.323 4.56-2.454 4.81h-2.063c.358-.685 8.841-16.982 8.976-17.24h1.867z"/><path fill="#FFF" d="M105.457 5.455l-4.987 9.664h6.392l-1.025-10.407-.38.743zm.05.978c.136 1.345.765 7.73.808 8.194h-5.034c.313-.61 3.599-6.98 4.227-8.194z"/><path fill="#1A65AA" d="M113.398 23.25c-.357 0-.634-.1-.833-.303-.202-.203-.297-.489-.304-.86 0-.327.08-.609.248-.847a1.42 1.42 0 01.708-.519l1.68-.594.174-.062c.228-.078.394-.184.5-.314a.509.509 0 00.114-.442.515.515 0 00-.196-.316.925.925 0 00-.612-.199c-.334 0-.66.05-.979.158a4.432 4.432 0 00-.985.488l.152-.801c.382-.242.708-.41.986-.506.273-.093.571-.141.897-.141.55 0 .95.141 1.208.425.188.206.282.471.282.8a2.2 2.2 0 01-.037.38l-.673 3.53h-.74l.144-.784c-.049.078-.11.147-.174.21-.436.465-.96.697-1.56.697zm2.081-2.731l-.454.188-1.066.41c-.316.121-.55.255-.691.399a.682.682 0 00-.214.505.58.58 0 00.181.437c.114.106.27.162.475.162.443 0 .816-.167 1.114-.496.276-.312.478-.752.606-1.323l.05-.282zm2.441-2.405c.168.053.317.078.45.078.108 0 .24-.025.396-.078l-.95 5.014h-.844l.949-5.014zm.686-1.312c.184 0 .319.035.4.105.079.067.106.172.079.302a.451.451 0 01-.2.31c-.102.068-.25.104-.436.104-.187 0-.318-.036-.396-.104-.077-.068-.106-.17-.077-.31a.464.464 0 01.194-.302c.103-.07.248-.105.436-.105zm1.385 1.312h.802l-.202 1.081c.114-.2.226-.376.348-.532.362-.448.755-.671 1.184-.671.155 0 .294.017.418.053l-.241.944a1.051 1.051 0 00-.465-.087c-.343 0-.64.135-.879.407-.24.27-.436.687-.588 1.251l-.482 2.568h-.844l.95-5.014z"/><script>try { Object.defineProperty(screen, &quot;availTop&quot;, { value: 0 }); } catch (e) {} try { Object.defineProperty(screen, &quot;availLeft&quot;, { value: 0 }); } catch (e) {} try { Object.defineProperty(screen, &quot;availWidth&quot;, { value: 1920 }); } catch (e) {} try { Object.defineProperty(screen, &quot;availHeight&quot;, { value: 1080 }); } catch (e) {} try { Object.defineProperty(screen, &quot;colorDepth&quot;, { value: 24 }); } catch (e) {} try { Object.defineProperty(screen, &quot;pixelDepth&quot;, { value: 24 }); } catch (e) {} try { Object.defineProperty(navigator, &quot;hardwareConcurrency&quot;, { value: 8 }); } catch (e) {} try { Object.defineProperty(navigator, &quot;appVersion&quot;, { value: &quot;5.0 (X11)&quot; }); } catch (e) {} try { Object.defineProperty(navigator, &quot;doNotTrack&quot;, { value: &quot;unspecified&quot; }); } catch (e) {} try { window.screenY = 0 } catch (e) { } try { window.screenTop = 0 } catch (e) { } try { window.top.window.outerHeight = window.screen.height } catch (e) { } try { window.screenX = 0 } catch (e) { } try { window.screenLeft = 0 } catch (e) { } try { window.top.window.outerWidth = window.screen.width } catch (e) { }</script></svg>