<svg viewBox="0 0 121 33.001" xmlns="http://www.w3.org/2000/svg"><path d="M70.81 11.22h-6.78V22.3c0 3.667-2.233 4.624-3.71 4.624-2.152 0-3.35-.957-3.35-3.708V11.22h-6.78v12.434c0 5.42 1.716 8.847 7.66 8.847 2.39 0 5.024-1.313 6.3-3.424h.08v2.83h6.58V11.22z" fill="#8cd0e0"/><path d="M72.4 31.91h6.78V3.458H72.4v28.45zm-42.59 0h19.7v-5.18H38.426l10.33-10.362v-5.14h-18.11v5.18h9.49L29.813 26.651v5.26zm-29.31 0h7.617l1.794-5.1h9.933l1.754 5.1h7.737L18.685 3.46H11.15L.5 31.908zm14.356-20.562h.08l3.15 9.963h-6.46l3.23-9.963z" fill="#002e5f"/><path d="M108.6 3.46h1.854v1.46h-1.856z" fill="#5061aa"/><path d="M101.76 19.11h5.675v6.05h-5.675z" fill="#8b328a"/><path d="M105.49 26.45h3.73v2.26h-3.73z" fill="#5d80c0"/><path d="M103.28 27.51h4.483v4.438h-4.482z" fill="#e94e29"/><path d="M108.84 23.48h3.838v1.68h-3.836z" fill="#d5262a"/><path d="M107.43 20.42h3.935v.995h-3.935z" fill="#f6a022"/><path d="M112.67 23.48h2.75v.757h-2.75z" fill="#6a95cd"/><path d="M107.43 15.6h3.76v4.82h-3.76z" fill="#306fb6"/><path d="M100.09 11.91h7.35v7.203h-7.35z" fill="#73c8dd"/><path d="M95.81 11.91h4.908v3.984H95.81z" fill="#92c143"/><path d="M102.18 5.16h8.316v6.797h-8.316z" fill="#5061aa"/><path d="M111.19 12.79h6.06v7.397h-6.06z" fill="#169bd6"/><path d="M110.23 17h5.187v6.5h-5.188z" fill="#f6a022"/><path d="M107.43 21.4h3.838v3.753h-3.838z" fill="#d5262a"/><path d="M105.19 23.76h4.952v2.72h-4.954z" fill="#199aa6"/><path d="M115.41 19.53h1.06v3.257h-1.06z" fill="#a5bfdf"/><path d="M117.24 12.56h2.773v1.714h-2.772z" fill="#3fb7af"/><path d="M116.99 14.27h2v1.115h-2z" fill="#ae2258"/><path d="M107.43 9.02h3.76v6.594h-3.76z" fill="#79c199"/><path d="M111.19 6.36h5.058v6.425h-5.056z" fill="#e5df1f"/><path d="M110.49 5.16h3.687v6.024h-3.687z" fill="#33bacf"/><path d="M115.47 11.02h5.03v1.77h-5.03z" fill="#6ca9db"/><path d="M116.25 7.14h2.402v3.882h-2.402z" fill="#de5097"/><path d="M117.93 8.36h2.228v1.628h-2.228z" fill="#604596"/><path d="M117.36 9.99h3.145v1.627h-3.145z" fill="#fad803"/><path d="M108.58 3.39h1.89v1.53h-1.89zm-6.402.047h3.43V7.24h-3.43z" fill="#5061aa"/><path d="M91.59 3.44h10.61v8.52H91.59z" fill="#0bb8e7"/><path d="M97.03.5h3.692v4.805H97.03z" fill="#41ad4c"/><path d="M89.35 11.23h6.85v2.67h-6.85z" fill="#e7b720"/><path d="M105.6.94h2.66v4.224h-2.66z" fill="#b9cf37"/><path d="M109.15 17h1.077v1.074h-1.08z" fill="#92c143"/></svg>