<svg xmlns="http://www.w3.org/2000/svg" width="1802.908" height="279.295"><path fill="#f03" d="M0 0h1802.908v279.295H0z"/><path d="M701.455 70.368c-13.358 0-27.75 2.522-38.722 10.178-10.814 7.665-17.254 20.647-17.254 33.792 0 32.002 30.024 38.824 55.34 43.732 6.107 1.18 16.539 2.802 16.539 11.052 0 7.452-10.623 8.19-15.903 8.19-11.99 0-21.039-4.323-24.569-16.3l-38.325 6.917.716 2.704.874 2.544.955 2.545 1.033 2.385 1.113 2.306 1.193 2.147 1.352 2.146 1.352 1.988 1.51 1.909 1.511 1.828 1.67 1.67 1.67 1.67 1.828 1.51 1.83 1.511 1.907 1.352 1.988 1.272 1.988 1.193 2.147 1.113 2.147 1.034 2.226.954 2.226.874 2.306.716 2.385.716 2.386.636 2.385.556 2.545.477 2.464.398 2.545.318 2.624.239 2.544.159 2.624.159h2.624c27.893 0 60.111-12.932 60.111-45.322 0-14.735-6.87-27.359-20.037-34.429-11.768-6.087-25.333-8.177-38.086-10.734-5.089-1.18-14.869-2.55-14.869-9.621 0-7.067 7.776-8.667 13.278-8.667 10.4 0 17.875 3.505 21.787 13.517l34.19-10.336c-8.237-23.358-30.803-32.998-54.148-32.998zm300.238 0c-13.326 0-27.639 2.522-38.643 10.178-10.782 7.665-17.254 20.647-17.254 33.792 0 32.002 30.024 38.824 55.34 43.732 6.075 1.18 16.46 2.802 16.46 11.052 0 7.452-10.592 8.19-15.903 8.19-11.959 0-20.96-4.323-24.49-16.3l-38.325 6.917.795 2.704.795 2.544.955 2.545 1.033 2.385 1.113 2.306 1.193 2.147 1.352 2.146 1.352 1.988 1.51 1.909 1.511 1.828 1.67 1.67 1.67 1.67 1.828 1.51 1.83 1.511 1.907 1.352 1.988 1.272 1.988 1.193 2.147 1.113 2.147 1.034 2.226.954 2.226.874 2.306.716 2.385.716 2.386.636 2.465.556 2.465.477 2.464.398 2.545.318 2.624.239 2.544.159 2.624.159h2.703c27.861 0 60.032-12.932 60.032-45.322 0-14.735-6.902-27.359-20.037-34.429-11.768-6.087-25.333-8.177-38.086-10.734-5.089-1.18-14.949-2.55-14.949-9.621 0-7.067 7.856-8.667 13.358-8.667 10.4 0 17.875 3.505 21.787 13.517l34.19-10.336c-8.237-23.358-30.85-32.998-54.227-32.998zm638.004 0c-13.357 0-27.718 2.522-38.722 10.178-10.782 7.665-17.254 20.647-17.254 33.792 0 32.002 30.024 38.824 55.34 43.732 6.107 1.18 16.539 2.802 16.539 11.052 0 7.452-10.591 8.19-15.903 8.19-11.958 0-21.038-4.323-24.569-16.3l-38.245 6.917.715 2.704.796 2.544.954 2.545 1.033 2.385 1.114 2.306 1.192 2.147 1.352 2.146 1.352 1.988 1.51 1.909 1.511 1.828 1.67 1.67 1.67 1.67 1.828 1.51 1.83 1.511 1.907 1.352 1.988 1.272 2.068 1.193 2.067 1.113 2.147 1.034 2.226.954 2.226.874 2.386.716 2.306.716 2.385.636 2.465.556 2.465.477 2.465.398 2.544.318 2.624.239 2.624.159 2.544.159h2.703c27.893 0 60.032-12.932 60.032-45.322 0-14.735-6.822-27.359-19.957-34.429-11.8-6.087-25.413-8.177-38.166-10.734-5.12-1.18-14.869-2.55-14.869-9.621 0-7.067 7.856-8.667 13.358-8.667 10.4 0 17.843 3.505 21.786 13.517l34.111-10.336c-8.237-23.358-30.771-32.998-54.148-32.998zm-1526.79 1.988V206.97h61.701c12.175 0 26.64-.166 37.053-7.633 9.615-6.857 13.756-19.815 13.756-31.408 0-16.1-10.563-27.867-26.08-30.612 13.752-3.53 22.74-15.517 22.74-29.658 0-10.995-5.28-21.993-14.312-28.465-8.447-6.087-18.813-6.838-29.022-6.838zm192.022 0L263.105 206.97h33.554l8.27-26.478h35.94l7.632 26.478h42.221l-42.22-134.614zm129.525 0V206.97h101.14v-32.203h-60.669v-21.786h49.06v-29.976h-49.06v-19.64h60.668V72.357zm353.113 0l45.401 77.683v56.93h39.995v-56.93l42.22-77.683h-36.098l-22.581 44.288-23.536-44.288zm309.222 0v32.361h28.227V206.97h39.279V104.717h27.67V72.356zm140.578 0V206.97h101.06v-32.203h-60.668v-21.786h49.059v-29.976h-49.06v-19.64h60.668V72.357zm151.788 0V206.97h31.09v-96.21l25.682 96.21h26.318l24.57-96.21.317 96.21h38.484V72.356h-54.386l-18.447 71.402-19.56-71.402zm-1238.32 28.783h16.06c7.853 0 16.142 1.438 16.142 11.45 0 3.142-1.352 6.476-3.896 8.826-2.945 2.745-7.684 2.544-11.61 2.544h-16.697zm171.984 10.814l10.973 39.12h-22.025zm-171.985 40.63h16.3c3.728 0 8.464.064 12.007 1.83 3.924 1.962 6.44 6.065 6.44 10.574 0 3.728-1.988 7.22-4.93 9.383-3.33 2.745-7.801 2.544-11.926 2.544h-17.89z" fill="#fff"/></svg>