<svg viewBox="0 0 700 115.31" xmlns="http://www.w3.org/2000/svg"><defs><clipPath id="c"><path d="M431.91 445.93h119.35v18.215H431.91V445.93z"/></clipPath><clipPath id="a"><path d="M431.91 445.93h119.35v18.216H431.91V445.93z"/></clipPath><linearGradient id="b" x2="1" gradientTransform="matrix(-6.0998 -10.444 -10.565 6.0298 546.19 461.37)" gradientUnits="userSpaceOnUse"><stop stop-color="#e0e3f3" offset="0"/><stop stop-color="#4f71b7" offset=".4"/><stop stop-color="#0054a6" offset=".9"/><stop stop-color="#0054a6" offset="1"/></linearGradient></defs><g clip-path="url(#a)" transform="matrix(5.7814 0 0 -5.7814 -2492.079 2688.43)"><path d="M473.746 446.081c.177.079.365.354.365.715v2.99c-.435.049-1.043.07-1.725.07-.692 0-1.304-.021-1.75-.07v-2.99c0-.36.183-.624.362-.715h-2.408c.178.079.369.354.369.715v6.596c0 .366-.19.636-.37.724H471c-.18-.088-.363-.358-.363-.724v-2.702a18.022 18.022 0 011.75-.069c.682 0 1.29.03 1.725.07v2.7c0 .367-.188.637-.365.725h2.405c-.18-.088-.358-.358-.358-.724v-6.596c0-.36.178-.624.358-.715h-2.405zm-7.813 1.818c0 1.53-3.646 1.876-3.646 4.318 0 1.513 1.455 2.008 2.735 2.008.57 0 1.397-.078 1.92-.315l.09-1.503c-.321.664-1.124 1.145-1.87 1.145-.59 0-1.209-.29-1.209-.956 0-1.587 3.709-1.975 3.709-4.289 0-1.679-1.485-2.375-2.983-2.375-.784 0-1.85.15-2.51.596a5.6 5.6 0 00-.06.824c0 .329.03.657.079.98.413-.928 1.266-1.655 2.332-1.655.81 0 1.413.35 1.413 1.222m-7.372-1.818c.2.09.41.354.41.715v6.596c0 .366-.21.625-.41.724h2.501c-.212-.099-.415-.358-.415-.724v-6.596c0-.36.203-.624.415-.715h-2.5zm-5.597 0c.268.121.399.434.399.715v6.398h-1.796c-.415 0-.909-.05-1.265-.259l.559 1.181h5.958c.483 0 .976.011 1.445.11-.227-.605-.903-1.053-1.292-1.053-.473.01-1.256.041-1.93.041v-6.418c0-.28.14-.594.404-.715h-2.482zm-5.428 0c.201.09.413.354.413.715v6.596c0 .366-.212.625-.413.724h2.501c-.214-.099-.41-.358-.41-.724v-6.596c0-.36.196-.624.41-.715h-2.501zm-1.668-.047c-.312 0-.655-.012-.953.075-.553.162-1.317 1.395-1.62 1.878-.473.787-.884 1.869-1.943 1.88v-3.07c0-.269.124-.595.386-.716h-2.441c.256.132.379.434.379.715v6.596c0 .28-.123.584-.38.724h2.94c1.279 0 2.879-.485 2.879-2.003 0-1.275-1.067-1.928-2.256-1.928 1.693-.01 2.686-3.933 4.554-3.945a5.511 5.511 0 00-1.545-.206m-4.098 7.39c-.146 0-.274-.023-.418-.043v-2.779c.134-.009.254-.023.386-.023.915 0 1.591.5 1.591 1.482 0 1.005-.665 1.363-1.56 1.363m-7.075-3.568c-.232 0-.441 0-.724-.021v-2.97c.353-.069.734-.09 1.085-.09.816 0 1.645.359 1.645 1.591 0 1.216-.98 1.49-2.006 1.49m-.203 3.568c-.147 0-.25 0-.521-.032v-2.813h.321c.975 0 1.917.298 1.917 1.414 0 1.108-.753 1.431-1.717 1.431m-2.574-7.343c.261.132.379.447.379.715v6.596c0 .28-.118.584-.38.724h3.18c1.42 0 2.802-.574 2.802-2.165 0-.844-.744-1.51-1.547-1.66 1.156.011 2.273-.687 2.273-1.948 0-1.802-1.912-2.262-3.257-2.262h-3.45zm93.576 1.818c0 1.53-3.647 1.876-3.647 4.318 0 1.513 1.451 2.008 2.732 2.008.573 0 1.394-.078 1.92-.315l.09-1.503c-.324.664-1.125 1.145-1.872 1.145-.59 0-1.204-.289-1.204-.956 0-1.587 3.708-1.975 3.708-4.289 0-1.679-1.474-2.375-2.983-2.375-.783 0-1.852.15-2.514.596a5.27 5.27 0 00-.063.824c0 .329.031.657.081.981.413-.93 1.27-1.656 2.335-1.656.813 0 1.417.35 1.417 1.222m-4.507 5.374l-1.925-3.338v-3.138c0-.256.106-.595.363-.716h-2.395c.244.133.357.469.357.716v3.148l-1.673 2.651c-.15.248-.849 1.403-1.7 1.403.232.086.936.22 1.408.22.787 0 1.178-.072 1.66-.818l1.549-2.426c.13.238 1.356 2.345 1.356 2.345.148.257.25.438.25.528 0 .116-.051.19-.17.268h1.726c-.34-.16-.62-.527-.806-.843m-7.345-7.192c.084.079.148.137.148.28 0 .048-.024.128-.074.278 0 0-.663 1.796-.744 2.004-.505.061-1.027.061-1.54.061-.48 0-.973-.01-1.457-.06-.07-.18-.78-1.967-.78-1.967-.103-.241-.131-.323-.131-.376 0-.12.1-.178.186-.22h-1.636c.243.121.451.37.552.619l2.698 6.86c.008.029.016.06.016.1a.535.535 0 01-.303.456h2.11l2.735-7.41c.113-.297.354-.514.553-.625h-2.333zm-2.12 6.506l-1.233-3.128c.371-.04.752-.05 1.123-.05.422 0 .848 0 1.26.05l-1.15 3.128zm-2.954.745l-2.47-7.25a.97.97 0 00-.518.147c-.243.233-.627 1.204-.766 1.562l-1.116 2.788-1.609-4.498h-.765l-2.764 7.269c-.12.31-.322.607-.623.766h2.402a.382.382 0 01-.17-.335c0-.08.04-.192.07-.28l1.8-4.808 1.916 5.423 2.111-5.228 1.6 4.733c.04.128.063.176.063.256 0 .1-.043.162-.144.24h1.591c-.294-.153-.507-.486-.608-.785m-10.141-7.298c-.312 0-.648-.012-.953.075-.554.162-1.316 1.395-1.62 1.878-.47.787-1.083 1.88-2.135 1.88v-3.07c0-.269.118-.595.376-.716h-2.439c.262.133.384.434.384.716v6.595c0 .28-.122.584-.384.724h2.946c1.275 0 2.872-.485 2.872-2.003 0-1.275-1.166-1.928-2.047-1.928 1.754-.1 2.811-3.945 4.551-3.945a5.543 5.543 0 00-1.551-.206m-4.303 7.39c-.135 0-.265-.023-.405-.043v-2.779c.13-.009.249-.023.376-.023.917 0 1.592.5 1.592 1.482 0 1.005-.668 1.363-1.563 1.363m-6.3-7.343c.2.091.41.355.41.716v6.595c0 .366-.21.625-.41.724h2.5c-.214-.099-.411-.358-.411-.724v-6.595c0-.361.197-.625.41-.716h-2.5zm-4.868 6.506l-1.232-3.128c.367-.04.748-.05 1.12-.05.426 0 .847 0 1.262.05l-1.15 3.128zm2.124-6.506c.078.079.148.137.148.28a.85.85 0 01-.078.278s-.667 1.796-.746 2.004c-.501.061-1.024.061-1.536.061-.485 0-.978-.01-1.46-.06-.068-.18-.783-1.967-.783-1.967-.097-.241-.13-.323-.13-.376 0-.12.104-.178.192-.22h-1.636c.241.121.45.37.553.619l2.69 6.86c.012.029.017.06.017.1a.538.538 0 01-.299.456h2.11l2.734-7.41c.112-.297.35-.514.55-.625h-2.326z" fill="#0054a6"/></g><path d="M547.93 459.74c-1.366-1.343-4.327-2.495-5.784-3.035-1.991-.739-2.874-1.001-3.988-1.36a280.739 280.739 0 00-3.782-1.158c5.224-1.541 8.904-2.006 8.904-2.006s1.715.523 4.432 1.959c1.471.739 2.195 1.237 2.713 1.713.19.17.683.678.806 1.328.008.041.027.143.031.25v.092a1.611 1.611 0 01-.007.111.64.64 0 01-.018.144s-.029.154-.068.262-.208.442-.48.658c-.183.147-.497.51-1.636.906-.388.133-1.014.256-1.014.256l-.109-.12z" fill="url(#b)" transform="matrix(5.7814 0 0 -5.7814 -2492.079 2688.43)"/><g clip-path="url(#c)" transform="matrix(5.7814 0 0 -5.7814 -2492.079 2688.43)"><path d="M551.264 457.51s-.008.143-.043.265a1.02 1.02 0 01-.15.321c-.09.13-.21.281-.387.45a3.557 3.557 0 01-.458.353c-.713.461-1.632.721-2.447.831-1.26.166-2.707.137-2.844.142-.466.006-3.472-.018-4.245-.032-3.432-.07-7.634-.08-8.735-.08-11.36-.05-16.307.191-21.811 1.282-4.683.92-7.28 1.793-7.28 1.793 4.13.141 28.229 1.13 32.625 1.246 2.879.08 4.922.097 6.557.003a22.206 22.206 0 002.599-.28c.878-.15 1.677-.402 2.142-.573.979-.358 1.804-.876 2.212-1.407 0 0 .12-.122.284-.34.184-.252.396-.562.469-.678.595-.892.878-1.453.977-1.648.106-.206.2-.419.291-.628.09-.207.126-.332.155-.42.063-.22.079-.42.081-.464l.008-.136z" fill="#ed1c28"/></g></svg>