<svg xmlns="http://www.w3.org/2000/svg" width="320" height="93.739" viewBox="0 0 300 87.88" id="svg2" version="1.1"><g id="layer1" transform="translate(-259.624 -548.044)"><path id="path3376" d="M275.469 556.164l31.576-.01c-9.82 8.81-15.997 21.598-15.997 35.83 0 1.668.084 3.319.25 4.944H273.22c-5.638-14.385-11.748-30.234-12.916-33.138-2.138-5.317 1.026-7.626 6-7.626h9.166zm95.793-.03l180.964-.056c6.087 0 8.49 4.027 6.942 7.976-.852 2.174-7.657 18.315-13.84 32.874H387.03c.167-1.625.252-3.276.252-4.944 0-14.243-6.188-27.04-16.021-35.85zm172.645 44.137c-4.463 10.494-8.312 19.47-8.906 20.69-1.46 3-3 5.907-12.08 5.907H372.308c7.325-6.961 12.461-16.208 14.264-26.597h157.336zm-237.883 26.597h-6.56c-10.548 0-14.225-1.71-16.277-5.395-.843-1.513-4.496-10.624-8.656-21.202h17.227c1.804 10.389 6.94 19.636 14.266 26.597" fill="#e31d1a" fill-opacity="1" fill-rule="evenodd" stroke="none"/><path id="path3378" d="M339.165 548.044c24.267 0 43.94 19.671 43.94 43.94 0 24.267-19.673 43.94-43.94 43.94s-43.94-19.673-43.94-43.94c0-24.269 19.673-43.94 43.94-43.94" fill="#e31d1a" fill-opacity="1" fill-rule="nonzero" stroke="none"/><path id="path3380" d="M366.167 595.946s-1.863-4.04-5.566-6.116c-3.705-2.075-8.75-2.238-8.75-2.238s-12.013 6.275-18.247 12.327c-6.233 6.053-9.305 12.649-9.305 12.649s-3.433-2.62-3.388-3.884c.045-1.264 5.96-8.72 11.652-13.054 5.692-4.335 14.275-7.904 14.275-7.904s-10.437.678-21.682 7.001c-11.245 6.324-20.506 16.938-20.506 16.938s4.245-8.715 17.976-17.39c13.73-8.672 24.058-9.61 31.557-8.857 11.697 1.173 11.984 10.528 11.984 10.528zm-14.463-14.12c.656-.388-.47-2.133-1.884-2.2-1.413-.069-3.26.755-3.26.755s4.488 1.832 5.144 1.446zm10.437-3.577c.714-.268-.092-2.183-1.472-2.495-1.38-.312-3.341.178-3.341.178s4.1 2.585 4.813 2.317zm-1.419 6.557s-.796-1.778-2.968-3.156c-2.173-1.378-4.279-2.032-4.279-2.032l-.349-2.688s-11.757-3.27-24.706.328c-12.949 3.596-22.555 11.498-22.555 11.498s8.81-10.47 26.178-15.963c17.367-5.495 31.787-.936 32.396-.141.607.795.82 3.015 1.636 3.202.817.187 3.858.468 5.61 2.922 1.751 2.453.842 6.123.842 6.123s-2.969-1.799-6.405-1.565c-3.436.234-5.4 1.472-5.4 1.472" fill="#fff" fill-opacity="1" fill-rule="evenodd" stroke="none"/><path id="path3382" d="M497.635 618.498l.094-1.493c.333.197.717.354 1.153.469.436.115.804.173 1.102.173.487 0 .916-.104 1.29-.314.374-.21.56-.537.56-.983a.955.955 0 00-.468-.845c-.313-.203-.838-.472-1.575-.811-.739-.339-1.292-.681-1.662-1.026-.371-.345-.556-.8-.556-1.368 0-.905.324-1.597.97-2.073.647-.477 1.48-.716 2.503-.716.634 0 1.386.118 2.255.356l-.155 1.459c-.194-.114-.503-.22-.926-.317-.421-.098-.749-.147-.982-.147-.498 0-.912.094-1.242.283-.33.19-.495.463-.495.818 0 .402.152.7.455.896.302.194.826.452 1.567.772.743.319 1.301.66 1.677 1.02.375.362.563.87.563 1.523 0 .616-.159 1.135-.473 1.56a2.86 2.86 0 01-1.264.95 4.537 4.537 0 01-1.694.314c-1.13 0-2.029-.167-2.697-.5zm-12.151-5.115h5.09c0-.465-.098-.89-.293-1.276a2.208 2.208 0 00-.845-.912c-.369-.222-.805-.333-1.311-.333-.555 0-1.024.122-1.403.365-.38.244-.668.557-.865.937-.195.38-.32.786-.373 1.22zm6.266 3.358v1.67l-.56.192a8.542 8.542 0 01-.688.195 7.7 7.7 0 01-.816.144 8.64 8.64 0 01-1.038.056c-1.13 0-2.076-.2-2.84-.6-.764-.403-1.33-.967-1.7-1.699-.368-.732-.553-1.6-.553-2.603 0-.885.192-1.675.575-2.373a4.07 4.07 0 011.624-1.628c.7-.39 1.502-.584 2.41-.584 1.047 0 1.894.217 2.54.648a3.566 3.566 0 011.382 1.793c.278.764.417 1.654.417 2.675h-7.02c0 .576.15 1.096.448 1.558.297.463.695.822 1.19 1.078a3.44 3.44 0 001.602.384c.54 0 1.113-.1 1.723-.303.609-.202 1.043-.403 1.304-.603zm-22.854 2.043v-9.06h1.75v1.441a3.15 3.15 0 011.328-1.207 4.259 4.259 0 011.935-.447c1.242 0 2.167.335 2.773 1.006.605.672.909 1.633.909 2.884v5.383h-1.813v-4.688c0-.722-.065-1.315-.195-1.778-.13-.462-.348-.813-.655-1.053-.305-.24-.716-.375-1.23-.403-.996 0-1.742.334-2.242 1.004-.499.67-.747 1.577-.747 2.725v4.193h-1.813zm-6.759-12.967v1.883h-2.043v-1.883h2.043zm-1.926 12.967v-9.06h1.814v9.06h-1.814zm-9.338 0v-13.323h1.813v13.323h-1.813zm-10.863 0v-9.06h1.694v1.405a3.397 3.397 0 011.12-1.165c.476-.302.97-.453 1.485-.453.359 0 .757.041 1.197.125v1.493a2.807 2.807 0 00-1.004-.161 2.32 2.32 0 00-1.408.446c-.405.299-.718.727-.94 1.287-.22.56-.331 1.214-.331 1.963v4.12h-1.813zm-7.736-12.967v1.883h-2.044v-1.883h2.044zm-1.926 12.967v-9.06h1.813v9.06h-1.813zm-9.713-4.583l-2.388-6.147-2.385 6.147h4.773zm-8.343 4.583l5.116-12.4h1.803l5.063 12.4h-1.87l-1.219-3.126h-5.872l-1.22 3.126h-1.801" fill="#fff" fill-opacity="1" fill-rule="evenodd" stroke="none"/><path id="path3384" d="M437.136 571.593v-8.43h-25.795c-8.875 0-14.354 5.391-15.507 8.972-1.153 3.58-.838 9.265-.838 9.265h29.139s.062 1.624-1.51 1.624h-27.63v7.79h25.483c7.68 0 12.123-3.03 13.997-4.899 1.876-1.868 2.657-3.58 2.657-4.17v-8.233h-29.187s.776-1.82 2.505-1.82c1.73 0 26.686-.099 26.686-.099zm14.587.104h19.803c.661 0 1.197.41 1.197.918 0 .507-.536.918-1.197.918h-15.712v7.815h15.712c.661 0 1.197.411 1.197.917 0 .507-.536.919-1.197.919h-19.803v-11.487zm-9.454-8.543h34.852c4.48 0 8.111 3.038 8.111 6.786 0 3.163-2.587 5.82-6.087 6.573 3.5.81 6.087 3.672 6.087 7.079 0 4.036-3.631 7.308-8.11 7.308h-34.853v-27.746zm57.894 13.317c.343-2.807 2.883-4.988 5.966-4.988H521.4v4.988h-21.237zm-12.349.97c0-7.906 6.828-14.316 15.251-14.316h28.29v27.938h-9.82v-6.669H500.02v6.669h-12.205v-13.621" fill="#fff" fill-opacity="1" fill-rule="evenodd" stroke="none"/><path id="path3386" d="M437.136 571.593v-8.43h-25.795c-8.875 0-14.354 5.391-15.507 8.972-1.153 3.58-.838 9.265-.838 9.265h29.139s.062 1.624-1.51 1.624h-27.63v7.79h25.483c7.68 0 12.123-3.03 13.997-4.899 1.876-1.868 2.657-3.58 2.657-4.17v-8.233h-29.187s.776-1.82 2.505-1.82c1.73 0 26.686-.099 26.686-.099h0zm14.587.104h19.803c.661 0 1.197.41 1.197.918 0 .507-.536.918-1.197.918h-15.712v7.815h15.712c.661 0 1.197.411 1.197.917 0 .507-.536.919-1.197.919h-19.803v-11.487zm-9.454-8.543h34.852c4.48 0 8.111 3.038 8.111 6.786 0 3.163-2.587 5.82-6.087 6.573 3.5.81 6.087 3.672 6.087 7.079 0 4.036-3.631 7.308-8.11 7.308h-34.853v-27.746zm57.894 13.317c.343-2.807 2.883-4.988 5.966-4.988H521.4v4.988h-21.237 0zm-12.349.97c0-7.906 6.828-14.316 15.251-14.316h28.29v27.938h-9.82v-6.669H500.02v6.669h-12.205v-13.621z" fill="none" stroke="#fff" stroke-width="6.07" stroke-linecap="round" stroke-linejoin="round" stroke-miterlimit="3.864" stroke-dasharray="none" stroke-opacity="1"/><path id="path3388" d="M437.136 571.593v-8.43h-25.795c-8.875 0-14.354 5.391-15.507 8.972-1.153 3.58-.838 9.265-.838 9.265h29.139s.062 1.624-1.51 1.624h-27.63v7.79h25.483c7.68 0 12.123-3.03 13.997-4.899 1.876-1.868 2.657-3.58 2.657-4.17v-8.233h-29.187s.776-1.82 2.505-1.82c1.73 0 26.686-.099 26.686-.099zm14.587.104h19.803c.661 0 1.197.41 1.197.918 0 .507-.536.918-1.197.918h-15.712v7.815h15.712c.661 0 1.197.411 1.197.917 0 .507-.536.919-1.197.919h-19.803v-11.487zm-9.454-8.543h34.852c4.48 0 8.111 3.038 8.111 6.786 0 3.163-2.587 5.82-6.087 6.573 3.5.81 6.087 3.672 6.087 7.079 0 4.036-3.631 7.308-8.11 7.308h-34.853v-27.746zm57.894 13.317c.343-2.807 2.883-4.988 5.966-4.988H521.4v4.988h-21.237zm-12.349.97c0-7.906 6.828-14.316 15.251-14.316h28.29v27.938h-9.82v-6.669H500.02v6.669h-12.205v-13.621" fill="#231f20" fill-opacity="1" fill-rule="evenodd" stroke="none"/><path id="path3390" d="M452.596 572.754h2.145v9.502h-2.145v-9.502" fill="#fff" fill-opacity="1" fill-rule="nonzero" stroke="none"/><path id="path3392" d="M452.596 572.754h2.145v9.502h-2.145v-9.502z" fill="none" stroke="#fff" stroke-width=".144" stroke-linecap="butt" stroke-linejoin="miter" stroke-miterlimit="3.864" stroke-dasharray="none" stroke-opacity="1"/><path id="path3394" d="M500.163 576.47c.343-2.806 2.883-4.987 5.966-4.987H521.4v4.988h-21.237" fill="#fff" fill-opacity="1" fill-rule="nonzero" stroke="none"/></g><script>try { Object.defineProperty(screen, &quot;availTop&quot;, { value: 0 }); } catch (e) {} try { Object.defineProperty(screen, &quot;availLeft&quot;, { value: 0 }); } catch (e) {} try { Object.defineProperty(screen, &quot;availWidth&quot;, { value: 1920 }); } catch (e) {} try { Object.defineProperty(screen, &quot;availHeight&quot;, { value: 1080 }); } catch (e) {} try { Object.defineProperty(screen, &quot;colorDepth&quot;, { value: 24 }); } catch (e) {} try { Object.defineProperty(screen, &quot;pixelDepth&quot;, { value: 24 }); } catch (e) {} try { Object.defineProperty(navigator, &quot;hardwareConcurrency&quot;, { value: 8 }); } catch (e) {} try { Object.defineProperty(navigator, &quot;appVersion&quot;, { value: &quot;5.0 (X11)&quot; }); } catch (e) {} try { Object.defineProperty(navigator, &quot;doNotTrack&quot;, { value: &quot;unspecified&quot; }); } catch (e) {} try { window.screenY = 0 } catch (e) { } try { window.screenTop = 0 } catch (e) { } try { window.top.window.outerHeight = window.screen.height } catch (e) { } try { window.screenX = 0 } catch (e) { } try { window.screenLeft = 0 } catch (e) { } try { window.top.window.outerWidth = window.screen.width } catch (e) { }</script></svg>