<svg xmlns="http://www.w3.org/2000/svg" width="250" height="80.667"><path fill="#F0B600" d="M170.121 59.794c0-6.608-5.902-7.028-10.962-7.028-4.769 0-10.372.792-11.85 7.215l7.8.936c.681-1.499 1.27-2.668 3.924-2.668 1.771 0 3.036.75 3.036 2.014 0 .191-.043.754-.251 1.642-.932.278-1.689.468-4.851.84-6.158.706-12.062 1.364-12.062 8.294 0 .845.082 2.768 1.477 4.547 1.014 1.271 2.273 2.582 6.284 2.582 4.006 0 6.323-2.349 7.342-3.33 0 1.074.038 1.449.294 2.764h8.178c-.252-.845-.551-1.782-.551-3.375 0-1.876.676-5.102 1.058-6.887.844-3.891 1.134-5.904 1.134-7.546zm-10.412 10.728c-.883 1.499-2.529 2.581-4.049 2.581-1.347 0-2.573-.845-2.573-2.529 0-2.391 2.867-2.858 6.622-3.612l1.178-.234c-.207 1.217-.42 2.481-1.178 3.794zm-37.952-12.651c2.49 0 2.785 1.403 2.954 2.206l7.843-.936c-.632-3.378-2.191-6.375-9.653-6.375-9.45 0-11.685 5.622-11.685 8.574 0 5.341 5.097 6.329 8.35 6.892 2.486.416 3.625.649 3.625 2.247 0 2.062-2.321 2.577-3.499 2.577-2.906 0-3.335-2.156-3.496-2.954l-8.268.798c.547 4.825 3.032 7.268 10.504 7.268 5.772 0 8.22-1.365 10.242-3.33 2.065-2.015 2.403-4.172 2.403-5.713 0-4.691-3.292-5.956-7.843-6.709-2.568-.42-4.557-.698-4.557-2.478.001-.706.594-2.067 3.08-2.067z"/><path fill="#FDECCA" d="M178.415 31.812c3.568-2.135 6.583-4.127 15.133-5.43.064-.009.125-.027.159-.069.062-.074.053-.199-.069-.278a.592.592 0 00-.259-.069 11.93 11.93 0 00-1.105-.038c-3.252 0-9.522.813-14.573 3.04-5.925 2.621-9.818 7.216-13.2 10.079h5.578c2.433-1.921 4.517-4.952 8.336-7.235z"/><path fill="#F0B600" d="M111.154 44.052h-8.392l-1.183 6.418h8.394zm35.883 0h-8.39l-6.452 33.549h8.432zM96.313 77.601h8.432l4.677-24.273h-8.432z"/><path fill="#283C66" d="M9.823 44.052L3.408 77.601h7.8l.806-3.981c.801 1.451 2.525 4.548 7.25 4.548 7.341 0 10.502-9.187 10.502-15.237 0-3.183-.927-10.164-7.635-10.164-2.486 0-3.963.562-6.029 2.299l2.104-11.013H9.823zm8.813 14.807c2.954 0 2.954 3.469 2.954 4.118 0 5.254-2.113 8.905-4.474 8.905-.888 0-3.206-.611-3.206-4.262.001-3.282 1.348-8.761 4.726-8.761z"/><path fill="#F0B600" d="M219.339 77.601l6.496-33.549h-8.393l-2.409 12.507c-.883-1.359-2.567-3.841-6.955-3.841-6.492 0-10.42 7.822-10.42 15.366 0 5.064 1.943 10.083 7.639 10.083 3.115 0 4.597-1.083 6.614-3.097l.091.091-.421 2.439h7.758zm-10.624-5.528c-1.312 0-2.867-.94-2.867-4.219 0-4.781 1.937-8.856 4.469-8.856.676 0 3.201.42 3.201 4.262 0 1.784-.801 8.813-4.803 8.813zm-23.981 5.528h8.396l2.82-14.713c.299-1.595.55-3.513.55-4.311 0-.423 0-5.811-5.946-5.811-4.635 0-6.916 2.528-8.433 4.314l-.082-.096.719-3.655h-7.853l-4.672 24.272h8.432l2.065-10.595c.551-2.897 2.027-7.445 5.314-7.445.88 0 1.643.611 1.643 2.015 0 .653-.044.84-.335 2.394l-2.618 13.631z"/><path fill="#283C66" d="M43.596 67.997c-.295 1.59-.546 3.556-.546 4.353 0 .378 0 5.817 5.986 5.817 4.638 0 6.917-2.534 8.436-4.361l.083.095-.759 3.7h7.888l4.682-24.272h-8.441l-2.062 10.593c-.55 2.897-2.023 7.35-5.358 7.35-.84 0-1.598-.515-1.598-1.961 0-.615 0-.802.291-2.348l2.654-13.634h-8.389l-2.867 14.668zm-13.812 9.604h8.437l6.409-33.549h-8.389z"/><path fill="#F0B600" d="M236.143 57.871c2.491 0 2.785 1.403 2.954 2.206l7.843-.936c-.632-3.378-2.195-6.375-9.657-6.375-9.446 0-11.677 5.622-11.677 8.574 0 5.341 5.098 6.329 8.347 6.892 2.485.416 3.619.649 3.619 2.247 0 2.062-2.312 2.577-3.499 2.577-2.905 0-3.325-2.156-3.494-2.954l-8.265.798c.546 4.825 3.032 7.268 10.499 7.268 5.777 0 8.225-1.365 10.247-3.33 2.065-2.015 2.403-4.172 2.403-5.713 0-4.691-3.291-5.956-7.843-6.709-2.569-.42-4.552-.698-4.552-2.478 0-.706.589-2.067 3.075-2.067z"/><path fill="#283C66" d="M94.52 62.978c0-1.312-.213-5.292-3.379-7.913-1.303-1.079-3.325-2.299-8.051-2.299-3.291 0-5.777.515-8.523 2.672-3.412 2.716-5.475 6.891-5.475 11.568 0 3.283 1.006 5.722 2.317 7.407 1.517 1.971 3.877 3.755 9.615 3.755 7.626 0 10.459-3.469 12.183-6.801l-8.095-.844c-.671.94-1.559 2.205-3.88 2.205-3.5 0-3.834-3.656-3.92-4.873h16.652c.131-.85.556-3.283.556-4.877zm-8.312.376H78.07c1.014-3.937 3.162-5.154 4.808-5.154 1.814 0 3.461 1.126 3.461 3.75 0 .465-.087 1.31-.131 1.404z"/><path fill="#FDECCA" d="M119.51 11.552c-.325.052-.814.281-.373.559.234.069 1.399.294 1.633.377 1.373.333 13.621 2.966 23.82 11.226a159.46 159.46 0 014.539-3.166c-12.803-8.354-27.653-9-29.442-9a1.187 1.187 0 00-.177.004z"/><path fill="#F9DA90" d="M208.191 17.264c.142-.147.138-.395-.092-.559-.121-.091-.312-.139-.502-.178-1.118-.173-2.59-.26-4.318-.26-6.491 0-16.632 1.277-25.302 4.356-12.474 4.436-21.688 12.422-28.502 18.42h10.966c4.799-3.772 9.222-9.152 16.955-13.235 7.238-3.829 13.743-6.917 30.482-8.428a.492.492 0 00.313-.116z"/><path fill="#F0B600" d="M235.25 6.48c.352.035.737.022.737.022.151 0 .276-.13.276-.291a.272.272 0 00-.229-.277c-11.625-1.676-20.819-2.374-28.477-2.374-12.708 0-21.162 1.915-29.373 4.427-22.075 6.748-46.541 29.035-47.966 29.819-1.784.992-3.551 1.238-3.551 1.238h16.336c2.525 0 4.197-1.429 4.197-1.429.229-.23.484-.464.723-.703 10.13-9.133 17.623-14.478 29.26-20.051 18.43-8.843 38.881-11.066 58.067-10.381zM48.382 13.981c-.983.511 0 1.334 0 1.334 32.036-1.52 41.607 2.183 51.521 6.743 7.216 3.318 20.296 13.016 23.639 15.454.316.064.688.086 1.088.082 1.082-.169 2.403-.459 3.308-.965.425-.23 1.243-.797 2.353-1.625.897-.767 1.94-1.654 3.14-2.646-23.773-18.697-40.937-21.815-53.115-21.815-12.8-.001-31.41 3.165-31.934 3.438z"/><path fill="#F9DA90" d="M100.028 10.261c-.589.1-.884.494-.1.983.411.122 2.867.62 2.867.62s15.735 4.955 32.686 18.701c1.928-1.546 4.452-3.435 6.805-5.18-15.475-12.256-40.824-15.128-42.21-15.128-.022 0-.039.004-.048.004z"/></svg>