<svg viewBox="0 0 243.5 100" xmlns="http://www.w3.org/2000/svg"><path d="M22.488 0v.003c-9.256 0-12.617 6.294-13.458 9.45-1.683 5.887-1.65 7.808-2.912 8.862C2.964 21.045 0 21.87 0 25.445c0 5.257 7.975 3.367 7.975 13.46v28.607c0 5.467 2.55 7.343 8.229 7.343 5.465 0 7.765-2.506 7.765-7.343V37.85c0-2.943 1.056-5.234 2.53-6.287 1.682-1.264 6.961-2.54 6.961-6.328 0-1.683-1.058-3.59-3.372-4.641-3.154-1.474-3.799-2.281-3.799-3.967 0-1.471 1.068-2.54 4.431-4.43 3.575-1.896 3.122-4.4 3.122-6.71 0-2.95-3.137-5.487-7.343-5.487zm22.701.296v.002c-3.784 0-6.287 2.97-6.287 6.752v60.125c0 5.468 2.298 7.803 8.607 7.803 5.258 0 7.807-2.329 7.807-6.751V8.102c0-5.253-2.335-7.806-6.751-7.806zm72.446 2.743c-3.576 0-5.232 2.753-5.232 6.54v56.96c0 6.732 1.663 8.44 7.133 8.44 4.834 0 4.405-1.475 9.45-1.475 5.048 0 5.509 2.74 13.29 2.74 13.035 0 23.124-9.681 23.124-29.449 0-17.032-9.497-26.289-22.533-26.289-5.894 0-8.83 2.323-12.196 2.323-2.944 0-4.387-3.386-4.387-6.328V9.578c0-4.416-2.33-6.538-5.273-6.538zm79.073 15.696c-13.668 0-26.709 8.17-26.709 29.62 0 17.876 11.569 27.343 26.919 27.343 15.773 0 23.334-9.463 23.334-12.828 0-2.525-3.77-5.442-7.13-5.442-5.466 0-6.951 7.342-15.99 7.342-5.47 0-10.929-5.036-10.929-9.663 0-3.574 2.504-5.486 7.343-5.486h21.897c5.05 0 7.132-1.237 7.132-6.074-.002-4.204-2.943-24.81-25.867-24.812zm-131.86 1.859c-2.945 0-6.321 1.081-3.798 9.494.63 2.314 13.88 41.403 13.88 44.979 0 2.945-2.078 5.701-6.074 6.538-3.788.843-6.118 2.504-6.118 5.865 0 3.574 2.33 5.699 5.696 5.699h5.235c6.094 0 12.838-1.9 17.044-14.94l16.627-50.462c.211-.846.42-1.902.42-3.376 0-2.105-2.114-3.795-4.641-3.795h-3.586c-3.994 0-6.502 1.908-7.342 5.486L87.76 46.46c-.63 3.157-1.906 6.54-4.008 6.54-1.682 0-3.122-1.075-4.177-6.331l-4.221-19.323c-1.049-4.416-3.134-6.752-6.71-6.752zm131.86 9.071c5.049 0 9.494 3.764 9.494 7.13 0 2.945-3.615 4.43-10.553 4.43-5.68 0-8.607-1.699-8.607-4.85.003-3.785 5.463-6.71 9.666-6.71zm-57.595.716c8.408 0 12.196 8.218 12.196 18.944 0 11.358-5.889 16.795-12.616 16.795-7.15 0-12.196-6.077-12.196-18.27 0-12.194 6.094-17.47 12.616-17.47zm94.432 25.994c-7.152 0-9.243 2.722-9.243 9.872 0 4.625.83 9.45 9.453 9.45 6.096 0 9.284-2.093 9.284-9.872 0-5.05-.872-9.45-9.494-9.45zm-113.25 24.217c-7.163 0-9.284 2.746-9.284 9.914 0 4.635.852 9.494 9.494 9.494 6.11 0 9.237-2.11 9.237-9.914.003-5.056-.804-9.494-9.447-9.494zm22.743 0c-7.166 0-9.284 2.746-9.284 9.914 0 4.635.848 9.494 9.491 9.494 6.11 0 9.243-2.11 9.243-9.914.003-5.056-.808-9.494-9.45-9.494zm23.08 0c-7.163 0-9.24 2.746-9.24 9.914 0 4.635.807 9.494 9.45 9.494 6.11 0 9.284-2.11 9.284-9.914 0-5.056-.85-9.494-9.494-9.494zm22.743 0c-7.166 0-9.282 2.746-9.282 9.914 0 4.635.849 9.494 9.492 9.494 6.11 0 9.281-2.11 9.281-9.914 0-5.056-.846-9.494-9.49-9.494zm22.743 0c-7.163 0-9.284 2.746-9.284 9.914 0 4.635.852 9.494 9.494 9.494 6.11 0 9.281-2.11 9.281-9.914.002-5.056-.845-9.494-9.49-9.494zm22.406 0c-7.163 0-9.284 2.746-9.284 9.914 0 4.635.85 9.494 9.494 9.494 6.111 0 9.281-2.11 9.281-9.914 0-5.056-.848-9.494-9.491-9.494z" fill="#5a3f99"/></svg>