<svg width="505" height="137" version="1.0" viewBox="0 0 604.34 208.71" xmlns="http://www.w3.org/2000/svg"><path d="M-32.91 185.63c0 8.54-9.397 15.462-20.986 15.462-11.608 0-20.987-6.922-20.987-15.463 0-8.525 9.38-15.455 20.994-15.455 11.584 0 20.978 6.93 20.978 15.455zm14.69-36.794c0 7.138-8.246 12.898-18.423 12.915-10.182-.017-18.416-5.777-18.416-12.915 0-7.107 8.234-12.857 18.416-12.863 10.176 0 18.423 5.756 18.423 12.863zm11.993-30.693c0 5.735-7.022 10.371-15.676 10.385-8.656 0-15.67-4.65-15.67-10.385 0-5.745 7.014-10.395 15.67-10.395 8.652 0 15.676 4.66 15.676 10.395zm32.047-83.89c-.007 2.262-3.66 4.084-8.183 4.084-4.515 0-8.172-1.822-8.172-4.084s3.657-4.078 8.172-4.096c4.522-.001 8.174 1.822 8.184 4.096zm9.434-23.701c0 1.625-2.75 2.94-6.139 2.958-3.409 0-6.144-1.333-6.162-2.958 0-1.632 2.753-2.938 6.162-2.938 3.39 0 6.139 1.306 6.139 2.938zm-4.45 11.293c0 1.881-3.175 3.384-7.102 3.396-3.925 0-7.095-1.515-7.103-3.396 0-1.894 3.178-3.403 7.103-3.403s7.102 1.51 7.102 3.403zM3.937 91.162c0 4.611-5.966 8.351-13.337 8.351-7.37 0-13.346-3.74-13.346-8.351 0-4.595 5.977-8.35 13.346-8.35 7.371 0 13.337 3.755 13.337 8.35zm8.778-22.527c0 3.686-5.084 6.714-11.365 6.714-6.29 0-11.394-3.028-11.394-6.714 0-3.692 5.103-6.715 11.394-6.715 6.281 0 11.365 3.021 11.365 6.715zm3.337 114.439c0 7.676-8.523 13.88-19.048 13.88-10.529 0-19.058-6.204-19.058-13.88 0-7.689 8.529-13.911 19.04-13.893 10.543 0 19.066 6.217 19.066 13.893zM57.944 171.5c0 6.786-7.69 12.268-17.177 12.268-9.483 0-17.173-5.482-17.173-12.269 0-6.75 7.69-12.244 17.173-12.244 9.486 0 17.177 5.476 17.177 12.244zm21.381-23.515c0 5.334-6.29 9.664-14.064 9.664-7.77 0-14.061-4.329-14.061-9.664 0-5.327 6.29-9.656 14.06-9.656 7.765.002 14.065 4.324 14.065 9.656zm-20.451-41.95c.008 3.53-4.585 6.4-10.225 6.4-5.665 0-10.253-2.868-10.253-6.4 0-3.528 4.587-6.406 10.253-6.406 5.638 0 10.233 2.878 10.225 6.406zm-38.57-56.161c0 2.955-4.338 5.35-9.69 5.35-5.336 0-9.673-2.393-9.66-5.35 0-2.95 4.324-5.345 9.66-5.345 5.347 0 9.69 2.394 9.69 5.345zm55.256 73.729c.01 4.321-5.335 7.803-11.928 7.783-6.594.02-11.922-3.482-11.922-7.783-.017-4.277 5.33-7.772 11.93-7.772 6.595 0 11.92 3.492 11.92 7.772z" fill="#f26631"/><path d="M121.293 183.059V123.61h9.543v21.946c3.06-1.072 5.95-1.61 8.672-1.61 5.937 0 10.54 1.974 13.811 5.916 2.851 3.424 4.278 7.89 4.278 13.402 0 7.235-2.419 12.656-7.254 16.259-4.209 3.16-10.036 4.74-17.485 4.74-3.188 0-7.044-.402-11.565-1.205zm9.544-30.22v23.486c1.358.233 2.585.349 3.682.349 8.883 0 13.323-4.258 13.323-12.774 0-4.14-1.097-7.26-3.291-9.355-1.907-1.86-4.494-2.791-7.759-2.791-1.883-.002-3.866.362-5.955 1.086zm36.539 30.919v-36.367c5.524-2.25 11.126-3.378 16.808-3.378 2.698 0 5.249.37 7.66 1.109v8.025c-2.05-.742-4.281-1.114-6.695-1.114-2.809 0-5.553.504-8.23 1.505v30.22h-9.543zm30.767-39.104h9.541v23.327c0 3.278.685 5.494 2.05 6.647 1.181 1.025 3.203 1.535 6.064 1.535 1.917 0 4.042-.25 6.379-.747v-30.762h9.544v37.73c-6.358 1.25-11.93 1.87-16.717 1.87-6.044 0-10.44-1.21-13.185-3.632-1.436-1.357-2.425-3.04-2.972-5.048-.47-1.774-.704-4.174-.704-7.2v-23.72zm44.041 37.736v-8.65c3.76 2.336 7.313 3.504 10.658 3.504 4.229 0 6.347-1.316 6.347-3.948 0-1.798-1.253-3.27-3.76-4.416l-3.841-1.837c-3.552-1.641-6.047-3.44-7.484-5.392-1.28-1.719-1.92-3.753-1.92-6.098 0-3.777 1.527-6.723 4.585-8.834 2.664-1.848 6.113-2.776 10.345-2.776 3.501 0 6.87.72 10.11 2.159v8.181c-3.212-1.974-6.359-2.963-9.438-2.963-4.23 0-6.346 1.25-6.346 3.754 0 1.016.431 1.865 1.292 2.54.808.6 2.621 1.564 5.44 2.893 3.914 1.985 6.54 3.737 7.872 5.25 1.696 1.961 2.545 4.337 2.545 7.13 0 3.943-1.556 6.985-4.662 9.125-2.717 1.882-6.295 2.823-10.734 2.823-3.815 0-7.484-.815-11.01-2.445zm34.059 0v-8.65c3.763 2.336 7.315 3.504 10.658 3.504 4.23 0 6.347-1.316 6.347-3.948 0-1.798-1.254-3.27-3.76-4.416l-3.841-1.837c-3.552-1.641-6.045-3.44-7.484-5.392-1.28-1.719-1.92-3.753-1.92-6.098 0-3.777 1.53-6.723 4.585-8.834 2.664-1.848 6.113-2.776 10.346-2.776 3.5 0 6.87.72 10.111 2.159v8.181c-3.214-1.974-6.359-2.963-9.44-2.963-4.232 0-6.346 1.25-6.346 3.754 0 1.016.43 1.865 1.292 2.54.808.6 2.62 1.564 5.44 2.893 3.916 1.985 6.538 3.737 7.872 5.25 1.694 1.961 2.543 4.337 2.543 7.13 0 3.943-1.554 6.985-4.661 9.125-2.716 1.882-6.294 2.823-10.735 2.823-3.813 0-7.482-.815-11.007-2.445zm69.795-16.397H319.12c.418 7.257 4.46 10.884 12.124 10.884 4.735 0 8.997-1.378 12.792-4.141v7.96c-4.424 2.658-9.16 3.986-14.21 3.986-6.7 0-11.817-1.985-15.35-5.957-3.06-3.475-4.592-8.143-4.592-13.997 0-6.693 1.973-11.984 5.926-15.878 3.455-3.37 7.851-5.059 13.19-5.059 3.742 0 7 .902 9.774 2.701 2.408 1.593 4.212 3.709 5.417 6.343 1.23 2.82 1.846 7.152 1.846 13v.158zm-26.288-6.802h17.068c-.42-5.442-3.074-8.164-7.965-8.164-2.591 0-4.699.82-6.318 2.46-1.44 1.406-2.369 3.309-2.785 5.704zm36.102 24.567v-60.152h9.542v60.152h-9.542zm20.085-1.368v-8.65c3.76 2.336 7.314 3.504 10.656 3.504 4.232 0 6.349-1.316 6.349-3.948 0-1.798-1.254-3.27-3.761-4.416l-3.84-1.837c-3.553-1.641-6.047-3.44-7.483-5.392-1.28-1.719-1.92-3.753-1.92-6.098 0-3.777 1.529-6.723 4.586-8.834 2.663-1.848 6.11-2.776 10.345-2.776 3.5 0 6.869.72 10.108 2.159v8.181c-3.212-1.974-6.357-2.963-9.439-2.963-4.232 0-6.347 1.25-6.347 3.754 0 1.016.43 1.865 1.293 2.54.807.6 2.622 1.564 5.44 2.893 3.913 1.985 6.539 3.737 7.87 5.25 1.697 1.961 2.544 4.337 2.544 7.13 0 3.943-1.553 6.985-4.658 9.125-2.719 1.882-6.296 2.823-10.736 2.823-3.812 0-7.483-.815-11.007-2.445zm52.391-26.268v-8.182c5.005-2.663 10.087-3.997 15.25-3.997 5.632 0 9.3 1.661 11.004 4.975.864 1.646 1.297 4.737 1.297 9.28v24.779c-6.756.95-12.254 1.428-16.495 1.428-4.922 0-8.444-1.005-10.563-3.016-1.86-1.775-2.79-4.454-2.79-8.033 0-5.325 2.252-9.074 6.753-11.241 2.957-1.438 7.458-2.481 13.503-3.135l.825-.078v-1.411c0-2.298-.471-3.854-1.414-4.674-.84-.712-2.254-1.071-4.246-1.071-4.137.001-8.514 1.462-13.124 4.376zm18.94 20.357v-10.414c-4.892.365-8.256 1.108-10.089 2.23-1.595.964-2.394 2.427-2.394 4.383 0 2.948 1.74 4.422 5.22 4.422 1.94 0 4.358-.207 7.264-.621zm20.24-39.202v-10.17h9.827v10.17h-9.827zm.143 46.474v-39.027h9.543v39.027h-9.543zm21.877.007v-36.367c5.523-2.25 11.125-3.378 16.807-3.378 2.696 0 5.249.37 7.658 1.109v8.025c-2.048-.742-4.28-1.114-6.695-1.114-2.808 0-5.553.504-8.229 1.505v30.22h-9.54zm32.109 0v-60.152h9.544v60.152h-9.544zm21.807-46.481v-10.17h9.83v10.17h-9.83zm.141 46.474v-39.027h9.545v39.027h-9.545zm21.864.007V146.65c6.152-1.757 12.072-2.634 17.753-2.634 6.18 0 10.526 1.332 13.04 3.995 2.096 2.247 3.143 5.8 3.143 10.657v25.091h-9.542v-24.427c0-2.943-.67-4.975-2.013-6.097-1.213-.99-3.148-1.487-5.806-1.487-2.264 0-4.608.364-7.033 1.086v30.925h-9.542zm79.486-17.765h-26.918c.418 7.257 4.46 10.884 12.126 10.884 4.735 0 8.996-1.378 12.79-4.141v7.96c-4.425 2.658-9.16 3.986-14.21 3.986-6.7 0-11.815-1.985-15.35-5.957-3.058-3.475-4.59-8.143-4.59-13.997 0-6.693 1.974-11.984 5.926-15.878 3.455-3.37 7.85-5.059 13.188-5.059 3.74 0 7.002.902 9.772 2.701 2.413 1.593 4.219 3.709 5.421 6.343 1.228 2.82 1.845 7.152 1.845 13v.158zm-26.288-6.802h17.067c-.417-5.442-3.073-8.164-7.965-8.164-2.59 0-4.695.82-6.32 2.46-1.437 1.406-2.365 3.309-2.782 5.704zm34.183 23.199v-8.65c3.762 2.336 7.314 3.504 10.657 3.504 4.23 0 6.346-1.316 6.346-3.948 0-1.798-1.256-3.27-3.763-4.416l-3.837-1.837c-3.552-1.641-6.047-3.44-7.484-5.392-1.278-1.719-1.92-3.753-1.92-6.098 0-3.777 1.529-6.723 4.584-8.834 2.664-1.848 6.112-2.776 10.347-2.776 3.498 0 6.867.72 10.11 2.159v8.181c-3.212-1.974-6.36-2.963-9.44-2.963-4.23 0-6.345 1.25-6.345 3.754 0 1.016.43 1.865 1.291 2.54.808.6 2.621 1.564 5.44 2.893 3.912 1.985 6.538 3.737 7.87 5.25 1.696 1.961 2.546 4.337 2.546 7.13 0 3.943-1.556 6.985-4.663 9.125-2.717 1.882-6.292 2.823-10.733 2.823-3.814 0-7.482-.815-11.007-2.445z" fill="#06357a"/></svg>