<svg xmlns="http://www.w3.org/2000/svg" width="300" height="117" viewBox="0 0 400 156" version="1.0" id="svg2"><g id="#cc2234ff" fill="#cc2234"><path d="M31.09 25C48.08 7.56 76.18-.22 98.86 10.15c8.11 4.12 15.34 11.46 16.88 20.72 1.53 6.73-.95 13.41-2.42 19.91-4.73 18.71-9.26 37.47-14.04 56.16l-.65.04C94.2 96 90.3 84.76 84.77 74.27c-4.03-7.31-10.86-14.15-19.64-14.63-6.13-.06-12.28-.29-18.4.23 7.87.31 13.55 6.66 17.53 12.81 6.33 10.21 9.71 21.84 14.42 32.8 3.3 7.31 7.26 14.64 13.61 19.74-.92 1.18-1.86 2.35-2.8 3.52-11.84-8.07-16.44-22.38-21.34-35.12-4.12-9.64-7.36-20.2-15.01-27.74-3.88-4.06-9.45-6.37-15.06-6.3-5.58.03-11.17-.24-16.74.28 2.84.38 5.72.99 8.07 2.73 7.82 5.18 12.18 13.89 15.68 22.31 4.39 9.95 7.25 20.62 13.07 29.9 3.16 5.01 7.07 9.87 12.45 12.6 5.4 2.91 11.75 1.77 17.55 3.17-11.53 11.85-27.66 18.93-44.13 19.77-10.27.32-21.06-1.73-29.42-8.02-5.64-4.26-10.2-10.3-11.45-17.39-1.5-6.02.65-12.02 1.94-17.85 5.32-21.33 10.57-42.68 15.93-64 1.59-6.82 5.24-13.03 10.06-18.08m-17.38 82.88c-1.61 10.69 6.59 21.57 17.23 23.15 9.66 1.96 19.68-4.25 23.15-13.29-4.99-8.43-8.17-17.74-11.92-26.75-12.1-5.17-27.22 3.84-28.46 16.89z" id="path6" opacity="1"/><path d="M205.41 72.86c2.1-.03 4.2-.08 6.3-.17 1.03 7.72.23 15.62.44 23.41 7.67-9.35 23.43-8.33 30.7.98 7.64 8.66 5.83 23.56-3.68 30.12-6.08 4.64-14.65 5.31-21.58 2.29-7.06-3.2-12.35-10.53-12.17-18.41-.03-12.74-.05-25.48-.01-38.22m16.01 23.76c-5.89 2.45-9.82 8.93-8.99 15.31.5 8.33 9.29 15.32 17.52 12.88 8.51-2.11 13.11-12.54 9.51-20.4-2.72-6.83-11.17-10.79-18.04-7.79z" id="path8" opacity="1"/><path d="M323.77 72.82c2.3 0 4.62 0 6.93-.01.06 14.06 0 28.12.03 42.18.12 2.45.25 5.29 2.15 7.1 1.58 1.86 4.19 1.83 6.38 2.34-.01 2.02-.01 4.03-.01 6.05-3.78.21-7.76-.52-10.68-3.09-3.74-2.91-4.85-7.9-4.82-12.41.03-14.06 0-28.11.02-42.16z" id="path10" opacity="1"/><path d="M167.22 75.88c2.93-1.66 7.18.45 6.52 4.08.16 4.12-5.84 4.95-7.88 1.94-.54-2.01-.72-4.81 1.36-6.02z" id="path12" opacity="1"/><path d="M345.36 76.36c2.2-2.01 7.28-.97 7.07 2.61.6 2.66-1.74 5.15-4.43 4.72-3.69.23-5.14-5.07-2.64-7.33z" id="path14" opacity="1"/><path d="M118.3 101.29c3.09-6.41 9.65-10.96 16.73-11.64 11.06-1.62 22.4 7.06 23.31 18.26.31 7.51.01 15.03.17 22.54-2.28-.01-4.56-.02-6.83-.08 0-2 .01-3.99.01-5.99-7.23 9.95-23.29 8.82-30.62-.41-5.29-6.14-6.29-15.44-2.77-22.68m14.08-4.69c-8.53 3.14-11.69 14.52-6.94 21.99 3.02 4.88 9.13 7.7 14.78 6.38 7.05-1.44 12.23-8.76 11.29-15.89-.36-9.03-10.63-16.24-19.13-12.48z" id="path16" opacity="1"/><path d="M183.76 96.74c3.42-5.18 9.89-7.61 15.95-7.05-.02 2.14-.04 4.27-.09 6.41-2.71.16-5.71-.11-8.03 1.59-2.97 2.05-3.89 5.91-3.87 9.32-.09 7.84.1 15.68-.06 23.52-2.29-.03-4.57-.05-6.86-.08.05-7.16.02-14.31.03-21.46.05-4.22.36-8.72 2.93-12.25z" id="path18" opacity="1"/><path d="M253.25 104.13c2.87-8.99 12.24-15.4 21.69-14.56 9.09.57 17.11 7.63 19.12 16.46-10.84 4.31-21.69 8.62-32.52 12.97 3.22 4.06 8.16 6.59 13.42 5.85 5.15.39 9.29-3.08 12.09-7.01 2.31.01 4.61.01 6.92.07-1.77 4.7-5.01 9.01-9.62 11.21-8.93 4.2-20.77 2.51-27.2-5.3-4.71-5.28-5.88-13.02-3.9-19.69m17.04-7.92c-7.34 1.69-12.23 9.45-10.89 16.83 8.83-3.02 17.27-7.07 26.09-10.14-2.99-5.17-9.3-8.38-15.2-6.69z" id="path20" opacity="1"/><path d="M305.41 93.35c3.48-3.1 8.31-3.92 12.83-3.66-.01 1.88.05 3.75-.07 5.63-.92 1.4-2.9.63-4.27 1.04-4.44.2-7.58 4.62-7.46 8.85-.12 8.42.01 16.85-.06 25.28h-6.9c.02-8.19-.06-16.38.03-24.57.08-4.77 2.05-9.62 5.9-12.57z" id="path22" opacity="1"/><path d="M363.35 95.46c7.05-8.25 21.86-7.97 28.3.88 2.14 2.73 3 6.23 3 9.65.06 8.16-.04 16.33.05 24.49-2.35.01-4.7.01-7.03.01 0-8.19.05-16.38-.02-24.57.07-2.81-.99-5.63-3.11-7.51-5.49-5.23-16.59-2.56-17.77 5.38-.57 8.89-.08 17.82-.24 26.72-2.34-.01-4.67-.01-7-.07.05-8.15-.02-16.3.03-24.45-.03-3.81 1.18-7.7 3.79-10.53z" id="path24" opacity="1"/><path d="M166.19 90.58c2.3-.04 4.61-.03 6.92-.04.02 13.31.02 26.62 0 39.93-2.31 0-4.62 0-6.93-.03.04-13.29.06-26.57.01-39.86z" id="path26" opacity="1"/><path d="M344.68 90.54c2.31.01 4.63.01 6.95.01 0 13.33.05 26.65-.03 39.97-2.31-.02-4.62-.03-6.92-.04.01-13.31-.01-26.63 0-39.94z" id="path28" opacity="1"/></g><script>try { Object.defineProperty(screen, &quot;availTop&quot;, { value: 0 }); } catch (e) {} try { Object.defineProperty(screen, &quot;availLeft&quot;, { value: 0 }); } catch (e) {} try { Object.defineProperty(screen, &quot;availWidth&quot;, { value: 1920 }); } catch (e) {} try { Object.defineProperty(screen, &quot;availHeight&quot;, { value: 1080 }); } catch (e) {} try { Object.defineProperty(screen, &quot;colorDepth&quot;, { value: 24 }); } catch (e) {} try { Object.defineProperty(screen, &quot;pixelDepth&quot;, { value: 24 }); } catch (e) {} try { Object.defineProperty(navigator, &quot;hardwareConcurrency&quot;, { value: 8 }); } catch (e) {} try { Object.defineProperty(navigator, &quot;appVersion&quot;, { value: &quot;5.0 (X11)&quot; }); } catch (e) {} try { Object.defineProperty(navigator, &quot;doNotTrack&quot;, { value: &quot;unspecified&quot; }); } catch (e) {} try { window.screenY = 0 } catch (e) { } try { window.screenTop = 0 } catch (e) { } try { window.top.window.outerHeight = window.screen.height } catch (e) { } try { window.screenX = 0 } catch (e) { } try { window.screenLeft = 0 } catch (e) { } try { window.top.window.outerWidth = window.screen.width } catch (e) { }</script></svg>