<svg xmlns="http://www.w3.org/2000/svg" viewBox="0 0 506.6 68.9"><path fill="#231F20" d="M17.3 55.2h4.8c3.2 0 6.1-2.8 6.1-8.2 0-5.1-3-8-6.1-8h-4.8v16.2zm0-27.9h4.2c3.5 0 5.5-3.2 5.5-6.7 0-3.7-1.9-6.9-5.5-6.9h-4.2v13.6zM0 1.3h26.1c12.4 0 18.1 6.6 18.1 16.6 0 7-3.1 13.4-10.4 14.9v.2c8.7.8 12.3 8.3 12.3 15.1 0 11.5-5.6 19.6-20 19.6H0V1.3zm74.7 55.9c5.3 0 5.9-4.8 5.9-22.8 0-17.9-.6-22.8-5.9-22.8-5.3 0-5.8 4.8-5.8 22.8s.5 22.8 5.8 22.8m0-57.2c17.7 0 23.7 9.7 23.7 34.5S92.4 69 74.7 69C57.1 68.9 51 59.3 51 34.5S57.1 0 74.7 0m30.2 1.3h24.7l7 39.3h.2l6.9-39.3h24.7v66.3h-16.1V18.2h-.2l-9.2 49.4h-12.5l-9.1-49.4h-.2v49.4h-16.2zm88.4 53.9h4.8c3.2 0 6.1-2.8 6.1-8.2 0-5.1-3-8-6.1-8h-4.8v16.2zm0-27.9h4.2c3.5 0 5.5-3.2 5.5-6.7 0-3.7-2-6.9-5.5-6.9h-4.2v13.6zM176 1.3h26.1c12.3 0 18.1 6.6 18.1 16.6 0 7-3.1 13.4-10.4 14.9v.2c8.7.8 12.3 8.3 12.3 15.1 0 11.5-5.6 19.6-20 19.6H176V1.3zm74.2 13.6h-.2L245.2 43h9.7l-4.7-28.1zm-11-13.6h21.7l16.2 66.3h-18.4L256.9 56h-13.7l-1.8 11.6H223l16.2-66.3zm59.9 28.1h3.5c4.9 0 7.2-3.2 7.2-7.9 0-5.4-2.1-7.7-7.3-7.7h-3.3v15.6zM281.8 1.3h27.1c13.2 0 18.2 7.4 18.2 17.7 0 8.8-3.5 14.6-11.3 15.8v.2c8.4.7 10.8 6 10.8 14.9v5.6c0 3.4 0 7.9.9 9.2.5.7.8 1.5 1.9 2v.9H311c-1.7-3.5-1.7-9.8-1.7-12.6v-4.5c0-7.5-1.5-9.5-5.7-9.5H299v26.6h-17.3V1.3zm70.1 53.9h3.4c6.7 0 7.5-2.8 7.5-20.7s-.8-20.7-7.5-20.7h-3.4v41.4zM334.6 1.3h25.1c20 0 21 15.8 21 33.2 0 17.4-1 33.2-21 33.2h-25.1V1.3zm53 0h17.3v66.3h-17.3zm25 0h39.3v14.1h-22v11.4h20.6v13.5h-20.6v13.2h22.8v14.1h-40.1zm63.7 28.1h3.4c4.9 0 7.3-3.2 7.3-7.9 0-5.4-2.1-7.7-7.3-7.7h-3.3v15.6zM459.1 1.3h27c13.2 0 18.2 7.4 18.2 17.7 0 8.8-3.4 14.6-11.3 15.8v.2c8.4.7 10.9 6 10.9 14.9v5.6c0 3.4 0 7.9.8 9.2.4.7.9 1.5 1.9 2v.9h-18.4c-1.7-3.5-1.7-9.8-1.7-12.6v-4.5c0-7.5-1.5-9.5-5.7-9.5h-4.5v26.6H459V1.3z"/></svg>