<svg xmlns="http://www.w3.org/2000/svg" width="401.779" height="107.217" viewBox="0 0 106.304 28.368"><path d="M15.64 10.007l1.358-3.497 8.565.068c1.644.023 1.756-.907 2.376-1.665l-1.331 4.312c-.248.731-.994.873-2.163.864z" fill="#2c5aa0"/><path d="M14.088 13.992l1.347-3.507 8.936.078c1.644.023 1.756-.906 2.375-1.665l-1.33 4.313c-.25.73-.995.873-2.164.864z" fill="#d40000"/><path d="M12.563 18.114l-1.358 3.497-8.565-.068C.996 21.52.884 22.45.265 23.208l1.33-4.312c.249-.731.994-.873 2.164-.864z" fill="#2c5aa0"/><path d="M14.115 14.129l-1.347 3.507-8.935-.078c-1.644-.023-1.757.906-2.376 1.665l1.33-4.313c.25-.73.995-.873 2.164-.864zm4.081 1.676l3.497 1.358-.068 8.565c-.023 1.644.907 1.756 1.666 2.375l-4.313-1.33c-.73-.249-.873-.994-.864-2.164z" fill="#d40000"/><path d="M14.21 14.252l3.508 1.348-.078 8.935c-.023 1.644.906 1.756 1.665 2.376l-4.313-1.331c-.73-.249-.872-.994-.863-2.164z" fill="#2c5aa0"/><path d="M10.09 12.563l-3.498-1.358.068-8.565C6.683.996 5.754.884 4.995.265l4.313 1.33c.73.249.873.994.864 2.164z" fill="#d40000"/><path d="M14.075 14.115l-3.508-1.347.079-8.935c.023-1.644-.907-1.757-1.666-2.376l4.313 1.33c.73.25.873.995.864 2.164z" fill="#2c5aa0"/><path d="M74.314 22.285c-.693 0-1.13-.566-1.13-1.363v-7.127h1.567c1.37 0 1.79-1.647 1.79-1.647h-3.356V8.856l-5.52 4.939h1.972v7.28c0 2.11 1.722 3.216 3.521 3.216 1.208 0 2.468-.514 3.238-1.569l-.005-.01a6.31 6.31 0 01-.694-1.019c-.515.413-.998.592-1.383.592m-37.51-.078h-1.67v-6.945h1.67c2.005 0 3.624 1.415 3.624 3.472 0 2.084-1.646 3.473-3.624 3.473M35.134 7.57h1.105c2.004 0 3.263 1.054 3.263 3.035 0 1.672-1.361 3.01-3.263 3.01h-1.105zm4.78 6.586c2.287-.644 3.468-2.24 3.468-3.886 0-2.444-2.235-4.348-5.344-4.348H30.38c.565.412.951 1.081.951 1.801V23.88h6.527c3.726 0 6.655-2.11 6.655-5.094 0-2.264-1.901-4.142-4.599-4.63m16.441-3.936c1.078 0 1.978-.901 1.978-2.007 0-1.081-.9-1.982-1.978-1.982a1.98 1.98 0 00-1.979 1.982c0 1.106.874 2.006 1.98 2.006m1.823 12.366V12.148h-4.137c.437.31.617.67.617 1.26v10.474h3.52v-1.296m-4.801-9.946a2.477 2.477 0 00-1.877-.851c-.925 0-1.927.514-2.57 1.775-.18-.85-.745-1.416-1.799-1.416h-2.338c.437.31.617.67.617 1.26V23.88h3.52v-7.77c.41-1.158 1.387-1.698 2.313-1.698.873 0 1.722.463 2.134 1.311V12.64m10.552 3.625c-1.183-.49-1.798-.875-1.798-1.595 0-.977 1.13-1.209 1.901-1.209 1.259 0 2.44.772 3.032 1.826v-2.933c-.771-.334-2.082-.566-3.058-.566-2.312 0-4.677 1.03-4.677 3.68 0 1.826 1.105 3.112 3.135 3.91 1.542.591 2.133 1.132 2.133 1.929 0 .952-.977 1.26-1.876 1.26-1.285 0-2.287-.59-2.75-1.903v3.086a8.34 8.34 0 002.75.49c2.364 0 5.037-1.183 5.037-3.936 0-1.776-1.182-2.932-3.83-4.04"/><path d="M82.869 22.542c-2.186 0-3.161-3.241-3.161-4.965 0-2.264 1.105-4.013 2.595-4.013 2.183 0 3.135 3.164 3.135 4.887 0 2.29-1.105 4.091-2.57 4.091m-.282-10.728c-3.624 0-6.527 2.754-6.527 6.2 0 3.448 2.903 6.277 6.527 6.277 3.597 0 6.527-2.83 6.527-6.277 0-3.446-2.93-6.2-6.527-6.2m21.141.334c.18.159.243.244.243.398 0 .129-.026.297-.077.426l-2.338 5.479-3.29-6.656-3.29 6.683-2.004-4.683c-.411-.97-1.194-1.581-2.361-1.647h-2.553c.16.13.335.268.46.438.091.123.19.236.305.5h.002l5.02 11.203 3.392-6.84 3.366 6.84 5.166-11.497c.002-.009.009-.016.013-.025l.258-.619h-2.312"/></svg>