<svg version="1.0" xmlns="http://www.w3.org/2000/svg" width="538.322" height="323.751"><path fill="#6B6A77" d="M289.142 123.957c-1.798-10.775-7.187-21.55-15.717-31.877-8.081-9.876-17.509-15.265-27.388-15.714l-12.121.45-9.878 3.144c-20.204 8.53-42.203 26.04-64.652 51.632-21.55 22-31.877 36.813-31.877 43.999 36.367-46.692 66.897-73.182 92.04-79.917l10.328-1.348 7.631.45c18.409 2.245 29.184 14.368 31.878 35.468 2.245 28.287 5.836 42.65 8.979 42.65 3.591 0 16.613-15.262 38.61-44.895 13.921-19.754 26.491-29.184 39.513-28.734l8.528 2.245 4.941 2.245c13.916 9.429 19.752 31.428 17.06 65.101 0 6.734 1.347 9.878 4.038 8.979 1.798-.451 3.596-10.772 5.389-30.529 3.591-44.897-6.734-66-31.428-64.205l-10.326 1.795-5.835 1.797c-21.104 11.225-38.615 25.141-51.633 41.305-4.042 2.244-6.287.898-8.08-4.041z"/><path fill="#6E92AE" d="M365.016 101.508l-8.528-2.245c1.793 19.754 1.793 43.551.447 71.836 0 4.038 1.346 4.941 3.591 4.489l1.347-9.431c1.796-24.241 3.143-45.791 3.143-64.649zm0-18.408C363.669 30.571 353.791 2.734 335.385.489c-27.39-3.591-53.877 12.57-79.469 48.938l-22 27.388 12.121-.45c29.184-30.979 52.531-45.794 70.938-45.347 19.756.899 32.326 18.858 37.715 53.877l10.326-1.795zm-135.14 11.224l-10.328 1.348c-36.367 47.143-52.528 72.284-48.488 75.427 21.549-30.529 41.304-56.121 58.816-76.775z"/><path fill="#FFF" d="M513.177 272.118l-2.692-2.696c-1.797.903-3.144 2.696-4.042 5.394l-6.734 9.427-1.347.894v1.351c9.878-6.289 14.815-11.225 14.815-14.37zm6.287 26.487c1.347-4.489 4.49-6.734 9.427-6.734 1.798 0 2.697.903 2.697 2.696v1.346l4.038.899v-2.245c-.899-2.696-3.145-4.038-6.735-4.038-5.389 0-9.878 1.342-12.57 4.038-3.144 2.245-4.489 6.734-4.489 11.676 0 1.793.447 3.587 1.346 4.49v-.452c0-4.038.898-6.734 3.144-8.979l3.142-2.697z"/><path fill="#6B6A77" d="M538.322 299.956c-.452-1.798-1.351-2.692-2.696-3.144l-4.038-.899c-4.941 0-9.432.899-12.124 2.692l-3.144 2.696c-2.245 2.245-3.144 4.941-3.144 8.979v.452c0 3.139.898 4.937 3.144 6.282l5.836 1.347 12.123-5.385v-.902c-3.591 2.696-6.734 3.595-9.427 3.595-1.351 0-2.696-.898-4.042-2.692l-.899-.902c5.389-1.342 9.879-3.14 13.022-4.49 3.591-2.245 5.389-4.937 5.389-7.629zm-7.186-2.245c1.346 0 1.798.447 1.798 2.245 0 4.489-4.043 8.08-12.57 10.325h-.452v-4.489l.452-1.347c1.346-4.489 4.937-7.182 9.874-7.182l.898.448z"/><path fill="#FFF" d="M532.934 299.956c0-1.798-.452-2.245-1.798-2.245-1.346 2.245-4.937 4.49-10.772 6.734l-.452 1.347c6.287-1.347 10.776-3.591 13.022-5.836zm-13.023 10.325h.452-.452zm13.023-2.245v-.451c-3.144 1.351-7.634 3.148-13.022 4.49l.899.902 12.123-4.941z"/><path fill="#6B6A77" d="M515.422 277.06c0-.451-.447-1.35-2.245-2.244-1.793.895-3.144 2.691-4.038 4.937l-8.085 9.427c-.895 0-1.346.898-1.346 1.351h1.346c9.878-5.395 14.368-9.885 14.368-13.471z"/><path fill="#FFF" d="M505.097 294.567v1.346l4.937 1.351.451-2.696c-1.797-2.696-4.489-4.038-8.08-4.038h-1.351c-10.325.447-15.714 5.831-15.714 15.714 0 2.692.898 4.49 2.696 5.832v-1.794c0-4.941 1.346-8.527 4.489-11.225 1.347-4.489 4.938-7.186 9.879-7.186 1.793 0 2.693.903 2.693 2.696z"/><path fill="#6B6A77" d="M511.831 299.956l-1.798-2.692-4.937-1.351c-5.389 0-9.879.899-12.571 3.144-3.144 2.697-4.489 6.283-4.489 11.225v1.794c.447 4.042 2.692 6.287 8.08 6.287l13.022-5.385-1.351-.902c-3.591 2.696-6.734 3.595-9.427 3.595-1.346 0-2.691-.898-4.042-2.692l-1.347-.902c6.288-1.342 10.777-3.14 13.47-4.49 3.592-2.247 5.39-4.939 5.39-7.631zm-4.043 0c0 4.489-4.489 7.629-13.469 10.325h-1.347.452l1.793-4.489.898-2.245c2.245-4.038 4.938-6.283 7.634-6.283l.899.447c1.347 0 2.693.447 3.14 2.245z"/><path fill="#FFF" d="M507.788 299.956c-.447-1.798-1.793-2.245-3.139-2.245-1.351 2.245-4.043 4.49-8.533 5.836l-.898 2.245c5.836-1.347 10.326-3.591 12.57-5.836zm-14.363 10.325h-.452 1.347-.895zm13.017-2.245v-.451c-2.692 1.351-7.182 3.148-13.47 4.49l1.347.902h.451l11.672-4.941zm-30.529-12.123l3.591 1.351.451-2.696c0-1.793-1.797-3.144-5.389-4.038-2.696 0-5.388 1.793-8.532 5.384 2.245-1.797 4.043-2.691 5.836-2.691l1.351 1.346-.451 2.245 3.143-.901z"/><path fill="#6B6A77" d="M479.504 297.264l-3.591-1.351-3.144.899c-3.591 1.793-7.183 6.282-11.225 13.469l5.389-14.368h-.899l-3.591.899-3.591.451-4.042 15.714-1.347 5.385 6.735-1.347c4.489-10.772 8.08-16.612 11.671-17.959l1.351-.451 1.346 1.351v4.042l-2.696 4.938v5.836c0 1.793 1.351 2.696 4.043 3.591 2.691 0 6.287-1.798 10.325-5.385l-.898-.902c-1.794 1.35-4.038 2.696-6.735 3.595-.894 0-1.346-.447-1.346-.898v-2.696l.899-1.794 1.797-5.389 1.347-4.937-1.798-2.693z"/><path fill="#FFF" d="M462.443 296.813l1.347-6.283-6.735 1.342-4.937 21.106h2.692l4.042-15.714 3.591-.451zm10.778 1.792l-1.351.451-2.244 9.879c0 1.798.898 3.14 2.244 3.591v-3.591l2.696-4.938v-4.042l-1.345-1.35z"/><path fill="#6B6A77" d="M452.118 312.978v-.902c-1.798 1.35-4.043 2.696-6.734 3.595l-1.347-.898c0-.899.447-1.794.447-2.245l.899-2.245.447-.451.898-3.587c0-1.351 1.346-4.941 4.043-10.33h-6.735l-7.633 14.368c-2.245 3.591-4.49 5.389-6.735 5.389-1.797 0-2.244-.898-2.696-2.692v-2.696c.452-8.979 4.043-13.018 10.777-13.018h3.59v-1.351l-1.346-.895-.899-.451c-5.835 0-10.325 1.346-13.469 3.591-3.591 3.144-5.389 7.634-5.389 13.917v.451c.451 4.038 1.798 5.836 5.389 5.836 4.489 0 8.081-2.245 11.225-7.182l.898-.899 3.591-6.283-2.245 8.979v1.794c0 1.793.899 2.696 3.591 3.591 2.699-.002 5.842-1.8 9.433-5.386z"/><path fill="#FFF" d="M477.259 312.075v.451l6.734-4.49v-1.793l-5.835 4.038-.899 1.794zm-42.653-20.204h4.489l.899-1.342h-3.591c-8.532 0-14.368 2.692-16.613 7.182l.447 2.245-1.346 4.042-1.347.447v1.798c0 3.14.899 4.938 2.692 6.283v-.451c0-6.283 1.798-10.773 5.389-13.917 1.348-4.042 4.491-6.287 8.981-6.287zm9.431 4.042h1.794l2.244-5.384h-6.734l-1.346 4.489 1.346.895v1.351h-2.692l-2.244 5.385-8.532 7.633h-.899v2.696c3.144-.902 5.841-3.595 7.634-8.085l4.489-6.287-2.691 10.33v1.346l7.631-14.369z"/><path fill="#6B6A77" d="M407.221 296.36v-.447l-3.144.899-3.591.451-4.043 15.714-1.346 5.385 5.389-1.347c3.144-6.734 7.633-12.57 13.469-17.06l.899-1.351 1.346.451v.899l-1.346 4.937 2.691-.447 1.347-.447 1.346-4.042-.447-2.245-1.798-.898-1.793-.899-3.144 2.245c-3.591 3.144-6.734 6.287-9.879 10.777l2.245-8.532 1.799-4.043z"/><path fill="#FFF" d="M407.221 296.36l-1.798 4.043 6.734-7.182 1.798 1.346-.898 3.591 3.144-2.245 1.793.899.899-2.245c0-1.793-1.347-3.144-4.038-4.038-2.246 0-4.942 1.793-7.634 5.831zm6.734 3.596l2.245-.899-1.346-.451-.899 1.35zm31.429 10.325l-.899 2.245 6.288-4.49v-1.793l-4.941 3.587-.448.451zm-7.634 0l-.898.899 2.244 1.797 2.245-8.979-3.591 6.283zm-37.264-13.017l3.591-.451 1.346-6.283-6.283 1.342-5.389 21.106h2.692l4.043-15.714z"/><path fill="#6B6A77" d="M315.628 252.366l-4.489 1.342-3.591.903-12.123 41.302h-4.938c-5.389 0-9.431.899-12.123 3.144-4.49 2.245-6.285 6.283-6.734 12.124v.895c0 4.042 2.244 6.287 6.734 6.287 4.042 0 8.08-2.245 11.225-6.734l3.591-5.385-2.245 6.283-.447 2.245c0 2.244 1.346 3.591 3.591 3.591 3.144 0 6.734-1.798 10.777-5.385l-1.351-.902c-.447 1.35-2.692 2.696-6.283 3.595l-1.797-.898 1.797-2.696.447-2.245 17.959-57.466zm-25.141 44.898l.898.447 2.692.895-4.937 10.33-6.735 6.734c-1.797 0-2.696-.898-3.595-2.692l-.447-.902v-2.245c.449-8.529 4.491-12.567 12.124-12.567z"/><path fill="#FFF" d="M291.833 301.302c-1.797 3.144-2.691 6.283-2.691 7.634l4.937-10.33-2.692-.895c-2.696 5.836-6.287 9.874-11.676 12.57l-1.346-.451v2.245l.447.902c3.594-.902 7.632-4.941 13.021-11.675z"/><path fill="#FFF" d="M307.548 254.611l3.591-.903 1.798-6.734-6.735 2.696-12.123 40.859h-4.937c-12.575 0-18.411 5.384-18.411 15.714 0 2.245.449 4.038.899 4.938.449-5.841 2.244-9.879 6.734-12.124 1.346-4.94 4.489-7.186 9.427-7.186l5.389 1.351-1.347 2.691h3.592l12.123-41.302zm-17.959 57.017l1.346.898 2.245-6.283-3.591 5.385zm7.633.447l4.938-4.039v-1.793l-4.49 3.587-.448 2.245zm-25.592-39.957l-2.245-2.696c-2.245.903-3.144 2.696-4.49 5.394l-6.285 9.427-1.348.894v1.351l11.673-8.979 1.795-1.797.9-3.594z"/><path fill="#6B6A77" d="M274.321 277.06c0-.451-.447-1.35-2.691-2.244l-.899.895-1.795 1.797-1.346 2.245-7.634 9.427-1.346 1.351h1.346c9.429-5.395 14.365-9.885 14.365-13.471z"/><path fill="#FFF" d="M261.304 290.529h-1.349c-10.775.447-15.714 5.831-15.714 15.714 0 2.692.449 4.49 2.694 5.832v-1.794c0-4.489 1.346-8.08 4.49-10.772 1.346-4.941 4.49-7.638 9.878-7.638 1.346 0 2.692.903 2.692 2.696v1.346c1.798 0 3.593.447 4.939 1.351l.45-2.696c-2.244-2.697-4.489-4.039-8.08-4.039z"/><path fill="#6B6A77" d="M268.935 297.264c-1.346-.903-3.141-1.351-4.939-1.351-5.836 0-9.876.899-12.57 3.596-3.144 2.692-4.49 6.283-4.49 10.772v1.794c0 4.042 2.694 6.287 7.633 6.287l13.02-5.385-.899-.902c-3.591 2.696-6.735 3.595-9.429 3.595-1.346 0-3.142-.898-4.041-2.692l-1.346-.902c5.836-1.342 10.326-3.14 13.02-4.49 4.04-2.245 5.835-4.937 5.835-7.629l-1.794-2.693zm-6.285 0h.45l3.591 2.692c-.449 4.489-4.939 7.629-13.919 10.325h-.896l1.795-4.489.899-2.245c2.244-4.038 4.936-6.283 8.08-6.283z"/><path fill="#FFF" d="M266.69 299.956l-3.591-2.692c-.899 2.692-4.041 4.938-8.53 6.283l-.899 2.245c6.286-1.347 10.326-3.591 13.02-5.836zm-13.919 10.325h-.896.896zm12.124-2.245v-.451c-2.694 1.351-7.184 3.148-13.02 4.49l1.346.902 11.674-4.941zm54.776-28.284l1.346-2.692-4.042-3.595c-1.794 0-3.14 1.351-4.038 3.595 0 1.794.898 2.692 2.691 3.587l2.245-2.245 1.798 1.35z"/><path fill="#6B6A77" d="M317.873 278.401l-2.245 2.245-1.346 1.798c0 1.798 1.346 3.595 3.591 4.042 2.245 0 3.144-1.351 4.489-4.042l-2.691-2.692-1.798-1.351z"/><path fill="#FFF" d="M351.546 312.075l.899.902 12.123-4.941v-.451c-3.143 1.351-7.633 3.148-13.022 4.49z"/><path fill="#6B6A77" d="M352.445 312.978l-.899-.902c5.389-1.342 9.879-3.14 13.022-4.49 3.591-2.245 5.389-4.937 5.389-7.629-.452-1.798-1.798-2.692-2.697-3.144l-4.038-.899c-4.941 0-9.431.899-12.123 2.692-4.042 2.696-6.287 6.287-6.287 11.676v.452c0 4.937 3.144 7.629 8.979 7.629l12.123-5.385v-.902c-3.591 2.696-6.734 3.595-8.979 3.595l-4.49-2.693zm-.899-7.186l.452-1.347c1.346-4.489 4.937-7.182 9.874-7.182l.898.447c.898 0 1.798.447 1.798 2.245 0 4.489-4.043 8.08-12.57 10.325h-.452v-4.488z"/><path fill="#FFF" d="M351.998 304.445l-.452 1.347c6.287-1.347 10.777-3.591 13.022-5.836 0-1.798-.899-2.245-1.798-2.245-1.345 2.245-4.937 4.49-10.772 6.734zm0 5.836h-.452.452z"/><path fill="#FFF" d="M343.466 306.243c0 1.793.447 3.587 1.346 4.49v-.452c0-5.389 2.245-8.979 6.287-11.676 1.347-4.489 4.49-6.734 9.427-6.734 1.798 0 2.696.903 2.696 2.696v1.346l4.038.899v-2.245c-.898-2.696-3.144-4.038-6.734-4.038-11.225 0-17.06 5.384-17.06 15.714zm50.285-9.43v-2.245c0-1.793-.898-3.144-2.696-4.038-2.244 0-4.937 1.793-8.08 5.384l-1.347 4.043 6.735-6.734 1.346 1.346-.447 2.245c1.346-.452 2.245-.899 3.144-.899l1.345.898z"/><path fill="#6B6A77" d="M392.405 295.913c-.898 0-1.798.447-3.144.899-3.144 2.244-6.287 5.836-9.878 12.123l2.244-8.979 1.347-4.043-3.591.899-3.145.451-3.591 15.714-1.346 5.385 4.937-1.347c3.592-6.282 7.634-12.123 12.124-17.06l1.346-1.351 1.346.451v.899l-1.346 4.937 5.389-.895 1.346-4.042c0-1.798-.898-2.692-2.692-3.144l-1.346-.897z"/><path fill="#FFF" d="M391.055 299.057l-1.346-.451-1.346 1.351 2.692-.9zm-9.427-8.528l-6.734 1.342-6.287 21.106h4.042l3.591-15.714 3.145-.451 2.243-6.283zm-38.162-22.449l-6.735 1.342-5.389 15.714h-2.244l-1.347 1.351h3.591l-4.937 17.512c-.898 1.794-1.798 3.587-1.798 4.938 0 1.346.899 2.692 2.245 3.591l.898-3.591 4.938-17.064h-2.692v-1.342h2.692l5.389-15.714 4.042-1.351 1.347-5.386zm-2.245 17.056l-.899 1.351h3.145l1.346-1.351h-3.592z"/><path fill="#6B6A77" d="M340.321 286.486l.899-1.351 3.591-13.018-2.692 1.347-4.042 1.351-5.389 15.714h-2.692v1.342h2.692l-4.938 17.064-.898 3.591-.447 2.245c0 1.793 1.346 2.696 4.937 3.591l9.432-5.385v-.902l-6.734 3.595c-.899 0-1.351-.447-1.351-.898l.898-2.696.452-2.692 5.384-17.512h6.287v-1.342h-6.287l.898-4.044z"/><path fill="#FFF" d="M334.039 309.383l-.452 2.692 5.836-4.039v-1.793l-5.384 3.14zm-18.411-13.917l1.347-6.287-6.735 1.351-4.038 18.406c0 1.798.447 3.14 1.347 3.591l5.389-16.613 2.69-.448z"/><path fill="#6B6A77" d="M319.671 294.567l-4.043.898-2.691.447-5.389 16.613v.451c0 3.587 1.346 5.385 4.042 5.385 2.692-.895 6.283-2.692 10.772-5.385v-.902c-3.591 2.696-5.835 3.595-6.734 3.595-.898 0-1.793-.447-2.691-.898l.898-3.144.447-1.347 5.389-15.713z"/><path fill="#FFF" d="M319.671 308.036v-1.793l-5.389 4.038-.447 1.347 5.836-3.592zm-216.856-28.731l.898-2.245h-.449l-4.041-3.595-3.593 3.595c0 1.794.898 3.14 3.144 4.038.899-1.346 1.795-2.696 3.591-2.696l.45.903z"/><path fill="#6B6A77" d="M102.815 279.305l-.45-.903c-1.795 0-2.692 1.351-3.591 2.696l-.449 1.347c0 1.798.898 3.595 4.04 4.042h.899l2.694-4.042-3.143-3.14z"/><path fill="#FFF" d="M185.875 269.422l2.694-18.854c-.899-2.244-2.245-3.595-2.694-3.595h-.449l-2.245 17.064-12.121 48.939h4.041l10.774-43.554z"/><path fill="#FFF" d="M185.875 245.632c2.245 0 4.041 1.342 4.939 3.14 0-5.385-2.245-8.532-6.734-8.532-4.939 0-11.225 7.638-18.409 23.799l2.694 2.692 7.184-11.225 2.245-5.836 6.285-8.081c1.347 0 1.796 1.347 1.796 4.043zm34.123 2.692v-1.351c0-4.49-2.245-6.734-6.735-6.734-3.144 0-6.285 1.797-7.633 5.393-1.346 2.245-8.081 16.161-18.855 41.302l-3.144 12.123 13.919-35.019c6.285-14.819 11.224-22.449 15.714-22.449 1.346 0 1.795 1.347 1.795 4.043h.899l4.04 2.692z"/><path fill="#FFF" d="M215.058 246.974h-.449l-14.366 61.962 1.346 4.042h.45l4.49-25.145 9.429-28.732 1.795-9.431c-.899-1.793-2.245-2.696-2.695-2.696zm25.143-6.735l-4.49 1.35c-4.939 3.591-10.775 14.364-16.613 33.227l-7.631 18.406-.449 4.042-2.245 6.283 24.694-56.573c1.795-3.587 4.04-5.385 6.734-5.385.45 0 1.346 1.347 1.346 4.043h.899c2.245 0 3.591.895 4.49 2.692-.45-5.388-2.694-8.085-6.735-8.085z"/><path fill="#FFF" d="M241.547 246.974h-.447l-3.593 22.448-13.469 46.248 4.041 1.346 16.164-66.447c-.001-2.245-1.347-3.595-2.696-3.595z"/><path fill="#6B6A77" d="M188.569 250.568l-2.694 18.854-10.775 43.556-1.346 5.385h5.387l19.754-48.94c8.083-14.363 13.918-21.545 15.714-22.448h.449c.45 0 1.796.903 2.694 2.696l-1.795 9.431-9.429 28.732-4.49 25.145-.45 1.794 1.349 3.591 3.591-2.692 12.57-26.491 2.245-7.629 13.469-29.184 6.287-5.393h.447c1.348 0 2.694 1.351 2.694 3.595l-16.164 66.447-1.346 4.038 5.389 2.697 15.714-69.14c0-2.696-.45-4.941-.899-6.287-.899-1.798-2.245-2.692-4.49-2.692h-.899l-3.142 1.342c-5.838 4.489-12.123 15.267-18.408 32.778l-4.041 12.119-6.734 14.372c0 1.793-.45 3.587-.899 4.038l-1.795-1.346 2.245-5.389 2.245-6.283.449-4.042 9.876-40.855c0-1.798-.447-3.147-1.346-4.042l-4.041-2.692h-.899c-3.141.447-5.835 2.245-8.53 4.937l-26.489 59.713 3.591-11.225 3.144-12.123 5.835-20.203v-10.777c0-3.14-.449-5.832-1.795-7.182-.898-1.798-2.694-3.14-4.939-3.14s-5.836 3.587-10.326 9.874l-7.184 11.225-1.346 2.691 5.386 4.043 7.633-20.204c0-.895 1.795-2.692 5.387-6.287h.449c.453-.001 1.799 1.349 2.698 3.593z"/><path fill="#FFF" d="M119.428 295.913l-1.348 4.043 6.734-6.734c.45 0 1.348.447 1.348 1.346l-.898 2.245 3.144-.899 1.346.899v-2.245c0-1.793-.45-3.144-2.245-4.038-2.245 0-4.939 1.793-8.53 5.384h.449z"/><path fill="#6B6A77" d="M118.08 299.956l1.348-4.043h-.45l-3.144.899-3.142.451-3.593 15.714-1.795 5.385 5.388-1.347c3.591-6.282 7.184-12.123 12.121-17.06l1.348-1.351c.45 0 .897.451 1.346.451v.899l-1.346 4.937 5.387-.895c.449-.903 1.348-2.244 1.348-4.042s-.899-2.692-3.144-3.144l-1.346-.899-3.144.899c-2.694 2.244-5.836 5.836-9.876 12.123l2.694-8.977z"/><path fill="#FFF" d="M112.693 297.264l3.142-.451 2.245-6.283-6.735 1.342-6.285 21.106h4.041l3.592-15.714zm13.469 1.341l-1.348 1.351 2.694-.899c-.449 0-.896-.452-1.346-.452zm-33.224-1.341l-1.348.447-2.694 11.225c0 2.245.899 3.591 2.694 4.042l4.041-17.064 3.144-.447 1.795-6.287-7.631 1.351-1.348 5.384h1.348v1.349zm-2.694-5.393v-1.342l-4.939.895-.449 1.798 5.388-1.351z"/><path fill="#6B6A77" d="M102.365 294.567l-3.591.898-3.144.447-4.041 17.064c0 3.587 1.348 5.385 4.041 5.385 2.245-.895 4.939-1.798 7.633-4.043l1.795-1.342v-.902l-1.795.902-4.939 2.692-1.346-.898v-4.491l5.387-15.712z"/><path fill="#FFF" d="M103.713 308.036v-1.793l-.449.447-6.285 3.591v1.347l6.285-3.592h.449zm-26.938-9.431l-4.04-.447-3.593 12.123-8.53-12.57-.899-.447c2.694 4.038 5.838 8.979 9.429 15.714h2.245l5.388-14.373zm17.06-50.728l.449-.903c0-2.692-1.795-4.938-5.389-6.734-.896 0-2.692 1.35-5.386 4.042l-19.754 29.184c-15.714 24.693-32.327 36.816-48.94 36.816-3.142 0-5.836 0-8.081-.898-1.796-.447-3.144-.895-4.041-1.347L0 312.075l10.775.902c13.919 0 28.287-7.186 42.653-22.448l1.795 1.342 1.797-1.794-2.694-.898 33.224-46.243c.899 0 1.346.451 1.346 1.346L88 246.974l3.591-1.342 2.244 2.245z"/><path fill="#6B6A77" d="M91.59 245.632L88 246.974l-1.795 1.351-29.184 41.753-1.797 1.794C41.307 308.036 28.285 315.67 17.51 315.67c-4.041 0-7.631-.447-10.775-1.798-.45-.447-.899-.447-1.346-.895l-4.042 4.038 10.777 1.347c16.162 0 29.631-7.629 42.203-22.449 3.591 1.798 6.735 4.49 9.429 8.085l-4.042-6.734.899.447 12.123.447 4.04.447-5.388 14.372-.897 2.692-2.694-4.489 2.694 7.182h6.285l6.735-19.757 8.081-.895 1.348-.447v-1.351h-9.43l1.346-2.691.449-1.798 4.939-14.364 5.387-24.693c0-1.798-.897-3.147-1.795-4.489l-2.246-2.245zm-1.346 2.692v1.346l-13.469 47.594-3.593-.451-13.917-1.794h-1.348l-2.245-.451.899-1.346.896-.899.45-.451 1.348-1.794 20.651-30.082 7.184-8.08 3.144-3.592z"/><path fill="#FFF" d="M90.244 249.67v-1.346l-3.144 3.591-11.224 39.956-16.611-1.794-1.348 1.794 16.613 1.351-1.348 3.591 3.593.451 13.469-47.594zm-32.776 42.652l-.896.899 1.346 1.797h1.348l-1.798-2.696z"/></svg>