<svg width="336" height="297" viewBox="0 0 522 461.01" xmlns="http://www.w3.org/2000/svg"><path d="M217.62 243.99v109.2c1.221 0 4.092-1.617 5.362-2.167 1.649-.733 3.596-1.203 5.525-1.3 4.75-.299 9.47.388 14.083.542 8.823.27 15.41-2.07 21.45-7.204 2.666-2.297 4.562-5.18 6.23-8.017 7.61-13.036 3.298-27.255-6.067-37.483-2.007-2.2-5.428-5.872-8.016-6.933 0-.492 1.18-1.808 1.462-2.33.494-1.012.787-2.095 1.03-3.195 1.512-7.237-1.41-14.218-5.472-19.283-3.926-4.882-9.246-7.329-14.733-9.317-2.588-.858-5.217-1.661-7.854-2.491-1.91-.57-3.952-1.07-5.687-2.113-1.842-1.129-3.346-2.68-4.713-4.387-.843-1.062-1.745-2.2-2.22-3.521h-.38zm16.467 26.379c4.886 2.605 11.42 6.956 10.237 13.758-.368 1.959-1.194 3.683-2.6 5.092-1.309 1.215-2.946 2.046-4.604 2.654-.67.241-1.36.463-2.059.704-.32 0-.083.488-.054.758.32 2.326 1.142 4.363 2.655 6.013 1.153 1.225 2.705 1.795 4.062 2.654 4.276 2.779 9.486 4.776 12.404 9.262 4.014 6.156 3.067 16.183-3.196 20.583a17.116 17.116 0 01-4.495 2.221c-.912.242-1.788.517-2.709.759-.475.038-1.018.066-1.57.162-2.608-.096-5.227-.124-7.855-.162v-.217c-.397 0-.216-1.179-.216-1.517v-62.725zm183.3 4.604c-1.745 1.988-4.01 3.425-5.958 5.2-2.56 2.21-5.069 4.437-7.638 6.608v.217h-.216v.217c1.047 0 1.78 1.474 2.004 2.275.271 1.032.089 2.471.108 3.629v44.146c0 2.837.56 11.917-.758 13.596v.216h-.217v.163h13.433c0-.338-.361-.705-.487-.975a7.513 7.513 0 01-.434-2.275c-.262-5.278-.054-10.41-.054-15.871.252 0 .217-.025.217.217.804 0 1.738.811 2.329 1.245 4.479 3.088 7.218 7.368 8.07 12.675.253 1.342.395 3.408-.216 4.605 0 .212.036.216-.217.216v.163h13.433c0-1.892-.355-3.626-.704-5.363-1.328-6.561-4.062-13.054-9.316-17.55-.766-.666-1.526-1.328-2.438-1.733v-.38c.737 0 1.723-1.12 2.275-1.516 4.954-4.062 7.695-10.122 7.909-16.683h-8.83c-1.095 0-2.685-.196-3.412.325-.02.029 0 .025 0 .054h-.108c.135.579.199 1.155.325 1.733v2.33c-.398 3.145-5.317 8.346-8.342 9.533v.217h-.38v-34.83c0-1.92.33-11.573-.378-12.403zm80.383 0c-4.527 3.937-9.084 7.862-13.65 11.808-.262 0-.162.154-.162.434.95 0 1.676 1.57 1.841 2.275.02 1.34.025 2.72.054 4.062v43.93c0 2.807.6 11.7-.758 13.378v.217h-.162v.162h13.487c0-.241 0-.162-.271-.162-.097-.454-.278-.974-.434-1.409-.096-.694-.173-1.382-.27-2.058 0-5.162-.054-10.329-.054-15.492h.379c0 .309.65.55.92.704 5.197 2.866 9.232 8.392 9.426 14.625.048 1.187.101 2.467-.325 3.413 0 .212.045.217-.217.217v.162h13.433c0-7.671-3.825-16.913-8.992-22.046-1.047-1.032-2.167-2.08-3.466-2.6v-.38c.872 0 2.068-1.316 2.708-1.895 4.653-4.371 7.227-9.675 7.42-16.304-1.59 0-11.61-.237-12.132.217-.117.038.43 3.604.216 4.55-.736 3.02-5.346 8.147-8.341 9.208v.217h-.433v-43.984c0-1.061.103-2.391-.217-3.25zm-156.22 32.88c-1.192.395-2.505.504-3.63 1.082-.9.425-1.787.975-2.708 1.409v.162h-.162c0-.579-1.111-2.062-1.625-2.275-.95-.424-2.46-.216-3.575-.216h-6.5c-.94.038-1.882.079-2.87.108-.175.096-.403.184-.597.27-.184.55.958 2.005 1.084 2.709 0 1.496.044 2.96.054 4.388v35.587h.162c0 .308.882.162 1.192.162h11.158v-21.017c0-1.862-.388-5.387.27-6.825.98-2.2 3.8-3.638 6.176-3.088 1.415.338 3.104 1.68 3.52 3.088.495 1.611.163 3.978.163 5.85v14.517c0 1.698-.346 4.014.217 5.47.3.86 1.21 1.64 2.112 1.842 1.173.29 2.586.124 3.846.163h8.233v-.163c-.97 0-1.528-2.032-1.625-2.708-.048-1.736-.108-3.428-.108-5.145v-16.684c0-4.786.129-9.263-2.004-12.892-.669-1.196-1.888-2.337-2.925-3.195-1.26-1.1-2.556-1.918-4.117-2.275-1.784-.406-3.783-.325-5.741-.325zm-48.533.108c-1.285-.01-2.62.054-3.846.054-.824.28-1.642.453-2.437.704-1.435.54-3.333 2.017-4.225 3.358-3.539 5.066-3.575 12.396-4.767 18.687-.242 1.775-.51 3.558-.704 5.363-.204 1.428-.42 3.108-.217 4.604.359 2.47 1.768 4.684 3.63 6.391 3.625 3.3 9.745 4.76 15.057 3.9.747-.154 1.492-.362 2.113-.758.572-.367 1.15-1.137 1.896-1.137.766-.03 1.136.82 1.679 1.245a3.745 3.745 0 001.787.813c3.859.029 7.69.015 11.537.054v-.162c-2.045 0-2.232-7.3-2.058-9.046.272-2.837.163-5.947.163-8.938v-13.758c0-2.412-.396-5.664.108-7.854.223-1.07 1.06-2.449 1.787-3.25v-.217h-9.425c-1.105 0-2.54-.178-3.412.217-.805.338-1.131 1.134-1.354 1.896h-.217v-.217c-.368 0-.818-.53-1.137-.704-.747-.395-1.554-.747-2.33-.92-1.12-.247-2.344-.317-3.629-.326zm84.825 0c-1.287-.016-2.595.054-3.846.054-.804.28-1.584.463-2.437.704-1.6.646-3.492 2.054-4.442 3.52-3.354 5.037-3.342 11.85-4.496 17.93-.63 3.203-1.494 7.433-1.029 10.887.184 1.485.97 2.904 1.842 4.062 3.46 4.458 9.214 6.545 15.167 6.12 2.356-.211 4.496-.987 6.716-1.353v9.045c-.029 1.187.129 2.48-.162 3.521-.136.608-.44 1.118-.867 1.571-1.28 1.303-2.585 1.35-4.116 2.113-4.188 0-11.803.447-14.246-2.438h-.163v-.217c-.368 0-.216 1.18-.216 1.517v14.571h.216c0-2.412 7.146-2.008 9.046-2.22 3.52-.396 7.249-.109 10.671-.813 3.975-.82 7.978-3.708 9.588-7.53 2.598-5.924 2.166-13.43 2.166-20.636v-32.284c0-1.457-.119-3.094.163-4.387.261-1.187 1.09-2.175 1.516-3.304.32 0 .271-.1.271-.38h-8.883c-1.222 0-2.71-.179-3.738.217-.882.25-1.268 1.105-1.462 1.896-.446 0-1.173-.778-1.57-1.03-.67-.24-1.317-.482-2.005-.704-1.105-.303-2.396-.417-3.683-.433zm82.875 0c-1.49.003-2.953.054-4.388.054a15.85 15.85 0 01-1.516.379c-5.43 0-9.126 4.606-10.454 9.208-.96 3.3-1.158 7.064-1.517 10.508-.388 3.396-.982 7.412-.487 11.05.62 4.178 3.531 8.145 7.312 10.075 4.993 2.528 13.148 2.65 18.742 1.03 4.11-1.226 7.711-4.446 9.263-8.45 1.997-4.883.3-13.602-.38-18.85-.223-2.017-.472-4.11-1.083-5.905-.708-2.18-1.958-4.416-3.683-6.066-2.872-2.707-7.337-3.044-11.808-3.034zm-165.42 9.858c2.007 0 3.878-.018 4.983 1.517.572.771.73 17.062.217 18.47-.504 1.429-1.883 2.925-3.25 3.63-.504.212-1.003.383-1.517.596-2.307 0-4.11-.855-4.983-2.871-.591-1.38-.457-2.713-.38-4.334.05-4.853.695-12.45 3.197-15.925.446-.646 1.132-.774 1.733-1.083zm84.662 0c1.784 0 4.072-.116 4.983 1.408.65.917.661 17.872.109 19.175-.921 1.988-2.401 2.847-4.117 4.063-2.075 0-3.481-.221-4.712-1.842-2.676-3.725-.405-18.425 2.058-21.667.485-.647 1.01-.8 1.679-1.138zm79.246.541c1.774 0 3.352-.009 4.496 1.246 2.045 2.171 1.874 7.384 2.058 10.617.087 1.38.283 2.989.108 4.388-.145 1.92-.648 3.716-1.462 5.308-.688 1.254-1.834 1.755-2.87 2.546-1.775 0-3.17-.059-4.334-1.246-2.87-2.875-2.243-9.118-2.058-13.325.135-2.837.21-5.983 1.733-8.125.591-.888 1.456-.955 2.329-1.408zm-250.79 5.58c-.494 1.312-1.407 2.554-2.22 3.683-4.024 5.278-10.059 6.9-15.818 9.1-3.732 1.409-7.404 3.304-10.67 5.688-11.043 7.902-15.285 20.9-17.388 33.908-.669 4.004-1.354 8.12-1.354 12.404h-.162c0 .299-2.257.186-2.655.379-.988 0-2.253-.204-3.087.162-3.587 0-6.828.028-9.804-.975-1.997-.666-3.621-1.92-5.58-2.654v-.162h-.162c0 6.6 2.442 11.166 8.017 14.408 1.725.974 3.653 1.929 5.796 2.112 1.87.183 3.814.017 5.579-.108 0 1.293-1.214 4.108-1.68 5.362-3.267 8.723-9.719 15.525-18.036 19.771-1.92.975-3.9 2.141-6.013 2.817v.38c.553.27 1.107.478 1.68.757.872.31 1.673.651 2.545.921 3.636.82 7.93 1.22 12.08.921 16.713-1.312 23.764-16.605 24.753-31.85 3.335 0 6.78-.88 10.183-.542 1.435.145 2.926.32 4.225.813.911.367 1.782.73 2.654 1.03 0-1.525-.825-3.264-1.3-4.605-2.462-6.388-7.582-8.117-14.029-8.938.475-3.058.988-6.066 1.463-9.154 1.502-8.085 4.39-28.183 14.842-28.492v72.8c0 1.776.235 3.933-.163 5.525-.261 1.187-1.146 2.642-2.329 3.25 0 .338 1.744.217 2.113.217h18.85v-.217c-.912 0-1.658-1.265-1.842-1.95-.66-2.016-.325-4.86-.325-7.204V331.36c0-2.19.439-5.5-.162-7.42zm12.675 43.333v.216c-1.367 0-2.803.8-3.792 1.571-6.776 5.433-2.68 16.876 6.23 15.708 9.374-1.196 10.83-14.409 1.95-17.062-1.348-.395-2.779-.433-4.388-.433zm205.51 21.45c-.679.299-1.395.583-2.113.92-.445.058-.869.15-1.354.217h-8.07c-1 0-2.417-.15-3.25.217-3.84 0-7.525 1.887-9.696 4.82-4.43 5.896-.468 12.7 4.495 16.793 3.268 2.682 6.776 3.909 8.017 8.395.31 1.1.17 2.125-.596 2.925-1.9 1.853-7.417-.728-9.046-1.895-.862-.734-1.702-1.488-2.545-2.221v-.163c-.466 0-.36.771-.38 1.138-.01 4.767 0 9.559 0 14.354h.38c0-.25.051-.263.216-.38 1.639-1.041 3.694-.974 5.905-.974h7.475c1.066-.03 2.164-.09 3.25-.109 2.82-.617 5.36-2.491 7.095-4.875 6.215-8.819-1.516-16.084-7.691-21.883-1.387-1.321-4.136-2.468-4.117-4.658 0-.743.192-1.214.813-1.57.591-.406 1.416-.621 2.22-.38 2.24.589 2.938 1.95 5.905 1.95.736 0 1.432-.1 2.004-.379.737-.3 1.125-.92 1.3-1.625.252-1.129.355-10.192-.217-10.617zm-35.262.812c-3.083.027-6.032.24-6.663.867-1.328 1.283-.866 4.114-.866 6.12v15.493c0 3.203.419 7.02-.813 9.587-1.066 2.2-1.96 2.245-3.791 3.413-3.025 0-4.676-2.98-5.471-5.363-.795-2.412-.679-6.255-.92-8.937-.524-6.05-1.058-12.106-1.572-18.146.03-1.158.598-2.284 1.625-2.709v-.216h-12.675c-.882.608-1.626 1.124-2.004 2.166-.475 1.37-.12 3.122.054 4.55.427 3.233.854 6.464 1.3 9.696 1.338 7.237 1.292 19.413 6.663 24.267 1.027.888 2.146 1.441 3.358 2.058 1.6.792 3.39 1.539 5.417 1.625 2.637.145 6.152.439 8.45-.758h.379v6.5c-.078 3.126-.109 5.518-2.6 7.313-1.164.83-2.516.825-3.738 1.462-3.723 0-8.568.074-10.779-3.033h-.216v-.217c-.32 0-.109 1.046-.109 1.354v13.38h.325c0-.338.373-.322.596-.38 1.144-.492 2.622-.35 4.008-.379 2.26-.068 4.775-.091 7.15-.217 1.61-.048 3.446-.082 4.93-.487 4.624-1.216 10.86-5.405 12.837-10.075 2.055-4.979 1.408-11.634 1.408-17.712v-34.992c0-1.466-.254-3.237.162-4.55.175-.588.614-1.074 1.138-1.354v-.217c-1.29 0-4.5-.134-7.583-.108zm-46.367.054c-.749.01-1.476.119-2.004.38-.766.308-1.02 1.007-1.409 1.624v.163h-.108c0-.319-.585-.55-.867-.704-2.811-1.621-6.282-1.409-9.966-1.409-.863.3-1.762.562-2.654.813-1.319.511-3.053 1.767-3.955 2.925-1.105 1.476-2.016 3.278-2.491 5.092-1.396 5.345-1.993 11.07-2.817 16.629-.368 2.508-1.058 5.67-.379 8.179.65 2.499 2.407 4.728 4.55 6.445 3.054 2.413 9.951 3.83 14.246 2.817.776-.154 1.419-.334 2.058-.758.514-.338.966-1 1.625-1.03.824-.057 1.13.803 1.625 1.246.514.406 1.088.633 1.68.759 1.463.029 2.933.08 4.387.108h7.258v-.162c-.33 0-.53-.4-.704-.65-1.512-2.51-1.246-5.988-1.246-9.317v-19.5c.049-3.232.114-6.479.163-9.75.165-1.158 1.04-2.741 1.787-3.63v-.216h-8.558c-.684 0-1.472-.064-2.22-.054zm-125.07.054c-1.047.705-1.63 1.292-1.95 2.546-.068 1.062-.085 2.125-.162 3.196v27.354c0 2.219.392 6.792-.325 8.558-.233.55-.578.891-.975 1.354h-.271v.217h15.6v-.217c-2.996 0-2.275-6.612-2.275-8.937v-21.612c-.049-3.146-.593-6.955-.109-10.13.156-.848.461-1.716 1.246-2.112v-.216h-10.779zm15.762 0c1.357 2.046.758 8.359.758 11.321-.02 9.89 0 19.74 0 29.63-.097.733-.264 1.355-.758 1.895v.163h-.217v.216h13.867v-.216c-1.308 0-.975-7.433-.975-8.938v-8.991c0-1.834-.318-4.025.109-5.742.843-3.425 3.662-5.883 6.987-6.77 2.269-.618 5.516.331 7.096 1.624h.217c-.437-3.242-.845-6.543-1.3-9.804-.136-.8-.08-1.963-.488-2.6-.562-.82-1.6-1.212-2.491-1.462-4.043-1.158-6.773 1.242-9.371 3.683-1.833 0-1.354-2.6-1.354-4.008h-12.08zm30.117 0c.524.521.988.934 1.192 1.571.533 1.65.253 3.702.379 5.525.184 3.426.392 6.867.596 10.292.591 9.823 3.707 16.493 11.104 22.533 1.26 1.042 2.49 2.45 3.954 3.088 0 .299.197.216.487.216.505-1.312.949-2.667 1.463-4.008 1.192-2.866 2.328-5.776 3.52-8.612a506.486 506.486 0 011.734-4.009c.34-.52.937-.909 1.625-.812.465.096.856.446 1.137.812 1.106 1.747 1.678 3.988 2.492 5.85 1.513 3.416 3.213 7.2 4.28 10.78h.379c0-.252.185-.254.379-.38 1.832-1.187 3.503-2.797 5.2-4.225a85.995 85.995 0 012.762-2.546c1.561-1.987 2.874-4.27 4.009-6.5 3.044-5.857 3.019-15.27 3.358-22.479.058-1.862-.019-3.639.379-5.308.126-.675.571-1.233 1.192-1.57v-.217H306.08c-1.687 0-3.563-.171-4.93.379-.116.24.476.67.65.92 1.26 1.467.978 9.826.542 12.026-.29 1.428-.585 2.918-.867 4.279h-.216c-.446-.878-.959-1.792-1.463-2.709-1.493-2.75-2.951-5.616-4.929-8.125-.93-1.215-2.048-2.266-2.98-3.52-2.684 0-8.395 12.063-9.966 14.137v.216h-.216c-.31-1.428-.62-2.92-.921-4.387-.436-2.934-.394-6.4-.054-9.371.077-.54.13-1.139.216-1.68.194-.675.728-1.324 1.3-1.787v-.162h.271v-.217H265.78zm70.85 9.75c1.706 0 3.793-.012 4.82 1.3.282.396.42.859.488 1.409v11.862c0 1.775.402 4.354-.325 5.85-.572 1.293-1.709 2.482-2.979 3.196-.504.24-.958.462-1.462.704-1.726 0-3.252-.313-4.28-1.625-2.801-3.763-.508-18.15 1.896-21.45.485-.637 1.192-.937 1.842-1.246z" fill="#254aa5"/><path d="M183.45 221.97c.368 1.129-.204 2.142.175 3.05 0 1.745.029 3.424.029 5.19-.33 8.154-.854 16.181-.854 24.306 0 7.546-.368 12.766-.368 17.648.039 1.284-.223 8.125-.174 9.379.048 4.178-.834 8.028-1.358 11.994-1.638 12.949-7.833 24.431-17.693 33.134-3.5 3.05-7.087 5.616-10.974 7.845-1.221.588-2.453 1.225-3.693 1.833-.136.029-.243.087-.417.087h-.504a487.466 487.466 0 00-6.04-3.812c-4.237-2.44-9.104-4.313-14.154-5.046-2.414-.328-5.235-.695-7.863-.328-15.88 2.017-31.983 14.29-39.264 28.426-2.21 4.274-3.916 8.578-4.847 13.557-.601 3.483-.66 7.941-.242 11.637 1.289 13.682 6.224 24.817 15.715 34.283 5.05 5.008 10.296 9.07 15.899 12.862 2.055 1.274 4.178 2.586 6.204 3.908.204.087.369.087.369.395h.232v.174c-8.357-.27-17.887-5.124-24.217-9.485-4.634-3.242-9.132-6.32-13.253-10.575-2.278-2.287-4.188-4.882-5.943-7.44-2.026-3-4.168-5.953-5.73-9.195-4.381-9.098-6.844-20.58-6.117-32.112.446-6.908 2.007-13.316 4.16-19.336 1.202-3.357 3.111-6.387 4.915-9.436 9.345-15.294 25.769-24.981 39.99-34.591 9.181-6.147 18.334-12.4 27.534-18.565 8.802-5.954 17.547-11.752 25.129-19.761 6.883-7.324 12.419-15.901 16.47-24.663 1.687-3.725 5.488-11.54 6.884-15.361" fill="#ed1c24"/><path d="M182.08 181.51c.368 1.032.213 2.5.213 3.782v8.24c0 5.288-.213 11.695-.824 16.645-1.415 11.212-6.553 19.732-12.109 28.889-1.929 3.135-4.12 5.982-6.156 9.002-1.832 2.654-3.81 5.375-6.098 7.72-3.742 3.859-7.823 7.361-11.954 10.478-6.602 4.912-12.98 9.736-19.96 13.952-7.107 4.275-13.874 9.1-20.728 13.74-14.639 9.833-29.705 21.102-39.894 36.116-2.899 4.255-4.876 8.983-6.709 13.74-2.889 7.459-4.488 16.278-3.907 25.406.505 8.28 3.045 15.728 5.992 22.781 1.968 4.545 4.198 8.974 7.145 13.065 3.344 4.863 7.862 9.408 12.496 13.344 4.74 4.034 9.471 7.73 14.56 11.087.699.492 7.185 3.628 7.95 3.628 0 .068-4.537-.82-4.537-.694-9.248-1.92-17.906-6.909-24.848-12.553-16.995-13.981-28.328-33.25-29.346-55.81-.397-7.873.059-15.543 2.599-22.143 10.364-26.863 35.618-47.598 58.527-64.754a5563.961 5563.961 0 0123.965-18.17c5.147-3.907 10.315-7.815 15.482-11.732a330.305 330.305 0 014.624-4.545c8.24-8.24 15.492-16.972 21.367-26.564 1.667-2.74 3.393-5.471 4.818-8.327 2.511-5.2 4.508-10.932 5.652-16.799.62-3.117 1.503-6.262 1.677-9.524" fill="#b49142"/><path d="M179.63 1c1.512 0 2.996 0 3.84 1.254 1.017 1.457.542 5.645.542 7.758.078 10.488.543 114.13.543 120.65.145 7.189-.068 15.882-.175 23.157-.29 19.626-6.99 37.177-15.55 52.664-3.267 5.828-5.962 11.82-10.596 17.011-3.286 3.686-6.602 7.353-10.238 10.778-7.145 6.648-14.678 12.553-22.24 18.381-7.852 6.533-15.696 13.065-23.558 19.53-5.526 4.158-11.062 8.317-16.355 12.986-3.402 2.991-6.621 6.108-9.995 9.157-3.47 3.146-6.582 6.803-9.888 10.228-9.773 10.045-18.498 21.44-22.59 34.408-1.473 4.525-2.53 8.887-3.189 13.837-.562 4.236-.184 8.916.107 13.161 1.357 21.797 11.449 41.124 28.54 54.381 5.323 4.12 10.878 7.816 16.957 10.44 1.221.521 3.45 1.891 4.78 1.891v.184c-20.476-2.51-38.828-9.707-54.582-21.527-3.015-2.2-5.74-4.825-8.415-7.45C8.15 384.487-1.37 356.987 1.51 327.153c1.309-13.894 4.576-26.834 10.034-38.625 9.23-19.993 24.334-36.04 41.251-51.352 3.742-3.088 7.436-6.147 11.11-9.225 6.389-5.075 12.584-10.295 18.876-15.64 2.899-2.529 5.788-5.038 8.706-7.566 8.483-7.999 17.305-15.699 25.129-24.46 9.404-10.652 18.468-21.44 26.263-32.884 4.692-6.899 8.958-13.98 13.214-21.035 3.316-5.461 6.06-11.27 8.677-17.098 9.122-20.85 14.988-45.099 15.783-70.013.262-7.94-.31-15.39-1.367-22.569-.436-2.47-.863-4.95-1.338-7.449-.369-1.707-.882-3.628-.66-5.528.175-1.457 1.31-2.133 2.444-2.712" fill="#254aa5"/></svg>