<svg xmlns="http://www.w3.org/2000/svg" width="544.079" height="162.48" viewBox="0 0 143.954 42.989"><defs><linearGradient id="a" gradientUnits="userSpaceOnUse" x1="56.794" y1="161.281" x2="135.283" y2="147.441" gradientTransform="translate(35.37 131.3) scale(.26458)"><stop offset="0" stop-color="#21409a"/><stop offset=".075" stop-color="#20429b"/><stop offset=".146" stop-color="#1e489e"/><stop offset=".215" stop-color="#1a53a5"/><stop offset=".283" stop-color="#1560ae"/><stop offset=".349" stop-color="#0d71ba"/><stop offset=".416" stop-color="#0088ca"/><stop offset=".48" stop-color="#00a4df"/><stop offset=".53" stop-color="#00c0f3"/><stop offset=".565" stop-color="#00b2e9"/><stop offset=".726" stop-color="#017fc3"/><stop offset=".857" stop-color="#165eac"/><stop offset=".951" stop-color="#1e489e"/><stop offset="1" stop-color="#21409a"/></linearGradient></defs><path class="st0" d="M104.799 27.593l-3.969 4.657h-3.122l13.15-15.425h6.217l1.64 15.425h-6.19l-.503-4.657zm6.985-2.328l-.556-5.186-4.418 5.186z" fill="#21409a"/><path class="st1" d="M47.728 16.825s3.334-.106 2.487 2.751l-.74 2.355c-.741 1.985-2.038 2.25-3.996 2.25 2.011 0 3.07.555 2.646 1.984l-1.032 3.254c-.9 2.328-2.566 2.805-5.927 2.805H27.514l4.974-15.426h15.24zm-11.72 8.308l-1.297 4.021h5.106c.53 0 1.217-.29 1.402-.846l.688-2.17c.159-.503-.053-1.005-.793-1.005zm1.904-5.98l-1.164 3.651h5.08c.767 0 1.217-.29 1.402-.846l.582-1.8c.159-.502-.053-1.005-.82-1.005zm43.259 1.72h10.822c1.826 0 2.937 1.085 2.46 2.62l-1.322 4.1H82.23l-.424 1.323c-.185.662.106 1.032 1.032 1.032h9.525l-.74 2.328H77.255c-2.196 0-2.276-1.402-1.694-3.307l1.64-5.106c.636-1.985 1.932-2.99 3.97-2.99zm1.826 4.392l.37-1.19c.186-.583.477-.874 1.218-.874h2.751c.582 0 .873.344.768.635l-.45 1.429z" clip-rule="evenodd" fill="#21409a" fill-rule="evenodd"/><path class="st0" fill="#21409a" d="M123.134 20.873h6.218l-3.625 11.377h-6.217zm7.885 0h6.218l-.556 1.72c.344-.688 1.217-1.72 2.91-1.72h3.863l-1.005 3.122h-3.863c-1.376 0-2.54.556-2.91 1.667l-2.117 6.588h-6.218zm-78.264-4.048H59L54.052 32.25h-6.218z"/><path class="st1" d="M59.37 20.873h6.217l-2.328 7.276c-.185.556.212 1.005 1.058 1.005h1.905s1.376.053 1.773-1.137l2.302-7.144h6.218L72.89 32.25H59.079c-2.064 0-2.805-1.773-2.117-3.836z" clip-rule="evenodd" fill="#21409a" fill-rule="evenodd"/><path d="M1.003.5s16.113 1.561 17.489 4.895C19.867 8.729 7.829 24.207 7.829 24.207s7.646-11.695 5.583-16.722C11.348 2.431 1.002.5 1.002.5z" class="st2" fill="#00c0f3"/><path d="M69.421 160.696c-.767-1.852-4.498-3.36-8.943-4.498a43.083 43.083 0 01-1.984 3.651c1.402 1.165 2.54 2.514 3.148 4.049 3.175 7.725-8.52 25.585-8.52 25.585s18.416-23.68 16.299-28.787z" class="st3" fill="url(#a)" transform="translate(-42.172 -146.993)"/><path d="M12.909 8.014C6.532 6.797.5 6.215.5 6.215s6.932 1.323 12.541 4.445c.106-.979.08-1.879-.132-2.646z" class="st0" fill="#21409a"/></svg>