<svg viewBox="0 0 750 228" xmlns="http://www.w3.org/2000/svg"><g fill="#EB2227"><path d="M186.2 47.7h.2c13.1-1.4 26.2-13.2 24.1-27.1-1.9-12.7-13.4-20.7-25.7-19.1-7 .9-15.4 5.2-18.9 11.6-3.3 5.8-3.8 12.8-2.5 19.2 2.3 10.7 12.5 15.7 22.8 15.4"/><path d="M32.3 107.3c1.5-13-8.1-19-16.9-21.3C7.6 84.2 1.2 83.2 3 77.2l.3-.6c2.8-6 9.8-9.1 19.2-11.6 1.3-.3 2.6-.7 4-1 8.8-2 19.2-2.8 29.2-4.6 4.5-.8 8.8-1.8 12.8-3.2 9.3-4.1 15.3-13.1 19.1-22.2 1.6-3.7 2.8-7.5 3.7-11 1.4-5.5 2.4-10.3 4.1-13.8 1.7-3.2 4.1-5.3 7.9-5.9 7.4-.8 10.4 7.3 12.8 19 2.8 13.5 2.4 32.5 8.9 44.1 3.5 4.7 10.2 6.4 18.2 6.4 9.5 0 20.8-2.5 30.9-5.5 12.6-3.7 23.6-7.1 30.6-6.5 3.6.3 6.2 1.7 7.5 4.8.3.8.4 1.7.4 2.6-1.5 7.3-14.2 15.8-30.4 25.7-20.5 12.3-46.4 23.4-56.9 36-1.8 2.4-2.9 5.1-3.3 7.9-2.9 12.4 7.1 28.5 18.7 41.7 11.1 12.6 21.4 23.3 20.9 30.3-.4 1.4-1.4 2.7-3.1 3.7-1.7 1.1-3.8 1.6-6.1 1.5-9.2-.3-22.9-9-37.9-20.1-18.9-13.9-36.7-32.8-51-38.6-1.3-.4-2.6-.7-3.9-.7-10.5-.3-19.7 12.3-25.6 24.6-5.3 11.4-9.3 21.2-13.8 20.3-.9-.2-1.8-.8-2.8-1.9-2.5-2.9-3.3-7.9-3.1-14.3.3-6.3 1.7-13.8 3.5-22.1 3.4-15.5 9.8-32.4 12.9-46.1.7-3.1 1.3-6 1.6-8.8m641.8 75.8h26.2l8.2-58.1c1.6-.6 3.6-.9 5.4-.9 4 0 7.6 1.7 6.8 7.5l-7.3 51.5h26.1l7.3-51.7c3.1-22.2-12.3-30.3-31.7-30.3-10.4 0-21.4 2.5-30.4 6.5l-10.6 75.5zm-32.8-58.6c3.1 0 6.7 2.2 6.2 5.9l-3.6 26.2c-.6 4.3-4.5 6.1-7.9 6.1s-6.5-2.3-6-6.1l3.6-26.2c.4-3.8 4.6-5.9 7.7-5.9m-37.1 31.8c-2.6 18.8 12.4 28.4 28.7 28.4 16.5 0 34.3-9.5 36.9-28.4l3.6-25.4c2.8-19.9-12.3-29.5-28.6-29.6-16.5.2-34.3 9.8-37.1 29.6l-3.5 25.4zm-35.4 7.3c-1.5.5-3.3.8-5 .8-4.3 0-8.5-1.9-7.9-6.5l4-27.9c.8-5 5.4-7 9.5-7 2 0 3.7.3 5 .9l-5.6 39.7zM608 73.2h-26.4l-4 29.5c-3.3-1.1-6.8-1.6-10.2-1.6-15.5 0-30.6 9-33.1 27l-3.9 27.5c-3.1 21.9 11.8 29 28.7 29 11.8 0 24.1-3.1 34.1-6.8L608 73.2zM453.2 183.1h26.2l8.2-58.1c1.5-.6 3.6-.9 5.4-.9 4 0 7.6 1.7 6.8 7.5l-7.3 51.5h26.1l7.3-51.7c3.1-22.2-12.3-30.3-31.7-30.3-10.4 0-21.4 2.5-30.4 6.5l-10.6 75.5zm-37.4-53.2c.6-4.5 5-7.1 8.7-7.1 5 0 6.8 3.7 6.2 7.5-.9 8.1-9.6 10.1-16 7.3l1.1-7.7zm-3.6 23.1c18.6 4.2 39.3-3.4 42.1-22.4 2.9-19.7-10.1-29.5-26.7-29.5s-34.5 10.6-37.3 30.7l-3.3 23c-2.8 19.6 12.4 29.8 28.6 29.8 9.3 0 20.3-1.7 31.5-13l-12.6-12.7c-7.4 7-24 6.2-22.3-5.9m-35.5-51.8c-19.4 0-33.8 9.5-36.8 31.4l-7 50.6h26.2l7-50.3c1.2-8.9 13.7-10.2 20.6-7.8l3.1-21.9c-6.4-1.7-10.3-2-13.1-2m-76.2 23.3c3.1 0 6.7 2.2 6.2 5.9l-3.6 26.2c-.6 4.3-4.5 6.1-7.9 6.1s-6.5-2.3-6.1-6.1l3.6-26.2c.5-3.8 4.7-5.9 7.8-5.9m-37.1 31.8c-2.6 18.8 12.4 28.4 28.7 28.4 16.5 0 34.3-9.5 36.9-28.4l3.6-25.4c2.8-19.9-12.3-29.5-28.6-29.6-16.4.2-34.3 9.8-37.1 29.6l-3.5 25.4zm-27.7-.3c-2.2 4.7-6.2 6.7-9.8 6.7s-6.8-2.5-6.2-6.8l3.7-25.8c.6-4.5 4.5-6.8 8.2-6.8 3.3 0 6.5 2.2 6.8 6.8l23-6.8c-2.3-17.2-15.8-22-26.7-22-16.3 0-34.1 8.2-36.9 27.9l-3.7 26.2c-2.8 19.6 12.6 29.3 28.9 29.3 10.9 0 26.4-5.6 34.6-23.6l-21.9-5.1zm483.5 46.9c.7-3.3 4.4-4.7 8-4.7 3.3 0 6.6 1.3 7.5 4.2l3.6-1.5c-1.3-4.4-5.9-6.4-10.5-6.4-5.4 0-11.1 2.8-12.2 8.3-.8 6.3 4.2 7.9 9.2 8.9 4.3.9 8.3 1.8 7.3 6.3-.7 3.4-4.6 5-8.3 5-3.4 0-6.7-1.5-7.6-4.5l-3.6 1.5c1.3 4.5 6 6.7 10.7 6.7 5.6 0 11.4-2.8 12.5-8.5 1.5-7.7-4.3-8.9-9.6-9.9-4.1-.8-7.8-1.6-7-5.4m-38.7-4.2h16.4l.5-3.7h-20.1l-4.4 31.3H693l.5-3.7h-16.4l1.4-10.1h15.1l.5-3.7H679l1.5-10.1zM648 221.2L635.6 195h-4l-4.4 31.3h3.7l3.5-25.1 12.1 25.1h4.5l4.4-31.3h-3.7l-3.7 26.2zM609.6 195h-3.7l-4.4 31.3h3.7l4.4-31.3zm-46 31.3h18.7l.5-3.7h-15l3.9-27.6H568l-4.4 31.3zm-36.7-16.2l1.6-11.4h8.3c4.1-.1 6.8 1.3 6.1 5.7-.6 4.3-3.5 5.7-7.7 5.7h-8.3zm12.6 16.2h4.5l-8.3-12.8c5.4-.3 9.9-2.9 10.8-9.1.8-6.7-3.4-9.4-9.4-9.4h-11.9l-4.4 31.3h3.7l1.8-12.8h4.8l8.4 12.8zM503.3 195h-3.7l-4.4 31.3h3.7l4.4-31.3zm-33.7 17.5H460c2.3-4.7 4.5-9 6.7-13.6l2.9 13.6zm-.1-17.5H465l-15.6 31.3h3.9l4.9-10h12.1l2.3 10h3.9l-7-31.3z"/></g></svg>