<svg viewBox="0 0 400 100" xmlns="http://www.w3.org/2000/svg"><path d="M36.315 5.61v5.647c-.206 0-.42-.01-.646-.032s-.442-.031-.646-.031H33.67c-.657 0-1.313.02-1.97.063s-1.312.127-1.968.254c-1.026.042-2.02.221-2.984.54-.963.316-1.917.707-2.86 1.172-.739.34-1.446.762-2.122 1.27a15.982 15.982 0 00-1.877 1.649 14.25 14.25 0 00-1.569 1.934 13.295 13.295 0 00-1.2 2.19 17.22 17.22 0 00-.922 2.505c-.246.868-.41 1.724-.492 2.57-.083.424-.144.867-.185 1.333-.04.465-.062.93-.062 1.395 0 .423.032.846.093 1.27.06.421.113.867.154 1.332.163.888.41 1.743.737 2.569.329.825.74 1.618 1.232 2.379a22.757 22.757 0 003.199 3.584 18.093 18.093 0 003.875 2.697c1.312.423 2.646.74 3.999.951 1.353.212 2.707.317 4.06.317a24.226 24.226 0 003.507-.253v5.457H32.07l-4.184-.065c-1.066-.084-2.133-.275-3.199-.57s-2.09-.677-3.076-1.143c-.86-.38-1.691-.835-2.491-1.364-.8-.528-1.549-1.13-2.246-1.808a15.154 15.154 0 01-2.029-1.966c-.616-.72-1.19-1.48-1.724-2.285-.655-1.099-1.22-2.252-1.691-3.457s-.871-2.443-1.2-3.71a50.495 50.495 0 01-.215-3.903 47.9 47.9 0 01.092-3.839c.165-1.14.42-2.252.769-3.33.35-1.078.79-2.126 1.323-3.14a46.78 46.78 0 011.814-2.95 22.123 22.123 0 012.124-2.697c.614-.72 1.302-1.364 2.06-1.935s1.549-1.068 2.369-1.49a24.598 24.598 0 013.752-1.682 26.94 26.94 0 013.937-1.046 27.06 27.06 0 012.584-.382 26.262 26.262 0 012.584-.127c.492 0 .984.01 1.477.032.492.022.964.075 1.415.158V5.61zm19.623 13.14c.697 0 1.405.064 2.123.19.717.127 1.404.317 2.06.57 1.026.382 2 .868 2.923 1.46s1.774 1.29 2.553 2.094c.78.804 1.466 1.692 2.06 2.664.595.973 1.057 2.01 1.385 3.109a15.93 15.93 0 01.646 3.3c.102 1.14.113 2.283.03 3.425a12.64 12.64 0 01-.676 3.236 17.024 17.024 0 01-1.414 3.044 15.107 15.107 0 01-2.031 2.698 15.34 15.34 0 01-2.585 2.189c-.9.549-1.876.993-2.92 1.332a13.874 13.874 0 01-3.17.634c-.204.042-.4.073-.584.094a4.878 4.878 0 01-.584.033c-.205.042-.4.063-.585.063h-.584c-.697 0-1.384-.042-2.06-.127a18.341 18.341 0 01-2.062-.38 15.206 15.206 0 01-2.983-1.364 17.832 17.832 0 01-2.677-1.936 18.615 18.615 0 01-2.122-2.632 15.554 15.554 0 01-1.57-3.014 19.338 19.338 0 01-.675-2.537 13.559 13.559 0 01-.246-2.602v-.761c0-.084.01-.19.03-.317.02-.127.031-.254.031-.381.081-1.141.298-2.263.646-3.362a17.3 17.3 0 011.323-3.108 18.112 18.112 0 011.938-2.698 15.734 15.734 0 012.43-2.252 15.204 15.204 0 016.09-2.41 19.818 19.818 0 011.63-.19 10.254 10.254 0 011.63 0v-.064zm.738 5.139c-.164 0-.317-.01-.461-.032a2.591 2.591 0 00-.4-.031 1.814 1.814 0 00-.46-.064h-.463c-.205 0-.409.01-.615.031s-.41.033-.615.033l-.615.126c-.205.043-.41.106-.615.191a7.822 7.822 0 00-2.276.983 8.427 8.427 0 00-1.907 1.682 12.25 12.25 0 00-1.292 1.712 9.544 9.544 0 00-.924 1.967 19.333 19.333 0 00-.369 2.22 14.303 14.303 0 00-.061 2.284c.041.72.165 1.439.369 2.158.206.719.472 1.395.8 2.029a7.3 7.3 0 001.23 1.809 15.739 15.739 0 001.6 1.49c.616.424 1.261.772 1.937 1.048a7.992 7.992 0 002.061.538 8.381 8.381 0 004.307-.38 7.801 7.801 0 001.938-.888 9.441 9.441 0 001.691-1.397 7.781 7.781 0 001.416-1.649 9.75 9.75 0 00.984-1.966 7.138 7.138 0 00.43-1.522 9.957 9.957 0 00.124-1.587v-.667a3.52 3.52 0 00-.061-.665 8.028 8.028 0 00-.185-2.22 9.763 9.763 0 00-.739-2.094 8.026 8.026 0 00-1.23-1.935 9.775 9.775 0 00-1.6-1.492 7.388 7.388 0 00-1.876-1.11 8.068 8.068 0 00-2.123-.54v-.062zm26.995-5.074a8.015 8.015 0 011.015-.064h.954c.328 0 .656.012.984.033.329.02.635.052.923.094 1.271.254 2.46.698 3.568 1.332a10.747 10.747 0 012.892 2.412 10.048 10.048 0 013.199-2.602 10.617 10.617 0 013.937-1.142 14.96 14.96 0 012.183.033c.718.063 1.426.2 2.123.411a7.48 7.48 0 011.6.54 6.45 6.45 0 011.354.857c.45.338.881.708 1.291 1.11.41.401.78.835 1.107 1.3.41.677.748 1.374 1.015 2.094.266.719.483 1.48.646 2.284V48.38h-5.106V29.728c-.04-.55-.123-1.1-.246-1.65-.124-.55-.287-1.1-.492-1.65-.41-.718-.953-1.333-1.63-1.84s-1.426-.825-2.246-.95a3.8 3.8 0 00-1.045-.128 4.96 4.96 0 00-1.816.349 5.041 5.041 0 00-1.63 1.046 5.874 5.874 0 00-1.291 1.841 5.427 5.427 0 00-.493 2.283v19.35h-5.23V29.284a7.417 7.417 0 00-.584-2.57 6.34 6.34 0 00-1.445-2.126c-.288-.254-.615-.465-.985-.634s-.737-.275-1.107-.317a1.59 1.59 0 01-.338-.032 1.408 1.408 0 00-.277-.032.596.596 0 00-.277-.063h-.338c-.246 0-.482.01-.707.032a2.233 2.233 0 00-.646.158 4.91 4.91 0 00-2.277 1.27 6.13 6.13 0 00-1.476 2.22 9.885 9.885 0 00-.278 1.237c-.06.402-.091.836-.091 1.3v.19c0 .086.02.149.061.19V48.38h-5.23V28.585c0-.55.052-1.088.155-1.618.102-.528.236-1.067.4-1.617a11.187 11.187 0 011.784-2.886 12.357 12.357 0 012.522-2.254 10.17 10.17 0 011.754-.824 13.518 13.518 0 011.814-.508v-.063zm49.911 0a2.1 2.1 0 00.523.063h.522c1.026.043 2.041.212 3.046.508s1.959.72 2.861 1.269a7.186 7.186 0 011.477.793c.45.317.881.687 1.291 1.11 1.067 1.015 1.927 2.189 2.584 3.521s1.066 2.74 1.231 4.22v18.08h-5.045V31.567a8.797 8.797 0 00-.34-1.84 7.52 7.52 0 00-.768-1.776c-.614-1.099-1.434-2.01-2.46-2.728s-2.154-1.185-3.384-1.396c-.287-.085-.605-.137-.954-.158s-.686-.032-1.015-.032h-.4c-.144 0-.276.021-.399.063-.123 0-.257.01-.4.032a2.797 2.797 0 01-.4.031 7.81 7.81 0 00-3.568.984 7.417 7.417 0 00-2.707 2.57c-.533.888-.943 1.84-1.23 2.855s-.431 2.072-.431 3.171v.888c0 .17.01.328.031.477.02.148.051.284.092.412.042.635.144 1.258.308 1.872s.389 1.215.677 1.807c.287.55.614 1.068.984 1.555.37.486.758.94 1.168 1.364.452.423.943.782 1.477 1.078s1.087.53 1.66.698c.453.17.924.296 1.415.382a8.79 8.79 0 001.477.127h.216a.2.2 0 00.153-.065h.37a6.778 6.778 0 001.63-.317 7.46 7.46 0 001.507-.698c.533-.338 1.035-.73 1.508-1.174.472-.444.871-.92 1.199-1.426v6.09a10.873 10.873 0 01-3.076 1.65 13.496 13.496 0 01-3.444.698 4.221 4.221 0 01-.709.062h-.707a29.01 29.01 0 01-1.445-.158 9.942 9.942 0 01-1.385-.286 8.74 8.74 0 01-2.245-.824 14.46 14.46 0 01-2.061-1.332 22.233 22.233 0 01-1.661-1.492 16.003 16.003 0 01-1.476-1.68 17.6 17.6 0 01-1.23-1.998 14.788 14.788 0 01-.924-2.127 18.28 18.28 0 01-.553-2.568 18.707 18.707 0 01-.185-2.634c0-.803.062-1.596.185-2.379.122-.782.287-1.555.491-2.316a15.01 15.01 0 01.924-2.314c.368-.742.778-1.45 1.23-2.127.45-.592.933-1.142 1.445-1.649a14.813 14.813 0 011.63-1.396 10.25 10.25 0 013.937-1.967 18.423 18.423 0 012.647-.57c.9-.128 1.804-.17 2.706-.128v-.063zm22.375.184h5.414v29.5h-5.414V19zm2.461-10.024a3.18 3.18 0 011.477.348c.45.233.82.56 1.107.984.123.169.236.359.338.571.103.21.195.423.277.634 0 .085.01.159.03.223a.705.705 0 01.032.221c0 .042.01.096.03.159a.532.532 0 01.032.158v.381c0 .127-.01.244-.032.349-.02.106-.03.202-.03.285-.04.086-.083.18-.123.286s-.083.223-.123.348a5.946 5.946 0 01-.523.699 3.44 3.44 0 01-.646.57 5.511 5.511 0 01-1.047.286 6.568 6.568 0 01-1.106.096 2.943 2.943 0 01-.831-.254 5.707 5.707 0 01-.769-.444c-.246-.211-.461-.455-.646-.73s-.338-.56-.46-.857v-.317a.22.22 0 01-.062-.158v-.159a5.33 5.33 0 01.368-1.649c.205-.508.513-.973.923-1.396.206-.127.42-.243.646-.349s.441-.158.646-.158a.54.54 0 01.246-.065h.246v-.062zm25.572 9.84v4.695c-.615 0-1.23.032-1.845.095a9.899 9.899 0 00-1.784.35c-.533.168-1.035.39-1.507.665s-.932.603-1.384.984c-.41.423-.78.877-1.107 1.363a6.926 6.926 0 00-.8 1.618 17.812 17.812 0 00-.369 2c-.082.654-.123 1.32-.123 1.997V48.38h-5.23V19.005h4.922v3.617a19.82 19.82 0 011.077-1.27 6.01 6.01 0 011.322-1.077c.452-.296.943-.55 1.476-.761a7.447 7.447 0 011.6-.445c.411-.085.81-.158 1.2-.222a7.53 7.53 0 011.2-.096h.338c.102 0 .216.022.338.064.123 0 .235.01.339.032.102.02.215.031.338.031v-.063zm23.188-13.074h5.413v29.312c0 .676.063 1.32.185 1.935.123.613.288 1.215.492 1.807.246.55.544 1.047.892 1.491s.729.857 1.139 1.237c.82.508 1.671.888 2.553 1.142s1.794.36 2.738.317l6.151-.063v5.456h-6.829l-2.215-.19c-1.394-.168-2.717-.55-3.968-1.142s-2.388-1.375-3.414-2.347c-.41-.465-.799-.953-1.168-1.46s-.718-1.036-1.047-1.586c-.245-.72-.45-1.46-.614-2.22s-.267-1.544-.308-2.348V5.742zm25.401 13.258h5.414v29.5h-5.414V19zm2.461-10.024c.533 0 1.025.116 1.477.348.45.233.82.56 1.107.984.123.169.235.359.338.571.103.21.195.423.277.634 0 .085.01.159.03.223a.705.705 0 01.032.221c0 .042.01.096.03.159a.532.532 0 01.031.158v.381c0 .127-.01.244-.031.349-.02.106-.03.202-.03.285-.042.086-.083.18-.123.286a5.844 5.844 0 00-.123.348c-.164.255-.34.488-.523.699-.185.212-.4.402-.647.57a5.471 5.471 0 01-1.046.286 6.58 6.58 0 01-1.107.096 2.93 2.93 0 01-.83-.254 5.627 5.627 0 01-.77-.444c-.245-.211-.46-.455-.645-.73s-.338-.56-.461-.857v-.317a.215.215 0 01-.062-.158v-.159a5.36 5.36 0 01.369-1.649c.205-.508.513-.973.923-1.396.204-.127.42-.243.646-.349s.441-.158.646-.158a.54.54 0 01.246-.065h.246v-.062zm20.228 9.84a8 8 0 011.015-.064h.954c.327 0 .656.012.984.033.329.02.635.052.923.094 1.271.254 2.46.698 3.567 1.332a10.722 10.722 0 012.892 2.412 10.067 10.067 0 013.2-2.602 10.61 10.61 0 013.936-1.142 14.964 14.964 0 012.184.033c.718.063 1.426.2 2.122.411a7.505 7.505 0 011.6.54 6.4 6.4 0 011.354.857c.451.338.88.708 1.292 1.11.41.401.78.835 1.107 1.3.41.677.748 1.374 1.015 2.094.266.719.482 1.48.646 2.284V48.38h-5.106V29.728c-.04-.55-.123-1.1-.246-1.65-.124-.55-.287-1.1-.492-1.65a6.007 6.007 0 00-1.63-1.84 4.943 4.943 0 00-2.246-.95 3.8 3.8 0 00-1.045-.128 4.96 4.96 0 00-1.816.349 5.041 5.041 0 00-1.63 1.046 5.874 5.874 0 00-1.291 1.841 5.427 5.427 0 00-.493 2.283v19.35h-5.23V29.284a7.417 7.417 0 00-.584-2.57 6.324 6.324 0 00-1.446-2.126c-.287-.254-.614-.465-.984-.634s-.737-.275-1.107-.317c-.123 0-.235-.01-.339-.032a1.385 1.385 0 00-.276-.032.596.596 0 00-.277-.063h-.338c-.246 0-.482.01-.707.032a2.252 2.252 0 00-.647.158 4.913 4.913 0 00-2.276 1.27 6.13 6.13 0 00-1.476 2.22c-.123.423-.216.835-.278 1.237s-.092.836-.092 1.3v.19c0 .086.021.149.062.19V48.38h-5.23V28.585c0-.55.052-1.088.155-1.618.102-.528.236-1.067.4-1.617a11.187 11.187 0 011.784-2.886 12.357 12.357 0 012.522-2.254 10.092 10.092 0 011.754-.824 13.518 13.518 0 011.814-.508v-.063zm38.475.184h5.414v29.5h-5.414V19zm2.46-10.024a3.18 3.18 0 011.476.348c.452.233.82.56 1.109.984.123.169.235.359.337.571.103.21.194.423.277.634 0 .085.01.159.031.223.02.063.03.137.03.221a.5.5 0 00.032.159.55.55 0 01.03.158v.381c0 .127-.01.244-.03.349a1.493 1.493 0 00-.032.285c-.04.086-.08.18-.123.286a8.56 8.56 0 00-.123.348 5.946 5.946 0 01-.523.699 3.4 3.4 0 01-.645.57 5.498 5.498 0 01-1.046.286 6.59 6.59 0 01-1.108.096 2.921 2.921 0 01-.83-.254 5.641 5.641 0 01-.77-.444c-.246-.211-.46-.455-.645-.73s-.338-.56-.461-.857v-.317a.22.22 0 01-.062-.158v-.159a5.369 5.369 0 01.37-1.649c.204-.508.512-.973.922-1.396.205-.127.42-.243.647-.349a1.51 1.51 0 01.644-.158.544.544 0 01.247-.065h.246v-.062zm12.29 2.413h5.291V19h10.458v4.885h-10.334v16.686c0 .127.009.221.03.285a.705.705 0 01.031.222c.081.338.194.656.338.952.143.296.338.549.584.761.328.253.708.444 1.139.571s.851.211 1.261.253l6.828-.063v4.822h-8.55a7.122 7.122 0 01-1.6-.318 5.945 5.945 0 01-1.476-.697 8.217 8.217 0 01-1.508-1.08 6.259 6.259 0 01-1.2-1.457 8.458 8.458 0 01-.707-1.428 7.578 7.578 0 01-.4-1.49 10.71 10.71 0 01-.092-.73 7.445 7.445 0 01-.031-.667 3.52 3.52 0 01-.062-.666V11.388zm32.017 7.047h.984c.328 0 .656.021.985.063.656.044 1.321.117 1.999.223s1.323.265 1.937.476a15.79 15.79 0 012.768 1.173 16.043 16.043 0 012.523 1.682c.86.803 1.63 1.67 2.307 2.6s1.262 1.946 1.753 3.046l-18.763 11.038-2.399-4.313 13.719-8.184c-.37-.423-.77-.825-1.2-1.205a7.336 7.336 0 00-1.507-1.015 12.262 12.262 0 00-1.816-.634 10.002 10.002 0 00-1.937-.319 10.261 10.261 0 00-3.568.635c-1.271.422-2.378 1.142-3.323 2.157a8.966 8.966 0 00-2.029 3.553c-.082.296-.154.602-.216.92-.062.318-.113.624-.153.92s-.062.603-.062.92v.92c.04.973.195 1.913.461 2.822a11.9 11.9 0 001.139 2.634 10.938 10.938 0 001.69 2.253c.678.697 1.407 1.3 2.185 1.808.698.38 1.426.655 2.185.824.758.17 1.527.254 2.307.254.45 0 .892-.021 1.321-.063a6.41 6.41 0 001.262-.254c.574-.213 1.128-.465 1.661-.761s1.045-.614 1.538-.953a7.61 7.61 0 001.415-1.3 8.57 8.57 0 001.046-1.554 12.972 12.972 0 00.861-3.935l5.168 1.08a12.63 12.63 0 01-.616 3.109c-.327.972-.758 1.903-1.291 2.791s-1.15 1.702-1.846 2.442-1.455 1.407-2.276 2a14.511 14.511 0 01-2.676 1.459c-.923.38-1.877.634-2.86.76l-.74.127-.737.127h-1.538a17.364 17.364 0 01-2.953-.253c-.985-.085-1.948-.328-2.891-.73s-1.826-.899-2.646-1.49a17.578 17.578 0 01-3.784-4.601 20.235 20.235 0 01-2.183-5.614 8.28 8.28 0 01-.062-.984V33.44c0-.233.021-.454.062-.667 0-.465.03-.94.091-1.426.062-.488.134-.942.216-1.365a18.04 18.04 0 01.861-2.95c.37-.951.82-1.871 1.353-2.76a13.242 13.242 0 012-2.315c.76-.699 1.59-1.301 2.492-1.808.902-.508 1.834-.899 2.799-1.174s1.958-.433 2.984-.477v-.063zm44.2-12.759H390v28.676a15.141 15.141 0 01-.554 3.648 17.67 17.67 0 01-1.353 3.394 12.177 12.177 0 01-3.26 4.378 14.765 14.765 0 01-2.246 1.46c-.8.422-1.631.782-2.492 1.078-.41.042-.851.117-1.323.221a10.94 10.94 0 01-1.383.223c-.206 0-.42.01-.647.031a7.643 7.643 0 01-.708.032h-.614c-.083 0-.174-.01-.277-.032a1.708 1.708 0 00-.339-.031c-.902 0-1.793-.085-2.676-.254a13.24 13.24 0 01-2.553-.761c-.778-.423-1.528-.92-2.246-1.491s-1.363-1.195-1.937-1.872a17.433 17.433 0 01-1.691-2.189 16.377 16.377 0 01-1.323-2.442 19.014 19.014 0 01-.8-2.601 14.956 14.956 0 01-.369-2.728c-.042-1.861.204-3.68.738-5.456s1.312-3.405 2.338-4.885a15.877 15.877 0 014.121-3.553 14.232 14.232 0 014.983-1.84c1.64-.085 3.25.043 4.83.38 1.579.339 3.085.868 4.521 1.587v5.265a16.027 16.027 0 00-1.937-1.14 19.548 19.548 0 00-2.061-.89 7.294 7.294 0 00-1.754-.412 9.59 9.59 0 00-1.753-.031c-.574 0-1.149.073-1.722.221s-1.128.349-1.662.603a8.099 8.099 0 00-3.045 1.999 8.335 8.335 0 00-1.938 3.203c-.246.592-.42 1.206-.522 1.84s-.154 1.269-.154 1.904c0 .634.06 1.257.184 1.87.123.615.288 1.216.492 1.81.37 1.14.903 2.208 1.6 3.203a11.565 11.565 0 002.461 2.57c.533.296 1.076.538 1.63.73a9.24 9.24 0 001.754.41 8.289 8.289 0 001.476.128c.328 0 .666-.021 1.016-.063.348-.042.686-.085 1.013-.127a12.697 12.697 0 001.693-.634 5.614 5.614 0 001.507-1.015 9.51 9.51 0 002.4-2.506 8.486 8.486 0 001.291-3.267V5.676zM227.745 65.11l158.222 3.194L227.758 79.27c.525-2.26.804-4.623.804-7.053 0-2.45-.283-4.83-.817-7.106m-54.627 14.148L14.909 68.3l158.222-3.18a31.092 31.092 0 00-.814 7.093c0 2.427.278 4.786.804 7.045m25.739-7.048c0 .922.708 1.669 1.58 1.669.874 0 1.583-.747 1.583-1.668s-.709-1.668-1.582-1.668c-.873 0-1.582.747-1.582 1.668m-1.5-5.076c-.347-.586-.744-1.546-1.113-2.724-.541-1.726-1.178-2.527-2.286-3.001-1.11-.474-2.046.05-2.566.02-.52-.032-.264-.456-.264-.456.337-1.128 1.992-2.795 3.209-3.709-3.397 1.546-6.164 4.341-7.777 7.84.086-.128.17-.154.252-.05.046.058.092.112.139.162.52.55 1.122.554 1.81.112.75-.48 3.296-1.334 4.49 1.02.716 1.416 1.687 2.232 2.347 2.658a5.912 5.912 0 011.76-1.872m3.428-.94c.154-.644.674-1.71 1.446-2.929.956-1.512 1.163-2.535.834-3.748-.327-1.214-1.296-1.669-1.594-2.12-.297-.451.178-.5.178-.5 1.3-.513 4.458.143 5.6.712a14.715 14.715 0 00-6.811-1.668c-1.662 0-3.261.276-4.76.79a3.484 3.484 0 00-.008.249c.012.777.443 1.22 1.228 1.408.855.203 3.25 1.454 2.558 4.022-.46 1.704-.216 3.11 0 3.86a5.526 5.526 0 011.329-.077m4.14 2.285c.563-.333 1.592-.692 2.875-.988 1.684-.386 2.507-.97 3.07-2.084.562-1.115.165-2.151.248-2.694.084-.542.457-.229.457-.229 1.119.512 2.675 2.726 3.34 4.1-1.36-3.889-4.087-7.079-7.566-8.92.292.162.406.312.248.424a2.31 2.31 0 00-.168.128c-.572.489-.64 1.119-.295 1.887.375.837.913 3.598-1.43 4.603a6.619 6.619 0 00-2.701 2.117 5.82 5.82 0 011.923 1.656m1.202 4.289c.619.152 1.63.657 2.79 1.413 1.466.956 2.442 1.139 3.582.75 1.138-.388 1.534-1.425 1.952-1.755.418-.328.48.17.48.17.421 1.07.188 3.392-.175 4.921a16.995 16.995 0 001.105-6.056c0-1.605-.22-3.156-.632-4.62-.014.086-.065.125-.16.107a2.044 2.044 0 00-.204-.031c-.734-.069-1.197.337-1.455 1.14-.282.878-1.713 3.258-4.06 2.264a6.262 6.262 0 00-3.4-.448 6.33 6.33 0 01.177 2.145m-2.054 4.093c.34.57.727 1.661 1.059 3.033.425 1.762 1.007 2.608 2.081 3.162 1.076.555 2.044.1 2.561.17.516.069.233.474.233.474-.402 1.076-2.094 2.574-3.361 3.408 3.215-1.493 5.854-4.11 7.472-7.379-.038 0-.073-.022-.106-.072a2.25 2.25 0 00-.128-.172c-.482-.587-1.084-.634-1.799-.245-.78.423-3.376 1.089-4.41-1.348-.632-1.486-1.564-2.377-2.195-2.845a6.009 6.009 0 01-1.407 1.814m-3.85 1.373c-.123.658-.567 1.739-1.242 2.986-.853 1.58-.992 2.615-.584 3.801.407 1.186 1.404 1.568 1.73 1.997s-.144.512-.144.512c-1.071.516-3.537.29-4.975-.086a14.693 14.693 0 005.429 1.036c1.666 0 3.27-.28 4.773-.794-.02-.028-.027-.068-.02-.12.01-.075.018-.147.022-.218.038-.776-.362-1.251-1.132-1.495-.841-.266-3.147-1.69-2.286-4.2a7.275 7.275 0 00.292-3.669 5.456 5.456 0 01-1.65.254l-.213-.004zm-17.373-6.023c0-10.213 7.874-18.493 17.587-18.493 9.713 0 17.588 8.28 17.588 18.493s-7.875 18.492-17.588 18.492c-9.713 0-17.587-8.28-17.587-18.492m13.154 3.803c-.57.34-1.48.719-2.59 1.06-1.655.512-2.436 1.154-2.924 2.307-.488 1.152-.024 2.157-.071 2.705s-.44.262-.44.262c-1.728-.644-4.694-5.048-3.832-4.943.072.008.14.013.207.014.736.015 1.173-.424 1.377-1.245.223-.895 1.492-3.375 3.9-2.556a6.26 6.26 0 003.302.223 6.351 6.351 0 01-.141-2.57c-.633-.176-1.528-.57-2.538-1.129-1.526-.845-2.512-.955-3.622-.483-1.11.47-1.437 1.534-1.831 1.893-.396.36-.49-.134-.49-.134-.622-1.314-.33-4.71.089-5.958a16.954 16.954 0 00-1.386 6.75c0 6.534 3.65 12.168 8.918 14.757-.041-.066-.032-.129.04-.186a1.99 1.99 0 00.158-.14c.539-.53.564-1.164.17-1.905-.43-.806-1.15-3.521 1.122-4.697a6.697 6.697 0 002.592-2.368 5.779 5.779 0 01-2.01-1.657" fill="#01145c"/><path d="M179.97 72.21c0-11.889 9.165-21.528 20.473-21.528s20.474 9.64 20.474 21.529-9.166 21.528-20.474 21.528S179.97 84.1 179.97 72.211z" fill="none" stroke="#01145c" stroke-miterlimit="3.864" stroke-width="1.554"/></svg>