<svg viewBox="0 0 450.2 120.9" xmlns="http://www.w3.org/2000/svg"><path d="M60.5.1c3.7 0 7.3.3 10.9.9-15.5 13.3-27.2 21.2-19.8 52.6 8 34.5-10.2 37.4-25.3 51.8h61.9c10.5-8.4 23.5-19.9 20.4-37.8-2.4-14 3.9-20.8 9.4-25.9 2 5.9 3 12.2 3 18.8 0 33.3-27.2 60.5-60.5 60.5C27.2 120.9 0 93.7 0 60.5S27.2 0 60.5 0v.1zm29.9 8c1.7.9 3.2 2 4.7 3-5.8 4.4-12 9.1-16.6 14.5C59.1 48 85.9 72.8 64 94.4c6.3-14.2 5.8-26.3 2.6-46.5-2.2-13.5 9.4-29 24-39.8h-.2zm16.9 14.2c1 1.3 2.1 2.7 3.1 4-8.3 5.8-19.7 11.4-18.5 27.4 1.4 19.1-.8 33.5-9.8 41.3 6.5-13.1 7.4-29.2 5.1-45-2.1-13.6 8.1-19.5 20.1-27.7z" fill="#3E4095"/><path d="M173.9 3.1h7.2L168 39.6h9.1c.6.2 1.1-.1 1.6-1.1l11.6-32h7l-12 33.3c-1.3 4.1-3.9 6-7.6 5.8h-36.9l14.1-39.1h7.4l-12 33.2h10.4l13.1-36.5.1-.1zm40.7 1.1l1.4-1.3h7.9l-1 1.3h26.5l-2.4 6.5h-29.2l-7.2 8.2h9.9l2.1-5.8h7l-2.1 5.8h16.2l-2.4 6.5H225l-5.7 15.8c-.8 3.1-2.6 4.5-5.1 4.2h-8.4l1.9-5.1h4.1c.3.1.6-.1.7-.5l5.3-14.5h-18.3l2.1-5.8 8.1-8.9h-4.9l2.4-6.5h7.4v.1zm-16.1 35.6l8.8-11.6h7l-11.5 14.9c-1 1.7-2.5 2.4-4.1 2.3h-6.5l1.9-5.1h3.2c.6.1 1-.1 1.3-.5h-.1zm27.5 3.3l.6-15.1h6.7l-.2 11.4c0 .7.3 1 .9.9h2.3l-1.9 5.1h-6c-2.1.1-2.9-.6-2.6-2.3h.2zM257.8 5h4.4l1.2-1.9h5.8l-1 1.9h9.1l-12.9 36h.7c.7.1 1.2-.2 1.6-1.1l9.9-27.4h17.7l-10 27.9c-.2.5 0 .7.6.7h.5l-1.9 5.1h-2.4c-3.2 0-4.2-1.4-3-4.4l8.6-23.9h-6.3l-8.5 23.5c-1.1 3.1-3.2 4.7-6.1 4.7h-3.2L264 42c-1.2 2.9-3.4 4.2-6.5 4.1H252l1.9-5.1h3.7c1 .1 1.9-.4 2.3-1.7l3.9-10.9h-9.3l-4.8 13c-1.1 2.9-2.9 4.3-5.4 4.4h-3l1.9-5.2h.7c.5 0 .9-.4 1.1-1.1l4-11.2h-1.3l2-5.4h1.4l6.5-18.1.2.2zm20.8 0h6.3l.6-1.7h6.1L291 5h7.9l-2 5.4h-20.3l2-5.4zm-17.3 5.3l-4.5 12.5h8.9l4.5-12.5h-8.9zm-1.1 7l1.8-4.9h4.7l-.8 2.3c-.3 1-.2 1.4.4 1.3h.5l-1.8 4.9h-2.6c-2.5.1-3.3-1-2.3-3.5l.1-.1zm-6.7 18l1.9-5.1h4.7l-.9 2.6c-.4.7-.3 1.1.3 1.1h.5l-1.8 4.9h-2.4c-2.5.2-3.3-1-2.3-3.5zm70.8-31.4l.6-1.9h7.6l-.5 1.9h17.5l-4.2 8.6H339l1.2-3.5h-28.5l-1.3 3.7h-6.9l3.2-8.8h17.7-.1zm-10.4 10.9l2.1-3.5h7.2l-4.1 7.2c-1.6 2.9-4.1 4.1-7.9 3.7H300l2.1-5.8h8.8c1.2.1 2.2-.4 3-1.6zm12.6 3.7l1.1-7.2h6.9V15c-.1 1.3.6 2 2.3 1.9h7.6l-1.9 5.2h-12.1c-3.2.2-4.5-.9-3.9-3.5v-.1zm-11.4 10.7H298l2-5.4h41.3l-2 5.4h-17.2L318.2 40h17.7l-1.9 5.2h-42.6l1.9-5.2h17.9l3.9-10.8zm45.5-19.1l2.4-6.5h26c.6 0 1.1.5 1.6 1.4l2.1 6.7c.5 1.7 1.3 2.4 2.4 2.3h1.3l-2.4 6.5h-4.9c-2 .1-3.2-.8-3.7-3l-2.1-6.1c-.3-.8-.8-1.3-1.6-1.3h-21.1zm-8.9 9.1h2.1c.9.2 2-.4 3.3-1.9l4.5-4.9h8.6l-9.1 10.2c-2.2 2.1-4.5 3.2-7.2 3.2h-4.4l2.4-6.7-.2.1zm-.8 18.3l19.9-20.7h8.8l-19.5 20.7h16.2l-2.4 6.5h-29.2l2.4-6.5h3.9-.1zm27.5 4.3L374 27.6h8.6l3.4 10.2c0 .4.3.5.9.5h.7l-2.1 5.6h-3.7c-1.9-.1-3-.8-3.5-2.3l.1.2zm62.7-33h-34.6l2.1-5.8h41.7l-12.9 35.8c-1.2 4.4-3.7 6.5-7.4 6.1h-4.4l2-5.4h1.7c.6.1 1-.2 1.3-1.1L441 8.8h.1zm-37.5 9.1l2.1-5.6h31.4l-2 5.6h-31.5zm21.4 8.8h-17.2l-3.9 11h16c.7.1 1.2-.2 1.6-1.1l3.5-9.9zM421.7 43h-27l8.1-22.3h31.1L427.3 39c-.9 2.9-2.8 4.2-5.6 4.1V43z" fill="#F58634"/><path d="M163.4 68.7c1.6-5-.6-7.5-6.5-7.5-2.4 0-4.3.5-6 1.6-2.3 1.3-3.9 3.2-4.9 5.7-1 2.9 0 4.8 3 5.7l4.5 1c2 .4 3.1.9 3.6 1.6.5.6.5 1.6.1 2.7-1 2.6-3.6 3.9-7.8 4-4.2-.1-5.7-2-4.5-5.6h-3.1c-1 2.7-.9 4.7.4 6 .9 1.3 3 2.1 6.4 2.1 2.6 0 5.1-.5 7.2-1.6 2.2-1.1 3.6-2.9 4.4-5.3 1.2-3.4.2-5.6-3-6.5L151 71c-1.8-.3-2.4-1.2-1.8-3 .9-2.7 3.2-4 6.8-4.1 3.7.2 5.2 1.8 4.2 4.8h3.2zm21.2 2.9h-12.4l3.4-9.7h-3.2L164 85.7h3.2l3.9-11.1h12.4l-3.9 11.1h3.2l8.4-23.8H188l-3.4 9.7zm20.9 7.2l-.1 6.8h3.5l-.2-23.8h-3.6l-17.3 23.8h3.2l4.9-6.8h9.6zm-7.6-2.9l7.4-10.5h.1l-.2 10.5h-7.3zM231 81l-5.2-19.2h-3.9l-8.4 23.8h3.1l6.7-19.2h.1l5.3 19.2h3.6l8.4-23.8h-3.1L230.9 81h.1zm8.4 4.6h9.6c3.7 0 6.9-1.4 9.5-4.2 2.1-2.1 3.7-4.8 4.9-8 1.1-3.3 1.3-5.9.4-8-.9-2.4-3.1-3.6-6.4-3.6h-9.7l-8.4 23.8h.1zM250 64.5h6c4.7.2 6 3.2 4 9.2-2.3 5.9-5.7 9-10.2 9.2h-6.2l6.5-18.4h-.1zm37.8 9.3c-2.5 6.1-6.4 9.2-11.7 9.6-5.2-.3-6.8-3.4-5-9.6 2.5-6.3 6.4-9.6 11.8-9.8 5.2.3 6.8 3.6 4.9 9.8zm3.2 0c1.1-3.5 1.2-6.6.1-9.2-1.2-2.3-3.7-3.4-7.2-3.4-3.2 0-6.1.8-8.7 2.6-3.4 2.5-5.9 5.8-7.4 10-1 3.3-1.1 6.1-.3 8.6 1.2 2.4 3.8 3.6 7.6 3.6 3.6 0 6.9-1.1 9.7-3.4 2.7-2.4 4.8-5.3 6.1-8.8h.1zm18.9 7.2l-5.2-19.2h-3.9l-8.4 23.8h3.1l6.7-19.2h.1l5.3 19.2h3.6l8.4-23.8h-3.1L309.8 81h.1zm22.3-5.4h7.2c-.9 2.9-2.5 5-4.8 6.3-1.8 1-3.6 1.6-5.5 1.6-5.3 0-6.7-3.3-4.4-9.8 2.4-6.1 6.2-9.4 11.2-9.7 3.8.1 5.7 1.8 5.4 5.1h3.1c.8-4.9-1.7-7.4-7.3-7.8-7 .3-12.2 4.4-15.6 12.3-1.6 4.2-1.6 7.5.2 10 1.1 1.7 3.3 2.5 6.5 2.5 3.4-.1 6.4-1.2 9-3.4l-.3 3h2.1l4.4-12.7H333l-.9 2.7.1-.1zm-171.1 34.8l-.1 6.8h3.5l-.2-23.8h-3.6l-17.3 23.8h3.2l4.9-6.8h9.6zm-7.5-2.9L161 97h.1l-.2 10.5h-7.3zm27.8-14h-3.2l-8.4 23.8h3.2l8.4-23.8zm6.2 13.5h7.8c2.9 0 3.8 1.4 2.8 4.2-.9 2.9-1.4 4.9-1.6 6h4l.2-.5c-.7-.3-.8-1.1-.3-2.4l1.2-4.2c.9-2.5.5-4-1.2-4.5 2.7-1.2 4.4-3.1 5.4-5.7.9-2.5.6-4.2-.7-5.1-.9-.8-2.6-1.3-5-1.3h-11.1l-8.4 23.8h3.2l3.7-10.3zm3.8-10.9h8.1c2.9 0 3.8 1.3 2.9 4-.9 2.8-3.1 4.1-6.3 4.1h-7.5l2.8-8.1zm26.3-2.6h-3.2l-8.4 23.8h15.3l1-2.9h-12.1l7.4-20.9zm20.7 0h-3.2l-8.4 23.8h3.2l8.4-23.8zm16.4 19.3l-5.2-19.2h-3.9l-8.4 23.8h3.1l6.7-19.2h.1l5.3 19.2h3.6l8.4-23.8h-3.1l-6.7 19.2h.1zm27.2 1.6h-14.3l2.8-7.9h12.9l1-2.9h-12.9l2.6-7.4h14l.9-2.7h-17.3l-8.4 23.8h17.5l1-2.9h.2zm28.3-13.9c1.6-5-.6-7.5-6.5-7.5-2.4 0-4.3.5-6 1.6-2.3 1.3-3.9 3.2-4.9 5.7-1 2.9 0 4.8 3 5.7l4.5 1c2 .4 3.1.9 3.6 1.6.5.6.5 1.6.1 2.7-1 2.6-3.6 3.9-7.8 4-4.2-.1-5.7-2-4.5-5.6h-3.1c-1 2.7-.9 4.7.4 6 .9 1.3 3 2.1 6.4 2.1 2.6 0 5.1-.5 7.2-1.6 2.2-1.1 3.6-2.9 4.4-5.3 1.2-3.4.2-5.6-3-6.5l-6.2-1.6c-1.8-.3-2.4-1.2-1.8-3 .9-2.7 3.2-4 6.8-4.1 3.7.2 5.2 1.8 4.2 4.8h3.2z" fill="#3E4095"/></svg>