<svg width="457pt" height="164" viewBox="0 0 4285 1153" xmlns="http://www.w3.org/2000/svg"><g fill="#06a7e0"><path d="M217.64 177.93c1.58-19.84 6.34-39.48 13.97-57.86 30.18 38.23 66.85 71.25 107.82 97.56 60.63 39.17 130.44 62.8 201.58 73.58 49.54 7.55 99.97 9.1 149.91 5.08 10.83-.93 21.65-2.1 32.38-3.86-36.64 19.18-75.54 34.03-115.66 44.07-73.57 18.34-150.98 20.67-225.62 7.55-18.21-3.28-36.32-7.3-53.91-13.08-20.93-7.19-41.3-16.67-58.9-30.23-17.55-13.28-32.16-30.75-40.97-51-9.98-22.4-12.92-47.52-10.6-71.81z"/><path d="M59.52 366.29c-2.39-20.54-3.19-41.45-.01-61.96 31.7 20.9 64.32 40.65 99.1 56.03 43.75 19.68 90.14 33.27 137.41 41.32 82.78 14.1 167.57 12.3 250.67 1.87 88.7-11.13 175.86-32.34 261.24-58.52-29.62 22.21-60.84 42.21-92.59 61.21-73.09 43.22-150.56 79.58-231.91 104.28-59.78 17.96-121.91 29.19-184.44 29.23-44.76-.27-89.83-6.09-132.32-20.49-22.14-7.99-42.45-21.13-58.42-38.45-18.72-20.17-31.83-45.16-39.55-71.47-4.51-14-7.21-28.5-9.18-43.05zm591.82 137.03c29.55-18.03 58.43-37.25 85.84-58.43-42.14 63.07-91.12 122.1-149.31 171.02-30.03 24.96-62.47 47.26-97.57 64.48-21.79 10.62-44.57 19.5-68.32 24.56-22.66 4.41-46.05 5.77-68.97 2.64-18.33-2.08-36.41-7.22-52.71-15.92-15.38-8.17-28.88-19.88-38.97-34.08-13.64-19.07-20.77-42.03-23.95-65.06 31.59 11.22 65.17 16.41 98.65 16.26 33.22.15 66.33-4.53 98.61-12.17 38.62-9.07 76.08-22.59 112.35-38.56 35.93-15.95 70.73-34.39 104.35-54.74z"/></g><path d="M984.88 216.28c38.23-3.85 76.86-4.43 115.1-.51 22.52 2.7 45.17 6.91 65.97 16.27 9.82 4.53 19.3 10.32 26.6 18.42 7.13 7.43 11.63 17.31 12.53 27.58 1.08 10.11-1.25 20.17-4.38 29.73-13.16-12.33-30.4-19.26-47.64-23.66-13.51-3.29-27.36-4.95-41.23-5.49-16.43 20.07-42.63 32.49-68.73 29.8-13.86-1.34-26.99-7.87-36.83-17.65-2.81-2.69-5.47-5.54-8.14-8.37 22.7 8.94 49.69 6.88 70.07-6.82-35.49-5.13-71.4-6.65-107.23-7.08-52.44-.18-104.89 3-156.93 9.47-16.87 1.94-33.64 4.66-50.45 7.03 33.98-18.69 70.53-32.3 107.54-43.67 40.42-11.82 81.73-21.27 123.75-25.05zm12.55 157.12c70.67-28.13 147.24-44.48 223.53-38.61 26.57 2.24 53.17 7.14 77.89 17.38 12.55 5.39 24.93 12.79 32.6 24.42 6.16 9.2 8.12 20.72 6.82 31.6-2.24 16.92-10.12 32.69-20.43 46.13-1.7-9.66-5.78-19.32-13.23-25.94-9.03-8.49-21.62-11.81-33.66-12.93-20.17-1.7-40.4 1.61-59.99 6.2-23.59 5.48-46.43 13.65-69.08 22.15-38.82 15.22-76.67 32.96-113.34 52.8-55.5 35.57-109.92 72.84-163 111.94-38.36 28.32-75.9 57.8-112.01 88.95-24.44 21.13-48.13 43.15-70.49 66.48-16.5 17.48-32.7 35.53-45.57 55.92 10.78-35.89 23.22-71.38 39.2-105.31 10.18-20.62 21.01-41.54 37.41-57.98-25.44 18.36-48.76 39.41-71.59 60.86-9.44 9.59-19.28 18.78-28.52 28.57-42.9 44.44-82.45 92.04-119.58 141.39-11.79 15.56-23.18 31.42-34.32 47.46 10.91-30.95 22.41-61.74 36.13-91.57 31.05-67.62 74.17-129.15 123.51-184.64 17.45-19.81 35.75-38.87 54.64-57.32 24.17-23.9 49.3-46.8 75.16-68.86 29.78-25.38 60.11-50.19 92.01-72.88 48.53-34.42 100.64-64.03 155.91-86.21z" fill="#039482"/><path d="M3645 459.12c20.14-13.11 44.29-18.58 68.05-19.76 22.64-1.2 45.49 1.23 67.36 7.25 9.96 2.95 19.79 6.76 28.47 12.58 6.77 4.92 12.53 12.21 13.19 20.84.3 5.37-.47 11.08-3.27 15.76-7.57 10.76-15.26 21.44-22.83 32.2-14.48-12.25-32.98-19.47-51.9-20.38-12.59-.84-25.79.28-37.07 6.33-5.63 3.1-10.99 7.07-14.51 12.53-7.04 10.37-8.9 23.26-9.07 35.54-.04 10.79-.02 21.58 0 32.37 36.74-.01 73.49 0 110.23 0 0 22.12 0 44.24.01 66.36-36.74 0-73.48.02-110.21-.01-.11 80.22 0 160.43-.05 240.64-29.25.01-58.5.01-87.74 0-.02-111.12-.01-222.24-.01-333.36.12-24.87 3.57-50.52 15.74-72.58 7.77-14.78 19.58-27.3 33.61-36.31zm-1885-12.79c12.84-2.18 25.99-2.62 39-1.8 7.91.85 16.03 1.7 23.3 5.2 10.64 4.8 18.63 14.48 22.38 25.43 2.58 7.67 2.86 15.84 2.86 23.87-.01 38.87.03 77.75-.05 116.63 8.22-7.87 18.09-13.77 28.21-18.86 18.61-8.96 39.82-10.21 60.14-9.13 22.59 1.9 45.78 7.5 64.16 21.38 14.14 10.23 25.29 24.25 33.13 39.79 8.2 15.63 13.45 32.74 15.97 50.21 3.78 25.41 3.52 51.28 1.32 76.83-1.81 17.72-5.15 35.42-11.52 52.11-5.76 15.4-13.45 30.25-24.03 42.92-13.02 15.04-29.86 27.06-49.03 32.78-23.21 7.21-48.37 8.95-72.15 3.59-20.22-5.35-40.7-14.47-53.9-31.35-.06 7.15-2 14.61-6.89 20.01-4.71 4.57-11.62 5.5-17.9 5.44-18.38 0-36.76 0-55.14-.01-.02-110.45 0-220.9-.01-331.35.1-41.23-.19-82.46.15-123.69m109.73 206.44c-9.14 2.93-16.38 10.36-20.04 19.1-2.63 6.36-2.14 13.38-2.16 20.11.01 43.39 0 86.78 0 130.17 9.26 7.83 19.95 14.45 31.75 17.58 9.38 2.33 19.19 2.77 28.79 1.72 10.48-1.2 20.93-5.29 28.49-12.83 8.16-7.64 12.85-18.12 16.38-28.53 6.76-21.63 7.76-44.56 7.31-67.05-1.05-20.15-3.43-41.32-14.56-58.69-8.39-13.39-22.97-22.42-38.61-24.34-12.44-1.42-25.35-1.09-37.35 2.76zM3487.2 446.24c19.75-2.44 40.43 8.76 48.4 27.13 6.4 15.2 5.16 34.02-4.74 47.48-5.69 7.16-13.27 12.97-21.95 15.95-16.74 5.64-36.8 2.55-49.73-9.92-6.96-6.53-11.73-15.4-13.13-24.85-1.93-12.26-.14-25.57 7.1-35.9 7.51-11.4 20.49-18.76 34.05-19.89zm400 .16c16.6-2.34 34.32 4.36 44.45 17.87 6.44 8.06 9.32 18.49 9.26 28.7.12 10.69-3.07 21.65-10.17 29.8-11.37 13.87-30.79 19.45-48.06 15.58-17.6-3.45-32.63-18.35-35.1-36.29-1.87-11.69-.31-24.29 6.06-34.44 7.24-11.65 19.88-19.73 33.56-21.22zm-2601 144c25.55-4.85 52.1-3.83 77.39 2.02 18.4 4.31 36.48 11.65 50.98 24.02 5.21 4.48 9.44 10.45 10.6 17.35 1.88 10.02-1.46 20.04-5.44 29.12-3.88 8.44-8.68 16.49-14.6 23.66-6.6-6.85-14.41-12.37-22.46-17.35-8.13-4.98-16.73-9.37-25.97-11.86-14.5-4.13-29.91-4.43-44.77-2.22-15.7 2.48-31.33 9.81-40.9 22.9-12.33 16.67-17.83 37.5-19.04 57.97-1 18.39.25 37.07 4.95 54.93 4.59 16.95 14.19 33.16 29.04 43.02 9.15 6.36 20.01 9.9 31.03 11.17 10.98 1.19 22.18 1.08 33.02-1.18 19.43-4.24 37.94-13.98 51.22-28.98 6.22 7.08 10.94 15.31 15.09 23.73 3.56 7.62 6.8 15.74 6.74 24.29-.22 6.81-2.11 14.05-7.03 19.02-7.76 8.2-18.16 13.24-28.38 17.69-16.92 7.41-35.26 11.21-53.67 12.1-23.83 1.64-47.9-.85-70.92-7.11-18.05-4.72-34.65-13.98-49.12-25.64-15.39-12.7-27-29.46-35.69-47.3-9.13-19.06-13.21-40.13-14.79-61.09-1.81-25.96-1.1-52.44 5.66-77.7 5.09-19.25 14.98-36.99 27.42-52.44 11.11-14.04 25.46-25.22 41.11-33.78 14.95-8.49 31.67-13.35 48.53-16.34zm238.2 10.01c21.75-9.36 45.6-13.66 69.25-12.99 21.78.44 44.03 4.15 63.41 14.55 17.73 8.92 32.94 22.77 43.3 39.72 16.58 26.51 21.28 58.59 20.9 89.36-.33 10.95-.47 21.95-1.98 32.82-63.41.01-126.82 0-190.23.01 1.44 22.37 9 45.04 24.42 61.71 10.86 11.88 26.73 17.82 42.41 19.83 13.07 1.5 26.46 1.64 39.4-1.05 15.48-3.64 30.47-10.14 42.93-20.15 5.01-3.99 9.73-8.33 14.56-12.53 6.01 7.7 11.19 16.01 15.96 24.54 3.67 6.83 7.15 13.98 8.36 21.72 1.38 8.9-2.92 17.78-9.38 23.73-11.8 11.22-27.18 17.68-42.51 22.48-24.62 7.59-50.72 8.97-76.3 7.58-23.93-1.86-48.11-6.22-69.81-16.87-16.17-8.24-30.96-19.48-42.39-33.64-10.33-12.81-18.28-27.44-24.08-42.8-7.82-21.55-10.72-44.58-11.22-67.41-.67-24.66 1.68-49.83 10.63-73 6.92-17.15 16.3-33.49 29.06-46.98 12.19-12.97 27.02-23.45 43.31-30.63m41.85 48.88c-10.33 3.53-19.24 10.65-25.51 19.52-9.37 13.62-12.41 30.54-12.39 46.81 37.84.01 75.68-.01 113.52.01-.35-14.18-1.88-28.63-7.66-41.72-2.62-5.48-5.34-11.05-9.75-15.34-6.75-6.74-16.06-10.28-25.34-11.71-10.95-1.52-22.36-1.25-32.87 2.43zM2665 591.79c20.13-5.49 41.59-5.81 62.03-1.87 19.53 3.79 38.16 12.77 52.48 26.7 15.52 14.53 25.28 34.06 32.02 53.97 6.58 20.45 8.88 42.01 9.42 63.41.32 24.89-.87 50.02-6.61 74.33-4.26 17.16-10.79 33.87-20.04 48.97-10.79 17.79-26.64 32.49-45.26 41.77-19.31 8.89-40.82 12.62-62.01 11.82-18.7-.67-37.1-6.37-53.29-15.67-6.74-3.76-12.3-9.21-17.24-15.05.24 53.94.04 107.87.12 161.81-29.25.04-58.5.01-87.76.02-.05-148.57.05-297.13-.06-445.69 15.86-3 32.3-3.59 48.26-.92 10.45 2.06 21.41 5.67 28.6 13.97 3.9 4.18 5.95 9.63 7.58 15.02 4.95-4.41 9.38-9.43 14.9-13.2 11.29-8.1 23.29-15.77 36.86-19.39m-26.08 64.95c-9.19 2.96-16.34 10.6-19.8 19.48-2.22 5.65-1.89 11.81-1.9 17.76.05 42.94-.06 85.88.05 128.81 9.71 8 20.91 14.72 33.28 17.57 15.77 3.16 33.26 1.99 47.11-6.83 10.28-6.59 17.28-17.2 21.83-28.35 8.82-21.85 10.29-45.84 9.78-69.16-.98-19.67-3.46-40.17-13.76-57.39-8.11-13.9-23.17-22.99-39.03-24.83-12.51-1.37-25.55-1.14-37.56 2.94zm302.38-65.23c27.15-4.9 55.07-5.47 82.44-2.08 21.96 2.88 44.51 9.49 61.29 24.61 13.8 12.06 22.24 29.22 26.05 46.95 6.03 25.54 4.27 51.95 4.57 77.97.06 32.02-.21 64.05.16 96.07.78 22.49 3.01 46.05 14.71 65.82-10.52 3.72-21.3 6.95-32.49 7.76-13.69.94-28.3.71-40.73-5.81-10.76-5.6-17.48-16.81-19.62-28.51-22.04 22.02-52.89 34.2-83.87 35.07-24.24 1.55-49.7-2.48-70.41-15.79-13.29-8.24-23.45-20.86-30.11-34.89-5.76-12.38-8.03-26.1-8.36-39.67-.7-18.89 2.81-38.64 13.74-54.42 10.04-13.89 23.29-25.49 38.49-33.44 18.87-10.08 39.71-16.11 60.84-19.09 24.42-3.74 49.12-5.84 73.83-5.56-.04-10.55.63-21.41-2.87-31.55-2.5-7.91-8.09-14.84-15.5-18.62-10.28-5.32-22.07-6.68-33.48-7.04-12.41-.17-24.91.66-36.98 3.66-10.4 2.3-20.14 6.71-29.74 11.2-10.01 4.26-19.42 9.75-29.14 14.62-7.56-9.09-13.14-19.67-17.1-30.77-2.26-6.38-4.38-13.7-1.2-20.16 4.22-8.49 12.56-13.86 20.56-18.39 17.07-9.17 35.97-14.32 54.92-17.94m59.76 162.28c-14.5 1.83-29.35 3.54-42.69 9.92-13.18 6.12-25.52 16.76-29.32 31.29-3.35 13.82-1.79 29.46 6.61 41.26 4.83 7.84 13.59 12.37 22.43 14.07 18.39 3.42 37.94.24 54.31-8.81 6.79-3.49 12.85-8.5 17.32-14.71 2.28-3.14 3.5-7 3.39-10.88-.04-21.39-.01-42.78-.02-64.17-10.73-.37-21.39.98-32.03 2.03zM3293 588.83c23-3.01 46.56-1.44 69.1 3.95 18.71 4.62 37.21 12.34 51.49 25.58 8.17 7.27 10.69 19.17 8.19 29.56-3.33 14.2-10.6 27.28-19.66 38.62-5.03-4.97-10.48-9.5-16.39-13.37-9.92-6.65-20.49-12.66-32.07-15.81-14.51-4.13-29.92-4.43-44.78-2.21-14.08 2.24-27.99 8.28-37.7 18.96-12.47 14.46-18.79 33.25-21.32 51.93-1.89 15.58-1.6 31.4.48 46.95 2.06 16.24 6.88 32.57 16.82 45.81 10.41 14.45 27.17 23.85 44.77 26.04 31.28 4.84 65.04-6.07 86.26-29.86 6.41 7.23 11.2 15.75 15.43 24.4 3.38 7.43 6.53 15.3 6.48 23.6-.15 7.57-2.76 15.45-8.57 20.56-8.96 8.45-20.43 13.56-31.7 18.13-16.1 6.59-33.48 9.42-50.79 10.24-25.83 1.57-51.93-1.73-76.62-9.46-17.51-6.12-33.69-15.96-47.31-28.53-13.1-12.53-23.21-27.91-30.86-44.27-8.42-18.44-12.25-38.63-13.79-58.74-1.84-26.28-1.15-53.11 5.84-78.67 5.17-19.2 15.16-36.87 27.66-52.24 11.04-13.81 25.24-24.84 40.71-33.28 17.85-10.16 38.14-15.04 58.33-17.89zm807.9 2.94c23.59-5.38 48.16-5.7 72.02-1.83 20.45 3.53 40.94 9.86 57.86 22.26 5.75 4.15 11.43 9.03 14.2 15.76 3.85 8.7 2.49 18.71-.62 27.42-3.98 11.33-10.06 21.86-17.58 31.19-8.49-8.62-18.68-15.29-29.15-21.22-18.55-10.54-40.66-13.41-61.61-10.55-15.11 1.95-30.3 8.1-40.51 19.75-12.37 14.47-18.59 33.2-21.01 51.85-2 16.37-1.49 33 .89 49.31 2.21 15.87 7.39 31.7 17.43 44.41 10.38 13.59 26.42 22.47 43.33 24.66 31.41 4.98 65.4-5.89 86.71-29.81 7.22 8.33 12.6 18.08 17.08 28.1 3.8 8.81 6.37 18.83 3.53 28.3-1.36 5.83-5.16 10.72-9.74 14.42-9.28 7.48-20.31 12.44-31.37 16.66-19.47 7.69-40.63 9.67-61.39 9.82-13.51.15-26.96-1.41-40.21-3.87-20.1-3.55-39.78-10.71-56.35-22.8-15.67-10.46-28.29-25.07-37.74-41.27-10.98-17.99-17.36-38.46-20.06-59.28-2.86-22.59-3.27-45.57-.51-68.19 2.56-21.19 9.03-42.1 20.59-60.17 10.25-16.5 23.49-31.42 39.85-42.06 16.18-11.46 34.94-19.03 54.36-22.86zM2096 595.66c8.04-.17 15.98-1.75 24.03-1.85 14.79-.36 30.17 1.5 43.27 8.85 6.32 3 11.45 8.25 14.72 14.4 4.15 7.93 5.51 17.04 5.6 25.9.2 45.67-.17 91.34.19 137 .55 11.88.31 24.18 4.71 35.43 2.1 5.69 5.84 10.84 10.91 14.23 7.12 5.06 16.02 6.64 24.58 7.06 17.45.85 35.7-2.37 50.35-12.34 7.3-5.04 13.36-13.1 13.16-22.33.01-68.78.07-137.57-.04-206.36 19.22-1.93 39.34-3.96 57.89 2.86 11.5 4.14 21.1 13.07 25.78 24.39 3.57 8.2 4.2 17.28 4.15 26.11-.02 84.12.02 168.24-.07 252.36-19.09.01-38.18.02-57.26 0-5.97-.15-12.38-.45-17.46-3.93-3.51-2.44-5.32-6.53-6.29-10.54-1.72-6.43-2.13-13.12-2.14-19.75-8.08 10.32-18.55 18.52-29.85 25.03-11.91 7.53-25.73 11.39-39.56 13.36a199.419 199.419 0 01-49.67.11c-14.67-1.95-29.53-6.09-41.54-15.06-14.75-11.12-25.04-27.65-29.43-45.52-4.85-20.31-5.62-41.29-5.93-62.08-.26-62.44-.07-124.89-.1-187.33zm1355.2.39c12.13-2.12 24.56-2.66 36.87-2.03 10.6.77 21.61 2.37 30.74 8.24 8.83 5.28 15.2 14.22 17.85 24.12 2.18 7.67 2.26 15.7 2.26 23.61-.1 85.18.17 170.36-.13 255.54-13.72 2.7-27.86 2.55-41.77 1.84-8.5-.99-17.32-2.12-24.79-6.59-9.9-5.63-16.46-15.95-18.98-26.88-1.92-7.79-2.12-15.85-2.09-23.82.03-84.68-.04-169.36.04-254.03zm401.5-.04c12.31-2.05 24.88-2.67 37.34-1.96 9.58.76 19.44 2.12 27.98 6.84 10.05 5.25 17.44 15.03 20.27 25.96 2.28 8.52 2.1 17.42 2.1 26.17 0 84.12-.01 168.23.01 252.35-9.24 2.42-18.9 2.11-28.35 2.47-11.46-.12-23.25-.63-34.01-4.89-8.76-3.64-15.85-10.72-19.8-19.29-4.77-9.81-5.57-20.93-5.54-31.67 0-85.33-.02-170.66 0-255.98z" fill="#2574bb"/></svg>