<svg viewBox="0 0 191 40" xmlns="http://www.w3.org/2000/svg"><path d="M69.8 37c-10 0-14.4-7.5-14.3-16.9.1-9.5 5.7-17 15.3-17 4.2 0 7 1.2 8 1.6L77.7 9c-1.3-.6-3.7-1.3-5.9-1.3-4.2 0-9.1 2.5-9.2 12.1-.1 8.8 3.4 12.6 8.6 12.6 2.6 0 5-.9 5.9-1.4l1.4 3.9c-1.4.7-4.3 2.1-8.7 2.1m19.8-21.9c-3.3 0-4.9 2.7-4.9 9.1 0 6.4 1.5 9 4.8 9s4.8-2.6 4.8-9c.1-6.4-1.3-9.1-4.7-9.1zm0 21.9c-6.3 0-11.1-3.5-11.1-12.8 0-9.2 4.8-12.8 11.1-12.8s11.1 3.5 11.1 12.8c0 9.2-4.8 12.8-11.1 12.8m19.9-25.2l.4 2.8c2-2.6 4.1-3.3 6.8-3.3 6.1 0 7.2 4.7 7.2 8.2v17.1H118v-15c0-2.2.3-6.2-3.5-6.2-4.3 0-4.7 5.9-4.7 8v13.3h-5.9V11.8h5.6m28.3 21.3c4.5 0 4.5-7.5 4.5-9 0-3-.4-8.8-4.4-8.8-4.4 0-4.5 7.3-4.5 8.8.1 3.8.7 9 4.4 9zm10.5-29.6v33.1H143l-.2-4.3c-1.2 2.1-3.2 4.8-7 4.8-5.8 0-8.5-6-8.5-12.9 0-9 4.6-12.9 8.9-12.9 4.2 0 5.8 3.2 6.2 4.2v-12h5.9m14.3 11.6c-3.3 0-4.9 2.7-4.9 9.1 0 6.4 1.6 9 4.9 9s4.8-2.6 4.8-9-1.5-9.1-4.8-9.1zm0 21.9c-6.3 0-11.1-3.5-11.1-12.8 0-9.2 4.8-12.8 11.1-12.8s11.1 3.5 11.1 12.8c0 9.2-4.8 12.8-11.1 12.8m19.5-25.2l.1 6.2c2-6.1 5.1-6.6 6.2-6.6 1 0 1.9.3 2.4.4l-1.1 5.2c-.5-.1-1.2-.3-1.9-.3-1.7 0-2.9 1-3.5 1.8-1.2 1.7-1.7 3.5-1.7 9.2v8.9h-5.9V11.8h5.4M19.4 0C8.3 0 0 9 0 20s8.3 20 19.4 20c11 0 19.4-8.9 19.4-20-.1-11-8.4-20-19.4-20zm0 38.2c-10 0-17.6-8.1-17.6-18.2 0-10 7.5-18.2 17.6-18.2S36.9 10 36.9 20.1c0 10-7.5 18.1-17.5 18.1zm11.7-5.8v-3.2l-13-11.8c-.5-.5-.3-.7.1-.7H28l-4.9 4 1.8 1.7 10.3-8H20c-2 0-2.8 0-3.3.2-.5.1-1.1.4-1.4 1.1-.2.5-.2 1.4.1 2 .5.8 1.2 1.5 3.3 3.6-2-1.2-7.3-4.7-7.3-4.7h1.5v-2.3H3.5l27.6 18.1z" fill="#f8ac00"/></svg>