<svg width="252" height="28.117" viewBox="0 0 66.675 7.439" xmlns="http://www.w3.org/2000/svg"><path d="M39.04 2.6c-.98 0-1.453.375-1.492 1.078h.966c.013-.184.118-.322.526-.322.362 0 .533.118.533.296 0 .158-.099.217-.342.243l-.631.066c-.855.092-1.243.447-1.243 1.091 0 .599.368 1.059 1.15 1.059.533 0 .849-.171 1.125-.513v.414h.907V3.836c0-.914-.532-1.236-1.499-1.236m.552 2.124c0 .361-.342.63-.868.63-.256 0-.407-.117-.407-.341 0-.17.105-.316.44-.362l.572-.078c.099-.014.204-.033.263-.053zm-3.747-.79c.841.113 1.262.376 1.262 1.066 0 .697-.493 1.111-1.538 1.111-1.138 0-1.539-.454-1.559-1.118h.98c.026.244.197.362.579.362.387 0 .545-.092.545-.276 0-.171-.131-.25-.473-.296l-.349-.046c-.73-.099-1.15-.381-1.15-1.039 0-.631.467-1.098 1.446-1.098.908 0 1.394.362 1.44 1.078h-.966c-.033-.19-.138-.309-.474-.309-.328 0-.453.112-.453.257 0 .144.078.223.361.263l.349.046M32.448 2.6c.862 0 1.302.381 1.302 1.473v1.94h-.992V4.118c0-.44-.191-.638-.605-.638-.375 0-.599.197-.599.638v1.893h-.992V2.7h.933v.381c.138-.256.421-.48.954-.48m-3.795 0c-.98 0-1.453.375-1.493 1.078h.967c.013-.184.118-.322.526-.322.361 0 .532.119.532.296 0 .158-.098.217-.342.243l-.63.066c-.855.092-1.243.447-1.243 1.092 0 .598.368 1.058 1.15 1.058.533 0 .848-.17 1.125-.513v.414h.907V3.836c0-.914-.533-1.236-1.5-1.236m.553 2.124c0 .361-.342.631-.868.631-.256 0-.407-.118-.407-.342 0-.17.105-.316.44-.362l.572-.078c.099-.014.204-.033.263-.053zM25.393 2.6c.841 0 1.282.381 1.282 1.473v1.94h-.993V4.119c0-.44-.19-.638-.605-.638-.375 0-.598.197-.598.638v1.894h-.993V1.417h1V3.02c.17-.243.44-.42.907-.42m-2.955.098h.757v.809h-.757v1.288c0 .355.185.447.474.447.118 0 .283-.02.283-.02v.796s-.23.053-.474.053c-.795 0-1.275-.362-1.275-1.164v-1.4h-.5v-.809h.5v-.966h.993zm-3.47-.125c0-.802.505-1.23 1.3-1.23.257 0 .422.04.422.04v.802s-.138-.013-.257-.013c-.309 0-.473.105-.473.394V2.7h.73v.809h-.73v2.505h-.993V3.508h-.5v-.81h.5v-.124m-1.755.125h.992v3.314h-.933V5.63c-.138.257-.421.48-.94.48-.849 0-1.29-.381-1.29-1.472v-1.94h.994v1.893c0 .441.19.638.591.638.362 0 .586-.197.586-.638V2.7zm-4.373 2.387h1.98v.927h-3.045V1.41h1.065v3.676zM3.72 7.163a3.449 3.449 0 003.452-3.452A3.444 3.444 0 003.72.26 3.449 3.449 0 00.268 3.71 3.453 3.453 0 003.72 7.163m1.553-1.96l.29-.277h-.069c-.731 0-1.387-.241-1.767-.649.318-.193.711-.283 1.256-.283.146 0 .353.014.546.035l.166-.159a6.552 6.552 0 00-1.305-.027l.124-.152c.097-.007.304-.014.442-.014.366 0 .607.014.884.055l.158-.152a6.964 6.964 0 00-1.056-.076c-.076 0-.172 0-.297.007l.09-.152h.145c.518 0 .904.028 1.256.09l.16-.152a8.073 8.073 0 00-1.354-.11h-.117l.076-.145h.131c.504 0 .96.041 1.401.124l.166-.159a8.376 8.376 0 00-2.333-.11c-.277.594-.718.939-1.215.932-.194-.007-.435-.09-.746-.256l-.29-.165.09-.083.67.29.144-.11-1.353-.615-.207.159-.483-.2.007.2c.649.297.918.462 1.602.953.89.635 1.684.98 2.789 1.2M3.72 6.916A3.214 3.214 0 01.517 3.712 3.21 3.21 0 013.72.508a3.205 3.205 0 013.203 3.204A3.21 3.21 0 013.72 6.915m40.965-5.603c1.427 0 2.078.683 2.23 1.663H45.81c-.132-.467-.448-.717-1.125-.717-.841 0-1.203.54-1.203 1.453s.362 1.453 1.203 1.453c.677 0 .993-.25 1.125-.716h1.104c-.151.98-.802 1.663-2.229 1.663-1.663 0-2.308-1.019-2.308-2.4s.645-2.4 2.308-2.4m3.544.947h-.993V1.41h.993zm0 3.755h-.993V2.699h.993zm1.788-2.505v1.288c0 .355.184.447.474.447.118 0 .282-.02.282-.02v.796s-.23.053-.473.053c-.795 0-1.275-.362-1.275-1.164v-1.4h-.5v-.81h.5v-.966h.992V2.7h.756v.809zm4.55-.81l-1.9 4.472h-1.052l.592-1.302-1.328-3.17h1.098l.723 1.993.77-1.992h1.097zm3.228 2.388v.927h-3.044V1.41h1.065v3.676zm1.355-2.828h-.993V1.41h.993zm0 3.755h-.993V2.699h.993zM61.43 2.6c.861 0 1.302.382 1.302 1.473v1.94h-.993V4.119c0-.44-.19-.638-.605-.638-.375 0-.598.198-.598.638v1.894h-.993V2.699h.934v.381c.138-.256.42-.48.953-.48m4.97 2.025h-2.366c.046.5.256.69.75.69.374 0 .525-.104.584-.321h.98c-.06.644-.579 1.117-1.565 1.117-1.249 0-1.736-.703-1.736-1.755 0-.888.401-1.756 1.684-1.756 1.203 0 1.683.697 1.683 1.75 0 .078 0 .183-.013.275m-1-.683c-.04-.342-.184-.572-.67-.572-.428 0-.618.177-.684.572z" fill="#05164d"/></svg>