<svg version="1.0" viewBox="0 0 280 200" xmlns="http://www.w3.org/2000/svg"><path d="M97.272 114.27L82.5 105.734l.272-18.07.272-18.07 25-14.35 1-30.556L140.24 7.003l31.22 17.493.042 15.181.043 15.181 27 15.24v34.762l-2.75 1.903c-3.893 2.692-28.11 16.234-29.033 16.234-.422 0-6.338-3.15-13.146-7s-12.856-7-13.437-7c-.582 0-6.585 3.15-13.34 7s-12.848 6.956-13.538 6.904c-.69-.053-7.903-3.937-16.027-8.632zm11.261-14.523l-.01-9.25-7.458-4.25c-4.101-2.337-7.921-4.25-8.49-4.25-.632 0-1.031 3.46-1.031 8.941v8.941l8.25 4.54c4.537 2.498 8.362 4.55 8.5 4.56.137.01.245-4.145.239-9.232zm19.057 4.662l7.953-4.587V80.957l-5.25 3.08c-2.887 1.694-6.712 3.811-8.5 4.705l-3.25 1.625v9.315c0 5.123.048 9.604.203 9.346.207-.344 4.47-2.095 8.844-4.619zm33.953-4.713v-9.301l-7.38-4.199c-4.06-2.31-7.66-4.199-8-4.199-.341 0-.619 4.162-.617 9.25l.003 9.25 7.747 4.226c4.26 2.324 7.86 4.237 7.997 4.25s.25-4.162.25-9.277zm19.047 4.713l7.953-4.587V80.957l-5.25 3.08c-2.887 1.694-6.712 3.811-8.5 4.705l-3.25 1.625v9.315c0 5.123.246 9.315.547 9.315.3 0 4.126-2.064 8.5-4.588zm-59.047-26.703c4.125-2.349 7.362-4.707 7.194-5.24-.169-.532-3.63-2.769-7.692-4.969l-7.384-4-6.31 3.415c-11.19 6.057-11.034 5.303-2.153 10.478 4.315 2.514 8.07 4.575 8.345 4.58s3.875-1.915 8-4.264zm52.603.235c4.042-2.232 7.59-4.447 7.885-4.924.598-.968-13.451-9.045-15.611-8.975-.757.025-4.698 2-8.757 4.391l-7.38 4.346 7.88 4.591c4.334 2.525 8.05 4.6 8.257 4.61.207.01 3.684-1.808 7.726-4.04zm-38.603-23.258v-9.315l-3.25-1.626c-1.788-.894-5.612-3.011-8.5-4.705l-5.25-3.08v18.86l7.75 4.542c4.263 2.498 8.088 4.563 8.5 4.59.412.027.75-4.143.75-9.266zm18.75 4.414l7.25-4.188V36.146l-16 9.065v9.452c0 5.199.338 9.265.75 9.037.412-.229 4.013-2.3 8-4.603zm-5.41-26.957c8.822-4.93 9.001-4.135-2.34-10.357l-6.5-3.566-16.444 9.44 8.222 4.655c4.522 2.56 8.457 4.55 8.744 4.42.287-.129 4.03-2.195 8.318-4.592z" fill="#d40000"/><path d="M40.701 152.126l-8.531 1.513c-.288-1.674-.94-2.935-1.956-3.783-1.016-.847-2.335-1.27-3.957-1.27-2.156 0-3.876.73-5.16 2.193-1.282 1.463-1.924 3.91-1.924 7.34 0 3.813.652 6.507 1.956 8.08 1.304 1.574 3.054 2.361 5.25 2.361 1.644 0 2.988-.459 4.035-1.377 1.048-.918 1.787-2.497 2.218-4.736l8.5 1.422c-.883 3.834-2.576 6.729-5.081 8.686-2.505 1.957-5.862 2.936-10.071 2.936-4.784 0-8.598-1.483-11.442-4.45-2.844-2.965-4.266-7.071-4.266-12.317 0-5.307 1.427-9.438 4.281-12.394 2.854-2.956 6.714-4.434 11.58-4.434 3.984 0 7.15.843 9.502 2.528 2.35 1.684 4.04 4.252 5.066 7.702zm13.059.303l-7.854-1.393c.883-3.107 2.403-5.407 4.559-6.9 2.156-1.493 5.359-2.24 9.609-2.24 3.86 0 6.734.45 8.623 1.347 1.89.898 3.219 2.038 3.989 3.42.77 1.382 1.155 3.92 1.155 7.612l-.093 9.927c0 2.825.139 4.908.416 6.25.277 1.341.796 2.779 1.555 4.312h-8.562c-.226-.565-.503-1.402-.831-2.512a15.122 15.122 0 00-.308-.998c-1.479 1.412-3.06 2.471-4.743 3.177-1.684.707-3.48 1.06-5.39 1.06-3.367 0-6.021-.898-7.961-2.694-1.94-1.796-2.91-4.066-2.91-6.81 0-1.816.44-3.435 1.324-4.857.882-1.423 2.12-2.512 3.71-3.269 1.592-.756 3.887-1.417 6.884-1.982 4.045-.747 6.848-1.443 8.408-2.088v-.848c0-1.634-.41-2.8-1.232-3.496-.821-.696-2.371-1.044-4.65-1.044-1.54 0-2.741.298-3.604.893-.862.595-1.56 1.64-2.094 3.133zm11.58 6.9c-1.108.363-2.864.797-5.266 1.302-2.403.504-3.973.998-4.712 1.483-1.13.786-1.694 1.785-1.694 2.996 0 1.19.451 2.22 1.355 3.087.903.867 2.053 1.301 3.45 1.301 1.56 0 3.048-.504 4.465-1.513 1.047-.767 1.735-1.705 2.063-2.815.226-.726.34-2.108.34-4.146v-1.695zm25.347 15.436h-8.654v-32.142h8.038v4.57c1.376-2.16 2.613-3.582 3.711-4.268 1.099-.686 2.346-1.029 3.742-1.029 1.971 0 3.87.535 5.698 1.604l-2.68 7.415c-1.457-.928-2.812-1.392-4.065-1.392-1.211 0-2.238.328-3.08.984-.841.655-1.504 1.84-1.986 3.556-.483 1.715-.724 5.306-.724 10.774v9.927zm15.43 2.118l9.886 1.18c.164 1.13.544 1.907 1.14 2.33.821.606 2.115.909 3.88.909 2.259 0 3.953-.333 5.082-.999.76-.444 1.335-1.16 1.725-2.149.267-.706.4-2.007.4-3.904v-4.691c-2.587 3.47-5.851 5.206-9.794 5.206-4.394 0-7.874-1.826-10.44-5.478-2.012-2.886-3.018-6.477-3.018-10.775 0-5.387 1.319-9.503 3.957-12.348 2.638-2.845 5.918-4.267 9.84-4.267 4.045 0 7.382 1.745 10.01 5.236v-4.51h8.1v28.843c0 3.793-.319 6.628-.955 8.504-.637 1.877-1.53 3.35-2.68 4.419-1.15 1.07-2.684 1.907-4.604 2.512s-4.348.908-7.284.908c-5.543 0-9.475-.933-11.795-2.8-2.32-1.866-3.48-4.232-3.48-7.097 0-.282.01-.625.03-1.029zm7.73-18.855c0 3.41.673 5.907 2.018 7.49 1.345 1.585 3.002 2.377 4.974 2.377 2.114 0 3.9-.812 5.358-2.437 1.458-1.624 2.187-4.03 2.187-7.218 0-3.33-.698-5.8-2.094-7.415-1.396-1.614-3.162-2.421-5.297-2.421-2.074 0-3.783.792-5.128 2.376-1.345 1.583-2.018 4-2.018 7.248zm29.628.212c0-2.825.708-5.559 2.125-8.202s3.424-4.66 6.021-6.053c2.598-1.392 5.498-2.088 8.7-2.088 4.95 0 9.004 1.579 12.166 4.736 3.162 3.158 4.743 7.148 4.743 11.97 0 4.863-1.597 8.894-4.79 12.092-3.192 3.198-7.211 4.797-12.058 4.797-2.997 0-5.856-.666-8.577-1.998-2.72-1.331-4.79-3.284-6.206-5.856-1.417-2.573-2.125-5.705-2.125-9.397zm8.87.454c0 3.188.77 5.63 2.31 7.324 1.54 1.695 3.439 2.542 5.698 2.542 2.258 0 4.152-.847 5.682-2.542 1.53-1.695 2.294-4.156 2.294-7.384 0-3.148-.764-5.57-2.294-7.264-1.53-1.695-3.424-2.542-5.682-2.542-2.259 0-4.158.847-5.698 2.542-1.54 1.695-2.31 4.136-2.31 7.324zm31.691 16.071v-44.369h8.654v44.369h-8.654zm39.021 0v-4.812c-1.19 1.715-2.756 3.067-4.697 4.055a13.353 13.353 0 01-6.144 1.483c-2.197 0-4.168-.474-5.913-1.422s-3.008-2.28-3.788-3.995c-.78-1.715-1.17-4.086-1.17-7.112v-20.339h8.654v14.77c0 4.519.159 7.288.477 8.307.318 1.02.898 1.826 1.74 2.421.842.596 1.91.893 3.203.893 1.478 0 2.803-.398 3.973-1.195s1.971-1.786 2.402-2.966c.432-1.18.647-4.07.647-8.671v-13.559h8.655v32.142h-8.039zm12.874 0l11.796-16.555-11.303-15.586h10.564l5.79 8.838 6.098-8.838h10.163l-11.087 15.223 12.103 16.92H259.43l-6.653-9.958-6.714 9.957h-10.132z"/></svg>