<svg viewBox="0 0 300 75" xmlns="http://www.w3.org/2000/svg"><g fill="#d7000f"><path d="M278.79 5.34c-.835.313-1.342.88-2.118 2.356-.76 1.476-.835 1.536-2.386 1.685-1.372.135-2.536-.104-3.997-.805-1.179-.567-1.209-.582-1.88-.373-.82.239-1.267.671-1.148 1.104.045.164-.06.924-.209 1.685-.164.746-.358 1.88-.447 2.49-.09.612-.314 1.507-.493 1.97l-.343.85.731.626.746.627 1.969-.79a76.821 76.821 0 001.998-.836c.03-.015.15-.492.284-1.06.283-1.237 1.059-2.952 1.61-3.534.836-.85 2.387-1.223 3.46-.82.224.074.866.656 1.432 1.267 1.164 1.253 1.343 1.298 3.013.88.97-.253 1.447-.551 3.058-1.983l1.059-.925h1.67c2.998 0 4.564.522 5.683 1.894.611.731.686.91.686 1.551 0 .701-.03.76-.672 1.208-.372.269-.67.522-.67.597 0 .209.7.582 1.819.97 2.207.76 4.445.402 5.563-.895.671-.776.746-1.194.388-2.238-.91-2.625-2.76-4.355-5.489-5.115-.656-.194-1.939-.269-5.34-.358-2.46-.06-4.772-.164-5.145-.224-.462-.09-.88-.298-1.342-.716-1.268-1.104-2.431-1.477-3.49-1.089zm-95.83.163c-.283.135-.82.478-1.178.776l-.656.537.104 6.055c.104 6.787.179 5.921-1.283 17.39-.596 4.684-.611 4.833-.522 8.054.105 3.67.284 5.534.612 6.488.328.94 1.417 2.804 1.954 3.386.79.82.969.716 2.296-1.328 1.88-2.848 2.148-3.848 2.163-7.8 0-2.014-.06-2.983-.253-3.878-.299-1.357-1.015-7.845-1.119-10.23-.09-1.82.239-4.4.716-5.758.313-.88.358-1.79.447-10.545 0-.85-.06-1.178-.417-1.85-.224-.447-.597-.954-.806-1.103-.522-.388-1.431-.477-2.058-.194zm49.76.135c-1.327.477-2.043 1.431-2.043 2.73 0 .924.477 1.953 1.461 3.131.433.507.776.985.776 1.06 0 .133-2.76.327-4.683.327-1.179 0-1.581.18-1.954.895-.492.94-.239 2.163.596 2.864.597.522 3.49 1.193 3.849.895.208-.18 3.683-.985 5.175-1.209 1.596-.253 4.519.015 7.129.657l2.252.552.448-.343c.596-.433 1.118-1.507.999-2.014-.164-.611-1.074-1.491-2.014-1.91l-.88-.387-3.251.15c-1.775.074-3.296.104-3.356.059-.328-.194-.12-1.462.418-2.655.402-.895.552-1.417.552-2.013.015-.761-.015-.82-.657-1.387a6.105 6.105 0 00-2.804-1.447c-.999-.209-1.312-.194-2.013.045z"/><path d="M217.16 6.324c-.552.224-1.059 1-1.327 2.043-.612 2.312-2.297 4.534-4.37 5.712-.79.448-.94.612-1.149 1.194-.209.626-.194.835.15 3.012.193 1.298.477 2.82.61 3.4.24.94.24 1.209.075 2.193-.253 1.507-.253 1.507-.97 1.686-1.177.298-2.743.924-2.982 1.178-.641.716-.09 1.462 1.88 2.565 2.281 1.283 2.266 1.253 2.162 3.714-.164 3.982-1.79 8.472-4.668 12.871l-.955 1.462.328.283c.194.164.388.283.463.298.387.015 2.341-1.178 2.968-1.82 1.372-1.416 3.37-4.683 4.295-7.054.776-1.984 1.521-3.505 1.73-3.505.12 0 .776.269 1.477.597 1.059.477 1.342.552 1.566.417.641-.402.775-1.566.358-3.162-.388-1.536-1.104-2.177-2.625-2.4-.925-.135-1.358-.597-1.372-1.477-.015-.358.03-.701.074-.746.075-.09 1.91.045 4.579.298.73.075.79.12 1.014.627.671 1.61.82 2.565.82 5.25 0 2.863-.268 4.877-.73 5.503-.433.612-1.537 1.283-2.864 1.745l-1.208.433.09 1.79c.163 2.744.685 3.475 2.58 3.624 1.029.06 1.073.06 1.804-.478.955-.7 2.073-2.356 2.7-3.997.268-.686.507-1.267.537-1.297.03-.03.313.179.641.477.328.283.76.641.97.776.372.238.402.238 1.058-.15 1.417-.82 3.311-3.072 4.012-4.772.612-1.462 1.492-6.965 1.76-11.111.18-2.61.21-2.774.567-3.177.298-.328.582-.447 1.342-.582 1.164-.179 1.716-.015 1.954.582.224.537-.104 7.263-.388 8.322-.596 2.148-.76 6.757-.313 8.636.746 3.132 4.37 5.906 7.681 5.906.97 0 2.67-.492 4.012-1.148 1.522-.746 1.626-3.356.194-4.564-.88-.746-2.565-.746-3.52-.015-.477.358-.716.432-1.431.432-.642 0-.97-.074-1.283-.313-.984-.716-1.581-2.58-2.073-6.294-.239-1.85-.239-2.073 0-3.728.134-.955.477-2.685.76-3.834.269-1.148.642-3.057.836-4.235.402-2.52.462-2.387-1.343-2.79-1.029-.223-1.402-.238-4.19-.044-1.686.104-3.76.179-4.624.15-1.522-.03-1.581-.03-1.94.357l-.357.388.418 1.193c.402 1.134.432 1.313.343 2.789-.09 1.67-.373 3.266-1.238 6.965-.97 4.161-1.88 6.354-3.192 7.711-.403.418-.776.73-.805.701-.045-.045 0-2.49.09-5.444l.178-5.384 1.76-1.148c1.58-1.03 1.76-1.194 1.76-1.581 0-.403-.134-.507-1.506-1.223l-1.492-.79.09-.523c.432-2.73.835-6.682.79-7.845-.045-1.238-.104-1.447-.567-2.222-.507-.835-.581-.895-2.192-1.656l-1.67-.79-.24-.79c-.133-.433-.327-1.403-.447-2.163-.238-1.581-.477-2.118-1.148-2.625-.537-.403-1.775-.612-2.297-.403zm2.327 9.068c.626.313 1.312 1.477 1.864 3.222.358 1.103.656 3.534.671 5.324v.701l-.999.254c-1.03.253-1.61.507-2.357 1.044-.343.238-.656.283-1.7.283-.7 0-1.432-.09-1.61-.194-.538-.283-.776-.925-1.074-2.878-.373-2.55-.254-6.593.223-7.234.507-.671.88-.79 2.745-.79 1.342 0 1.834.06 2.237.268z"/><path d="M216.48 19.702c-.239.597-.343 3.654-.12 4.057.299.581 1.03.91 2.03.91.491 0 1.013-.09 1.147-.194.314-.239.672-1.268.79-2.282l.105-.806-.581-.223c-1.402-.552-2.014-.895-2.461-1.358-.597-.611-.686-.626-.91-.104zM116.8 8.248c-.164.074-.91.149-1.67.149-1.164.015-1.537.09-2.536.477-.641.254-1.7.582-2.356.701-.657.134-1.492.418-1.865.627-.775.462-3.445 1.252-5.04 1.476-.597.09-1.612.164-2.253.164-.656 0-2.103.105-3.236.224-2.864.328-3.073.447-3.744 2.312-.76 2.088-1.089 3.266-1.089 3.997 0 .358-.104 1.118-.238 1.685-.18.82-.224 1.611-.18 3.535.06 2.192.12 2.61.448 3.535.209.567.492 1.879.626 2.878.194 1.417.343 2.044.687 2.73.283.552.447 1.103.447 1.491 0 .94.776 2.416 1.939 3.64.97 1.029 1.089 1.252 1.402 2.759.045.208.358.686.686 1.073.73.85 1.491 1.134 2.207.82.85-.357 2.103-2.49 2.148-3.668.045-1.014-.239-3.192-.552-4.191a35.955 35.955 0 00-.954-2.536c-.328-.775-.612-1.61-.612-1.834 0-.224-.164-.731-.358-1.119-.537-1.074-.82-2.073-.954-3.385-.075-.672-.254-1.417-.388-1.67-.18-.359-.239-.88-.239-1.984 0-1.805.194-2.178 1.507-2.834a13.246 13.246 0 001.566-1c.402-.313 1.417-.91 2.267-1.327l1.536-.76.104.462c.045.253.09.492.075.537-.015.06-.134.85-.269 1.79-.208 1.565-.268 1.76-.805 2.445-.805 1.074-.91 1.328-.91 2.103 0 2.879 1.03 4.952 2.894 5.832.507.254.537.254.85-.03.447-.402 1.58-2.013 1.775-2.535.09-.239.238-.79.328-1.238a4.718 4.718 0 01.522-1.417c.223-.343.611-1.089.865-1.656.537-1.163 1.178-1.774 2.043-1.938.477-.09.567-.06.82.328.15.223.567.7.94 1.029l.671.626.045 1.73c.06 1.745-.18 3.207-.656 4.132-.254.492-3.684 3.803-4.55 4.384-.82.552-2.982 2.715-3.832 3.819-.627.82-1.373 2.67-1.373 3.37 0 .463.537 1.522.955 1.85.164.149.537.313.79.373.269.044.94.387 1.492.73.567.358 1.58.836 2.267 1.06 1.208.402 1.297.402 2.506.223 1.431-.209 2.192-.462 3.251-1.134.984-.626 3.445-2.013 3.565-2.013.06 0 .358.179.686.388.522.343.73.388 1.909.388.895 0 1.461-.075 1.76-.224.507-.269 3.192-2.208 4.19-3.058.403-.313 1.015-.73 1.388-.924.373-.18.82-.478 1.014-.657.194-.164.79-.611 1.342-.984.806-.552 1.044-.79 1.253-1.342.15-.373.433-1.104.656-1.64.731-1.806.806-2.298.806-5.072 0-1.834-.09-3.177-.299-4.549-.432-2.834-.536-3.221-1.536-5.563-.88-2.058-.954-2.178-2.252-3.58-.746-.79-1.491-1.61-1.655-1.82-1.119-1.416-4.937-3.325-7.83-3.922-1.373-.283-4.594-.447-4.997-.268zm4.191 3.31c2.625 1.164 4.34 2.238 7.413 4.67 2.505 1.983 3.34 3.877 3.49 7.86.104 2.833-.135 4.115-1.179 6.174-1.61 3.192-2.55 4.131-4.742 4.787-.687.21-2.402 1.223-2.596 1.537-.06.09-.328.268-.611.372-.492.21-.492.21-1.253-.522-.477-.462-.895-.73-1.119-.73-.193 0-.611-.105-.924-.239-.716-.298-1.775-.179-3.252.343-1.029.373-1.79.477-1.983.283-.373-.372 3.326-5.13 6.16-7.92 1.819-1.79 1.923-2.043 1.819-4.4l-.075-1.565-.82-1.417c-.447-.776-1.089-1.924-1.432-2.535-.432-.82-.85-1.328-1.461-1.82l-.836-.671-1.297.462c-.76.269-1.969.895-2.909 1.492-1.387.88-2.625 1.417-3.385 1.431-.18 0-.433-1.73-.433-3.012v-1.313l.642-.403c1.67-1.058 5.563-2.67 7.487-3.102 1.476-.328 2.162-.268 3.296.239zM159.34 8.8c-.686.462-1.67 1.924-1.984 2.953-.313 1.059-.432 3.892-.223 5.757.268 2.371-.135 8.516-.746 11.544-.462 2.282-2.342 7.77-3.013 8.784-.895 1.328-1.148 2.014-1.148 3.058 0 1.491.626 2.61 1.939 3.46 1.312.835 1.506.641 2.893-2.908 2.745-7.07 3.311-8.785 3.52-10.858.18-1.775.537-3.132 1.014-3.803.567-.791.716-2.55.642-7.741-.045-2.476-.015-2.774.253-3.356.642-1.327.925-2.237.925-2.938 0-.627-.09-.85-.656-1.626a22.239 22.239 0 01-1.044-1.506c-.328-.522-1.298-1.208-1.686-1.208-.074 0-.387.179-.686.387zm12.79 4.489c-.97 1.014-1.119 1.64-1.283 5.116-.164 3.743-.492 5.593-1.118 6.294-.18.179-.209.387-.15.745.06.269.15 1.954.21 3.73.104 3.146.119 3.236.462 3.609.283.313.507.387 1.044.387h.686l.776-1.61c.686-1.432.775-1.73.85-2.864.119-1.64.373-3.028 1.029-5.518.746-2.775.999-4.385.999-6.25-.015-3.162-.611-4.34-2.207-4.34-.537 0-.701.09-1.298.701zm102.54 3.535c-.358.194-1.342 2.237-1.566 3.222-.254 1.133-.492 4.101-.343 4.28.268.328.79.209 1.238-.253.984-1.03 3.758-2.685 4.579-2.745.596-.044.895-.402 1.029-1.238.268-1.685.283-1.67-1.208-2.565-1.208-.716-1.447-.805-2.357-.865-.686-.03-1.118.015-1.372.164zm12.23 2.774c-.447 1.79-.611 2.7-.552 3.132.105.76.597 1.805 1.164 2.401.432.463.432.463 1.76.403 1.267-.045 1.372-.074 2.192-.641.462-.328 1.059-.85 1.298-1.149.88-1.103.64-2.893-.612-4.489-.507-.671-.701-.775-2.416-1.447-1.03-.402-1.939-.73-2.029-.745-.089 0-.447 1.133-.805 2.535zm-10.2 9.635c-1.313.477-2.327 1.79-2.327 3.028 0 .984.373 1.118 3.162 1.148 2.55.03 3.043.15 3.37.835.27.567.254 2.894-.044 4.58-.134.775-.298 1.938-.343 2.61-.134 1.49-.253 1.58-2.207 1.58-1.09 0-1.805-.12-3.729-.596-2.923-.746-3.236-.731-3.893.119-.7.925-.865 1.76-.805 4.22l.015.836 1.014.447c1.76.776 2.178.836 5.071.746 1.447-.06 2.938-.164 3.311-.254 1.447-.343 3.788-.596 6.786-.745 3.296-.15 3.624-.21 4.698-.746 1.581-.79 2.237-1.685 2.267-3.057.015-1.06-.715-1.67-2.565-2.208-.94-.268-1.805-.149-3.594.537-1.044.403-3.043.76-3.804.671l-.447-.045 1.924-4.996c1.059-2.744 1.969-5.235 1.999-5.518.074-.627-.373-1.387-1.149-1.91-.537-.372-.611-.372-2.327-.089-.522.075-.82 0-2.252-.671-1.446-.671-1.745-.76-2.595-.746-.522 0-1.223.105-1.536.224zm-55.17 25.891c.06.76.104 4.027.12 7.234v5.861h4.295l-.09-.865c-.06-.462-.149-2.983-.194-5.593l-.104-4.728h1.148c1.343 0 2.357.224 2.7.597.417.462.432 1.208.045 1.79-.403.596-1.06.88-2.103.88-.478.014-.731.089-.79.223-.046.12.625 1.894 1.505 3.953l1.596 3.743h2.297c1.268 0 2.297-.03 2.297-.074 0-.045-.7-1.343-1.566-2.909-.865-1.55-1.566-2.878-1.566-2.953 0-.09.462-.522 1.03-.97 1.297-1.058 1.655-1.744 1.655-3.176 0-1.7-.925-3.266-2.357-3.967-.686-.328-.835-.343-5.37-.388l-4.667-.06.119 1.402zm14.48 5.071c.015 3.55.075 6.682.12 6.95a1.1 1.1 0 00.477.746c.343.224.88.253 5.324.253h4.922l.045-1.61.044-1.596h-3.102c-1.7 0-3.192-.06-3.296-.134-.164-.09-.209-1.223-.209-5.593l-.015-5.46h-4.355l.045 6.444zm12.64.791v7.234h4.34l-.015-7.234v-7.234h-4.325v7.234zm6.74-.045l.06 7.204 3.877.09-.089-1.462c-.179-2.76-.164-6.801.015-6.861.09-.03.388.298.671.73a483.55 483.55 0 002.103 3.297c.88 1.372 1.82 2.908 2.058 3.4l.463.88 2.49-.03 2.491-.044v-.641c-.015-.343-.03-3.58-.045-7.19l-.03-6.562h-3.893l.09 1.97c.045 1.088.105 3.057.12 4.37.03 1.968 0 2.385-.18 2.385-.119 0-1.282-1.879-2.684-4.355l-2.476-4.37h-5.1l.059 7.19zm16.69-6.786c.06.224.12 3.475.12 7.234l.014 6.83h10.962v-3.057l-3.355.06-3.356.044v-2.714h5.667v-2.953c0-.06-1.252-.104-2.803-.104h-2.79l-.044-1.373-.045-1.357 1.014-.12c.552-.059 2.073-.059 3.37 0l2.342.09v-2.983h-11.185l.09.403zm16.66-.179c-1.089.298-1.924.895-2.401 1.7-.328.567-.403.865-.403 1.745 0 1.492.403 2.088 2.953 4.28 2.476 2.134 2.73 2.67 1.492 3.192-.761.314-2.208.18-3.52-.313l-1-.373v1.7c0 1.97-.253 1.746 2.312 2.104 3.117.417 4.683.149 6.04-1.074.806-.73 1.179-1.551 1.194-2.565 0-1.477-.656-2.461-2.655-3.997-2.386-1.85-2.774-2.327-2.342-2.983.284-.433 1.253-.701 2.074-.582.656.104 2.162.477 2.55.611.194.075.224-.149.224-1.61v-1.716l-1.686-.179c-2.192-.208-3.863-.193-4.832.06zm-190.82.075c-2.878.343-4.46 2.685-3.356 4.996.373.79.94 1.373 2.879 2.968 2.043 1.67 2.326 2.178 1.596 2.76-.582.462-2.312.432-3.714-.06a22.461 22.461 0 00-1.074-.373c-.03 0-.045.76-.045 1.7v1.686l1.835.179c.999.104 1.968.208 2.132.253.448.075 2.566-.194 3.118-.417 1.536-.597 2.46-1.865 2.46-3.356 0-1.372-.656-2.342-2.595-3.818-2.207-1.67-2.744-2.297-2.535-2.864.268-.701 1.924-.865 3.788-.373.612.164 1.134.298 1.163.298.015 0 .03-.73.03-1.625v-1.626l-.626-.09a43.776 43.776 0 00-1.76-.164 120.11 120.11 0 01-1.715-.134c-.328-.03-1.044 0-1.581.06zm8.07-.075s0 3.192-.015 7.085v7.084h4.37l-.015-7.085-.015-7.084h-4.325zm12.15.164c-1.626.283-2.938.955-4.027 2.058-1.372 1.387-1.85 2.61-1.864 4.788 0 2.923 1.268 5.041 3.758 6.249 1.402.671 2.401.85 5.384.94l2.79.09V67.01c0-2.073.164-1.924-2.253-1.924-2.46 0-3.251-.223-4.265-1.223-.82-.805-1.149-1.76-1.059-3.012.09-1.044.388-1.73 1.074-2.446.835-.91 1.118-.985 3.848-1.044l2.505-.06-.089-1.521c-.045-.82-.104-1.596-.15-1.7-.074-.254-4.086-.224-5.652.059zm8.62 6.95l-.015 7.13h4.295v-5.818h5.564l-.105 2.909-.104 2.908h4.415l.015-7.129.014-7.114h-4.325l.03 2.64.03 2.654h-5.564l.104-2.654.105-2.64h-4.43l-.03 7.114zm16.5-7.084c0 .075-.015 2.476-.015 5.37l-.015 5.25.403.835c.7 1.431 2.476 2.341 5.086 2.61 3.624.372 6.786-.642 7.696-2.491.358-.716.358-.776.403-6.205l.044-5.473h-4.34v3.535c0 4.176-.164 6.055-.567 6.592-.522.716-1.029.97-1.864.97-1.074 0-1.835-.403-2.237-1.164-.313-.582-.328-.805-.373-5.28l-.06-4.653h-2.073c-1.133 0-2.073.045-2.088.104zm17.61 6.935c-1.745 3.878-3.207 7.1-3.236 7.174-.045.06.999.09 2.296.074l2.357-.044.76-2.014.776-2.013h5.175l.687 2.013.686 2.014 2.282.044c2.117.03 2.267.015 2.192-.223-.09-.343-5.459-13.453-5.638-13.811-.134-.224-.417-.254-2.64-.254h-2.505l-3.192 7.04zm6.562-1.506c.254.79.448 1.506.448 1.61 0 .105-.463.164-1.417.164-.776 0-1.417-.044-1.417-.119 0-.209 1.223-3.236 1.387-3.43.254-.313.492.12 1 1.775zm8.628 1.581l.045 7.13 1.939.044 1.924.045-.12-2.58c-.164-3.848-.134-5.683.075-5.743.09-.03.343.194.537.507.209.314 1.133 1.775 2.073 3.252.954 1.476 1.924 3.102 2.192 3.61l.463.939h5.115l-.09-1.238c-.059-.671-.103-3.893-.103-7.16v-5.92h-3.908l.09 1.297c.208 3.103.268 7.16.119 7.264-.239.134-.522-.284-3.058-4.609l-2.267-3.878-2.55-.044-2.536-.03.06 7.114zm23.37-.164c-1.715 3.818-3.162 7.01-3.177 7.084-.045.09.85.12 2.297.105l2.342-.045.745-1.984.746-1.968h5.25l.641 2.013.642 2.014h2.297c1.267 0 2.311-.015 2.311-.045 0-.015-1.297-3.192-2.878-7.04l-2.864-7.01-2.61-.03-2.61-.044-3.132 6.95zm6.055-3.117c.09.238.328.954.522 1.61.194.657.403 1.313.448 1.447.074.239-.06.269-1.402.269h-1.492l.642-1.656c.581-1.476.895-2.073 1.059-2.073.044 0 .134.18.223.403zm9.145 3.326v7.159h4.34V53.902h-4.325l-.015 7.159zM34.34.683c-4.736.325-9.777 1.7-14.03 3.843-2.174 1.082-4.59 2.657-6.742 4.38-1.397 1.113-4.306 4.032-5.45 5.47-3.77 4.738-6.323 10.178-7.458 15.86-.577 2.909-.64 3.644-.64 7.351 0 2.762.042 3.718.189 4.726 1.04 7.068 3.402 12.655 7.698 18.22 1.155 1.492 4.337 4.706 5.818 5.882 3.728 2.94 7.267 4.852 11.657 6.3a36.875 36.875 0 0028.187-2.1c5.576-2.814 10.48-7.151 13.988-12.34 2.95-4.368 4.799-8.915 5.755-14.124.44-2.437.535-3.571.535-6.564 0-3.623-.283-5.934-1.103-9.19-1.764-6.972-5.786-13.588-11.163-18.356C54 3.308 44.37 0 34.34.683zm6.522 2.562a34.629 34.629 0 0112.907 4.19c8.853 4.968 15.217 13.747 17.076 23.587.367 1.964.41 1.723-.378 1.87-2.164.41-5.608 2.488-11.73 7.11a4920.09 4920.09 0 00-6.154 4.63c-4.453 3.361-5.934 4.254-8.286 5.052-.914.315-1.303.388-2.164.42-.934.042-1.102.02-1.523-.2-.661-.346-.892-.787-.882-1.711.01-.904.126-1.303 1.072-3.571.892-2.142.997-2.562.945-3.497-.042-.882-.347-1.344-1.103-1.712-.43-.22-.651-.252-1.502-.241-.86.01-1.187.073-2.31.44-5.787 1.86-10.061 2.647-14.461 2.647-4.033 0-6.942-.62-9.956-2.132-1.565-.777-2.793-1.66-4.19-3.014-1.859-1.806-3.035-3.465-4.274-6.028l-.651-1.355.126-.64c.168-.82.871-2.983 1.375-4.264C8.202 16.33 14.933 9.42 23.314 5.818c3.75-1.607 7.236-2.415 11.888-2.772.956-.074 4.358.052 5.66.2zM3.644 40.537a23.357 23.357 0 007.204 3.917c2.877.956 5.303 1.376 7.929 1.376 3.843 0 7.277-.861 14.114-3.55 1.617-.63 3.486-1.323 4.148-1.543 2.037-.662 3.297-.61 3.58.136.169.441-.115 1.407-.965 3.203-1.145 2.458-1.386 3.245-1.397 4.642-.01 1.334.158 1.838.82 2.5.87.871 1.984 1.165 4.105 1.092 2.395-.084 4.096-.61 7.488-2.28 3.025-1.49 5.177-2.75 9.84-5.754 3.938-2.552 5.44-3.392 7.089-3.97.935-.326 2.615-.452 3.35-.252l.452.115-.074.704a44.64 44.64 0 01-.42 2.962c-.052.262-.063.262-1.124.23-2.268-.073-3.843.526-8.748 3.33-6.3 3.602-11.163 5.597-15.595 6.374-1.365.242-3.612.242-4.515.01-2.048-.545-3.266-1.7-3.739-3.549-.357-1.376-.042-2.783 1.176-5.303 1.082-2.237 1.155-2.531.756-3.035-.21-.273-.252-.284-.966-.242-.966.053-1.334.21-6.259 2.605-4.274 2.079-5.713 2.699-7.666 3.287-2.542.766-4.442 1.06-6.931 1.05-3.13-.01-5.944-.62-9.032-1.943-2.016-.861-5.146-2.625-5.345-3.014-.084-.157-.347-2.006-.483-3.476-.063-.651-.063-.672.126-.515.105.095.588.494 1.081.893zm34.383 2.1c.252.095.2.557-.105 1.093-.567.976-1.418 2.74-1.712 3.55-1.208 3.276-.725 6.059 1.323 7.582 2.163 1.596 6.007 1.984 10.848 1.092 2.814-.525 4.978-1.155 10.323-3.025 3.76-1.323 5.66-1.911 7.162-2.216.977-.2 2.73-.252 2.899-.084.126.126-.61 1.87-1.387 3.266-.367.672-.462.767-.65.714-.6-.178-1.68-.273-2.437-.22-1.89.147-3.77.514-9.872 1.943-3.276.766-6.175 1.323-7.823 1.512-2.857.336-5.43.157-7.373-.504-1.312-.441-2.058-.893-2.92-1.744-1.942-1.932-2.225-5.009-.745-8.285.662-1.46.809-2.006.651-2.31-.294-.547-1.218-.064-3.108 1.616-1.48 1.324-3.644 3.098-4.736 3.897-1.555 1.134-3.928 2.615-5.157 3.203-1.985.966-4.62 1.69-7.277 1.995-2.405.284-6.428.105-8.234-.357-.493-.126-.514-.147-1.029-1.071a36.877 36.877 0 01-.987-1.922c-.525-1.124-.599-1.071.966-.756 5.902 1.218 10.134 1.376 13.852.504 3.718-.861 7.593-2.846 11.751-6.018 2.457-1.869 3.949-2.846 4.978-3.266.703-.294.598-.262.798-.189zm-3.382 4.842c-.903 2.132-1.113 2.877-1.27 4.421-.18 1.743.157 3.382.955 4.62 2.436 3.77 9.063 5.02 20.405 3.855 3.424-.357 5.051-.43 6.143-.273.925.136 1.68.389 1.68.546 0 .137-1.69 1.89-2.33 2.426l-.494.41-1.292-.158c-1.817-.231-4.757-.378-7.593-.378-6.563-.01-9.556-.389-12.413-1.565-1.533-.64-2.583-1.313-3.602-2.32-.997-1.009-1.46-1.713-1.932-2.973l-.326-.86v-2.416c0-2.237-.01-2.416-.189-2.447-.336-.063-.85.462-1.816 1.827-2.447 3.497-4.138 5.45-6.186 7.162-2.951 2.468-6.07 3.802-9.273 3.98l-1.197.064-1.408-1.408c-.777-.766-1.407-1.438-1.407-1.47 0-.031.41-.094.924-.136 3.844-.305 7.908-1.534 11.111-3.371 2.594-1.492 3.928-2.647 6.71-5.776 3.11-3.498 5-5.335 5.23-5.104.053.052-.115.588-.43 1.344zm-2.93 5.093c-.147 1.008-.084 3.529.116 4.484.62 2.951 2.184 4.968 5.23 6.722 2.604 1.501 5.481 2.436 11.425 3.738 2.857.62 3.781.861 3.781.977 0 .042-.441.273-.977.514-8.653 3.918-18.242 4.18-27.01.746-1.408-.557-4.674-2.153-4.674-2.279 0-.042.504-.42 1.134-.83 2.752-1.816 4.852-3.885 6.585-6.49.378-.556 1.491-2.615 2.478-4.568.987-1.964 1.838-3.56 1.89-3.56.064 0 .074.22.022.546z"/><path d="M15.594 15.312c-1.281.2-1.68.305-1.544.41.021.02.42.21.872.43.598.294 1.06.63 1.67 1.208.819.787 1.04 1.082 3.381 4.705.85 1.302 1.933 2.499 2.836 3.108 1.344.914 3.801 1.817 7.656 2.815 1.323.336 2.667.735 2.993.882.83.388 1.9 1.47 1.9 1.942 0 .063-.273.105-.661.105-.83 0-1.544.21-2.227.641-.283.19-.714.368-.934.4-.599.094-.578.272.063.493.304.094.724.283.924.41.535.335 1.733.745 2.73.934 1.66.315 3.161.168 4.642-.462.42-.179 1.04-.357 1.365-.389.515-.052.683-.02 1.166.231l.567.284.536-.273c.86-.441.63-.672-1.281-1.26-1.366-.43-1.838-.746-1.65-1.103.064-.105.347-.378.641-.588.294-.22 1.208-1.155 2.038-2.09 1.848-2.08 3.843-4.012 4.978-4.82.976-.704 2.73-1.618 3.623-1.901.504-.158.85-.179 1.995-.147 1.607.063 2.468.252 3.592.819l.777.389.451-.221c.599-.294 1.754-1.45 2.111-2.132.158-.294.378-.903.494-1.354.21-.81.283-2.248.126-2.248-.053 0-.63.357-1.292.809-2.856 1.911-5.156 2.604-9.23 2.762-2.521.094-3.488.252-5.063.798-3.098 1.082-5.734 3.098-7.782 5.954a19.226 19.226 0 00-.913 1.376c-.389.683-.242.704-2.395-.357-3.37-1.68-5.503-3.497-9.273-7.876-1.019-1.187-2.195-2.49-2.625-2.899-.893-.86-2.122-1.69-2.804-1.89-.704-.22-2.762-.168-4.453.105z"/></g></svg>