<svg viewBox="0 0 300 92.35" xmlns="http://www.w3.org/2000/svg"><path d="M279.48 9.45c-2.013 1.06-6.16 1.562-7.865-.219-1.85 2.884 1.715 5.61 5.826 4.082 2.406-.879 4.928-2.01 7.569-2.375 2.76-.39 6.068 0 7.255 1.198-10.258.62-23.402 6.224-33.192 13.126-7.609 5.372-12.35 10.215-18.072 17.851-.77 1.08-.654 1.892.723 1.174 6.715-3.422 15.368-6.25 22.83-8.115 5.962-1.48 12.333-2.873 18.401-1.222 3.066.844 5.91 2.836 7.01 5.902 1.43 3.95.335 8.625-4.393 9.355-2.348.354-3.894-.548-4.762-1.78-.417-.591-.625-.612-.952-.51l-6.07 1.855c-.344.108-.795.583-.544 1.187.559 1.401 1.862 3.224 3.295 4.29 3.862 2.879 8.92 3.195 13.32 1.475 6.074-2.366 9.288-8.717 8.385-15.453-.833-6.166-5.324-11.268-11.12-13.247-5.831-2-13.818-1.113-20.224 1.227-1.69.622-2.087.878-1.116.066 4.549-3.697 13.661-7.984 21.304-10.171 5.232-1.494 10.065-1.844 11.477-.689 1.425-8.735-5.828-14.434-14.695-12.168 3.119-1.979.657-6.29-3.822-6.274-7.398.043-14.455 3.409-21.397 4.166-3.897.433-8.49-.356-11.564-1.947-.6 6.118 6.843 10.611 13.936 9.131 4.973-1.037 9.59-3.459 14.207-4.48 4.079-.92 6.176 1.56 4.25 2.565m-39.02 71.17c-3.968 5.937-6.126 5.673-9.696 5.28-.818-.09-.807.048-1.174.639l-.942 1.517c-.411.657-.382.74.565 1.145 6.778 2.838 12.946 2.34 17.948-5.193l22.943-34.556c2.285-3.437 3.287-5.287 6.496-5.435 1.986-.094 3.4 1.211 3.788 2.842.18.794.65.842 1.119.715l5.97-1.789c.333-.092.573-.578.591-1.142.082-1.781-.979-4.359-2.59-5.62-4.56-3.546-11.478-2.322-16.614-1.335-8.247 1.599-18.363 4.87-27.056 9.179-2.266 1.14-4.81 2.303-6.205 4.395-2.4 3.583-9.11 13.951-11.69 17.45-4.337 5.826-6.14 5.633-9.78 5.256-.544-.061-.61.01-.884.464l-1.082 1.754c-.364.597-.332.7.177.919 6.9 3.01 12.917 2.986 18.115-4.81l10.886-16.347c1.612-2.427 4.28-3.873 6.298-4.564l-15.471 23.235c-3.955 5.939-6.037 5.662-9.59 5.287-.813-.092-.824.05-1.17.615l-.967 1.551c-.304.486-.47.67.393 1.034 7.38 3.098 13.21 2.203 18.038-5.094l19.056-28.834c1-1.525 3.395-2.733 5.672-3.216L240.461 80.62z" fill="#cc0327" fill-rule="evenodd"/><path d="M72.231 71.374l.77-4.593h-4.007l-2.881 15.722h4.018l1.438-7.728c.169-.915 1.775-1.702 2.485-1.673 1.119.059 1.132.615.947 1.634l-1.43 7.777h3.897l1.565-8.682c.158-.858.232-1.7-.124-2.44-1.17-2.45-4.525-2.238-6.678-.017m18.276-.769c-1.852-1.438-4.918-1.32-7.203.245 0 0-2.514 1.515-3.039 5.686-.274 2.192.063 4.4 2.01 5.464 1.726.944 4.298.923 6.38.184.467-.158.844-.287 1.306-.585l.501-2.62s-2.823 1.127-4.878.564c-1.11-.313-1.818-1.271-1.728-2.469l7.735.01c.517-2.303.76-5.041-1.084-6.48m-6.04 3.758c.135-.778.948-1.46 1.328-1.633.359-.159 1.185-.354 1.863-.024.45.222.802.955.717 1.657h-3.907zm108.273-2.043c.813-.174 1.868-.069 2.725.208a4.899 4.899 0 011.573.892l.562-3.197s-1.573-.755-4.243-.67c-3.092.097-4.57 1.74-4.983 2.437-.642 1.053-.805 2.34-.454 3.346.512 1.459 1.886 1.92 3.345 2.263.794.188 3.071.283 2.512 1.57-.24.56-.992.723-1.976.747-1.723.029-3.44-.33-4.686-1.346l-.53 2.955s.638.51 1.622.826c.974.309 2.94.49 4.084.295 1.135-.203 2.546-.548 3.728-1.683.663-.62 1.449-2.042 1.37-3.38-.061-1.14-.729-1.997-1.71-2.474-1.24-.602-2.773-.552-3.862-1.293-.597-.401-.536-1.19.923-1.496M66.591 69.894l-10.553-.024-.58 3.161 4.53.013-6.705 9.469 11.018-.058.541-2.926-5.06.032 6.81-9.667zm110.779.956s-2.512 1.517-3.037 5.688c-.274 2.19.058 4.398 2.01 5.461 1.734.945 4.293.924 6.375.185.472-.156.855-.287 1.311-.586l.501-2.62s-2.812 1.127-4.878.565c-1.1-.311-1.807-1.271-1.715-2.467l7.728.008c.517-2.3.762-5.042-1.08-6.48-1.86-1.437-4.925-1.316-7.215.246m1.156 3.514c.15-.78.963-1.461 1.345-1.635.359-.159 1.172-.351 1.85-.024.467.224.815.957.725 1.66h-3.92zM46.24 71.374l.2-1.528h-3.996l-2.33 12.656h4.02l1.441-7.727c.177-.916 1.776-1.702 2.48-1.673 1.122.058 1.135.615.947 1.633l-1.435 7.778h3.91l1.557-8.683c.153-.857.24-1.699-.116-2.44-1.172-2.448-4.533-2.237-6.678-.016m-26.186 0l.77-4.593H16.82l-2.89 15.722h4.026l1.436-7.728c.177-.915 1.778-1.702 2.485-1.673 1.116.059 1.137.615.947 1.634l-1.43 7.777h3.897l1.567-8.682c.148-.858.227-1.7-.121-2.44-1.166-2.45-4.528-2.238-6.683-.017M7.588 69.727c.992-.214 2.242-.055 3.298.303a6.528 6.528 0 011.957 1.119l.657-3.725s-1.939-.937-5.2-.829c-3.796.116-5.588 2.14-6.1 2.984-.791 1.288-1.023 2.73-.5 3.913.617 1.411 2.329 2.137 4.112 2.559.971.243 3.823.572 3.187 2.169-.277.693-1.271 1.131-2.485 1.153-2.066.044-4.38-.367-5.865-1.573L0 81.262c2.448 1.841 7.514 2.01 10.527.26 1.823-1.05 2.762-2.862 2.665-4.73-.095-1.817-1.414-2.817-2.979-3.38-1.327-.48-2.95-.728-4.018-1.53-.68-.506-.591-1.76 1.393-2.155m23.534 1.123s-2.512 1.517-3.037 5.688c-.274 2.19.058 4.398 2.016 5.461 1.723.945 4.29.924 6.369.185.467-.156.847-.287 1.314-.586l.504-2.62s-2.823 1.127-4.889.565c-1.1-.311-1.807-1.271-1.723-2.467l7.736.008c.522-2.3.754-5.042-1.082-6.48-1.86-1.437-4.923-1.316-7.208.246m1.161 3.514c.153-.78.955-1.461 1.33-1.635.364-.159 1.18-.351 1.862-.024.46.224.81.957.726 1.66h-3.918zm66.129-2.99l.203-1.528h-4.002L92.29 82.502h4.018l1.446-7.727c.172-.916 1.773-1.702 2.485-1.673 1.111.058 1.138.615.942 1.633l-1.432 7.778h3.9l1.558-8.683c.164-.857.24-1.699-.11-2.44-1.174-2.448-4.533-2.237-6.686-.016m51.749-4.538l-2.878 15.677h3.791l2.878-15.677h-3.791zm-4.38 2.921c-1.177.3-1.963 1.053-2.623 2.127l-.079.007.39-2.007h-3.624l-2.309 12.65 3.71-.02 1.343-7.264c1-1.4 2.825-2.912 4.498-2.237l.565-3.1c-.277-.227-1.33-.298-1.87-.156m-11.841-2.934l-.56 3.063h3.79l.564-3.063h-3.794zm-2.88 15.69h3.789l2.1-11.4h-3.8l-2.089 11.4zM166 71.374l.206-1.528h-4.003l-2.324 12.656h4.021l1.448-7.727c.17-.916 1.773-1.702 2.478-1.673 1.116.058 1.134.615.947 1.633l-1.43 7.778h3.894l1.57-8.683c.15-.857.227-1.699-.13-2.44-1.16-2.448-4.521-2.237-6.677-.016m-9.53-4.551l-.557 3.063h3.789l.56-3.063h-3.792zm-2.88 15.69h3.786l2.103-11.4h-3.797l-2.092 11.4zm-32.96-15.72l-8.041 15.719h4.403l1.483-2.968h5.696l.395 2.968h4.216l-2.174-15.719h-5.978zm-.678 9.638l3.242-6.683.644 6.683h-3.886zM25.256 27.884h2.786l-.686 3.501c-.892 3.572-5.05 4.95-8.801 5.883l1.562 2.718c5.878-1.39 11.015-3.05 12.025-8.553l.678-3.549h3.029l-1.293 6.844c-.428 2.174.952 3.791 3.525 3.791h3.181c3.338 0 5.04-1.776 6.475-4.042l-4.227-1.802-.839 1.604c-.353.678-.675 1.145-1.53 1.145h-.546c-.742 0-1.074-.39-.976-.992l1.28-6.548h2.693l-.665 3.496h5.103l1.205-6.285.032-.155H20.81l-.032.155-1.18 6.285 4.971-.014.686-3.482zm60.632 24.944l5.15-27.438h-5.237l-5.158 27.438h5.245zm-31.351-2.579l1.385 3.928 13.6-4.698.588-3.232-2.98.754 1.851-9.922h3.868l.567-3.03h-3.868l1.66-8.954.076-.44H66.04l-.081.44-1.639 8.955h-5.218l-.578 3.081h5.208l-2.103 11.25-7.092 1.868zM176.07 35.714l.987-4.424h-5.815l-.757 3.337c-.715 3.148-5.92 4.464-11.3 4.82l1.15 2.665c5.237-.195 14.368-.388 15.735-6.398m20.34 17.768H178.9l1.259-6.696h12.724l.625-3.546h-31.322l-.623 3.546h12.44l-1.237 6.696H156.59l-.65 3.52h39.802l.667-3.52zm-45.45-25.334h-8.477l.974-3.053.459-1.44-5.432-.723-.238 2.164-.335 3.052h-7.72l-.556 3.002h20.755l.57-3.002zM93.407 57.581l5.957-32.485.243-1.314H94.37l-.24 1.314-5.973 32.485h5.25z"/><path d="M46.957 41.504H34.319l.588-3.013h-5.092l-.567 3.013h-11.92l-.567 2.965h10.11c-3.343 3.522-7.664 6.723-12.94 9.313l1.643 2.942c4.799-2.208 9.469-5.313 12.558-8.445l-1.805 9.213h5.084l1.68-9.39c2.317 3.047 6.48 6.577 10.306 8.78l2.538-2.762c-3.974-2.14-8.62-6.35-10.42-9.65h10.887l.554-2.966zm90.133-5.406h3.475l-3.277 17.566c-.174 1.863.9 3.235 3.179 3.382h3.862c2.106-.174 3.312-1.219 3.95-2.891l1.2-4.063-4.052-1.446-.844 4.649c-.209 1.124-2.372 1.124-2.169-.019l3.807-20.323h-13.759l-2.839 15.1c-.744 3.962-1.662 5.933-5.076 7.838l2.383 1.849c4.95-1.678 7.255-6.216 8.075-10.54l2.085-11.102zm55.12.839c-.435.934-1.266 1.636-2.287 1.636h-2.021c-1.159 0-1.647-.744-1.462-1.636l1.142-5.598h-5.558l-1.256 6.228c-.451 2.248.617 4.005 3.493 4.005h6.577c3.67 0 5.461-2.07 6.862-4.82l-4.413-2.124-1.077 2.309z"/><path d="M183.11 26.5l.414-1.406.684-2.385-5.873-.752-.214 3.137-.092 1.406h-15.943l-1.436 7.514h5.427l.874-4.628h26.905l-.684 4.04h5.403l1.317-6.926H183.11zm-67.97 16.704l1.564-.18-1.366 7.28 3.535.045 1.446-7.744 1.57-.163-1.921 10.316c-.446 2.308-4.86.936-6.638.752l.599 3.635h4.714c3.668 0 5.375-1.928 5.89-4.559l2.01-10.75 2.701-.294.528-2.87-2.673.163 2.116-11.289h-8.007l1.757-2.45.916-1.286-5.248-1.43-1.121 2.715-1.019 2.451h-3.131l-2.32 12.397-3.59.256-.752 4.032 3.625-.428-.736 3.905c-.618 3.298-2.791 6.387-5.61 8.22l2.644 1.652c4.208-2.656 7.053-6.645 8.18-12.598l.337-1.778zm2.35-12.595h6.615l-1.594 8.564-1.575.116 1.401-7.387-3.538-.008-1.44 7.609-1.546.097 1.678-8.991zm-98.585-3.261c-1.794-.92-3.385-1.641-5.158-2.253a40.909 40.909 0 00-2.778-.836l-.417.836-.91 1.857c2.643 1.25 4.131 2.525 6.105 4.406l3.158-4.01zm58.354-1.958l-3.435 18.246c-1.127 6.02-3.388 8.52-9.316 12.35l3.683 1.435c7.277-5.02 9.923-8.105 11.477-16.373l2.963-15.658h-5.372zM16.727 37.098c-2.665-1.37-5.622-2.575-8.656-3.372l-1.227 2.689c2.644 1.255 4.749 2.796 6.725 4.696l3.158-4.013zm-1.588 7.988l-2.707-1.915L3.815 53.97l4.05 3.013 7.274-11.896z"/></svg>