<svg viewBox="0 0 170.28 38.28" xmlns="http://www.w3.org/2000/svg" xmlns:xlink="http://www.w3.org/1999/xlink"><defs><path id="a" d="M0 0h170.28v38.28H0z"/></defs><clipPath id="b"><use overflow="visible" xlink:href="#a"/></clipPath><path d="M170.22-.06v38.34H0V-.06h170.22" clip-path="url(#b)" fill="#fc0"/><path d="M29.939 6.84L24.54 14.4h29.88c.344.127.946-.029.96.54v.24c-1.026 1.803-2.479 3.471-3.601 5.22v.18l-.06.12.06.06c.02.587 1.224.566 1.62.54h12.12l3.6-4.98.181-.3c.946-1.559.837-3.605-.061-5.16l-.18-.42-.3-.36c-1.645-2.437-4.653-3.202-7.44-3.24h-31.38" clip-rule="evenodd" fill="#D40511" fill-rule="evenodd"/><path d="M22.319 31.38l10.92-15.12H47.04c1.237.106 1.193.654.479 1.56l-2.76 3.9-.12.18-.18.24-.061.12v.48l.061.12.12.12.18.06.241.06.3.06h.12l.18.06h18.54l-.3.42c-3.43 4.629-9.035 7.914-14.88 7.74H22.319m62.58-8.16l-5.939 8.16H63.359l5.88-8.16h15.66m23.941-1.92H70.56l10.5-14.46h15.599l-6 8.34h6.96l6.001-8.34h15.66L108.84 21.3m-1.38 1.92l-5.94 8.16h-15.6l5.939-8.16h15.601M0 26.4h23.04l-1.261 1.8H0v-1.8m0-3.18h25.38l-1.261 1.68H0v-1.68m0 6.42h20.699l-1.26 1.74H0v-1.74m170.22-1.44H147.3l1.26-1.8h21.66v1.8m0 3.18h-25.26l1.32-1.74h23.94v1.74m-19.32-8.16h19.32v1.68H149.7l1.2-1.68m-9.96-16.38l-10.5 14.46h-16.56l10.5-14.46h16.56m-28.38 16.38l-1.68 2.34c-2.911 4.258 2.863 6.057 6.18 5.82h25.08l5.94-8.16h-35.52" clip-rule="evenodd" fill="#D40511" fill-rule="evenodd"/></svg>