<svg viewBox="0 0 3326 585.83" xmlns="http://www.w3.org/2000/svg"><defs><clipPath id="a"><path d="M0 439.37h2494.49V0H0z"/></clipPath></defs><g clip-path="url(#a)" transform="matrix(1.3333 0 0 -1.3333 0 585.83)"><path d="M302.12 261.96c-1.616 0-2.976-.042-3.741-.127-.893-1.616-2.211-3.784-4.167-6.803 30.44 0 58.075-2.508 88.642-7.992l-8.63-8.333c-27.592 4.889-50.507 6.844-79.714 6.844-4.251 0-5.144 0-6.164-.042-1.021-1.53-3.317-4.506-5.612-7.27 2.593.17 7.61.255 14.539.255 24.021 0 46.468-1.785 70.829-5.697l-8.631-8.375c-18.536 2.891-41.196 4.549-61.518 4.549-7.227 0-15.432-.255-22.787-.68-1.658-1.913-5.994-6.59-7.312-8.035 9.735 1.02 20.449 1.488 33.203 1.488 18.154 0 35.5-1.191 51.91-3.614l-8.631-8.29c-11.691 1.445-25.891 2.295-38.432 2.295-32.353 0-57.862-7.014-84.221-23.127 25.126-26.954 66.28-44.002 106.16-44.002h3.741l-13.944-13.479c-57.522 10.8-118.06 36.096-169.21 70.746-49.189 33.203-66.407 43.023-104.8 59.986l-.255 9.864 25.976-11.139 8.843 7.015 84.815-38.858-5.527-4.421-43.534 18.918-4.294-3.358 22.618-12.627c19.089-10.629 33.628-15.39 47.063-15.39 29.377 0 55.736 20.832 72.741 57.436 12.797 1.659 26.444 2.424 42.854 2.424 33.671 0 66.364-3.231 103.39-10.161l-9.013-8.715c-23.042 4.804-62.198 8.715-87.196 8.715M219.676 19.84c-110.34 0-199.84 89.504-199.84 199.84s89.504 199.84 199.84 199.84 199.84-89.505 199.84-199.84-89.504-199.84-199.84-199.84m0 412.44c-117.57 0-212.6-95.031-212.6-212.6s95.033-212.6 212.6-212.6c117.57 0 212.6 95.032 212.6 212.6s-95.032 212.6-212.6 212.6m561.66-297.23h121.89V77.952h-187.49v283.47h65.601zm269.29 147h61.146V77.95h-57.501v23.487c-8.505-15.793-25.916-29.56-57.909-29.56-52.236 0-79.368 23.487-79.368 90.708v119.46h61.147v-116.62c0-27.133 11.745-39.28 36.446-39.28 22.272 0 36.039 12.147 36.039 39.28zm108.12 7.693c0 49.403 31.183 75.727 80.181 75.727 15.795 0 25.917-2.43 25.917-2.43v-49.403s-8.504.807-15.795.807c-19.032 0-29.157-6.479-29.157-24.296v-8.098h44.952v-49.809h-44.952V77.951h-61.146v154.29h-30.775v49.809h30.775v7.693m213.81-7.693h46.568v-49.809h-46.568v-79.37c0-21.868 11.339-27.537 29.156-27.537 7.288 0 17.412 1.214 17.412 1.214V77.55s-14.171-3.238-29.155-3.238c-48.997 0-78.559 22.271-78.559 71.673v86.256h-30.777v49.809h30.777v59.527h61.146zm181.95 6.074c51.834 0 78.967-23.486 78.967-90.708V77.956h-61.15v116.63c0 27.13-11.743 39.277-37.254 39.277-23.083 0-36.85-12.147-36.85-39.277V77.956h-61.147v283.06h61.551v-98.807c10.53 14.984 27.132 25.916 55.883 25.916m234.87-130.8c0-22.273-21.058-38.877-53.452-38.877-15.796 0-25.108 7.289-25.108 21.059 0 10.528 6.479 19.436 27.132 22.269l35.231 4.862c6.073.811 12.553 2.024 16.197 3.239zm-34.014 130.8c-60.338 0-89.495-23.083-91.924-66.412h59.527c.81 11.34 7.289 19.844 32.397 19.844 22.271 0 32.8-7.291 32.8-18.222 0-9.722-6.077-13.365-21.057-14.984l-38.874-4.049c-52.646-5.668-76.537-27.537-76.537-67.224 0-36.849 22.677-65.194 70.865-65.194 32.803 0 52.24 10.528 69.248 31.587V77.957h55.883v134.04c0 56.288-32.8 76.13-92.328 76.13m233.72.001c53.05 0 80.183-23.486 80.183-90.708V77.96h-61.15v116.63c0 27.13-11.743 39.277-37.255 39.277-23.083 0-36.849-12.147-36.849-39.277V77.96h-61.147v204.09h57.502v-23.488c8.504 15.795 25.915 29.563 58.716 29.563m209.17-82.204c51.833-6.886 77.749-23.083 77.749-65.603 0-42.925-30.37-68.436-94.758-68.436-70.056 0-94.758 27.939-95.971 68.843h60.334c1.623-14.986 12.15-22.275 35.637-22.275 23.892 0 33.611 5.671 33.611 17.008 0 10.528-8.098 15.387-29.156 18.222l-21.464 2.837c-44.948 6.073-70.864 23.485-70.864 63.981 0 38.875 28.751 67.627 89.09 67.627 55.88 0 85.848-22.272 88.681-66.412h-59.528c-2.025 11.741-8.504 19.032-29.153 19.032-20.25 0-27.943-6.885-27.943-15.795 0-8.906 4.86-13.766 22.271-16.197l21.464-2.832m230.82-48.598c0-22.27-21.063-38.873-53.456-38.873-15.792 0-25.109 7.289-25.109 21.059 0 10.528 6.481 19.436 27.132 22.269l35.234 4.862c6.072.807 12.552 2.024 16.199 3.239zm-34.02 130.8c-60.334 0-89.492-23.083-91.92-66.412h59.527c.811 11.34 7.288 19.841 32.393 19.841 22.274 0 32.803-7.288 32.803-18.222 0-9.719-6.074-13.362-21.059-14.981l-38.873-4.049c-52.642-5.671-76.537-27.538-76.537-67.224 0-36.849 22.678-65.194 70.867-65.194 32.799 0 52.24 10.528 69.245 31.587V77.955h55.884v134.04c0 56.285-32.802 76.13-92.33 76.13" fill="#0a1d3d"/></g></svg>