<svg xmlns="http://www.w3.org/2000/svg" viewBox="1.9 159.7 397.4 89.1"><path d="M49.4 207.9H25.2c-1.1 0-1.6.5-1.6 1.4 0 2.2 1.2 4.3 3.6 6.3s5 3 7.8 3c1.6 0 3.5-.3 5.5-.9s3.7-1.4 5-2.3c1.2-.8 2.1-1.2 2.8-1.2.9 0 1.8.5 2.6 1.6.9 1.1 1.3 2.2 1.3 3.4 0 2.5-1.5 4.8-4.6 7.1-5.4 4.1-11.7 6.1-18.8 6.1-7.2 0-13.2-2.1-18.1-6.3-2.4-2.1-4.3-4.5-5.8-7.4-2-3.9-3-7.9-3-12.2 0-5.7 1.7-10.9 5.2-15.5 3-4 6.8-6.9 11.5-8.9 3.5-1.5 7.3-2.2 11.3-2.2 6.5 0 12 1.8 16.6 5.5 2.3 1.8 4.1 4 5.5 6.6 1.6 2.9 2.4 5.7 2.4 8.4 0 2.2-.5 4-1.4 5.5-1 1.3-2.2 2-3.6 2zm-22.8-9.6h5.2c2.2 0 3.3-1 3.3-3 0-1.8-.5-3.4-1.6-4.5-1.1-1.2-2.4-1.7-4.2-1.7-1.9 0-3.4.8-4.5 2.3-1 1.4-1.5 2.8-1.5 4.3 0 1 .2 1.7.7 2.2.5.2 1.3.4 2.6.4zM87 179.7c6 0 11 1.5 15.1 4.5 2.2 1.6 3.7 3.4 4.6 5.5s1.3 4.9 1.3 8.5l-.1 7.6c0 5.3.4 8.7 1.1 10.3.4.8.7 1.2 1.1 1.4.3.2 1.1.4 2.2.6 1.1.2 1.6.9 1.6 2.2 0 1.6-.7 3.4-2 5.1-1.3 1.8-3 3.3-5.1 4.5-2.6 1.5-5.3 2.3-8.1 2.3-3.6 0-6.4-1.2-8.5-3.7-.7-.9-1.4-1.3-2-1.3-.7 0-1.6.4-2.7 1.3-3.4 2.5-7.3 3.7-11.6 3.7-4.5 0-8.1-1-10.9-2.9-1.8-1.3-3.2-2.9-4.3-5-1.1-2-1.6-4.2-1.6-6.4 0-3.6 1.4-6.7 4.3-9.4 4.5-4.3 11.2-6.5 20.1-6.5 2 0 3.2-.2 3.7-.6.5-.4.8-1.3.8-2.7 0-3.6-.4-6.3-1.1-7.9-.8-1.6-2-2.4-3.7-2.4-1 0-1.9.3-2.7.9-.8.6-1.8 1.7-3 3.4-3 4.3-6.2 6.5-9.5 6.5-1.7 0-3-.5-4.1-1.5s-1.6-2.3-1.6-3.9.7-3.3 2-4.9c1.3-1.6 3.1-3.1 5.4-4.3 6.1-3.3 12.5-4.9 19.3-4.9zm-3.5 29.7c-1.5 0-2.8.6-3.9 1.8s-1.7 2.7-1.7 4.4c0 1.6.4 3 1.2 4 .8 1 1.8 1.5 3.1 1.5 2.7 0 4.1-2.3 4.1-6.9 0-1.9-.2-3.1-.6-3.8-.3-.6-1.1-1-2.2-1zm54.3-29.7c1.7 0 4.5.4 8.4 1.1.8.1 1.4.2 1.9.2.6 0 1.7-.3 3.4-.9.8-.3 1.5-.5 2-.5 1.6 0 3.2 1 4.8 3 1.3 1.6 2.4 3.4 3.2 5.3.8 1.9 1.2 3.6 1.2 5s-.5 2.5-1.4 3.4c-1 .9-2.2 1.4-3.6 1.4-1.2 0-2.3-.3-3.2-.9-.9-.6-2.5-1.9-4.5-3.8-2.2-2.1-4-3.2-5.4-3.2-1 0-1.8.4-2.5 1.1-.7.7-1.1 1.5-1.1 2.5 0 1.7 1.6 3.2 4.8 4.7 5.8 2.6 10.2 5.4 13.3 8.5 2.6 2.6 3.9 5.8 3.9 9.5 0 4.8-2.1 8.7-6.3 11.9-3.6 2.8-8 4.2-13.2 4.2-1.3 0-3.8-.2-7.3-.7-3.3-.4-5.2-.6-5.6-.6-.4 0-1 .1-1.5.2-1 .1-1.7.2-2.2.2-1.6 0-2.9-.4-3.8-1.2-1.4-1.3-2.7-3.3-3.9-6-1.2-2.7-1.8-5.1-1.8-7 0-3.1 1.2-4.7 3.7-4.7 1 0 1.8.3 2.6.9.8.6 2.5 2.3 5.1 5.1 1.4 1.5 2.6 2.5 3.5 3.1s1.9.8 3 .8 2-.3 2.7-.9c.7-.6 1-1.4 1-2.4 0-1.5-1.3-2.9-4-4.2-5.5-2.7-9.5-5.5-11.9-8.4s-3.7-6.2-3.7-10c0-4.1 1.2-7.6 3.7-10.5 3.6-4 8.5-6.2 14.7-6.2zm78.4 25.3l-6.8 18.6c-1.7 4.6-3.4 8.4-5.1 11.3-1.7 2.9-3.6 5.4-5.8 7.5-4.4 4.2-9.8 6.4-16.1 6.4-5.1 0-9.2-1.3-12.3-4-2.4-2.1-3.6-4.7-3.6-7.8 0-2.6.8-4.8 2.5-6.6s3.8-2.7 6.2-2.7c2.5 0 4.4.8 6 2.5.7.8 1.2 1.4 1.4 2s.6 1.9 1.1 3.8c.4 1.5 1.2 2.3 2.6 2.3 1.1 0 1.9-.5 2.7-1.4s1.1-2.1 1.1-3.4c0-1.6-.9-4.3-2.7-8.1L175 199.1c-1.3-2.7-2.3-4.4-2.9-5.1-.7-.7-2.1-1.5-4.3-2.5-.7-.3-1.3-.8-1.8-1.6s-.7-1.6-.7-2.3c0-3 3-5.1 9.1-6.2 4-.7 8.6-1.1 13.8-1.1 3.6 0 6.5.4 8.6 1.1 2.8 1 4.2 2.7 4.2 5.1 0 .9-.4 1.9-1.2 3s-1.1 2.1-1.1 2.9c0 .8.2 1.7.5 2.6.4.9 1.1 2.4 2.3 4.5 1.3 2.4 2.4 3.6 3.4 3.6 1.1 0 2.2-1.1 3.3-3.2 1.1-2.1 1.7-4.1 1.7-6.1 0-1.6-.4-2.9-1.3-3.8-1.3-1.5-2-2.9-2-4 0-1.7 1.2-3.1 3.5-4.2 2.3-1 5.4-1.6 9.3-1.6 7.3 0 10.9 1.7 10.9 5.2 0 1.3-.4 2.3-1.1 3.1s-2.1 1.5-4 2.2c-1.6.6-2.9 1.6-3.9 3.1-1.4 2.1-3.1 5.9-5.1 11.2zm58.6-45.3c3.8 0 7.7.3 11.7 1 3.2.5 5.6 1.3 7 2.3s2.1 2.3 2.1 4c0 1.1-.3 1.9-.8 2.5s-1.6 1.3-3.3 2.2c-2 1-3.1 2.2-3.4 3.6-.3 1.4-.6 6.8-.8 16.1-.1 9.1-.2 14.5-.3 16.3-.1 1.8-.3 3.6-.6 5.3-1 5-3 8.9-6 11.8-2.5 2.3-5.6 4.2-9.5 5.5s-7.9 2-12.2 2c-3.8 0-7.6-.5-11.4-1.5-3.8-1-7.1-2.4-9.9-4.1-2.3-1.4-4.2-3.4-5.5-5.8-1.4-2.4-2.1-5.1-2.1-7.8 0-3.4 1.1-6.3 3.2-8.5 2.2-2.2 4.9-3.4 8.1-3.4 3.2 0 5.9.9 8.1 2.8 2.2 1.9 3.3 4.3 3.3 7.1 0 .7-.2 1.9-.6 3.6-.1.3-.1.7-.1 1.1 0 1.1.4 2 1.2 2.7s1.8 1 3.1 1c2.3 0 4.1-1 5.5-3.1s2.1-4.8 2.1-8.1l-.1-4.7-.1-12.6c-.3-7.6-.5-12.1-.7-13.5s-.5-2.5-1.2-3.3c-.5-.7-1-1.1-1.4-1.3s-1.5-.5-3.2-1c-.8-.2-1.5-.6-2.1-1.4-.6-.8-.9-1.6-.9-2.5 0-1.8.7-3.3 2.2-4.4 1.5-1.1 3.8-2 7.1-2.7 3.8-.8 7.6-1.2 11.5-1.2zM345.7 207.9h-24.1c-1.1 0-1.6.5-1.6 1.4 0 2.2 1.2 4.3 3.6 6.3s5 3 7.8 3c1.6 0 3.5-.3 5.5-.9s3.7-1.4 5-2.3c1.2-.8 2.1-1.2 2.8-1.2.9 0 1.8.5 2.6 1.6.9 1.1 1.3 2.2 1.3 3.4 0 2.5-1.5 4.8-4.6 7.1-5.4 4.1-11.7 6.1-18.8 6.1-7.2 0-13.2-2.1-18.1-6.3-2.4-2.1-4.3-4.5-5.8-7.4-2-3.9-3-7.9-3-12.2 0-5.7 1.7-10.9 5.2-15.5 3-4 6.8-6.9 11.5-8.9 3.5-1.5 7.3-2.2 11.3-2.2 6.5 0 12 1.8 16.6 5.5 2.3 1.8 4.1 4 5.5 6.6 1.6 2.9 2.4 5.7 2.4 8.4 0 2.2-.5 4-1.4 5.5-1 1.3-2.2 2-3.7 2zm-22.8-9.6h5.2c2.2 0 3.3-1 3.3-3 0-1.8-.5-3.4-1.6-4.5-1.1-1.2-2.4-1.7-4.2-1.7-1.9 0-3.4.8-4.5 2.3-1 1.4-1.5 2.8-1.5 4.3 0 1 .2 1.7.7 2.2.5.2 1.4.4 2.6.4zm60.9-5.1v17.3c0 2.1.5 3.7 1.5 5s2.3 2 3.9 2c1.3 0 3.1-.6 5.3-1.8.5-.3 1-.5 1.5-.5.8 0 1.6.5 2.3 1.5.7 1 1 2.1 1 3.2 0 2.1-1.2 4.2-3.5 6.1-4.9 4.1-10.7 6.2-17.7 6.2-5.5 0-9.9-1.5-13.2-4.6-3.3-3.1-5-7.2-5-12.2v-23.7c0-.8-.1-1.3-.3-1.5-.2-.2-.7-.3-1.5-.3H353c-1 0-1.6-.2-1.9-.5s-.4-1.1-.4-2.3v-2.3c0-1 .4-1.8 1.2-2.3l23.5-14.8c.6-.3 1.3-.5 2.2-.5h4.2c.9 0 1.4.2 1.7.6.3.4.4 1.2.4 2.3v6.9c0 1 .2 1.7.5 2s1 .5 2.1.5h9.5c1.3 0 2.1.2 2.5.7s.6 1.4.6 3v3c0 1.6-.2 2.8-.7 3.4-.5.6-1.4.9-2.6.9h-9.3c-1 0-1.6.2-1.9.5-.6.6-.8 1.2-.8 2.2z" fill="#F60"/></svg>