<svg width="2758.8" height="637.19" viewBox="0 0 2069.1 477.89" xmlns="http://www.w3.org/2000/svg"><path d="M382.58 1.05c3.02-1.38 6.41-.98 9.62-1.04 8.99.15 17.99-.11 26.98.09 4.12.06 8.26 3.08 8.68 7.35.52 7.64-.39 15.34.37 22.96.68 4.76 5.41 7.64 10 7.22 39.31.03 78.62 0 117.92.01 11.12.24 21.75 5.71 29.03 14 10.87 12.76 15 31.18 9.75 47.21-2.76 8.01-6.94 15.42-10.35 23.15-17.33 36.88-34.75 73.71-52.01 110.62-2.41 4.43-3.96 9.29-6.61 13.59-1.57 2.7-4.8 3.62-7.75 3.46-13.32-.04-26.65-.03-39.97 0-3.52-.09-7.54-.5-10.08-3.23-1.69-2.92-.66-6.59.69-9.46 21.76-46.22 43.46-92.48 65.22-138.7 1.79-3.24 2.1-8.15-1.65-10.13-5.55-3.01-12.16-1.54-18.17-1.61-7.68-.35-15.35.2-23.02-.22-13.02.61-26.04-.48-39.07.17-22.28-.25-44.58.12-66.87-.28-3.36-.02-6.13-2.77-7.2-5.78-.6-2.96-.31-6-.35-8.99.04-20.69.02-41.37 0-62.06-.1-3.35 1.69-6.94 4.84-8.33zm817.12.06c2.66-1.29 5.69-1.07 8.57-1.1 9 .1 18-.03 27.01.03 3.77-.07 8.03 1.75 9.36 5.54 1.57 8.2-.34 16.59.77 24.83.49 4.7 5.44 7.45 9.83 7.24 39-.03 78 .02 117.01-.03 8.26.04 16.52 2.75 23.2 7.62 12.98 9.55 19.7 26.27 18.96 42.12-.44 9.28-4.51 17.69-8.51 25.87-18.25 39.04-36.73 77.98-54.97 117.03-2.86 5.5-4.89 11.42-8.15 16.7-1.61 2.48-4.9 2.63-7.54 2.71-12.69-.02-25.38-.05-38.07.01-3.56-.03-7.33-.12-10.51-1.9-2.99-2.03-2.52-6.27-1.32-9.2 21.07-44.89 42.25-89.73 63.28-134.65 1.36-3.11 3.16-6.08 3.89-9.43.7-3.35-1.84-6.58-5.03-7.32-7.29-1.81-14.84-.13-22.23-.8-27-.23-54.01.15-81.01-.08-13.35.08-26.69-.23-40.02.27-4.99.45-9.62-4.16-9.32-9.12.01-22.68.02-45.36 0-68.04-.13-3.37 1.72-6.82 4.8-8.3z" fill="#948771"/><path d="M1019.175 36.953a7.146 7.146 0 00-.94.027c-29.34.08-58.68-.07-88.013.08-17.18 2.15-32.04 14.4-39.31 29.85-26.4 56.66-52.78 113.34-79.17 170.003-1.07 2.86-2.58 6.19-.9 9.1 1.62 2.88 5.1 4.16 8.28 4.05 11.04-.02 22.09.01 33.13-.01 4.79-.05 8.83-3.45 11.11-7.45 4.22-7.13 7.12-14.921 10.87-22.281 1.63-2.96 2.4-6.55 4.83-8.97 7.05-.23 14.11.01 21.16-.09 24.91.02 49.82.01 74.72 0 .83 10.08-.16 20.18.36 30.26-.23 4.641 4.18 9.051 8.86 8.541 11.35-.01 22.699-.02 34.059.01 5.19.55 9.551-4.68 9.101-9.67V46.414c.338-4.613-3.5-9.295-8.15-9.459zm-63.53 46.713c4.535.011 9.07.054 13.6.044 4.18-.35 7.94 3.661 7.67 7.77.03 21.66.04 43.33 0 65 .3 4.16-3.61 7.87-7.7 7.68-22.96-.01-45.92.07-68.87-.05 11.82-25.4 23.85-50.71 35.69-76.11 1.21-2.2 3.3-4.329 6.01-4.189 4.53-.135 9.064-.156 13.6-.145zM24.342 46.56c7.98-5.34 17.3-8.89 26.92-9.55 51.32-.03 102.65.02 153.98-.03 2.51.08 5.28-.44 7.45 1.17 3.22 1.85 4.19 5.8 4.13 9.26-.04 11.02.05 22.04-.04 33.06.21 3.19-2.07 6.78-5.58 6.5-48.97-.01-97.95 0-146.93-.01-3.73-.22-7.38 2.27-8.66 5.75-.62 4.88.04 9.82-.42 14.72-.2 3.55-.3 7.82 2.72 10.32 1.59 1.74 3.99 2.35 6.28 2.3 44.36.02 88.72-.03 133.08.03 4.47-.14 8.08 3.95 8 8.31.15 8.7-.02 17.4.07 26.1-.03 2.95.26 6.18-1.43 8.77-.95 1.68-2.81 2.49-4.32 3.58-44.81-.12-89.62-.02-134.43-.06-3.21-.12-6.63 1.05-8.5 3.78-1.96 2.53-1.13 5.92-1.31 8.88.3 5.04-.99 10.2.48 15.15 1.37 3.24 4.86 5.18 8.32 5.09h142.02c4.19.03 8.42-.25 12.56.53.53 3.57-1.59 6.6-3 9.68-5.07 10.56-10.11 21.13-15.17 31.69-2.08 3.91-5.26 8.87-10.33 8.48-60.68-.02-121.35 0-182.03-.01-3.2.14-6.09-2.21-7.34-5.03-.9-3.79-.75-7.73-.82-11.6.22-25.66-.19-51.32.08-76.99.23-23.66-.69-47.34.51-70.99 1.84-15.57 10.82-30.01 23.71-38.88zm218.728-.04c-.21-4.29 2.5-9 7.05-9.48 11.71-.11 23.41 0 35.12-.05 4.51-.34 8.29 4.04 8.13 8.4v145.08c-.37 4.85 3.78 9.46 8.73 9.19 44.04.05 88.08.01 132.12.02 4.49.06 9.03-.29 13.48.55 0 1.73.02 3.52-.87 5.08-5.36 11.24-10.79 22.44-16.09 33.7-2.24 4.44-4.91 10.34-10.44 11.02-56.4.05-112.79.01-169.19.02-4.11.16-7.65-3.56-7.85-7.57-.52-5.66-.08-11.36-.24-17.03.02-4.68.02-9.35 0-14.03.05-54.96-.04-109.93.05-164.9z" fill="#001246"/><path d="M639.96 39.08c2.42-1.67 5.48-1.43 8.27-1.48 12.01.14 24.02-.07 36.02.09 3.94-.13 7.5 2.78 8.21 6.65 10.88 49.4 22.09 98.73 32.95 148.14.9 3.55 1.13 7.56 3.6 10.46 3.24.39 4.57-3.1 5.73-5.45 22.16-51.67 44.59-103.23 66.75-154.9.98-2.82 3.51-5.02 6.61-4.89 14.03-.19 28.08.05 42.12-.1 2.65.01 5.81-.23 7.69 2.07 3.08 2.82 3.38 7.38 1.48 10.96-22.3 50.25-44.8 100.42-67.15 150.65-6.49 14.12-14.2 28.68-27.19 37.87-12.09 8.58-27.42 10.45-41.87 10.52-49.66-.05-99.32-.01-148.97-.01-3.41-.13-7.4-.49-9.47-3.6-2.44-2.77-.27-6.53.81-9.43 5.16-10.56 9.98-21.27 15.1-31.85 1.54-3.81 5.84-4.83 9.56-4.72 27.01-.01 54.02.04 81.03-.03-2.74-14.66-6.53-29.11-9.62-43.71-8.27-36.26-16.39-72.56-24.67-108.82-.99-3.09.12-6.79 3.01-8.42z" fill="#948771"/><path d="M1060.4 46.46c-.82-4.61 2.95-9.63 7.75-9.47 11.35 0 22.69.02 34.04 0 4.52-.35 8.32 4.06 8.29 8.39.01 48.69-.01 97.37.01 146.05-.11 4.58 4.11 8.47 8.65 8.23 40.67.05 81.34 0 122.01.02 7.84.25 15.75-.58 23.54.56.46 3.54-1.64 6.57-3 9.66-5.15 10.58-10.15 21.23-15.29 31.81-2.05 3.88-5.15 8.7-10.15 8.35-56.03-.02-112.06 0-168.09 0-4.39.13-8.28-4.17-7.75-8.54 0-65.02.02-130.04-.01-195.06z" fill="#001246"/><path d="M1444.6 44.59c-1.76-2.55-.76-6.45 2.65-6.67 10.92-.68 21.91-.07 32.86-.28 5.64.18 11.69-.86 16.93 1.82 5.99 3.16 8.41 9.85 11.82 15.28 15.29 27.05 30.72 54.04 46.02 81.09 1.77 3.27 3.48 6.64 6.15 9.32 15.95-34.01 31.75-68.09 47.61-102.14 1.21-3.05 4.02-5.56 7.48-5.36 11.68 0 23.37-.08 35.06.04 4.69-.14 9.13 3.16 10.13 7.79.72 5.11-.86 10.18-2.44 14.98-3.01 9.31-7.9 17.84-11.79 26.78-17.66 38.03-35.4 76.01-53.11 114.02-1.1 1.71.1 3.53.93 5.07 6.55 11.53 13.13 23.05 19.63 34.62.77 1.96 2.5 4.64.74 6.53-2.08 2.1-5.31 2.08-8.04 2.2-12.69-.07-25.39 0-38.07-.03-4.73.03-9.64-2.13-11.82-6.5-19.77-34.6-39.26-69.35-59.11-103.89-3.03 2.81-4.1 6.87-5.86 10.46-8.67 18.28-17.24 36.61-25.88 54.9-4.05 8.44-7.43 17.38-13.54 24.62-5.49 6.31-11.83 12.18-19.6 15.53-9.79 4.25-20.66 5.03-31.21 4.92-3.61-.03-7.48.1-10.68-1.81-2.26-1.59-2.1-4.84-.93-7.05 24.68-52.28 49.16-104.67 73.85-156.95.87-1.93.32-4.1-.75-5.82-6.41-11.12-12.78-22.27-19.03-33.47z" fill="#948771"/><path d="M1735.2 37.19c22.98-.45 46.01-.06 69-.19h259.03c2.66-.18 5.31 1.86 5.74 4.53.56 3.1-.96 6.03-2.2 8.76-4.2 8.74-8.15 17.59-12.32 26.33-1.92 4.2-5.47 7.48-9.62 9.42-4.6 2.03-9.75 1.54-14.63 1.59-101.33-.01-202.66 0-303.98-.01-4.95-.25-10.08.73-14.85-.89-3.93-1.68-3.54-6.83-2.11-10.11 4.64-9.82 9.15-19.7 13.78-29.53 2.33-4.92 7.09-8.24 12.16-9.9zm103.1 82.44c6.09-6.63 11.38-14.05 18.13-20.03 1.16 1.34 2.3 2.77 2.93 4.47 1.93 5.18 3.89 10.36 5.83 15.55 8.06.23 16.2-.45 24.23.36 3.18.47 2.69 4.63 1.12 6.58-4.93 6.46-10.67 12.25-15.76 18.58 2.15 5.08 4.03 10.26 5.93 15.43.7 2.11.96 5.58-1.87 6.1-7.72 1.8-15.72.41-23.54.99-5.41 5.56-10.05 11.85-15.46 17.42-.85 1.11-2.25 1.37-3.52 1.17-3.06-5.95-4.98-12.42-7.42-18.64-8.15-.35-16.37.5-24.46-.45-3.46-.42-2.98-4.71-1.3-6.78 4.92-6.53 10.96-12.18 15.77-18.8-1.78-5.81-4.64-11.25-6.17-17.13-.78-2.77 2.18-4.49 4.57-4.54 6.97-.62 13.99-.12 20.99-.28zm-177.8 80.19c49.21-.33 98.44-.04 147.66-.14 59.36.01 118.73-.02 178.09.02 3.28-.33 6.88 2.26 6.61 5.77.27 2.59-1.09 4.88-2.1 7.14-4.08 8.67-8.11 17.36-12.14 26.05-3.03 6.57-9.9 12.17-17.45 11.41-107.95-.07-215.91.04-323.86-.05-4.73 0-6.57-5.73-4.66-9.46 3.2-7.51 6.86-14.82 10.25-22.24 2.35-4.58 3.79-9.87 7.69-13.46 2.73-2.55 6.14-4.6 9.91-5.04z" fill="#001246"/><path d="M507.5 316.63c5.67 0 11.35 0 17.02-.02.06 14.22-.04 28.44.05 42.65 7.21.69 14.46.27 21.69.38 15.61.08 31.23-.17 46.84.13-.43 5.65-1.64 11.18-2.68 16.74-3.57 19.83-7.23 39.65-10.78 59.49-2.25 11.54-6.46 23.4-15.43 31.45-8.13 7.29-19.42 9.59-30.04 9.59-1.28-.2-3.85.5-3.62-1.63-.3-5.23.02-10.47-.13-15.7 6.49-.62 13.46-.47 19.24-3.93 6.83-4.09 10.77-11.67 11.85-19.38 3.29-19.79 7.33-39.46 10.15-59.31-19.83-.06-39.66-.01-59.48-.02-1.75-.04-4.91-.16-4.59-2.64-.16-19.26.03-38.53-.09-57.8zM388.848 359.6c-.1 39.11.04 78.215-.05 117.328 32.29.1 64.585.12 96.872 0-.07-23.14-.005-46.285-.025-69.425.14-9.7-.09-19.53-2.4-29-2.37-9.99-11.39-19.085-22.1-18.875-24.1 0-48.2.025-72.3-.025zm44.625 17.15c8.922-.002 17.855 0 26.775.025 6.05-.17 6.745 7.33 7.375 11.8.37 23.8.045 47.605.175 71.425-20.36-.06-40.74-.065-61.1.025-.03-27.75-.03-55.5 0-83.248 8.92-.005 17.853-.022 26.775-.025zM619.85 359.6c5.67.05 11.35.04 17.02.04-.1 39-.01 78-.04 117-5.66.54-11.34.36-17 .32.02-39.12-.03-78.24.02-117.36zm51.23.07c5.95-.06 11.9-.06 17.86.02 7.79 33.22 15.69 66.41 23.41 99.65 8.84.17 18.17-2.82 23.67-10.09 6.05-7.52 7.24-17.47 7.42-26.79-.03-20.94-.01-41.87-.02-62.81 5.79-.04 11.58-.09 17.37.07.14 17.24.02 34.48.06 51.72-.02 10.86.53 22.03-2.91 32.51-3.45 12.45-12.35 23.46-24.21 28.78-7.29 3.45-15.49 4.37-23.48 4.28-15.53-.09-31.05.1-46.58-.1-.14-5.79-.09-11.58-.1-17.37 10.46-.71 20.97.75 31.41-.44-4.97-19.71-9.49-39.53-14.4-59.26-3.05-13.42-6.72-26.69-9.5-40.17zm115.9-.01c16.05-.05 32.11.01 48.17-.05 10.26-.22 20.09 6.87 23.43 16.53 3.59 10.03 3.85 20.83 4.32 31.37.27 17.4.08 35.75-8.01 51.61 6.63 1 13.3-.21 19.95.5-.07 5.79-.08 11.58-.04 17.37-30.36-.06-60.73.12-91.09-.09-.22-5.76-.12-11.52-.14-17.28 9.86.08 19.72-.36 29.58-.09 7.74-.36 15.56.51 23.25-.72 3.79-.62 5.74-4.47 6.39-7.9 1.23-6.41 1.96-12.93 1.91-19.46-.08-6 1.15-11.96.64-17.97-1.2-10.51.06-21.43-3.54-31.56-1.08-3.13-4.39-5.01-7.61-4.83-15.63-.12-31.26.08-46.88-.08-.61-5.77-.33-11.57-.33-17.35zm174.11.01c22.41-.07 44.82-.01 67.23-.04 7.96-.16 14.84 5.33 18.77 11.89 3.56 6.34 4.4 13.76 4.73 20.91 1.18 10.63.44 21.34.64 32.01.02 17.48-.04 34.97.04 52.46-5.92.13-11.83.18-17.74-.04-.16-24.47-.02-48.93-.07-73.4-.08-7.3.64-14.85-1.84-21.85-.77-2.43-2.82-4.74-5.58-4.49-16.16-.16-32.32 0-48.49-.06-.22 18.45-.03 36.91-.09 55.37-.08 8.88.61 18-2.03 26.62-2.68 8.88-10.56 15.74-19.54 17.72-7.08 1.95-14.5 1.04-21.58-.37 0-5.65-.01-11.3.01-16.94 5.96.38 12.12 2.54 17.94.17 4.73-1.43 7.68-6.32 7.52-11.14.08-29.6-.07-59.22.08-88.82zm116.01-.01c5.85-.04 11.7.01 17.56-.07.13 22.15-.03 44.3.08 66.46-5.78.33-11.58.34-17.35.03-.73-22.13-.17-44.29-.29-66.42zm45.4-.06c14.93.06 29.86.05 44.79.01 5.62-.33 11.5.36 16.3 3.56 6.02 3.18 9.57 9.45 11.42 15.8 2.79 8.86 2.89 18.26 3.14 27.46 1.15 8.21-.02 16.45-.34 24.67-.69 9.67-3.11 19.17-7.25 27.94 6.65 1.09 13.4-.05 20.1.66-.09 5.76-.07 11.52-.05 17.28-27.81.04-55.61-.03-83.42.04-2.74-.07-5.56.3-8.21-.49-.34-5.04-.29-10.12-.11-15.17-.29-2.51 2.8-1.67 4.34-1.96 13.68.63 27.36-.5 41.04.18 3.96-.34 8.97.13 11.8-3.21 3.96-7.29 3.58-15.9 4.4-23.93-.19-14.96.93-30.04-1.59-44.87-.51-3.09-1.77-5.98-3.01-8.82-2.47-.91-5.01-1.81-7.67-1.71-15.22.01-30.43.06-45.64-.01-.37-5.81-.01-11.62-.04-17.43zm114.9.03c14.26 0 28.52.02 42.79-.01 4.31.02 8.78-.38 12.91 1.18 6.94 2.23 12.55 7.75 15.18 14.52 4.42 11.15 4.23 23.36 4.76 35.15.26 16.48-.6 33.59-7.92 48.68 6.6.95 13.25-.25 19.86.48-.33 5.65.62 11.43-.47 17-9.36.88-18.82.11-28.21.36-20.92-.02-41.84.04-62.76-.03-.36-5.79-.01-11.58-.04-17.37 15.26-.14 30.51-.26 45.78-.24 3.52-.29 7.87.45 10.62-2.27 4.25-4.95 3.66-12.05 4.74-18.12.43-14.02.63-28.07-.02-42.09-.84-5.67-.62-11.94-3.85-16.91-2.61-3.69-7.62-2.81-11.51-2.93-13.94-.13-27.9.44-41.82-.3-.04-5.7-.01-11.4-.04-17.1zm160.7.04c5.65-.06 11.31-.03 16.98-.04-.09 22.18.13 44.37-.11 66.55-5.6.14-11.2.11-16.79.06-.24-22.19-.08-44.38-.08-66.57zm43.8-.06c15.12.05 30.24.03 45.37.01 8.73.02 17.65 3.73 23.01 10.79 6.14 8.3 8.24 18.75 9.33 28.82.6 9.4 1.76 18.84.6 28.26-.81 12.26-2.18 25.17-9.05 35.72-4.5 7.3-12.53 11.99-20.96 13.08-10.58 1.41-21.29.4-31.92.7-5.38-.3-10.92.67-16.19-.48-.56-5.73-.1-11.49-.19-17.22 12.76.46 25.53.07 38.3.31 6.22-.44 14.35.02 17.83-6.32 3.88-7.6 3.88-16.46 4.39-24.79-.32-13.67 1.25-27.62-2.25-41-1.26-5.14-5.2-10.09-10.86-10.28-13.34-.34-26.7-.08-40.04-.11-2.4-.14-4.97.37-7.21-.59-.49-5.62-.09-11.27-.16-16.9zm106.8.04c22.19-.04 44.39.02 66.59-.03 5.94-.09 11.72 2.75 15.64 7.16 5.07 5.2 7.14 12.53 7.83 19.59 1.44 12.66.94 25.41 1.02 38.12.02 15.99-.04 31.98.04 47.97-.06 1.45-.08 2.93-.46 4.34-5.63.47-11.3.23-16.92-.1-.09-16.77 0-33.53-.05-50.3-.3-12.01.61-24.07-.49-36.05-.68-4.47-.58-10.06-4.73-12.92-6.27-.84-12.63-.16-18.93-.37-16.49-.08-32.97.16-49.45-.12-.08-5.77-.04-11.53-.09-17.29zm0 49.92c5.84-.55 11.69.01 17.54.11.29 14.59.05 29.19.13 43.78-.12 7.83.31 15.68-.38 23.5-5.74.05-11.47.09-17.19-.08-.16-22.44.02-44.88-.1-67.31z" fill="#948771"/></svg>