<svg xmlns="http://www.w3.org/2000/svg" width="1050" height="300"><path d="M91 288.309C40.341 284.463 7.146 255.002.922 208.365-.942 194.4.237 170.784 3.409 158.5c2.685-10.396 9.268-25.263 14.646-33.08 4.625-6.722 14.362-16.807 21.314-22.076C47.151 97.447 63.02 89.909 74 86.895c7.324-2.01 10.713-2.325 24.5-2.273 14.45.054 16.872.324 25 2.785 25.343 7.673 45.358 25.087 55.278 48.093 5.925 13.743 7.642 23.126 7.684 42 .021 9.35-.285 17.788-.68 18.75-.674 1.64-4.685 1.75-64.25 1.75-61.024 0-63.532.073-63.532 1.84 0 4.103 4.146 17.654 7.094 23.185 3.745 7.026 12.6 15.779 19.46 19.234 23.637 11.907 57.864 5.028 88.802-17.849l8.476-6.268.645 8.18c.354 4.498.504 16.192.334 25.988l-.311 17.81-7 2.962c-18.551 7.849-40.462 13.273-60.239 14.912-11.528.955-15.201 1.003-24.261.315zm38.398-126.559c-1.08-8.447-4.279-15.708-9.275-21.05-8.728-9.331-20.398-12.92-33.278-10.235-7.925 1.653-16.285 6.536-19.914 11.632-3.528 4.954-6.762 13.246-7.471 19.153l-.69 5.75h71.299zm359.663 126.236c-29.528-4.157-46.743-19.156-52.17-45.455-1.67-8.083-1.866-14.147-1.878-57.781L435 136h-20V93h20V40h58.728l.636 4.64c.35 2.551.636 12.389.636 21.86s.286 19.309.636 21.86l.636 4.64H551v43h-54.096l.298 44.75c.297 44.63.304 44.764 2.668 49.992 2.923 6.466 8.63 11.774 14.323 13.32 7.62 2.07 22.507-.284 35.057-5.543 1.639-.686 1.75.82 1.75 23.742v24.476l-4.25.651c-7.207 1.105-50.876 1.558-57.69.598zm158.118-.044c-37.066-3.481-65.917-22.678-79.011-52.574-6.417-14.649-7.617-21.693-7.644-44.868-.021-18.552.239-22.03 2.229-29.84 4.904-19.248 12.63-33.793 24.694-46.493 8.773-9.236 16.476-14.779 28.609-20.585 15.39-7.365 23.547-9.09 42.444-8.981 14.382.083 16.91.368 25 2.812 15.666 4.733 25.563 10.64 37 22.082 11.455 11.46 15.878 18.614 21.025 34.005 4.167 12.46 5.968 27.139 5.131 41.814-.339 5.947-.877 11.234-1.195 11.75-.35.566-25.672.936-64.02.936H618v2.29c0 1.26.692 4.972 1.539 8.25 6.873 26.627 26.984 40.85 55.373 39.163 5.273-.313 13.188-1.504 17.588-2.645 10.889-2.826 30.16-12.54 40.661-20.496 4.764-3.61 8.926-6.562 9.25-6.562.324 0 .589 11.658.589 25.907v25.906l-7.75 3.233c-29.197 12.177-60.553 17.48-88.071 14.896zm42.806-122.692c-.029-3.413-3.004-14.367-4.898-18.031-2.447-4.736-9.426-11.432-14.587-13.999-22.714-11.293-48.13 2.764-51.129 28.278l-.646 5.502h35.637c33.28 0 35.637-.116 35.623-1.75zm187.009 113.874c-11.594-3.798-19.602-15.414-17.461-25.33 3.079-14.26 16.45-22.12 41.32-24.291l8.352-.73-.625-3.123c-.926-4.63-2.73-5.88-8.48-5.88-5.848 0-9.774 2.084-10.673 5.665-.514 2.048-1.08 2.343-3.766 1.96-1.739-.248-7.563-.827-12.943-1.288-5.38-.46-10.057-1.113-10.394-1.45-1.43-1.43 3.068-9.75 7.524-13.918 6.5-6.08 13.967-8.728 26.623-9.442 17.745-1.001 30.24 2.68 36.78 10.84 3.852 4.805 4.674 11.494 4.716 38.37.018 11.553.452 22.466.963 24.25l.93 3.243H911.227l-.682-4.548-.682-4.548-1.955 2.486c-3.51 4.461-12.205 7.917-20.77 8.255-4.2.165-8.766-.069-10.144-.52zm24.265-18.18c2.068-.573 4.388-2.033 5.155-3.244 1.545-2.435 3.094-12.069 2.18-13.549-.711-1.15-7.576.272-12.425 2.573-6.356 3.016-7.572 11.974-1.934 14.24 2.954 1.186 2.682 1.187 7.024-.02zM773.461 277.75c-.263-.688-.36-41.975-.219-91.75l.258-90.5 28.75-.265 28.75-.266v10.016c0 5.508.246 10.015.547 10.015.3 0 5.084-3.14 10.63-6.978C855.85 98.562 865.527 94.856 878 94.3c7.05-.314 11.306.045 16.5 1.389l7 1.811-.255 11c-.14 6.05-.522 15.643-.85 21.318-.523 9.045-.8 10.24-2.246 9.676-.907-.354-5.602-1.134-10.433-1.734-15.355-1.906-44.347 2.337-53.838 7.879l-3.378 1.973-.257 65.694-.257 65.694H801.96c-21.498 0-28.135-.291-28.5-1.25zm179.995-.004c-.265-.69-.363-17.902-.219-38.25l.263-36.996 13.25-.279 13.25-.28V279h-13.031c-9.525 0-13.161-.337-13.513-1.254zM997 240.5v-38.563l11.75.281 11.75.282.5 3.68.5 3.681 5.818-3.621c4.517-2.813 7.135-3.717 11.713-4.049 3.243-.234 7.038-.14 8.433.21 2.473.621 2.536.855 2.535 9.368v8.731l-10.75.042c-7.741.03-11.794.503-14.483 1.692l-3.734 1.65-.266 27.308-.266 27.308-11.75.282-11.75.281zm-784-54V95h57v7.5c0 4.125.195 7.5.434 7.5s3.616-2.394 7.505-5.32c27.32-20.551 63.644-25.065 86.043-10.692 6.835 4.386 14.308 12.821 17.975 20.288 6.384 13.002 6.377 12.908 6.778 91.99l.363 71.765-28.299-.265-28.299-.266V217c0-59.404-.038-60.582-2.106-65.05-3.078-6.654-7.775-11.499-14.212-14.66-5.182-2.545-6.65-2.789-16.682-2.773-9.698.015-11.652.321-16.506 2.587-3.028 1.414-7.19 4.16-9.25 6.101L270 146.736V278h-57zM953 176v-9h27v18h-27z" fill="#a9d3e2"/><path d="M490.597 287.936c-17.233-2.398-28.558-7.161-37.978-15.973-7.32-6.848-11.734-14.476-14.841-25.65-2.075-7.46-2.19-10.13-2.54-59.063L434.87 136H415V93h20V40h59l.133 7.25c.073 3.987.41 16.025.75 26.75l.617 19.5 27.77.266 27.77.266-.27 20.548-.27 20.548-26.75-.094-26.75-.094v42.98c0 26.546.406 44.875 1.062 47.932 1.73 8.067 6.053 13.854 12.583 16.843 5.063 2.318 6.45 2.515 14.232 2.029 5.313-.332 11.61-1.535 16.404-3.132 4.28-1.425 8.225-2.592 8.768-2.592.63 0 .89 8.608.72 23.75l-.269 23.75-5.5.685c-9.804 1.221-47.305 1.739-54.403.751zm-409.783-.952c-26.582-4.187-48.574-16.208-61.97-33.872C5.274 235.218-.941 212.142.267 184.128 1.548 154.418 10.83 131.46 29 113.053c25.732-26.066 63.967-35.307 98.72-23.858 27.447 9.042 47.04 29.924 55.176 58.805 2.9 10.29 4.44 28.273 3.425 40l-.821 9.5-63.75.257-63.75.258v2.782c0 9.364 6.974 24.924 14.68 32.755C82.2 243.224 94.785 248 110.752 248c22.157 0 46.647-9.66 66.515-26.237l4.767-3.977-.267 26.256-.267 26.256-9.5 3.792c-11.367 4.538-24.08 8.336-37 11.054-10.776 2.267-44.256 3.404-54.186 1.84zm48.842-125.251c-1.358-11.555-6.745-20.954-15.234-26.577-6.438-4.264-11.37-5.58-20.922-5.584-6.511-.002-9.046.482-13.62 2.598-11.608 5.37-19.229 15.983-20.523 28.58l-.642 6.25h71.56zM640.5 286.953c-9.69-1.496-23.403-5.758-32-9.946-22.714-11.065-38.16-30.385-45.176-56.507-2.502-9.315-2.686-11.403-2.686-30.5 0-18.892.202-21.25 2.579-30.074 10.482-38.917 35.334-63.981 72.476-73.098 10.938-2.685 31.029-2.964 41.824-.582 29.326 6.473 51.926 25.675 62.482 53.088 4.723 12.266 6.404 23.074 6.34 40.782-.03 8.589-.37 16.127-.756 16.75-.51.826-18.032 1.134-64.526 1.134h-63.825l1.29 6.75c5.332 27.913 23.853 43.25 52.23 43.25 21.18 0 41.945-7.781 62.86-23.556l8.421-6.351-.266 26.102-.267 26.103-9.5 3.792c-11.037 4.406-23.33 8.073-36.889 11.003-10.945 2.365-44.035 3.492-54.611 1.86zm49.092-125.203c-1.512-11.932-6.66-20.957-15.17-26.594-6.54-4.331-11.487-5.658-20.922-5.608-9.361.049-16.569 2.809-23.36 8.945-5.484 4.954-10.156 14.587-10.864 22.401l-.554 6.106h71.536zM879.77 278.968c-11.046-1.86-18.736-9.51-19.56-19.459-1.31-15.793 11.234-25.993 35.29-28.693 13.807-1.55 13.5-1.44 13.5-4.835 0-4.572-3.08-6.981-8.923-6.981-3.838 0-5.602.57-8 2.589-1.692 1.424-3.077 3.224-3.077 4 0 1.715.363 1.709-14.765.256-11.706-1.124-12.237-1.272-11.663-3.261 2.24-7.767 11-16.222 19.25-18.582 11.374-3.253 29.479-3.176 39.321.168 4.77 1.62 10.243 5.72 12.995 9.735 2.303 3.359 2.377 4.146 2.977 31.52.339 15.441.957 29.1 1.374 30.354l.76 2.28-13.875-.28-13.874-.279-.5-4.817-.5-4.818-3.382 3.501c-6.051 6.265-17.08 9.33-27.348 7.602zm26.049-20.332c2.123-2.123 2.657-3.745 2.998-9.11.48-7.521.284-7.636-8.56-5.01-8.91 2.646-13.087 10.654-8.14 15.6 2.936 2.937 10.054 2.168 13.702-1.48zm-692.137 18.713c-.375-.375-.682-41.557-.682-91.516V95h57v15.92l6.607-5c17.544-13.28 36.175-19.937 55.708-19.905 23.022.037 40.064 9.765 49.023 27.985 6.629 13.48 6.625 13.432 6.645 92.75L388 278h-54.927l-.287-61.25c-.32-68.358.082-64.463-7.495-72.85-10.961-12.132-33.097-13.925-47.791-3.87-8.184 5.6-7.455-1.183-7.743 72.04l-.257 65.43-27.568.266c-15.162.146-27.875-.042-28.25-.417zM774 187V96h57v20.098l9.357-6.524c21.077-14.695 37.877-18.586 56.397-13.061l5.254 1.567-.491 5.21c-.27 2.865-.77 12.313-1.11 20.993-.612 15.559-.651 15.774-2.764 15.096-11.782-3.782-32.728-3.089-51.46 1.702-4.183 1.07-9.536 2.88-11.895 4.021L830 147.178V278h-56zm180 53.5V203h25.5l-.274 37.5-.273 37.5H954zm43 0V203h23v4c0 2.2.236 4 .524 4 .288 0 2.796-1.563 5.573-3.473 7.254-4.99 13.257-6.406 20.778-4.902 2.962.592 3.124.867 3.114 5.25-.01 2.544-.274 6.216-.596 8.16l-.585 3.536-8.654.067c-5.745.045-10.503.705-14.154 1.965l-5.5 1.897-.266 27.25-.266 27.25H997v-37.5zM954 176v-9h26v18h-26z" fill="#7fc5de"/><path d="M492.054 287.953c-18.52-2.333-32.56-8.41-41.341-17.896-6.413-6.927-9.81-13.396-12.895-24.557-2.122-7.674-2.227-10.07-2.58-58.75l-.37-50.75H415V93h20V40h58.774l.677 25.75c.373 14.162.86 26.313 1.082 27 .31.96 6.793 1.25 27.936 1.25H551v41h-27.031c-20.704 0-27.144.293-27.51 1.25-.263.688-.136 21.275.282 45.75l.759 44.5 3 6c2.08 4.159 4.33 6.92 7.335 9 3.816 2.64 5.342 3.042 12.725 3.352 6.88.288 10.06-.137 17.665-2.36 5.101-1.49 10.07-2.941 11.043-3.223 1.662-.48 1.753.933 1.5 23.36L550.5 286.5l-6 .652c-11.279 1.226-44.989 1.741-52.446.801zm-407.554-.63c-31.065-3.898-56.108-18.426-69.854-40.522-18.358-29.51-19.49-77.24-2.616-110.237 13.217-25.844 37.006-43.822 66.436-50.209 8.583-1.862 27.705-2.086 36.534-.428 33.533 6.3 58.146 28.653 67.416 61.224 2.996 10.53 4.742 29.35 3.789 40.849l-.705 8.5-32 .614c-17.6.338-46.444.676-64.099.75L57.303 198l.88 5.616c3.475 22.157 18.215 38.88 38.225 43.363 6.35 1.424 21.823 1.43 29.64.012 15.974-2.896 39.134-14.432 52.452-26.125l3.5-3.073v51.837l-3.75 1.795c-12.415 5.945-35.545 12.582-52.378 15.03-9.602 1.396-33.22 1.892-41.372.869zm45.173-125.92c-1.202-12.87-8.13-23.04-19.51-28.643-5.99-2.95-7.479-3.26-15.642-3.26-7.679 0-9.865.396-14.696 2.66-12.033 5.641-19.538 16.393-20.59 29.5l-.509 6.34H130.29zM639.5 286.615c-37.06-6.09-63.2-26.743-73.394-57.987-4.832-14.811-5.553-19.827-5.553-38.629 0-18.757.679-23.53 5.573-39.157C576.347 118.211 603.61 93.755 638 86.37c10.072-2.163 29.106-2.12 39.5.09 35.483 7.544 60.014 33.2 67.087 70.169 1.716 8.964 2.39 33.716 1.036 37.984-.667 2.103-.78 2.108-64.396 2.842-35.05.405-63.818.821-63.929.926-.912.86 3.573 16.636 6.43 22.62 6.162 12.905 18.654 22.836 32.68 25.98 6.35 1.423 21.823 1.429 29.64.011 15.974-2.896 39.134-14.432 52.452-26.125l3.5-3.073v51.837l-3.75 1.795c-10.643 5.096-30.953 11.309-46.396 14.191-11.392 2.127-41.945 2.71-52.354 1zm50.17-124.507c-.928-8.872-4.128-16.305-9.469-21.99-15.873-16.896-44.175-13.908-56.43 5.959-2.369 3.838-4.771 12.703-4.771 17.603V168h71.285zm190.1 116.859c-11.046-1.86-18.736-9.51-19.56-19.459-1.31-15.793 11.234-25.993 35.29-28.693 13.807-1.55 13.5-1.44 13.5-4.835 0-4.572-3.08-6.981-8.923-6.981-3.838 0-5.602.57-8 2.589-1.692 1.424-3.077 3.224-3.077 4 0 1.715.363 1.709-14.765.256-11.706-1.124-12.237-1.272-11.663-3.261 2.24-7.767 11-16.222 19.25-18.582 11.374-3.253 29.479-3.176 39.321.168 4.77 1.62 10.243 5.72 12.995 9.735 2.303 3.359 2.377 4.146 2.977 31.52.339 15.441.957 29.1 1.374 30.354l.76 2.28-13.875-.28-13.874-.279-.5-4.817-.5-4.818-3.382 3.501c-6.051 6.265-17.08 9.33-27.348 7.602zm26.049-20.332c2.123-2.123 2.657-3.745 2.998-9.11.48-7.521.284-7.636-8.56-5.01-8.91 2.646-13.087 10.654-8.14 15.6 2.936 2.937 10.054 2.168 13.702-1.48zm-692.352 18.13c-.266-.696-.367-41.766-.225-91.266l.258-90 28.25-.266L270 94.97v16.087l6.387-4.896c16.978-13.012 36.75-20.105 56.153-20.143 26.236-.05 44.985 13.37 52.76 37.765 2.096 6.574 2.149 8.303 2.458 80.468l.315 73.75H333.06l-.28-61.25c-.273-59.97-.323-61.344-2.393-65.75-6.009-12.787-21.663-19.948-37.32-17.072-8.53 1.568-13.844 3.973-18.931 8.57l-4.12 3.722-.258 65.64-.257 65.64-27.775.266c-21.681.207-27.882-.012-28.258-1zM774 187V96h56.579l.018 2.25c.01 1.238.105 5.76.21 10.049l.193 7.799 9.404-6.557c14.759-10.29 28.068-15.47 39.888-15.524 4.47-.02 18.767 2.8 20.208 3.985.636.523.765 5.683.354 14.16-.355 7.336-.692 16.558-.75 20.493L900 139.81l-5.75-1.517c-8.868-2.34-32.62-1.25-46.018 2.11-5.648 1.416-12.06 3.49-14.25 4.606L830 147.041V278h-56zm180 53.5V203h25.5l-.274 37.5-.273 37.5H954zm43 0V203h23v4c0 2.2.236 4 .524 4 .288 0 2.796-1.563 5.573-3.473 7.254-4.99 13.257-6.406 20.778-4.902 2.962.592 3.124.867 3.114 5.25-.01 2.544-.274 6.216-.596 8.16l-.585 3.536-8.654.067c-5.745.045-10.503.705-14.154 1.965l-5.5 1.897-.266 27.25-.266 27.25H997v-37.5zM954 176v-9h26v18h-26z" fill="#5cb8da"/><path d="M496.913 287.926c-17.977-1.49-32.959-6.626-42.766-14.662-5.919-4.85-11.575-13.846-14.892-23.686l-2.723-8.078-.516-53-.516-53-10.27-.285-10.27-.285.27-20.715.27-20.715 10.25-.285L436 92.93V40H492.767l.603 2.25c.331 1.238.612 10.35.623 20.25.012 9.9.308 21.038.659 24.75l.637 6.75H550v41h-54.131l.368 44.25c.424 51.103.524 51.794 8.624 59.883 3.853 3.847 5.643 4.84 10.569 5.858 8.244 1.704 19.865-.242 32.82-5.495 1.637-.664 1.75.806 1.75 22.81v23.518l-3.75.604c-3.955.638-35.684 2.647-38.25 2.423-.825-.072-5.814-.488-11.087-.925zM88.5 287.412c-29.01-4.169-45.705-11.094-60.584-25.13C3.73 239.465-5.456 200.056 3.98 159.584c10.385-44.537 48.473-74.63 94.38-74.57 44.539.057 79.023 29.404 86.144 73.31 1.515 9.346 1.975 28.143.854 34.926l-.62 3.75H56.742l.648 4.879c.932 7.032 5.097 18.646 8.697 24.257 4.188 6.526 12.732 14.16 19.354 17.293 25.346 11.99 61.27 3.486 93.309-22.09l3.25-2.595v50.924l-10.25 4.042c-12.914 5.093-29.474 9.773-41.75 11.8-9.343 1.542-35.622 2.746-41.5 1.902zm41.988-120.393c1.017-1.644-1.518-13.206-4.084-18.63-3.34-7.062-11.497-14.528-18.93-17.328-8.52-3.21-21.632-2.632-29.258 1.29-10.215 5.253-16.92 14.54-19.208 26.609-1.909 10.063-5.863 9.04 34.933 9.04 22.423 0 36.169-.369 36.547-.981zM645 286.98c-26.514-3.685-43.956-11.64-59-26.912-8.883-9.017-13.551-15.907-17.648-26.048-10.146-25.12-10.432-60.972-.693-86.846 14.37-38.176 49.365-62.214 90.498-62.162 35.29.045 65.376 18.627 79.075 48.838 6.755 14.897 10.46 40.458 8.332 57.486l-.708 5.663H616.728l.637 4.644c2.57 18.752 13.453 34.867 28.285 41.884 25.722 12.168 60.633 3.436 95.1-23.786.993-.784 1.25 4.232 1.25 24.406v25.393l-10.75 4.264c-13.835 5.487-25.221 8.7-39.94 11.272-13.313 2.326-36.433 3.277-46.31 1.904zm44.77-125.942c-.944-13.207-10.053-25.364-22.523-30.063-8.285-3.122-21.504-2.496-29.031 1.375-10.451 5.374-17.232 14.85-19.169 26.787-.567 3.5-1.035 6.924-1.04 7.612-.005.977 7.883 1.25 36.127 1.25h36.135zm190 117.929c-11.046-1.86-18.736-9.51-19.56-19.459-1.31-15.793 11.235-25.993 35.29-28.693 13.807-1.55 13.5-1.44 13.5-4.835 0-4.572-3.08-6.981-8.923-6.981-3.838 0-5.602.57-8 2.589-1.692 1.424-3.077 3.224-3.077 4 0 1.715.363 1.709-14.765.256-11.706-1.124-12.237-1.272-11.663-3.261 2.24-7.767 11-16.222 19.25-18.582 11.374-3.253 29.479-3.176 39.321.168 4.77 1.62 10.243 5.72 12.995 9.735 2.303 3.359 2.377 4.146 2.977 31.52.339 15.441.957 29.1 1.374 30.354l.76 2.28-13.875-.28-13.874-.279-.5-4.817-.5-4.818-3.382 3.501c-6.051 6.265-17.08 9.33-27.348 7.602zm26.049-20.332c2.123-2.123 2.657-3.745 2.998-9.11.48-7.521.284-7.636-8.56-5.01-8.91 2.646-13.087 10.654-8.14 15.6 2.936 2.937 10.054 2.168 13.702-1.48zM774 187V96h56v10c0 6.573.375 10 1.094 10 .602 0 4.497-2.485 8.656-5.523 8.85-6.462 19.504-11.933 27.25-13.992 7.422-1.972 20.95-1.883 28.329.187l5.96 1.673-.645 11.984c-.354 6.592-.65 15.177-.66 19.078-.007 3.901-.345 7.596-.75 8.211-.536.817-2.895.73-8.734-.321-15.657-2.819-48.175 1.815-58.25 8.3l-2.25 1.45V278h-56zm180 53.5V203h25.5l-.274 37.5-.273 37.5H954zm43 0V203h23v4c0 2.2.236 4 .524 4 .288 0 2.796-1.563 5.573-3.473 7.254-4.99 13.257-6.406 20.778-4.902 2.962.592 3.124.867 3.114 5.25-.01 2.544-.274 6.216-.596 8.16l-.585 3.536-8.654.067c-5.745.045-10.503.705-14.154 1.965l-5.5 1.897-.266 27.25-.266 27.25H997v-37.5zM214 186V95h56v8c0 4.4.38 8 .845 8 .465 0 1.63-.867 2.588-1.926 2.315-2.558 13.814-10.196 20.067-13.328 12.871-6.449 31.75-10.442 43.993-9.306 25.19 2.337 40.991 15.474 48.186 40.06 1.588 5.427 1.786 12.899 2.081 78.25l.326 72.25H333v-59.874c0-64.94.037-64.455-5.55-71.78-10.193-13.365-33.913-16.316-49.701-6.185-9.497 6.094-8.749-.167-8.749 73.243V277h-55zm740-10v-9h26v18h-26z" fill="#9b9c9e"/><path d="M496.913 287.926c-17.977-1.49-32.959-6.626-42.766-14.662-5.919-4.85-11.575-13.846-14.892-23.686l-2.723-8.078-.516-53-.516-53-10.27-.285-10.27-.285.27-20.715.27-20.715 10.25-.285L436 92.93V40H492.767l.603 2.25c.331 1.238.612 10.35.623 20.25.012 9.9.308 21.038.659 24.75l.637 6.75H550v41h-54.131l.368 44.25c.424 51.103.524 51.794 8.624 59.883 3.853 3.847 5.643 4.84 10.569 5.858 8.244 1.704 19.865-.242 32.82-5.495 1.637-.664 1.75.806 1.75 22.81v23.518l-3.75.604c-3.955.638-35.684 2.647-38.25 2.423-.825-.072-5.814-.488-11.087-.925zM88.5 287.412c-29.01-4.169-45.705-11.094-60.584-25.13C3.73 239.465-5.456 200.056 3.98 159.584c10.385-44.537 48.473-74.63 94.38-74.57 44.539.057 79.023 29.404 86.144 73.31 1.515 9.346 1.975 28.143.854 34.926l-.62 3.75H56.742l.648 4.879c.932 7.032 5.097 18.646 8.697 24.257 4.188 6.526 12.732 14.16 19.354 17.293 25.346 11.99 61.27 3.486 93.309-22.09l3.25-2.595v50.924l-10.25 4.042c-12.914 5.093-29.474 9.773-41.75 11.8-9.343 1.542-35.622 2.746-41.5 1.902zm41.988-120.393c1.017-1.644-1.518-13.206-4.084-18.63-3.34-7.062-11.497-14.528-18.93-17.328-8.52-3.21-21.632-2.632-29.258 1.29-10.215 5.253-16.92 14.54-19.208 26.609-1.909 10.063-5.863 9.04 34.933 9.04 22.423 0 36.169-.369 36.547-.981zM645 286.98c-26.514-3.685-43.956-11.64-59-26.912-8.883-9.017-13.551-15.907-17.648-26.048-10.146-25.12-10.432-60.972-.693-86.846 14.37-38.176 49.365-62.214 90.498-62.162 35.29.045 65.376 18.627 79.075 48.838 6.755 14.897 10.46 40.458 8.332 57.486l-.708 5.663H616.728l.637 4.644c2.57 18.752 13.453 34.867 28.285 41.884 25.722 12.168 60.633 3.436 95.1-23.786.993-.784 1.25 4.232 1.25 24.406v25.393l-10.75 4.264c-13.835 5.487-25.221 8.7-39.94 11.272-13.313 2.326-36.433 3.277-46.31 1.904zm44.77-125.942c-.944-13.207-10.053-25.364-22.523-30.063-8.285-3.122-21.504-2.496-29.031 1.375-10.451 5.374-17.232 14.85-19.169 26.787-.567 3.5-1.035 6.924-1.04 7.612-.005.977 7.883 1.25 36.127 1.25h36.135zM774 187V96h56v10c0 6.573.375 10 1.094 10 .602 0 4.497-2.485 8.656-5.523 8.85-6.462 19.504-11.933 27.25-13.992 7.422-1.972 20.95-1.883 28.329.187l5.96 1.673-.645 11.984c-.354 6.592-.65 15.177-.66 19.078-.007 3.901-.345 7.596-.75 8.211-.536.817-2.895.73-8.734-.321-15.657-2.819-48.175 1.815-58.25 8.3l-2.25 1.45V278h-56zm-560-1V95h56v8c0 4.4.38 8 .845 8 .465 0 1.63-.867 2.588-1.926 2.315-2.558 13.814-10.196 20.067-13.328 12.871-6.449 31.75-10.442 43.993-9.306 25.19 2.337 40.991 15.474 48.186 40.06 1.588 5.427 1.786 12.899 2.081 78.25l.326 72.25H333v-59.874c0-64.94.037-64.455-5.55-71.78-10.193-13.365-33.913-16.316-49.701-6.185-9.497 6.094-8.749-.167-8.749 73.243V277h-55z" fill="#0098d0"/></svg>