<svg width="300" height="126" version="1.0" viewBox="0 0 785 328" xmlns="http://www.w3.org/2000/svg"><path d="M775.33 0h4.47c2.32 1.99 4.19 4.47 5.2 7.38v16.17c-1.79 4.37-2.4 9.1-3.96 13.55-2.1 6.57-5.25 12.91-10.01 17.95-5.57 5.89-12.28 10.55-19.02 14.99-16.59 10.67-33.79 20.34-51.09 29.81-34.95 18.81-70.5 36.57-107.07 52.03-2.98.78-5.93 1.61-8.93 2.28.28-3.51 3.99-4.95 6.49-6.73 60.52-36.13 114.73-81.85 164.87-131.15C762.38 10.59 768 4.15 775.33 0z" fill="#548f46"/><path d="M756.48 74.53c2.2-1.05 5.31-.01 5.81 2.55.79 3.81-.75 7.6-2.17 11.06-5.67 12.39-14.58 23.57-26.3 30.69-6.25 3.6-13.14 5.88-19.89 8.33-33.07 11.26-67.08 19.48-101.13 27.17.34.22 1.04.66 1.39.89-.59.14-1.75.42-2.34.56-.47-1.9-4.81-1.18-2.67.61-3.92.64-8.14.79-11.5 3.15-.53-.71-1.04-1.42-1.54-2.14-3.87.19-7.71.57-11.56.91.09-1.39.2-2.77.34-4.15 3-.67 5.95-1.5 8.93-2.28 2.44-.45 4.87-1.05 7.22-1.89 12.54-4.39 24.76-9.64 36.88-15.1 34.29-15.64 67.95-32.69 100.87-51.06 5.86-3.14 11.44-6.9 17.66-9.3z" fill="#f1d212"/><path d="M728.02 127.11c2.72-.48 6.28-2.09 8.52.34 2.69 3.54-.11 7.91-1.91 11.16-6.48 9.69-14.9 18.68-25.9 23.14-5.22 2.53-11.11 2.17-16.72 2.77-29.29 1.7-58.6-.39-87.77-3-2.24-.4-4.83-.27-6.56-1.98 3.36-2.36 7.58-2.51 11.5-3.15.67-.15 2-.46 2.67-.61.59-.14 1.75-.42 2.34-.56 20.24-3.38 40.32-7.71 60.2-12.83 18.05-4.45 35.69-10.4 53.63-15.28zm-598.31 18.02c6.61-3.21 13.85-5.53 21.17-6.28 1.77 13.34.36 26.87 1.4 40.26 4.85-2.15 8.68-5.98 13.42-8.35 4.99-2.73 10.68-3.98 16.35-3.96 6.5-.19 14.18.04 18.68 5.5 3.73 3.98 3.22 9.72 3.35 14.75.87 13.88.5 27.8.98 41.69 2.54 1.78 4.98 3.74 6.91 6.19-7.12 1.59-14.52.84-21.75.88-.09-15.6-.03-31.21-.03-46.81-.06-2.59.23-5.23-.3-7.78-1.69-2.01-3.51-4.27-5.99-5.27-6.32-.58-13 .08-18.51 3.46-4.51 2.78-8.89 5.79-13.12 8.98-.69 1.77-.33 3.74-.43 5.6.16 11.29-.19 22.59.16 33.87 1.63 2.73 5.16 4.14 6.99 6.94-3.59.86-7.3 1.11-10.99 1.07-6-.07-12.11.38-18-1.08 1.92-2.41 4.41-4.22 6.77-6.15.65-1.45.33-3.09.44-4.62-.17-23.92.19-47.85-.19-71.77-2.64-2.14-5.74-3.98-7.31-7.12zm-127.4-3.54c14.86-.94 29.8-.35 44.69-.53 8.31.24 16.74-.64 24.94 1.07 1.34 4.64 1.05 9.54-.16 14.17-4.65-1.29-7.89-5.05-11.94-7.39-12.3-.51-24.65-.16-36.96-.15.02 10.69.07 21.37.18 32.06 8.24.14 16.53.55 24.75.04 4.06-1.84 7.35-5.08 11.55-6.7.61 7.21.87 14.53-.33 21.69-3.92-1.99-7.25-4.94-11.16-6.9-8.27-.37-16.57.15-24.85.07-.03 13.04-.13 26.07-.14 39.1 11.05.16 22.1-.02 33.15.1 2.05-.14 4.41.33 6.14-1.05 3.83-2.81 7.41-6.02 11.69-8.16 1.37 5.5 1.04 11.21.95 16.83-24.94.12-49.88-.07-74.81.08v-.66c2.95-3.52 8.81-5.85 8.2-11.21-.05-24.04-.01-48.09-.02-72.13.4-4.27-4.33-6.04-6.47-9.06.15-.31.45-.95.6-1.27zm223.5 9.23c4.42-3.55 11.59-1.77 14.16 3.22-1.7 4.14-6.19 7.79-10.84 5.93-4.03-.69-6.37-6.12-3.32-9.15zm206.51-1.5c4.32-1.45 10.92 1.26 10.44 6.47-2.32 6.57-13.32 5.47-15.41-.82.17-2.72 2.56-4.75 4.97-5.65zM94.17 161.13c3.15-1.96 6.06-4.52 9.76-5.38 1.09 3.66.95 7.49 1 11.27 6 .45 12.25-.81 18.07.99 2.1.59 1.73 3.01 1.83 4.69-6.09 1.85-12.57.76-18.83 1.3-.56 1.59-1.11 3.21-1.04 4.93-.15 14.7-.12 29.41-.02 44.11-.04 2.65.64 5.22 1.31 7.76 2.12.31 4.35.6 6.42-.16 3.54-1.03 6.38-4.12 10.29-3.75 1.3 1.96.48 4.44-1.36 5.74-3.93 2.93-8.72 4.63-13.57 5.2-6.71.7-13.86-2.93-16.62-9.2-1.43-5.41-1.13-11.08-1.24-16.63-.02-10.34-.01-20.69-.08-31.03.08-2.35-.49-4.64-1.26-6.84-3.29-.35-6.63-.38-9.85-1.25 4.2-4.9 10.01-8.01 15.19-11.75zm279.79 5.85c10.75-2.36 22.92.32 30.84 8.22 3.88 3.66 6.77 8.28 8.71 13.23 2.38 5.56 1.22 11.72 1.51 17.58.56 9.95-6.04 18.6-13.18 24.81-7.54 6.53-18.22 7.11-27.66 5.79-6.06-.92-11.33-4.2-17.11-5.98-.24 8.07-.35 16.17-.09 24.25 1.58 2.65 4.29 4.49 6.01 7.08-4.23 1.14-8.65.88-12.98.96-5.02-.05-10.12.3-15.02-1.02 1.88-2.49 4.48-4.24 6.83-6.23.53-1.49.31-3.11.39-4.66-.06-20.67-.03-41.34-.02-62.01-.07-2.55.26-5.16-.35-7.66-2.34-1.81-5.05-3.16-7.06-5.38.1-.38.3-1.15.41-1.54 6.63-2.65 13.53-5.29 20.72-5.7.5 1.47.97 2.95 1.44 4.43 5.41-2.35 10.66-5.36 16.61-6.17m1.34 7.23c-7.23.68-15.09 4.04-18.32 10.86-.3 8.63-.02 17.28-.11 25.92.14 3.72-.54 7.98 2.13 11.02 3.5 4.1 8.87 6.01 14.03 6.91 5.89.6 12.62.66 17.28-3.6 6.94-6.3 9.03-16.37 8.69-25.39-.69-6.36-1.93-12.96-5.5-18.39-3.82-5.93-11.54-7.96-18.2-7.33zm-94.91-6.71c12.31-2.65 25.82-.4 36.16 6.95 5.96 4.44 10.92 10.55 13.14 17.71.62 4.59.2 9.24.32 13.86.39 6.66-3.23 12.7-7.39 17.59-8.2 9.12-20.58 13.51-32.61 14.01-10.59-.52-21.49-3.89-29.29-11.34-5.14-4.9-9.44-11.16-10.58-18.29-.6-6.57-.61-13.51 2.33-19.58 5.19-11 16.17-18.49 27.92-20.91m4.9 5.73c-8.59 2.01-15.29 9.4-17.27 17.88-1.94 8.11-1.48 16.81 1.18 24.7 2.22 6.8 7.93 12.37 14.86 14.23 6.56 2.21 14.01.66 19.56-3.32 6.15-4.84 9.66-12.57 9.92-20.32.5-9.07-.16-19.3-6.67-26.3-5.23-6.1-13.82-8.52-21.58-6.87zm189.12-4.73c11.19-2.37 23.03-3.2 34.15-.03 5.31 1.52 10.65 5.04 12.12 10.66 1.78 16.53.95 33.19 1.24 49.78 2.5 1.8 5.09 3.57 7.11 5.94-7.13 1.66-14.53.93-21.78.97-.23-3.01.46-6.3-1.25-8.98-8.61 2.33-16.62 6.35-25.09 9.1-6.06 1.86-13.42 2.04-18.5-2.3-3.84-3.38-6.6-8.42-6.46-13.62-.47-8.62 5.9-15.93 12.85-20.17 7.2-4.53 15.91-4.68 24.1-5.55 4.67-.35 9.36-.21 14.04-.36.08-5.24 1-11.04-2.16-15.64-3.63-5.22-10.79-6.21-16.62-5.11-5.46 1.59-9.88 5.35-14.56 8.41-2.46 1.55-4.79 3.7-7.82 3.91-.78-4.39-.46-8.9.52-13.22 1.89-2.5 5.28-2.96 8.11-3.79m8.26 34.28c-6.15 2.36-11.47 8.3-10.84 15.24-.66 4.36 2.56 8.21 6.33 9.9 3.34.57 6.52-1.04 9.59-2.12 6.49-2.71 13.16-5.16 19.12-8.95.18-4.52.61-9.09-.07-13.59-.77-1.37-2.08-2.59-3.77-2.33-6.8-.06-13.85-.51-20.36 1.85zm92.49-34.65c5.46-1.58 11.23-1.25 16.86-1.19 5.07-.15 9.88 2.18 13.81 5.22 2.69 2.12 3.34 5.67 3.87 8.86 1.08 15.93 1.06 31.92 1.26 47.88 2.49 1.8 5.07 3.56 7.07 5.95-7.14 1.66-14.56.94-21.81.96-.07-15.61-.04-31.22-.18-46.83-.11-3.15-.07-6.54-1.6-9.37-3.48-4.2-9.5-3.9-14.43-3.82-9.46-.07-17.54 5.86-23.9 12.3-1.83 1.39-1.08 3.93-1.27 5.9.26 11.23-.39 22.52.31 33.71 2.52 2.84 5.57 5.17 8.01 8.1-10.04-.17-20.23.84-30.16-.91 1.94-2.42 4.49-4.21 6.81-6.23.55-1.48.31-3.11.4-4.65-.1-14.01.04-28.01-.07-42.02-2.12-1.99-4.75-3.61-6.24-6.15-.96-1.6 1.4-2.08 2.4-2.57 5.77-2.04 11.59-4.07 17.61-5.28 1.09 3.38 1 6.95 1.17 10.46 2.94-.29 5.15-2.34 7.47-3.95 3.81-2.79 8-5.17 12.61-6.37zm-150.86 5.14c5.71-2.05 11.48-3.98 17.42-5.29 1.69 12.26.9 24.68 1.15 37.02.2 7.56-.41 15.17.28 22.7 2.52 2.84 5.57 5.17 8.01 8.1-10.05-.17-20.27.87-30.2-1.03 2.1-2.28 4.62-4.08 7.12-5.86.1-15.65.06-31.29.02-46.94-2.1-1.99-4.7-3.61-6.21-6.12-.88-1.63 1.38-2.1 2.41-2.58zm-207.12 1.68c6.61-3.58 14.2-5.53 21.66-6.21 1.52 15.7.84 31.5 1.03 47.26.18 4.2-.45 8.5.35 12.65 2.37 1.91 4.86 3.73 6.78 6.15-3.61.86-7.31 1.11-11 1.07-6.01-.06-12.11.38-18-1.07 1.92-2.42 4.41-4.24 6.78-6.16.63-1.45.32-3.1.43-4.62-.04-11.68-.07-23.35-.09-35.02 0-2.79-.02-5.91-2.02-8.1-1.97-1.99-4.5-3.45-5.92-5.95zm68.48 100.73c8.01-3.53 17.28-4.12 25.73-1.94 4.44 1.11 9.26 3.66 10.42 8.48 1.56 5.34 1.39 12.55-3.77 15.89-6.46 3.88-14.28 2.39-21.4 3.2 2.27 5.45 8.63 7.71 10.95 13.08 1.1 4.56 1.46 9.33 3.56 13.61H296c3.26-3.04 4.74-8.86 1.28-12.27-5.92-5.77-13.29-10.09-18.3-16.75-2.58-5.07-2.19-11.22-.43-16.5 1.1-3.28 4.11-5.37 7.11-6.8m8.62 1.58c-4.02 1.9-8.01 5.88-7.45 10.7.14 2.73-.7 6.52 2.38 7.94 6.13.78 12.39.37 18.52-.14 4.68-.46 5.32-6.06 5.4-9.79.53-4.03-3.06-7.24-6.43-8.66-4.09-.62-8.33-.58-12.42-.05zm38.58-.37c3.25-1.92 6.89-3.46 10.73-3.44 2.64.58 2.14 4.13 2.97 6.15 3.56.51 7.13 1.02 10.68 1.66-.2 5.84-5.45 9.55-7.62 14.64 4.66.61 9.4.61 14.03 1.47 3.04.67 6.65 2.16 7.33 5.59 1.4 5.63.68 11.5 1.09 17.24 2.86-1.05 5.59-2.57 8.63-3.06 1.55.66 1.69 2.48 2.21 3.87.59 2.58 2.11 4.77 3.48 6.99h-12.5c-.01-1.87-2.7-1.85-2.72 0h-6.83c-1.64-6.21-1.01-12.65-1.32-18.99-.11-2.77-1.13-6.29-4.29-6.85-4.71-.89-10.58-2.71-14.54.99-4.58 3.88-2.94 10.62-3.32 15.91-.49 3.49 1.64 6.32 3.62 8.94h-15.77c1.3-2.21 3.15-4.34 3.28-7.01.59-6.44-.93-13.52 2.64-19.34 3.54-5.68 8.05-10.69 11.57-16.4-2.62-.37-5.53-.14-7.77-1.77-2.4-1.68-3.93-4.24-5.58-6.59zm116.85 1.83c4.94-5.12 12.5-6.11 19.28-6.06 5.69.28 11.9.23 16.82 3.55 3.87 2.77 4.67 7.76 6.25 11.93 3.17.19 6.36.28 9.55.3-.39 4.56 1.66 8.45 4.17 12.07-3.85.56-7.75.38-11.62.18-.54-2.64-1.04-5.29-1.63-7.91-3.47 2.07-5.72 5.98-9.84 6.95-5.95 2.09-12.39.32-18.36 2.15 3.18 4.41 8.45 6.86 11.27 11.54 1.67 4.8.94 10.24 4.06 14.58h-15c1.55-3.05 4.92-6.73 2.5-10.19-5.46-7.53-15.03-11.03-19.97-19.02-2.95-6.37-2.49-14.85 2.52-20.07m13.65-1.24c-6.76.73-9.16 8.64-8.32 14.43.44 1.65.77 4.24 3 4.21 5.29.53 10.65.33 15.96.09 4.16.17 7.53-4.17 7.15-8.17.08-3.23.08-7.27-2.94-9.27-4.5-2.47-9.96-2.09-14.85-1.29zm112.94 3.78c3.02-5.63 9.76-7.58 15.68-8.23 7.14-.56 14.9-.99 21.39 2.57 7.63 4.01 8.49 15.67 2.8 21.62-6.46 5.4-15.38 2.57-22.87 4.65 3.78 5.23 9.76 8.33 13.56 13.51 1.4 1.38.47 3.81-1.49 3.88-8.34 1.81-17.12 1.01-25.3 3.69 1.14 1.69 2.28 3.38 3.45 5.05h-15.69c1.12-1.98 2.32-3.93 3.11-6.08.55-1.01.64-2.73 2.04-2.97 6.71-1.66 13.78-1.21 20.48-3.03-4.97-6.16-12.47-9.79-17-16.35-3.21-5.51-2.95-12.69-.16-18.31m14.98-4c-4.02 1.9-8.02 5.88-7.45 10.7.14 2.73-.71 6.52 2.38 7.94 6.12.78 12.39.36 18.53-.14 4.67-.46 5.31-6.05 5.39-9.78.53-4.03-3.06-7.25-6.43-8.67-4.09-.62-8.33-.58-12.42-.05zm-196.16-.91c3.98-1.47 8.15-2.6 12.44-2.21.7 1.73 1.38 3.48 2.06 5.22 1.91.8 3.82 1.6 5.72 2.44 1.44 4.93 1.68 10.08 1.73 15.18 6.97.11 13.89.85 20.85 1.2.52 4.01 1.76 7.86 3.78 11.37-3.08.33-6.29.88-9.34.05-3.15-1.07-3.08-4.94-3.77-7.61-3.84-.48-7.71-.48-11.56-.31-.01 6.46-.23 12.92-.05 19.37-.01 2.49 1.24 4.71 2.18 6.95H404c1.38-1.74 3.09-3.56 3-5.94.18-6.86.07-13.73-.14-20.59-3.91-.35-7.82-.59-11.74-.34-.88 2.58-1.52 5.23-2.21 7.87-3.55 1.01-7.36 1.39-10.9.12 2.35-3.48 3.44-7.51 3.49-11.69 7.07-.15 14.19.27 21.22-.71.52-3.76.51-7.55.26-11.32-5.64-.05-9.14-4.74-11.86-9.05zm130.59-.69c3.46-1.31 7.11-2.11 10.83-1.85.29 1.92.59 3.86.95 5.78 5.18 1.3 10.64 2.5 14.75 6.16 3.23 3.37 8.21 2.14 12.22 3.68 1.58 3.63 2.03 7.7 4.22 11.1-3.83.51-7.71.37-11.55.15-.52-2.65-.98-5.32-1.5-7.97-2.46 4.37-5.64 8.21-9.84 11.01 2.3 1.8 5.2 3.2 6.52 5.95 1.99 4.44 1.14 9.43 1.94 14.1.8 1.55 1.95 2.87 3.04 4.23h-15.55c2.71-4.23 4.64-9.45 2.62-14.39-1.42-4.88-7.4-6.52-11.83-5.14-4.92 1.41-10.06 2.81-14.23 5.88-3.34 4.19-.47 9.79 2.05 13.65h-15.62c1.06-1.36 2.22-2.68 3.01-4.23.89-4.95-.2-10.69 3.2-14.88 2.3-2.18 5.29-3.41 7.91-5.15-3.94-2.95-8.9-6.9-7.65-12.5 1.23-6.34 7.56-9.24 13.08-10.99.48-1.53.94-3.07 1.43-4.59m.66 9.76c-4.71 1.05-7.16 6.73-4.6 10.83 2.58 3.99 8.04 3.43 12.09 2.7 3.77-1.06 7.99-2.4 10.35-5.75 1.85-2.44-.5-5.46-2.49-6.96-4.6-2.7-10.39-2.1-15.35-.82z" fill="#c12237"/><path d="M609.18 156.39c-2.14-1.79 2.2-2.51 2.67-.61-.67.15-2 .46-2.67.61zM371.17 328c.02-1.85 2.71-1.87 2.72 0h-2.72z" opacity=".29" fill="#854728"/></svg>