<svg viewBox="36.4 2.7 179.1 70" xmlns="http://www.w3.org/2000/svg"><path fill="#013A81" d="M36.4 46.8V18.5h14.8V22H42v8.5h8.2V34H42v9.3h9.2v3.5zM67 34.7c-5.1.6-8.2 1.6-8.2 5.6 0 2.9 1.9 4.1 5 4.1 1.2 0 2.4-.2 3.2-.6v-9.1zm-3.6 12.5c-6.5 0-9.7-2.5-9.7-6.8 0-5.8 6-7.5 13.3-8.2V31c0-2.9-1.9-3.7-4.7-3.7-2.3 0-4.5.7-6 1.4l-1.2-2.9c1.6-.7 4.4-1.7 8.2-1.7 4.9 0 8.8 1.9 8.8 7.7v13.8c-2 1-5 1.6-8.7 1.6m18.3 0c-2.8 0-5.2-.7-6.6-1.6l1.4-3.2c.9.7 2.5 1.3 4.5 1.3 2.2 0 3.7-1.3 3.7-3.1 0-1.9-1.1-2.8-3.5-3.7-4.5-1.6-5.4-3.9-5.4-6.2 0-3.5 3-6.4 7.5-6.4 2.6 0 4.6.6 6.2 1.6l-1.3 2.9c-.7-.5-2.1-1.2-3.8-1.2-2.2 0-3.4 1.4-3.4 2.9 0 1.8 1.5 2.7 3.5 3.5 4.6 1.7 5.7 4 5.7 6.5 0 3.6-3.3 6.7-8.5 6.7m19.9-.1c-4.7 0-6.5-2.9-6.5-6V27.8h-2.6v-3.2H95v-4.9l5.4-1.4v6.3h3.9v3.2h-3.9v13c0 1.7.7 2.9 2.6 2.9.5 0 .8-.1 1.3-.2v3.1c-.5.2-1.4.5-2.7.5m15.1-19.8c-3.1 0-5.3 2.4-5.2 7.7l9.8-1.4c.1-4.5-1.6-6.3-4.6-6.3m-4.8 10.2c.4 4.1 2.5 6.2 6.5 6.2 2.7 0 4.7-.6 6-1.2l1.3 3.2c-1.7.9-4.2 1.6-7.8 1.6-6.7 0-11-4.1-11-11.6 0-7.2 3.9-11.4 10.1-11.4 6.3 0 9.7 3.9 9.5 11.4l-14.6 1.8m28.6-9.6c-1.8-.6-3.8-.5-5 .2v18.7h-5.4v-21c2.5-1.1 5.5-1.7 11.5-1.6l-1.1 3.7m16.8 18.9V31.1c0-1.8-.9-3.7-4.3-3.7-1.8 0-2.7.2-3.7.6v18.8h-5.4v-21c2.2-1 5.3-1.6 9.3-1.6 7.1 0 9.4 3.2 9.4 6.8v15.8h-5.3"/><path d="M85.9 58.5c-.5.4-1.5.5-2.4.6-.9.2-1.7.5-1.7 1.6s.8 1.4 1.8 1.4c2.3 0 2.4-1.8 2.4-2.5v-1.1zm-6.7-2.2c.1-2.7 2.6-3.6 5-3.6 2.1 0 4.7.5 4.7 3v5.5c0 1 .1 1.9.4 2.4h-3c-.1-.3-.2-.7-.2-1-.9 1-2.3 1.3-3.6 1.3-2 0-3.6-1-3.6-3.2 0-2.4 1.8-3 3.6-3.2 1.8-.3 3.5-.2 3.5-1.4 0-1.3-.8-1.4-1.9-1.4s-1.8.5-1.9 1.6h-3m12-3.3h2.9v10.7h-2.9zm5.3 0h2.8v2h.1c.5-1.3 2-2.3 3.4-2.3.2 0 .5 0 .6.1v2.7c-.3-.1-.7-.1-1.1-.1-2.2 0-2.9 1.6-2.9 3.4v4.8h-2.9V53m21 10.7h-3l-1.9-7.2h-.1l-1.8 7.2h-3L104.3 53h3.1l2 7.3 1.8-7.3h2.8l1.8 7.3h.1l1.9-7.3h3zm11.2-5.2c-.5.4-1.5.5-2.4.6-.9.2-1.7.5-1.7 1.6s.9 1.4 1.8 1.4c2.3 0 2.4-1.8 2.4-2.5v-1.1zm-6.7-2.2c.2-2.7 2.6-3.6 5-3.6 2.1 0 4.7.5 4.7 3v5.5c0 1 .1 1.9.4 2.4h-3c-.1-.3-.2-.7-.2-1-.9 1-2.3 1.3-3.6 1.3-2 0-3.6-1-3.6-3.2 0-2.4 1.8-3 3.6-3.2 1.8-.3 3.5-.2 3.5-1.4 0-1.3-.9-1.4-1.9-1.4-1.1 0-1.8.5-1.9 1.6h-3m17.2 8.7c-.6 1.7-1.6 2.4-3.6 2.4-.6 0-1.2 0-1.8-.1v-2.4c.6 0 1.1.1 1.7.1 1-.1 1.3-1.2 1-2l-3.8-10h3.1l2.4 7.3 2.3-7.3h3l-4.3 12m7.7-4.8c0 1.3 1.1 1.8 2.2 1.8.9 0 1.9-.3 1.9-1.4 0-.9-1.2-1.2-3.3-1.6-1.7-.4-3.4-1-3.4-2.8 0-2.7 2.4-3.4 4.6-3.4 2.3 0 4.5.8 4.7 3.4h-2.8c-.1-1.1-1-1.4-2-1.4-.7 0-1.6.1-1.6 1 0 1.1 1.6 1.2 3.3 1.6s3.4 1 3.4 3c0 2.8-2.4 3.7-4.9 3.7s-4.9-.9-5-3.8l2.9-.1" fill="#EE3124"/><linearGradient id="a" x1="160.09" x2="213.88" y1="36.91" y2="36.91" gradientUnits="userSpaceOnUse"><stop stop-color="#ED1C2E" offset="0"/><stop stop-color="#EF3D3D" offset=".169"/><stop stop-color="#F15B4A" offset=".343"/><stop stop-color="#F04641" offset=".407"/><stop stop-color="#ED1C2E" offset=".511"/><stop stop-color="#ED2232" offset=".519"/><stop stop-color="#EF3F41" offset=".559"/><stop stop-color="#F1554D" offset=".602"/><stop stop-color="#F26555" offset=".648"/><stop stop-color="#F36E5A" offset=".701"/><stop stop-color="#F3715C" offset=".775"/><stop stop-color="#F04D49" offset=".809"/><stop stop-color="#EF323A" offset=".842"/><stop stop-color="#ED2231" offset=".871"/><stop stop-color="#ED1C2E" offset=".893"/><stop stop-color="#ED1C2E" offset="1"/></linearGradient><path d="M188.5 33.9c-14.4 5.9-22.5 12.4-28.5 27 2.6-4.9 4.6-10.5 29.3-19.8 15.1-6.1 22.3-20.5 24.5-28.2-4 8-10.5 15.5-25.3 21" fill="url(#a)"/><linearGradient id="b" x1="156.42" x2="210.35" y1="48.684" y2="48.684" gradientUnits="userSpaceOnUse"><stop stop-color="#003473" offset="0"/><stop stop-color="#38568E" offset=".194"/><stop stop-color="#5B6C9F" offset=".309"/><stop stop-color="#003473" offset=".573"/><stop stop-color="#1A427E" offset=".62"/><stop stop-color="#2B4B85" offset=".664"/><stop stop-color="#314E87" offset=".697"/><stop stop-color="#003473" offset=".893"/><stop stop-color="#003473" offset="1"/></linearGradient><path d="M185 45.7c-14.4 5.9-22.5 12.5-28.5 27 2.6-4.9 4.6-10.5 29.4-19.8 15.2-6.1 22.4-20.5 24.5-28.3-4.2 8.1-10.6 15.6-25.4 21.1" fill="url(#b)"/><linearGradient id="c" x1="164.83" x2="215.5" y1="25.332" y2="25.332" gradientUnits="userSpaceOnUse"><stop stop-color="#003473" offset="0"/><stop stop-color="#475C92" offset=".213"/><stop stop-color="#003473" offset=".455"/><stop stop-color="#0E3B79" offset=".474"/><stop stop-color="#214681" offset=".51"/><stop stop-color="#2D4C85" offset=".547"/><stop stop-color="#314E87" offset=".584"/><stop stop-color="#314E87" offset=".663"/><stop stop-color="#2A4A84" offset=".683"/><stop stop-color="#133E7B" offset=".759"/><stop stop-color="#053775" offset=".831"/><stop stop-color="#003473" offset=".893"/><stop stop-color="#003473" offset="1"/></linearGradient><path d="M191.6 22.5c-13.5 5.5-21.1 11.7-26.8 25.4 2.4-4.6 4.3-9.8 27.6-18.6 14.3-5.7 21-19.3 23-26.6-3.8 7.6-9.8 14.6-23.8 19.8" fill="url(#c)"/></svg>