<svg width="74.536" height="33.925" viewBox="-0.81 -0.354 74.536 33.925" xmlns="http://www.w3.org/2000/svg"><path fill="#ff5900" d="M59.14 7.418l2.978 3.282 2.867-3.282h6.122l-5.983 6.728 6.065 6.783H64.82l-2.95-3.308-2.923 3.308h-6.15l6.012-6.755-6.012-6.756z"/><path fill="#ff5900" d="M52.797 7.418v4.565h-6.809v4.189h6.809v4.757H40.984V-.354h11.813V4.39h-6.809v3.028z"/><path d="M36.001-.354v8.71h-.055c-1.104-1.268-2.482-1.709-4.081-1.709-3.276 0-5.744 2.228-6.61 5.172-.989-3.244-3.537-5.233-7.315-5.233-3.068 0-5.491 1.377-6.755 3.621V7.418H4.843V4.39h6.921V-.354H-.81v21.283h5.653v-8.946h5.635a8.48 8.48 0 00-.258 2.104c0 4.439 3.392 7.555 7.72 7.555 3.64 0 6.039-1.709 7.307-4.824h-4.845c-.655.937-1.152 1.214-2.462 1.214-1.519 0-2.829-1.325-2.829-2.896h9.865c.428 3.526 3.175 6.567 6.944 6.567 1.626 0 3.115-.8 4.025-2.15H36v1.378h4.983V-.354h-4.982zm-20.732 12.4c.314-1.352 1.363-2.235 2.672-2.235 1.441 0 2.436.856 2.698 2.235h-5.37zm17.707 5.643c-1.837 0-2.979-1.712-2.979-3.499 0-1.91.993-3.747 2.979-3.747 2.059 0 2.879 1.837 2.879 3.747 0 1.811-.869 3.499-2.879 3.499zm8.009 13.882v-7.627h4.214v.569H41.68v2.812h3.37v.569h-3.37V31h3.676v.57h-4.371zm4.874 0l2.055-2.739-1.949-2.591h.79l1.591 2.117 1.559-2.117h.79l-1.98 2.591 2.064 2.739h-.8l-1.707-2.266-1.622 2.266h-.791zm6.257 2h-.643v-5.739c0-.527 0-1.063-.032-1.591h.633l.021.801c.399-.633.926-.927 1.717-.927 1.643 0 2.348 1.358 2.348 2.79 0 1.434-.705 2.792-2.348 2.792-.738 0-1.317-.284-1.696-.896v2.77zm3.36-4.666c0-1.137-.475-2.254-1.738-2.254-1.19 0-1.622.98-1.622 2.254 0 1.275.432 2.254 1.622 2.254 1.264 0 1.738-1.116 1.738-2.254zm3.988-2.17c-1.064 0-1.434.896-1.434 1.822v3.014h-.643v-3.762c0-.516-.01-1.041-.031-1.568h.634l.041.769c.316-.61.844-.895 1.549-.895.095 0 .2.01.295.021v.643c-.148-.023-.264-.044-.411-.044zm1.198 2.286c0 1.2.568 2.19 1.737 2.19.905 0 1.327-.6 1.485-1.2h.611c-.285 1.116-.97 1.686-2.181 1.686-1.622 0-2.339-1.201-2.339-2.696 0-1.527.748-2.886 2.423-2.886 1.696 0 2.149 1.484 2.149 2.906h-3.885zm.02-.484h3.181c0-1.043-.494-1.938-1.506-1.938-.916-.001-1.549.694-1.675 1.938zm6.374 3.16c-1.095 0-1.916-.517-1.916-1.686h.643c0 .8.526 1.2 1.306 1.2.727 0 1.295-.348 1.295-1.062 0-.643-.663-.812-1.358-1.012-.842-.242-1.759-.506-1.759-1.538 0-1.147.958-1.484 1.854-1.484 1.031 0 1.801.399 1.832 1.505h-.643c-.031-.631-.484-.989-1.169-.989-.537 0-1.19.21-1.19.905 0 .633.653.812 1.348 1.001.844.231 1.77.484 1.77 1.517-.001 1.2-.927 1.643-2.013 1.643zm4.456 0c-1.096 0-1.917-.517-1.917-1.686h.643c0 .8.526 1.2 1.307 1.2.727 0 1.295-.348 1.295-1.062 0-.643-.664-.812-1.359-1.012-.842-.242-1.758-.506-1.758-1.538 0-1.147.958-1.484 1.854-1.484 1.031 0 1.801.399 1.832 1.505h-.643c-.031-.631-.484-.989-1.169-.989-.537 0-1.19.21-1.19.905 0 .633.653.812 1.349 1.001.843.231 1.77.484 1.77 1.517-.002 1.2-.929 1.643-2.014 1.643z" fill="#2a007c"/></svg>