<svg viewBox="0 0 200 21.884" xmlns="http://www.w3.org/2000/svg"><path d="M17.985.8a6.68 6.68 0 013.267-.78C26.324.018 31.396.037 36.468.014c-.662 1.469-1.365 3.403-3.246 3.572-4.713.13-9.438-.012-14.156.066-1.166-.02-2.328.594-2.822 1.678-1.016 1.99-1.928 4.035-2.926 6.038 4.043-.003 8.088.003 12.132-.006-.354.688-.619 1.452-1.175 2.01-.678.534-1.601.435-2.406.459-3.131-.041-6.266.034-9.396-.044-1.129 2.116-2.082 4.318-3.173 6.453a2.95 2.95 0 01-2.709 1.619c-2.196 0-4.397.08-6.591-.072v-.118l.156.04c1.9-4.104 3.881-8.165 5.844-12.24.965-2.041 2.615-3.727 4.603-4.797 2.446-1.318 4.921-2.58 7.382-3.871zm21.011 1C39.505.724 40.671.05 41.849.033c2.156-.034 4.312.013 6.469-.022-3.174 6.676-6.424 13.319-9.621 19.985-.447 1.09-1.543 1.875-2.734 1.858-2.215.03-4.431.007-6.645.01C32.54 15.176 35.769 8.49 38.996 1.8zM56.965.137c.706-.351 1.525.047 1.909.678 3.159 4.344 6.337 8.675 9.527 12.994.351.478.615 1.006.875 1.537 2.021-3.998 3.9-8.07 5.856-12.098.503-.997.872-2.197 1.929-2.756C78.522-.29 80.246.117 81.83.03c-3.524 7.279-7.041 14.56-10.561 21.842-1.785-.025-3.572.037-5.354-.027-1.109-.035-1.965-.856-2.594-1.688-2.465-3.281-4.934-6.56-7.4-9.834-.531-.673-1.047-1.356-1.413-2.134-2.006 3.994-3.853 8.067-5.834 12.074-.456.88-1.372 1.528-2.372 1.582-1.166.067-2.332.01-3.496.024 2.48-5.32 5.021-10.616 7.555-15.91.82-1.744 2.045-3.344 3.731-4.32.934-.543 1.882-1.068 2.873-1.502zm34.395 0c.692-.344 1.498.028 1.889.644 3.166 4.347 6.348 8.688 9.544 13.016.358.48.622 1.022.888 1.556 2.248-4.478 4.351-9.033 6.553-13.537.461-.983 1.47-1.633 2.537-1.746 1.145-.098 2.295-.022 3.441-.053-3.479 7.303-7.031 14.57-10.551 21.858-1.793-.03-3.59.037-5.385-.03-1.188-.062-2.057-.994-2.713-1.892-2.797-3.77-5.674-7.478-8.438-11.272-.09-.072-.271-.222-.361-.293-1.801 3.848-3.676 7.659-5.492 11.5-.412.943-1.236 1.78-2.293 1.922-1.246.13-2.502.024-3.75.07 2.021-4.478 4.19-8.898 6.297-13.342.9-1.771 1.588-3.697 2.923-5.207C87.758 1.833 89.604.986 91.36.137zm37.579.696a6.609 6.609 0 013.242-.811c2.398 0 4.799-.002 7.202 0 1.743-.006 3.459.639 4.8 1.75 1.534 1.182 3.112 2.307 4.631 3.507.683.469.734 1.384.345 2.069-2.304 4.847-4.679 9.662-6.981 14.512-1.99 0-3.984.027-5.975-.006-1.072.074-1.956-1.172-1.432-2.142.854-1.997 1.91-3.905 2.791-5.891-4.709-.011-9.416-.003-14.125-.003-1.031 2.087-2.017 4.199-3.047 6.287-.464.972-1.438 1.722-2.537 1.74-2.264.06-4.528-.014-6.791.034 1.965-4.135 3.955-8.257 5.939-12.382a10.693 10.693 0 014.562-4.797c2.453-1.301 4.916-2.582 7.376-3.867m-1.389 4.503c-1.013 1.988-1.925 4.028-2.928 6.025 4.716.013 9.428.003 14.144.003a580.705 580.705 0 012.879-5.947c.152-.42.519-.872.293-1.328-.369-.537-1.062-.435-1.619-.46-3.334.026-6.668-.02-10 .023-1.167-.031-2.278.622-2.769 1.684zm29.619-2.826c.44-1.222 1.423-2.306 2.778-2.44 2.281-.124 4.572.004 6.855-.061-3.078 6.647-6.354 13.207-9.502 19.822-.43 1.064-1.406 1.953-2.589 2.014-2.291.062-4.584.01-6.878.024 3.114-6.455 6.233-12.902 9.336-19.36zm19.84-.186c1.875-.872 3.638-2.27 5.794-2.291 2.51-.017 5.022-.028 7.531.006 2.278.078 4.222 1.388 5.916 2.794 1.234 1.059 2.766 1.807 3.753 3.125v.809a41.105 41.105 0 01-2 4.363c-.841 1.506-2.675 1.984-4.269 2.145-2.636.209-5.281-.055-7.916.148.074.102.226.305.3.403 1.513.56 3.71.028 4.625 1.68a844.245 844.245 0 003.862 6.378c-2.574-.05-5.152.019-7.729-.031-.984.039-1.906-.498-2.4-1.336-1.184-1.85-2.242-3.774-3.394-5.641-.44-.725-1.122-1.372-2-1.462-1.481-.147-2.972-.022-4.456-.07-1.088 2.167-2.115 4.36-3.188 6.532-.455 1.062-1.446 1.956-2.649 1.967-2.267.074-4.531-.008-6.797.036 2.116-4.4 4.159-8.84 6.368-13.19 1.778-3.347 5.534-4.628 8.649-6.365m1.288 2.858c-.969 1.88-1.841 3.812-2.788 5.703 3.791-.006 7.582.012 11.372-.01 1.272.003 2.794-.26 3.469-1.48.69-1.298 1.257-2.661 1.926-3.97.162-.426.537-.897.284-1.363-.391-.49-1.054-.428-1.608-.435-3.332.025-6.663-.022-9.994.022-1.077.006-2.161.556-2.661 1.533z" fill="#0b1560"/></svg>