<svg viewBox="0 0 1130.2 647.8" xmlns="http://www.w3.org/2000/svg"><path d="M664 113.6c-14.1 0-28.1 1.3-41.9 3.9C727.3 137.2 807 221.5 807 332.4c0 79-64 151-143 151s-143-64-143.1-142.9c0-62.9 41-118.4 101.2-136.8-13.6-4.1-27.7-6.2-41.9-6.2-79 0-143 72-143 151 0 110.9 79.7 195.3 184.9 214.9 13.8 2.6 27.9 3.9 42 3.9 97.1 0 180-61 212.3-146.9V260.5C843.9 174.7 761.1 113.6 664 113.6z" opacity=".25" fill="#37322d"/><path d="M622.1 117.5c-13.8-2.6-27.8-3.9-41.9-3.9-108.8 0-199.7 76.6-221.7 178.8-.8 3.5-3.8 5.9-7.4 5.9H240.7c-4.2 0-7.6 3.4-7.6 7.5v68.6c0 4.2 3.4 7.6 7.6 7.6h96.9c4.2 0 7.6 3.4 7.6 7.6v34c0 3.6-1.3 7.1-3.7 9.9-51.5 59.8-141.7 66.6-201.6 15.1S73.3 306.9 124.8 247c42.2-49 111.9-63.6 170.2-35.6 3.5 1.8 7.8.5 9.9-2.9l35.2-59.2c2.1-3.6 1-8.2-2.6-10.4-.1-.1-.2-.1-.4-.2-32.1-16.6-67.8-25.3-104-25.2-125.2.1-226.7 101.7-226.7 226.9s101.5 226.8 226.8 226.8c64 .1 124.9-26.9 167.9-74.3 2.8-3.1 7.6-3.3 10.7-.5.2.2.4.3.5.5 53 58.3 132.4 84.9 209.8 70.5-105.2-19.6-184.9-104-184.9-214.9 0-79 64-151 143-151s143 64 143 143c0 62.9-41 118.3-101.1 136.8 13.6 4.2 27.7 6.3 41.9 6.2 79 0 143-72 143-151-.1-111-79.7-195.3-184.9-215zM1116.2 477H967.5c-4.2 0-7.6-3.4-7.6-7.6V127.7c0-4.2-3.4-7.6-7.5-7.6h-68.6c-4.2 0-7.6 3.4-7.6 7.6v417.9c0 8.4 6.8 15.1 15.1 15.1h224.9c4.2 0 7.6-3.4 7.6-7.6v-68.6c0-4.1-3.4-7.5-7.6-7.5z" fill="#ff7020"/></svg>