<svg viewBox="0 0 136.9 118.67" xmlns="http://www.w3.org/2000/svg"><defs><clipPath id="c"><path d="M180.01 76.442h101.18v87.501H180.01z"/></clipPath><clipPath id="a"><path d="M180.01 76.442h101.18v87.501H180.01z"/></clipPath><linearGradient id="b" x2="1" gradientTransform="rotate(-92.3 188.425 -28.698) scale(31.9507)" gradientUnits="userSpaceOnUse"><stop stop-color="#d2068a" offset="0"/><stop stop-color="#413691" offset=".737"/><stop stop-color="#413691" offset="1"/></linearGradient></defs><g clip-path="url(#a)" transform="matrix(1.3333 0 0 -1.3333 -239 219.595)"><path d="M258.4 77.59c0 .084-.049.128-.155.128h-.199c-.012 0-.017-.005-.017-.018v-.225c0-.009.005-.018.017-.018h.199c.106 0 .155.049.155.133m-.508-.658c-.018 0-.031.008-.031.03v.875c0 .022.013.031.031.031h.353c.204 0 .323-.102.323-.278a.264.264 0 00-.185-.261l.19-.367c.008-.017 0-.03-.018-.03h-.124c-.018 0-.031.008-.04.03l-.177.345h-.168c-.012 0-.017-.004-.017-.018v-.327c0-.022-.013-.03-.031-.03zm.99.463c0 .403-.296.699-.694.699s-.694-.296-.694-.699c0-.402.296-.702.694-.702s.694.3.694.702m-1.538 0a.83.83 0 00.844.844.827.827 0 00.844-.844.828.828 0 00-.844-.848.83.83 0 00-.844.848M192.22 102.67V89.751c0-.572 0-1.39-.777-1.39h-2.166v5.846h-6.317v-4.456c0-.572.041-1.39-.736-1.39h-2.207v12.919c0 .572 0 1.39.777 1.39h2.166v-6.153h6.317v4.763c0 .552-.042 1.39.735 1.39zm10.62-8.075l-2.024 6.01-2.862-7.952.123-.02c.388.715 1.329 1.962 2.984 1.962zm4.681-6.235h-2.576l-1.349 3.987h-5.621l-.982-2.944c-.162-.47-.388-1.043-1.123-1.043h-2.147l4.599 13.124c.164.449.389 1.185 1.165 1.185h3.496l4.865-13.838c.102-.287-.041-.471-.327-.471m20.179 14.31l-4.701-13.266c-.102-.307-.287-1.043-1.023-1.043h-1.798l-2.678 7.625-2.392-6.582c-.102-.307-.286-1.043-1.022-1.043h-1.962l-4.865 13.839c-.102.286.041.47.327.47h2.596L213.698 92l2.534 7.583-.919 2.617c-.103.286.041.47.327.47h2.616l3.25-10.384 2.841 9.342c.144.47.389 1.042 1.105 1.042zm8.2-8.075l-2.023 6.01-2.862-7.952.122-.02c.389.715 1.329 1.962 2.985 1.962zm4.681-6.235h-2.576l-1.349 3.987h-5.621l-.981-2.944c-.163-.47-.388-1.043-1.124-1.043h-2.147l4.6 13.124c.163.449.388 1.185 1.165 1.185h3.495l4.865-13.838c.102-.287-.041-.471-.327-.471m1.999 12.92c0 .572 0 1.39.695 1.39h2.249V89.751c0-.572 0-1.39-.696-1.39h-2.248zm5.97 0c0 .572 0 1.39.695 1.39h2.248V89.751c0-.572 0-1.39-.695-1.39h-2.248zm13.57-6.685l-2.023 6.01-2.862-7.952.122-.02c.389.715 1.329 1.962 2.984 1.962zm4.681-6.235h-2.576l-1.349 3.987h-5.621l-.981-2.944c-.164-.47-.389-1.043-1.124-1.043h-2.147l4.599 13.124c.164.449.389 1.185 1.166 1.185h3.495l4.865-13.838c.103-.287-.041-.471-.327-.471m14.389 14.31V89.751c0-.572 0-1.39-.695-1.39h-1.839l-6.992 9.464v-8.074c0-.572 0-1.39-.756-1.39h-2.105v12.919c0 .572 0 1.39.695 1.39h1.921l6.909-9.648v8.258c0 .572-.122 1.39.675 1.39zm-72.11-23.587l-1.126 3.251h-.021l-1.136-3.251zm-1.599 4.524c.02.064.052.105.126.105h.684c.074 0 .115-.041.137-.105l2.452-6.944c.02-.063-.011-.105-.074-.105h-.737c-.074 0-.116.031-.137.105l-.547 1.557h-2.893l-.548-1.557c-.031-.074-.073-.105-.136-.105h-.737c-.063 0-.095.042-.074.105zm5.639 0c0 .063.042.105.105.105h.726c.063 0 .105-.042.105-.105v-6.944c0-.064-.042-.106-.105-.106h-.726c-.063 0-.105.042-.105.106zm8.18-1.957c0 .747-.494 1.189-1.326 1.189h-1.673c-.042 0-.063-.021-.063-.063v-2.252c0-.042.021-.063.063-.063h1.673c.832 0 1.326.442 1.326 1.189m.147-5.092c-.073 0-.105.031-.137.104l-1.431 2.925h-1.578c-.042 0-.063-.02-.063-.062v-2.863c0-.062-.042-.104-.105-.104h-.726c-.063 0-.105.042-.105.104v6.945c0 .063.042.105.105.105h2.588c1.336 0 2.241-.82 2.241-2.062 0-.968-.546-1.673-1.409-1.946l1.525-3.02c.043-.063.011-.126-.063-.126zm3.603 7.049c0 .063.041.105.105.105h.726c.063 0 .105-.042.105-.105v-6.113c0-.042.021-.064.063-.064h3.409c.064 0 .106-.041.106-.105v-.662c0-.064-.042-.106-.106-.106h-4.303c-.064 0-.105.042-.105.106zm6.61 0c0 .063.042.105.105.105h.726c.063 0 .105-.042.105-.105v-6.944c0-.064-.042-.106-.105-.106h-.726c-.063 0-.105.042-.105.106zm4.18 0c0 .063.042.105.105.105h.673c.085 0 .137-.022.18-.105l3.24-5.367h.042v5.367c0 .063.042.105.105.105h.663c.063 0 .106-.042.106-.105v-6.944c0-.064-.043-.106-.106-.106h-.673c-.074 0-.137.022-.179.106l-3.251 5.344h-.032v-5.344c0-.064-.042-.106-.105-.106h-.663c-.063 0-.105.042-.105.106zm8.36 0c0 .063.042.105.105.105h4.303c.064 0 .106-.042.106-.105v-.663c0-.063-.042-.105-.106-.105h-3.409c-.041 0-.063-.021-.063-.063v-2.104c0-.043.022-.063.063-.063h2.894c.064 0 .105-.043.105-.106v-.663c0-.063-.041-.105-.105-.105h-2.894c-.041 0-.063-.021-.063-.063v-2.178c0-.042.022-.064.063-.064h3.409c.064 0 .106-.041.106-.105v-.662c0-.064-.042-.106-.106-.106h-4.303c-.063 0-.105.042-.105.106zm6.89-6.271a.113.113 0 00-.01.158l.462.547c.043.052.095.052.147.01.464-.368 1.179-.736 2-.736.989 0 1.578.494 1.578 1.22 0 .61-.347 1.021-1.494 1.168l-.358.053c-1.389.189-2.104.852-2.104 1.978 0 1.273.915 2.094 2.336 2.094.842 0 1.652-.274 2.178-.663.053-.042.063-.095.021-.148l-.358-.578c-.042-.053-.095-.053-.147-.021-.579.358-1.115.537-1.726.537-.873 0-1.357-.473-1.357-1.158 0-.6.4-.999 1.504-1.147l.347-.052c1.4-.19 2.105-.832 2.105-2 0-1.252-.884-2.156-2.609-2.156-1.011 0-1.989.41-2.515.894" fill="#413691"/><path d="M236.44 143c-.931-2.917-1.258-5.67-.952-8.897l.001-.014a.18.18 0 00.002-.024c.186-1.933.597-4.035 1.241-6.445.521-1.955.69-3.901.621-5.766-.45-4.791-3.361-8.394-6.857-10.412l-.005.003.005-.002c.252 2.154.174 4.725-.394 7.866-.741 4.098-2.286 5.453-2.505 5.727-.014.017-.029.032-.022.051.004.014.045.032.058.041 1.29.807 2.418 1.783 2.947 2.233.406.345.246.5-.159.314-1.082-.496-2.889-1.129-5.178-1.413-2.012-.248-4.397-.218-6.992.284 0 0-1.818.269-1.55 2.119.074.518.335 1.049.543 1.564.066.163.24.664.146 1.07-.024.102-.153.289-.228.405-.134.205-.183.488-.044.818.119.28.597.69 1.27.755.766.072 1.712-.039 2.436.089 1.055.188 1.685.902 1.56 1.136-.083.156-1.023-.033-1.343-.097-.471-.094-1.327.286-1.775.432-.696.227-1.058.408-1.66.151-.376-.161-.672-.918-.777-.566-.049.163.044.341.174.533.122.181.367.522.401.715.038.219.09.529-.516.959-.43.303-.725.55-.907.735-.581.587-.682 1.194.432 2.141.796.678 2.553 2.492 3.087 3.6.085.174.509.867.043 1.561-.359.534-.424.637-.518.819-.258.498-.073.94.351 1.604.207.324.369.717.812 2.103a10.655 10.655 0 002.372 4.069l-.003-.002.004.003c.082.07 1.318 1.439 2.716 1.85.344-.561 1.057-1.327 2.489-2.059 1.462-.748 3.072-1.164 3.072-1.164s2.008-.576 4.042-1.305c1.623-.58 3.314-2.685 3.314-3.12 0-.898-.882-1.736-1.754-4.464" fill="#fff"/></g><path d="M207.33 140.53c0-11.551 8.272-21.148 19.153-23.064a24.914 24.914 0 00-.32-2.247c-.747-3.697-3.279-7.096-4.649-7.902 3.662.317 6.573 1.412 8.307 3.129h-.004c-.122-.001-1.268.013-1.369.015a14.547 14.547 0 012.04.975l.001.006.004-.003c.252 2.154.174 4.726-.394 7.867-.74 4.097-2.285 5.453-2.505 5.726-.014.018-.029.033-.022.051.005.015.045.032.059.041 1.29.808 2.418 1.783 2.947 2.233.405.345.245.5-.16.314-1.082-.496-2.888-1.129-5.178-1.413-2.012-.248-4.397-.218-6.992.285 0 0-1.817.268-1.549 2.118.073.518.334 1.049.542 1.564.066.162.24.664.146 1.07-.023.102-.152.289-.228.405-.134.205-.182.488-.043.819.118.279.596.689 1.27.754.332.031.699.029 1.067.025.478-.004.959-.008 1.369.065 1.054.186 1.684.901 1.56 1.135-.084.156-1.024-.033-1.344-.097-.47-.094-1.326.287-1.774.432-.696.227-1.058.408-1.661.151-.375-.161-.671-.918-.777-.566-.048.163.044.341.174.533.122.181.367.522.402.716.037.218.09.528-.516.957-.43.305-.726.551-.908.737-.581.585-.682 1.192.433 2.141.795.677 2.552 2.491 3.087 3.599.084.174.509.867.043 1.561-.359.534-.424.637-.518.819-.258.498-.074.941.35 1.604.207.324.369.717.812 2.102a10.63 10.63 0 002.373 4.069h-.003c.075.226.204 2.009 1.243 3.671a9.187 9.187 0 001.409 1.999c.416.447 1.07.966 1.932 1.466s1.929.981 3.171 1.351c1.491.445 3.231.732 5.164.703 1.444-.021 2.819-.135 4.454-.573l.003-.001c.007-.002.076-.02.195-.055a22.836 22.836 0 01-9.643 2.125c-12.787 0-23.153-10.481-23.153-23.412m9.242-2.884c-.03-.077.042-.116.131-.159.428-.199.626-.301 1.395-.762.899-.539 1.29-.093 1.482.251.054.093.134.475.046.61s-.253.048-.427-.122c-.196-.191-.674-.088-.834-.071-.158.018-.892.203-1.37.303a1.066 1.066 0 01-.222.026c-.122 0-.185-.033-.201-.076" fill="url(#b)" transform="matrix(1.3333 0 0 -1.3333 -239 219.595)"/><g clip-path="url(#c)" transform="matrix(1.3333 0 0 -1.3333 -239 219.595)"><path d="M227.09 148.47c-.116.035-3.183.708-4.2.641-1.016-.065-1.892-.658-2.427-1.269a1.948 1.948 0 01-.471-.949c-.045-.491.307-.723.722-.591.303.097.525.313.838.778.192.286.308.649.604.837.489.309 1.329.387 2.701.351 1.049-.028 1.896-.08 2.103-.089.382-.017.295.24.13.291" fill="#413691"/><path d="M225.32 145.62c-.573.339-1.344.32-1.495.348s-.18.181.047.291c.31.151.891.025.912.123.019.085-.113.302-.555.47-.238.092-.691.153-1.019.119-.942-.099-1.444-.685-1.55-.793-.106-.107-.266-.269-.307-.517-.055-.328.155-.581.355-.906.102-.164.192-.284.225-.408.047-.177.016-.249-.131-.364-.165-.129-.068-.356.264-.264.375.106.58.212.863.451.404.339.397.557.679.839s1.17.28 1.627.216c.537-.075.659.057.085.395" fill="#413691"/><path d="M253.87 141.25c-.01 1.042-.303 3.122-.35 3.578-.127 1.26-.429 3.013-1.397 5.435-1.056 2.639-1.91 4.501-4.494 7.05-3.044 3.002-6.631 4.246-7.497 4.504-.128.039-.2.057-.208.059l-.002.001c-1.636.438-3.011.552-4.454.573-5.156.077-8.939-2.089-10.267-3.52a9.153 9.153 0 01-1.409-1.999c-1.039-1.662-1.168-3.445-1.243-3.672l.003.003c.081.07 1.318 1.439 2.716 1.85.344-.561 1.057-1.327 2.489-2.059 1.462-.748 3.071-1.163 3.071-1.163s2.009-.577 4.043-1.305c1.623-.581 3.314-2.686 3.314-3.12 0-.898-.882-1.736-1.754-4.465-.932-2.917-1.258-5.67-.953-8.897l.002-.013.002-.025c.186-1.932.597-4.035 1.24-6.445h.001c.521-1.955.69-3.901.621-5.766-.451-4.791-3.361-8.394-6.857-10.412l-.005.004v-.006a14.576 14.576 0 00-2.041-.975 120.04 120.04 0 011.369-.014c2.936.034 7.091.601 10.65 4.333 1.229 1.288 2.192 2.635 2.8 3.905.249.531 1.308 2.416 1.907 6.158.079.5.343 2.108.343 2.108s.166-1.145.187-2.167c.027-1.402.079-3.164-.754-5.836.283.062 1.67 1.095 3.313 3.319.601.812 1.154 1.66 1.66 2.535 2.36 3.695 4.036 8.098 3.954 16.444" fill="#413691"/><path d="M241.14 149.43c-.016-.159.039-.218.185-.101.639.515 1.7 1.303 3.145 1.562 1.728.309 2.707 1.153 3.158 2.108.269.574.488 1.606 1.329 2.224.268.197-.005.267-.228.226-.21-.038-1.352-.346-2.095-1.16-.495.53-.459 1.257-.389 1.678.032.125-.066.215-.232.079-.566-.456-.944-1.06-1.067-1.496 0 0-.451.324-.219 1.139.039.136-.055.085-.104.051-.813-.594-.743-1.481-.75-1.601 0 0-.821.455-2.078.628-.218.837-1.559 1.057-1.779.199-.199-.778 1.095-1.37 1.645-.724 0 0 1.772-.186 3.346-1.761.16-.16.212-.288.113-.38-.073-.068-.3.071-.577.262-.312.217-2.456 1.598-4.31.649-.094-.048-.101-.129-.013-.149.35-.102 1.129-.371 1.326-.881-.495-.129-1.288-.431-1.857-1.603-.148-.304.044-.346.205-.222.193.146 1.35.779 1.783.734 0 0-.392-.574-.537-1.461m14.784 8.833c-.073-.593.111-2.262.567-3.816.479-1.641-.372-3.09-1.847-3.941-.462.716-1.393 1.074-2.221 1.104-.485.018-.352-.179-.113-.279 3.433-1.438 2.222-5.44 1.779-6.29-.453-.868-.345-2.014-.345-2.014-1.067.312-2.046.106-2.907-.03-1.705-.271-2.841.032-3.728.438-.705.323-1.814 1.057-1.983 2.459-.032.256-.197.433-.298-.042-.172-.811-.052-1.801.529-2.424-.635-3.125-6.766-2.897-6.766-2.897-.407 1.349-3.194 1.759-3.824 3.72-.299.93-.054 1.901-.054 1.901 1.603-.386 2.531.386 3.051 1.033.303.378.061.395-.155.257-2.031-1.283-3.92-.001-4.315 1.808-.527 1.979-2.456 2.64-2.456 2.64 1.405.885 1.009 2.414 1.741 3.708 1.927 3.41 4.668 2.389 4.668 2.389.265-.809 1.073-1.394 1.867-1.634.463-.14.39.09.18.241-1.947 1.402-1.466 3.635.067 4.677 2.674 1.821 3.132 2.609 3.132 2.609.491-.372 1.793-.695 3.164-.816 3.07-.273 3.793-1.872 3.855-2.482-.362-.191-.98-.766-1.268-1.684-.144-.462.088-.39.241-.182 1.195 1.637 2.667 1.329 4.048.696.872-.401 2.136-1.421 3.391-1.149" fill="#ef3138"/></g></svg>