<svg width="140.11" height="64.535" viewBox="0 0 37.072 17.075" xmlns="http://www.w3.org/2000/svg"><path d="M9.222 1.418v10.044c-.02.691-.702 1.246-1.54 1.246-.838 0-1.522-.555-1.543-1.246V7.704H3.212v3.758c-.022.691-.704 1.246-1.542 1.246-.838 0-1.52-.555-1.542-1.246V1.418c0-.716.69-1.29 1.542-1.29.852 0 1.542.574 1.542 1.28v3.17h2.927v-3.16c0-.716.69-1.29 1.542-1.29.852 0 1.541.574 1.541 1.28z" fill="#1b3668"/><path d="M12.172 3.328a1.57 1.57 0 001.142-.457 1.51 1.51 0 00.456-1.113c0-.457-.172-.828-.485-1.142-.314-.314-.684-.458-1.113-.458s-.828.144-1.142.458c-.315.314-.458.685-.458 1.142 0 .428.173.799.486 1.113a1.51 1.51 0 001.114.457" fill="#1b3668" fill-rule="evenodd"/><path d="M13.722 5.108v6.359c-.022.691-.704 1.246-1.541 1.246-.84 0-1.521-.555-1.543-1.246v-6.36c0-.715.69-1.287 1.543-1.287.85 0 1.541.572 1.541 1.28z" fill="#1b3668"/><path d="M33.802 12.558v-.03c-.467.16-.97.248-1.49.248-2.476 0-4.495-1.961-4.62-4.434V5.098c.026-.701.718-1.264 1.569-1.264.848 0 1.542.563 1.567 1.264v.038l-.004 3.034a1.493 1.493 0 001.487 1.477c.823 0 1.487-.671 1.487-1.498 0-.014.001-.027.004-.039V5.098c.024-.701.717-1.264 1.566-1.264.851 0 1.544.563 1.568 1.264v.038l-.004 7.448v.041c-.022 2.357-1.908 4.303-4.238 4.319-.72 0-1.296-.706-1.296-1.575 0-.853.542-1.55 1.25-1.587.63-.052 1.155-.576 1.155-1.224m-14.861-8.68h.975l.032-.001c.707 0 1.281.698 1.281 1.558 0 .85-.559 1.542-1.253 1.559h-1.19v4.476c-.025.69-.705 1.242-1.543 1.242-.835 0-1.516-.553-1.54-1.242v-.037l.004-7c0-2.336 1.863-4.273 4.168-4.288.707 0 1.277.693 1.277 1.55 0 .838-.536 1.522-1.233 1.56a1.252 1.252 0 00-.978.623" fill="#42b4e4"/><path d="M25.372 8.398c0 .637.515 1.152 1.134 1.203h-.01c.7.032 1.24.72 1.24 1.561 0 .856-.568 1.55-1.275 1.55-2.305-.016-4.168-1.952-4.168-4.289v.042l-.005-7.04v-.04c.024-.688.706-1.24 1.541-1.24.837 0 1.52.552 1.543 1.24v.04z" fill="#42b4e4" fill-rule="evenodd"/></svg>