<svg version="1.0" viewBox="0 0 744.09 171.85" xmlns="http://www.w3.org/2000/svg"><g fill-rule="evenodd"><path d="M191.296 43.848h25.516V72.83h28.037V43.848h25.675v82.694h-25.675V93.149h-28.037v33.393h-25.516V43.848M316.04 65.275c-4.253 0-8.184.295-11.964.925-3.78.63-6.62 1.582-8.824 2.842-2.836 1.576-5.035 3.48-6.61 5.685-1.576 2.205-2.848 5.176-3.636 8.957l21.912 2.38c.946-2.52 2.185-4.41 3.603-5.355 1.89-1.102 4.713-1.752 8.494-1.751 2.835 0 5.044.491 6.147 1.751 1.103 1.103 1.752 2.982 1.752 5.817-2.836 1.103-5.52 2.055-8.197 2.842-2.52.63-8.027 1.87-16.69 3.603-7.245 1.417-12.128 3.65-14.806 6.643-2.678 2.835-3.933 6.603-3.933 11.17v.793c.157 4.568 2.02 8.344 5.486 11.337 3.623 3.465 9.14 5.023 16.228 5.023 5.355 0 10.09-.779 14.343-2.512 2.835-1.26 5.832-3.312 8.824-6.147.315 1.733.636 3.013.794 3.8.315.946.93 2.054 1.718 3.471h21.582c-1.103-2.363-1.874-4.44-2.347-6.015-.315-1.575-.496-3.775-.496-6.61V87.318c0-2.835-.616-5.831-1.718-8.824-1.103-3.15-2.671-5.506-4.561-7.238-2.835-2.363-6.323-4.096-10.576-4.726-4.095-.788-9.595-1.256-16.525-1.256zm10.873 32.918v3.602c0 2.835-.476 5.216-1.422 7.106-.472.945-1.269 1.89-2.214 2.677a7.813 7.813 0 01-2.512 1.718c-2.205 1.26-4.578 1.884-6.94 1.884-2.52 0-4.392-.45-5.652-1.553-.63-.63-1.106-1.262-1.421-2.05a6.494 6.494 0 01-.496-2.511c0-1.575.657-3.004 1.917-4.264 1.26-1.26 4.231-2.375 8.957-3.635 3.307-.945 6.632-1.872 9.783-2.975zm36.38-54.345h22.839v30.557c3.15-3.308 6.3-5.67 9.293-6.93 3.15-1.418 6.93-2.206 11.026-2.206 6.3 0 11.183 1.89 14.806 5.828 3.623 3.623 5.355 9.451 5.355 17.327v38.118h-22.996v-32.92c0-3.78-.788-6.3-2.205-7.876-1.418-1.732-3.308-2.362-5.828-2.362-2.835 0-5.04.945-6.773 3.15-1.733 2.048-2.678 5.828-2.678 11.34v28.668h-22.839V43.848m77.184 22.844h21.264v9.766c3.15-3.938 6.458-6.93 9.766-8.664 3.307-1.575 7.245-2.52 11.97-2.52 6.459 0 11.341 1.89 14.965 5.828 3.622 3.623 5.355 9.45 5.355 17.327v38.118h-23.154v-32.92c0-3.78-.63-6.3-2.048-7.876-1.417-1.732-3.307-2.362-5.828-2.362-2.835 0-5.04.945-6.773 3.15-1.732 2.048-2.52 5.828-2.52 11.34v28.668h-22.996V66.692m162.235 46.302H573.73l-4.095 13.545h-26.147l31.187-82.693h27.88l31.187 82.693h-26.935l-4.095-13.545zm-5.198-17.956l-9.294-29.77-8.978 29.77h18.271m43.632-51.19h22.996V59.44h-22.996V43.848zm0 22.839h22.996v60.012h-22.996V66.687zm37.968.005h21.579v9.766c2.048-4.253 4.095-7.088 6.3-8.821 2.206-1.575 5.04-2.363 8.191-2.363 3.465 0 7.088 1.103 11.183 3.15l-7.088 16.382c-2.835-1.103-4.883-1.733-6.458-1.733-2.993 0-5.355 1.26-7.088 3.78-2.363 3.466-3.623 10.081-3.623 19.69v20.004h-22.996V66.692M17.712 85.909c0-37.646 30.557-68.203 68.202-68.203 37.645 0 68.203 30.557 68.203 68.203 0 37.645-30.558 68.202-68.203 68.202s-68.202-30.557-68.202-68.202" fill="#2b408f"/><path d="M56.62 74.095l68.36-38.748V59.76L78.516 86.224l9.766 5.67 36.7-20.791v23.154l-24.256 13.703 24.257 4.41v24.1L21.497 78.19l14.176-7.875 20.949 3.78" fill="#fffeff"/></g></svg>