<svg version="1.0" viewBox="0 0 300 36" xmlns="http://www.w3.org/2000/svg"><path d="M27.847 31.214c-.475.256-3.887 3.157-10.683 3.157-5.722 0-11.833-2.913-13.747-2.857a3.671 3.671 0 00-1.643.297c-.798.332-1.321-.197-1.251-.647.074-.452.729-1.293 1.206-1.899.581-.753 1.492-1.584 2.462-2.246 2.712-1.85 5.226-1.89 6.339-1.691.17.029.656.052 1.424.804 1.85 1.774 5.184 4.009 7.748 4.468.271.03 1.436.146 1.455-.186.012-.197-.312-.273-.422-.298-4.121-.931-6.497-2.943-8.765-5.013-1.846-1.682-3.25-3.768-4.309-5.805-.835-1.617-2.008-4.816-4.139-5.887-.476-.232-.49-1.102.504-1.331.692-.169 4.896-.562 9.904 2.142 1.97 1.068 2.606 2.257 2.68 2.55 0 0 .116.068.146.579.265 7.214 3.441 9.634 4.976 10.748.621.483 1.398.689 1.612.475.094-.105-.158-.33-.325-.44-4.427-2.916-5.283-6.718-5.522-10.796-.232-4.055 1.478-7.58 2.561-10.459.154-.41.781-2.262.309-3.836-.315-1.067.019-1.316.605-1.405.596-.087 1.5 1.138 1.815 1.52.24.289 1.04 1.216 2.236 3.595 2.366 4.693 2.385 9.888 2.382 10.483-.042 3.38-.666 3.585-2.274 4.369-1.341.524-2.093 1.599-2.093 2.646 0 1.067.798 1.858 2.248 2.478.097.028.268.082.342.102.637.156 1.173.014 1.173-.229 0-.217-.632-.297-.632-.297-1.416-.349-2.398-1.148-2.398-2.058 0-1.237 1.738-2.493 3.963-2.493h.113l.124-.003c2.216 0 3.953 1.252 3.953 2.494 0 .911-.979 1.708-2.393 2.058 0 0-.631.082-.631.295.005.244.529.387 1.17.23.08-.018.244-.07.349-.104 1.451-.616 2.241-1.411 2.241-2.478 0-1.045-.747-2.116-2.092-2.643-1.609-.781-2.222-.992-2.273-4.371-.006-.593.021-5.789 2.375-10.48 1.2-2.381 1.996-3.309 2.243-3.595.311-.381 1.215-1.605 1.817-1.521.592.091.916.34.6 1.404-.47 1.578.152 3.429.31 3.837 1.073 2.881 2.792 6.403 2.557 10.459-.233 4.078-1.089 7.88-5.518 10.793-.177.112-.412.335-.316.444.204.217.983.008 1.604-.473 1.534-1.113 4.706-3.535 4.972-10.751.037-.508.157-.581.157-.581.071-.29.701-1.479 2.668-2.545 5.019-2.71 9.217-2.311 9.91-2.146.994.234.978 1.104.506 1.331-2.137 1.076-3.306 4.27-4.141 5.887-1.053 2.042-2.463 4.128-4.307 5.81-2.269 2.068-4.649 4.078-8.77 5.013-.104.022-.434.097-.419.298.014.33 1.179.213 1.46.186 2.557-.459 5.884-2.695 7.746-4.47.77-.75 1.25-.771 1.427-.804 1.102-.195 3.615-.155 6.332 1.693.976.653 1.887 1.49 2.455 2.243.478.609 1.134 1.45 1.212 1.902.069.45-.451.976-1.253.646a3.693 3.693 0 00-1.642-.295c-1.917-.058-8.026 2.858-13.75 2.854-6.787-.004-10.2-2.901-10.683-3.157z" fill="#D09B2B"/><path d="M80.474 11.837h-1.961l-7.547 16.446-7.67-16.446h-4.887c1.399 1.465 1.835 1.781 2.617 3.529l8.419 18.114h.655l8.5-18.627c.652-1.39.998-1.941 1.874-3.016zm4.745 2.017c0-.982-.962-1.857-2.051-1.857-1.044 0-1.997.875-1.997 1.857 0 .957.953 1.826 1.997 1.826 1.089 0 2.051-.869 2.051-1.826zm.264 19.309c-.656-1.429-.612-2.258-.612-3.331v-8.604c0-1.029-.044-1.901.612-3.287h-4.581c.659 1.385.615 2.257.615 3.287v8.604c0 1.585.043 1.98-.615 3.331h4.581zM105.06 24c-.609-6.059-5.447-6.731-8.458-6.417-6.588.75-8.849 5.906-8.328 9.075.296 1.589 1.135 3.687 3.182 5.193 1.832 1.311 7.152 3.369 12.075-.316l-.647-.717c-1.266 1.115-3.49 1.551-4.976 1.509-3.265-.154-6.19-3.095-5.713-8.327h12.865zm-4.014-1.187h-8.585c.518-2.215 2.086-3.963 4.662-4.119 1.007-.079 3.709.042 3.923 4.119zm17.254 7.181c-1.565 1.706-2.743 2.496-4.317 2.451-1.876-.037-3.269-.984-3.269-3.131V19.132h6.712v-1.19h-6.712v-2.777l-3.758.874c.273.832.313.832.356 1.903h-.955v1.19h.995v9.785c0 3.687 3.362 4.481 5.361 4.522 1.576 0 3.098-.16 5.02-1.35l.567-2.095zm18.34 3.169c-.61-1.429-.568-2.817-.568-3.293v-7.371c0-2.22-.305-2.694-1.397-3.606-1.259-1.072-3.617-1.267-4.708-1.229-2.307.157-4.316 1.229-6.324 3.45.051-1.825-.083-2.657-.388-3.171h-4.01c1.133 1.701 1.044 3.687 1.044 3.958v7.97c0 1.547.043 1.942-.612 3.293h4.585c-.659-1.429-.62-2.772-.62-3.293v-4.913c0-2.739 2.883-5.908 5.854-5.946 2.829-.081 3.221 1.31 3.221 5.109v5.75c0 1.547 0 1.942-.614 3.293h4.537zm18.99 0c-1.304-1.863-1.437-3.095-1.437-4.046v-5.071c0-.912.088-2.06-.305-3.015-1.259-3.447-7.02-3.881-10.376-3.171-1.265.276-2.005.596-3.4 1.272l-.31 2.181c2.138-1.947 4.41-2.539 6.157-2.576 3.7-.121 4.965 1.341 4.881 2.535-.088 2.459-3.971 2.219-6.628 2.695-3.878.711-5.671 2.301-5.671 4.674 0 2.221 2.14 4.64 5.885 4.877 1.885.121 4.143-.752 6.455-3.492.09 1.675.178 2.42.614 3.138l4.135-.001zm-4.789-7.257c0 3.884-3.098 6.064-5.103 6.027-2.703-.121-4.747-2.498-2.703-5.311.522-.762 2.004-1.629 4.143-1.984.481-.08 1.963-.361 3.663-1.031v2.299zm31.609 7.217c-.615-1.423-.615-2.814-.615-3.291v-7.413c0-4.001-1.742-4.912-3.791-4.793-2.138.117-4.408 1.224-6.278 3.603-.521-3.012-2.053-3.687-3.798-3.564-2.267.117-4.229 1.229-6.229 3.45.047-1.825-.09-2.657-.396-3.171h-4.006c1.128 1.702 1.04 3.687 1.04 3.959v7.969c0 1.547.045 1.941-.611 3.293h4.582c-.65-1.428-.609-2.773-.609-3.293v-4.913c0-2.146 1.654-4.438 3.748-5.392 3.226-1.504 2.961 4.123 2.961 4.52v5.747c0 1.545.043 1.979-.604 3.291h4.577c-.655-1.423-.612-2.733-.612-3.291v-4.875c0-2.146 1.615-4.478 3.754-5.428 3.223-1.51 2.957 4.118 2.957 4.517v5.786c0 1.505 0 1.942-.61 3.291l4.54-.002zm27.65.082c-1.391-1.505-1.826-1.788-2.617-3.532l-8.412-18.115h-.651l-8.553 18.629c-.607 1.387-.955 1.904-1.869 3.019h2.009l3.62-7.929h7.938l3.651 7.929 4.884-.001zm-9.285-9.439h-6.457l3.233-7.055 3.224 7.055zm14.725-9.912c0-.982-.958-1.857-2.05-1.857-1.049 0-2.006.875-2.006 1.857 0 .957.957 1.826 2.006 1.826 1.092 0 2.05-.869 2.05-1.826zm.258 19.309c-.646-1.429-.612-2.258-.612-3.331v-8.604c0-1.029-.033-1.901.612-3.287h-4.579c.659 1.385.612 2.257.612 3.287v8.604c0 1.585.047 1.98-.612 3.331h4.579zm16.322-15.5c-5.188-.869-7.76 1.585-9.194 3.45.039-1.786-.092-2.618-.396-3.171h-4.012c1.137 1.701 1.039 3.687 1.039 3.958v7.97c0 1.547.047 1.942-.601 3.293h4.565c-.645-1.388-.598-2.302-.598-3.293v-4.913c0-2.538 3.092-7.493 7.447-5.152l1.75-2.142zm5.18 15.5c-.656-1.388-.619-1.786-.619-3.373V13.698c0-1.584-.037-1.98.619-3.408h-4.576c.648 1.427.61 1.824.61 3.408V29.79c0 1.071.038 1.91-.61 3.373h4.576zm7.46-19.309c0-.982-.957-1.857-2.043-1.857-1.053 0-2.008.875-2.008 1.857 0 .957.955 1.826 2.008 1.826 1.086 0 2.043-.869 2.043-1.826zm.259 19.309c-.649-1.429-.609-2.258-.609-3.331v-8.604c0-1.029-.04-1.901.609-3.287h-4.573c.653 1.385.608 2.257.608 3.287v8.604c0 1.585.045 1.98-.608 3.331h4.573zm20.101 0c-.604-1.429-.558-2.817-.558-3.293v-7.371c0-2.22-.309-2.694-1.397-3.606-1.269-1.072-3.619-1.267-4.707-1.229-2.313.157-4.315 1.229-6.323 3.45.049-1.825-.085-2.657-.392-3.171h-4.013c1.134 1.701 1.051 3.687 1.051 3.958v7.97c0 1.547.035 1.942-.619 3.293h4.576c-.646-1.429-.604-2.772-.604-3.293v-4.913c0-2.739 2.879-5.908 5.844-5.946 2.834-.081 3.225 1.31 3.225 5.109v5.75c0 1.547 0 1.942-.604 3.293h4.521zM284.52 24c-.606-6.059-5.446-6.731-8.457-6.417-6.588.75-8.856 5.906-8.328 9.075.308 1.589 1.136 3.687 3.188 5.193 1.83 1.311 7.141 3.369 12.07-.316l-.655-.717c-1.262 1.115-3.479 1.551-4.963 1.509-3.276-.154-6.196-3.095-5.722-8.327h12.867zm-4.009-1.187h-8.593c.521-2.215 2.095-3.963 4.667-4.119 1.006-.079 3.704.042 3.926 4.119zm18.949 6.269c.431-3.176-5.015-4.997-6.719-5.592-2.703-.991-3.662-1.704-3.571-3.053.041-1.032 1.311-1.744 2.793-1.785 1.354-.037 3.749.396 6.404 2.498l-.305-2.141c-2.961-1.469-5.363-1.504-6.191-1.469-3.268.121-5.404 1.469-5.711 3.057-.744 3.402 2.66 4.678 5.404 5.67 7.721 2.813 3.969 6.263.18 6.263-2.832 0-5.543-1.908-6.458-2.698l.266 2.104a12.576 12.576 0 006.013 1.703c3.931.074 7.546-1.826 7.895-4.557z" fill="#156192"/></svg>