<svg width="115.16" height="30.964" viewBox="0 0 30.47 8.193" xmlns="http://www.w3.org/2000/svg"><path d="M5.026.138c.39 0 .744.025 1.058.077.311.05.578.143.794.276.218.135.385.32.503.557.116.238.174.541.174.91 0 .22-.031.432-.097.64a1.805 1.805 0 01-.289.556 1.74 1.74 0 01-.458.409 1.53 1.53 0 01-.616.207v.021c.37.101.654.297.854.584.201.286.3.62.3.997 0 .422-.082.793-.245 1.113a2.31 2.31 0 01-.66.794 2.947 2.947 0 01-.946.48 3.832 3.832 0 01-1.125.164H.131L1.756.138zM4.197 6.59c.395 0 .716-.105.967-.314.248-.21.373-.524.373-.938 0-.205-.04-.364-.125-.48a.824.824 0 00-.32-.267 1.295 1.295 0 00-.434-.114 5.529 5.529 0 00-.471-.022H2.509L2.05 6.591zm.494-3.3c.312 0 .582-.086.812-.257.228-.171.342-.427.342-.769 0-.305-.08-.514-.245-.627-.163-.11-.383-.168-.658-.168h-1.81L2.75 3.29zm5.476-1.002L8.97 7.922H7.422L8.61 2.288zm2.24 0l-.174.79h.021c.503-.626 1.16-.94 1.974-.94 1.097 0 1.647.505 1.647 1.515 0 .058-.008.132-.023.222a9.011 9.011 0 01-.104.546c-.017.082-.032.151-.037.2l-.697 3.301h-1.547l.685-3.3c.012-.085.033-.201.06-.347.026-.145.038-.259.038-.338 0-.167-.08-.304-.233-.414a.872.872 0 00-.508-.163c-.233 0-.438.045-.616.136-.178.09-.331.208-.458.353a1.94 1.94 0 00-.315.502c-.087.189-.15.38-.19.576l-.633 2.995H9.76l1.165-5.634zm7.6 0l-.241 1.032h-1.101l-.577 2.803-.032.157-.013.104a.46.46 0 00.05.237l.125.124.17.049.18.006c.188 0 .373-.011.556-.033l-.263 1.186c-.16.016-.318.028-.479.04-.16.01-.323.016-.49.016-.183 0-.36-.017-.54-.05a1.43 1.43 0 01-.48-.173.946.946 0 01-.337-.344c-.084-.145-.124-.334-.115-.567 0-.072.007-.155.022-.245.014-.09.032-.187.055-.289l.63-3.021h-1.012l.24-1.033h.992l.348-1.709h1.548l-.348 1.71zm1.25 3.29v.228c0 .327.103.592.304.795.205.204.517.305.938.305.155 0 .29-.023.41-.071a1.217 1.217 0 00.557-.43c.068-.093.13-.185.19-.272h1.547c-.123.32-.27.6-.436.84a2.4 2.4 0 01-.6.606 2.48 2.48 0 01-.812.365c-.31.08-.665.12-1.074.12a3.29 3.29 0 01-1.029-.151 2.074 2.074 0 01-.788-.464 2.103 2.103 0 01-.507-.769 2.87 2.87 0 01-.18-1.067c0-.45.072-.883.217-1.303a3.65 3.65 0 01.615-1.11 2.866 2.866 0 012.271-1.063c.395 0 .751.052 1.075.153.323.102.6.257.83.464a2.1 2.1 0 01.533.773c.127.309.19.665.19 1.071 0 .276-.03.568-.088.881h-4.152zm2.72-1.505a1.053 1.053 0 00-.147-.386.769.769 0 00-.317-.278 1.211 1.211 0 00-.545-.105 1.465 1.465 0 00-1.324.742 2.786 2.786 0 00-.213.456h2.582c0-.145-.011-.288-.037-.43m4.151-1.784L27.898 3.3l.022.021c.175-.393.439-.69.79-.89.351-.2.736-.301 1.15-.301.16 0 .32.012.48.035l-.317 1.506-.326-.066a1.77 1.77 0 00-.327-.033c-.297 0-.55.051-.757.154-.209.102-.383.24-.524.414a2.107 2.107 0 00-.337.593 4.45 4.45 0 00-.2.693l-.524 2.496h-1.54l1.169-5.634zm-19.34-.88L9.071.13h1.557l-.282 1.277z" fill="#3daf29"/></svg>