<svg viewBox="0 0 151.83 36.333" xmlns="http://www.w3.org/2000/svg"><g transform="translate(-108.64 -478.2)"><path d="M258.75 479.07c-1.055.062-9.475.599-9.475.599s-.346-.063-.787.456c-.455.52-25.932 29.347-25.932 29.347s-3.51 3.761-8.402 4.187h-.031 34.854l10.543-33.91c.001-.002.285-.758-.77-.679" fill="#1E2368"/><linearGradient id="a" x1="317.84" x2="318.12" y1="794.05" y2="794.05" gradientTransform="matrix(111.22 40.48 40.48 -111.22 -67270 75936)" gradientUnits="userSpaceOnUse"><stop stop-color="#A0A2A4" offset="0"/><stop stop-color="#A0A2A4" offset=".006"/><stop stop-color="#B3B4B6" offset=".158"/><stop stop-color="#E3E4E5" offset=".465"/><stop stop-color="#fff" offset=".624"/><stop stop-color="#FCFCFC" offset=".739"/><stop stop-color="#F1F1F2" offset=".837"/><stop stop-color="#E0E0E2" offset=".928"/><stop stop-color="#CCCDCF" offset="1"/></linearGradient><path d="M249.21 479.67c-.125.009-.396.077-.73.457-.375.442-18.879 21.383-24.389 27.614 5.51-6.23 24.018-27.172 24.404-27.614.322-.38.592-.448.715-.457z" fill="url(#a)"/><linearGradient id="b" x1="317.84" x2="318.12" y1="794.02" y2="794.02" gradientTransform="matrix(111.22 40.48 40.48 -111.22 -67270 75936)" gradientUnits="userSpaceOnUse"><stop stop-color="#111247" offset="0"/><stop stop-color="#111247" offset=".006"/><stop stop-color="#1E2368" offset=".624"/><stop stop-color="#1D2265" offset=".813"/><stop stop-color="#191D5B" offset=".96"/><stop stop-color="#171B57" offset="1"/></linearGradient><path d="M258.9 479.07a2.01 2.01 0 00-.148.006c-1.055.062-9.473.597-9.473.597h-.037c-.102 0-.393.039-.75.458-.391.445-19.26 21.798-24.561 27.794l-1.371 1.553s-3.51 3.761-8.402 4.185h34.822l10.543-33.908s.039-.096.035-.217c-.003-.201-.107-.468-.658-.468z" fill="url(#b)"/><linearGradient id="c" x1="335.07" x2="335.35" y1="769.17" y2="769.17" gradientTransform="matrix(13.281 4.9284 5.0642 -12.924 -8111.4 8793.9)" gradientUnits="userSpaceOnUse"><stop stop-color="#622A15" offset="0"/><stop stop-color="#622A15" offset=".069"/><stop stop-color="#693118" offset=".164"/><stop stop-color="#7C431E" offset=".296"/><stop stop-color="#8D5523" offset=".456"/><stop stop-color="#A6712A" offset=".659"/><stop stop-color="#C69533" offset=".889"/><stop stop-color="#C69533" offset="1"/></linearGradient><path d="M238.37 504.15c-2.023.131-3.535.557-4.551 1.201-.23.141-.406.307-.484.516-.111.293.195.672.562.809.406.158.955.266 1.816.277 1.012.017 1.521-.178 1.521-.178s.227-.566.455-1.08c.154-.369.512-1.16.682-1.545h-.001z" fill="url(#c)"/><linearGradient id="d" x1="322.29" x2="322.56" y1="788.5" y2="788.5" gradientTransform="matrix(40.038 18.542 19.052 -38.962 -27689 25243)" gradientUnits="userSpaceOnUse"><stop stop-color="#C28127" offset="0"/><stop stop-color="#C5862C" offset=".034"/><stop stop-color="#CB9339" offset=".07"/><stop stop-color="#D6AA5D" offset=".123"/><stop stop-color="#E8CF96" offset=".2"/><stop stop-color="#E6CB8C" offset=".228"/><stop stop-color="#E1C173" offset=".275"/><stop stop-color="#D9B049" offset=".335"/><stop stop-color="#D7AB3D" offset=".35"/><stop stop-color="#CD992C" offset=".66"/><stop stop-color="#C27F27" offset=".98"/><stop stop-color="#C27F27" offset="1"/></linearGradient><path d="M252.67 493.45c-.01.012-.873.99-3.877.955-2.02-.023-3.125-.65-5.588-.681-2.729-.032-4.754.916-5.381 2.169-.314.631-1.857 4.17-1.857 4.17s.865-.883 2.299-1.33c1.967-.613 3.797-.5 5.684-.205 1.385.219 2.139.486 3.396.449 1.135-.033 1.713-.287 2.166-.541.572-.326 1.17-.867 1.861-1.982.51-.813 1.166-2.589 1.297-3.004zm-2.791 5.752s-.418.326-1.799.554c-.578.103-1.189.067-1.654.043-1.285-.072-2.078-.347-4.158-.526-2.812-.242-5.195.573-6.252 1.451-.314.268-.592.553-.738.837-.758 1.435-1.439 2.99-1.826 3.878-.162.352-.143.561-.143.561.104-.204.311-.502.531-.643 1.576-1.002 4.307-1.492 8.371-1.115 2.781.254 4.215.121 5.633-1.537 1.162-1.353 2.035-3.503 2.035-3.503z" fill="url(#d)"/><path d="M163.48 494.68h-4.209l.142.241c.198.148.379.299.629.564.196.22.243.326.243.816v7.934h2.579v-6.344l.04-.041 5.668 6.385h2.273v-9.556h-3.598l.107.241c.185.148.373.299.625.564.188.22.281.326.281.816v3.7l-4.78-5.32zm47.385 9.557l-2.043-3.437h-2.342v3.437h-2.9v-7.934c0-.49-.057-.598-.25-.816a5.313 5.313 0 00-.621-.564c-.131-.105-.152-.082-.152-.241h7.459c2.115 0 3.717 1.024 3.717 3.015 0 1.553-.766 2.41-2.066 2.91l2.26 3.631h-3.062zm-12.957 0v-7.934c0-.49-.059-.598-.25-.816a5.024 5.024 0 00-.613-.564c-.127-.105-.127-.082-.127-.241h3.893v9.556h-2.903zm-4.455 0l-.809-1.834h-4.797l-.832 1.834h-2.72l3.677-8.18c.043-.117.092-.219.092-.393 0-.189-.217-.403-.652-.725-.115-.088-.129-.088-.129-.26h4.789l4.451 9.555h-3.07v.003zm-14.809 0h-5.043v-7.934c0-.49-.063-.598-.261-.816-.243-.266-.44-.416-.628-.564-.124-.105-.115-.082-.115-.241h5.992c3.535 0 5.396 1.808 5.396 4.769-.001 2.722-1.71 4.786-5.341 4.786m-40.271 0v-7.934c0-.49-.069-.598-.247-.816a5.469 5.469 0 00-.624-.564c-.135-.105-.149-.082-.149-.241h3.906v7.296h4.6v2.26h-7.486v-.001zm-11.276 0v-7.934c0-.49-.056-.598-.242-.816a5.077 5.077 0 00-.623-.564c-.137-.105-.145-.082-.145-.241h9.973v1.976h-6.084v1.75h4.486v1.965h-4.484v1.842h6.119v2.023h-9v-.001zm-5.779.333c-3.379 0-6.418-1.477-6.418-5.078 0-2.863 2.188-5.201 6.361-5.201 1.635 0 2.896.316 3.986.837l-.688 2.258c-.606-.429-1.799-.866-3.1-.866-2.596 0-3.623 1.43-3.623 2.857 0 1.972 1.532 2.955 3.586 2.955 1.385 0 2.499-.389 3.176-.784l.73 2.036c-.846.505-2.315.986-4.01.986m-10.754-.333v-9.869c0-.485-.061-.582-.235-.795a7.2 7.2 0 00-.621-.56l-.147-.253h3.959v11.477h-2.956zm98.825-7.681h-2.908v2.411h3.059c.912 0 1.459-.429 1.459-1.188-.001-.661-.343-1.223-1.61-1.223m-19.123.377l-1.604 3.633h3.176l-1.572-3.633zm-12.032-.186h-1.738v5.373h1.738c2.1 0 2.791-.924 2.791-2.672-.002-1.873-.859-2.701-2.791-2.701m-22.404 7.49l-.818-1.834h-4.785l-.834 1.834h-2.718l3.673-8.18c.043-.117.088-.219.088-.393 0-.189-.209-.403-.654-.725-.116-.088-.121-.088-.121-.26h4.791l4.443 9.555h-3.064v.003zm-3.201-7.304l-1.597 3.633h3.186l-1.589-3.633z" fill="#1D2D6E"/></g></svg>