<svg width="191.63" height="72.919" viewBox="0 0 50.702 19.293" xmlns="http://www.w3.org/2000/svg"><defs><clipPath id="a"><path d="M85.327 85.414l118.03-.046s-66.316 4.087-92.466 13.017c-22.598 7.718-40.507 23.604-40.507 23.604z"/></clipPath></defs><path d="M47.052 13.058L5.413 13.04.143.138S6.46 5.743 14.431 8.465c9.225 3.15 32.62 4.593 32.62 4.593" fill="#73d2f6"/><g transform="matrix(.35278 0 0 -.35278 -24.688 43.178)" clip-path="url(#a)"><path d="M202.97 86.599L85.1 80.468l-10.087 28.248s14.265-8.844 37.235-15.367c26.582-7.55 90.723-6.75 90.723-6.75" fill="#45b1e8"/><path d="M202.97 86.599L85.1 80.468l-10.087 28.248s14.265-8.844 37.235-15.367c26.582-7.55 90.723-6.75 90.723-6.75z" fill="none" stroke="#fff" stroke-miterlimit="3.864" stroke-width=".542"/><path d="M207.28 85.991L83.271 73.853l-13.197 29.218s14.075-7.576 37.444-12.482c27.044-5.677 99.762-4.598 99.762-4.598" fill="#0f2752"/><path d="M207.28 85.991L83.27 73.853l-13.197 29.218s14.075-7.576 37.444-12.482c27.044-5.677 99.762-4.598 99.762-4.598z" fill="none" stroke="#fff" stroke-miterlimit="3.864" stroke-width=".542"/></g><path d="M47.052 13.058L5.413 13.04.143.138s6.317 5.604 14.29 8.327c9.225 3.15 32.62 4.592 32.62 4.592z" fill="none" stroke="#fff" stroke-miterlimit="3.864" stroke-width=".014"/><path d="M9.042 16.758a1.351 1.351 0 00-.932-.38c-.59 0-.893.421-.776.957.125.545.614.939 1.215.939.315 0 .6-.142.752-.367l.235 1.077c-.298.091-.512.16-.813.16-.517 0-1.051-.183-1.509-.508a2.127 2.127 0 01-.881-1.306c-.107-.471-.013-.925.262-1.264.286-.348.77-.559 1.292-.559.31 0 .606.064.92.174zm2.21-.09h-.01l-.154 1.099h.802zm-.278 1.786l-.125.6H9.826l.658-3.454h1.054l2.167 3.454h-1.029l-.373-.6zm3.748-.166h1.157l.17.76h-2.121l-.77-3.454h.965z" fill="#0f2752"/><path d="M34.592 16.668h-.01l-.087 1.097h.658zm-.163 1.783l-.08.598h-.84l.415-3.447h.863l1.903 3.45h-.844l-.328-.6zm3.223.607h-.791l-.756-3.449h.791zm.68-1.9h.077c.259 0 .538-.054.456-.43-.082-.374-.385-.43-.643-.43h-.077zm2.156 1.905h-.985l-1.037-1.327h-.01l.29 1.326h-.79l-.757-3.449h1.183c.601 0 1.13.326 1.293 1.063.101.475-.041.887-.454.973zm.764-.765h.949l.167.759h-1.74l-.755-3.448h.79zm2.13.77h-.791l-.756-3.449h.791zm-.48-3.45h.66l1.717 2.11h.01l-.51-2.109.66.001.835 3.449h-.66l-1.719-2.115h-.01l.513 2.113h-.66zm3.85.76l.126.576h.892l.167.76h-.892l.129.594h.94l.168.759H46.55l-.756-3.449h1.732l.167.76zm3.03.13c-.178-.137-.38-.23-.574-.23-.145 0-.321.095-.276.288.044.201.273.28.42.33l.219.069c.454.142.836.385.955.943.074.343.08.695-.111.928-.189.229-.485.324-.792.324-.383 0-.791-.148-1.158-.395l.181-.722c.244.196.511.357.782.357.185 0 .362-.104.307-.347-.054-.251-.384-.338-.565-.394-.534-.16-.893-.307-1.035-.975-.154-.7.186-1.157.796-1.156.307 0 .705.111 1.014.285zm-28.67.14h-.01l-.087 1.097h.658zm-.163 1.783l-.08.598h-.84l.415-3.447h.863l1.903 3.45h-.844l-.328-.6zm2.853-1.303h.077c.259 0 .538-.054.456-.43-.082-.374-.384-.43-.643-.43h-.077zm2.156 1.905h-.985l-1.037-1.327h-.01l.29 1.326-.79-.001-.757-3.449h1.183c.601 0 1.13.326 1.293 1.063.101.475-.041.887-.454.973z" fill="#45b1e8"/><path d="M28.602 17.118c.1.503.161.933-.016 1.362-.194.47-.597.676-1.105.675-.957 0-1.782-.738-2.021-1.822-.245-1.12.262-1.856 1.244-1.855.625.001 1.18.322 1.585.967l-.672.356c-.183-.33-.46-.55-.778-.55-.52 0-.67.562-.554 1.087.115.535.52 1.08 1.04 1.08.344.001.562-.2.504-.597h-.645l-.152-.705zm1.07.14c.129.594.611 1.03 1.084 1.03.472 0 .764-.433.636-1.028-.106-.475-.589-.91-1.061-.911-.472 0-.765.433-.659.909m2.542-.001c.242 1.116-.291 1.902-1.268 1.9-.977 0-1.856-.79-2.099-1.905-.228-1.043.417-1.773 1.293-1.772.876 0 1.845.734 2.074 1.777m-12.922-.499a1.351 1.351 0 00-.932-.38c-.59 0-.893.421-.776.957.125.545.614.939 1.215.939.315 0 .6-.142.752-.367l.235 1.077c-.298.091-.512.16-.813.16-.517 0-1.051-.183-1.509-.508a2.127 2.127 0 01-.881-1.306c-.107-.471-.013-.925.262-1.264.286-.348.77-.559 1.292-.559.31 0 .606.064.92.174z" fill="#45b1e8"/></svg>