<svg viewBox="0 0 474.45 185.76" xmlns="http://www.w3.org/2000/svg"><path d="M442.06 11.649l-.068.477-.102.511-.103.546-.137.476-.17.409-.136.34-.103.102-.069.103-.204.068-.068-.034-.103-.068-.068-.103-.068-.136-.136-.375-.102-.442-.068-.511-.034-.545-.034-.511.034-.512.068-.442.102-.443.136-.375.137-.306.137-.272.17-.205.102-.068.103-.034.069-.034h.17l.102.068.136.136.137.239.102.272.068.374.033.375v.442l-.033.478zm-3.4-.171l-.034.478-.068.545-.103.511-.102.477-.136.442-.171.341-.136.204-.102.069h-.102l-.069-.035-.103-.068-.067-.102-.068-.137-.17-.34-.103-.443-.102-.511-.068-.511-.034-.545v-.477l.067-.477.069-.408.103-.409.136-.34.136-.272.171-.205.103-.068.067-.034.103-.034h.17l.068.034.103.068.067.102.137.204.102.307.068.341.068.375v.918zm-3.24.171v.511l-.034.511-.067.477-.068.477-.136.443-.137.34-.103.137-.068.102-.102.068-.136.068h-.103l-.103-.035-.103-.102-.067-.136-.136-.34-.137-.443-.137-1.021-.068-.919v-.375l.034-.409.068-.409.068-.375.102-.307.137-.272.103-.103.067-.068.206-.068h.103l.102.034.102.068.103.068.137.205.136.272.103.34.067.375.068.443v.443h-.001zm-3.37.272l.033.477.068.477V14l-.034.17-.067.204-.068.136-.068.17-.103.103-.136.102-.137.102-.17.034-.136-.034-.137-.034-.103-.102-.067-.136-.103-.17-.136-.41-.17-.953-.136-.954-.068-.409-.034-.375v-.408l.034-.34.068-.307.136-.238.068-.103.102-.102.103-.034.137-.034h.238l.103.068.103.034.17.204.137.239.136.306.103.375.068.375.066.442zm-3.58.58l.068.442.034.477.033.477-.033.443v.205l-.034.204-.068.17-.067.171-.068.136-.103.137-.137.102-.136.069-.17.033h-.137l-.103-.068-.102-.102-.103-.136-.102-.17-.068-.171-.034-.238-.204-.954-.137-.919-.033-.409-.034-.408v-.375l.034-.375.067-.307.103-.238.103-.103.067-.068.103-.068.136-.034h.103l.137.034.102.034.103.068.17.17.171.239.102.306.103.375.068.409.066.442zm-3.17.647l.067.477.068.477.034.443.034.442-.034.204v.205l-.068.204-.034.136-.102.171-.068.136-.137.103-.136.068-.17.068h-.137l-.103-.068-.136-.102-.103-.103-.067-.17-.068-.204-.103-.205-.204-.954-.204-.919-.068-.409-.034-.409-.033-.375v-.34l.067-.306.103-.273.17-.17.103-.068.136-.035h.239l.102.035.103.068.171.17.17.239.137.307.137.34.102.409.066.408zm-2.93.988l.136.954.034.443.034.442-.034.205v.204l-.068.17-.034.171-.103.17-.068.136-.136.102-.136.068-.171.068-.137-.034-.102-.034-.136-.102-.103-.137-.068-.137-.103-.204-.067-.205-.205-.954-.204-.919-.068-.409-.034-.409-.033-.374v-.375l.067-.307.103-.238.103-.103.067-.068.103-.068.136-.034h.24l.103.034.102.068.17.17.171.238.136.272.137.375.067.408.101.413zm-3.06.987l.137.442.102.443.103.443.067.442.035.205v.204l-.035.205-.034.17-.033.137-.103.17-.102.102-.137.103-.137.068-.136.034-.136-.034-.103-.103-.137-.102-.102-.136-.103-.171-.102-.204-.341-.919-.272-.886-.137-.374-.103-.409-.067-.375-.034-.341.034-.34.067-.272.068-.102.171-.171.103-.034.102-.034h.136l.206.068.204.136.204.204.171.272.17.341.136.375.138.443zm-3.2 1.226l.17.409.136.443.137.443.136.442.034.375v.374l-.034.171-.067.136-.103.137-.103.136-.136.068-.137.034h-.103l-.136-.068-.102-.102-.136-.137-.206-.34-.409-.885-.34-.817-.171-.375-.137-.375-.102-.375-.068-.68.068-.272.034-.103.067-.102.068-.068.103-.069.103-.068h.239l.102.034.205.103.17.204.204.239.171.34.17.341.173.407zm-3.03 1.295l.306.851.239.817.067.375v.375l-.033.17-.069.137-.067.136-.103.137-.103.068-.136.034h-.102l-.103-.068-.137-.102-.102-.103-.103-.17-.102-.17-.375-.817-.341-.817-.17-.375-.137-.34-.103-.375-.033-.34-.035-.307.035-.238.033-.136.068-.103.068-.068.103-.068.067-.034.103-.034h.103l.103.034.203.102.17.17.172.239.17.306.17.341.174.373zm-3.04 1.805l.478.749.408.75.137.375.034.34.033.17-.033.137-.068.17-.068.136-.103.103-.103.068h-.102l-.102-.034-.274-.136-.272-.272-.545-.75-.512-.715-.408-.614-.17-.34-.137-.306-.068-.307-.034-.272.068-.204.034-.103.17-.17.103-.034.102-.035h.103l.205.068.203.136.239.204.204.239.238.306.24.341zm-2.65 1.874l.477.749.409.75.136.375.068.34v.17l-.034.17-.034.137-.068.136-.102.103-.103.068h-.239l-.137-.068-.239-.239-.136-.137-.545-.75-.511-.681-.238-.341-.171-.306-.17-.34-.137-.307-.068-.307-.034-.238.034-.137v-.102l.068-.102.068-.103.103-.068.067-.034h.205l.205.034.238.136.204.205.238.238.239.307.207.342zm-2.56 2.111l.511.715.443.715.17.375.102.341v.307l-.067.17-.068.136-.068.103-.102.068-.103.034-.137-.034-.136-.034-.136-.103-.137-.102-.137-.136-.579-.715-.545-.647-.238-.307-.238-.306-.17-.307-.171-.307-.067-.306-.068-.272.033-.102v-.103l.069-.102.067-.102.068-.068.103-.068h.102l.103-.034.204.068.204.103.239.204.238.205.272.306.239.305zm-2.28 1.873l.579.647.511.682.171.34.136.341.034.17v.137l-.034.17-.068.137-.067.136-.103.068-.103.034h-.137l-.136-.034-.136-.103-.137-.102-.17-.103-.647-.613-.612-.646-.239-.272-.476-.544-.171-.307-.102-.272-.068-.272v-.239l.034-.102.068-.102.067-.069.103-.068.068-.034h.102l.239.034.204.068.272.171.272.204.272.272.274.271zm-2.31 2.18l.545.613.511.647.205.34.103.306.034.171v.136l-.034.137-.035.17-.067.102-.103.068-.103.035h-.102l-.136-.035-.137-.068-.171-.102-.136-.103-.647-.579-.579-.613-.238-.238-.238-.272-.204-.272-.17-.272-.137-.272-.068-.239v-.136l.034-.102.034-.103.034-.102.068-.068.102-.034.068-.068h.102l.205.035.238.068.239.136.237.205.272.238.274.271zm-2.53 2.452l.647.546.579.613.238.306.171.307.033.17.034.17v.136l-.034.17-.068.136-.102.103-.103.034h-.239l-.34-.136-.171-.102-.716-.545-.681-.511-.307-.238-.272-.239-.238-.272-.204-.272-.171-.238-.102-.272v-.239l.034-.102.033-.103.069-.102.067-.068.103-.035.067-.034h.238l.239.069.272.102.272.17.306.204.346.272zm-2.14 2.487l.749.443.682.511.272.238.204.307.068.136.034.137.034.17-.034.17-.034.137-.068.102-.103.068-.102.034h-.137l-.17-.034-.17-.068-.205-.068-.782-.375-.75-.408-.307-.17-.341-.205-.272-.205-.442-.442-.137-.238-.033-.137v-.204l.033-.136.034-.068.068-.103.103-.068.067-.034.204-.034h.273l.271.068.308.136.34.17.343.17zm-1.77 2.827l.715.442.681.477.272.272.205.272.067.137.069.17v.306l-.035.136-.067.103-.103.068-.137.034h-.136l-.17-.034-.171-.034-.17-.068-.784-.408-.749-.409-.341-.17-.307-.205-.272-.205-.272-.204-.17-.239-.136-.238-.034-.102-.034-.136.034-.103.034-.102.033-.103.136-.136.103-.068.204-.034.238.034.307.068.307.102.34.17.343.207zm-1.67 2.521l.408.204.408.205.409.204.374.239.307.272.239.272.102.17.034.137.068.34-.034.17-.068.102-.102.068-.137.068h-.307l-.204-.068-.204-.034-.886-.341-.817-.374-.375-.171-.341-.17-.34-.204-.272-.205-.238-.239-.137-.238-.068-.102v-.375l.068-.102.034-.103.103-.068.067-.068.238-.068h.272l.307.034.341.102.375.17.376.173zm-1.36 3.27l.75.408.681.477.272.238.205.272.067.137.034.136.034.17-.068.272-.067.102-.103.069-.103.034h-.136l-.17-.034-.172-.035-.17-.068-.817-.375-.749-.409-.614-.34-.307-.205-.238-.205-.204-.238-.137-.204-.034-.136v-.205l.068-.204.068-.068.103-.068.068-.034.204-.034h.272l.272.068.307.136.34.136.344.207zm-1.33 3.133l.783.34.75.375.306.204.239.238.103.137.067.136.034.171v.306l-.068.103-.206.136-.136.034-.17-.034h-.17l-.171-.034-.852-.272-.817-.272-.341-.137-.341-.136-.306-.17-.272-.17-.205-.204-.17-.205-.067-.102-.035-.103v-.136l.035-.103.033-.102.034-.103.068-.068.067-.068.205-.068h.544l.34.068.342.102.377.137zm-1.3 3.577l.852.204.851.272.341.17.307.205.103.102.103.137.067.136.034.171v.136l-.068.137-.067.068-.103.068-.137.068h-.579l-.919-.136-.886-.17-.375-.069-.375-.068-.34-.136-.341-.137-.238-.17-.205-.17-.067-.103-.068-.102v-.341l.068-.103.034-.068.103-.068.204-.103.238-.068.307-.034.374.034.375.068.407.07zm-1.09 3.269l.92.17.851.239.375.17.307.17.103.136.102.137.068.136.067.137v.17l-.034.102-.102.102-.102.068-.137.034-.171.034h-.408l-.953-.102-.886-.103-.409-.068-.375-.068-.374-.103-.341-.136-.272-.171-.205-.17-.067-.102-.068-.102-.034-.103v-.102l.034-.103.034-.102.068-.102.067-.068.205-.102.272-.068.307-.034h.341l.408.034.409.07zm-.64 2.998l.885.17.853.239.375.17.306.17.137.136.103.136.067.136.034.136v.17l-.034.103-.067.102-.137.068-.137.034-.17.034-.204.035-.205-.035-.953-.102-.886-.102-.408-.069-.375-.068-.375-.102-.307-.136-.272-.171-.238-.17-.067-.103-.035-.102-.034-.102v-.205l.034-.102.068-.103.068-.068.204-.102.272-.068.307-.034h.375l.375.034.441.071zm-.75 3.371l.92.103.853.17.373.137.342.204.204.204.103.137.035.17.034.136-.034.137-.068.102-.137.068-.136.068-.17.034h-.172l-.237.034-.954-.068-.886-.068h-.408l-.75-.136-.34-.136-.272-.102-.239-.17-.067-.102-.068-.103-.034-.102v-.238l.034-.102.068-.068.067-.068.171-.136.272-.103.307-.034.375-.034.374.034.44.032zm-.58 3.338l.409.034.478.034.408.068.409.102.374.136.307.17.137.102.102.137.068.136.068.137v.272l-.068.103-.103.102-.136.034-.171.068-.204.035h-1.124l-.886-.068h-.374l-.75-.136-.307-.103-.272-.136-.238-.137-.067-.102-.069-.102-.033-.103v-.239l.033-.102.035-.103.067-.068.205-.136.237-.103.308-.068h.749l.408.036zm-.27 3.271l.919.068.886.136.375.103.306.17.138.103.136.102.067.137.068.136.034.17-.034.102-.068.103-.102.102-.137.068-.17.034-.204.034-.205.034h-1.873l-.375-.034-.408-.034-.374-.034-.342-.102-.272-.102-.238-.17-.102-.068-.034-.103-.068-.102v-.239l.034-.103.034-.068.068-.102.203-.137.239-.102.306-.068.375-.034h.818zm-.14 3.678l.92.068.886.136.374.136.341.171.102.102.138.102.067.137.068.136v.272l-.068.103-.137.102-.136.034-.17.068-.171.034h-1.158l-.919-.034h-.409l-.375-.035-.374-.068-.341-.102-.307-.103-.204-.17-.102-.068-.069-.103-.033-.102v-.238l.033-.102.034-.103.068-.068.204-.137.238-.102.682-.068h.818v.002zm-.1 3.304l.886.034.852.103.341.102.307.17.136.102.103.103.102.136.035.136.033.17-.033.103-.068.102-.103.102-.102.068-.342.068-.203.034-.92.034h-1.26l-.375-.034-.342-.068-.34-.068-.272-.137-.204-.136-.102-.069-.069-.102-.033-.102v-.239l.033-.103.034-.102.068-.068.17-.136.239-.102.306-.069.342-.034.374-.034.407.036zm-.07 3.099l.817.034.783.103.341.102.306.137.206.204.103.137.033.136.034.171-.034.102-.033.103-.103.102-.137.068-.136.035-.17.068-.205.034-.852.034h-1.158l-.34-.034-.342-.034-.306-.068-.272-.103-.204-.17-.068-.068-.067-.102-.035-.102-.034-.103.034-.136v-.103l.068-.068.034-.102.17-.137.238-.102.272-.068.307-.068h.75v-.002zm-.07 3.202l.817.034.783.102.341.102.307.17.103.068.102.137.068.136.068.137.034.136-.034.137-.068.102-.068.068-.137.068-.136.068-.17.034-.204.034-.852.034h-.818l-.34.035-.375-.035-.307-.034-.306-.102-.273-.103-.204-.136-.067-.102-.069-.069-.033-.102-.034-.137v-.102l.034-.102.033-.103.069-.068.17-.136.238-.136.272-.068.307-.034.34-.034h.409v.001zm.1 3.133l.818.035.783.102.341.102.307.136.136.102.103.137.067.102.034.171.034.136v.137l-.068.102-.102.068-.274.136-.34.068-.852.034h-1.533l-.34-.068-.307-.068-.273-.103-.203-.136-.068-.103-.068-.102-.033-.102v-.205l.033-.102.034-.103.034-.068.17-.17.238-.102.272-.068.308-.034.374-.035h.375v.001zm0 3.509l.818.034.783.068.375.103.272.136.136.102.103.103.067.136.068.17.034.136-.034.136-.068.102-.067.069-.274.136-.17.034-.204.034-.852.069h-1.533l-.306-.035-.307-.068-.272-.102-.205-.137-.067-.102-.068-.102-.034-.103-.033-.102v-.103l.033-.102.034-.102.068-.103.17-.136.204-.103.272-.068.308-.068.374-.034h.375v.002zm.14 3.27l.852.034.852.103.374.102.308.137.136.102.102.102.103.137.068.136v.273l-.068.103-.103.068-.136.102-.136.035-.205.034-.17.034-.92.068h-.851l-.409.034-.375-.034-.341-.034-.34-.068-.272-.103-.205-.136-.102-.103-.068-.102-.034-.102-.033-.103v-.102l.033-.102.034-.103.238-.238.239-.102.306-.068.341-.069.374-.034h.408v-.001zm.34 3.167h.886l.816.103.375.102.307.136.137.102.102.102.103.137.067.136.035.137-.035.136-.067.103-.103.102-.102.068-.171.034-.17.034-.204.034-.92.068h-.852l-.374.034-.75-.068-.306-.068-.308-.103-.204-.136-.103-.103-.067-.068-.035-.102v-.34l.069-.103.033-.068.205-.171.237-.102.273-.068.341-.068h.785zm.17 2.998l.886.034.817.102.375.068.307.137.136.102.205.205.069.137.033.136-.033.103-.069.102-.103.068-.102.068-.17.034-.171.034-.204.034-.919.067h-1.568l-.307-.034-.238-.067-.238-.103-.171-.136-.033-.068-.069-.068-.033-.103v-.307l.068-.17.102-.102.205-.104.204-.067.307-.068.341-.034h.373zm.44 2.964h.784l.783.102.341.068.307.102.103.068.102.068.103.102.033.104.034.102v.102l-.067.068-.103.068-.239.068-.373.068-.818.033h-1.158l-.272-.033h-.238l-.204-.068-.171-.068-.102-.102-.068-.137-.034-.137v-.17l.034-.137.068-.102.102-.068.171-.068.238-.033h.644zm2.25 2.621h.272l.238.035.103.068.067.102.068.137.034.203v.172l-.034.135-.102.104-.103.068-.239.066h-.272l-.103.035h-.102l-.102-.035-.103-.066-.067-.068-.069-.068-.033-.137v-.307l.033-.137.034-.102.103-.068.068-.068.102-.068h.207v-.001zm-3.58-.817l-1.328-.75-1.26-.852-1.227-.92-1.158-1.021-1.09-1.09-1.021-1.158-1.022-1.26-.919-1.294-.886-1.396-.852-1.431-.783-1.464-.75-1.533-.681-1.601-.646-1.601-.58-1.636-.545-1.668-.511-1.703-.443-1.704-.408-1.737-.375-1.703-.34-1.737-.272-1.737-.239-1.737-.204-1.703-.17-1.669-.137-1.703-.067-1.635-.069-1.601v-3.099l.069-1.498.067-1.431v-1.09l-.034-.988-.103-.885-.136-.75-.067-.34-.103-.307-.103-.272-.137-.238-.102-.205-.17-.17-.137-.136-.17-.136-2.998-1.976-3.031-1.941-6.13-3.678-3.134-1.737-3.134-1.703-3.201-1.601-3.168-1.567-3.235-1.533-3.235-1.431-3.271-1.362-3.27-1.294-3.304-1.26-3.305-1.159-3.338-1.124-3.338-1.022-3.338-.988-3.371-.885-3.338-.817-3.373-.75-3.371-.682-3.373-.613-3.405-.545-3.372-.442-3.372-.375-3.372-.307-3.338-.238-3.372-.136-3.338-.068h-3.338l-3.338.102-3.304.17h-.474l-.409-.034-.171-.035-.136-.034-.136-.068-.103-.102-.204-.205-.205-.306-.17-.34-.204-.477-.511-1.294-.478-1.329-.442-1.396-.409-1.396-.341-1.431-.307-1.43-.238-1.431-.17-1.396-.034-.272.034-.239.068-.238.102-.205.137-.17.204-.137.204-.136.273-.068 2.213-.239 2.419-.136L263.477 0l2.793.068 2.963.137 3.134.238 3.27.341 3.406.443 3.542.545 3.645.613 3.747.715 3.849.784 3.917.919 3.985.988 4.053 1.09 4.088 1.192 4.087 1.26 4.155 1.363 4.121 1.464 4.156 1.533 4.121 1.635 4.087 1.737 4.054 1.839 4.019 1.908 3.951 2.009 3.849 2.111 3.781 2.181 3.713 2.281 3.576 2.385 3.439 2.452 3.305 2.589 3.201 2.623.613.682.511.613.442.545.342.477.237.442.171.409.068.375.034.375v.375l-.068.375-.103.442-.137.443-.34 1.09-.375 1.362-.272 1.227-.204 1.328-.204 1.362-.171 1.431-.136 1.499-.103 1.567-.067 1.601-.035 1.635v1.703l.069 1.703.067 1.737.136 1.771.171 1.806.204 1.805.238 1.805.307 1.805.341 1.805.374 1.771.443 1.805.477 1.771.512 1.737.578 1.703.613 1.669.682 1.635.749 1.601.783 1.533.817 1.465.887 1.43.953 1.362 1.021 1.261 1.056 1.227 1.125 1.121z" fill="#1f2c51"/><path d="M362.5 175.14l1.295-1.09 2.52-2.316 1.262-1.193 1.226-1.26 1.191-1.26 1.192-1.295 1.125-1.361 1.123-1.363 1.09-1.396 1.057-1.396 1.021-1.465.988-1.465.953-1.498.886-1.533.852-1.566.817-1.566.783-1.602.716-1.6.647-1.67.612-1.635.545-1.703.511-1.668.443-1.738.374-1.736.307-1.738.238-1.77.171-1.771.102-1.807.034-1.805-.034-1.805-.102-1.84-.274-1.906-.203-.955-.205-.92-.238-.885-.272-.885-.307-.818-.272-.783-.579-1.396-.545-1.158-.408-.852-.307-.545-.545-.953-.579-.92-.613-.92-.613-.885-.647-.887-.646-.885-.682-.818-.716-.852-.681-.816-.749-.783-.716-.783-.749-.783-.783-.75-.749-.75-.818-.715-.782-.75-1.636-1.396-1.669-1.328-1.703-1.295-1.736-1.293-1.738-1.227-1.771-1.191-1.805-1.159-1.771-1.124-1.94-1.192-1.942-1.125-1.906-1.09-1.908-1.022-1.941-.987-1.941-.954-2.043-.954-2.112-.919-2.793-1.125-2.827-1.124-1.465-.511-1.43-.545-1.465-.477-1.499-.477-1.464-.477-1.465-.409-1.499-.409-1.465-.375-1.499-.375-1.464-.307-1.499-.307-1.465-.238-2.248-.409-2.281-.409-2.282-.443-2.282-.408-1.158-.17-1.124-.17-1.158-.137-1.157-.102-1.125-.103-1.158-.068h-2.315l-1.056.034h-1.396l-1.328.034-.887.034-.34.034-.477-.034-.512-.068-.511-.068-.477-.068-.375-.103-.17-.034-.103-.034-.068-.068v-.032l-.816-.51-.784-.545-.749-.545-.716-.545-1.396-1.09-1.329-1.158-1.261-1.124-1.26-1.125-1.227-1.158-1.226-1.158-.239-.409-.17-.341v-.17l.034-.17.103-.136.238-.17.34-.205.409-.205.579-.204.852-.205 1.669-.307 1.703-.238 1.703-.205 1.737-.17 1.736-.068 1.771-.068 1.737.034 1.771.034 1.771.103 1.771.136 1.771.205 1.771.238 1.771.272 1.737.307 1.771.34 1.736.409 1.737.408 1.703.443 1.703.477 1.702.511 1.67.545 1.635.579 1.635.613 1.566.614 1.602.613 1.533.682 1.498.681 1.498.682 1.432.715 1.43.715 1.363.75 1.328.749 1.396.784 1.43.783.613.375.58.34.51.307.341.272.171.137.17.102.137.102.17.069.34.068h.342l.17-.034.137-.068.17-.068.136-.102.171-.102.137-.137.272-.34.103-.205.067-.17.035-.205v-.409l-.035-.238-.067-.205-.103-.205-.102-.17-.137-.205-.137-.17-.34-.34-.205-.136-.17-.103-.205-.102-2.111-1.261-2.111-1.192-2.078-1.124-2.077-1.056-2.112-1.021-2.043-.954-2.078-.886-2.043-.852-2.044-.783-2.01-.715-2.01-.681-2.009-.613-1.977-.545-1.941-.511-1.941-.477-1.906-.409-1.874-.375-1.839-.306-1.84-.272-1.805-.239-1.771-.17-1.737-.136-1.737-.103-1.669-.068h-1.635l-1.601.034-1.602.068-1.498.102-1.499.137-1.464.205-1.396.204-1.363.239-1.191.238-1.227.205-.613.102-.545.068-.477.035h-.476l-.137-.069-.137-.136-.17-.137-.442-.408-.546-.511-1.226-1.328-1.431-1.533-1.431-1.601-1.294-1.465-1.09-1.158-.682-.715-.613-.545-.307-.272-.068-.137-.033-.136v-.137l.033-.238.035-.204.137-.238.17-.205.238-.17.307-.17.408-.205.477-.205.613-.204.613-.239 1.226-.34.613-.137 1.226-.238 1.261-.205.749-.103.817-.102.92-.136 1.021-.103 1.056-.102 1.124-.068h1.158l1.192.034 1.532.102 1.566.102 1.602.137 1.669.17 1.703.204 1.703.205 1.737.238 1.771.307 1.805.306 1.805.307 1.806.375 1.839.408 1.84.443 1.805.477 1.84.477 1.805.545 1.805.579 1.807.579 1.771.58 1.771.613 1.771.579 1.737.613 3.406 1.294 1.669.647 1.635.647 1.566.681 1.567.681 1.532.681 1.465.715 1.431.682 1.362.749.682.272.307.103.34.068h.409l.341-.034.136-.068.136-.035.104-.068.272-.272.103-.238.067-.272v-.272l-.033-.272-.103-.307-.136-.272-.17-.307-.205-.272-.238-.238-.307-.238-.307-.171-.682-.34-.749-.34-1.634-.75-1.669-.783-1.635-.784-1.636-.749-1.67-.716-1.635-.715-1.668-.647-1.635-.681-1.635-.613-1.67-.613-1.635-.613-3.338-1.09-1.635-.545-1.669-.477-1.669-.476-1.703-.477-1.669-.409-1.669-.408-1.703-.409-3.406-.68-3.406-.614-1.735-.274-3.474-.476-1.737-.205-1.771-.17-1.771-.137-1.771-.136-1.805-.103-1.806-.068-1.431-.034-1.465.034-1.498.103-1.499.136-1.464.238-1.465.272-1.431.341-1.396.375-.817.306-.75.307-.17.034-.205.034h-.17l-.203-.034-.172-.034-.203-.068-.205-.068-.204-.136-.341-.307-.408-.477-.512-.646-.545-.75-.578-.852-.58-.953-.613-.954-.578-1.022-.579-.988-.545-.953-.478-.92-.408-.817-.34-.681-.239-.58-.068-.238-.067-.17v-.239l.102-.068.17-.103.273-.102.307-.103.816-.238.887-.239.919-.238.817-.171.579-.136.307-.034.747-.032.818-.068.852-.102.953-.069 1.021-.102 1.192-.102 1.328-.103 1.499-.068 1.635-.068 1.737.034 1.907.068 2.044.102 2.214.205 2.385.238 2.622.307 2.86.375 1.329.204 1.362.204 1.396.238 1.396.239 2.793.545 2.827.647 2.827.715 2.826.75 2.861.851 2.827.886 2.827.954 2.793.987 2.759 1.056 2.726 1.124 2.656 1.124 2.623 1.192 2.555 1.226 2.452 1.261.442.204.443.17.204.069.204.068h.17l.205.034.34-.068.171-.068.136-.136.137-.136.137-.205.102-.238.068-.307.033-.136-.033-.17-.034-.137-.068-.17-.204-.34-.307-.307-.34-.272-.375-.272-.375-.238-.408-.205-.887-.408-1.09-.545-1.123-.58-1.022-.477-2.214-.919-2.214-.954-2.248-.886-2.282-.886-2.281-.817-2.248-.817-2.283-.783-2.247-.75-.92-.307-1.362-.408-1.465-.409-1.123-.34-.478-.137-.613-.204-.716-.17-.816-.239-.852-.205-.887-.238-.919-.204-.919-.17-1.057-.205-1.328-.272-1.465-.272-1.566-.306-1.465-.307-1.362-.238-1.056-.239-.715-.136-.75-.102-1.09-.17-1.396-.136-3.066-.34-1.498-.17-1.26-.103-.954-.102-1.158-.102-1.192-.068-1.26-.068-1.26-.034-2.59-.068-2.656.034-1.328.034-1.295.068-1.326.065-1.294.103-1.261.102-1.226.137-1.192.17-1.158.17-.477.068-.375.034h-.307l-.17-.068-.272-.205-.307-.34-.341-.409-.34-.511-.75-1.158-.749-1.362-.749-1.397-.682-1.328-.613-1.159-.442-.851-.204-.375-.17-.375-.172-.34-.102-.375-.034-.17.034-.171.068-.136.068-.17.137-.137.203-.102.238-.102.307-.103.409-.102.478-.103.545-.068.579-.067 1.227-.102 1.295-.103 1.191-.068 1.056-.034.817-.035h.443l1.362-.068 1.635-.034h1.839l1.908.034h1.839l1.703.035 1.464.033 1.057.035.988.068 1.26.102 1.498.17 1.635.17 1.738.205 1.805.238 1.839.239 1.771.272 1.907.306 1.976.341 1.976.374 1.976.409 1.976.442 1.975.477 2.01.511 1.977.511 2.01.545 1.975.579 1.941.579 1.976.613 1.942.613 1.906.614 1.908.647 1.873.647 1.84.681 2.077.783 2.214.852 2.248.92 2.214.919 2.044.886 1.805.852 1.465.715 1.566.783 1.533.817 1.566.817 1.567.817 1.566.852 1.567.886 3.132 1.772 1.533.919 1.533.92 1.532.953 1.499.954 1.498.954 1.465.987 2.862 2.044.17.137.137.136.135.137.104.136.137.272.067.272v.477l-.034.306v.477l-.033.75-.035.75v.477l-.033.817-.035 1.533-.033 1.601-.035 1.09-.033 1.294v1.294l.033 1.328.104 1.329.102 1.328.137 1.362.17 1.328.205 1.362.203 1.329.273 1.328.271 1.329.308 1.294.307 1.26.374 1.26.341 1.226.408 1.192.171.511.271.784.342.919.375.988.374 1.022.341.885.272.715.408.818.341.647.443.818.442.886.478.919.476.852.409.715.307.511.443.681.476.682.478.647.511.647.511.613.545.647.545.613.546.579 1.124 1.157 1.191 1.125 1.227 1.09 1.227 1.021.715.545.75.545.816.545.818.512.851.477.852.477.92.479.92.408.919.441.954.375.987.41.988.34 1.021.34 1.022.307 1.021.307 1.022.273 1.055.238 1.022.238 1.056.203 1.056.205 1.057.17 1.021.137 1.056.102 1.021.104 1.022.066 2.042.07h.988l.953-.035.954-.035.954-.102.919-.102 1.192-.102 1.158-.17 1.09-.172 1.09-.17 1.021-.238.988-.205.954-.238.953-.271.886-.273 1.772-.614.852-.307 1.635-.646 1.669-.646.613-.273.681-.307.682-.34.715-.375 1.465-.818 1.465-.92 1.43-.918 1.363-.92.646-.477.579-.443.545-.443.477-.408.205-.205.204-.102.136-.102.137-.035h.103l.103.068.102.068.102.17.239.443.272.545.238.578.204.613.409 1.262.306 1.09.443 1.465.341 1.43.307 1.465.238 1.43.17 1.465.137 1.432.068 1.43v1.432l-.034 1.43-.103 1.396-.137 1.43-.203 1.396-.239 1.398-.272 1.361-.341 1.396-.375 1.361-.442 1.363-.442 1.328-.511 1.328-.546 1.33-.578 1.293-.614 1.295-.681 1.293-.681 1.262-.716 1.26-.749 1.227-.783 1.225-.817 1.193-.853 1.191-.885 1.193-.886 1.158-.92 1.123-1.294 1.5-1.328 1.498-1.396 1.43-1.431 1.363-1.465 1.361-1.532 1.328-1.567 1.262-1.566 1.227-1.635 1.191-1.669 1.158-1.669 1.123-1.704 1.057-1.736 1.055-3.542 1.976-1.771.92-1.806.885-1.805.887-1.839.816-1.806.783-1.839.75-1.84.75-1.84.682-1.805.646-1.839.613-1.806.613-1.805.545-1.806.51-1.771.512-1.737.441-1.737.443-1.737.41-.953.203-1.602.307-2.01.408-4.36.75-1.908.307-.816.102-.682.035-.477.033-.307-.033-.102-.035-.035-.068-.033-.102v-.137l.033-.135.068-.104.103-.137.136-.13zm78.37-144.382l-.307.034-.272.034-.238.102-.204.136-.171.204-.137.205-.102.238-.068.272-.033.17v.137l.033.136.034.136.136.273.171.272.238.204.307.205.307.136.341.068.307.034h.34l.308-.034.271-.103.103-.034.206-.136.067-.103.068-.102.067-.136.034-.136v-.51l-.067-.17-.068-.17-.17-.341-.241-.306-.271-.272-.341-.205-.137-.102-.17-.068-.171-.034-.17-.034zm-3.92 44.687l-.272.068h-.272l-.307-.068-.341-.136-.307-.17-.34-.205-.341-.306-.375-.307-.374-.34-.341-.409-.375-.408-.375-.477-.749-.954-.715-1.056-.716-1.09-.647-1.09-.612-1.056-.545-.988-.478-.92-.375-.817-.271-.681-.171-.477-.307-.92-.306-.919-.239-.954-.204-.919-.204-.886-.137-.919-.136-.92-.136-1.77-.068-1.704.034-.817v-.783l.068-.784.068-.749.103-.716.102-.681.103-.647.136-.613.137-.579.136-.545.17-.477.171-.443.171-.408.17-.341.17-.272.205-.238.17-.17.17-.103.171-.068.204.034.136.069.341.681.716 1.975 3.95 11.888.205.545.477 1.465.716 2.043.817 2.419.817 2.418.715 2.146.545 1.567.239.749.067.205.034.239v.238l.034.272-.034.477-.068.341-.033.17-.068.17-.103.205-.137.205-.409.409-.271.17-.309.132zm24.32-14.374h-.272l-.204.034-.171.069-.103.068-.034.068v.103l.034.102.068.103.545.511.579.51.068.137.068.136.068.137.033.205.034.375.034.34-.034.545-.034.784-.033.783v.613l-.034.477.034.442.033.443.034.34.034.137.068.136.068.103.102.068.068.034h.239l.103-.034.238-.102.272-.205.272-.239.307-.272.545-.579.477-.614.341-.476.137-.205.374-.715.341-.682.272-.613.239-.613.237-.614.238-.646.205-.716.204-.783.034-.102v-.136l-.034-.102v-.102l-.103-.137-.136-.102-.171-.069-.17-.034-.17.034-.17.103-.205.102-.238.103-.272.102-.341.102-.749.17-.817.102-.784.103-.748.102-.58.034-.44.032z" fill="#1f2c51"/><path d="M458.21 10.253l.988-.545 1.056-.477 2.18-.818 1.09-.307 1.056-.306 1.056-.239 1.056-.205.988-.17.92-.102.852-.068.783-.034h.681l.579.034.477.103.342.103.203.17.034.205-.136.272-.272.34-.408.375-.511.408-.647.477-.716.477-1.703 1.158-1.907 1.294-.987.715-1.056.715-1.022.784-1.021.783-1.295 1.022-1.328.987-1.362.988-1.329.886-.646.443-.646.375-.614.34-.612.306-.58.239-.578.205-.512.136-.476.068-.272.034-.273-.034-.271-.068-.239-.068-.238-.136-.239-.136-.203-.136-.204-.17-.375-.34-.307-.375-.272-.34-.204-.272-.137-.375-.034-.204.034-.205.034-.204.068-.239.067-.238.137-.272.341-.51.408-.58.511-.613.613-.614.682-.613.783-.647.817-.647.886-.647.919-.647.954-.647 1.022-.613 1.015-.581zm12.33 1.566l-1.09.886-1.125.886-1.157.885-1.227.92-2.521 1.805-2.588 1.874-2.623 1.873-2.555 1.874-1.261.92-1.226.919-1.192.954-1.124.919-.408.307-.375.204-.375.137-.34.068-.375-.034-.375-.068-.477-.17-.511-.238-1.158-.613-1.056-.579-.545-.239-.58-.238-.646-.17-.749-.136-.272-.034h-.272l-.239.034-.237.034-.239.102-.204.103-.204.136-.205.136-.306.341-.272.375-.239.409-.136.443-.17.545-.137.374-.103.205-.442.239-.442.204-.478.272-.204.17-.204.272-.068.239-.341.205-.341.034-.307-.068-.272-.17-.238-.272-.17-.375-.137-.409-.067-.442-.068-.511v-.51l.033-.511.068-.511.104-.477.136-.443.17-.409.204-.341.272-.238.205-.17.545-.511.817-.75.987-.885 1.09-1.022 1.09-1.021 1.056-.988.887-.851.782-.784.818-.886.852-.919.885-.954.92-.987.92-1.022.953-1.022.954-.987.477-.443.443-.409.442-.34.409-.307.374-.272.409-.205.341-.204.375-.136.681-.238.646-.205.647-.136.647-.205.715-.205.852-.205.988-.205 1.158-.204 1.294-.205 1.431-.205 1.601-.205 1.771-.204.682-.034 1.09-.034 1.327.034 1.432.068.681.068.682.102.613.137.511.17.238.103.204.102.341.205.171.306.034.307.136.307v.443l-.034.238-.068.205-.067.205-.273.408-.34.409-.272.34-2.864 2.311zm-26.908 15.873l-.341-.034-.272-.034h-.442l-.272.204-.171.443v.238l.308.272.271.068.307.034.682.136.272.136.306.137.273.102.307.034h.238l.238-.034.205-.136.203-.238.034-.239-.102-.238-.308-.272-.271-.17-.341-.136-.375-.102-.374-.103-.375-.068zm13.59 14.169l-.477-.137-.443-.034h-.442l-.375.069-.34.136-.272.17-.238.239-.137.306-.033.307.033.34.137.307.238.307.272.306.34.272.409.205.442.205.443.102.477.068h.409l.408-.068.341-.137.272-.17.204-.238.137-.307.068-.307-.068-.34-.137-.307-.204-.306-.272-.307-.341-.272-.408-.238-.443-.171zm-.511-2.282l-.442-.068-.478-.034-.477.034-.442.034-.478.068-.408.137-.442.136-.375.17-.375.171-.34.238-.308.238-.237.272-.171.307-.137.34-.102.34v.205l.067.579.103.409.137.409.204.409.238.375.238.409.307.409.341.375.341.34.374.341.375.306.442.272.409.239.443.205.442.17.442.103.478.068h.851l.442-.068.408-.137.375-.136.375-.171.34-.238.307-.238.273-.307.271-.307.205-.34.17-.375.136-.408.103-.443.034-.443v-.443l-.067-.408-.103-.409-.137-.408-.204-.341-.476-.68-.307-.272-.341-.272-.34-.238-.375-.239-.375-.205-.409-.136-.442-.17-.442-.102-.441-.072zm0-1.635h-.681l-.647.034-.647.069-.579.136-.579.137-.545.17-.477.238-.477.272-.409.272-.374.34-.307.375-.272.409-.205.443-.17.443-.137.511-.033.545v.545l.068.579.136.545.17.545.239.579.306.511.341.545.375.477.442.477.443.443.51.408.545.375.614.307.613.272.646.205.681.17.342.034.34.034h.682l.341-.034.306-.034.308-.069.306-.068.613-.205.579-.272.511-.306.511-.375.442-.409.409-.443.375-.511.307-.511.238-.545.17-.579.103-.272.034-.307.034-.306.034-.307v-.307l-.034-.272v-.306l-.068-.272-.137-.579-.203-.511-.273-.511-.341-.477-.374-.442-.409-.409-.477-.375-.511-.34-.545-.307-.579-.238-.613-.205-.647-.17-.646-.103-.718-.068zm-7.255-7.118l-.341.136-.374.137-.511.205-.238.102-.239.239v.34l.239.307.272.136.203.068.273.034h.238l.205.068.203.102.342.272.271.34.273.614.136.442.136.409.068.443.103.238.136.205.375.306.204.103.238.034h.239l.203-.034.716-.238.749-.205.716-.17.716-.136 1.43-.136h.716l.715.068.715.102.716.17.341.102.34.137.375.17.341.17.34.17.375.238.342.239.34.238.375.272.341.307.34.34.375.34.375.409.34.408.272.409.272.408.239.409.203.409.171.409.137.409.102.409.136.818v.783l-.034.409-.068.375-.068.408-.136.375-.103.409-.17.374-.17.375-.205.375-.204.375-.238.34-.272.375-.545.682-.613.681-.682.613-.749.613-.238.205-.17.204-.171.341.034.306.204.239.272.204.205.068.578.136.375.068.272-.068.272-.034.272-.103.272-.068.512-.238.51-.272.478-.34.442-.409.443-.408.409-.443.374-.511.341-.511.306-.511.307-.545.239-.545.238-.545.17-.545.171-.511.17-.852.137-.784.103-.817.033-.784v-.783l-.033-.783-.069-.784-.136-.783-.137-.749-.17-.75-.238-.749-.238-.75-.273-.75-.306-.75-.307-.749-.375-.75-.204-.409-.307-.511-.374-.579-.443-.613-.511-.647-.511-.715-1.158-1.362-.613-.681-1.26-1.26-.646-.545-.613-.477-.579-.409-.272-.17-.544-.272-.238-.069-.238.034-.342.17-.408.307-.477.34-.852.682-.511.443-.613.511-.715.545-.682.511-.613.545-.374.272-.478.374-.613.375-.612.409-1.057.647-.478.274zm-78.816 75.649l1.261 1.873 1.124 1.873.987 1.873.886 1.908.749 1.906.647 1.941.511 1.908.409 1.941.307 1.941.17 1.941.102 1.906-.033 1.943-.103 1.906-.204 1.908-.341 1.906-.375 1.908-.511 1.873-.579 1.84-.646 1.838-.75 1.84-.851 1.771-.887 1.771-.987 1.736-1.056 1.738-1.124 1.668-1.158 1.635-1.26 1.635-1.329 1.566-1.363 1.533-1.43 1.465-1.465 1.465-1.532 1.396-1.09.953-1.09.887-1.124.885-1.124.852-1.124.818-1.158.816-1.158.75-1.158.748-1.158.715-1.191.682-1.192.682-1.192.646-1.227.648-1.226.578-1.226.613-1.227.545-1.261.545-1.226.545-1.261.512-1.294.51-2.555.955-2.589.918-2.622.854-2.623.816-2.656.818-2.691.748-1.566.783.34.479 2.521.066 2.52.068 2.555.068 2.589.068 2.589.035 2.623.033h5.211l2.623-.033 2.622-.068 2.589-.104 2.588-.135 2.589-.172 2.521-.238 2.521-.271 2.521-.342 1.396-.203 1.396-.205 1.363-.17 1.293-.17 1.159-.172 1.021-.17.852-.135.612-.104 3.85-.715 3.781-.783 1.838-.408 1.84-.443 1.805-.443 1.807-.477 3.542-.954 1.771-.545 3.474-1.09 1.737-.613 1.702-.613 1.704-.646 1.702-.648 1.67-.715 1.668-.715 1.669-.783 1.67-.783 1.668-.818 1.636-.885 1.669-.887 1.635-.92 1.635-.986 1.669-.988 1.635-1.057 1.635-1.09 1.67-1.158 1.635-1.158 1.635-1.225 2.758-2.146 2.589-2.248 2.453-2.281 2.315-2.352 2.146-2.383 2.043-2.453 1.874-2.521 1.702-2.555 1.567-2.588 1.396-2.656 1.26-2.656 1.09-2.691.954-2.725.749-2.725.614-2.76.408-2.758.272-2.793.102-2.76-.102-2.76-.272-2.793-.442-2.725-.613-2.758-.817-2.725-.988-2.691-1.191-2.657-1.397-2.657-1.566-2.588-1.771-2.588-1.942-2.486-2.18-2.486-2.351-2.419-2.588-2.35-.682-.647-.681-.613-1.226-1.226-.579-.647-.545-.613-.545-.646-.478-.614-.477-.647-.442-.647-.442-.646-.409-.647-.375-.681-.341-.681-.34-.681-.308-.681-.34-.919-.614-1.908-.272-.954-.204-.988-.205-1.022-.203-.988-.137-1.022-.103-1.022-.103-1.021-.067-1.022-.034-1.021v-1.022l.034-1.021.067-.988.103-.988.137-.953.136-.954.204-.92.239-.919.271-.885.273-.818.341-.817.374-.783.375-.75.443-.715.476-.647.512-.613.545-.58.579-.51.646-.477.647-.409.239-.068.237.068.308.272.203.341.647 1.873 1.84 4.905 2.281 6.403.545 1.703.546 1.669.545 1.668 1.09 3.338.545 1.703.545 1.669.579 1.668.408 1.125.375 1.021.17.443.137.409.103.306.033.239.103.34.272.34.204.17.205.17.238.136.272.17.613.307.681.272.715.272.784.272 1.533.477 1.43.375 1.192.307.749.204.682.204 1.294.375.681.137.58.068h.238l.238-.102.067-.477-.034-.374-.204-.886-.171-.442-.171-.511-.203-.477-.239-.477-.476-.954-.272-.442-.238-.409-.272-.375-.272-.341-.238-.272-.239-.204-.919-.681-1.396-1.09-1.329-1.056-.578-.443-.442-.443-.512-.375-.545-.409-.545-.408-.545-.409-.511-.408-.442-.409-.443-.443-.136-.204-.103-.205-.137-.34v-.233l.204-.306.239-.171.272-.102.306-.103.342-.068.34-.034h.716l.749.102.716.103.681.17.545.136.988.239.885.238.817.205.818.272.782.272.784.341.851.408.887.511.953.511.817.511.682.476.306.239.239.272.238.306.204.341.171.375.136.408.068.443.068.545.034.579v.647l-.034.579-.068.511-.103.477-.102.545-.034.272-.034.306v.272l.034.272.102.579.137.511.103.239.306.17h.205l.477-.103.579-.136.408-.136.308-.204.237-.205.137-.238.068-.307v-.341l-.068-.375-.171-.375-.067-.238-.068-.238-.067-.272-.034-.307-.068-.613-.034-.613.034-1.26v-1.09l-.034-.238-.206-.544-.17-.272-.204-.272-.204-.239-.239-.272-.238-.238-1.056-.919-.92-.715-.442-.341-.443-.442-.204-.239-.102-.238-.034-.307.067-.306.171-.272.238-.171.375-.136.476-.068 1.328.034h1.363l1.361-.034 1.329-.102.646-.068.647-.103.647-.136.613-.17.613-.205.612-.238.579-.239.545-.306.307-.613v-.579l-.033-.511-.034-.443-.103-.34-.137-.307-.17-.204-.409-.273-.238-.068-.272-.034-.272.034-.341.035-.715.136-.783.204-.409-.034-.408-.034-.375-.068-.341-.068-.341-.103-.34-.102-.308-.136-.306-.17-.579-.34-.579-.375-.613-.477-.647-.511-.681-.409-.954-.034-.578-.068-.579-.069-.545-.102-1.09-.272-.511-.17-.478-.204-.477-.205-.443-.239-.442-.272-.409-.273-.374-.306-.375-.341-.341-.34-.341-.375-.307-.375-.272-.408-.272-.443-.238-.443-.408-.954-.137-.511-.17-.545-.103-.545-.067-.579-.068-.579-.034-.613-.034-.647.068-1.294.102-.715.103-.681.067-.784.103-.817.034-.409v-.41l-.034-.408-.068-.375-.102-.375-.17-.307-.239-.306-.306-.239-.375-.17-.205-.068-.238-.068-.271-.068h-.308l-.306-.035-.341.035-.238.102-.238.239-.239.272-.238.205-.136.204-.239.307-.306.273-.307.17-.204.068-.375.137-.375.068-.408.034h-1.056l-.613-.068-.646-.102-.647-.205-.307-.102-.271-.137-.273-.136-.271-.17-.239-.17-.204-.205-.204-.204-.137-.238-.375-.511-.34-.409-.375-.307-.341-.306-.34-.272-.308-.239-.34-.306-.272-.375-.272-.409-.239-.409-.203-.477-.205-.511-.17-.511-.137-.545-.103-.545-.067-.579-.034-.579v-.545l.034-.579.102-.545.137-.511.204-.511.239-.511.306-.442.987-1.26 1.807-1.771.748-.647 1.329-1.09.817-.886.238-.272.103-.238-.034-.205-.307-.307-.272-.068-.307-.068-.307-.034-.783-.034h-.817l-.783.034-.784.034-1.635.102-1.601.205-1.635.239-1.602.306-1.635.375-1.601.409-1.601.477-1.601.545-1.533.579-1.532.613-1.533.681-1.465.715-1.431.75-1.396.817-.716.442-.886.545-1.021.681-1.124.818-1.261.919-1.294 1.09-.682.579-.715.58-.715.647-.683.681-1.191 1.192-1.09 1.192-1.056 1.294-.988 1.294-.954 1.328-.885 1.362-.817 1.43-.783 1.431-.75 1.465-.681 1.498-.613 1.533-.579 1.533-.545 1.567-.511 1.601-.442 1.601-.443 1.635-.375 1.635-.34 1.669-.307 1.668-.273 1.669-.204 1.669-.204 1.703-.171 1.669-.136 1.703-.136 1.669-.068 1.703-.068 1.669-.034 1.668v3.338l.034 1.668.068 1.601.511 13.488.443 4.769.306 1.84.307 1.225.272.375.308.307.34.205 1.498.578 1.533.477 1.533.443 1.566.34 1.566.309 1.567.236 1.601.137 1.566.104 1.602.033 1.601-.033 1.566-.068 1.601-.137 1.567-.205 1.566-.238 1.567-.307 1.532-.34 1.533-.408 1.499-.443 1.465-.477 1.465-.545 1.43-.58 1.396-.611 1.362-.648 1.328-.682 1.295-.715 1.26-.75 1.227-.783 1.158-.816 1.124-.818 1.056-.886 1.022-.886.987-.919.578-.579.307-.306.273-.239.34-.102.341.068.204.17.239.204.203.205.205.239.442.579.375.614.375.715.375.749.34.818.341.818.579 1.635.511 1.6.409 1.432.307 1.123.306 1.227.272 1.191.205 1.227.204 1.227.136 1.227.103 1.227.034 1.26.034 1.227-.068 2.52-.103 1.227-.102 1.26-.171 1.227-.203 1.26-.239 1.227-.238 1.227-.307 1.227-.306 1.227-.75 2.382-.409 1.191-.442 1.16-.477 1.156-.477 1.125-.512 1.158-.545 1.09-1.158 2.18-.613 1.021-.646 1.057-.647.986-.682.988-1.771 2.385-1.874 2.316-1.975 2.213-2.044 2.146-2.146 2.043-2.215 1.977-2.282 1.906-2.35 1.807-2.418 1.736-2.487 1.67-2.554 1.6-2.589 1.5-2.656 1.463-2.691 1.363-2.759 1.295-2.759 1.191-2.793 1.158-2.827 1.09-2.861 1.021-2.861.953-2.895.887-2.896.783-2.895.783-2.896.682-2.896.613-2.895.578-2.861.512-2.861.441-2.86.375-2.793.342-2.794.271-2.759.205-.204-.035-.341-.17-.17-.307v-.373l.102-.342.307-.375.238-.203.545-.443.716-.512 1.566-1.158 1.601-1.227 1.635-1.361 1.67-1.43 1.635-1.533 1.669-1.635 1.635-1.738 1.602-1.771 1.566-1.873 1.532-1.941 1.499-2.01 1.431-2.076 1.362-2.146 1.26-2.18 1.192-2.248 1.09-2.283.988-2.314.852-2.385.749-2.385.613-2.451.442-2.453.307-2.486.137-2.486-.035-2.486-.203-2.521-.409-2.52-.613-2.521-.852-2.52-1.021-2.486-1.294-2.486-1.499-2.486-1.771-2.453-.853-1.057-.886-1.021-.885-.986-.954-.955-.987-.918-.988-.887-1.056-.852-1.056-.816-.307-.205-.307-.102h-.273l-.203.066-.103.24v.34l.272.443 1.021 1.156 2.797 3.333zm99.492-71.29l-.342.068-.238-.034-.238-.103-.374-.511-.171-.34-.068-.238.137-.307.17-.205.205-.205.272-.17.34-.17.375-.136.307-.103.272-.034.272.034.171.272.067.34-.034.238-.033.307-.103.307-.137.306-.204.272-.272.239-.374.173zm-.102-4.496l-.409.137-.442.102-.443.068-.409.068-.374.034-.307-.034-.204-.068-.103-.204.17-.272.239-.238.307-.239.374-.204.409-.239.408-.17.375-.136.375-.102.374-.069.341-.034h.307l.238.034.204.069.205.17.034.205-.239.34-.442.375-.307.136-.307.17-.374.101zm-1.329-2.793l-.408.17-.443.17-.477.136-.409.103-.408.068-.341.034-.238-.034-.103-.205.068-.204.307-.409.307-.272.375-.307.408-.272.409-.238.408-.205.375-.136.375-.137.374-.068.308-.034.271.034.238.034.205.171.067.204-.067.205-.137.205-.17.205-.544.408-.375.205-.375.169zm-2.01-3.031l-.374.239-.408.238-.443.205-.409.17-.375.136-.34.102-.238-.034-.137-.272.103-.239.17-.306.272-.341.307-.341.375-.34.375-.307.374-.272.341-.205.375-.17.341-.136.306-.103.273-.034h.203l.205.069.137.204-.034.272-.103.205-.137.272-.238.238-.238.239-.307.272-.376.239zm-21.185-13.522l-.068.272-.069.306-.067.273-.103.272-.102.238-.204.238-.205.103-.237-.205-.103-.205-.069-.238-.067-.307-.034-.306v-.578l.068-.238.067-.239.068-.204.103-.205.272-.239.272-.102.238.136.171.307.068.408v.513zm18.801 11.41l-.408.239-.409.238-.443.204-.408.17-.375.137-.307.068h-.238l-.17-.272.103-.239.17-.306.272-.34.681-.681.375-.307.375-.272.375-.204.34-.205.341-.102.307-.103.272-.034h.238l.238.137.068.204v.204l-.103.205-.17.239-.205.272-.271.238-.307.272-.341.238zM35.559 125.35v-21.636l.027-.546.028-.544.218-1.036.136-.49.191-.491.19-.463.246-.464.272-.436.272-.437.327-.407.327-.383.354-.382.381-.381.409-.327.436-.354.436-.3.463-.3.463-.272.491-.274.491-.244.518-.218.545-.218 1.09-.328.545-.163.572-.109.573-.109.599-.081.572-.056.6-.026h1.499l.98.082 1.063.136 1.09.163v-12.48l-.954-.054-.817-.055-.735-.027-.627-.028-.682.028h-.708l-.654.054-.681.055-.654.082-.627.109-.626.109-.6.137-.6.164-.599.163-.572.19-.545.191-.545.218-.517.246-.518.272-.491.273-.49.299-.463.299-.436.327-.436.354-.408.354-.381.381-.382.41-.354.408-.354.436-.327.463-.3.462-.274.495-.272.518-.245.518-.218.545-.191.572v-8.366H20.681v42.972h14.878M.845 66.897v58.394h14.987V66.897H.845m97.277 14.796v43.571h14.851v-21.01l.027-.653.055-.6.054-.599.082-.546.082-.518.082-.49.109-.463.218-.845.245-.79.218-.71.245-.654.164-.38.218-.382.245-.382.3-.326.354-.354.354-.299.409-.3.463-.273.463-.245.491-.218.518-.218.518-.191.545-.163.545-.136.572-.11.545-.082.573-.054h1.117l.572.028.518.054.545.108.491.137.49.163.463.192.409.244.408.273.381.299.327.355.272.382.246.408.191.463.19.518.218.546.218.598.218.656.164.734.164.763.054.437.055.436.027.464v23.733h15.123v-27.93l-.054-1.008-.082-.981-.11-.953-.136-.928-.19-.897-.19-.846-.246-.844-.272-.79-.328-.791-.326-.736-.381-.682-.409-.68-.436-.627-.491-.626-.518-.572-.545-.518-.572-.517-.626-.464-.654-.436-.709-.382-.735-.354-.764-.327-.791-.299-.844-.246-.872-.218-.927-.19-.954-.136-1.008-.109-1.036-.055-1.062-.027h-1.118l-.627.027-.626.055-.627.082-.626.081-.627.082-.6.136-.626.109-.599.164-.573.164-.599.191-.573.19-.545.218-.572.246-.545.245-.518.273-.518.272-.518.3-.491.3-.49.327-.463.327-.872.708-.436.382-.381.381-.381.382-.381.408-.354.436-.327.436-.299.436-.273.463-.272.463-.246.491v-8.177H98.122M214.28 62.946v11.036h14.414V62.946H214.28m0 16.077v46.267h14.414V79.023H214.28m33.79 46.327v-22.126l.027-.545.054-.545.082-.545.109-.519.163-.489.163-.519.219-.464.246-.462.244-.464.299-.436.301-.41.708-.816.382-.354.408-.355.409-.353.437-.327.463-.3.49-.272.491-.274.49-.244.518-.246.518-.189.545-.192.545-.162.572-.164.572-.11.573-.108.571-.082.6-.054.572-.028.599-.027.928.027.98.082 1.035.136 1.117.164V80.825l-.953-.082-.846-.055-.708-.027h-1.335l-.682.027-.682.055-.654.054-.653.082-.627.109-.626.109-.627.136-.6.164-.572.164-.572.191-1.09.436-.545.245-.98.544-.491.3-.463.327-.436.327-.437.354-.408.382-.409.381-.354.436-.382.41-.325.462-.328.463-.3.463-.272.518-.272.517-.245.546-.219.545-.218.571v-8.556h-12.998v43.925h14.879M0 181.29h3.434v-16.293H0v16.293m5.559-3.38l.136.436.164.408.191.382.245.325.272.328.3.301.327.271.354.246.409.218.409.19.463.164.463.136.518.107.518.057.572.054h1.226l.6-.054.572-.082.545-.136.491-.164.463-.19.436-.218.381-.246.354-.3.3-.3.272-.326.19-.354.164-.356.137-.38.054-.41.027-.408v-.354l-.054-.328-.082-.3-.109-.3-.137-.272-.164-.243-.19-.246-.218-.219-.272-.218-.327-.218-.381-.189-.463-.164-.49-.192-.545-.164-.6-.162-.654-.164-1.09-.243-.845-.219-.627-.191-.354-.137-.191-.136-.163-.164-.055-.082-.027-.082-.028-.079v-.218l.028-.084.054-.107.055-.082.054-.082.109-.082.082-.082.136-.08.137-.057.163-.054.164-.054.218-.028.463-.054.572-.028.463.028.409.082.164.025.19.082.163.057.137.08.164.109.109.108.109.11.218.272.082.139.054.161.055.164 3.079-.518-.136-.408-.164-.356-.191-.354-.19-.3-.246-.298-.245-.246-.3-.246-.299-.189-.327-.164-.382-.164-.409-.108-.436-.11-.463-.082-.518-.054-.572-.054h-.573l-.626.025-.573.028-.545.082-.49.11-.491.136-.409.164-.409.218-.354.219-.299.271-.272.271-.218.301-.191.325-.164.328-.082.354-.082.382v.817l.082.354.109.354.136.354.191.3.245.3.272.271.3.246.327.19.409.192.518.189.599.189.682.219.763.191.872.219.981.189.354.082.3.11.245.079.163.11.109.136.082.137.027.164.027.189v.136l-.027.139-.055.107-.054.136-.082.11-.109.108-.109.082-.136.109-.164.08-.164.057-.19.082-.218.025-.491.082-.545.028-.272-.028h-.246l-.245-.054-.218-.054-.218-.057-.218-.082-.164-.08-.191-.109-.164-.137-.136-.136-.136-.164-.109-.164-.109-.161-.081-.219-.082-.191-.055-.244-3.267.497m14.414 3.38h3.27v-16.293h-3.27v16.293m19.646-11.8v11.799h3.27v-5.749l.027-.79.028-.68.054-.303.028-.243.054-.246.082-.19.054-.164.082-.189.109-.136.109-.139.109-.134.137-.138.136-.108.137-.082.327-.191.327-.108.327-.054.354-.028h.272l.218.028.218.054.191.082.164.108.164.136.109.138.109.19.055.136.055.218.054.246.027.272.055.707.027.872v6.485h3.27v-6.239l.055-.518.027-.49.082-.407.109-.383.109-.328.136-.271.136-.218.191-.192.191-.162.19-.164.218-.109.218-.08.246-.057.245-.054h.491l.218.028.19.054.191.054.136.082.164.11.109.108.109.136.109.164.078.217.055.218.054.272.055.328.027.354.028.382v7.165h3.27v-7.983l-.028-.41-.027-.38-.055-.354-.082-.328-.081-.3-.082-.243-.109-.246-.136-.219-.137-.189-.163-.192-.164-.189-.19-.136-.191-.164-.19-.137-.218-.136-.246-.11-.245-.082-.246-.082-.272-.082-.272-.054-.299-.028-.3-.025h-.571l-.272.025-.246.028-.245.054-.272.082-.246.082-.218.082-.246.11-.245.136-.218.137-.246.136-.218.189-.436.382-.409.437-.136-.244-.164-.192-.164-.218-.164-.164-.191-.189-.191-.136-.218-.137-.19-.136-.246-.11-.218-.082-.245-.082-.246-.082-.272-.054-.272-.028-.272-.025h-.571l-.3.025-.245.028-.272.054-.272.082-.246.082-.245.082-.245.11-.245.136-.218.137-.246.136-.218.189-.218.164-.218.218-.218.192-.19.244v-1.608h-2.999m21.445-1.612h3.27v-2.888h-3.27v2.888m0 13.41h3.27v-11.799h-3.27v11.799m17.412-7.66l-.164-.521-.19-.49-.191-.516-.245-.492-.272-.464-.272-.408-.136-.189-.164-.164-.328-.272-.354-.219-.381-.164-.409-.164-.436-.136-.926-.164-.518-.028-.518-.025-.654.025-.627.082-.299.057-.3.054-.272.082-.272.108-.272.082-.272.136-.245.138-.245.137-.218.136-.246.189-.218.164-.218.19-.19.218-.191.218-.328.436-.164.274-.136.244-.109.271-.109.274-.109.3-.082.298-.054.328-.055.326-.054.355-.028.326-.027.382v.354l.027.628.055.598.109.574.164.571.218.519.246.516.299.464.354.464.164.218.218.219.218.189.218.164.246.164.245.162.245.109.3.137.272.107.6.164.327.054.354.057.328.025.381.028h.354l.572-.028.545-.054.518-.107.49-.164.463-.164.436-.246.408-.244.354-.3.354-.354.327-.354.272-.382.246-.437.245-.436.19-.49.164-.492.136-.518h-3.215l-.082.3-.082.274-.081.244-.109.246-.109.189-.109.192-.137.161-.136.139-.164.107-.164.11-.191.08-.164.056-.19.055-.218.054-.218.028h-.218l-.3-.028-.3-.026-.271-.082-.246-.082-.246-.109-.218-.162-.218-.164-.19-.218-.164-.218-.136-.272-.137-.328-.109-.354-.082-.382-.054-.437-.028-.464-.027-.516.027-.436.028-.437.054-.382.082-.356.109-.325.137-.272.136-.274.164-.218.19-.161.218-.164.218-.137.246-.136.246-.082.271-.054.273-.028.299-.028h.218l.218.028.218.054.191.028.164.082.19.082.137.08.163.11.136.136.109.136.109.139.109.161.082.19.082.191.055.219.054.218 3.216.114m62.294 7.66h3.024v-11.799h-3.27v6.05l-.054.899-.027.354-.027.3-.054.271-.055.192-.054.19-.083.164-.082.136-.109.164-.109.136-.137.136-.163.108-.163.138-.192.108-.163.082-.192.082-.38.108-.382.056h-.218l-.354-.028-.328-.054-.272-.11-.272-.136-.136-.108-.11-.082-.108-.11-.082-.136-.082-.107-.054-.139-.055-.161-.054-.137-.055-.436-.054-.628-.028-.844v-6.46h-3.27v7.875l.027.41.028.38.054.328.055.326.082.3.109.274.109.243.137.219.135.218.164.192.164.189.191.164.19.162.218.138.246.136.245.108.245.11.273.082.272.079.272.057.272.025.299.028h.6l.299-.028.299-.054.3-.054.272-.054.3-.11.273-.108.273-.138.272-.136.246-.137.244-.164.246-.189.218-.189.19-.219.192-.218.19-.218v1.774m21.013 0h3.297v-16.293h-3.297v16.293m6.64-13.41h3.27v-2.888h-3.27v2.888m0 13.41h3.27v-11.799h-3.27v11.799m17.42-7.66l-.164-.521-.19-.49-.218-.516-.218-.492-.273-.464-.272-.408-.163-.189-.163-.164-.137-.136-.191-.136-.354-.219-.762-.328-.436-.136-.464-.082-.49-.082-.491-.028-.545-.025-.654.025-.626.082-.3.057-.272.054-.3.082-.271.108-.246.082-.272.136-.246.138-.245.137-.246.136-.218.189-.218.164-.218.19-.19.218-.191.218-.163.218-.164.218-.163.274-.137.244-.108.271-.109.274-.108.3-.082.298-.082.328-.055.326-.027.355-.054.326v.382l-.028.354.028.628.082.598.108.574.164.571.19.519.272.516.3.464.327.464.19.218.191.219.218.189.245.164.218.164.246.162.272.109.272.137.3.107.299.082.301.082.326.054.328.057.354.025.354.028h.382l.572-.028.544-.054.519-.107.49-.164.463-.164.436-.246.381-.244.382-.3.354-.354.299-.354.299-.382.246-.437.218-.436.218-.49.163-.492.137-.518h-3.215l-.083.3-.081.274-.082.244-.109.246-.109.189-.136.192-.108.161-.164.139-.137.107-.164.11-.189.08-.191.056-.191.055-.19.054-.218.028h-.218l-.327-.028-.272-.026-.273-.082-.246-.082-.245-.109-.218-.162-.218-.164-.192-.218-.163-.218-.163-.272-.11-.328-.107-.354-.083-.382-.054-.437-.055-.464v-.952l.055-.437.054-.382.083-.356.107-.325.11-.272.163-.274.163-.218.192-.161.218-.164.218-.137.218-.136.272-.082.245-.054.3-.028.273-.028h.244l.218.028.191.054.191.028.19.082.164.082.164.08.136.11.272.272.109.139.081.161.082.19.082.191.055.219.054.218 3.243.114m22.23-4.14v2.454h1.825v9.345h3.271v-9.345h2.425v-2.454h-2.425v-.844l.027-.41.055-.354.027-.136.055-.108.082-.109.055-.082.082-.082.108-.055.11-.054.108-.054.273-.057.327-.027.382.027.381.028.381.054.382.082.436-2.18-.682-.191-.681-.108-.682-.082-.681-.028h-.327l-.3.028-.272.028-.299.054-.246.054-.245.082-.246.082-.218.082-.218.11-.19.108-.19.136-.164.136-.136.136-.136.164-.137.164-.109.19-.082.189-.083.218-.054.246-.054.274-.055.326-.027.328-.028.354v1.279h-1.825m15.94 11.802h3.434v-16.293h-3.434v16.293m9.84 0v-3.649l.028-1.282.027-1.062.082-.846.109-.598.055-.274.054-.218.082-.218.109-.162.082-.192.218-.272.136-.11.273-.164.272-.134.327-.056.327-.028h.191l.164.028.19.027.192.055.408.164.382.218 1.035-2.698-.273-.136-.244-.138-.273-.08-.272-.11-.272-.054-.272-.057-.273-.025h-.272l-.381.025-.381.082-.328.11-.327.164-.164.108-.163.136-.328.328-.382.464-.381.516v-1.662h-3.025v11.799h3.268m30.65.001v-7.329l-.027-.817-.081-.708-.027-.326-.082-.302-.082-.272-.082-.218-.108-.244-.109-.218-.136-.192-.164-.189-.19-.192-.19-.161-.218-.164-.246-.164-.245-.137-.272-.109-.272-.108-.3-.082-.327-.054-.326-.057-.327-.025h-.654l-.301.025-.299.057-.544.108-.272.082-.272.11-.244.108-.273.136-.245.164-.219.164-.245.164-.218.218-.218.189-.219.246-.19.219v-1.719h-3.052v11.799h3.271v-5.339l.027-.954.055-.764.026-.326.056-.271.054-.246.055-.219.082-.164.081-.189.109-.139.108-.161.109-.136.137-.139.162-.107.164-.11.164-.108.163-.082.19-.054.19-.082.382-.054.409-.028h.299l.301.082.271.082.246.136.245.192.191.218.163.244.109.271.081.383.054.518.028.68.027.846v6.021h3.267M73.462 157.64h3.487v-14.606h5.15v-2.97h-13.76v2.97h5.123v14.606m14.196-17.58h-3.324v17.576h3.324v-6.949l.028-.519.054-.463.082-.436.109-.381.109-.328.164-.272.164-.246.382-.378.218-.138.245-.108.272-.109.272-.055.3-.055h.599l.272.026.245.083.219.081.218.11.164.136.164.164.136.189.082.164.082.245.055.273.054.325.027.41.055.437v7.793h3.324v-7.468l-.027-1.008-.054-.817-.055-.354-.054-.325-.055-.274-.082-.245-.109-.299-.136-.274-.163-.271-.164-.218-.191-.245-.19-.191-.246-.189-.245-.192-.246-.135-.272-.137-.299-.108-.3-.11-.327-.08-.327-.027-.354-.057h-.654l-.272.028-.272.056-.245.026-.272.082-.245.082-.246.081-.245.109-.246.136-.218.137-.245.163-.219.164-.218.189-.19.219-.218.218-.191.218v-6.459m49.099 3.1h3.324v-3.105h-3.324v3.105m0 14.48h3.324v-12.726h-3.324v12.726m9.92 0v-4.66l.028-.653v-.601l.026-.546.028-.489.054-.408.055-.382.055-.3.054-.272.055-.246.082-.218.191-.382.109-.162.246-.246.136-.108.136-.081.164-.082.136-.056.163-.055.164-.025.163-.028h.354l.19.028.192.054.19.054.381.164.408.245 1.036-2.942-.246-.137-.272-.137-.272-.109-.272-.082-.273-.08-.272-.027-.272-.057h-.299l-.382.028-.381.082-.191.054-.164.082-.163.082-.164.082-.164.137-.164.136-.163.164-.164.189-.382.49-.381.573v-1.798h-3.08v12.726h3.325m6.24-.001h3.324v-17.576h-3.324v17.576m6.73-14.48h3.325v-3.105h-3.325v3.105m0 14.48h3.325v-12.726h-3.325v12.726m18.12 0v-7.931l-.026-.872-.055-.763-.054-.354-.082-.3-.082-.301-.082-.244-.109-.245-.108-.246-.163-.218-.165-.19-.164-.218-.218-.164-.218-.191-.245-.162-.246-.137-.272-.137-.299-.109-.3-.082-.299-.08-.327-.027-.354-.057h-.654l-.3.028-.301.056-.299.054-.272.081-.272.083-.272.108-.273.137-.245.136-.246.164-.245.189-.246.191-.218.19-.436.49-.19.246v-1.853h-3.106v12.726h3.325v-5.777l.026-1.008.055-.818.027-.354.054-.328.055-.244.055-.218.082-.192.081-.189.109-.164.109-.163.136-.163.136-.136.136-.138.164-.108.19-.109.164-.083.191-.081.19-.054.191-.055.19-.028.192-.026h.517l.299.082.3.108.273.137.218.218.191.219.164.272.109.3.082.408.054.572.054.735v7.386h3.324m36.89-12.729v2.643h1.854v10.083h3.297v-10.084h2.48v-2.643h-2.48v-.899l.028-.464.054-.354.054-.164.055-.136.055-.109.082-.109.082-.082.082-.054.109-.055.136-.056.273-.054.327-.026h.381l.382.055.381.054.408.082.436-2.344-.68-.189-.709-.138-.681-.08-.708-.028h-.299l-.328.028-.272.025-.3.055-.245.056-.273.082-.244.081-.218.108-.218.136-.191.11-.19.136-.164.163-.164.138-.137.189-.109.164-.109.189-.082.219-.082.246-.081.271-.055.3-.028.327-.054.355v1.77h-1.855m21.97.003h-2.262v-4.497l-3.324-.027v4.524h-1.526v2.669h1.526v5.559l.027.982.027.789.054.626.082.437.083.218.082.218.109.192.137.189.136.192.137.164.164.134.19.138.19.108.218.11.246.082.245.082.245.054.272.025.3.028h.327l.708.028h.655l.326-.028.299-.028.3-.079.3-.11-.273-2.698-.218.055-.191.054-.191.028h-.872l-.136-.028-.136-.054-.11-.055-.081-.054-.082-.082-.082-.107-.055-.11-.054-.218-.028-.382-.027-.572v-5.887h2.262v-2.669m5.641-4.85h-3.324v17.576h3.324v-6.949l.055-.519.054-.463.083-.436.082-.381.137-.328.135-.272.165-.246.19-.189.218-.189.218-.138.246-.108.245-.109.272-.055.3-.055h.6l.272.026.245.083.218.081.218.11.164.136.163.164.137.189.109.164.054.245.055.273.056.325.081.847.026 1.062v6.731h3.298v-7.468l-.028-1.008-.054-.817-.027-.354-.055-.325-.082-.274-.082-.245-.108-.299-.136-.274-.137-.271-.191-.218-.189-.245-.191-.191-.218-.189-.245-.192-.272-.135-.272-.137-.3-.108-.3-.11-.327-.08-.326-.027-.354-.057h-.654l-.272.028-.245.056-.272.026-.272.082-.245.082-.245.081-.246.109-.218.136-.245.137-.218.163-.218.164-.218.189-.218.219-.218.218-.191.218v-6.459m-52.407-28.09l5.177 13.216h16.785l-23.08-58.394h-19.4l-22.344 58.394h15.668l5.122-13.216h22.072l-3.597-10.49h-14.769l7.384-22.181 7.385 22.181M55.124 94.2l.327-.136.381-.19.463-.164.49-.19 1.118-.382 1.281-.382 1.417-.354 1.553-.327.791-.163.817-.137.844-.136.845-.109.844-.082.872-.082.845-.054.872-.028h.845l.845.028.818.054.817.082.791.136.763.164.735.189.708.218.681.273.626.3.6.355.572.408.136.136.272.328.109.19.109.218.082.218.082.246.054.272.109.544.082.628.027.68.027.737-1.09.108-1.035.054-.981.056-.981.054-1.826.027h-1.826l-1.826.027-1.907.082-1.009.081-1.062.081-1.09.139-1.145.189-1.036.191-1.009.244-.98.301-.954.354-.927.409-.872.463-.844.491-.791.545-.763.6-.735.626-.654.653-.627.708-.572.71-.518.762-.464.791-.409.817-.354.844-.3.874-.218.897-.164.9-.081.926-.028.927.055.953.136.953.19.982.3.98.354.981.436.98.546.981.627.98.708.98.817.981.19.245.251.223.218.19.245.219.545.381.573.354.626.299.682.3.681.246.736.245.736.191.79.164.791.136.817.136.818.082.817.054.845.028.845.027h.626l.627-.027.599-.028.6-.054.6-.055.572-.081.572-.082.573-.109.545-.108.545-.136.518-.138.518-.163.518-.164.49-.189.518-.218.463-.192.708-.354.708-.408.681-.464.708-.519.708-.571.708-.654.708-.681.708-.736.164.846.164.735.191.626.136.491.137.517.19.682.109.383.137.407.136.409.191.409h14.36l-.272-.654-.191-.653-.19-.627-.137-.627-.109-.572-.082-.572-.082-.49-.082-.463-.082-.437-.054-.489-.055-.519-.054-.571-.027-.601-.027-.653-.027-.683-.028-.708-.327-18.692-.027-.737-.055-.68-.082-.682-.109-.654-.136-.681-.191-.709-.19-.736-.246-.817-.163-.409-.164-.408-.164-.382-.218-.408-.218-.383-.218-.381-.246-.382-.245-.354-.518-.682-.518-.626-.518-.572-.463-.49-.354-.327-.354-.299-.381-.328-.409-.272-.408-.299-.436-.273-.436-.272-.463-.246-.49-.246-.463-.218-.491-.218-.49-.19-.49-.164-.491-.164-.49-.137-.491-.109-1.035-.19-1.09-.218-1.2-.191-1.253-.164-1.335-.164-1.417-.109L73 81.2l-1.554-.027h-1.008l-.982.03-.981.055-.953.081-.926.109-.899.109-.899.136-.872.164-1.008.19-1.253.272-1.335.3-1.39.354-.681.191-.626.191-.6.19-.545.218-.463.19-.384.22-.164.109-.136.109-.108.082-.082.109-.027 9.618 23.651 11.473v1.77l-.027.737-.027.709-.082.68-.082.628-.109.599-.164.573-.164.517-.218.491-.109.218-.109.219-.136.189-.136.164-.327.327-.354.299-.79.546-.981.6-.49.299-.491.219-.49.19-.49.136-.491.109-.518.055-.545.026-.599.028-.627-.028-.708-.054-.736-.108-.763-.137-.381-.081-.354-.082-.327-.082-.3-.11-.3-.136-.245-.107-.218-.137-.164-.164-.3-.328-.245-.354-.246-.381-.19-.409-.163-.436-.109-.437-.082-.463-.027-.49.027-.408.082-.464.109-.463.163-.437.19-.463.218-.408.272-.409.272-.328.191-.162.218-.19.272-.164.3-.191.354-.164.408-.189.409-.163.463-.164.49-.163.491-.164.517-.136.545-.11.545-.107.573-.082.545-.082.572-.027.817-.055.817-.026h.763l.736-.028h.735l.763-.027h.763l.791-.026M261.2 154.15l-.082.219-.081.189-.083.164-.108.136-.136.11-.109.107-.164.082-.136.082-.327.08-.327.057-.381.027h-.382l-.272-.027-.272-.028-.244-.054-.246-.108-.245-.11-.218-.136-.191-.164-.218-.189-.19-.218-.136-.246-.137-.272-.137-.274-.081-.297-.056-.328-.055-.354-.026-.354h8.311l.027-.382v-.465l-.054-.872-.054-.408-.056-.382-.081-.408-.081-.354-.11-.355-.108-.354-.136-.326-.164-.3-.136-.3-.191-.301-.163-.271-.218-.246-.191-.245-.218-.19-.19-.19-.218-.192-.218-.161-.246-.138-.245-.137-.246-.135-.244-.109-.544-.164-.301-.082-.299-.054-.599-.082-.682-.028-.572.028-.573.082-.271.054-.273.055-.244.083-.246.108-.49.218-.218.136-.218.164-.219.136-.218.189-.19.164-.19.219-.219.218-.218.271-.19.272-.164.273-.163.272-.163.3-.137.3-.109.3-.108.326-.081.354-.082.328-.055.354-.055.382-.027.354-.027.383-.027.407.027.409.027.381.027.382.11.708.082.328.081.354.108.301.109.325.137.3.136.272.164.274.19.271.19.246.191.244.218.246.19.164.218.189.218.164.219.136.218.136.245.137.272.109.245.108.273.082.299.082.273.082.325.054.628.054.681.028h.49l.928-.108.436-.11.408-.136.382-.164.381-.19.354-.218.354-.246.3-.271.3-.301.272-.354.244-.382.219-.382.218-.437.164-.462H261.2v-3.979h-4.986l.026-.325.027-.328.055-.301.082-.3.082-.271.136-.245.164-.218.163-.218.19-.163.19-.164.191-.136.219-.11.244-.081.218-.083.245-.026h.518l.245.026.218.083.218.081.218.082.191.136.38.328.164.189.136.246.137.245.109.245.081.3.055.327.054.327.028.354m-60.648.931v.381l.027.409.027.381.054.355.082.381.082.328.082.354.109.3.109.326.137.3.163.272.164.273.19.272.191.246.218.243.218.219.218.218.245.218.246.164.272.192.246.161.272.137.3.138.272.108.299.109.3.08.3.082.326.057.328.054.327.025.327.028h.79l.409-.054.436-.054.382-.082.408-.11.381-.136.382-.164.381-.19.354-.218.327-.218.327-.274.299-.271.301-.326.271-.328.246-.354.218-.38.218-.41.19-.408.164-.436.109-.438.109-.436.054-.463.055-.491v-.79l-.027-.327-.028-.326-.054-.301-.054-.299-.055-.328-.109-.271-.082-.3-.136-.272-.109-.3-.163-.271-.137-.274-.164-.271-.19-.245-.191-.245-.218-.274-.218-.218-.244-.218-.218-.218-.273-.19-.245-.189-.272-.164-.299-.136-.273-.137-.299-.109-.328-.108-.326-.082-.328-.055-.354-.054-.327-.056-.382-.028h-.354l-.464.028-.436.028-.408.054-.409.082-.408.109-.381.135-.382.164-.354.164-.708.436-.3.245-.3.273-.299.3-.246.325-.272.355-.218.381-.218.382-.164.408-.163.41-.137.407-.082.437-.082.436-.027.464-.027.463 3.406.163v-.463l.055-.436.082-.409.082-.382.136-.326.164-.328.164-.299.218-.272.218-.219.245-.218.273-.163.245-.137.272-.107.299-.082.3-.056h.598l.301.056.299.082.272.107.272.137.246.163.244.218.246.219.218.272.164.299.163.3.137.354.081.382.082.409.055.409v.953l-.055.437-.054.407-.109.383-.137.354-.137.328-.19.271-.218.272-.218.246-.246.189-.245.164-.273.136-.273.11-.272.08-.3.056-.3.028-.327-.028-.299-.056-.3-.08-.272-.082-.272-.164-.245-.164-.246-.189-.245-.246-.218-.244-.164-.3-.164-.328-.136-.354-.082-.354-.082-.436-.055-.437v-.464m38.477 21.819l.163-.41.191-.325.109-.136.109-.108.136-.11.109-.082.272-.136.327-.082.381-.082h.817l.354.028.3.082.272.08.218.109.191.108.137.138.108.137.082.189.054.3.028.354.027.436-.546.189-.708.192-.872.19-1.063.191-.872.19-.736.192-.327.107-.3.082-.245.107-.246.11-.19.108-.191.138-.191.136-.163.137-.164.164-.164.161-.135.164-.109.19-.109.191-.109.19-.081.218-.055.192-.055.243-.026.219-.027.246v.625l.054.354.11.356.107.325.164.3.19.301.246.243.272.246.301.246.3.19.354.164.354.136.381.082.408.082.41.054h.436l.544-.028.519-.054.489-.136.491-.164.464-.218.462-.272.437-.3.436-.382.436 1.308h3.217l-.191-.436-.163-.408-.109-.382-.108-.382-.055-.408-.056-.544-.026-.6-.027-.736.027-3.626v-.489l-.027-.462-.027-.41-.055-.382-.054-.354-.082-.271-.109-.271-.108-.219-.109-.191-.163-.162-.164-.192-.19-.161-.191-.139-.244-.136-.218-.136-.273-.108-.299-.11-.3-.107-.354-.057-.382-.082-.408-.054-.464-.028-.464-.025h-.49l-.571.025-.545.028-.491.054-.463.082-.437.11-.382.136-.353.164-.327.19-.3.218-.299.246-.246.271-.245.301-.191.325-.19.382-.19.383-.137.436 2.967.522 4.388 2.534v.628l-.027.598-.055.518-.027.219-.055.191-.054.162-.056.164-.163.246-.218.218-.246.218-.326.19-.327.164-.354.107-.354.082-.327.028-.19-.028h-.19l-.164-.054-.19-.054-.136-.054-.163-.082-.137-.082-.137-.11-.136-.136-.082-.108-.109-.136-.054-.139-.054-.161-.055-.136-.027-.164v-.301l.027-.164.027-.107.054-.136.082-.11.083-.107.082-.11.108-.11.136-.08.163-.109.436-.164.573-.162.681-.164.627-.136.518-.11.464-.107.354-.11m-52.65-.406v.382l.027.354.028.354.054.354.055.328.082.325.109.3.108.301.11.271.136.3.136.246.163.272.19.243.191.218.218.219.218.218.218.192.245.189.246.192.246.136.272.162.273.138.273.108.272.109.299.108.301.082.299.054.299.082.654.054.682.028h.408l.409-.028.409-.082.408-.079.381-.082.382-.137.382-.164.381-.164.328-.189.354-.218.3-.246.299-.272.299-.271.246-.3.272-.354.218-.355.218-.354.164-.38.164-.41.108-.407.109-.41.082-.437.054-.872-.027-.598-.082-.601-.082-.271-.054-.274-.082-.271-.109-.272-.109-.271-.136-.246-.137-.274-.164-.244-.327-.489-.409-.464-.218-.219-.218-.218-.246-.189-.245-.164-.273-.164-.245-.164-.299-.136-.272-.108-.3-.11-.299-.107-.328-.057-.327-.082-.354-.054-.327-.028-.354-.025h-.818l-.436.054-.408.054-.409.082-.382.082-.382.137-.381.138-.354.162-.354.192-.654.436-.272.271-.299.272-.245.3-.245.328-.246.326-.19.382-.19.354-.137.382-.136.38-.109.41-.054.408-.055.41v.432l3.352.164.028-.436.026-.382.082-.383.082-.354.136-.328.137-.298.191-.274.218-.246.218-.218.244-.189.246-.136.246-.137.272-.109.3-.082.272-.026.327-.028.299.028.3.026.272.082.273.109.272.137.245.136.246.189.218.218.218.246.19.274.136.298.136.328.082.326.081.382.055.41v.844l-.055.407-.081.383-.082.354-.136.328-.136.3-.19.272-.191.246-.245.218-.218.189-.245.164-.273.108-.271.109-.272.082-.3.026-.3.028-.301-.028-.299-.026-.299-.082-.273-.082-.272-.136-.246-.164-.244-.189-.218-.218-.218-.219-.191-.273-.137-.301-.136-.325-.082-.354-.082-.382-.026-.407-.028-.437m-8.913-21.222l-.082.219-.082.189-.082.164-.11.136-.136.11-.108.107-.164.082-.135.082-.328.08-.327.057-.382.027h-.381l-.272-.027-.272-.028-.245-.054-.245-.108-.246-.11-.218-.136-.19-.164-.218-.189-.191-.218-.136-.246-.164-.272-.109-.274-.082-.297-.054-.328-.054-.354-.028-.354h8.311l.028-.382v-.465l-.028-.436-.026-.436-.055-.408-.054-.382-.083-.408-.081-.354-.108-.355-.11-.354-.136-.326-.163-.3-.137-.3-.19-.301-.164-.271-.218-.246-.218-.245-.38-.38-.218-.192-.218-.161-.246-.138-.246-.137-.244-.135-.246-.109-.544-.164-.299-.082-.301-.054-.626-.082-.654-.028-.572.028-.573.082-.272.054-.272.055-.245.083-.245.108-.246.109-.245.109-.218.136-.218.164-.218.136-.218.189-.191.164-.19.219-.218.218-.218.271-.19.272-.164.273-.165.272-.163.3-.136.3-.108.3-.11.326-.081.354-.082.328-.055.354-.054.382-.055.354v.383l-.028.407.028.409v.381l.055.382.054.354.055.354.082.328.081.354.11.301.108.325.136.3.137.272.163.274.191.271.19.246.19.244.218.246.191.164.218.189.191.164.245.136.218.136.245.137.273.109.245.108.272.082.299.082.273.082.327.054.626.054.682.028h.49l.464-.054.463-.054.436-.11.409-.136.381-.164.382-.19.354-.218.354-.246.301-.271.299-.301.272-.354.246-.382.218-.382.218-.437.164-.462h-3.109v-3.979h-4.986l.027-.325.027-.328.055-.301.082-.3.082-.271.136-.245.164-.218.163-.218.191-.163.191-.164.19-.136.218-.11.245-.081.218-.083.245-.026h.518l.218.026.245.083.218.081.218.082.191.136.191.164.19.164.164.189.137.246.135.245.109.245.082.3.11.654.026.354m-41.55 31.121h3.024v-1.744l.191.246.191.219.218.189.218.218.218.164.49.328.246.136.272.108.245.11.272.082.245.079.273.057.272.025.245.028h.272l.518-.028.49-.054.491-.136.463-.19.436-.218.436-.274.41-.325.381-.382.192-.219.189-.218.164-.218.137-.246.136-.244.136-.271.11-.274.108-.271.082-.3.082-.301.082-.3.054-.325.055-.708.027-.71-.027-.736-.055-.68-.054-.328-.082-.3-.054-.326-.11-.274-.082-.271-.109-.271-.135-.272-.137-.246-.136-.218-.163-.218-.191-.218-.163-.19-.41-.382-.408-.3-.409-.272-.463-.218-.463-.164-.49-.11-.518-.082-.545-.025-.519.025-.49.082-.463.139-.463.162-.436.246-.436.271-.409.328-.381.382v-5.859h-3.271v16.292l3.243-6.157.028-.436.026-.408.055-.382.082-.328.137-.326.136-.3.136-.246.191-.246.218-.189.218-.162.218-.164.245-.11.245-.107.246-.057.272-.054h.572l.273.054.272.057.245.107.246.11.218.164.218.19.19.189.191.246.164.271.136.326.109.356.082.354.055.437.027.436.027.49-.027.464-.027.436-.055.382-.082.38-.109.328-.136.3-.164.272-.164.218-.218.218-.191.19-.218.138-.218.136-.245.082-.246.08-.245.028-.272.028-.382-.028-.354-.082-.354-.136-.354-.164-.164-.108-.164-.136-.137-.136-.136-.139-.136-.161-.11-.164-.108-.19-.082-.192-.109-.218-.055-.218-.082-.271-.054-.272-.054-.628-.028-.708m-32.34-5.644v16.269h3.297v-5.939l.463.462.436.354.218.164.218.137.218.136.218.11.436.164.436.107.464.054.49.028.518-.028.518-.054.463-.136.464-.19.463-.218.436-.274.409-.325.381-.382.191-.219.328-.436.164-.246.136-.244.109-.271.109-.274.109-.271.109-.3.055-.326.082-.3.054-.328.055-.708.027-.736-.027-.707-.055-.654-.054-.328-.082-.3-.055-.298-.109-.274-.082-.271-.137-.272-.109-.246-.136-.246-.164-.243-.164-.218-.164-.219-.191-.191-.381-.38-.409-.3-.436-.274-.436-.218-.463-.19-.491-.11-.49-.082-.518-.025h-.299l-.3.025-.272.057-.272.054-.544.164-.272.108-.245.138-.246.136-.245.137-.218.164-.218.189-.191.189-.191.192-.19.218-.163.219v-1.719h-3.055l3.243 5.695.027-.436.027-.382.055-.382.082-.326.136-.328.136-.271.136-.272.191-.218.218-.218.436-.328.245-.108.245-.109.272-.055.3-.054h.544l.272.054.272.055.245.109.218.108.246.164.19.192.218.189.191.246.164.271.136.301.109.325.082.356.055.408.027.407.027.464-.027.465-.027.461-.055.41-.082.354-.109.354-.136.3-.164.272-.164.218-.218.218-.191.164-.218.164-.245.108-.245.109-.245.055-.272.054h-.544l-.272-.054-.272-.055-.272-.109-.246-.137-.218-.164-.245-.189-.191-.218-.218-.246-.164-.3-.136-.326-.109-.328-.109-.408-.055-.41-.027-.436-.027-.49m13.728-17.548l-6.921-17.576h-3.706l-6.758 17.576h3.734l1.417-4.006h6.921l1.525 4.006h3.788l-6.431-6.949h-4.741l2.37-6.539 2.371 6.539M106.6 154.15l-.082.219-.081.189-.109.164-.109.136-.109.11-.137.107-.136.082-.137.082-.327.08-.354.057-.354.027h-.408l-.272-.027-.246-.028-.245-.054-.246-.108-.245-.11-.218-.136-.218-.164-.191-.189-.19-.218-.164-.246-.137-.272-.109-.274-.082-.297-.082-.328-.054-.708h8.31l.028-.382-.028-.465v-.436l-.054-.436-.027-.408-.082-.382-.055-.408-.109-.354-.082-.355-.137-.354-.109-.326-.164-.3-.163-.3-.164-.301-.191-.271-.19-.246-.218-.245-.19-.19-.191-.19-.218-.192-.218-.161-.246-.138-.245-.137-.246-.135-.272-.109-.245-.082-.3-.082-.272-.082-.299-.054-.627-.082-.654-.028-.572.028-.572.082-.272.054-.272.055-.245.083-.245.108-.246.109-.245.109-.218.136-.245.164-.218.136-.191.189-.218.164-.19.219-.218.218-.191.271-.19.272-.191.273-.164.272-.136.3-.137.3-.109.3-.109.326-.082.354-.082.328-.082.354-.027.382-.055.354v.383l-.027.407.027.409v.381l.055.382.027.354.082.354.055.328.109.354.109.301.109.325.137.3.136.272.164.274.164.271.191.246.218.244.218.246.19.164.191.189.218.164.245.136.218.136.245.137.246.109.272.108.544.164.3.082.299.054.654.054.682.028h.463l.49-.054.436-.054.436-.11.436-.136.382-.164.381-.19.354-.218.354-.246.3-.271.3-.301.272-.354.245-.382.218-.382.191-.437.19-.462H106.6v-3.979h-4.986v-.325l.055-.328.055-.301.054-.3.109-.271.137-.245.136-.218.191-.218.163-.163.218-.164.19-.136.218-.11.218-.081.245-.083.245-.026h.518l.218.026.245.083.218.081.191.082.218.136.19.164.191.164.164.189.136.246.137.245.109.245.082.3.054.327.055.327.027.354m5.639 27.871l-.082.189-.082.192-.218.272-.109.108-.136.11-.137.054-.164.082-.327.082-.354.054-.381.028h-.382l-.272-.028-.245-.025-.246-.057-.245-.082-.218-.107-.219-.137-.218-.164-.19-.164-.19-.218-.164-.218-.136-.244-.109-.246-.082-.3-.054-.3-.055-.3-.027-.354h8.202l.027-.354-.027-.408v-.41l-.055-.407-.027-.382-.082-.354-.055-.354-.109-.354-.082-.328-.136-.325-.109-.3-.136-.274-.164-.298-.164-.246-.19-.271-.191-.219-.218-.246-.19-.164-.191-.189-.218-.164-.218-.136-.245-.136-.218-.137-.246-.109-.272-.108-.544-.164-.272-.054-.3-.057-.599-.082-.654-.025-.573.025-.572.057-.518.136-.49.164-.491.218-.436.244-.409.3-.408.354-.218.218-.191.246-.19.246-.164.243-.164.274-.136.272-.136.271-.218.6-.109.301-.055.325-.082.328-.027.354-.055.328v.352l-.027.382v.356l.027.354.055.354.027.354.082.328.055.298.109.3.082.3.136.3.109.272.163.273.164.244.164.246.19.244.191.218.218.218.19.164.191.164.218.164.218.136.245.108.218.136.272.11.245.082.545.164.6.107.627.054.654.028h.491l.463-.054.436-.057.436-.107.409-.11.409-.136.354-.19.354-.189.654-.492.272-.3.272-.298.246-.356.218-.38.19-.382.191-.436h-2.996l-.082-3.68h-4.905l.027-.326.027-.3.055-.271.082-.272.082-.246.136-.218.137-.218.163-.19.191-.164.19-.138.218-.136.191-.108.245-.082.218-.054.246-.028h.49l.245.028.218.054.218.082.218.108.19.109.191.137.19.164.164.189.136.189.136.246.082.246.109.272.054.271.028.328.027.326m-24.553 6.933h3.46v-6.811h1.635l.817.027h1.063l.245.055.218.107.246.11.218.136.218.189.218.192.19.218.191.219.328.542.136.272.109.274.082.3.055.3.054.326.164 3.541h4.142l-.082-.107-.055-.11-.027-.136-.054-.164-.055-.38v-.437l-.027-.953v-1.282l-.055-.38-.082-.354-.082-.328-.109-.328-.136-.298-.137-.3-.164-.274-.191-.244-.19-.218-.191-.218-.218-.164-.245-.164-.218-.162-.245-.11-.245-.082.164-.025.164-.057.136-.054.164-.054.272-.192.272-.218.272-.244.246-.3.245-.3.19-.326.19-.355.164-.354.164-.382.218-.708.081-.354.028-.328.027-.3-.027-.354-.028-.354-.054-.354-.082-.328-.109-.325-.137-.3-.164-.301-.163-.271-.218-.246-.19-.246-.246-.218-.218-.218-.272-.162-.246-.164-.272-.136-.299-.136-.327-.082-.382-.108-.408-.056-.491-.082-.518-.026-.572-.054h-.627l-.654-.028h-7.275v16.296l3.46-9.4v-4.142h2.698l1.035.028h.817l.572.054.354.054.327.11.299.136.246.189.218.219.082.109.082.137.082.136.055.164.054.161.028.164v.192l.027.164-.027.218v.19l-.028.164-.054.161-.055.164-.082.137-.082.164-.082.109-.218.219-.246.189-.272.136-.299.11-.436.08-.627.027-.844.028-1.063.026h-2.562m-62.015 1.193l.164-.41.191-.325.109-.136.109-.108.109-.11.136-.082.272-.136.327-.082.354-.082h.845l.354.028.3.082.272.08.218.109.191.108.136.138.109.137.082.189.054.3.027.354v.436l-.517.189-.709.192-.872.19-1.063.191-.872.19-.736.192-.327.107-.299.082-.272.107-.218.11-.218.108-.191.138-.164.136-.19.137-.164.164-.136.161-.136.164-.136.19-.109.191-.081.19-.082.218-.055.192-.055.243-.054.219v.246l-.027.246.027.379.054.354.082.356.136.325.164.3.191.301.245.243.544.492.327.19.354.164.354.136.762.164.437.054h.436l.518-.028.518-.054.518-.136.491-.164.463-.218.463-.272.436-.3.436-.382.409 1.308h3.242l-.19-.436-.164-.408-.137-.382-.082-.382-.082-.408-.054-.544-.027-.6v-.736l.027-3.626v-.489l-.027-.462-.028-.41-.054-.382-.082-.354-.164-.542-.109-.219-.137-.191-.136-.162-.164-.192-.191-.161-.218-.139-.218-.136-.245-.136-.245-.108-.3-.11-.327-.107-.354-.057-.381-.082-.409-.054-.436-.028-.463-.025h-.518l-.545.025-.545.028-.49.054-.463.082-.436.11-.381.136-.381.164-.327.19-.3.218-.272.246-.245.271-.246.301-.218.325-.19.382-.164.383-.137.436 2.972.522 4.36 2.534v1.226l-.054.518-.027.219-.055.191-.055.162-.054.164-.164.246-.219.218-.245.218-.327.19-.354.164-.327.107-.354.082-.327.028-.218-.028h-.164l-.19-.054-.328-.108-.272-.164-.136-.11-.136-.136-.109-.108-.082-.136-.082-.139-.055-.161-.027-.136-.027-.164v-.301l.027-.164.027-.107.055-.136.055-.11.082-.107.218-.22.137-.08.163-.109.19-.082.246-.082.545-.162.708-.164.6-.136.545-.11.437-.107.354-.11" fill="#1f2c51"/></svg>