<svg width="284.5" height="39.313" viewBox="0 0 75.273 10.402" xmlns="http://www.w3.org/2000/svg"><path d="M64.597 8.395h-6.108a.186.186 0 01-.185-.185V2.577a.186.186 0 00-.186-.186H56.42a.495.495 0 00-.495.495V9.95c0 .102.084.185.186.185h7.15c.82 0 1.484-.665 1.484-1.485v-.106a.149.149 0 00-.148-.149m-17.11-1.95l1.107-2.123c.006-.012.024-.012.03 0l1.108 2.123a.017.017 0 01-.015.026h-2.215a.017.017 0 01-.015-.026m-.824-2.98l-3.088 5.922c-.178.34.07.749.454.749h1.41a.203.203 0 00.18-.11l.94-1.8a.204.204 0 01.18-.11h3.741c.076 0 .145.043.18.11l.719 1.378a.99.99 0 00.878.532H53.7c.152 0 .25-.162.18-.297l-3.324-6.374a1.997 1.997 0 00-1.77-1.074h-.353c-.744 0-1.426.415-1.77 1.074m-42.43 3.01l1.135-2.178 1.136 2.178zm-.806-3.014L.32 9.417a.495.495 0 00.439.724h1.449c.07 0 .132-.039.165-.1l.948-1.82a.185.185 0 01.165-.1H7.25c.07 0 .133.039.165.1l.723 1.387a.99.99 0 00.878.533h1.471c.14 0 .23-.148.165-.272L7.31 3.461a1.98 1.98 0 00-1.755-1.065h-.373c-.738 0-1.414.41-1.755 1.065m20.906 1.504a.99.99 0 01-.99.99h-2.72a.186.186 0 01-.186-.185V4.16c0-.103.083-.186.185-.186h2.72a.99.99 0 01.99.99zm3.06 4.9L26.11 7.387a1 1 0 01.185-1.161 2.258 2.258 0 00-1.615-3.835h-6.127a.495.495 0 00-.495.494V9.95c0 .102.083.185.186.185h1.697a.495.495 0 00.495-.495V7.76c0-.102.083-.185.186-.185h2.33a.99.99 0 01.879.534l.773 1.492a.99.99 0 00.88.534h1.745c.14 0 .23-.147.165-.27m37.123-7.7H63.16a.186.186 0 00-.143.305L67 7.275a.99.99 0 01-.03 1.299L65.822 9.83a.185.185 0 00.137.31h2.103c.139 0 .27-.058.365-.16l.43-.468.824-.902a.99.99 0 00.03-1.3L66.04 2.88a1.98 1.98 0 00-1.525-.716" fill="#5d0632"/><path d="M71.017 7.145l1.153-1.264a.186.186 0 00.006-.243L68.316.983a1.98 1.98 0 00-1.524-.717h-1.357a.186.186 0 00-.143.304l5.445 6.569c.072.087.204.09.28.007" fill="#3dbdae"/><path d="M74.827 2.505h-1.453a1.98 1.98 0 00-1.462.645l-.223.245a.186.186 0 00-.006.244l1.068 1.29c.072.086.203.09.28.006l1.933-2.118a.186.186 0 00-.137-.311m-61.879 7.639h1.697a.495.495 0 00.495-.495V2.587a.185.185 0 00-.185-.186h-1.698a.495.495 0 00-.495.495V9.96c0 .102.083.185.186.185m16.971 0h1.697a.495.495 0 00.495-.495V2.587a.186.186 0 00-.186-.186h-1.697a.495.495 0 00-.495.495V9.96c0 .102.083.185.186.185m3.724-6.26v.07c0 .102.083.185.185.185h3.324c.273 0 .495.222.495.495v5.324c0 .102.083.186.185.186h1.698a.495.495 0 00.495-.495V4.326c0-.103.083-.186.185-.186h2.334c.82 0 1.485-.665 1.485-1.485v-.069a.186.186 0 00-.186-.185h-8.716c-.82 0-1.484.664-1.484 1.484" fill="#5d0632"/></svg>