<svg width="102" height="37" xmlns="http://www.w3.org/2000/svg"><g fill="none" fill-rule="evenodd"><path fill="#E53835" d="M89.94 21.693L87.5 19l-2.44 2.693L73 35h4.88l9.62-10.616L97.122 35H102zM97.054 1L87.5 11.54 77.95 1H73l12.026 13.268L87.5 17l2.475-2.732L102 1z"/><path d="M40.68 27.846c2.5 2.574 5.958 4.269 9.554 4.269 4.56 0 7.265-2.271 7.265-5.645 0-3.547-2.517-4.678-5.797-6.11l-4.992-2.2c-3.238-1.381-7.038-3.835-7.038-8.943C39.672 3.912 44.298 0 50.612 0c4.12 0 7.793 1.783 10.234 4.303l-2.452 2.739c-2.107-1.95-4.623-3.157-7.781-3.157-3.898 0-6.479 1.964-6.479 5.071 0 3.346 3.03 4.597 5.753 5.747l4.953 2.142C58.86 18.572 62 20.967 62 26.13 62 31.617 57.463 36 50.156 36 45.28 36 41.037 34.011 38 30.845l2.68-2.999zM17.72 1.148s-.04 16.962-.04 21.174c0 5.38-2.421 7.464-2.5 7.546-2.764 2.884-7.49 3.105-10.442.424-.769-.698-1.461-1.449-2.115-2.14L0 31.154c.534.572.886.973 1.515 1.618 2.221 2.278 5.123 3.447 8.005 3.478 2.883.03 6.434-1.077 8.58-3.293l.055-.055c.101-.104 3.8-3.631 3.818-9.828V1.148H17.72z" fill="#88898C"/></g></svg>