<svg width="189.82" height="69.313" viewBox="0 0 50.222 18.339" xmlns="http://www.w3.org/2000/svg"><defs><radialGradient id="a" cx="0" cy="0" r="1" gradientTransform="translate(30.224 -25.326) scale(10.175)" gradientUnits="userSpaceOnUse"><stop stop-color="#00aeef" offset="0"/><stop stop-color="#00aeef" offset=".476"/><stop stop-color="#0b4379" offset=".799"/><stop stop-color="#1e285a" offset="1"/></radialGradient></defs><path d="M12.819-30.517c2.369 1.256 8.545 5.834 15.115 7.695.316.09.629.172.938.247a24.96 24.96 0 007.887.647c-9.584-1.618-12.616-4.344-13.051-4.933a1.258 1.258 0 01-.072-.103c-.028-.013 1.553-1.546 4.603-1.507 3.81.05 6.391 1.21 6.391 1.21a16.576 16.576 0 00-3.834-1.66 15.412 15.412 0 00-1.84-.44 12.22 12.22 0 00-1.173-.166c-1.97-.207-3.44.223-4.664.654-1.147.402-2.627 1.16-4.59.317-.844-.362-1.433-.482-2.403-.374-1.53-.634-2.683-1.384-3.257-1.632z" fill="url(#a)" transform="translate(-12.687 35.717)"/><path d="M50.074 3.246c.015-.07.044-.243-.061-.264-.123-.025-.27.315-.31.39-.324.62-.267.843-.21 1.813.058.97-.076 1.525-.114 1.704-.039.178-.14.46-.02.472.122.013.192-.102.415-.645.224-.542.275-1.346.28-1.837.007-.452-.064-.902-.023-1.351.009-.094.023-.188.043-.282M44.092 4.78c-.083-.038-.217.246-.415.537-.198.29-.41.542-.805.51-.396-.032-.25-.51-.211-.684.03-.14.062-.28.083-.422.011-.078.026-.162.018-.24-.005-.047-.035-.072-.084-.066-.104.013-.209.175-.256.258-.063.11-.106.23-.147.35-.057.164-.094.334-.145.5-.044.149-.063.22-.063.22-1.54.982-4.941 1.427-6.437 1.473-1.495.045-3.207-.284-4.082-.66-.876-.374-.985-.71-1.023-.684-.038.026-.288.452-.505.704-.217.252-.773.698-1.105.252-.333-.445-.55-.517-.672-.536-.721-.115-1.655 1.014-1.834 1.57-.134.329-.313.878-.242.878.07 0 .076-.039.402-.555.411-.652.914-.872 1.272-.795.358.078.313.601.805.62.78.039 1.361-.904 1.444-.994.083-.091.058-.091.18-.02.12.071 2.217 1.111 4.542 1.182 3.406.103 7.248-1.883 7.248-1.886 0 0 .013.588.518.536.773-.045 1.316-1.26 1.463-1.57.147-.31.098-.455.051-.477" fill="#20285c"/><path d="M38.881 3.952c.348.11.601.397.64.489.038.092.01.155.063.165.04.007.122-.087.147-.109a5.13 5.13 0 00.5-.5.854.854 0 00.054-.068c.02.009.042.016.064.023.348.11.6.397.64.489.038.092.009.155.062.165.04.007.123-.087.147-.109.177-.155.348-.322.501-.5.083-.097.135-.178.08-.306a.821.821 0 00-.229-.277 2.85 2.85 0 00-.401-.287c-.072-.043-.187-.142-.278-.115-.075.021-.152.132-.203.187-.13.141-.256.288-.375.438l-.006.008a.912.912 0 00-.205-.23 2.818 2.818 0 00-.424-.302c-.08-.046-.201-.142-.295-.08-.08.052-.153.154-.216.225-.11.124-.237.25-.329.389-.16.242-.043.27.063.305m-12.038 0c.348.11.601.397.64.489.038.092.01.155.063.165.04.007.122-.087.147-.109a5.13 5.13 0 00.5-.5.852.852 0 00.054-.068c.02.009.042.016.064.023.348.11.6.397.64.489.038.092.009.155.062.165.04.007.123-.087.147-.109.177-.155.348-.322.501-.5.083-.097.135-.178.08-.306a.821.821 0 00-.229-.277 2.85 2.85 0 00-.401-.287c-.072-.043-.187-.142-.278-.115-.075.021-.152.132-.203.187-.13.141-.256.288-.375.438l-.006.008a.912.912 0 00-.205-.23 2.818 2.818 0 00-.424-.302c-.08-.046-.201-.142-.295-.08-.08.052-.153.154-.216.225-.11.124-.237.25-.329.389-.16.242-.043.27.063.305m15.774 4.313a2.857 2.857 0 00-.401-.288c-.073-.043-.187-.14-.279-.114-.075.021-.152.131-.202.187-.13.14-.255.287-.375.438l-.006.008a.918.918 0 00-.205-.231 2.821 2.821 0 00-.424-.302c-.08-.045-.201-.141-.295-.08-.08.053-.153.155-.216.225-.11.124-.237.25-.329.39-.16.242-.043.27.063.304.348.111.6.398.64.49.038.092.01.155.063.164.04.008.122-.086.147-.108a5.13 5.13 0 00.5-.5.723.723 0 00.053-.068c.02.009.043.016.065.022.348.111.6.398.64.49.038.092.01.155.062.164.04.008.123-.086.148-.108a5.08 5.08 0 00.5-.5c.083-.097.135-.178.079-.306a.824.824 0 00-.228-.277m-10.911 0a2.857 2.857 0 00-.401-.288c-.073-.043-.187-.14-.279-.114-.075.021-.152.131-.202.187-.13.14-.255.287-.375.438l-.006.008a.918.918 0 00-.205-.231 2.821 2.821 0 00-.424-.302c-.08-.045-.201-.141-.295-.08-.08.053-.153.155-.216.225-.11.124-.237.25-.329.39-.16.242-.043.27.063.304.348.111.6.398.64.49.038.092.01.155.063.164.04.008.122-.086.147-.108a5.13 5.13 0 00.5-.5.723.723 0 00.053-.068c.02.009.043.016.065.022.348.111.6.398.64.49.038.092.01.155.062.164.04.008.123-.086.148-.108a5.08 5.08 0 00.5-.5c.083-.097.135-.178.079-.306a.824.824 0 00-.228-.277m17.548-6.193c.126-.3.04-.354 0-.354-.087 0-.33.436-.59 1.003a2.684 2.684 0 00-.252 1.284c.004.29-.02 1.288-.04 1.4-.108.625-.455 1.05-.944.89-.363-.188-.356-2.588-.273-2.68.38-.42 1.656-2.125 1.698-2.17.329-.415.29-.67.29-1.192 0-.196-.107-.116-.197-.02-.015.016-1.591 1.9-1.99 2.618-.344.619-.096 2.787-.22 3.053-.229.485-.863.758-.863.758-.02-.14-.099-.439-.4-.788-.3-.348-.774-.101-.958.19-.186.291-.52.834-.443 1.202.077.368.467.506.705.506.227 0 .472-.099.534-.047.101.083-.244.268-.416.39-.44.307-1.006.61-1.172.708-.139.08-.422.195-.383.302.026.072.122.036.177.027.14-.023.539-.112.772-.155.934-.175 1.115-.617 1.337-1.204.186-.494.972-1.27 1.085-1.27s.028.829.615.829c1.687 0 1.647-3.323 1.633-4.002-.015-.678.17-.978.295-1.278M29.43 15.106l-1.348-1.595 1.774-1.867h-.624l-1.747 1.831v-1.83h-1.334v.237l.066.002c.437.018.52.096.52.492v3.633h.748v-2.096l1.783 2.096h1.196v-.236l-.064-.004c-.335-.024-.562-.179-.97-.663m4.394-.847c0 .96-.33 1.407-1.038 1.407-.683 0-.987-.41-.987-1.33v-2.692h-1.335v.24h.068c.426.006.518.093.518.49v1.935c0 1.195.53 1.775 1.621 1.775 1.09 0 1.597-.58 1.597-1.825v-2.615h-.444zm6.153-2.615l-.87 2.971-1.014-2.971H36.88v.24h.07c.291 0 .524.201.627.54l-.762 2.171-.883-2.951h-1.139v.24h.07c.248 0 .432.189.544.561l1.065 3.614h.355l1.007-2.889 1.008 2.889h.33l1.281-4.415zm4.045 3.532l-1.405-3.532h-1.121v.24h.068c.422.008.422.129.422.18 0 .035-.025.133-.097.305l-1.457 3.64h.467l.554-1.4h1.554l.56 1.4h1.11v-.24h-.068c-.277-.006-.403-.134-.587-.593m-1.172-.96h-1.234l.617-1.552zm1.826-2.334l.067.002c.44.018.519.092.519.491v3.634h.749v-4.365h-1.335zm5.414-.238h-3.576v1.105h.202l.011-.055c.073-.363.147-.505.306-.581.125-.06.27-.076.67-.076h.236v3.97h.75v-3.97h.236c.755 0 .856.067.976.657l.012.055h.176zm-23.072 6.541l-.157-.395h-.465l-.156.395h-.09l.4-.999a.322.322 0 00.03-.093c0-.047-.044-.068-.14-.07v-.029h.284l.391.983c.054.134.095.177.183.18v.028zm-.389-.975l-.202.509h.405zm3.639.975V17.18c0-.124-.03-.152-.164-.158v-.029h.336v1.19zm4.093-.172c.061.091.136.143.201.143v.029h-.28l-.37-.552h-.11v.552h-.172V17.18c0-.12-.036-.154-.165-.158v-.028h.487c.302 0 .445.103.445.322 0 .117-.048.206-.14.256a.437.437 0 01-.157.047zm-.56-.452c.14 0 .182-.002.225-.01.131-.026.192-.101.192-.235 0-.176-.097-.25-.328-.25-.08 0-.088.007-.088.1zm4.649.638h-.065l-.298-.854-.297.854h-.072l-.296-1.004c-.034-.113-.091-.172-.172-.172v-.029h.287l.261.875.237-.674c-.03-.108-.104-.172-.197-.172v-.029h.309l.3.882.259-.882h.093zm4.007-.014l-.157-.395h-.465l-.156.395h-.09l.4-.999a.322.322 0 00.03-.093c0-.047-.044-.068-.14-.07v-.029h.284l.391.983c.054.134.095.177.183.18v.028zm-.389-.975l-.202.509h.405zm3.945.423v.358c0 .13.031.16.165.165v.029h-.337v-.545l-.258-.402c-.108-.168-.158-.211-.265-.215v-.028h.3l.352.544.345-.544h.1zm3.782-.595c-.204.012-.308.075-.308.188 0 .093.07.163.263.26.25.127.34.23.34.385 0 .198-.17.335-.406.335-.064 0-.12-.008-.274-.044 0 0-.038-.01-.074-.013l-.028-.28h.028c.054.167.172.259.334.259.143 0 .247-.09.247-.214 0-.105-.07-.179-.267-.279-.134-.068-.222-.13-.26-.19a.295.295 0 01-.054-.17.26.26 0 01.131-.237c.08-.045.162-.061.328-.065z" fill="#20285c"/></svg>