<svg viewBox="0 0 319.23 37.386" xmlns="http://www.w3.org/2000/svg"><path d="M149.72 19.78s2.085-4.897 2.975-6.308c0 0 2.546 3.496 3.446 6.369 0 0-2.872.45-6.421-.061m-59.61-3.72v-5.52s.059-4.118 3.315-4.118c3.273 0 2.862 4.002 2.895 4.508.027.516-.182 5.129-6.21 5.129zm10.2-13.804s-15.88 1.187-24.448.389c0 0-1.02-.273-1.301.906 0 0-.555.898.34 1.52.895.623 3.494 2.142 3.494 7.777v10.87s.508 5.978-3.61 8.226c0 0-.84.284-.392 1.472 0 0 .058 1.069 1.245.903 1.177-.174 7.83-.68 16.956-.058 0 0 .785.058 1.003-.458.232-.495.292-.556.292-.556s.793-.787-.403-1.577c-1.176-.787-3.151-1.975-3.317-6.988-.168-5.018 0-5.126 0-5.126h.73s2.527-.232 4.222 3.616c0 0 3.273 7.877 3.776 8.832.51.964 1.467 2.989 5.018 2.65 3.547-.335 20.102-1.523 37.687.057 0 0 1.917.282 2.65-1.58 0 0 3.04-8.167 3.77-9.47 0 0 6.426-.166 9.92-.11 0 0 1.29 2.2 1.29 4.85 0 2.648-2.303 3.27-2.303 3.27s-.962.389-.509 1.577c0 0 .169 1.13 1.296 1.013 1.121-.116 11.208-1.069 26.418-.116 0 0 1.016.4 1.35-.953 0 0 .622-1.071-.45-1.58 0 0-3.99-.897-3.99-7.272 0-6.369.054-10.868.054-10.868s3.036 4.334 6.643 10.82c3.607 6.476 5.524 9.24 5.524 9.24s1.803 3.495 5.347 1.633c3.549-1.856 7.38-4 9.578-5.527 0 0 .851-.39.393-1.47l-.332-.67s-.06-.392-1.24-.508c0 0-2.649.624-2.71-3.155-.05-3.77-.226-9.125 0-14.589 0 0 .117-3.386 3.215-4.341 0 0 1.122-.108.616-1.462l-.337-.682s0-.563-.784-.447c-.787.116-5.184.505-9.855.116 0 0-1.016 0-1.135 1.121 0 0-.276 1.02.514 1.354.787.337 3.543 1.353 3.72 5.687.163 4.35.221 10.37.221 10.37s-6.424-9.465-10.537-16.731c0 0-.671-1.975-3.104-1.801-2.409.165-8.223.447-12.445.047 0 0-1.185-.163-1.354 1.19 0 0-.337 1.18.677 1.685 0 0 3.383 2.143 3.383 2.875 0 .738-.063 15.724-.063 15.724s.29 6.143-1.348 5.353c0 0-.956.619-3.265-3.61-2.309-4.226-5.297-10.252-10.139-21.977 0 0-1.019-3.265-3.098-3.265 0 0-1.24.061-2.533.782-1.298.74-5.414 3.05-9.692 4.292 0 0-1.127.334-.792 1.461 0 0-.164.84 1.071 1.307 1.238.444 2.31.953 2.646 1.566 0 0-1.292 4.17-3.662 8.462-2.367 4.276-5.403 11.374-14.138 11.374h-3.439s-.898.108-.898-1.127v-9.067H130s3.657-.793 5.411 3.941c0 0 .331 1.464 1.572.898 0 0 1.405-.166 1.295-1.577-.11-1.403-.218-5.24.055-8.618 0 0 .116-1.013-1.013-1.237 0 0-.898-.45-1.578.282-.673.729-2.085 2.472-5.297 2.472h-2.638v-8.45s-.06-.557.329-.615c.392-.058 5.3-1.246 8.17 1.06 2.872 2.318 3.05 3.274 3.662 4.121 0 0 .561 1.412 2.025.459 0 0 1.132-.177.566-1.922-.566-1.757-.73-2.365-1.685-6.764 0 0-.177-1.862-2.088-1.685-1.914.166-13.909 1.577-25.18.67 0 0-1.18-.28-1.41.965 0 0-.51.837.448 1.624 0 0 3.32 1.53 3.32 7.383v9.807s.569 7.778-2.19 7.778c0 0-1.188.505-3.21-3.497-2.027-3.999-2.14-4.115-2.14-4.115s-1.635-5.248-8.68-5.466c0 0 9.746-1.632 8.846-8.957 0 0-.166-5.582-7.485-5.803M233.14 13.08c3.046 4.334 3.444 6.366 3.444 6.366-2.417.4-6.416-.055-6.416-.055 1.171-3.157 2.972-6.311 2.972-6.311m25.53 9.131s.22 7.374-2.54 6.866c0 0-.963.624-3.27-3.601-2.303-4.22-5.294-10.252-10.138-21.97 0 0-1.014-3.272-3.1-3.272 0 0-1.234.06-2.53.781-1.3.74-5.41 3.055-9.688 4.292 0 0-1.135.335-.796 1.462 0 0-.17.847 1.075 1.295 1.237.458 2.312.956 2.643 1.58 0 0-1.29 4.165-3.66 8.449-2.364 4.286-4.455 10.537-10.026 13.35 0 0-1.08.233-.732 1.53.395 1.462 1.127 1.07 1.127 1.07 6.477-.68 8.452-.116 9.919 0 1.46.107 1.234-1.07 1.234-1.07.392-.74-.11-1.187-.11-1.187l-.619-.79s-2.425-.624 1.01-7.548c0 0 6.43-.166 9.92-.116 0 0 1.3 2.193 1.3 4.841 0 2.657-2.315 3.27-2.315 3.27s-.96.398-.513 1.578c0 0 .174 1.13 1.303 1.022 1.124-.116 19.831-.906 35.041.05 0 0 1.066.057 1.345-.896 0 0 .625-1.187-.444-1.861 0 0-2.991-1.354-3.212-6.134-.23-4.8-.166-13.873-.166-13.873s-.23-5.066 2.977-6.637c0 0 .845-.404.4-1.533 0 0-.226-1.064-1.248-.956-1.01.116-11.653.68-16.666.058 0 0-1.138-.058-1.356.898 0 0-.56.911.4 1.643.956.73 3.434 2.417 3.434 7.662v9.747m35.151-6.371v-5.524s.116-4.107 3.215-4.107c3.099 0 3.146 3.477 2.986 4.618-.158 1.127-.448 5.013-6.201 5.013m9.692-14.034s-12.396 1.464-23.885.343c0 0-1.464-.398-1.638 1.121 0 0-.108 1.014.516 1.417.62.384 3.152 1.911 3.32 7.203.174 5.295.282 3.773.174 10.99 0 0 .437 6.924-3.494 8.617 0 0-1.019.224-.455 1.696 0 0 .34 1.127 1.287.73 0 0 9.244-.614 17.248.057 0 0 .906.34 1.182-.847 0 0 .732-.788-.39-1.636-1.135-.836-3.16-2.309-3.391-5.86-.227-3.555-.166-6.361-.166-6.361h.793s2.648-.346 4.45 3.828c1.805 4.168 3.043 7.214 3.043 7.214s1.176 3.323 3.096 4.394c0 0 .787.738 3.718.39 0 0 4.789-.274 9.52-2.467 0 0 1.069-.232.726-1.469 0 0 .232-.97-1.115-1.243-1.354-.284-2.365-1.58-3.326-3.5-.964-1.908-2.43-4.73-2.43-4.73s-1.967-4.89-8.394-4.956c0 0 8.844-1.519 8.844-8.178 0-6.637-7.877-6.753-7.877-6.753" fill="#1c4e9d"/><path d="M74.15 18.7c0 10.313-8.352 18.674-18.663 18.674-10.313 0-18.676-8.36-18.676-18.674C36.811 8.379 45.174.018 55.487.018c10.31 0 18.663 8.36 18.663 18.682" fill="#fff"/><path d="M63.51 7.44c5.687 1.746 9.824 7.04 9.824 13.313a14 14 0 01-.26 2.665l-.021.122a15.835 15.835 0 01-2.848 6.653l-.028.03a18.62 18.62 0 003.983-11.538C74.16 8.372 65.794.003 55.473.003a18.61 18.61 0 00-12.269 4.601l-.047.042a12.953 12.953 0 00-4.203 9.573c0 1.56.27 3.074.784 4.466l.025.066a8.254 8.254 0 007.501 4.823 8.242 8.242 0 008.245-8.242l-.025-3.546c0-1.619.911-3.05 2.251-3.779l.013-.004a7.33 7.33 0 013.53-.909c.776 0 1.52.116 2.22.34l.012.01" fill="#ed192d"/><path d="M41.18 30.71c3.428 4.077 8.565 6.673 14.31 6.673a18.62 18.62 0 0012.28-4.599l.044-.033a12.986 12.986 0 004.207-9.578c0-1.564-.276-3.074-.787-4.47l-.025-.057c-1.304-2.856-4.165-4.834-7.505-4.834a8.238 8.238 0 00-8.239 8.236l.025 3.558a4.305 4.305 0 01-2.253 3.775l-.014.01a7.347 7.347 0 01-5.75.566l-.01-.011c-5.689-1.751-9.826-7.049-9.826-13.31 0-.915.09-1.81.26-2.674l.015-.116a15.786 15.786 0 012.858-6.65l.018-.031a18.646 18.646 0 00-3.98 11.53c0 2.998.71 5.84 1.964 8.353l-.155.116s-.723.555-2.196-1.127C34.955 24.341 26.337 13.92 26.337 13.92s5.47-5.86 10.821-8.225c0 0 1.4-.453 1.07-1.688l-.23-.737s-.047-.793-1.295-.624c-1.238.174-7.101.624-12.954.058 0 0-.903 0-1.24.74 0 0-.57.956 0 1.511.566.572 2.596 1.978 2.596 3.892 0 0 .439 1.414-2.652 3.662-3.104 2.26-5.015 3.72-6.308 4.402l.05-5.297s-.166-4.45 3.046-6.543c0 0 .785-.331.506-1.063l-.218-.564s-.18-.906-1.135-.798c0 0-5.571.624-16.677.116 0 0-.735-.058-1.011.508l-.224.448S.087 4.739.706 5.187c.624.45 3.212 1.978 3.328 6.642 0 0 .279 8.85-.116 12.285-.398 3.442-.674 5.414-3.436 7.83 0 0-.732.575-.395 1.415l.395.729s.279.566 1.235.458c.96-.116 7.89-.798 16.677-.116 0 0 .624.224.903-.392l.395-.79s.45-.787-.395-1.411c-.848-.622-3.102-2.417-3.152-5.91-.055-3.495-.055-5.707-.055-5.707s1.522.627 9.628 12.633c0 0 2.875 5.181 8.957 1.975 0 0 4.45-2.425 6.309-4.002l.196-.116" fill="#1c4e9d"/></svg>