<svg width="180.08" height="35.26" viewBox="0 0 47.647 9.329" xmlns="http://www.w3.org/2000/svg"><defs><clipPath id="a"><path d="M0 141.732h141.732V0H0z"/></clipPath></defs><g clip-path="url(#a)" transform="matrix(.35278 0 0 -.35278 -1.18 29.66)" fill="#b1121a"><path d="M42.516 67.031h-.138c-.296-1.175-2.073-1.372-3.44-1.372-2.736 0-4.331.475-4.331 2.661 0 2.059 1.503 2.695 4.331 2.695 1.115 0 2.825.015 3.258-.963h.182v1.354c0 .801-.068 1.309-1.778 1.309-.98 0-1.595-.166-1.595-.933h-3.921c0 2.661 2.714 2.645 5.516 2.645 4.014 0 5.699-.358 5.699-3.315v-5.356h-3.921zm-3.988 1.373c0-.932 1.117-.932 1.708-.932 1.641 0 2.142.147 2.142 1.045 0 .719-.865.782-2.142.782-.956 0-1.708-.114-1.708-.895m18.349 3.868h-4.536v-3.837c.022-.506.158-.718.889-.718 1.025 0 .979.521 1.025 1.111l.022.457h3.124v-.768c0-2.336-1.21-2.857-4.4-2.857-2.507 0-4.582.228-4.582 2.383v4.229H46.96v2.057h1.459v1.814h3.922v-1.814h4.536m1.252-8.573h3.92v12.247h-3.92zm12.718 1.275h-.136c-.297-1.175-2.075-1.372-3.441-1.372-2.736 0-4.331.475-4.331 2.661 0 2.059 1.504 2.695 4.331 2.695 1.116 0 2.824.015 3.259-.963h.182v1.354c0 .801-.068 1.309-1.779 1.309-.98 0-1.595-.166-1.595-.933h-3.92c0 2.661 2.712 2.645 5.515 2.645 4.012 0 5.701-.358 5.701-3.315v-5.356h-3.922zm-3.989 1.373c0-.932 1.117-.932 1.711-.932 1.64 0 2.142.147 2.142 1.045 0 .719-.867.782-2.142.782-.957 0-1.711-.114-1.711-.895m16.298 3.492c-.136.718-.979.718-1.595.718-2.051 0-2.051-.18-2.051-.686 0-.424.046-.719 2.051-.751 4.057-.065 5.858-.228 5.858-2.629 0-2.513-2.713-2.889-5.858-2.889-3.099 0-5.858-.05-5.858 2.775h3.921c0-.964.98-.964 1.937-.964 1.778 0 2.052.082 2.052.752 0 .849-.685.849-2.052.849-4.968 0-5.858.801-5.858 2.548 0 2.759 2.53 2.807 5.858 2.807 2.189 0 5.289-.015 5.289-2.122v-.408m9.733 2.434h1.801v-9.583c0-1.058-.517-1.808-1.55-2.254-.837-.359-2.075-.538-3.716-.538-1.64 0-2.811.153-3.511.456-.925.425-1.354 1.205-1.275 2.336h1.8c0-.763.259-1.258.775-1.487.379-.173 1.115-.26 2.211-.26 1.229 0 2.073.097 2.529.293.624.261.936.778.936 1.551v1.977h-.045c-.365-.773-1.649-1.16-3.853-1.16-1.853 0-3.123.364-3.806 1.092-.609.622-.913 1.715-.913 3.283s.273 2.657.821 3.265c.669.752 1.968 1.126 3.898 1.126 2.02 0 3.304-.396 3.853-1.191l.045.016zm-6.747-4.294c0-1.296.113-2.106.341-2.432.395-.598 1.376-.899 2.941-.899s2.575.315 3.031.948c.288.403.434 1.197.434 2.383 0 1.306-.176 2.161-.525 2.563-.44.522-1.42.783-2.94.783s-2.484-.277-2.895-.832c-.259-.359-.387-1.197-.387-2.514m9.733-4.28h1.799v12.247h-1.799zm8.001-.097c-2.221 0-3.659.278-4.319.833-.662.554-.993 1.734-.993 3.543 0 1.817.331 3.003.993 3.559.66.554 2.098.831 4.319.831 2.218 0 3.657-.277 4.318-.831.661-.556.992-1.742.992-3.559 0-1.809-.331-2.989-.992-3.543-.661-.555-2.1-.833-4.318-.833m0 7.723c-1.582 0-2.551-.179-2.906-.539-.358-.359-.537-1.295-.537-2.808 0-1.504.179-2.434.537-2.792.355-.359 1.324-.54 2.906-.54 1.578 0 2.549.181 2.906.54.357.358.535 1.288.535 2.792 0 1.513-.178 2.449-.535 2.808-.357.36-1.328.539-2.906.539m8.02-7.626h-1.8v12.246h1.8V73.22h.045c.425.805 1.71 1.207 3.851 1.207 1.916 0 3.208-.397 3.875-1.192.534-.621.8-1.687.8-3.2 0-1.558-.259-2.634-.777-3.232-.668-.762-1.968-1.144-3.898-1.144-2.021 0-3.303.382-3.851 1.144l-.045-.033zm3.396.947c1.489 0 2.439.262 2.85.784.305.382.457 1.231.457 2.548 0 1.414-.195 2.326-.584 2.734-.387.409-1.294.613-2.723.613-1.474 0-2.424-.251-2.849-.751-.336-.393-.502-1.257-.502-2.596 0-1.371.225-2.27.673-2.694s1.341-.638 2.678-.638m16.004 4.901v-5.846h-1.799v.882l-.045.034c-.304-.437-.859-.726-1.664-.867-.503-.097-1.263-.147-2.28-.147-1.521 0-2.615.152-3.283.458-.85.39-1.277 1.105-1.277 2.137 0 1.101.41 1.845 1.231 2.239.639.303 1.786.456 3.442.456 2.326 0 3.578-.288 3.761-.866h.115v1.584c0 .729-.282 1.214-.844 1.453-.412.174-1.193.261-2.348.261-.987 0-1.688-.048-2.097-.146-.684-.163-1.025-.506-1.025-1.028v-.295h-1.869v.181c0 1 .464 1.664 1.39 1.99.638.23 1.77.343 3.397.343 1.777 0 3.023-.14 3.738-.423.971-.414 1.457-1.215 1.457-2.4m-8.478-3.184c0-.762.243-1.252.729-1.469.35-.164 1.109-.245 2.28-.245 1.186 0 2.013.07 2.483.211.76.228 1.142.691 1.142 1.387 0 .73-.321 1.197-.959 1.405-.411.13-1.299.196-2.666.196-1.171 0-1.938-.075-2.303-.228-.47-.186-.706-.605-.706-1.257m9.708-2.664h1.801v12.247h-1.801zM17.916 83.714c-7.845 0-14.205-5.752-14.205-12.848 0-3.041 1.171-5.831 3.123-8.03l-1.261-2.021 1.592 1.658.002-.001 1.046 1.089-.001.004 9.663 10.073 4.14-7.329-10.81-2.381 16.078.028-9.309 16.751L7.672 64.181c-1.534 1.876-2.444 4.184-2.444 6.685 0 6.264 5.68 11.342 12.688 11.342s12.688-5.078 12.688-11.342-5.68-11.341-12.688-11.341c-3.604 0-6.853 1.344-9.162 3.5l-1.1-1.04c2.587-2.443 6.227-3.966 10.262-3.966 7.847 0 14.206 5.753 14.206 12.847 0 7.096-6.359 12.848-14.206 12.848"/></g></svg>