<svg version="1.0" viewBox="0 0 298.8 68.012" xmlns="http://www.w3.org/2000/svg"><path d="M45.118 3.338s-8.88-5.59-20.555-2.302c0 0-15.71 4.52-21.138 17.18 0 0-7.31 11.76-.572 24.75 0 0 4.038 9.1 14.8 11.678 0 0 13.764 3.703 23.85-3.936 0 0 15.23-8.036 15.618-25.007 0 0 1.476-14.964-12.003-22.363m7.394 29.597c-2.794 7.564-15.288 15.952-15.288 15.952-22.364 11.182-31.092-5.03-31.092-5.03-4.93-10.525 1.102-20.561 1.102-20.561C12.99 11.949 23.902 7.449 23.902 7.449c15.293-6.577 24.01.823 24.01.823 12.333 9.209 4.6 24.663 4.6 24.663" fill="#ec2227"/><path d="M20.602 16.779s-6.007 14.046-6.091 14.893c0 0-2.12 6.6-1.102 13.03l10.645.314s-2.945-1.415-1.085-8.946c0 0 1.27-4.485 2.2-4.823 0 0 .254-.422.425.338 0 0 2.112 7.614 7.786 13.37 0 0 3.549 4.908 12.35 8.29 0 0 7.7 2.035 12.27-1.771 0 0 3.894-2.37 3.976-9.228 0 0 .066-.695-.59-.166 0 0-2.88 3.213-10.238 2.623 0 0-2.198.422-8.29-4.23L29.91 29.812s-.591-.424.253-.511c0 0 7.53-1.353 9.733-3.131 0 0 6.773-3.328 7.697-8.29 0 0 1.403-5.436-.762-8.63 0 0-.76-.51-1.013.084 0 0-3.872 3.994-7.212 6.137l-9.968 6.47s-.765.508-.167-.676l2.876-7.616s1.608-2.623-2.791-2.284c0 0-6.631.669-10.296 5.186 0 0-.284.144.225.313l2.117-.085zm54.966 12.875h-.06l-2.091 10.718h-6.034l4.503-22.594h6.028l-2.217 10.72h.06l8.314-10.72h4.753L81.039 27.81l7.127 12.562h-6.85z" fill="#ec2227"/><path d="M94.433 31.248c.278-1.628 1.556-4.441 3.522-4.441.787 0 1.256.47 1.256 1.285 0 2.216-1.938 3.217-4.778 3.156m10.402 3.467c-2.027 1.095-5.468 2.473-7.751 2.473-1.652 0-3.033-.753-3.061-2.566 4.286.129 10.626-2.874 10.626-7.78 0-2.625-2.468-3.782-4.596-3.782-7.812 0-12.062 7.127-12.062 12.03 0 3.939 3.688 5.657 7.123 5.657 3.005 0 5.906-.813 8.873-1.875l.848-4.157zm8.875-4.125h.378c1.25-2.873 4.439-7.53 7.906-7.53 2.123 0 3.375 1.563 3.375 3.527 0 .818-.221 1.63-.375 2.442l-2.285 11.346h-5.998l2.093-10.631c.035-.216.162-.591.162-.84 0-.187-.063-.498-.345-.498-1.095 0-4.786 5.465-5.374 6.684l-1.066 5.285h-6.028l3.373-16.938h5.967l-1.782 7.153zm13.45-7.154h6.16l1.87 9.904 6.73-9.904h4.56l-15.63 22.97h-6.22l5.75-6.034zm28.75 5.374c-1.344 1.937-4.281 6.875-5.936 6.875-.532 0-.69-.53-.69-.97 0-1.592 1.41-8.19 5.028-8.19.689 0 1.374.254 1.94.566l-.341 1.72zm-2.281 11.562h5.995l3.379-16.936h-5.657c-.436 0-1.406-.284-2.813-.284-5.904 0-11.28 7.657-11.28 13.126 0 2.25 1.44 4.469 3.879 4.469 3.464 0 6.65-4.654 7.898-7.532h.38l-1.781 7.157zm23.861-9.218l4.187-7.876h.063l1.47 7.876h-5.72zm-9.251 9.218h4.283l3.029-5.657h8.344l1.096 5.657h5.752l-4.346-22.593h-6l-12.158 22.593zm27.541-16.934h6.032l-3.383 16.934h-6.03l3.382-16.934zm1.163-5.611h6.033l-.85 3.408h-6.037l.854-3.408zM209.1 30.59h.372c1.246-2.873 4.434-7.53 7.908-7.53.689 0 1.252.187 1.527.347l-2.127 5.248c-.398-.218-.84-.408-1.305-.408-3.037 0-5.662 4.876-6.848 6.843l-1.064 5.285h-6.033l3.375-16.938h5.977L209.1 30.59zm37.36-7.153l-8.47 16.938h-5.75l-.43-10.221h-.07l-5.03 10.22h-5.75l-.66-16.937h5.29l.37 10.745h.06l5.31-10.745h5.03l.47 10.776h.07l5.34-10.776zm10.13 5.373c-1.345 1.937-4.288 6.875-5.938 6.875-.533 0-.688-.53-.688-.97 0-1.592 1.41-8.19 5.033-8.19.686 0 1.373.254 1.936.566l-.342 1.72zm-2.282 11.562h6l3.37-16.936h-5.657c-.432 0-1.4-.284-2.807-.284-5.906 0-11.28 7.657-11.28 13.126 0 2.25 1.43 4.469 3.874 4.469 3.469 0 6.656-4.654 7.906-7.532h.375l-1.781 7.157zm11.622-16.936h6.16l1.87 9.904 6.72-9.904h4.56l-15.62 22.97h-6.22l5.75-6.034zm31.64 3.779c-1.224-.436-2.5-.778-3.778-.778-1.002 0-2.377.31-2.377 1.56 0 2 5.219 3.437 5.219 7.125 0 2.25-1.5 5.628-7.908 5.628-2.123 0-4.098-.408-6.188-.94l.783-3.97c1.494.656 3.78 1.532 5.404 1.532.81 0 1.875-.527 1.875-1.626 0-2.313-4.842-3.748-4.842-7.437 0-2 1.373-5.251 7.809-5.251 1.566 0 3.258.315 4.72.5l-.716 3.657z" fill="#ec2227"/><path d="M132.71 51.456l.09.092c-.24.297-.638.447-1.188.447-.08 0-.474-.033-1.19-.092a35.715 35.715 0 00-1.163-.09h-4.2c-2.425 2.397-3.632 4.382-3.632 5.969 0 1.092.546 1.907 1.636 2.444.778.392 1.629.583 2.557.583a8.38 8.38 0 002.782-.516c.689-.238 1.67-.7 2.939-1.39a.603.603 0 00.36.112l-.047.567c-2.69 2.22-5.173 3.333-7.446 3.333-1.2 0-2.287-.265-3.281-.79-1.326-.705-1.99-1.753-1.99-3.13-.018-1.126.523-2.401 1.615-3.831.549-.717 1.528-1.783 2.939-3.196l-7.383.36c-.522.03-.785-.141-.785-.516 0-.33.169-.71.518-1.146.343-.432.626-.65.854-.65h8.54c.319-.31.812-.761 1.486-1.352.3 0 .546.037.74.11.017.313-.096.6-.335.85l-.384.4c.958.063 1.912.128 2.873.203 1.329.089 2.21.236 2.646.447.152.077.299.338.45.782" fill="#010101"/><path d="M142.55 60.543h.292c-.494.464-1.24.99-2.245 1.577-1.151.687-1.97 1.036-2.464 1.036-.422 0-.766-.192-1.033-.565-.194-.302-.291-.59-.291-.876V59.6c0-.105-.07-.157-.208-.157-.157 0-.91.539-2.238 1.629-1.331 1.085-2.267 1.617-2.806 1.604-.731 0-1.097-.574-1.097-1.73 0-.613.194-1.176.583-1.685 1.838-2.351 2.824-3.603 2.96-3.752a81.042 81.042 0 013.115-3.708c.345-.392.689-.586 1.036-.586.4 0 .604.178.604.539a.343.343 0 00-.01.089.31.31 0 00.01.089c0 .408-.141.902-.427 1.486-.595 1.259-1.41 2.267-2.423 3.032-2.154 1.604-3.23 2.653-3.23 3.144 0 .228.064.462.179.698.119.244.279.37.469.382.229 0 .832-.38 1.82-1.142a38.75 38.75 0 011.819-1.303c.432-.27.842-.4 1.23-.4.092 0 .18.004.27.02.253.18.422.397.499.648.012.047.05.312.11.787.028.166.04.832.04 1.999.035.059.1.14.204.246.658.042 1.54-.387 2.648-1.303h.494c.033.058.059.163.09.316" fill="#010101"/><path d="M145.37 58.506c0 .584-.843.956-2.53 1.123.164-.361.485-.69.96-.99.484-.3.87-.446 1.17-.446.267-.001.4.105.4.313m1.867-.352c0-.698-.413-1.043-1.233-1.026-.733 0-1.713.328-2.941.984-1.51.795-2.262 1.662-2.243 2.602 0 .733.378 1.289 1.145 1.662.569.27 1.199.402 1.905.402.782 0 1.654-.225 2.627-.675.612-.288 1.515-.802 2.714-1.556l-.248-.137v.023h.335v-.583c-1.865.85-3.293 1.279-4.277 1.279-1.23 0-1.976-.246-2.245-.738 2.986-.387 4.473-1.133 4.46-2.237m38.484 1.556l1.06-1.028c-.693 1.076-1.674 2.044-2.943 2.9-1.215.813-2.217 1.216-3.006 1.216-.285 0-.674-.127-1.166-.383-.586-.3-.877-.623-.877-.97 0-.162.215-.42.652-.762.299-.228.6-.462.918-.698-.107-.122-.342-.272-.703-.45-.371-.181-.576-.274-.623-.274-.057 0-.211.094-.445.27l-.334.224c-.121.09-.258.174-.406.249a1.055 1.055 0 00-.445-.226c.178-.283.473-.606.895-.973l-.023-.044a.701.701 0 01-.07-.38c.074-.211.402-.576.98-1.097.57-.521 1.002-.778 1.283-.778.154 0 .338.105.545.316-.033.3-.07.497-.117.586-.043.089-.16.246-.352.474.322.164.656.337.984.518.445.256.67.502.67.743 0 .314-.201.593-.6.834-.408.239-.62.432-.633.584 0 .389.406.586 1.213.586.717 0 1.77-.48 3.164-1.437h.38z" fill="#010101"/><path d="M190.62 55.269c-.313.492-.88.743-1.704.743-.268 0-.592-.097-.967-.28-.37-.187-.553-.397-.54-.634 0-.226.198-.47.587-.736.314-.225.535-.356.67-.403.123 0 .422.146.9.422.254.152.844.448 1.77.889h-.715zm-4.466 7.529c-1.303 0-1.95-.574-1.95-1.726 0-.434.065-.8.202-1.087.074-.132.553-.591 1.434-1.38.947-.831 1.533-1.238 1.77-1.225.11 0 .212.03.32.082l.089.04h.2v.537c-1.194 1.028-1.798 1.78-1.798 2.259 0 .565.375.849 1.125.849.492 0 1.068-.162 1.725-.494.539-.298 1.074-.598 1.598-.896l.264.246v.474c-2.157 1.547-3.811 2.32-4.98 2.32" fill="#010101"/><path d="M202.12 60.278l.179.203c-1.072.75-1.8 1.23-2.174 1.44-.971.573-1.777.859-2.424.859-.576 0-1.051-.162-1.416-.474-.416-.35-.623-.855-.623-1.533 0-.208.023-.431.07-.653-1.021.857-1.721 1.413-2.113 1.669-.957.658-1.768.99-2.42.99-.572 0-1.05-.168-1.44-.49-.388-.32-.58-.75-.58-1.278 0-1.13.872-2.074 2.626-2.831 1.313-.574 2.39-.844 3.229-.813.953.017 1.346.032 1.168.044 0 .08.033.298.113.656-.211.216-.408.326-.582.326-.08 0-.191-.014-.342-.045a1.854 1.854 0 00-.334-.047c-.557 0-1.227.204-2.02.607-.914.464-1.37.963-1.37 1.5 0 .424.265.603.784.539.525 0 1.176-.232 1.955-.698.717-.445 1.289-.924 1.725-1.437.285-.328.572-.802.854-1.414.402-.867.643-1.378.717-1.527.314-.525.904-1.355 1.77-2.494 1.122-1.453 1.866-2.18 2.224-2.18.178-.014.322.129.455.427.098.225.148.389.148.494 0 .959-.426 1.91-1.273 2.854-.78.75-1.563 1.498-2.36 2.248-.837.837-1.255 1.617-1.255 2.332 0 .527.17.933.516 1.219.28.239.652.358 1.098.358.492 0 1.246-.316 2.244-.942a5.27 5.27 0 01.854-.45l.248.247v.384l-.25-.09z" fill="#010101"/><path d="M205.02 58.506c0 .584-.843.956-2.53 1.123.16-.361.484-.69.96-.99.48-.3.868-.446 1.169-.446.267-.001.402.105.402.313m1.86-.352c0-.698-.407-1.043-1.231-1.026-.73 0-1.711.328-2.94.984-1.51.795-2.253 1.662-2.243 2.602 0 .733.383 1.289 1.143 1.662.572.27 1.205.402 1.912.402.779 0 1.65-.225 2.62-.675.614-.288 1.52-.802 2.72-1.556l-.248-.137v.023h.338v-.583c-1.867.85-3.301 1.279-4.285 1.279-1.23 0-1.98-.246-2.24-.738 2.985-.387 4.475-1.133 4.455-2.237m16.468.525l.16-.09c-.243.453-1.157.818-2.737 1.1-.332.99-1.068 1.779-2.221 2.365-.943.494-1.918.74-2.92.74a3.513 3.513 0 01-1.523-.29c-.662-.316-.984-.783-.984-1.397 0-.8.463-1.544 1.41-2.235a6.814 6.814 0 012.47-1.146l.019-.028a.643.643 0 01.428-.154h.988c-.088.183-.211.398-.355.65-.141.034-.361.093-.676.184-1.336.375-2.002.914-2.02 1.62 0 .769.666 1.15 1.996 1.15 1.088 0 1.922-.48 2.49-1.432-.24-.033-.947-.176-2.13-.43.419-.864.778-1.5 1.079-1.905.535.24 1.074.479 1.613.715.637.27 1.203.4 1.705.4.324 0 .723-.042 1.186-.131l.043.314h-.02z" fill="#010101"/><path d="M226.52 58.544c.105.032.456.049 1.052.049-.023 0 .258-.012.857-.035a47.257 47.257 0 011.818-.035 3.229 3.229 0 01-1.73.986c-.22.045-.886.105-1.974.179a7.738 7.738 0 00-1.102.134c-.088.03-.225.156-.393.375a1.485 1.485 0 00-.324.637c.027.567.043 1.315.043 2.243 0 .343-.264 1.188-.783 2.536-.62 1.596-1.148 2.397-1.613 2.397-.51 0-.754-.375-.744-1.12v-.157a.882.882 0 00.023-.112c0-1.467.262-2.79.78-3.971.034-.072.274-.536.724-1.392.418-.79.633-1.202.633-1.23 0-.063-.057-.144-.164-.25l-.066-.09a7.422 7.422 0 01-1.725-.291c0-.313.066-.521.21-.626.147-.107.446-.265.888-.473.449-.207.73-.314.857-.314.117 0 .324.042.613.124.287.082.488.122.596.122.014 0 .545-.851 1.59-2.553.596-1.02 1.363-2.287 2.29-3.813.18-.316.499-.53.962-.65.422 0 .629.279.629.828 0 1.015-.355 2.058-1.074 3.117-.491.762-1.452 1.89-2.872 3.385m30.739 3.996c-.66 0-1.147-.406-1.456-1.217a40.221 40.221 0 00-.45-1.565 85.747 85.747 0 00-.608-2.267c-.197-.762-.375-1.535-.56-2.311-.237-.931-.542-1.652-.917-2.178-.32-.45-.836-.67-1.547-.67-1.061 0-2.414.536-4.061 1.612-1.23.869-2.465 1.734-3.707 2.604 1.33.18 3.057.26 5.166.244.73 0 1.822-.035 3.27-.11.089-.014.306-.057.65-.134.274-.061.476-.09.606-.09h.469l-.043.383c-.014.192-.125.356-.332.492-1.23.809-3.473 1.226-6.73 1.257-.93.014-2.092-.023-3.475-.113-.084 0-.58-.067-1.51-.201a2.272 2.272 0 00-.29-.047 1.177 1.177 0 01-.136.18c-3.55 3.268-5.916 4.904-7.115 4.904-.24 0-.465-.066-.693-.2-.221-.136-.334-.312-.334-.522 0-.313.934-1.12 2.803-2.426.924-.625 2.115-1.441 3.568-2.441a24.682 24.682 0 00-.854-.385l-.043-.521c.25-.208.602-.452 1.037-.731.445-.273.74-.412.89-.412.089 0 .319.087.685.26.365.169.572.256.619.256.043-.033.15-.107.309-.225 6.076-3.964 9.746-5.944 10.998-5.944.8 0 1.527.59 2.156 1.772.412.824.848 2.063 1.299 3.724.205.882.52 2.103.945 3.656.31 1.03.592 1.545.85 1.545.22 0 .529-.155.918-.467.27-.258.545-.506.82-.752.277-.25.553-.445.816-.596.014 0 .168.105.449.312v.16a10.224 10.224 0 01-2.066 2.063c-.936.73-1.733 1.1-2.395 1.1" fill="#010101"/><path d="M265.68 58.544c.105.032.456.049 1.048.049-.023 0 .258-.012.86-.035a47.048 47.048 0 011.815-.035 3.217 3.217 0 01-1.725.986c-.23.045-.887.105-1.98.179a7.738 7.738 0 00-1.101.134c-.09.03-.221.156-.39.375a1.543 1.543 0 00-.327.637c.033.567.047 1.315.047 2.243 0 .343-.264 1.188-.787 2.536-.615 1.596-1.148 2.397-1.613 2.397-.506 0-.754-.375-.74-1.12a.686.686 0 010-.157.594.594 0 00.018-.112c0-1.467.264-2.79.789-3.971.03-.072.27-.536.717-1.392.416-.79.627-1.202.627-1.23 0-.063-.047-.144-.158-.25l-.061-.09a7.473 7.473 0 01-1.73-.291c0-.313.07-.521.215-.626.137-.107.432-.265.887-.473.445-.207.73-.314.848-.314.123 0 .328.042.615.124.295.082.492.122.6.122.02 0 .549-.851 1.59-2.553.6-1.02 1.363-2.287 2.29-3.813.179-.316.503-.53.968-.65.416 0 .627.279.627.828 0 1.015-.361 2.058-1.082 3.117-.493.762-1.444 1.89-2.866 3.385" fill="#010101"/><path d="M276 59.71l1.052-1.028c-.686 1.076-1.67 2.044-2.94 2.9-1.214.813-2.212 1.216-3.003 1.216-.281 0-.672-.127-1.168-.383-.582-.3-.877-.623-.877-.97 0-.162.22-.42.656-.762.295-.228.6-.462.92-.698-.11-.122-.344-.272-.71-.45-.364-.181-.571-.274-.618-.274-.055 0-.211.094-.45.27l-.331.224c-.123.09-.258.174-.404.249a1.09 1.09 0 00-.45-.226c.179-.283.48-.606.896-.973l-.023-.044a.737.737 0 01-.064-.38c.074-.211.398-.576.975-1.097s1.002-.778 1.299-.778c.145 0 .318.105.533.316-.033.3-.07.497-.117.586-.041.089-.158.246-.355.474.328.164.66.337.984.518.449.256.674.502.674.743 0 .314-.201.593-.604.834-.404.239-.615.432-.623.584 0 .389.398.586 1.203.586.719 0 1.773-.48 3.164-1.437H276z" fill="#010101"/><path d="M280.89 55.269c-.312.492-.88.743-1.71.743-.262 0-.586-.097-.951-.28-.38-.187-.557-.397-.543-.634 0-.226.19-.47.58-.736.314-.225.539-.356.68-.403.113 0 .414.146.89.422.259.152.845.448 1.774.889h-.72zm-4.46 7.529c-1.305 0-1.955-.574-1.955-1.726 0-.434.064-.8.2-1.087.075-.132.554-.591 1.44-1.38.938-.831 1.533-1.238 1.768-1.225.107 0 .21.03.318.082l.088.04h.203v.537c-1.195 1.028-1.797 1.78-1.797 2.259 0 .565.375.849 1.12.849.497 0 1.069-.162 1.73-.494.54-.298 1.069-.598 1.595-.896l.266.246v.474c-2.15 1.547-3.81 2.32-4.976 2.32" fill="#010101"/><path d="M282.07 62.798a3.1 3.1 0 01-1.526-.403c-.67-.35-1.008-.858-1.008-1.533 0-.991.857-1.847 2.578-2.563 1.33-.556 2.432-.835 3.295-.835.332 0 .633.089.904.272v.67a1.76 1.76 0 01-.941.25c-.094 0-.295-.012-.61-.045a10.856 10.856 0 00-.581-.02c-.736 0-1.322.158-1.775.47-.385.253-.582.569-.582.942 0 .33.15.603.449.817.297.219.719.326 1.258.326.43 0 1.016-.143 1.748-.43.566-.25 1.135-.506 1.705-.76.254-.118.422-.182.492-.182h.629v.588c-.69.467-1.598.954-2.732 1.46-1.441.65-2.538.976-3.302.976" fill="#010101"/><path d="M292.99 59.038c0 .434-.528.893-1.593 1.366-.895.405-1.49.607-1.791.607a.728.728 0 01-.44-.155c-.14-.105-.21-.218-.21-.337 0-.522.426-.987 1.299-1.39.734-.36 1.383-.537 1.953-.537.52 0 .783.14.783.422v.024zm3.714 2.672c1.279-.658 1.979-1.188 2.096-1.594v-.178l-.375-.092c-.107.045-.563.248-1.35.604-.535.24-1.004.382-1.393.425-.104-.354-.16-.638-.16-.847-.07-.51-.361-.886-.848-1.14-.014-.016-.037-.037-.066-.067.01-.09.037-.234.066-.436.033-.204.047-.354.047-.457 0-.522-.244-.785-.723-.785-.31 0-.525.096-.637.288-.113.192-.211.377-.305.549a4.869 4.869 0 00-1.074-.132c-.9-.025-2.002.256-3.3.855-1.645.733-2.466 1.639-2.466 2.719 0 .403.154.736.465.99.318.255.697.384 1.148.384.717 0 1.86-.504 3.436-1.512.816-.512 1.58-.982 2.287-1.416.047 0 .076.005.09.02l.047.022v.115c-.244.27-.482.536-.723.81-.3.34-.44.65-.426.92 0 .61.439.919 1.322.919.615.018 1.562-.306 2.842-.964M158.24 56.49c-.43.174-.744.258-.94.258-.348 0-.788-.181-1.336-.534-.601-.387-.994-.795-1.177-1.224.313.026.68.042 1.092.042.73 0 1.604-.382 2.62-1.141.957-.718 1.726-1.512 2.297-2.384.286 0 .479.099.577.298.263.759.384 1.44.384 2.04 0 .399-.285.796-.876 1.183-.84.56-1.308.874-1.374.944-.07.072-.238.4-.516.986-.225.39-.534.978-.923 1.765 2.208-1.99 4.55-3.642 7.035-4.964 2.836-1.505 5.336-2.252 7.496-2.252 1.242 0 2.344.288 3.305.855 1.219.7 1.818 1.718 1.818 3.049 0 1.277-.62 2.54-1.865 3.802-1.012 1.045-2.33 1.959-3.947 2.747-1.447.72-2.682 1.134-3.717 1.247-1.885.229-3.051.344-3.516.344-1.346 0-2.583-.171-3.713-.518-1.392-.427-2.35-1.066-2.878-1.91 0-.054.019-.131.047-.221.028-.094.037-.191.037-.293h.544c1.026 1.357 2.963 2.039 5.813 2.039 1.86 0 3.586-.293 5.17-.88 2.059-.772 3.652-1.975 4.764-3.605.436-.643.65-1.29.67-1.932 0-1.045-.516-1.823-1.551-2.337-.75-.402-1.613-.602-2.564-.602-2.11 0-4.477.705-7.098 2.116-2.625 1.41-4.86 3.185-6.703 5.315-.09.089-.318.532-.688 1.334-.788 1.676-1.38 2.852-1.763 3.527-.956 1.619-1.776 2.428-2.447 2.428-.286 0-.58-.094-.88-.281-.34-.201-.512-.45-.512-.75 0-.646 1.753-2.824 5.254-6.537.07-.086.16-.178.258-.281.417-.727 1.017-1.95 1.804-3.673" fill="#010101"/></svg>