<svg width="179.58" height="45.504" viewBox="0 0 47.515 12.04" xmlns="http://www.w3.org/2000/svg"><path d="M4.205 6.02c.626-.88 1.352-.704 2.208-.606a1.26 1.26 0 01-.339-.877c0-.758.629-1.372 1.404-1.372 1.62 0 1.42 1.833.717 1.833a.331.331 0 01-.319-.242c-.028-.108 0-.236-.038-.338a.388.388 0 00-.629-.14c-.218.21-.082.63.06.846.198.298.546.49.945.487l.065-.002c1.11-.125 1.436-1.07 1.155-1.928-.123-.372-.55-.92-1.031-1.15C9.289 2.018 9.56.835 9.53.133L0 6.02l9.53 5.888c.03-.702-.241-1.885-1.127-2.398.48-.23.908-.778 1.03-1.15.282-.858-.044-1.803-1.154-1.928l-.065-.002a1.11 1.11 0 00-.944.487c-.143.215-.279.636-.06.846a.387.387 0 00.629-.14c.036-.103.01-.23.037-.339a.331.331 0 01.319-.242c.702 0 .902 1.833-.717 1.833-.775 0-1.404-.614-1.404-1.371 0-.33.112-.635.34-.878-.857.1-1.583.274-2.209-.606" fill="#9b804d"/><path d="M15.888 9V5.994l-.002-.11v-.002l-.002-.039v-.015c-.068-1.054-.789-1.416-1.687-1.416-.705 0-1.266.228-1.55.506v.56c.383-.206.933-.403 1.363-.403.534 0 .908.16.91.753v.056l.002.291c-1.395.136-2.561.389-2.561 1.596 0 .884.62 1.496 1.87 1.496.428 0 1.305-.077 1.658-.266m-.967-.441c-.276.113-.767.124-1.03.046a.772.772 0 01-.368-.22c-.12-.136-.186-.328-.186-.581 0-.833.678-1.018 1.584-1.018zm19.116.61v-.735a.78.78 0 01-.241.042c-.35 0-.491-.233-.491-.583V5.069h.732v-.643h-.732V3.289l-1.016.635v.502h-.538v.643h.538v2.977c0 .624.35 1.216 1.232 1.216.242 0 .424-.05.516-.092m-2.85-1.34c0-.548-.212-1.018-1.139-1.384-.415-.165-.706-.356-.706-.739 0-.33.238-.618.68-.618.335 0 .718.218.892.403v-.573c-.598-.903-2.613-.634-2.613.84 0 .487.185.975 1.085 1.314.486.183.76.365.76.765 0 .858-1.373.755-1.85.4l.005.75c.28.142.636.27 1.192.27 1.041 0 1.694-.662 1.694-1.428m11.7 1.3V5.817c0-.746-.455-1.415-1.835-1.415-.78 0-1.372.129-1.81.335l.001 4.393h1.046V5.19c.197-.076.377-.128.72-.128.66 0 .832.395.832.772V9.13zm-21.48-4.72c-1.17-.04-1.787.097-2.267.329V9.13h1.045V5.21c.24-.138.82-.217 1.222-.054zm-3.39.02h-1.016v4.706h1.016zM27.458 9V5.994l-.002-.11v-.002l-.002-.039v-.015c-.068-1.054-.789-1.416-1.687-1.416-.705 0-1.266.228-1.55.506v.56c.383-.206.933-.403 1.363-.403.534 0 .908.16.91.753v.056l.001.291c-1.394.136-2.56.389-2.56 1.596 0 .884.62 1.496 1.869 1.496.429 0 1.306-.077 1.658-.266m-.967-.441c-.276.113-.766.124-1.029.046a.77.77 0 01-.369-.22c-.12-.136-.185-.328-.185-.581 0-.833.677-1.018 1.583-1.018zM38.118 9V5.994c0-.038 0-.074-.002-.11v-.002l-.002-.039v-.012l-.001-.003c-.067-1.054-.788-1.416-1.686-1.416-.705 0-1.266.228-1.55.506v.56c.383-.206.932-.403 1.363-.403.534 0 .908.16.91.753v.056l.001.291c-1.394.136-2.56.389-2.56 1.596 0 .884.62 1.496 1.87 1.496.428 0 1.305-.077 1.657-.266m-.967-.441c-.276.113-.766.124-1.029.046a.774.774 0 01-.369-.22c-.12-.136-.185-.328-.185-.581 0-.833.678-1.018 1.583-1.018zM47.248 9V5.994l-.002-.11v-.002l-.002-.039v-.005l-.001-.007v-.003c-.067-1.054-.788-1.416-1.686-1.416-.705 0-1.266.228-1.55.506v.56c.383-.206.932-.403 1.362-.403.535 0 .909.16.91.753v.056l.002.291c-1.394.136-2.56.389-2.56 1.596 0 .884.62 1.496 1.87 1.496.428 0 1.305-.077 1.657-.266m-.967-.441c-.276.113-.766.124-1.029.046a.774.774 0 01-.369-.22c-.12-.136-.185-.328-.185-.581 0-.833.677-1.018 1.583-1.018zM18.058 3.3c0-.283-.234-.508-.542-.508-.299 0-.541.225-.541.508 0 .275.242.5.541.5.308 0 .542-.225.542-.5" fill="#253168"/></svg>