<svg width="198.84" height="50.78" viewBox="0 0 52.61 13.435" xmlns="http://www.w3.org/2000/svg"><defs><linearGradient id="b" x2="1" gradientTransform="scale(-9.99 9.99) rotate(-87 -17.084 26.502)" gradientUnits="userSpaceOnUse"><stop stop-color="#ffe0a9" offset="0"/><stop stop-color="#c7822a" offset="1"/></linearGradient><linearGradient id="d" x2="1" gradientTransform="matrix(0 -12.02 -12.02 0 443.91 66.947)" gradientUnits="userSpaceOnUse"><stop stop-color="#ffe0a9" offset="0"/><stop stop-color="#c7822a" offset="1"/></linearGradient><clipPath id="a"><path d="M425.5 80.773l-.559-10.661-11.041.579.559 10.661"/></clipPath><clipPath id="c"><path d="M413.77 66.947h29.095v-12.02H413.77z"/></clipPath></defs><path d="M27.18 12.806h1.183V8.314h-1.631l.447.578m12.253 3.914h1.184V8.314h-1.631l.447.578m-8.858 3.914h-1.17l-.014-3.931-.434-.561h3.152c.776 0 1.317.081 1.634.243.208.107.367.249.475.424.117.175.175.37.175.586 0 .424-.133.754-.4.983-.166.142-.383.25-.658.323.216.06.383.128.5.202a.922.922 0 01.292.303c.066.108.116.21.15.303.025.101.05.25.066.445.034.323.075.552.134.68l-1.326.007c-.041-.108-.083-.323-.125-.647-.033-.262-.091-.464-.183-.6a.85.85 0 00-.375-.329c-.217-.094-.534-.135-.943-.135h-.936v1.704zm.014-2.505h1.645c.275 0 .476-.034.592-.095.175-.1.267-.276.267-.525 0-.276-.134-.451-.4-.525a1.789 1.789 0 00-.459-.04h-1.645m4.558-.81h1.175v2.519c0 .323.034.539.05.64a.543.543 0 00.367.417c.209.075.567.115 1.084.115h1.134v.801h-1.259c-.592 0-1.025-.02-1.292-.08-.617-.142-1-.459-1.159-.943-.067-.189-.1-.506-.1-.943v-.081l-.002-1.867-.448-.578m-13.864 4.5L22.84 8.89l-.445-.575h2.098l2.301 4.492H25.41l-.542-1.037h-2.109l-.542 1.037zm2.985-3.408l-.792 1.57h1.584m18.209-1.462V12.8h-1.134V8.307h1.518l2.21 3.348V8.878l-.443-.57h1.568v4.491h-1.451m3.665-4.493v4.492h-1.184V8.884l-.447-.578h.447zm.042 2.223l2.126-2.223h1.559l-2.326 2.223 2.217 2.27H50.81" fill="#20407e"/><path d="M5.306 13.045L.451.405 5.482.389c1.011.915 4.633 4.277 6.428 5.896 1.796 1.62 6.388 5.77 6.388 5.77.67.532.924.609 1.666.81v.181" fill="#fff"/><path d="M5.306 13.045L.451.405 5.482.389c1.011.915 4.633 4.277 6.428 5.896 1.796 1.62 6.388 5.77 6.388 5.77.67.532.924.609 1.666.81v.181z" fill="none" stroke="#fff" stroke-miterlimit="3.864" stroke-width=".438"/><path d="M5.386 12.935l-.036-.094 8.786-4.373 3.139 2.842c.865.776 1.485 1.45 2.638 1.625" fill="#20407e"/><path d="M3.431 7.785h9.946L5.412.5H.626" fill="#e4292f"/><path d="M3.916 4.925c.048-.916.85-1.618 1.792-1.567.942.05 1.668.834 1.62 1.75-.047.917-.849 1.62-1.79 1.568-.943-.05-1.669-.834-1.622-1.75" fill="#fff"/><path d="M3.916 4.925c.048-.916.85-1.618 1.792-1.567.942.05 1.668.834 1.62 1.75-.047.917-.849 1.62-1.79 1.568-.943-.05-1.669-.834-1.622-1.75z" fill="none" stroke="#fff" stroke-linejoin="round" stroke-miterlimit="3.864" stroke-width=".186"/><path d="M4.966 4.745s.185-.181.022-.426c-.001-.003.095.03.188.039a.35.35 0 00.004-.05c-.203-.06-.493-.166-.545-.294 0 0 .337.162.556.178l.018-.055c-.219-.054-.673-.19-.765-.397 0 0 .475.258.794.296l.023-.055c-.204-.058-.637-.272-.846-.633 0 0 .51.422.896.534l.04-.055c-.225-.12-.764-.353-.88-.739-.003-.007.497.47.61.447 0 0-.56-.46-.611-.728 0 0 .94.933 1.033.992.046.03.109.154.109.154s.207.511.57.634c.008.003-.475-.064-.675-.013a8.21 8.21 0 00-.54.171" fill="#fff"/><path d="M4.966 4.745s.185-.181.022-.426c-.001-.003.095.03.188.039a.35.35 0 00.004-.05c-.203-.06-.493-.166-.545-.294 0 0 .337.162.556.178l.018-.055c-.219-.054-.673-.19-.765-.397 0 0 .475.258.794.296l.023-.055c-.204-.058-.637-.272-.846-.633 0 0 .51.422.896.534l.04-.055c-.225-.12-.764-.353-.88-.739-.003-.007.497.47.61.447 0 0-.56-.46-.611-.728 0 0 .94.933 1.033.992.046.03.109.154.109.154s.207.511.57.634c.008.003-.475-.064-.675-.013a8.21 8.21 0 00-.54.171z" fill="none" stroke="#fff" stroke-linejoin="round" stroke-miterlimit="3.864" stroke-width=".186"/><path d="M4.675 2.505s.422.492.64.646c.414.29.421.648.414.796 0 0-.297-.435-.441-.59s-.5-.514-.613-.852" fill="#fff"/><path d="M4.675 2.505s.422.492.64.646c.414.29.421.648.414.796 0 0-.297-.435-.441-.59s-.5-.514-.613-.852z" fill="none" stroke="#fff" stroke-linejoin="round" stroke-miterlimit="3.864" stroke-width=".186"/><path d="M7.433 4.435s-.44.235-.627.453a.324.324 0 01-.117.005c-.084-.004-.24.01-.36-.053s-.227-.171-.227-.171.191.026.382.014c.142-.01.387-.105.396-.11.205-.1.553-.138.553-.138" fill="#fff"/><path d="M7.433 4.435s-.44.235-.627.453a.324.324 0 01-.117.005c-.084-.004-.24.01-.36-.053s-.227-.171-.227-.171.191.026.382.014c.142-.01.387-.105.396-.11.205-.1.553-.138.553-.138z" fill="none" stroke="#fff" stroke-linejoin="round" stroke-miterlimit="3.864" stroke-width=".186"/><path d="M6.677 4.435c-.184.13-.399.169-.399.169s.283-.011.386-.059c.285-.13.648-.18.648-.18a.417.417 0 00-.166-.076c.001.005.009.022.008.027a.083.083 0 01-.088.078.084.084 0 01-.08-.087c0-.01.008-.026.005-.026-.045 0-.13.024-.314.154" fill="#fff"/><path d="M6.677 4.435c-.184.13-.399.169-.399.169s.283-.011.386-.059c.285-.13.648-.18.648-.18a.417.417 0 00-.166-.076c.001.005.009.022.008.027a.083.083 0 01-.088.078.084.084 0 01-.08-.087c0-.01.008-.026.005-.026-.045 0-.13.024-.314.154z" fill="none" stroke="#fff" stroke-linejoin="round" stroke-miterlimit="3.864" stroke-width=".186"/><path d="M4.742 5.565c-.004 0 .155-.051.241-.204 0 0 .13.164.288.205.003 0-.33.032-.529 0" fill="#fff"/><path d="M4.742 5.565c-.004 0 .155-.051.241-.204 0 0 .13.164.288.205.003 0-.33.032-.529 0z" fill="none" stroke="#fff" stroke-linejoin="round" stroke-miterlimit="3.864" stroke-width=".186"/><path d="M4.24 5.505s.237-.19.335-.332c.06-.087.358-.345.572-.378 0 0 .198.499.887.604 0 0-.572.275-1.775.112" fill="#fff"/><path d="M4.24 5.505s.237-.19.335-.332c.06-.087.358-.345.572-.378 0 0 .198.499.887.604 0 0-.572.275-1.775.112z" fill="none" stroke="#fff" stroke-linejoin="round" stroke-miterlimit="3.864" stroke-width=".186"/><path d="M5.27 4.745s.236-.129.654-.096c.122.01.25.297.589.33.142.014.223-.002.223-.002s-.271.308-.499.32c-.239.012-.524-.014-.832-.338a.934.934 0 01-.135-.214" fill="#fff"/><path d="M5.27 4.745s.236-.129.654-.096c.122.01.25.297.589.33.142.014.223-.002.223-.002s-.271.308-.499.32c-.239.012-.524-.014-.832-.338a.934.934 0 01-.135-.214z" fill="none" stroke="#fff" stroke-linejoin="round" stroke-miterlimit="3.864" stroke-width=".186"/><path d="M3.315 5.355s.42.023.584-.018.42-.096.52-.155c0 0-.283.38-.672.36-.39-.022-.432-.187-.432-.187" fill="#fff"/><path d="M3.315 5.355s.42.023.584-.018.42-.096.52-.155c0 0-.283.38-.672.36-.39-.022-.432-.187-.432-.187z" fill="none" stroke="#fff" stroke-linejoin="round" stroke-miterlimit="3.864" stroke-width=".186"/><path d="M5.827 3.855s-.013.384.195.442c.053.015.085.018.085.018s.052.036.33-.08c.162-.067.401-.046.401-.046s.3-.016.468.177c.001.002.356-.032.46-.02s.393.04.637.316c0 0-.302-.243-.642-.23a.854.854 0 00-.43.148c-.011.007-.39.274-.47.369-.082.094-.295.4-.989.585-.502.134-1.283.12-1.283.12s-.315.107-.565.101-.341-.112-.341-.112-.439-.048-.558-.392c0 0 .458.022.476.018.018-.004.654-.004 1.036-.297.35-.267.347-.44.347-.44s-.019-.204-.23-.294c-.235-.1-.224-.248-.224-.248s-.238-.195-.23-.46c0 0 .057.065.155.126l.207.11c-.19-.135-.528-.54-.568-.844 0 0 .21.304.394.384.011.005-.399-.399-.41-.685 0 0 .18.275.396.385.011.006-.385-.498-.364-.891 0 0 .305.317.357.419-.031-.105-.186-.735-.154-1.025 0 0 .123.776.796 1.275.004.003-.69-.973-.548-1.557l.052.203.168.357c.002.003.09-.63.155-.653 0 0-.112.797.386 1.361s.505 1.36.505 1.36" fill="#fff"/><path d="M5.827 3.855s-.013.384.195.442c.053.015.085.018.085.018s.052.036.33-.08c.162-.067.401-.046.401-.046s.3-.016.468.177c.001.002.356-.032.46-.02s.393.04.637.316c0 0-.302-.243-.642-.23a.854.854 0 00-.43.148c-.011.007-.39.274-.47.369-.082.094-.295.4-.989.585-.502.134-1.283.12-1.283.12s-.315.107-.565.101-.341-.112-.341-.112-.439-.048-.558-.392c0 0 .458.022.476.018.018-.004.654-.004 1.036-.297.35-.267.347-.44.347-.44s-.019-.204-.23-.294c-.235-.1-.224-.248-.224-.248s-.238-.195-.23-.46c0 0 .057.065.155.126l.207.11c-.19-.135-.528-.54-.568-.844 0 0 .21.304.394.384.011.005-.399-.399-.41-.685 0 0 .18.275.396.385.011.006-.385-.498-.364-.891 0 0 .305.317.357.419-.031-.105-.186-.735-.154-1.025 0 0 .123.776.796 1.275.004.003-.69-.973-.548-1.557l.052.203.168.357c.002.003.09-.63.155-.653 0 0-.112.797.386 1.361s.505 1.36.505 1.36z" fill="none" stroke="#fff" stroke-linejoin="round" stroke-miterlimit="3.864" stroke-width=".245"/><path d="M4.366 3.745l.31.017.012-.226-.31-.017" fill="#fff"/><path d="M4.377 3.515l.31.017-.012.226-.31-.016z" fill="none" stroke="#fff" stroke-linejoin="round" stroke-miterlimit="3.864" stroke-width=".186"/><path d="M3.802 4.945c.05-.974.903-1.72 1.905-1.667 1.002.054 1.773.888 1.723 1.862-.05.975-.903 1.72-1.904 1.667-1.002-.054-1.774-.887-1.724-1.862" fill="#fff"/><path d="M3.802 4.945c.05-.974.903-1.72 1.905-1.667 1.002.054 1.773.888 1.723 1.862-.05.975-.903 1.72-1.904 1.667-1.002-.054-1.774-.887-1.724-1.862z" fill="none" stroke="#fff" stroke-linejoin="round" stroke-miterlimit="3.864" stroke-width=".245"/><g clip-path="url(#a)" transform="matrix(.35278 0 0 -.35278 -142.447 31.775)"><path d="M414.57 76.081c-.141-2.755 2.04-5.113 4.872-5.265 2.832-.153 5.243 1.957 5.385 4.712.142 2.756-2.04 5.112-4.872 5.265a5.599 5.599 0 01-.288.008c-2.706 0-4.959-2.059-5.097-4.72" fill="url(#b)"/></g><path d="M4.357 3.755l.31.017.012-.227-.31-.017" fill="#fff"/><path d="M4.368 3.535l.31.017-.012.227-.31-.017z" fill="none" stroke="#fff" stroke-miterlimit="3.864" stroke-width=".018"/><path d="M5.828 3.855s-.013.384.195.442c.053.015.085.018.085.018s.051.036.329-.08c.163-.067.394-.062.394-.062s.308 0 .476.193c.001.002.356-.032.46-.02.102.014.392.04.637.316 0 0-.302-.243-.642-.23a.854.854 0 00-.43.148c-.011.007-.39.275-.47.369-.082.094-.295.4-.989.585-.502.134-1.283.12-1.283.12s-.315.107-.565.101c-.25-.006-.342-.112-.342-.112s-.438-.048-.557-.392c0 0 .457.022.475.018.018-.004.654-.004 1.037-.297.35-.268.346-.44.346-.44s-.018-.204-.229-.294c-.235-.1-.224-.248-.224-.248s-.238-.195-.23-.46c0 0 .057.065.155.126l.207.11c-.19-.135-.529-.54-.569-.844 0 0 .211.304.395.384.01.005-.399-.399-.41-.685 0 0 .18.275.396.385.011.006-.385-.498-.364-.891 0 0 .193.493.697.835.003.003-.528-.627-.494-1.44 0 0 .122.775.796 1.274.004.003-.69-.973-.548-1.557 0 0 .066.679.642 1.4.002.002-.525-.715-.287-1.407 0 0-.092.711.405 1.275.499.564.506 1.36.506 1.36" fill="#080909"/><path d="M5.828 3.855s-.013.384.195.442c.053.015.085.018.085.018s.051.036.329-.08c.163-.067.394-.062.394-.062s.308 0 .476.193c.001.002.356-.032.46-.02.102.014.392.04.637.316 0 0-.302-.243-.642-.23a.854.854 0 00-.43.148c-.011.007-.39.275-.47.369-.082.094-.295.4-.989.585-.502.134-1.283.12-1.283.12s-.315.107-.565.101c-.25-.006-.342-.112-.342-.112s-.438-.048-.557-.392c0 0 .457.022.475.018.018-.004.654-.004 1.037-.297.35-.268.346-.44.346-.44s-.018-.204-.229-.294c-.235-.1-.224-.248-.224-.248s-.238-.195-.23-.46c0 0 .057.065.155.126l.207.11c-.19-.135-.529-.54-.569-.844 0 0 .211.304.395.384.01.005-.399-.399-.41-.685 0 0 .18.275.396.385.011.006-.385-.498-.364-.891 0 0 .193.493.697.835.003.003-.528-.627-.494-1.44 0 0 .122.775.796 1.274.004.003-.69-.973-.548-1.557 0 0 .066.679.642 1.4.002.002-.525-.715-.287-1.407 0 0-.092.711.405 1.275.499.564.506 1.36.506 1.36z" fill="none" stroke="#080909" stroke-miterlimit="3.864" stroke-width=".011"/><path d="M3.315 5.355s.42.023.584-.018c.165-.04.42-.096.52-.155 0 0-.283.38-.672.36s-.432-.187-.432-.187" fill="#009450"/><path d="M3.315 5.355s.42.023.584-.018c.165-.04.42-.096.52-.155 0 0-.283.38-.672.36s-.432-.187-.432-.187z" fill="none" stroke="#009450" stroke-miterlimit="3.864" stroke-width=".011"/><path d="M5.27 4.745s.236-.129.654-.096c.122.01.251.297.59.33.14.014.222-.002.222-.002s-.27.308-.499.32c-.239.012-.524-.014-.832-.338a.934.934 0 01-.135-.214" fill="#fff"/><path d="M4.24 5.505s.238-.19.336-.332c.06-.088.358-.345.573-.378 0 0 .197.499.886.604 0 0-.572.275-1.775.112" fill="#20407e"/><path d="M4.24 5.505s.238-.19.336-.332c.06-.088.358-.345.573-.378 0 0 .197.499.886.604 0 0-.572.275-1.775.112z" fill="none" stroke="#20407e" stroke-miterlimit="3.864" stroke-width=".018"/><path d="M4.743 5.555c-.004 0 .155-.051.241-.204 0 0 .131.164.288.205.003 0-.33.032-.529 0m1.934-1.121c-.184.131-.399.169-.399.169s.283-.011.386-.059c.285-.13.648-.18.648-.18-.049-.05-.166-.075-.166-.075 0 .004.009.021.008.026a.083.083 0 01-.089.078.084.084 0 01-.08-.087c0-.009.01-.026.006-.026-.045 0-.13.024-.314.154" fill="#fff"/><path d="M7.434 4.435s-.44.235-.627.452a.32.32 0 01-.118.006c-.083-.004-.238.01-.36-.054-.12-.063-.226-.17-.226-.17s.191.026.382.014c.141-.01.387-.106.395-.11.206-.1.554-.138.554-.138" fill="#e4292f"/><path d="M4.675 2.505s.422.492.64.646c.413.29.421.648.413.796 0 0-.296-.435-.44-.59-.145-.156-.5-.514-.613-.852" fill="#fff"/><path d="M4.967 4.745s.185-.18.022-.426c-.001-.003.095.03.188.039a.35.35 0 00.004-.05c-.203-.06-.493-.166-.545-.294 0 0 .337.162.556.178l.017-.055c-.218-.054-.672-.19-.763-.397 0 0 .474.258.792.297.003 0 .024-.056.024-.056-.204-.058-.638-.272-.846-.633 0 0 .51.422.896.534l.04-.055c-.225-.12-.764-.353-.88-.739-.003-.007.497.47.61.447 0 0-.56-.46-.611-.728 0 0 .94.933 1.033.992.046.03.109.154.109.154s.207.511.57.635c.008.002-.475-.065-.674-.014a8.271 8.271 0 00-.542.171" fill="#009450"/><path d="M7.4 4.235s.219-.067.524.004c.288.067.667.266.584.506 0 0-.08.144-.32-.066-.114-.062-.376-.189-.65-.062l-.015.018 1.022.389.16-.572-.895-.37-.447.104" fill="#e4292f"/><path d="M3.567 8.175L5.18 12.4 9.3 9.134" fill="#009450"/><g clip-path="url(#c)" transform="matrix(.35278 0 0 -.35278 -142.447 31.775)"><path d="M413.77 66.944l15.148-3.222-10.46-8.795 24.407 12.02" fill="url(#d)"/></g></svg>