<svg xmlns="http://www.w3.org/2000/svg" viewBox="0 0 566.65 155.89"><g data-name="Layer 2"><g data-name="Layer 1"><path d="M303.91 123V82.2l-35.51-56h23l22.76 38.4 22.37-38.4H359l-35.67 56.12V123zM183.23 91.46l18.93-1.88a26 26 0 003.58 10.11 16.74 16.74 0 007.1 6.29 24.31 24.31 0 0010.5 2.11 26.46 26.46 0 0013.18-3.24 10.73 10.73 0 005.79-10 8.51 8.51 0 00-4.16-7.65q-3.54-2.39-20.58-6.6-19.15-4.86-24.92-12.67c-4-5.43-6.06-10.87-6.06-16.28q0-9.43 5.06-15.55a28.21 28.21 0 0113.12-8.84 53.88 53.88 0 0117.33-2.72 57.12 57.12 0 0113.9 1.62 37.12 37.12 0 0111.85 5.16 24.94 24.94 0 018.22 9.18 28.59 28.59 0 013 13.44l-19.55.86c-1.17-9.35-7-14-17.55-14a30 30 0 00-11.36 2.2q-5.34 2.17-5.33 7.32 0 5.8 9.94 8.84T235.83 65a44.35 44.35 0 0118.33 9.6c5.13 4.49 7.7 11.29 7.7 20.33a27.35 27.35 0 01-2.43 11.4 29.63 29.63 0 01-7 9.55 28.42 28.42 0 01-12.88 6.94 66.37 66.37 0 01-16.47 2 56.07 56.07 0 01-15.46-2 33.31 33.31 0 01-12-6.1 30.36 30.36 0 01-8.19-10.33 45.85 45.85 0 01-4.2-14.93zm-41.41-6.75l-13.3-35.95-13 35.95zm36 38.27h-21.18l-8.51-21.87h-38.65l-8 21.87H80.76l37.79-96.82h20.51zM0 123V26.16h71.84v16.41h-52.3V64h48.68v16.36H19.54v26.33h54.07V123z" fill="#0060af"/><path d="M459 150.91l1.83-.16a4.08 4.08 0 00.61 1.81 3.41 3.41 0 001.48 1.15 5.62 5.62 0 002.26.43 5.46 5.46 0 002-.33 2.7 2.7 0 001.27-.91 2.08 2.08 0 00.42-1.26 1.92 1.92 0 00-.41-1.21 3 3 0 00-1.32-.87c-.4-.15-1.27-.39-2.62-.72a13.3 13.3 0 01-2.85-.92 3.94 3.94 0 01-1.57-1.37 3.36 3.36 0 01-.51-1.83 3.73 3.73 0 01.63-2.08 4 4 0 011.84-1.48 7.18 7.18 0 012.71-.5 7.45 7.45 0 012.89.53 4.19 4.19 0 011.92 1.55 4.41 4.41 0 01.72 2.32l-1.86.14a3.07 3.07 0 00-1-2.11 4 4 0 00-2.56-.71 4.14 4.14 0 00-2.58.65 1.93 1.93 0 00-.81 1.56 1.65 1.65 0 00.57 1.3 7.54 7.54 0 002.94 1.05 20.23 20.23 0 013.26.94 4.48 4.48 0 011.9 1.51 3.62 3.62 0 01.61 2.09 4 4 0 01-.67 2.22 4.4 4.4 0 01-1.93 1.61 6.68 6.68 0 01-2.84.58 8.45 8.45 0 01-3.35-.58 4.65 4.65 0 01-2.12-1.76 4.89 4.89 0 01-.8-2.64m-14.22 4.73v-14.73h2l7.73 11.57v-11.57h1.87v14.73h-2l-7.73-11.57v11.57zm-14.64-7.14a5.91 5.91 0 001.43 4.19 5 5 0 007.22 0 6.31 6.31 0 001.42-4.39 7.45 7.45 0 00-.61-3.14 4.6 4.6 0 00-1.78-2.08 4.82 4.82 0 00-2.62-.74 5 5 0 00-3.56 1.42q-1.5 1.41-1.5 4.74zm-2 0a8 8 0 012-5.74 6.73 6.73 0 015.09-2.08 7 7 0 013.67 1 6.33 6.33 0 012.5 2.72 8.79 8.79 0 01.86 4 8.54 8.54 0 01-.91 4 6.15 6.15 0 01-2.56 2.68 7.24 7.24 0 01-3.57.91 7 7 0 01-3.72-1 6.47 6.47 0 01-2.48-2.75 8.3 8.3 0 01-.88-3.77zm-4.79 7.17v-14.76h1.94v14.73zm-9.16 0v-13h-4.85v-1.74h11.67v1.74h-4.87v13zm-8.94-14.73h1.95v8.51a10 10 0 01-.5 3.53 4.31 4.31 0 01-1.81 2.12 6.39 6.39 0 01-3.44.82 7.16 7.16 0 01-3.39-.71 4.12 4.12 0 01-1.88-2.07 9.93 9.93 0 01-.56-3.69v-8.51h1.95v8.5a8.2 8.2 0 00.36 2.83 2.69 2.69 0 001.22 1.4 4.25 4.25 0 002.13.49 4.05 4.05 0 003.06-1c.61-.65.91-1.9.91-3.75zm-21.18 14.73v-14.76h1.95v13h7.25v1.74zm-14.51-7.14a5.91 5.91 0 001.43 4.19 5 5 0 007.22 0 6.31 6.31 0 001.42-4.39 7.61 7.61 0 00-.61-3.14 4.66 4.66 0 00-1.78-2.08 4.82 4.82 0 00-2.62-.74 5 5 0 00-3.57 1.42q-1.48 1.38-1.49 4.71zm-2 0a8 8 0 012-5.74 6.73 6.73 0 015.09-2.08 7 7 0 013.67 1 6.33 6.33 0 012.5 2.72 8.79 8.79 0 01.85 4 8.54 8.54 0 01-.9 4 6.15 6.15 0 01-2.56 2.68 7.27 7.27 0 01-3.57.91 7 7 0 01-3.72-1 6.47 6.47 0 01-2.48-2.75 8.3 8.3 0 01-.89-3.8zm-13.78 2.44l1.83-.16a4.08 4.08 0 00.61 1.81 3.41 3.41 0 001.48 1.15 5.62 5.62 0 002.26.43 5.46 5.46 0 002-.33 2.7 2.7 0 001.27-.91 2.08 2.08 0 00.42-1.26 1.92 1.92 0 00-.41-1.21 3 3 0 00-1.32-.87c-.4-.15-1.27-.39-2.62-.72a13.3 13.3 0 01-2.85-.92 3.94 3.94 0 01-1.57-1.37 3.36 3.36 0 01-.51-1.83 3.73 3.73 0 01.63-2.08 4 4 0 011.84-1.48 7.18 7.18 0 012.71-.5 7.45 7.45 0 012.89.53 4.19 4.19 0 011.92 1.55 4.41 4.41 0 01.72 2.32l-1.87.14a3 3 0 00-1-2.11 4 4 0 00-2.56-.71 4.14 4.14 0 00-2.58.65 1.93 1.93 0 00-.81 1.56 1.65 1.65 0 00.57 1.3 7.54 7.54 0 002.94 1.05 20.23 20.23 0 013.26.94 4.48 4.48 0 011.9 1.51 3.62 3.62 0 01.61 2.09 4 4 0 01-.67 2.22 4.4 4.4 0 01-1.93 1.61 6.68 6.68 0 01-2.84.58 8.45 8.45 0 01-3.35-.58 4.65 4.65 0 01-2.12-1.76 4.89 4.89 0 01-.86-2.7zm-13.51 4.73v-13h-4.85v-1.74h11.67v1.74h-4.87v13zm-16.25-8.23h4.19a6.41 6.41 0 002.09-.27 2.23 2.23 0 001.14-.89 2.37 2.37 0 00.39-1.32 2.2 2.2 0 00-.76-1.72 3.57 3.57 0 00-2.39-.67h-4.66zm-1.95 8.23v-14.79h6.53a8.76 8.76 0 013 .4 3.32 3.32 0 011.64 1.4 4.17 4.17 0 01.61 2.22 3.72 3.72 0 01-1 2.64 5.16 5.16 0 01-3.14 1.37 5.17 5.17 0 011.18.73 10.19 10.19 0 011.62 2l2.56 4h-2.45l-1.95-3.07c-.57-.88-1-1.56-1.41-2a4.56 4.56 0 00-1-1 2.69 2.69 0 00-.89-.39 6.49 6.49 0 00-1.08-.07h-2.26v6.54zm-14.63-7.2a5.91 5.91 0 001.43 4.19 5 5 0 007.22 0 6.31 6.31 0 001.42-4.39 7.45 7.45 0 00-.61-3.14 4.6 4.6 0 00-1.78-2.08 4.82 4.82 0 00-2.62-.74 5 5 0 00-3.56 1.42q-1.5 1.41-1.5 4.74zm-2 0a8 8 0 012-5.74 6.73 6.73 0 015.09-2.08 7 7 0 013.67 1 6.33 6.33 0 012.5 2.72 8.79 8.79 0 01.86 4 8.66 8.66 0 01-.9 4 6.22 6.22 0 01-2.57 2.68 7.24 7.24 0 01-3.57.91 7 7 0 01-3.72-1 6.47 6.47 0 01-2.48-2.75 8.3 8.3 0 01-.88-3.77zm-11.88 7.17v-14.76h9.94v1.74h-8v4.56h6.91V149h-6.91v6.69zm-17.3 0v-14.76h2.94l3.48 10.43c.33 1 .56 1.7.71 2.18.16-.53.42-1.32.78-2.36l3.53-10.25h2.62v14.73h-1.88v-12.33l-4.28 12.33h-1.76l-4.26-12.54v12.54zm-14.52-7.17a5.91 5.91 0 001.43 4.19 5 5 0 007.21 0 6.27 6.27 0 001.43-4.39 7.61 7.61 0 00-.61-3.14 4.66 4.66 0 00-1.78-2.08 4.85 4.85 0 00-2.63-.74 5 5 0 00-3.56 1.42q-1.48 1.41-1.49 4.74zm-2 0a8 8 0 012-5.74 6.71 6.71 0 015.08-2.08 7.06 7.06 0 013.68 1 6.39 6.39 0 012.5 2.72 8.79 8.79 0 01.85 4 8.66 8.66 0 01-.9 4 6.2 6.2 0 01-2.56 2.68 7.3 7.3 0 01-3.58.91 7 7 0 01-3.71-1 6.41 6.41 0 01-2.48-2.75 8.17 8.17 0 01-.89-3.77zm-3.76 2l2 .49a6.51 6.51 0 01-2.2 3.66 6.07 6.07 0 01-3.89 1.26 7 7 0 01-3.88-1 6.06 6.06 0 01-2.27-2.8 10.22 10.22 0 01-.77-4 8.79 8.79 0 01.87-4 6 6 0 012.51-2.6 7.33 7.33 0 013.57-.89 6 6 0 013.71 1.13 5.77 5.77 0 012.1 3.16l-1.92.45a4.54 4.54 0 00-1.48-2.34 4 4 0 00-2.46-.73 4.76 4.76 0 00-2.83.81 4.27 4.27 0 00-1.6 2.19 8.71 8.71 0 00-.47 2.83 9.12 9.12 0 00.55 3.28 4.1 4.1 0 001.7 2.09 4.84 4.84 0 002.51.69 4.19 4.19 0 002.77-.94 4.9 4.9 0 001.44-2.76z" fill="#61c2ee"/><path d="M554 123.78h-8.78V90.64h8.16v4.75q3.17-5.49 7.53-5.5a11.34 11.34 0 015.77 1.65l-2.73 7.64a8 8 0 00-4.16-1.42 4.5 4.5 0 00-4.49 3.21q-1.31 3-1.3 12.57zm-24.2-19.42a9.66 9.66 0 00-.75-3.83 6.53 6.53 0 00-2.23-2.83 6 6 0 00-3.62-1.07 5.91 5.91 0 00-3.58 1.05 6.56 6.56 0 00-2.2 2.85 10 10 0 00-.73 3.83zm-.55 8.84l8.77 1.5q-3.42 9.85-14.38 9.86-7.8 0-11.95-4.6t-4.17-12.48a22.74 22.74 0 011-6.74 17.55 17.55 0 012.86-5.6 13.23 13.23 0 014.81-3.85 14.89 14.89 0 016.58-1.4 16.86 16.86 0 017.56 1.53 12.26 12.26 0 014.83 4.22 18.66 18.66 0 012.55 6.2 36.72 36.72 0 01.78 7.9h-22a9 9 0 001.92 5.77 6.38 6.38 0 005.26 2.42q4.19 0 5.55-4.73zm-25.38-22.56v7h-6V111a21.18 21.18 0 00.35 5.26 2 2 0 002.08 1 14.13 14.13 0 003.5-.84l.78 6.83a18.68 18.68 0 01-6.94 1.3 10.22 10.22 0 01-4.79-1 5.84 5.84 0 01-2.62-2.65 10.64 10.64 0 01-1-3.64c-.13-1.28-.19-3-.19-5.21V97.64h-4v-7h4v-6.57l8.84-5.07v11.64zm-31.52 33.14h-8.77V90.64h8.15v4.75q3.16-5.49 7.53-5.5a11.34 11.34 0 015.74 1.65l-2.73 7.64a8 8 0 00-4.16-1.42 4.5 4.5 0 00-4.49 3.21q-1.31 3-1.3 12.57zm-25.62-15.88a27.53 27.53 0 01-3.18.75 43.06 43.06 0 00-4.27 1 8.83 8.83 0 00-3.14 1.58 3.18 3.18 0 00-1.27 2.58 4.09 4.09 0 001.43 3.27 5.13 5.13 0 003.49 1.25A7.24 7.24 0 00444 117a5.73 5.73 0 002.29-2.91 17.26 17.26 0 00.46-4.5zM435 100.77l-7.93-1.48a10.88 10.88 0 015-7.19 18 18 0 019.25-2.21 28 28 0 018 1 7.74 7.74 0 015 4.13q1.07 2.11 1.07 7.3v5.75c0 1.46 0 3.09-.05 4.84q0 7.25 1.93 10.85h-8.64L448 122q-.27-.82-.63-1.86a14 14 0 01-10.24 4.39 12.93 12.93 0 01-5.52-1.15 9.19 9.19 0 01-5.45-8.69 8.37 8.37 0 012-6 10.69 10.69 0 014.64-3c1.75-.54 4.17-1.12 7.27-1.76a35.89 35.89 0 006.64-1.85v-.81c0-1.94-.48-3.2-1.44-3.8a8.88 8.88 0 00-4.55-.9c-3.01.06-4.93 1.43-5.72 4.2zM397.94 78v16.87a12.81 12.81 0 0110.13-5q4.55 0 7 1.83a9 9 0 013.36 5 29.23 29.23 0 01.88 7.62v19.45h-8.78v-19.32a13.22 13.22 0 00-1-5.76q-1-2.06-4.43-2.06a7.14 7.14 0 00-3.74.88 5.49 5.49 0 00-2.19 2.34 10.91 10.91 0 00-1 3.32 29.2 29.2 0 00-.26 4v16.59h-8.77V78zm-25.3 29l8.95 2.86q-3.85 14.75-19 14.75a21.31 21.31 0 01-8.83-1.79 18.42 18.42 0 01-6.64-5 22.7 22.7 0 01-4-7.43 29.08 29.08 0 01-1.36-9 32.34 32.34 0 011.36-9.63 21.89 21.89 0 014-7.62 18.51 18.51 0 016.76-5 23.35 23.35 0 019.47-1.81 22.54 22.54 0 016.28.84 17.18 17.18 0 015.3 2.58 15.92 15.92 0 014 4.24 19.56 19.56 0 012.51 5.74l-9.15 2.19A9.27 9.27 0 00369 87.2a9.82 9.82 0 00-6.31-2.08q-11.36 0-11.37 16a27.93 27.93 0 001 7.6 11.69 11.69 0 003.51 5.72 9.73 9.73 0 006.7 2.22q7.88.03 10.11-9.66z" fill="#0081b7"/><path d="M433.68 56.37C387 44.19 379.85 43 354.07 46c17.69 4.3 53.89 12.92 81.46 25.46C454.3 41.75 494.21 22.55 520.61 0c-28.83 9.19-72.55 41.92-86.93 56.37" fill-rule="evenodd" fill="#0081b7"/><path d="M368.71 53.94c12.74 3 31.39 6.2 46.39 8.24l37.39 10.93c12.58-25.57 27.91-37.86 49.86-58.73-43.76 29.2-41 32.77-53.51 49.31-27.16-12-65.95-11.47-80.13-9.75" fill-rule="evenodd" fill="#61c2ee"/></g></g></svg>