<svg version="1.0" viewBox="0 0 500 240.08" xmlns="http://www.w3.org/2000/svg"><g fill="#1c2d5b" fill-rule="evenodd" stroke-miterlimit="2.613" stroke-width="0"><path d="M112.266 10.002l-.952 3.738-10.924.121c-2.084 0-3.449 5.873-1.845 5.873l8.91.6c5.632.231 1.124 13.532-4.638 13.532l-12.65.18.953-3.798 11.697-.182c2.676-.06 4.749-6.173 2.373-6.173-3.317 0-5.4-.241-6.884-.241-4.038 0-4.69-2.315-4.69-6.474 0-3.379 3.618-7.176 7.305-7.176h11.345zM16.294 26.328l-1.776 7.597H10l5.11-23.874h10.333c1.665 0 6.355 1.013 7.007 3.448 1.131 3.92-1.304 9.804-3.148 10.984-1.132.713-3.025 1.845-6.294 1.845h-6.714zm.772-3.86h5.521c3.038 0 4.46-.179 5.463-3.858.48-1.904.662-4.628-3.559-4.628H18.73l-1.663 8.487zm30.878-8.787c-3.738 0-6.173 2.253-6.645 4.99l-1.252 6.235c-.593 3.146-.293 5.222 4.159 5.222 3.98 0 5.942-.893 6.894-4.632l1.593-6.234c.662-4.57-.349-5.58-4.749-5.58zm.6-3.63h-.058c-6.004 0-10.453 2.558-11.587 8.972-1.363 7.546-5.873 14.902 5.883 14.902 2.907 0 8.318-.41 9.621-2.256 2.315-3.438 4.752-11.042 4.752-13.539 0-6.052-1.545-8.08-8.61-8.08zm15.615 0h4.57L64.58 30.128h10.925l-.831 3.797H59.107L64.16 10.05zm20.367 0h4.46l-5.053 23.874h-4.51l5.103-23.874zm34.865 0h4.631l-2.145 9.803h11.056l2.014-9.803h4.51l-4.982 23.874h-4.518l2.024-10.212h-10.814l-2.197 10.212h-4.508l4.93-23.874zm37.295 16.097h7.956L163.211 13.5l-6.525 12.65zm3.859-16.097h6.594l3.027 23.874h-4.63l-.542-4.329H154.84l-2.434 4.329h-4.752l12.89-23.874zm18.82 0h4.4l-4.99 23.874h-4.511l5.1-23.874zm21.318 3.93h-6.414l-1.714 8.367h6.586c2.914 0 4.749-1.362 4.99-4.097.241-2.786 0-4.27-3.448-4.27zm1.544-3.93c9.501 0 7.846 14.021.3 14.204 5.222-.121 2.556 6.945 1.963 9.67h-4.518l.71-3.497c.542-2.738.712-4.28-3.027-4.28h-5.873l-1.724 7.777H185.6l5.052-23.874h11.576zm13.599 0l-5.04 23.874h15.554l.772-3.797h-10.925l4.16-20.077h-4.521zm20.197 0h4.508l-4.932 23.874h-4.507l4.93-23.874zm11.284 0h7.417l5.942 20.077h.18l3.738-20.077h4.51l-4.99 23.874h-7.538l-5.7-19.943h-.183l-3.859 19.943h-4.449l4.932-23.874zm67.519-.049l-.952 3.738-10.925.121c-2.083 0-3.446 5.873-1.842 5.873l8.908.6c5.645.231 1.124 13.532-4.629 13.532l-12.648.18.941-3.798 11.707-.182c2.666-.06 4.75-6.173 2.374-6.173-3.325 0-5.411-.241-6.894-.241-4.039 0-4.69-2.315-4.69-6.474 0-3.379 3.628-7.176 7.304-7.176h11.346zm-44.128 23.923l4.931-23.874h16.095l-.649 3.93h-11.828l-1.183 6.053h11.046l-.711 3.8h-10.986l-1.422 6.294h11.695l-.773 3.797h-16.215zm-13.48 122.633c1.134-3.798 1.665-7.477 1.965-11.225.952-14.132-8.728-30.106-28.623-32.482h-9.983c-19.715 2.376-28.684 18.35-28.684 32.482 0 3.858.834 8.67 2.145 12.587 3.617 9.803 11.635 18.29 26.308 19.894 17.46.662 30.278-3.207 36.872-21.256zm-27.55-95.842h260.341l-13.59 52.135h-52.98L392.03 230.08h-58.439l31.42-117.23h-54.993c6.055 10.632 9.32 21.739 8.548 32.482-2.614 38.726-24.222 83.144-90.379 84.627H69.152v.12H10.713L56.085 60.775h58.44l-31.361 117.04h53.63c-4.038-10.564-5.944-21.73-5.944-32.482 0-39.428 30.108-84.558 93.83-84.558 1.662 0 3.266 0 4.931.11l.06-.17z"/><path d="M257.46 155.665l-.652 1.665h-33.144l10.042 7.186c3.8 2.735 4.038 9.44 2.135 12.057l-18.943-19.243-22.86.059-.36-.89c7.836-2.076 15.443-4.511 22.33-6.766l17.277-36.461c1.845 3.738 6.776 7.355 3.207 12.997l-13.418 21.208c7.956-2.144 9.921 5.694 12.056 7.187 1.662 1.121 6.173.942 8.728.41 2.676-.592.183-3.327 2.435-3.327 10.987 0 6.766 4.87 9.742 4.338.41 0 1.003-.48 1.424-.42z"/></g></svg>