<svg width="253.2" height="73.969" viewBox="0 0 66.992 19.571" xmlns="http://www.w3.org/2000/svg"><defs><linearGradient id="d" x2="1" gradientTransform="rotate(-59.582 294.138 -59.532) scale(8.4446)" gradientUnits="userSpaceOnUse"><stop stop-color="#df846b" offset="0"/><stop stop-color="#df846b" offset=".066"/><stop stop-color="#e2001a" offset=".352"/><stop stop-color="#ac0527" offset=".85"/><stop stop-color="#ac0527" offset="1"/></linearGradient><linearGradient id="c" x2="1" gradientTransform="matrix(4.113 9.9357 -10.863 .02863 188.84 210.25)" gradientUnits="userSpaceOnUse"><stop stop-color="#df846b" offset="0"/><stop stop-color="#df846b" offset=".066"/><stop stop-color="#e2001a" offset=".352"/><stop stop-color="#ac0527" offset=".85"/><stop stop-color="#ac0527" offset="1"/></linearGradient><linearGradient id="b" x2="1" gradientTransform="matrix(9.3959 15.096 -16.803 3.5196 185.63 205.22)" gradientUnits="userSpaceOnUse"><stop stop-color="#90bf9f" offset="0"/><stop stop-color="#90bf9f" offset=".093"/><stop stop-color="#1fa22e" offset=".676"/><stop stop-color="#008132" offset=".885"/><stop stop-color="#008132" offset="1"/></linearGradient><linearGradient id="a" x2="1" gradientTransform="matrix(-18.574 -9.5957 7.5642 -18.132 196.36 215.67)" gradientUnits="userSpaceOnUse"><stop stop-color="#eceded" offset="0"/><stop stop-color="#fff" offset=".264"/><stop stop-color="#cfd1d2" offset="1"/></linearGradient></defs><path d="M196.07 213.29c1.791.844 3.306 2.214 4.212 3.136 1.44 1.47.741 5.006-.788 6.473 2.004-1.46 2.626-3.16 2.692-4.522v-.498a4.646 4.646 0 00-.274-1.389c-.89-2.358-3.102-4.11-6.398-5.621-7.764-3.563-18.773-6.385-19.845-11.486.54 9.13 13.116 10.478 20.401 13.907" fill="url(#a)" transform="translate(-77.893 -142.343) scale(.71526)"/><path d="M199.23 217.37c3.724 3.42-.413 6.048-1.38 6.66 2.045-1.13 3.658-2.997 3.75-4.99v-.353c-.061-1.322-.811-2.684-2.563-3.909-5.507-3.85-19.587-6.477-21.008-8.855 2.86 7.312 16.286 6.931 21.202 11.447" fill="url(#b)" transform="translate(-77.893 -142.343) scale(.71526)"/><path d="M180.29 209.76c4.462 7.299 19.154 6.882 20.153 10.704.216.828-.29 1.633-.88 2.22.828-.815 1.41-1.508 1.368-2.879-.17-5.771-16.913-6.979-20.641-10.045z" fill="url(#c)" transform="translate(-77.893 -142.343) scale(.71526)"/><path d="M193.3 225.99c6.06-1.836 9.948-5.496 4.553-7.164 2.88 1.377.503 5.468-4.553 7.164" fill="url(#d)" transform="translate(-77.893 -142.343) scale(.71526)"/><path d="M13.052 14.428h-.505l1.616-5.98.007-.027h1.343l-1.37 5.082c-.139.556-.562.925-1.09.925" fill="#4b4b4d"/><path d="M14.268 8.348l-.007.028-1.616 5.978h.505c.53 0 .953-.368 1.091-.924l1.37-5.082z" fill="#a0a5a9"/><path d="M3.239 14.428H.973l.36-.267c.13-.09.273-.32.335-.507.073-.207.218-.648.297-.9.12-.382.317-1.041.59-1.971.134-.465.262-.866.352-1.185.214-.797.737-1.314 1.481-1.316.159-.001.34-.006.54-.012.144-.003.272-.004.388-.004l.367.001c.285 0 .497.013.65.043.146.031.275.075.39.138a.841.841 0 01.275.24.956.956 0 01.15.325c.03.11.046.226.045.35v.066a1.93 1.93 0 01-.053.384c-.04.17-.097.332-.17.486-.074.154-.16.294-.261.42-.1.124-.207.23-.323.321a2.117 2.117 0 01-.318.206l-.005.003a.953.953 0 01.36.356 1 1 0 01.124.32c.018.091.028.19.028.292l-.001.067-.002.016v.001a2.043 2.043 0 01-.056.382 2.32 2.32 0 01-.369.807c-.174.243-.383.44-.622.584a2.248 2.248 0 01-.753.285c-.268.048-.77.068-1.533.069m.383-2.588l-.426 1.457h.686c.172 0 .308-.009.398-.023a1.232 1.232 0 00.481-.184.86.86 0 00.152-.148 1.23 1.23 0 00.23-.465.924.924 0 00.028-.179v-.031a.454.454 0 00-.005-.079.37.37 0 00-.264-.306 1.534 1.534 0 00-.42-.042h-.86m1.16-2.45c-.085 0-.17.001-.233.004-.15.018-.2.034-.285.284-.058.203-.225.747-.307 1.03h.423c.257 0 .433-.007.509-.02a1.27 1.27 0 00.273-.075.71.71 0 00.244-.158 1.127 1.127 0 00.304-.533l.002-.014a.682.682 0 00.02-.137v-.03c0-.024 0-.045-.003-.065a.275.275 0 00-.063-.155.346.346 0 00-.159-.092 1.497 1.497 0 00-.373-.035h-.012s-.17-.003-.34-.003" fill="#4b4b4d"/><path d="M5.828 9.693a.755.755 0 01-.018.137l-.004.013a1.131 1.131 0 01-.11.282 1.04 1.04 0 01-.193.251.682.682 0 01-.244.16 1.33 1.33 0 01-.274.075 4.18 4.18 0 01-.508.02h-.422c.08-.285.247-.828.306-1.031.085-.25.136-.265.285-.284.191-.008.573 0 .573 0h.012c.177 0 .306.014.372.035.072.02.121.052.159.093a.262.262 0 01.063.154c.004.02.004.042.004.065zm-.56 2.527a1.18 1.18 0 01-.121.428 1.23 1.23 0 01-.137.216c-.05.062-.1.11-.152.148a.984.984 0 01-.21.11 1.19 1.19 0 01-.271.074 2.645 2.645 0 01-.399.023h-.685l.426-1.457h.86c.205 0 .353.019.42.042a.402.402 0 01.18.117.436.436 0 01.09.268zm1.828-3.61a.874.874 0 00-.276-.24 1.416 1.416 0 00-.388-.137 3.582 3.582 0 00-.652-.043c-.203 0-.444-.005-.754.004a23.5 23.5 0 01-.54.011c-.744.002-1.269.52-1.482 1.317-.09.318-.217.719-.352 1.183-.272.93-.47 1.588-.59 1.973a43.8 43.8 0 01-.297.9c-.062.187-.205.416-.334.507l-.362.266h2.266c.764 0 1.266-.021 1.535-.07.263-.046.514-.143.752-.283.24-.145.45-.342.622-.586.175-.244.298-.514.37-.806a2.11 2.11 0 00.056-.382v-.018l.002-.065c0-.104-.01-.202-.027-.293a1.03 1.03 0 00-.485-.677l.005-.003a2.02 2.02 0 00.901-.946c.073-.154.13-.316.17-.486.03-.13.049-.257.053-.383l.001-.027v-.041c0-.122-.014-.24-.045-.35a.949.949 0 00-.15-.325" fill="#a0a5a9"/><path d="M8.825 14.428h-.053c-.43-.001-.748-.069-.973-.245-.21-.168-.3-.425-.3-.727l.001-.065c.006-.19.043-.403.104-.643l.8-2.95h1.34l-.785 2.922a1.278 1.278 0 00-.058.314v.019c.001.125.026.176.086.226.062.05.2.093.429.093h.003c.391-.003.591-.096.737-.262.147-.168.244-.45.331-.843l.67-2.47h1.318l-1.023 3.915a2.027 2.027 0 00-.05.214.322.322 0 00.065.234l.194.243H9.974l.064-.293c-.362.278-.793.318-1.213.318" fill="#4b4b4d"/><path d="M11.507 13.848c.01-.068.03-.15.049-.214l1.024-3.915h-1.318l-.67 2.47c-.087.393-.185.675-.33.843-.148.167-.347.26-.738.262H9.52c-.23 0-.367-.043-.43-.093-.06-.05-.084-.101-.086-.226v-.019a1.4 1.4 0 01.058-.314L9.85 9.72H8.508l-.8 2.951c-.06.24-.096.452-.103.643l-.002.065c0 .302.09.56.301.726.223.177.543.244.973.245h.052c.42 0 .85-.04 1.214-.317l-.064.293h1.686l-.194-.243a.32.32 0 01-.064-.234" fill="#a0a5a9"/><path d="M44.03 14.428h-1.777l.104-1.468h-1.1l-.358.685c-.32.617-.878.782-1.311.782h-.285l-.238-.001.115-.215c.002 0 2.683-4.985 2.785-5.166.113-.2.292-.4.456-.52.213-.159.42-.227.654-.227l.008.001a2 2 0 01.219.013c.396.034.6.365.599.747l-.002.055v.01c-.01.26-.246 4.413-.256 4.618v.065l-.001-.002a.52.52 0 00.11.35h.001c.088.116.194.204.194.204l.084.069m-1.472-4l-.796 1.507h.693l.103-1.506" fill="#4b4b4d"/><path d="M42.557 11.86h-.693l.795-1.506zm1.297 2.22a.522.522 0 01-.112-.35v.002-.065h.002c.008-.205.246-4.358.255-4.618v-.01L44 8.986c.003-.383-.202-.713-.597-.748a2.082 2.082 0 00-.22-.013h-.009c-.233 0-.44.067-.653.225-.164.12-.343.32-.457.52a2662.6 2662.6 0 00-2.783 5.167l-.114.214.237.002h.283c.433 0 .993-.164 1.313-.783.084-.158.273-.522.357-.684h1.102l-.105 1.468h1.778l-.084-.068s-.106-.09-.195-.205" fill="#a0a5a9"/><path d="M47.642 14.428h-.509L48.05 11c.2-.76.764-1.177 1.416-1.177h1.954l-.006.044-.017.12c-.062.492-.466.992-1.084.993h-.335c-.283 0-.425.054-.516.138-.09.083-.158.237-.221.485l-.512 1.9c-.135.55-.54.925-1.087.925" fill="#4b4b4d"/><path d="M49.58 9.75h-.011c-.653 0-1.22.417-1.42 1.177l-.917 3.428h.51c.546 0 .952-.373 1.086-.925l.512-1.9c.064-.247.131-.401.222-.484.091-.084.232-.138.517-.138h.334c.616-.002 1.021-.501 1.084-.994l.016-.12.006-.044z" fill="#a0a5a9"/><path d="M34.095 14.428h-.048c-.525-.001-.89-.099-1.13-.315-.221-.202-.302-.49-.302-.811l.001-.078c.014-.38.12-.816.254-1.31.164-.63.368-1.174.733-1.571.364-.397.888-.622 1.62-.622h.01c.259.001.523.011.758.102a.805.805 0 01.322.22l.068-.27h1.346l-1.07 3.913a.925.925 0 00-.046.24v.02c0 .093.02.15.052.204l.136.227h-1.597l.054-.237c-.364.245-.736.288-1.161.288m1.214-3.624c-.417.005-.605.12-.768.346-.16.23-.268.606-.399 1.086a3.349 3.349 0 00-.126.685l-.002.03c.002.176.037.239.098.286.061.049.205.083.43.083h.016c.419-.002.631-.081.788-.244.16-.165.276-.459.404-.91.104-.393.187-.71.193-.925v-.032c0-.155-.031-.23-.101-.29-.074-.064-.24-.115-.524-.115h-.01" fill="#4b4b4d"/><path d="M36.04 11.166c-.007.213-.088.532-.191.925h-.001c-.127.45-.246.745-.404.909-.157.162-.369.243-.788.244h-.012c-.227.002-.373-.033-.435-.083-.061-.047-.096-.11-.097-.286l.001-.029c.005-.16.048-.388.128-.686.13-.48.238-.856.398-1.086.163-.226.35-.34.767-.346h.006c.287 0 .453.052.526.116.072.059.102.135.103.29zm.713 2.444l1.071-3.913h-1.346l-.067.27a.82.82 0 00-.324-.22c-.233-.09-.497-.1-.757-.101h-.008c-.733 0-1.257.224-1.62.621-.367.398-.57.942-.736 1.571-.133.495-.239.932-.252 1.31a1.023 1.023 0 00-.003.079c0 .32.082.61.303.81.24.216.605.314 1.13.315h.047c.425 0 .797-.042 1.162-.288l-.055.237h1.597l-.136-.228a.375.375 0 01-.05-.203v-.02a.944.944 0 01.043-.24" fill="#a0a5a9"/><path d="M45.11 14.428h-.506l1.228-4.577.008-.028h1.342l-.984 3.684c-.158.548-.556.92-1.088.92" fill="#4b4b4d"/><path d="M45.947 9.75l-.008.03-1.229 4.575h.507c.53 0 .93-.372 1.088-.92l.983-3.685z" fill="#a0a5a9"/><path d="M17.351 16.109h-.004l-.116-.002h-2.466l.01-.047c.002-.003.117-.529.298-.758.177-.222.476-.403.902-.403h1.095c.362 0 .585-.062.723-.163.138-.103.222-.256.288-.516l.022-.076c-.356.229-.748.265-1.108.265h-.046c-.519 0-.883-.101-1.122-.32-.222-.206-.306-.497-.304-.818 0-.026 0-.05.002-.076.01-.313.087-.664.195-1.045.182-.713.363-1.31.721-1.745.357-.437.89-.676 1.683-.676h.018c.3 0 .557.004.781.081.121.04.231.108.32.206l.04-.149.031-.112h1.742l-.348.264c-.14.112-.212.21-.282.501l-1.022 3.752c-.188.696-.412 1.158-.75 1.452-.339.292-.767.385-1.303.385m.876-5.324c-.344.001-.524.058-.673.21-.152.155-.284.458-.423.97-.105.389-.189.71-.196.927v.03c0 .143.03.22.087.273.06.057.193.107.434.107h.012c.482-.004.694-.11.855-.32.161-.21.287-.721.394-1.09.107-.367.131-.518.136-.685v-.029c-.001-.159-.033-.229-.103-.286-.074-.06-.238-.107-.509-.107h-.014" fill="#4b4b4d"/><path d="M18.953 11.13c-.006.167-.03.318-.136.685-.106.37-.234.88-.394 1.09-.162.21-.374.317-.855.32h-.002c-.247.001-.383-.05-.444-.107-.058-.054-.087-.13-.088-.272v-.032c.007-.216.091-.538.197-.926.139-.511.27-.815.423-.97.148-.152.329-.208.673-.21h.005c.276 0 .443.047.517.107.071.058.103.127.104.287zm2.202-1.453h-1.741l-.03.113-.04.148a.777.777 0 00-.32-.205c-.225-.077-.48-.08-.782-.081h-.014c-.794 0-1.33.239-1.686.676-.359.434-.54 1.032-.722 1.745-.108.381-.185.732-.196 1.045l-.001.076c0 .322.083.612.304.817.24.219.604.32 1.123.32h.03c.364.002.761-.032 1.125-.263l-.024.075c-.066.26-.15.413-.288.515-.137.102-.36.164-.724.164h-1.094c-.426 0-.725.18-.902.403-.18.23-.296.756-.298.759l-.01.046h2.467l.115.002h.005c.535 0 .964-.093 1.304-.384.336-.294.56-.756.75-1.453l1.02-3.75c.072-.294.142-.39.282-.502z" fill="#a0a5a9"/><path d="M26.392 14.428h-.51L26.8 11c.198-.76.762-1.177 1.413-1.177h1.956l-.006.043-.016.12c-.063.493-.467.993-1.084.994h-.335c-.284 0-.427.054-.516.138-.091.083-.16.237-.222.485l-.512 1.9c-.135.55-.54.925-1.086.925" fill="#4b4b4d"/><path d="M30.247 9.907l.017-.12.005-.044h-1.951c-.653 0-1.22.417-1.418 1.178l-.917 3.427h.509c.547 0 .952-.373 1.086-.924l.512-1.9c.064-.248.131-.402.222-.485.09-.084.232-.138.517-.138h.333c.618-.002 1.021-.5 1.085-.994" fill="#a0a5a9"/><path d="M22.336 14.428h-.053c-.524 0-.89-.099-1.13-.315-.221-.202-.302-.49-.302-.812v-.077c.015-.38.12-.817.255-1.311.165-.63.368-1.173.734-1.57.363-.396.884-.62 1.613-.62h.016c.26 0 .524.01.758.1a.802.802 0 01.323.22l.068-.271h1.345l-1.07 3.914c-.059.202-.071.33.006.464l.135.227H23.44l.053-.237c-.364.244-.733.288-1.156.288m1.209-3.624c-.417.005-.603.119-.766.346-.161.23-.27.606-.399 1.086-.08.299-.121.526-.127.685v.031c0 .176.035.238.096.285.062.049.205.084.427.084h.02c.418-.003.63-.082.787-.245.159-.165.277-.461.406-.913l.004-.015c.101-.385.182-.697.188-.906v-.032c0-.155-.032-.23-.103-.292-.074-.062-.236-.115-.519-.115h-.014" fill="#4b4b4d"/><path d="M24.282 11.166c-.007.21-.088.522-.188.906l-.005.015c-.129.453-.246.749-.405.912-.156.163-.37.244-.788.245h-.013c-.225.002-.37-.033-.433-.083-.06-.047-.095-.11-.096-.284v-.032c.005-.16.049-.385.128-.685.13-.48.237-.855.397-1.086.163-.227.35-.34.767-.346h.005c.288 0 .454.052.528.116.07.059.101.136.102.29zm.711 2.444l1.072-3.914H24.72l-.068.272a.818.818 0 00-.324-.22c-.234-.092-.498-.102-.758-.102h-.009c-.732 0-1.256.224-1.62.621-.364.398-.568.941-.733 1.57-.134.495-.24.933-.254 1.31a1.454 1.454 0 00-.002.078c0 .322.08.611.304.813.24.215.604.314 1.128.314h.053c.424 0 .793-.044 1.157-.288l-.054.237h1.596l-.135-.226c-.077-.134-.065-.262-.008-.464" fill="#a0a5a9"/><path d="M30.226 14.428h-.506l1.234-4.605h1.32l-.96 3.684c-.159.548-.558.92-1.088.92" fill="#4b4b4d"/><path d="M29.825 14.349h.506c.531 0 .93-.372 1.089-.92l.96-3.685h-1.32zM.263 19.27l.64-2.416h.605l.25.921c.074.308.12.56.158.824h.01a6.27 6.27 0 01.176-.867l.23-.878h.48l-.634 2.416h-.534l-.265-.964a7.259 7.259 0 01-.174-.843l-.011.004c-.047.237-.13.577-.23.957l-.22.846zm3.934-1.388a.725.725 0 00-.138-.014c-.334 0-.608.408-.632.735-.013.172.046.29.19.29.154 0 .357-.176.468-.606zm-.253 1.387c.01-.104.03-.222.05-.347h-.01c-.183.29-.413.387-.617.387-.316 0-.512-.244-.485-.61.044-.591.482-1.222 1.346-1.222.208 0 .43.04.574.086l-.255.918c-.06.225-.118.57-.127.788zm2.17-2.231l-.125.477h.372l-.104.39h-.372l-.163.596c-.02.068-.041.16-.046.222-.006.086.025.147.136.147.047 0 .097 0 .144-.007l-.091.405a1.08 1.08 0 01-.308.039c-.308 0-.442-.161-.426-.38a1.79 1.79 0 01.06-.326l.188-.695h-.222l.1-.391h.226l.09-.33zm1.066.258c-.14 0-.24-.097-.229-.251a.321.321 0 01.32-.294c.15 0 .25.1.239.255-.014.183-.162.29-.327.29zm-.8 1.972l.464-1.753h.516l-.464 1.753zm1.766-.699c-.016.204.075.34.254.34.283 0 .472-.411.494-.713.012-.161-.043-.333-.251-.333-.298 0-.48.434-.497.706m1.282-.376c-.048.642-.52 1.11-1.13 1.11-.444 0-.72-.29-.687-.723.045-.61.505-1.108 1.13-1.108.469 0 .717.323.687.72m.242 1.078l.31-1.183c.06-.222.102-.416.135-.57h.459l-.058.29h.008c.182-.23.408-.33.64-.33.287 0 .436.176.413.477a2.24 2.24 0 01-.05.298l-.27 1.018h-.516l.255-.972c.016-.06.028-.132.033-.196.009-.123-.028-.209-.157-.209-.169 0-.381.212-.482.599l-.205.778zm3.59-1.388a.727.727 0 00-.139-.014c-.334 0-.608.408-.632.735-.013.172.046.29.19.29.154 0 .357-.176.468-.606zm-.254 1.387c.01-.104.03-.222.05-.347h-.01c-.183.29-.413.387-.617.387-.315 0-.512-.244-.485-.61.044-.591.482-1.222 1.346-1.222.207 0 .43.04.574.086l-.255.918a4.41 4.41 0 00-.127.788zm1.004.001s.49-1.838.567-2.115c.092-.337.315-.43.627-.43-.6 2.234-.677 2.545-.677 2.545zm3.784-.072a1.708 1.708 0 01-.646.108c-.638 0-1.039-.39-.99-1.028.04-.542.315-.965.698-1.209a1.6 1.6 0 01.908-.257c.262 0 .455.06.52.104l-.172.419a1.017 1.017 0 00-.43-.08.918.918 0 00-.567.188c-.216.164-.366.44-.391.777-.029.384.167.642.594.642.168 0 .338-.029.464-.079zm1.781-1.316a.727.727 0 00-.138-.014c-.334 0-.608.408-.632.735-.013.172.046.29.19.29.154 0 .357-.176.468-.606zm-.253 1.387c.01-.104.03-.222.05-.347h-.01c-.183.29-.413.387-.617.387-.316 0-.512-.244-.485-.61.044-.591.482-1.222 1.346-1.222.207 0 .43.04.574.086l-.255.918c-.06.225-.118.57-.127.788zm1.026.001l.275-1.043c.07-.265.114-.56.143-.71h.447l-.058.358h.01c.14-.233.35-.398.589-.398.032 0 .065 0 .097.004l-.138.502c-.025 0-.054-.004-.082-.004-.33 0-.506.294-.596.638l-.17.653zm1.495 0l.275-1.043c.07-.265.113-.56.142-.71h.448l-.058.358h.01c.14-.233.35-.398.589-.398a.87.87 0 01.096.004l-.138.502c-.025 0-.053-.004-.082-.004-.33 0-.505.294-.596.638l-.17.653zm2.296-1.974c-.14 0-.24-.097-.229-.251a.32.32 0 01.32-.294c.15 0 .25.1.239.255-.014.183-.161.29-.327.29zm-.8 1.972l.464-1.753h.517l-.465 1.753zm2.416-1.271c.007-.086-.06-.147-.179-.147-.24 0-.39.197-.44.362.402.004.607-.054.62-.212zm.178 1.169c-.212.103-.47.14-.662.14-.502 0-.739-.287-.705-.743.04-.534.468-1.09 1.103-1.09.354 0 .594.198.57.524-.033.448-.48.609-1.18.591a.33.33 0 00.04.18c.062.089.176.135.327.135.19 0 .354-.042.5-.11zm.452.104l.274-1.043c.07-.265.114-.56.143-.71h.448l-.059.358h.01c.14-.233.35-.398.59-.398a.77.77 0 01.096.004l-.138.502c-.025 0-.053-.004-.082-.004-.33 0-.505.294-.596.638l-.17.653z" fill="#a0a5a9"/></svg>