<svg width="300" height="70" version="1.0" viewBox="0 0 503 116" xmlns="http://www.w3.org/2000/svg"><g fill="#c1012f"><path d="M253.88 6.52c18.43-6.01 38.89-4.56 56.7 2.85 9.17 3.47 17.16 9.52 26.58 12.37 17.04 5.47 35.19 4.72 52.85 4.24 14.45-.14 29.33 6.69 37.17 19.11-5.69-2.83-11.65-5.75-18.18-5.61-12.17-.13-22.81 6.57-34.36 9.3-8.16 2.25-16.7 2.13-25.08 1.83-6.91-.24-13.61-2.2-20.52-2.49-10.72-.73-21.35 1.19-32.02 1.99-34.63 2.84-69.62 3.72-104.17-.65 40.72-.4 81.99-.42 121.87-9.76 6.2-1.55 12.36-3.36 18.18-6.01-12.97-3.1-24.77-9.52-35.89-16.7-12.63-8.31-28.09-12.06-43.13-10.47z"/><path d="M410.74 8.81c15.11-2.24 31.59-.56 44.54 8.08-4.39-1.07-8.69-2.63-13.23-2.96-13.24-1.2-26.46 2.82-37.99 9.13-2.24 1.58-4.96.35-7.41.15-8.64-1.43-17.4-.32-26.09-.3 12.59-6.61 26.18-11.52 40.18-14.1zM11.35 79.07c8.18-.81 16.44-.11 24.65-.37 2.93.15 6.37-.57 8.78 1.54 2.21 1.93 1.5 5.2 1.1 7.73-1.74 8.3-3.6 16.56-5.23 24.88-8.89.34-17.8.24-26.69.1-4.17-.36-9.46-1.22-11.43-5.44-1.95-5.99 3.2-11.8 8.91-12.89 8.04-1.58 16.27-2 24.39-3.14.47-2.33 1.05-5.78-2.04-6.51-7.81-.61-15.69-.04-23.53-.27.4-1.87.75-3.75 1.09-5.63m3.78 20.87c-2.45.19-5.19 2.17-4.55 4.92.89 2.08 3.41 2.34 5.39 2.4 5.41.09 10.83-.02 16.24.01.89-3.12 1.53-6.31 2.08-9.51-6.4.58-12.79 1.36-19.16 2.18zm40.69-17.07c.49-1.31.21-3.14 1.45-4.04 2.92-.3 5.86-.09 8.78-.02-1.89 10.1-4.25 20.11-6.28 30.18-.41 1.34-.5 3.21-2 3.82-2.73.44-5.5.21-8.24.19 1.92-10.08 4.25-20.07 6.29-30.13zm19.28-4.1c8.64-.1 17.27-.04 25.91-.06 4.43.12 9.7.94 12.33 4.96 2.36 3.72.71 8.58-2.16 11.51-2.47 2.65-6.07 3.62-9.39 4.74 2.72 4.44 5.96 8.53 8.66 12.99-3.42.19-6.85.17-10.26.02-2.85-3.99-5.56-8.06-8.43-12.03-4.13.26-8.26.66-12.35 1.34-.69 3.61-1.41 7.22-2.34 10.79-3.1.04-6.19.02-9.28-.12 2.39-11.39 4.76-22.79 7.31-34.14m8.06 6.14c-.77 3.64-1.65 7.27-2.17 10.96 6.96-.69 13.92-1.42 20.85-2.32 3.06-.2 5.51-3.41 4.47-6.4-1.25-2.17-3.99-2.53-6.26-2.45-5.63.07-11.27-.14-16.89.21zm63.94-6.07c13.98-.29 27.96-.02 41.94-.15 2.48.04 5.55-.15 7.21 2.11 1.67 1.92.99 4.69.65 6.97-1.78 8.36-3.59 16.71-5.31 25.09-3.16.21-6.32.23-9.48.11 1.56-7.75 3.28-15.46 4.92-23.2.38-1.58.33-3.21.23-4.81-3.65-.32-7.32-.4-10.96.03-1.86 9.29-4 18.52-5.78 27.83-3.17.26-6.35.28-9.52.12 1.51-7.7 3.22-15.37 4.87-23.05.39-1.6.32-3.25.23-4.88-3.61-.42-7.25-.37-10.88-.14-1.95 9.31-4.02 18.6-5.85 27.94-3.14.26-6.29.29-9.44.19 2.18-11.43 4.73-22.79 7.17-34.16zm60.1.08c9.61-.43 19.25-.12 28.87-.18 3.48-.35 6.76 2.68 6.06 6.26-1.59 9.32-3.96 18.5-5.69 27.8-7.14.51-14.3.13-21.44.26-5.57-.07-12.57.19-16.32-4.73-2.77-5.87 2.28-12.37 8.1-13.59 8.17-1.75 16.59-2.05 24.85-3.29.12-1.88.8-3.98-.36-5.68-1.87-1.17-4.12-1.06-6.23-1.08-6.33.04-12.66.06-18.99.02.4-1.92.78-3.85 1.15-5.79m3.77 21.01c-2.44.21-5.04 2.03-4.68 4.75.8 2.31 3.59 2.54 5.67 2.59 5.36.06 10.73-.01 16.1-.02.8-3.14 1.48-6.3 1.98-9.49-6.37.58-12.72 1.36-19.07 2.17zm41.34-20.97c3.16-.33 6.35-.29 9.52-.18-1.62 8.09-3.37 16.15-5.12 24.21-.19 1.38-.94 3.09.5 4.08 5.24.43 10.54.21 15.8.16 1.75.12 3.29-.88 3.51-2.7 2.07-8.54 3.51-17.23 5.62-25.76 3.09-.07 6.18-.08 9.27.01-1.73 9.07-3.8 18.08-5.66 27.12-.56 3.35-2.85 7.21-6.69 7.07-8.04.21-16.08 0-24.11.1-2.43-.11-5.4.21-7.14-1.87-1.52-1.69-1.4-4.13-.95-6.2 1.77-8.69 3.8-17.33 5.45-26.04zm47.95-.01c8.23-.53 16.49-.08 24.73-.25 4.79-.04 10.44.62 13.54 4.73 2.39 3.55 1.04 8.4-1.7 11.36-2.48 2.98-6.35 4-9.88 5.1 2.96 4.38 6.02 8.69 9 13.05-3.54.17-7.08.16-10.61-.1-2.75-4.07-5.48-8.14-8.43-12.07-3.87.52-7.79.63-11.61 1.37-1.88 3.09-1.72 7.18-2.71 10.68-3.16.27-6.33.28-9.49.1 2.3-11.34 4.86-22.63 7.16-33.97m5.95 16.85c6.87-.53 13.73-1.35 20.58-2.19 3.31-.09 6.18-3.67 4.57-6.84-1.7-2.27-4.81-2.05-7.33-2.07-4.95.12-9.91-.18-14.85.15-2.21 2.93-1.89 7.41-2.97 10.95zm42.03-16.94c3.12-.18 6.24-.18 9.37-.11-1.93 10.16-4.26 20.24-6.33 30.37-.46 1.4-.49 3.7-2.46 3.75-2.57.34-5.16.16-7.73.16 2.2-11.43 4.8-22.78 7.15-34.17zm11.71 5.85c.45-2.35.65-6.4 4.04-5.96 11.66 0 23.33-.18 35 .11-.62 1.88-.37 4.58-2.43 5.6-4.41.63-8.9.04-13.34.4-2.3 9.27-3.4 18.86-6.43 27.94-2.96.26-5.94.29-8.9.16 1.71-9.44 4.11-18.74 5.77-28.19-4.58-.06-9.15-.03-13.71-.06zm43.02-5.97c3.06-.03 6.12-.04 9.18.06-1.73 9.79-4.08 19.46-6.02 29.21-.44 1.52-.52 3.3-1.65 4.51-2.8.99-5.87.39-8.77.43 2.26-11.44 4.68-22.85 7.26-34.21zm18.18.04c3.11-.08 6.22-.08 9.33 0-1.55 9.43-4.48 18.62-5.44 28.14 5.62.61 11.29.39 16.94.28 1.75.08 3.05-1.23 3.29-2.9 2.06-8.5 3.4-17.16 5.66-25.61 3.05.03 6.09.02 9.14.08-1.52 8.42-3.53 16.74-5.19 25.13-.66 2.67-1.05 5.77-3.31 7.64-2.04 1.88-5.01 1.42-7.54 1.53-8-.15-16.01.18-24.01-.15-3.37-.01-5.42-3.73-4.62-6.77 1.71-9.16 3.8-18.25 5.75-27.37zm44.42 15.65c-5.23-4.94-1.08-14.22 5.62-15.18 8.62-1.14 17.42-.34 26.11-.43-.35 1.92-.69 3.84-.99 5.76-7.42.45-14.87-.18-22.27.3-3.63.18-4.08 5.87-.58 6.72 7 2.14 14.76 1.31 21.47 4.52 3.52 1.54 6.11 5.63 4.67 9.47-1.63 5.23-7.67 7.19-12.63 7.39-8.64.11-17.28.14-25.92-.05.39-1.87.77-3.75 1.16-5.62 7.94-.15 15.88.11 23.82-.09 2.01-.09 4.77-.89 4.9-3.31.41-1.66-1.04-2.95-2.42-3.53-7.51-2.32-16.54-.61-22.94-5.95z"/></g></svg>