<svg width="302" height="27.105" viewBox="0 0 79.904 7.172" xmlns="http://www.w3.org/2000/svg"><path d="M3.741 3.78a1.024 1.024 0 01-.125-.42c.284-.007.564-.003.838.008zm.46-1.43c.184-.091.727-.298 2.076-.473 0 0 1.788-.225 3.247-.878l.244-.733c-1.366.71-2.638.893-3.491 1.052-.798.144-1.624.223-2.29.522-.41.188-.727.545-.86.983a8.45 8.45 0 00-.904.098 2.234 2.234 0 00-1.174 3.921l.003.008a.043.043 0 010-.006l-.015-.064a1.024 1.024 0 01.137-.762c.257-.405.676-.594 1.32-.594 1.507 0 3.117.674 4.674 1.326l.374.159.182-.526C6.04 5.682 4.23 4.871 2.494 4.871c-.584 0-1.204.136-1.637.647a1.683 1.683 0 011.44-2.049 9.1 9.1 0 01.766-.084c.029.44.237.833.553 1.103v-.001l.002.002 2.654-1.532a21.312 21.312 0 00-2.54-.154 1.04 1.04 0 01.47-.453m9.01-.669l.574 2.975 1.655-2.975h1.07l-.78 4.108h-.78l.667-3.523-1.945 3.523h-.402l-.668-3.523-.668 3.523h-.561l.78-4.108h1.058m4.451 2.608c0 .56.254 1.089.91 1.089 1.082 0 1.425-1.488 1.425-2.303 0-.629-.308-.977-.875-.977-1.005 0-1.46 1.257-1.46 2.184zm-.881-.187c0-1.083.739-2.477 2.347-2.477.975 0 1.744.517 1.744 1.618 0 .927-.532 2.608-2.3 2.608-1.182 0-1.791-.747-1.791-1.743v-.006m5.605-2.421l1.868 2.944.562-2.944h.568l-.78 4.108h-.515l-1.868-2.944-.562 2.944h-.568l.78-4.108h.515m6.983 0l-.095.48h-1.294l-.686 3.628h-.822l.686-3.629h-1.295l.089-.479h3.417m3.11 0l-.1.498h-1.72l-.236 1.245h1.602l-.095.485H30.33l-.254 1.37h1.85l-.088.51h-2.685l.78-4.108h2.549m1.316 0l1.869 2.944.561-2.944h.568l-.78 4.108H35.5l-1.868-2.944-.562 2.944h-.567l.78-4.108h.514m6.245 0l-.1.498H38.22l-.236 1.245h1.601l-.094.485H37.89l-.255 1.37h1.851l-.089.51h-2.684l.78-4.108h2.55m3.392 3.859c-.467.205-.815.31-1.324.31-1.342 0-1.933-.939-1.933-1.81 0-1.133.816-2.415 2.578-2.415.455 0 .81.075 1.135.187l-.148.473a2.717 2.717 0 00-.875-.162c-1.13 0-1.81.952-1.81 1.96 0 .56.302 1.064.929 1.201.248.05.479.05.739.013l.213-1.108h-.863l.088-.473h1.62l-.349 1.824m2.248-3.388l-.272 1.413h.248c.402 0 .668-.007.893-.137a.916.916 0 00.396-.728c0-.554-.503-.548-1.01-.548zm.266-.473c.591 0 .893.006 1.23.118.242.087.626.33.626.815 0 .909-.934 1.195-1.318 1.226l1.265 1.948h-.934l-1.094-1.805h-.39l-.337 1.805h-.822l.78-4.107h.994m3.108 2.61c0 .56.254 1.089.91 1.089 1.082 0 1.425-1.488 1.425-2.303 0-.629-.307-.977-.875-.977-1.005 0-1.46 1.257-1.46 2.184zm-.881-.187c0-1.083.739-2.477 2.347-2.477.975 0 1.744.517 1.744 1.618 0 .927-.532 2.608-2.3 2.608-1.182 0-1.791-.747-1.791-1.743v-.006m7.578.028h1.183L56.6 2.638zm1.349-2.451l1.058 4.107h-.846l-.277-1.22h-1.526l-.686 1.22h-.638l2.424-4.107h.49m3.194.002l-.774 4.108h-.828l.78-4.108h.822m1.464.471l-.272 1.413h.249c.402 0 .668-.007.892-.137a.916.916 0 00.396-.728c0-.554-.502-.548-1.01-.548zm.266-.473c.592 0 .893.006 1.23.118.242.087.627.33.627.815 0 .909-.934 1.195-1.319 1.226l1.266 1.948h-.935l-1.093-1.805h-.39l-.338 1.805h-.821l.78-4.107h.993m3.811.002l-.686 3.597h1.762l-.095.51h-2.583l.78-4.107h.822m3.258 0L68.32 5.79h-.827l.78-4.108h.822m1.245-.001l1.869 2.944.561-2.944h.568l-.78 4.108h-.515l-1.868-2.944-.562 2.944h-.567l.78-4.108h.514m6.308 0l-.1.498h-1.721l-.237 1.245h1.603l-.095.485h-1.602l-.254 1.37h1.85l-.088.51h-2.685l.78-4.108h2.549m2.845.589a2.613 2.613 0 00-.845-.161c-.485 0-.863.212-.863.541 0 .23.16.337.532.629l.135.1c.503.385.923.684.923 1.22 0 .528-.438 1.25-1.579 1.25a2.86 2.86 0 01-1.27-.286l.177-.454c.295.124.65.255 1.064.255.627 0 .851-.349.851-.604 0-.236-.171-.38-.644-.728l-.1-.075c-.497-.36-.852-.64-.852-1.145 0-.678.65-1.188 1.602-1.188.343 0 .686.056 1.011.18l-.142.467" fill="#2056ae"/></svg>