<svg width="194.32" height="44.999" viewBox="0 0 51.413 11.906" xmlns="http://www.w3.org/2000/svg"><g fill="#646263"><path d="M4.91 3.478c0 .271-.13.408-.388.408-.118 0-.252-.058-.402-.173L.838 1.125v2.507c0 .117-.05.188-.153.218a1.698 1.698 0 01-.305.018c-.166 0-.248-.077-.248-.233V.647c0-.26.121-.389.361-.389.153 0 .309.062.468.187l3.242 2.56V.515c0-.114.05-.185.152-.213A1.55 1.55 0 014.66.284c.166 0 .25.077.25.23zm3.947-1.26V1.87c0-.21-.453-.315-1.359-.315-.534 0-.902.016-1.1.052-.281.048-.421.145-.421.287v.323zm.658.282c0 .17-.063.256-.187.256H5.996v.02c0 .27.169.442.507.52a2.4 2.4 0 00.322.036c.14.011.32.015.539.015.164 0 .246.095.246.287 0 .155-.082.232-.246.232-.225 0-.409-.002-.551-.007a2.612 2.612 0 01-.325-.02c-.369-.034-.638-.115-.81-.24-.247-.179-.369-.388-.369-.628V1.936c0-.325.19-.564.57-.722.271-.112.616-.17 1.036-.17h1.25c.346 0 .636.054.872.161.318.137.478.344.478.618zm4.125.558c0 .538-.442.808-1.326.808H10.05c-.165 0-.247-.077-.247-.232 0-.192.082-.288.247-.288h2.267c.42 0 .628-.094.628-.285v-.106c0-.169-.19-.254-.572-.254h-1.089c-1 0-1.501-.26-1.501-.778V1.77c0-.344.25-.564.754-.66.206-.045.6-.066 1.183-.066.167 0 .25.098.25.292 0 .153-.083.229-.25.229h-.483c-.251 0-.402.002-.454.009-.22.025-.334.09-.334.19v.147c0 .17.28.254.838.254H12.4c.827 0 1.241.254 1.241.762zm6.118.58c0 .155-.084.233-.249.233-.165 0-.261-.01-.29-.028-.092-.03-.138-.1-.138-.212V1.894c0-.223-.286-.334-.857-.334h-.168c-.272.01-.455.027-.544.053-.2.055-.297.173-.297.358v1.66c0 .113-.048.183-.138.212-.03.019-.127.028-.29.028-.165 0-.25-.078-.25-.233v-1.67c0-.166-.065-.279-.194-.338-.09-.04-.235-.061-.435-.061h-.194l-.11-.008-.079-.001c-.576 0-.864.114-.864.34v1.73c0 .113-.044.182-.132.211-.03.02-.126.028-.288.028-.165 0-.247-.077-.247-.233V1.968c0-.612.487-.92 1.462-.92.192 0 .35.003.47.005a1.916 1.916 0 01.97.237 1.83 1.83 0 01.707-.214c.15-.02.397-.028.747-.028.938 0 1.408.308 1.408.92zm4.223-.76c0-.028 0-.062-.002-.104-.003-.04-.003-.089-.007-.145v-.246H21.59c-.14 0-.285.024-.432.071-.194.061-.29.142-.29.237v.357c0 .104.1.182.298.238.138.042.287.065.442.065h1.666c.25 0 .42-.023.513-.068.13-.06.194-.195.194-.405m.658.145c0 .565-.458.847-1.372.847h-1.639c-.348 0-.652-.059-.91-.178-.344-.154-.516-.366-.516-.638v-.358c0-.295.162-.516.49-.663.244-.113.549-.17.913-.17h2.367c-.037-.202-.338-.303-.907-.303h-.083l-.114.008h-.19c-.164 0-.249-.097-.249-.29 0-.152.085-.23.25-.23.543 0 .953.035 1.226.103.49.127.734.382.734.765zm6.092-.615L29.676.852l-1.061 1.556zm1.687 1.318a.325.325 0 01-.097.24.322.322 0 01-.241.097c-.133 0-.241-.061-.326-.187l-.616-.893h-2.93l-.618.893c-.066.097-.137.147-.214.147a.384.384 0 01-.222-.075c-.08-.054-.12-.119-.12-.191 0-.023.007-.044.018-.063L29.25.337c.09-.137.246-.205.464-.205.163 0 .271.045.326.137a.147.147 0 01.015.026.141.141 0 00.024.042l2.329 3.295a.264.264 0 01.011.094m1.041.012c0 .163-.083.245-.247.245-.16 0-.255-.006-.282-.02-.086-.032-.128-.107-.128-.225v-2.52c0-.163.082-.245.247-.245.158 0 .252.008.28.022.086.032.13.105.13.223zm.091-3.165a.295.295 0 01-.138.257.508.508 0 01-.29.081.511.511 0 01-.293-.081.295.295 0 01-.138-.257c0-.108.047-.193.138-.256a.498.498 0 01.292-.082c.114 0 .212.027.291.082a.293.293 0 01.138.256m2.279.725c0 .163-.098.247-.295.247-.026 0-.065-.002-.116-.005l-.118-.004c-.507 0-.76.126-.76.378V3.74c0 .121-.048.198-.14.228a1.43 1.43 0 01-.287.017c-.159 0-.236-.083-.236-.252V1.914c0-.392.202-.658.606-.796.245-.09.613-.133 1.099-.133.164 0 .247.104.247.312m1.05 2.441c0 .165-.082.246-.245.246-.16 0-.254-.006-.281-.02-.09-.033-.135-.107-.135-.225V.416c0-.163.081-.246.243-.246.153 0 .25.007.286.022.088.03.132.104.132.226zm1.21 0c0 .163-.083.245-.247.245-.162 0-.255-.006-.282-.02-.086-.032-.129-.107-.129-.225v-2.52c0-.163.083-.245.248-.245.158 0 .252.008.279.022.087.032.131.105.131.223zm.09-3.165a.294.294 0 01-.137.257.512.512 0 01-.292.081.51.51 0 01-.292-.081.295.295 0 01-.136-.257c0-.108.046-.193.136-.256a.496.496 0 01.292-.082.5.5 0 01.292.082.292.292 0 01.137.256m4.52 3.165c0 .165-.083.247-.246.247-.164 0-.257-.006-.284-.02-.09-.032-.135-.106-.135-.225V1.83c0-.138-.113-.227-.337-.268a1.261 1.261 0 00-.184-.017 6.884 6.884 0 00-.31-.005h-1.14a4.74 4.74 0 00-.29.007c-.078.004-.14.01-.186.018-.212.042-.32.131-.32.266v1.908c0 .164-.08.247-.243.247-.164 0-.259-.006-.285-.02-.089-.033-.134-.107-.134-.226V1.836c0-.57.508-.854 1.516-.854h1.079c1 0 1.5.283 1.5.848zm3.87-1.5v-.37c0-.224-.447-.335-1.34-.335-.528 0-.89.018-1.087.055-.277.051-.415.154-.415.307v.343zm.646.3c0 .181-.061.272-.185.272h-3.284v.021c0 .285.169.467.5.55.075.016.18.03.32.04.137.009.315.014.53.014.161 0 .243.1.243.306 0 .165-.082.248-.243.248-.222 0-.404-.001-.542-.004a4.46 4.46 0 01-.322-.017c-.363-.038-.631-.124-.802-.258-.243-.189-.364-.413-.364-.668V1.936c0-.348.186-.603.562-.771.256-.12.596-.18 1.02-.18h1.233c.346 0 .634.056.862.172.315.144.472.364.472.658zm4.064.59c0 .57-.435.857-1.305.857H47.74c-.163 0-.245-.083-.245-.248 0-.206.082-.306.245-.306h2.235c.412 0 .62-.103.62-.303v-.113c0-.181-.188-.272-.564-.272H48.96c-.986 0-1.48-.276-1.48-.827v-.164c0-.365.248-.598.748-.702.1-.022.247-.041.44-.052.191-.01.434-.017.727-.017.165 0 .247.106.247.314 0 .164-.082.244-.247.244h-.477c-.25 0-.397.003-.447.008-.22.03-.329.098-.329.204v.158c0 .181.276.271.823.271h1.094c.816 0 1.222.27 1.222.81zM2.09 6.438c.066 0 .129.014.187.04a.506.506 0 01.26.258.472.472 0 010 .377.459.459 0 01-.106.152.475.475 0 01-.53.104.566.566 0 01-.154-.104.466.466 0 01-.105-.528.476.476 0 01.26-.258.45.45 0 01.187-.041M1.081 8.562c-.004.134.006.271.03.407.025.137.067.261.132.377.064.118.151.22.259.306a.96.96 0 00.414.176c.159.03.31.025.451-.015.143-.04.269-.103.38-.191a.92.92 0 00.197-.23 1.02 1.02 0 00.113-.264 1.5 1.5 0 00.048-.295c.006-.105.008-.215.008-.33l.004-1.097h.96l.004 1.088c0 .267-.024.506-.07.719-.047.214-.126.4-.237.56-.112.158-.26.292-.445.396a2.186 2.186 0 01-.69.236c-.416.04-.78.015-1.09-.076a2.07 2.07 0 01-.775-.403 1.699 1.699 0 01-.465-.623 1.903 1.903 0 01-.16-.741zm3.731-2.354h.969l.004 2.672v.386c0 .126-.008.242-.02.353a1.27 1.27 0 01-.076.306.62.62 0 01-.163.236.71.71 0 01-.278.15 1.37 1.37 0 01-.427.044zM8.02 7.4l.012 2.102c0 .198-.024.367-.067.51a1.069 1.069 0 01-.19.37c-.084.1-.185.184-.303.252-.117.064-.25.12-.397.16v.612a4.5 4.5 0 00.725-.159 1.98 1.98 0 00.537-.253c.15-.104.271-.23.366-.377.095-.148.164-.323.208-.523.115.051.235.094.36.128.126.032.253.058.383.077a4 4 0 00.392.044c.131.008.258.012.385.012h.146l-.146-.586h-.24a1.68 1.68 0 01-.421-.052 1.122 1.122 0 01-.359-.157.877.877 0 01-.337-.405 1.168 1.168 0 01-.066-.234 1.771 1.771 0 01-.024-.242l.004-1.28zm3.943.015l-.004 1.501a.772.772 0 01-.119.378.905.905 0 01-.263.266 1.24 1.24 0 01-.366.157 1.635 1.635 0 01-.421.051h-.354l.148.587c.158 0 .324-.008.491-.023.168-.017.334-.043.496-.08.162-.037.32-.086.47-.146a1.7 1.7 0 00.404-.225c.12.093.255.17.406.23.15.06.308.108.473.146.166.037.334.063.507.077.17.014.338.021.5.021h.147l-.147-.587h-.243c-.144 0-.285-.015-.421-.05a1.264 1.264 0 01-.367-.158.939.939 0 01-.264-.265.77.77 0 01-.117-.379l.006-1.501zm-.06 3.387a.472.472 0 00-.187.037.467.467 0 00-.26.258.451.451 0 00-.038.187c0 .066.012.128.039.187.024.06.06.11.104.155a.465.465 0 00.155.105.468.468 0 00.529-.105.473.473 0 00.143-.342.473.473 0 00-.297-.445.48.48 0 00-.188-.037zm1.117 0a.477.477 0 00-.483.482.515.515 0 00.142.342.473.473 0 00.682 0 .467.467 0 00.105-.155.451.451 0 00.039-.187.451.451 0 00-.039-.187.465.465 0 00-.259-.258.475.475 0 00-.187-.037zm5.64-1.034c.145 0 .286-.018.423-.056.136-.036.254-.09.362-.165a.856.856 0 00.253-.274.756.756 0 00.096-.389.743.743 0 00-.1-.395.875.875 0 00-.266-.275 1.234 1.234 0 00-.367-.162 1.606 1.606 0 00-.4-.053h-1.602c-.186 0-.347.027-.49.081a.993.993 0 00-.36.23c-.095.102-.17.223-.221.362a1.348 1.348 0 00-.078.468l.004.628zm-4.324 0h.61l-.002-3.56h.966v1.405a2.373 2.373 0 01.417-.126 2.64 2.64 0 01.427-.057c.161-.012.345-.016.548-.016h1.115c.206 0 .391.004.553.016.162.01.303.029.427.055.217.044.43.121.636.236.113.07.215.145.31.232a1.382 1.382 0 01.393.587 1.311 1.311 0 01-.04.848 1.148 1.148 0 01-.266.38h.565l.148.587h-6.66z"/><path d="M22.675 6.208h.959v2.707c.01.146.05.27.12.377a.91.91 0 00.267.268c.107.069.228.123.364.157a1.7 1.7 0 00.422.051h.24l.147.587h-.152c-.158 0-.324-.007-.496-.021a3.678 3.678 0 01-.505-.077 3.282 3.282 0 01-.476-.147 1.673 1.673 0 01-.41-.23c-.12.093-.255.171-.407.23-.151.06-.31.11-.476.147a3.704 3.704 0 01-.506.077c-.173.014-.338.02-.499.02h-.123l-.146-.586h.504c.146 0 .288-.016.425-.05a1.26 1.26 0 00.366-.158.92.92 0 00.264-.268.801.801 0 00.121-.377z"/><path d="M26.676 6.208h.964c.001.45.001.895-.003 1.338-.003.443-.003.89.003 1.338 0 .197-.036.372-.105.522-.07.15-.165.28-.283.388-.119.108-.258.2-.416.273-.158.071-.326.13-.5.172a3.735 3.735 0 01-.538.092 6.737 6.737 0 01-.536.024h-.08l-.146-.587h.467c.15 0 .3-.018.44-.056.143-.039.27-.098.378-.177a.878.878 0 00.262-.292.844.844 0 00.093-.416zm3.205 2.62a.83.83 0 00.092.415.888.888 0 00.265.293c.11.08.237.138.379.176.142.039.289.056.441.056h.227l.149.587h-.13c-.175 0-.352-.01-.537-.024a3.709 3.709 0 01-.54-.091 2.746 2.746 0 01-.5-.173 1.575 1.575 0 01-.41-.272 1.214 1.214 0 01-.281-.388 1.248 1.248 0 01-.106-.523c-.003-.448-.004-.895-.005-1.338l-.007-1.338h.963zm3.589-.7a.888.888 0 00-.446.562.835.835 0 00.114.675.997.997 0 00.611.391c.122.026.249.031.38.015.128-.016.251-.056.367-.119a.922.922 0 00.446-.566.844.844 0 00-.116-.683.871.871 0 00-.265-.248.962.962 0 00-.342-.136 1.1 1.1 0 00-.749.109m1.136-.683c.1.025.2.054.298.09a1.75 1.75 0 01.848.677c.068.107.12.22.16.334.037.118.056.236.056.356.002.185-.025.348-.083.493a1.185 1.185 0 01-.241.375h.603l.148.587h-.964l-.276.01c-.035 0-.068.001-.1.004l-.082.007a.523.523 0 01-.077.01c-.182.013-.37.021-.557.026a4.06 4.06 0 01-.558-.021 3.384 3.384 0 01-.551-.107 2.516 2.516 0 01-.526-.22.859.859 0 01-.302.222 1.042 1.042 0 01-.463.07h-.504l-.148-.587h.185c.331-.002.507-.163.53-.482a3 3 0 01.09-.704 1.54 1.54 0 01.259-.541c.12-.152.274-.28.46-.38.19-.1.418-.177.687-.225.202-.033.395-.046.577-.041.182.006.359.021.53.047m3.925 2.323l.148.587h-2.277l-.146-.587z"/><path d="M47.36 9.768h-.24c-.145 0-.287-.016-.421-.048a1.147 1.147 0 01-.362-.16.874.874 0 01-.24-.239 1.03 1.03 0 01-.13-.273 1.453 1.453 0 01-.053-.277 10.256 10.256 0 01-.018-.256V7.414h-.96l-.004 1.416a.964.964 0 01-.173.6.597.597 0 01-.401.196.742.742 0 01-.243-.022.828.828 0 01-.239-.106.852.852 0 01-.24-.213.767.767 0 01-.121-.237.915.915 0 01-.042-.251 4.306 4.306 0 01-.008-.256V7.414h-.961v1.379c0 .08-.008.158-.02.232a.882.882 0 01-.062.211.688.688 0 01-.13.19.923.923 0 01-.197.14.743.743 0 01-.247.077.668.668 0 01-.271-.01.658.658 0 01-.267-.131.743.743 0 01-.197-.217.926.926 0 01-.098-.243 1.36 1.36 0 01-.033-.252 5.434 5.434 0 01-.005-.25V7.415h-.961l-.005 1.502a.81.81 0 01-.118.378.96.96 0 01-.265.266c-.11.069-.231.122-.367.157a1.68 1.68 0 01-.421.05h-.353l.148.588c.159 0 .323-.008.492-.024.17-.016.336-.042.498-.079.164-.038.32-.086.469-.146a1.69 1.69 0 00.401-.225c.242.186.474.317.69.397.217.078.428.112.63.104.2-.012.4-.06.594-.149.194-.088.385-.206.578-.352.21.162.431.279.662.347.231.07.458.106.68.098a1.81 1.81 0 00.632-.13c.198-.079.37-.187.515-.323.118.108.257.194.42.256.163.064.332.114.507.147.174.033.344.055.513.065.168.01.316.014.443.014h.147z"/><path d="M48.71 9.768l.149.587h-1.355l-.148-.587z"/><path d="M50.74 6.068c.067 0 .13.013.188.037a.512.512 0 01.26.26.465.465 0 01-.106.527.497.497 0 01-.342.143.502.502 0 01-.446-.296.44.44 0 01-.04-.186c0-.067.014-.13.04-.187a.475.475 0 01.104-.155.486.486 0 01.343-.143m-.443 1.35h.962l-.003.738v.732c0 .198-.035.373-.104.523-.07.15-.164.28-.282.39a1.687 1.687 0 01-.415.273 3.04 3.04 0 01-.5.172 3.992 3.992 0 01-.54.091 6.691 6.691 0 01-.534.025h-.073l-.147-.587h.459c.152 0 .298-.018.44-.056a1.15 1.15 0 00.379-.177.876.876 0 00.261-.293.85.85 0 00.097-.415z"/></g></svg>