<svg width="121.58" height="38.994" viewBox="0 0 32.169 10.317" xmlns="http://www.w3.org/2000/svg"><defs><clipPath id="a"><path d="M62.163 23.854H152.6v31.243H62.163z"/></clipPath></defs><g clip-path="url(#a)" transform="matrix(.35278 0 0 -.35278 -21.79 19.07)" fill="#da1a15"><path d="M91.968 50.408c12.438 3.106 41.28 7.95 48.389-7.433 1.772-3.834 4.706.581 12.244-4.219-5.475-1.678-6.51-6.327-13.082-10.051-11.956-6.774-30.821-1.467-47.551-2.956v.256c7.099.715 12.279.666 12.94 2.436.478 1.278-3.419 1.941-7.243 2.025l.001.134c11.989-.094 21.599 1.006 28.536 4.415 5.058 2.487 4.078 5.384-5.389 9.219-2.552 3.834-6.629 6.363-28.845 5.825zm-5.914-10.364h-7.892c.028-1.091.805-1.636 2.331-1.636 1.106 0 1.861.271 2.267.813l2.751-.736c-.684-1.094-2.283-1.641-4.797-1.641-1.843 0-3.31.343-4.399 1.029-1.048.659-1.571 1.521-1.571 2.588 0 1.056.538 1.942 1.615 2.657 1.078.714 2.462 1.071 4.155 1.071s3.039-.359 4.039-1.075c1-.717 1.501-1.703 1.501-2.958zm-3.601 1.381c-.055.383-.279.692-.67.924-.391.233-.859.349-1.404.349-1.201 0-1.907-.424-2.116-1.273z"/><path d="M98.486 40.516c0-1.021-.56-1.887-1.679-2.602-1.119-.713-2.491-1.07-4.114-1.07-1.637 0-3.008.357-4.113 1.07-1.106.715-1.658 1.581-1.658 2.602 0 1.02.555 1.887 1.668 2.601 1.112.714 2.48 1.071 4.103 1.071s2.995-.357 4.114-1.071 1.679-1.581 1.679-2.601m-3.637-.007c0 .506-.192.907-.578 1.201-.385.295-.913.442-1.585.442-.673 0-1.201-.147-1.587-.442-.385-.294-.578-.695-.578-1.201s.193-.904.578-1.194c.386-.29.914-.435 1.587-.435.672 0 1.2.145 1.585.435.386.29.578.688.578 1.194m4.142-2.831l.756 1.849c1.091-.626 2.322-.939 3.693-.939.937 0 1.406.19 1.406.569 0 .249-.197.425-.589.527-.548.091-1.088.184-1.62.277-2.092.36-3.137 1.039-3.137 2.037 0 .647.371 1.174 1.112 1.58.741.407 1.77.61 3.084.61 1.329 0 2.707-.208 4.135-.623l-.755-1.664a7.265 7.265 0 01-2.974.651c-.837 0-1.256-.167-1.256-.5 0-.204.216-.357.651-.458l1.72-.334c1.008-.203 1.742-.458 2.204-.763.49-.334.735-.769.735-1.306 0-.694-.403-1.26-1.206-1.695-.804-.435-1.885-.652-3.24-.652-1.776 0-3.349.277-4.719.834M70.128 40.65c-.028.451-.244.812-.599 1.084-.385.294-.913.442-1.586.442-.672 0-1.201-.148-1.586-.442-.355-.271-.64-.673-.668-1.124l.006-3.589h-3.532l-.001 3.519c0 1.019.573 1.887 1.686 2.6 1.112.715 2.48 1.072 4.103 1.072s2.994-.357 4.114-1.072c1.119-.713 1.685-1.581 1.685-2.6v-3.519h-3.622s.002 3.591 0 3.629"/></g></svg>