<svg viewBox="0 0 463.32 120.69" xmlns="http://www.w3.org/2000/svg"><path d="M21.224-.001c11.612 0 21.03 9.41 21.03 21.03 0 11.595-9.418 21.004-21.03 21.004S.202 32.624.202 21.03C.202 9.408 9.612-.001 21.224-.001m0 6.823c-7.83 0-14.19 6.359-14.19 14.208 0 7.83 6.36 14.18 14.19 14.18 7.84 0 14.208-6.35 14.208-14.18 0-7.849-6.368-14.208-14.208-14.208" fill="#fddd04"/><path d="M41.544 103.509c-1.784 9.775-10.328 17.187-20.594 17.187-11.567 0-20.94-9.41-20.94-20.969a20.887 20.887 0 018.633-16.954l4.628 4.923A14.288 14.288 0 006.69 99.727c0 7.885 6.377 14.27 14.261 14.27 7.403 0 13.486-5.663 14.172-12.923l6.422 2.435z" fill="#00a650"/><path d="M14.234 59.469a14.203 14.203 0 00-6.992 8.847C5.449 75.023 8.758 81.9 14.769 84.807l2.569 1.15c-2.31.474-5.575 2.578-6.948 4.166A20.951 20.951 0 01.722 66.568c1.374-5.074 4.38-9.141 8.428-11.87l.179.392 1.257 1.56 1.846 1.847 1.802.972z" fill="#ed1c24"/><path d="M31.054 81.309c-1.998 5.316-.696 11.532 3.737 15.572 5.815 5.298 14.832 4.852 20.103-.945a14.432 14.432 0 003.068-5.298l6.68 1.213a20.754 20.754 0 01-4.745 8.616c-7.795 8.588-21.075 9.23-29.646 1.418-5.806-5.28-7.955-13.084-6.332-20.228l7.135-.348z" fill="#00adef"/><path d="M32.754 38.599l-.036.027h.01a20.766 20.766 0 01-11.435 3.407c-4.218 0-8.196-1.213-11.487-3.345 1.445-1.989 3.505-3.62 5.788-4.647 1.748.776 3.648 1.169 5.7 1.169 2.024 0 3.897-.41 5.654-1.186 2.31 1.213 4.085 2.595 5.806 4.575" fill="#111941"/><path d="M21.294 26.109a20.9 20.9 0 0111.345 3.336c-.526.972-1.945 2.274-3.354 3.228a13.953 13.953 0 01-2.363 1.365l-.036-.01a13.794 13.794 0 00-5.592-1.159c-7.866 0-14.234 6.368-14.234 14.217 0 7.866 6.368 14.243 14.234 14.243 7.394 0 13.476-5.645 14.163-12.887 1.89-1 4.602-3.006 6.725-3.479l.089 2.123c0 11.594-9.4 20.995-20.977 20.995C9.7 68.08.308 58.68.308 47.086c0-11.577 9.392-20.977 20.986-20.977" fill="#00adef"/><path d="M33.084 55.069l.116-.187a14.018 14.018 0 002.265-6.43l1.704-1.214c1.614-.99 3.505-1.935 5.021-2.265l.09 2.123c.017 4.735-1.49 9.132-4.38 12.86-1.23-1.64-2.774-3.37-4.816-4.887" fill="#111941"/><path d="M58.934 74.659c-4.754 4.745-11.21 6.77-17.392 6.002-.303-1.944-.223-4.744.295-6.796 4.352.687 8.963-.624 12.308-3.969a14.216 14.216 0 000-20.138c-5.548-5.566-14.547-5.566-20.121 0a14.938 14.938 0 00-2.676 3.728l-.151.357-2.819-1.463-2.658-.839-.838-.196a21.19 21.19 0 014.37-6.377c8.197-8.178 21.495-8.178 29.682 0 8.196 8.206 8.196 21.512 0 29.691" fill="#00a650"/><path d="M35.244 72.029c.009-6.306-4.183-12.076-10.56-13.78-3.657-.972-7.349-.454-10.435 1.213-.99-.544-3.318-2.042-5.039-4.842 4.87-3.292 9.962-4.852 17.213-2.9 7.251 1.936 14.208 9.25 15.358 17.339l-6.537 2.97z" fill="#ed1c24"/><path d="M57.424 92.049c2.239-5.164 1.133-11.202-2.97-15.661-5.539-5.485-14.529-5.584-20.094-.054-1.418 1.56-2.613 3.282-3.3 5.173l-6.636-1.498a21.17 21.17 0 015.173-8.446c4.3-4.308 10.418-6.493 16.241-6.146 5.298.322 10.364 2.881 13.432 6.146 6.44 6.876 7.064 15.242 5.325 20.486h-7.171z" fill="#111941"/><path d="M34.874 96.949c-.473-2.836-1.703-5.146-3.844-7.304-3.746-3.836-8.919-5.111-13.69-3.684l-.036-.027c-2.417-.936-4.914-2.176-6.894-4.397 1.106-.669 2.283-1.168 3.46-1.605 7.35-2.792 16.063-1.088 21.967 4.923 4.21 4.254 6.315 9.918 6.145 15.51-2.292-.357-4.843-1.374-7.108-3.416" fill="#fddd04"/><path d="M423.054 73.089c-3.255 1.989-5.877 4.343-7.84 7.1-1.908 2.729-2.818 5.315-2.71 7.812.142 3.675 2.273 6.68 6.394 9.088 3.487 2.052 7.982 3.265 13.476 3.675 3.363.259 6.752.214 10.14-.25a29.234 29.234 0 0013.798-5.913l-2.81-3.995c-2.282 1.248-5.163 2.211-8.312 2.488-22.957 2.123-12.709-18.997 2.988-19.56l2.06-.142c3.479 0 6.618 1.124 8.848 2.917l4.236-3.122c-1.989-2.89-5.699-5.084-11.514-5.824-1.998-.267-5.324-.223-6.377-.223h-25.186v1.695h4.227c1.846.062 1.597 1.56.883 2.417-.482.58-1.266 1.23-2.301 1.837m-272.09-6h29.557l-8.74 23.064h15.946l-3.62 9.33h-36.274l10.247-27.06c.5-1.356-.446-3.648-2.88-3.684h-4.237v-1.65zm229.7.01h29.548l-12.281 32.384h-20.406l10.247-27.149c.83-2.158-1.034-3.576-2.88-3.576h-4.228v-1.659z" fill="#111941"/><path d="M323.624 67.089h40.848c15.296 0 19.256 16.259 3.728 21.851-3.862 1.347-13.717 1.115-14.546 1.115h-9.178l-3.567 9.427h-20.424l10.256-27.158c.589-2.105-1.364-3.603-2.88-3.585h-4.237v-1.65zm31.724 6.734h-4.629l-3.451 9.213h5.877l1.392-.33c2.693-1.632 4.958-6.324 2.149-8.49l-1.338-.393zm-68.014-6.724c9.864 0 19.648-.009 29.548-.009l-12.281 32.393h-20.424l4.557-12.022-12.28 10.06-2.739-11.782-5.209 13.744h-20.424l10.257-27.042c.58-2.22-.82-3.63-2.89-3.683h-4.236V67.09H280.6l.063.285 3.041 13.191 9.507-8.731c1.053-1.061.42-3.095-1.658-3.095h-4.219V67.1zm-42.69 1.65h2.462v-1.65H227.1v1.65h4.227c1.846-.027 1.98 1.035.91 1.989L221.295 80.78l-6.404-13.476-.098-.205H189.07v1.65h4.227c1.543.045 2.123 1.15 3.069 2.702l7.75 16.17-4.352 11.862h20.54l4.566-12.477 19.773-18.257zm-105.04 2.58c-3.175-2.123-7.385-3.487-12.629-4.013-1.998-.223-4.13-.286-6.368-.215H95.42v1.668h4.228c1.837.107 1.587 1.588.883 2.426-.49.589-1.258 1.231-2.301 1.837-3.265 1.972-5.887 4.335-7.84 7.082-1.917 2.747-2.827 5.333-2.72 7.795.16 3.675 2.283 6.69 6.395 9.106 3.505 2.025 7.982 3.238 13.485 3.639 3.362.24 6.76.17 10.132-.24 4.423-.554 8.633-1.624 12.638-3.238 4.834-1.936 8.57-4.45 11.228-7.51 2.569-2.961 3.782-6.03 3.657-9.204-.16-3.701-2.016-6.743-5.601-9.133m-14.796 12.567C122.043 91.004 117.476 94 112.857 94c-4.63 0-7.519-3.158-4.799-10.105 2.596-6.6 7.323-10.088 11.942-10.088 4.63 0 7.733 2.569 4.808 10.088" fill="#111941"/></svg>