<svg width="485.443" height="32mm" viewBox="0 0 128.44 32" xmlns="http://www.w3.org/2000/svg"><path d="M46.16 22.57c-3.064 0-5.042-1.725-5.042-4.56 0-3.447 2.539-8.1 7.843-8.1 2.965 0 4.943 1.606 4.943 4.44 0 4.559-3.559 8.22-7.744 8.22m2.835-14.596c-7.184 0-10.907 5.502-10.907 9.73 0 3.992 3.295 6.803 8.007 6.803 5.766 0 10.84-3.992 10.84-9.78 0-4.014-3.163-6.753-7.94-6.753M70.26 20.13l.432-1.447c.373-1.193.946-3.065.946-4.17 0-2.575-3.099-2.766-4.046-2.766-2.384 0-3.82.746-4.938 1.296l.403-1.084-.146-.15a37.352 37.352 0 01-3.042.384l-.2.149c-.46 2.32-.603 2.872-1.376 5.384l-.461 1.596-1.177 3.66.145.149 2.928-.065.203-.129c.92-3.552 1.263-4.68 2.325-8.255.861-.467 2.038-1.127 3.82-1.127 1.347 0 2.41.426 2.41 1.702 0 .51-.145 1.021-.286 1.51l-.718 2.406-1.205 3.809.116.149 2.928-.065.232-.129M85.28 19.64l.688-2.318 1.665-5.236-.112-.149-2.9.107-.228.149c-.374 1.555-.488 2.001-1.207 4.448l-1.09 3.617c-.745.469-2.01 1.235-3.904 1.235-.69 0-2.383-.212-2.383-1.767 0-.702.488-2.32.66-2.852a412.25 412.25 0 001.58-4.787l-.146-.127-2.87.084-.199.149c-.286 1.15-.344 1.427-.804 2.874l-.66 2.084c-.461 1.554-.72 2.363-.72 3.215 0 2.253 2.384 2.914 4.221 2.914 1.522 0 3.474-.51 4.736-1.34l-.344 1.042.145.15 2.813-.087.199-.126m6.38-1.999l.604-2.106c.631-2.106 1.062-3.34 2.009-4.063.545-.426 1.206-.724 1.98-.724.488 0 .805.126 1.207.298l.286-.065 1.119-2.084-.087-.192c-.488-.149-.86-.256-1.32-.256-.889 0-2.039.425-2.985 1.298a5.886 5.886 0 00-.746.83l.631-1.872-.145-.149c-1.379.212-1.694.235-3.1.361l-.204.149c-.46 2.214-.573 2.766-1.435 5.513l-.632 2.02-1.062 3.107.146.127 2.984-.044.228-.147" fill="#1d4a94"/><path d="M106.36 20.47c-.315.192-.631.404-.948.553-.746.34-1.72.489-2.496.489-2.614 0-3.36-1.637-3.36-2.659 0-.106.058-2.852 3.073-4.385 1.693-.85 3.56-.891 4.506-.891.432 0 .86.02 1.292.02zm5.34-8.469l-3.963-.02c-2.64 0-6.344.127-9.013 2.447-1.206 1.063-2.296 2.893-2.296 4.575 0 2.659 2.383 4.192 5.31 4.192 2.44 0 3.703-.787 4.19-1.086l-.198.852.146.148 2.698-.043.198-.15c.575-2.531.775-3.34 1.78-6.615l1.293-4.129m3.235 8.358l.446-1.675c.654-2.21.782-2.65 1.35-4.224l-.15-.12-3.073.202-.189.11c-.209 1.173-.262 1.483-.655 2.8l-.277 1.008a81.36 81.36 0 01-1.4 4.323l.151.101 3.008.01.194-.078m6.255-2.067l.602-2.106c.632-2.106 1.063-3.34 2.009-4.063.546-.426 1.208-.724 1.981-.724.488 0 .804.126 1.206.298l.287-.065 1.12-2.084-.087-.192c-.487-.149-.862-.256-1.32-.256-.89 0-2.038.425-2.986 1.298a5.856 5.856 0 00-.746.83l.631-1.872-.146-.149c-1.377.212-1.694.235-3.1.361l-.198.149c-.461 2.214-.575 2.766-1.436 5.513l-.631 2.02-1.063 3.107.141.127 2.988-.044.228-.147m-6.15-12.081c0-1.056.857-1.914 1.915-1.914a1.913 1.913 0 11-1.915 1.915" fill="#b9b7ba"/><path d="M19.83 31.49c-8.017 0-14.538-6.522-14.538-14.538 0-8.017 6.52-14.541 14.538-14.541s14.539 6.524 14.539 14.541c0 8.016-6.522 14.538-14.539 14.538m0-27.676c-7.242 0-13.135 5.894-13.135 13.138 0 7.242 5.893 13.135 13.135 13.135 7.244 0 13.136-5.892 13.136-13.135 0-7.244-5.892-13.138-13.136-13.138" fill="#1d4a94"/><path d="M19.83 31.49c-8.017 0-14.538-6.522-14.538-14.538 0-8.017 6.52-14.541 14.538-14.541s14.539 6.524 14.539 14.541c0 8.016-6.522 14.538-14.539 14.538z" fill="none" stroke="#1d4a94" stroke-miterlimit="10" stroke-width=".017"/><path d="M19.83 3.82c-7.242 0-13.135 5.894-13.135 13.138 0 7.242 5.893 13.135 13.135 13.135 7.244 0 13.136-5.892 13.136-13.135 0-7.244-5.892-13.138-13.136-13.138z" fill="none" stroke="#1d4a94" stroke-miterlimit="10" stroke-width=".017"/><path d="M.5 19h28.463L13.402.503H6.536l7.198 17.222" fill="#db1f26"/></svg>