<svg width="250.757" height="41.945" viewBox="0 0 66.346 11.098" xmlns="http://www.w3.org/2000/svg"><path d="M39.111 10.01l.399-1.139c.07-.195.256-.307.419-.25.118.041.191.152.196.29a.24.24 0 00.033.112c.355.633 1.17 1.055 2.151.986.845-.06 1.178-.607 1.132-1.266-.018-.247-.184-.499-.246-.583-.104-.136-1.877-2.266-1.877-2.266a3.59 3.59 0 01-.704-1.888C40.475 2.013 41.953.289 44.33.123c1.495-.108 2.67.287 3.56.972l-.394 1.121c-.068.195-.256.307-.418.25-.118-.04-.191-.152-.196-.29a.248.248 0 00-.033-.112c-.36-.626-1.04-1.034-2.015-.965-.845.06-1.317.654-1.27 1.342.01.135.044.262.092.381.101.243.228.474.383.681l.983 1.178.452.549c.396.532.874 1.164.924 1.874.139 1.992-1.34 3.715-3.716 3.882-1.495.107-2.681-.29-3.571-.976m18.358 0l.399-1.139c.068-.195.255-.307.418-.25.119.041.191.152.196.29a.24.24 0 00.033.112c.355.633 1.17 1.055 2.152.986.845-.06 1.177-.607 1.132-1.266-.018-.247-.184-.499-.246-.583a485.24 485.24 0 00-1.878-2.266 3.59 3.59 0 01-.703-1.888C58.832 2.013 60.31.289 62.687.123c1.495-.108 2.67.287 3.56.972l-.394 1.121c-.068.195-.255.307-.418.25-.119-.04-.192-.152-.196-.29a.24.24 0 00-.033-.112c-.36-.626-1.04-1.034-2.015-.965-.845.06-1.317.654-1.269 1.342.01.135.043.262.09.381.103.243.23.474.384.681l.983 1.178.452.549c.396.532.875 1.164.923 1.874.14 1.992-1.337 3.715-3.715 3.882-1.494.107-2.68-.29-3.57-.976M52.76 1.519l-2 4.612c-.174.405-.503 1.188-.522 1.731 0 .428.265.731.612.823.103.025.233.06.344.06.563 0 1.052-.34 1.262-.828L55.67.467h3.69a.32.32 0 01.138.025.33.33 0 01.174.43c-.044.111-.13.172-.283.19-.275.043-.388.17-.49.41l-1.827 4.222a6.577 6.577 0 01-6.137 4.184 5.931 5.931 0 01-2.578-.589 2.305 2.305 0 01-1.255-2.045 6.47 6.47 0 01.595-2.586l1.45-3.356a.155.155 0 00.01-.055c.004-.119-.088-.18-.146-.206-.135-.052-.22-.163-.22-.295 0-.182.177-.329.394-.329h4.033a.317.317 0 01.137.025.33.33 0 01.174.43c-.044.111-.13.172-.283.19-.275.043-.383.166-.485.407m-20.197 3.3h1.941l-.529-2.288zM.102 9.538L3.68 1.219a.2.2 0 00.012-.055c.003-.12-.089-.181-.147-.206-.134-.053-.22-.164-.22-.296 0-.181.177-.328.395-.328h3.893L9.84.34c.679 0 1.278.399 1.528.985.143.357.218.742.218 1.15a3.08 3.08 0 01-.533 1.734 3.817 3.817 0 01-3.166 1.702h-2.69l-1.19 2.796c-.007.016-.017.036-.017.055 0 .066.048.124.105.15.135.051.22.163.22.294 0 .183-.176.33-.395.33zm5.579-4.712L7.19 1.319s.24-.007.322.006c.165.026.291.065.422.141.604.356.65 1.364.103 2.254-.415.675-1.018 1.096-1.767 1.101zm9.234.473l-1.401 3.254 3.278.002c.261 0 .439-.09.586-.326a.426.426 0 01.363-.207.329.329 0 01.298.465l-.458 1.052H9.408l3.55-8.227c.003-.017.01-.12.009-.138-.01-.13-.16-.2-.217-.225-.135-.052-.22-.163-.22-.295 0-.182.151-.321.405-.321h7.443l-.56 1.3c-.086.199-.291.303-.458.231-.12-.052-.189-.175-.184-.32 0-.062-.02-.17-.131-.215a.249.249 0 00-.065-.01h-2.345l-1.321 3.067 1.97-.002c.223-.016.352-.038.485-.252a.426.426 0 01.363-.208c.18 0 .297.147.297.329 0 .05-.012.095-.031.137l-.534 1.221c-.086.201-.291.305-.458.233-.121-.052-.157-.174-.152-.318 0-.063-.021-.172-.13-.217a.202.202 0 00-.046-.009zM35.43 9.534c-.218 0-.391-.145-.391-.327 0-.132.085-.243.22-.294.057-.026.152-.088.146-.207a.164.164 0 00-.007-.046l-.636-2.722h-2.89l-1.67 2.708a.126.126 0 00-.017.054c-.002.12.09.18.148.205.135.052.221.162.222.295 0 .181-.175.33-.393.33l-1.716.004a.328.328 0 01-.314-.457c.054-.127.169-.173.321-.192a.557.557 0 00.426-.267L34.116.335h3.207c.217 0 .393.15.393.333 0 .132-.085.243-.22.295-.057.026-.145.085-.142.205l1.948 8.366zm-5.9-4.746a.318.318 0 01.139.025.33.33 0 01.173.43c-.044.111-.13.172-.283.19-.275.044-.386.16-.488.4l-1.583 3.669h-3.216l-.136-.248c-.884.368-1.636.51-2.663.51a2.966 2.966 0 01-2.968-2.956c0-.101.001-.201.012-.3.418-3.593 3.463-6.402 7.17-6.402 1.785 0 2.802.329 4.296 1.056l-.395.942a.474.474 0 01-.044.08c-.1.146-.272.217-.414.152-.177-.08-.136-.19-.22-.37-.137-.297-.319-.392-.435-.471-.58-.366-.97-.38-1.366-.38-.936 0-1.783.35-2.432.929-1.401 1.242-2.38 2.916-2.653 4.954a1.313 1.313 0 001.29 1.512c.888 0 1.376-.513 1.717-1.274l.626-1.47a.425.425 0 00.015-.087c0-.191-.157-.245-.215-.271-.134-.052-.223-.16-.223-.292 0-.182.14-.329.394-.329" fill="#e31f26" fill-rule="evenodd"/></svg>