<svg width="180.351" height="40.834" viewBox="0 0 47.718 10.804" xmlns="http://www.w3.org/2000/svg"><path d="M-2.075 15.49h58.152V-6.494H-2.075z" fill="#f6b221"/><path d="M46.99-6.5L22.697 15.437h33.315V-6.5" fill="#3c590c"/><path d="M45.485 4.312c.018.202-.36.317-.524.716-.17.398-.48.732-.585 1.033-.093.307-.277.16-.923.483-.635.323-1.567.535-1.785.725-.213.18-.918.463-1.073.58-.151.118-.264.006-.238-.076.023-.082.154-.339.194-.434.144-.308.496-.114.629-.152.133-.04.206-.305.392-.363.188-.051 1.102-.396 1.556-.53.456-.134.667-.36.841-.534.178-.183.735-.813.598-.946-.14-.123-.648.18-.784.304-.133.118-.174.403-.379.588-.204.19-.938.554-1.55.626-.622.068-2.487.028-2.837.142-.34.116-.71.645-1.547.768-.84.131-1.528.163-1.963.145-.819-.057-1.484.518-1.738.713-.252.2-1.418.862-1.576 1.081-.402.422-.684.62-.823.616-.135-.008.038-.574.111-.584.068-.005.066-.245.162-.276.102-.022.532-.153.934-.417.343-.219 1.193-1.019 1.488-1.285.295-.266 1.03-.402 1.316-.535.284-.129.36-.282.355-.435-.003-.159-.102-.19-.184-.2-.075-.009-.186.13-.582.098-.394-.043-.577-.28-.556-.574.026-.283.404-.518.61-.494.205.02.232.24.22.318-.016.066-.15.097-.203.347-.053.252.125.21.218.204.093-.006.194-.027.341-.185.153-.153.222-.445.609-.666.395-.231 1.407-.136 2.174-.042.77.09 1.904-.089 2.91-.45 1.005-.35 2.077-1.21 2.23-1.338.157-.13.275-.278.294-.406.024-.123-.02-.24-.165-.28-.145-.05-.73-.112-1.21-.13-.477-.02-1.019-.203-1.263-.268-.243-.073-.758-.52-.696-.572.07-.045.325.27.877.429.56.161 1.108.19 1.445.217.33.023.625.063.79.048.152-.016.181-.112.192-.205.01-.092-.058-.163-.165-.241-.097-.076-.88-.11-1.399-.129-.508-.013-1.018-.12-1.207-.186-.187-.067-.618-.545-.512-.568.114-.009.393.378.783.48.378.096 1.313.12 1.84.12.534-.002.877-.023 1.155.118.276.143.508.629.756.802.248.178.885.218 1.108.324.23.114.583.092.571.205-.01.121-.555.246-.936.23-.393-.018-.624.136-1.056.142-.443.016-.604.205-.685.328-.068.127-.39.81-.349.87.035.062.828-.356 1.044-.412.205-.056.727-.087.75.113" fill="#f6b221"/><path d="M2.037 8.362l-.457.702v.504h-.136v-.504L1 8.362h.158l.26.407.049.079.024.039.024.04h.004l.023-.04.024-.04.05-.078.259-.407m1.033.1c-.191 0-.303.02-.336.063-.032.043-.048.188-.048.437s.016.395.048.437c.033.043.145.064.336.064.191 0 .303-.021.335-.064.033-.042.05-.188.05-.437v-.079L3.29 8.77c0-.133-.022-.217-.067-.253-.045-.036-.15-.054-.316-.054m0-.115c.229 0 .371.033.428.1.057.066.086.233.086.499 0 .287-.027.464-.082.531-.055.067-.199.1-.432.1-.231 0-.375-.033-.43-.1-.056-.065-.084-.238-.084-.515v-.085l.002-.114c0-.16.036-.27.108-.328.072-.06.207-.088.404-.088m1.817.014h.136v.845c0 .153-.03.254-.093.301-.061.048-.19.072-.387.072-.185 0-.31-.022-.376-.069-.067-.046-.1-.134-.1-.264v-.885h.136v.845c0 .114.019.186.056.215.037.029.128.043.274.043.158 0 .256-.014.295-.042.04-.029.059-.1.059-.217m2.171.006l-.268-.738-.264.738zm.04.102h-.61l-.094.256h-.144l.442-1.207h.19l.452 1.207h-.143m.728-.608h.394c.103 0 .174-.016.212-.048.038-.031.057-.09.057-.178 0-.109-.015-.18-.042-.213-.029-.033-.089-.05-.18-.05h-.44zm-.136.603V8.36h.575c.13 0 .22.026.274.077.053.05.08.14.08.267 0 .111-.015.189-.044.232-.029.045-.084.073-.165.086v.002c.128.01.191.087.191.233v.309h-.136v-.277c0-.141-.06-.211-.182-.211h-.457v.488m1.406-1.094v.41h.612v.116h-.612v.45H9.8v.115h-.775V8.357H9.8v.115m2.97-.11l-.38 1.206h-.208l-.254-.869-.031-.108-.015-.054-.016-.055h-.003l-.015.055-.016.054-.032.11-.259.867h-.203l-.37-1.206h.14l.26.867.034.117.018.058.017.06h.003l.016-.06.017-.058.035-.117.256-.867h.201l.255.868.035.116.016.06.016.058h.003l.018-.06.017-.059.037-.118.265-.865m1.563 0v1.206h-.135v-.56h-.706v.56h-.136V8.362h.136v.532h.706v-.532m1.604 0l-.456.702v.504h-.137v-.504l-.444-.702h.158l.26.407.049.079.024.039.024.04h.004l.023-.04.024-.04.05-.078.26-.407m3.059 0l-.38 1.206h-.207l-.254-.869-.031-.108-.015-.054-.016-.055h-.003l-.015.055-.016.054-.032.11-.259.867h-.203l-.37-1.206h.14l.26.867.034.117.018.058.017.06h.003l.016-.06.017-.058.035-.117.256-.867h.201l.255.868.035.116.016.06.016.058h.003l.018-.06.017-.059.037-.118.265-.865m.675.11v.41h.612v.116h-.613v.45h.639v.115h-.775V8.357h.775v.115m1.415 0v.421h.588v.115h-.588v.555h-.136V8.357h.74v.115m.607-.11v1.08h.62v.126h-.756V8.362m2.116 0l-.456.702v.504h-.136v-.504l-.444-.702h.158l.259.407.05.079.024.039.024.04h.004l.023-.04.024-.04.05-.078.259-.407M2.365 5.492L2.6 5.49c.322 0 .549-.391.545-.628-.002-.194-.199-.241-.354-.242a2.066 2.066 0 00-.269.024zm-.497-1.364l1.385-.003c.436-.001.691.269.694.605a1.266 1.266 0 01-1.311 1.232l-.36.001-.218 1.159-.753.002m3.813-1.302h.05c.162-.383.58-1 1.039-1.002.094 0 .166.024.205.045l-.276.698a.353.353 0 00-.173-.054c-.404 0-.743.646-.899.91l-.134.698-.805.002.425-2.248.793-.002m2.655.613c-.001-.107-.065-.169-.17-.17-.263.003-.428.375-.46.591.375.007.633-.126.63-.421M8.65 6.91c-.393.14-.778.25-1.178.25-.456 0-.95-.225-.956-.746-.009-.65.545-1.597 1.584-1.599.283 0 .616.15.62.499.008.652-.834 1.051-1.404 1.036.009.24.194.337.413.338.303-.001.757-.184 1.026-.329m2.562-.897c-.175-.086-.356-.19-.554-.19-.434.002-.66.62-.655.98.003.24.137.364.373.363.21 0 .532-.117.72-.221l-.103.568c-.275.105-.672.19-.883.192-.46 0-.95-.224-.957-.747-.008-.65.546-1.596 1.585-1.598.033 0 .334.061.572.131m.966-1.078l.803-.002-.12.646-.804.001zm-.189.995l.803-.002-.421 2.25h-.802m3.48-1.753a1.474 1.474 0 00-.503-.103c-.132.001-.315.043-.313.208.004.265.703.452.708.944.003.297-.192.745-1.046.747-.28 0-.544-.052-.822-.122l.096-.527c.2.087.506.202.722.201.108 0 .249-.07.247-.216-.004-.307-.652-.494-.657-.984-.004-.265.174-.696 1.032-.697.207-.001.433.04.627.064m.967-1.015l.801-.001-.121.646-.802.002zm-.189.996l.803-.002-.421 2.248-.803.002m2.676-.434c.453 0 .628-.629.625-.987-.003-.191-.083-.415-.315-.414-.457.001-.628.627-.625.987.004.191.084.414.315.414m-1.115-.275c-.007-.649.544-1.596 1.584-1.598.461 0 .95.227.955.747.01.717-.635 1.596-1.584 1.598-.457.001-.949-.224-.955-.747m3.855-.595h.048c.163-.382.579-1 1.04-1.002.283 0 .451.206.455.469 0 .106-.026.214-.046.321l-.285 1.504-.798.003.26-1.41c.004-.028.018-.077.019-.111-.001-.025-.009-.065-.046-.065-.146 0-.627.724-.705.888l-.132.699-.801.002.42-2.248.795-.002" fill="#fff"/><path d="M24.863 5.852l-.205-1.044h-.008l-.547 1.044zm-.393-1.773l.8-.002.611 2.995h-.764l-.156-.747-1.11.002-.394.749-.57.001m4.09-3.245l.8-.002-.118.647h-.804zm-.19.995l.803-.002-.424 2.249-.8.002m2.527-1.304h.05c.16-.382.58-1 1.042-1.002a.43.43 0 01.2.044l-.274.698a.363.363 0 00-.174-.054c-.403 0-.744.648-.898.91l-.132.7-.804.001.424-2.249h.791" fill="#3c590c"/></svg>