<svg width="150mm" height="216.703" viewBox="0 0 531.5 203.16" xmlns="http://www.w3.org/2000/svg"><defs><clipPath id="f"><path d="M226.77 700.74H383.2v59.794H226.77V700.74z"/></clipPath><clipPath id="e"><path d="M226.77 700.74H383.2v59.794H226.77V700.74z"/></clipPath><clipPath id="d"><path d="M226.77 700.74H383.2v59.794H226.77V700.74z"/></clipPath><clipPath id="c"><path d="M0 0h595.28v810.71H0V0z"/></clipPath><clipPath id="b"><path d="M226.77 700.74H383.2v59.794H226.77V700.74z"/></clipPath><clipPath id="a"><path d="M0 0h595.28v810.71H0V0z"/></clipPath></defs><g clip-path="url(#a)" transform="matrix(3.3976 0 0 -3.3976 -770.489 2584.072)"><path d="M324.21 740.41a5.536 5.536 0 10-11.072 0 5.536 5.536 0 0011.072 0" fill="#42c1db"/></g><g clip-path="url(#b)" transform="matrix(3.3976 0 0 -3.3976 -770.489 2584.072)"><path d="M338.97 740.41a5.536 5.536 0 10-11.072 0 5.536 5.536 0 0011.072 0m14.76 14.76a5.536 5.536 0 10-11.072 0 5.536 5.536 0 0011.072 0" fill="#9c158f"/><path d="M368.49 755.17a5.536 5.536 0 10-11.072 0 5.536 5.536 0 0011.072 0" fill="#42c1db"/></g><g clip-path="url(#c)" transform="matrix(3.3976 0 0 -3.3976 -770.489 2584.072)"><path d="M353.73 740.41a5.536 5.536 0 10-11.072 0 5.536 5.536 0 0011.072 0" fill="#fcd405"/><path d="M368.49 740.41a5.536 5.536 0 10-11.072 0 5.536 5.536 0 0011.072 0m-29.52-14.77a5.536 5.536 0 10-11.072 0 5.536 5.536 0 0011.072 0" fill="#196fc1"/><path d="M324.21 710.88a5.536 5.536 0 10-11.072 0 5.536 5.536 0 0011.072 0" fill="#fcd405"/><path d="M353.73 725.64a5.536 5.536 0 10-11.072 0 5.536 5.536 0 0011.072 0" fill="#42c1db"/><path d="M368.49 725.64a5.536 5.536 0 10-11.072 0 5.536 5.536 0 0011.072 0" fill="#fcd405"/><path d="M353.73 710.88a5.536 5.536 0 10-11.072 0 5.536 5.536 0 0011.072 0" fill="#9c158f"/></g><g clip-path="url(#d)" transform="matrix(3.3976 0 0 -3.3976 -770.489 2584.072)"><path d="M368.49 710.88a5.536 5.536 0 10-11.072 0 5.536 5.536 0 0011.072 0" fill="#196fc1"/><path d="M383.26 740.41a5.536 5.536 0 10-11.072 0 5.536 5.536 0 0011.072 0" fill="#42c1db"/><path d="M383.26 725.64a5.536 5.536 0 10-11.072 0 5.536 5.536 0 0011.072 0" fill="#9c158f"/><path d="M245.66 705.26a6.495 6.495 0 011.202 1.599c.32.603.565 1.254.727 1.937.158.676.239 1.378.239 2.085 0 1.477-.278 2.854-.827 4.095a9.9 9.9 0 01-2.254 3.203 10.358 10.358 0 01-3.345 2.092 11.22 11.22 0 01-4.104.751c-1.448 0-2.827-.248-4.1-.736a10.16 10.16 0 01-3.349-2.082 9.798 9.798 0 01-2.255-3.218c-.549-1.244-.827-2.625-.827-4.105 0-1.58.273-3.013.811-4.257a9.369 9.369 0 012.25-3.201c.95-.877 2.096-1.552 3.404-2.007 1.291-.448 2.712-.676 4.222-.676h10.225l2.098 4.52h-4.117zm-3.83 3.658a4.988 4.988 0 00-1.061-1.587 5.066 5.066 0 00-1.566-1.063c-1.167-.509-2.644-.508-3.811 0a5.066 5.066 0 00-1.566 1.063 4.981 4.981 0 00-1.447 3.55 5 5 0 001.447 3.549c.447.447.974.805 1.567 1.064.583.254 1.225.383 1.905.383s1.321-.129 1.904-.383a4.964 4.964 0 002.627-2.65c.257-.603.387-1.264.387-1.963s-.13-1.36-.386-1.963" fill="#192c66"/></g><path d="M120.064 135.825h-14.518l-29.097 67.317h20.436l5.212-13.257h21.086l5.389 13.257h20.773l-29.281-67.317zm-3.462 37.646h-8.31l4.13-10.57 4.18 10.57zm61.572 12.204l28.435-34.407v-15.43H154.58v16.948h27.844l-28.992 34.398v15.969h51.066l7.767-17.478h-34.092zm61.103-49.85l-29.097 67.317h20.43l5.218-13.257h21.08l5.395 13.257h20.773l-29.284-67.317h-14.515zm6.873 27.076l4.18 10.57h-8.311l4.131-10.57z" fill="#192c66"/><g clip-path="url(#e)" transform="matrix(3.3976 0 0 -3.3976 -770.489 2584.072)"><path d="M327.13 705.26c.486.474.89 1.012 1.201 1.599.321.603.565 1.253.728 1.938.158.677.239 1.379.239 2.084 0 1.477-.278 2.854-.827 4.095a9.889 9.889 0 01-2.254 3.203 10.37 10.37 0 01-3.345 2.092 11.22 11.22 0 01-4.104.751c-1.448 0-2.828-.248-4.101-.736a10.188 10.188 0 01-3.348-2.082 9.798 9.798 0 01-2.255-3.218c-.549-1.245-.827-2.626-.827-4.105 0-1.58.273-3.012.811-4.257a9.4 9.4 0 012.249-3.201c.95-.876 2.096-1.552 3.404-2.007 1.292-.448 2.712-.676 4.223-.676h9.758l2.098 4.52h-3.65zm-3.83 3.658a4.996 4.996 0 00-1.062-1.587 5.067 5.067 0 00-1.565-1.063c-1.167-.509-2.645-.508-3.811 0a5.066 5.066 0 00-1.566 1.063 4.976 4.976 0 00-1.447 3.55 4.975 4.975 0 003.013 4.613c.584.254 1.226.383 1.906.383s1.321-.129 1.904-.383a5.097 5.097 0 001.566-1.064 4.983 4.983 0 001.447-3.549c0-.7-.129-1.361-.385-1.963" fill="#192c66"/></g><path d="M358.909 188.257l-6.428 14.875h3.638l1.2-3.044h5.83l1.24 3.044h3.727l-6.472-14.875h-2.735zm1.27 4.37l1.849 4.665h-3.67l1.822-4.665z" fill="#192c66"/><g clip-path="url(#f)" transform="matrix(3.3976 0 0 -3.3976 -770.489 2584.072)"><path d="M337.43 705.12h1.71c.224 0 .438-.022.639-.066.202-.043.379-.116.531-.218s.272-.239.362-.412c.089-.173.134-.388.134-.646a1.3 1.3 0 00-.243-.796c-.163-.218-.4-.356-.711-.414l1.122-1.866h-1.166l-.924 1.766h-.48v-1.766h-.974v4.418zm.974-1.828h.574c.087 0 .18.003.277.009a.879.879 0 01.266.056c.078.031.144.08.196.146a.45.45 0 01.078.281.468.468 0 01-.068.268.466.466 0 01-.176.154.768.768 0 01-.243.071 1.899 1.899 0 01-.268.019h-.636v-1.004z" fill="#192c66"/></g><path d="M369.645 203.153h3.306v-14.875h-3.306v14.875z" fill="#192c66"/></svg>