<svg viewBox="0 0 751.59 219.36" xmlns="http://www.w3.org/2000/svg"><path d="M355.475 199.695h-6.354s-.853-3.86 1.441-5.339c2.31-1.5 4.913-2.647 4.913-2.647v7.986zm30.106-14.443s-3.853 2.191-6.302 4.324c-2.42 2.133.507 2.934.507 2.934v7.185h-18.42v-25.113s-6.715 6.103-7.333 6.927c-.662.846 1.589 1.632 1.589 1.632l-.375 2.383s-2.677 1.375-5.92 3.537c-3.228 2.14-5.604 4.883-5.604 6.773s-.823 9.347-.823 9.347h42.681v-19.929zm-38.115-9.192c2.104 0 3.582-.824 3.582-2.464 0-1.67-.986-2.824-3.582-2.824-2.316 0-2.934 1-2.934 2.824 0 1.817.802 2.464 2.934 2.464m7.847 0c2.118 0 3.552-.824 3.552-2.464 0-1.67-.97-2.824-3.552-2.824-2.317 0-2.934 1-2.934 2.824 0 1.817.809 2.464 2.934 2.464m11.898 31.29c-2.301 0-2.934.97-2.934 2.802 0 1.802.816 2.47 2.934 2.47 2.104 0 3.582-.823 3.582-2.47 0-1.677-.964-2.802-3.582-2.802m8.148 0c-2.294 0-2.92.97-2.92 2.802 0 1.802.825 2.47 2.92 2.47 2.148 0 3.604-.823 3.604-2.47 0-1.677-.978-2.802-3.604-2.802m91.982-31.783c2.125 0 3.603-.802 3.603-2.456 0-1.647-.985-2.817-3.603-2.817-2.294 0-2.92.993-2.92 2.817s.817 2.456 2.92 2.456m8.148 0c2.103 0 3.581-.802 3.581-2.456 0-1.647-.985-2.817-3.581-2.817-2.302 0-2.92.993-2.92 2.817s.795 2.456 2.92 2.456m22.51.684c-1.14.978-.809 2.162.647 2v26.974h6.045V171.64s-5.56 3.625-6.692 4.61m-24.297 15.128h-3.92c0-2.126 3.92-3.295 3.92-3.295v3.295zm-25.768 4.456c0 .978-.051 2.574-.088 3.86h-34.173v-5.941c.897-2.287 2.39-2.552 4.728-2.552h24.966c5.406 0 4.567 2.81 4.567 4.633m39.953-17.62v21.48h-8.125v-19.501s-1.677.625-3.95 1.625c-2.264 1.015-10.442 4.294-10.442 8.743v5.133h8.332v4h-19.774c.022-.94.036-2.33.036-4.36 0-6.39-5.522-9.883-10.42-9.883h-22.863c-3.993 0-5.927.963-7.008 2.051v-16.531s-3.574 2.478-6.185 4.442c-2.625 1.985 0 3.301 0 3.301v20.98h-7.486l-.17-18.001s-5.213 3.758-6.698 4.897c-1.464 1.148-.655 2.177.985 2.177 0 0-.302 13.288-.302 16.414 0 3.162-2.647 6.765-8.2 5.133 0 0-1.75.33-.293 1.64 1.463 1.316 3.22 2.316 5.192 2.316 1.963 0 9.155-1.346 9.155-9.09h94.232v-33.555s-5.545 3.611-6.677 4.59c-1.155.992-.824 2.176.661 2" fill="#64003c"/><path d="M25.9 102.805c0-38.567 20.663-48.972 36.275-48.972 25.094 0 35.964 20.818 35.964 43 0 12.705-1.527 24.651-7.81 34.29-6.268 9.645-16.673 15.463-28.007 15.463-28.317 0-36.421-26.945-36.421-43.78m76.212 78.822c4.594-3.215 11.792-7.19 16.998-9.49l-34.6-21.422c21.275-7.507 34.6-26.481 34.6-52.35 0-36.724-28.015-52.342-56.627-52.342-30.927 0-57.556 17.145-57.556 56.022 0 8.259 1.837 23.87 14.69 36.886 13.325 13.465 29.084 15.456 42.402 15.456 1.688 0 3.362 0 5.051-.155l35.042 27.395m89.929-72.038c-4.742.31-9.329.619-14.085.619-5.361 0-10.552-.457-15.914-.62l15.612-37.645 14.387 37.646zm17.3 42.704c2.743-.148 7.035-.915 11.32-.915s9.645.767 11.938.915c-6.895-14.845-16.99-37.955-22.801-51.266-5.523-12.868-14.697-34.283-22.042-55.262-1.681.472-3.215.767-4.896.767-1.844 0-3.37-.295-5.059-.767-3.665 12.558-12.543 32.454-28 67.046l-17.757 39.482c2.139-.303 4.285-.915 6.895-.915 2.44 0 5.354.612 7.345.915 2.44-8.724 7.352-21.43 12.234-33.214 6.128-.302 12.248-.604 18.376-.604 6.578 0 13.008.302 19.579.604l6.437 16.23 6.43 16.984m69.421-77.658c0-5.818.148-11.637.31-17.138 10.56 0 21.43.155 30.456 1.07-.465-2.449-.767-3.828-.767-5.51 0-1.23.302-3.222.767-5.81-14.697.76-28.162.914-40.868.914-11.784 0-28.774-.154-40.868-.914.465 1.829.767 3.82.767 5.649 0 1.843-.302 3.834-.767 5.67 7.817-.774 22.506-1.069 23.878-1.069h7.654c.155 5.966.302 11.32.302 16.99l.155 42.697c0 11.63-.914 23.413-1.526 35.05 5.508-.612 7.81-.922 10.405-.922 1.843 0 6.74.457 11.172.922-.457-4.285-1.07-9.336-1.07-20.965V74.636m86.721 34.954c-4.749.31-9.343.619-14.085.619-5.36 0-10.567-.457-15.92-.62l15.61-37.645 14.395 37.646zm17.285 42.704c2.758-.148 7.05-.915 11.327-.915 4.285 0 9.638.767 11.939.915-6.887-14.845-16.983-37.955-22.801-51.266-5.516-12.868-14.704-34.283-22.034-55.262-1.689.472-3.215.767-4.904.767-1.836 0-3.37-.295-5.051-.767-3.665 12.558-12.544 32.454-28.008 67.046l-17.757 39.482c2.146-.303 4.292-.915 6.888-.915 2.448 0 5.36.612 7.352.915 2.44-8.724 7.337-21.43 12.241-33.214 6.128-.302 12.241-.604 18.354-.604 6.593 0 13.023.302 19.601.604l6.43 16.23 6.423 16.984m86.47-52.07c13.923-2.595 26.629-11.32 26.629-28.31 0-6.43-2.449-12.712-7.043-17.144-6.585-6.276-14.077-7.492-24.025-7.492-3.517 0-21.274.76-25.257.76-7.809 0-11.79-.458-15.308-.76 1.084 19.74 1.084 21.879 1.084 41.922 0 29.541-.17 32.911-1.38 63.064 3.37-.464 7.036-.922 10.56-.922 3.82 0 7.19.612 10.25.922 0-3.99-.619-23.723-.619-28.17v-21.731h3.68c8.266 11.629 17.75 25.102 25.566 37.195 2.286 3.518 5.656 9.181 7.942 12.706 4.594-.612 6.43-.922 12.411-.922 5.501 0 9.336.458 13.62.922-9.653-12.094-13.775-17.455-25.861-34.445-2.3-3.208-5.67-8.266-7.964-11.467l-4.285-6.128zM444.13 55.53c2.301-.155 7.964-.76 10.877-.76 5.044 0 10.095.76 14.232 3.82 5.354 3.99 6.423 9.499 6.423 15.921 0 9.956-5.663 21.12-20.965 21.12-3.982 0-7.647-.302-10.567-.457V55.529" fill-rule="evenodd" fill="#64003c"/><path d="M142.925 190.569c-1.556.095-3.09.205-4.674.205-1.761 0-3.493-.154-5.276-.205l5.18-12.489 4.77 12.489zm5.745 14.161c.91-.044 2.326-.3 3.75-.3s3.199.256 3.962.3c-2.29-4.923-5.628-12.59-7.572-17-1.813-4.264-4.858-11.374-7.301-18.33-.565.154-1.072.25-1.622.25a5.95 5.95 0 01-1.673-.25c-1.225 4.16-4.168 10.764-9.297 22.225l-5.884 13.105c.711-.102 1.416-.3 2.282-.3.814 0 1.775.198 2.436.3.807-2.89 2.436-7.102 4.057-11.013 2.033-.103 4.065-.206 6.09-.206 2.187 0 4.322.103 6.502.206l2.12 5.378 2.15 5.635m12.379-23.04c0 8.68 0 17.06-.565 23.1 1.13-.052 2.546-.302 3.661-.302 1.167 0 2.385.25 3.552.301-.404-4.109-.514-9.597-.514-17.155 0-5.13 0-13.912.565-17.67-1.218.147-2.487.302-3.603.302-.755 0-2.641-.206-3.595-.301.499 4.923.499 8.526.499 11.725m30.451 5.797c4.616-.851 8.835-3.757 8.835-9.392 0-2.128-.815-4.212-2.334-5.687-2.186-2.07-4.674-2.48-7.968-2.48-1.182 0-7.06.257-8.373.257-2.597 0-3.91-.162-5.085-.257.36 6.545.36 7.257.36 13.905 0 9.796-.051 10.91-.462 20.912 1.122-.147 2.333-.3 3.507-.3 1.27 0 2.385.205 3.397.3 0-1.313-.205-7.866-.205-9.34v-7.199h1.233c2.73 3.845 5.884 8.321 8.467 12.327.763 1.167 1.879 3.053 2.642 4.212 1.526-.198 2.128-.3 4.116-.3 1.82 0 3.09.153 4.513.3-3.192-4.006-4.571-5.782-8.57-11.417-.77-1.072-1.886-2.745-2.65-3.808l-1.423-2.033zm-8.328-14.822c.763-.051 2.641-.257 3.61-.257 1.68 0 3.346.257 4.718 1.27 1.776 1.328 2.135 3.147 2.135 5.283 0 3.302-1.878 7.007-6.948 7.007-1.328 0-2.547-.11-3.515-.154v-13.15m35.038 20.179c-2.386-7.051-5.68-16.95-7.258-22.944a21.656 21.656 0 01-3.551.308c-1.218 0-2.95-.206-3.97-.308a602.627 602.627 0 015.232 14.213 648.867 648.867 0 015.694 16.759l1.262 3.852c.712-.154 1.526-.3 2.077-.3.565 0 1.07.095 1.93.3.814-2.641 1.79-5.885 2.502-7.969 1.966-5.796 2.215-6.603 4.813-13.809l1.519-4.212c.558 1.622 1.526 4.212 2.076 5.834.565 1.577 3.156 9.348 3.772 11.065.8 2.29 1.013 2.95 2.891 9.091.462-.051 1.416-.3 2.172-.3.72 0 1.277.146 2.04.3 1.93-6.039 2.135-6.648 4.975-14.77 2.788-7.918 4.512-12.438 7.558-20.054a8.719 8.719 0 01-2.282.308 9.261 9.261 0 01-2.334-.308c-1.827 6.596-2.744 9.803-4.212 14.169-2.384 7.102-2.693 7.917-4.16 11.77-1.629-4.367-3.207-8.777-4.667-13.253-.814-2.436-3.91-12.584-3.97-12.686-.704.146-1.218.308-2.23.308-.917 0-1.578-.206-2.238-.308-1.519 6.2-6.897 21.117-7.411 22.49l-1.262 3.294-.969-2.84m51.511-2.274c-1.57.095-3.09.205-4.675.205-1.768 0-3.492-.154-5.275-.205l5.18-12.489 4.77 12.489zm5.73 14.161c.925-.044 2.348-.3 3.764-.3 1.424 0 3.2.256 3.963.3-2.282-4.923-5.643-12.59-7.573-17-1.827-4.264-4.872-11.374-7.3-18.33-.558.154-1.072.25-1.622.25-.617 0-1.116-.096-1.68-.25-1.211 4.16-4.161 10.764-9.29 22.225l-5.892 13.105c.712-.102 1.43-.3 2.29-.3.814 0 1.775.198 2.428.3.814-2.89 2.443-7.102 4.065-11.013 2.033-.103 4.058-.206 6.083-.206 2.194 0 4.322.103 6.508.206l2.136 5.378 2.12 5.635m21.566-13.574c0-.455.315-1.005.66-1.622 2.135-3.654 4.124-7.455 6.398-11.116.756-1.218 4.462-7.103 5.225-8.475-.55.205-1.115.3-2.12.3-1.13 0-2.136-.154-2.95-.3-3.647 8.02-4.47 9.744-8.776 17.155-4.322-7.572-6.252-11.579-8.894-17.155-1.474.25-2.95.3-4.16.3-1.115 0-2.282-.095-4.168-.3 2.656 4.417 6.956 11.417 9.547 15.893l3 5.166c0 3.155-.16 9.803-.308 13.765.962-.103 2.385-.308 3.405-.308 1.167 0 2.326.205 3.5.308-.198-4.725-.36-7.462-.36-11.725v-1.886m15.41 6.017c-.25 2.436-.301 3.096-1.167 5.738 1.827.91 5.122 2.59 9.495 2.59 9.29 0 12.892-5.944 12.892-11.117 0-1.423-.36-4.424-2.487-6.706-1.468-1.622-2.994-2.18-6.905-3.698-4.469-1.732-7.059-2.745-7.059-6.458 0-2.986 1.981-5.48 5.995-5.48 3.2 0 5.885 1.525 6.648 4.424h.712c.462-1.93.565-2.34 1.577-4.836-2.487-1.108-4.725-2.069-8.43-2.069-9.187 0-11.836 5.687-11.836 10.14 0 4.22 1.482 6.817 6.405 8.997 1.417.601 3.801 1.519 5.225 2.128.968.41 4.168 1.827 4.168 5.84 0 3.655-2.642 6.347-6.648 6.347-2.994 0-5.533-.763-7.874-5.84h-.711" fill-rule="evenodd" fill="#54626d"/><path d="M610.712 147.899c-5.108 1.82-11.13 2.776-13.499 2.776-4.269 0-11.197 2.363-13.683 4.497 10.321-.172 21.284-.388 32.086-.647-.722-1.08-3.01-4.436-3.017-4.442-.937-1.339-1.462-1.931-1.764-2.215-.062.019-.037.006-.123.03M548.427 71.26c13.455 0 38.268-.333 62.76-.888a339.013 339.013 0 018.704-6.756c-27.15-.678-56.405-1.098-71.464-1.098-6.348 0-11.487 1.956-11.487 4.374s5.14 4.368 11.487 4.368m3.862-21.123c0 1.906 4.047 3.436 9.032 3.436 15.368 0 49.514-.555 74.438-1.407 1.863-1.289 3.744-2.628 5.564-3.855-25.152-.975-63.462-1.604-80.002-1.604-4.985 0-9.032 1.53-9.032 3.43M663.02 97.793c2.746 1.622 6.077 3.27 10.198 4.768 13.054-.653 21.444-1.381 21.444-2.153 0-.95-12.93-1.844-31.642-2.615m-122.353-9.248c11.419 0 30.068-.216 50.365-.592a317.13 317.13 0 019.334-8.508c-23.8-.48-46.54-.777-59.7-.777-7.15 0-12.96 2.215-12.96 4.948 0 2.714 5.81 4.929 12.96 4.929M670.38 65.546c-1.98 1.018-3.831 2.018-5.713 3.03 9.618-.525 15.726-1.086 15.726-1.685 0-.469-3.776-.919-10.013-1.345m-88.639-26.324c14.609 0 59.064-1.085 59.064-2.43 0-1.351-44.461-2.443-59.064-2.443-2.838 0-5.139 1.092-5.139 2.443 0 1.345 2.301 2.43 5.14 2.43m95.696 43.98c-.118.42-.389 1.148-.895 2.043 8.125-.513 13.079-1.068 13.079-1.63 0-.542-4.479-1.06-11.87-1.554l-.314 1.142zm-55.227 81.002c-27.786-.728-58.299-1.166-73.784-1.166-6.348 0-11.487 1.968-11.487 4.38s5.14 4.368 11.487 4.368c16.3 0 49.255-.494 78.158-1.277a628.364 628.364 0 01-4.374-6.305m13.122 17.915c-24.887-.851-58.73-1.4-74.012-1.4-4.985 0-9.032 1.548-9.032 3.449 0 1.887 4.047 3.436 9.032 3.436 16.015 0 52.42-.605 77.54-1.524a134.439 134.439 0 01-3.528-3.96m-58.73 15.391c0 1.345 2.3 2.45 5.138 2.45 14.603 0 59.064-1.105 59.064-2.45 0-1.332-44.455-2.43-59.064-2.43-2.838 0-5.139 1.098-5.139 2.43m-26.305-58.446c.247-1.222.808-2.567 1.925-4.047-.155.203-.266.37-.087.055 1-1.703 2.326-3.825 3.96-6.299-7.661-.08-14.398-.13-19.654-.13-7.6 0-13.77 2.357-13.77 5.238 0 2.912 6.17 5.25 13.77 5.25 3.886 0 8.581-.018 13.856-.067m11.252 16.428c-1.857-1.814-8.087-8.988-8.852-9.68-4.535-.036-8.631-.067-12.03-.067-7.15 0-12.962 2.22-12.962 4.954 0 2.714 5.812 4.935 12.962 4.935 5.484 0 12.671-.056 20.882-.142m-.956-33.19a222.405 222.405 0 017.878-10.198c-13.424-.197-25.189-.296-33.443-.296-7.749 0-14.029 2.4-14.029 5.336 0 2.955 6.28 5.35 14.029 5.35 6.576 0 15.46-.075 25.565-.192m-24.152-16.645c9.118 0 22.579-.13 37.86-.364a263.334 263.334 0 018.902-9.624c-18.902-.327-35.917-.5-46.762-.5-7.6 0-13.77 2.345-13.77 5.238 0 2.906 6.17 5.25 13.77 5.25" fill="#54626d"/><path d="M696.093 113.166c.111 2.66.087 5.3-.043 7.89-25.88 1.03-50.396 2.586-50.396 4.338 0 1.72 23.98 3.27 49.539 4.281a95.114 95.114 0 01-1.728 8.699c-25.207 1.024-48.6 2.547-48.6 4.25 0 1.647 21.832 3.116 46.021 4.158a86.227 86.227 0 01-3.781 8.958c-20.76.993-37.935 2.332-37.935 3.788 0 1.363 15.004 2.603 33.906 3.584-1.067 1.727-2.159 3.412-3.337 5.016a72.292 72.292 0 01-3.98 5.17c-11.813.9-19.92 1.912-19.92 2.998 0 .956 5.812 1.826 14.757 2.61-4.88 4.836-10.654 9.352-17.465 13.288 0 0-8.008-6.898-14.621-14.954-5.898-7.194-18.409-26.133-21.358-30.371-2.942-4.245-4.88-5.485-8.328-4.251-4.615 1.635-9.976 2.45-11.635 2.45-1.647 0-2.548-.636.216-1.74 2.757-1.105 13.652-6.256 19.025-16.898 6.022-11.98.722-28.514.722-28.514-2.017 8.828-6.62 12.141-6.62 12.141 1.488-8.205-.129-15.657-4.188-20.883l-2.258 10.383s-1.425-.062-4.917 2.881c-3.504 2.949-4.466 7.249-4.466 7.249 2.757 1.11 6.07-1.653 6.07-1.653-4.232 15.83-10.296 28.705-14.72 35.522-4.417 6.81-8.063 9.383-12.498 11.172-3.733 1.505-4.967-.247-4.967-.247-3.263-2.831-5.706-5.41-8.254-8.488 0 0-.204-.364.494-.346 1.82.025 5.052-3.085 5.762-4.38.82-1.468.728-2.603.314-2.69-.395-.068-1.098 1.11-4.596 3.32-3.498 2.214-5.102.678-6.262-.55-.894-.975-.024-2.184.55-2.949.524-.678 19-35.12 67.88-71.316 64.06-47.422 104.962-60.223 107.3-61.149 1.548-.617 4.078-1.412 4.651-.832.636.666.957 1.203.864 1.974-.08.777-.493 1.166-3.448 2.48-24.603 10.833-53.302 28.884-69.607 39.39-20.056 9.772-39.206 23.727-39.903 24.066-1.542.962-.407 2.344.53 1.764 33.857-22.53 73.575-37.872 117.444-50.439 2.11-.598 3.25-.598 3.609-.142.394.518.555 1.11.61 1.746.068.808-.598 1.234-2.4 1.943-47.138 17.509-81.883 33.783-104.234 48.805 0 0-2.32 1.4-2.35 3.017-.007.598 1.24.678 1.24.678 11.203.21 26.15.864 33.258 1.283 0 0-1.006 3.603-7.817 6.509-5.268 2.24-10.123 1.888-14.954 1.919-1.073-.013-1.986 1.06-1.123 2.227.438.561 10.685 17.076 47.947 20.845" fill="#64003c"/></svg>