<svg width="92.391" height="63.747" viewBox="0 0 24.445 16.866" xmlns="http://www.w3.org/2000/svg"><g fill="#c20831"><path d="M10.162 10.238v.002l2.876-2.09-.117-.362-2.071 1.505.349-1.074-.308-.224-.61 1.878A3.144 3.144 0 019.149 6.73l-.317-.23a3.505 3.505 0 001.33 3.738m1.91-2.056L10 6.677h1.129l.117-.362H9.27a3.156 3.156 0 012.641-2.048l.122-.372a3.517 3.517 0 00-3.146 2.42l2.876 2.09zm-1.92-4.655h.02c-.014-.158-.069-.252-.168-.29-.357-.134-.55-.429-.55-.758 0-.377.24-.61.542-.61.428 0 .583.499 1.073.499.175 0 .319-.103.319-.191v-.052h-.092c-.614 0-.708-.618-1.3-.618-.505 0-.904.4-.904.971 0 .577.445 1.049 1.06 1.049m-5.667 4.03h2.204v-.02a1.459 1.459 0 01-.582-.342H4.485c-.825 0-1.069-.077-1.477-.518h5.597c.024-.122.055-.244.091-.362H2.218l.25.298c.657.777.903.944 2.017.944M11.26 1.92c.313 0 .507-.26.507-.502 0-.245-.113-.345-.23-.345a.185.185 0 00-.184.185c0 .109.098.183.172.183-.095.144-.238.194-.424.18a.184.184 0 00-.15-.29c-.09 0-.182.086-.182.196 0 .206.193.393.491.393M9.455 9.835H6.8c-.73 0-1.005-.06-1.342-.381h-.5c.536.605.832.743 1.842.743h3.02a3.772 3.772 0 01-.365-.362m-1.222-.518v-.02a1.457 1.457 0 01-.582-.342H6.03c-.731 0-1.005-.06-1.343-.381h-.5c.536.605.832.743 1.843.743zm-.772-.88v-.02a1.456 1.456 0 01-.581-.342H5.257c-.73 0-1.005-.06-1.342-.381h-.5c.535.605.832.743 1.842.743zm5.503-5.995c-.18 0-.363.22-.43.541.111.008.223.02.331.036.072-.28.197-.409.301-.427-.037-.085-.107-.15-.202-.15m-.74 1.448l-1.097 3.38.308.224.79-2.434.35 1.073h.38l-.61-1.878a3.151 3.151 0 012.763 1.878h.39a3.515 3.515 0 00-3.272-2.244m1.96.182V3.7a4.088 4.088 0 00-1.96-.535 4.09 4.09 0 00-1.962.535v.371c.576-.34 1.246-.544 1.962-.544s1.385.204 1.96.544m-3.744-.706c.092-.043.186-.083.282-.12-.046-.14-.135-.3-.3-.3-.083 0-.148.067-.176.144.077.027.14.094.194.276m.197 6.752l-.316.229a3.492 3.492 0 003.964-.108h.002L13.19 6.859h-.381l.791 2.434-.913-.663-.308.224 1.597 1.16a3.129 3.129 0 01-3.338.105m.947-7.099c.11-.017.22-.028.332-.036-.068-.321-.25-.541-.43-.541-.095 0-.165.065-.203.15.105.018.23.148.301.427m-.655-.336a.215.215 0 00-.194.144c.078.011.183.075.26.326.101-.03.204-.057.308-.08-.074-.249-.208-.39-.374-.39m8.562 6.771h-.5c-.337.32-.612.381-1.342.381h-2.655c-.114.13-.236.25-.366.362h3.02c1.011 0 1.307-.138 1.843-.743m-7.484-3.139l-.118.362h2.56l-.913.663.117.362 1.6-1.162a3.14 3.14 0 01-.935 3.208l.121.372a3.505 3.505 0 001.123-3.805zm9.434.362c-.409.441-.652.518-1.477.518h-1.622c-.184.167-.36.276-.582.343v.019h2.204c1.114 0 1.36-.167 2.016-.944l.251-.298h-6.478c.036.118.066.24.09.362zm-9.574-5.445l.357-.26.358.26-.136-.42.357-.26h-.442l-.137-.42-.136.42h-.443l.358.26zm8.395 7.342h-.5c-.337.32-.611.381-1.342.381h-1.623c-.183.167-.36.276-.581.343v.02h2.204c1.01 0 1.307-.139 1.842-.744m.772-.88h-.5c-.338.32-.612.381-1.343.381H17.57c-.184.167-.36.276-.582.342v.02h2.204c1.01 0 1.307-.138 1.843-.743M14.203 3.09c-.027-.077-.092-.143-.175-.143-.165 0-.254.159-.3.3.095.036.19.076.282.12.053-.183.117-.25.193-.277m-2.205-.68c.1.114.159.203.222.346l.005.007.005-.007c.064-.143.123-.232.223-.347a1.294 1.294 0 00-.228-.355c-.075.074-.19.255-.227.355m1.065-.284v.051c0 .089.144.192.32.192.489 0 .644-.5 1.072-.5.302 0 .543.234.543.61 0 .33-.194.625-.55.76-.1.037-.155.13-.17.289h.022c.614 0 1.06-.472 1.06-1.049 0-.572-.4-.971-.905-.971-.592 0-.686.618-1.3.618zm-.38-.708c0 .242.194.502.507.502.298 0 .491-.187.491-.393 0-.11-.091-.196-.183-.196a.184.184 0 00-.15.29c-.185.014-.328-.036-.423-.18a.187.187 0 00.173-.184c0-.1-.083-.184-.186-.184-.116 0-.229.1-.229.345m-.458-.138a.29.29 0 100 .58.29.29 0 000-.58m1.49 1.548a.215.215 0 00-.194-.144c-.166 0-.3.141-.374.39.104.023.207.05.308.08.077-.251.182-.315.26-.326M2.692 16.568h-.47v-1.072h.487v.231s.065-.232.403-.207v.516s-.362-.052-.42.12zm10.05 0h-.47v-1.072h.487v.231s.065-.232.403-.207v.516s-.362-.052-.42.12zm-8.72-.8s-.19-.017-.214.249c0 0 .008.214.198.223 0 0 .181.017.198-.215 0 0 .008-.248-.182-.257m.634.266c-.024.61-.634.557-.634.557-.7.035-.692-.583-.692-.583.042-.55.684-.532.684-.532.667 0 .642.558.642.558m15.566-.266s-.189-.017-.214.249c0 0 .008.214.198.223 0 0 .18.017.198-.215 0 0 .008-.248-.182-.257m.635.266c-.025.61-.635.557-.635.557-.7.035-.691-.583-.691-.583.04-.55.683-.532.683-.532.667 0 .643.558.643.558m-16.105-.536h.577l.181.532.165-.532h.527l-.387.866s-.156.412-.411.37H4.85v-.31h.347zm2.31.28s-.222-.035-.23.249c0 0 0 .231.206.231 0 0 .189.008.206-.223 0 0 .024-.257-.182-.257m.164-.283h.478v1.072h-.477v-.197c-.14.223-.429.197-.429.197-.502-.051-.444-.566-.444-.566.016-.567.486-.541.486-.541.206-.008.387.172.387.172zm3.256.283s-.222-.035-.23.249c0 0 0 .231.206.231 0 0 .189.008.205-.223 0 0 .025-.257-.18-.257m.164-.283h.477v1.072h-.477v-.197c-.14.223-.429.197-.429.197-.501-.051-.444-.566-.444-.566.016-.567.486-.541.486-.541.206-.008.387.172.387.172zm8.235 1.073h-.47v-1.072h.487v.231s.065-.232.403-.207v.516s-.363-.052-.42.12zm-1.44-.79s-.222-.035-.23.249c0 0 0 .231.206.231 0 0 .189.008.206-.223 0 0 .024-.257-.182-.257m.165-.283h.477v1.072h-.477v-.197c-.14.223-.429.197-.429.197-.502-.051-.444-.566-.444-.566.016-.567.486-.541.486-.541.206-.008.387.172.387.172zm-9.595-.187h.494v1.261h-.494zm3.43.19h.494v1.072h-.494zm0-.22h.494v.141h-.494zm2.98 1.29v-1.073h.478v.24s.108-.257.42-.257c0 0 .24-.026.363.214 0 0 .198-.266.42-.214 0 0 .28-.017.346.291v.79h-.511v-.558s-.024-.163-.14-.146c0 0-.123 0-.14.129v.584h-.503v-.541s.025-.189-.115-.163c0 0-.123-.017-.147.137v.567zm7.81-1.04s-.18-.078-.568-.086c0 0-.543-.008-.56.592 0 0 0 .506.61.532 0 0 .395 0 .518-.18v-.25s-.123.078-.362.078c0 0-.28.017-.28-.223 0 0 .016-.206.214-.197 0 0 .206-.043.428.06zm-17.99-2.21s-.13.226-.13.273c0 .048.033.114-.007.131-.04.018-.354.102-.326-.196-.314.125-1.13.488-1.862.488-.437 0-.657.053-.837-.139-.086-.12-.311-.295-.46.025-.154.22-.16.424-.257.405-.103-.018-.148-.231-.177-.487-.109.363-.02.833.109.827.124 0 .201-.228.266-.367.065-.14.09-.2.185-.204.354.017-.017.386 1.125.333.532-.054 1.217-.16 1.68-.488.086-.072.108-.09.131.047.029.15.091.209.251.197.16-.012.452-.292.309-.845m20.06-.43c-.057.101-.182.333-.245.37 0 .172.028 1.273-.011 1.35.097-.179.28-.399.268-.566-.012-.166.017-1.077-.012-1.154m-1.51.24l-.285.202.165.155.257-.232z"/><path d="M19.512 13.898c.017-.101-.108-.244-.252-.208 0 .113.035.214.092.226.057.012.143.018.16-.018m2.034.113c-.2-.113-.812.113-.994.214.263.03.988 0 .994-.214m2.097-.851s-.11.137-.144.19c-.034.054-.011.072-.017.167-.006.096.006.244-.114.405.046.047.589.154.589.154l-.28.334c-.04-.024-.326.012-.452.023-.125.013-.76.102-1.034.138-.274.035-.914.06-1.422.041-.508-.017-.703-.119-.994-.202 0 0-.172.238-.28.268-.108.03-.48.06-.96-.042.149-.011.966-.214 1.109-.375-.337.012-.6-.119-.623-.19-.023-.072.086-.227.143-.333.057-.108.205-.381.297-.376.166.012.325.31.406.53.074.107.314.268.502.22.034-.023.206-.119.285-.166l-.011-.44c-.005-.084-.062-.114-.074-.191-.011-.078.08-.256.2-.465-.028.09.08.197.103.316.023.12-.075.16-.086.19a3.46 3.46 0 00-.006.53c.72-.345.863-.297 1.017-.19.154.107.097.321-.166.53.172.023.743-.03 1.04-.102-.023-.018-.52-.113-.52-.113.035-.012.171-.273.171-.273l.88-.012c.114 0 .114-.084.114-.084l.006-.226c0-.06-.022-.071-.04-.209-.017-.136.229-.333.229-.333-.057.203 0 .215.132.286m-5.261 1.008c-.005-.076-.064-.18-.266-.17-.2.009-.424.223-.51.339.082.005.596-.023.776-.17m-.685-.968c.038.009.094.055.111.067.017 0-.013.098-.116.156.026.406-.02.66-.02.66.71-.526 1.061-.482 1.104-.24.043.24-.445.732-.857.767-.41.036-.616-.062-1.028-.25.077.019.283-.009.514.027.017-.053.112-.152.189-.214l-.052-.607c-.008-.072-.069-.08-.051-.232.017-.152.09-.344.219-.367a.52.52 0 00-.013.233m-1.315-.271c-.02.044-.214.384-.214.384.017.29.056 1.093-.026 1.28.18-.24.266-.441.266-.53 0 0-.005-1.085-.026-1.134m-.82 1.17c-.012.076-.028.27.19.225.065-.044-.019-.252-.19-.225m-.015-1.007c0 .027.12.054.129.125.008.071-.021.125-.095.214l-.012.22s-.004.102.025.133c.069.036.133-.063.245-.022.181.065.073.361.034.509-.039.147-.176.392-.266.388-.14-.007-.192-.116-.23-.326-.104.09-.652.295-.913.29-.262-.005-.343-.24-.403-.45-.03.093-.27.468-.707.463-.437-.004-.737-.272-.93-.437l-.047.014c-.034.259-.236.321-.368.334-.133.014-.275-.187-.343-.384-.06.04-.806.36-1.392.367-1.067.013-.87-.425-1.098-.42-.094.004-.12.031-.183.17-.066.14-.163.361-.288.361-.308 0-.252-.576-.085-.853.05-.093.072-.04.047.014s-.086.415.017.433c.072.013.184-.072.338-.29.137-.224.403-.188.489-.067.162.24.41.25.848.259.437.009.715-.072 1.405-.366-.017.058-.009.21.099.29.107.08.287.12.351-.058l-.287-.26c-.098-.084-.163-.084-.141-.339 0-.477 1.392-.406 1.392-.406.15 0 .297-.022.309.107.025.295-.262.491-.532.572.081-.045.287-.197.305-.268.018-.08-.01-.112-.086-.107-.077.004-1.093.098-1.093.098-.055.009-.021.058-.021.058l.912.639c.412.214.737.07.922 0 .184-.072.18-.188.184-.273l.017-.593c.047-.027.163-.242.163-.242l-.018.956c.005.111.018.299.15.317.296.049.879-.242 1.02-.349a5.244 5.244 0 00-.008-.402c0-.062-.098-.084-.098-.16s.192-.397.235-.446c-.021.049.01.16.01.187m-6.577.127l-.282.223.188.098s.18-.152.257-.142c.077.009.189.106.189.106s.248-.214.282-.223c-.06-.08-.162-.125-.162-.125s-.215.152-.266.152-.206-.09-.206-.09"/><path d="M11.172 14.408c-.04.035-.257.16-.302.173l.182.112s.211-.125.257-.107c.046.018.16.095.16.095l.291-.154-.137-.126s-.222.12-.274.114c-.051-.006-.177-.107-.177-.107m-3.25-1.42c-.022.044-.214.384-.214.384.06.357.158 1.125.077 1.312.18-.24.248-.49.248-.58 0 0-.09-1.067-.11-1.116m-2.181.86l.297-.132c-.045-.03-.371-.035-.428-.03zm1.423.266c-.013.076-.029.275.16.24.068-.066.01-.267-.16-.24m-2.434.198c-.291.024-.771.506-1.023.399-.146-.062-.011-.381.092-.465-.086.31-.086.274-.023.327.063.054.463-.291.657-.416s.651-.238.965-.244a.285.285 0 00-.12-.113 1.325 1.325 0 00-.194-.036l.155-.315c.342-.072 1.068.047 1.257.095l-.075.369a.74.74 0 00-.314.155c.194.22.727 0 .868-.107.008-.059 0-.381 0-.381 0-.063-.109-.063-.109-.138 0-.077.193-.398.236-.447-.022.05.008.16.008.188 0 .026.102.046.11.117.008.071-.004.133-.076.222l-.007.173s-.004.103.026.135c.068.035.133-.063.244-.023.181.065.04.39.001.537-.038.148-.085.331-.205.313-.182-.027-.161-.165-.2-.375-.103-.045-.375.283-.889.188-.208-.04-.36-.126-.574-.322-.051.063-.542.05-.81.164"/><path d="M6.002 13.028l-.308.173.171.112.251-.172zm-4.96.12l.194.077s-.24.196-.257.202c-.017.006-.177-.083-.234-.065-.057.018-.194.167-.194.167s-.183-.066-.223-.078c.097-.053.24-.214.269-.244.114.048.228.114.262.101.034-.011.114-.16.183-.16m2.09 1.29c.034 0 .218-.155.263-.15.046.007.194.126.194.126s-.268.209-.297.202c-.029-.006-.16-.112-.189-.107-.028.006-.25.16-.25.16l-.24-.106s.256-.22.297-.226c.04-.006.182.09.222.1m1.51.001l-.228.119.114.142.24-.154z"/></g></svg>