<svg xmlns="http://www.w3.org/2000/svg" width="155.775" height="72.459" viewBox="0 0 41.215 19.171"><defs><linearGradient id="c" spreadMethod="pad" gradientTransform="rotate(-133.5 76.221 76.394) scale(13.45392)" gradientUnits="userSpaceOnUse" y2="0" x2="1" y1="0" x1="0"><stop offset="0" stop-color="#20294e"/><stop offset=".295" stop-color="#005695"/><stop offset=".904" stop-color="#26b5e3"/><stop offset="1" stop-color="#26b5e3"/></linearGradient><linearGradient id="b" spreadMethod="pad" gradientTransform="rotate(-32.135 354.574 -25.117) scale(12.2691)" gradientUnits="userSpaceOnUse" y2="0" x2="1" y1="0" x1="0"><stop offset="0" stop-color="#20294e"/><stop offset="1" stop-color="#005f9b"/></linearGradient><linearGradient id="a" spreadMethod="pad" gradientTransform="rotate(-35.512 318.928 -9.297) scale(12.70069)" gradientUnits="userSpaceOnUse" y2="0" x2="1" y1="0" x1="0"><stop offset="0" stop-color="#20294e"/><stop offset=".5" stop-color="#005695"/><stop offset="1" stop-color="#26b5e3"/></linearGradient></defs><path d="M72.679 175.706c-1.034.35-2.394.927-3.797 1.458.778.36 1.544.698 2.153.972 1.977-.808 3.493-1.261 3.493-1.261s-.246.638-1.312 2.245c.514.228 1.152.498 1.564.627 1.504-2.068 2.464-3.957 1.82-4.603-.11-.112-.252-.234-.672-.234-.514 0-1.445.183-3.25.796" fill="url(#a)" transform="translate(-49.696 -174.777)"/><path d="M70.387 183.676c.527.406.92.193 1.334-.115.002-.002-.042.04-.121.111.549-.464 1.229-1.179 2.198-2.374-.511-.308-1.023-.613-1.44-.861z" fill="url(#b)" transform="translate(-49.696 -174.777)"/><path d="M63.306 175.35c-.037.002-.07.005-.103.003-.042-.002-.119.061-.119.061-1.794 1.055 3.544 9.604 5.913 11.186.329.22.928.457 1.456.284a.986.986 0 00.2-.128c.011-.01 1.575-1.828 1.575-1.83-.02-.145-.166-.059-.184-.046-.61.443-1.145.195-2.79-1.477-1.752-1.778-3.45-4.89-3.45-4.89l7.892 3.555c.524.236.818.102.97.003.042-.027 1.472-1.749 1.472-1.749.01-.12-.124-.053-.124-.053-.46.289-.81.073-1.555-.226-.503-.202-5.794-2.54-7.679-3.435-2.419-1.147-3.084-1.262-3.378-1.262a.902.902 0 00-.096.004" fill="url(#c)" transform="translate(-49.696 -174.777)"/><path d="M19.658 14.58l.152-.002a.502.502 0 01.162.017.297.297 0 01.129.066c.033.032.05.082.05.15v2.352c0 .266-.05.51-.148.734-.1.222-.234.415-.402.575a1.85 1.85 0 01-.596.375c-.227.09-.472.135-.734.135a2.01 2.01 0 01-.736-.135c-.23-.09-.43-.215-.599-.375a1.794 1.794 0 01-.551-1.31c0-.396.001-.787.003-1.175.003-.388.004-.78.004-1.176a.15.15 0 01.058-.126.346.346 0 01.138-.06c.054-.011.109-.018.166-.02.057-.003.102-.005.139-.005.049 0 .108.017.175.048.068.031.101.079.101.142v2.203c0 .168.025.325.071.474.048.148.119.281.214.396a1.03 1.03 0 00.817.376 1.039 1.039 0 00.82-.373c.093-.113.164-.244.211-.395.048-.151.072-.31.072-.478v-2.19c0-.081.03-.138.091-.172a.387.387 0 01.193-.05m2.914 4.409c-.307 0-.611-.058-.913-.174a2.321 2.321 0 01-.792-.497.245.245 0 01-.047-.074.223.223 0 01-.02-.088c0-.041.018-.086.054-.135a.924.924 0 01.284-.254.312.312 0 01.142-.043.35.35 0 01.199.08c.074.055.164.114.27.18.107.065.228.125.366.18.138.052.3.08.49.08.099 0 .209-.009.328-.028.119-.016.23-.05.331-.098a.676.676 0 00.253-.196.481.481 0 00.102-.314.348.348 0 00-.118-.277.814.814 0 00-.311-.155 3.004 3.004 0 00-.44-.085 13.35 13.35 0 01-.5-.071 5.025 5.025 0 01-.5-.108 1.552 1.552 0 01-.44-.195.982.982 0 01-.31-.34 1.07 1.07 0 01-.119-.533.99.99 0 01.17-.582c.112-.162.254-.294.425-.399.171-.103.36-.18.568-.23a2.508 2.508 0 011.007-.043c.145.02.287.052.426.094.14.043.274.1.402.169.128.07.24.153.335.247.013.009.025.03.034.063a.342.342 0 01.013.078.261.261 0 01-.054.156.689.689 0 01-.29.227.428.428 0 01-.162.037.324.324 0 01-.116-.02 1.943 1.943 0 00-.483-.308 1.382 1.382 0 00-.558-.111c-.085 0-.181.01-.287.027a.967.967 0 00-.29.094.696.696 0 00-.224.18.428.428 0 00-.092.28c0 .158.069.27.204.337.135.068.304.118.507.15.202.032.422.06.659.087.236.028.457.081.66.16.202.079.371.197.506.354.136.159.203.383.203.678 0 .243-.059.454-.176.631a1.511 1.511 0 01-.445.443 1.971 1.971 0 01-.603.26c-.22.056-.437.085-.648.085m5.399-4.334c.077 0 .13.032.159.098.03.066.044.127.044.185 0 .032-.001.074-.004.126a.647.647 0 01-.023.153.313.313 0 01-.064.124c-.03.034-.071.05-.125.05h-.839a.321.321 0 00-.176.045c-.045.03-.067.087-.067.172l.007 3.117c0 .064-.017.111-.051.142a.27.27 0 01-.123.065.607.607 0 01-.15.012c-.055-.003-.105-.003-.15-.003a.55.55 0 01-.203-.044c-.072-.03-.108-.085-.108-.166v-3.157a.189.189 0 00-.054-.141c-.027-.023-.093-.038-.2-.044a5.1 5.1 0 00-.656-.003 7.823 7.823 0 01-.165.006c-.086 0-.143-.032-.172-.097a.485.485 0 01-.044-.2v-.132c0-.051.007-.1.02-.145a.28.28 0 01.065-.115.162.162 0 01.125-.048zm13.112 3.908c0 .09-.017.167-.05.229-.034.064-.103.096-.207.096h-2.9c-.04 0-.081-.025-.122-.076-.04-.048-.061-.092-.061-.127v-3.902c0-.062.017-.11.051-.142a.299.299 0 01.121-.068.57.57 0 01.153-.02h.142c.076 0 .144.015.203.045a.288.288 0 01.135.165v3.015c0 .05.006.093.017.132a.27.27 0 00.07.111.317.317 0 00.257.122h1.955a.18.18 0 01.128.045.276.276 0 01.071.107.518.518 0 01.03.135c.005.048.007.092.007.133M9.117 16.23c-.111.526-.78.513-.78.513h-.894c-.166-.014-.176-.18-.176-.18V15.54c.003-.11.08-.11.08-.11h.156c.23-.001.459.005.688.002.256-.002.555-.03.761.155.112.1.167.269.18.415a.74.74 0 01-.015.228m1.145 2.654l-.913-1.601c.003 0-.037-.081.023-.12.904-.587.501-1.708.501-1.708-.256-.816-1.329-.805-1.329-.805h-1.77c-.288-.003-.278.201-.278.201v3.879s-.013.262.17.277h.482c.183-.016.17-.277.17-.277v-1.115c-.007-.053.07-.047.07-.047.034 0 .948-.03 1.1.034.068.028.144.1.187.163l.611 1.021c.047.078.1.144.169.202.066.054.142.052.224.05.139-.003.278.001.416.001.221-.013.167-.155.167-.155m21.299-2.654c-.11.526-.779.513-.779.513h-.895c-.166-.014-.176-.18-.176-.18V15.54c.003-.11.08-.11.08-.11h.156c.23-.001.46.005.689.002.256-.002.555-.03.76.155.112.1.167.269.181.415a.73.73 0 01-.016.228m1.146 2.654l-.913-1.601c.002 0-.038-.081.022-.12.905-.587.502-1.708.502-1.708-.257-.816-1.329-.805-1.329-.805h-1.77c-.288-.003-.278.201-.278.201v3.879s-.013.262.17.277h.482c.182-.016.169-.277.169-.277v-1.115c-.006-.053.07-.047.07-.047.034 0 .949-.03 1.1.034a.49.49 0 01.187.163l.611 1.021c.047.078.1.144.169.202.066.054.143.052.225.05.138-.003.277.001.415.001.222-.013.168-.155.168-.155M2.66 17.362a.116.116 0 01-.086.038h-.867a.117.117 0 01-.084-.038.117.117 0 01-.037-.084c0-.013.021-.074.064-.183l.142-.355.149-.365c.048-.114.078-.185.091-.212.022-.028.057-.041.102-.041h.005v.001h.003v-.001h.007c.045 0 .078.013.1.041.015.027.046.098.093.212l.148.365c.052.13.1.247.142.355.043.109.064.17.064.183 0 .031-.013.06-.037.084m1.484 1.416l-1.677-4.002c-.022-.054-.073-.087-.152-.1a1.265 1.265 0 00-.171-.02h-.004a1.248 1.248 0 00-.17.02c-.08.013-.13.046-.153.1L.139 18.778c-.005.005-.007.017-.007.034 0 .047.019.08.054.098a.362.362 0 00.129.042c.05.005.1.007.152.005.052 0 .094-.003.125-.003a.958.958 0 00.216-.026.225.225 0 00.169-.137l.237-.568a.297.297 0 01.078-.094.188.188 0 01.118-.04h1.463a.19.19 0 01.117.04.3.3 0 01.078.094l.237.568a.227.227 0 00.17.137c.08.018.152.026.215.026l.125.003c.052.002.103 0 .153-.005a.356.356 0 00.128-.042c.036-.019.054-.051.054-.098 0-.017-.003-.029-.007-.034m10.5-1.416a.115.115 0 01-.085.038h-.866a.117.117 0 01-.085-.038.116.116 0 01-.038-.084c0-.013.022-.074.065-.183l.142-.355.149-.365c.047-.114.078-.185.091-.212.023-.028.057-.041.102-.041h.005v.001h.003v-.001h.007c.044 0 .078.013.101.041.014.027.044.098.091.212l.15.365.141.355c.043.109.065.17.065.183 0 .031-.013.06-.038.084m1.484 1.416l-1.677-4.002c-.022-.054-.073-.087-.152-.1a1.265 1.265 0 00-.171-.02h-.004a1.265 1.265 0 00-.171.02c-.08.013-.13.046-.153.1l-1.676 4.002c-.004.005-.006.017-.006.034 0 .047.017.08.053.098a.367.367 0 00.129.042c.05.005.1.007.151.005.053 0 .095-.003.126-.003a.97.97 0 00.217-.026.225.225 0 00.168-.137l.237-.568a.301.301 0 01.078-.094.188.188 0 01.118-.04h1.463c.044 0 .084.014.117.04a.3.3 0 01.078.094l.236.568a.229.229 0 00.17.137.994.994 0 00.216.026l.125.003c.052.002.103 0 .152-.005a.36.36 0 00.129-.042c.036-.019.054-.051.054-.098 0-.017-.002-.029-.007-.034m19.567-1.416a.116.116 0 01-.084.038h-.867a.117.117 0 01-.085-.038.116.116 0 01-.037-.084c0-.013.022-.074.065-.183l.141-.355.15-.365c.046-.114.077-.185.09-.212.023-.028.057-.041.102-.041h.005v.001h.004v-.001h.006c.045 0 .08.013.101.041.014.027.045.098.092.212l.149.365c.052.13.1.247.142.355.042.109.063.17.063.183 0 .031-.012.06-.037.084m1.484 1.416l-1.676-4.002c-.022-.054-.074-.087-.153-.1a1.248 1.248 0 00-.17-.02h-.005a1.29 1.29 0 00-.172.02c-.078.013-.129.046-.151.1l-1.677 4.002c-.004.005-.006.017-.006.034 0 .047.017.08.054.098a.368.368 0 00.128.042c.05.005.1.007.152.005.052 0 .094-.003.125-.003a.969.969 0 00.217-.026.227.227 0 00.168-.137l.237-.568a.305.305 0 01.078-.094.19.19 0 01.118-.04h1.463c.044 0 .084.014.117.04.035.027.06.06.078.094l.237.568a.227.227 0 00.17.137c.08.018.153.026.215.026l.125.003c.052.002.103 0 .153-.005a.358.358 0 00.128-.042c.036-.019.054-.051.054-.098 0-.017-.001-.029-.007-.034m-31.661-.003c0 .127-.1.23-.222.23h-.353a.225.225 0 01-.222-.23v-3.906c0-.128.1-.23.222-.23h.353c.122 0 .222.102.222.23z" fill="#20294e"/></svg>