<svg viewBox="0 0 310 92" xmlns="http://www.w3.org/2000/svg"><path fill="#01185b" d="M-1-1h312v94H-1z"/><path clip-rule="evenodd" fill="none" d="M75.692 91.963H87.65L126.3.027h-12.07z"/><path d="M131.72 40.138l1.129-2.746c.165-.435.644-.913 1.077-.913h30.71c.646 0 1.026.695.81 1.13l-1.241 3.016c-.322.703-.771 1.183-1.63 1.242h-6.183c-.375 0-1.131.644-1.288 1.077l-9.376 22.682c-.166.488-1.024 1.348-1.618 1.348h-12.339c-.59 0-1.241-.65-.972-1.293l9.862-23.223c.105-.217-.433-.591-.538-.591h-7.17c-.858-.001-1.668-.809-1.233-1.729zm41.75 16.165l-3.344 5.012h3.449l-.695 4.094c-.163 1.131-.061 1.564.914 1.564h8.785c.859 0 1.885-.703 2.041-1.564l4.694-27.695c.102-.756-.383-1.13-.974-1.13h-17.025c-.539 0-1.242.374-1.51.809L150.73 65.462c-.322.486.164 1.512 1.077 1.512h10.567c1.554 0 2.094-.164 3.119-1.512l9.968-15.355-.968 6.197h-1.023v-.001zm32.49 2.205l2.317-5.49h.643c.542 0 1.193-.539 1.409-1.078l3.605-8.517c.167-.374-.164-1.078-.536-1.078h-2.263l-10.35 24.628h-12.338c-.859 0-1.938-.703-1.614-1.617l11.644-27.591c.536-1.233 1.346-1.182 1.885-1.182h24.672c2.424 0 4.257 2.372 3.234 5.014l-5.174 12.063c-.536 1.512-2.424 2.912-4.31 2.912 1.295 1.076 1.781 4.527 1.183 6.09l-1.078 2.746c-.322.756-1.453 1.564-2.26 1.564h-10.186c-.808 0-1.614-1.078-1.234-1.885l1.828-4.313c.484-1.189-.375-2.207-.698-2.207l-.379-.059zm75-8.776l-.268-12.02c0-.539-.862-1.13-1.294-1.13h-10.24c-.753 0-1.398 0-1.883 1.077l-11.586 27.428c-.539 1.234.323 1.885 1.242 1.885h10.664c1.026 0 2.208-.756 2.641-1.781l4.53-10.881.911 11.098c.052 1.721 1.939.914 2.643 0l8.837-11.688-4.58 11.471c-.539 1.512 1.026 1.781 1.885 1.781h9.751c.914 0 1.885-.809 2.26-1.668l10.454-27.105c.271-.808-.269-1.616-.964-1.616h-13.851c-.811 0-1.617.435-2.104 1.13l-9.048 12.019zm-18.48-8.734l-9.429 22.422c-.757 1.885-3.449 3.553-5.493 3.553H227.19c-2.156 0-4.26-3.824-3.393-5.979l9.639-22.795c.541-1.182 2.155-1.616 3.502-1.616h23.117c1.67 0 3.016 3.068 2.425 4.415zm-16.322 1.512h1.236c.435 0 .861.973.651 1.399l-6.629 15.841c-.271.645-1.133 1.244-1.888 1.244h-1.078c-.435 0-1.078-.92-.859-1.408l6.684-15.677c.269-.696 1.076-1.399 1.883-1.399z" clip-rule="evenodd" fill="#fff" fill-rule="evenodd"/><path d="M131.47 77.785l-.629.129v-7.305h1.181c.692 0 1.247.191 1.663.578.417.385.625.898.625 1.539 0 .547-.155 1.006-.464 1.375-.313.373-.726.6-1.244.678l2.21 2.746-.579.361-2.761-3.619.5.008c.522 0 .927-.133 1.22-.402.291-.27.438-.645.438-1.125 0-.482-.146-.857-.438-1.127-.293-.27-.698-.404-1.22-.404h-.5v6.568h-.002zm7.29-5.832c.603-.604 1.339-.904 2.208-.904.867 0 1.6.301 2.2.904.6.605.9 1.352.9 2.242 0 .885-.302 1.631-.906 2.234-.602.604-1.336.906-2.204.906-.869 0-1.604-.301-2.204-.904-.6-.602-.9-1.346-.9-2.236s.303-1.636.906-2.242zm-1.246 3.729c.207.482.496.902.867 1.256.345.33.737.58 1.175.752.438.17.908.256 1.413.256.503 0 .971-.086 1.405-.256a3.591 3.591 0 001.169-.752c.369-.35.657-.764.863-1.248.209-.484.312-.984.312-1.494 0-.533-.099-1.033-.3-1.502a3.62 3.62 0 00-.875-1.234 3.61 3.61 0 00-1.177-.756 3.826 3.826 0 00-1.397-.252 3.83 3.83 0 00-1.413.256c-.438.17-.831.42-1.175.752a3.768 3.768 0 00-.867 1.25 3.727 3.727 0 000 2.972zm10.336 2.252l-.62-.137 1.489-7.428 2.43 5.98 2.44-5.98 1.479 7.428-.62.137-1.068-5.447-2.231 5.447-2.229-5.447-1.07 5.447zm14.18-3.627h-2.588l1.288-2.588 1.3 2.588zm-2.905.599h3.197l1.489 2.951.617-.189-3.667-7.279-3.758 7.295.604.174 1.518-2.952zm8.465 2.879l-.63.139v-7.439l4.85 5.783V70.61l.629-.125v7.439l-4.849-5.807v5.668zm8.94 0l-.651.092v-7.268l.651-.094v7.27zm7.59-3.478h-2.588l1.289-2.588 1.299 2.588zm-2.905.599h3.197l1.489 2.951.619-.189-3.668-7.279-3.76 7.295.602.174 1.521-2.952zm8.465 2.879l-.627.139v-7.439l4.848 5.783V70.61l.627-.125v7.439l-4.848-5.807v5.668zm17.39-3.478h-2.591l1.289-2.588 1.302 2.588zm-2.906.599h3.195l1.489 2.951.619-.189-3.668-7.279-3.76 7.295.604.174 1.521-2.952zm8.526 2.879l-.65.092v-7.268l.65-.094v7.27zm4.09 0l-.63.129v-7.305h1.182c.692 0 1.245.191 1.664.578.414.385.622.898.622 1.539 0 .547-.156 1.006-.466 1.375-.311.373-.724.6-1.242.678l2.208 2.746-.575.361-2.763-3.619.5.008c.523 0 .93-.133 1.221-.402.292-.27.438-.645.438-1.125 0-.482-.146-.857-.438-1.127-.291-.27-.697-.404-1.221-.404h-.5v6.568zm13.03 0l-.641.092v-6.65h-1.989l.162-.617h4.299v.617h-1.831v6.558zm5.37 0l-.628.129v-7.305h1.18c.692 0 1.247.191 1.664.578.416.385.622.898.622 1.539 0 .547-.153 1.006-.464 1.375-.31.373-.724.6-1.241.678l2.21 2.746-.58.361-2.763-3.619.502.008c.521 0 .927-.133 1.222-.402.289-.27.435-.645.435-1.125 0-.482-.146-.857-.435-1.127-.295-.27-.7-.404-1.222-.404h-.502v6.568zm10.38-3.478h-2.588l1.289-2.588 1.299 2.588zm-2.906.599h3.197l1.489 2.951.617-.189-3.666-7.279-3.76 7.295.602.174 1.521-2.952zm8.466 2.879l-.63.139v-7.439l4.848 5.783V70.61l.631-.125v7.439l-4.849-5.807v5.668zm7.97-1.129l.519-.379c.213.346.463.604.752.777s.612.26.974.26c.467 0 .847-.133 1.148-.398s.456-.602.456-1.008c0-.676-.573-1.184-1.719-1.529a4.572 4.572 0 01-.273-.082c-.588-.178-1.016-.42-1.289-.723-.272-.305-.408-.697-.408-1.176 0-.541.203-1 .611-1.375.406-.375.92-.563 1.536-.563.381 0 .722.066 1.023.199s.609.35.914.648l-.419.486a3.094 3.094 0 00-.773-.561 1.89 1.89 0 00-.786-.166c-.401 0-.745.131-1.026.393s-.419.576-.419.949c0 .23.055.434.16.609.11.172.274.32.499.439.166.092.466.201.897.326.24.068.422.123.55.164.526.182.924.43 1.192.746.266.318.396.701.396 1.152 0 .592-.213 1.09-.643 1.488s-.977.598-1.636.598c-.458 0-.88-.111-1.268-.332a2.764 2.764 0 01-.968-.942zm10.24-4.963c.333.318.5.756.5 1.314 0 .561-.167.998-.5 1.314-.331.318-.794.477-1.388.477h-.563v-3.582h.563c.594.001 1.057.159 1.388.477zm-1.95 3.715h.572c.764 0 1.375-.221 1.836-.658.461-.439.692-1.018.692-1.742 0-.723-.231-1.305-.692-1.742s-1.072-.656-1.836-.656h-1.202v7.305l.63-.129v-2.378zm7.43-3.455c.602-.604 1.339-.904 2.208-.904.867 0 1.602.301 2.2.904.602.605.901 1.352.901 2.242 0 .885-.303 1.631-.904 2.234-.604.604-1.341.906-2.207.906-.867 0-1.604-.301-2.203-.904-.602-.602-.9-1.346-.9-2.236s.301-1.636.905-2.242zm-1.247 3.729c.206.482.495.902.867 1.256.347.33.737.58 1.177.752.438.17.906.256 1.411.256.503 0 .972-.086 1.406-.256a3.602 3.602 0 001.169-.752c.367-.35.656-.764.864-1.248a3.788 3.788 0 00.011-2.996 3.566 3.566 0 00-.875-1.234 3.59 3.59 0 00-1.177-.756 3.827 3.827 0 00-1.398-.252c-.505 0-.974.084-1.411.256-.439.17-.83.42-1.177.752a3.754 3.754 0 00-.867 1.25 3.742 3.742 0 000 2.972zm10.927 2.103l-.63.129v-7.305h1.185c.69 0 1.245.191 1.661.578.414.385.625.898.625 1.539 0 .547-.156 1.006-.466 1.375-.31.373-.727.6-1.245.678l2.211 2.746-.578.361-2.763-3.619.5.008c.523 0 .93-.133 1.224-.402.289-.27.436-.645.436-1.125 0-.482-.146-.857-.436-1.127-.294-.27-.7-.404-1.224-.404h-.5v6.568zm8.03 0l-.64.092v-6.65h-1.989l.158-.617h4.302v.617h-1.831v6.558z" fill="#fff"/><path clip-rule="evenodd" fill="#fff" fill-rule="evenodd" d="M85.235 91.963h5.293L129.18.027h-5.41zm-82.884.01h74.086l.713-.055.651-.166.653-.326.659-.387.6-.434.494-.544.431-.598.273-.66L116.73 3.197l.21-.66.07-.546-.07-.546-.15-.492-.33-.38-.44-.272-.49-.221-.65-.053H85.825l-.598.107-.601.22-.598.326-.546.439-1.093.986-1.039 1.092L.493 88.803l-.326.547-.167.545.053.492.219.492.38.434.493.386.546.219z"/><path d="M67.208 32.078c12.038 0 21.815 9.839 21.815 21.869 0 12.09-9.777 21.93-21.815 21.93-12.091 0-21.983-9.84-21.983-21.93 0-12.03 9.892-21.869 21.983-21.869zm-8.899 27.639c-1.764-.213-2.748-.488-4.183-.328-1.649.115-3.901 1.596-5.329 3.137-1.206-2.588-1.869-5.496-1.869-8.578 0-11.1 9.067-20.221 20.28-20.221 4.778 0 9.289 1.756 12.746 4.618L58.309 59.717zm7.472 1.32l18.685 3.412c1.871-3.137 2.908-6.594 2.908-10.502 0-5.879-2.633-11.267-6.702-15l-14.891 22.09zm.931 3.137l9.396 7.695-17.418-8.58c-1.595-.436-3.129-.549-4.618-.604-1.702-.053-3.244.223-5 .496 3.405 6.543 10.221 11.045 18.136 11.045 6.923 0 13.136-3.572 16.762-9.066l-17.258-.986z" clip-rule="evenodd" fill="#01185b" fill-rule="evenodd"/></svg>