<svg viewBox="0 0 200 100" xmlns="http://www.w3.org/2000/svg"><path d="M127.38 19.077c-6.966 0-16.508.005-17.797.005-.897 0-1.267.518-1.267.518L59.28 80.422c-.286.351-.225.712.269.712 1.125 0 5.653 0 7.259-.003.728 0 .8-.195.929-.385l10.438-13.382s.162-.244.381-.244l17.521-.002s.269-.018.216.246c-.055.263-2.557 13.121-2.557 13.121-.032.174.017.646.626.646l21.173-.004c.306 0 .413-.102.472-.397l11.929-61.014c-.002 0 .212-.639-.556-.639zM97.382 60.79h-13.78s-.088.02-.147-.064c-.055-.081.049-.206.049-.206l18.318-23.493s.138-.183.283-.183.094.203.094.203l-4.593 23.557s-.014.099-.059.143c-.043.043-.165.043-.165.043zM11.914 73.378c-.174.726.221 1.341 1.537 2.427 2.48 2.045 9.841 6.483 21.52 6.48 21.027-.004 28.652-13.596 25.986-25.114-.714-3.081-4.653-19.019-5.223-21.263-1.657-6.524 1.514-11.224 7.74-11.229 5.323-.004 8.646 2.015 11.555 3.839.547.349.949.539 1.094-.101.086-.37 1.042-5.33 1.042-5.33s.282-.961-.97-1.615c-1.934-1.008-6.744-3.734-16.887-3.738-18.857-.01-26.883 12.094-23.599 25.216 1.05 4.198 5.255 19.915 5.271 22.943.002 1.163.615 9.187-9.05 9.187-8.975 0-15.154-6.131-17.24-8.252-.344-.354-.804-.159-1.019.613-.111.4-1.757 5.937-1.757 5.937zm111.516.317c-.173.727.221 1.344 1.539 2.431 2.481 2.042 9.258 6.144 20.939 6.139 21.027-.003 28.651-13.594 25.982-25.117-.709-3.077-4.652-19.014-5.221-21.26-1.653-6.526 1.517-11.225 7.738-11.23 5.325-.001 8.648 2.017 11.554 3.842.551.348.952.534 1.097-.103.084-.371 1.041-5.329 1.041-5.329s.287-.958-.969-1.615c-1.932-1.011-6.748-3.733-16.882-3.737-18.86-.012-26.886 12.094-23.603 25.215 1.051 4.198 5.257 19.912 5.272 22.946.003 1.16.618 9.181-9.05 9.181-8.979.002-14.901-5.914-17.002-8.016-.467-.463-1.163-.292-1.258.383-.057.404-1.177 6.27-1.177 6.27z" clip-rule="evenodd" fill="#2B3087" fill-rule="evenodd"/></svg>