<svg width="174.92" height="48.139" viewBox="0 0 46.281 12.737" xmlns="http://www.w3.org/2000/svg" xmlns:xlink="http://www.w3.org/1999/xlink"><path d="M12.15 7.25c-.354.343-.834.442-1.033.243-.2-.202-.098-.696.253-1.038.353-.34.823-.456 1.025-.255.203.201.104.711-.245 1.05" fill="#fad10a"/><path d="M13.59 7.203c-.25.277-.594.383-.76.243-.165-.142-.101-.512.15-.791.254-.276.603-.404.768-.26.162.142.093.528-.158.808" fill="#fad700"/><path d="M7.65 5.441c-.477-.103-1.131.063-1.58.506-.47.467-.815 1.104-.629 1.627.074.217.382.422.628.432.48.02 1.033-.199 1.412-.549.407-.372.621-.919.63-1.303 0-.096 0-.138-.023-.243-.041-.223-.262-.434-.438-.47" fill="#f5a819"/><path d="M10.22 7.304c-.471.45-1.167.619-1.436.35-.269-.267-.109-.934.36-1.39.467-.457 1.126-.564 1.394-.295.27.263.15.878-.318 1.335" fill="#f8b817"/><path d="M9.39 6.094c.164-.135.34-.229.495-.243a2.7 2.7 0 00-.495.243" fill="#f5a319"/><path d="M13.31 5.089c-.29.398-.758.568-.992.407-.23-.162-.232-.662.055-1.062.293-.394.765-.595.993-.434.236.164.236.695-.056 1.089" fill="#fad10a"/><path d="M14.43 5.512c-.233.32-.579.47-.763.339-.19-.13-.162-.518.073-.84.23-.316.585-.491.77-.358.186.129.156.543-.08.859" fill="#fad700"/><path d="M9.54 3.835c-.586.703-1.48.99-1.867.626-.448-.43-.467-1.115.19-1.943.708-.89 1.491-.922 1.904-.59.414.33.356 1.203-.227 1.907" fill="#f8b517"/><path d="M11.73 4.537c-.429.726-1.093.739-1.392.504-.293-.24-.208-.927.212-1.43.42-.504 1.088-.703 1.36-.437.225.225.156.797-.18 1.363" fill="#f8bf11"/><path d="M7.72 1.523c.003.105-.006.207-.017.31.007-.102.017-.205.017-.31" fill="#f5a319"/><path d="M7.04.254C5.512-.39 3.974 1.684 4.096 2.849c.097.9.669 1.262 1.468 1.135.014-.005.026-.005.036-.008.843-.113 1.552-.802 1.874-1.408.112-.213.189-.466.227-.728v-.004c.008-.105.018-.208.018-.313C7.72.98 7.521.46 7.04.253" fill="#f5a11c"/><path d="M3.83 4.896a2.56 2.56 0 00-.984.405c-.492.29-.9.673-1.137 1.134-.292.567-.256 1.076-.006 1.43a.91.91 0 00.426.374c.084.035.174.062.263.079h.003c.266.063.567.058.899-.03.971-.263 2.07-1.318 2.064-2.314-.005-.976-.722-1.249-1.528-1.078" fill="#f8991c"/><path d="M13.31 8.74c-.267.26-.615.347-.772.193-.151-.153-.067-.514.2-.779.27-.259.629-.363.784-.21.155.152.06.534-.212.796" fill="#fad700"/><path d="M11.63 9.236c-.367.321-.821.407-1.013.192-.187-.213-.04-.644.334-.962.372-.317.808-.4 1-.186.185.21.055.638-.321.956" fill="#fad10a"/><path d="M9.4 9.919c-.499.424-1.102.537-1.356.254-.254-.286-.052-.86.442-1.282.498-.426 1.08-.536 1.333-.25.252.282.077.852-.419 1.278" fill="#f8ba14"/><path d="M6.65 8.975c-.984-.278-2.55.977-2.322 1.962.054.224.36.42.604.45.985.102 2.094-.951 2.153-1.697l-.012-.259c-.029-.225-.247-.406-.423-.456" fill="#faa617"/><path d="M4 10.072c-.18-.747-1.083-.688-1.69-.508a2.648 2.648 0 00-.665.253H1.64c-.313.153-.57.34-.808.566-.289.279-.782.904-.68 1.51.104.637.9.824 1.622.65.865-.2 2.502-1.31 2.225-2.47" fill="#f8991c"/><path d="M19.13 4.858c-.127-.378-.116-.918-.75-.905-.623.015-.913.425-.913.917 0 .796 2.01.95 2.162 2.564.092.961-.846 2.56-2.733 2.578-.765 0-1.717-.342-1.732-1.954l1.356-.292c.015.403-.016 1.127.758 1.127.59 0 .898-.558.945-.996.112-1.01-2.13-1.299-2.12-2.586.016-1.204.793-2.448 2.652-2.432 1.844.014 1.596 1.662 1.596 1.662zm2.78 1.037l-.72 2.858c.16.25.367.378.62.374.16.01.32-.064.47-.236.154-.17.298-.506.428-1.013l.282-1.11c.122-.505.148-.841.082-1.01-.07-.173-.188-.252-.356-.236-.252-.006-.518.12-.806.373m-.887-1.18h1.087l-.157.632h.018a2.52 2.52 0 01.635-.487c.267-.149.533-.233.809-.24.459 0 .743.178.862.534.116.35.091.864-.086 1.536l-.317 1.268c-.166.67-.396 1.188-.69 1.54s-.672.528-1.132.53a.893.893 0 01-.464-.13 3.092 3.092 0 01-.574-.446l-.731 2.902h-1.187zM31.31 6.513h-1.177l.06-.229c.048-.2.02-.354-.08-.459-.095-.104-.254-.157-.462-.157a.917.917 0 00-.542.157.76.76 0 00-.307.46l-.522 2.068c-.05.2-.022.357.076.46.099.102.255.154.465.154a.95.95 0 00.543-.154.781.781 0 00.306-.46l.082-.324h1.186l-.006.02c-.18.684-.468 1.186-.874 1.504-.408.317-.906.474-1.502.467-.598.007-1.022-.15-1.268-.467-.248-.318-.286-.82-.115-1.505l.364-1.46c.177-.683.47-1.188.875-1.503.407-.318.91-.476 1.504-.47.583-.006.998.147 1.246.451.251.307.296.787.148 1.447m4.22 1.099h-2.578l-.174.689c-.062.26-.04.448.06.568.097.122.249.18.45.18.25-.007.442-.074.586-.21.146-.142.24-.31.294-.521h1.184c-.165.545-.44.963-.832 1.256-.389.3-.882.445-1.479.454-.572-.009-.982-.17-1.239-.498-.256-.325-.314-.777-.177-1.354l.43-1.705c.153-.576.44-1.028.86-1.353.418-.327.912-.493 1.488-.498.557.006.966.169 1.228.488.261.32.334.743.206 1.286zm-2.332-.977h1.392l.073-.288c.058-.233.053-.415-.027-.551-.08-.128-.24-.197-.481-.199a.857.857 0 00-.578.199 1.078 1.078 0 00-.304.551zm9.412.977h-2.574l-.174.689c-.059.26-.041.448.057.568.096.122.248.18.45.18.248-.007.443-.074.59-.21.142-.142.236-.31.287-.521h1.186c-.164.545-.44.963-.83 1.256-.388.3-.879.445-1.477.454-.573-.009-.985-.17-1.24-.498-.257-.325-.317-.777-.179-1.354l.43-1.705c.156-.576.441-1.028.86-1.353.419-.327.915-.493 1.488-.498.56.006.969.169 1.23.488.261.32.33.743.203 1.286zm-2.326-.977h1.39l.073-.288c.06-.233.049-.415-.033-.551-.08-.128-.237-.197-.474-.199a.868.868 0 00-.581.199 1.102 1.102 0 00-.308.551zm3.676-.712h-.616l.245-.978h.618l.45-1.81h1.185l-.449 1.81h.76l-.244.978h-.765l-.669 2.666c-.031.13-.006.226.079.29.077.063.198.096.362.096.083 0 .16-.005.237-.012l-.255 1.018a4.56 4.56 0 01-.691.047c-.389.003-.685-.076-.87-.235-.184-.164-.235-.43-.147-.801z" fill="#eb1c23"/><path d="M36.53 8.335l.843-3.35.463-1.845h1.187l-.467 1.845-1.428 5.552c-.182.68-.473 1.182-.876 1.494-.405.32-.91.474-1.502.473-.6.001-1.023-.153-1.265-.473-.248-.317-.288-.815-.123-1.504l1.197-.006-.088.312c-.042.204-.019.355.077.458.1.103.255.16.466.16s.39-.057.543-.16a.756.756 0 00.307-.458l.107-.419zM25.69 4.716h1.182l-1.309 5.217h-1.185zm1.32-.485h-1.187l.273-1.096h1.181z" fill="#eb1c23"/><use x="143.595" y="467.769" width="100%" height="100%" xlink:href="#d" transform="translate(-148.107 -15.711) scale(.35278)" fill="#fff"/></svg>