<svg viewBox="0 0 201.99 49.31" xmlns="http://www.w3.org/2000/svg"><path d="M22.471 17.136v.003l-.096-.02a17.764 17.764 0 01-2.293-.543c-.447.632-.929 1.24-1.447 1.816a9.915 9.915 0 00.746-.007c1.424-.068 2.804-.355 4.141-.794l.134-.044.032-.007c-.48-.119-1.26-.423-1.217-.404m-2.157-.89l.012-.02c.053-.078.11-.155.158-.232 0 0 0-.002-.004-.003l.004-.003.005-.009c-3.94-3.005-5.603-8.819-11.165-10.81 4.24-1.555 8.392-.327 11.909 1.698 1.142-.461 2.112-1.075 3.035-1.744-1.72-2.189-3.985-3.719-6.375-4.759H.13C.16.375.542.51.556.517a8.176 8.176 0 011.049.465c.115.057.228.122.347.187.1.056.199.118.301.176.108.063.187.11.198.12a.481.481 0 01-.055-.031C3.62 2.192 4.871 3.29 5.971 4.8c2.629 3.617 7.093 9.624 14.111 11.778.076-.111.155-.22.231-.331m5.205-6.349c.37.31.882.638 1.421.954a14.802 14.802 0 00-.915-2.804 29.533 29.533 0 01-2.081.612c.55.407 1.075.823 1.575 1.238m18.553-7.427a16.784 16.784 0 00-1.83-.823c-1.49-.56-3.042-.91-4.697-1.102h-.035a41.504 41.504 0 00-3.573-.18h-.166c-4.625.488-6.859 2.84-9.504 4.76a13.65 13.65 0 011.76 2.925 50.6 50.6 0 002.934-1.096c6.056-2.461 10.529-3.234 13.809-3.234 1.581 0 2.881.178 3.95.437a18 18 0 00-2.647-1.687" fill="#d93722"/><path d="M50.636 7.96a29.433 29.433 0 00-1.32-1.47c-.247-.26-.777-.775-.784-.78-.206-.194-.5-.462-.546-.507 0 0-.004 0-.005-.003h.001c-4.727 1.723-6.872 5.537-9.486 9.25h.005c1.099-.08 2.601.085 3.556 1.038a71.857 71.857 0 011.874-.277l.471-.065a80.739 80.739 0 011.555-.153h.017c.067-.005.396-.027.465-.028.212-.448.433-.893.663-1.333.73-1.389 1.58-2.777 2.764-3.829a6.29 6.29 0 011.469-.983l-.699-.86m5.787 8.54c-2.604-1.073-5.551-1.575-8.556-1.575-.474 0-.95.014-1.428.04-.548 1.154-1.047 2.331-1.563 3.497a62.897 62.897 0 01-1.107 2.37c-.06.114-.255.568-.425.815v.004l-.005.009-.053.077c-.03.037-.064.075-.077.093.562-.648 1.118-1.235 1.698-1.694 3-2.345 7.157-4.984 11.539-3.601-.008-.01-.015-.024-.023-.035m1.778 2.93c-.473-.782-.963-1.593-1.472-2.43l-.153-.253c-3.346 1.298-4.904 4.051-6.791 6.735h.002c.805-.061 1.908.064 2.609.76l.077.026c.687.262 1.455.492 2.154.862.499.26.975.526 1.433.792 1.902-.786 3.66-1.35 5.118-1.607a558.898 558.898 0 01-2.978-4.887" fill="#c0d83c"/><path d="M52.473 24.27l-.079-.028c.003.002.004.004.007.004-2.07.41-3.054 1.374-4.507 2.39-1.705 1.194-4.095 2.585-6.968 3.21-3.188.692-6.65.16-9.574-1.666l-.023-.004h-.004.02c-.008-.003-.016-.01-.025-.015 3.708.375 6.187-.736 8.097-2.296-.007-.001-.013-.004-.023-.007-.007 0-.015 0-.024-.002l-.075.035c-1.98.983-4.596 1.455-7.462 1.455-6.021 0-13.145-2.09-17.77-5.973.13.206.27.426.419.65 5.793 5.863 16.386 9.025 25.13 9.025 4.145 0 7.875-.71 10.482-2.183a56.297 56.297 0 015.966-2.941 32.204 32.204 0 00-1.433-.791c-.697-.368-1.467-.603-2.155-.863" fill="#8dc643"/><path d="M43.341 21.66l.005-.007v-.004c.169-.248.363-.705.421-.817.39-.777.752-1.575 1.108-2.37.517-1.166 1.017-2.343 1.564-3.5-.152.01-1.193.09-1.554.127-.318.032-.639.076-.954.122a92.81 92.81 0 00-1.875.275c-.121.024-.24.053-.355.079-.039.006-.076.016-.117.025-.61.147-1.152.334-1.647.541 0 0 0 .003-.002.003a11.077 11.077 0 00-1.622.88c-.004 0-1.008.702-1.02.707-.072.058-.153.115-.232.171a22.97 22.97 0 013.183 2.245c.752.625 2.25 1.358 2.966 1.693.012-.018.111-.144.131-.17m-28.859.366a63.27 63.27 0 002.023 2.899c5.6 7.576 10.91 9.154 17.966 9.154h34.31c-.01-.008-.02-.02-.03-.023-2.25-.77-4.7-2.734-8.557-5.426-1.22-.851-2.565-1.789-4.134-2.706-1.899.787-3.935 1.798-5.966 2.94-2.607 1.473-6.335 2.183-10.482 2.183-8.744 0-19.336-3.16-25.13-9.02m21.679 2.271l-.009-.014c-1.192-1.035-2.114-2.416-3.125-3.746-.675.379-2.681 1.424-4.776 2.091-4.319 1.373-9.174 1.12-13.402-.995-.053-.021-.22-.107-.286-.14a32.325 32.325 0 00-.4-.215l.312.171.184.098.199.107c2.02 1.248 5.955 3.344 10.058 3.772.535.058 1.095.08 1.686.08 2.75 0 6.056-.558 9.552-1.21-.004 0-.004-.005-.007-.005l.015.006z" fill="#a5ce42"/><path d="M56.453 16.547c-1.614-2.64-3.203-5.296-5.117-7.726a6.239 6.239 0 00-1.472.984c-1.182 1.052-2.032 2.438-2.76 3.828a40.2 40.2 0 00-.665 1.33 27.44 27.44 0 011.43-.037c3.003 0 5.953.501 8.554 1.575.011.012.019.031.03.046m-.392 9.376c1.569.918 2.914 1.855 4.134 2.706 3.856 2.69 6.307 4.656 8.557 5.426l.03.023c-2.218-1.488-4.5-4.758-7.602-9.761-1.459.256-3.216.82-5.119 1.606" fill="#dae34c"/><path d="M24.403 17.69c-.013 0-.024-.007-.041-.009a6.453 6.453 0 01-.352-.067l-.008-.001c-.113-.023-.218-.052-.326-.077.006.002.007.004.013.004l-.032.008-.135.043c-1.338.438-2.715.727-4.141.794a8.86 8.86 0 01-.747.007l-.02.025c-.336.373-.688.73-1.055 1.072-.542.502-1.085.966-1.805 1.18a4.32 4.32 0 01-1.192.162 6.02 6.02 0 01-.883-.069c.015.027.032.05.048.078 4.854.414 8.14-1.079 10.676-3.15m9.5-17.324H17.894c2.388 1.037 4.653 2.566 6.375 4.759 2.643-1.92 4.874-4.272 9.501-4.76h.133zM.118.366h-.02c.006 0 .01.001.012.004.002.002.004.002.006.002H.12l.008.004c1.902.833 3.232 2.628 4.338 4.31 1.707 2.605 3.13 5.397 4.621 8.123.089.164.179.328.27.491 2.621 2.804 5.709 4.977 9.278 5.093.518-.574 1-1.184 1.446-1.814C13.063 14.424 8.602 8.418 5.972 4.801c-1.1-1.512-2.353-2.607-3.577-3.366a16.943 16.943 0 00-.82-.459C1.403.88 1.22.803 1.063.73a9.26 9.26 0 00-.53-.22A8.06 8.06 0 01.316.436L.118.367m27.36 10.792a35.675 35.675 0 002.075 1.042c.015-.02.316-.363.33-.378l.295-.324c.077-.085.567-.596.59-.619l.306-.297c.065-.062.441-.399.495-.443.095-.082.194-.162.293-.24 4.148-3.249 9.935-6.905 16.009-4.796a38.767 38.767 0 00-1.15-.945c-1.07-.259-2.37-.436-3.952-.436-3.28 0-7.752.775-13.808 3.234-1.06.427-2.032.793-2.937 1.093.381.86.69 1.794.915 2.804l.005.001c.172.102.532.302.534.304" fill="#e24d25"/><path d="M14.562 20.829a4.18 4.18 0 001.191-.161c.67-.198 1.184-.613 1.685-1.07l.12-.114c.378-.347.734-.713 1.075-1.091-3.569-.117-6.652-2.287-9.276-5.093a22.001 22.001 0 00-.207-.377l.116.211c1.415 2.574 2.885 5.181 4.435 7.671.002 0 .002 0 .004.003-.008-.018-.019-.03-.025-.048.29.045.585.069.882.069" fill="#f26d20"/><path d="M39.296 25.891l.076-.035c-1.316-.231-2.336-.804-3.21-1.559-.01 0-.023.004-.038.008h-.004c-3.481.647-6.774 1.203-9.518 1.203-.588 0-1.15-.022-1.685-.082-4.11-.427-8.059-2.535-10.069-3.784-.312-.156-.63-.332-.937-.51l.147.234c.002.005.003.005.005.006 4.625 3.883 11.751 5.974 17.772 5.974 2.865 0 5.48-.472 7.46-1.455" fill="#7cbe42"/><path d="M20.424 16.084c-.114.165-.225.331-.343.494a18 18 0 002.294.542l.097.019v-.003a8.894 8.894 0 01-1.983-1.155l-.065.103zm5.409-8.45a13.92 13.92 0 00-1.564-2.512c-.925.673-1.901 1.287-3.046 1.75a28.443 28.443 0 012.714 1.79c.427-.108.871-.23 1.329-.372.247-.074.5-.156.758-.241-.062-.142-.127-.278-.19-.415" fill="#c81b21"/><path d="M75.922 11.76c-.731.718-1.877 1.712-3.94 1.712-2.066 0-3.154-1.107-3.154-2.508 0-1.713 1.199-2.618 4.133-2.713l2.96-.091v3.6zm2.763 3.466c-.203-.466-.334-1.46-.334-5.635V5.113c0-3.768-2.428-4.98-5.492-4.98-1.932 0-3.662.493-5.459 1.675l.998 1.65c1.065-.715 2.396-1.368 4.196-1.368 1.997 0 3.329 1.258 3.329 3.115v.936l-3.29.013c-4.165.122-6.231 1.976-6.231 4.87 0 2.804 2.26 4.512 4.827 4.512 2.33 0 3.864-.867 4.83-1.739l.63 1.43h1.996zM96.514.541C96.218.351 95.632.1 94.816.1c-.977 0-2.027.102-4.147 1.949l-.297-1.57h-2.107v14.8h2.61V4.146c1.305-1.189 2.027-1.504 3.069-1.504.588 0 1.18.109 1.507.236L96.515.541zM82.08 15.243h2.479V.425H82.08v14.818z" fill="#019fc4"/><path d="M99.545 23.263c0-.19-.134-.559-.264-.9-.941-2.451-2.95-3.765-5.582-3.765-3.649 0-6.375 3.178-6.375 7.453 0 4.21 2.274 7.982 7.379 7.982a9.147 9.147 0 004.862-1.429l-.759-1.624c-.926.56-2.284.974-3.822.974-2.197 0-3.424-.87-4.427-2.451l8.988-6.24zm-2.685-.546l-6.909 4.793c-.133-.825-.206-2.684.206-4.101.5-1.713 1.98-2.773 3.528-2.773 1.407 0 2.614.842 3.175 2.081m78.49 10.791l-.303-1.647c-.405.094-.676.094-.846.094-.943 0-1.318-.279-1.318-1.678V11.692h-2.463V31.3c0 1.555.843 2.704 2.8 2.704.812 0 1.388-.155 2.13-.495m-7.437 0l-.304-1.647c-.405.093-.677.093-.846.093-.949 0-1.319-.278-1.319-1.677V11.693h-2.464V31.3c0 1.555.843 2.704 2.801 2.704.814 0 1.387-.155 2.132-.495M188.9 23.265c0-.19-.134-.56-.264-.9-.941-2.452-2.948-3.765-5.583-3.765-3.65 0-6.373 3.177-6.373 7.452 0 4.211 2.275 7.983 7.378 7.983 1.98 0 3.708-.684 4.86-1.43l-.753-1.623c-.93.56-2.287.974-3.827.974-2.197 0-3.423-.87-4.425-2.451l8.987-6.24zm-2.687-.547l-6.906 4.793c-.135-.825-.208-2.684.207-4.101.5-1.713 1.977-2.773 3.525-2.773 1.41 0 2.615.841 3.175 2.081m-26.714.547c0-.19-.135-.56-.268-.9-.941-2.452-2.945-3.765-5.576-3.765-3.653 0-6.379 3.177-6.379 7.452 0 4.211 2.275 7.983 7.379 7.983a9.17 9.17 0 004.865-1.43l-.763-1.623c-.926.56-2.28.974-3.82.974-2.2 0-3.425-.87-4.428-2.451l8.99-6.24zm-2.69-.547l-6.907 4.793c-.13-.825-.205-2.684.209-4.101.497-1.713 1.977-2.773 3.527-2.773 1.408 0 2.61.841 3.172 2.081m45.079 6.954c0-4.836-7.36-3.995-7.36-7.301 0-1.344 1.343-1.873 2.96-1.873 1.648 0 2.788.437 3.896.874v-1.998c-1.041-.436-2.315-.779-3.994-.779-3.635 0-5.277 1.778-5.277 3.96 0 5.118 7.225 3.838 7.225 7.458 0 1.371-1.413 2.183-3.362 2.183a7.68 7.68 0 01-3.863-1.06l-.943 1.777c1.041.558 2.42 1.12 4.701 1.12 3.398 0 6.016-1.275 6.016-4.362M144 33.773v-9.734c0-4.021-2.337-5.389-4.577-5.389-2.213 0-3.784.868-5.526 2.111v-9.07h-2.439v22.081h2.439V23.173c1.306-.968 2.825-2.334 4.732-2.334 2.478 0 2.745 1.922 2.745 3.762v9.17H144zM128.458 32.6l-.768-1.614c-.97.558-2.201 1.042-3.936 1.042-3.242 0-5.138-2.31-5.138-5.577 0-3.333 2.068-5.818 5.168-5.818 1.735 0 3.136.677 4.14 1.27V19.56c-1.068-.562-2.575-.934-4.01-.934-5.274 0-7.807 3.823-7.807 7.905 0 3.987 2.361 7.502 7.341 7.502 2.04 0 3.84-.715 5.01-1.433m-13.06-13.591h-2.495l-4.226 11.944h-.099l-5.555-11.944h-2.66l7.05 14.825c-1.165 3.913-2.893 5.368-4.856 5.368-.964 0-1.695-.187-2.294-.465l-.636 1.762c.762.307 1.564.525 2.862.525 2.595 0 5.02-.93 6.885-5.952l5.987-16.068zM84.992 29.67c0-4.836-7.36-3.995-7.36-7.301 0-1.344 1.347-1.873 2.962-1.873 1.648 0 2.788.437 3.896.874v-1.996c-1.039-.436-2.316-.779-4-.779-3.625 0-5.271 1.778-5.271 3.959 0 5.119 7.223 3.839 7.223 7.459 0 1.37-1.412 2.182-3.36 2.182a7.678 7.678 0 01-3.863-1.06l-.942 1.778c1.04.557 2.418 1.12 4.702 1.12 3.397 0 6.013-1.275 6.013-4.363" fill="#076aa6"/><path d="M196.75 45.868l-.129.036c-.025-.013-.049-.025-.049-.036 0-.022.05-.049.145-.059m-.216-2.462c.011.022.011.047.011.071a.096.096 0 01-.035.08c-.037-.011-.06-.021-.06-.044v-.026l.084-.081zm-.44-.547l-.085-.012c-.024-.01-.024-.026-.024-.051 0-.023.024-.034.063-.034l.046.097zm.606.536c0 .022 0 .033-.012.033-.011 0-.011-.011-.021-.011h-.013c-.039 0-.049-.011-.049-.045 0-.015 0-.026.01-.049.052 0 .073.023.085.071m.963-1.417c.014.049.026.071.026.094 0 .025-.012.025-.026.025-.011 0-.021 0-.046-.025-.06.011-.082.041-.082.083-.05-.008-.073-.02-.097-.058.035-.119.191-.082.191-.212v-.01h.034c.026 0 .035.01.035.032 0 .023-.01.045-.035.071m.74-.821c0 .015.011.015.011.025 0 .06-.144.105-.309.282v-.023c0-.096.109-.167.298-.286m-.251-.461a.065.065 0 01-.058.033h-.026c.014-.048.037-.082.071-.082.013-.011.013-.011.028-.011v.011c0 .011 0 .026-.015.049m.415.196a.135.135 0 01.015.064c0 .048-.024.092-.073.13 0-.023.011-.038.011-.048 0-.022-.01-.034-.033-.034-.027 0-.047.012-.084.023.046-.098.084-.143.106-.143.012 0 .024.008.049.008h.009zm-2.688 4.121c0-.049-.01-.085-.036-.109a.243.243 0 00-.046.147c.011.01.021.01.033.01.025 0 .04-.01.05-.048m.284-.286l-.07-.048-.036.082c-.061.063-.106.096-.131.122-.012.011-.012.021-.012.033s0 .012.024.012c.013 0 .036 0 .058-.012l.167-.19zm-.141-.021l-.071-.05c-.013.05-.013.07-.013.097 0 .008 0 .023.013.023h.01l.06-.07zm1.071 1.08l-.015-.06-.035.05c-.011.01-.025.022-.025.033 0 0 0 .015.014.015.011 0 .025-.015.061-.037m-1.097-1.275c0-.034-.012-.056-.034-.056-.011.022-.011.032-.011.045 0 .01 0 .02.011.02-.011.016-.024.027-.024.04.013 0 .024-.013.058-.05m.216.108l-.025-.097-.058.039-.05-.04-.032.04.046.095c.07-.023.107-.037.119-.037m0-.33c0-.038-.012-.05-.049-.06-.057.022-.095.06-.106.108-.01.032-.01.059-.01.066v.015c.01 0 .01-.015.021-.015a.265.265 0 00.144-.115m1.166 1.179c0-.034-.012-.074-.049-.085-.02-.015-.03-.015-.05-.015-.01 0-.01.011-.01.022v.014c.01.034.047.06.095.06m-.892-1.324c-.014-.045-.024-.082-.048-.103-.06.092-.12.19-.167.27l.047-.022h.04c.057-.058.104-.108.128-.145m.966.942l-.074-.05c-.012.038-.012.06-.012.086 0 .022 0 .034.025.034l.061-.07zm.294-.12c-.07 0-.143.01-.189.048l-.049-.01c-.01.13-.106.167-.117.223.011.062.024.122.034.167l.143-.14c-.01-.04-.01-.076-.01-.098 0-.07.023-.104.033-.104.012 0 .05.011.085.044a.156.156 0 00.07-.13m.192-.05v-.114l-.15-.026a.486.486 0 01-.156.129c.061.01.121.023.179.023.035 0 .072-.012.109-.012m.106-.309l-.119.049c-.024.024-.036.05-.036.06 0 .022.026.037.061.037l.094-.146zm1.642-4.387c-.014-.232-.357-.345-1.034-.384a.124.124 0 01.012.064c0 .055-.062.103-.18.127-.347.226-.513.443-.513.703v.06c-.404.486-.797 1.01-1.165 1.583-.224 0-.439.033-.644.082a.75.75 0 00-.188-.07c-.06 0-.097.08-.097.237 0 .13.097.368.3.688-.598.845-.86 1.526-.86 1.93 0 .417.25.856.394.878.013-.022.035-.022.046-.022.06 0 .132.25.322.25h.011l.132-.013c.023.013.048.013.06.013.047 0 .062-.024.062-.084v-.035c0-.06.032-.109.059-.109.035 0 .046.027.046.064v.045c0 .01.011.02.022.02.014 0 .027-.01.038-.036.024-.066.045-.153.057-.246.048.023.074.06.074.12v.033a.358.358 0 00.204-.212c-.025-.048-.038-.07-.038-.096 0-.012.038-.012.105-.012a.28.28 0 01.106-.177c0 .036.014.059.025.059.014 0 .025-.012.025-.038v-.023c.06-.034.097-.071.107-.105.012.011.025.011.036.011.013 0 .026-.01.026-.048 0-.023-.037-.045-.037-.085 0-.023.024-.045.07-.072a.406.406 0 00.038-.145c0-.043-.015-.066-.038-.066s-.047.023-.083.059l-.036.082v-.012c0-.021-.011-.034-.034-.034-.073 0-.158.188-.367.188a.133.133 0 01-.096-.034c-.277.216-.503.309-.68.309-.238 0-.38-.132-.38-.347 0-.033.01-.116.033-.21l.034-.017c-.009.06-.009.111-.009.135 0 .022 0 .034.009.034h.014c.037-.094.072-.202.084-.31.037-.038.048-.07.048-.097 0-.01-.011-.02-.036-.02h-.024l-.035.047-.051.107c0-.179.051-.335.146-.469l.01.042c-.021.043-.021.082-.021.103 0 .04.011.053.034.053h.023v-.063c0-.134.037-.238.11-.309.045-.096.093-.177.117-.237l.05.022c.07 0 .093-.115.223-.152.035-.023.05-.05.05-.075v-.033c-.026-.037-.035-.05-.035-.075 0-.044.047-.115.142-.2l.057.036.048-.06a.219.219 0 01.026.12c0 .034-.013.06-.058.06-.028 0-.05-.026-.073-.06-.024.034-.038.06-.038.085 0 .02.014.07.026.117l.047.145c.225-.467.44-.693.44-.81v-.013l.058.023c.18-.228.3-.358.382-.368l.203.096.084-.026c.045-.212.084-.32.204-.32.046 0 .092.045.151.045.038 0 .099-.045.155-.13a.32.32 0 00.098.01c.202 0 .39-.196.783-.237.295-.163.464-.213.464-.272 0-.022-.013-.048-.047-.048h-.025l-.738.123c-.342.034-.664.055-.984.082a1.42 1.42 0 01.165-.264c.034-.175.284-.358.63-.689l.05-.13a1.11 1.11 0 01.388-.372c.109-.01.166-.022.166-.022.183-.168.3-.263.348-.263l.095.026c.036-.109.058-.203.072-.261m-2.189 2.792c0-.044-.015-.07-.046-.081h-.027c-.01 0-.023.011-.023.022 0 .027.023.048.096.06m-4.4 2.607l-.097.037-.049-.097a.762.762 0 00.145.06m.394.082a2.08 2.08 0 00-.169.11l-.047-.024c.037-.086.084-.131.121-.131.035 0 .059.012.095.045m-.299-1.094h-.033v-.048h.021l.013.048zm.18-.341l-.013.045-.024-.013.011-.047.026.015zm.083-.038c.021.011.021.038.021.044a.135.135 0 01-.045.107l-.024-.01.048-.14zm.477-.391h-.11c0-.053.03-.085.073-.123l.037.123zm-.265 2.295l-.02-.113-.038.098.058.015zm-.13-1.514l-.06-.059-.118.215h.082l.096-.156zm-.12-.602l-.07-.027a.222.222 0 00-.154.142l.026.048c.094-.048.165-.092.199-.163m1.75.308c-.193.153-.38.294-.55.429.026-.016.037-.016.037-.016 0 .026-.366.325-1.139.755-.014.022-.049.034-.085.045l-.285.037c-.12-.015-.179-.037-.204-.108.072-.287.132-.513.26-.654l.05.032.05-.081-.073-.01.011-.086.106-.131.05-.12c0 .05.012.083.035.132.024-.026.047-.049.085-.049l-.038-.045c.06 0 .07-.075.108-.226l-.084-.06v-.052c.06-.02.07-.153.178-.332l.036.098a.973.973 0 01-.121.234l.039-.008.07.06.036-.052-.083-.044.048-.011.074.07a.981.981 0 00-.122.215l-.048-.035v.047a.47.47 0 01-.048.178c.073-.06.133-.107.218-.12.012-.07.056-.118.127-.15.011-.075.121-.075.121-.22.094-.164.202-.27.342-.32.156-.287.286-.498.38-.654 0-.071-.14-.19-.497-.343a4.79 4.79 0 00-.558-.133l.011.085c.061.048.107.092.13.118a2.51 2.51 0 01-.069.213l-.036-.024a.141.141 0 00-.083.105l.093.075-.073.07c.027.011.05.038.05.059 0 .034-.05.086-.144.157l-.012.157c.025-.042.034-.087.048-.134l.071.037v.055a1.39 1.39 0 01-.142.268.803.803 0 00-.097.25l-.106.104a.71.71 0 01-.116.263l-.016-.075-.105.06a1.138 1.138 0 01-.107.168v.037c0 .06-.023.109-.06.142a.392.392 0 00-.023.096c0 .071.035.109.035.13 0 .109-.18.227-.18.406 0 .036.026.13.038.275l.034.175c.013.049.179.238.511.379l.23-.145a.466.466 0 00.033-.156l.072-.023.047.038.036-.025a.565.565 0 01-.05-.203c0-.021.013-.036.027-.036.012 0 .023 0 .047.015l-.01.081.048.026v-.038a.23.23 0 01.023-.093c.071.08.116.118.142.118.013 0 .024-.015.024-.037a.535.535 0 00-.035-.155l.154-.034c.084-.086.152-.167.225-.239a.28.28 0 01.179-.248v-.053c0-.055.035-.092.12-.092h.033c.167-.32.5-.335.525-.63m.164-.084c-.022-.028-.034-.049-.057-.049-.012 0-.023.011-.038.021-.009.028-.009.039-.009.06 0 .039.024.053.07.053l.034-.085zm.205-.216l-.166.048.034.097.132-.145zm.35-3.08l-.04-.108c-.261.153-.522.308-.806.477l-.03.058c-.238.093-.415.166-.521.211h-.12c.093.383.308.525.736.655l.06-.103-.011-.087c.067-.092.115-.152.13-.163l-.03-.133c.058-.083.093-.153.13-.19l.046.022a.35.35 0 00.202-.152l.024-.098c.095-.119.144-.2.144-.329v-.038l.084-.022zm-5.862 3.64a.221.221 0 01-.095.082l.073-.131m.56-.443l-.108.11c-.025-.05-.035-.095-.049-.142l-.02.055-.112-.034-.104.12a.56.56 0 00.155.085c-.037.049-.085.078-.131.13v-.178l-.059.098a.216.216 0 00-.12.06l-.024-.124.084-.055c.048-.041.105-.135.236-.239.025-.049.047-.111.084-.156l.084.06.057-.015c0 .062.013.135.027.226m.115-.26l-.07.13.013-.067c-.013-.014-.048-.025-.085-.063h.142zm0-.152l-.044.103h-.071a.323.323 0 00-.097-.103c.037-.015.083-.037.168-.05l.044.05zm-.818.38l-.071.047.022.06c.037-.022.05-.052.05-.071v-.037zm.939-.558c.011-.016.011-.026.011-.049 0-.01 0-.022-.022-.048-.073.01-.084.037-.084.08 0 .038.011.06.024.06.025 0 .047-.022.07-.043m2.916-1.206a.55.55 0 00-.19-.249l-.095-.044h-.011c-.025 0-.01.033-.05.033-.117-.059-.2-.105-.283-.105-.214 0-1.227.451-2.107 1.604l-.214.227-.036-.105-.084-.1v-.175l.025-.096a.133.133 0 00.059.021l.012-.006c0-.015-.012-.026-.025-.049a.402.402 0 01.216-.085.392.392 0 00.094-.239c0-.025-.013-.048-.013-.07a.735.735 0 00.142-.417.89.89 0 00-.046-.23.196.196 0 01-.083-.093 2.567 2.567 0 00-.655-.093c-.07 0-.14.015-.212.015v.067l.095.04-.107.636c-.131.373-.286.537-.286.612v.01h.01c.026 0 .049-.01.073-.034l.085-.109c.068-.025.13-.046.19-.085.022.026.035.06.035.085-.225.429-.357.726-.357.954v.07l-.096-.049c-.072.034-.095.073-.095.108 0 .026.011.06.038.083a.172.172 0 00-.038.093c0 .026.011.037.038.037a1.241 1.241 0 00-.155.145.913.913 0 01-.265.498c-.118.179-.188.275-.188.275v.015l.024-.026a.22.22 0 00.095-.048c.036-.026.069-.037.107-.071 0-.096.045-.13.144-.168-.014-.025-.014-.037-.014-.047 0 0 0-.011.014-.011.01 0 .023.01.046.02l.06-.113v-.075h.105c.038 0 .05.01.05.023s-.023.052-.085.086l-.083.14a.868.868 0 00-.295.357c-.073.06-.124.097-.158.097-.01 0-.024-.012-.035-.012v.012c0 .105-.095.2-.201.363v.017c0 .01.049.036.164.036a.583.583 0 01.146-.123l.13.038c.344-.011.511-.153.581-.495l.25-.371c.094-.358.178-.61.415-.775l.039-.144c.061-.023.106-.034.141-.049.716-.807 1.144-1.38 1.474-1.557l.19-.083.076.049a.268.268 0 01-.027-.109c0-.026.01-.044.01-.07l.073.081a.415.415 0 01.18-.117l.035.036v.13l-.058.059a2.754 2.754 0 01-.367.894l.02.037c-.037.048-.092.144-.191.281.026.064.049.098.099.098.021 0 .035-.015.055-.015a.981.981 0 00.086-.163c.059 0 .106.01.121.048-.015-.011-.025-.026-.025-.038 0-.056.179-.127.428-.45.071-.026.131-.036.166-.047 0-.013-.014-.013-.014-.023 0-.06.158-.135.335-.36a.973.973 0 00.151-.31l.075-.06c0-.047.024-.107.047-.167m-1.63 1.741v.008c0 .015 0 .026.01.026a.182.182 0 00.096-.034c.026-.015.037-.036.037-.049 0-.036-.037-.06-.082-.06-.05 0-.06.034-.06.11m-4.903 1.58l-.095.036-.047-.096a.703.703 0 00.142.06m.392.081c-.04.041-.1.078-.15.116l-.045-.025c.034-.086.083-.13.116-.13.038 0 .06.012.095.044m-.296-1.094h-.036v-.047h.026l.01.047zm.179-.34l-.011.044-.025-.012.015-.048.021.015zm.082-.038c.024.01.024.037.024.043a.144.144 0 01-.046.108l-.025-.01.048-.141zm.478-.392h-.108c0-.052.024-.085.073-.122l.035.122zm-.263 2.295l-.023-.112-.035.097.059.015zm-.13-1.513l-.06-.06-.118.216h.084l.093-.156zm-.12-.603l-.068-.026c-.087.026-.133.071-.158.141l.025.049c.094-.049.165-.093.2-.164m1.753.309c-.193.152-.384.294-.55.429.022-.017.036-.017.036-.017 0 .027-.365.325-1.14.755-.015.023-.051.034-.085.045l-.286.038c-.12-.015-.178-.038-.204-.109.072-.286.131-.512.264-.654l.046.033.05-.081-.075-.01.012-.087.11-.13.046-.12c0 .05.012.083.037.132.023-.027.046-.05.085-.05l-.039-.044c.06 0 .073-.075.11-.226l-.086-.06v-.053c.059-.019.075-.152.18-.331l.036.097a1.27 1.27 0 01-.121.234l.039-.007.067.06.039-.053-.082-.044.043-.01.075.07a.807.807 0 00-.119.214l-.048-.035v.048a.452.452 0 01-.05.177c.075-.059.132-.106.217-.119.01-.07.059-.118.13-.15.013-.076.119-.076.119-.22.095-.165.202-.27.345-.32.154-.287.285-.498.377-.655 0-.07-.138-.19-.497-.342a4.67 4.67 0 00-.559-.134l.01.085c.06.049.109.093.134.119-.013.049-.038.115-.074.212l-.036-.023a.163.163 0 00-.081.105l.096.075-.073.07c.024.01.05.037.05.058 0 .034-.05.087-.142.158l-.016.156c.026-.041.036-.086.05-.134l.071.038v.055a1.55 1.55 0 01-.144.267.652.652 0 00-.093.25l-.11.104a.674.674 0 01-.117.264l-.012-.075-.109.06a.961.961 0 01-.106.167v.038c0 .06-.023.109-.059.141a.34.34 0 00-.024.096c0 .072.034.11.034.13 0 .11-.178.228-.178.407 0 .036.027.13.035.275l.035.175c.012.048.18.237.514.378l.179-.14a.391.391 0 00.034-.157l.075-.023.046.038.036-.025a.565.565 0 01-.049-.203c0-.02.013-.036.024-.036.01 0 .025 0 .049.015l-.015.081.051.027v-.037c0-.038.01-.07.021-.093.073.08.122.118.144.118.014 0 .025-.015.025-.037a.508.508 0 00-.036-.155l.154-.034c.085-.086.155-.167.226-.239a.279.279 0 01.18-.248v-.053c0-.055.034-.092.119-.092h.032c.167-.32.5-.335.528-.63m.165-.084c-.027-.028-.035-.049-.06-.049-.013 0-.023.011-.036.021-.012.028-.012.04-.012.06 0 .04.025.053.073.053l.035-.085zm.201-.216l-.167.048.038.097.129-.145zm.32-3.08l-.035-.108c-.259.154-.525.309-.807.478l-.037.058c-.238.093-.415.167-.52.212h-.122c.095.382.311.525.737.655l.06-.104-.012-.086c.07-.093.119-.153.132-.164l-.025-.134c.06-.082.094-.152.132-.189l.048.022a.357.357 0 00.2-.153l.023-.097c.099-.12.145-.2.145-.33v-.038l.081-.021zm-8.074 6.735l-.06.011c-.013-.026-.024-.047-.024-.06 0-.026.011-.046.036-.06.024.024.048.06.048.11m.272-.19l-.072.022.06-.07.012.048zm.23-.74c-.06.097-.121.178-.181.26l-.083-.007a.76.76 0 01-.097.257c0-.033-.02-.06-.069-.06a.99.99 0 01.069-.256l.059-.075c0-.022 0-.05-.024-.071l.134-.026c-.013.047-.024.097-.061.156l.06.016a.356.356 0 01.193-.194m1.271-.643l-.072.026.072-.075v.049zm.915-2.723l-.116.104-.1-.01c-.009.08-.07.132-.164.152 0-.083.132-.165.215-.366 0 .024.01.034.023.034.026 0 .047-.108.06-.108s.024.074.082.194m.107-.312a.666.666 0 00-.155.123l-.022-.06a.864.864 0 00.12-.135l.057.012v.06zm1.37 1.074a.357.357 0 01-.143.057.227.227 0 01.119-.12l.024.063zm-3.917 5.125v-.114l-.082.054c.025.05.047.06.082.06m-.785-1.402c-.058 0-.096.012-.096.07.013.023.013.05.038.05.011 0 .023-.016.035-.037l.023-.083zm1.107-.74c-.047.015-.108.015-.154.027-.024.037-.049.07-.061.097v.021c0 .012 0 .023.012.023.014 0 .025-.011.049-.023.057-.058.107-.107.154-.146m.287-.842l-.025-.057c-.059.023-.105.057-.119.115-.023.015-.035.015-.035.015l.18-.073zm1.52-2.284l.025-.06h-.059l-.06.104.038.026c-.574.525-.834 1.082-.834 1.429 0 .237.156.382.321.382.022 0 .034-.014.034-.047 0-.053-.103-.12-.103-.31 0-.372.392-.99 1.165-1.833l.01-.049c.847-.785 1.38-1.167 1.573-1.167.095 0 .154.059.154.156 0 .189-.154.573-.454 1.12l.073.033-.165.118c-.134.205-.265.418-.406.644.02.023.036.049.057.049.026 0 .049-.026.071-.049l-.045.085c.045 0 .072 0 .072.023s-.027.033-.072.033h-.063l-.02.038c-.062.145-.083.227-.108.227-.011 0-.024-.038-.024-.092.05-.013.07-.039.07-.065 0-.021-.01-.036-.02-.059l-.062.059c0-.044-.024-.059-.071-.059-.073.049-.107.098-.12.156 0 .034 0 .048.013.048.024 0 .06-.048.12-.133 0 .027 0 .095.01.204a.203.203 0 00-.106.098l-.132.113-.034-.07h-.06v.025c0 .109-.084.18-.251.277a.89.89 0 01.145-.19v-.042c-.013 0-.025.015-.05.027-.343.357-.797.525-1.212.773a.769.769 0 01-.285.049.945.945 0 01-.466-.124.55.55 0 00.06-.233v-.06c.145-.163.155-.32.26-.345.064-.093.028-.283.18-.502.166-.131.193-.462.466-.692a.407.407 0 01.104-.22c.015.045.038.067.061.067.035 0 .082-.045.12-.156-.06.014-.096.014-.107.014h-.013c0-.044.024-.106.094-.155.073.026.131.049.18.049a.163.163 0 00.143-.072c-.01-.013-.022-.022-.022-.033s.022-.027.08-.027c.014-.07.037-.106.06-.106.027 0 .04.026.06.046.023-.058.073-.117.122-.177h.01c.083 0 .106-.119.188-.346-.011-.037-.021-.06-.021-.095 0-.143.166-.284.463-.534v-.085c0-.071.01-.105.058-.105a.317.317 0 00.035-.144c0-.071-.035-.141-.093-.216a3.574 3.574 0 00-1.062-.52.521.521 0 01.087.26c0 .049-.013.107-.013.156 0 .2.084.13.143.2a1.46 1.46 0 00-.177.098c.012.07.06.132.133.19-.099.02-.173.07-.205.13-.476 1.21-.903 1.963-1.155 2.342.025.026.025.038.025.049-.013 0-.036-.011-.071-.023-.038.119-.05.178-.095.178h-.015c-.284.455-.355.726-.45.726-.06 0-.07-.115-.133-.13-.024.059-.024.109-.024.164 0 .059.014.119.048.17-.37.63-.715 1.261-1.021 1.89.033.037.06.06.06.086 0 .14-.298.439-.298.891 0 .177.094.262.284.384 0 .053.045.089.154.115.05.033.095.045.155.045h.06l.12-.071c-.132-.059-.2-.021-.2-.27 0-.213.126-.563.376-1.071v-.104c.072-.098.121-.167.17-.227-.063-.097-.098-.178-.133-.248.26-.288.405-.492.405-.607 0-.012 0-.038-.012-.05l-.048.012-.085.086c0-.048 0-.098.013-.119.06-.037.082-.097.082-.179v-.048c-.033.012-.07.05-.106.083a.463.463 0 01-.072.275c-.023.034-.044.056-.058.056-.011 0-.011-.011-.011-.034-.05.034-.084.05-.108.05-.025 0-.037 0-.037-.027 0-.056.026-.104.084-.143.023.027.048.05.072.05.014 0 .024-.023.024-.06 0-.01 0-.048-.01-.075.058-.118.165-.163.179-.25a.348.348 0 01.094-.125c.01.033.033.06.046.06.014 0 .014-.027.014-.06v-.048c.082.093.19.156.32.186.06 0 .106.014.168.014.179 0 .342-.037.497-.107l.07-.082c.205-.075.44-.135.695-.168.046-.06.117-.133.2-.2l.215.01c0-.026-.014-.058-.014-.085 0-.045.014-.08.026-.127.024 0 .035.012.058.012.048 0 .083-.033.118-.097-.035.011-.045.011-.045.011s.08-.022.248-.092l.036-.124h.108l.046.052c.049-.107.107-.143.226-.143h.048a.865.865 0 01.167-.132l-.046-.06a.707.707 0 01-.169.087c-.01-.027-.01-.053-.01-.064 0-.083.093-.07.249-.155l.095.014c.036-.027.026-.063.061-.063h.035a.101.101 0 01-.035-.082c0-.012 0-.034.011-.06.024-.012.035-.022.06-.022a.2.2 0 01.06.022c.034-.048.045-.097.06-.13.12-.108.213-.167.273-.178l.095-.022c-.014-.023-.023-.038-.023-.05 0-.022.023-.035.047-.035.012 0 .036.013.07.026.026-.06.048-.113.06-.146a.199.199 0 00-.144.062.21.21 0 01-.044-.106c0-.049.034-.075.094-.075l.06.052c.201-.406.317-.728.317-1.145 0-.38-.116-.558-.47-.558-.706 0-1.288.628-2.278 1.688m-.188.153a.444.444 0 01-.156.025l-.048.086v.023c0 .022 0 .022.012.022.015 0 .025 0 .05-.022.047-.05.095-.098.142-.134m.011-.13h-.07v.074l.07-.074zm1.108.966c-.011-.015-.038-.015-.05-.015-.01 0-.034.015-.046.038l-.025.045.083.015.038-.083zm-.846-1.119l-.034-.108c-.04.022-.051.045-.051.07 0 .015 0 .027.01.038h.075zm1.177.795l-.021-.07-.049.06.07.01zm.404.215l-.083.06.04.023.043-.083zm.384-.37l-.062-.012v.071l-.07.085.05.011a.45.45 0 00.082-.155m-7.643 1.324l-.109.044c0-.034.026-.07.048-.104m.501-.394l-.094.025.048-.047.046.022zm.109.085a.292.292 0 01-.098-.026.724.724 0 00.098-.034v.06zm1.855.331l-.07.108-.05-.07.12-.038zm-3.176-3.51v.048c0 .037 0 .06-.012.082-.07-.033-.096-.067-.096-.13v-.037l.108.038zm.63.61a.108.108 0 01-.072.033c-.022 0-.046-.025-.06-.049l.048-.085c.047.015.073.041.085.1m-.39-.88a.409.409 0 01-.155.309.58.58 0 01-.022-.13.44.44 0 01.022-.134c.036-.034.062-.06.106-.06.015 0 .026 0 .049.015m.026-.119v.01c0 .034-.075.05-.202.06-.015 0-.024.012-.038.012v-.012c0-.01.014-.036.046-.082.038-.063.059-.085.096-.085.023 0 .038.012.063.022l.035.075zm.319-.367v.032a.197.197 0 01-.045.12l-.059-.06-.169.168a2.51 2.51 0 00.106-.228l.167-.032zm1.272-.363l-.02.075h-.062l-.023-.075h.105zm1.715-1.08l-.047.08h-.106l.023-.06.13-.02zm-3.02 6.117h-.025a.104.104 0 00-.075.026l-.01.044.11-.07zm1.152-.096c.01-.012.01-.023.01-.023 0-.011-.01-.026-.045-.026-.027 0-.05 0-.084.015l-.036.071h.048c.022 0 .058 0 .095-.011l.012-.026zm-.19-.58l-.085.033.06.048.026-.081zm.726-.537l-.039-.062c-.047 0-.067-.008-.067-.045 0-.011.01-.038.046-.071-.073 0-.13.033-.179.108.06 0 .098.008.098.034 0 .021-.038.036-.098.036l-.022.117c.06-.045.095-.057.12-.057 0 0 .009 0 .009.012s-.01.032-.034.07c.071-.06.127-.093.166-.142m.178-.133l-.07-.012.035-.107h-.122l-.01.107a.21.21 0 01.122.119l.045-.107zm.146-.127l-.135.008.029.064a.366.366 0 01.106-.072m.14.023c-.036 0-.07.022-.108.059h.06l.048-.06zm.272-.216c-.142.048-.225.07-.236.118l.094-.01-.023.093c.037-.059.095-.119.165-.201m4.06-5.24c-.102-.14-.186-.237-.257-.25a.615.615 0 00-.346-.2c-1.774.213-2.938.853-3.82 1.236-.738.322-1.238.535-1.44.806a.06.06 0 00-.05-.029c-.022 0-.034.141-.223.198-.024-.013-.036-.013-.049-.013-.12 0-.13.276-.513.373-.083.118-.068.282-.343.39-.097.276-.236.453-.236.666 0 .799.9.785 2.102 1.011 1.194.216 1.833.454 1.978.881.011.06.022.105.022.168a.704.704 0 01-.093.335c.01-.157.01-.298.01-.417-.01-.086-.044-.13-.084-.13 0 .022.012.067.012.137 0 .362-.378.801-1.117 1.206a6.679 6.679 0 01-1.368.699c-.025.075-.167.11-.407.193-.57.07-.928.2-1.105.2h-.048a.947.947 0 00.098-.14.284.284 0 00.127-.05c.025-.092.06-.118.144-.118l-.011-.044-.073-.063a.583.583 0 01.275-.116c-.026.023-.033.044-.033.066 0 .027.007.038.022.06.201-.162.403-.33.63-.46.036-.016.081-.016.116-.016.017-.01.017-.021.017-.034 0-.036-.027-.058-.027-.107 0-.023.01-.059.037-.096.02.05.06.058.106.058.035 0 .119-.007.261-.032 0-.026-.01-.048-.01-.071 0-.037.01-.06.024-.082a.425.425 0 01.142-.085l.083-.12.034-.032c-.01 0-.022.01-.034.01-.025 0-.036-.01-.046-.063l.07-.02c.01-.062.025-.085.046-.085.025 0 .037.038.037.085 0 .034-.012.083-.023.128.045-.023.106-.045.188-.081-.07.01-.105.01-.116.01v-.023c0-.047.023-.07.058-.081.025-.051.072-.108.13-.183a.445.445 0 00-.26.098c-.027 0-.05-.011-.072-.011-.082 0-.168.045-.237.13-.121.013-.191.013-.215.026a.518.518 0 01-.133.2c-.033-.011-.083-.036-.152-.07-.109.011-.155.059-.155.141v.026c-.096.067-.213.142-.334.223.013-.045.025-.081.025-.108 0-.022-.012-.033-.025-.033a.168.168 0 00-.059.023 1.47 1.47 0 00-.38.323 2.36 2.36 0 00-.702.352h-.074c-.091 0-.091.027-.117.173.058.542.157.795.426.817.18.07.312.108.384.108a.323.323 0 00.142-.048 2.17 2.17 0 00.369-.167l.036-.045c.239-.026.391-.108.521-.29a8.19 8.19 0 00.835-.353s.072 0 .212.01c.263-.145.408-.27.548-.27h.025a.262.262 0 00.142.065c.06-.092.096-.177.12-.248l.085-.034a.197.197 0 01.153-.07c.014 0 .034 0 .06.007l-.026.087a.362.362 0 00.193-.228c.227 0 .355-.109.393-.331 0 .011-.013.022-.026.022s-.035-.01-.059-.033c.216-.085.368.022.381-.168.118 0 .107-.249.25-.692 0-.01.012-.033.012-.044 0-.026-.012-.036-.027-.036-.022 0-.033.01-.057.036v-.036c0-.633-.796-1.18-2.223-1.43-.716-.118-1.133-.155-1.133-.573 0-.047 0-.092.012-.14.049-.034.085-.06.119-.075a.395.395 0 00.092-.154l.073-.032c.837-.799 1.492-1.075 1.669-1.26.08-.026.166-.049.26-.098.026-.036.06-.062.107-.062.035 0 .074.015.12.026 0-.026-.011-.034-.011-.049 0-.06.037-.097.119-.12h.072l.071-.01v-.01c0-.06.853-.392 2.593-.953.202-.038.32-.06.382-.06.13 0 .214.022.287.13v.012c0 .085-.098.371-.18.891-.085.135-.17.262-.227.358-.06.037-.08.075-.08.109s.032.058.065.058c.11 0 .11-.14.242-.32a.679.679 0 00.286-.297v-.037a.19.19 0 01.084-.168c.127-.297.196-.525.196-.666a.703.703 0 00-.094-.297m-11.63 6.274c0 .01 0 .022-.014.022-.01 0-.022-.011-.047-.022-.034 0-.061-.015-.061-.027s.027-.026.061-.026c.012 0 .036 0 .061.015.011-.015.024-.015.035-.015 0 .015-.01.026-.035.053m.274-.135h-.036c-.026 0-.035 0-.035-.01v-.012l.045-.025h.026s.013 0 .013.012c0 0-.013.024-.013.034m-.737-.904l-.087.024c-.01 0-.02.01-.033.01s-.025-.01-.025-.01c0-.024.025-.049.058-.083.05.012.075.034.087.06m.19-.926l-.082.083-.052.032.061-.115h.073zm1.688 1.044l-.01.099-.05-.017.06-.082zm.155-.036l-.06.015.048-.064.012.049zm-1.26-1.58l-.072.033-.012-.033h.083zm.012-.134h-.062v-.071c.038 0 .05.022.062.07m.94.492c-.623.371-1.06.486-1.17.486-.01 0-.022-.01-.022-.022 0-.134.61-.811 1.88-1.599a.686.686 0 01.098.35c0 .223-.286.39-.786.785m-.013 1.759a.065.065 0 00-.05-.034c-.022 0-.044.023-.059.081l.11-.047zm.739-3.449c-.038-.01-.074-.022-.106-.022-.322 0-.942.365-1.527 1.067l-.06-.046c-.085.106-.18.2-.313.284v.072l.11.06a.469.469 0 01-.154.167v.058l-.132-.043c-.202.13-.262.212-.322.378l-.084-.07c-.452.392-.594.997-.594 1.15v.1c0 .142-.07.223-.07.32 0 .18.19.488.365.535l.04-.015c.26.227.403.444.547.444.128 0 .198-.429.26-.429.012 0 .033.045.033.108v.034c-.02.06-.032.118-.043.162v.016c0 .01 0 .01.01.01.012 0 .033-.01.085-.026.095-.136.14-.249.14-.319v-.022c-.01 0-.023.011-.037.011-.022 0-.032-.011-.032-.034 0-.013 0-.026.01-.047l.06.021c.012-.07.05-.092.072-.092s.035.022.035.048c0 .023-.012.034-.012.07 0 0 .012.013.039.013.08 0 .13 0 .13-.039 0-.01-.038-.032-.038-.07 0-.022.013-.034.025-.06h.021c.039 0 .052-.007.052-.047v-.047l.082-.025v-.06a.86.86 0 00-.022-.166l.08-.034c.047.034.073.07.073.12a.537.537 0 01-.06.19c-.06.048-.106.107-.153.144 0 .034.009.045.033.045.027 0 .082-.045.169-.127l.058-.123a.095.095 0 01.025.06v.023c.058-.013.085-.034.085-.083 0-.01 0-.034-.013-.059l-.06-.045c.034-.086.06-.133.119-.133h.023l.057.037c.131-.071.012-.265.182-.287.022-.022.044-.022.057-.022.096 0 .062.238.085.238.01 0 .01-.205.107-.205h.011l.035-.096c.073-.037.13-.083.192-.13l.047-.108-.057-.037c.15-.164.318-.32.485-.44v-.044l-.07-.036c-1.44 1.13-2.454 1.557-2.68 1.557-.165 0-.24-.011-.24-.107 0-.072.052-.132.146-.187v-.075c-.05-.01-.05-.01-.05-.02 0-.015 0-.037.012-.048h.024c.011 0 .011 0 .011-.012 0-.026-.01-.086-.01-.167v-.047h-.037c.012-.106.059-.166.144-.205l.072.049c.07-.07.131-.153.19-.25l-.014-.033-.06.023c-.02-.012-.046-.023-.082-.053l.026-.137h.091l.025.07c.06-.014.12-.025.17-.037l-.014-.055-.097-.037-.045-.011c.01-.05.034-.087.072-.102.01.015.023.015.033.015.037 0 .05-.022.06-.058l.074.13c.081-.057.138-.094.165-.094.013 0 .023.007.023.022v.024c.132-.024.228-.06.31-.094.06 0 .094-.015.12-.022.57-.201.905-.358.94-.394.117-.12.036-.156.203-.212.272-.097.902-.622.902-.87 0-.06-.203-.465-.58-.857m-4.422.976c0 .01.013.022.013.036 0 .056-.062.116-.083.116-.013 0-.025-.011-.025-.034a.193.193 0 01.095-.118m.156-.31a.2.2 0 01-.06.142c-.013.011-.024.011-.034.011-.026 0-.026-.011-.026-.022v-.026l.12-.104zm1.689-2.145c.01.015.01.015.01.026s-.01.026-.044.037a.082.082 0 00-.036.022c-.014 0-.014-.012-.014-.012 0-.01.014-.036.024-.073h.06zm.477-.413c-.119.13-.262.249-.416.343v-.083c.132-.071.239-.145.32-.237l.096-.023zm1.496.141l-.07-.13.047-.097c-.332-.345-.677-.331-.904-.461-.068.007-.2.082-.378.202-.68.534-1.025.869-1.025.985 0 .015 0 .023.012.036l.106-.013a1.678 1.678 0 01-.249.197c-.095.078-.166.151-.227.208a1.031 1.031 0 00-.203.323 2.94 2.94 0 01-.214.168.255.255 0 01-.118.19v.021c0 .048-.01.071-.034.071a.085.085 0 01-.051-.023c-.01.023-.01.037-.01.063 0 .023 0 .034.026.057-.109.015-.169.06-.169.12l.068.025c-.055.022-.104.048-.163.07.083.012.119.022.119.048 0 .012-.011.034-.046.057a.152.152 0 00-.073-.034c-.035 0-.046.022-.046.097l.07.012c-.214.096-.317.237-.317.307 0 .049.007.071.007.083 0 .108-.153.145-.18.297v.011c0 .085.097.064.097.11 0 .024-.037.073-.096.154v-.015c0-.03-.025-.045-.059-.066-.191.167-.299.282-.299.416 0 .023.013.06.027.093v.037c0 .014 0 .026.01.026s.026-.012.047-.026a.39.39 0 01.095-.167c.024.01.038.037.038.048 0 .033-.06.12-.154.287-.025-.015-.036-.015-.05-.015-.07 0-.105.096-.168.29.013.03.05.066.11.08-.047.057-.12.106-.19.155 0 .308-.062.463-.203.476-.022.026-.035.047-.035.081v.036l-.01.147c.045.557.116.855.39.973.083.087.156.168.212.264.11.105.239.165.393.175l.11-.034.022-.058c.073-.038.144-.06.225-.083.109-.111.169-.177.169-.219 0-.018-.011-.033-.021-.033h-.031c-.153.075-.31.13-.484.156-.036.011-.071.022-.118.022a.292.292 0 01-.145-.037l-.036-.033c-.069-.205-.119-.368-.119-.498 0-.168.073-.54.283-1.002.064-.085.124-.167.194-.248.106-.53.335-.763.335-.904 0-.015-.014-.026-.014-.036 0-.314.189-.418.36-.667-.052-.012-.087-.048-.109-.108a.39.39 0 00.13-.18.168.168 0 00.085.023h.023c.13-.055.143-.222.213-.33.036-.063.144-.063.144-.13 0-.016 0-.026-.011-.038a.302.302 0 00-.133.082c-.01.011-.024.011-.024.011-.012 0-.012-.01-.012-.01a.18.18 0 01.026-.06.684.684 0 01.154-.142c.19-.238.321-.383.427-.405.18-.358.43-.561.704-.769a2.35 2.35 0 01.31-.325c-.145.011-.215.12-.251.12-.024 0-.024-.015-.035-.06a.431.431 0 01.297-.205c.238-.286.477-.307.69-.427l.073.06c.047-.038.069-.05.106-.05.01 0 .035.012.05.038-.121.357-.347.69-.634 1.045l-.192.238c-1.569 1.525-2.485 2.38-2.485 2.965v.074c.059.14.107.197.154.197.012 0 .036 0 .044-.007-.007-.064-.007-.108-.007-.168 0-.665.783-1.369 2.215-2.514.285-.33.595-.665.937-.98l.156-.315.05-.166.043-.239zm-8.5 4.89c.014-.022.024-.033.024-.043 0-.026-.023-.041-.055-.049-.025.023-.038.05-.038.07 0 .023.013.033.013.06m.917-.238l.009-.038c-.044-.021-.094-.021-.104-.021-.026 0-.026 0-.026.011 0 .01 0 .021.026.048.01.01.022.01.044.01.016 0 .037 0 .05-.01m.13-.027c.037-.01.048-.01.048-.02h-.12c0 .01-.01.02-.01.035 0 .023.01.034.023.034.022 0 .035-.011.06-.049m-1.179-.78h-.036V43.7h.036v.075zm2.261 1.078c-.096.179-.331.347-.725.477l-.046-.07.105-.083.071.033c.035-.06.074-.103.083-.152a.91.91 0 00.512-.205m-1.979-1.606a.162.162 0 01-.093.097l.038-.097c.012-.022.012-.034.025-.034.01 0 .02.012.03.034m.408 2.146l.012.045-.132.036c-.401-.01-.63-.204-.63-.509 0-.123.06-.297.187-.56.099.058.183.107.23.14.12.037.224.048.32.048l.095-.011.06.033.082-.033v-.027a.08.08 0 00-.023-.055h-.084l-.048-.01-.057.01a2.134 2.134 0 01-.5-.237c.284-.514.702-.704 1.288-1.001l-.053-.05c.087-.047.18-.095.303-.14l-.015-.038c-.059.013-.141.026-.223.05-.671.298-1.146.606-1.442 1.023l-.071-.168c.01-.086.032-.164.057-.249a.705.705 0 01.133-.265c.223-.14.298-.393.572-.453l.081-.082c.132-.13.37-.2.713-.248l.431.047.118-.011c.56.165.833.39.833.737 0 .32-.248.747-.751 1.212-.5.465-.987.717-1.486.766m1.797-.48l-.072.026c-.011-.011-.023-.026-.023-.037l.023-.023.072.034zm.24.06l-.083.015c-.027 0-.027 0-.027-.015 0-.011.013-.023.047-.045l.062.022v.023zm1.032-.941c.06-.202.096-.353.096-.473 0-.654-.678-1.107-1.89-1.107h-.193l-.096.032-.035-.022-.057.022-.024-.022c-1.216.272-1.823.692-1.823 1.202 0 .121.027.238.087.36l.165.213-.072.103a1.299 1.299 0 00-.153.552c0 .62.485 1.033 1.234 1.033.156 0 .25-.06.31-.06v-.01c0-.012 0-.012.013-.012h.117c.012-.06.026-.081.026-.096 0-.034-.06-.05-.06-.072 0-.01.014-.022.034-.037.012 0 .026-.011.036-.011.029 0 .037.01.05.037h.021c.025 0 .039.011.039.034 0 .026-.024.064-.073.119h.049c.046 0 .106-.01.15-.023a.23.23 0 01.11-.2c0 .044-.011.07-.011.093a.434.434 0 00.155-.19c-.013-.012-.013-.023-.013-.033 0-.026 0-.026.025-.039.038-.02.081-.07.14-.128l.014.058a.34.34 0 01.168-.058h.033l.04.08h.069l-.025-.07c.073-.037.143-.06.203-.093l.058.011c.097-.133.215-.275.382-.452.036-.013.048-.034.06-.06-.024-.023-.048-.056-.048-.083-.012.038-.036.05-.057.05-.014 0-.025 0-.04-.012l.085-.086a.207.207 0 01-.155-.07l.037-.038.059.038c.014 0 .025.01.046.01.038 0 .095-.01.154-.022l.026.07.096.098a.17.17 0 00.034-.098c0-.015-.01-.036-.01-.058l.035-.082-.059-.193c0-.023-.014-.05-.014-.07 0-.087.073-.11.133-.184l.06.041c-.014.056-.026.119-.049.179h.023c.072 0 .098.081.166.092l.026-.107c.071-.108.093-.156.093-.156m-6.48 1.484c0 .01 0 .022-.015.022-.012 0-.022-.011-.048-.022-.036 0-.059-.015-.059-.027s.023-.026.06-.026c.012 0 .035 0 .062.015.01-.015.022-.015.032-.015 0 .015-.01.026-.032.053m.271-.135h-.036c-.023 0-.036 0-.036-.01v-.012l.047-.025h.025s.011 0 .011.013c0 0-.01.024-.01.034m-.737-.904l-.084.024c-.015 0-.026.01-.037.01s-.023-.01-.023-.01c0-.024.023-.05.06-.083.044.011.071.034.084.059m.187-.925l-.082.082-.048.033.058-.115h.072zm1.69 1.044l-.01.098-.047-.016.057-.082zm.158-.037l-.063.015.047-.063.016.048zm-1.265-1.58l-.07.034-.013-.034h.083zm.012-.133h-.058v-.072c.035 0 .046.023.058.072m.942.49c-.62.372-1.06.487-1.167.487-.01 0-.023-.011-.023-.022 0-.134.606-.812 1.88-1.6a.68.68 0 01.095.35c0 .223-.283.39-.785.786m-.013 1.759c-.011-.023-.034-.034-.046-.034-.026 0-.048.022-.06.081l.106-.047zm.741-3.45c-.037-.01-.072-.022-.107-.022-.326 0-.941.365-1.528 1.068l-.08-.046c-.085.106-.18.2-.308.283v.073l.105.059a.445.445 0 01-.158.167v.059l-.127-.044c-.203.13-.264.213-.322.379l-.083-.07c-.453.391-.594.996-.594 1.15v.1c0 .141-.073.222-.073.319 0 .18.192.488.368.536l.036-.015c.262.226.404.444.546.444.133 0 .203-.43.263-.43.012 0 .038.046.038.108v.034c-.026.06-.038.119-.052.163v.016c0 .01 0 .01.014.01.012 0 .038-.01.085-.026.093-.137.145-.25.145-.32v-.022c-.018 0-.03.012-.039.012-.024 0-.035-.012-.035-.034 0-.014 0-.026.011-.048l.063.022c.01-.07.044-.093.067-.093.024 0 .036.023.036.049 0 .022-.012.034-.012.07 0 0 .012.012.036.012.081 0 .133 0 .133-.038 0-.01-.038-.033-.038-.07 0-.023.015-.034.024-.06h.024c.036 0 .048-.008.048-.048v-.046l.084-.025v-.06a.696.696 0 00-.026-.166l.084-.034c.048.034.073.07.073.119a.515.515 0 01-.062.19c-.056.048-.105.107-.153.145 0 .033.014.045.037.045.02 0 .082-.045.165-.128l.06-.122a.095.095 0 01.025.06v.022c.06-.012.08-.034.08-.082 0-.01 0-.034-.01-.06l-.06-.044c.036-.086.06-.134.12-.134h.022l.06.038c.134-.072.013-.265.18-.288.021-.021.048-.021.06-.021.095 0 .059.237.083.237.012 0 .012-.205.106-.205h.011l.038-.096c.07-.036.132-.082.19-.13l.046-.107-.06-.038a3.69 3.69 0 01.49-.44v-.044l-.073-.036c-1.439 1.13-2.45 1.558-2.679 1.558-.166 0-.235-.012-.235-.108 0-.071.044-.131.14-.186v-.075c-.012-.011-.012-.011-.012-.021 0-.015 0-.038.011-.05h.027c.01 0 .01 0 .01-.01 0-.027-.01-.087-.01-.168v-.049h-.038a.232.232 0 01.145-.205l.071.05c.073-.07.13-.153.189-.25l-.013-.033-.057.022a.372.372 0 01-.084-.052l.026-.138h.094l.021.071c.06-.015.122-.026.168-.037l-.013-.055-.095-.038-.047-.01c.011-.05.037-.087.071-.102.013.015.025.015.038.015.033 0 .046-.023.06-.059l.07.13c.082-.056.142-.094.167-.094.013 0 .024.008.024.023v.024c.13-.024.225-.06.309-.094.06 0 .096-.015.12-.023.57-.2.905-.357.94-.393.121-.12.034-.157.204-.213.272-.096.902-.621.902-.87 0-.06-.205-.465-.58-.856m-5.894 2.879a.291.291 0 01-.098.082l.072-.131m.557-.442l-.106.108a.81.81 0 01-.046-.141l-.025.055-.107-.034-.108.12c.05.037.095.063.156.085-.035.049-.084.078-.131.13v-.178l-.06.097a.237.237 0 00-.12.06l-.022-.124.084-.055c.049-.041.105-.135.238-.238a.741.741 0 01.08-.157l.086.06.059-.015c0 .063.01.135.022.227m.121-.26l-.073.13.013-.068c-.013-.014-.048-.025-.083-.062h.143zm0-.153l-.048.104h-.073a.304.304 0 00-.093-.104.585.585 0 01.166-.049l.048.049zm-.822.38l-.073.048.027.06c.035-.023.046-.053.046-.072v-.036zm.941-.557c.01-.017.01-.027.01-.05 0-.01 0-.022-.022-.048-.072.011-.084.038-.084.081 0 .038.012.06.021.06.029 0 .051-.022.075-.043m2.914-1.207a.535.535 0 00-.191-.248l-.094-.044h-.012c-.023 0-.012.032-.045.032-.123-.058-.204-.105-.29-.105-.212 0-1.223.452-2.102 1.604l-.217.228-.038-.105-.084-.1v-.175l.03-.097a.118.118 0 00.054.022l.013-.007c0-.015-.013-.026-.022-.048a.41.41 0 01.214-.085.393.393 0 00.095-.24c0-.024-.011-.048-.011-.07a.758.758 0 00.144-.417.864.864 0 00-.051-.23.216.216 0 01-.082-.092 2.547 2.547 0 00-.652-.094c-.073 0-.143.015-.215.015v.068l.093.04-.105.636c-.133.372-.287.536-.287.611v.01h.015c.022 0 .045-.01.069-.034l.086-.108a.924.924 0 00.189-.085.14.14 0 01.033.085c-.222.428-.355.726-.355.953v.07l-.095-.048c-.072.033-.092.072-.092.107 0 .026.011.06.031.084a.216.216 0 00-.031.092c0 .027.011.038.031.038-.06.047-.106.095-.152.145a.934.934 0 01-.263.497c-.121.18-.191.275-.191.275v.015l.026-.026c.01 0 .044-.011.095-.047.035-.027.07-.038.105-.072 0-.096.046-.13.144-.167-.013-.025-.013-.038-.013-.048 0 0 0-.01.013-.01.01 0 .021.01.047.02l.06-.113v-.075h.11c.033 0 .043.01.043.022 0 .014-.024.053-.084.086l-.081.14a.92.92 0 00-.3.358c-.071.06-.116.096-.155.096-.01 0-.021-.011-.034-.011v.011c0 .105-.093.201-.205.364v.016c0 .01.05.036.167.036a.682.682 0 01.146-.122l.13.037c.346-.01.511-.152.584-.495l.248-.37c.097-.358.18-.61.418-.776l.035-.144c.059-.022.105-.033.144-.048.712-.808 1.14-1.38 1.476-1.558l.19-.082.07.048c-.012-.037-.023-.07-.023-.108 0-.027.011-.044.011-.07l.07.08a.407.407 0 01.18-.117l.036.037v.13l-.06.058c-.07.322-.19.623-.368.894l.024.038c-.037.047-.095.143-.191.28.022.065.048.098.096.098.022 0 .035-.015.058-.015a.964.964 0 00.085-.162c.06 0 .105.01.118.047a.053.053 0 01-.021-.037c0-.056.175-.128.425-.451.072-.025.13-.035.166-.047 0-.012-.011-.012-.011-.022 0-.06.156-.135.335-.361a1.09 1.09 0 00.152-.31l.073-.06c0-.047.022-.107.046-.167m-1.629 1.742v.007c0 .015 0 .026.01.026a.202.202 0 00.096-.033c.023-.015.037-.037.037-.05 0-.035-.037-.06-.083-.06-.05 0-.06.035-.06.11m-6.64 2.007l-.118.05.06.033.024.081a1.043 1.043 0 00-.249.075c-.025 0-.049-.024-.06-.075l.08-.066-.02-.108.084-.072a.338.338 0 00.141-.036m1.153.145h-.07l.047-.037.023.037zm-.044-.06l-.097.033c-.024 0-.024-.01-.024-.022 0-.026.012-.074.059-.133l.062.122zm-.277-.513l-.024.12c-.094-.011-.143-.034-.143-.094l.166-.026zm.442.464l-.051.06c-.02-.048-.044-.106-.07-.155h.062a.212.212 0 00-.026.059c0 .022.014.022.026.022h.023l.036.014zm-1.382-5.106l-.128.065-.027-.053.155-.012zm2.14-.832l-.07.014v-.037l.07.023zm2.55.94c-.013.13-.06.205-.082.205-.012 0-.026-.026-.048-.026-.014 0-.024 0-.04.011l-.024.075c-.033-.016-.069-.016-.09-.016-.036 0-.063.016-.073.038l-.072-.168a.477.477 0 01.215-.081.752.752 0 00.035-.19c.06-.016.097-.059.097-.141v-.038c.047.011.057.045.057.094l-.083.119a.403.403 0 01.109.118m.119-.32l-.025.05c-.012.007-.024.022-.038.022v-.038c0-.034.014-.045.026-.045a.05.05 0 01.037.011m-.323-.546l-.047.071-.034-.023c.021-.025.034-.048.057-.048h.024zm.513.298c0 .082-.04.118-.12.118-.062 0-.107-.036-.155-.096l.178-.13c.048.034.083.07.097.108m-3.014 5.172l-.095.039.039.047.056-.086zm-.21-.137c.009-.015.009-.027.009-.04 0-.012 0-.023-.024-.034h-.034l.05.074zm.404.067l-.122.026.109.06c.033.01.06.01.073.01h.02c0-.026-.033-.047-.08-.096m1.26-1.056h-.143a.567.567 0 01-.286.13c.037.022.061.045.061.071 0 .01-.024.021-.061.034l-.106-.073-.12.06c.013.04.036.06.058.06.014 0 .027 0 .038-.01a.27.27 0 01.035.13l.132-.035c0-.05.024-.085.06-.122l.072.064v-.015c0-.033.093-.12.26-.294m2.616-5.048c-.047-.145-.273-.188-.653-.297-.442-.119-.738-.275-.988-.275-.025 0-.045.011-.072.037.06.105.084.26.084.45 0 .215-.047.324-.191.324-.095 0-.415-.239-1.25-.239-.129 0-.331.072-.643.19-.048-.01-.095-.01-.155-.01-.212 0-.523.06-.927.163a.314.314 0 00-.106.109c-.417.058-.737.476-1.344.632-.06-.037-.109-.06-.144-.06-.025 0-.167.309-.427.309-.024 0-.038-.049-.05-.049-.023 0-.057.023-.118.075-.06.189-.165.283-.31.283-.06 0-.094-.012-.12-.012-.307 0-.116.428-.355.428-.036 0-.072-.011-.095-.011-.131 0-.321.346-.916.855-.073.178-.095.275-.176.275h-.063c-.094 0-.379.547-.379 1.082 0 .563.024.789.415 1.228.275.312.5.692.882.975l.51.26h.022c.265 0 .275.227.36.227a.11.11 0 00.082-.034c.048 0 .083-.016.12-.016.07 0 .107.026.118.06l.142.011c.062.015.107.11.144.11.024 0 .058-.025.058-.057 0-.011-.011-.038-.011-.053 0-.045.06-.08.12-.08.047 0 .107.035.202.095.023.06.036.094.036.104 0 .015 0 .026-.013.038-.01-.012-.023-.012-.034-.012-.026 0-.049.027-.049.038 0 .034.049.055.141.055.073 0 .134-.104.194-.104h.284c.025-.059.046-.145.071-.239.061-.025.084-.06.084-.092 0-.014 0-.04-.011-.051l.188-.273c.157 0 .227 0 .227.06v.013c-.094.046-.14.085-.153.128l.141.027c-.058.108-.215.108-.25.238l.238.055.155-.055c.084-.265.252-.142.395-.275.011-.086.022-.145.022-.167a.45.45 0 01.203-.175l.127-.038-.057-.036-.2.01.047-.175c-.013-.062-.095-.022-.095-.122v-.012l.142-.08a.285.285 0 01.155.07v-.012c0-.021.037-.048.107-.048 0 .167.023.238.069.238.072 0 .109-.156.214-.211.04.01.06.02.073.02s.013-.01.013-.01c0-.01-.013-.025-.025-.037.082-.045.156-.108.239-.163l.012-.168a.207.207 0 00.07.008.224.224 0 00.179-.093l.071.036c-.012-.133-.061-.205-.105-.205-.024 0-.072.064-.179.145-.143 0-.215 0-.215.06.01.012.01.033.01.05 0 .022-.01.043-.048.058a.081.081 0 00-.07-.059c-.19 0-.285.023-.285.07 0 .011.012.011.012.023-.2.097-.324.13-.379.13h-.132c-.595.227-1.05.227-1.274.383.023.07.06.13.109.168l-.109.044h-.035c-.084 0-.119-.038-.119-.118v-.034l-.072-.05c-.156.164-.548.105-1.201.3-.753-.276-1.105-.66-1.105-1.106 0-.041.045-.111.045-.242v-.07c-.083-.14-.142-.227-.142-.275 0-.142.188-.294.285-.488.074-.167.074-.367.155-.546.01-.023.023-.179.32-.488.06-.075.06-.203.122-.27.046-.053.45-.136 1.19-.968.258-.298 1.047-.68 2.342-1.343h.024s.01 0 .01.011-.01.034-.046.072c.655-.195 1.096-.24 1.285-.3.13-.047.27-.188.465-.188.25 0 .45.068.525.168.02.092.035.175.035.26s-.025.163-.06.237c-.108.024-.144.071-.144.154 0 .085.025.204.082.37-.046.191-.32.12-.32.214 0 .096.072.203.11.203.068 0 .164-.145.21-.145.027 0 .027.015.038.038-.025.071-.06.167-.095.286-.095-.06-.145-.107-.165-.107-.015 0-.051.092-.169.297l.07.093c-.117.06-.165.108-.165.215 0 .12.034.183.095.183.059 0 .084-.03.084-.075 0-.037.011-.048.034-.048.025 0 .051.022.071.022.035 0 .086-.034.12-.115l.036.045c.084-.141.168-.227.249-.249l-.01-.07c-.036-.027-.06-.05-.06-.06s.013-.022.035-.022c.025 0 .059.01.108.044v-.034c0-.059.023-.096.07-.119l.06.094-.06.129c.108-.044.13-.238.24-.33.047-.05.26 0 .296-.515.012-.02.024-.033.024-.06 0-.02-.012-.043-.012-.07 0-.01.025-.037.047-.037.05 0 .097.064.132.064.011 0 .023-.015.034-.037l-.034-.085c.023-.024.023-.034.023-.057 0-.036-.012-.062-.058-.085-.047-.07-.071-.12-.071-.153 0-.014.01-.025.024-.025a.6.6 0 00.153.058c.144 0 .023-.497.263-.572l.13.049.332-.12.06-.272zm-2.294 4.817c-.145.026-.226.052-.263.097l.062.085c.056-.015.116-.07.201-.182m-.094-1.96c-.012-.048-.04-.072-.085-.072l-.058.225.143-.152zm-1.858-2.022l-.014-.027-.035-.011c-.023 0-.081.026-.167.085l.072.012c.048 0 .095-.026.143-.059m2.237.605c0-.022-.01-.038-.034-.038h-.036v.038h.07zm1.333-.297a.24.24 0 00.012-.085c0-.023 0-.056-.012-.083l-.072.027a.364.364 0 01.072.14m-13.46 5.037c0 .011 0 .022-.01.022-.012 0-.02-.011-.048-.022-.034 0-.06-.015-.06-.027s.026-.026.06-.026c.015 0 .036 0 .058.015.012-.015.03-.015.04-.015 0 .015-.01.026-.04.053m.275-.135h-.037c-.024 0-.033 0-.033-.01v-.012l.044-.025h.026s.014 0 .014.013c0 0-.014.024-.014.034m-.737-.904l-.084.024c-.014 0-.024.01-.034.01a.062.062 0 01-.027-.01c0-.024.027-.049.061-.083.048.011.073.034.084.059m.189-.925l-.082.082-.048.033.06-.115h.07zm1.691 1.044l-.011.099-.05-.017.061-.082zm.154-.036l-.06.015.048-.064.012.049zm-1.26-1.58l-.074.033-.01-.033h.084zm.01-.134h-.06v-.071c.038 0 .05.022.06.07m.943.492c-.62.371-1.06.486-1.168.486-.013 0-.024-.011-.024-.022 0-.134.606-.811 1.88-1.599a.675.675 0 01.097.35c0 .222-.287.39-.785.785m-.013 1.759a.065.065 0 00-.05-.034c-.022 0-.045.023-.058.081l.108-.047zm.738-3.449c-.037-.01-.072-.023-.106-.023-.324 0-.941.365-1.524 1.068l-.085-.046c-.08.106-.178.2-.31.283v.073l.108.059a.448.448 0 01-.154.167v.059l-.132-.044c-.202.13-.263.213-.322.379l-.083-.07c-.45.391-.594.996-.594 1.15v.1c0 .141-.07.222-.07.319 0 .18.189.488.367.536l.034-.015c.263.226.405.444.551.444.13 0 .2-.429.26-.429.012 0 .035.045.035.107v.034c-.023.06-.035.119-.046.163v.016c0 .01 0 .01.011.01.012 0 .035-.01.082-.026.098-.137.143-.249.143-.319v-.023c-.01 0-.023.012-.033.012-.025 0-.038-.012-.038-.034 0-.014 0-.026.013-.048l.058.022c.013-.07.05-.093.073-.093.021 0 .035.023.035.049 0 .022-.014.034-.014.07 0 0 .014.012.04.012.081 0 .129 0 .129-.038 0-.01-.034-.033-.034-.07 0-.023.011-.034.022-.06h.025c.037 0 .046-.008.046-.048v-.046l.085-.025v-.06a.77.77 0 00-.024-.166l.083-.034c.047.034.072.07.072.119-.014.071-.025.13-.06.19-.06.048-.105.107-.156.145 0 .033.012.045.037.045.024 0 .082-.045.165-.128l.064-.122c.009.011.02.036.02.06v.022c.061-.012.085-.034.085-.082 0-.01 0-.034-.01-.059l-.061-.045c.032-.086.061-.134.118-.134h.024l.058.038c.133-.072.013-.265.18-.288.023-.021.046-.021.057-.021.098 0 .063.237.083.237.015 0 .015-.205.111-.205h.01l.032-.096a.988.988 0 00.193-.13l.049-.107-.06-.038c.156-.164.321-.32.489-.44v-.044l-.07-.036c-1.442 1.13-2.455 1.558-2.68 1.558-.167 0-.24-.012-.24-.108 0-.071.05-.131.143-.186v-.075c-.01-.011-.01-.011-.01-.021 0-.015 0-.038.01-.049h.025c.01 0 .01 0 .01-.011 0-.027-.01-.087-.01-.168v-.049h-.035a.23.23 0 01.144-.205l.073.05c.068-.07.127-.153.19-.25l-.014-.033-.061.022c-.023-.011-.047-.022-.083-.052l.025-.138h.093l.026.071c.06-.015.12-.026.166-.037l-.012-.055-.094-.038-.046-.01c.01-.05.03-.087.068-.102.013.015.025.015.038.015.034 0 .046-.023.056-.059l.075.13a.534.534 0 01.165-.094c.011 0 .024.008.024.023v.024c.131-.024.226-.06.309-.094.062 0 .096-.015.122-.023.57-.2.903-.357.939-.393.116-.12.035-.157.202-.213.273-.096.903-.621.903-.87 0-.06-.201-.465-.581-.856m-6.59 2.545c-.01.015-.023.022-.034.022-.013 0-.024-.007-.035-.022-.024-.015-.035-.015-.035-.023 0-.015.011-.037.035-.048.046.01.069.033.069.07m1.833.927c-.022-.007-.033-.007-.033-.022 0-.012.01-.034.033-.05.037.016.062.038.062.065 0 .02-.012.036-.025.036-.015 0-.024-.015-.037-.029m.36-2.056l-.157-.046c-.048 0-.07-.014-.07-.03 0-.007.032-.023.119-.033h.023c.047 0 .07.034.084.109m.355.166l-.024.07c-.026.015-.048.015-.058.015-.034 0-.05-.015-.05-.047 0-.023.026-.064.07-.097l.062.06zm.038-2.614l-.072.044-.072-.044a.437.437 0 01.107-.227c.06.007.07.022.07.071a.67.67 0 01-.033.156m-1.798 2.474l.074.021h.01c.034 0 .048-.01.048-.033 0-.038-.049-.097-.084-.097-.025 0-.047.037-.047.11m2.628 2.077l-.083-.02.026.095.057-.075zm-2.308-2.507l-.07-.047-.12.102c0 .087.025.11.11.11a.35.35 0 00.08-.165m2.19 2.63v-.014c0-.023-.014-.034-.025-.034-.095 0-.272.2-.512.2-.058 0-.13-.045-.19-.14a.243.243 0 00.037-.12c0-.063-.038-.108-.11-.156-.083-.26-.13-.465-.13-.61 0-.138.037-.26.118-.38v-.118c0-.235.038-.365.074-.38.048-.107.143-.152.143-.212 0-.027 0-.038-.012-.048-.276-.297-.487-.454-.617-.454-.324 0-.537.107-.537.239v.225c-.25.179-.523.408-.82.67l-.12.153-.048.067-.144.038c-.092.132-.2.248-.33.382-.262.156-.372.335-.49.45.144-.569.393-.666.439-.726.061-.08.311-.558.717-1.438.12-.145.238-.282.333-.417.024.064.056.096.093.096.024 0 .062-.021.062-.047 0-.05-.015-.11-.026-.19.12-.142.217-.32.288-.51l.012.056.057.059.073-.044c-.024-.026-.038-.049-.038-.06 0-.036.026-.048.075-.048.02 0 .046 0 .08.012.036-.023.061-.057.061-.083 0-.036-.048-.06-.14-.06-.038.05-.062.071-.087.071-.01 0-.024-.011-.024-.033 0-.014 0-.038.014-.063h.072l.06-.082.034.026a.545.545 0 00.06-.145c0-.011-.014-.026-.024-.049l-.046.049c-.014.037-.024.059-.04.059-.01 0-.02-.022-.02-.044a.824.824 0 01.247-.253c.038.022.05.06.06.082.07-.034.108-.093.108-.18-.049-.033-.06-.06-.06-.092a.9.9 0 01.068-.231.348.348 0 01.048.158v.036l-.033.082.095-.092c.07.021.107.034.13.055.035-.021.05-.034.05-.055v-.026a.316.316 0 01-.135-.068c0-.064.025-.075.084-.075h.073c.06.011.081.06.119.06.072 0 .13-.107.19-.331a.618.618 0 00.263-.286c.07-.145.119-.238.119-.313 0-.252-.357-.514-1.049-.627-.046-.027-.117-.05-.201-.094-.06.011-.084.034-.084.055 0 .012.014.039.024.06.157.06.227.156.227.261a.97.97 0 01-.036.249c-.082.371-.331.61-.394.896a19.3 19.3 0 00-.616 1.223l-.097.112a7.371 7.371 0 00-.262.424c-.01.107-.32.622-.915 1.547v.083c-.216.319-.38.534-.395.75-.187.442-.367.655-.367.764 0 .14.06.222.18.222.117 0 .366-.271.796-.796.106-.093.188-.164.249-.223.07-.097.156-.183.249-.276.238-.226.5-.416.797-.58l.051-.111a.403.403 0 01.295-.13v.189l-.023.06v.07c0 .097.012.135.048.135.022 0 .048-.015.073-.038.07.083.083.179.083.283 0 .122-.04.182-.135.215a.265.265 0 00.095.112c-.009.034-.009.068-.009.104 0 .071.025.134.07.19l-.06.049c.24.525.524.747.75.747.095 0 .178-.055.262-.175h-.073c-.215-.047-.32-.134-.32-.201 0-.015.011-.036.049-.049.096.071.165.131.224.179.095-.025.168-.048.225-.07.049.082.11.126.155.126.156 0 .18-.246.248-.246.015 0 .027.011.04.024l.047-.132zm-1.392-3.906v-.081c-.06.038-.083.07-.083.119l.083-.038zm.272-.107l-.058-.06a.314.314 0 00-.165.205l.044.049c.026-.038.061-.075.095-.123l.015.063a.401.401 0 00.069-.134m.06-.179l-.083-.022.023.097.06-.075zm-4.434 4.772l-.135.036c-.02-.014-.044-.025-.044-.036 0-.023.044-.049.14-.059m-.21-2.462c.01.022.01.047.01.07 0 .037-.01.06-.036.08-.033-.01-.057-.02-.057-.043v-.026l.084-.081zm-.444-.547l-.082-.012c-.023-.01-.023-.026-.023-.051 0-.023.023-.034.057-.034l.048.097zm.608.535c0 .023 0 .034-.013.034s-.013-.011-.024-.011h-.014c-.03 0-.044-.011-.044-.045 0-.015 0-.026.014-.049.044 0 .068.023.081.071m.963-1.417c.011.049.025.071.025.094 0 .025-.014.025-.025.025-.011 0-.023 0-.049-.025-.056.01-.082.04-.082.083-.045-.008-.072-.02-.093-.058.033-.12.188-.082.188-.212v-.01h.036c.025 0 .037.01.037.032 0 .023-.012.045-.037.07m.736-.82c0 .015.011.015.011.025 0 .06-.138.105-.307.282v-.021c0-.096.11-.168.296-.286m-.249-.462c-.01.023-.032.034-.06.034h-.023c.013-.049.036-.082.072-.082.011-.012.011-.012.023-.012v.012c0 .01 0 .026-.012.048m.417.197a.158.158 0 01.012.063c0 .05-.022.093-.072.13 0-.022.013-.037.013-.047 0-.023-.013-.034-.035-.034-.023 0-.048.011-.086.023.051-.098.086-.143.108-.143.013 0 .025.008.05.008h.01zm-2.69 4.12c0-.048-.012-.084-.034-.108a.23.23 0 00-.048.146c.01.012.024.012.037.012.022 0 .033-.012.045-.05m.287-.285l-.072-.048-.035.081c-.058.064-.108.097-.13.123-.013.011-.013.021-.013.032 0 .013 0 .013.024.013.011 0 .035 0 .061-.013l.165-.188zm-.145-.022l-.07-.05c-.011.05-.011.072-.011.098 0 .007 0 .022.011.022h.012l.058-.07zm1.074 1.082l-.015-.06-.034.048c-.01.012-.023.023-.023.034 0 0 0 .015.012.015.011 0 .024-.015.06-.037m-1.094-1.275c0-.034-.012-.057-.038-.057-.012.023-.012.033-.012.045 0 .012 0 .022.012.022-.012.015-.023.026-.023.038.011 0 .023-.012.061-.048m.212.107l-.023-.097-.059.038-.05-.038-.035.038.048.095c.072-.022.109-.036.119-.036m0-.331c0-.038-.01-.049-.047-.059a.16.16 0 00-.107.108c-.013.032-.013.058-.013.066v.015c.013 0 .013-.015.027-.015a.26.26 0 00.14-.115m1.166 1.179c0-.034-.011-.074-.046-.085-.012-.012-.027-.012-.037-.012-.012 0-.012.012-.012.023v.014c.012.033.049.06.095.06m-.89-1.324c-.011-.045-.024-.083-.05-.104-.06.093-.12.19-.166.271l.046-.022h.037c.06-.059.109-.109.133-.145m.962.941l-.072-.049c-.011.038-.011.06-.011.085 0 .023 0 .034.025.034l.058-.07zm.298-.12c-.073 0-.143.011-.189.049l-.05-.011c-.01.13-.105.167-.117.223.012.063.022.123.035.168l.142-.141c-.01-.04-.01-.075-.01-.098 0-.07.024-.104.034-.104.012 0 .048.012.082.044a.156.156 0 00.073-.13m.187-.049v-.113l-.129-.027a.478.478 0 01-.153.13c.059.01.117.023.18.023.032 0 .07-.013.102-.013m.11-.308l-.119.048c-.023.024-.035.05-.035.06 0 .023.023.038.058.038l.096-.146zm1.64-4.388c-.011-.231-.356-.345-1.032-.384.01.023.01.04.01.064 0 .055-.058.104-.177.128-.346.226-.512.442-.512.702v.06a16.57 16.57 0 00-1.169 1.584c-.225 0-.441.032-.64.081a.717.717 0 00-.191-.07c-.059 0-.096.08-.096.238 0 .13.096.367.297.687-.592.845-.856 1.526-.856 1.93 0 .418.25.856.392.879.012-.023.037-.023.05-.023.058 0 .13.25.32.25h.012l.132-.012c.023.012.046.012.058.012.048 0 .061-.023.061-.083v-.035c0-.06.034-.11.06-.11.034 0 .049.027.049.065v.045c0 .01.011.02.023.02s.023-.01.034-.037c.024-.066.046-.152.059-.246.046.024.071.06.071.12v.034a.369.369 0 00.204-.213c-.025-.047-.039-.07-.039-.096 0-.011.039-.011.109-.011a.287.287 0 01.107-.178c0 .037.013.06.024.06.013 0 .023-.012.023-.038v-.022c.061-.033.098-.07.11-.105.01.012.022.012.035.012.01 0 .022-.012.022-.05 0-.022-.035-.044-.035-.084 0-.023.024-.045.073-.071a.405.405 0 00.032-.145c0-.044-.01-.067-.032-.067-.025 0-.05.023-.084.06l-.035.082v-.013c0-.021-.014-.034-.036-.034-.073 0-.155.188-.372.188a.148.148 0 01-.096-.034c-.272.216-.497.309-.676.309-.238 0-.379-.131-.379-.346 0-.034.01-.117.035-.212l.035-.016c-.011.06-.011.111-.011.135 0 .023 0 .034.011.034h.012c.035-.094.07-.201.083-.309.036-.039.047-.071.047-.097 0-.012-.01-.022-.035-.022h-.024l-.036.048-.047.107c0-.178.047-.335.141-.468l.013.04c-.023.045-.023.083-.023.105 0 .038.01.052.035.052h.024v-.064c0-.133.036-.237.106-.308.048-.097.097-.178.12-.238l.05.023c.068 0 .094-.115.224-.153.035-.022.049-.049.049-.075v-.032c-.026-.038-.04-.05-.04-.075 0-.044.051-.115.146-.2l.059.036.046-.06a.228.228 0 01.025.12c0 .034-.01.06-.06.06-.023 0-.046-.026-.07-.06-.022.034-.033.06-.033.085 0 .019.01.07.022.116l.046.145c.227-.466.44-.692.44-.81v-.012l.06.022c.18-.227.3-.357.384-.367l.199.096.084-.026c.05-.213.08-.32.202-.32.05 0 .094.045.154.045.036 0 .095-.045.156-.13.036.01.06.01.095.01.203 0 .393-.197.785-.238.299-.162.464-.212.464-.271 0-.023-.01-.049-.048-.049h-.026l-.734.124c-.348.034-.667.055-.987.081.06-.111.106-.19.162-.264.039-.175.29-.357.633-.688l.049-.13c.095-.15.225-.275.392-.373a2.03 2.03 0 00.168-.021c.178-.169.297-.264.343-.264l.095.026c.037-.108.06-.202.07-.26m-2.186 2.792c0-.044-.011-.07-.049-.082h-.023a.023.023 0 00-.023.023c0 .026.023.047.095.059m-7.43 4.597l-.107.07.06-.121c.01-.012.022-.012.035-.012.012 0 .012 0 .012.025m.323-.31l-.061.035c0-.07.024-.103.061-.103v.067zm.379-.533c-.084.103-.13.166-.145.166-.011 0-.011 0-.011-.01 0-.015 0-.026.011-.053.026-.048.05-.103.085-.175h.025c.035 0 .046.013.046.034 0 .013 0 .023-.011.038m1.155-1.514a.775.775 0 01-.106.074l.059-.134.047.06zm.214-.546l-.024.058c0 .143-.049.217-.109.217h-.036c0 .047 0 .08-.021.12-.024.02-.048.043-.083.055l-.062-.045c-.011 0-.023.01-.035.01-.035 0-.071-.033-.094-.093l.071-.081v.081c.012 0 .047.013.132.034-.012-.011-.025-.021-.025-.034 0-.014.025-.026.048-.026v-.048c0-.092.035-.178.118-.248.025.02.034.037.059.037.012 0 .037-.016.06-.037m.085-.132l-.108.104c-.025-.021-.037-.044-.037-.066 0-.026.012-.038.012-.063l.133.025zm-5.417 3.176a.16.16 0 00-.082-.115.185.185 0 00-.035.105c0 .022.012.05.012.06.023.022.047.022.06.022.023 0 .045-.023.045-.072m2.928.56h-.048v.025a.135.135 0 00.06.012h.014c0-.012 0-.027-.026-.038m1.156-1.071l-.132-.034-.06.094a.435.435 0 00.192-.06m1.461-4.85l.05.115a2.235 2.235 0 01-.13.383c.012.012.012.033.012.072 0 .093-.047.249-.144.498a1.033 1.033 0 00-.071.27c0 .035 0 .082.022.12v.033c0 .048-.022.06-.071.06.012.022.012.06.012.087 0 .256-.285.66-.63 1.452a.16.16 0 00-.118.049l.036.094c-1.13 2.078-2.441 3.093-3.463 3.093-.536 0-1-.32-1.12-.843-.023.032-.023.055-.023.092 0 .215.167.695.406.934.177.175.486.249.961.249.658 0 .619-.182.986-.465l.275-.205h.037c.27 0 .177-.227.392-.275 0-.108.191-.25.511-.54-.01.016-.01.027-.01.038 0 .015.01.025.034.037.06-.037.096-.074.119-.085a.102.102 0 00-.07-.034c-.011 0-.024.011-.035.011v-.037c0-.082.035-.157.082-.217 0 .06.012.087.037.087.022 0 .046-.012.082-.037.048.037.081.063.105.075a.864.864 0 00.039-.157l-.039-.108a.649.649 0 00-.15.108l-.015-.034c.084-.145.204-.311.321-.495.06.075.098.124.11.135.01-.026.022-.037.022-.052 0-.008-.012-.023-.023-.034a.141.141 0 01-.049-.108c0-.02 0-.045.027-.07l.045.025c.096-.036.07-.118.12-.118l-.015-.063a.196.196 0 01-.022-.07c0-.086.072-.18.203-.206v-.021c0-.05.024-.072.071-.072.036 0 .074.012.13.023l.06.049c.049-.012.073-.024.073-.05 0-.022-.05-.048-.05-.073 0-.034.037-.057.083-.057.027 0 .05 0 .072.01.025-.035.037-.06.037-.084 0-.034-.025-.048-.082-.048h-.06c-.038.06-.073.08-.082.08-.015 0-.015-.007-.015-.043v-.044l.06-.015.048-.094.034.023a.368.368 0 00.05-.157c0-.02-.035-.032-.084-.032 0 .07-.024.106-.049.106-.012 0-.035 0-.044-.026a.554.554 0 00.058-.153.234.234 0 00.129-.215c.025.038.05.06.073.06.023 0 .035-.01.06-.033l.154.022c.07-.082.19-.194.335-.331l-.037-.036a.552.552 0 00.19-.142c.153-.213.286-.44.405-.673 0-.083.02-.167.046-.265l.085-.055c.237-.44.355-.785.355-1.008 0-.432-.226-.632-.701-.632-.107 0-.178.036-.252.122m-1.106 4.005a.109.109 0 00-.068-.021h-.03a.41.41 0 01-.056.237c.014.012.025.023.037.023s.02-.011.035-.023c.025-.07.046-.14.082-.216m.238 0v-.104c-.012-.015-.023-.015-.035-.015-.037 0-.048.025-.057.072l.092.047zm-.63-1.067l-.083-.025.011.092a.097.097 0 00.072-.067m.905-2.533l-.06.011c-1.56.413-2.618 1.407-2.832 2.273l-.023.011-.034.013c-.015 0-.025.07-.025.21 0 .31.214.596.464.618.022.027.035.027.058.027s.047-.013.083-.05c.046.05.084.07.132.07.034 0 .07-.02.12-.047a.343.343 0 00.118.027.177.177 0 00.13-.05v-.037c0-.067.022-.093.095-.103.07.036.154.058.239.07 0-.05 0-.12.012-.19a.135.135 0 01.07-.025c.049 0 .119.026.215.086a.25.25 0 00.081-.18c0-.023 0-.049-.01-.071.073-.085.155-.167.225-.26.063.037.097.06.12.06.028 0 .028-.042.028-.12 0-.095.127-.142.366-.27.024.043.046.07.061.07.01 0 .02-.037.02-.097v-.093a1.08 1.08 0 00.24-.287c-.013-.032-.023-.066-.047-.107.059 0 .084-.01.084-.029 0-.054-.025-.09-.025-.112 0-.034.025-.045.095-.057.023.023.048.034.06.034.048 0 .012-.119.096-.227l.092-.163a.19.19 0 00.038-.094c0-.026-.013-.036-.025-.036s-.034.01-.058.036a4.41 4.41 0 01-1.275 1.205c-.488.305-.808.428-.82.428-.072 0-.096-.093-.156-.093-.037 0-.07.023-.105.067-.084-.022-.12-.097-.12-.2.036-.034.048-.06.048-.083 0-.047-.038-.092-.038-.14 0-.06.191 0 .191-.342v-.064c.024 0 .047.015.073.015.035 0 .057-.015.057-.049 0-.021-.01-.055-.01-.081 0-.134.167-.331.524-.595.203-.143.321-.328.511-.328h.082c.061 0 .169-.156.597-.203.108.047.192.085.238.085.132 0 .332-.157.332-.313 0-.094-.118-.127-.332-.22m.179 2.839l-.06-.058c-.082.047-.143.105-.166.202l.06.037.082-.106.014.059a.407.407 0 00.07-.134m.035-.139l-.082-.025.013.081c.033-.01.059-.022.068-.056m-7.153.316l-.047.086a.12.12 0 01.047-.086m.334-.411l-.096.08.037-.08c0-.039 0-.06.012-.06s.023.021.047.06m.821-1.463a.67.67 0 01-.117.12c-.014.007-.025.007-.036.007 0 0-.012 0-.012-.008 0-.014.023-.052.048-.1l.117-.019zm-1.486 2.198c-.014-.036-.026-.059-.06-.059v.059h.06zm4.558-1.083l-.037-.107c-.25.547-.703.832-.95.832-.158 0-.24-.068-.24-.237 0-.06.037-.2.07-.454-.033-.022-.06-.044-.06-.081s.027-.06.05-.093v-.022c0-.03-.012-.041-.023-.041-.038 0-.072.01-.097.01 0 0-.01-.01-.01-.022 0-.022.01-.043.01-.07l.06-.093-.034-.112c.02-.045.082-.067.155-.082-.05-.06-.073-.096-.073-.108s.011-.02.034-.02c.048-.013.072-.025.072-.06 0-.012 0-.023-.011-.035.011-.063.011-.108.011-.135 0-.318.143-.535.143-.686 0-.12-.143-.227-.368-.227-.487 0-1.12.76-2.486 2.056l-.024-.083c.227-.13.213-.582.654-1.08l.094-.112.024-.105-.047.015v-.075a.198.198 0 00.06-.08l.06.047a.45.45 0 00.037-.152l.07.045.023-.06h.034c.06 0 .095-.026.095-.038s-.024-.022-.044-.022h-.01l-.027-.021a.834.834 0 01.237-.132 3.09 3.09 0 01.084-.476c-.05-.409-.462-.714-.915-.714a7.02 7.02 0 00-.381.034c.036.06.071.098.132.098h.033c.06.02.109.055.155.103.037.168.061.288.061.383 0 .154-.119 1.13-.751 2.391l.015.075c-.11.126-.214.283-.31.461-.026.055-.049.12-.083.18l.034.02-.061.023v.06c.037-.023.061-.045.072-.083a.412.412 0 01.154-.033l-.059.082.073.034.141-.104.084-.022a1.8 1.8 0 01.286-.358l.011-.06.097-.047a5.16 5.16 0 01.33-.383.776.776 0 01.238-.201c.025-.075.155-.108.37-.19.19-.205.3-.373.477-.379.216-.205.32-.35.38-.35.012 0 .036.034.046.1.039 1.461.252 2.186.716 2.186h.013c.068 0 .128-.013.2-.025.022-.022.132-.118.32-.271.037-.227.432-.391.586-.894m-1.119-.378c-.026-.038-.037-.064-.047-.064-.013 0-.013.026-.013.049l-.037.096.097-.081zm1.225.126l-.095.09c.034.044.049.055.06.055.011 0 .011 0 .011-.011 0 0 0-.012-.01-.033l.034-.101zm-6.5.86l-.097.036-.047-.096a.728.728 0 00.145.06m.391.081a2.012 2.012 0 00-.166.111l-.049-.025c.038-.086.084-.131.118-.131.038 0 .061.013.097.045m-.296-1.094h-.035V44.5h.022l.013.047zm.179-.341l-.014.045-.024-.013.013-.047.025.015zm.081-.038c.022.012.022.038.022.044a.135.135 0 01-.045.108l-.026-.01.049-.142zm.476-.39h-.106c0-.053.025-.086.071-.123l.035.122zm-.261 2.294l-.025-.112-.035.097.06.015zm-.129-1.514l-.063-.058-.118.215h.084l.097-.157zm-.121-.602l-.071-.026c-.083.026-.129.07-.154.14l.025.05c.094-.05.164-.093.2-.164m1.75.309c-.192.152-.381.293-.546.428.019-.016.032-.016.032-.016 0 .026-.366.325-1.14.755-.01.023-.047.034-.083.045l-.288.038c-.117-.015-.179-.038-.2-.11.069-.285.129-.512.261-.653l.047.033.047-.082-.07-.01.011-.086.108-.131.045-.119c0 .049.012.083.039.131.022-.026.047-.048.082-.048l-.035-.045c.061 0 .074-.075.109-.227l-.083-.06v-.052c.057-.019.07-.153.178-.331l.034.097c-.023.071-.073.156-.118.234l.035-.008.069.06.037-.052-.08-.044.043-.011.074.07a.929.929 0 00-.118.215l-.05-.035v.047a.447.447 0 01-.047.178c.072-.059.132-.106.215-.119.012-.071.058-.119.13-.151.015-.075.12-.075.12-.22.095-.164.2-.269.346-.32.155-.286.282-.498.377-.654 0-.071-.14-.19-.498-.342a4.645 4.645 0 00-.558-.134l.01.085c.062.049.11.092.132.119a2.226 2.226 0 01-.07.212l-.038-.024a.17.17 0 00-.084.105l.097.075-.072.07c.025.012.048.038.048.06 0 .033-.048.085-.141.157l-.014.156a.388.388 0 00.047-.134l.074.038v.055a1.728 1.728 0 01-.142.267.697.697 0 00-.098.25l-.107.104a.645.645 0 01-.122.264l-.009-.075-.106.06a.931.931 0 01-.11.167v.038c0 .06-.024.108-.057.14a.405.405 0 00-.025.097c0 .071.037.109.037.13 0 .109-.177.228-.177.406 0 .037.022.13.035.275l.033.175c.012.05.178.238.513.38l.178-.142a.355.355 0 00.035-.156l.073-.023.049.038.033-.025a.616.616 0 01-.047-.203c0-.021.014-.036.025-.036.009 0 .022 0 .046.015l-.012.081.048.026v-.036a.21.21 0 01.024-.094c.073.082.121.12.141.12.012 0 .024-.016.024-.038a.648.648 0 00-.032-.155l.153-.034c.083-.086.153-.168.225-.239a.278.278 0 01.18-.249v-.052c0-.055.037-.093.118-.093h.032c.17-.32.502-.335.528-.628m.165-.085c-.024-.028-.035-.05-.059-.05-.011 0-.022.012-.034.022-.012.028-.012.039-.012.06 0 .039.024.053.07.053l.035-.085zm.201-.217l-.166.05.04.095.126-.145zm.321-3.078l-.032-.11c-.261.155-.525.31-.811.478l-.037.06c-.236.092-.415.165-.52.21h-.12c.094.383.31.525.738.655l.06-.103-.011-.087a2.45 2.45 0 01.13-.163l-.024-.134c.059-.083.095-.153.129-.189l.05.021a.354.354 0 00.2-.152l.023-.098c.097-.118.144-.2.144-.328v-.04l.081-.02zm-6.48 7.091a.593.593 0 00-.106.083l-.014-.072.083-.073c.011-.013.024-.013.024-.013.013 0 .025 0 .025.026 0 .013 0 .023-.012.05m1.811-2.428c-.075.106-.12.166-.145.166v-.06c.045-.106.082-.166.082-.179h.025c.038 0 .047.013.047.034 0 .012 0 .026-.009.039m.748-.883l-.108.109c-.025-.026-.036-.049-.036-.071 0-.027.011-.038.011-.059l.133.021zm.225-.369c.013.045.045.06.045.087a.12.12 0 01-.054.103c0-.032-.014-.047-.029-.047-.011 0-.046.036-.084.106l-.045-.046a.305.305 0 01.167-.203m-.285-.925l-.047.13-.05-.075a.557.557 0 01.096-.055m-5.115 3.945l-.027-.125c-.059.044-.094.103-.094.163v.037c-.022.038-.037.06-.037.072s0 .011.015.011c.022 0 .071-.045.144-.158m2.783.644l-.05-.011v.026c.038.011.062.024.073.024s.011 0 .011-.013c0 0-.011-.01-.034-.026m1.14-1.391h-.022l-.06.098c0 .01.011.01.024.01.01 0 .036-.01.057-.035v-.073zm1.335-4.197c-.107.047-.156.117-.156.233 0 .038 0 .082.013.134-.108.524-.763 1.478-2.033 2.726a1.21 1.21 0 00-.169.056 1.513 1.513 0 01-.205-.067c.014-.026.014-.064.014-.098a.79.79 0 00-.046-.248c.069-.383.406-.773.714-1.384l.085-.044c.115-.205.25-.254.377-.335.081-.201.133-.357.133-.476 0-.205-.527-.45-1.06-.45-.165 0-.347.245-.713.614-.037.048-.049.085-.049.118 0 .027.023.052.049.052.011 0 .035 0 .045-.015.359-.402.619-.583.726-.583.099 0 .144.07.144.194 0 .179-.176.594-.525 1.271-.235.465-.427.823-.427 1.135 0 .33.048.483.39.673.11.015.18.025.206.025a3.05 3.05 0 00.299-.178c.08-.071.152-.13.222-.204.038-.142.026-.212.085-.223v.026c0 .032.013.045.036.045.012 0 .023 0 .045-.013l.027-.13.093.024c-.009-.034-.023-.06-.023-.082 0-.06.035-.108.083-.108.012 0 .024 0 .049.011.038-.01.06-.045.06-.097 0-.006 0-.034-.014-.06.014-.033.038-.048.06-.048h.035c.024 0 .059-.007.094-.056.049.056.074.083.085.083.026 0 .059-.027.07-.072l-.011-.13a.364.364 0 00.07-.12c.05 0 .097-.01.12-.036.015 0 .026.01.037.01.034 0 .048-.021.048-.036 0-.01 0-.023-.025-.034a1 1 0 00.166-.226l.037-.098c.072-.043.12-.08.155-.103.023.022.035.037.058.037.027 0 .049-.037.049-.107v-.038c.085-.19.155-.309.217-.356l.07.01c.011.026.011.06.011.086 0 .26-.287.665-.632 1.45.01.023.01.049.01.075 0 .021 0 .045-.01.066h-.084c-1.141 2.072-2.164 3.12-3.234 3.12-.537 0-.953-.312-1.178-.906-.072.038-.084.119-.084.264 0 .584.57 1.105 1.285 1.105.595 0 .617-.288.965-.521l.272-.202c.037 0 .097-.015.175-.026.025-.047.074-.106.144-.205a.484.484 0 01.109-.044c0-.107.202-.252.512-.54-.011.017-.011.027-.011.038s.011.026.048.037c.047-.048.083-.075.108-.097l-.108-.01v-.034c0-.096.036-.167.092-.216 0 .049.016.071.038.071.023 0 .045-.011.073-.034a.328.328 0 00.104.072.235.235 0 00.038-.12v-.027h-.192l.084-.13c.155-.118.238-.225.238-.33 0-.015-.013-.04-.013-.063a.21.21 0 00.105.037v-.049c0-.047-.011-.08-.021-.13.084 0 .144-.033.165-.085l-.011-.056a.29.29 0 01-.024-.085c0-.086.072-.169.202-.202v-.025c0-.048.027-.067.072-.067.036 0 .072.012.13.02l.073.062c.047-.015.072-.037.072-.05 0-.013 0-.013-.012-.02-.036-.027-.048-.053-.048-.064 0-.034.023-.06.083-.06.024 0 .05 0 .073.015.022-.038.033-.06.033-.086 0-.022-.023-.048-.07-.048-.025 0-.047 0-.07.015-.037.044-.072.081-.087.081-.011 0-.021-.022-.021-.058 0-.127.215-.18.215-.24 0-.022-.024-.043-.084-.07-.024.07-.049.108-.06.108-.012 0-.024-.01-.024-.047a.42.42 0 01.035-.143c.095-.047.133-.11.133-.2.01.034.033.06.072.06.011 0 .033-.015.058-.037l.152.011c.038 0 .133-.12.335-.335l-.035-.022c.225-.11.382-.394.595-.834.012-.096.02-.178.047-.264l.08-.049c.11-.32.173-.557.173-.712 0-.294-.326-.604-.608-.604-.097 0-.192.045-.298.131m-1.047 4.032l-.12-.023c-.035.023-.058.059-.058.093a.536.536 0 00.178-.07m.082-.358a.061.061 0 00-.049-.037c-.01 0-.033.01-.046.01a.428.428 0 01-.06.24c.014.015.023.028.034.028.015 0 .026-.013.039-.028.022-.068.045-.138.082-.213m.238-.007v-.112h-.023c-.051 0-.061.025-.061.07l.084.042zm-2.38-2.764v-.026c0-.034-.023-.06-.05-.08-.045.095-.072.15-.072.188 0 .015 0 .027.018.027h.009l.095-.11zm-1.56-.654c0 .01.009.022.009.036 0 .056-.058.116-.084.116-.011 0-.02-.011-.02-.033a.182.182 0 01.095-.12m.154-.308a.2.2 0 01-.058.141c-.015.012-.025.012-.039.012-.022 0-.022-.012-.022-.023v-.026l.119-.104zm1.69-2.146c.013.015.013.015.013.026s-.012.026-.047.038c-.026.01-.036.02-.036.02-.012 0-.012-.01-.012-.01 0-.01.012-.037.022-.074h.06zm.476-.413a1.94 1.94 0 01-.416.343v-.083c.13-.07.238-.145.32-.237l.096-.023zm1.497.142l-.071-.13.047-.098c-.33-.345-.677-.331-.903-.461-.07.007-.202.082-.38.202-.679.534-1.023.87-1.023.985 0 .015 0 .023.011.037l.108-.014a1.64 1.64 0 01-.251.197c-.097.078-.165.152-.223.208a1.013 1.013 0 00-.207.324 2.656 2.656 0 01-.213.167.253.253 0 01-.12.19v.021c0 .048-.009.072-.035.072a.063.063 0 01-.046-.024c-.011.024-.011.037-.011.064 0 .022 0 .033.022.056-.106.015-.166.06-.166.12l.071.025c-.06.022-.107.049-.167.07.085.012.118.022.118.049 0 .01-.01.033-.043.056a.149.149 0 00-.075-.034c-.035 0-.047.023-.047.098l.07.01c-.212.097-.32.238-.32.308 0 .05.01.072.01.083 0 .109-.152.145-.176.297v.012c0 .085.093.063.093.108 0 .025-.032.074-.093.155v-.015c0-.03-.022-.045-.06-.066-.191.168-.297.283-.297.416 0 .023.01.06.026.093v.037c0 .014 0 .027.011.027.01 0 .023-.013.044-.027a.364.364 0 01.094-.167c.026.011.038.037.038.049 0 .032-.061.118-.153.286-.023-.015-.034-.015-.05-.015-.07 0-.105.096-.165.29.013.03.048.066.108.081-.048.056-.121.105-.193.154 0 .309-.055.464-.198.476-.025.026-.039.048-.039.081v.037l-.011.146c.05.557.121.855.393.974.082.086.155.167.213.263a.6.6 0 00.393.175l.106-.033.024-.06c.072-.037.144-.06.227-.082.108-.11.165-.177.165-.218 0-.02-.01-.034-.023-.034h-.023c-.155.075-.309.13-.487.156a.31.31 0 01-.264-.015l-.035-.032c-.073-.205-.12-.37-.12-.5 0-.167.071-.54.285-1 .061-.085.119-.168.194-.25.106-.528.335-.762.335-.903 0-.015-.015-.026-.015-.036 0-.314.19-.418.356-.666-.047-.013-.084-.05-.105-.11a.422.422 0 00.131-.178.17.17 0 00.083.023h.023c.13-.055.141-.223.213-.33.038-.064.143-.064.143-.13 0-.017 0-.027-.012-.04a.33.33 0 00-.131.083c-.012.012-.023.012-.023.012-.011 0-.011-.012-.011-.012 0-.01.011-.033.023-.06a.78.78 0 01.155-.14c.19-.238.322-.383.428-.406.18-.357.429-.561.703-.769.096-.123.204-.23.311-.325-.145.012-.215.12-.251.12-.023 0-.023-.015-.036-.06a.442.442 0 01.296-.205c.24-.286.477-.307.69-.427l.072.06c.049-.038.073-.049.108-.049.011 0 .037.011.049.038-.122.356-.344.688-.63 1.045l-.193.237c-1.569 1.525-2.487 2.38-2.487 2.965v.074c.058.141.11.197.153.197.012 0 .038 0 .049-.007-.011-.064-.011-.108-.011-.168 0-.665.787-1.368 2.215-2.513.283-.332.595-.665.938-.982l.155-.313.048-.167.045-.238zm-10.044 4.25l-.047.083c-.013 0-.023.011-.035.011-.01 0-.01-.011-.01-.026 0-.023 0-.034.022-.068l.049-.026m.26-.177c-.072.043-.132.07-.164.085l.044-.07.06-.053h.023c.027 0 .038.014.038.038m.44-.514c-.024.036-.096.134-.203.29-.047.007-.11.055-.153.115-.025.011-.05.011-.062.011-.022 0-.033 0-.06-.011.122-.108.157-.179.217-.179h.022a.868.868 0 00.143-.249c.037-.02.047-.02.072-.02.011 0 .024 0 .024.02v.023zm2.272-2.246l-.012.118-.081.038c-.03 0-.074 0-.135.007l.04-.07-.027-.022a.339.339 0 00-.107.141l-.048-.072c.108-.095.228-.2.347-.308l.048.049-.025.119zm-.13-.373l-.037.094h-.07c.022-.041.049-.079.106-.094m5.294-.915c-.021-.022-.069-.055-.128-.096l.07-.056h.027l.031.152zm-7.696 4.679c.049-.026.058-.049.058-.074 0-.011-.01-.022-.058-.022-.052.037-.073.07-.073.118l.073-.022zm7.936-4.5a.49.49 0 00-.132-.155c.06-.024.082-.06.082-.083 0-.037-.022-.07-.082-.108a.516.516 0 01-.26-.178l.02-.011.016-.049c-.44-.19-1.048-.305-1.678-.305-.527 0-1.07.034-1.607.115v-.021c0-.049.046-.094.105-.145l-.034-.024c-.311-.226-.536-.345-.715-.345a.357.357 0 00-.166.038c-.189 0-.358.323-.69.535a.62.62 0 00-.144-.025c-.024 0-.571.047-1.521.248-.24.048-.514.182-.906.264-.63.13-1.177.464-1.714 1l.037.094c-.262.394-.415.691-.415.951 0 .194.047.286.127.286.04 0 .072-.01.12-.048.058.06.096.097.142.097.041 0 .088-.022.17-.071.129-.048.201-.08.201-.119 0-.034-.022-.047-.06-.047-.012 0-.033 0-.057.013a1.027 1.027 0 01-.228.034c-.095 0-.14-.026-.19-.096.463-.834 1.093-1.275 2.02-1.596.12-.048.239-.093.368-.119v-.01c0-.022.015-.034.04-.034a.16.16 0 01.071.012c.261-.147.571-.228.902-.228h.073c0-.059.214-.085.617-.097.027 0 .037-.01.062-.01.048 0 .07.022.07.07 0 .012 0 .037-.013.06.027.085.05.156.06.193-.047.115-.225.283-.51.547-.358.497-.641.903-.868 1.19a.288.288 0 00-.12-.038c-.072 0-.072.086-.118.228-.037.13-.11.19-.216.19a.367.367 0 01-.154-.038.522.522 0 01-.297.098c-.12 0-.238-.034-.358-.034-.131 0-.191.01-.226.102-.118.228-.179.403-.179.548 0 .13.024.205.073.216.07.07.14.156.213.238-.178.465-.488.688-.572.937-.38.539-.568 1.004-.568 1.466 0 .178.06.36.165.56l.358.224a.383.383 0 00.19-.178h.035c.13 0 .265-.165.502-.413a.851.851 0 01.343-.287l.057-.048h-.021c-.18 0-.345.19-.668.297 0 .038-.023.049-.058.049h-.037c-.012.021-.048.034-.072.034h-.023c-.023-.034-.036-.06-.07-.06-.012 0-.05.026-.072.047-.061-.047-.084-.081-.084-.13 0-.085.034-.249.118-.486.05-.109.109-.215.18-.335.083-.261.274-.298.346-.428-.072.012-.121.045-.132.097a.111.111 0 01-.035-.075c0-.048.035-.093.118-.178-.046-.022-.072-.047-.072-.071 0-.044.072-.109.182-.223l.054-.037a.511.511 0 00.181-.038c-.093-.06-.142-.047-.142-.08 0-.05.049-.093.154-.146l.025.071v.082l.177-.198c0-.112.05-.179.155-.226.026-.026.026-.039.026-.064 0-.019-.016-.034-.052-.056.036-.036.061-.049.086-.049.02 0 .046.013.061.013.022 0 .043-.038.043-.093v-.049c-.021-.026-.021-.037-.021-.06 0-.062.07-.107.153-.107.05 0 .084.032.122.032.023 0 .072-.032.107-.103a1.41 1.41 0 01.226-.145c.105 0 .928-.392 1.677-.392.26 0 .488-.203.8-.237l.01-.059a.297.297 0 01.143.119c.093 0 .214.011.38.032.048-.02.072-.032.072-.058v-.034c0-.011 0-.033.01-.048-.43-.13-.735-.168-.89-.168-.07 0-.525.026-1.333.075-.239-.049-.359-.108-.359-.194 0-.034.05-.081.132-.13-.012-.023-.02-.034-.033-.034-.026 0-.05.023-.099.094a.283.283 0 01-.046-.153c0-.08.059-.133.187-.167v.022c0 .012.015.05.035.075 0-.086.052-.156.122-.205l.061.06c.095-.01.144-.06.155-.146h.055a.25.25 0 01.169.053c-.037.048-.082.082-.14.082h-.029c.037.048.074.093.11.13a.163.163 0 00.084-.024.504.504 0 00.032-.177v-.064l.17-.034c.014-.022.014-.032.014-.048 0-.035-.014-.048-.063-.048-.01 0-.035 0-.07.013-.037-.013-.06-.034-.06-.072.06-.07.06-.13.083-.13 0 0 .012 0 .026-.048l-.1-.023.218-.081c.022 0 .032.011.06.011.035 0 .06-.026.06-.082v-.038c.07-.119.13-.181.176-.181.046 0 .086.052.086.145.105-.024.154-.109.165-.288.179-.27.535-.367.75-.687a.15.15 0 00.096.045c.023 0 .035-.023.035-.083 0-.118.117-.096.38-.133.147-.012.43-.127.893-.127.204 0 .44.023.727.023.024 0 .045.011.093.011a.135.135 0 01.037.048l.488.167a.485.485 0 01.106.226c-.117.403-.284.585-.642.715-.023.023-.037.033-.037.05 0 .02.023.02.063.02a.604.604 0 00.211-.047.661.661 0 00.145-.145l.023-.023c.014 0 .014.015.014.023 0 .03-.014.074-.027.134l.027.011a3.38 3.38 0 01.472-.239l.155.071c.406-.048.488-.06.525-.487m-5.51 1.751c-.035-.047-.06-.074-.07-.085-.037.011-.06.023-.085.023-.06 0-.082-.033-.082-.104v-.049c-.11.036-.144.12-.144.275 0 .034.011.07.061.104.025-.01.045-.021.058-.021.025 0 .037.02.047.07l.013.037.023-.052c0-.01-.01-.034-.01-.044 0-.05.034-.071.068-.071.025 0 .04.02.051.07l.024.023c.022 0 .031-.06.046-.176m-.046-.215l-.024-.059-.038.014.062.045zm.427-.015l-.059-.092a.121.121 0 00-.06.07l.06.086.01-.086.05.022zm2.024.751l-.037-.055-.25-.026v.026c0 .022.01.055.036.082.024.01.046.01.084.01a.44.44 0 00.167-.037" fill="#0066a6"/></svg>