<svg viewBox="0 0 1236 287.94" xmlns="http://www.w3.org/2000/svg"><defs><clipPath id="f"><path d="M0 0h566.93v737.01H0V0z"/></clipPath><clipPath id="e"><path d="M0 0h566.93v737.01H0V0z"/></clipPath><clipPath id="d"><path d="M0 0h566.93v737.01H0V0z"/></clipPath><clipPath id="c"><path d="M0 0h566.93v737.01H0V0z"/></clipPath><clipPath id="b"><path d="M0 0h566.93v737.01H0V0z"/></clipPath><clipPath id="a"><path d="M0 0h566.93v737.01H0V0z"/></clipPath></defs><path d="M4.902 270.96v12.052h984.12l8.492-12.052" fill="#f79210"/><g clip-path="url(#a)" transform="matrix(7.0189 0 0 -7.0189 -2390.178 608.576)"><path d="M492.91 49.781s5.296 7.91 5.773 8.692c.583.957.609 2.477.085 3.294-.268.427-8.164 12.916-8.164 12.916-.709 1.348-.532 2.27-.059 2.928.778 1.148 2.151 3.185 2.151 3.185s9.586-15.039 9.985-15.71c1.029-1.715.744-3.396-.104-4.836-.711-1.213-6.921-10.469-6.921-10.469" fill="#f79210"/><path d="M491.21 48.927s6.129 8.972 6.585 9.715c.533.908.475 2.187 0 2.959-.256.408-8.767 13.802-8.767 13.802s-1.509-2.277-1.986-2.98c-.476-.7-.758-1.573.059-2.977l6.351-10.027c.496-.786.475-2.227-.08-3.135-.455-.732-6.741-9.898-6.741-9.898h18.138c1.842 0 2.853.716 3.744 1.998a722.629 722.629 0 014.213 6.105c.451.681 1.36 1.134 1.767 1.134h1.417l-2.765 4.207h-4.413c-.842 0-1.86-.748-2.396-1.541-.419-.625-3.437-5.146-3.98-5.873-.309-.41-.573-.501-.818-.503l-.573.002c.179.362 5.248 7.735 6.244 9.359 1.205 1.999 1.477 4.639.045 7.171-.524.919-11.057 17.539-11.057 17.539s-1.403-2.02-1.987-2.884c-.474-.707-.619-1.63.063-2.98 0 0 8.841-14.062 9.263-14.707 1.027-1.604.899-3.746 0-5.207-.734-1.202-6.843-10.425-6.843-10.425h4.84c1.754 0 2.183.65 2.666 1.189.484.541 3.117 4.533 3.415 4.954.304.417 1.072 1.595 2.082 1.595h3.178v-.092c-.677-.136-1.344-.545-1.828-1.208-.484-.656-3.679-5.387-4.063-5.939-.484-.694-1.037-1.353-2.427-1.353" fill="#f79210"/><path d="M343.85 54.529h2.196c.503 0 .843-.29.843-.851 0-.559-.34-.851-.843-.851h-4.725V51.36h4.559c1.769 0 2.64 1.168 2.64 2.352 0 1.186-.871 2.343-2.64 2.343-.76 0-2.209-.005-2.209-.005-.491 0-.82.283-.82.826 0 .547.329.829.82.829h4.734v1.468h-4.555c-1.751 0-2.614-1.034-2.614-2.326 0-1.294.863-2.318 2.614-2.318m23.47-3.166h3.488v5.097h-1.715v-3.589h-2.007c-1.451 0-2.422.836-2.422 2.439 0 1.609.971 2.437 2.422 2.437h3.722v1.427h-3.488c-2.941 0-4.391-2.11-4.391-3.915 0-1.803 1.45-3.896 4.391-3.896" fill="#142354"/></g><path d="M68.353 248.065h12.03V193.24h-12.03v54.825zm704.627-.015h12.093v-54.803H772.98v54.804z" fill="#142354"/><g clip-path="url(#b)" transform="matrix(7.0189 0 0 -7.0189 -2390.178 608.576)"><path d="M355.82 57.747h2.84c.696 0 1.141-.634 1.141-1.225v-5.159h1.711v5.377c0 1.33-.947 2.434-2.465 2.434h-2.248l-.979-1.301v1.301h-1.713v-7.811h1.713m45.55 6.382h2.692c.631 0 1.029-.606 1.029-1.151s-.398-1.133-1.029-1.133h-2.106l3.412-4.099h2.031l-2.419 2.913h.004a2.466 2.466 0 011.709 2.369c0 1.345-1.04 2.53-2.556 2.53h-4.455v-7.812h1.688" fill="#142354"/></g><path d="M521.914 248.065v-10.03l-32.105.02v-14.058h27.964v-9.967h-27.964v-10.774l32.105.007V193.24h-44.205v54.825h12.1m274.748 0v-10.03l-28.048.02V193.24h-12.1v54.825h12.1M239.122 232.16l25.556.014 7.11 15.898h13.14l-26.84-54.832h-12.431l-26.84 54.832h13.223m19.829-45.37l8.703 19.814-17.344.035 8.64-19.85z" fill="#142354"/><g clip-path="url(#c)" transform="matrix(7.0189 0 0 -7.0189 -2390.178 608.576)"><path d="M383.73 55.154v.004l.979-1.299h1.752c1.473 0 2.513 1.227 2.513 2.642 0 1.422-1.04 2.673-2.513 2.673h-4.453v-7.811h1.722m0 6.384h2.658c.629 0 1.03-.656 1.03-1.246 0-.587-.401-1.224-1.03-1.224h-2.658v2.47zm10.42-6.712a4.247 4.247 0 010 8.494 4.24 4.24 0 01-4.239-4.252 4.24 4.24 0 014.239-4.242m0 6.918a2.668 2.668 0 000-5.337 2.67 2.67 0 00-2.673 2.661 2.674 2.674 0 002.673 2.676" fill="#142354"/></g><path d="M579.328 232.16l25.556.014 7.096 15.898h13.147l-26.848-54.832h-12.416l-26.847 54.832h13.237m19.829-45.37l8.689 19.814-17.344.035 8.655-19.85z" fill="#142354"/><g clip-path="url(#d)" transform="matrix(7.0189 0 0 -7.0189 -2390.178 608.576)"><path d="M436.54 57.745h2.694c.629 0 1.03-.606 1.03-1.151s-.401-1.133-1.03-1.133h-2.107l3.413-4.099h2.032l-2.422 2.913h.004a2.464 2.464 0 011.708 2.369c0 1.345-1.037 2.53-2.554 2.53h-4.454v-7.812h1.686" fill="#142354"/></g><path d="M633.233 248.065h12.03V193.24h-12.03v54.825z" fill="#142354"/><g clip-path="url(#e)" transform="matrix(7.0189 0 0 -7.0189 -2390.178 608.576)"><path d="M474.33 54.529h2.195c.505 0 .845-.29.845-.851 0-.559-.34-.851-.845-.851h-4.724V51.36h4.56c1.769 0 2.639 1.168 2.639 2.352 0 1.186-.87 2.343-2.639 2.343-.761 0-2.209-.005-2.209-.005-.491 0-.821.283-.821.826 0 .547.33.829.821.829h4.732v1.468h-4.554c-1.751 0-2.614-1.034-2.614-2.326 0-1.294.863-2.318 2.614-2.318" fill="#142354"/></g><path d="M909.146 248.065v-10.03l-32.111.02v-14.058h27.984v-9.967h-27.984v-10.774l32.111.007V193.24h-44.198v54.825h12.087" fill="#142354"/><g clip-path="url(#f)" transform="matrix(7.0189 0 0 -7.0189 -2390.178 608.576)"><path d="M456.2 57.747h2.842c.696 0 1.14-.634 1.14-1.225v-5.159h1.712v5.377c0 1.33-.947 2.434-2.465 2.434h-2.25l-.979-1.301v1.301h-1.711v-7.811h1.711" fill="#142354"/></g></svg>