<svg width="664.79" height="150.42" viewBox="0 0 770.27 174.29" xmlns="http://www.w3.org/2000/svg"><path d="M747.996 60.06l-.047.057c10.396 10.443 17.212 24.536 18.309 40.396 2.449 34.994-23.91 65.317-58.861 67.761-16.443 1.158-31.851-4.068-43.832-13.548l-.052.062c12.427 11.559 29.43 18.185 47.71 16.903 34.961-2.426 61.324-32.772 58.889-67.747-1.24-17.686-9.618-33.204-22.116-43.884m-112.46 72.24c-2.041 1.13-2.473 2.82-1.438 5.44.949 2.373 2.44 3.418 4.044 2.748 1.277-.494 1.495-1.604.973-4.443l-.233-1.12c-.517-2.829-.612-4.03-.271-5.264.328-1.372 1.111-2.236 2.307-2.71 2.867-1.163 5.582.626 7.196 4.661 1.742 4.357.802 7.638-2.601 9.057l-.859-2.136c2.378-1.007 2.986-3.237 1.69-6.394-1.016-2.596-2.677-3.745-4.391-3.047-1.41.56-1.718 1.837-1.206 4.78l.204 1.248.171 1.082c.375 2.165.422 2.953.214 3.888-.28 1.153-1.011 2.003-2.207 2.468-2.691 1.077-5.302-.494-6.764-4.139-1.562-3.959-.712-6.883 2.307-8.231l.864 2.112zm-.28-21.3l2.65 2.93 5.73-.13.04 2.36-16.34.35-.06-2.34 6.42-.14h.91l.82-.01-.55-.59-.57-.57-7.23-7.84-.07-3.11 6.72 7.46 9.65-8.11.04 2.98zm5.72-27.01l6.309 2.217-.764 2.222-6.318-2.222-11.293 3.418.94-2.701 7.03-1.97.854-.223c.347-.114.57-.147 1.177-.294-.546-.665-.669-.802-1.244-1.619l-4.324-5.853.892-2.592 6.741 9.617zm15.47-14.36l-10.34-8.45-3.44 4.22-2.34-1.93 9.38-11.47 2.34 1.9-3.45 4.24 10.32 8.45zm18.78-27.8l1.42 2.41-7.58 4.42 2.02 3.49 8.41-4.94 1.55 2.62-11.82 6.9-8.26-14.13 11.65-6.83 1.53 2.62-8.26 4.84 1.76 3.03z" fill="#202c5c"/><path d="M696.456 36.32c-.902-1.481-1.244-2.165-1.761-3.332-.142 1.182-.285 2.041-.698 3.721l-.669 3.128 4.752-.769-1.624-2.748zm9.352 8.44l-4.248.28-2.131-3.541-6.598 1.063-.926 4.03-4.078 1.04 4.296-17.891 4.035-.641 9.65 15.66zm26.308 5.26l-3.446-1.319 1.324-4.875c.119-.56.337-1.339.631-2.35.285-1.03.522-1.813.674-2.416.233-.66.422-1.324.655-2.046l.37-1.153c-.959 1.652-1.348 2.226-2.24 3.565-.346.593-.693 1.078-.992 1.505l-4.642 6.513-2.991-.798-.921-7.813c-.076-.413-.109-.959-.157-1.747-.071-1.035-.104-1.813-.147-2.35-.01-.437-.01-1.082 0-1.989l-.418 1.989c-.47 2.15-.693 3.071-1.343 5.653l-1.362 5.274-3.622-.574 4.087-16.006 5.511 1.073.783 7.581c.19 1.771.237 3.266.157 5.359.608-1.201.835-1.604 1.538-2.706a51.15 51.15 0 011.282-1.927l4.301-6.19 5.226 1.775-4.258 15.972zm-.38 52.85c4.714-3.19 8.649-4.894 11.089-4.809 1.434.043 3.185.489 3.185 2.264 0 1.842-1.756 3.38-5.174 4.609-2.986 1.082-7.609 1.343-12.627.783 1.386-1.243 2.554-2.206 3.527-2.847m-66.417 5.801c-2.919-.19-4.353-1.372-4.353-3.631 0-.299.199-7.486 16.609-8.297 1.87-.1 3.959-.171 7.139.199l-1.851 1.609-1.035.93c-3.945 3.603-10.581 9.603-16.509 9.19m35.511-27.114c-1.984 1.728-5.915 5.521-9.717 9.162l-4.32 4.125a61.988 61.988 0 00-10.543-.949c-7.975 0-15.285 2.217-18.622 5.639-1.253 1.301-1.894 2.701-1.851 4.186.062 3.878 4.486 5.801 5.843 6.323 7.082 2.63 13.006 1.866 19.258-2.511 3.446-2.407 7.59-6.275 10.837-9.404 2.516.579 5.369 1.348 8.454 2.231l2.843.84c-3.684 3.617-7.457 7.424-10.961 10.51l-.266.251c-4.851 4.282-8.369 7.367-13.443 8.511-3.593.774-6.109.033-6.949-.475l-.199.161c2.948 2.426 5.729 3.797 10.51 3.375 4.571-.389 9.831-3.247 15.218-8.312l7.267-7.134 5.098-5.06 10.296 3.019.176.066-6.37 6.199-5.464 5.44c-5.606 5.449-8.653 8.269-11.938 10.581-5.397 3.864-10.054 5.858-14.131 6.128-2.117.147-5.169-.01-7.714-1.486l-.261.123c2.763 2.35 6.147 5.198 11.991 5.055 6.603-.223 12.446-3.394 21.565-11.763 4.144-3.807 8.259-8.074 11.91-11.848l6.764-6.855c4.457.992 8.43 1.396 12.836 1.325 6.408-.152 11.896-3.209 11.953-6.731.081-2.601-2.07-4.006-3.342-4.818-1.063-.693-3.921-2.298-7.889-2.298-4.799 0-9.826 2.132-14.91 6.332l-3.38 2.995-1.248-.337-9.413-2.658c2.772-2.596 5.15-4.828 7.267-6.726 5.169-4.581 10.856-6.47 14.198-6.684 2.43-.161 6.65.033 8.392 1.277l.199-.176c-4.633-3.964-8.649-4.5-11.953-4.5-3.266 0-8.483 1.03-14.896 5.991-2.615 2.027-6 5.43-9.555 9.014l-4.766-1.467-1.139-.365-5.008-1.524 2.853-2.701c3.366-3.299 6.56-6.427 9.048-8.544 9.028-7.586 14.715-8.578 18.664-8.62 4.334-.019 7.785.878 10.239 2.658l.185-.166c-5.065-4.6-8.729-6.071-15.024-6.114-5.539-.044-12.141 3.046-18.592 8.709m40.546-43.887c.304.161.835.532 1.063.133.133-.271-.176-.503-.456-.674l-.688-.366-.356.665.437.242zm.342 2.203l-.437-.237-.119-1.604-.432-.247-.66 1.187-.361-.195 1.424-2.587 1.13.636c.456.256.854.612.541 1.168-.285.508-.75.498-1.201.275l.115 1.604zm1.572-.788c.617-1.101.195-2.501-.892-3.081-1.101-.603-2.497-.237-3.1.878-.603 1.111-.171 2.492.911 3.095 1.073.593 2.478.223 3.081-.892m-4.477-2.146c.608-1.381 2.165-2.012 3.541-1.419a2.694 2.694 0 011.424 3.531 2.659 2.659 0 01-3.536 1.386c-1.381-.588-2.013-2.14-1.429-3.498" fill="#202c5c"/><path fill="#26265d" d="M260.026 83.5l-6.34 6.61 6.34 6.65 6.38-6.65zm-39.59-70.23l6.36-6.62-6.36-6.65-6.4 6.65zm22.98 70.23l-6.45 6.61 6.45 6.65 6.36-6.65zm-6.34-70.23l6.46-6.62-6.46-6.65-6.37 6.65zm143.06 46.45h-22.448v-1.59c0-19.154 14.886-30.821 22.448-32.881V59.72zm171.3-46.638v46.78c0 2.668-.256 4.913-1.196 6.503-1.154 1.922-3.185 3.532-7.063 3.532s-5.929-1.609-7.101-3.532c-.949-1.59-1.229-3.835-1.229-6.503v-33.76h-10.994v33.617h-13.757V26.154h-10.913v33.565h-13.747V26.102h-10.922v33.617h-42.18c-12.171-.845-15.014-7.343-15.014-13.381 0-8.483 7.524-11.758 15.745-11.758h17.905v-8.478h-15.897c-12.926 0-23.748 5.316-23.748 18.764 0 8.748 3.93 12.717 7.353 14.853h-27.684V18.047c-23.929 2.972-42.916 20.848-42.916 50.203h32.055v10.325c0 3.978.446 11.596-5.35 12.684v4.566c4.04-.437 10.581-3.142 13.467-8.046 2.259-3.807 2.744-7.277 2.744-15.27v-4.258h134.24a16.883 16.883 0 001.733 3.228c3.351 4.633 9.28 6.703 16.206 6.703 6.845 0 12.721-2.07 16.068-6.703 2.777-3.93 3.09-7.818 3.09-12.546v-45.85h-10.9zm26.2-.002h10.847v55.168h-10.847zM313.266 25.9h-15.679v8.559h13.139c10.149 0 20.554.498 20.554 12.261 0 10.462-7.676 12.821-21.389 12.821h-26.345v8.54h28.305c17.07 0 25.438-5.231 25.438-21.309.001-16.187-9.925-20.872-24.023-20.872m-80.81 33.82h-22.291v-1.438c0-19.04 14.687-31.04 22.291-33.095V59.72zm27.569 0c0 2.725-.299 4.923-1.248 6.57-1.154 1.918-3.142 3.489-7.044 3.489-3.831 0-5.896-1.571-7.068-3.489-.954-1.647-1.253-3.845-1.253-6.57V18.01c-26.032 2.459-42.883 23.022-42.883 50.236h33.252a17.887 17.887 0 001.756 3.1c3.313 4.628 9.233 6.707 16.116 6.707 6.949 0 12.764-2.079 16.073-6.707 2.843-3.892 3.195-7.761 3.195-12.536V22.416h-10.894V59.72zm104.451 113.9c-10.761 0-18.85-2.25-23.82-7.02-4.41-4.097-6.441-8.758-6.441-18.071v-38.896h11.663v40.543c0 5.971.921 9.375 3.779 12.437 3.076 3.318 8.378 5.112 14.82 5.112 6.403 0 11.672-1.795 14.758-5.112 2.848-3.062 3.741-6.465 3.741-12.437v-40.543h11.744v38.896c0 9.313-2.079 13.975-6.446 18.071-4.991 4.77-13.132 7.02-23.798 7.02m76.23-6.77c-2.335 0-7.419-.256-9.589-2.022-1.775-1.533-1.818-4.025-1.818-7.775v-43.457c17.962-1.595 37.847 3.712 37.847 27.351 0 18.925-12.304 25.903-26.44 25.903m-2.264-58.515c-5.748.143-19.904.764-30.228 3.745l.968 4.643c2.791-.783 5.407-1.343 8.43-1.837v57.394c16.524.323 23.616.266 32.274-.731 15.19-1.832 29.535-13.249 29.535-30.788 0-24.693-22.077-32.796-40.979-32.426m57.124 1.305h11.739v62.649h-11.739zm-216.97 35.42c5.972 0 17.136.802 25.082 7.13L289.4 122.945l-10.804 22.115zm47.972 27.232h-13.291c-4.69-9.503-16.922-23.283-37.229-21.949l-10.69 21.949h-8.288l32.734-63.669h4.158l32.606 63.669zm214.238-27.242c5.976 0 17.136.816 25.063 7.144l-14.259-29.25-10.804 22.106zm47.966 27.237h-13.291c-4.695-9.503-16.927-23.269-37.239-21.945l-10.685 21.945h-8.279l32.711-63.674h4.191l32.592 63.674zM247.836 111.77c-3.361-1.771-11.753-4.367-20.416-4.22-15.309.389-25.514 6.632-25.619 17.915-.066 2.231.422 5.065 1.785 7.495 7.405 12.688 38.084 10.604 38.084 24.199 0 3.888-3.712 10.272-14.25 10.272-11.459 0-20.188-5.293-24.37-8.573l-3.019 9.185c3.555 1.832 13.125 5.321 26.862 5.321 6.161 0 13.158-1.666 18.28-5.653 4.965-3.897 7.201-8.696 7.201-14.63 0-22.49-39.218-16.837-39.218-30.963 0-2.335 1.291-4.011 1.747-4.585 2.127-2.758 6.783-4.424 12.669-4.424 5.483 0 11.255 1.846 16.984 6.404l3.28-7.743z"/><path d="M157.636 126.74l-.223.366c-14.198 24.698-40.809 41.331-71.355 41.331-45.427 0-82.253-36.821-82.253-82.244 0-14.891 3.964-28.856 10.903-40.908l.18-.323-.09-.309-.304.114-.209.29c-1.229 1.771-2.373 3.636-3.475 5.52-22.581 39.422-8.658 89.839 31.106 112.63 39.75 22.794 90.309 9.323 112.87-30.081a68.41 68.41 0 003.047-5.801l.176-.384-.095-.323-.278.119z" fill="#b09255"/><path d="M65.925 22.62c-11.696 2.492-31.343 14.521-35.521 34.486C43.012 42.22 56.141 34.402 66.19 32.574c-10.282 7.694-19.946 25.642-16.946 38.231 5.44-13.377 14.976-26.459 23.71-31.224-4.946 8.16-6.57 27.878-1.832 36.574 1.111-11.283 4.676-25.96 10.296-33.204l1.671 14.155h-1.918l2.017 14.411h-1.6l1.676 14.411h-1.377l2.117 14.402-6.812 3.484v.494H94.95v-.494l-6.814-3.484-2.07 1.604 2.055-1.604 2.089-14.402h-1.367l1.68-14.411h-1.609l2.032-14.411h-1.927l1.676-14.155c5.625 7.244 9.18 21.921 10.296 33.204 4.747-8.696 3.109-28.414-1.828-36.574 8.739 4.766 18.261 17.848 23.725 31.224 2.986-12.589-6.669-30.536-16.956-38.231 10.049 1.828 23.165 9.645 35.763 24.532-4.153-19.965-23.796-31.994-35.511-34.486 12.892-1.281 25.448 2.848 36.826 8.378-12.366-14.264-31.021-19.448-43.353-18.033 2.079-2.207 4.101-3.38 7.248-4.31-5.217-2.435-13.32-1.158-16.481 2.383 0 0-.579-6.617-4.358-9.218-3.802 2.601-4.362 9.218-4.362 9.218-3.176-3.541-11.269-4.818-16.472-2.383 3.138.93 5.141 2.103 7.248 4.31-12.351-1.414-31.021 3.769-43.377 18.033 11.408-5.53 23.949-9.66 36.822-8.378" fill="#b09255"/><path d="M89.576 114.58c-.973.641-2.184 1.457-3.522 2.373a312.865 312.865 0 00-3.517-2.373c-5.231-3.513-49.438-33.095-68.549-12.166 17.635-6.997 43.766 6.214 65.283 19.182-5.388 3.684-11.525 7.913-16.728 11.445-8.264-8.013-11.331-6.731-12.076-6.413-.807.337-1.377 1.087-1.415 2.008-.014 1.21.916 2.226 2.093 2.259 1.187.029 2.188-.945 2.207-2.15l-.047-.494c2.288 1.443 4.415 3.389 9.76 8.896 5.43 5.63 7.543 7.177 9.142 8.117 1.101.641 2.222.802 2.91.745 1.12-.052 2.241-.864 2.293-2.131.066-1.258-.869-2.298-2.084-2.307-1.191-.028-2.203.944-2.203 2.198v.209c-1.476-1.073-3.057-3.005-6.209-6.413 5.179-2.957 11.772-7.225 19.139-11.815 7.362 4.59 13.951 8.858 19.13 11.815-3.142 3.408-4.723 5.34-6.214 6.413l.005-.209a2.173 2.173 0 00-2.212-2.198c-1.22.01-2.146 1.049-2.07 2.307.052 1.267 1.158 2.079 2.288 2.131.684.057 1.799-.104 2.919-.745 1.6-.94 3.707-2.488 9.147-8.117 5.331-5.506 7.476-7.453 9.75-8.896l-.043.494c.033 1.206 1.025 2.179 2.193 2.15 1.177-.033 2.122-1.049 2.108-2.259a2.273 2.273 0 00-1.415-2.008c-.745-.318-3.816-1.6-12.081 6.404-5.198-3.522-11.359-7.752-16.728-11.435 21.522-12.968 47.658-26.179 65.283-19.182-19.112-20.929-63.315 8.653-68.537 12.165" fill="#b09255"/><path d="M40.243 142.15c-.679-.299-1.381-.688-1.747-.74-.242-.029-.465.024-.622.194-.142.176-.195.546-.043.845.095.218.351.626 1.04 1.225 2.891 2.511 8.706 4.756 24.033-3.817-.47-.465-.945-.968-1.453-1.476-1.03-1.063-1.932-1.994-2.729-2.796-8.093 5.118-14.516 8.184-18.479 6.565m91.633 0c-3.968 1.619-10.386-1.448-18.479-6.565-.807.802-1.69 1.733-2.739 2.796-.494.508-.978 1.011-1.429 1.476 15.294 8.573 21.128 6.328 24.014 3.817.698-.598.945-1.007 1.044-1.225.166-.299.114-.669-.047-.845-.142-.171-.361-.223-.608-.194-.36.052-1.063.441-1.756.74" fill="#b09255"/></svg>