<svg width="426.671" height="84.839" viewBox="0 0 400 79.538" xmlns="http://www.w3.org/2000/svg"><defs><style/><style/><style/><style><![CDATA[.fil0{fill:#C52F33}.fil1{fill:#C52F33;fill-rule:nonzero}]]></style></defs><path d="M32.694 3.717l-1.602 1.822h31.324L60.71 3.717H32.694zM19.876 6.789l-1.352 1.47h46.61l-1.366-1.47H19.877zM18.7 9.419l1.97 1.897h22.27l1.91-1.896H18.7zm50.876 3.146l-42.466.03 1.529 1.543h42.407l-1.47-1.573zm-40.438 2.72s.212.612.25 1.014c.058.517 0 1.058 0 1.058h7.482l2.029-2.072h-9.76zm0 3.145l-1.205 1.647H77.03l-1.602-1.647H29.141zm-2.307 2.646l-2 1.896h7.13l1.396-1.896h-6.526zm-3.308 3.175l-1.322 1.5h60.456l-1.367-1.5H23.524zm-2.146 2.705s-.462.524-.75.926c-.286.42-.528 1.132-.528 1.132h9.716s.076-.711.19-1.132c.135-.402.25-.926.25-.926h-8.878zm-1.822 3.13s-.187.33-.397.75c-.21.402-.353.78-.353.78h69.836l-1.514-1.53H19.554zm-1.206 2.72s-.282.54-.396 1c-.134.459-.25.984-.25.984H29.96s-.04-.496-.117-.955c-.096-.44-.088-1.029-.088-1.029H18.349zm-.896 3.13s-.174.388-.25.81c-.096.401-.132.778-.132.778h77.404l-1.353-1.587H17.45zm-.456 2.779s-.054.555-.073 1.014c-.039.46-.06.97-.06.97h15.832l-1.456-1.984H16.997zm-.103 3.19s.044.449.044.793c0 .326.015.691.015.691h83.477l-1.28-1.484H16.893zm.22 2.719s.056.68.133 1.044c.077.382.28.984.28.984h23.768s-1.284-.572-2.279-.955c-.995-.363-2.146-1.073-2.146-1.073H17.115zm49.963.044l-1.984 1.984h14.023l-1.955-1.984H67.077zm-49.229 3.263s.068.367.221.75c.172.363.28.647.28.647h88.165l-1.572-1.397H17.848zM1.856 50.533L.18 52.356h85.034l1.749-1.823H1.854zM.004 53.708l1.455 1.5h110.829l-1.53-1.5H.002zm22.284 2.749l1.44 1.734h66.985l-1.822-1.734h-66.6zm-19.683.03l1.735 1.645h6.026l-1.778-1.646H2.605zm3.352 3.174l1.484 1.426h5.777l-1.22-1.426H5.957zm19.417.044s.461.375.882.662c.402.287.897.72.897.72h91.12l-1.308-1.382h-91.59zm-16.786 2.69l1.925 1.779h5.939l-1.808-1.779H8.588zm20.55 0s.784.46 1.645.823c.88.383 2.411.956 2.411.956h16.742l3.72-1.779h-24.52zm48.89 0s.249.37.631.867c.364.498.75.897.75.897l17.345-.015-1.823-1.749H78.027zm-66.205 3.22l1.455 1.381h5.865l-1.455-1.382h-5.865zm68.984 0l2.102 1.41h41.172s-.254-.421-.426-.632l-.706-.779H80.807zm3.763 2.66s.753.5 1.69.94c.957.46 2.764.985 2.764.985h35.557s-.389-.492-.676-.779a87.495 87.495 0 00-1.205-1.146H84.57zm-69.996.044l1.853 1.808h5.953l-1.926-1.808h-5.88zm3.131 3.087l1.19 1.367h6.042l-1.323-1.367h-5.908zm91.21.161s1.024.301 2.63.588c1.608.287 4.455.868 4.455.868h14.14l-1.308-1.456h-19.917zM20.382 74.17l1.999 1.911h2.631v-1.91h-4.63zm100.01.132l3.234 1.955h6.805l-1.778-1.955h-8.26zm-96.91 3.058l1.572 1.5v-1.5h-1.573zm103.35.25s.59.36 1.278.646c.708.287 2.073.72 2.073.72h5.659l-1.073-1.366h-7.938zm30.416-27.317c.708.038 33.48 0 34.055.038.593.039.822.096.88.919.038.822-.02 15.286-.02 17.276 0 1.97 1.13 3.999 4.305 3.999s4.343-1.99 4.382-3.75c.038-1.78 0-17.124 0-17.736 0-.612.153-.746.746-.746h7.806c.573 0 .65.134.688.88.058.746.02 11.403-.019 16.894-.057 5.491-2.487 11.518-13.641 11.44-11.154-.076-13.565-6.561-13.565-11.153v-9.68c0-.536-.21-.862-.86-.823-.67.038-6.18 0-6.716 0-.536 0-.918.21-.937.88 0 .765 0 18.558-.02 19.228-.019.593-.095.746-.67.746-.592 0-7.518.019-8.016 0-.459 0-.535-.23-.535-.766 0-.535-.058-18.71-.02-19.304.058-.574-.153-.784-.727-.784-.593 0-6.122.019-7.002.019-.727 0-.823-.249-.823-.938 0-.708.058-5.185 0-5.797-.038-.612-.076-.88.708-.841zm57.282-.019c.612 0 7.06.02 7.442.02.363 0 .65-.04 1.033.573.363.632 8.341 13.029 8.705 13.641.383.612.746.708.708-.172-.038-.86-.077-12.474-.115-13.125-.057-.67.192-.918.785-.918.574 0 6.638-.02 7.308-.02.65 0 .823 0 .823.88 0 .862.038 25.657.096 26.48.038.822.038 1.07-.995 1.07s-6.658.02-7.194-.018c-.536-.039-.823-.115-1.244-.747-.42-.612-8.303-12.684-8.686-13.22-.363-.536-.784-1.32-.688-.038.076 1.282.363 12.417.363 13.086 0 .65-.038.995-.86.957-.823-.058-6.735.02-7.405-.02-.65-.038-.65-.21-.65-1.205s-.058-25.904-.058-26.517c0-.612.058-.708.632-.708zm32.065 0c.67-.038 7.27.057 7.844.02.593-.04.746 0 .784.707.057.689.134 26.039.096 26.747-.039.688 0 .937-.995.937s-6.945.02-7.653.02c-.689 0-.861-.21-.861-1.167 0-.957.038-25.14 0-26.059-.038-.899.115-1.147.784-1.205zm12.36 19.649h7.633c.497 0 .67.134.88.67.21.535 1.033 2.257 4.285 2.257 2.66 0 3.444-1.071 3.444-1.97 0-.919-.459-1.78-2.104-2.2-1.665-.403-6.658-1.436-8.725-2.469-2.353-1.186-5.452-2.602-5.452-7.768 0-5.088 4.744-8.82 11.651-8.858 11.613-.038 12.55 7.175 12.761 7.96.21.784.21 1.071-.497 1.071-.689 0-7.194-.02-7.73-.02-.535 0-.611-.248-.86-.822s-.861-1.645-3.559-1.645c-2.276 0-2.85.937-2.85 1.856 0 .899.784 1.511 2.85 2.066 2.315.612 8.476 1.894 10.58 3.635 2.105 1.74 2.985 3.348 2.985 6.696s-2.602 6.2-4.553 7.309c-1.933 1.11-5.587 1.702-7.978 1.702-2.392 0-8.304-.784-10.79-3.73-2.469-2.927-2.43-4.458-2.545-4.994-.134-.535-.096-.746.574-.746zm24.699 7.997c.268-.746 9.221-26 9.47-26.67.249-.65.498-.9 1.072-.9h8.188c.613 0 .9.116 1.11.747.21.612 9.432 26.039 9.68 26.651.25.632.536.919-.497.957-1.033.038-7.232.02-7.806.02-.593 0-.803-.077-.994-.709-.21-.612-.536-1.894-.67-2.391-.115-.498-.536-.67-1.244-.613-.688.039-6.81 0-7.557.039-.746.057-.822.172-.994.803-.154.612-.402 1.626-.613 2.296-.21.65-.631.612-1.129.612-.478 0-7.136-.095-7.671-.057-.536.038-.574-.096-.345-.785zm11.919-9.298c.172-.708 2.181-7.672 2.353-8.361.153-.708.44-.631.689.077.249.707 2.41 7.94 2.564 8.38.172.458-.249.535-.746.535-.976 0-3.425.02-4.382-.02-.535-.019-.612-.114-.478-.612zm19.572 8.896c0-.688-.038-25.388-.038-26.21s.134-.9 1.033-.938c.918-.057 6.773-.02 7.442-.02.67 0 1.071-.095 1.071.824 0 .899.039 26.019.039 26.65 0 .613 0 .938-.689.938-1.033 0-7.538.038-8.189 0-.67-.038-.67-.325-.67-1.244zm14.387-27.186c.612-.038 9.796.02 14.674.02s10.695 1.587 10.695 8.245c0 4.955-3.176 6.371-3.75 6.62s-.67.325-.038.612c.612.287 3.29 1.167 3.712 4.266s.325 6.065.325 6.697c0 .612.287.822.631.975.326.172.44.957-.095.957-.536 0-7.672 0-8.38.038-.708.038-.957-.364-1.071-1.358-.134-.995-.134-4.171-.21-5.338-.077-1.148-.364-2.009-1.36-2.564-.994-.535-2.123-.574-2.945-.574s-2.411.02-2.909.02c-.497 0-.784.133-.746 1.09.038.938.02 7.251.02 7.787 0 .535.134.88-.785.86-.976 0-6.945.02-7.557.02-.631 0-.842-.172-.842-.938.02-1.205.02-25.58-.038-26.363-.038-.785.058-1.034.67-1.072zm9.126 7.022c.919 0 3.77-.039 5.223 0 1.435.057 2.43 1.32 2.43 2.602 0 1.281-1.071 2.908-2.353 2.908-1.282 0-4.917.038-5.3 0-.363-.038-.689-.326-.689-.995v-3.941c0-.421.25-.574.69-.574M316.84-.032c-.154-.02-.22.247-.22.618 0 .574.018 27.51 0 28.428-.039.918-.124 1.02-1.177 1.058-.822.02-1.64-.038-2.234 0-.612.02-.72-.314-.72-.926l.015-15.258c0-.574-.36-.382-.647 0-.306.383-1.743 2.286-4.498 4.792-2.755 2.507-5.572 3.787-7.408 5.777-1.856 1.99-2.24 4.57-2.279 5.336-.019.784 0 4.238 0 4.85 0 .632.102.744.676.706.574-.02 7.573 0 8.07 0 .497 0 .647.024.647.617 0 .842-1.397 5.013-6.218 5.013-4.439 0-5.73-2.947-5.997-3.425-.268-.46-.578-.395-.559.103.038.497.739 2.843 2.499 4.718 1.78 1.875 4.523 2.827 6.762 2.807 2.238-.038 4.507-.81 6.688-2.895 2.18-2.105 2.377-4.937 2.396-5.836.038-.918.346-1.121.882-1.102.555.038 75.823 0 76.36 0 .516 0 .44-.247.25-.324-.192-.076-.425-.234-.75-.617-.345-.383-.813-.873-.794-2.117.038-1.243 0-31.055 0-31.705 0-.67-.344-.5-.573-.06-.21.441-1.064 1.842-2.881 3.793a14.844 14.844 0 01-4.41 3.234c-.497.21-.396.462-.147.5.249.019.647.02 1.279.44.631.403 1.146 1.2 1.146 2.75 0 1.53.03 17.241.03 17.815 0 .612-.07.985-.28.985-.23 0-1.428.038-1.734 0-.287-.02-.441-.243-.441-.53 0-.306-.25-2.5-1.455-4.012-1.206-1.512-3.023-2.515-5.012-2.573-1.99-.057-9.8.01-10.643.03-.746 0-2.998.013-4.204-1.059-1.645-1.454-1.41-3.21-1.41-3.88 0-.65-.285-.437-.515-.074-.21.345-1.559 3.075-3.778 5.41-2.238 2.353-5.195 4.105-5.865 4.468-.67.344-.508.565-.03.603.46.019 26.118-.02 26.577 0 .574.019.985.334.985.794 0 .478-.31.784-.941.823-.65.019-27.667.03-28.413.03-.746 0-.676-.355-.676-.604 0-.248.051-1.758-1.25-3.557-1.052-1.454-3.12-2.841-5.262-2.822-2.143.02-10.682-.038-12.48 0-1.78.02-4.017-1.727-3.998-4.233.038-2.507 0-4.67 0-5.895 0-1.205-.084-2.909.47-3.865.536-.976 1.455-1.101 1.838-1.235.382-.153.424-.372.117-.544-.306-.153-1.908-1.01-4.012-2.808-2.124-1.779-2.99-3.47-3.41-4.16-.151-.258-.276-.37-.368-.382zm75.287.06c-.177.02-.274.39-.25.808.02.65.024 33.616-.014 33.998-.02.364-.002.496.323.515.344.038 6.166 0 6.453 0 .268 0 .305-.31.132-.368-.172-.038-.306-.21-.632-.573-.325-.344-.672-.649-.69-1.338-.02-.688-.039-20.52 0-22.548.018-2.009 1.476-2.453 2.145-2.587.67-.134.38-.323.074-.515-.306-.191-1.756-.994-3.63-2.601-1.876-1.588-3.06-3.558-3.5-4.38-.164-.31-.305-.425-.41-.412zM240.946.1c-.12-.015-.268.108-.383.338-.21.478-.962 1.998-2.836 3.968-1.875 1.952-3.795 2.97-4.293 3.22-.497.248-.394.326-.088.44.306.115.677.09 1.308.53.632.44 1.068 1.268 1.03 2.263-.02.976.043 18.175.043 18.653 0 .46-.174.51-.5.53-.325.038-2.274.038-2.733 0-.479-.02-.632-.135-.632-.824V13.771c0-.402-.322-.346-.456-.06-.134.307-1.033 1.991-2.984 4.058-1.952 2.066-3.796 2.945-4.351 3.175-.555.21-.42.44-.132.44.268 0 .765.128 1.396.53.631.42.956 1.149.956 1.646 0 .478.044 5.069.044 5.777 0 .727-.233.696-.75.735-.536.019-6.002-.03-6.614-.03-.593 0-.72-.21-.72-.764v-15.83c0-.556-.237-.425-.486-.118-.248.306-1.32 1.923-4.248 4.66-2.908 2.716-5.156 3.696-7.452 6.01-2.277 2.316-2.381 4.842-2.381 5.836 0 .995.014 4.748.014 5.13 0 .364.073.397.456.397s6.832-.015 7.732-.015c.918 0 .74.138.779.941.019.708-1.528 4.645-6.1 4.645-4.286 0-5.783-3.133-6.012-3.44-.21-.306-.38-.259-.324.162.058.402.504 2.342 1.882 4.16 1.377 1.818 4.127 3.307 6.806 3.307 2.66 0 4.476-.569 6.6-2.616 2.219-2.124 2.563-5.672 2.601-6.38.02-.726.248-.778.765-.778h23.827c.42 0 .425-.293.176-.427s-.621-.245-.985-.646c-.344-.421-.726-.791-.764-2.073-.02-1.3.014-31.16.014-31.677 0-.267-.086-.411-.205-.426zm4.615.088c-.2-.034-.285.304-.309.735-.019.689-.023 32.753.015 33.499.02.746.088.947.47.985.402.019 6.073.053 6.571.015.497-.02.363-.272.191-.368-.153-.076-.283-.135-.647-.44-.363-.288-.97-.735-.97-1.691 0-.957.053-20.106.015-22.21-.02-2.086 1.41-2.454 2.175-2.588.766-.134.481-.44.118-.632-.364-.191-1.936-.951-3.983-2.807-2.028-1.837-2.783-3.376-3.146-3.97-.208-.35-.38-.508-.5-.528zm25.136.367c-.153-.014-.343.104-.515.324-.325.44-1.755 2.534-3.19 3.968-1.434 1.435-3.26 2.42-3.968 2.764-.708.325-.308.378-.059.397.249.038.577-.014 1.323.426s1.123 1.424 1.161 2.763c.02 1.359 0 17.183 0 17.948 0 .765-.162.896-.602.896h-3.69c-.478 0-.69.165-.69.47v2.632c0 .88-.963 1.53-1.441 1.779-.46.248-.243.421.235.44.459.039 32.803-.008 33.587.03.765.02.844-.235.882-.617.02-.383-.034-3.985-.015-5.439.039-1.951-1.114-3.633-1.822-4.321-.708-.69-2.292-1.95-4.454-1.97-2.181-.038-8.72.034-11.686.015-3.023-.039-4.768-1.92-4.807-4.101-.019-1.454.015-17.422.015-17.977 0-.278-.112-.412-.265-.427zm84.666 2.176c-1.53 0-2.792 1.233-2.792 2.763a2.808 2.808 0 002.792 2.808c1.53 0 2.764-1.258 2.764-2.808a2.758 2.758 0 00-2.764-2.763zm-241.445.014a2.783 2.783 0 00-2.793 2.779 2.784 2.784 0 002.793 2.792c1.53 0 2.763-1.243 2.763-2.792a2.77 2.77 0 00-2.763-2.779zm83.768.015a2.77 2.77 0 00-2.764 2.778 2.771 2.771 0 002.764 2.793 2.784 2.784 0 002.793-2.793 2.783 2.783 0 00-2.793-2.778zm31.53 0a2.77 2.77 0 00-2.764 2.778 2.77 2.77 0 002.763 2.778 2.783 2.783 0 002.793-2.778 2.783 2.783 0 00-2.793-2.778zm-108.13.03c-1.53 0-2.777 1.262-2.777 2.792a2.77 2.77 0 002.778 2.764 2.77 2.77 0 002.792-2.764 2.796 2.796 0 00-2.792-2.792zm101.027 0a2.758 2.758 0 00-2.764 2.763 2.77 2.77 0 002.764 2.778c1.53 0 2.793-1.247 2.793-2.778 0-1.53-1.263-2.763-2.793-2.763zm-96.605 5.703c-.134.005-.308.183-.5.47-.363.574-2.72 3.272-5.38 5.454-2.64 2.2-3.784 2.644-5.659 4.174-1.856 1.53-2.607 3.693-2.837 5.454-.268 1.779-.176 4.823-.176 5.32 0 .574.161.677.544.677.382 0 7.399.019 8.01 0 .613-.02.647.255.647.867 0 .574.04 2.369-.323 3.057-.363.689-.782.769-1.088.941-.306.153-.352.456.088.456.44 0 81.643.023 82.39-.015.613-.02.223-.482-.485-.94-.497-.307-.676-.78-.676-1.603V13.8c0-.535-.216-.438-.426-.132-.23.287-1.28 2.108-3.307 4.175-2.047 2.066-3.389 2.546-4.116 2.91-.708.344-.513.514-.265.514.25 0 .557.081 1.265.368.822.306 1.098 1.323 1.117 2.146.019.823 0 5.25 0 5.747 0 .498-.044.515-.427.515h-5.188c-.479 0-.506-.102-.544-.676-.02-.574-.015-14.732-.015-15.287 0-.555-.26-.373-.47.03-.23.382-1.177 2.094-3.013 4.027a15.833 15.833 0 01-4.366 3.19c-.574.267-.268.398 0 .455.268.057.775.098 1.426.5.631.42.877.98.896 1.764.02.803 0 4.798 0 5.277 0 .497-.148.72-.588.72-.44 0-3.333.049-3.792.03-.46-.039-.494-.256-.456-.677.02-.42-.063-6.058-.044-6.747.039-.689-.267-.616-.573-.367-.306.249-.683.692-2.175 1.573-1.493.88-2.878 1.062-3.337 1.234-.478.173-.078.366.132.5.23.134.388.524.426.926.02.383-.014 2.306-.014 2.822 0 .517-.204.687-.53.706-.325.038-3.152 0-3.63 0-.46 0-.441-.19-.441-.706 0-.535.038-6.517 0-6.938-.02-.42-.301-.42-.588-.19-.306.21-1.155 1.074-2.514 1.763-1.396.689-2.486.88-2.984 1.014-.497.153-.306.396 0 .53.307.134.5.438.5.955 0 .536.024 2.375-.014 2.91-.02.555-.154.662-.633.662-.459 0-21.193-.038-21.71 0-.516.019-.53-.18-.53-.735 0-.555.024-14.798-.014-15.449-.019-.67-.266-.547-.514-.088-.249.478-1.103 1.876-2.94 3.866-1.856 1.99-3.839 2.936-4.336 3.204-.498.287-.19.426.058.426.25 0 .557.13 1.265.588.708.46.955 1.218.955 2.117v5.483c0 .497-.129.632-.588.632-.44 0-6.262-.038-6.703 0-.459.038-.632-.133-.632-.574 0-.459.044-19.556.044-20.416 0-.44-.086-.608-.22-.603zm-5.82 12.964c.363.02.514.23.514.632 0 .421.034 2.237.014 2.543-.038.287-.099.515-.75.515h-2.513c-.325 0-.367-.182-.367-.603 0-.44.357-1.588 1.161-2.22.804-.631 1.577-.886 1.94-.867zm92.502 4.807c.306-.058.612.13.574.456-.02.325.038 2.5 0 2.807-.02.287-.085.476-.544.515-.479.019-2.16 0-2.543 0-.46 0-.575-.332-.441-.868.134-.555.563-1.572 1.367-2.146.784-.574 1.3-.707 1.587-.764zm94.413.397c.21.038.323.09.323.397v2.498c0 .326.044.515-.588.515h-2.557c-.287 0-.613-.102-.441-.676.153-.574.503-1.514 1.44-2.088.938-.593 1.593-.665 1.823-.646zm-32.514 1.749c4.334-.005 12.698.015 13.214.015.689 0 .99.473.97.779-.019.382-.377.837-.97.837l-15.684.03c-.459 0-.74-.28-.72-.47.038-.192.01-.407.03-.618.038-.306.162-.54.602-.558.11-.01 1.113-.013 2.558-.015zm48.772.03c.44 0 15.595-.02 16.17 0 .573.038.743.503.705.867-.02.344-.19.735-.706.735-.535 0-15.786.057-16.169 0-.402-.058-.445-.509-.426-.853.02-.306-.014-.75.426-.75zM132.963 39.405a2.783 2.783 0 00-2.778 2.778 2.783 2.783 0 002.778 2.793 2.784 2.784 0 002.793-2.793 2.783 2.783 0 00-2.793-2.778zm7.159 0a2.783 2.783 0 00-2.778 2.778 2.783 2.783 0 002.778 2.793 2.783 2.783 0 002.778-2.793 2.783 2.783 0 00-2.778-2.778z" fill="#d40000" fill-rule="evenodd"/></svg>