<svg width="834.557" height="391.597" viewBox="0 0 220.81 103.61" xmlns="http://www.w3.org/2000/svg"><path class="cls-1" d="M219.808 79.644v-6.146h-12.82v-8.393h12.074V59.06h-12.073v-8.223h12.686v-6.09h-19.489v34.898zM146.84 55.59c0 .966-.177 2.283-.49 2.984-.312.702-1.243 1.188-2.4 1.23h-5.78V50.81h5.513c1.424 0 2.49.659 2.802 1.712a13.324 13.324 0 01.355 3.069m6.802-.614c0-3.03-.49-5.093-1.378-6.805-1.156-2.193-3.868-3.424-7.247-3.424h-13.692V79.64h6.755V65.464h4.98l4.762 14.176h7.379l-5.739-15.849c1.201-.307 2.4-1.323 3.156-2.852.625-1.323 1.024-3.249 1.024-5.971M126.56 79.644v-6.136H99.84v-8.403h25.65V59.06H99.84v-8.223h26.407v-6.09h-33.12v34.898zM71.05 44.746h-7.157l8.623 34.898h8.58L89.9 44.746h-6.935L76.92 71.085zM38.23 102.4h-2.429l7.62-14.552h2.725l7.38 14.552H51.04l-1.852-3.596h-9.067zm7.144-11.234l-.651-1.352-.648 1.352-2.948 5.58h7.102c.013 0-2.86-5.58-2.86-5.58zM55.32 102.4V87.848h2.355V102.4zm19.44-8.1a3.215 3.215 0 01-2.447 1.587l4.394 6.525h-2.67l-4.06-6.146H63.34v6.135h-2.28V87.85h9.416c2.188 0 3.506.686 4.191 1.704a4.331 4.331 0 01.611 2.41 4.638 4.638 0 01-.518 2.337zm-2.04-3.41c-.389-.63-1.13-.966-2.521-.966h-6.84v4.297h7.265c1.114-.019 1.8-.297 2.096-.834a3.048 3.048 0 00.265-1.243 2.82 2.82 0 00-.265-1.254zm6.05 11.51V87.848h2.318v12.42h10.028v2.132zm14.36 0V87.848h2.355V102.4zm17.7 0l-9.715-11.377V102.4H98.87V87.848h2.617l9.638 11.308V87.848h2.207V102.4zm5.94 0V87.848h13.441v2.117h-11.179v4.042h10.864v2.117h-10.864v4.151h11.308v2.133zm23.31.21c-4.374 0-6.636-1.019-7.601-2.78a4.82 4.82 0 01-.575-1.964h2.45a2.381 2.381 0 00.352 1.074c.667 1.074 2.337 1.633 5.45 1.633 3.803 0 4.988-.929 4.988-2.207 0-1.392-1.037-1.892-4.355-2.3-.65-.073-1.966-.221-2.707-.314-4.283-.503-5.934-1.67-5.934-3.969s2.116-4.151 7.23-4.133c4.284 0 6.35 1.241 7.343 2.966a5.292 5.292 0 01.5 1.5h-2.484a2.328 2.328 0 00-.37-.87c-.723-1-2.17-1.558-4.988-1.558-3.633 0-4.84.688-4.84 1.892 0 1.203 1.096 1.725 4.692 2.15.76.093 2.17.241 2.818.334 3.873.445 5.45 1.67 5.45 4.043-.003 2.818-2.19 4.503-7.419 4.503zm-7.19-71.47c-4.934 0-8.226-1.058-10.761-3.201-2.4-2.003-3.466-5.07-3.466-8.893 0-3.466.934-6.578 2.844-8.4 2.268-2.226 5.914-3.647 11.337-3.647 5.602 0 8.893 1.323 11.377 3.556 2.046 1.778 2.845 5.028 2.845 8.491s-.844 6.615-2.89 8.493c-2.534 2.4-5.958 3.601-11.292 3.601M132.84.996c-7.868 0-13.16 1.955-16.984 6.003-2.889 3.022-4.177 6.98-4.177 11.957 0 5.47 1.643 9.605 4.58 12.54 3.598 3.6 9.067 5.6 16.58 5.6 7.737 0 13.56-1.91 16.985-5.733 2.712-2.937 4.177-7.025 4.177-12.406 0-5.292-1.2-9.247-4.132-12.224-3.736-3.823-9.16-5.736-17.03-5.736M59.17 22.61h-5.794c.878-3.643 2.15-9.044 2.415-10.448.22-1.14.614-4.08.614-4.08s.352 2.94.572 4.038c.306 1.447 1.404 7.022 2.193 10.49m-7.144 5.488h8.385l1.799 8.467h6.935L61.146 1.672h-9.218l-8.65 34.899h6.851zM42.61 23.27h-7.112a7.083 7.083 0 01-1.69 3.913c-2.358 2.712-6.004 3.778-11.606 3.778-4.762 0-9.79-1.323-12.136-4.622-1.246-1.556-2-3.868-2-7.247 0-3.069.53-5.379 1.733-6.935 2-3.114 6.268-4.847 12.27-4.847 5.958 0 9.649 1.646 11.56 3.868a7.038 7.038 0 011.777 3.914h7.115a14.288 14.288 0 00-1.823-5.914c-2.887-4.844-8.266-8.136-18.531-8.136-9.382 0-14.983 2.935-18.14 7.247C2.02 10.877 1 14.512 1 19.047c0 4.98 1.243 8.713 3.424 11.377 3.066 4.09 8.98 6.668 17.96 6.668 9.646 0 15.248-2.89 18.05-7.38a15.52 15.52 0 002.177-6.447m60.059-5.105c1.63-.315 4.781-.648 4.781-7.824 0-8.67-5.382-8.67-9.962-8.67H72.526v34.899h26.04c4.763 0 10.673.047 10.673-9.734 0-8.014-4.966-8.496-6.57-8.67zM79.194 7.402h17.978c1.868 0 3.924 0 3.924 4.313 0 4.445-1.791 4.445-3.302 4.445h-18.6zm19.235 23.384H79.194v-8.935h19.368c2.445 0 4.323 0 4.323 4.445 0 4.49-1.833 4.49-4.455 4.49zM194.46 50.93c-2.312-3.969-6.847-6.18-14.671-6.18h-20.852v34.898h21.116c7.74 0 12.229-2.4 14.494-6.667 1.556-2.577 2.135-5.869 2.135-11.247 0-5.078-.58-8.271-2.222-10.803zm-6 18.939c-1.604 2.58-4.58 3.778-9.827 3.778H165.74V50.708h13.16c4.98 0 7.823 1.201 9.469 3.778 1.058 1.466 1.466 4.09 1.51 7.425 0 3.513-.309 6.357-1.42 7.958z" fill="#030103"/></svg>