<svg width="234.73" height="69.28" viewBox="0 0 62.106 18.33" xmlns="http://www.w3.org/2000/svg"><g fill-rule="evenodd"><path d="M19.076 11.436a4.758 4.758 0 00-.634-1.041 4.903 4.903 0 00-.839-.788 2.076 2.076 0 00-.508-.305c-.076-.05-.178-.101-.254-.152a1.16 1.16 0 00.254-.127 2.08 2.08 0 00.508-.305c.305-.228.584-.482.839-.787.253-.305.457-.66.634-1.042s.305-.787.381-1.219a10.8 10.8 0 00.051-.889v-.406a4.008 4.008 0 00-.228-1.067c-.127-.33-.28-.686-.483-.99a4.743 4.743 0 00-.711-.89 6.332 6.332 0 00-.914-.71A4.325 4.325 0 0016.054.26a4.157 4.157 0 00-1.27-.203 5.049 5.049 0 00-1.245.101 5.17 5.17 0 00-1.092.433c-.355.177-.66.406-.94.685a3.854 3.854 0 00-.66.89c-.178.33-.305.685-.356 1.066-.05.203-.05.38-.05.584 0 .178 0 .33.025.483-.356-.204-.711-.381-1.067-.483-.432-.152-.94-.229-1.448-.254-.482 0-.94.05-1.371.153a4.207 4.207 0 00-1.194.431c-.33.178-.686.407-1.016.686-.203.178-.406.356-.61.559 0 0-.304.305-.457.508-.178.178-.355.406-.533.635l-.407.508c-.101.152-.203.28-.33.406-.152.203-.33.381-.508.56a6.019 6.019 0 01-.99.812l-.229.152-.152.076c-.051.026-.102.051-.102.102 0 .076.05.102.102.127l.152.076.229.153c.355.228.686.508.99.812.178.178.356.356.508.56.127.126.229.253.33.406l.407.508c.178.228.355.457.533.635.153.203.457.482.457.482.204.229.407.407.61.584.33.28.686.508 1.016.686a4.22 4.22 0 001.194.432c.432.127.889.152 1.371.152.508-.025 1.016-.101 1.448-.254.356-.101.711-.279 1.067-.482-.025.152-.025.305-.025.482 0 .204 0 .381.05.585.051.38.178.736.356 1.066.178.33.406.635.66.89.28.279.585.507.94.685.33.178.711.33 1.092.432a5.05 5.05 0 001.245.102 4.16 4.16 0 001.27-.204 4.31 4.31 0 001.118-.457c.33-.203.635-.457.914-.711.28-.28.508-.559.71-.89.204-.304.357-.66.484-.99.127-.355.203-.71.228-1.092v-.38c0-.28-.025-.585-.05-.89a4.87 4.87 0 00-.382-1.219" fill="#fbc707"/><path d="M18.01 11.842a3.494 3.494 0 00-.585-.914 2.998 2.998 0 00-.812-.686 3.227 3.227 0 00-1.016-.431 3.322 3.322 0 00-1.118-.178c-.406 0-.787.05-1.194.152a4.15 4.15 0 00-.94.33 3.86 3.86 0 00-.761.483c-.23.152-.458.33-.66.508-.23.152-.433.305-.661.457a4.328 4.328 0 01-.686.356c-.28.076-.559.127-.838.127-.381 0-.762-.076-1.118-.229a2.576 2.576 0 01-.914-.635 2.319 2.319 0 01-.61-.94c-.152-.33-.203-.71-.203-1.092 0-.355.05-.736.203-1.067.127-.355.33-.66.61-.94.254-.279.559-.482.914-.634A2.838 2.838 0 018.74 6.28c.28 0 .559.05.838.127.254.102.483.229.686.356.228.152.432.304.66.482.203.153.432.33.66.508.23.153.483.33.763.457.304.153.61.254.94.33.406.102.787.153 1.193.153.38 0 .762-.05 1.118-.152a4.043 4.043 0 001.016-.458c.304-.177.584-.406.812-.685a3.53 3.53 0 00.585-.915 4.09 4.09 0 00.304-1.092 3.933 3.933 0 00-.025-1.22c-.076-.38-.203-.761-.381-1.091s-.406-.61-.66-.864a3.674 3.674 0 00-.89-.66 5.04 5.04 0 00-1.04-.356 3.422 3.422 0 00-1.144-.05 3.25 3.25 0 00-1.067.33c-.304.152-.61.38-.838.635-.254.253-.432.558-.584.888-.127.33-.229.686-.254 1.042 0 .355.025.736.153 1.092 0 .05.025.102.05.152 0 .026 0 .051.026.077 0 .025 0 .05.025.076 0 0 .026.025.05.025 0 0 .026-.025.026-.05v-.153c.026-.203.076-.381.153-.559.152-.33.38-.61.66-.813a2.37 2.37 0 011.016-.304c.381-.026.762.025 1.092.203a1.8 1.8 0 01.737.711c.178.305.254.686.254 1.041s-.102.737-.305 1.042a2.005 2.005 0 01-.787.736c-.33.153-.711.229-1.067.178a2.441 2.441 0 01-.737-.203 3.55 3.55 0 01-.66-.406 14.69 14.69 0 01-.66-.534c-.23-.203-.458-.406-.686-.584a3.777 3.777 0 00-.788-.508 4.38 4.38 0 00-.94-.406 4.094 4.094 0 00-1.117-.153 4.41 4.41 0 00-1.143.127 4.15 4.15 0 00-.94.33c-.254.153-.508.33-.762.534-.228.178-.432.406-.635.635-.203.228-.38.457-.559.686-.203.228-.38.482-.558.71-.204.23-.381.433-.61.661a4.876 4.876 0 01-.66.56l-.153.075c-.025.026-.076.051-.101.076-.026 0-.076.026-.076.051 0 .051.05.076.076.102.025 0 .076.025.101.05.051.026.102.051.153.102.254.153.457.33.66.534.229.203.406.431.61.66.177.229.355.483.558.711.178.229.356.457.56.686.202.229.406.457.634.635.254.203.508.38.762.533.305.153.61.254.94.33.381.102.762.128 1.143.128.38 0 .762-.051 1.118-.153a6.06 6.06 0 00.94-.38c.279-.153.533-.331.787-.534.228-.178.457-.381.685-.56.204-.202.432-.38.66-.558.204-.152.433-.305.661-.406.229-.102.483-.178.737-.203.356-.051.737.025 1.067.177.33.153.61.432.787.737.203.305.305.686.305 1.041 0 .381-.076.737-.254 1.042a1.804 1.804 0 01-.737.71c-.33.179-.71.23-1.092.204-.355 0-.711-.127-1.016-.305a2.08 2.08 0 01-.66-.812 2.017 2.017 0 01-.153-.56v-.152c0-.025-.025-.05-.025-.05-.025 0-.05.025-.05.025-.026.025-.026.05-.026.076-.026.026-.026.05-.026.076a.36.36 0 00-.05.153c-.128.355-.153.736-.153 1.092.025.356.127.711.254 1.041.152.33.33.635.584.89.229.253.534.482.838.634.33.178.712.28 1.067.33.381.051.788.026 1.143-.05a5.04 5.04 0 001.042-.356c.33-.178.61-.406.889-.66.254-.254.482-.534.66-.864.178-.33.305-.711.381-1.092.076-.407.076-.813.025-1.22a4.114 4.114 0 00-.304-1.092" fill="#361d66"/><path d="M12.6 9.15l-.026-.025c-.457-.102-.863-.356-1.219-.61-.406-.305-.787-.61-1.168-.889-.407-.28-.864-.508-1.346-.533a1.913 1.913 0 00-1.118.254 2.047 2.047 0 00-.737.736c-.203.33-.28.712-.28 1.067v.026c0 .355.077.736.28 1.066.178.305.432.56.737.737.33.178.736.28 1.118.254.482-.025.94-.254 1.346-.533.38-.28.762-.585 1.168-.89.356-.254.762-.507 1.22-.61 0 0 .025-.024.025-.05" fill="#c60a8d"/><path d="M49.454 9.836l1.702-4.013 1.6 4.013zm4.14 4.928h4.47c-.889-.534-1.168-1.042-1.727-2.337C53.264 5.289 52.172 2.8 52.172 2.8s-.686 1.143-2.896 1.575c.153.101.33.38.33.686 0 .203-.05.457-.177.787l-2.921 6.579c-.635 1.371-.991 1.98-1.855 2.26-.685-.38-.812-.762-.812-2.133V5.772c0-1.422.127-1.778.863-2.185h-3.988c.711.407.864.763.864 2.185v2.311h-5.562V5.772c0-1.422.152-1.778.889-2.185h-4.014c.762.407.89.763.89 2.185v6.782c0 1.422-.128 1.778-.89 2.21h4.014c-.737-.432-.89-.788-.89-2.21V9.658h5.563v2.896c0 1.422-.153 1.778-.889 2.21h7.9c-.382-.23-.686-.56-.686-.991 0-.305.101-.508.355-1.067l.635-1.524h4.42l.66 1.702c.203.432.28.635.28.914 0 .407-.356.737-.66.966m7.621-2.21V5.772c0-1.422.127-1.778.838-2.185H58.09c.712.407.864.763.864 2.185v6.782c0 1.422-.152 1.778-.864 2.21h3.963c-.711-.432-.838-.788-.838-2.21M32.538 2.801c-.406.356-1.067.788-2.82.788h-5.003c-.99 0-1.397-.584-1.575-.94-.38.864-1.346 2.083-1.93 2.565h4.674v7.189c0 1.448-.204 1.905-.89 2.362h3.988c-.71-.432-.838-.787-.838-2.21V5.214h.66c.991 0 1.525-.101 1.931-.254 1.067-.38 1.727-1.168 1.803-2.159" fill="#361d66"/></g></svg>