<svg width="106.83" height="45.139" viewBox="0 0 28.266 11.943" xmlns="http://www.w3.org/2000/svg"><path d="M15.922 2.758h-.921a.596.596 0 00-.586.501c-.2 1.02-.323 2.14-.464 3.14a64.59 64.59 0 00-.53-3.205.584.584 0 00-.59-.436h-.936a.586.586 0 00-.59.436c-.232.986-.411 2.247-.53 3.194-.14-.996-.265-2.112-.464-3.129a.596.596 0 00-.585-.501h-.922c-.263 0-.66.196-.615.669.18 1.63.643 3.751 1.175 5.678a.61.61 0 00.61.49h1.212a.617.617 0 00.604-.495l.561-2.563h.024l.562 2.563a.617.617 0 00.603.495h1.213a.61.61 0 00.609-.49c.533-1.927.994-4.047 1.176-5.678.045-.473-.352-.67-.616-.67M1.017 1.368c0-.34.275-.616.615-.616h1.124c.34 0 .616.276.616.616V2.76h.594c.233 0 .422.189.422.422v.685a.422.422 0 01-.422.421h-.594v3.223c0 .392.246.53.594.53.233 0 .422.19.422.423v.711a.422.422 0 01-.422.422c-.328.024-.669.036-.918.036-1.32 0-2.031-.807-2.031-2.323V4.289H.554a.422.422 0 01-.422-.421v-.685c0-.233.19-.422.422-.422h.463m25.021.487a.616.616 0 01.602-.489h.878a.615.615 0 01.608.714c-.311 1.904-.991 4.258-1.61 6.282-.472 1.542-1.088 2.061-2.252 2.061-.285 0-.596-.005-.84-.018a.421.421 0 01-.422-.422v-.73c0-.233.19-.422.422-.422h.059c.54 0 .722-.378.72-.517-.004-.226-.048-.329-.096-.506-.43-1.379-.943-3.572-1.383-5.699a.615.615 0 01.602-.743h.898c.286 0 .526.195.596.459.231.852.472 2.463.661 3.452h.024c.165-1.105.36-2.632.533-3.422m-7.468 6.43c-1.14 0-1.875-.764-1.875-1.945 0-1.217.845-2.004 2.66-2.475.412-.098.587-.296.587-.664 0-.26-.184-.449-.437-.449-.229 0-.394.119-.443.317-.087.353-.326.518-.752.518h-.596c-.425 0-.69-.258-.69-.674 0-.07.01-.14.031-.204.385-1.308 1.7-1.503 2.45-1.503.86 0 1.455.14 1.87.439.486.35.739.932.772 1.778.043 1.006.077 3.006.013 4.11 0 .367-.309.67-.69.67h-.777c-.354 0-.632-.258-.686-.63-.296.455-.81.712-1.438.712m1.414-3.131c-.093.076-.22.14-.35.205-.307.154-.656.329-.702.73a.53.53 0 00.12.432c.084.093.21.148.334.148.36 0 .598-.163.598-.959" fill="#c82f26"/><path d="M7.31.938L7.28.88A1.38 1.38 0 105.204 2.6c.394.305.797.88-.154 1.775-.179.187-.05.334.07.412.29.189.483.16.793 0 .797-.414 2.24-2.091 1.396-3.85" fill="#79a23d"/></svg>