<svg width="907.011" height="960" viewBox="0 0 239.98 254" xmlns="http://www.w3.org/2000/svg"><path fill="#d71a21" d="M0 0h239.98v254H0z"/><g fill="#fff"><path class="st0" d="M130.569 62.983a11.21 11.21 0 00-2.35 6.827v21.433c-.113 1.623-.728 3.134-1.736 4.421-.56.56-3.861 3.526-4.14 3.862l1.846.056c.616-.56 6.995-6.212 7.61-6.995 1.848-2.015 2.91-4.645 2.91-7.387V64.606a7.897 7.897 0 012.183-5.653c.784-.84 3.246-2.91 3.694-3.413l-1.959-.056c-.392.503-7.387 6.827-8.058 7.499zm-15.726 77.955l7.779 6.771h5.204c4.981 0 9.794-1.959 13.32-5.484 3.19-3.19 4.364-7.5 4.364-11.528V119.56c-.055-2.518-1.119-4.924-3.021-6.603-.336-.336-2.63-2.519-2.63-2.519v8.563s2.518 2.574 2.965 3.077c2.295 2.463 2.295 6.94-5.036 14.047-1.287 1.231-4.925 4.7-9.962 4.7z"/><path class="st0" d="M136.5 95.217c-.839.895-1.678 3.134-1.678 5.148v4.197h4.253c1.679 0 3.861-1.51 4.309-2.294V98.07a10.39 10.39 0 002.294 2.406c.448-.56 4.365-5.26 7.611-5.316 5.429-.056 4.197 6.827 2.015 9.01-.728.727-3.918 3.637-4.925 4.589-2.574 2.462-6.995 1.287-6.995-5.037 0 0-4.7 4.477-5.428 5.092s-3.134 3.19-3.134 3.19v11.137c0 5.316-1.735 7.107-3.19 8.73-.56.615-6.548 6.1-7.387 6.715l-1.959.056s3.526-3.19 4.197-3.917c.784-.84 1.735-2.518 1.735-5.317 0-.727-.112-17.46-.112-17.46h-27.31c-9.513 0-11.527-10.52-11.583-13.375V87.998c0-1.735-1.12-4.645-2.854-5.54h2.686c.336.111 2.014.783 2.014 7.274 0 0-.111 7.5-.111 7.947 0 3.302 2.63 7.051 6.38 7.051l30.89-.056c0-.84.84-3.973 2.35-5.652.84-.951 7.5-6.995 8.227-7.61h1.959c-.28.28-3.526 3.133-4.197 3.917zm10.13 6.323a27.31 27.31 0 002.63 3.078c3.358 2.687 4.925-.224 2.686-3.245-.895-1.232-4.309-.896-5.316.167z"/><path class="st0" d="M113.5 121.463c0 1.51-4.757 5.484-5.036 5.708-.336-1.623-1.567-3.358-5.093-6.94l5.205-5.204c3.525 3.526 4.924 4.31 4.924 6.436zm9.066-59.823c1.063 1.063 3.302 3.86 1.959 5.26a372.652 372.652 0 00-3.022 3.078c-.112-.672-1.847-2.35-1.847-2.35v5.652c-.056 2.294-.895 2.91-.895 2.91s4.197 4.14 4.197 9.513v5.484a3.747 3.747 0 01-1.063 2.799c-.392.447-4.254 4.365-4.87 4.868-.895.784-2.014 1.231-3.189 1.175H99.342c-2.295 0-4.645-1.79-4.645-3.581 0-.448.056-5.372.056-5.372.727.839 1.51 1.846 3.302 1.846 1.455 0 2.91-1.119 3.301-1.567s10.969-11.416 10.969-11.416-4.925-4.589-8.17-6.771c-1.567-1.064-3.694.28-4.03 1.679-1.007 4.365 0 10.968 0 10.968l-3.973-3.973c-1.623-1.623-1.567-5.26.392-7.163.28-.336 3.246-3.582 6.939-3.582h5.764c3.861 0 8.115 3.861 8.115 3.861.335-.391.56-.839.615-1.343 0-2.014-.056-7.33-.056-7.33-2.91-2.91-3.302-5.933-1.902-7.332 2.63-2.63 3.581-3.525 3.581-3.525s-.112 3.19 2.966 6.212zm-18.188 29.1c-1.455 1.51-1.678 1.847-3.022 2.686h16.341c4.421 0 3.526-2.742 2.743-4.141-1.623-2.854-6.772-8.115-6.772-8.115s-9.01 9.29-9.29 9.57z"/><path class="st0" d="M85.743 105.626h-2.686s2.854 1.567 2.854 5.652v13.039c0 8.45 6.995 16.285 15.501 16.285h7.108c4.253 0 5.764-1.007 8.338-3.302.951-.84 2.182-2.238 2.63-2.742 1.455-1.679 3.078-3.022 3.078-7.387v-4.253c0-3.694-2.126-5.205-3.19-6.268a346.495 346.495 0 00-2.462-2.406v8.73s1.79 1.903 2.574 2.518c3.694 2.91.784 7.947-2.686 7.947h-15.613c-5.709.112-13.487-4.98-13.487-13.599v-7.051c.056-7.163-1.959-7.163-1.959-7.163z"/><path class="st0" d="M102.867 121.519c0 1.51-4.756 5.484-5.036 5.708-.336-1.623-1.567-3.358-5.093-6.94l5.205-5.204c3.47 3.47 4.924 4.253 4.924 6.436zM48.304 179.44H39.91c-2.63 0-2.406-2.183-2.686-4.03v-11.976s1.847-.056 3.917-.056c2.295 0 5.205-.335 8.003 1.232a8.516 8.516 0 00-8.003-4.87H37.28v-3.86s0-3.358-.84-4.31h5.54c4.758 0 8.451-.056 12.312 2.463 0 0-.727-6.324-9.96-6.324h-18.02s3.133 2.686 3.021 8.115l.112 21.825c0 5.484 2.183 5.652 2.183 5.652h17.74c4.029 0 5.428-2.854 5.428-4.421l.056-2.07s-1.287 2.63-6.548 2.63zm47.232-1.847v-15.278c0-5.932-4.812-7.499-8.45-7.499-4.757 0-6.212 3.974-6.827 5.373-1.063-3.694-4.813-5.373-7.835-5.373-5.764 0-7.219 5.485-7.219 5.485s-.112-5.317-4.757-5.317h-4.533s2.63 1.063 2.63 5.652v16.957c0 5.596 2.239 5.708 2.239 5.708h7.499a7.186 7.186 0 01-2.854-5.764v-15.054c.112-.672 1.231-2.91 4.42-2.91 1.848 0 3.862 1.903 3.806 4.03v13.99c0 5.652 2.239 5.708 2.239 5.708h7.499c-1.791-1.4-2.854-3.47-2.854-5.764v-15.054a4.222 4.222 0 015.316-2.686c1.679.56 2.854 2.07 2.91 3.861v13.935c.056 5.708 2.238 5.652 2.238 5.652h7.5a7.16 7.16 0 01-2.967-5.652zm13.096 0a7.156 7.156 0 002.854 5.708h-7.5s-2.294.056-2.294-5.652V160.58c0-4.477-2.574-5.652-2.574-5.652h4.533c1.623 0 4.925 0 4.925 6.324v16.229zm23.056-20.483s-.728-2.014-3.806-2.014c-4.7 0-5.82 5.596-5.82 5.596-.391-4.42-1.567-5.708-4.868-5.708h-4.533s2.63 1.063 2.63 5.652v16.957c0 5.596 2.238 5.708 2.238 5.708h7.5a7.156 7.156 0 01-2.855-5.708v-13.935c.168-1.175.84-2.238 1.847-2.854 2.518-1.679 5.82-1.175 7.779 1.12zm34.864 1.008c1.567 0 3.078.392 4.421 1.12v-4.254h-6.268v-6.491c-1.343 2.126-3.077 4.029-5.036 5.652-2.127 1.735-6.604 3.917-6.604 3.917l4.757.056v19.699c0 5.484 2.295 5.484 2.295 5.484h7.443a7.05 7.05 0 01-2.91-5.54v-19.643h1.902zm22.721 8.562c-4.197 4.365-7.5 3.694-10.13 6.94 0 0 .448 4.365 3.75 5.875 1.12.504 5.764 2.183 8.73-2.965v4.588s-1.903 2.239-8.002 2.239c-7.331 0-12.368-5.764-12.368-13.599 0-7.723 4.085-14.83 11.864-14.886 7.555-.112 11.696 6.044 6.156 11.808zm-4.59-1.79c1.232-2.295 2.24-8.115-2.014-7.78-4.924.392-3.973 13.432-3.973 13.432 1.623-1.791 4.085-2.183 5.988-5.653zm-79.521-12.2c1.903-.056 3.358-1.623 3.358-3.47-.056-1.903-1.623-3.358-3.47-3.358-1.847.056-3.358 1.567-3.358 3.414 0 1.903 1.567 3.414 3.47 3.414zm34.305 27.365c-1.68 0-2.91-1.79-2.91-3.581 0-7.052 5.764-8.059 7.33-9.906v11.92c-.727.56-1.398 1.567-4.42 1.567zm4.42-16.229c-1.734 3.022-15.277 3.694-13.206 14.159.839 4.14 3.581 5.372 7.05 5.372 3.358 0 5.43-1.735 6.269-3.414.503 3.134 2.126 3.358 2.126 3.358h7.499c-1.79-1.343-2.91-3.414-2.91-5.652v-15.95c0-3.805-4.197-6.77-8.674-6.77a11.94 11.94 0 00-6.995 2.07v4.924s1.567-3.917 5.428-3.917c3.805 0 4.085 1.903 4.085 2.854.056 1.007-.112 2.07-.671 2.966zm61.951 11.752c.055 2.015-1.735 4.645-5.54 4.645-3.918 0-5.485-3.973-5.485-3.973v5.036c2.127 1.343 4.589 2.015 7.107 2.015 5.093 0 10.297-3.861 10.185-9.29a8.615 8.615 0 00-1.735-4.924c-1.734-2.295-4.868-3.918-7.33-5.429-1.4-.84-2.127-2.406-2.127-2.91-.056-.951.448-2.854 4.197-2.854 3.694 0 5.316 3.917 5.316 3.917v-4.756c-2.07-1.455-4.588-2.239-7.163-2.239-4.477 0-8.562 2.966-8.45 6.772.056 3.357 1.455 5.484 4.197 7.555a34.252 34.252 0 003.862 2.406c2.126 1.175 2.91 2.63 2.966 4.03z"/></g></svg>