<svg version="1.0" viewBox="0 0 1133.9 221.46" xmlns="http://www.w3.org/2000/svg"><path d="M1031.973 186.022l-136.39.082 117.94-150.67 69.895-.082-51.45 150.67" fill="#f1471c"/><path d="M1088.473 35.432h9.977l-51.915 150.67h-9.896l51.835-150.67" fill="#00a650"/><path d="M1035.373 122.072c-1.411 7.872-6.07 14.61-12.53 18.795l-.163-47.739c6.485 4.12 11.184 10.825 12.652 18.657l10.409.016c-2.537-18.795-18.64-33.283-38.13-33.283-19.496 0-35.6 14.504-38.128 33.291l10.14-.008c.016-.09.082-.359.098-.449 1.525-7.513 6.028-13.95 12.228-18.012l.04 47.437a28.345 28.345 0 01-12.407-18.722l-10.107-.016c2.463 18.87 18.59 33.438 38.137 33.438 19.538 0 35.665-14.56 38.162-33.422l-10.401.016zm-27.891 23.559a28.97 28.97 0 01-5.22-.481l.007-55.717a28.448 28.448 0 0110.246-.033v55.782c-1.623.294-3.32.449-5.033.449" fill="#fff"/><path d="M1035.373 122.072c-1.411 7.872-6.07 14.61-12.53 18.795l-.163-47.739c6.485 4.12 11.184 10.825 12.652 18.657l10.409.016c-2.537-18.795-18.64-33.283-38.13-33.283-19.496 0-35.6 14.504-38.128 33.291l10.14-.008c.016-.09.082-.359.098-.449 1.525-7.513 6.028-13.95 12.228-18.012l.04 47.437a28.345 28.345 0 01-12.407-18.722l-10.107-.016c2.463 18.87 18.59 33.438 38.137 33.438 19.538 0 35.665-14.56 38.162-33.422l-10.401.016zm-27.891 23.559a28.97 28.97 0 01-5.22-.481l.007-55.717a28.448 28.448 0 0110.246-.033v55.782c-1.623.294-3.32.449-5.033.449z" fill="none"/><path d="M255.573 184.532h-28.144v-58.866h28.144v58.866zm-41.52-58.87H185.86v32.435l-26.325-32.435h-28.128v58.874h28.062v-32.394l26.782 32.394h27.801v-58.874m-117.519 0v.016h-6.665v38.145c0 3.239-3.932 5.882-8.786 5.882h-8.794c-4.862 0-8.802-2.643-8.802-5.882v-38.145h-27.98v10.744a6.979 6.979 0 00-.074 1.02v35.323c0 6.502 7.873 11.772 17.588 11.772h47.478c9.716 0 17.588-5.27 17.588-11.772v-47.102H96.533m248.93 58.859h27.646l-30.028-58.841h-32.272l-30.224 58.915h27.801l4.152-8.378h28.83l4.094 8.305zm-25.574-23.127l7.105-14.317 7.073 14.317h-14.178m89.794 23.127h-27.279v-58.727h27.279v58.727zm82.84-26.65c6.958 0 6.82-7.84 6.82-7.84v-10.147c0-12.873-13.631-14.072-13.631-14.072l-62.732-.017v58.727h27.296V164.26h18.11c3.785 0 3.711 3.777 3.711 3.777v16.487h27.287v-16.487c-.016-9.47-6.86-10.164-6.86-10.164zm-23.502-8.745h-19.056v-8.517h19.056a4.258 4.258 0 014.25 4.25 4.256 4.256 0 01-4.25 4.267m91.942-24.556v7.25h-31.344v8.125h72.344v-8.125h-30.844v-7.25h-10.156zm-12.844 18l-10 2.625 8.531 32.406h-17.719v8.406h73.688v-8.406h-17.688l9.25-35.031h-10.688l-9.25 35.031h-16.875l-9.25-35.031zm280.284-18.25v4.719h-30.375c-1.158 0-1.755.52-1.813 1.531v14.094h9.407v-7c0-.563.316-.844.968-.844h54.281c.645 0 .97.281.97.844v7h9.405v-14.094c-.057-1.012-.646-1.531-1.812-1.531h-31v-4.719h-10.031zm-8.031 16.406l-3.375 5c-.947 1.411-1.704 1.531-5.375 1.531h-13.125l.031 7.844 20.375.031c3.32 0 5.864-1.855 7.406-4.906l5.22-9.5h-11.157zm15.375 0v8.75c0 4.046 2.327 5.6 6.969 5.656h26.062v-7.875h-20.312c-1.183 0-1.782-.51-1.782-1.562v-4.97h-10.938zm-35.75 18.219v7.844h28.406v10.812h-32.125v8.344h75.125v-8.344h-33V166.79h29v-7.844h-67.406zM632.553 124.54v6.844c0 2.847-1.26 5.206-3.781 7.156-2.48 2.097-6.16 3.793-11.062 5l3.656 4.781h-2.031c-1.167 0-1.764.466-1.813 1.469v14.125h9.47v-7.031c0-.555.308-.813.937-.813h22.594v3.344h-20.47v7.25h15.813c-8.125 3.997-17.44 6.822-27.938 8.438l4.062 7.437c8.615-1.338 17.926-4.625 28.531-9.969v13.344h9.406v-13.25c6.983 4.12 16.264 7.263 27.188 10.094l5.375-7.156c-11.633-2.276-21.255-4.883-28.156-8.937h15.875v-7.25h-20.28v-3.344h22.53c.637 0 .938.258.938.812v7.032h9.437V149.79c-.065-1.004-.685-1.47-1.843-1.47h-2.375l3.062-3.593a174.081 174.081 0 00-15.938-8.344c.383-1.395.6-2.714.656-3.937v-7.907h-8.969v7.907c0 3.548-2.225 6.505-6.687 8.78-1.51.784-3.302 1.446-5.406 2l4.406 5.095h-10.562l4.125-4.438a159.42 159.42 0 00-12.844-7.5c.71-1.721 1.062-3.376 1.062-5v-6.844h-8.968zm49.906.656c-.857 2.554-2.543 5.797-5.031 9.688l7.687 2.844c2.415-3.72 4.123-7.065 5.094-9.97l-7.75-2.562zm-35.281.094c-.857 2.553-2.506 5.846-4.938 9.844l7.657 2.812c2.096-3.393 3.684-6.426 4.687-9.093 1.15 2.112 2.28 4.98 3.406 8.593l8.063-1.906c-1.183-4.12-2.564-7.52-4.188-10.188l-7.656 2.188-7.031-2.25zm-21.812.156l-7.656 2.75c1.607 2.284 3.278 5.525 5 9.75l7.906-2.5c-1.615-4.054-3.374-7.373-5.25-10zm11.312 16.75a125.296 125.296 0 018.813 6.125h-18.5c3.646-1.648 6.905-3.686 9.687-6.125zm35.688.125a157.21 157.21 0 019.906 6h-18.78c1.875-.832 3.542-1.704 4.937-2.594a24.611 24.611 0 003.937-3.406zm50.377-19.344c-.383 1.436-1.096 3.312-2.156 5.531h-7c-1.632 0-2.281.755-2.281 2.313v20.656l-5.032.437 1.75 7.5 3.188-.312c-.171 9.308-1.67 17.545-4.469 24.78l10.156 1.845c2.537-7.497 3.81-15.363 3.875-23.594v-3.875l2.031-.188v16.812h7.531v-17.5l2.063-.187v20.375c0 .383-.297.688-.844.843-.701.172-3.396-.131-8.062-.906l1.469 8.25c5.987.286 9.655.356 10.969.25 1.378-.171 2.648-.782 3.937-1.687.563-.392 1.156-1.25 1.156-1.25.726-.678.844-4.657.844-4.657v-22.062l4.531-.406-1.094-7.5-3.437.313v-18.094c0-1.673-.767-2.157-2.406-2.157h-8.625c.383-1.117.728-2.184 1.062-3.187l-9.156-2.344zm35.844 1.438v6.156h-14.344v7.844h38.062v-7.844h-13.906v-6.156h-9.813zm-36.906 11.655h9.781c.612.009.93.306.938.844v7.844a257.307 257.307 0 01-2.22-3.312c-1.394-1.966-2.359-3.303-2.905-4.094l-6.5 2.562v-3.03c0-.54.302-.805.906-.813zm-.906 5.594c2.308 3.337 3.942 5.867 4.937 7.532l6.688-2.188v2.594l-11.625 1.031v-8.969zm30.625.438c-.792 0-1.406.654-1.406 1.437v31.031c-.074.816-.45 1.845-1.844 1.813 0 0-.278-.031-3.688-.031l.032 9.562s6.943.206 9.562-.406c0 0 5.365-.857 5.5-9.938v-24.78c.008-.556.342-.805.938-.813h5.78c.588.008.874.26.907.75v25.78l.031.063c.082 7.53 5.5 8.938 5.5 8.938 2.603.611 9.594.406 9.594.406v-9.563c-3.418 0-3.5.032-3.5.032-1.566 0-1.845-.923-2-1.657v-31.188c0-.783-.662-1.437-1.438-1.437H751.4z" fill="#f1471c"/></svg>