<svg xmlns="http://www.w3.org/2000/svg" width="229.261" height="39.489" viewBox="0 0 60.659 10.448"><defs><linearGradient id="a" spreadMethod="pad" gradientTransform="matrix(-20.45784 -23.59771 23.23231 -20.14106 51.57 572.433)" gradientUnits="userSpaceOnUse" y2="0" x2=".75" y1="0" x1=".25"><stop offset="0" stop-color="#be2323"/><stop offset="1" stop-color="#dd2a1b"/></linearGradient></defs><path d="M20.793.894L18.936 6.25c-.29.93-.655 1.065-1.35 1.066-.81 0-1.02-.299-.708-1.213l1.518-4.444c.134-.49.15-.766-.386-.766h-1.84c-.441 1.6-1.19 3.417-1.738 5.013-.467 1.362.214 2.883 1.77 2.89.56.003 1.122 0 1.683 0 1.083 0 1.748.012 2.585-.769.557-.52.845-1.439 1.12-2.235.567-1.632 1.125-3.267 1.69-4.9h-2.487zm20.443 6.824l.906-2.614-.653-.002c-1.133 0-1.848.225-2.145 1.294-.231.835.007 1.298.885 1.322h1.007zm6.962-1.805c.1-.46-.05-.807-.602-.807-.766 0-1.134.308-1.422.995l1.789.002a.24.24 0 00.235-.19zm-2.2 1.11c.038.404.313.668.745.686.822.032 1.667.002 2.493.002-.359 1.035-.359 1.034-1.153 1.037-.961.003-2.12.007-2.297-.029-1.189-.233-1.606-1.299-1.389-2.401.13-.66.461-1.246 1.001-1.655.507-.384 1.158-.584 1.875-.584h.85c1.049 0 1.812.484 1.812 1.6 0 .317-.099.728-.245 1.058a.472.472 0 01-.44.285h-3.253zM56.58 8.75c-1.57.019-2.331-.886-2.05-2.412.293-1.602 1.486-2.265 2.94-2.265.485-.006 1.126-.027 1.596.084 1.217.289 1.658 1.265 1.378 2.448-.352 1.485-1.458 2.144-2.89 2.144-.324 0-.65-.002-.974 0zm.268-1.037a4.4 4.4 0 00.77-.004c.615-.066.924-.659 1.091-1.188.186-.59.126-1.3-.634-1.396a3.193 3.193 0 00-.377-.018c-.913.005-1.303.492-1.516 1.372-.133.55.007 1.186.666 1.234zm-6.79.65l.96-2.766c.355-1.076.76-1.522 2.041-1.522h1.759c-.044.242-.25 1-.556 1.03-.301.01-.683-.026-.972.036-.217.047-.335.161-.43.438l-1.098 3.166h-1.454c-.17 0-.3-.244-.25-.383zm-10.904.381c-1.364-.032-1.668-1.37-1.5-2.357.281-1.641 1.606-2.312 3.23-2.312h2.931c.26 0 .404.154.308.43l-1.47 4.24-1.418-1.028-.356 1.028h-1.725zM31.28 2.547h1.733l-1.643 4.74c-.107.31-.336.89-.23 1.149.17.419.552.36.92.361h1.278l2.167-6.249h1.197c.556 0 .805.033.976-.111.26-.22.522-1.076.584-1.543h-6.475zm-3.687 5.004L31.6.894h-2.582L25.67 6.536l-.313-4.957c0-.418-.112-.685-.622-.685h-1.268l-.15 1.872.225 4.824c.015.918.742 1.3 1.733 1.3 1.084 0 1.686-.384 2.318-1.338" fill="#26386e" fill-rule="evenodd"/><path d="M2.198 4.94c-.092-1.188.566-2.4 1.468-3.333 1.677-.371 3.4.059 4.6 1.294l.036.038c.449-.603.884-1.328 1.007-2.007a4.956 4.956 0 00-2.87-.69 4.964 4.964 0 00-2.877 1.156 4.978 4.978 0 00-3.43 4.629c.911 1.014 3.218.849 3.71.699-.877.148-1.533-.335-1.644-1.786zm9.522.73a4.937 4.937 0 00-.731-3.094l.795-1.12c.844-1.191.944-1.098.855-1.206-.096-.115-1.27-.376-2.277.63-.152.151-.304.309-.455.47l-.002.003-.02.021-.02.022-.001.003-.018.019-.005.005-.015.017-.007.007-.013.014-.009.01-.011.012-.011.012-.009.01-.013.015-.007.008-.015.017-.005.005-.018.02-.002.002-.02.022-.02.023-.002.002-.019.02-.004.005-.016.018-.006.007-.015.016-.008.009-.012.013-.01.012-.01.011-.021.023-.015.017-.006.006-.018.02-.003.004-.02.022v.001l-.021.023-.001.001-.02.022-.004.004-.017.02-.006.006-.016.017-.008.01-.013.014-.01.012-.01.012-.037.04-.006.007-.017.02-.004.004-.02.022-.002.002-.021.024-.021.024-.003.003-.019.021-.005.006-.016.018-.008.01-.014.015-.01.011-.011.013-.013.014-.009.01-.014.017-.007.008-.017.02-.005.004-.02.022-.002.003-.021.024-.022.025-.002.002-.02.022-.004.005-.018.02-.007.008-.014.017-.01.01-.012.014-.012.014-.01.011-.014.016-.008.01-.016.018-.006.006-.018.021-.004.004-.02.025h-.001l-.022.025-.002.002-.02.023-.004.005-.018.02-.007.008-.015.018-.009.01-.013.015-.011.012-.011.013-.014.015-.008.01-.016.018-.006.007-.018.021-.004.004-.066.075-.003.004-.01.012-.013.014-.002.002-.001.002-.004.004-.003.004-.003.004-.11.127-.087.1-.024.027c-.076.088-.153.174-.23.26l-.002.003-.021.024A28.86 28.86 0 016.94 4.645l-.003.003C4.702 6.96 3.027 7.14 2.163 7.22c-.659.06-1.355.02-1.952-.19.143.782.47 1.506.94 2.12.185.244.401.45.638.618 1.24.049 2.345-.171 2.345-.171-.248.226-.825.449-1.41.613a3.147 3.147 0 002.162-.202c1.159-.544 1.736-1.393 2.46-2.378.643-.876 1.355-1.859 2.068-2.851.217.64.306 1.337.239 2.054a4.954 4.954 0 01-1.058 2.635.18.18 0 00-.001.225.18.18 0 00.218.053 4.976 4.976 0 002.907-4.075" fill="#e31f24" fill-rule="evenodd"/><path d="M52.83 555.907c-.757-.843-1.31-1.473-1.354-1.522l-.004-.003c-2.186-2.454-4.461-4.818-6.926-6.635a23.03 23.03 0 00-1.37-.94l2.682-8.43c1.28 1.39 2.654 2.757 3.97 4.548a955.03 955.03 0 015.863 8.083 14.208 14.208 0 01-2.86 4.9" fill="url(#a)" fill-rule="evenodd" transform="matrix(.35278 0 0 -.35278 -10.232 199.162)"/></svg>