<svg width="61.923" height="39.31" viewBox="0 0 16.384 10.401" xmlns="http://www.w3.org/2000/svg"><path d="M1.501 10.248a.378.378 0 00.374-.385V8.796a.38.38 0 00-.374-.385h-1l-.369.45H1.44v.937h-.8v-.232h.43l.365-.451H.576a.38.38 0 00-.372.385v.363c0 .214.167.385.372.385m1.946-2.51v.54h-.437zm-.437.68v1.831l.437-.525V8.418m1.605-.01H3.084a.379.379 0 00-.372.385v1.453l.436-.55V8.86h.628m10.218-.442h-1.036a.383.383 0 00-.376.388v1.451h.441V8.872h.906v1.383l.44-.378V8.806a.382.382 0 00-.375-.388m-6.866 1.85h1.035a.383.383 0 00.376-.389V8.412l-.44.388v1.013h-.907V8.416h-.44v1.463c0 .215.168.389.376.389m8.751-.02a.378.378 0 00.372-.385V8.796a.379.379 0 00-.372-.385h-1l-.37.45h1.306v.936h-.8v-.23h.431l.365-.452h-.859a.38.38 0 00-.372.385v.363c0 .213.167.384.372.384m-9.757-.449v-2.11l-.433.543-.001 1.632c0 .214.167.385.373.385h1.043a.378.378 0 00.373-.385V8.797a.379.379 0 00-.373-.386h-.604l-.37.45h.91v.937h-.916m7.173-2.06v.54h-.437zm-.437.68v1.83l.437-.524V8.418m-2.216-.01H9.11a.38.38 0 00-.373.385v1.453l.437-.55V8.86h.627m1.205.468c.068.09.76.925.76.925l-.554.004-.57-.682v.682l-.436-.004.004-2.004.433-.543-.003 1.367.55-.662.58-.002-.762.916" fill="#543218"/><path d="M8.443 2.878c-.098-.097-.14-.186-.096-.302.045-.116-.037-.204.125-.362.162-.156.47-.361.57-.455.103-.093.328-.251.328-.251s.011.002.056-.114c.045-.115.075-.147.157-.194.082-.048.617-.3.617-.3s-.2-.257-.07-.58c0 0 .438.176.523.662.024.14-.038.426-.365.541 0 0 .291.164.498-.109 0 0 .78.312.667 1.38-.113 1.069-.394 1.687-.918 1.879 0 0 .796-.34 1.302-.004 0 0-.76-.074-1.206.367-.156.154-.307.069-.536.115-.229.046-1.028.683-.755 1.227 0 0-.353-.327-.06-.988.06-.138.23-.405.276-.669.046-.264.335-.72.538-.968.203-.249.287-.518.202-.805 0 0 .793-.107.554-.917 0 0-.062.438-.358.574-.3.138-.566.005-.566.005s-.128.209-.249.261c-.12.054-.22.067-.317.136a.776.776 0 01-.469.12c-.133-.012-.186-.066-.117-.178 0 0-.164.095-.331-.07" fill="#231f20"/><path d="M10.87.938S10.824.57 10.562.45c0 0 .042-.24.104-.316 0 0 .366.226.411.667 0 0 .53.206.695.383.165.178.749.282.749.282s-.058.188-.15.22c0 0 .322.268.379.364l-.158.06s.47.256.613.566c0 0-.142.11-.354.06 0 0 .227.24.247.342 0 0-.14.098-.37.009 0 0 .315.303.45.376 0 0-.271.076-.422.024 0 0 .496.324.593.613 0 0-.199.014-.53-.132 0 0-.117.252.235.624 0 0-.252.03-.39-.082l-.14-.112s-.518.007-.484-.68c.035-.686-.001-2.375-1.17-2.781" fill="#231f20"/><path d="M12.488 4.598c-.06-.048-.052.225-.279.26-.227.033-.947.079-1.488.366-.542.287-.866.874-.845 1.248 2.322.413 3.802-.327 3.802-.327-.374-.103-.525-.65-.525-.65s-.263.238-.416.063c-.154-.176-.185-.403.066-.446.456-.08 1.346-.426 1.338-1.89 0-.137.078-.308.365-.406.287-.098 1.385-.471 1.627-.663l.012-.494s-.645.53-1.498.774-1.43.587-1.213 1.108l-.12.053s.238.253.288.459c.05.207.009.163.009.163s-.24.18-.526.055c0 0 .12.367.237.4 0 0-.358.296-.834-.073" fill="#ef2e31"/><path d="M16.24 2.308c-.2.162-.886.436-1.766.688l-.025.145s1.242-.287 1.728-.473m-1.731.64c.42-.086 1.488-.292 1.71-.438 0 0-.031.315-.42.432-.39.116-1.368.24-1.368.24m-.002.156s1.356-.106 1.78-.352c0 0-.239.452-.565.493-.327.041-1.298.116-1.298.116m-.017.173c.682.034 1.497-.069 1.734-.298 0 0-.232.552-.754.583-.52.031-1.054-.076-1.054-.076m-.052.161c.297.053 1.14.215 1.503.031 0 0-.064.373-.594.378-.529.005-1.05-.248-1.05-.248m-.086.149c.182.081.723.425 1.325.284 0 0-.29.468-.598.402-.308-.068-.982-.497-.982-.497m-.115.101c.182.144.598.44 1.007.562 0 0-.028.367-.424.172-.395-.193-.716-.61-.716-.61m-.093.106c.128.184.41.53.662.637 0 0-.406.076-.543-.195a3.773 3.773 0 01-.185-.416" fill="#0fab4b"/><path d="M15.328 1.918c-.352.185-1.1.386-1.1.386s.338-.312.53-.636c.191-.325.288-.456.376-.465.087-.01.147-.073.157.151.01.225.037.564.037.564" fill="#fcd006"/><path d="M8.055 2.878c.098-.097.14-.186.094-.302-.044-.116.038-.204-.124-.362-.162-.156-.469-.361-.571-.455-.102-.093-.326-.251-.326-.251s-.011.002-.057-.114c-.045-.115-.075-.147-.157-.194-.082-.048-.617-.3-.617-.3s.201-.258.07-.581c0 0-.438.176-.522.662-.025.14.038.426.364.541 0 0-.29.164-.498-.109 0 0-.78.312-.666 1.38.112 1.069.393 1.687.917 1.879 0 0-.796-.34-1.302-.004 0 0 .761-.074 1.207.367.155.154.306.069.536.115.229.046 1.028.683.754 1.227 0 0 .354-.327.06-.988-.06-.138-.23-.405-.276-.669-.046-.264-.335-.72-.538-.968-.203-.249-.288-.518-.202-.805 0 0-.793-.107-.553-.917 0 0 .061.438.358.574.3.138.565.005.565.005s.129.209.249.261c.12.054.22.067.318.136.097.07.284.133.468.12.134-.012.187-.066.118-.178 0 0 .164.095.33-.07" fill="#231f20"/><path d="M5.627.938S5.674.57 5.935.45c0 0-.043-.24-.105-.316 0 0-.365.226-.411.667 0 0-.53.206-.694.383-.165.178-.749.282-.749.282s.057.188.15.22c0 0-.322.268-.38.364l.158.06s-.47.256-.613.566c0 0 .142.11.355.06 0 0-.23.24-.248.342 0 0 .14.098.37.009 0 0-.315.303-.45.376 0 0 .272.076.422.024 0 0-.496.324-.592.613 0 0 .198.014.529-.132 0 0 .118.252-.235.624 0 0 .251.03.391-.082l.14-.112s.517.007.483-.68c-.034-.686.002-2.375 1.17-2.781" fill="#231f20"/><path d="M4.01 4.598c.06-.048.051.225.278.26.227.033.947.079 1.488.366.542.287.866.874.845 1.248-2.322.413-3.803-.327-3.803-.327.376-.103.526-.65.526-.65s.262.238.415.063c.155-.176.185-.403-.066-.446-.456-.08-1.345-.426-1.337-1.89.001-.137-.078-.308-.365-.406-.288-.098-1.384-.471-1.627-.663l-.012-.494s.645.53 1.497.774c.854.244 1.43.587 1.214 1.108l.12.053s-.238.253-.289.459c-.049.207-.008.163-.008.163s.241.18.526.055c0 0-.12.367-.237.4 0 0 .36.296.835-.073" fill="#ef2e31"/><path d="M.256 2.308c.2.162.887.436 1.766.688l.025.145S.806 2.854.319 2.668m1.731.64C1.63 3.222.564 3.016.342 2.87c0 0 .03.315.42.432.388.116 1.367.24 1.367.24m.003.156S.775 3.592.35 3.346c0 0 .238.452.565.493.326.041 1.297.116 1.297.116m.019.173C1.55 4.162.733 4.059.497 3.83c0 0 .231.552.753.583.52.031 1.055-.076 1.055-.076m.053.161c-.298.053-1.14.215-1.504.031 0 0 .064.373.593.378.53.005 1.05-.248 1.05-.248m.087.149c-.183.081-.724.425-1.326.284 0 0 .291.468.598.402.307-.068.982-.497.982-.497m.116.101c-.184.144-.598.44-1.007.562 0 0 .028.367.423.172.397-.193.716-.61.716-.61m.093.106c-.128.184-.411.53-.662.637 0 0 .406.076.543-.195.137-.272.185-.416.185-.416" fill="#0fab4b"/><path d="M1.169 1.918c.352.185 1.098.386 1.098.386s-.336-.312-.528-.636c-.192-.325-.289-.456-.376-.465-.088-.01-.147-.073-.157.151-.01.225-.037.564-.037.564" fill="#fcd006"/></svg>