<svg width="466" height="469" viewBox="-0.015 -0.604 466 469" xmlns="http://www.w3.org/2000/svg"><path d="M0 0h465.81v467.96H0z"/><path d="M75.295 346.19h16.346l12.408 32.32h.248l11.444-32.32h15.216l-19.28 47.605h-16.03l-20.35-47.605zm84.515-1.13c15.067 0 27.222 9.813 27.222 24.91 0 15.191-12.155 24.945-27.222 24.945-15.153 0-27.224-9.754-27.224-24.945 0-15.098 12.07-24.91 27.224-24.91zm0 36.979c7.493 0 12.06-4.914 12.06-12.068 0-7.129-4.567-12.039-12.06-12.039-7.592 0-12.094 4.91-12.094 12.039 0 7.154 4.502 12.068 12.094 12.068zm35.59-62.259h15.09v74.016H195.4V319.78zm76.89 74.01h-13.879v-6.256h-.22c-2.346 3.375-8.151 7.381-15 7.381-14.5 0-24.096-10.162-24.096-24.51 0-13.252 8.474-25.346 22.385-25.346 6.22 0 12.093 1.625 15.494 6.22h.22v-5.095h15.096v47.605zm-25.967-35.859c-7.566 0-12.098 4.91-12.098 12.039 0 7.154 4.531 12.068 12.098 12.068 7.56 0 12.088-4.914 12.088-12.068 0-7.129-4.528-12.039-12.088-12.039zM285.1 346.19h15.195v7.654h.184c3.222-5.808 7.474-8.779 14.1-8.779 1.752 0 3.622.063 4.996.473v13.434c-2.093-.621-4.186-1.036-6.44-1.036-11.463 0-12.84 6.477-12.84 15.943v19.916H285.1V346.19zm42.69 0h15.135v47.605H327.79V346.19zm55.11 13.69c-2.407-2.313-5.968-4.094-9.599-4.094-2.502 0-5.622 1.498-5.622 4.315 0 7.594 25.751 1.724 25.751 19.186 0 12.162-12.128 15.635-22.596 15.635-7.182 0-14.496-1.692-19.595-6.819l8.78-8.816c2.975 2.844 7.003 4.91 11.535 4.91 3.38 0 6.971-1.28 6.971-3.78 0-8.278-25.747-1.655-25.747-19.315 0-11.188 10.307-16.035 20.522-16.035 6.476 0 13.632 1.53 18.16 6.22l-8.561 8.594zm-55.11-40.1h15.135v14.881H327.79V319.78z" fill="#fff"/><path fill="#252525" d="M229.56 73.623h24.576v24.609H229.56zm0 147.627h24.576v24.604H229.56zm-73.81-73.81h24.622v24.604H155.75zm147.59 0h24.604v24.604H303.34z"/><path fill="#fff" d="M229.56 147.44h24.576v24.604H229.56z"/><path fill="#D6EE89" d="M254.14 147.44h24.631v24.604H254.14z"/><path fill="#BAD5E8" d="M229.56 122.84h24.576v24.604H229.56z"/><path fill="#74A5CD" d="M229.56 98.232h24.576v24.607H229.56zm24.58 24.608h24.631v24.604H254.14zm-49.18 0h24.604v24.604H204.96z"/><path fill="#DA96C8" d="M204.96 147.44h24.604v24.604H204.96zm24.6 24.61h24.576v24.598H229.56z"/><path fill="#7FC31B" d="M278.77 147.44h24.571v24.604H278.77zm-24.63 24.61h24.631v24.598H254.14z"/><path fill="#911083" d="M180.37 147.44h24.59v24.604h-24.59zm49.19 49.2h24.576v24.604H229.56z"/><path fill="#911083" d="M204.96 172.05h24.604v24.598H204.96z"/></svg>