<svg data-name="Layer 1" viewBox="0 0 552.89 111.23" xmlns="http://www.w3.org/2000/svg"><defs><style>.cls-2{fill:#fff}.cls-3{fill:#00467f}</style></defs><path class="cls-2" d="M542.89 48l10-13.35s-11.18 2-13.75 2.37c-2 .25-2.33-.55-2.42-1.73-.07-.6-.43-7.35-.43-7.35l-16.24 7.86-.31-.35 12.55-22.78-10.91 4.78c-2.71 1.16-3.79 1-4.2-.92S514.82.79 514.74 0c-.78.79-14.49 14.69-16.39 16.53s-3.27 2.08-5 .92l-7-4.71-6.46 31.71-.39.09-10.61-15.7s-4.76 5.34-5.83 6.49-2.07 2-3.9 1.73c-2.25-.33-12.14-2.37-12.14-2.37s-.78 12.19-.9 13.35a6.4 6.4 0 01-2.67 4.57l-.55.46-4.16.38 14 16.47c3.17 3.74 3.11 5.24-.14 9.22l-4.18 5.13 21.12-3.56c2.37-.4 4.74.26 4.15 3.52-.4 2.23-2.62 14.48-2.62 14.48l11.06-18.81.42.07 27.68 4.3s.09-4.24.2-7.38 1.93-3.69 3-4.35 32.64-18.91 32.64-18.91l-3.17-1.72c-1.94-.99-.87-2.73-.01-3.91z" fill="#fff"/><path class="cls-2" fill="#fff" d="M501.62 46.68l-58.72 6.35.55-.46 36.05-8.07.38-.09 39.88-8.93.24.32-37.49 44.17-.42-.07z"/><path class="cls-3" d="M112.57 15.71L85.48 79.55a4.76 4.76 0 01-4.4 2.92H67.4l-11.72-32.8-14.32 30.07a4.8 4.8 0 01-4.32 2.71H23.6L0 15.71h21.09l13.23 42.6 13.42-30.86-4.18-11.7h18.92l14.39 42.6 16.46-42.6zm53.17 0l-1.68 9.56a4.78 4.78 0 01-4.72 3.94h-22.66l-2.18 12.48h25.81l-1.67 9.56a4.8 4.8 0 01-4.73 3.94h-21.78l-2.39 13.78h26.72l-1.72 9.56a4.79 4.79 0 01-4.72 3.94H107.5l11.67-66.76zm54.61 46.95c0 15.77-19.41 20.85-32.44 20.85a55.42 55.42 0 01-25.08-5.32l2.73-15.56c3.23 3.42 13.76 7.11 22.75 7.11 5.07 0 11-1.8 11-6 0-10.34-28.69-9-28.69-28.89 0-11.41 10.66-20.14 28.68-20.14 10.44 0 17.85 2.1 22.34 4l-1.54 8.82a3.83 3.83 0 01-5.11 2.92 39.09 39.09 0 00-13.94-2.6c-2.45 0-9.9.48-9.9 5.43 0 9.8 29.2 8.99 29.2 29.38zm67-46.95l-1.68 9.56a4.78 4.78 0 01-4.72 3.94h-15.83l-8.62 49.32a4.8 4.8 0 01-4.76 3.92h-15.8l9.32-53.26h-19.87l2.35-13.48zm27.18 0l-10.47 59.85c-3.73 21.33-16.73 31.92-30.49 35.67l-10.9-12.87c9.83-1.41 18.75-6.89 21.53-22.8l10.45-59.83zm56.68 0l-1.69 9.56a4.77 4.77 0 01-4.71 3.94h-22.69l-2.18 12.48h25.8l-1.68 9.56a4.79 4.79 0 01-4.72 3.94h-21.76l-2.41 13.78h26.72l-1.68 9.56a4.79 4.79 0 01-4.71 3.94h-42.56l11.68-66.76zm64.46 0L434 25.27a4.8 4.8 0 01-4.73 3.94h-15.83l-8.62 49.32a4.8 4.8 0 01-4.73 3.94h-15.83l9.32-53.26h-19.84l2.37-13.5z" fill="#00467f"/><path d="M479.52 44.66l-10.57-15.65s-4.75 5.32-5.81 6.47-2.07 2-3.89 1.72c-2.25-.33-12.1-2.36-12.1-2.36s-.78 12.15-.9 13.3a6.34 6.34 0 01-2.66 4.56zm40.13-8.99l12.5-22.71-10.89 4.73c-2.7 1.17-3.77 1-4.18-.91S514.74 1.09 514.61.3c-.78.79-14.44 14.65-16.33 16.48s-3.26 2.08-4.95.91-6.92-4.69-6.92-4.69l-6.5 31.57zm23.09 12.47l9.91-13.3s-11.14 2-13.71 2.36c-2 .25-2.32-.54-2.41-1.72-.07-.6-.42-7.32-.42-7.32l-16.19 7.83-37.37 44 27.59 4.28s.09-4.22.2-7.35 1.92-3.68 3-4.33 32.53-18.86 32.53-18.86l-3.13-1.69c-1.92-1-.86-2.72 0-3.9" fill="#00ac9d"/><path class="cls-3" d="M438.92 53.6l13.89 16.39c3.16 3.73 3.1 5.23-.13 9.19l-4.18 5.11 21-3.54c2.37-.4 4.73.26 4.15 3.51-.41 2.21-2.62 14.42-2.62 14.42l11-18.74 19.46-33.11-58.52 6.33z" fill="#00467f"/></svg>